# https://github.com/mikedh/trimesh
v 0.00595563 -0.00410961 0.03260266
v 0.00559682 -0.00291666 0.03263642
v 0.00573016 -0.00332738 0.03283053
v 0.00572168 -0.00507042 0.03312169
v 0.00585017 -0.00588093 0.03275176
v 0.00494950 -0.00280258 0.03285866
v 0.00488889 -0.00377926 0.03343114
v 0.00526467 -0.00428818 0.03343254
v 0.00544529 -0.00539482 0.03337346
v 0.00565137 -0.00647765 0.03269409
v 0.00517133 -0.00599303 0.03346630
v 0.00506102 -0.00687448 0.03261532
v 0.00420520 -0.00699600 0.03240434
v 0.00111769 -0.00281795 0.03329751
v 0.00348999 -0.00304861 0.03330876
v 0.00449128 -0.00321924 0.03327360
v 0.00362940 -0.00395386 0.03384326
v 0.00476767 -0.00511457 0.03379121
v 0.00513739 -0.00663043 0.03305417
v 0.00449492 -0.00582786 0.03376168
v 0.00429612 -0.00642011 0.03349865
v 0.00417853 -0.00679660 0.03297963
v -0.00404391 -0.00689382 0.03274472
v -0.00259168 -0.00681148 0.03309496
v -0.00529855 -0.00684075 0.03269127
v -0.00572404 -0.00690424 0.03202456
v -0.00234196 -0.00280456 0.03322999
v -0.00043152 -0.00292906 0.03339034
v 0.00175289 -0.00322916 0.03364493
v 0.00271660 -0.00350843 0.03374480
v 0.00202200 -0.00412301 0.03398954
v 0.00378699 -0.00488739 0.03396282
v 0.00339544 -0.00585663 0.03389249
v -0.00195648 -0.00658182 0.03349302
v -0.00043030 -0.00601039 0.03401627
v -0.00208376 -0.00627726 0.03387139
v -0.00449607 -0.00673112 0.03311887
v -0.00326203 -0.00655999 0.03354647
v -0.00508763 -0.00641565 0.03337487
v -0.00560767 -0.00650890 0.03293180
v -0.00596406 -0.00628271 0.03246200
v -0.00383784 -0.00295982 0.03331158
v -0.00156736 -0.00333482 0.03369416
v 0.00057341 -0.00364384 0.03389108
v -0.00043394 -0.00439731 0.03416818
v 0.00138680 -0.00506695 0.03412035
v -0.00010301 -0.00543103 0.03421319
v -0.00219407 -0.00587547 0.03409644
v -0.00362691 -0.00618648 0.03382779
v -0.00557736 -0.00602528 0.03315404
v -0.00459668 -0.00566417 0.03375324
v -0.00608043 -0.00559373 0.03242403
v -0.00441970 -0.00308631 0.03332705
v -0.00348144 -0.00361656 0.03374198
v -0.00201952 -0.00368204 0.03390093
v -0.00532522 -0.00311805 0.03294165
v -0.00599436 -0.00312946 0.03203581
v -0.00207407 -0.00477181 0.03416255
v -0.00139280 -0.00528322 0.03422444
v -0.00183768 -0.00418104 0.03408238
v -0.00326203 -0.00564185 0.03404158
v -0.00501732 -0.00451437 0.03346630
v -0.00574101 -0.00518302 0.03296415
v -0.00382450 -0.00488689 0.03395860
v -0.00567676 -0.00372618 0.03283756
v -0.00454092 -0.00390822 0.03357179
v -0.00336507 -0.00439086 0.03396704
v -0.01065880 0.00988013 0.00854189
v -0.01048345 0.00953017 0.01645972
v -0.01046257 0.01023521 0.01722524
v -0.01061913 0.01052642 0.00918089
v -0.01063375 0.01060561 0.00779078
v -0.01062540 -0.00734484 0.00905437
v -0.01061496 -0.00789406 0.01032756
v -0.01045422 -0.00070826 0.01868101
v -0.01040621 0.00923385 0.01769768
v -0.01029974 0.01039103 0.01807244
v -0.01031436 0.01118804 0.01772011
v -0.01043961 0.01092237 0.01550362
v -0.01054190 0.01130043 0.00904316
v -0.01055860 0.01078187 0.00505061
v -0.01058365 -0.00898994 0.00742404
v -0.01060035 -0.00889031 0.00984231
v -0.01030392 -0.00843306 0.01883795
v -0.01033314 -0.00703830 0.01899650
v -0.01042500 -0.00188077 0.01878350
v -0.01004298 0.01127744 0.01825981
v -0.01036446 0.01146137 0.01516571
v -0.00992190 0.01208722 0.01808205
v -0.01021833 0.01182411 0.01747027
v -0.01045422 0.01169894 0.00801019
v -0.01052520 -0.00968731 0.00844420
v -0.01051058 -0.00972308 0.00957806
v -0.01039159 -0.00921473 0.01485982
v -0.01024547 -0.00934501 0.01758718
v -0.01017241 -0.00908190 0.01891002
v -0.00938124 0.01239887 0.01836231
v -0.00935201 0.01280248 0.01806603
v -0.00982796 0.01250871 0.01763362
v -0.00989268 0.01251893 0.01664870
v -0.01003880 0.01233756 0.01497192
v -0.01022668 0.01192118 0.01531945
v -0.01034776 0.01181133 0.01132210
v -0.01023503 0.01221239 0.00864118
v -0.01031644 0.01192884 0.00650157
v -0.01029348 -0.01042812 0.00815432
v -0.01038325 -0.01014202 0.00992719
v -0.01044587 -0.00975629 0.01106586
v -0.01009725 -0.00974862 0.01780979
v -0.00991147 -0.00994276 0.01881553
v -0.00800347 0.01328528 0.01833989
v -0.00872784 0.01296086 0.01831746
v -0.00873202 0.01330316 0.01792349
v -0.00945430 0.01299917 0.01700423
v -0.00980500 0.01267475 0.01382525
v -0.00986136 0.01265176 0.01028592
v -0.00982796 0.01271818 0.00811589
v -0.01004507 0.01226093 0.00563196
v -0.01006594 -0.01085983 0.00541896
v -0.00999079 -0.01095945 0.00822319
v -0.01017658 -0.01061460 0.00943393
v -0.01016823 -0.01036937 0.01170806
v -0.00987806 -0.01082917 0.01142139
v -0.00985093 -0.01025186 0.01687291
v -0.00953154 -0.01059927 0.01722684
v -0.00931861 -0.01064014 0.01877229
v 0.00570318 0.01343855 0.01834149
v -0.00476364 0.01354328 0.01824380
v -0.00708496 0.01361225 0.01813169
v -0.00791580 0.01353817 0.01809966
v -0.00829155 0.01363524 0.01729250
v -0.00886144 0.01341045 0.01707790
v -0.00957955 0.01291232 0.00993359
v -0.00973611 0.01269774 0.00657844
v -0.00924346 0.01314223 0.00825522
v -0.00927477 0.01303749 0.00638787
v -0.00961921 -0.01137584 0.00855470
v -0.00983840 -0.01108207 0.00956525
v -0.00952736 -0.01134007 0.01020745
v -0.00899713 -0.01108718 0.01624352
v -0.00836879 -0.01120724 0.01842477
v -0.00863808 -0.01097478 0.01901732
v -0.00921632 -0.01153933 0.01034999
v 0.00813514 0.01343089 0.01823098
v 0.00720620 0.01367101 0.01811728
v -0.00171169 0.01368123 0.01811408
v -0.00424802 0.01374509 0.01797314
v -0.00584289 0.01380640 0.01779057
v -0.00739600 0.01380129 0.01742543
v -0.00793458 0.01356627 0.00773313
v -0.00868818 0.01341300 0.00821999
v -0.00862764 0.01335680 0.00665211
v -0.00922467 -0.01163384 0.00895988
v -0.00794085 -0.01123279 0.01895486
v -0.00872993 -0.01179478 0.00995281
v -0.00842306 -0.01163640 0.01288517
v -0.00785735 -0.01180499 0.01242073
v -0.00788240 -0.01147035 0.01635883
v -0.00743775 -0.01144481 0.01752472
v 0.00911002 0.01331082 0.01770889
v 0.00844619 0.01365313 0.01769448
v 0.00784915 0.01379618 0.01770569
v 0.00919769 0.01289189 0.01816212
v 0.00554453 0.01383960 0.01769608
v 0.00482016 0.01371954 0.01803560
v 0.00067435 0.01381150 0.01779698
v -0.00263228 0.01383960 0.01766405
v -0.00457368 0.01385749 0.01748949
v -0.00645871 0.01384471 0.01714997
v -0.00690335 0.01363269 0.00785644
v -0.00872158 -0.01190207 0.00697562
v -0.00676975 -0.01142693 0.01841356
v -0.00719143 -0.01130176 0.01902533
v -0.00835209 -0.01196593 0.00887980
v -0.00766112 -0.01206811 0.00897269
v -0.00732503 -0.01200935 0.01030674
v 0.00981560 0.01266709 0.00801339
v 0.00887830 0.01350497 0.01715798
v 0.00971331 0.01274372 0.01752152
v 0.00879063 0.01338490 0.00817354
v 0.00801616 0.01357905 0.00821198
v 0.00734606 0.01384727 0.01716919
v 0.00650270 0.01387792 0.01737098
v 0.00985944 0.01204379 0.01809806
v -0.00084745 0.01386770 0.01729731
v 0.00691603 0.01365057 0.00814471
v -0.00562787 -0.01151889 0.01718360
v -0.00538155 -0.01139627 0.01882995
v -0.00671547 -0.01184587 0.01270420
v -0.00400170 -0.01133497 0.01907337
v -0.00703277 -0.01208343 0.00906878
v -0.00532101 -0.01199913 0.01050533
v -0.00578653 -0.01187141 0.01235827
v 0.00515208 -0.01130687 0.01915825
v 0.00748384 -0.01119958 0.01932001
v 0.01019135 0.01217663 0.00809187
v 0.00993876 0.01238609 0.00623572
v 0.00965903 0.01255469 0.00453332
v 0.00942523 0.01281014 0.00529083
v 0.00927284 0.01312179 0.00859153
v 0.01004940 0.01220728 0.01743183
v 0.00883238 0.01320098 0.00575047
v 0.00837103 0.01341811 0.00654161
v 0.00911002 0.01304260 0.00560633
v 0.00758613 0.01351007 0.00615725
v 0.01030617 0.01120336 0.01793310
v 0.00556332 -0.01144992 0.01776655
v 0.00544851 -0.01184331 0.01241593
v 0.00471996 -0.01137584 0.01879151
v 0.00611025 -0.01204767 0.00879332
v 0.00539214 -0.01196848 0.01054056
v 0.00763205 -0.01131198 0.01893564
v 0.00850672 -0.01112294 0.01899971
v 0.00919769 -0.01075509 0.01930399
v 0.01027485 0.01192373 0.01055177
v 0.01042098 0.01164018 0.00836893
v 0.01028320 0.01174236 0.00561114
v 0.01026650 0.01167595 0.01701064
v 0.01047317 0.00514154 0.01820216
v 0.01045438 0.00753000 0.01799716
v 0.01041680 0.01089938 0.01768808
v 0.00689098 -0.01145758 0.01734856
v 0.00698075 -0.01187141 0.01177532
v 0.00745670 -0.01200169 0.00951080
v 0.00778444 -0.01179478 0.01205399
v 0.00823952 -0.01184331 0.01061904
v 0.00899729 -0.01099011 0.01890682
v 0.00952752 -0.01064014 0.01890201
v 0.00965068 -0.01031572 0.01925915
v 0.01033330 -0.00596797 0.01903494
v 0.01043350 -0.00129324 0.01864898
v 0.01039175 -0.00807287 0.01876909
v 0.01051909 0.01114972 0.01021706
v 0.01049613 0.01118548 0.00680906
v 0.01051909 0.00687349 0.01776975
v 0.01049822 -0.00198295 0.01842957
v 0.01054206 0.00016283 0.01803080
v 0.01049613 0.00920575 0.01751832
v 0.01062764 0.00996954 0.00960849
v 0.01055876 0.01053153 0.01158635
v 0.01060051 0.01058773 0.00892625
v 0.00792431 -0.01200169 0.00779879
v 0.00860901 -0.01182798 0.00914405
v 0.00960476 -0.01121490 0.01075036
v 0.00910375 -0.01152911 0.01095695
v 0.00985109 -0.01088027 0.01180575
v 0.01018927 -0.01058905 0.00994480
v 0.01028529 -0.01024930 0.01174970
v 0.00987614 -0.01022121 0.01771050
v 0.01009950 -0.00969753 0.01864097
v 0.01017883 -0.00918663 0.01893084
v 0.01046273 -0.00531146 0.01860894
v 0.01041680 -0.00872427 0.01776334
v 0.01048569 -0.00727076 0.01818614
v 0.01054832 0.01055963 0.00564957
v 0.01050865 -0.00402400 0.01819895
v 0.01066104 -0.00790172 0.01097457
v 0.01066731 -0.00786340 0.00905437
v 0.01062347 0.00982394 0.00771391
v 0.00831676 -0.01199147 0.00532287
v 0.00914968 -0.01165939 0.00605315
v 0.00931251 -0.01150101 0.00929459
v 0.00881359 -0.01184587 0.00455254
v 0.00987614 -0.01104375 0.00910562
v 0.01011411 -0.01076531 0.00722865
v 0.01041680 -0.01019311 0.00818796
v 0.01047525 -0.00995809 0.01006171
v 0.01045229 -0.00962090 0.01284833
v 0.01032913 -0.00925305 0.01711313
v 0.01060051 -0.00883667 0.01261291
v 0.01051909 -0.00814184 0.01619707
v 0.01058172 -0.00938844 0.01114433
v 0.01065061 -0.00887243 0.00952841
v 0.00962772 -0.01131453 0.00687312
v 0.01050031 -0.00977672 0.00503459
v 0.01058589 -0.00949062 0.00769149
v 0.00923610 0.00059904 -0.02410073
v 0.00964422 0.00370235 -0.02420222
v 0.00963815 0.00246961 -0.02415258
v -0.01034932 0.00096324 -0.02327113
v -0.01026649 0.00170842 -0.02362911
v 0.01017355 0.00027231 -0.02370634
v 0.00714300 0.01195737 -0.01868127
v 0.00756293 0.01186444 -0.01958669
v 0.00737731 0.01174243 -0.02162156
v 0.00815786 0.01155658 -0.02285606
v 0.00769792 0.01168748 -0.02190537
v 0.00748868 0.01155658 -0.02413178
v 0.00880583 0.01118164 -0.02366165
v 0.00814147 0.01147739 -0.02402673
v 0.00787389 0.01137719 -0.02431344
v 0.00655144 0.01128911 -0.02448698
v 0.00570340 0.01141598 -0.02438367
v 0.01029075 0.00377265 -0.02335753
v 0.00927975 0.01083499 -0.02237724
v 0.00954299 0.01048430 -0.02351656
v 0.00927107 0.01053844 -0.02416370
v 0.00856429 0.01104993 -0.02432737
v 0.00755329 0.01111700 -0.02452528
v 0.01023868 0.00537501 -0.02356647
v 0.01019963 0.00796157 -0.02344691
v 0.01025170 0.00576045 -0.02317935
v 0.00995038 0.00969807 -0.02325654
v 0.00982792 0.00954615 -0.02407606
v 0.00950345 0.00942818 -0.02441849
v 0.00895529 0.01035420 -0.02445273
v 0.00837048 0.01063702 -0.02454618
v 0.00771142 0.01058288 -0.02459377
v 0.00945717 0.00370235 -0.02423451
v 0.01014178 0.00707191 -0.02390136
v 0.01008682 0.00876315 -0.02379224
v 0.01018469 0.00861690 -0.02311782
v 0.01010707 0.00914294 -0.02230817
v 0.00990217 0.00870659 -0.02419156
v 0.00880053 0.00972958 -0.02450149
v 0.00979417 0.00736523 -0.02426875
v 0.00992386 0.00477059 -0.02418169
v 0.00965677 0.00575722 -0.02428442
v 0.00947742 0.00399002 -0.02424669
v 0.01001787 0.00613942 -0.02407025
v 0.00979128 0.00370235 -0.02416834
v 0.00964520 0.00370235 -0.02420201
v -0.01044297 0.01115500 0.00325084
v -0.00935769 -0.01173136 -0.00074965
v -0.00967143 -0.01142419 -0.00016140
v -0.00999751 -0.01103768 -0.00017443
v -0.01021210 -0.01052317 -0.00008326
v 0.00080452 0.01059980 -0.02472144
v -0.00390309 0.01066659 -0.02467947
v -0.00046415 0.01102743 -0.02466350
v 0.00210821 0.01102533 -0.02464931
v 0.00456938 0.01093711 -0.02463926
v -0.00827564 0.01044437 -0.02463808
v -0.00595762 0.01103709 -0.02459669
v 0.00116242 0.01126393 -0.02459078
v 0.00468666 0.01116521 -0.02456772
v 0.00536592 0.01098542 -0.02460911
v -0.00897317 0.01005328 -0.02458900
v -0.00858633 0.01068003 -0.02454229
v -0.00752175 0.01124124 -0.02447371
v -0.00594239 0.01137104 -0.02444356
v 0.00302353 0.01139919 -0.02445834
v -0.00609470 0.01157142 -0.02425495
v -0.00949709 0.01036246 -0.02428865
v -0.00863811 0.01107826 -0.02426737
v -0.00734660 0.01170794 -0.02391084
v 0.00476128 0.01151303 -0.02427269
v 0.00536592 0.01145128 -0.02434423
v -0.00985195 0.01021711 -0.02344080
v -0.00885438 0.01115765 -0.02400190
v -0.00790859 0.01169534 -0.02357679
v -0.00727655 0.01184446 -0.02330541
v -0.00932347 0.01082285 -0.02322855
v -0.01016569 0.00929464 -0.02259177
v -0.00860156 0.01139163 -0.02369622
v 0.01033707 -0.00347378 -0.02315441
v 0.01034243 -0.00560136 -0.02331715
v 0.01025224 -0.00952111 -0.02225062
v 0.01032591 -0.00811015 -0.02289739
v 0.01025626 -0.00726110 -0.02335297
v 0.01011161 -0.00637368 -0.02357628
v 0.01018349 -0.01026991 -0.01868127
v 0.01017858 -0.01026372 -0.01928433
v 0.01005402 -0.01071671 -0.02263773
v 0.01014777 -0.00963869 -0.02311017
v 0.00994776 -0.00943324 -0.02345251
v 0.00988436 -0.00795173 -0.02362685
v 0.00987186 -0.00636996 -0.02370427
v 0.00981650 -0.01083429 -0.02325659
v 0.01004464 -0.01085410 -0.01965353
v 0.00980043 -0.01133184 -0.02267197
v 0.00956113 -0.00587860 -0.02378854
v 0.00965087 -0.00248363 -0.02393706
v 0.00698955 -0.01286781 -0.02152116
v 0.00948032 -0.01171181 -0.02294058
v 0.00920843 -0.01190118 -0.02311912
v 0.00992053 -0.01116847 -0.01904468
v 0.00972141 -0.01151131 -0.01972622
v 0.00942317 -0.01192222 -0.02171761
v 0.00720206 -0.01281707 -0.02305434
v 0.00578189 -0.01291361 -0.02293373
v 0.00690115 -0.00604074 -0.02381119
v 0.00578189 -0.01292970 -0.02284630
v 0.00689043 -0.01289875 -0.02270041
v 0.00823158 -0.01266112 -0.02237491
v 0.00772664 -0.01271681 -0.02007172
v 0.00900261 -0.01223412 -0.02266986
v 0.00821730 -0.01257324 -0.02299640
v 0.00911289 -0.01218956 -0.02151168
v 0.00578189 -0.00615461 -0.02381751
v 0.00880751 -0.01241111 -0.02198885
v 0.00706305 0.01197342 -0.01850867
v 0.00990357 -0.01137986 -0.01175472
v 0.01016452 -0.01062465 -0.01228753
v 0.01025098 -0.01048988 -0.00549793
v 0.01022268 -0.01030934 -0.01386720
v 0.01036259 -0.01008811 -0.00406834
v -0.01018919 -0.00784329 -0.02271137
v -0.01012916 -0.00657371 -0.02337132
v -0.01011690 -0.00979926 -0.02295534
v -0.01014530 -0.00961025 -0.02235361
v -0.00994973 -0.00824493 -0.02348457
v -0.00996909 -0.00972962 -0.02332369
v -0.00978514 -0.01095568 -0.02312946
v -0.00995231 -0.01083382 -0.02252084
v -0.00423235 -0.01298626 -0.02260658
v -0.00956956 -0.00934042 -0.02363382
v -0.00970059 -0.01028048 -0.02350892
v -0.00924684 -0.01139711 -0.02349675
v -0.00931396 -0.01189574 -0.02307072
v -0.00948952 -0.01181491 -0.02256530
v -0.00685287 -0.01298875 -0.02286749
v -0.00912162 -0.00485026 -0.02393389
v -0.00920811 -0.00773635 -0.02376983
v -0.00892088 -0.01032524 -0.02366398
v -0.00888732 -0.01098179 -0.02362059
v -0.00786300 -0.01224640 -0.02351474
v -0.00856911 -0.01242421 -0.02324324
v -0.00894025 -0.01240929 -0.02263569
v -0.00749315 -0.01294647 -0.02248803
v -0.00765064 -0.01286191 -0.02309400
v -0.00685997 -0.01284699 -0.02322313
v -0.00409810 -0.01289673 -0.02313581
v -0.00366242 -0.01289549 -0.02314110
v -0.00734470 -0.01201760 -0.02361318
v -0.00594020 -0.01255851 -0.02346288
v -0.00752478 -0.01267290 -0.02333903
v -0.00813473 -0.01282088 -0.02257906
v -0.00451312 -0.01280098 -0.02327712
v -0.01032361 0.00582274 -0.02351892
v -0.01018106 0.00433268 -0.02413562
v -0.00965791 0.00613966 -0.02436675
v -0.00995523 0.00487978 -0.02424863
v -0.00963121 0.00397707 -0.02428611
v -0.00927958 0.00514903 -0.02438662
v -0.00863380 0.00561445 -0.02441785
v 0.00086446 -0.01296787 -0.02279582
v -0.00024022 -0.01298527 -0.02249296
v -0.00143457 -0.01288333 -0.02316772
v 0.00537654 -0.01294052 -0.02289913
v 0.00553832 -0.01292933 -0.02192907
v -0.00072184 -0.01277145 -0.02331436
v 0.00578144 -0.01292436 -0.02206765
v 0.00578144 -0.01291939 -0.02186104
v 0.00077202 -0.01267822 -0.02336929
v 0.00151340 -0.01241592 -0.02345949
v 0.00171770 -0.01209146 -0.02354718
v 0.00578144 -0.01003161 -0.02358699
v -0.00064974 -0.01256882 -0.02343782
v -0.00025963 -0.01233387 -0.02356582
v 0.00398622 -0.00633828 -0.02382685
f 436 333 328
f 435 333 436
f 86 75 85
f 84 85 74
f 74 85 75
f 74 75 68
f 68 73 74
f 82 401 92
f 68 70 71
f 338 333 435
f 333 338 339
f 339 338 344
f 258 359 357
f 317 357 361
f 349 354 91
f 81 354 72
f 68 71 72
f 83 82 92
f 84 74 83
f 83 74 73
f 73 82 83
f 210 438 441
f 412 438 406
f 191 438 210
f 191 406 438
f 412 406 191
f 210 441 224
f 249 250 228
f 228 250 229
f 227 244 228
f 84 95 96
f 68 75 69
f 69 70 68
f 75 70 69
f 52 85 84
f 86 85 52
f 52 75 86
f 118 117 349
f 104 117 118
f 432 338 435
f 344 338 432
f 341 334 340
f 333 339 340
f 340 334 333
f 437 438 412
f 425 426 417
f 417 426 427
f 427 426 422
f 381 380 384
f 385 387 391
f 384 380 385
f 233 221 241
f 221 235 238
f 366 365 369
f 358 365 359
f 258 357 259
f 447 366 369
f 369 376 447
f 447 376 380
f 319 308 315
f 372 319 373
f 258 257 273
f 273 359 258
f 273 358 359
f 276 358 273
f 323 354 81
f 81 91 323
f 323 91 354
f 349 91 105
f 105 91 104
f 105 118 349
f 104 118 105
f 79 70 78
f 79 71 70
f 211 191 210
f 210 224 211
f 412 191 175
f 389 379 393
f 389 262 391
f 391 387 389
f 387 379 389
f 378 371 393
f 393 379 378
f 378 379 371
f 444 224 441
f 223 224 212
f 208 211 223
f 223 211 224
f 247 228 246
f 228 244 246
f 274 389 393
f 262 389 274
f 386 385 260
f 214 227 228
f 228 229 214
f 84 83 94
f 94 95 84
f 94 108 95
f 110 96 109
f 109 96 95
f 40 110 126
f 154 141 159
f 159 172 154
f 154 172 173
f 193 208 187
f 14 145 127
f 127 128 14
f 129 128 146
f 146 127 145
f 128 127 146
f 130 111 129
f 42 27 129
f 42 111 53
f 129 111 42
f 14 128 28
f 28 128 129
f 129 27 28
f 212 226 213
f 213 226 227
f 65 52 63
f 63 62 65
f 50 62 63
f 63 52 50
f 84 96 41
f 41 52 84
f 41 110 40
f 41 96 110
f 40 50 41
f 41 50 52
f 76 70 75
f 116 117 104
f 104 115 116
f 116 115 117
f 136 117 135
f 117 115 114
f 99 98 114
f 113 132 114
f 114 98 113
f 416 415 425
f 425 417 416
f 416 417 409
f 425 415 413
f 328 425 413
f 413 436 328
f 435 436 413
f 415 416 407
f 92 401 400
f 410 404 409
f 411 404 410
f 410 419 411
f 405 404 411
f 92 400 405
f 405 400 404
f 280 73 68
f 280 82 73
f 280 431 281
f 328 333 329
f 333 334 329
f 349 117 353
f 350 351 346
f 350 355 351
f 350 344 349
f 349 353 350
f 134 117 136
f 136 355 134
f 134 353 117
f 355 350 134
f 134 350 353
f 445 380 442
f 442 426 445
f 388 376 387
f 380 376 388
f 387 385 388
f 388 385 380
f 387 376 375
f 375 379 387
f 371 379 375
f 369 371 375
f 375 376 369
f 438 437 440
f 440 441 438
f 440 437 412
f 263 385 391
f 160 144 163
f 144 6 163
f 184 163 3
f 221 233 218
f 215 201 218
f 220 235 221
f 3 6 7
f 231 230 252
f 241 221 240
f 361 366 367
f 372 373 367
f 367 317 361
f 365 366 360
f 359 365 360
f 360 357 359
f 361 357 360
f 360 366 361
f 363 276 397
f 363 358 276
f 365 358 364
f 369 365 364
f 364 371 369
f 358 363 364
f 356 357 294
f 294 259 356
f 356 259 357
f 239 257 258
f 258 259 239
f 239 237 257
f 235 237 239
f 239 259 241
f 239 238 235
f 241 240 239
f 221 238 239
f 239 240 221
f 357 317 282
f 282 310 357
f 450 426 425
f 450 425 328
f 372 447 450
f 247 267 248
f 250 249 248
f 248 228 247
f 248 249 228
f 266 267 247
f 276 267 266
f 161 144 160
f 346 351 352
f 289 295 296
f 303 304 296
f 196 303 296
f 217 303 196
f 196 201 215
f 80 91 81
f 81 72 80
f 80 90 91
f 80 72 71
f 71 79 80
f 88 79 78
f 78 90 88
f 88 80 79
f 90 80 88
f 100 90 99
f 100 115 104
f 99 114 100
f 100 114 115
f 95 108 107
f 107 109 95
f 153 419 428
f 324 419 153
f 411 419 325
f 192 208 193
f 192 211 208
f 191 211 192
f 153 428 171
f 153 171 155
f 159 141 158
f 193 187 189
f 189 187 172
f 443 444 441
f 441 440 443
f 247 246 264
f 264 246 244
f 264 244 262
f 262 274 264
f 264 274 393
f 224 444 374
f 374 443 384
f 444 443 374
f 384 385 374
f 385 386 374
f 242 386 260
f 242 374 386
f 242 226 224
f 224 374 242
f 212 224 225
f 225 226 212
f 224 226 225
f 262 244 245
f 244 227 245
f 153 155 143
f 143 155 141
f 40 126 26
f 142 126 141
f 141 154 142
f 142 26 126
f 212 209 207
f 208 223 207
f 207 187 208
f 172 187 188
f 187 207 188
f 188 207 209
f 173 172 188
f 212 195 194
f 194 209 212
f 195 13 194
f 190 188 194
f 194 188 209
f 145 144 162
f 144 161 162
f 43 42 55
f 27 42 43
f 43 28 27
f 53 111 112
f 113 98 112
f 112 130 113
f 111 130 112
f 89 90 78
f 99 90 89
f 89 98 99
f 97 98 89
f 52 65 57
f 65 89 57
f 53 112 56
f 56 65 62
f 97 89 56
f 56 89 65
f 56 98 97
f 56 112 98
f 62 50 51
f 54 42 53
f 55 42 54
f 54 60 55
f 67 60 54
f 53 56 66
f 66 56 62
f 66 54 53
f 67 54 66
f 149 169 170
f 149 130 129
f 170 352 150
f 150 149 170
f 132 135 133
f 133 114 132
f 133 135 117
f 117 114 133
f 434 432 435
f 435 413 434
f 413 407 434
f 402 431 408
f 408 431 407
f 409 404 408
f 408 416 409
f 408 407 416
f 414 413 415
f 415 407 414
f 414 407 413
f 421 422 412
f 427 422 421
f 418 417 427
f 427 421 418
f 409 417 418
f 418 410 409
f 419 410 418
f 418 428 419
f 418 421 428
f 281 431 399
f 399 280 281
f 400 280 399
f 399 431 402
f 344 432 433
f 433 431 344
f 432 434 433
f 407 431 433
f 433 434 407
f 349 344 430
f 344 431 430
f 430 354 349
f 431 280 430
f 430 72 354
f 430 280 68
f 68 72 430
f 401 82 398
f 82 280 398
f 398 400 401
f 398 280 400
f 346 340 345
f 345 350 346
f 345 340 339
f 345 339 344
f 344 350 345
f 429 422 426
f 426 442 429
f 429 442 422
f 422 442 439
f 439 440 412
f 381 440 439
f 380 381 439
f 439 442 380
f 391 262 261
f 261 263 391
f 2 6 3
f 3 163 2
f 2 163 6
f 201 184 206
f 221 218 206
f 206 218 201
f 206 184 3
f 160 163 179
f 163 184 179
f 179 184 201
f 179 177 160
f 201 196 179
f 179 196 177
f 8 4 3
f 3 7 8
f 8 7 18
f 1 220 221
f 3 4 1
f 221 206 1
f 1 206 3
f 1 4 5
f 1 230 231
f 10 229 5
f 5 11 10
f 10 11 19
f 10 214 229
f 10 19 214
f 227 214 12
f 214 19 12
f 12 213 227
f 212 213 12
f 12 195 212
f 12 19 22
f 12 13 195
f 22 13 12
f 256 252 254
f 254 257 256
f 257 237 256
f 231 252 236
f 236 256 237
f 252 256 236
f 366 447 448
f 448 367 366
f 448 447 372
f 372 367 448
f 368 373 317
f 317 367 368
f 368 367 373
f 393 371 377
f 397 364 396
f 313 303 234
f 234 233 241
f 302 259 294
f 301 302 294
f 259 302 301
f 320 282 317
f 310 282 320
f 445 426 449
f 449 450 445
f 426 450 449
f 446 380 445
f 445 450 446
f 446 447 380
f 446 450 447
f 328 308 277
f 277 372 328
f 317 373 321
f 321 318 317
f 279 373 319
f 279 321 373
f 254 252 232
f 232 252 230
f 232 1 5
f 230 1 232
f 253 271 254
f 254 232 253
f 397 266 395
f 395 266 393
f 397 276 275
f 275 266 397
f 276 266 275
f 203 180 286
f 178 161 160
f 178 180 161
f 160 177 178
f 284 203 286
f 186 352 170
f 205 392 186
f 392 352 186
f 343 340 346
f 341 340 343
f 335 334 341
f 341 343 335
f 335 343 342
f 286 289 290
f 286 180 202
f 202 289 286
f 296 177 197
f 197 196 296
f 177 196 197
f 91 90 103
f 90 102 103
f 104 91 103
f 103 102 104
f 90 100 101
f 101 102 90
f 101 100 104
f 104 102 101
f 92 107 93
f 93 107 108
f 93 83 92
f 93 94 83
f 108 94 93
f 106 107 92
f 412 175 420
f 420 421 412
f 428 421 420
f 419 324 137
f 137 325 419
f 137 324 153
f 120 325 137
f 174 171 428
f 174 420 175
f 428 420 174
f 174 155 171
f 191 192 176
f 176 175 191
f 176 192 193
f 193 189 176
f 176 189 172
f 176 172 159
f 384 443 383
f 383 443 440
f 383 381 384
f 383 440 381
f 247 264 265
f 265 264 393
f 265 266 247
f 393 266 265
f 227 226 243
f 243 245 227
f 262 245 243
f 243 242 260
f 226 242 243
f 260 385 243
f 385 263 243
f 243 261 262
f 263 261 243
f 141 126 140
f 140 143 141
f 126 143 140
f 110 123 124
f 109 107 122
f 110 109 122
f 222 223 212
f 212 207 222
f 222 207 223
f 165 146 145
f 148 149 129
f 168 169 148
f 169 149 148
f 40 26 25
f 25 142 154
f 26 142 25
f 25 154 173
f 23 25 173
f 37 25 23
f 55 60 45
f 31 45 32
f 32 45 46
f 52 57 77
f 78 70 77
f 70 76 77
f 75 52 77
f 77 76 75
f 87 89 78
f 87 57 89
f 78 77 87
f 87 77 57
f 58 60 67
f 58 61 59
f 59 45 58
f 58 45 60
f 152 352 351
f 152 150 352
f 152 355 136
f 351 355 152
f 149 150 131
f 130 149 131
f 131 132 113
f 113 130 131
f 402 408 403
f 403 399 402
f 400 399 403
f 404 400 403
f 403 408 404
f 412 422 423
f 9 8 18
f 4 8 9
f 18 11 9
f 5 4 9
f 9 11 5
f 220 1 219
f 219 1 231
f 231 236 219
f 235 220 219
f 219 237 235
f 219 236 237
f 16 7 6
f 15 6 144
f 15 144 145
f 15 16 6
f 30 16 15
f 14 28 29
f 28 43 29
f 30 15 29
f 29 145 14
f 29 15 145
f 362 364 363
f 362 396 364
f 362 363 397
f 397 396 362
f 255 234 241
f 241 259 255
f 216 303 217
f 216 234 303
f 217 196 216
f 233 234 216
f 216 196 215
f 215 218 216
f 216 218 233
f 304 303 311
f 311 301 310
f 300 301 294
f 310 301 300
f 294 357 300
f 357 310 300
f 310 320 314
f 314 311 310
f 304 311 314
f 314 320 317
f 451 450 328
f 328 390 451
f 451 390 450
f 372 450 382
f 450 390 382
f 328 372 382
f 382 390 328
f 308 319 309
f 309 277 308
f 309 319 372
f 372 277 309
f 315 308 307
f 319 318 278
f 278 279 319
f 250 248 268
f 268 248 267
f 250 253 251
f 251 253 232
f 251 232 5
f 5 229 251
f 251 229 250
f 283 392 205
f 205 284 283
f 181 284 205
f 203 284 181
f 205 186 181
f 180 203 181
f 161 180 181
f 181 162 161
f 183 186 170
f 334 335 330
f 328 329 330
f 330 329 334
f 332 308 328
f 342 293 292
f 292 335 342
f 298 290 289
f 291 290 298
f 306 307 298
f 342 343 347
f 326 405 411
f 411 325 326
f 326 325 120
f 121 106 120
f 107 106 121
f 121 122 107
f 121 123 110
f 110 122 121
f 120 137 138
f 138 121 120
f 123 121 138
f 157 174 175
f 159 158 157
f 157 158 141
f 157 176 159
f 175 176 157
f 155 174 157
f 129 146 147
f 147 148 129
f 146 165 147
f 145 162 164
f 164 165 145
f 162 183 164
f 37 23 24
f 22 34 24
f 24 13 22
f 24 194 13
f 190 194 24
f 24 188 190
f 173 188 24
f 24 23 173
f 59 61 48
f 51 61 64
f 67 66 64
f 64 58 67
f 61 58 64
f 62 51 64
f 64 66 62
f 36 48 49
f 49 48 61
f 49 61 51
f 150 152 151
f 151 131 150
f 136 135 151
f 151 152 136
f 151 135 132
f 132 131 151
f 422 439 424
f 424 423 422
f 424 439 412
f 412 423 424
f 21 34 22
f 36 34 21
f 22 19 21
f 19 11 21
f 18 32 20
f 32 33 20
f 20 11 18
f 20 21 11
f 33 21 20
f 7 16 17
f 17 16 30
f 18 7 17
f 17 32 18
f 17 30 31
f 31 32 17
f 30 29 44
f 55 45 44
f 44 43 55
f 44 29 43
f 31 30 44
f 44 45 31
f 394 364 397
f 397 395 394
f 312 303 313
f 312 311 303
f 301 311 312
f 313 234 312
f 234 255 312
f 259 301 312
f 312 255 259
f 317 318 305
f 304 314 305
f 305 319 315
f 305 318 319
f 315 307 305
f 305 307 306
f 322 278 318
f 279 278 322
f 318 321 322
f 321 279 322
f 269 253 250
f 250 268 269
f 269 268 253
f 253 268 272
f 272 268 267
f 276 273 272
f 272 267 276
f 346 352 288
f 288 290 291
f 288 343 346
f 288 347 343
f 291 292 288
f 288 292 293
f 182 183 162
f 186 183 182
f 162 181 182
f 182 181 186
f 185 183 170
f 168 183 185
f 170 169 185
f 185 169 168
f 331 330 335
f 335 332 331
f 328 330 331
f 331 332 328
f 336 332 335
f 335 292 336
f 299 307 308
f 299 336 292
f 299 292 291
f 291 298 299
f 299 298 307
f 297 289 296
f 297 298 289
f 296 304 297
f 306 298 297
f 304 305 297
f 297 305 306
f 348 293 342
f 342 347 348
f 348 288 293
f 347 288 348
f 198 199 177
f 289 199 198
f 295 289 198
f 198 177 296
f 296 295 198
f 289 202 204
f 204 199 289
f 204 202 180
f 405 326 327
f 327 326 106
f 92 405 327
f 327 106 92
f 120 106 119
f 119 326 120
f 106 326 119
f 139 138 137
f 139 143 126
f 153 143 139
f 139 137 153
f 125 126 110
f 110 124 125
f 125 139 126
f 138 139 125
f 125 124 123
f 123 138 125
f 141 155 156
f 156 157 141
f 155 157 156
f 166 147 165
f 165 164 166
f 148 147 166
f 168 148 167
f 167 183 168
f 167 164 183
f 148 166 167
f 167 166 164
f 59 48 47
f 47 45 59
f 46 45 47
f 47 32 46
f 47 33 32
f 35 48 36
f 36 21 35
f 35 21 33
f 33 47 35
f 35 47 48
f 36 49 38
f 38 34 36
f 37 24 38
f 38 24 34
f 39 49 51
f 39 50 40
f 39 51 50
f 40 25 39
f 39 25 37
f 37 38 39
f 39 38 49
f 364 394 370
f 371 364 370
f 370 377 371
f 393 377 370
f 370 395 393
f 370 394 395
f 316 314 317
f 317 305 316
f 316 305 314
f 271 253 270
f 253 272 270
f 270 272 273
f 270 273 257
f 270 257 254
f 254 271 270
f 285 288 352
f 285 352 392
f 392 283 285
f 285 283 284
f 284 288 285
f 287 288 284
f 290 288 287
f 287 284 286
f 286 290 287
f 308 332 337
f 337 299 308
f 332 336 337
f 336 299 337
f 200 204 180
f 199 204 200
f 177 199 200
f 200 178 177
f 180 178 200

