# https://github.com/mikedh/trimesh
v 0.01381070 -0.06220554 -0.04345916
v 0.01381070 -0.06211653 -0.04220067
v 0.01414844 -0.06188994 -0.04425399
v 0.01896325 -0.05924377 -0.04415079
v 0.01660469 -0.06059518 -0.04345916
v 0.01381070 -0.06205179 -0.04135191
v 0.01723550 -0.06023103 -0.04345916
v 0.01480437 -0.06154198 -0.04220067
v 0.02899482 -0.05291560 -0.04535537
v 0.01655724 -0.06056281 -0.04422010
v 0.02774157 -0.05417800 -0.04414617
v 0.02774157 -0.05417800 -0.04389046
v 0.01381070 -0.06173619 -0.03722062
v 0.02204753 -0.05744728 -0.04345916
v 0.01890743 -0.05921140 -0.04276136
v 0.01381070 -0.05983450 -0.04484396
v 0.01448896 -0.05983450 -0.04484396
v 0.02834168 -0.05293988 -0.04535999
v 0.02834168 -0.05227631 -0.04542314
v 0.02960330 -0.05101392 -0.04552172
v 0.03086213 -0.04975152 -0.04561569
v 0.03082026 -0.05100582 -0.04546011
v 0.03037088 -0.05176650 -0.04539079
v 0.02986846 -0.05264047 -0.04471919
v 0.02923765 -0.05305317 -0.04471919
v 0.03005826 -0.05280231 -0.04345916
v 0.02823282 -0.05386240 -0.04346532
v 0.01964151 -0.05825651 -0.03586816
v 0.02143346 -0.05715596 -0.03504868
v 0.02950840 -0.05263237 -0.03705117
v 0.01381070 -0.05663805 -0.04509042
v 0.02078590 -0.05605541 -0.04513509
v 0.02582681 -0.05308554 -0.04536307
v 0.03086213 -0.04849722 -0.04571582
v 0.03212096 -0.04723482 -0.04581286
v 0.04093835 -0.03211844 -0.04697739
v 0.03908220 -0.03660156 -0.04661848
v 0.03159621 -0.05057693 -0.04541852
v 0.04036057 -0.03536344 -0.04664312
v 0.03125010 -0.05141853 -0.04471919
v 0.03061929 -0.05200927 -0.04471919
v 0.03078118 -0.05217112 -0.04345916
v 0.03075048 -0.05212256 -0.04220067
v 0.03071419 -0.05207401 -0.04094217
v 0.03063604 -0.05197690 -0.03842211
v 0.03059138 -0.05192834 -0.03716208
v 0.03715907 -0.03734605 -0.04657535
v 0.01381070 -0.02064358 -0.04786157
v 0.03715907 -0.00693526 -0.04891673
v 0.03337979 -0.04471812 -0.04600695
v 0.04093835 -0.02960174 -0.04717147
v 0.04158591 -0.02028752 -0.04787851
v 0.04181758 -0.03211844 -0.04679254
v 0.04171988 -0.03306523 -0.04671552
v 0.03274619 -0.04912032 -0.04532302
v 0.03141199 -0.05151564 -0.04345916
v 0.03172181 -0.05078733 -0.04471919
v 0.03134500 -0.05141853 -0.04094217
v 0.03130593 -0.05136998 -0.03968214
v 0.03126406 -0.05132142 -0.03842211
v 0.03121940 -0.05127287 -0.03716208
v 0.03590024 -0.00693526 -0.04891673
v 0.02834168 0.00818113 -0.05007971
v 0.03967952 -0.00945195 -0.04872264
v 0.03967952 -0.01071435 -0.04862559
v 0.04093835 -0.01449345 -0.04833446
v 0.04163336 -0.01952685 -0.04790778
v 0.04093835 -0.01196865 -0.04852855
v 0.04093835 -0.01071435 -0.04860249
v 0.04186224 -0.03085604 -0.04684183
v 0.04217764 -0.03211844 -0.04597922
v 0.04170593 -0.01827254 -0.04795553
v 0.04176733 -0.01701015 -0.04800482
v 0.04182037 -0.01574775 -0.04805257
v 0.04179804 -0.03344557 -0.04586523
v 0.04143797 -0.03390683 -0.04620873
v 0.03410271 -0.04676547 -0.04544471
v 0.03784291 -0.04039684 -0.04545857
v 0.03414458 -0.04683830 -0.04471919
v 0.03277410 -0.04916079 -0.04448351
v 0.03177764 -0.05088444 -0.04345916
v 0.03550947 -0.04449963 -0.04471919
v 0.02330636 0.01176601 -0.05035544
v 0.02330636 0.01239721 -0.05040319
v 0.02960330 0.00818113 -0.05007355
v 0.03086213 0.00566443 -0.04988563
v 0.03715907 -0.00460468 -0.04909541
v 0.03715907 -0.00398157 -0.04914316
v 0.03780942 -0.00391683 -0.04913854
v 0.04192085 -0.01071435 -0.04822509
v 0.04192364 -0.01196865 -0.04819891
v 0.04189573 -0.01323105 -0.04814961
v 0.04186224 -0.01449345 -0.04810186
v 0.03780942 -0.00371453 -0.04913854
v 0.04189573 -0.02960174 -0.04688958
v 0.04223626 -0.03085604 -0.04597922
v 0.04227812 -0.03211844 -0.04471919
v 0.04183712 -0.03348603 -0.04481931
v 0.04157195 -0.03401203 -0.04536923
v 0.03240845 -0.04979198 -0.04345916
v 0.03933899 -0.03727322 -0.03722216
v 0.04157195 -0.03401203 -0.04530607
v 0.03973535 -0.03715993 -0.04471919
v 0.01381070 0.01641907 -0.05071281
v 0.01448896 0.01700172 -0.05075748
v 0.02399020 0.01246194 -0.05039857
v 0.02834168 0.00944352 -0.05011206
v 0.03095424 0.00825396 -0.04964687
v 0.03086213 0.00692682 -0.04993338
v 0.03212096 0.00440203 -0.04978242
v 0.02399020 0.01261570 -0.05039857
v 0.03337979 0.00188533 -0.04959449
v 0.04179245 -0.00967854 -0.04810803
v 0.04228371 -0.01071435 -0.04723925
v 0.04230045 -0.01196865 -0.04723925
v 0.04227254 -0.01323105 -0.04723925
v 0.04223905 -0.01449345 -0.04723925
v 0.04192364 -0.02833934 -0.04693887
v 0.03662595 -0.00105217 -0.04919399
v 0.04227254 -0.02960174 -0.04597922
v 0.04231999 -0.03085604 -0.04471919
v 0.04225859 -0.03211844 -0.04345916
v 0.04188178 -0.03330800 -0.04345916
v 0.04231999 -0.03085604 -0.03504868
v 0.04185945 -0.03325945 -0.04220067
v 0.04180921 -0.03316234 -0.03968214
v 0.02965633 0.00952445 -0.04969308
v 0.03059696 0.00916839 -0.04945432
v 0.03168274 0.00788171 -0.04936498
v 0.03210979 0.00681353 -0.04944200
v 0.03537829 0.00145644 -0.04922326
v 0.03340770 0.00435348 -0.04943891
v 0.03212096 0.00566443 -0.04969154
v 0.02029186 0.01518905 -0.05044016
v 0.04156079 -0.00883694 -0.04768750
v 0.04185107 -0.00933057 -0.04725620
v 0.04195714 -0.00945195 -0.04597922
v 0.04199901 -0.00945195 -0.04471919
v 0.04202971 -0.00945195 -0.04345916
v 0.04230324 -0.01071435 -0.04597922
v 0.04231999 -0.01196865 -0.04597922
v 0.04231999 -0.02582264 -0.04597922
v 0.04231441 -0.02707694 -0.04597922
v 0.04229766 -0.02833934 -0.04597922
v 0.04232278 -0.01071435 -0.04345916
v 0.04223626 -0.03211844 -0.04220067
v 0.04221114 -0.03211844 -0.04094217
v 0.03276293 0.00631181 -0.04914778
v 0.03408317 0.00390031 -0.04921248
v 0.01381070 0.01878202 -0.05060652
v 0.04231720 -0.01071435 -0.04471919
v -0.04232281 -0.03086191 -0.03490937
v -0.04231945 -0.02582274 -0.04597841
v -0.04231945 -0.03086191 -0.04471942
v -0.04227923 -0.03211957 -0.04471942
v -0.04225912 -0.03211957 -0.04345887
v -0.04221219 -0.03211957 -0.04094246
v -0.04231945 -0.01071373 -0.04345887
v -0.04231945 -0.01197140 -0.04597841
v -0.04231610 -0.02708041 -0.04597841
v -0.04229934 -0.01197140 -0.04723896
v -0.04229934 -0.02833808 -0.04597841
v -0.04227253 -0.02959574 -0.04597841
v -0.04223900 -0.03086191 -0.04597841
v -0.04217867 -0.03211957 -0.04597841
v -0.04179988 -0.03344523 -0.04586866
v -0.04183675 -0.03348771 -0.04481193
v -0.04188368 -0.03330926 -0.04345887
v -0.04218537 -0.03211957 -0.03968191
v -0.04213174 -0.03211957 -0.03716237
v -0.04231610 -0.01071373 -0.04471942
v -0.04230270 -0.01071373 -0.04597841
v -0.04228258 -0.01071373 -0.04723896
v -0.04192056 -0.01071373 -0.04822514
v -0.04192391 -0.01197140 -0.04819848
v -0.04227253 -0.01322907 -0.04723896
v -0.04192391 -0.02833808 -0.04693793
v -0.04189709 -0.02959574 -0.04688933
v -0.04186357 -0.03086191 -0.04684073
v -0.04223900 -0.01449523 -0.04723896
v -0.04182000 -0.03211957 -0.04679212
v -0.04171943 -0.03307132 -0.04671530
v -0.04157194 -0.03401457 -0.04537478
v -0.04143786 -0.03390410 -0.04621359
v -0.03784442 -0.04039639 -0.04545945
v -0.04157194 -0.03401457 -0.04529326
v -0.04186022 -0.03326677 -0.04220145
v -0.04183675 -0.03321578 -0.04094246
v -0.04178312 -0.03312231 -0.03842293
v -0.04203117 -0.00945606 -0.04345887
v -0.04199765 -0.00945606 -0.04471942
v -0.04195743 -0.00945606 -0.04597841
v -0.04185016 -0.00933710 -0.04725464
v -0.04178983 -0.00967701 -0.04810755
v -0.04093839 -0.01071373 -0.04860299
v -0.03781089 -0.00371158 -0.04913763
v -0.04189709 -0.01322907 -0.04814988
v -0.04186357 -0.01449523 -0.04810128
v -0.04093839 -0.03211957 -0.04697713
v -0.04182000 -0.01575290 -0.04805268
v -0.04176971 -0.01701057 -0.04800407
v -0.04170602 -0.01826824 -0.04795547
v -0.04163563 -0.01952590 -0.04790686
v -0.04158535 -0.02028220 -0.04787864
v -0.04036183 -0.03535722 -0.04664317
v -0.03274589 -0.04912358 -0.04531991
v -0.03410348 -0.04676121 -0.04544377
v -0.03550801 -0.04450080 -0.04471942
v -0.03414371 -0.04683769 -0.04471942
v -0.03460294 -0.04597941 -0.04345887
v -0.04155853 -0.00883573 -0.04768580
v -0.03537728 0.00145505 -0.04922386
v -0.03662761 -0.00105179 -0.04919407
v -0.04093839 -0.01197140 -0.04852773
v -0.03781089 -0.00391553 -0.04913763
v -0.03086201 0.00692760 -0.04993410
v -0.03908134 -0.03659789 -0.04661809
v -0.04093839 -0.03086191 -0.04707434
v -0.02960162 -0.05101858 -0.04552216
v -0.03212240 -0.04723708 -0.04581221
v -0.03086201 -0.04975241 -0.04561623
v -0.04093839 -0.01449523 -0.04833489
v -0.03081843 -0.05100158 -0.04545945
v -0.03159612 -0.05057670 -0.04541868
v -0.03277270 -0.04916607 -0.04447954
v -0.03124750 -0.05141797 -0.04471942
v -0.03172014 -0.05078914 -0.04471942
v -0.03141175 -0.05151145 -0.04345887
v -0.03177713 -0.05088262 -0.04345887
v -0.03275594 -0.04913208 -0.04275490
v -0.03271572 -0.04906410 -0.04094246
v -0.03276265 0.00631577 -0.04914703
v -0.03408337 0.00390240 -0.04921288
v -0.03167992 0.00788785 -0.04936497
v -0.03095587 0.00825326 -0.04964561
v -0.03340625 0.00435279 -0.04943865
v -0.03212240 0.00566144 -0.04969265
v -0.03716059 -0.00397501 -0.04914390
v -0.03967801 -0.00945606 -0.04872215
v -0.02960162 0.00818527 -0.05007363
v -0.03212240 0.00440377 -0.04978202
v -0.02456679 -0.05371237 -0.04531521
v -0.03086201 -0.04849475 -0.04571657
v -0.02078563 -0.05604925 -0.04513490
v -0.01448705 -0.05983075 -0.04484328
v -0.02834124 -0.05227625 -0.04542339
v -0.02899490 -0.05291358 -0.04535597
v -0.03716059 -0.00461234 -0.04909530
v -0.03337943 0.00062227 -0.04949823
v -0.00807785 -0.01449523 -0.04833489
v -0.00807785 -0.05868355 -0.04493265
v -0.03036925 -0.05176638 -0.04539046
v -0.03061731 -0.05201282 -0.04471942
v -0.03078156 -0.05217427 -0.04345887
v -0.03134471 -0.05141797 -0.04094246
v -0.03122068 -0.05127351 -0.03716237
v -0.03059720 0.00916251 -0.04945434
v -0.02965526 0.00952792 -0.04969265
v -0.03086201 0.00566144 -0.04988549
v -0.02708085 0.00944294 -0.05017555
v -0.02960162 0.00692760 -0.04998270
v -0.02834124 0.00944294 -0.05011283
v -0.02399023 0.01261260 -0.05039818
v -0.02399023 0.01245964 -0.05039818
v -0.02330640 0.01239166 -0.05040288
v -0.01826821 -0.05731541 -0.04503770
v -0.00944886 -0.06235458 -0.04464887
v -0.01070924 -0.06235458 -0.04464730
v -0.02834124 -0.05293907 -0.04536067
v -0.01172828 -0.06317036 -0.04425690
v -0.01414849 -0.06188721 -0.04425377
v -0.01655864 -0.06057006 -0.04421927
v -0.01896209 -0.05924440 -0.04415186
v -0.02923960 -0.05305804 -0.04471942
v -0.02986644 -0.05264165 -0.04471942
v -0.01574743 0.01573978 -0.05066158
v -0.00807785 0.01573978 -0.05066158
v -0.00807785 -0.06119889 -0.04473823
v -0.03005751 -0.05280311 -0.04345887
v -0.03067429 -0.05202981 -0.03968191
v -0.03063407 -0.05197883 -0.03842293
v -0.03054021 -0.05188535 -0.03590339
v -0.02029287 0.01518742 -0.05044051
v -0.01070924 0.01952128 -0.05091400
v -0.01196963 0.01826361 -0.05085443
v -0.01448705 0.01700594 -0.05075722
v -0.00807785 -0.06235458 -0.04464887
v -0.00944886 -0.06327234 -0.04434470
v -0.01070924 -0.06327234 -0.04434313
v -0.01070924 -0.06356976 -0.04345887
v -0.01189588 -0.06326385 -0.04345887
v -0.01252608 -0.06293243 -0.04345887
v -0.01323002 -0.06253304 -0.04345887
v -0.01425576 -0.06194669 -0.04345887
v -0.01660557 -0.06059555 -0.04345887
v -0.02773786 -0.05417975 -0.04389473
v -0.02773786 -0.05417975 -0.04414402
v -0.00807785 0.01815314 -0.05084659
v -0.02942732 -0.05316851 -0.04345887
v -0.02988990 -0.05270963 -0.04094246
v -0.01323002 0.01921536 -0.05059573
v -0.01203332 0.01958926 -0.05069764
v -0.01165789 0.02032006 -0.05055967
v -0.01070924 0.02041354 -0.05065688
v -0.00944886 0.01952128 -0.05092498
v -0.00807785 0.01826361 -0.05085443
v -0.00807785 0.01941081 -0.05092028
v -0.00807785 -0.06330633 -0.04426788
v -0.00944886 -0.06358676 -0.04345887
v -0.00944886 -0.06354427 -0.04220145
v -0.01070924 -0.06351877 -0.04220145
v -0.01182884 -0.06323835 -0.04220145
v -0.01245568 -0.06289844 -0.04220145
v -0.01323002 -0.06245656 -0.04220145
v -0.01826821 -0.05963530 -0.04345887
v -0.02517016 -0.05541192 -0.04051287
v -0.00807785 -0.06358676 -0.04345887
v -0.00944886 -0.06345079 -0.04094246
v -0.01070924 -0.06314488 -0.03716237
v -0.01134279 -0.06298342 -0.03524802
v -0.01139307 -0.06300892 -0.03590339
v -0.01157408 -0.06310238 -0.03842293
v -0.01174504 -0.06319586 -0.04094246
v -0.01228808 -0.06280497 -0.03968191
v -0.01384680 -0.06153880 -0.03490937
v -0.01952859 -0.05861557 -0.03968191
v -0.00807785 -0.06345079 -0.04094246
v -0.00807785 -0.06344229 -0.04083115
v -0.01070924 -0.06305140 -0.03590339
v -0.01070924 -0.06297492 -0.03490937
v 0.00944404 -0.06358022 -0.04345838
v -0.00807785 -0.06327445 -0.04434520
v 0.01070586 -0.06356324 -0.04345838
v 0.00944404 -0.06354625 -0.04219795
v 0.00944404 -0.06327445 -0.04434520
v 0.01070586 -0.06326596 -0.04434323
v -0.00807785 -0.06354625 -0.04219795
v 0.01070586 -0.06352077 -0.04219795
v 0.01172559 -0.06317253 -0.04425671
v 0.01189269 -0.06326596 -0.04345838
v 0.01070586 -0.06342734 -0.04093949
v 0.01133998 -0.06298568 -0.03525283
v 0.01070586 -0.06304513 -0.03590369
v 0.00944404 -0.06234865 -0.04464801
v 0.01070586 -0.06234865 -0.04464605
v 0.01182414 -0.06324048 -0.04219795
v 0.01138925 -0.06301115 -0.03590369
v 0.01252253 -0.06292622 -0.04345838
v 0.01165704 -0.06314705 -0.03968300
v 0.01245398 -0.06290074 -0.04219795
v 0.01220119 -0.06275634 -0.03842454
v -0.00807785 0.01952086 -0.05092655
v 0.01196553 0.01826381 -0.05085379
v 0.00944404 0.01952086 -0.05092655
v 0.01070586 0.01952086 -0.05091278
v 0.01070586 0.02041268 -0.05065519
v 0.01165490 0.02031925 -0.05055884
v 0.01202980 0.01958880 -0.05069452
v 0.01322521 0.01921509 -0.05059423
v 0.01574675 0.01759731 0.04534691
v 0.02078475 0.01759731 0.04534691
v 0.01380791 0.02262551 0.04495937
v 0.02393945 0.01759510 0.04534691
v 0.02204425 0.01952427 0.04519664
v 0.01380791 -0.05295901 0.05077471
v 0.00944618 -0.05479610 0.05091876
v 0.01070586 -0.05479610 0.05091076
v 0.01322521 -0.05353905 0.05081473
v -0.00566776 -0.05479610 0.05091876
v -0.00807785 -0.05576577 0.05069468
v 0.00944618 -0.05585921 0.05067067
v 0.01070586 -0.05585568 0.05067067
v 0.01196553 -0.05479610 0.05083873
v -0.00807785 -0.05585921 0.05067067
v -0.00807785 -0.05635815 0.04983838
v 0.00944618 -0.05640575 0.04975835
v 0.01070586 -0.05639165 0.04975835
v 0.01196553 -0.05570230 0.05059865
v 0.01318879 -0.05480844 0.05063066
v -0.00807785 -0.05640575 0.04975835
v -0.00807785 -0.05655384 0.04860594
v 0.00944618 -0.05656795 0.04849390
v 0.01196553 -0.05605667 0.04975835
v 0.01070586 -0.05655032 0.04849390
v 0.01133784 -0.05668784 0.04661323
v 0.01274319 -0.05551189 0.05047861
v -0.00807785 -0.05656795 0.04849390
v -0.00807785 -0.05669665 0.04683731
v 0.00944618 -0.05670018 0.04678129
v 0.01070586 -0.05674954 0.04597300
v 0.01070586 -0.05669313 0.04670126
v 0.01070586 -0.05664376 0.04733348
v 0.01286316 -0.05558065 0.04975835
v 0.01196553 -0.05618537 0.04849390
v 0.01147923 -0.05801893 0.02834271
v 0.01147923 -0.05675836 0.04471655
v 0.01210907 -0.05640928 0.04471655
v 0.01295313 -0.05563354 0.04849390
v 0.01070586 -0.05801012 0.02959916
v 0.01070586 -0.06173365 -0.01877809
v 0.01133998 -0.06046779 -0.00250028
v -0.00807785 -0.06047661 -0.00226820
v 0.00944618 -0.06122237 -0.01195965
v 0.00944618 -0.05976786 0.00693508
v 0.01148137 -0.06179888 -0.02077880
v 0.01219690 -0.05645688 0.04346010
v 0.01219904 -0.06023683 -0.00566141
v 0.01228259 -0.05650624 0.04219565
v 0.01245183 -0.05660321 0.03967475
v 0.00944618 -0.06238598 -0.02707704
v 0.00944618 -0.06257991 -0.02959794
v 0.01133998 -0.06172660 -0.01887412
v 0.01138925 -0.06175128 -0.01952235
v 0.01253753 -0.06169134 -0.02707704
v 0.01219904 -0.06149741 -0.02204325
v 0.01228474 -0.06028620 -0.00692586
v 0.01264036 -0.05923190 0.00411007
v 0.04232278 -0.00944627 -0.02708123
v 0.04221661 -0.00944627 -0.03504713
v 0.04224901 -0.00944627 -0.03338117
v 0.04227060 -0.00944627 -0.03211956
v 0.04228859 -0.00944627 -0.03085796
v 0.04230479 -0.00944627 -0.02959635
v 0.04231739 -0.00944627 -0.02834284
v 0.04232278 -0.00692552 0.00567197
v 0.04232278 -0.00440790 0.03841708
v 0.04232098 -0.00944627 0.04597862
v 0.04184053 -0.00834540 -0.03504713
v 0.04187292 -0.00827972 -0.03338117
v 0.04199888 -0.00818590 -0.02834284
v 0.04203127 -0.00818590 -0.02708123
v 0.04206006 -0.00818590 -0.02581963
v 0.04211585 -0.00818590 -0.02330451
v 0.04217163 -0.00818590 -0.02078130
v 0.04222561 -0.00692552 -0.00188957
v 0.04224901 -0.00692552 -0.00062797
v 0.04227060 -0.00692552 0.00063364
v 0.04228859 -0.00692552 0.00189524
v 0.04230479 -0.00692552 0.00315684
v 0.04231739 -0.00692552 0.00441036
v 0.04231739 -0.00440790 0.03715548
v 0.04217163 -0.00314752 0.04471701
v 0.04232098 -0.00440790 0.04471701
v 0.04231199 -0.00818590 0.04597862
v 0.04195929 -0.00692552 -0.01321975
v 0.04189451 -0.00823281 -0.03211956
v 0.04184952 -0.00454863 0.01447894
v 0.04187292 -0.00449860 0.01574054
v 0.04199888 -0.00692552 -0.01196624
v 0.04203307 -0.00440790 0.02204048
v 0.04203307 -0.00566827 0.00567197
v 0.04214464 -0.00566827 0.01070221
v 0.04217163 -0.00692552 -0.00440470
v 0.04214464 -0.00314752 0.04345541
v 0.04222561 -0.00440790 0.03085554
v 0.04224901 -0.00440790 0.03211715
v 0.04227060 -0.00440790 0.03337875
v 0.04228859 -0.00440790 0.03464035
v 0.04230479 -0.00440790 0.03590196
v 0.04179554 -0.00212484 0.04471701
v 0.04176675 -0.00217488 0.04597862
v 0.04208525 -0.00314752 0.04597862
v 0.04222561 -0.00440790 0.04597862
v 0.04226160 -0.00566827 0.04597862
v 0.04229219 -0.00692552 0.04597862
v 0.03968117 -0.01130712 0.04757180
v 0.04187292 -0.00323822 0.03211715
v 0.04195929 -0.00314752 0.03590196
v 0.04184952 -0.00328826 0.03085554
v 0.04199888 -0.00314752 0.03715548
v 0.04203307 -0.00314752 0.03841708
v 0.04189451 -0.00319131 0.03337875
v 0.03401825 0.01134836 0.04535591
v 0.04167317 -0.00233751 0.04668221
v 0.04177575 -0.00314752 0.04676308
v 0.04184952 -0.00440790 0.04681969
v 0.04188551 -0.00566827 0.04686822
v 0.04191610 -0.00692552 0.04691674
v 0.04193770 -0.00818590 0.04696526
v 0.04094079 -0.00818590 0.04732919
v 0.04094079 -0.00692552 0.04723214
v 0.04094079 -0.00440790 0.04703805
v 0.03968117 -0.00188715 0.04684395
v 0.02960416 0.01574560 0.04548530
v 0.03030415 0.01642739 0.04537208
v 0.03153139 0.01517952 0.04537208
v 0.04021741 -0.00004819 0.04656899
v 0.04047113 -0.00088948 0.04666604
v 0.04091020 -0.00190591 0.04674690
v 0.04094079 -0.00314752 0.04692483
v 0.03841974 0.00122782 0.04660134
v 0.03338124 0.00944685 0.04597054
v 0.03212342 0.01196447 0.04576836
v 0.03086379 0.01448522 0.04555809
v 0.02960416 0.01652747 0.04538825
v 0.02708491 0.01759394 0.04533973
v 0.03937706 0.00039904 0.04663368
v 0.03043355 -0.05178914 -0.03338264
v 0.03049057 -0.05183790 -0.03464225
v -0.04232281 -0.03086508 -0.03338232
v -0.04231946 -0.03086508 -0.03212292
v -0.04208146 -0.03212707 -0.03490897
v -0.04204794 -0.03212707 -0.03338232
v -0.04201778 -0.03212707 -0.03212292
v -0.04169933 -0.03298114 -0.03464213
v -0.04198090 -0.03212707 -0.03086352
v -0.00807785 -0.06298843 -0.03490897
v -0.03763994 -0.04005168 -0.03490897
v -0.00944886 -0.06298843 -0.03490897
v -0.01027347 -0.06297993 -0.03490897
v -0.01104781 -0.06296718 -0.03490897
v -0.03049999 -0.05184723 -0.03490897
v -0.03043295 -0.05178775 -0.03338232
v -0.02182143 -0.05692068 -0.03490897
v -0.02154991 -0.05676347 -0.03082231
v 0.03153859 -0.05046454 -0.03251828
v 0.03283370 -0.04841033 -0.03504689
v 0.03623310 -0.04230948 -0.03251828
v 0.04164215 -0.02784506 0.03337504
v 0.04144651 -0.02750526 0.04219619
v 0.04073728 -0.02834703 0.04722856
v 0.04169745 -0.02667895 0.04722856
v 0.03426172 -0.03948301 0.04849701
v 0.04166980 -0.03292653 -0.03338049
v 0.04153582 -0.03309256 -0.03250998
v 0.04183568 -0.02818485 0.02455389
v 0.04172509 -0.02672914 0.04596839
v 0.04207173 -0.02582946 0.04722856
v 0.04164534 -0.02659014 0.04798300
v 0.04032152 -0.02899959 0.04789180
v 0.03651488 -0.03524330 0.04909393
v 0.03416603 -0.03932083 0.04926803
v 0.03464345 -0.03589972 0.04945042
v 0.04232267 -0.01130712 -0.03464066
v 0.04232161 -0.02291032 -0.03251828
v 0.04232161 -0.02290260 -0.03504689
v 0.04093931 -0.02456682 0.04857992
v 0.04093931 -0.01701026 0.04800787
v 0.04207386 -0.03211951 -0.03464066
v 0.04204515 -0.03211951 -0.03338049
v 0.04202494 -0.03211951 -0.03250998
v 0.04201537 -0.03211951 -0.03212033
v 0.04197922 -0.03211951 -0.03085187
v 0.04188353 -0.03205387 -0.02707138
v 0.04186119 -0.03200367 -0.02581951
v 0.04183568 -0.03195734 -0.02455934
v 0.04180909 -0.03190714 -0.02329089
v 0.04186013 -0.02948997 0.00693647
v 0.04188246 -0.02828138 0.02203356
v 0.04188246 -0.02701874 0.03841570
v 0.04186013 -0.02696854 0.03966757
v 0.04183461 -0.02692221 0.04093603
v 0.04178038 -0.02682568 0.04344806
v 0.04197816 -0.02708824 0.03463521
v 0.04201431 -0.02708824 0.03337504
v 0.04204515 -0.02834703 0.01574103
v 0.04212809 -0.02582946 0.04471652
v 0.04231098 -0.02456682 0.04722856
v 0.04181441 -0.02582946 0.04814052
v 0.03665523 -0.03440154 0.04918513
v 0.03543881 -0.03687277 0.04924316
v 0.03685301 -0.03337829 0.04919341
v 0.04232161 -0.01130712 0.04596839
v 0.04232161 -0.01448883 0.04596839
v 0.04232161 -0.01575148 0.04093603
v 0.04232054 -0.02582946 0.03211488
v 0.04232054 -0.02834703 -0.00062452
v 0.04232054 -0.02960581 -0.01699836
v 0.04232054 -0.02960581 -0.03250998
v 0.04232054 -0.02456682 0.04596839
v 0.04093931 -0.02582946 0.04855504
v 0.04193669 -0.02456682 0.04822342
v 0.04191543 -0.02330803 0.04817368
v 0.04188565 -0.02204925 0.04812394
v 0.04184950 -0.02078661 0.04807419
v 0.04174848 -0.01826904 0.04798300
v 0.04168362 -0.01701026 0.04793325
v 0.04162195 -0.01597929 0.04789180
v 0.04231948 -0.03086459 -0.03338049
v 0.04231842 -0.03086459 -0.03250998
v 0.04231736 -0.03086459 -0.03212033
v 0.04230991 -0.03086459 -0.03085187
v 0.04229609 -0.03086459 -0.02959171
v 0.04227908 -0.03086459 -0.02833984
v 0.04225887 -0.03086459 -0.02707138
v 0.04223655 -0.03086459 -0.02581951
v 0.04221102 -0.03086459 -0.02455934
v 0.04218444 -0.03086459 -0.02329089
v 0.04210150 -0.03086459 -0.01951869
v 0.04201537 -0.02960581 0.00063565
v 0.04218338 -0.02582946 0.04219619
v 0.04215680 -0.02834703 0.01070038
v 0.04220996 -0.02582946 0.04093603
v 0.04223548 -0.02582946 0.03966757
v 0.04225781 -0.02582946 0.03841570
v 0.04227801 -0.02582946 0.03715553
v 0.04229503 -0.02582946 0.03589537
v 0.04230991 -0.02582946 0.03463521
v 0.04229077 -0.02330803 0.04722856
v 0.04222378 -0.02078661 0.04722856
v 0.04226100 -0.02204925 0.04722856
v 0.04231736 -0.02582946 0.03337504
v 0.04180378 -0.01953169 0.04802445
v 0.04231736 -0.02834703 0.00063565
v 0.04230991 -0.02834703 0.00190410
v 0.04227908 -0.02834703 0.00441614
v 0.04225887 -0.02960581 -0.01069754
v 0.04223655 -0.02960581 -0.00943738
v 0.04221102 -0.02834703 0.00818834
v 0.04218444 -0.02960581 -0.00692534
v 0.00692805 0.05296377 0.03403892
v 0.00566818 0.05298472 0.03405280
v -0.00566739 0.05298472 0.03405280
v -0.00692726 0.05296377 0.03403892
v -0.00757166 0.05292885 0.03402273
v 0.00757084 0.05292885 0.03402273
v 0.00692805 0.05359225 0.03356023
v 0.00566818 0.05361669 0.03358336
v -0.00566739 0.05361669 0.03358336
v -0.00692726 0.05359225 0.03356255
v -0.00692726 0.05432199 0.03293123
v -0.00763433 0.05425565 0.03285723
v 0.00763351 0.05425565 0.03285723
v 0.00692805 0.05431850 0.03293123
v 0.00566818 0.05433945 0.03295436
v -0.00566739 0.05433945 0.03295436
v -0.00692726 0.05495047 0.03220048
v -0.00758773 0.05546024 0.03152986
v -0.00758773 0.06301599 0.02271461
v 0.00758852 0.05546024 0.03152986
v 0.00692805 0.05495047 0.03219817
v 0.00692805 0.05549166 0.03156917
v 0.00692805 0.06305090 0.02275392
v 0.00566818 0.06189868 0.02413679
v -0.00188940 0.05613411 0.03086155
v -0.00566739 0.05613411 0.03086155
v -0.00692726 0.06305090 0.02275392
v -0.00692726 0.06334769 0.02204629
v -0.00769057 0.06313819 0.02204629
v 0.00758852 0.06301599 0.02271461
v 0.00692805 0.06334769 0.02204629
v 0.00566818 0.06340006 0.02204629
v 0.00566818 0.06306487 0.02277242
v -0.00566739 0.06189868 0.02413679
v -0.00566739 0.06306487 0.02277242
v -0.00566739 0.06340006 0.02204629
v -0.00566739 0.06360257 0.02078598
v -0.00692726 0.06353972 0.02078598
v -0.00777253 0.06322898 0.02078598
v 0.00777171 0.06322898 0.02078598
v 0.00768975 0.06313819 0.02204629
v 0.00692805 0.06353972 0.02078598
v 0.00566818 0.06360257 0.02078598
v -0.00692726 0.06336863 0.01826767
v -0.00692726 0.06345593 0.01952567
v -0.00692726 0.06301250 0.01347386
v -0.00692726 0.06308931 0.01448904
v -0.00692726 0.06318358 0.01574704
v -0.00692726 0.06327786 0.01700736
v -0.00757166 0.06299504 0.01370511
v -0.00760540 0.06302297 0.01448904
v -0.00765522 0.06306836 0.01574704
v -0.00769700 0.06311375 0.01700736
v -0.00773075 0.06315565 0.01826767
v -0.00775646 0.06319406 0.01952567
v 0.00775564 0.06319406 0.01952567
v 0.00692805 0.06345593 0.01952567
v 0.00772993 0.06315565 0.01826767
v 0.00769618 0.06311375 0.01700736
v 0.00765440 0.06306836 0.01574704
v 0.00760619 0.06302297 0.01448904
v 0.00757245 0.06299504 0.01370511
v 0.00692805 0.06336863 0.01826767
v 0.00692805 0.06327786 0.01700736
v 0.00692805 0.06318358 0.01574704
v 0.00692805 0.06308931 0.01448904
v 0.00692805 0.06301250 0.01347154
v 0.01322521 0.02456407 0.04480911
v 0.01196553 0.02582335 0.04470793
v 0.01322521 0.02582335 0.04458652
v 0.01070586 0.02708264 0.04449883
v 0.00944618 0.02708264 0.04450558
v 0.01191840 0.02710268 0.04436393
v 0.01146423 0.02777742 0.04416158
v 0.01070586 0.02781750 0.04420880
v 0.00944618 0.02782418 0.04422229
v -0.00807785 0.02714777 0.04448535
v -0.00807785 0.02782418 0.04422229
v -0.01146663 0.02777667 0.04416036
v -0.01070843 0.02781636 0.04420774
v -0.01191996 0.02710188 0.04436569
v -0.01070843 0.02708203 0.04449995
v -0.00944901 0.02782380 0.04421564
v -0.01322727 0.02582425 0.04458682
v -0.01196785 0.02582425 0.04471318
v -0.00944901 0.02708203 0.04450785
v -0.00807945 0.02582425 0.04471318
v -0.00807945 0.02708203 0.04450785
v -0.04232083 -0.01070739 -0.03490937
v -0.04232259 -0.01957941 0.04592239
v -0.04232083 -0.00944778 -0.02708248
v -0.04231556 -0.00944778 -0.02834357
v -0.04230327 -0.00944778 -0.02959652
v -0.04228747 -0.00944778 -0.03085761
v -0.04226991 -0.00944778 -0.03211870
v -0.04232259 -0.01957941 0.04597935
v -0.04232083 -0.00440543 0.03842094
v -0.04232083 -0.00566504 0.02204306
v -0.04232083 -0.00692465 0.00567330
v -0.04222426 -0.00944778 -0.03464088
v -0.04221899 -0.00944778 -0.03490937
v -0.04231556 -0.00692465 0.00441221
v -0.04230327 -0.00692465 0.00315112
v -0.04228747 -0.00692465 0.00189003
v -0.04226991 -0.00692465 0.00063708
v -0.04224884 -0.00566504 0.01574574
v -0.04232083 -0.00944778 0.04597935
v -0.04232083 -0.00440543 0.04471826
v -0.04217158 -0.00314582 0.04471826
v -0.04231556 -0.00440543 0.03715986
v -0.04231556 -0.00566504 0.02078197
v -0.04222426 -0.00692465 -0.00188510
v -0.04214349 -0.00818817 -0.02203812
v -0.04203112 -0.00818817 -0.02708248
v -0.04199775 -0.00818817 -0.02834357
v -0.04217158 -0.00692465 -0.00440728
v -0.04230327 -0.00566504 0.01952088
v -0.04228747 -0.00566504 0.01825979
v -0.04226991 -0.00566504 0.01699870
v -0.04224884 -0.00440543 0.03211550
v -0.04231205 -0.00818817 0.04597935
v -0.04229098 -0.00692465 0.04597935
v -0.04226113 -0.00566504 0.04597935
v -0.04222426 -0.00440543 0.04597935
v -0.04208379 -0.00314582 0.04597935
v -0.04180637 -0.01957941 0.04803777
v -0.04193630 -0.00818817 0.04696381
v -0.04222426 -0.00440543 0.03086254
v -0.04226991 -0.00440543 0.03337659
v -0.04228747 -0.00440543 0.03463768
v -0.04230327 -0.00440543 0.03589876
v -0.04176774 -0.00217569 0.04597935
v -0.04179583 -0.00212483 0.04471826
v -0.04205921 -0.00314582 0.03967390
v -0.04217158 -0.00566504 0.01196248
v -0.04222426 -0.00566504 0.01448465
v -0.04214349 -0.00692465 -0.00566837
v -0.04203112 -0.00692465 -0.01070459
v -0.04189416 -0.00823120 -0.03211870
v -0.04187133 -0.00827814 -0.03337979
v -0.04199775 -0.00692465 -0.01196568
v -0.04195737 -0.00692465 -0.01322677
v -0.04184324 -0.00833682 -0.03490937
v -0.04191523 -0.00692465 0.04691499
v -0.04188538 -0.00566504 0.04686618
v -0.04184851 -0.00440543 0.04681736
v -0.04177652 -0.00314582 0.04676040
v -0.04167292 -0.00233607 0.04668718
v -0.04094073 -0.01957941 0.04820862
v -0.04162200 -0.01597271 0.04789945
v -0.04174842 -0.01826504 0.04798082
v -0.03401919 0.01134751 0.04535287
v -0.04184851 -0.00328665 0.03086254
v -0.04187309 -0.00323970 0.03211550
v -0.04195912 -0.00314582 0.03589876
v -0.04199951 -0.00314582 0.03715986
v -0.04203112 -0.00314582 0.03842094
v -0.04203112 -0.00440543 0.02204306
v -0.04211540 -0.00566504 0.00944030
v -0.04195912 -0.00440543 0.01952088
v -0.04187309 -0.00575892 -0.00062401
v -0.04184851 -0.00454626 0.01448465
v -0.03030382 0.01642897 0.04537728
v -0.04094073 -0.00314582 0.04693126
v -0.04047192 -0.00088870 0.04667091
v -0.04021733 -0.00004765 0.04656514
v -0.03153292 0.01518110 0.04537728
v -0.04094073 -0.01577320 0.04791573
v -0.04094073 -0.00818817 0.04732993
v -0.04094073 -0.00692465 0.04723230
v -0.04094073 -0.00440543 0.04703703
v -0.03937803 0.00039830 0.04663836
v -0.03842110 0.00122369 0.04660582
v -0.03212288 0.01196557 0.04576781
v -0.02960500 0.01574440 0.04548304
v -0.02960500 0.01652677 0.04539355
v -0.02708536 0.01759470 0.04534473
v -0.03590146 0.00440792 0.04636174
v -0.03842110 0.00059389 0.04665464
v -0.03338182 0.00944636 0.04597121
v -0.02708536 0.01696489 0.04539355
v -0.00692774 0.04724102 -0.04314044
v -0.00566872 0.04724102 -0.04317874
v 0.00566872 0.04724102 -0.04317874
v 0.00692774 0.04724102 -0.04314044
v -0.00760423 0.04793430 -0.04287234
v -0.00692774 0.04798749 -0.04291611
v -0.00566872 0.04800877 -0.04293252
v 0.00566872 0.04800877 -0.04293252
v 0.00692774 0.04798749 -0.04291611
v 0.00760423 0.04793430 -0.04287234
v -0.00764964 0.05430854 -0.03789879
v -0.00757448 0.05293086 -0.03906421
v -0.00566872 0.04945738 -0.04182182
v -0.00566872 0.04863822 -0.04245103
v -0.00692774 0.05296277 -0.03909157
v -0.00638749 0.05795223 -0.03527250
v 0.00566872 0.04863822 -0.04245103
v 0.00566872 0.04945738 -0.04182182
v 0.00639219 0.05795223 -0.03527250
v 0.00692774 0.05296277 -0.03909157
v 0.00757448 0.05293086 -0.03906421
v 0.00764964 0.05430854 -0.03789879
v -0.00759953 0.05924127 -0.03405783
v -0.00722684 0.05791500 -0.03523967
v -0.00566872 0.05795401 -0.03527797
v -0.00685571 0.05845402 -0.03481837
v -0.00692774 0.05927319 -0.03410160
v -0.00566872 0.05858345 -0.03474724
v 0.00566872 0.05795401 -0.03527797
v 0.00566872 0.05858523 -0.03474724
v 0.00685884 0.05845402 -0.03481837
v 0.00723153 0.05791500 -0.03523967
v 0.00759953 0.05924127 -0.03405783
v -0.00692774 0.05939375 -0.03337938
v -0.00764808 0.05928560 -0.03337938
v -0.00757134 0.06047711 -0.01903871
v -0.00566872 0.05942390 -0.03337938
v -0.00566872 0.05928560 -0.03411802
v 0.00566872 0.05928560 -0.03411802
v 0.00692774 0.05927319 -0.03410160
v 0.00764808 0.05928560 -0.03337938
v 0.00692774 0.05939553 -0.03337938
v 0.00757134 0.06047711 -0.01904419
v -0.00692774 0.05949659 -0.03212094
v -0.00566872 0.05952851 -0.03212094
v -0.00772950 0.05937780 -0.03086251
v -0.00769505 0.05933347 -0.03212094
v -0.00760423 0.06050548 -0.01826177
v -0.00692774 0.06049484 -0.01926851
v -0.00757134 0.06173600 -0.00267362
v -0.00314912 0.05953028 -0.03212094
v 0.00566872 0.05942390 -0.03337938
v 0.00769662 0.05933524 -0.03212094
v 0.00760423 0.06050548 -0.01826177
v 0.00566872 0.05953028 -0.03212094
v 0.00692774 0.05949659 -0.03212094
v 0.00692774 0.06049484 -0.01927399
v 0.00757134 0.06173600 -0.00267362
v 0.00760579 0.06176437 -0.00189120
v -0.00566872 0.05962603 -0.03086251
v -0.00769662 0.06059413 -0.01574490
v -0.00773107 0.06189735 0.00188957
v -0.00769662 0.06185480 0.00062566
v -0.00765434 0.06054981 -0.01700334
v -0.00765434 0.06181047 -0.00063277
v -0.00566872 0.06040264 -0.02078411
v -0.00566872 0.05972355 -0.02959861
v -0.00692774 0.06175373 -0.00290342
v -0.00566872 0.06253566 0.00692330
v -0.00566872 0.06195409 -0.00063277
v 0.00566872 0.05962780 -0.03086251
v 0.00773107 0.06063669 -0.01449194
v 0.00772950 0.05937780 -0.03086251
v 0.00765434 0.06054981 -0.01700334
v 0.00765434 0.06181047 -0.00063277
v 0.00769662 0.06185480 0.00062566
v 0.00773107 0.06189735 0.00188957
v 0.00566872 0.06166330 -0.00441354
v 0.00692774 0.06175373 -0.00290342
v 0.00062951 0.06166330 -0.00441354
v 0.01380888 -0.06110478 -0.02900240
v 0.02370199 -0.04975670 0.04403353
v 0.01380888 -0.05862967 0.00315722
v 0.02370199 -0.04960709 0.04597419
v 0.01387086 -0.05543514 0.04418846
v 0.01380888 -0.05562435 0.04219886
v 0.02330394 -0.04964229 0.04849380
v 0.01767315 -0.05292923 0.04814318
v 0.01448682 -0.05474651 0.04849380
v 0.01380888 -0.05521953 0.04745008
v 0.01761697 -0.05289623 0.04898305
v 0.01513377 -0.05417669 0.05039370
v 0.02330394 -0.04723979 0.05033662
v 0.02279548 -0.04918907 0.05041816
v 0.02135728 -0.05028692 0.05034477
v 0.01902225 -0.05171918 0.05044262
v 0.01665624 -0.05305904 0.05049970
v 0.02204490 -0.04852245 0.05043447
v 0.02279548 -0.04872485 0.05041816
v 0.01574682 -0.05227800 0.05071170
v 0.02787892 -0.05300314 -0.02959712
v 0.02645421 -0.05164791 -0.00125966
v 0.03020025 -0.05162891 -0.02921594
v 0.02934488 -0.05186323 -0.02581771
v 0.02960342 -0.04987155 -0.00188415
v 0.02960342 -0.05113178 -0.01825889
v 0.03025343 -0.05166058 -0.03005941
v 0.03025343 -0.05040034 -0.01368467
v 0.03019934 -0.05036868 -0.01284120
v 0.02997197 -0.04645815 0.03967315
v 0.02960342 -0.04599268 0.04849718
v 0.03030018 -0.05169224 -0.03086234
v 0.03029927 -0.05043200 -0.01447948
v 0.03025251 -0.04914010 0.00269007
v 0.03019842 -0.04658797 0.03626681
v 0.03043037 -0.04548605 0.04849718
v 0.03034419 -0.04542589 0.04927576
v 0.03039003 -0.05175557 -0.03252495
v 0.03036894 -0.05173974 -0.03211944
v 0.03036894 -0.05047950 -0.01574469
v 0.03036803 -0.04795903 0.01700479
v 0.03029835 -0.04791153 0.01826189
v 0.03029835 -0.04917177 0.00189526
v 0.03029743 -0.04665130 0.03463664
v 0.03025251 -0.04787987 0.01905670
v 0.03025159 -0.04661963 0.03542334
v 0.03048813 -0.04553672 0.04723197
v 0.03106021 -0.04482744 0.04849718
v 0.03036711 -0.04669880 0.03337954
v 0.03152503 -0.04414349 0.04918656
v 0.03080351 -0.04462479 0.04944609
v 0.02960342 -0.04471978 0.04997325
v 0.02960342 -0.04564438 0.04948663
v 0.03147185 -0.05035285 -0.02959712
v 0.03148835 -0.04786087 0.00242243
v 0.03148835 -0.04912111 -0.01395231
v 0.03063573 -0.05072332 -0.02203830
v 0.03054314 -0.05062516 -0.01952410
v 0.03048996 -0.05057766 -0.01825889
v 0.03048996 -0.04931743 -0.00188415
v 0.03054130 -0.04558421 0.04597486
v 0.03111797 -0.04487494 0.04723197
v 0.03048904 -0.04679696 0.03085722
v 0.03155436 -0.04419732 0.04849718
v 0.03284796 -0.04173385 0.04925144
v 0.03172214 -0.04345955 0.04937309
v 0.03197976 -0.04345955 0.04849718
v 0.03290939 -0.04184150 0.04849718
v 0.03086310 -0.04345955 0.04983538
v 0.02960342 -0.04345955 0.05003814
v 0.02834374 -0.04471978 0.05012735
v 0.03086310 -0.04219931 0.04993271
v 0.03144343 -0.05030218 -0.02834003
v 0.03147185 -0.04783237 0.00315236
v 0.03163871 -0.04434298 0.04471776
v 0.03155528 -0.04545756 0.03212244
v 0.03147093 -0.04531190 0.03590184
v 0.03137926 -0.05020719 -0.02581771
v 0.03126557 -0.05006153 -0.02203830
v 0.03059081 -0.04941242 -0.00440646
v 0.03121973 -0.04623333 0.02834302
v 0.03121973 -0.04497310 0.04471776
v 0.03058989 -0.04563171 0.04471776
v 0.03054222 -0.04936492 -0.00314125
v 0.03117114 -0.04492243 0.04597486
v 0.03126374 -0.04502059 0.04345256
v 0.03130499 -0.04506809 0.04219546
v 0.03134350 -0.04511875 0.04093835
v 0.03137834 -0.04516625 0.03967315
v 0.03141134 -0.04521374 0.03841605
v 0.03144251 -0.04526124 0.03715895
v 0.03216037 -0.04217398 0.04951908
v 0.03212278 -0.04093907 0.04974617
v 0.03212278 -0.03967884 0.04975427
v 0.02960342 -0.04219931 0.04994893
v 0.03306800 -0.03873841 0.04965696
v 0.03144343 -0.04904195 -0.01196528
v 0.03141226 -0.04899445 -0.01070007
v 0.03141226 -0.04773421 0.00567467
v 0.03137926 -0.04768672 0.00693177
v 0.03130591 -0.04884879 -0.00692066
v 0.03137926 -0.04642648 0.02329840
v 0.03141226 -0.04647398 0.02204130
v 0.02456469 -0.04345955 0.05004625
v -0.00944793 -0.06258004 -0.02959812
v -0.01134216 -0.06172568 -0.01886840
v -0.00807785 -0.06258004 -0.02959812
v -0.00807785 -0.06237757 -0.02696570
v -0.00944793 -0.05705386 0.04219734
v -0.01070854 -0.05921445 0.01396084
v -0.01237221 -0.06159481 -0.02455731
v -0.01148315 -0.06179729 -0.02078071
v -0.01134216 -0.06046636 -0.00249779
v -0.01139026 -0.06049106 -0.00314589
v -0.01148315 -0.06053797 -0.00440209
v -0.01134050 -0.05794773 0.03024344
v -0.00807785 -0.05685138 0.04482977
v -0.00944793 -0.05670075 0.04678208
v -0.01070854 -0.05675014 0.04597395
v -0.01211345 -0.06144913 -0.02078071
v -0.01211345 -0.06018981 -0.00440209
v -0.01228761 -0.06028611 -0.00692250
v -0.01228761 -0.05902679 0.00944812
v -0.01139026 -0.05923174 0.01322472
v -0.01148149 -0.05801933 0.02833913
v -0.01134050 -0.05668593 0.04661405
v -0.01138860 -0.05671063 0.04597395
v -0.00944793 -0.05656741 0.04849435
v -0.01070854 -0.05669335 0.04670206
v -0.01295772 -0.05941446 -0.00062549
v -0.01367096 -0.05909840 -0.00188169
v -0.02330465 -0.04973992 0.04723815
v -0.01220136 -0.05771809 0.02708293
v -0.01237055 -0.05655506 0.04093314
v -0.01148149 -0.05675754 0.04471775
v -0.01070854 -0.05664396 0.04733416
v -0.01070854 -0.05655013 0.04849435
v -0.01070854 -0.05639210 0.04975855
v -0.01196749 -0.05605628 0.04975855
v -0.01196749 -0.05618715 0.04849435
v -0.01201890 -0.05635999 0.04597395
v -0.01211013 -0.05640938 0.04471775
v -0.00944793 -0.05640444 0.04975855
v -0.01375390 -0.05662667 0.02960333
v -0.01366930 -0.05531797 0.04723815
v -0.01593342 -0.05391049 0.04849435
v -0.02406101 -0.04920410 0.04849435
v -0.01228595 -0.05650568 0.04219734
v -0.01295607 -0.05563403 0.04849435
v -0.01070854 -0.05585380 0.05067070
v -0.01196749 -0.05570317 0.05059869
v -0.01274541 -0.05551057 0.05047867
v -0.01286650 -0.05558218 0.04975855
v -0.00944793 -0.05585874 0.05067070
v -0.01761699 -0.05289563 0.04898243
v -0.00818898 -0.05479696 0.05091874
v -0.01070854 -0.05479696 0.05091074
v -0.01196749 -0.05479696 0.05083872
v -0.01318994 -0.05480683 0.05063069
v -0.01665495 -0.05306107 0.05050267
v -0.01902190 -0.05171780 0.05043866
v -0.01513393 -0.05417717 0.05039865
v -0.00807785 -0.05479696 0.05091874
v -0.02330465 -0.04724104 0.05033464
v -0.01952449 -0.04975968 0.05052668
v -0.01322809 -0.05353764 0.05081472
v -0.02279543 -0.04918928 0.05041466
v -0.02135734 -0.05028563 0.05034265
v -0.02204404 -0.04852258 0.05043066
v -0.01574765 -0.05227832 0.05071070
v -0.02279543 -0.04872506 0.05041466
v -0.02708561 -0.05346266 -0.02960036
v -0.03020146 -0.05162769 -0.02921950
v -0.02737687 -0.05271215 -0.02203859
v -0.02972393 -0.05135227 -0.02203859
v -0.02674693 -0.05181704 -0.00566135
v -0.03029799 -0.05168965 -0.03082231
v -0.02972393 -0.05009224 -0.00566135
v -0.03025396 -0.04662197 0.03543250
v -0.02892634 -0.05036077 -0.00314605
v -0.02892464 -0.04658066 0.04597773
v -0.04232281 -0.02582451 0.03211579
v -0.02708561 -0.04745167 0.04849303
v -0.03036911 -0.04921778 0.00063087
v -0.03036911 -0.05047782 -0.01574636
v -0.03049104 -0.05057766 -0.01826167
v -0.03054353 -0.05062586 -0.01952329
v -0.03059264 -0.05067405 -0.02078490
v -0.03036911 -0.04669772 0.03337741
v -0.03043177 -0.04548932 0.04849303
v -0.02972223 -0.04631213 0.04345449
v -0.02960370 -0.04599196 0.04849303
v -0.04231096 -0.03086465 -0.03082231
v -0.04232281 -0.02834458 -0.00062281
v -0.04231943 -0.02582451 0.03337741
v -0.04232112 -0.02456791 0.04597773
v -0.04231265 -0.02456791 0.04723935
v -0.04229233 -0.02330788 0.04723935
v -0.04226185 -0.02204784 0.04723935
v -0.04222460 -0.02078781 0.04723935
v -0.03034540 -0.04542391 0.04927064
v -0.03049104 -0.04931762 -0.00188443
v -0.03054353 -0.04936582 -0.00314605
v -0.03059264 -0.04941402 -0.00440767
v -0.03122258 -0.05001305 -0.02078490
v -0.03126661 -0.05006125 -0.02203859
v -0.03130725 -0.05010945 -0.02330020
v -0.03134620 -0.05015765 -0.02456182
v -0.03106171 -0.04482832 0.04849303
v -0.03049104 -0.04553752 0.04723935
v -0.04229741 -0.03086465 -0.02960036
v -0.04229741 -0.02834458 0.00315411
v -0.04229741 -0.02582451 0.03590065
v -0.04231096 -0.02582451 0.03463903
v -0.04228048 -0.02582451 0.03715433
v -0.04226016 -0.02582451 0.03841595
v -0.04221274 -0.02582451 0.04093919
v -0.04218565 -0.02582451 0.04219288
v -0.04210267 -0.02582451 0.04597773
v -0.04207388 -0.02582451 0.04723935
v -0.04181480 -0.02582451 0.04814391
v -0.04193672 -0.02456791 0.04822325
v -0.04191640 -0.02330788 0.04817565
v -0.04188592 -0.02204784 0.04812804
v -0.04184866 -0.02078781 0.04808042
v -0.02960370 -0.04564424 0.04949281
v -0.02960370 -0.04471815 0.04997682
v -0.03080432 -0.04462520 0.04944519
v -0.03152570 -0.04414322 0.04918335
v -0.03054353 -0.04558572 0.04597773
v -0.03059095 -0.04563391 0.04471611
v -0.03122089 -0.04497291 0.04471611
v -0.03126661 -0.04880122 -0.00566135
v -0.03130725 -0.04758938 0.00945427
v -0.03141394 -0.05025404 -0.02707713
v -0.03138007 -0.04768578 0.00693103
v -0.03141394 -0.04899401 -0.01069989
v -0.03130725 -0.04506931 0.04219288
v -0.03134451 -0.04511751 0.04093919
v -0.03138007 -0.04516570 0.03967757
v -0.03155618 -0.04419830 0.04849303
v -0.03112098 -0.04487652 0.04723935
v -0.04221274 -0.03086465 -0.02456182
v -0.04223814 -0.03086465 -0.02582344
v -0.04226016 -0.03086465 -0.02707713
v -0.04228048 -0.03086465 -0.02833875
v -0.04228048 -0.02834458 0.00441573
v -0.04226016 -0.02960461 -0.01069989
v -0.04223814 -0.02834458 0.00693103
v -0.04221274 -0.02834458 0.00819265
v -0.04218565 -0.02834458 0.00945427
v -0.04215855 -0.02708454 0.02707725
v -0.04204679 -0.02708454 0.03211579
v -0.04213146 -0.03086465 -0.02078490
v -0.04201631 -0.02708454 0.03337741
v -0.04197906 -0.02708454 0.03463903
v -0.04188422 -0.02701913 0.03841595
v -0.04183681 -0.02691929 0.04093919
v -0.04180972 -0.02687109 0.04219288
v -0.04169795 -0.02667830 0.04723935
v -0.04164546 -0.02658879 0.04797728
v -0.04093931 -0.02582451 0.04855651
v -0.03651276 -0.03524723 0.04909607
v -0.03665331 -0.03440721 0.04919129
v -0.04093931 -0.02456791 0.04858825
v -0.02834381 -0.04471815 0.05012758
v -0.02960370 -0.04345811 0.05004030
v -0.03086358 -0.04219808 0.04992922
v -0.03086358 -0.04345811 0.04983400
v -0.03172383 -0.04345811 0.04937379
v -0.03284994 -0.04173676 0.04924683
v -0.04032291 -0.02899525 0.04788999
v -0.03426054 -0.03948522 0.04849303
v -0.03291090 -0.04184348 0.04849303
v -0.03254852 -0.04247350 0.04849303
v -0.03117348 -0.04492471 0.04597773
v -0.03126492 -0.04502111 0.04345449
v -0.03144442 -0.05030224 -0.02833875
v -0.03150030 -0.05039864 -0.03082231
v -0.03144442 -0.04778217 0.00441573
v -0.03141394 -0.04521390 0.03841595
v -0.03998084 -0.02966314 0.04723935
v -0.03158497 -0.04424650 0.04723935
v -0.03144442 -0.04526210 0.03715433
v -0.04188422 -0.03205927 -0.02707713
v -0.04215855 -0.03086465 -0.02203859
v -0.04215855 -0.02960461 -0.00566135
v -0.04198075 -0.02960461 0.00189249
v -0.04188422 -0.03079924 -0.01069989
v -0.04186221 -0.03075104 -0.00944621
v -0.04180972 -0.02939116 0.00945427
v -0.04178262 -0.02808293 0.02707725
v -0.04172674 -0.02798653 0.02960049
v -0.04161498 -0.02779374 0.03463903
v -0.04133556 -0.02730832 0.04723935
v -0.03685144 -0.03338472 0.04919922
v -0.03416402 -0.03931997 0.04927064
v -0.03543745 -0.03687908 0.04924683
v -0.03212347 -0.04093805 0.04974671
v -0.04093931 -0.02204784 0.04839782
v -0.03464156 -0.03590479 0.04945313
v -0.03590145 -0.03338472 0.04927064
v -0.03842122 -0.02834458 0.04888183
v -0.02502305 -0.04597819 0.05023866
v -0.03212347 -0.03967801 0.04975465
v -0.03216242 -0.04217398 0.04951661
v -0.03150877 -0.04915237 -0.01479420
v -0.03179834 -0.04987879 -0.03079057
v -0.03158497 -0.04928664 -0.01826167
v -0.03220645 -0.04849826 -0.02203859
v -0.03148845 -0.04786136 0.00242412
v -0.03147321 -0.04531030 0.03590065
v -0.04153200 -0.03142925 -0.01069989
v -0.03148845 -0.04534128 0.03516272
v -0.03280083 -0.04543079 0.00441573
v -0.04186221 -0.03201107 -0.02582344
v -0.04178262 -0.03060300 -0.00566135
v -0.03249433 -0.04741724 -0.01448474
v -0.04178262 -0.03186303 -0.02203859
f 793 284 792
f 802 234 814
f 796 263 258
f 366 371 372
f 474 461 473
f 473 486 474
f 473 461 651
f 773 691 615
f 1063 1072 1061
f 1061 1050 1063
f 1021 1027 1028
f 137 114 136
f 138 114 137
f 801 812 129
f 283 263 796
f 284 263 283
f 796 792 304
f 304 792 284
f 797 798 793
f 793 792 797
f 797 792 796
f 814 815 803
f 803 802 814
f 803 797 796
f 796 234 803
f 234 802 803
f 235 258 240
f 262 263 240
f 240 258 262
f 262 258 263
f 814 234 232
f 462 461 474
f 376 372 371
f 615 691 689
f 689 691 692
f 474 490 475
f 475 490 482
f 475 462 474
f 474 486 487
f 695 773 787
f 695 696 692
f 1067 1068 706
f 717 706 1068
f 718 706 717
f 814 211 826
f 758 777 762
f 692 691 694
f 691 773 694
f 694 695 692
f 773 695 694
f 1063 1050 1062
f 1091 1132 1092
f 1093 1068 1092
f 1092 1068 1091
f 1092 1132 1134
f 158 699 701
f 701 699 152
f 715 729 716
f 716 729 730
f 1097 1072 1038
f 1038 1098 1097
f 1097 1098 1072
f 1038 1072 1039
f 1039 1032 1038
f 1072 1032 1039
f 1072 1098 1099
f 1099 1098 1140
f 1140 1141 1099
f 1072 1099 1100
f 1100 1099 1141
f 1100 1132 1143
f 1134 1132 1100
f 1027 1021 370
f 370 1034 1027
f 370 371 366
f 366 1034 370
f 1028 1027 1037
f 760 1136 1171
f 774 760 781
f 758 774 775
f 842 828 836
f 114 419 420
f 136 114 113
f 114 90 113
f 650 652 651
f 651 461 650
f 461 460 650
f 653 642 641
f 641 652 653
f 651 652 641
f 833 834 824
f 847 834 833
f 833 843 846
f 846 847 833
f 848 847 846
f 848 834 847
f 800 812 801
f 801 795 800
f 794 799 800
f 800 795 794
f 804 807 816
f 804 797 807
f 148 129 824
f 130 131 108
f 108 129 130
f 130 129 131
f 813 812 824
f 824 129 813
f 813 129 812
f 824 812 823
f 816 807 819
f 301 283 796
f 807 797 806
f 797 803 806
f 815 807 806
f 806 803 815
f 796 258 257
f 258 235 257
f 257 234 796
f 257 235 234
f 233 211 814
f 814 232 233
f 233 232 234
f 192 725 749
f 36 51 52
f 47 51 36
f 264 263 284
f 284 285 264
f 240 263 264
f 264 265 240
f 307 352 354
f 285 352 307
f 305 285 284
f 305 352 285
f 305 284 793
f 793 352 305
f 354 353 306
f 306 307 354
f 285 307 306
f 128 127 801
f 108 127 128
f 801 129 128
f 128 129 108
f 801 134 359
f 359 357 801
f 356 795 801
f 801 357 356
f 109 85 108
f 111 134 801
f 801 127 111
f 40 56 42
f 383 393 386
f 43 26 42
f 42 56 43
f 516 100 517
f 463 475 476
f 462 475 463
f 378 373 372
f 378 383 386
f 375 376 371
f 339 3 340
f 615 689 690
f 690 689 692
f 685 612 686
f 640 473 651
f 486 473 640
f 651 641 640
f 476 475 578
f 578 475 482
f 489 490 474
f 482 490 491
f 791 695 787
f 679 682 697
f 695 791 788
f 788 791 787
f 1069 1068 1093
f 1093 1070 1069
f 757 774 758
f 757 760 774
f 1070 734 733
f 732 1069 733
f 733 1069 1070
f 733 718 732
f 733 734 718
f 755 734 754
f 1071 1070 1093
f 1071 734 1070
f 700 701 152
f 732 718 731
f 718 717 731
f 731 717 1068
f 731 1069 732
f 1068 1069 731
f 718 719 707
f 707 721 708
f 708 700 707
f 739 719 730
f 730 729 739
f 744 719 743
f 743 767 744
f 766 767 743
f 743 664 763
f 763 764 743
f 718 734 735
f 735 719 718
f 735 757 758
f 734 757 735
f 649 639 648
f 629 762 777
f 639 762 629
f 787 773 786
f 786 785 787
f 773 785 786
f 784 785 773
f 1050 1061 1060
f 1060 1048 1050
f 1061 1048 1060
f 727 721 741
f 712 713 702
f 744 767 768
f 768 767 766
f 714 729 715
f 1029 1021 1028
f 1029 1037 1038
f 1028 1037 1029
f 1038 1032 1029
f 1031 1029 1032
f 1030 1029 1031
f 1023 1031 1032
f 1177 1141 1140
f 1140 1168 1177
f 1177 1168 1141
f 1080 1061 1072
f 1072 1100 1080
f 1142 1168 1134
f 1134 1100 1142
f 1141 1168 1142
f 1142 1100 1141
f 1027 1035 1036
f 1036 1035 1040
f 1036 1037 1027
f 1040 1037 1036
f 1041 1040 1042
f 1041 1037 1040
f 1041 1042 1038
f 1038 1037 1041
f 1135 1092 1134
f 1140 1098 1139
f 1167 1135 1139
f 1136 760 736
f 778 788 789
f 695 788 778
f 776 773 777
f 776 777 758
f 758 775 776
f 842 858 857
f 857 861 842
f 647 871 860
f 851 858 842
f 842 836 851
f 825 836 828
f 837 753 853
f 853 854 837
f 763 664 853
f 772 764 763
f 763 853 772
f 772 853 753
f 749 770 771
f 771 770 764
f 771 772 753
f 764 772 771
f 766 770 751
f 436 455 456
f 424 423 439
f 439 423 422
f 145 424 418
f 114 420 421
f 435 420 419
f 436 420 435
f 435 455 436
f 139 432 419
f 139 114 138
f 139 419 114
f 434 435 419
f 114 141 115
f 115 90 114
f 90 115 91
f 91 115 116
f 667 652 672
f 653 652 667
f 471 460 454
f 471 470 460
f 824 834 832
f 832 844 136
f 429 136 428
f 429 137 136
f 138 137 429
f 460 470 468
f 862 848 846
f 862 846 842
f 842 861 862
f 862 860 871
f 861 860 862
f 672 834 849
f 812 800 811
f 811 800 810
f 811 823 812
f 810 823 811
f 810 800 809
f 131 129 149
f 129 148 149
f 149 148 824
f 824 823 822
f 822 823 810
f 829 819 818
f 814 825 818
f 818 819 807
f 828 829 818
f 818 825 828
f 810 809 820
f 303 304 284
f 796 304 303
f 303 301 796
f 211 233 212
f 234 235 212
f 212 233 234
f 173 192 193
f 193 826 211
f 193 753 837
f 193 192 753
f 750 192 749
f 753 192 750
f 749 771 750
f 750 771 753
f 724 725 190
f 155 500 152
f 152 154 155
f 173 710 711
f 711 190 173
f 36 52 53
f 31 17 16
f 268 246 245
f 285 265 286
f 286 264 285
f 265 264 286
f 794 795 355
f 795 356 355
f 354 794 355
f 355 353 354
f 355 356 357
f 134 111 355
f 133 109 108
f 119 133 131
f 109 133 119
f 131 113 119
f 85 109 89
f 107 111 127
f 85 111 107
f 107 127 108
f 108 85 107
f 85 63 84
f 78 79 55
f 56 55 80
f 80 79 56
f 55 79 80
f 57 55 56
f 56 40 57
f 57 40 55
f 42 26 41
f 41 40 42
f 394 383 385
f 393 383 394
f 385 398 394
f 394 398 393
f 372 376 377
f 377 378 372
f 383 378 377
f 377 384 385
f 385 383 377
f 902 393 882
f 393 398 882
f 58 43 56
f 56 949 58
f 906 907 902
f 952 950 953
f 921 937 922
f 935 938 921
f 902 907 908
f 908 921 922
f 123 98 97
f 935 947 946
f 946 938 935
f 946 516 517
f 517 519 946
f 56 79 82
f 82 78 99
f 79 78 82
f 81 516 56
f 100 516 81
f 56 82 81
f 81 82 100
f 462 463 443
f 463 464 443
f 443 464 465
f 145 141 151
f 151 424 145
f 151 423 424
f 558 570 564
f 558 559 528
f 426 564 565
f 564 570 565
f 565 535 426
f 570 535 565
f 367 365 366
f 367 368 365
f 373 368 367
f 366 372 367
f 372 373 367
f 538 965 537
f 537 578 538
f 366 365 889
f 365 368 889
f 889 368 891
f 891 890 889
f 890 942 889
f 400 399 410
f 385 399 400
f 400 401 385
f 374 375 371
f 371 370 374
f 994 325 982
f 376 381 382
f 384 377 382
f 382 377 376
f 698 697 682
f 616 685 684
f 611 685 616
f 612 685 611
f 681 682 679
f 683 684 681
f 681 684 685
f 686 682 681
f 681 685 686
f 679 680 681
f 681 680 683
f 630 623 486
f 486 640 630
f 633 641 642
f 633 640 641
f 633 630 640
f 922 937 940
f 943 562 967
f 572 573 537
f 559 558 572
f 572 478 573
f 531 559 560
f 560 562 943
f 497 491 490
f 789 788 783
f 785 784 783
f 783 781 789
f 774 781 783
f 783 784 773
f 1091 1068 1090
f 1068 1086 1087
f 1087 1088 1068
f 1053 1066 1067
f 1067 706 1053
f 706 700 1053
f 1053 700 152
f 756 734 755
f 756 757 734
f 760 757 756
f 737 754 734
f 709 700 708
f 701 700 709
f 741 721 720
f 721 707 720
f 720 719 741
f 720 707 719
f 741 719 740
f 719 739 740
f 665 743 649
f 664 743 665
f 649 648 665
f 665 648 664
f 742 743 719
f 719 735 742
f 742 735 758
f 758 762 742
f 742 762 639
f 742 639 649
f 649 743 742
f 661 648 660
f 638 646 647
f 647 648 638
f 637 646 638
f 638 629 637
f 638 648 639
f 639 629 638
f 837 854 852
f 315 300 299
f 315 299 296
f 296 295 315
f 1150 1179 231
f 280 255 254
f 1073 1061 1081
f 1073 513 1061
f 1057 513 1073
f 1183 1182 1151
f 1100 1146 1112
f 1113 1080 1112
f 1112 1080 1100
f 1143 1132 1131
f 1131 1132 1091
f 1091 1130 1131
f 153 154 152
f 1009 1021 1022
f 1021 1029 1022
f 1022 1029 1030
f 1030 1031 1022
f 1031 1023 1022
f 1024 1023 1033
f 1063 1024 1033
f 1033 1072 1063
f 1033 1032 1072
f 1033 1023 1032
f 1144 1100 1143
f 1140 1135 1169
f 1169 1135 1134
f 1169 1168 1140
f 1134 1168 1169
f 1133 1167 1136
f 1133 1135 1167
f 1133 1136 1093
f 1093 1092 1133
f 1092 1135 1133
f 1170 1135 1140
f 1140 1139 1170
f 1170 1139 1135
f 1137 1098 1038
f 1038 1042 1137
f 1042 1040 1137
f 1136 1167 1172
f 1167 1139 1172
f 755 754 1095
f 1136 736 1095
f 789 781 780
f 780 781 760
f 366 778 369
f 840 851 836
f 858 851 840
f 840 857 858
f 861 857 840
f 840 860 861
f 647 860 840
f 765 770 766
f 764 770 765
f 766 743 765
f 765 743 764
f 752 770 749
f 752 751 770
f 749 725 752
f 725 751 752
f 419 432 433
f 433 434 419
f 454 435 453
f 435 434 453
f 96 121 97
f 97 71 96
f 37 21 36
f 36 39 37
f 652 669 670
f 652 650 666
f 666 650 460
f 672 674 673
f 673 667 672
f 673 674 653
f 653 667 673
f 431 139 138
f 432 139 431
f 430 431 138
f 850 834 672
f 845 865 844
f 844 832 845
f 845 832 834
f 834 850 845
f 467 468 445
f 467 447 469
f 869 862 871
f 653 848 869
f 848 862 869
f 676 677 653
f 672 677 676
f 870 848 653
f 653 677 870
f 870 677 672
f 672 849 870
f 798 797 805
f 797 804 805
f 135 113 131
f 131 149 135
f 136 113 135
f 135 149 824
f 824 832 135
f 135 832 136
f 821 822 810
f 810 820 821
f 829 830 821
f 821 819 829
f 821 820 816
f 816 819 821
f 817 807 815
f 817 818 807
f 817 815 814
f 814 818 817
f 302 303 284
f 301 303 302
f 284 283 302
f 283 301 302
f 214 222 204
f 240 265 260
f 260 261 240
f 265 261 260
f 285 306 298
f 298 353 105
f 298 306 353
f 216 235 240
f 725 192 191
f 191 190 725
f 191 192 173
f 173 190 191
f 168 155 167
f 167 155 166
f 166 155 165
f 154 163 164
f 164 155 154
f 164 165 155
f 163 176 164
f 730 719 738
f 722 710 716
f 722 711 710
f 722 726 711
f 54 39 36
f 36 53 54
f 54 53 71
f 55 39 54
f 31 16 251
f 251 222 31
f 242 222 251
f 251 16 278
f 31 222 48
f 51 65 66
f 68 52 66
f 66 52 51
f 49 65 51
f 51 47 49
f 49 47 31
f 31 48 49
f 276 265 285
f 285 298 276
f 357 359 358
f 358 355 357
f 134 355 358
f 108 131 132
f 132 133 108
f 131 133 132
f 88 89 68
f 109 119 94
f 94 89 109
f 94 119 113
f 94 113 90
f 106 111 85
f 85 84 106
f 106 84 105
f 106 355 111
f 105 353 106
f 353 355 106
f 105 84 83
f 83 84 63
f 83 104 105
f 56 516 925
f 927 925 516
f 40 41 23
f 47 33 32
f 32 17 31
f 31 47 32
f 36 21 35
f 902 882 878
f 12 11 26
f 24 41 26
f 26 11 24
f 24 23 41
f 901 906 902
f 957 953 950
f 935 953 957
f 953 932 954
f 531 921 529
f 529 559 531
f 529 522 528
f 528 559 529
f 522 529 530
f 530 529 921
f 902 908 883
f 883 393 902
f 386 393 883
f 923 908 922
f 922 940 923
f 923 940 943
f 526 519 524
f 518 519 517
f 938 946 520
f 520 946 519
f 517 100 103
f 100 82 103
f 103 518 517
f 477 463 476
f 477 478 463
f 442 443 426
f 462 443 442
f 454 460 442
f 442 456 455
f 442 460 461
f 461 462 442
f 442 435 454
f 455 435 442
f 140 141 114
f 140 151 141
f 140 421 422
f 114 421 140
f 422 423 140
f 423 151 140
f 465 464 601
f 601 464 463
f 569 535 568
f 145 426 534
f 534 535 145
f 426 535 534
f 536 121 145
f 145 535 536
f 536 569 121
f 536 535 569
f 480 538 578
f 941 889 942
f 943 965 941
f 941 923 943
f 942 923 941
f 695 778 360
f 965 538 466
f 538 480 466
f 466 778 366
f 965 466 966
f 966 941 965
f 889 941 966
f 373 378 379
f 405 401 413
f 411 400 410
f 334 400 411
f 343 334 342
f 342 400 343
f 343 400 334
f 412 400 342
f 401 400 412
f 375 374 1025
f 1025 370 1021
f 1025 374 370
f 350 351 347
f 347 351 405
f 405 413 347
f 347 412 342
f 347 413 401
f 401 412 347
f 339 340 333
f 380 381 376
f 376 375 380
f 387 382 381
f 268 289 270
f 687 688 696
f 686 688 687
f 696 698 687
f 687 682 686
f 687 698 682
f 616 623 624
f 623 630 624
f 617 611 616
f 616 624 617
f 615 690 614
f 690 613 614
f 688 613 693
f 693 613 690
f 693 690 692
f 692 696 693
f 696 688 693
f 645 646 637
f 533 562 537
f 533 967 562
f 537 965 533
f 533 965 943
f 943 967 533
f 463 478 479
f 479 572 463
f 478 572 479
f 943 940 964
f 964 560 943
f 940 560 964
f 571 572 537
f 537 562 571
f 562 560 571
f 559 572 571
f 571 560 559
f 575 576 537
f 476 578 577
f 577 576 476
f 577 578 537
f 537 576 577
f 491 484 492
f 679 697 678
f 678 697 362
f 494 484 493
f 493 484 491
f 496 484 495
f 679 678 496
f 496 678 484
f 490 489 488
f 488 497 490
f 487 497 488
f 474 487 488
f 488 489 474
f 485 487 486
f 485 497 487
f 491 497 485
f 485 484 494
f 495 484 485
f 494 493 485
f 485 493 491
f 486 623 485
f 485 623 616
f 616 684 485
f 485 684 683
f 683 680 485
f 485 680 679
f 679 496 485
f 485 496 495
f 785 783 790
f 790 783 788
f 787 785 790
f 790 788 787
f 782 783 773
f 773 776 782
f 782 776 775
f 782 775 774
f 774 783 782
f 1068 1088 1089
f 1089 1090 1068
f 1118 1087 1086
f 1066 1053 1065
f 761 736 760
f 760 756 761
f 761 756 736
f 729 714 728
f 728 727 741
f 741 740 728
f 660 648 655
f 655 648 647
f 663 853 664
f 854 853 663
f 664 648 663
f 855 852 854
f 314 982 325
f 314 324 982
f 314 313 324
f 314 315 295
f 314 295 294
f 321 985 986
f 311 320 321
f 300 315 316
f 514 1047 316
f 217 205 199
f 181 204 199
f 217 199 221
f 1106 255 1079
f 1180 1150 1178
f 1151 1182 1178
f 1182 1183 1178
f 1079 255 1078
f 255 1077 1078
f 256 255 280
f 256 1077 255
f 280 254 279
f 299 300 279
f 1048 513 279
f 296 299 279
f 1059 256 282
f 1061 513 1056
f 1056 513 1048
f 1148 1112 1109
f 1109 1112 1110
f 1109 1110 1079
f 1111 1112 1152
f 1110 1112 1111
f 1079 1110 1111
f 1111 1107 1079
f 1152 1112 1155
f 1151 1152 1155
f 1155 1183 1151
f 1143 1131 1145
f 1145 1131 1146
f 1145 1144 1143
f 1145 1146 1100
f 1100 1144 1145
f 1146 1131 1166
f 171 703 172
f 702 713 171
f 713 703 171
f 158 701 171
f 171 712 702
f 701 709 171
f 721 712 171
f 708 721 171
f 171 709 708
f 705 714 715
f 715 716 705
f 716 710 705
f 705 710 173
f 173 172 705
f 161 172 173
f 173 174 161
f 162 163 154
f 162 176 163
f 162 161 176
f 1001 325 994
f 1001 1002 325
f 1001 1015 1002
f 1018 1026 1024
f 1138 1139 1098
f 1098 1137 1138
f 1138 1137 1040
f 1094 1095 754
f 754 737 1094
f 1093 1136 1094
f 1136 1095 1094
f 1094 1071 1093
f 734 1071 1094
f 1094 737 734
f 736 756 1096
f 1096 1095 736
f 1096 756 755
f 755 1095 1096
f 779 778 789
f 789 780 779
f 760 778 779
f 779 780 760
f 1027 369 759
f 759 369 778
f 759 760 1171
f 759 778 760
f 836 825 835
f 835 840 836
f 424 439 440
f 426 425 440
f 452 471 454
f 434 433 452
f 454 453 452
f 452 453 434
f 142 115 141
f 145 121 142
f 142 141 145
f 117 91 116
f 116 115 120
f 115 144 120
f 120 117 116
f 96 117 120
f 120 144 121
f 121 96 120
f 91 117 118
f 118 117 96
f 672 652 671
f 652 670 671
f 671 850 672
f 844 865 866
f 866 670 669
f 865 845 866
f 866 845 850
f 866 671 670
f 850 671 866
f 668 669 652
f 652 666 668
f 668 467 469
f 668 666 460
f 460 467 668
f 432 431 451
f 431 430 451
f 470 471 449
f 449 430 445
f 449 468 470
f 445 468 449
f 446 429 445
f 445 430 446
f 138 429 446
f 446 430 138
f 445 429 448
f 448 467 445
f 429 447 448
f 447 467 448
f 460 468 472
f 472 467 460
f 468 467 472
f 653 674 675
f 675 676 653
f 675 674 672
f 672 676 675
f 808 800 799
f 808 809 800
f 831 821 830
f 822 821 831
f 824 822 831
f 831 833 824
f 831 830 843
f 843 833 831
f 194 174 173
f 194 193 211
f 173 193 194
f 211 212 194
f 214 204 195
f 214 238 239
f 239 238 248
f 239 222 214
f 248 222 239
f 235 216 237
f 197 177 175
f 175 195 197
f 174 195 175
f 175 161 174
f 176 161 175
f 223 205 217
f 217 221 223
f 166 184 185
f 182 165 181
f 166 165 182
f 182 184 166
f 181 199 182
f 182 199 205
f 182 205 206
f 500 155 501
f 155 1064 501
f 501 1065 500
f 501 1064 1066
f 1066 1065 501
f 1066 1064 1085
f 178 164 177
f 178 177 197
f 181 165 179
f 165 164 179
f 164 178 179
f 179 178 197
f 711 726 723
f 724 190 723
f 190 711 723
f 769 719 744
f 744 768 769
f 719 769 745
f 746 716 730
f 746 722 716
f 730 738 746
f 726 722 746
f 746 745 726
f 268 245 267
f 267 251 278
f 278 16 267
f 345 335 344
f 344 335 287
f 344 287 17
f 17 345 344
f 308 309 289
f 250 48 222
f 250 49 48
f 248 238 259
f 259 261 265
f 265 276 259
f 240 261 259
f 259 241 240
f 238 241 259
f 62 222 249
f 249 276 62
f 249 222 248
f 248 259 249
f 249 259 276
f 150 359 134
f 134 358 150
f 150 358 359
f 89 88 112
f 86 49 63
f 86 112 88
f 86 63 85
f 68 89 69
f 89 94 69
f 69 94 90
f 90 91 69
f 69 52 68
f 277 83 63
f 63 49 277
f 277 276 298
f 104 83 277
f 105 104 277
f 277 298 105
f 961 974 962
f 961 962 935
f 962 974 970
f 970 945 962
f 19 345 17
f 17 32 19
f 21 37 22
f 22 37 39
f 50 47 36
f 36 35 50
f 26 30 27
f 27 30 14
f 27 12 26
f 14 12 27
f 14 30 892
f 892 30 895
f 25 24 11
f 14 15 7
f 7 12 14
f 348 1 350
f 348 340 3
f 11 12 4
f 1 348 4
f 4 3 10
f 4 348 3
f 972 58 959
f 972 59 58
f 959 950 972
f 950 59 972
f 958 950 959
f 958 957 950
f 958 959 935
f 935 957 958
f 919 908 907
f 921 908 919
f 935 921 919
f 919 933 935
f 26 43 44
f 44 45 26
f 43 58 44
f 58 59 44
f 59 45 44
f 46 499 26
f 26 45 46
f 46 45 61
f 61 45 60
f 60 45 59
f 60 950 61
f 60 59 950
f 894 30 26
f 895 30 894
f 26 499 498
f 498 909 26
f 907 498 918
f 918 919 907
f 933 919 918
f 956 932 953
f 956 953 935
f 935 933 956
f 499 46 929
f 937 921 936
f 936 532 937
f 936 921 531
f 531 532 936
f 561 532 531
f 940 532 561
f 531 560 561
f 561 560 940
f 963 940 937
f 937 532 963
f 963 532 940
f 523 530 921
f 885 942 890
f 885 923 942
f 885 890 891
f 891 368 885
f 885 368 373
f 527 520 519
f 528 522 527
f 527 553 528
f 519 526 527
f 527 526 553
f 938 520 527
f 546 126 125
f 524 126 546
f 553 526 552
f 528 553 552
f 519 518 101
f 101 103 524
f 518 103 101
f 528 555 556
f 122 123 97
f 123 147 539
f 589 556 539
f 588 147 587
f 589 539 588
f 588 539 147
f 542 123 541
f 542 543 123
f 123 543 544
f 125 123 544
f 528 550 554
f 554 555 528
f 554 544 543
f 102 82 99
f 102 103 82
f 524 103 102
f 102 126 524
f 125 126 102
f 102 123 125
f 99 98 102
f 98 123 102
f 441 442 426
f 459 442 441
f 426 440 441
f 456 442 457
f 457 437 436
f 436 456 457
f 563 558 564
f 563 427 558
f 443 427 563
f 563 564 426
f 426 443 563
f 444 443 465
f 444 427 443
f 465 558 444
f 558 427 444
f 599 558 465
f 465 601 599
f 599 572 558
f 599 601 572
f 463 572 600
f 600 601 463
f 572 601 600
f 97 121 124
f 570 558 598
f 566 535 570
f 481 578 482
f 481 480 578
f 482 466 481
f 481 466 480
f 975 966 466
f 975 466 366
f 366 966 975
f 884 966 366
f 366 889 884
f 889 966 884
f 405 351 415
f 351 416 415
f 349 346 350
f 350 347 349
f 349 347 346
f 340 346 338
f 338 333 340
f 346 347 338
f 338 347 342
f 334 333 338
f 339 333 336
f 336 345 339
f 336 335 345
f 335 336 331
f 331 336 333
f 331 333 334
f 375 1025 1014
f 1014 380 375
f 1014 1025 1021
f 1014 1021 1009
f 996 992 986
f 1005 1001 994
f 1015 1001 1005
f 1024 1020 1011
f 997 1011 998
f 384 382 392
f 382 391 392
f 385 384 392
f 392 391 385
f 390 399 385
f 385 391 390
f 390 391 382
f 390 404 399
f 410 399 403
f 399 404 403
f 988 403 404
f 309 337 310
f 310 337 318
f 291 270 290
f 289 309 290
f 290 270 289
f 290 310 311
f 309 310 290
f 630 633 632
f 632 633 625
f 619 614 613
f 625 633 634
f 643 633 642
f 643 634 633
f 476 576 603
f 603 575 476
f 576 575 603
f 574 477 476
f 476 575 574
f 573 478 574
f 478 477 574
f 537 573 574
f 574 575 537
f 482 491 483
f 491 492 483
f 483 466 482
f 1084 1118 1086
f 1084 1085 1064
f 1068 1085 1084
f 1084 1086 1068
f 1082 1064 155
f 654 659 660
f 660 655 654
f 647 659 654
f 654 655 647
f 852 855 838
f 837 852 838
f 838 193 837
f 826 193 838
f 826 838 839
f 839 838 855
f 854 663 856
f 856 855 854
f 661 839 856
f 856 839 855
f 292 270 291
f 983 321 986
f 324 321 983
f 324 313 323
f 982 324 993
f 324 992 993
f 994 982 993
f 993 992 994
f 315 314 326
f 326 316 315
f 514 316 326
f 325 514 326
f 326 314 325
f 218 222 242
f 218 204 222
f 218 199 204
f 210 230 231
f 206 227 228
f 228 254 255
f 255 1106 228
f 1091 1127 1128
f 273 295 296
f 294 295 273
f 270 292 271
f 252 223 247
f 247 223 221
f 268 270 247
f 270 271 247
f 247 273 274
f 246 247 219
f 219 247 221
f 219 242 244
f 199 218 219
f 244 245 219
f 219 245 246
f 1079 1107 1108
f 1108 1106 1079
f 1108 1111 1152
f 1107 1111 1108
f 1108 1152 1151
f 1185 1183 1154
f 1154 1178 1185
f 1185 1178 1183
f 1076 256 1059
f 1077 256 1076
f 296 279 297
f 297 279 274
f 297 273 296
f 274 273 297
f 224 223 252
f 206 205 224
f 205 223 224
f 253 279 254
f 280 279 281
f 279 282 281
f 281 256 280
f 281 282 256
f 512 279 513
f 512 282 279
f 512 513 1057
f 1055 1048 1061
f 1061 1056 1055
f 1055 1056 1048
f 1075 1101 1102
f 1075 1076 1059
f 1081 1113 1147
f 1147 1101 1081
f 1113 1112 1147
f 1102 1101 1147
f 1101 1075 1074
f 1148 1109 1104
f 1077 1076 1104
f 1104 1078 1077
f 1079 1078 1105
f 1105 1109 1079
f 1078 1104 1105
f 1105 1104 1109
f 1154 1112 1153
f 1153 1112 1146
f 1146 1166 1153
f 714 705 704
f 172 703 704
f 704 705 172
f 159 171 172
f 172 161 159
f 159 161 153
f 158 171 159
f 159 153 152
f 152 699 159
f 159 699 158
f 153 161 160
f 161 162 160
f 154 153 160
f 160 162 154
f 515 1047 514
f 515 514 325
f 1002 1015 1003
f 325 1002 1003
f 1003 515 325
f 1047 515 1003
f 1046 316 1043
f 1047 1049 1045
f 1043 316 1045
f 1045 316 1047
f 1045 1046 1043
f 1049 1046 1045
f 1176 1172 1139
f 1139 1138 1176
f 1175 1138 1040
f 1040 1035 1175
f 1175 1176 1138
f 1175 1035 1027
f 1027 1176 1175
f 840 835 827
f 827 825 814
f 827 835 825
f 814 826 827
f 826 839 827
f 647 656 657
f 657 656 660
f 647 840 859
f 859 656 647
f 660 656 859
f 471 452 450
f 450 452 433
f 450 433 432
f 432 451 450
f 450 451 430
f 143 144 115
f 115 142 143
f 121 144 143
f 143 142 121
f 71 53 70
f 70 96 71
f 53 74 70
f 669 668 868
f 868 668 469
f 196 195 174
f 174 194 196
f 236 212 235
f 235 237 236
f 236 237 212
f 180 164 176
f 176 175 180
f 1126 1127 1091
f 207 182 206
f 184 182 207
f 206 185 207
f 207 185 184
f 748 769 768
f 748 768 766
f 766 751 748
f 55 54 77
f 54 76 77
f 77 78 55
f 77 76 78
f 99 78 75
f 78 76 75
f 75 76 54
f 75 54 71
f 75 98 99
f 75 71 97
f 97 98 75
f 242 251 266
f 251 267 266
f 266 267 245
f 266 245 244
f 244 242 266
f 85 89 110
f 89 112 110
f 110 86 85
f 112 86 110
f 49 86 64
f 65 49 64
f 64 88 68
f 68 66 64
f 64 66 65
f 73 69 74
f 72 69 73
f 73 74 53
f 53 72 73
f 52 69 67
f 67 69 72
f 67 53 52
f 67 72 53
f 935 962 948
f 962 945 948
f 948 947 935
f 926 927 516
f 926 948 945
f 947 948 926
f 926 946 947
f 516 946 926
f 959 973 960
f 935 959 960
f 960 961 935
f 974 961 960
f 960 973 974
f 969 949 56
f 974 973 971
f 971 970 974
f 971 973 959
f 971 969 970
f 949 969 971
f 959 58 971
f 971 58 949
f 20 32 33
f 20 19 32
f 20 35 21
f 38 39 55
f 38 22 39
f 23 22 38
f 55 40 38
f 40 23 38
f 880 882 398
f 880 878 882
f 8 7 15
f 345 19 18
f 23 24 9
f 24 25 9
f 21 22 9
f 9 22 23
f 9 20 21
f 10 3 9
f 9 3 339
f 19 20 9
f 9 18 19
f 9 4 10
f 339 345 9
f 345 18 9
f 9 25 11
f 11 4 9
f 350 1 5
f 5 7 350
f 1 4 5
f 12 7 5
f 5 4 12
f 896 901 902
f 896 894 901
f 907 906 917
f 917 915 907
f 907 915 920
f 920 498 907
f 955 954 932
f 955 929 954
f 932 931 955
f 955 931 929
f 953 954 928
f 952 953 928
f 928 950 952
f 61 950 928
f 928 46 61
f 928 929 46
f 939 921 938
f 939 523 921
f 530 523 939
f 939 938 522
f 522 530 939
f 887 883 908
f 386 883 887
f 887 885 373
f 908 923 924
f 924 885 908
f 923 885 924
f 522 938 521
f 521 527 522
f 938 527 521
f 547 526 524
f 524 546 547
f 547 546 526
f 551 550 528
f 528 552 551
f 551 526 550
f 551 552 526
f 524 519 525
f 525 101 524
f 519 101 525
f 590 556 555
f 590 542 541
f 543 542 590
f 555 554 590
f 590 554 543
f 146 147 123
f 123 122 146
f 584 122 97
f 97 583 584
f 541 123 540
f 123 539 540
f 540 539 556
f 540 590 541
f 556 590 540
f 526 546 548
f 545 546 125
f 125 544 545
f 545 548 546
f 544 548 545
f 549 554 550
f 544 554 549
f 549 548 544
f 550 526 549
f 526 548 549
f 458 442 459
f 458 457 442
f 458 459 439
f 528 556 557
f 557 558 528
f 557 556 589
f 609 588 587
f 579 124 568
f 579 568 580
f 579 580 97
f 97 124 579
f 582 583 97
f 583 598 597
f 558 596 597
f 597 598 558
f 567 568 535
f 535 566 567
f 580 568 567
f 567 566 580
f 580 566 602
f 570 598 602
f 602 566 570
f 334 328 327
f 327 328 318
f 334 411 507
f 507 328 334
f 397 398 385
f 397 406 398
f 342 334 341
f 341 338 342
f 334 338 341
f 335 331 317
f 317 308 335
f 309 308 317
f 317 331 334
f 999 387 381
f 381 380 999
f 380 1014 999
f 999 1014 1009
f 986 985 995
f 995 996 986
f 994 992 1004
f 992 996 1004
f 1004 1005 994
f 1012 1011 1020
f 998 1011 1012
f 1010 997 1009
f 1011 997 1010
f 1009 1022 1010
f 1010 1022 1023
f 1010 1023 1024
f 1024 1011 1010
f 389 390 382
f 404 390 389
f 389 988 404
f 978 507 411
f 980 976 402
f 402 988 980
f 410 403 402
f 403 988 402
f 631 624 630
f 630 632 631
f 625 624 631
f 631 632 625
f 612 611 618
f 611 617 618
f 618 624 625
f 618 617 624
f 615 614 620
f 614 619 620
f 484 678 364
f 363 492 484
f 363 483 492
f 484 364 363
f 466 483 363
f 363 678 362
f 363 364 678
f 1117 1082 155
f 1118 1082 1117
f 1118 1084 1083
f 1083 1082 1118
f 1083 1084 1064
f 1064 1082 1083
f 661 856 662
f 662 856 663
f 648 661 662
f 662 663 648
f 319 320 311
f 319 329 320
f 311 310 319
f 319 310 318
f 318 329 319
f 510 329 318
f 320 329 511
f 981 510 976
f 981 976 980
f 980 990 981
f 991 992 324
f 324 983 991
f 322 321 324
f 324 323 322
f 311 321 322
f 322 323 311
f 312 323 313
f 312 292 291
f 313 292 312
f 311 323 312
f 312 290 311
f 291 290 312
f 209 228 208
f 209 185 206
f 208 185 209
f 208 228 229
f 229 210 208
f 230 210 229
f 231 230 229
f 229 228 1150
f 229 1150 231
f 1150 228 1149
f 1149 228 1106
f 1149 1178 1150
f 1151 1178 1149
f 1149 1108 1151
f 1106 1108 1149
f 1129 1130 1091
f 1091 1128 1129
f 1159 1128 1127
f 1127 1126 1159
f 294 273 293
f 293 273 292
f 293 292 313
f 293 314 294
f 313 314 293
f 269 246 268
f 268 247 269
f 269 247 246
f 273 247 272
f 272 247 271
f 292 273 272
f 272 271 292
f 220 221 199
f 199 219 220
f 220 219 221
f 243 218 242
f 242 219 243
f 243 219 218
f 226 224 252
f 252 253 226
f 226 227 206
f 206 224 226
f 226 228 227
f 254 228 226
f 226 253 254
f 252 247 275
f 275 253 252
f 275 247 274
f 274 279 275
f 279 253 275
f 1102 1147 1103
f 1103 1075 1102
f 1076 1075 1103
f 1148 1104 1103
f 1103 1104 1076
f 1103 1112 1148
f 1103 1147 1112
f 1059 282 1058
f 1058 1075 1059
f 1058 1074 1075
f 1058 512 1057
f 282 512 1058
f 1016 1003 1015
f 1015 1005 1016
f 1016 1005 1020
f 1050 1049 1052
f 1052 1062 1050
f 1063 1062 1052
f 1051 1049 1047
f 1047 1003 1051
f 1051 1052 1049
f 1003 1052 1051
f 300 316 1044
f 316 1046 1044
f 1044 1049 1050
f 1044 1046 1049
f 1050 1048 1044
f 1044 279 300
f 1048 279 1044
f 1136 1172 1173
f 1172 1176 1173
f 1173 759 1171
f 1027 759 1173
f 1173 1176 1027
f 658 659 647
f 647 657 658
f 660 659 658
f 658 657 660
f 660 859 841
f 841 827 839
f 841 661 660
f 841 839 661
f 95 118 96
f 96 70 95
f 91 118 95
f 93 70 74
f 74 69 93
f 93 95 70
f 867 868 844
f 669 868 867
f 844 866 867
f 867 866 669
f 864 429 428
f 428 136 864
f 136 844 864
f 197 195 198
f 198 179 197
f 202 201 195
f 181 201 202
f 216 196 213
f 212 237 213
f 213 237 216
f 213 194 212
f 213 196 194
f 215 216 240
f 215 196 216
f 240 241 215
f 215 241 238
f 215 238 214
f 214 195 215
f 195 196 215
f 1090 1089 1123
f 1090 1123 503
f 503 502 168
f 769 748 747
f 747 748 724
f 724 723 747
f 747 723 726
f 335 308 332
f 332 308 289
f 87 86 88
f 88 64 87
f 87 64 86
f 925 945 968
f 945 970 968
f 970 969 968
f 34 20 33
f 34 33 47
f 47 50 34
f 34 50 35
f 35 20 34
f 873 896 902
f 398 406 408
f 408 409 398
f 408 406 416
f 416 409 408
f 414 416 351
f 414 351 350
f 417 409 416
f 416 414 417
f 881 880 398
f 398 409 881
f 350 7 2
f 7 8 2
f 2 6 350
f 2 8 6
f 895 894 897
f 894 896 897
f 896 873 897
f 897 893 895
f 897 873 893
f 906 901 900
f 901 894 900
f 915 917 916
f 916 917 906
f 26 909 910
f 910 903 26
f 909 498 912
f 498 920 912
f 932 918 934
f 934 931 932
f 934 918 498
f 498 931 934
f 499 929 930
f 929 931 930
f 930 498 499
f 930 931 498
f 954 929 951
f 951 928 954
f 929 928 951
f 908 885 886
f 886 887 908
f 885 887 886
f 888 378 386
f 386 887 888
f 888 379 378
f 373 379 888
f 888 887 373
f 438 439 422
f 438 458 439
f 591 609 593
f 591 593 558
f 558 557 591
f 608 609 587
f 605 598 583
f 583 582 605
f 605 602 598
f 97 580 581
f 581 582 97
f 509 510 318
f 976 510 509
f 318 328 509
f 328 507 509
f 396 397 385
f 407 415 416
f 416 406 407
f 406 397 407
f 405 415 407
f 407 397 405
f 1009 997 1008
f 1008 999 1009
f 989 990 980
f 989 999 990
f 980 988 989
f 387 999 989
f 998 996 987
f 996 995 987
f 987 997 998
f 987 995 984
f 984 511 987
f 987 990 997
f 987 981 990
f 987 511 329
f 998 1012 1013
f 1013 1012 1020
f 988 389 388
f 388 989 988
f 388 389 382
f 382 387 388
f 387 989 388
f 976 978 979
f 979 402 976
f 410 402 979
f 979 411 410
f 979 978 411
f 625 634 635
f 619 626 621
f 621 620 619
f 615 620 621
f 361 363 362
f 362 697 361
f 466 363 361
f 361 360 778
f 778 466 361
f 168 502 157
f 977 511 984
f 320 511 977
f 977 321 320
f 985 321 977
f 183 185 208
f 183 167 166
f 166 185 183
f 187 1156 168
f 206 228 225
f 225 209 206
f 228 209 225
f 1186 1178 1154
f 1154 1153 1184
f 1184 1186 1154
f 505 1186 1184
f 1180 1178 1181
f 1181 1150 1180
f 1179 1150 1181
f 1156 187 1187
f 1187 187 188
f 1187 1160 1156
f 1017 1016 1020
f 1003 1016 1017
f 1018 1003 1017
f 1026 1018 1017
f 1017 1020 1024
f 1024 1026 1017
f 1063 1052 1054
f 1054 1052 1003
f 1054 1003 1018
f 1054 1024 1063
f 1054 1018 1024
f 1171 1136 1174
f 1174 1173 1171
f 1136 1173 1174
f 92 69 91
f 92 93 69
f 91 95 92
f 95 93 92
f 429 864 863
f 863 447 429
f 844 868 863
f 863 864 844
f 469 447 863
f 863 868 469
f 195 201 200
f 200 198 195
f 200 201 181
f 181 179 200
f 179 198 200
f 203 204 181
f 181 202 203
f 203 195 204
f 203 202 195
f 1158 1123 1089
f 1156 1160 506
f 1128 1159 506
f 506 1160 1128
f 168 1156 506
f 1124 1126 1091
f 1091 1090 1124
f 1090 503 1124
f 1126 1124 504
f 504 1124 503
f 504 1159 1126
f 504 506 1159
f 504 503 168
f 168 506 504
f 267 332 288
f 288 332 289
f 56 925 944
f 925 968 944
f 944 969 56
f 944 968 969
f 902 878 875
f 875 873 902
f 880 881 875
f 876 873 875
f 875 881 876
f 893 873 29
f 895 893 29
f 29 892 895
f 14 892 29
f 898 894 26
f 26 903 898
f 904 898 903
f 592 591 557
f 589 588 592
f 592 557 589
f 585 146 122
f 122 584 585
f 558 593 594
f 593 609 594
f 609 608 594
f 580 602 604
f 604 581 580
f 602 605 604
f 604 605 582
f 582 581 604
f 405 397 395
f 397 396 395
f 395 401 405
f 385 401 395
f 395 396 385
f 999 1008 1007
f 1007 1008 997
f 330 987 329
f 981 987 330
f 329 510 330
f 510 981 330
f 1005 1004 1019
f 1004 1013 1019
f 1020 1005 1019
f 1019 1013 1020
f 1006 996 998
f 998 1013 1006
f 1006 1004 996
f 1006 1013 1004
f 644 645 637
f 627 621 626
f 621 627 628
f 628 629 777
f 637 629 628
f 628 627 637
f 188 187 186
f 210 505 186
f 186 187 168
f 208 210 186
f 186 183 208
f 168 167 186
f 167 183 186
f 1165 1153 1166
f 1165 1184 1153
f 1165 1166 1131
f 505 1184 1165
f 1179 1181 508
f 508 1181 505
f 231 1179 508
f 508 210 231
f 508 505 210
f 1178 1186 1189
f 1189 1181 1178
f 1189 1186 505
f 505 1181 1189
f 1161 1129 1128
f 1128 1160 1161
f 1160 1187 1161
f 1123 1158 1125
f 502 503 1125
f 1125 503 1123
f 878 880 879
f 879 875 878
f 880 875 879
f 877 873 876
f 877 874 873
f 876 881 877
f 877 881 409
f 409 417 877
f 417 874 877
f 28 29 873
f 14 29 28
f 13 417 414
f 13 28 873
f 13 414 350
f 13 15 14
f 14 28 13
f 350 6 13
f 13 8 15
f 6 8 13
f 915 916 905
f 906 900 905
f 905 916 906
f 915 904 913
f 913 904 912
f 912 904 911
f 911 910 909
f 909 912 911
f 903 910 911
f 911 904 903
f 610 592 588
f 591 592 610
f 588 609 610
f 609 591 610
f 146 585 586
f 586 585 608
f 586 608 587
f 587 147 586
f 147 146 586
f 606 585 584
f 606 584 583
f 606 597 596
f 583 597 606
f 595 596 558
f 558 594 595
f 595 606 596
f 595 594 608
f 997 990 1000
f 1000 1007 997
f 990 999 1000
f 999 1007 1000
f 636 644 637
f 637 627 636
f 636 627 626
f 615 621 622
f 621 628 622
f 622 628 777
f 622 773 615
f 777 773 622
f 157 1115 156
f 156 155 168
f 168 157 156
f 156 1117 155
f 1118 1117 1116
f 1117 156 1116
f 1116 156 1115
f 1088 1087 1120
f 1120 1116 1115
f 1088 1120 1121
f 188 186 189
f 189 186 505
f 189 1187 188
f 1164 1165 1131
f 1164 1131 1130
f 1130 1163 1164
f 1164 1163 505
f 505 1165 1164
f 872 874 417
f 417 13 872
f 873 874 872
f 872 13 873
f 914 904 915
f 915 905 914
f 898 904 899
f 894 898 899
f 904 914 899
f 899 914 905
f 899 900 894
f 899 905 900
f 585 606 607
f 606 595 607
f 608 585 607
f 607 595 608
f 1119 1120 1087
f 1116 1120 1119
f 1087 1118 1119
f 1118 1116 1119
f 1088 1121 1122
f 1122 1089 1088
f 1122 1158 1089
f 1114 1115 157
f 1114 1122 1121
f 1114 170 502
f 1188 1161 1187
f 505 1163 1188
f 1188 1163 1130
f 1157 1125 1158
f 1158 1122 1157
f 1122 1114 1157
f 502 1125 1157
f 1157 1114 502
f 169 1114 157
f 170 1114 169
f 169 157 502
f 502 170 169
f 1187 189 1190
f 1190 1188 1187
f 1190 189 505
f 505 1188 1190
f 1129 1161 1162
f 1161 1188 1162
f 1130 1129 1162
f 1162 1188 1130
f 842 846 843
f 843 828 842
f 799 794 793
f 793 798 799
f 793 794 352
f 352 794 354
f 646 642 653
f 646 653 647
f 828 843 830
f 830 829 828
f 707 700 706
f 707 706 718
f 721 727 712
f 712 727 713
f 1080 1113 1081
f 1081 1061 1080
f 820 809 804
f 820 804 816
f 696 695 698
f 695 697 698
f 613 688 686
f 686 612 613
f 1027 1034 369
f 369 1034 366
f 145 418 425
f 425 426 145
f 647 653 869
f 869 871 647
f 870 849 834
f 834 848 870
f 1065 1053 152
f 152 500 1065
f 728 740 739
f 728 739 729
f 713 727 728
f 728 714 713
f 1155 1112 1154
f 1154 1183 1155
f 440 425 418
f 440 418 424
f 437 421 420
f 437 420 436
f 808 799 798
f 798 805 808
f 804 809 808
f 808 805 804
f 1067 1066 1085
f 1085 1068 1067
f 719 745 746
f 746 738 719
f 17 287 267
f 267 16 17
f 62 49 250
f 250 222 62
f 277 49 62
f 62 276 277
f 348 346 340
f 350 346 348
f 956 918 932
f 933 918 956
f 441 440 439
f 439 459 441
f 569 568 124
f 121 569 124
f 642 646 643
f 646 645 643
f 1081 1101 1074
f 1074 1073 1081
f 713 714 704
f 704 703 713
f 430 449 450
f 450 449 471
f 180 175 177
f 177 164 180
f 748 751 725
f 748 725 724
f 926 945 925
f 925 927 926
f 318 337 327
f 327 337 334
f 334 337 317
f 317 337 309
f 618 613 612
f 618 619 613
f 619 618 626
f 626 618 625
f 991 983 986
f 986 992 991
f 1073 1074 1058
f 1057 1073 1058
f 841 859 840
f 840 827 841
f 747 745 769
f 726 745 747
f 332 267 287
f 287 335 332
f 421 437 438
f 422 421 438
f 437 457 438
f 457 458 438
f 507 978 509
f 509 978 976
f 361 697 695
f 695 360 361
f 984 995 977
f 977 995 985
f 268 267 288
f 288 289 268
f 644 643 645
f 634 643 644
f 913 912 920
f 913 920 915
f 636 626 625
f 625 635 636
f 634 644 636
f 636 635 634
f 1114 1121 1120
f 1114 1120 1115

