# https://github.com/mikedh/trimesh
v 0.00800280 -0.00046437 -0.06390643
v 0.00048764 -0.00001285 0.06815893
v 0.00059595 0.00737320 0.00200948
v -0.00043609 -0.00802764 0.03450033
v -0.00281426 0.00687391 -0.03116829
v -0.00307730 0.00653335 0.02219090
v -0.00778569 -0.00173878 -0.05537501
v 0.00346771 0.00501237 0.04505127
v 0.00780938 0.00043404 -0.01176994
v -0.00558854 -0.00069090 -0.07117394
v 0.00632245 -0.00454958 0.01736879
v -0.00437857 0.00594622 -0.01433899
v -0.00603107 0.00388281 0.03654733
v -0.00166309 0.00728382 -0.06280737
v 0.00729259 0.00382426 -0.03574311
v 0.00719666 0.00234181 0.03450033
v -0.00064652 -0.00814475 -0.06449717
v -0.00341152 -0.00042893 0.05883069
v 0.00327430 0.00485211 -0.07120142
v -0.00211644 0.00696945 0.01143389
v -0.00503926 0.00534061 -0.00499701
v 0.00601763 -0.00438932 0.04068252
v 0.00406496 -0.00425679 -0.07132506
v -0.00591038 -0.00434463 0.04020169
v 0.00021841 0.00746412 -0.02126304
v -0.00716987 -0.00323510 -0.06312335
v 0.00737924 -0.00228738 0.02462256
v -0.00604344 0.00133707 0.04470782
v 0.00007451 0.00717287 0.03820965
v -0.00691457 0.00216151 0.02601012
v -0.00652001 0.00355150 -0.06541763
v 0.00425527 0.00615888 -0.06481315
v -0.00299220 0.00503703 -0.07050077
v 0.00518055 -0.00633869 -0.06489559
v -0.00471278 0.00560720 0.00427628
v 0.00081102 0.00722680 0.02661460
v -0.00136910 -0.00645427 -0.07055572
v 0.00138816 0.00286575 0.05946265
v 0.00741792 0.00126926 0.04017421
v -0.00118497 -0.00783501 0.04021543
v -0.00055678 0.00725300 0.01686048
v 0.00306851 0.00743484 -0.03476770
v 0.00351413 0.00636692 0.03422557
v -0.00340687 0.00658112 -0.02499983
v -0.00021328 -0.00164786 -0.07217684
v -0.00526826 0.00500159 0.01789084
v -0.00488453 -0.00580088 0.03550322
v -0.00003998 0.00741635 -0.01236069
v -0.00424860 0.00560720 0.04086112
v -0.00312682 0.00677991 -0.05817760
v -0.00635909 0.00334192 0.03173895
v -0.00757835 0.00091329 -0.06091150
v 0.00501344 0.00526510 0.03956973
v -0.00471742 -0.00628784 -0.06560997
v 0.00060987 -0.00274506 0.06446335
v -0.00618580 -0.00586252 -0.05646032
v 0.00374622 -0.00729720 -0.06069169
v 0.00591706 -0.00011302 -0.07120142
v -0.00019007 0.00737012 -0.00244170
v -0.00716677 -0.00000977 0.04044897
v 0.00764073 -0.00082651 0.02041867
v -0.00099311 0.00724221 0.00608972
v -0.00576648 0.00483824 -0.06107636
v -0.00186887 0.00712664 -0.00712643
v -0.00059546 0.00739631 -0.01652336
v -0.00387570 0.00630836 -0.02090585
v 0.00079555 0.00747182 -0.05883703
v -0.00535336 0.00500159 -0.00101293
v 0.00678044 -0.00456191 -0.06180449
v -0.00356934 0.00623747 -0.06603585
v -0.00399794 0.00619433 -0.01016257
v -0.00550344 0.00475194 0.01408536
v 0.00738079 -0.00171413 0.03783872
v -0.00728282 0.00008423 0.03668471
v 0.00558439 0.00547776 -0.03278940
v 0.00099051 0.00716978 -0.06599464
v -0.00133661 0.00083470 0.06517775
v 0.00353888 -0.00685493 0.04017421
v 0.00666749 0.00417098 -0.06640679
v 0.00210146 0.00165452 -0.07203945
v -0.00757835 0.00028918 -0.06525278
v -0.00487525 -0.00389157 -0.07037713
v -0.00394378 0.00208600 -0.07184712
v -0.00194469 -0.00334760 0.05924284
v -0.00515685 0.00517418 0.00750476
v 0.00113286 0.00729461 0.01106296
v -0.00330011 -0.00739428 -0.06283485
v 0.00774440 0.00203977 -0.06202430
v 0.00593872 0.00289195 -0.07028096
v 0.00240627 0.00706654 -0.06247766
v 0.00654990 0.00351143 0.03750900
v 0.00157383 0.00675217 0.04087486
v -0.00722248 0.00076381 0.03308530
v 0.00319693 0.00649790 0.03748152
v 0.00684079 -0.00411656 -0.06603585
v -0.00656333 0.00285188 0.03984450
v 0.00263991 -0.00768862 -0.06563745
v 0.00035767 0.00506631 -0.07157235
v 0.00194673 -0.00621541 -0.07084423
v 0.00036540 0.00729152 0.01958064
v -0.00206538 0.00702955 0.00288872
v -0.00461840 0.00592927 -0.06345307
v 0.00243412 -0.00075254 0.06513653
v -0.00291793 -0.00117632 -0.07217684
v -0.00696408 -0.00237522 0.03756395
v 0.00752004 0.00087322 0.03756395
v 0.00067022 -0.00822643 0.03842946
v -0.00262085 0.00693709 -0.01872147
v -0.00241197 0.00673676 0.03871796
v -0.00020400 -0.00212095 0.06685381
v -0.00316240 -0.00747134 0.03642368
v -0.00167701 0.00345750 -0.07203945
v -0.00666391 -0.00386846 -0.06555501
v -0.00138148 0.00730231 -0.02361228
v 0.00774749 0.00066057 -0.06617323
v -0.00114320 0.00271627 0.05964125
v 0.00728795 -0.00201617 0.04033907
v -0.00767273 -0.00089739 -0.06306840
v -0.00441880 -0.00621233 0.04017421
v -0.00249243 0.00691244 -0.00286759
v 0.00066403 -0.00819407 -0.06251887
v -0.00129793 0.00703880 -0.06614576
v 0.00007606 0.00751651 -0.06099393
v 0.00451522 0.00160829 -0.07157235
v 0.00272346 -0.00777800 -0.06328821
v -0.00261621 0.00676604 0.01757486
v -0.00008176 0.00733621 0.00810924
v -0.00561175 0.00205826 -0.07040460
f 4 17 107
f 2 103 38
f 38 103 53
f 106 88 15
f 15 88 79
f 32 79 19
f 123 14 114
f 31 33 128
f 10 81 128
f 128 81 31
f 70 33 31
f 122 70 14
f 33 70 122
f 115 88 1
f 79 88 115
f 17 54 37
f 60 18 28
f 110 103 2
f 24 18 60
f 24 47 119
f 117 103 22
f 22 11 117
f 108 114 14
f 113 81 10
f 60 28 96
f 96 74 60
f 93 74 96
f 96 49 13
f 96 28 18
f 1 88 9
f 9 88 106
f 91 15 53
f 62 109 41
f 98 112 33
f 33 122 98
f 10 128 83
f 83 128 33
f 33 112 83
f 123 67 90
f 76 32 19
f 19 98 76
f 76 98 122
f 76 90 32
f 123 90 76
f 76 14 123
f 76 122 14
f 107 17 121
f 121 125 107
f 107 125 57
f 57 125 34
f 82 37 54
f 82 113 10
f 54 113 82
f 34 125 97
f 17 37 97
f 97 121 17
f 125 121 97
f 111 4 107
f 107 40 111
f 17 4 111
f 111 40 119
f 13 49 46
f 109 49 116
f 2 38 116
f 78 11 22
f 107 57 78
f 34 11 78
f 78 57 34
f 84 110 18
f 18 24 84
f 84 24 119
f 119 40 84
f 40 110 84
f 69 11 34
f 65 62 41
f 114 62 65
f 123 114 65
f 65 25 123
f 92 116 38
f 53 15 75
f 75 15 79
f 79 32 75
f 100 36 86
f 105 24 60
f 60 74 105
f 105 74 7
f 51 96 13
f 31 96 51
f 13 63 51
f 51 63 31
f 30 96 31
f 93 96 30
f 61 9 106
f 1 9 61
f 15 91 16
f 19 79 89
f 79 115 89
f 115 58 89
f 87 54 17
f 17 111 87
f 72 63 13
f 13 46 72
f 72 46 63
f 35 71 12
f 35 46 49
f 35 85 46
f 6 49 109
f 6 35 49
f 71 35 6
f 14 70 102
f 12 71 102
f 102 35 12
f 102 70 31
f 31 63 102
f 49 96 77
f 77 116 49
f 77 96 18
f 2 116 77
f 77 110 2
f 18 110 77
f 103 110 55
f 22 103 55
f 55 78 22
f 107 78 55
f 55 40 107
f 55 110 40
f 1 69 95
f 95 69 34
f 95 115 1
f 95 58 115
f 27 117 11
f 11 69 27
f 27 69 1
f 1 61 27
f 109 116 29
f 116 92 29
f 41 109 29
f 36 100 29
f 53 43 94
f 94 92 53
f 36 29 94
f 94 29 92
f 8 38 53
f 53 92 8
f 8 92 38
f 42 94 43
f 42 43 53
f 53 75 42
f 32 90 42
f 42 75 32
f 42 90 67
f 86 36 42
f 36 94 42
f 42 100 86
f 123 25 42
f 42 67 123
f 127 65 41
f 41 29 127
f 127 29 100
f 109 101 120
f 120 101 108
f 114 108 64
f 108 101 64
f 64 62 114
f 64 101 62
f 109 62 20
f 20 101 109
f 62 101 20
f 81 113 118
f 113 26 118
f 118 26 7
f 24 105 56
f 47 24 56
f 7 26 56
f 56 105 7
f 56 113 54
f 56 26 113
f 54 87 56
f 56 87 111
f 119 47 56
f 56 111 119
f 93 30 52
f 31 81 52
f 52 30 31
f 52 118 7
f 81 118 52
f 7 74 52
f 52 74 93
f 106 117 73
f 73 61 106
f 117 27 73
f 73 27 61
f 106 15 39
f 15 16 39
f 39 16 91
f 39 117 106
f 103 117 39
f 53 103 39
f 39 91 53
f 104 83 112
f 112 45 104
f 10 83 104
f 104 82 10
f 37 82 104
f 80 45 112
f 80 98 19
f 112 98 80
f 58 95 23
f 45 80 23
f 23 95 34
f 63 46 68
f 68 85 63
f 46 85 68
f 63 85 21
f 85 35 21
f 21 102 63
f 35 102 21
f 44 6 108
f 71 6 44
f 3 42 25
f 100 42 3
f 25 127 3
f 3 127 100
f 25 65 48
f 48 127 25
f 108 6 126
f 126 120 108
f 126 6 109
f 109 120 126
f 124 80 19
f 19 89 124
f 124 89 58
f 58 23 124
f 124 23 80
f 45 23 99
f 37 104 99
f 99 104 45
f 99 97 37
f 34 97 99
f 99 23 34
f 66 102 71
f 71 44 66
f 5 44 108
f 65 127 59
f 59 48 65
f 127 48 59
f 44 5 50
f 102 66 50
f 50 66 44
f 14 102 50
f 50 108 14
f 50 5 108

