# https://github.com/mikedh/trimesh
v -0.02312518 0.02360574 -0.01825585
v 0.07598292 -0.02172215 -0.03755814
v 0.04709227 0.00751897 0.04823722
v -0.05321802 -0.02155934 0.04556076
v -0.07469255 -0.02310719 -0.03720342
v 0.03303844 0.02392203 -0.00967612
v -0.07027072 0.01317294 0.00736060
v 0.07348287 -0.01285655 0.01201329
v -0.04276222 0.01350077 0.03679836
v 0.04244548 -0.02313864 0.04559615
v 0.06508212 0.01277747 -0.00285541
v -0.07078692 -0.01440313 0.02130831
v 0.06793810 0.01266364 0.02664685
v -0.07722422 -0.00820785 -0.01742452
v 0.06043266 -0.02144431 0.03001962
v -0.06542365 0.01288608 0.03007836
v 0.07268427 -0.00275857 -0.02602075
v 0.05948119 -0.01035949 -0.04626496
v -0.05805163 -0.00046636 0.04582084
v -0.06134959 -0.01036693 -0.04621463
v 0.05872296 -0.00595950 0.04378846
v -0.02572013 0.02465511 -0.00038232
v -0.07064100 -0.00396529 -0.03287231
v -0.07457630 -0.00361665 0.00889393
v 0.06948311 -0.00665972 0.02661947
v 0.06179618 -0.02757466 -0.03989052
v 0.07362796 0.00263189 0.01511217
v -0.07161474 0.00097550 0.02295676
v 0.05405264 0.01269993 0.03601390
v -0.04431195 0.00572987 0.04917894
v -0.06289959 -0.02409852 -0.04414921
v 0.07134870 -0.00884746 -0.04009432
v -0.06370904 0.01273188 -0.00430535
v 0.05509179 -0.01915859 0.04446537
v 0.02385338 0.02412877 -0.00038240
v 0.07792056 -0.01440652 -0.02671707
v -0.07828339 -0.01440365 -0.02826086
v 0.02385338 0.02337407 -0.01803906
v 0.07105190 0.01267558 0.00837628
v -0.07281101 -0.01228238 -0.04285044
v -0.05360644 0.01075363 0.04454339
v 0.06923999 -0.01808104 0.02130991
v 0.05761322 0.00573031 0.04436755
v -0.07011209 0.01299232 0.01975930
v 0.06877507 -0.01750395 -0.04689334
v -0.03191717 0.02432575 -0.01122438
v 0.04333955 0.01270355 0.03757507
v -0.05670198 0.01334140 0.03524936
v -0.06444673 -0.01924477 0.02750433
v 0.06877507 -0.02709374 -0.03291035
v 0.05094302 -0.00274498 0.04841330
v 0.06901255 0.00263189 0.02750765
v 0.07162024 0.01178927 0.01821104
v -0.06599960 -0.02705150 -0.03600764
v 0.02075461 0.02501458 -0.00967612
v -0.04896116 -0.00201447 0.04932427
v -0.04431195 -0.02295947 0.04537335
v -0.07297223 0.00652289 0.01436264
v -0.07613061 -0.00579673 -0.02620116
v 0.07723793 -0.00821574 -0.02046152
v 0.07338484 -0.00665972 0.01821104
v -0.02262365 0.02526214 -0.00967435
v -0.07311347 -0.00657153 0.01829444
v 0.07732698 -0.01350990 -0.03532199
v -0.07291004 -0.02443876 -0.02921062
v 0.06164043 0.01267090 0.03282895
v -0.06991336 -0.01986856 -0.04456114
v -0.07743950 -0.01440365 -0.03628227
v -0.06958636 -0.00820690 0.02628425
v 0.06944074 -0.02439980 -0.04289658
v 0.06258057 -0.02314860 -0.04626496
v -0.05609386 -0.01440313 0.04552251
v 0.07452863 -0.02330755 -0.02981371
v 0.07456255 -0.01595523 -0.04194552
v -0.06954712 0.00741457 0.02584823
v 0.07442263 -0.00720501 -0.03291035
v -0.06289959 -0.01711301 -0.04775368
v 0.04854709 -0.01906789 0.04696559
v 0.07465144 -0.00356494 0.01201329
v 0.06811456 -0.01401392 0.02688162
v -0.07057212 -0.00099551 -0.02656732
v -0.05206063 0.00418176 0.04901447
v -0.06801461 -0.00752316 -0.04128850
v -0.07370983 -0.00046636 0.01511228
v 0.02695016 0.02491709 -0.00657955
v 0.07192610 0.00573031 0.02130991
v -0.07630283 -0.00864050 -0.03291236
v -0.04741142 -0.01750314 0.04779056
v -0.07323509 -0.01145110 0.01370097
v -0.06757113 0.01307212 0.00125014
v 0.06258057 -0.01595523 -0.04871622
v -0.07761172 -0.01352994 -0.02133224
v 0.02974501 0.02378840 -0.01550862
v 0.06722751 -0.01031058 -0.04478740
v -0.03036791 0.02479777 -0.00503038
v 0.07175357 -0.00201573 0.02285935
v -0.04741142 0.01060186 0.04609240
v -0.05051089 0.01339073 0.03679836
v -0.06909593 0.01384226 0.01356328
v -0.06759266 -0.01288726 -0.04639199
v 0.07125556 -0.01130734 0.02242112
v -0.06910392 -0.02499323 -0.04068203
v 0.05328798 0.00969947 0.04545920
v -0.06823279 -0.01478257 0.02659405
v 0.05328798 0.00263189 0.04801029
v -0.07671186 -0.02059946 -0.03136186
v -0.07454616 -0.01832696 -0.04146014
v 0.06611468 -0.01952141 0.02595822
v 0.07744993 -0.01863288 -0.03291035
v -0.02871103 0.02381733 -0.01580282
v -0.07206615 -0.00717031 -0.03744944
v 0.07725065 -0.00909199 -0.02826256
v 0.07210764 -0.02569583 -0.03755814
v -0.05799670 0.00736145 0.04468873
v -0.07196000 0.00728177 0.01975930
v 0.06809669 0.01277340 0.00173011
v 0.04709227 0.00108269 0.04905107
v -0.06849173 0.01287469 0.02559198
v 0.06714271 -0.02739126 -0.03901305
v 0.04864120 0.01263462 0.03738335
v -0.07114907 -0.02592155 -0.03446287
v 0.07202414 -0.01440576 0.01821104
v 0.02540078 0.02486582 -0.01277268
v 0.07287507 -0.02060138 -0.04320795
v 0.07260449 0.01098020 0.01327710
v -0.06904493 0.00263365 0.02750433
v 0.06977329 0.00727951 0.02561390
v 0.07138686 -0.01330204 -0.04475909
f 18 20 1
f 56 4 88
f 88 117 56
f 56 117 30
f 47 97 103
f 95 22 62
f 26 54 31
f 31 54 102
f 26 31 71
f 71 31 77
f 76 39 112
f 10 88 57
f 57 88 4
f 4 54 57
f 57 26 10
f 57 54 26
f 78 88 10
f 117 88 78
f 72 4 56
f 103 97 3
f 97 30 3
f 3 30 117
f 3 105 103
f 117 105 3
f 22 98 9
f 9 98 97
f 9 47 22
f 97 47 9
f 67 31 102
f 77 31 67
f 36 8 109
f 109 8 122
f 76 112 64
f 64 109 2
f 64 112 36
f 36 109 64
f 10 26 50
f 18 94 91
f 91 71 77
f 91 20 18
f 91 77 20
f 26 71 119
f 119 50 26
f 103 105 43
f 43 13 103
f 18 1 38
f 38 94 18
f 38 93 94
f 6 13 39
f 36 112 60
f 51 105 117
f 117 78 51
f 44 7 58
f 69 72 19
f 48 98 22
f 22 95 48
f 95 16 48
f 49 65 4
f 12 65 49
f 121 54 4
f 4 65 121
f 102 54 121
f 97 98 41
f 98 48 41
f 16 114 41
f 41 48 16
f 82 114 19
f 82 72 56
f 19 72 82
f 56 30 82
f 82 41 114
f 82 30 97
f 97 41 82
f 83 1 20
f 1 83 110
f 62 1 110
f 87 7 90
f 87 68 37
f 99 7 44
f 76 64 32
f 94 93 32
f 93 11 32
f 128 91 94
f 94 32 128
f 128 32 64
f 50 119 113
f 105 51 34
f 34 51 78
f 34 78 10
f 93 38 123
f 123 6 93
f 123 1 62
f 123 38 1
f 17 39 76
f 76 32 17
f 17 32 11
f 116 11 93
f 93 6 116
f 116 6 39
f 39 17 116
f 116 17 11
f 22 47 35
f 39 13 53
f 122 8 61
f 101 122 61
f 36 60 79
f 60 27 79
f 27 61 79
f 79 8 36
f 79 61 8
f 42 122 101
f 84 58 24
f 63 89 12
f 12 69 63
f 63 69 28
f 63 28 84
f 84 24 63
f 19 114 126
f 126 69 19
f 28 69 126
f 115 58 84
f 84 28 115
f 44 58 115
f 104 69 12
f 72 69 104
f 4 72 104
f 104 49 4
f 12 49 104
f 102 121 5
f 5 67 102
f 107 67 5
f 5 121 65
f 5 68 107
f 111 83 40
f 107 68 40
f 40 87 111
f 68 87 40
f 90 7 46
f 46 33 90
f 110 33 46
f 46 99 95
f 7 99 46
f 46 95 62
f 62 110 46
f 59 58 7
f 7 87 59
f 59 87 37
f 74 64 2
f 74 128 64
f 71 91 45
f 91 128 45
f 128 74 45
f 73 108 50
f 50 113 73
f 73 42 108
f 73 113 2
f 2 109 73
f 73 109 122
f 122 42 73
f 21 43 105
f 105 34 21
f 15 34 10
f 108 34 15
f 10 50 15
f 50 108 15
f 13 6 85
f 6 123 85
f 62 22 85
f 22 35 85
f 103 13 66
f 13 85 66
f 66 85 35
f 39 53 125
f 125 112 39
f 125 60 112
f 125 27 60
f 125 53 27
f 27 53 86
f 86 61 27
f 92 63 24
f 89 63 92
f 75 126 114
f 28 126 75
f 75 115 28
f 106 5 65
f 106 65 12
f 37 68 106
f 68 5 106
f 12 89 106
f 106 92 37
f 89 92 106
f 100 83 20
f 100 40 83
f 20 77 100
f 77 67 100
f 100 67 107
f 107 40 100
f 23 33 110
f 23 83 111
f 23 110 83
f 14 59 37
f 58 59 14
f 14 24 58
f 37 92 14
f 14 92 24
f 71 45 70
f 70 119 71
f 70 113 119
f 2 113 70
f 80 21 34
f 80 34 108
f 101 25 80
f 25 21 80
f 80 42 101
f 108 42 80
f 55 123 62
f 62 85 55
f 55 85 123
f 103 66 29
f 29 66 35
f 61 86 96
f 96 25 101
f 101 61 96
f 44 115 118
f 115 75 118
f 118 16 95
f 118 114 16
f 118 75 114
f 118 99 44
f 95 99 118
f 90 33 81
f 33 23 81
f 81 87 90
f 111 87 81
f 81 23 111
f 124 45 74
f 124 70 45
f 124 74 2
f 2 70 124
f 120 47 103
f 103 29 120
f 120 35 47
f 120 29 35
f 127 96 86
f 127 53 13
f 127 86 53
f 13 43 127
f 96 127 52
f 52 21 25
f 25 96 52
f 43 21 52
f 52 127 43

