# https://github.com/mikedh/trimesh
v -0.01046710 -0.00374173 -0.01645374
v 0.00128678 0.01855393 0.03169015
v -0.00153562 -0.04810386 -0.01425133
v 0.01660561 0.00234913 0.00398788
v -0.00592285 0.02404814 0.00058179
v -0.01519908 -0.00047327 0.01134357
v 0.00465415 -0.02486508 -0.01831236
v 0.00401269 0.01175150 -0.01491699
v -0.00476460 -0.00087707 0.02899170
v 0.01331571 0.02231432 0.00616283
v 0.00802051 -0.00615696 -0.01893594
v 0.01086230 0.00435822 0.02664596
v -0.01648041 0.01585354 0.01100904
v 0.00149630 0.02660621 0.01074241
v -0.00617888 0.01669307 -0.00981442
v -0.00037166 0.00181168 -0.01916101
v 0.00390688 0.02040788 -0.00598874
v 0.00001312 -0.01504799 -0.01971741
v -0.01738773 0.00724152 0.00459303
v -0.00875087 0.02439138 0.01056666
v 0.01738826 0.01006392 0.00983069
v 0.00886229 0.00397781 -0.01787675
v -0.00585604 0.00872704 -0.01693534
v 0.00342212 0.02523675 0.00167547
v -0.01396277 0.02004652 0.00438632
v 0.00200148 -0.04113591 -0.01648774
v -0.00316381 -0.02525221 -0.01911054
v -0.00297585 -0.00781946 -0.01921748
v 0.01521693 0.01637987 0.00237614
v 0.00827697 0.02443730 0.01047179
v 0.01733285 0.00954819 0.00293435
v 0.00050166 0.01667673 -0.01132719
v -0.01001960 0.00342274 -0.01695147
v 0.00663043 -0.00050822 0.02856170
v 0.01561518 0.01653177 0.01002042
v -0.00275477 0.02114414 -0.00601030
v -0.01736003 0.00641140 0.01100105
v -0.00254854 0.02634834 0.00540389
v 0.01616580 0.00048048 0.00964994
v 0.00198217 0.00699685 -0.01812764
v 0.00521561 -0.01748256 -0.01934797
v -0.00800106 0.00363563 0.02822677
v -0.00267259 -0.04354012 -0.01771699
v -0.00725375 0.01217930 -0.01304706
v 0.00153861 -0.00506036 -0.01944900
v 0.00125034 -0.02124627 -0.01992879
v -0.00103207 0.01174608 -0.01577934
v -0.01003913 0.02331047 0.00434837
v -0.01378269 0.02006771 0.01107894
v -0.01652889 0.01498810 0.00610092
v 0.00869078 -0.00093118 -0.01847774
v -0.00425583 0.02606928 0.01052372
v -0.00494723 0.00311948 -0.01860036
v 0.00073115 0.02388478 -0.00198002
v 0.00553423 0.02557827 0.00690479
v -0.00847009 -0.00747288 -0.01807762
v 0.00456665 0.01498444 -0.01177249
v 0.00005447 0.01440978 0.03235332
v 0.00758782 0.02439492 0.00324492
v -0.00202274 0.02533010 0.00105207
v -0.00283391 0.01481386 -0.01287685
v 0.00083210 -0.04520830 -0.01590923
v -0.00186399 -0.00288611 -0.01923442
v -0.01520254 0.01842867 0.00775360
v -0.00685658 0.02519677 0.00566852
v 0.00354988 0.01826659 -0.00905810
v -0.00228390 0.00812594 -0.01792919
v -0.00233840 0.01890907 -0.00886336
v 0.00230666 0.02633068 0.00490859
v 0.00050758 -0.00861010 -0.01955952
v 0.00496975 0.02576196 0.01084227
v -0.00421927 0.02272728 -0.00320366
v 0.01433385 0.01961909 0.00887902
v -0.00569451 0.01954254 -0.00693582
v 0.00106528 0.02208163 -0.00489630
v 0.00153412 -0.02471694 -0.01971856
v 0.00288704 0.00268896 -0.01896499
v 0.00081103 0.01984011 -0.00787240
v -0.01158019 0.02246268 0.01057664
v 0.00103591 -0.00135899 -0.01933284
v -0.00348826 -0.04625774 -0.01611377
v 0.00469676 0.00830465 -0.01702085
v 0.00895698 0.00379530 0.02902742
v 0.00641187 0.00586505 -0.01804213
v -0.00674710 -0.00496288 -0.01841401
v -0.00748637 0.00493361 -0.01777350
v 0.00102014 0.00979927 -0.01690872
v -0.00538478 0.02555002 0.00311310
v 0.01178158 0.02258279 0.00382011
v -0.00687130 0.01443749 -0.01132719
v -0.00248301 0.00429460 -0.01884237
v -0.00351207 0.01243112 -0.01500411
v 0.00064439 0.02613640 0.00281352
v -0.00026293 0.02650023 0.00677597
v -0.00326367 0.00111581 -0.01894482
v -0.01570469 0.01591713 0.00379115
v -0.00019423 0.00556450 -0.01871249
v -0.00652091 0.00185170 0.02942351
v -0.00540144 0.02119483 -0.00489630
v -0.01632804 0.01607255 0.00853251
v -0.00180549 0.02427061 -0.00118355
v -0.00488610 0.02588560 0.00700365
v 0.01486023 0.02039622 0.00634258
v -0.00654491 0.02535573 0.00994553
v 0.01762029 0.00880991 0.00772364
v 0.00879132 -0.00385545 -0.01861085
v -0.00347658 -0.00471919 -0.01907308
v -0.01760244 0.00752058 0.00700964
v 0.00248620 -0.04314987 -0.01520314
v -0.00107718 -0.02187446 -0.01974522
v -0.00090359 0.02656029 0.01047878
v 0.00307302 0.02364675 -0.00178315
v -0.00048403 0.01487343 -0.01301964
v -0.01023251 -0.00147271 -0.01703537
v 0.00822159 0.00177648 -0.01837045
v 0.00681994 -0.00815792 -0.01916747
v -0.00005805 0.01683897 0.03253327
v 0.00136094 -0.04614046 -0.01384226
v -0.00192835 0.02288908 -0.00357294
v 0.01676491 0.00248336 0.00868030
v -0.00455296 0.01610000 -0.01132719
v 0.00760973 0.00196730 0.02930548
v -0.01047499 0.00124849 -0.01646907
v 0.00414675 0.01351148 -0.01343589
v 0.01754410 0.00986610 0.00515624
v -0.00518577 -0.00808211 -0.01886092
v -0.00018780 0.01949546 0.03027888
v -0.00508908 0.01840271 -0.00873759
f 3 98 6
f 42 98 117
f 117 13 42
f 42 6 98
f 9 98 3
f 3 34 9
f 4 109 106
f 37 42 13
f 6 42 37
f 37 13 108
f 123 33 114
f 19 33 123
f 114 1 123
f 1 19 123
f 31 4 106
f 117 98 58
f 98 9 58
f 34 12 83
f 117 58 83
f 12 21 35
f 118 12 34
f 118 34 3
f 70 16 80
f 106 109 7
f 76 43 110
f 55 30 10
f 71 30 55
f 127 13 117
f 127 49 13
f 105 4 125
f 4 31 125
f 125 21 105
f 122 9 34
f 122 58 9
f 34 83 122
f 122 83 58
f 12 118 39
f 39 118 109
f 39 21 12
f 114 33 56
f 56 1 114
f 56 43 1
f 63 16 70
f 76 110 46
f 106 7 11
f 62 118 3
f 109 118 62
f 81 37 108
f 108 19 81
f 81 62 3
f 43 62 81
f 3 6 81
f 6 37 81
f 81 19 1
f 1 43 81
f 79 127 20
f 49 127 79
f 79 25 49
f 2 30 71
f 71 127 2
f 10 30 2
f 2 127 117
f 12 35 2
f 117 83 2
f 2 83 12
f 14 55 69
f 71 55 14
f 14 127 71
f 14 111 127
f 22 31 106
f 13 49 64
f 49 25 64
f 105 21 120
f 21 39 120
f 120 4 105
f 109 4 120
f 120 39 109
f 27 110 43
f 43 56 27
f 27 56 110
f 95 91 16
f 16 63 95
f 95 53 91
f 80 116 45
f 116 46 45
f 70 80 45
f 45 46 70
f 110 63 18
f 18 46 110
f 18 63 70
f 70 46 18
f 116 11 41
f 76 46 41
f 41 46 116
f 41 7 76
f 41 11 7
f 26 43 76
f 26 62 43
f 76 7 26
f 26 7 109
f 109 62 26
f 10 2 73
f 73 2 35
f 94 14 69
f 111 14 94
f 94 38 111
f 111 38 52
f 20 127 52
f 127 111 52
f 87 47 8
f 87 40 67
f 67 47 87
f 66 89 57
f 57 89 22
f 31 22 29
f 22 89 29
f 77 80 16
f 77 116 80
f 77 11 116
f 69 24 93
f 93 94 69
f 38 94 93
f 60 88 93
f 93 88 38
f 17 89 66
f 112 89 17
f 112 24 59
f 59 89 112
f 69 55 59
f 59 24 69
f 59 55 10
f 10 89 59
f 50 64 25
f 108 13 50
f 50 19 108
f 86 56 33
f 86 53 56
f 33 23 86
f 86 23 67
f 67 91 86
f 91 53 86
f 56 53 85
f 10 73 103
f 103 73 35
f 103 89 10
f 103 29 89
f 103 35 21
f 21 125 103
f 103 125 31
f 31 29 103
f 102 52 38
f 38 88 102
f 88 65 102
f 40 87 84
f 124 57 22
f 124 84 8
f 22 84 124
f 66 57 124
f 8 47 124
f 97 91 67
f 67 40 97
f 16 91 97
f 97 77 16
f 40 84 97
f 97 84 77
f 11 77 115
f 115 84 22
f 77 84 115
f 54 24 112
f 54 93 24
f 119 101 54
f 60 93 54
f 54 101 60
f 67 23 92
f 92 47 67
f 32 68 78
f 32 78 66
f 66 124 32
f 32 124 47
f 96 25 33
f 96 50 25
f 96 33 19
f 19 50 96
f 13 64 100
f 100 50 13
f 64 50 100
f 126 85 53
f 110 56 126
f 56 85 126
f 20 52 104
f 104 65 20
f 52 102 104
f 104 102 65
f 82 87 8
f 8 84 82
f 82 84 87
f 51 22 106
f 51 115 22
f 106 11 51
f 11 115 51
f 119 54 75
f 75 54 112
f 112 17 75
f 75 17 66
f 66 78 75
f 44 23 33
f 44 15 23
f 33 25 44
f 121 92 23
f 23 15 121
f 68 32 61
f 61 121 68
f 92 121 61
f 53 95 107
f 107 126 53
f 107 95 63
f 25 15 90
f 90 44 25
f 15 44 90
f 48 99 25
f 48 65 88
f 25 79 48
f 48 79 20
f 20 65 48
f 74 15 25
f 25 99 74
f 72 88 60
f 60 101 72
f 72 101 119
f 113 32 47
f 113 61 32
f 47 92 113
f 92 61 113
f 28 63 110
f 28 107 63
f 110 126 28
f 126 107 28
f 5 48 88
f 99 48 5
f 88 72 5
f 5 72 99
f 128 121 15
f 15 74 128
f 68 121 128
f 128 74 99
f 99 72 36
f 36 128 99
f 68 128 36
f 36 72 119
f 119 75 36
f 78 68 36
f 36 75 78

