# https://github.com/mikedh/trimesh
v 0.20777239 -0.11020409 0.15833989
v 0.13627365 -0.08301404 0.16155337
v 0.16319521 -0.11159313 0.13536598
v 0.21535853 -0.08310033 0.13449863
v 0.17306744 -0.09067485 0.16404954
v 0.13697088 -0.11016409 0.14681415
v 0.20777173 -0.08224843 0.16154797
v 0.18884388 -0.11161362 0.13532741
v 0.21463472 -0.10707679 0.13525788
v 0.18647876 -0.11104096 0.15707171
v 0.13992362 -0.10172357 0.16253984
v 0.21493080 -0.09540971 0.15470497
v 0.14939292 -0.11126028 0.15628117
v 0.15057895 -0.11158936 0.13774720
v 0.21354808 -0.10742152 0.14760220
v 0.21561441 -0.09540971 0.13497680
v 0.21529055 -0.08858047 0.14573564
v 0.19802532 -0.10686059 0.16141662
v 0.13692233 -0.11022971 0.15707171
v 0.21490797 -0.08357427 0.15470497
v 0.20621116 -0.11166412 0.13655660
v 0.13623324 -0.09304222 0.16125144
v 0.13927236 -0.10926254 0.13770667
v 0.21094741 -0.10172184 0.16098936
v 0.14387242 -0.10856505 0.16148680
v 0.20699491 -0.11103620 0.15075713
v 0.21474490 -0.10330147 0.15391527
v 0.21540193 -0.10251229 0.14207932
v 0.20858003 -0.11113030 0.14365865
v 0.21531086 -0.08234201 0.14207932
v 0.20463222 -0.10409159 0.16189893
v 0.21549149 -0.08830933 0.13892291
v 0.21162263 -0.10866638 0.15391415
v 0.21457914 -0.08830829 0.15845113
v 0.15649521 -0.11160249 0.13692534
v 0.20147400 -0.11067829 0.15874194
v 0.19516240 -0.11084630 0.15838765
v 0.13834690 -0.10724737 0.16186319
v 0.21167754 -0.11021913 0.13892186
v 0.14504416 -0.11080395 0.13773033
v 0.21310464 -0.08294342 0.15994440
v 0.21540520 -0.10093394 0.13448897
v 0.21220122 -0.10693852 0.15912057
v 0.21364027 -0.09698813 0.15978159
v 0.21523033 -0.08971573 0.13376687
v 0.13637064 -0.09817633 0.16141382
v 0.14466269 -0.11119944 0.15470494
v 0.13709572 -0.11005990 0.14208063
v 0.21479562 -0.10645879 0.13971284
v 0.21463001 -0.10093394 0.15786138
v 0.14044687 -0.11037715 0.15993014
v 0.20463222 -0.10799493 0.16076849
v 0.21485378 -0.10409064 0.14996915
v 0.20865509 -0.10653238 0.16080868
v 0.21071900 -0.11086881 0.13531698
v 0.21546364 -0.08357427 0.13813321
v 0.20897581 -0.11079884 0.14721353
v 0.20147179 -0.10566830 0.16172281
v 0.21457371 -0.10622308 0.14444737
v 0.20462981 -0.11090476 0.15707171
v 0.21215412 -0.10924093 0.14503151
v 0.21400256 -0.10488026 0.15707126
v 0.13712598 -0.10409159 0.16222773
v 0.21553163 -0.10409064 0.13655621
v 0.20777239 -0.10253137 0.16178319
v 0.21182165 -0.10895734 0.14996833
v 0.21452539 -0.08157708 0.15734941
v 0.21490696 -0.10014476 0.15470497
v 0.21470928 -0.09462053 0.15786138
v 0.21048489 -0.10915621 0.15707126
v 0.21379514 -0.10620761 0.15312544
v 0.19831820 -0.11069479 0.15878050
v 0.13700737 -0.10941787 0.16007333
v 0.21298294 -0.10409006 0.15988272
v 0.21457645 -0.08515248 0.15845922
v 0.21499552 -0.08673097 0.13366787
v 0.20936929 -0.11025228 0.15233673
v 0.13618204 -0.08594118 0.16118506
v 0.20936929 -0.11112515 0.14050154
v 0.21263759 -0.10731030 0.15628254
v 0.21529180 -0.10224555 0.14494835
v 0.21309207 -0.10938235 0.13655573
v 0.20542048 -0.11106820 0.15312630
v 0.20858003 -0.11028469 0.15549384
v 0.21324039 -0.10014393 0.16002497
v 0.13690196 -0.10823677 0.13813333
v 0.20226017 -0.10885721 0.16044611
v 0.14308405 -0.10627037 0.16222876
v 0.21556023 -0.08909850 0.13655621
v 0.20542048 -0.11023428 0.15933724
v 0.20699732 -0.10487936 0.16165623
v 0.21094741 -0.08357458 0.16096003
v 0.21081366 -0.10487764 0.16071194
v 0.13628443 -0.09540973 0.16156112
v 0.20936324 -0.10881829 0.15944788
v 0.21493205 -0.09304218 0.15470497
v 0.20699732 -0.10813569 0.16048339
v 0.13834561 -0.08357366 0.16238992
v 0.21530195 -0.10454805 0.14109933
v 0.13864240 -0.11081906 0.15837801
v 0.21467365 -0.10251229 0.15628196
v 0.13913526 -0.10487936 0.16235937
v 0.20829178 -0.11160173 0.13613069
v 0.21458896 -0.10548574 0.14839090
v 0.13992362 -0.10858398 0.16148244
v 0.20384386 -0.10618283 0.16145313
v 0.20658571 -0.11078188 0.15583289
v 0.20621014 -0.08357346 0.16182294
v 0.20746654 -0.11081747 0.15312630
v 0.21134888 -0.11001362 0.14331089
v 0.21292202 -0.10764545 0.15196396
v 0.14229569 -0.10996434 0.16057850
v 0.15255566 -0.11159214 0.13780746
v 0.21449441 -0.10606176 0.14640892
v 0.21392648 -0.10251216 0.15929687
v 0.21455617 -0.10467180 0.15233673
v 0.21438521 -0.09935361 0.15880068
v 0.21023256 -0.10732271 0.16006576
v 0.20904762 -0.10378820 0.16143499
v 0.21553314 -0.08436345 0.13576651
v 0.20384386 -0.10953142 0.16001883
v 0.21565129 -0.10251229 0.13576651
v 0.20779079 -0.11098298 0.14917962
v 0.21477877 -0.09619888 0.15707168
v 0.21493757 -0.08278509 0.15312555
v 0.21488012 -0.09698806 0.15549226
v 0.21330324 -0.10565425 0.15863180
v 0.20305537 -0.11088368 0.15785982
f 76 86 4
f 2 86 78
f 2 4 86
f 76 4 45
f 3 45 42
f 76 45 3
f 30 2 67
f 4 2 30
f 5 65 108
f 16 45 4
f 42 45 16
f 122 42 16
f 23 86 76
f 76 3 23
f 23 48 86
f 67 20 125
f 125 30 67
f 20 30 125
f 75 20 67
f 8 55 103
f 8 3 42
f 42 55 8
f 56 30 20
f 20 17 56
f 4 30 56
f 94 2 78
f 86 46 94
f 9 49 82
f 9 42 122
f 9 55 42
f 82 55 9
f 20 75 69
f 67 2 7
f 7 108 65
f 2 98 7
f 7 98 5
f 5 108 7
f 92 7 65
f 12 68 81
f 12 81 122
f 122 17 12
f 12 126 68
f 43 80 127
f 127 80 71
f 80 43 70
f 3 8 21
f 21 8 103
f 103 83 21
f 21 83 10
f 10 83 128
f 14 100 48
f 19 100 73
f 19 46 86
f 73 46 19
f 18 88 25
f 25 87 18
f 5 98 11
f 32 17 122
f 32 56 17
f 78 86 22
f 22 94 78
f 86 94 22
f 127 71 62
f 27 62 116
f 34 69 75
f 74 43 127
f 118 43 74
f 92 85 41
f 41 75 67
f 67 7 41
f 7 92 41
f 65 91 119
f 124 69 50
f 50 68 124
f 68 126 124
f 20 69 124
f 96 17 20
f 96 12 17
f 20 124 96
f 126 12 96
f 96 124 126
f 82 49 15
f 116 62 104
f 104 62 71
f 39 55 82
f 80 70 33
f 95 43 118
f 95 70 43
f 31 65 5
f 31 91 65
f 90 95 97
f 97 95 118
f 10 128 37
f 48 23 40
f 40 14 48
f 40 23 3
f 3 14 40
f 10 37 13
f 13 37 100
f 13 21 10
f 3 21 35
f 35 14 3
f 48 100 6
f 100 19 6
f 86 48 6
f 6 19 86
f 102 88 5
f 5 11 102
f 102 38 88
f 122 16 89
f 89 32 122
f 81 68 101
f 101 27 81
f 101 68 50
f 50 62 101
f 62 27 101
f 64 9 122
f 49 9 64
f 75 41 44
f 44 41 85
f 24 74 85
f 24 85 92
f 24 92 65
f 65 119 24
f 54 97 118
f 91 97 54
f 118 74 93
f 93 54 118
f 74 24 93
f 93 24 119
f 93 119 91
f 91 54 93
f 59 15 49
f 71 15 59
f 49 104 59
f 111 71 80
f 111 15 71
f 82 15 111
f 111 33 82
f 80 33 111
f 61 39 82
f 103 55 79
f 55 39 79
f 70 84 77
f 77 79 39
f 60 128 83
f 90 128 60
f 58 88 18
f 18 106 58
f 5 88 58
f 58 31 5
f 106 91 58
f 91 31 58
f 90 97 121
f 121 112 90
f 121 25 112
f 87 25 121
f 52 91 106
f 52 97 91
f 52 106 18
f 18 87 52
f 87 121 52
f 52 121 97
f 100 37 51
f 73 100 51
f 100 14 47
f 47 13 100
f 14 13 47
f 21 13 113
f 113 13 14
f 113 35 21
f 14 35 113
f 105 25 88
f 88 38 105
f 112 25 105
f 105 38 73
f 73 51 105
f 105 51 112
f 63 11 98
f 63 102 11
f 63 98 2
f 2 94 63
f 38 102 63
f 63 94 46
f 63 46 73
f 73 38 63
f 56 32 120
f 32 89 120
f 4 56 120
f 120 16 4
f 120 89 16
f 122 81 28
f 28 64 122
f 53 27 116
f 117 34 75
f 75 44 117
f 50 69 117
f 69 34 117
f 114 104 71
f 71 59 114
f 114 59 104
f 82 33 66
f 66 61 82
f 66 33 70
f 70 77 110
f 110 77 39
f 39 61 110
f 110 66 70
f 61 66 110
f 90 60 1
f 1 84 70
f 1 95 90
f 70 95 1
f 72 51 37
f 90 112 72
f 112 51 72
f 116 104 99
f 99 53 116
f 99 104 49
f 49 64 99
f 27 53 99
f 81 27 99
f 99 28 81
f 64 28 99
f 115 44 85
f 115 117 44
f 85 74 115
f 50 117 115
f 115 74 127
f 127 62 115
f 115 62 50
f 26 83 103
f 103 79 29
f 79 109 29
f 84 109 57
f 57 109 79
f 57 77 84
f 79 77 57
f 107 1 60
f 107 26 109
f 107 109 84
f 84 1 107
f 107 60 83
f 83 26 107
f 36 37 128
f 36 72 37
f 36 128 90
f 90 72 36
f 103 29 123
f 123 29 109
f 123 26 103
f 109 26 123

