# https://github.com/mikedh/trimesh
v 0.01241930 -0.00007156 -0.17882763
v 0.01199494 -0.00037717 -0.18224573
v 0.01199494 0.00249410 -0.17879397
v 0.01237550 -0.01516480 -0.19014834
v 0.01225777 -0.01149500 -0.19025217
v 0.01206064 -0.00761818 -0.18893319
v 0.01202779 -0.00415294 -0.18607636
v 0.01163901 0.00184837 -0.18074997
v 0.01199220 0.00248177 -0.17882763
v 0.01171294 -0.00183868 -0.18461987
v 0.01090801 0.00249410 -0.18001471
v 0.01154319 -0.02073235 -0.18837754
v 0.01195934 -0.01926098 -0.18983963
v 0.01173758 -0.02098620 -0.19217449
v 0.01191828 -0.01893811 -0.19235970
v 0.01196482 -0.01516480 -0.19238497
v 0.01180329 -0.01282343 -0.19221097
v 0.01169925 -0.00561446 -0.18835509
v 0.00972253 0.00027349 -0.18286593
v 0.00972253 0.00203815 -0.18098009
v 0.00972253 -0.00161194 -0.18482473
v 0.00972253 0.00249410 -0.18032341
v 0.00594978 -0.02247236 -0.19014834
v 0.01005928 -0.02150130 -0.18983963
v 0.01173758 -0.02098620 -0.19089200
v 0.00972253 -0.02147173 -0.19261226
v 0.00972253 -0.01893811 -0.19315952
v 0.00972253 -0.01516480 -0.19278066
v 0.00972253 -0.01278153 -0.19223343
v 0.00972253 -0.01089364 -0.19135225
v 0.00972253 -0.00761818 -0.18960671
v 0.00594978 -0.00144188 -0.18496506
v 0.00972253 -0.00555038 -0.18840280
v 0.00594978 0.00044601 -0.18304834
v 0.00594978 0.00218849 -0.18115969
v 0.00880261 0.00249410 -0.18045250
v 0.00217429 -0.02268185 -0.19014834
v 0.00594978 -0.02193014 -0.19300236
v 0.00594978 -0.01893811 -0.19364782
v -0.00909740 -0.01480497 -0.19247757
v -0.01032396 -0.01330895 -0.19202295
v -0.00909740 -0.01175625 -0.19135225
v 0.00594978 -0.01516480 -0.19278066
v -0.00914395 -0.00771183 -0.18930362
v 0.00594978 -0.00559967 -0.18836071
v 0.00594978 -0.00371178 -0.18685091
v 0.00217429 -0.00146406 -0.18494260
v -0.00914395 -0.00384487 -0.18667690
v -0.00914395 -0.00156264 -0.18484999
v -0.00914395 0.00032524 -0.18292767
v -0.00914395 0.00209237 -0.18103901
v -0.00159571 -0.02251919 -0.19014834
v -0.00914395 -0.02160728 -0.19282837
v -0.00537120 -0.02173544 -0.19292657
v -0.00159571 -0.02183895 -0.19297710
v 0.00217429 -0.02194000 -0.19301076
v 0.00217429 -0.01893811 -0.19363378
v -0.01291669 -0.01565279 -0.19243267
v -0.00537120 -0.01893811 -0.19349346
v -0.00914395 -0.01893811 -0.19337840
v -0.01291669 -0.01376491 -0.19182651
v -0.01291669 -0.01139149 -0.19079939
v -0.01291669 -0.00801991 -0.18912122
v -0.00914395 -0.00582395 -0.18820356
v -0.01206796 -0.00170805 -0.18471250
v -0.01182429 0.00198639 -0.18091553
v -0.00914395 0.00249410 -0.18049178
v -0.00537120 -0.02226040 -0.19014834
v -0.01291669 -0.02127702 -0.19250843
v -0.00914395 -0.02196958 -0.19014834
v -0.01500840 -0.01641189 -0.19221097
v -0.01291669 -0.01893811 -0.19290693
v -0.01521100 -0.00869521 -0.18871991
v -0.01291669 -0.00613202 -0.18797624
v -0.01316310 -0.00351461 -0.18590517
v -0.01458130 -0.00203585 -0.18440939
v -0.01320417 -0.00002227 -0.18266387
v -0.01433763 0.00166353 -0.18053667
v -0.01496460 -0.02096402 -0.19218291
v -0.01303442 -0.02128442 -0.19006133
v -0.01496460 -0.02096402 -0.19125962
v -0.01507685 -0.01893811 -0.19227833
v -0.01550669 -0.01515987 -0.19036442
v -0.01555050 -0.01139149 -0.18934853
v -0.01538349 -0.00454975 -0.18542248
v -0.01538075 -0.00085284 -0.18189494
v -0.01437322 -0.02058693 -0.18874517
v -0.01524934 -0.01917225 -0.19006133
v -0.01552859 -0.01516480 -0.18735044
v -0.01554502 -0.01131262 -0.18625034
v -0.01554228 0.00021434 -0.17909986
v -0.01553955 -0.00750974 -0.18655623
v -0.01531230 0.00249410 -0.17803906
v 0.00594803 0.00249656 -0.18074626
v -0.00914301 0.00372212 -0.17880720
v 0.00217372 0.00387872 -0.17880720
v 0.00594803 0.00391276 -0.17880720
v -0.00914301 0.00533577 -0.17650908
v -0.00536870 0.00536981 -0.17658088
v -0.00159749 0.00540385 -0.17661680
v 0.00217372 0.00543109 -0.17665270
v 0.00594803 0.00543109 -0.17665270
v 0.00972234 0.00354509 -0.17880720
v -0.01301640 0.00299359 -0.17909446
v -0.01291732 0.00504300 -0.17604226
v -0.01291732 0.00613919 -0.17413913
v -0.00914301 0.00642515 -0.17460592
v -0.00536870 0.00647281 -0.17467774
v -0.00159749 0.00649324 -0.17474957
v 0.00594803 0.00652047 -0.17478547
v 0.00972234 0.00520640 -0.17636544
v 0.01189590 0.00592812 -0.17381594
v -0.01530761 0.00253741 -0.17801721
v -0.01500108 0.00579876 -0.17352869
v -0.01291732 0.00745326 -0.17126647
v -0.00914301 0.00811370 -0.17126647
v -0.00536870 0.00823626 -0.17126647
v -0.00159749 0.00829072 -0.17126647
v 0.00217372 0.00832477 -0.17126647
v 0.00594803 0.00831115 -0.17126647
v 0.00972234 0.00630260 -0.17446230
v 0.01228912 0.00384467 -0.17507273
v 0.00972234 0.00782093 -0.17126647
v 0.01168845 0.00944820 -0.16588022
v 0.01220242 0.00647281 -0.17126647
v -0.01551196 0.00249656 -0.17636544
v -0.01549338 0.00375616 -0.17489319
v -0.01531380 0.00624132 -0.17126647
v -0.01438803 0.00911457 -0.16487479
v -0.01304426 0.00875371 -0.16756791
v -0.01187389 0.00960479 -0.16634703
v -0.00914301 0.00916904 -0.16882470
v -0.00536870 0.00925075 -0.16907607
v -0.00159749 0.00927798 -0.16914786
v 0.00217372 0.00929160 -0.16918379
v 0.00594803 0.00927798 -0.16914786
v 0.01244703 0.00748050 -0.16372572
v 0.01347498 0.02257528 -0.09201694
v 0.00972234 0.00899882 -0.16850153
v 0.01191447 0.00972054 -0.16372572
v 0.00972234 0.00972054 -0.16659839
v 0.00972234 0.01060567 -0.16372572
v 0.00843121 0.01330189 -0.15496412
v 0.01166987 0.01319976 -0.15079877
v 0.01216527 0.01014268 -0.15995535
v 0.01223648 0.00760305 -0.16728064
v -0.01550267 0.00430085 -0.16749610
v -0.01550267 0.00684048 -0.16749610
v -0.01489891 0.00946181 -0.16232529
v -0.01304426 0.00991118 -0.16365393
v -0.00914301 0.01180399 -0.15995535
v -0.00914301 0.01081674 -0.16372572
v -0.00914301 0.00982948 -0.16692157
v -0.00536870 0.01115036 -0.16372572
v -0.00536870 0.00995203 -0.16717291
v -0.00159749 0.01001331 -0.16724473
v 0.00217372 0.01003374 -0.16731656
v 0.00594803 0.00998608 -0.16724473
v 0.01611916 0.06030884 0.13061422
v 0.01596125 0.05783049 0.13061422
v 0.01335732 0.02257528 -0.09578731
v 0.01388678 0.03012607 -0.05804774
v 0.01207238 0.01742794 -0.12975651
v 0.00594803 0.01123206 -0.16372572
v 0.00594803 0.01238272 -0.15995535
v 0.00594803 0.01302955 -0.15758541
v 0.00594803 0.01348573 -0.15568228
v 0.00594803 0.01426191 -0.15237872
v 0.00594803 0.01710793 -0.14002629
v 0.00798845 0.01695814 -0.13934402
v 0.00880895 0.01718963 -0.13729724
v 0.01149339 0.01684239 -0.13521457
v 0.00970376 0.01353339 -0.15219918
v 0.01174108 0.02080503 -0.11708090
v 0.01198569 0.02105695 -0.11463914
v 0.01223648 0.02504001 -0.09578731
v 0.01253062 0.02541449 -0.09201694
v 0.01359883 0.03012607 -0.06181810
v -0.01165096 0.06487063 0.17966491
v -0.01481221 0.02066885 -0.09711592
v -0.01278108 0.05275804 0.08910429
v -0.01516209 0.00984991 -0.15614909
v -0.01503204 0.00963203 -0.15995535
v -0.01481221 0.02070290 -0.09711592
v -0.01481221 0.02070290 -0.09790590
v -0.01107506 0.02448851 -0.09779817
v -0.01480602 0.01691729 -0.12031265
v -0.01218351 0.04066587 -0.00899706
v -0.01195439 0.04032544 -0.01276743
v -0.01228878 0.03299933 -0.05050701
v -0.01194200 0.03263166 -0.05427737
v -0.01144351 0.03226399 -0.05804774
v -0.01110912 0.03205292 -0.06016632
v -0.01112150 0.02828774 -0.07905407
v -0.01091715 0.02065524 -0.11636274
v -0.01123297 0.01322019 -0.15090649
v -0.01025765 0.01296827 -0.15342005
v -0.00536870 0.01227379 -0.15995535
v -0.00905631 0.01268912 -0.15607727
v -0.00774042 0.01324742 -0.15474868
v -0.00536870 0.01415978 -0.15237872
v -0.00536870 0.01343126 -0.15543093
v -0.00536870 0.01296827 -0.15729816
v -0.00159749 0.01130696 -0.16372572
v -0.00248301 0.01309082 -0.15787268
v -0.00137456 0.01264145 -0.15959628
v 0.00217372 0.01135462 -0.16372572
v 0.01565163 0.05531128 0.09287465
v 0.01540393 0.05468489 0.08317943
v 0.01576309 0.05914456 0.11549687
v 0.01566092 0.06254888 0.13438459
v 0.01576619 0.06275995 0.13815497
v 0.01574451 0.06637534 0.16081308
v 0.01584359 0.06653876 0.16458344
v 0.01592100 0.06671578 0.16835381
v 0.01606033 0.06713111 0.17589454
v 0.01606033 0.06493872 0.17589454
v 0.01604485 0.06507489 0.17966491
v 0.01228602 0.02145185 -0.11086877
v 0.00220469 0.01268231 -0.15959628
v 0.00348343 0.01313168 -0.15801632
v 0.00217372 0.01544662 -0.14860836
v 0.00217372 0.01633174 -0.14483799
v 0.00217372 0.01684239 -0.14264758
v 0.00217372 0.01727815 -0.14074445
v 0.00217372 0.01806114 -0.13729724
v 0.00462284 0.02076418 -0.12444209
v 0.00594803 0.01772752 -0.13729724
v 0.00713699 0.02059396 -0.12365211
v 0.00853029 0.02086631 -0.12113854
v 0.01156460 0.02444766 -0.10138899
v 0.01191138 0.02472000 -0.09887542
v 0.01241297 0.02894818 -0.07689957
v 0.01271950 0.02931585 -0.07312920
v 0.01279690 0.03314912 -0.05427737
v 0.01390535 0.03766325 -0.02030816
v -0.00914301 0.06321613 0.17966491
v -0.01134753 0.06545617 0.18343526
v -0.01165096 0.06712430 0.17966491
v -0.01163238 0.06692003 0.17589454
v -0.01158903 0.06675663 0.17212418
v -0.01169430 0.06302549 0.14192533
v -0.01266962 0.05275804 0.08533392
v -0.01233213 0.04098588 -0.00522670
v -0.01293589 0.04143525 0.00608440
v -0.01025146 0.02422978 -0.10031176
v -0.01037531 0.02803582 -0.08156765
v -0.01189556 0.04409062 0.00985477
v -0.01165096 0.04381147 0.00608440
v -0.01162309 0.03999181 -0.01653780
v -0.01130418 0.04351870 0.00234995
v -0.01129489 0.03973309 -0.01937455
v -0.01101004 0.03577726 -0.04102723
v -0.01048058 0.03560023 -0.04296627
v -0.00909347 0.03531427 -0.04688027
v -0.00914301 0.03459255 -0.05050701
v -0.00914301 0.03385722 -0.05427737
v -0.01039389 0.03180100 -0.06267990
v -0.00773732 0.02460426 -0.10210717
v -0.01017096 0.02043736 -0.11844543
v -0.00828535 0.02098886 -0.11844543
v -0.00748033 0.02075056 -0.12059993
v -0.00702519 0.01687643 -0.13898493
v -0.00536870 0.01587556 -0.14483799
v -0.00536870 0.01503129 -0.14860836
v -0.00159749 0.01452064 -0.15237872
v -0.00159749 0.01630451 -0.14483799
v -0.00159749 0.01541938 -0.14860836
v 0.00003423 0.01315210 -0.15808815
v -0.00137456 0.01351977 -0.15643635
v 0.01288360 0.04446510 0.00608440
v 0.01263590 0.04413828 0.00234995
v 0.01542870 0.05848412 0.10547844
v 0.01552468 0.05864071 0.10795611
v 0.01566092 0.05888583 0.11172648
v 0.01384652 0.04143525 -0.00145633
v 0.01293314 0.04087013 -0.01276743
v 0.01554016 0.06236505 0.13061422
v 0.01555874 0.06615747 0.15704270
v 0.01472895 0.06917370 0.17966491
v 0.01544728 0.06226292 0.12806475
v 0.01604485 0.06728771 0.17966491
v 0.01577857 0.06544256 0.18235801
v 0.01349665 0.06363145 0.17966491
v 0.00096619 0.01315210 -0.15808815
v 0.00220469 0.01353339 -0.15650818
v 0.00217372 0.01455468 -0.15237872
v -0.00159749 0.01682878 -0.14253984
v 0.00217372 0.01890541 -0.13352688
v 0.00594803 0.02598641 -0.09955768
v 0.00594803 0.02354211 -0.11086877
v 0.00590778 0.02105695 -0.12232351
v 0.00217372 0.02084588 -0.12480118
v 0.00217372 0.02141100 -0.12221579
v 0.00217372 0.02222804 -0.11844543
v 0.00404385 0.02823327 -0.09011381
v 0.00787699 0.02447489 -0.10526710
v 0.00877489 0.02468596 -0.10332804
v 0.01007222 0.02512171 -0.09991677
v 0.00972234 0.02930904 -0.08070584
v 0.01108468 0.03186909 -0.06688117
v 0.01170703 0.02830816 -0.08289625
v 0.01199807 0.02854647 -0.08070584
v 0.01213431 0.03240697 -0.06181810
v 0.01253372 0.03278826 -0.05804774
v 0.01269782 0.04050927 -0.01653780
v -0.00536870 0.06262378 0.17966491
v -0.00536870 0.06376082 0.18343526
v -0.00914301 0.06435999 0.18343526
v -0.01134753 0.06662046 0.18343526
v -0.01103790 0.06596002 0.18533841
v -0.00974678 0.06851326 0.18343526
v -0.01003782 0.06901029 0.17966491
v -0.01152092 0.06658641 0.16835381
v -0.01142184 0.06640939 0.16458344
v -0.01157665 0.06280761 0.13815497
v -0.01192033 0.05556320 0.08910429
v -0.01200393 0.05580832 0.09287465
v -0.01251790 0.05275804 0.08156355
v -0.01266962 0.04143525 0.00234995
v -0.01206585 0.04436297 0.01362514
v -0.00912753 0.02779071 -0.08461984
v -0.00785807 0.02841710 -0.08343487
v -0.00787975 0.03220271 -0.06469076
v -0.01168502 0.04767197 0.03247697
v -0.01141564 0.04740644 0.02870660
v -0.01117723 0.04720899 0.02608530
v -0.01107816 0.04335529 0.00026727
v -0.01085832 0.03948797 -0.02188813
v -0.00779924 0.03595428 -0.04573121
v -0.00914301 0.03311507 -0.05804774
v -0.00913991 0.03242059 -0.06156675
v -0.00660719 0.02433872 -0.10462074
v -0.00684251 0.02815157 -0.08594845
v -0.00536870 0.02163569 -0.11844543
v -0.00560711 0.01664494 -0.14117536
v -0.00536870 0.01919138 -0.12975651
v -0.00451104 0.01708750 -0.13999039
v 0.01235724 0.04761070 0.02116587
v 0.01281238 0.05167546 0.04759435
v 0.01228602 0.04380466 -0.00145633
v 0.01541322 0.06600086 0.15488821
v 0.01284025 0.07031074 0.17966491
v 0.01430167 0.06901710 0.17589454
v 0.01253062 0.07019500 0.18264529
v 0.01577857 0.06685876 0.18235801
v 0.01528318 0.06200419 0.12555116
v 0.01381556 0.06303229 0.12680796
v 0.01252443 0.06534724 0.18594886
v 0.01366694 0.06474127 0.18354300
v 0.00972234 0.06371997 0.18343526
v -0.00159749 0.01968160 -0.12975651
v 0.00594803 0.02679664 -0.09578731
v -0.00159749 0.02080503 -0.12462164
v -0.00004937 0.02827412 -0.09029335
v 0.00217372 0.02477447 -0.10666752
v 0.00594803 0.02760006 -0.09201694
v 0.00217372 0.02629280 -0.09955768
v 0.00217372 0.02709622 -0.09578731
v 0.00254218 0.02794050 -0.09172968
v 0.00217372 0.02947925 -0.08447621
v 0.00217372 0.03026906 -0.08070584
v 0.00455473 0.03207335 -0.07154924
v 0.00594803 0.02999671 -0.08070584
v 0.00827640 0.02833540 -0.08684616
v 0.00856745 0.03217548 -0.06828159
v 0.00972234 0.03010565 -0.07689957
v 0.00978427 0.03244783 -0.06562438
v 0.00972234 0.03399339 -0.05804774
v 0.01107540 0.03564109 -0.04788570
v 0.01180301 0.03214825 -0.06436759
v 0.01174728 0.03587939 -0.04537212
v 0.01192996 0.04353912 -0.00450853
v 0.01236343 0.04014160 -0.02030816
v -0.00159749 0.06256250 0.17966491
v 0.00972234 0.06513617 0.18609248
v -0.00536870 0.06532681 0.18573339
v -0.00914301 0.06563320 0.18555386
v -0.01103790 0.06598725 0.18533841
v -0.00729146 0.06975244 0.18533841
v -0.00786117 0.06999755 0.18343526
v -0.00815221 0.07012010 0.17966491
v -0.01112769 0.06606214 0.15804815
v -0.01126703 0.06621194 0.16081308
v -0.01141255 0.06258292 0.13438459
v -0.01171288 0.05530447 0.08533392
v -0.01145899 0.05884497 0.10795611
v -0.00698184 0.03195079 -0.06720434
v -0.00692301 0.03570917 -0.04824478
v -0.01147757 0.05504575 0.08156355
v -0.01144970 0.05123290 0.05513508
v -0.01119581 0.05478702 0.07775728
v -0.01122058 0.05102864 0.05222651
v -0.01103481 0.05465084 0.07585414
v -0.01094811 0.05082438 0.04971293
v -0.01082426 0.04700473 0.02357172
v -0.00919565 0.04375019 -0.00116906
v -0.01048677 0.04312379 -0.00224631
v -0.00745866 0.05094694 0.04145404
v -0.00776519 0.04727026 0.01818549
v -0.00914301 0.04492128 0.00608440
v -0.00914301 0.04433573 0.00234995
v -0.00969724 0.04287187 -0.00522670
v -0.00914301 0.04171440 -0.01276743
v -0.00941857 0.04020969 -0.02052361
v -0.00756083 0.03964457 -0.02648438
v -0.00536870 0.02955415 -0.08070584
v -0.00536870 0.02642217 -0.09578731
v -0.00535941 0.02484256 -0.10336395
v -0.00535941 0.02406637 -0.10706251
v -0.00359766 0.02070971 -0.12419074
v -0.00506217 0.02013097 -0.12566298
v -0.00409305 0.02457702 -0.10576981
v 0.01193305 0.04730431 0.01739551
v 0.01244393 0.05137588 0.04382398
v 0.01166987 0.04713409 0.01527692
v 0.01239749 0.06631406 0.14569570
v 0.01289289 0.06655237 0.14946607
v 0.01349665 0.06721281 0.15704270
v 0.01241606 0.07007925 0.17589454
v 0.01307866 0.06291655 0.12307350
v 0.00972234 0.07128438 0.17966491
v 0.00991121 0.07063075 0.18372254
v 0.01129523 0.06960946 0.18515888
v 0.01378460 0.06823411 0.18375844
v 0.01252443 0.06709025 0.18594886
v 0.01267615 0.05529086 0.07021655
v 0.01223339 0.05500489 0.06644618
v 0.01245941 0.05884497 0.09287465
v 0.00217372 0.06259654 0.17966491
v -0.00159749 0.02213953 -0.11844543
v -0.00159749 0.02431829 -0.10831930
v -0.00159749 0.02537364 -0.10332804
v -0.00159749 0.02696686 -0.09578731
v -0.00159749 0.03012607 -0.08070584
v -0.00044259 0.03208697 -0.07162105
v 0.00217372 0.03211420 -0.07176469
v 0.00152971 0.02827412 -0.09029335
v 0.00586753 0.03162398 -0.07294966
v 0.00594803 0.03079332 -0.07689957
v 0.00217372 0.03336699 -0.06558847
v 0.00217372 0.03489213 -0.05804774
v 0.00468787 0.03585896 -0.05276922
v 0.00594803 0.03312188 -0.06558847
v 0.00586753 0.03233889 -0.06946656
v 0.00707197 0.03190994 -0.07079517
v 0.00720510 0.03570917 -0.05197924
v 0.00856125 0.03594747 -0.04946567
v 0.00972234 0.03473553 -0.05427737
v 0.00978117 0.03542321 -0.05065064
v 0.01154912 0.04330763 -0.00702211
v 0.00991121 0.06815241 0.18605658
v 0.00594803 0.06785282 0.18605658
v -0.00159749 0.06785282 0.18591294
v -0.00536870 0.06785282 0.18584111
v -0.00878694 0.06749196 0.18551795
v -0.00536870 0.06988180 0.18544613
v -0.00159749 0.07114821 0.18343526
v -0.00536870 0.07062394 0.18343526
v -0.00536870 0.07099161 0.17966491
v -0.00761657 0.06989542 0.17589454
v -0.01093263 0.06586470 0.15553455
v -0.01104719 0.06220845 0.12860337
v -0.01118652 0.06234463 0.13061422
v -0.01121129 0.05858624 0.10418575
v -0.00536870 0.03412275 -0.05804774
v -0.00536870 0.03336699 -0.06181810
v -0.00558234 0.03176015 -0.06957429
v -0.00536870 0.03032353 -0.07689957
v -0.00554519 0.03626748 -0.04688027
v -0.00440577 0.03598152 -0.04964520
v -0.00536870 0.03486490 -0.05427737
v -0.00654527 0.03940627 -0.02899796
v -0.00536870 0.03704366 -0.04296627
v -0.01106577 0.05845007 0.10210307
v -0.00828226 0.05880412 0.09664502
v -0.00811196 0.05497766 0.07021655
v -0.00947121 0.05162099 0.05111335
v -0.00866619 0.05140993 0.04759435
v -0.00793548 0.05112396 0.04382398
v -0.00781163 0.04350508 -0.00522670
v -0.00759180 0.05477340 0.06745161
v -0.00702519 0.05458957 0.06493803
v -0.00677439 0.05075629 0.03894046
v -0.00715213 0.04707281 0.01567191
v -0.00878075 0.04257229 -0.00863798
v -0.00914301 0.04102673 -0.01653780
v -0.00728217 0.04333486 -0.00712983
v -0.00446460 0.03220952 -0.06846114
v -0.00295983 0.03195760 -0.07097471
v -0.00432837 0.02840349 -0.08716933
v -0.00256661 0.02814476 -0.08968291
v 0.01194234 0.05106268 0.04005361
v 0.01186803 0.05479382 0.06360942
v 0.01078125 0.04691622 0.01276334
v 0.01165130 0.05089247 0.03800684
v 0.01196711 0.06612343 0.14264350
v 0.01196401 0.06988180 0.17287824
v 0.01162343 0.06220164 0.11359371
v 0.01154602 0.06595321 0.14012991
v 0.01194853 0.05857944 0.08910429
v 0.01165439 0.05844326 0.08709343
v 0.00827640 0.06983414 0.16569659
v 0.00594803 0.07189035 0.17966491
v 0.00594803 0.07135247 0.18343526
v 0.01153983 0.06972520 0.17036466
v 0.00972234 0.06893540 0.16081308
v 0.00877799 0.07003840 0.18555386
v -0.00159749 0.03395935 -0.06181810
v -0.00050761 0.03586577 -0.05280513
v 0.00217372 0.03589981 -0.05298467
v 0.00217372 0.03637642 -0.05050701
v 0.00217372 0.03708452 -0.04673664
v 0.00217372 0.04133312 -0.02407853
v 0.00217372 0.04356636 -0.01212108
v 0.00594803 0.04345742 -0.01158246
v 0.00795130 0.04334848 -0.01100792
v 0.00594803 0.03611088 -0.05065064
v 0.00594803 0.03543682 -0.05413374
v 0.00594803 0.03464702 -0.05804774
v 0.01071004 0.04312379 -0.00899706
v 0.01006293 0.04389317 -0.00554987
v 0.00972234 0.04471021 -0.00145633
v 0.00972234 0.04537065 0.00234995
v 0.00594803 0.07015415 0.18558978
v -0.00159749 0.07003159 0.18551795
v 0.00217372 0.07136609 0.18343526
v 0.00217372 0.07205376 0.17966491
v -0.00159749 0.07174056 0.17966491
v -0.00356979 0.06976605 0.16630703
v -0.00536870 0.07052182 0.17589454
v -0.00672175 0.06960946 0.17129827
v -0.00731623 0.06976605 0.17381187
v -0.00946192 0.06669535 0.15689908
v -0.00872192 0.06655918 0.15323643
v -0.00830083 0.06259654 0.12307350
v -0.00812745 0.06630726 0.14946607
v -0.00302485 0.03573640 -0.05215878
v -0.00536870 0.04200036 -0.01653780
v -0.00365958 0.04336210 -0.01104383
v -0.00774042 0.06237866 0.11991356
v -0.00931640 0.05896072 0.10066675
v -0.00770636 0.05858624 0.09366464
v -0.00630686 0.05442616 0.06267581
v -0.00536870 0.05296230 0.05136471
v -0.00713975 0.05839560 0.09115106
v -0.00672485 0.06205866 0.11549687
v -0.00403422 0.06233101 0.11283965
v -0.00536870 0.05183206 0.04382398
v -0.00545849 0.05125332 0.04012543
v -0.00426025 0.05105587 0.03696550
v -0.00641832 0.04691622 0.01362514
v -0.00536870 0.04533661 0.00234995
v -0.00536870 0.04471021 -0.00145633
v -0.00536870 0.04405658 -0.00522670
v -0.00509933 0.04350508 -0.00863798
v -0.00617372 0.04310337 -0.00964341
v 0.01134786 0.05460319 0.06109585
v 0.00972234 0.04601066 0.00608440
v 0.00826402 0.04718856 0.01118338
v 0.01063573 0.05068140 0.03549327
v 0.00972234 0.05221335 0.04382398
v 0.00972234 0.05281251 0.04759435
v 0.00972234 0.06505447 0.13061422
v 0.01092368 0.06582385 0.13815497
v 0.01006293 0.06645705 0.14160214
v 0.00972234 0.06704941 0.14569570
v 0.00946226 0.05857944 0.08562119
v 0.00972234 0.06014543 0.09664502
v 0.00824234 0.06604853 0.13567728
v 0.00972234 0.05681599 0.07398691
v 0.00729180 0.06968435 0.16318300
v 0.00477456 0.06981371 0.16210578
v -0.00159749 0.03471511 -0.05804774
v -0.00159749 0.03692111 -0.04673664
v -0.00159749 0.04347784 -0.01165427
v 0.00217372 0.04413828 -0.00899706
v 0.00594803 0.04461489 -0.00522670
v 0.00594803 0.04529575 -0.00145633
v 0.00217372 0.07061714 0.16835381
v 0.00008067 0.06977286 0.16246484
v -0.00134360 0.06988861 0.16483480
v -0.00243347 0.06960265 0.16379346
v -0.00159749 0.06834304 0.15323643
v -0.00159749 0.06784602 0.14946607
v -0.00159749 0.06734217 0.14569570
v -0.00462870 0.06625279 0.14192533
v -0.00536870 0.06711068 0.14946607
v -0.00536870 0.06761452 0.15323643
v -0.00536870 0.06811836 0.15704270
v -0.00536870 0.06860858 0.16081308
v -0.00504360 0.06920774 0.16483480
v -0.00713046 0.06593278 0.14404392
v -0.00762276 0.06610300 0.14659341
v -0.00509933 0.04280379 -0.01248016
v -0.00372770 0.04715452 0.01143473
v -0.00159749 0.04528214 -0.00145633
v -0.00159749 0.04396126 -0.00899706
v -0.00725431 0.06219483 0.11740000
v -0.00442125 0.05486191 0.06267581
v -0.00370602 0.05469850 0.06044950
v -0.00483924 0.06252164 0.11549687
v -0.00388251 0.06606214 0.13951947
v -0.00159749 0.06305272 0.11549687
v -0.00335925 0.05085842 0.03445192
v -0.00453272 0.04733154 0.01362514
v -0.00513958 0.04662344 0.01003431
v 0.00972234 0.05397679 0.05513508
v 0.00994217 0.05446701 0.05858227
v 0.00883063 0.05481425 0.05962361
v 0.00972234 0.05625088 0.07021655
v 0.00594803 0.04594938 0.00234995
v 0.00594803 0.04658940 0.00608440
v 0.00594803 0.04731112 0.01042930
v 0.00812159 0.05092651 0.03405694
v 0.00761071 0.05463042 0.05711003
v 0.00958920 0.06559916 0.13438459
v 0.00903498 0.06621875 0.13815497
v 0.00803180 0.05845007 0.08321533
v 0.00594803 0.06331826 0.11549687
v 0.00594803 0.06658641 0.13815497
v 0.00594803 0.06708344 0.14192533
v 0.00594803 0.06757367 0.14569570
v 0.00217372 0.06766218 0.14569570
v 0.00217372 0.06866986 0.15323643
v 0.00217372 0.06916689 0.15704270
v 0.00217372 0.06957541 0.16020262
v 0.00217372 0.06982052 0.16210578
v 0.00217372 0.04481234 -0.00522670
v 0.00217372 0.04546597 -0.00145633
v -0.00159749 0.06884008 0.15704270
v -0.00134360 0.06939839 0.16106443
v 0.00217372 0.06714472 0.14192533
v 0.00217372 0.06339315 0.11549687
v -0.00651740 0.06578980 0.14192533
v -0.00567213 0.06649109 0.14548026
v -0.00159749 0.04774006 0.01362514
v -0.00159749 0.04727026 0.01068066
v -0.00159749 0.04590853 0.00234995
v 0.00217372 0.04673238 0.00608440
v 0.00217372 0.04611279 0.00234995
v -0.00159749 0.05585597 0.06644618
v -0.00226008 0.05451467 0.05793592
v -0.00159749 0.05362955 0.05136471
v -0.00159749 0.05307123 0.04759435
v -0.00005866 0.05846369 0.08314352
v -0.00159749 0.05250612 0.04382398
v -0.00159749 0.05192057 0.04005361
v -0.00084201 0.05098779 0.03362603
v -0.00159749 0.04833922 0.01739551
v 0.00217372 0.04795794 0.01362514
v 0.00594803 0.04966010 0.02493624
v 0.00594803 0.05072225 0.03154336
v 0.00594803 0.05147801 0.03624734
v 0.00619264 0.05443978 0.05524280
v 0.00509657 0.05471212 0.05660732
v 0.00594803 0.05668663 0.07021655
v 0.00594803 0.05724494 0.07398691
v 0.00594803 0.05267633 0.04382398
v 0.00594803 0.05946456 0.08910429
v 0.00594803 0.06056757 0.09664502
v 0.00217372 0.05727217 0.07398691
v 0.00025406 0.05465084 0.05700231
v 0.00217372 0.04856391 0.01739551
v 0.00217372 0.05334358 0.04759435
v 0.00217372 0.05276484 0.04382398
v 0.00217372 0.05156652 0.03624734
v 0.00217372 0.05106949 0.03312332
v 0.00217372 0.05390870 0.05136471
v 0.00217372 0.05671387 0.07021655
f 159 218 160
f 160 4 159
f 217 218 159
f 159 216 217
f 159 4 162
f 83 89 84
f 72 60 69
f 218 12 25
f 283 12 218
f 284 12 283
f 24 284 23
f 24 12 284
f 24 25 12
f 43 29 39
f 84 89 90
f 89 147 90
f 391 390 392
f 187 188 149
f 23 284 351
f 351 349 376
f 57 43 39
f 58 60 72
f 55 57 56
f 39 38 56
f 56 57 39
f 53 69 60
f 13 160 218
f 218 25 13
f 4 160 13
f 27 38 39
f 23 38 26
f 26 24 23
f 38 27 26
f 284 283 350
f 350 283 349
f 350 351 284
f 349 351 350
f 376 349 426
f 70 53 68
f 69 53 70
f 68 307 70
f 70 307 237
f 32 18 33
f 84 90 91
f 91 90 147
f 42 29 41
f 42 30 29
f 44 30 42
f 33 18 31
f 31 30 44
f 29 30 17
f 30 31 17
f 17 31 18
f 17 16 27
f 188 187 185
f 183 187 149
f 182 185 183
f 183 185 187
f 249 188 248
f 188 185 244
f 244 185 245
f 244 248 188
f 321 248 244
f 37 38 23
f 37 56 38
f 55 56 37
f 23 351 37
f 37 351 430
f 308 351 376
f 237 307 308
f 59 57 55
f 61 62 41
f 41 58 61
f 377 308 376
f 87 237 81
f 237 238 81
f 80 70 237
f 80 237 87
f 80 81 70
f 87 81 80
f 159 210 211
f 181 185 184
f 392 390 475
f 78 114 105
f 134 157 135
f 33 49 46
f 46 32 33
f 10 7 18
f 66 51 50
f 66 105 98
f 48 49 33
f 84 91 92
f 148 91 147
f 182 183 148
f 148 183 149
f 148 185 182
f 184 185 148
f 78 86 113
f 113 114 78
f 1 137 138
f 138 162 4
f 4 1 138
f 15 16 4
f 27 16 15
f 39 29 28
f 29 17 28
f 28 27 39
f 28 17 27
f 18 7 6
f 6 17 18
f 6 7 1
f 124 142 143
f 124 112 123
f 142 124 141
f 112 124 125
f 142 141 164
f 164 141 158
f 189 188 249
f 149 188 189
f 249 248 325
f 390 391 325
f 245 321 320
f 320 244 245
f 321 244 320
f 355 434 435
f 52 307 68
f 52 37 307
f 68 53 52
f 53 37 52
f 375 37 430
f 307 37 375
f 375 308 307
f 430 351 375
f 351 308 375
f 237 308 309
f 309 238 237
f 54 53 60
f 60 59 54
f 54 59 55
f 55 37 54
f 54 37 53
f 43 57 40
f 57 59 40
f 41 29 40
f 29 43 40
f 40 59 60
f 40 58 41
f 60 58 40
f 62 61 71
f 71 83 84
f 82 83 71
f 71 61 58
f 72 82 71
f 71 58 72
f 345 346 280
f 280 343 345
f 216 280 282
f 280 346 282
f 69 70 79
f 70 81 79
f 79 82 72
f 72 69 79
f 79 83 82
f 179 81 238
f 179 181 89
f 215 216 159
f 89 181 180
f 180 181 184
f 180 147 89
f 245 185 243
f 185 181 243
f 497 498 420
f 421 500 497
f 500 506 497
f 506 498 497
f 420 343 342
f 97 102 36
f 123 120 136
f 158 141 136
f 136 120 135
f 135 157 136
f 157 158 136
f 106 105 114
f 98 105 106
f 149 150 129
f 47 46 49
f 32 46 47
f 49 50 47
f 8 112 9
f 11 111 8
f 8 111 112
f 32 47 34
f 34 47 50
f 34 51 35
f 50 51 34
f 7 10 2
f 1 7 2
f 2 8 9
f 10 8 2
f 95 66 98
f 78 105 104
f 104 66 78
f 105 66 104
f 45 48 33
f 64 48 45
f 44 64 45
f 45 31 44
f 33 31 45
f 63 64 44
f 63 74 64
f 41 62 63
f 44 42 63
f 63 42 41
f 85 91 86
f 85 92 91
f 84 92 85
f 65 48 64
f 64 74 65
f 49 48 65
f 65 50 49
f 65 66 50
f 93 113 86
f 161 138 137
f 162 138 161
f 145 178 161
f 161 178 162
f 4 13 14
f 14 15 4
f 14 13 25
f 25 24 14
f 24 26 14
f 14 26 27
f 27 15 14
f 16 17 5
f 17 6 5
f 4 16 5
f 5 1 4
f 5 6 1
f 145 125 140
f 140 125 124
f 139 124 123
f 139 141 124
f 123 136 139
f 139 136 141
f 146 125 145
f 137 125 146
f 145 161 146
f 146 161 137
f 122 137 1
f 122 125 137
f 1 2 122
f 112 125 122
f 11 22 103
f 103 111 11
f 103 22 102
f 102 111 103
f 123 112 121
f 112 111 121
f 121 120 123
f 221 164 220
f 165 164 221
f 143 142 165
f 142 164 165
f 133 117 116
f 134 117 133
f 253 192 252
f 326 391 392
f 249 325 326
f 326 325 391
f 249 326 327
f 143 170 171
f 171 170 231
f 229 291 297
f 421 342 348
f 560 523 517
f 438 355 362
f 436 355 435
f 238 309 311
f 508 426 424
f 425 345 424
f 346 345 425
f 426 346 425
f 424 426 425
f 422 343 420
f 420 498 422
f 422 345 343
f 422 498 506
f 573 570 623
f 89 83 88
f 83 79 88
f 88 79 81
f 88 179 89
f 81 179 88
f 159 211 212
f 245 243 319
f 392 475 394
f 420 418 417
f 417 497 420
f 418 342 417
f 421 497 417
f 417 342 421
f 344 343 280
f 419 418 420
f 420 342 419
f 419 342 418
f 213 212 211
f 159 212 213
f 619 661 620
f 620 570 619
f 620 621 570
f 529 581 582
f 582 530 529
f 581 632 582
f 586 604 548
f 603 586 548
f 457 458 380
f 379 456 380
f 181 179 239
f 94 97 36
f 35 51 94
f 96 97 94
f 94 51 96
f 96 95 101
f 102 97 101
f 101 97 96
f 120 121 110
f 102 101 110
f 110 101 109
f 110 111 102
f 110 121 111
f 120 110 119
f 119 110 109
f 135 120 119
f 119 134 135
f 116 117 107
f 98 106 107
f 107 106 116
f 116 106 115
f 115 106 114
f 19 8 10
f 20 22 11
f 11 8 20
f 8 19 20
f 36 102 20
f 102 22 20
f 35 94 20
f 20 94 36
f 20 34 35
f 20 19 34
f 51 66 67
f 66 95 67
f 96 51 67
f 67 95 96
f 74 63 73
f 84 85 73
f 73 71 84
f 62 71 73
f 73 63 62
f 78 66 77
f 66 65 77
f 74 73 76
f 76 73 85
f 76 77 65
f 78 77 76
f 76 86 78
f 76 85 86
f 113 93 127
f 86 91 127
f 127 93 86
f 145 140 163
f 9 112 3
f 112 122 3
f 3 2 9
f 3 122 2
f 143 165 166
f 166 165 221
f 154 204 155
f 149 189 190
f 189 250 190
f 192 253 193
f 258 194 193
f 149 192 193
f 193 194 149
f 485 400 399
f 538 466 471
f 196 150 195
f 196 197 150
f 131 129 150
f 152 131 151
f 150 197 151
f 151 131 150
f 389 324 330
f 389 470 471
f 292 291 229
f 229 227 292
f 292 227 291
f 229 170 228
f 228 227 229
f 365 297 357
f 299 297 365
f 231 170 230
f 230 299 231
f 230 170 229
f 229 297 230
f 231 299 300
f 300 299 365
f 366 365 446
f 446 447 366
f 366 300 365
f 447 517 448
f 448 366 447
f 564 502 570
f 619 570 569
f 570 502 569
f 611 610 571
f 518 517 447
f 560 613 614
f 578 517 516
f 516 577 578
f 640 614 641
f 641 614 613
f 597 640 641
f 634 586 633
f 604 586 634
f 633 621 634
f 621 620 634
f 634 620 661
f 656 662 634
f 288 338 352
f 352 354 293
f 336 338 264
f 265 288 267
f 265 338 288
f 265 267 201
f 265 264 338
f 294 227 293
f 293 354 294
f 434 355 433
f 355 432 433
f 431 355 354
f 431 432 355
f 509 538 574
f 490 538 509
f 435 490 509
f 509 436 435
f 378 311 309
f 378 456 379
f 379 311 378
f 308 377 378
f 378 309 308
f 505 422 504
f 525 508 505
f 452 508 525
f 525 526 452
f 452 526 453
f 426 508 452
f 376 426 452
f 452 453 376
f 457 380 455
f 455 380 456
f 455 526 457
f 455 378 377
f 456 378 455
f 455 377 376
f 572 573 504
f 570 573 572
f 396 327 395
f 327 394 395
f 478 395 394
f 479 396 478
f 396 395 478
f 393 327 326
f 393 394 327
f 393 326 392
f 392 394 393
f 279 342 343
f 343 344 279
f 279 344 280
f 280 213 279
f 214 280 216
f 214 213 280
f 216 215 214
f 214 215 159
f 159 213 214
f 656 658 657
f 660 661 619
f 619 658 660
f 660 658 656
f 656 634 660
f 660 634 661
f 623 570 622
f 570 621 622
f 622 573 623
f 622 621 573
f 656 657 616
f 619 571 616
f 616 571 610
f 616 658 619
f 616 657 658
f 543 546 483
f 546 543 599
f 544 483 548
f 548 600 544
f 631 581 584
f 631 632 581
f 585 530 584
f 585 586 530
f 584 581 585
f 581 586 585
f 591 530 590
f 587 588 530
f 530 586 587
f 586 603 587
f 587 603 548
f 532 531 530
f 591 590 532
f 532 590 593
f 529 530 460
f 530 531 460
f 531 532 460
f 459 458 529
f 459 380 458
f 529 460 459
f 536 475 463
f 535 463 462
f 99 95 98
f 109 117 118
f 118 119 109
f 118 117 134
f 134 119 118
f 108 117 109
f 108 107 117
f 98 107 108
f 108 99 98
f 109 99 108
f 21 10 18
f 21 19 10
f 18 32 21
f 32 34 21
f 34 19 21
f 75 65 74
f 74 76 75
f 75 76 65
f 114 113 128
f 113 127 128
f 128 127 148
f 128 148 149
f 149 129 128
f 128 129 114
f 91 148 126
f 126 127 91
f 148 127 126
f 157 134 156
f 134 133 156
f 133 155 156
f 156 155 204
f 207 158 157
f 207 164 158
f 157 156 207
f 207 156 204
f 207 220 164
f 206 204 154
f 154 205 206
f 167 166 221
f 143 166 167
f 154 155 132
f 132 133 116
f 132 155 133
f 116 115 132
f 115 131 132
f 191 192 149
f 149 190 191
f 252 192 191
f 191 250 252
f 191 190 250
f 329 405 330
f 329 253 252
f 330 405 406
f 406 405 488
f 406 389 330
f 186 246 195
f 149 194 186
f 186 150 149
f 195 150 186
f 260 196 195
f 247 194 258
f 258 324 247
f 247 186 194
f 246 186 247
f 552 485 551
f 551 606 552
f 485 399 484
f 551 485 484
f 484 550 551
f 484 399 483
f 480 396 479
f 480 399 396
f 574 538 510
f 512 511 510
f 510 509 574
f 436 509 510
f 492 490 435
f 435 434 492
f 195 246 259
f 259 260 195
f 333 259 334
f 334 407 333
f 333 407 408
f 515 576 577
f 515 577 516
f 515 510 576
f 514 510 515
f 512 510 513
f 513 510 514
f 402 400 485
f 249 327 251
f 251 189 249
f 251 250 189
f 540 538 471
f 540 596 597
f 539 540 471
f 595 540 539
f 129 131 130
f 130 131 115
f 114 129 130
f 130 115 114
f 152 151 198
f 154 152 198
f 198 205 154
f 490 407 489
f 489 538 490
f 466 538 489
f 388 389 466
f 324 389 388
f 388 407 334
f 332 324 258
f 258 331 332
f 332 331 324
f 471 466 472
f 472 389 471
f 466 389 472
f 169 170 143
f 169 228 170
f 227 228 169
f 169 226 227
f 291 227 290
f 290 297 291
f 297 299 298
f 298 230 297
f 299 230 298
f 367 366 368
f 300 366 367
f 221 287 222
f 222 167 221
f 617 564 570
f 499 564 500
f 502 564 499
f 499 500 421
f 421 502 499
f 568 571 619
f 502 571 568
f 619 569 568
f 568 569 502
f 522 517 523
f 523 451 522
f 522 451 517
f 450 448 370
f 448 451 370
f 521 448 517
f 517 451 521
f 521 451 448
f 421 348 347
f 560 562 561
f 561 496 560
f 562 496 561
f 560 496 495
f 444 447 446
f 446 365 364
f 365 357 364
f 355 438 356
f 577 629 579
f 579 578 577
f 560 517 579
f 517 578 579
f 656 666 665
f 665 669 656
f 670 662 656
f 656 669 670
f 604 634 646
f 652 614 651
f 651 653 652
f 664 653 651
f 651 614 640
f 289 226 288
f 288 352 289
f 289 352 293
f 293 227 289
f 227 226 289
f 264 265 200
f 201 151 200
f 200 265 201
f 362 355 437
f 355 436 437
f 437 363 362
f 443 444 363
f 447 519 443
f 443 518 447
f 443 511 512
f 512 513 443
f 516 517 443
f 517 518 443
f 443 513 514
f 443 515 516
f 514 515 443
f 423 505 508
f 424 345 423
f 423 508 424
f 345 422 423
f 422 505 423
f 527 458 457
f 457 526 527
f 525 505 527
f 527 526 525
f 453 526 454
f 526 455 454
f 376 453 454
f 454 455 376
f 570 567 618
f 618 617 570
f 507 506 500
f 500 567 507
f 507 422 506
f 633 586 624
f 624 586 581
f 624 621 633
f 573 621 624
f 504 573 528
f 528 581 529
f 529 458 528
f 458 527 528
f 528 505 504
f 528 527 505
f 482 543 483
f 482 480 479
f 479 478 482
f 483 399 482
f 399 480 482
f 546 599 547
f 548 483 547
f 483 546 547
f 593 599 541
f 541 475 536
f 541 542 475
f 541 599 543
f 483 544 545
f 545 484 483
f 583 582 632
f 632 631 583
f 530 582 583
f 584 530 583
f 583 631 584
f 589 588 593
f 593 590 589
f 530 588 589
f 589 590 530
f 635 599 593
f 635 587 599
f 592 530 591
f 591 532 592
f 592 532 530
f 533 460 532
f 533 532 593
f 380 459 381
f 382 313 381
f 381 460 382
f 381 459 460
f 245 319 317
f 319 318 317
f 317 321 245
f 317 248 321
f 317 325 248
f 100 101 95
f 95 99 100
f 109 101 100
f 100 99 109
f 231 174 172
f 172 171 231
f 172 173 143
f 143 171 172
f 144 163 140
f 144 172 174
f 174 175 144
f 144 140 124
f 173 172 144
f 144 124 143
f 143 173 144
f 269 266 287
f 269 206 205
f 220 207 269
f 269 207 204
f 204 206 269
f 153 152 154
f 154 132 153
f 153 131 152
f 153 132 131
f 258 193 257
f 193 256 257
f 257 331 258
f 257 256 330
f 330 324 257
f 324 331 257
f 253 329 254
f 254 193 253
f 405 329 404
f 553 488 485
f 485 552 553
f 576 510 575
f 575 510 538
f 575 540 576
f 538 540 575
f 408 407 491
f 491 407 490
f 490 492 491
f 413 433 432
f 434 433 413
f 413 492 434
f 408 491 413
f 413 491 492
f 260 259 261
f 197 196 261
f 196 260 261
f 400 402 401
f 328 329 252
f 398 329 328
f 252 250 328
f 250 251 328
f 328 327 396
f 328 251 327
f 400 401 328
f 328 401 402
f 396 399 328
f 328 399 400
f 328 397 398
f 328 402 397
f 598 540 597
f 576 540 598
f 597 629 598
f 577 576 598
f 598 629 577
f 557 539 488
f 595 539 557
f 488 540 557
f 557 540 595
f 470 389 474
f 471 470 474
f 474 539 471
f 203 198 151
f 205 198 203
f 323 259 246
f 323 247 324
f 324 388 323
f 334 259 323
f 323 388 334
f 224 169 168
f 167 222 168
f 143 167 168
f 168 169 143
f 225 169 224
f 226 169 225
f 288 226 225
f 267 288 225
f 225 224 267
f 267 224 223
f 224 168 223
f 223 168 222
f 287 266 268
f 268 222 287
f 201 267 268
f 268 266 201
f 267 223 268
f 268 223 222
f 558 494 496
f 502 494 558
f 611 571 558
f 558 571 502
f 558 610 611
f 558 609 610
f 608 616 610
f 610 609 608
f 609 558 608
f 372 370 451
f 371 370 372
f 372 451 373
f 301 370 371
f 371 302 301
f 301 367 368
f 300 367 301
f 231 300 301
f 301 302 231
f 162 178 209
f 209 275 210
f 209 210 159
f 281 348 342
f 281 347 348
f 342 279 281
f 281 279 213
f 560 495 559
f 439 363 445
f 363 444 445
f 446 439 445
f 445 444 446
f 296 364 357
f 363 364 296
f 362 363 296
f 296 290 227
f 440 363 439
f 440 364 363
f 440 439 446
f 446 364 440
f 612 613 560
f 560 579 612
f 659 666 656
f 615 562 560
f 652 653 615
f 560 614 615
f 615 614 652
f 664 651 638
f 638 651 640
f 596 637 638
f 436 510 442
f 442 510 511
f 511 443 442
f 442 443 363
f 520 443 519
f 444 443 520
f 520 519 447
f 447 444 520
f 566 567 500
f 566 618 567
f 617 618 565
f 500 564 565
f 564 617 565
f 565 566 500
f 618 566 565
f 503 507 567
f 570 572 503
f 503 567 570
f 422 507 503
f 504 422 503
f 503 572 504
f 581 626 625
f 625 624 581
f 625 626 573
f 573 624 625
f 477 478 394
f 477 482 478
f 602 587 548
f 548 547 602
f 599 587 602
f 602 547 599
f 542 541 476
f 476 541 543
f 475 542 476
f 476 394 475
f 476 477 394
f 543 482 476
f 482 477 476
f 551 550 549
f 549 545 551
f 550 484 549
f 484 545 549
f 636 635 593
f 587 635 636
f 593 588 636
f 588 587 636
f 382 460 461
f 460 533 461
f 461 462 382
f 535 533 537
f 537 541 536
f 536 463 537
f 463 535 537
f 312 381 313
f 239 310 312
f 312 313 239
f 380 381 312
f 312 310 379
f 379 380 312
f 239 313 241
f 382 462 383
f 383 313 382
f 462 463 383
f 390 325 386
f 325 317 386
f 286 287 221
f 205 266 270
f 270 269 205
f 266 269 270
f 255 329 330
f 255 254 329
f 330 256 255
f 255 256 193
f 193 254 255
f 403 329 398
f 403 404 329
f 398 397 403
f 488 405 487
f 487 404 488
f 405 404 487
f 607 552 606
f 607 553 552
f 607 606 596
f 596 553 607
f 488 553 554
f 596 540 554
f 554 553 596
f 432 431 411
f 411 413 432
f 411 431 354
f 354 352 411
f 411 352 338
f 411 337 412
f 411 338 336
f 336 337 411
f 409 333 408
f 408 413 409
f 412 337 335
f 335 411 412
f 413 411 335
f 199 151 197
f 199 200 151
f 473 474 389
f 539 474 473
f 488 539 473
f 473 406 488
f 389 406 473
f 202 151 201
f 202 203 151
f 201 266 202
f 202 266 205
f 205 203 202
f 407 388 469
f 388 468 469
f 469 489 407
f 469 468 489
f 466 489 467
f 489 468 467
f 467 388 466
f 467 468 388
f 246 247 322
f 322 323 246
f 247 323 322
f 421 347 429
f 616 608 563
f 562 615 563
f 563 615 616
f 563 608 558
f 563 496 562
f 563 558 496
f 232 174 231
f 231 302 232
f 219 163 176
f 176 232 233
f 163 144 176
f 176 144 175
f 176 175 174
f 174 232 176
f 303 302 371
f 233 232 303
f 303 232 302
f 235 305 306
f 371 372 304
f 304 303 371
f 373 305 304
f 304 372 373
f 304 305 233
f 233 303 304
f 370 301 369
f 369 301 368
f 368 366 369
f 366 448 369
f 373 451 416
f 416 341 373
f 414 341 416
f 451 495 416
f 416 495 496
f 416 415 414
f 159 162 208
f 208 209 159
f 162 209 208
f 278 213 211
f 278 281 213
f 278 211 210
f 210 275 278
f 275 281 278
f 273 281 274
f 274 281 275
f 274 209 273
f 275 209 274
f 524 559 495
f 524 451 523
f 524 495 451
f 524 523 560
f 560 559 524
f 353 296 357
f 290 296 353
f 353 357 297
f 297 290 353
f 361 438 362
f 362 296 361
f 356 296 295
f 355 356 295
f 227 294 295
f 295 296 227
f 354 355 295
f 295 294 354
f 630 579 629
f 630 612 579
f 630 629 597
f 597 641 630
f 630 641 613
f 613 612 630
f 669 665 663
f 663 670 669
f 662 670 663
f 663 634 662
f 663 646 634
f 604 646 642
f 646 663 642
f 656 616 655
f 655 659 656
f 616 659 655
f 654 615 653
f 654 659 616
f 616 615 654
f 654 653 664
f 664 668 654
f 654 668 667
f 639 640 597
f 639 638 640
f 597 596 639
f 596 638 639
f 605 637 596
f 605 650 637
f 605 606 551
f 596 606 605
f 441 437 436
f 436 442 441
f 363 437 441
f 441 442 363
f 573 626 627
f 627 628 573
f 627 626 581
f 581 628 627
f 580 528 573
f 573 628 580
f 581 528 580
f 580 628 581
f 534 533 535
f 534 461 533
f 534 535 462
f 462 461 534
f 594 533 593
f 594 537 533
f 593 541 594
f 541 537 594
f 313 315 314
f 314 241 313
f 181 239 240
f 240 241 181
f 239 241 240
f 384 315 313
f 313 383 384
f 387 386 317
f 390 386 387
f 285 269 287
f 287 286 285
f 285 286 221
f 221 220 285
f 220 269 285
f 481 403 397
f 485 488 481
f 488 404 481
f 481 402 485
f 397 402 481
f 488 554 555
f 555 554 540
f 410 335 333
f 413 335 410
f 333 409 410
f 410 409 413
f 333 335 262
f 197 261 262
f 262 199 197
f 259 333 262
f 262 261 259
f 501 502 421
f 421 429 501
f 501 494 502
f 496 494 493
f 494 415 493
f 493 416 496
f 415 416 493
f 347 415 427
f 347 281 340
f 340 415 347
f 340 281 273
f 219 176 177
f 177 178 145
f 145 163 177
f 177 163 219
f 235 306 277
f 271 209 277
f 272 306 341
f 271 277 272
f 272 277 306
f 272 340 273
f 272 209 271
f 273 209 272
f 374 306 305
f 341 306 374
f 374 305 373
f 373 341 374
f 450 370 449
f 370 369 449
f 449 448 450
f 449 369 448
f 360 359 438
f 296 359 360
f 438 361 360
f 360 361 296
f 358 296 356
f 358 359 296
f 358 356 438
f 438 359 358
f 647 665 666
f 647 663 665
f 645 663 647
f 647 605 645
f 548 604 601
f 604 642 601
f 601 600 548
f 645 605 601
f 601 605 551
f 551 545 601
f 601 544 600
f 601 545 544
f 385 384 383
f 385 387 317
f 465 475 390
f 390 387 465
f 404 403 486
f 486 481 404
f 403 481 486
f 556 540 488
f 488 555 556
f 556 555 540
f 199 262 263
f 200 199 263
f 263 335 337
f 263 262 335
f 263 337 336
f 336 264 263
f 264 200 263
f 428 415 494
f 428 427 415
f 494 501 428
f 428 501 429
f 428 429 347
f 347 427 428
f 234 176 233
f 234 177 176
f 178 177 234
f 234 235 178
f 234 305 235
f 233 305 234
f 235 277 276
f 276 277 209
f 415 340 339
f 340 272 339
f 339 272 341
f 414 415 339
f 339 341 414
f 649 647 666
f 666 667 649
f 650 605 649
f 637 650 649
f 667 668 649
f 649 668 664
f 664 638 649
f 649 638 637
f 645 601 644
f 644 663 645
f 644 642 663
f 464 383 463
f 464 385 383
f 387 385 464
f 464 465 387
f 464 463 475
f 475 465 464
f 242 317 318
f 242 314 315
f 242 319 243
f 242 318 319
f 241 314 242
f 242 243 181
f 181 241 242
f 315 384 316
f 384 385 316
f 316 242 315
f 316 385 317
f 317 242 316
f 236 209 178
f 236 276 209
f 178 235 236
f 235 276 236
f 605 647 648
f 648 649 605
f 647 649 648
f 643 601 642
f 642 644 643
f 643 644 601
f 346 426 349
f 349 283 346
f 282 217 216
f 218 217 282
f 282 346 283
f 282 283 218
f 180 148 147
f 184 148 180
f 238 311 310
f 310 311 379
f 310 179 238
f 310 239 179
f 666 659 654
f 654 667 666

