# https://github.com/mikedh/trimesh
v -0.00001021 -0.01904661 0.09700009
v 0.00036920 -0.01901298 0.09700009
v 0.00062047 -0.01897934 0.09720667
v 0.00063878 -0.01898270 0.09700009
v 0.00182192 -0.01873044 0.09663713
v 0.00207320 -0.01862616 0.09688642
v 0.00463419 -0.01789963 0.09686780
v 0.00509014 -0.01771127 0.09700009
v 0.00534474 -0.01754308 0.09723442
v 0.00109639 -0.01877416 0.09736322
v 0.00073696 -0.01887507 0.09734195
v 0.00129941 -0.01861271 0.09755500
v 0.00109639 -0.01863962 0.09758276
v 0.00073196 -0.01868334 0.09762397
v 0.00036920 -0.01872371 0.09765522
v 0.00467080 -0.01791308 0.09663713
v 0.00545291 -0.01764399 0.09663713
v 0.00567423 -0.01753636 0.09687944
v 0.00546123 -0.01758681 0.09700043
v 0.00558770 -0.01749263 0.09712175
v 0.00637480 -0.01716300 0.09719221
v 0.00546123 -0.01743545 0.09735857
v 0.00509014 -0.01747918 0.09748122
v 0.00572415 -0.01720000 0.09760071
v 0.00545291 -0.01725045 0.09764558
v 0.00569919 -0.01754308 0.09663713
v 0.00643470 -0.01719663 0.09663713
v 0.00640309 -0.01717982 0.09700009
v 0.00583398 -0.01727400 0.09738416
v 0.01255013 -0.01317714 0.09757578
v 0.01232715 -0.01323096 0.09770873
v 0.01219069 -0.01317377 0.09791930
v 0.01198601 -0.01323432 0.09795652
v 0.01254347 -0.01244387 0.09827711
v 0.00325135 0.01525533 0.09667070
v 0.00661775 -0.01708900 0.09658727
v 0.00661775 -0.01708564 0.09663713
v 0.01291622 -0.01281723 0.09757578
v 0.01268492 -0.01295514 0.09769677
v 0.01243365 -0.01308968 0.09781809
v 0.01257676 -0.01284751 0.09794639
v 0.01241534 -0.01244387 0.09827711
v 0.01268159 -0.01257842 0.09806505
v 0.01281139 -0.01225215 0.09820565
v 0.01262834 -0.01225215 0.09828509
v 0.00335785 0.01516788 0.09683340
v 0.00363575 0.01528897 0.09663697
v 0.00363575 0.01531588 0.09658743
v 0.00363575 0.01517797 0.09684022
v 0.01281804 -0.01271296 0.09781776
v 0.01326401 -0.01244051 0.09755600
v 0.01304103 -0.01257842 0.09768713
v 0.01292621 -0.01247078 0.09794207
v 0.01238705 -0.01225215 0.09828509
v 0.01246027 -0.01188888 0.09828276
v 0.01305933 -0.01222860 0.09801270
v 0.01327067 -0.01209070 0.09792777
v 0.01332392 -0.01188888 0.09799492
v 0.01307431 -0.01188888 0.09816227
v 0.01622771 -0.00637595 0.09798045
v 0.01591819 -0.00680649 0.09802383
v 0.01525423 -0.00753303 0.09816111
v 0.01488980 -0.00789629 0.09822011
v 0.01265164 -0.01188888 0.09828276
v 0.00363575 0.01497952 0.09699976
v 0.00363575 0.01477098 0.09715980
v 0.00400018 0.01516788 0.09682924
v 0.00418156 0.01515779 0.09681894
v 0.00400018 0.01497952 0.09698314
v 0.01316916 -0.01233288 0.09779831
v 0.01654055 -0.00628849 0.09757379
v 0.01452704 -0.00825956 0.09822825
v 0.01615615 -0.00661813 0.09790152
v 0.01644570 -0.00607995 0.09778900
v 0.01626265 -0.00607995 0.09801420
v 0.01601471 -0.00647686 0.09805192
v 0.01561700 -0.00680649 0.09815330
v 0.01525423 -0.00716976 0.09819368
v 0.01634419 -0.00099756 0.09799259
v 0.00363575 0.01458934 0.09725121
v 0.00400018 0.01476425 0.09715416
v 0.00400018 0.01457925 0.09725669
v 0.00436295 0.01473734 0.09712939
v 0.00472571 0.01450862 0.09724224
v 0.00498531 0.01446489 0.09721016
v 0.00495369 0.01481807 0.09684686
v 0.00574412 0.01448843 0.09663697
v 0.00715857 0.01374172 0.09663697
v 0.00645301 0.01411844 0.09663697
v 0.00779091 0.01332799 0.09679069
v 0.00709866 0.01371144 0.09682659
v 0.00847651 0.01293782 0.09674814
v 0.00890417 0.01262164 0.09682143
v 0.00956647 0.01221464 0.09677291
v 0.00998581 0.01188838 0.09681612
v 0.01038352 0.01155538 0.09685218
v 0.01044842 0.01161256 0.09663697
v 0.01083448 0.01126947 0.09663697
v 0.01101420 0.01109793 0.09663697
v 0.01356022 0.00818169 0.09700026
v 0.01372329 0.00803706 0.09663697
v 0.01368169 0.00800006 0.09700026
v 0.01364176 0.00793951 0.09719869
v 0.01474004 0.00578345 0.09686299
v 0.01650561 0.00096678 0.09751512
v 0.01656385 0.00109123 0.09727348
v 0.01658382 0.00119887 0.09699611
v 0.01653556 0.00139059 0.09687229
v 0.01656218 -0.00607995 0.09760752
v 0.00472571 0.01388635 0.09738981
v 0.00436295 0.01425298 0.09736156
v 0.00400018 0.01425298 0.09735757
v 0.01657550 -0.00571668 0.09762547
v 0.01691330 -0.00092020 0.09757745
v 0.01597976 -0.00607995 0.09812123
v 0.01659047 -0.00099756 0.09796218
v 0.01657050 -0.00063429 0.09794207
v 0.01198768 0.00880396 0.09758957
v 0.00436295 0.01455571 0.09725985
v 0.00472571 0.01425298 0.09734561
v 0.00510013 0.01427653 0.09727547
v 0.00545124 0.01416553 0.09723974
v 0.00522659 0.01441107 0.09716230
v 0.00545124 0.01451871 0.09692780
v 0.00569586 0.01446489 0.09686265
v 0.00639809 0.01409153 0.09684570
v 0.00823189 0.01301182 0.09684387
v 0.00617844 0.01395362 0.09708767
v 0.00754796 0.01339527 0.09686880
v 0.00545124 0.01434716 0.09710928
v 0.00997583 0.01151838 0.09717459
v 0.01040848 0.01120220 0.09720667
v 0.01065144 0.01111475 0.09712557
v 0.01075960 0.01120557 0.09688342
v 0.01332226 0.00831624 0.09721813
v 0.01436729 0.00542018 0.09755966
v 0.01657050 0.00072460 0.09757877
v 0.01398455 0.00716925 0.09718191
v 0.01224062 0.00868623 0.09756913
v 0.01661876 0.00083560 0.09738184
v 0.01690332 -0.00002212 0.09726501
v 0.01669864 0.00081542 0.09700026
v 0.01698486 -0.00063429 0.09736322
v 0.01695158 -0.00102447 0.09739330
v 0.00508848 0.01388635 0.09738084
v 0.01691829 -0.00063429 0.09758326
v 0.01675189 -0.00063429 0.09776474
v 0.01690332 -0.00037529 0.09756315
v 0.01626764 0.00118205 0.09763943
v 0.01186953 0.00904277 0.09757113
v 0.01160328 0.00916723 0.09757079
v 0.00545124 0.01388635 0.09733547
v 0.01016886 0.01127620 0.09724256
v 0.00568421 0.01409826 0.09720118
v 0.00973620 0.01159238 0.09722013
v 0.00637646 0.01371481 0.09718756
v 0.00592716 0.01402426 0.09715050
v 0.01053162 0.01098693 0.09725703
v 0.01079122 0.01087257 0.09721731
v 0.01103084 0.01075148 0.09712490
v 0.01089772 0.01097684 0.09700425
v 0.01687669 -0.00013312 0.09750681
v 0.01673691 0.00045551 0.09736322
v 0.01693160 -0.00026093 0.09737685
v 0.01147348 0.00937577 0.09755484
v 0.01016886 0.01098357 0.09734212
v 0.00310565 -0.01898242 0.07904915
v 0.00164270 -0.01933564 0.07939100
v 0.00254583 -0.01913760 0.07884375
v 0.00307590 -0.01899089 0.07901396
v 0.00310565 -0.01898242 0.07896081
v 0.00167658 -0.01797578 0.07500724
v 0.00161478 -0.01797578 0.07500724
v 0.00109387 -0.01941529 0.07920715
v 0.00164270 -0.01933564 0.07936730
v 0.00136028 -0.01934581 0.07898451
v 0.00280583 -0.01862920 0.07607158
v 0.00292942 -0.01903229 0.07884160
v 0.00147151 -0.01936009 0.07923013
v 0.00137355 -0.01934774 0.07901396
v 0.00430769 -0.01828542 0.07702892
v 0.00448941 -0.01821086 0.07702892
v 0.00466610 -0.01805083 0.07664828
v 0.00182031 -0.01832731 0.07525861
v 0.00393096 -0.01793608 0.07570890
v 0.00209587 -0.01829753 0.07532252
v 0.00073088 -0.01944337 0.07920715
v 0.00336336 -0.01819779 0.07577928
v 0.00356523 -0.01829753 0.07602131
v 0.00418272 -0.01824620 0.07648238
v 0.00423948 -0.01826267 0.07666624
v 0.00399825 -0.01834232 0.07666624
v 0.00442075 -0.01818253 0.07666624
v 0.00466610 -0.01795690 0.07640984
v 0.00461712 -0.01756906 0.07568592
v 0.00417311 -0.01787434 0.07576420
v 0.00036789 -0.01943611 0.07920715
v 0.00430082 -0.01794189 0.07600623
v 0.00464871 -0.01794722 0.07636388
v 0.00436216 -0.01806584 0.07630140
v 0.00454297 -0.01788209 0.07612114
v 0.00439786 -0.01783464 0.07590712
v -0.00580583 0.01499173 0.09591073
v -0.00580583 0.01494918 0.09627395
v -0.00580583 0.01485146 0.09653627
v -0.00617025 0.01493499 0.09591073
v -0.00618434 0.01486723 0.09628804
v -0.00607166 0.01482625 0.09650300
v -0.00617025 0.01451893 0.09694853
v -0.00580583 0.01473011 0.09671760
v -0.00674770 0.01481364 0.09578521
v -0.00653820 0.01484674 0.09590810
v -0.00642025 0.01482467 0.09617643
v -0.00631462 0.01477582 0.09641845
v -0.00689559 0.01449213 0.09657084
v -0.00689559 0.01440072 0.09675217
v -0.00671073 0.01443224 0.09681662
v -0.00646954 0.01447165 0.09687562
v -0.00580583 0.01454887 0.09697898
v -0.00580583 0.01436920 0.09716068
v -0.00617025 0.01438339 0.09713024
v -0.00974058 0.01308002 0.09627395
v -0.00715438 0.01448268 0.09627395
v -0.00710685 0.01444958 0.09649004
v -0.00943601 0.01324865 0.09627395
v -0.00921066 0.01331642 0.09663699
v -0.00897476 0.01338734 0.09685966
v -0.00751529 0.01410128 0.09684387
v -0.00617025 0.01420057 0.09723302
v -0.00825118 0.01374825 0.09685157
v -0.00646954 0.01413280 0.09722099
v -0.00969129 0.01304220 0.09653232
v -0.01185672 0.01157492 0.09627395
v -0.01181975 0.01154498 0.09648196
v -0.01184264 0.01120456 0.09684594
v -0.00934094 0.01307687 0.09688728
v -0.00908567 0.01318404 0.09692993
v -0.00689559 0.01383651 0.09726384
v -0.00671073 0.01406976 0.09717947
v -0.00656637 0.01392477 0.09728545
v -0.00689559 0.01352761 0.09737508
v -0.00653292 0.01352761 0.09737884
v -0.01799564 -0.00081889 0.09591073
v -0.01203805 0.01141575 0.09627395
v -0.01219298 0.01120298 0.09650508
v -0.01195179 0.01132434 0.09661444
v -0.01208383 0.01108793 0.09674691
v -0.01219826 0.01084680 0.09684350
v -0.01196939 0.01097446 0.09690832
v -0.01174581 0.01075855 0.09715767
v -0.01150286 0.01083892 0.09720408
v -0.01162081 0.01063089 0.09722851
v -0.01706081 0.00190920 0.09761992
v -0.01706081 0.00154514 0.09764322
v -0.01799212 -0.00081889 0.09627958
v -0.01799388 -0.00063292 0.09591073
v -0.01222115 0.01123450 0.09627395
v -0.01244121 0.01071599 0.09672324
v -0.01326866 0.01009977 0.09614448
v -0.01253628 0.01082001 0.09648140
v -0.01324929 0.00971522 0.09681869
v -0.01255212 0.01047486 0.09683823
v -0.01197820 0.01063089 0.09709003
v -0.01185848 0.01051584 0.09720897
v -0.01693757 0.00251124 0.09756392
v -0.01705904 0.00226065 0.09758065
v -0.01725974 0.00213142 0.09755585
v -0.01728791 0.00190920 0.09756806
v -0.01732488 0.00154514 0.09757783
v -0.01797451 -0.00074481 0.09646580
v -0.01798332 -0.00062661 0.09628560
v -0.01798332 -0.00024679 0.09593628
v -0.01797804 -0.00002142 0.09583237
v -0.01778438 0.00154514 0.09627395
v -0.01310669 0.01028732 0.09591073
v -0.01327394 0.01010607 0.09591073
v -0.01506614 0.00790122 0.09609883
v -0.01321936 0.01004303 0.09638651
v -0.01287782 0.01043389 0.09643893
v -0.01329858 0.00977984 0.09663699
v -0.01469819 0.00789492 0.09681324
v -0.01436370 0.00829523 0.09684049
v -0.01477390 0.00765379 0.09688408
v -0.01455383 0.00775150 0.09694910
v -0.01450278 0.00735435 0.09710299
v -0.01436898 0.00723457 0.09719882
v -0.01717876 0.00237413 0.09750755
v -0.01729848 0.00254276 0.09726553
v -0.01734249 0.00226065 0.09737714
v -0.01761889 0.00177209 0.09721348
v -0.01750622 0.00154514 0.09744404
v -0.01797627 -0.00035238 0.09617248
v -0.01775797 0.00118266 0.09700002
v -0.01780903 0.00118266 0.09663699
v -0.01777558 0.00154514 0.09663699
v -0.01769459 0.00190920 0.09663699
v -0.01769811 0.00190920 0.09627395
v -0.01507142 0.00755292 0.09647294
v -0.01488657 0.00772471 0.09664319
v -0.01365069 0.00940159 0.09654266
v -0.01621048 0.00549622 0.09591073
v -0.01725270 0.00320469 0.09683560
v -0.01689004 0.00392178 0.09682865
v -0.01757840 0.00201479 0.09709660
v -0.01761537 0.00212354 0.09685458
v -0.01764530 0.00189975 0.09698536
v -0.01772276 0.00154514 0.09700002
v -0.01764178 0.00154514 0.09726252
v -0.01765762 0.00118266 0.09727699
v -0.01762417 0.00214876 0.09663699
v -0.01733545 0.00299823 0.09663699
v -0.01799998 -0.00099894 0.09627400
v -0.01798061 -0.00136124 0.09647921
v -0.01798237 -0.00099894 0.09648115
v -0.01799646 -0.00136124 0.09627400
v -0.01797180 -0.00158076 0.09646349
v -0.01700863 -0.00753467 0.09767889
v -0.01699982 -0.00717773 0.09775426
v -0.01797004 -0.00191273 0.09572680
v -0.01797004 -0.00191808 0.09591092
v -0.01797004 -0.00191451 0.09610473
v -0.01797709 -0.00171105 0.09624514
v -0.01689593 -0.00706172 0.09792072
v -0.01725690 -0.00672083 0.09721806
v -0.01712484 -0.00753467 0.09736298
v -0.01695756 -0.00781131 0.09761601
v -0.01775698 -0.00354041 0.09591092
v -0.01779044 -0.00317811 0.09627400
v -0.01689770 -0.00680828 0.09792352
v -0.01255900 -0.01356355 0.09721676
v -0.01232481 -0.01369205 0.09725165
v -0.01234066 -0.01334224 0.09734360
v -0.00209788 -0.01861973 0.09791555
v -0.01708258 -0.00789698 0.09699991
v -0.01700158 -0.00791840 0.09737375
v -0.01692411 -0.00811472 0.09725983
v -0.01684487 -0.00805047 0.09750188
v -0.01290764 -0.01318340 0.09719975
v -0.01259774 -0.01360460 0.09699991
v -0.01241989 -0.01378664 0.09699991
v -0.01223853 -0.01396868 0.09699991
v -0.01219274 -0.01392050 0.09720471
v -0.01197792 -0.01370454 0.09731992
v -0.01194271 -0.01405257 0.09722473
v -0.01179832 -0.01425067 0.09718210
v -0.00927152 -0.01571416 0.09718791
v -0.00896866 -0.01611038 0.09691184
v -0.00247470 -0.01865007 0.09766167
v -0.00220177 -0.01869112 0.09776029
v -0.00165591 -0.01897668 0.09756562
v -0.00144989 -0.01899810 0.09761278
v -0.00108540 -0.01901416 0.09763604
v -0.00108540 -0.01878750 0.09780487
v -0.00181262 -0.01861973 0.09791491
v -0.01696285 -0.00815577 0.09699991
v -0.01507347 -0.01062942 0.09683173
v -0.01362254 -0.01244629 0.09685111
v -0.01324220 -0.01278361 0.09716918
v -0.01314360 -0.01296566 0.09702877
v -0.01294110 -0.01322087 0.09699991
v -0.01262767 -0.01364207 0.09663728
v -0.01246039 -0.01382412 0.09663728
v -0.01151835 -0.01469686 0.09690753
v -0.01113448 -0.01500919 0.09686898
v -0.00850027 -0.01641022 0.09673612
v -0.00825904 -0.01647090 0.09689095
v -0.00751245 -0.01682428 0.09687050
v -0.00675881 -0.01717230 0.09685197
v -0.00271769 -0.01860367 0.09753892
v -0.00280750 -0.01863222 0.09729687
v -0.00417919 -0.01824494 0.09648675
v -0.00166119 -0.01897847 0.09736298
v -0.00144989 -0.01901773 0.09736298
v -0.00108540 -0.01905342 0.09736298
v -0.00072267 -0.01904985 0.09736298
v -0.00072267 -0.01900524 0.09760632
v -0.00072267 -0.01878750 0.09776417
v -0.00159428 -0.01861259 0.09790953
v -0.01443077 -0.01146290 0.09663728
v -0.01363135 -0.01245700 0.09663728
v -0.01348168 -0.01263905 0.09663728
v -0.01330031 -0.01285857 0.09663728
v -0.01314888 -0.01304062 0.09663728
v -0.01296751 -0.01325479 0.09663728
v -0.01328094 -0.01283715 0.09692713
v -0.01410501 -0.01186982 0.09663728
v -0.01280904 -0.01343683 0.09663728
v -0.01227903 -0.01399902 0.09663728
v -0.01190397 -0.01435419 0.09663728
v -0.01171204 -0.01453445 0.09663728
v -0.01153067 -0.01470400 0.09663728
v -0.01131057 -0.01488604 0.09663728
v -0.00853901 -0.01643342 0.09649407
v -0.00836645 -0.01650124 0.09662393
v -0.00782411 -0.01679929 0.09649106
v -0.00796146 -0.01669934 0.09662221
v -0.00775368 -0.01676181 0.09673311
v -0.00762866 -0.01685283 0.09662221
v -0.00682924 -0.01720443 0.09663706
v -0.00599461 -0.01751854 0.09682441
v -0.00384287 -0.01825743 0.09720083
v -0.00391330 -0.01828241 0.09699970
v -0.00415806 -0.01823422 0.09672879
v -0.00526210 -0.01787906 0.09645596
v -0.00035994 -0.01905342 0.09699970
v -0.00042509 -0.01898739 0.09757488
v -0.00710217 -0.01716516 0.09617450
v -0.00692433 -0.01722763 0.09628692
v -0.00604743 -0.01754174 0.09663706
v -0.00580620 -0.01763812 0.09663706
v -0.00521104 -0.01785229 0.09669800
v -0.00508602 -0.01792011 0.09660110
v -0.00018385 -0.01896776 0.09754107
v 0.01464131 -0.01268102 0.07920833
v 0.01474794 -0.01249962 0.07920833
v 0.01474459 -0.01248917 0.07884575
v 0.01471829 -0.01244779 0.07864361
v 0.01359656 -0.01095602 0.07543455
v 0.01325994 -0.01134892 0.07539288
v 0.01433051 -0.01278092 0.07832479
v 0.01225821 -0.01214016 0.07532828
v 0.01271341 -0.01178070 0.07533870
v 0.01404554 -0.01361270 0.07920833
v 0.01435155 -0.01316839 0.07907913
v 0.01444001 -0.01300997 0.07920208
v 0.01435155 -0.01316839 0.07901037
v 0.01431282 -0.01311405 0.07876864
v 0.01439554 -0.01287246 0.07856651
v 0.01453086 -0.01261414 0.07848524
v 0.01432669 -0.01313286 0.07884991
v 0.01363289 -0.01353662 0.07828728
v 0.01289846 -0.01171382 0.07539079
v 0.01397716 -0.01351698 0.07867488
v 0.01082664 -0.01324613 0.07531786
v 0.01146401 -0.01281645 0.07537204
v 0.01042786 -0.01358218 0.07533453
v 0.01387962 -0.01379410 0.07920833
v 0.01403263 -0.01360016 0.07891659
v 0.01371514 -0.01362147 0.07848316
v 0.01361233 -0.01388229 0.07867070
v 0.01328671 -0.01355084 0.07791012
v 0.01392600 -0.01367748 0.07884991
v 0.01383754 -0.01374102 0.07879365
v 0.01369792 -0.01393078 0.07920833
v 0.01369744 -0.01392952 0.07891243
v 0.01377204 -0.01382963 0.07884991
v 0.01367497 -0.01391782 0.07884991
v -0.01002844 0.01410578 0.07657783
v -0.01002471 0.01410296 0.07630293
v -0.01253647 0.01154290 0.07636867
v -0.01253647 0.01154290 0.07656588
v -0.00999176 0.01407967 0.07609974
v -0.01288651 0.01116852 0.07611766
v -0.01288651 0.01116852 0.07613360
v -0.00980027 0.01402062 0.07585073
v -0.01013973 0.01386757 0.07598419
v -0.01281314 0.01113076 0.07587662
v -0.01004585 0.01377879 0.07567144
v -0.01297355 0.01100020 0.07597424
v -0.00935574 0.01409855 0.07569535
v -0.00980027 0.01383904 0.07561965
v -0.00682843 0.01485897 0.07537264
v -0.01707167 0.00298472 0.07535022
v -0.01725603 0.00285558 0.07537216
v -0.01694202 0.00335982 0.07535420
v -0.01739702 0.00227079 0.07594058
v -0.01735290 0.00263360 0.07594058
v -0.01726959 0.00289002 0.07557759
v -0.01695040 0.00370480 0.07594058
v -0.01688607 0.00354861 0.07539210
v -0.01761244 -0.00127549 0.07642324
v -0.01760997 -0.00116112 0.07644517
v -0.01743966 0.00227079 0.07630356
v -0.01737607 0.00263360 0.07630356
v -0.01727945 0.00290970 0.07594058
v -0.01728388 0.00292015 0.07630356
v -0.01695410 0.00370726 0.07630356
v -0.01798166 -0.00027193 0.09552812
v -0.01797846 -0.00002166 0.09563781
v -0.01745371 0.00227079 0.07666656
v -0.01739036 0.00263360 0.07666656
v -0.01728684 0.00292200 0.07666656
v -0.01797846 -0.00002166 0.09572158
v -0.01618708 0.00540728 0.07570735
v -0.01334659 0.01025945 0.07566218
v -0.01510375 0.00760780 0.07630235
v -0.01508228 0.00756791 0.07601368
v -0.01505160 0.00753212 0.07577214
v -0.01512829 0.00728983 0.07570735
v -0.01618862 0.00541432 0.07594103
v -0.01508177 0.00793280 0.07775551
v -0.01507461 0.00791989 0.07739222
v -0.01506796 0.00790582 0.07718603
v -0.01328320 0.01049470 0.07569556
v -0.01295242 0.01088775 0.07571323
v -0.01471980 0.00829242 0.07630235
v -0.01470498 0.00826719 0.07610794
v -0.01497952 0.00811408 0.07775551
v -0.01497492 0.00810117 0.07739222
v -0.01477144 0.00837220 0.07702893
v -0.01474588 0.00833583 0.07666564
v -0.01461040 0.00847428 0.07630235
v -0.01442890 0.00877229 0.07630235
v -0.01329956 0.01052168 0.07594103
v -0.01317686 0.01070296 0.07594103
v -0.01479802 0.00841033 0.07775551
v -0.01479342 0.00839449 0.07739222
v -0.01394526 0.00968277 0.07848208
v -0.01407205 0.00950150 0.07848208
v -0.01437625 0.00904450 0.07811879
v 0.00528765 0.01516465 0.07503007
v 0.00436158 0.01560434 0.07524891
v 0.00472485 0.01555784 0.07530495
v 0.00492305 0.01553122 0.07536757
v 0.00542553 0.01522366 0.07519355
v 0.00569201 0.01518742 0.07530231
v 0.00645832 0.01484137 0.07528451
v 0.00000504 0.01627784 0.07535768
v 0.00290984 0.01597188 0.07528912
v 0.00327311 0.01592890 0.07533000
v 0.00349120 0.01589748 0.07537350
v 0.00036764 0.01632787 0.07557653
v 0.00036764 0.01626918 0.07536954
v 0.00073091 0.01625956 0.07538273
v 0.00095298 0.01625346 0.07539130
v 0.00218331 0.01618227 0.07553962
v 0.00237754 0.01625314 0.07575056
v -0.00001021 0.01715723 0.07884347
v 0.00000504 0.01715691 0.07884347
v 0.00000504 0.01710046 0.07848092
v 0.00182004 0.01635930 0.07593974
v 0.00145744 0.01638175 0.07593974
v 0.00251807 0.01627784 0.07595886
v 0.00218331 0.01642248 0.07630230
v 0.00218331 0.01647860 0.07666551
v 0.00036764 0.01711009 0.07884347
v 0.00145744 0.01629035 0.07562597
v 0.00182004 0.01627720 0.07567278
v 0.00218331 0.01626212 0.07572155
v 0.00218331 0.01632723 0.07593974
v 0.01761662 0.00318355 0.07902879
v 0.01774519 0.00263268 0.07884396
v 0.01761662 0.00318355 0.07900482
v 0.01744528 0.00372141 0.07884396
v 0.01798122 0.00137911 0.07903510
v 0.01799800 0.00118175 0.07907673
v 0.01732347 0.00400227 0.07884396
v 0.01619014 0.00291679 0.07500491
v 0.01622126 0.00263268 0.07497904
v 0.01781611 0.00226941 0.07884396
v 0.01777280 0.00227049 0.07856641
v 0.01775927 0.00227049 0.07848062
v 0.01764260 0.00290812 0.07860363
v 0.01764964 0.00301656 0.07886793
v 0.01759740 0.00315102 0.07876322
v 0.01729153 0.00395564 0.07858849
v 0.01835259 -0.00259737 0.07870140
v 0.01798122 0.00137911 0.07899283
v 0.01623886 0.00302089 0.07518531
v 0.01765397 0.00227049 0.07821253
v 0.01769403 0.00190722 0.07813557
v 0.01632683 0.00263268 0.07521370
v 0.01768104 -0.00099572 0.07743980
v 0.01660969 -0.00353754 0.07494687
v 0.01835259 -0.00265484 0.07870140
v 0.01782721 0.00190722 0.07848062
v 0.01733267 0.00371599 0.07847242
v 0.01729965 0.00391010 0.07856641
v 0.01835259 -0.00259737 0.07863706
v 0.01799800 0.00118175 0.07893480
v 0.01725824 0.00210566 0.07719631
v 0.01835259 -0.00265484 0.07863706
v -0.00242089 0.01590654 0.07502281
v -0.00232940 0.01590654 0.07502281
v -0.00635066 0.01516212 0.07539462
v -0.00353182 0.01590467 0.07536678
v -0.00326382 0.01592926 0.07532286
v -0.00290108 0.01596162 0.07526284
v -0.00254029 0.01597749 0.07518490
v -0.00092516 0.01625261 0.07539215
v -0.00072206 0.01626070 0.07538101
v -0.00035932 0.01627501 0.07536121
v -0.00001021 0.01627781 0.07535750
v -0.00570176 0.01591587 0.07739165
v -0.00562778 0.01588973 0.07720421
v -0.00544219 0.01597874 0.07739165
v -0.00072206 0.01707451 0.07848050
v -0.00035932 0.01712431 0.07848050
v -0.00600674 0.01590716 0.07785255
v -0.00582894 0.01595633 0.07774058
v -0.00544219 0.01605281 0.07775481
v -0.00072206 0.01711964 0.07884365
v -0.00035932 0.01716259 0.07884365
v -0.00600674 0.01590716 0.07804434
v -0.00583738 0.01595820 0.07814642
v -0.00544219 0.01607024 0.07811796
v -0.00460316 0.01626350 0.07821633
v -0.00110361 0.01702877 0.07919320
v -0.00072206 0.01710781 0.07920680
v -0.00435268 0.01632605 0.07848050
v -0.00460835 0.01626785 0.07848050
v -0.01767240 -0.00530941 0.07811857
v -0.01726293 -0.00592883 0.07674049
v -0.01691684 -0.00632559 0.07557842
v -0.01776581 -0.00462913 0.07848259
v -0.01775409 -0.00499122 0.07811857
v -0.01763618 -0.00526164 0.07775655
v -0.01775758 -0.00499122 0.07848259
v -0.01730285 -0.00574701 0.07663848
v -0.01723392 -0.00588876 0.07649847
v -0.01724873 -0.00555517 0.07609446
v -0.01688721 -0.00627782 0.07539041
v -0.01761396 -0.00136101 0.07640647
v -0.01775676 -0.00462913 0.07811857
v -0.01773269 -0.00462913 0.07775655
v -0.01761890 -0.00416688 0.07641247
v -0.01770203 -0.00499122 0.07775655
v -0.01761417 -0.00520232 0.07753653
v -0.01726848 -0.00563452 0.07630447
v -0.01727548 -0.00534716 0.07596044
v -0.01725614 -0.00522235 0.07574243
v -0.01728947 -0.00411988 0.07532641
v -0.01729112 -0.00390262 0.07529040
v -0.01741663 -0.00208675 0.07557842
v -0.01762054 -0.00390262 0.07638647
v -0.01762116 -0.00451973 0.07676249
v -0.01762096 -0.00486565 0.07714051
v -0.01764133 -0.00498891 0.07740653
v -0.01731005 -0.00208675 0.07534041
v -0.01476434 -0.01070429 0.07607662
v -0.01467380 -0.01094684 0.07616542
v -0.01481001 -0.01081533 0.07629281
v -0.01473853 -0.01104175 0.07640864
v 0.01430487 0.01001017 0.07884372
v 0.01439769 0.00982899 0.07884372
v 0.01437571 0.00976526 0.07857743
v 0.01473689 0.00904303 0.07855298
v 0.01432720 0.00969279 0.07833514
v 0.01477109 0.00875065 0.07811774
v 0.01473654 0.00867692 0.07785901
v 0.01256246 0.01012138 0.07501245
v 0.01365962 0.00867817 0.07500178
v 0.01290550 0.00972840 0.07502356
v 0.01551196 0.00484900 0.07481550
v 0.01403337 0.00800968 0.07498755
v 0.01549207 0.00475216 0.07463189
v 0.01538877 0.00475216 0.07463189
v 0.01541931 0.00461318 0.09642414
v 0.01508922 0.00538948 0.09648997
v 0.01511942 0.00521190 0.09658727
v 0.01545589 0.00468059 0.09618231
v 0.01395048 0.00764229 0.09658727
v 0.01522789 0.00517638 0.09627246
v 0.01511431 0.00544022 0.09627246
v 0.01548056 0.00474292 0.09591042
v 0.01548822 0.00483643 0.09551404
v 0.01400025 0.00756981 0.09652144
v 0.01402407 0.00760460 0.09627246
v 0.01392580 0.00768723 0.09658727
v 0.01475274 0.00616941 0.09627246
v 0.01438989 0.00689498 0.09627246
v 0.01513388 0.00555040 0.09588037
v 0.01507560 0.00572508 0.09573871
v 0.01477486 0.00627814 0.09588467
v 0.01519216 0.00553952 0.09554695
v 0.01543717 0.00499589 0.09537095
v 0.01471403 0.00645282 0.09574729
v 0.01391560 0.00778581 0.09627246
v 0.01509262 0.00575480 0.09554695
v 0.01510963 0.00578380 0.09518349
v -0.00055579 -0.01933800 0.07868287
v -0.00055579 -0.01933800 0.07865176
v -0.00651136 -0.01760471 0.07848146
v -0.00616815 -0.01772533 0.07848146
v -0.00568137 -0.01789621 0.07848146
v -0.00566975 -0.01789213 0.07811793
v -0.00276887 -0.01861867 0.07630277
v -0.00273332 -0.01861145 0.07611199
v -0.00095232 -0.01898085 0.07609071
v -0.00072192 -0.01900315 0.07604323
v -0.00035889 -0.01905530 0.07630277
v -0.00009498 -0.01900190 0.07607843
v -0.00616815 -0.01771025 0.07811793
v -0.00585092 -0.01783087 0.07811793
v -0.00108496 -0.01871668 0.07561092
v -0.00035889 -0.01901886 0.07603422
v -0.00529782 -0.01752744 0.07502060
v -0.00362621 -0.01837178 0.07630277
v -0.00542772 -0.01754974 0.07524822
v -0.00309567 -0.01825116 0.07538822
v -0.00562462 -0.01751959 0.07539231
v 0.01011366 0.01200393 0.09627334
v 0.01050029 0.01166093 0.09627334
v 0.01106580 0.01115392 0.09627334
v 0.00969363 0.01231155 0.09652936
v 0.01007177 0.01196605 0.09657355
v 0.01045614 0.01162222 0.09658727
v 0.01084107 0.01127714 0.09658727
v 0.01102278 0.01110730 0.09658727
v 0.00927587 0.01262625 0.09646688
v 0.00952154 0.01238398 0.09658727
v 0.00966363 0.01228907 0.09658727
v 0.00792974 0.01340632 0.09627334
v 0.00861639 0.01303252 0.09627334
v 0.00787200 0.01337968 0.09654765
v 0.00716554 0.01375016 0.09658727
v -0.01153710 -0.01397823 0.07534846
v -0.01166103 -0.01411273 0.07554717
v -0.01197766 -0.01397823 0.07567410
v -0.01216129 -0.01389047 0.07575630
v -0.00931239 -0.01572725 0.07571728
v -0.01002650 -0.01536428 0.07573081
v -0.01178496 -0.01424819 0.07576150
v -0.01199277 -0.01415948 0.07590507
v -0.01222174 -0.01395772 0.07593940
v -0.01434368 -0.01316930 0.07829069
v -0.01440716 -0.01295610 0.07814867
v -0.00926176 -0.01643172 0.07792967
v -0.01003028 -0.01609260 0.07820433
v -0.01179327 -0.01461116 0.07648977
v -0.01155901 -0.01468127 0.07630250
v -0.01174038 -0.01457491 0.07630250
v -0.01148269 -0.01464359 0.07608922
v -0.01188244 -0.01432307 0.07600339
v -0.01212426 -0.01422100 0.07618129
v -0.01399985 -0.01354801 0.07826832
v -0.01402856 -0.01357377 0.07848056
v -0.01402932 -0.01357424 0.07848732
v -0.01411244 -0.01346884 0.07848732
v -0.01424015 -0.01330524 0.07848732
v -0.01434368 -0.01316930 0.07838744
v -0.01442907 -0.01302860 0.07848732
v -0.01443285 -0.01302192 0.07848732
v -0.01471245 -0.01248152 0.07825063
v -0.01460590 -0.01260887 0.07812475
v -0.00930710 -0.01645318 0.07811746
v -0.00948846 -0.01635779 0.07811746
v -0.01009224 -0.01612647 0.07848056
v -0.01078293 -0.01574442 0.07848056
v -0.01148949 -0.01537096 0.07856847
v -0.01072928 -0.01571533 0.07826623
v -0.01181292 -0.01498987 0.07788806
v -0.01218774 -0.01427776 0.07642370
v -0.01199277 -0.01438031 0.07630250
v -0.01190662 -0.01507000 0.07848056
v -0.01396660 -0.01361908 0.07848732
v -0.01361521 -0.01388951 0.07865066
v -0.01361521 -0.01388951 0.07866523
v -0.01402176 -0.01356709 0.07870528
v -0.01423486 -0.01331144 0.07849720
v -0.01443739 -0.01301429 0.07849720
v -0.00939249 -0.01648419 0.07848056
v -0.00957385 -0.01639881 0.07848056
v -0.01008771 -0.01612933 0.07848732
v -0.01166178 -0.01524933 0.07884365
v -0.01375879 -0.01376980 0.07851021
v -0.00939551 -0.01648276 0.07848732
v -0.00957385 -0.01639881 0.07848732
v -0.00217496 0.01534055 0.09554621
v -0.00203414 0.01553799 0.09439053
v 0.00710927 -0.01680865 0.09630722
v 0.00762939 -0.01696157 0.07993495
v 0.00496861 -0.01792722 0.07674799
v 0.00758533 -0.01688001 0.07775615
v 0.00762348 -0.01690133 0.07811859
v 0.00745799 -0.01534580 0.07502744
v 0.00475261 -0.01800414 0.07664176
v 0.00751333 -0.01683136 0.07750620
v 0.01002958 -0.01391909 0.07535864
v 0.00963197 -0.01425457 0.07538988
v 0.00784056 -0.01535924 0.07536489
v 0.00491380 -0.01716035 0.07538988
v 0.00381668 0.01552479 0.09609250
v 0.00365162 0.01554868 0.09594450
v 0.00363505 0.01553605 0.09611716
v 0.00363505 0.01545613 0.09629853
v 0.00337785 0.01553972 0.09612442
v 0.00333741 0.01530295 0.09658727
v 0.01691490 -0.00817232 0.07941855
v 0.01654866 -0.00921728 0.07909086
v 0.01654866 -0.00921728 0.07898015
v 0.01685365 -0.00834136 0.07920726
v 0.01691143 -0.00816005 0.07920726
v 0.01621239 -0.00958877 0.07859109
v 0.01726247 -0.00482272 0.07574239
v 0.01463313 -0.00825889 0.07452839
v 0.01477867 -0.00855199 0.07458659
v 0.01696661 -0.00462845 0.07529829
v 0.01714821 -0.00462845 0.07554185
v 0.01726856 -0.00462845 0.07572341
v 0.01482689 -0.00825889 0.07452839
v 0.01678630 -0.00462845 0.07511736
v 0.01583049 -0.00547641 0.07464352
v 0.01680977 -0.00426581 0.07505853
v 0.01697920 -0.00426581 0.07524008
v 0.01726421 -0.00441373 0.07572784
v 0.01583049 -0.00564410 0.07464352
v 0.00944591 0.01302532 0.07499876
v 0.00965220 0.01299404 0.07501879
v 0.01003333 0.01266776 0.07500288
v 0.00716573 0.01449168 0.07528454
v 0.00921036 0.01549046 0.07870566
v 0.00933618 0.01556165 0.07894783
v 0.01033179 0.01478452 0.07867856
v 0.01144372 0.01407372 0.07866029
v 0.01220744 0.01050732 0.07501584
v 0.00896822 0.01555680 0.07863024
v 0.00908673 0.01560749 0.07883352
v 0.00908307 0.01563662 0.07920710
v 0.00933618 0.01555842 0.07920710
v 0.01007795 0.01519924 0.07944810
v 0.01006917 0.01519816 0.07920710
v 0.01025059 0.01509300 0.07920710
v 0.01000846 0.01517282 0.07900087
v 0.01109624 0.01444854 0.07899380
v 0.01147591 0.01409961 0.07883352
v 0.01171439 0.01398474 0.07920710
v 0.01188776 0.01380299 0.07920710
v 0.01183436 0.01375014 0.07895726
v 0.01073633 0.01481472 0.07942747
v 0.01073633 0.01481472 0.07934263
v 0.01054613 0.01489831 0.07921594
v 0.01112843 0.01447496 0.07920710
v 0.01147737 0.01410123 0.07884413
v 0.01191922 0.01381809 0.07957007
v 0.01153297 0.01414545 0.07920710
v 0.01366831 0.01123592 0.07920710
v 0.01363539 0.01118630 0.07899969
v 0.01399530 0.01045986 0.07863731
v 0.01170780 0.01399984 0.07957007
v 0.01130985 0.01432719 0.07920710
v 0.01210064 0.01355222 0.07957007
v 0.01366904 0.01124077 0.07946460
v 0.01380364 0.01098676 0.07920710
v 0.01402749 0.01051649 0.07884413
v 0.01402676 0.01051380 0.07883352
v 0.01403700 0.01054885 0.07920710
v 0.00709605 -0.01680112 0.09650034
f 791 766 172
f 71 780 779
f 787 766 791
f 785 784 787
f 71 779 565
f 557 143 565
f 51 780 71
f 71 57 51
f 417 787 784
f 700 811 704
f 803 811 812
f 118 139 150
f 593 588 592
f 592 588 587
f 301 277 491
f 492 484 491
f 241 329 242
f 329 241 254
f 236 227 235
f 302 277 301
f 301 491 302
f 480 479 274
f 832 101 833
f 832 825 101
f 100 825 694
f 101 825 100
f 100 102 101
f 695 692 830
f 830 692 825
f 658 667 833
f 555 553 544
f 801 799 511
f 760 204 759
f 203 204 760
f 327 334 324
f 341 362 363
f 355 334 734
f 687 707 623
f 687 786 173
f 623 786 687
f 71 565 109
f 109 565 143
f 148 143 164
f 148 146 143
f 404 675 371
f 371 403 404
f 404 407 752
f 370 403 371
f 173 172 184
f 431 432 419
f 432 787 419
f 422 787 432
f 24 32 33
f 40 31 30
f 32 31 40
f 781 779 780
f 781 782 779
f 781 784 785
f 781 417 784
f 779 782 783
f 783 781 785
f 782 781 783
f 30 437 38
f 437 51 38
f 528 588 593
f 528 529 588
f 810 811 803
f 803 809 810
f 536 535 534
f 534 533 527
f 826 830 825
f 596 601 597
f 597 601 600
f 600 592 597
f 600 601 598
f 598 592 600
f 485 494 461
f 623 624 629
f 264 263 261
f 222 448 233
f 276 277 259
f 276 454 277
f 277 454 508
f 257 276 259
f 259 245 257
f 229 241 112
f 250 263 264
f 250 236 235
f 256 479 478
f 256 243 312
f 472 479 480
f 480 473 472
f 480 274 481
f 474 473 481
f 481 473 480
f 477 302 491
f 277 302 303
f 273 274 483
f 483 274 479
f 483 256 273
f 479 256 483
f 694 825 693
f 825 692 693
f 833 101 668
f 668 658 833
f 101 658 668
f 667 658 657
f 561 563 571
f 566 569 561
f 561 569 563
f 552 560 553
f 566 561 552
f 552 561 560
f 560 561 548
f 642 640 645
f 645 646 642
f 511 799 798
f 798 646 511
f 164 143 545
f 803 799 802
f 799 801 802
f 547 665 544
f 638 640 642
f 642 829 638
f 818 825 827
f 827 832 833
f 825 832 827
f 218 221 209
f 599 592 598
f 593 592 599
f 599 760 593
f 599 203 760
f 133 134 96
f 133 160 161
f 161 134 133
f 161 160 135
f 135 134 161
f 145 110 118
f 325 324 334
f 355 356 336
f 337 326 336
f 337 336 338
f 338 326 337
f 728 716 727
f 716 726 727
f 713 714 710
f 731 730 355
f 716 730 731
f 729 716 728
f 729 730 716
f 602 734 334
f 633 716 717
f 612 734 604
f 612 632 633
f 612 622 623
f 612 710 630
f 623 707 612
f 707 710 612
f 686 184 177
f 392 364 363
f 748 392 728
f 364 392 748
f 347 348 333
f 143 146 114
f 135 139 103
f 103 100 135
f 102 100 103
f 103 649 102
f 673 404 752
f 169 5 168
f 177 169 176
f 171 765 762
f 772 172 766
f 772 184 172
f 766 195 772
f 182 764 765
f 182 171 181
f 765 171 182
f 766 770 771
f 771 195 766
f 202 195 201
f 185 189 177
f 762 27 26
f 34 33 32
f 24 33 34
f 34 25 24
f 378 25 34
f 34 354 378
f 333 354 34
f 34 42 333
f 55 72 329
f 117 139 118
f 572 565 779
f 779 783 572
f 572 783 785
f 39 40 30
f 30 38 39
f 765 764 445
f 762 765 445
f 780 51 415
f 51 414 415
f 415 781 780
f 423 51 437
f 426 415 414
f 514 521 808
f 808 521 527
f 527 533 808
f 533 534 808
f 808 534 535
f 808 535 536
f 808 809 803
f 536 809 808
f 511 519 512
f 588 529 530
f 530 529 536
f 536 534 530
f 540 534 527
f 804 799 803
f 804 805 799
f 814 804 803
f 805 804 814
f 818 805 817
f 817 825 818
f 817 826 825
f 799 805 800
f 800 805 806
f 800 798 799
f 646 798 800
f 819 805 818
f 819 829 642
f 643 819 642
f 805 819 643
f 159 160 133
f 159 150 139
f 159 139 135
f 135 160 159
f 500 504 503
f 503 504 494
f 488 497 494
f 464 629 624
f 464 624 613
f 623 629 464
f 235 246 247
f 247 246 245
f 249 250 235
f 283 264 282
f 264 261 282
f 282 281 283
f 261 281 282
f 259 277 278
f 245 246 234
f 234 222 233
f 235 227 234
f 234 246 235
f 277 508 509
f 509 506 277
f 510 506 509
f 233 448 244
f 448 257 244
f 244 257 245
f 244 234 233
f 245 234 244
f 454 276 451
f 451 257 448
f 459 495 494
f 449 448 589
f 461 494 458
f 494 495 458
f 587 588 576
f 494 504 505
f 498 491 277
f 277 506 498
f 230 221 228
f 111 241 242
f 111 112 241
f 242 110 111
f 111 145 120
f 110 145 111
f 240 241 229
f 240 238 241
f 239 230 227
f 285 286 264
f 236 250 237
f 227 236 237
f 237 238 227
f 314 270 312
f 295 274 273
f 310 302 311
f 311 481 310
f 310 481 297
f 297 481 274
f 490 491 484
f 490 477 491
f 288 303 302
f 283 281 288
f 288 281 303
f 265 252 264
f 811 700 820
f 820 700 695
f 695 830 820
f 101 102 659
f 659 658 101
f 164 545 141
f 544 665 666
f 651 108 655
f 655 665 662
f 562 561 571
f 562 548 561
f 571 563 562
f 553 560 559
f 560 548 559
f 559 646 553
f 559 548 646
f 544 553 556
f 553 568 556
f 556 547 544
f 637 547 556
f 556 568 646
f 553 646 567
f 567 568 553
f 646 568 567
f 542 552 553
f 542 141 545
f 570 569 566
f 557 545 546
f 546 143 557
f 546 545 143
f 517 802 801
f 517 801 511
f 833 667 670
f 636 638 829
f 640 638 636
f 208 205 204
f 209 205 208
f 208 218 209
f 598 601 211
f 601 596 211
f 448 222 211
f 211 226 227
f 694 693 698
f 695 96 97
f 97 96 134
f 134 98 97
f 99 134 135
f 99 98 134
f 135 100 99
f 118 150 151
f 151 145 118
f 704 811 703
f 327 324 328
f 328 321 327
f 324 321 328
f 335 325 334
f 326 325 335
f 335 336 326
f 335 334 355
f 355 336 335
f 317 325 326
f 317 323 318
f 317 326 323
f 324 325 317
f 363 389 390
f 363 362 388
f 388 389 363
f 362 361 749
f 749 729 728
f 749 388 362
f 389 388 749
f 749 390 389
f 362 341 340
f 745 742 740
f 726 742 745
f 631 716 633
f 631 710 716
f 630 710 631
f 633 632 631
f 631 612 630
f 632 612 631
f 743 726 725
f 725 744 743
f 604 734 603
f 734 602 603
f 614 471 613
f 472 471 614
f 735 612 633
f 734 612 735
f 633 717 735
f 716 734 735
f 735 717 716
f 676 672 675
f 184 686 685
f 173 184 685
f 681 197 672
f 187 197 681
f 681 686 187
f 713 710 709
f 709 708 713
f 709 710 707
f 707 708 709
f 740 742 720
f 720 742 726
f 720 726 743
f 743 744 720
f 737 738 719
f 687 691 712
f 712 723 713
f 712 720 721
f 719 720 712
f 713 708 712
f 707 687 712
f 712 708 707
f 391 392 363
f 728 392 391
f 391 749 728
f 363 390 391
f 390 749 391
f 740 364 755
f 755 748 740
f 364 748 755
f 367 348 366
f 348 347 366
f 364 394 365
f 365 347 364
f 365 366 347
f 144 109 143
f 143 114 144
f 144 114 109
f 672 197 671
f 197 373 671
f 675 672 671
f 350 348 369
f 369 370 350
f 350 370 371
f 413 3 11
f 8 9 3
f 675 404 674
f 404 673 674
f 402 404 403
f 403 370 402
f 5 3 4
f 4 168 5
f 187 686 174
f 168 4 174
f 174 4 3
f 682 686 177
f 177 176 682
f 682 174 686
f 176 174 682
f 181 171 178
f 178 169 177
f 169 178 170
f 170 178 171
f 177 189 190
f 421 422 432
f 432 435 421
f 421 435 436
f 766 787 421
f 787 422 421
f 198 190 189
f 177 184 186
f 184 772 186
f 772 185 186
f 167 26 17
f 17 16 167
f 167 171 762
f 762 26 167
f 167 170 171
f 167 16 5
f 167 5 169
f 169 170 167
f 838 761 30
f 30 28 838
f 18 26 27
f 27 28 18
f 17 26 18
f 187 174 1
f 353 25 378
f 378 354 353
f 353 354 333
f 333 352 353
f 406 3 413
f 32 40 41
f 41 34 32
f 40 39 41
f 44 56 57
f 45 34 44
f 54 55 329
f 329 323 54
f 54 323 333
f 333 42 54
f 72 55 64
f 146 148 147
f 148 117 147
f 78 115 79
f 79 117 118
f 118 110 79
f 79 110 242
f 45 44 62
f 62 60 76
f 444 27 762
f 762 445 444
f 444 445 437
f 444 437 30
f 30 761 444
f 430 427 417
f 417 426 430
f 416 426 417
f 415 426 416
f 417 781 416
f 781 415 416
f 424 426 414
f 51 423 424
f 423 426 424
f 443 442 446
f 770 435 441
f 441 432 431
f 441 435 432
f 418 419 787
f 787 420 418
f 418 420 419
f 787 417 429
f 429 420 787
f 420 429 428
f 417 427 428
f 428 429 417
f 514 808 807
f 802 517 807
f 803 802 807
f 807 808 803
f 527 521 520
f 520 519 527
f 520 512 519
f 527 519 526
f 531 530 534
f 534 540 531
f 531 532 588
f 588 530 531
f 826 817 824
f 805 814 815
f 823 824 815
f 829 819 828
f 818 827 828
f 828 819 818
f 806 805 641
f 805 643 641
f 646 800 641
f 641 800 806
f 642 646 641
f 641 643 642
f 150 159 158
f 158 166 150
f 153 166 158
f 120 145 152
f 152 166 153
f 705 700 704
f 704 703 705
f 133 96 95
f 95 96 695
f 500 503 501
f 494 497 502
f 502 503 494
f 502 501 503
f 489 488 494
f 484 488 489
f 489 464 484
f 493 484 492
f 493 486 484
f 500 501 493
f 497 488 487
f 487 486 497
f 487 488 484
f 484 486 487
f 469 490 484
f 477 490 469
f 467 473 474
f 494 485 465
f 465 485 461
f 466 464 613
f 613 471 466
f 473 467 466
f 466 467 464
f 466 472 473
f 466 471 472
f 262 261 263
f 263 250 262
f 245 261 258
f 258 247 245
f 261 262 258
f 258 262 247
f 277 303 298
f 259 278 279
f 277 281 300
f 300 278 277
f 276 257 275
f 275 451 276
f 257 451 275
f 453 459 494
f 494 505 453
f 453 505 504
f 453 449 452
f 453 506 510
f 510 509 453
f 453 508 454
f 453 509 508
f 452 458 456
f 461 458 575
f 591 596 597
f 591 592 587
f 597 592 591
f 499 498 506
f 492 491 499
f 491 498 499
f 500 493 499
f 499 493 492
f 210 205 209
f 209 221 219
f 219 210 209
f 204 205 777
f 777 759 204
f 760 759 777
f 777 528 593
f 593 760 777
f 49 219 221
f 112 111 80
f 229 112 80
f 231 240 229
f 238 240 231
f 229 221 231
f 227 238 231
f 231 239 227
f 221 230 231
f 230 239 231
f 284 264 283
f 283 285 284
f 284 285 264
f 238 237 251
f 251 237 250
f 241 238 251
f 251 252 241
f 264 252 251
f 251 250 264
f 316 321 324
f 324 317 316
f 318 323 309
f 272 256 312
f 273 256 272
f 294 295 273
f 481 311 482
f 302 477 482
f 482 311 302
f 310 297 296
f 274 295 296
f 296 297 274
f 267 288 289
f 267 285 283
f 286 285 267
f 264 286 267
f 267 265 264
f 811 820 821
f 823 815 821
f 830 826 821
f 821 820 830
f 656 665 655
f 656 666 665
f 544 666 656
f 655 108 656
f 102 660 652
f 652 659 102
f 652 657 658
f 658 659 652
f 102 649 654
f 654 660 102
f 655 662 654
f 667 657 661
f 657 652 661
f 661 652 660
f 648 651 649
f 663 654 662
f 649 103 104
f 136 103 139
f 139 117 136
f 796 562 563
f 563 569 796
f 792 787 791
f 797 792 791
f 794 792 797
f 639 556 640
f 637 556 639
f 640 636 639
f 639 636 637
f 640 556 644
f 644 556 646
f 644 645 640
f 646 645 644
f 553 555 554
f 554 542 553
f 554 555 544
f 550 542 545
f 511 514 515
f 665 547 669
f 547 670 669
f 669 670 667
f 667 663 669
f 669 662 665
f 669 663 662
f 222 234 232
f 232 226 222
f 232 234 227
f 227 226 232
f 203 599 206
f 204 203 206
f 206 599 598
f 598 211 206
f 595 596 589
f 595 211 596
f 222 226 225
f 225 211 222
f 226 211 225
f 227 230 224
f 224 230 228
f 224 213 211
f 228 216 224
f 214 213 224
f 697 698 693
f 697 693 692
f 98 698 697
f 697 97 98
f 98 99 699
f 694 698 699
f 699 698 98
f 699 100 694
f 699 99 100
f 356 749 379
f 379 749 386
f 730 729 750
f 729 749 750
f 750 749 356
f 750 356 355
f 355 730 750
f 386 749 380
f 383 749 384
f 356 379 357
f 357 379 386
f 357 336 356
f 386 380 357
f 383 384 357
f 357 384 385
f 330 340 341
f 326 338 330
f 323 326 330
f 330 331 323
f 339 330 338
f 340 330 339
f 339 361 362
f 362 340 339
f 333 323 332
f 323 331 332
f 363 364 345
f 740 748 747
f 747 745 740
f 747 756 745
f 747 748 728
f 715 710 714
f 714 725 715
f 715 725 726
f 715 726 716
f 716 710 715
f 744 725 724
f 713 723 724
f 724 714 713
f 724 725 714
f 355 734 751
f 479 472 605
f 472 614 605
f 478 479 605
f 605 256 478
f 243 256 605
f 312 243 605
f 683 673 752
f 752 691 683
f 689 691 687
f 687 678 689
f 690 678 687
f 690 687 173
f 173 685 690
f 678 690 679
f 672 678 679
f 672 676 677
f 677 678 672
f 691 689 688
f 688 689 678
f 688 677 676
f 678 677 688
f 740 719 739
f 739 738 740
f 719 738 739
f 752 407 757
f 393 394 364
f 393 364 740
f 741 719 740
f 740 720 741
f 741 720 719
f 721 720 722
f 722 712 721
f 723 712 722
f 722 724 723
f 722 720 744
f 744 724 722
f 736 691 752
f 738 737 736
f 718 737 719
f 719 712 718
f 718 736 737
f 691 736 718
f 351 350 373
f 351 352 333
f 333 350 351
f 333 348 349
f 349 350 333
f 348 350 349
f 371 675 372
f 372 350 371
f 675 671 372
f 372 671 373
f 373 350 372
f 24 25 12
f 413 11 12
f 684 674 673
f 673 683 684
f 684 676 675
f 675 674 684
f 684 683 691
f 691 688 684
f 684 688 676
f 366 365 397
f 365 396 397
f 367 366 397
f 397 396 398
f 369 348 368
f 368 400 369
f 368 348 367
f 367 397 368
f 368 397 398
f 399 368 398
f 400 368 399
f 400 399 409
f 404 402 412
f 412 402 411
f 411 402 410
f 410 402 400
f 400 409 410
f 410 412 411
f 410 409 404
f 404 412 410
f 369 400 401
f 400 402 401
f 401 370 369
f 401 402 370
f 169 168 175
f 168 174 175
f 169 175 179
f 179 175 174
f 5 16 7
f 7 8 3
f 7 16 17
f 17 18 7
f 764 182 193
f 768 445 764
f 192 178 177
f 769 435 770
f 436 435 769
f 769 770 766
f 766 436 769
f 434 436 766
f 766 421 434
f 434 421 436
f 195 202 196
f 196 202 201
f 201 198 196
f 189 185 196
f 196 198 189
f 196 772 195
f 196 185 772
f 188 185 177
f 177 186 188
f 188 186 185
f 37 28 27
f 37 838 28
f 761 838 37
f 21 18 28
f 30 31 21
f 21 28 30
f 24 29 21
f 21 32 24
f 21 31 32
f 9 8 19
f 18 21 19
f 8 7 19
f 19 7 18
f 2 174 3
f 3 1 2
f 2 1 174
f 374 197 187
f 374 373 197
f 374 351 373
f 352 351 374
f 377 15 25
f 25 353 377
f 70 51 57
f 50 39 38
f 50 41 39
f 56 44 53
f 57 56 53
f 41 50 53
f 53 70 57
f 53 50 70
f 34 41 43
f 43 44 34
f 41 53 43
f 43 53 44
f 116 114 146
f 146 147 116
f 116 147 117
f 116 79 115
f 117 79 116
f 73 57 71
f 71 60 73
f 73 60 57
f 58 44 57
f 57 60 58
f 45 62 63
f 63 64 45
f 72 64 63
f 78 79 63
f 63 79 242
f 242 329 63
f 329 72 63
f 77 76 115
f 77 62 76
f 77 63 62
f 77 115 78
f 78 63 77
f 44 60 61
f 61 62 44
f 60 62 61
f 438 430 426
f 438 426 423
f 427 430 438
f 438 423 437
f 438 428 427
f 437 445 438
f 438 445 446
f 446 442 438
f 425 414 51
f 51 424 425
f 425 424 414
f 419 420 433
f 431 419 433
f 433 439 431
f 420 428 433
f 428 438 433
f 442 443 433
f 433 438 442
f 514 807 516
f 516 807 517
f 516 515 514
f 516 517 511
f 511 515 516
f 512 520 513
f 513 514 511
f 511 512 513
f 513 521 514
f 513 520 521
f 539 540 527
f 539 531 540
f 538 531 539
f 527 526 539
f 826 824 831
f 831 824 823
f 831 821 826
f 823 821 831
f 805 815 816
f 816 815 824
f 816 817 805
f 816 824 817
f 150 166 165
f 166 152 165
f 165 152 145
f 165 151 150
f 145 151 165
f 119 111 120
f 131 93 127
f 496 502 497
f 501 502 496
f 496 493 501
f 497 486 496
f 486 493 496
f 470 489 494
f 464 489 470
f 494 465 470
f 470 465 464
f 623 464 463
f 464 465 463
f 235 247 248
f 247 262 248
f 248 249 235
f 250 249 248
f 248 262 250
f 303 281 299
f 299 298 303
f 299 281 277
f 277 298 299
f 260 261 245
f 260 279 261
f 260 245 259
f 259 279 260
f 280 279 278
f 278 300 280
f 261 279 280
f 280 281 261
f 280 300 281
f 495 459 457
f 459 453 457
f 457 453 452
f 452 456 457
f 457 458 495
f 457 456 458
f 449 453 450
f 450 451 448
f 448 449 450
f 455 458 452
f 452 575 455
f 462 465 461
f 461 575 462
f 576 575 585
f 532 531 525
f 538 539 525
f 525 539 526
f 525 526 519
f 465 462 573
f 573 575 576
f 573 462 575
f 573 463 465
f 623 463 573
f 573 647 786
f 573 786 623
f 507 499 506
f 507 453 504
f 506 453 507
f 507 504 500
f 500 499 507
f 773 810 809
f 811 810 773
f 773 809 536
f 773 529 774
f 536 529 773
f 220 49 221
f 220 221 229
f 229 80 220
f 220 80 66
f 68 773 776
f 48 776 777
f 68 776 48
f 210 219 46
f 219 49 46
f 205 210 46
f 46 35 205
f 46 49 35
f 312 605 315
f 313 317 318
f 313 316 317
f 318 309 313
f 313 309 314
f 313 315 316
f 313 314 312
f 312 315 313
f 255 272 312
f 271 272 255
f 312 270 255
f 270 271 255
f 292 294 273
f 273 272 292
f 292 272 271
f 292 271 270
f 270 294 292
f 295 294 293
f 293 294 270
f 293 309 308
f 270 314 293
f 314 309 293
f 484 464 468
f 468 469 484
f 468 467 474
f 464 467 468
f 308 309 291
f 291 323 329
f 291 309 323
f 253 254 241
f 241 252 253
f 283 288 287
f 287 267 283
f 288 267 287
f 813 815 814
f 803 812 813
f 813 814 803
f 813 812 811
f 811 821 813
f 141 142 107
f 108 651 107
f 653 651 655
f 655 654 653
f 649 651 653
f 653 654 649
f 664 663 667
f 654 663 664
f 660 654 664
f 667 661 664
f 664 661 660
f 650 105 649
f 649 104 650
f 650 104 105
f 103 105 138
f 138 104 103
f 105 104 138
f 149 136 117
f 548 562 549
f 562 796 549
f 646 548 549
f 785 787 788
f 787 792 788
f 788 789 785
f 788 792 794
f 791 646 793
f 793 797 791
f 541 107 142
f 541 142 141
f 108 107 541
f 141 542 541
f 544 656 541
f 541 656 108
f 552 542 551
f 542 550 551
f 566 552 551
f 551 550 566
f 566 550 558
f 558 550 545
f 558 570 566
f 569 570 558
f 836 636 829
f 829 828 836
f 836 828 827
f 827 835 836
f 635 547 637
f 637 636 635
f 218 208 217
f 208 216 217
f 217 216 228
f 228 221 217
f 221 218 217
f 594 595 589
f 211 595 594
f 589 448 594
f 448 211 594
f 212 206 211
f 211 213 212
f 214 208 207
f 207 213 214
f 207 208 204
f 204 206 207
f 206 212 207
f 207 212 213
f 223 211 227
f 227 224 223
f 223 224 211
f 215 208 214
f 214 224 215
f 215 216 208
f 215 224 216
f 695 97 696
f 97 697 696
f 696 692 695
f 696 697 692
f 358 338 336
f 336 357 358
f 383 357 382
f 382 749 383
f 338 358 359
f 359 357 385
f 359 358 357
f 385 384 360
f 360 359 385
f 361 339 360
f 360 339 338
f 338 359 360
f 333 332 343
f 343 332 331
f 333 345 346
f 346 345 364
f 346 347 333
f 364 347 346
f 344 345 333
f 333 343 344
f 344 343 331
f 746 747 728
f 756 747 746
f 728 727 746
f 745 756 746
f 746 727 726
f 726 745 746
f 716 731 732
f 732 731 355
f 355 751 732
f 733 734 716
f 733 751 734
f 716 732 733
f 733 732 751
f 604 603 610
f 603 609 610
f 622 612 621
f 320 315 319
f 321 315 320
f 608 602 334
f 608 334 327
f 327 321 608
f 321 320 608
f 608 320 319
f 319 315 608
f 608 315 605
f 680 685 686
f 686 681 680
f 680 690 685
f 680 679 690
f 680 681 672
f 672 679 680
f 740 738 754
f 754 393 740
f 711 712 691
f 691 718 711
f 711 718 712
f 25 15 14
f 14 406 413
f 15 406 14
f 24 12 23
f 3 9 10
f 9 12 10
f 10 11 3
f 10 12 11
f 22 29 24
f 24 23 22
f 9 21 22
f 22 21 29
f 22 12 9
f 22 23 12
f 395 399 398
f 398 396 395
f 394 393 395
f 395 365 394
f 395 396 365
f 180 174 176
f 180 179 174
f 180 176 169
f 169 179 180
f 6 3 5
f 5 7 6
f 6 7 3
f 764 193 763
f 763 768 764
f 191 182 181
f 191 193 182
f 190 193 191
f 181 178 191
f 178 192 191
f 177 190 191
f 191 192 177
f 201 195 440
f 195 771 440
f 440 771 770
f 770 441 440
f 431 439 440
f 440 441 431
f 440 443 446
f 439 433 440
f 440 433 443
f 36 444 761
f 761 37 36
f 27 444 36
f 36 37 27
f 20 21 9
f 9 19 20
f 20 19 21
f 187 1 405
f 375 405 1
f 352 374 375
f 375 1 3
f 375 374 187
f 187 405 375
f 376 406 15
f 15 377 376
f 352 375 376
f 376 353 352
f 376 377 353
f 3 406 376
f 376 375 3
f 52 50 38
f 70 50 52
f 52 38 51
f 51 70 52
f 71 109 74
f 74 60 71
f 75 116 115
f 115 76 75
f 76 60 75
f 60 74 75
f 114 116 75
f 75 74 114
f 59 60 44
f 44 58 59
f 59 58 60
f 121 152 153
f 153 122 121
f 120 152 121
f 121 122 85
f 84 85 68
f 84 119 120
f 120 121 84
f 84 121 85
f 66 80 82
f 82 80 111
f 111 119 82
f 94 93 95
f 92 93 700
f 155 122 153
f 156 131 127
f 154 122 156
f 122 155 156
f 68 85 86
f 86 773 68
f 125 773 86
f 89 703 811
f 460 575 458
f 458 455 460
f 460 455 575
f 576 585 586
f 587 576 586
f 586 591 587
f 589 596 590
f 596 591 590
f 591 586 590
f 590 449 589
f 452 449 590
f 537 531 538
f 538 525 537
f 537 525 531
f 588 532 522
f 532 525 522
f 580 573 579
f 582 573 581
f 581 573 580
f 588 582 581
f 581 580 588
f 511 646 574
f 574 519 511
f 87 773 125
f 125 89 87
f 811 773 87
f 87 89 811
f 67 69 68
f 49 69 67
f 68 48 67
f 66 82 81
f 81 82 119
f 68 69 81
f 65 220 66
f 49 220 65
f 66 81 65
f 65 69 49
f 65 81 69
f 777 776 775
f 775 776 773
f 775 773 774
f 774 529 775
f 529 528 775
f 528 777 775
f 35 49 47
f 47 48 35
f 49 67 47
f 47 67 48
f 35 48 778
f 205 35 778
f 778 48 777
f 778 777 205
f 321 316 322
f 322 315 321
f 316 315 322
f 290 267 289
f 289 288 290
f 308 291 290
f 290 291 267
f 290 288 302
f 302 304 290
f 305 304 302
f 305 302 310
f 305 290 304
f 306 290 305
f 310 296 305
f 305 296 295
f 474 481 475
f 475 468 474
f 469 468 475
f 269 291 329
f 329 254 269
f 265 267 266
f 267 253 266
f 252 265 266
f 266 253 252
f 822 821 815
f 815 813 822
f 822 813 821
f 794 549 795
f 795 549 796
f 795 788 794
f 789 788 795
f 794 797 564
f 797 793 564
f 564 793 646
f 646 549 564
f 564 549 794
f 543 554 544
f 544 541 543
f 542 554 543
f 543 541 542
f 636 836 634
f 634 635 636
f 634 836 835
f 634 835 827
f 547 635 837
f 833 670 837
f 837 670 547
f 635 634 837
f 381 357 380
f 381 382 357
f 381 380 749
f 749 382 381
f 361 360 387
f 387 360 384
f 387 749 361
f 387 384 749
f 342 344 331
f 345 344 342
f 331 330 342
f 363 345 342
f 342 341 363
f 342 330 341
f 13 12 25
f 25 14 13
f 413 12 13
f 13 14 413
f 408 395 407
f 399 395 408
f 408 409 399
f 407 404 408
f 404 409 408
f 758 395 393
f 393 754 758
f 758 757 407
f 407 395 758
f 752 757 758
f 183 193 190
f 183 763 193
f 200 198 201
f 190 198 200
f 201 440 199
f 199 440 768
f 199 200 201
f 190 200 199
f 445 768 447
f 768 440 447
f 446 445 447
f 447 440 446
f 109 114 113
f 113 74 109
f 114 74 113
f 702 95 695
f 702 94 95
f 93 94 702
f 132 155 153
f 131 156 132
f 132 156 155
f 132 159 133
f 93 131 132
f 153 158 132
f 132 158 159
f 133 95 132
f 95 93 132
f 700 705 91
f 125 86 124
f 706 705 703
f 703 89 706
f 452 590 584
f 584 575 452
f 584 585 575
f 584 586 585
f 584 590 586
f 588 522 518
f 519 574 518
f 580 579 578
f 588 580 578
f 578 579 573
f 119 84 83
f 83 81 119
f 83 84 68
f 68 81 83
f 295 293 307
f 307 290 306
f 307 293 308
f 308 290 307
f 307 305 295
f 306 305 307
f 481 482 476
f 476 475 481
f 469 475 476
f 477 469 476
f 476 482 477
f 267 291 268
f 291 269 268
f 268 253 267
f 254 253 268
f 268 269 254
f 141 107 106
f 106 140 141
f 651 648 106
f 106 107 651
f 106 648 649
f 649 105 106
f 105 140 106
f 162 148 164
f 164 141 162
f 785 789 790
f 789 795 790
f 790 795 796
f 790 572 785
f 569 572 790
f 790 796 569
f 834 634 827
f 834 837 634
f 834 827 833
f 833 837 834
f 607 603 602
f 607 609 603
f 620 621 612
f 602 608 606
f 606 607 602
f 606 605 614
f 606 608 605
f 622 621 616
f 623 622 616
f 753 754 738
f 753 758 754
f 738 736 753
f 753 736 752
f 752 758 753
f 768 763 767
f 767 183 190
f 763 183 767
f 701 702 695
f 93 702 701
f 695 700 701
f 700 93 701
f 129 156 127
f 127 91 129
f 90 91 127
f 127 93 90
f 93 92 90
f 90 92 700
f 700 91 90
f 126 91 705
f 91 126 130
f 130 126 125
f 88 89 125
f 88 706 89
f 125 126 88
f 705 706 88
f 88 126 705
f 523 518 522
f 519 518 523
f 583 582 588
f 588 518 583
f 583 573 582
f 583 574 573
f 583 518 574
f 577 576 588
f 588 578 577
f 577 573 576
f 577 578 573
f 141 140 163
f 163 162 141
f 140 162 163
f 137 140 105
f 137 162 140
f 148 162 137
f 137 117 148
f 137 149 117
f 137 105 103
f 103 136 137
f 136 149 137
f 609 607 618
f 619 610 609
f 609 618 619
f 611 612 604
f 611 620 612
f 604 610 611
f 610 619 611
f 611 618 620
f 611 619 618
f 607 606 617
f 628 618 617
f 617 618 607
f 606 616 617
f 621 620 626
f 626 616 621
f 626 617 616
f 625 624 623
f 623 616 625
f 613 624 625
f 194 199 768
f 768 767 194
f 190 199 194
f 194 767 190
f 156 129 128
f 128 129 91
f 91 130 128
f 123 122 154
f 85 122 123
f 123 86 85
f 123 124 86
f 125 124 123
f 123 130 125
f 524 522 525
f 524 523 522
f 524 525 519
f 519 523 524
f 627 626 620
f 627 618 628
f 620 618 627
f 628 617 627
f 617 626 627
f 615 616 606
f 615 625 616
f 615 606 614
f 615 614 613
f 613 625 615
f 157 128 130
f 157 123 154
f 130 123 157
f 154 156 157
f 156 128 157
f 173 786 172
f 172 786 791
f 557 565 572
f 572 569 557
f 791 786 647
f 647 646 791
f 42 34 54
f 54 34 45
f 64 54 45
f 55 54 64
f 450 453 454
f 454 451 450
f 557 569 558
f 558 545 557
f 646 647 574
f 647 573 574

