# https://github.com/mikedh/trimesh
v -0.04167034 -0.01574647 -0.03807087
v 0.04043488 -0.01576536 0.05207961
v 0.00246265 0.05813307 0.00408581
v 0.04148626 -0.01576308 -0.04941576
v -0.04159682 -0.01925551 0.04478815
v -0.00057588 -0.05816130 0.00060081
v -0.00057717 0.02469950 -0.05147942
v -0.00290214 0.02335809 0.05252123
v -0.00523276 -0.05414192 -0.05337174
v 0.03633138 0.00389422 0.00176614
v 0.00523610 -0.05458357 0.05234499
v -0.03631042 0.00385892 0.00641330
v 0.03615326 -0.03743817 0.01570668
v -0.03606255 -0.03730235 -0.00289417
v 0.02692493 -0.04789978 -0.02615468
v -0.02481577 -0.05037616 0.02966725
v 0.00206794 0.04987037 -0.02894262
v -0.03032080 0.01167410 -0.05125247
v -0.02929112 -0.04562869 -0.03313217
v 0.02700199 0.01297248 0.05247222
v 0.04132217 -0.02158248 -0.01684818
v 0.02879956 0.01363331 -0.05057910
v 0.00327297 0.04750744 0.03354748
v -0.03112290 0.01008311 0.05059951
v 0.03209092 -0.04369977 0.04478724
v 0.02849789 -0.04134067 -0.05326352
v -0.01996597 -0.02892130 -0.05309969
v 0.03850887 -0.00095033 0.02850554
v -0.00406631 -0.05756969 -0.02615213
v 0.01676157 -0.05494043 0.02152915
v -0.03645081 0.00400426 -0.02033263
v -0.04121941 -0.02274788 0.01803367
v -0.02965444 -0.04018871 0.05255703
v 0.02251714 -0.05150144 -0.00289248
v 0.03770555 0.00167952 -0.03196631
v -0.04166729 -0.01576664 -0.00754480
v -0.02087475 -0.05236839 -0.01219185
v -0.03781855 0.00051598 0.03199715
v 0.04167738 -0.01693110 0.01106236
v 0.01337331 -0.05529586 -0.04127683
v 0.04074183 -0.02577609 0.03315859
v -0.01576861 -0.05569937 0.04827425
v -0.02112847 -0.05252383 0.00872884
v -0.00465705 -0.05821915 0.02083814
v 0.03851990 -0.03182001 -0.03429116
v 0.01104959 0.00516555 -0.05259918
v -0.02415682 -0.04869600 -0.05200699
v -0.03781378 -0.03321329 -0.04592572
v -0.03799030 -0.03321098 -0.02149669
v -0.03784623 -0.03437394 0.03431978
v 0.03698502 -0.03563908 -0.00288844
v -0.03778932 -0.00530291 -0.05257363
v -0.00462752 0.05456983 -0.01267497
v 0.01821832 -0.05453822 0.04013231
v -0.01569016 -0.05452275 -0.03806789
v -0.00290283 -0.05858814 0.03780881
v -0.03704711 0.00310369 -0.03806790
v 0.03702752 0.00184668 0.04478608
v -0.03839078 -0.00466229 0.05236052
v 0.02917902 -0.04668332 0.02850534
v -0.01685137 0.02113806 -0.05142682
v 0.01221553 -0.04367346 -0.05332214
v -0.00246217 0.05469091 0.02004017
v 0.04019044 -0.00530037 -0.01103547
v 0.03819229 0.00061621 -0.04825241
v 0.01520783 0.02205955 -0.05120437
v -0.03613458 -0.03742494 0.01455015
v 0.01338040 0.02106703 0.05249918
v -0.01802407 0.01888490 0.05261730
v -0.04130141 -0.01111163 0.00757539
v 0.04156248 -0.01343873 -0.03196631
v 0.03664003 -0.03088846 0.05257539
v 0.01454240 -0.05529171 -0.01568604
v 0.03558023 -0.03786393 -0.01917034
v -0.04119579 -0.00994887 -0.02266574
v 0.03842873 -0.03042391 -0.05126148
v -0.03895526 -0.02040374 -0.05286522
v -0.00016767 0.04074669 -0.03961292
v -0.04158743 -0.01460369 0.02966915
v 0.04147712 -0.02042044 -0.00288844
v -0.04081225 -0.02495119 0.00292358
v 0.02035610 -0.04833293 0.05243654
v 0.03149743 -0.04319718 -0.03837280
v 0.04107115 -0.00994975 0.03897096
v -0.00057705 0.03855278 0.04320793
v -0.00057717 -0.05751242 -0.04127834
v -0.00846627 -0.05713145 -0.01103167
v -0.03810462 -0.02972562 0.05219174
v 0.04153546 -0.01343873 0.02385524
v -0.02743070 -0.04847653 0.04246284
v -0.02732035 -0.01460914 -0.05288626
v -0.02069614 -0.05226477 -0.02615375
v 0.00872653 -0.05769239 0.03199257
v 0.03891421 -0.00181140 0.01571048
v -0.02996607 -0.04513828 -0.02033849
v -0.03960744 -0.00336559 -0.00986488
v -0.04006840 -0.02739971 -0.03313217
v -0.04035482 -0.00646058 0.01919629
v 0.00755178 -0.05523775 -0.05274498
v 0.03622196 -0.03755661 0.03315859
v 0.02179579 -0.05107029 -0.04941576
v -0.01440820 -0.05606205 0.03315994
v 0.02326296 -0.05123799 0.01174271
v 0.00989144 -0.05651239 -0.02963617
v -0.04071046 -0.00817623 0.04013177
v 0.03178833 -0.04353651 0.00641805
v 0.02702287 -0.04798622 -0.01451709
v -0.03081000 -0.03902449 -0.05314178
v -0.02773294 -0.04758680 0.00059826
v 0.03964841 -0.02942869 0.00641805
v 0.01033660 -0.05702350 0.01222313
v -0.04114894 -0.02274788 -0.01801317
v -0.03656312 0.00284150 0.04362698
v 0.00291095 -0.05788609 -0.01103167
v 0.03569245 0.00517078 -0.01102944
v 0.00582020 0.05459897 -0.00814530
v 0.04043488 -0.00646077 0.00175958
v 0.03968934 -0.02954714 0.02269102
v -0.00495422 -0.05826034 0.05014066
v 0.03547737 -0.00530037 0.05305627
v 0.04023589 -0.00530037 -0.02382157
v -0.00639146 -0.05779669 0.00989617
v 0.04109998 -0.02390978 0.04478724
v 0.04088292 -0.02389876 -0.04127683
v -0.02296962 -0.04870649 0.05230769
v 0.02356195 -0.05029130 -0.03662014
v -0.02567364 -0.04956242 0.01803367
v -0.03591847 -0.03706065 -0.03545748
f 18 17 61
f 61 52 18
f 116 17 3
f 57 18 52
f 57 52 1
f 1 75 57
f 57 113 31
f 3 17 53
f 17 18 53
f 53 63 3
f 18 57 53
f 53 57 31
f 53 113 63
f 65 94 121
f 115 116 10
f 58 116 3
f 10 116 58
f 108 48 77
f 1 52 77
f 77 48 1
f 48 19 128
f 105 5 59
f 59 113 105
f 98 75 105
f 1 48 97
f 1 5 36
f 63 69 85
f 63 113 24
f 24 69 63
f 24 113 59
f 59 69 24
f 59 5 88
f 33 69 59
f 59 88 33
f 90 125 33
f 33 88 90
f 11 33 125
f 61 17 78
f 17 66 78
f 46 66 22
f 22 66 17
f 22 116 65
f 17 116 22
f 96 75 98
f 96 57 75
f 31 113 12
f 12 53 31
f 113 53 12
f 65 121 4
f 4 22 65
f 76 22 4
f 39 80 4
f 64 94 117
f 117 121 64
f 64 121 94
f 35 115 10
f 10 58 35
f 65 116 35
f 116 115 35
f 35 94 65
f 20 58 3
f 117 94 84
f 84 121 117
f 52 46 91
f 91 77 52
f 108 77 91
f 108 9 47
f 47 48 108
f 47 19 48
f 26 76 101
f 46 22 26
f 26 22 76
f 101 73 40
f 95 19 90
f 95 128 19
f 112 5 1
f 1 97 112
f 5 105 79
f 79 36 5
f 1 36 79
f 68 85 8
f 8 85 69
f 54 60 25
f 50 88 5
f 90 88 50
f 119 11 125
f 54 11 119
f 102 122 119
f 61 78 7
f 7 78 66
f 7 66 46
f 7 52 61
f 7 46 52
f 113 57 38
f 57 96 38
f 38 105 113
f 98 105 38
f 38 96 98
f 76 4 124
f 94 35 28
f 28 35 58
f 28 84 94
f 58 84 28
f 63 85 23
f 3 63 23
f 23 20 3
f 23 85 68
f 68 20 23
f 2 84 58
f 71 4 121
f 121 84 71
f 39 4 71
f 90 127 16
f 56 114 93
f 93 119 56
f 54 119 93
f 6 114 56
f 29 6 56
f 99 26 101
f 9 26 99
f 101 40 99
f 62 26 9
f 46 26 62
f 70 75 1
f 1 79 70
f 70 105 75
f 70 79 105
f 103 60 54
f 82 11 54
f 54 25 82
f 82 25 72
f 33 11 82
f 106 25 60
f 81 112 97
f 97 50 81
f 49 97 48
f 48 50 49
f 49 50 97
f 48 128 14
f 14 50 48
f 128 95 14
f 42 125 90
f 42 119 125
f 102 119 42
f 90 16 42
f 42 16 43
f 21 4 80
f 21 124 4
f 58 20 120
f 120 2 58
f 72 2 120
f 120 20 68
f 68 8 120
f 120 8 69
f 69 33 120
f 120 82 72
f 33 82 120
f 84 2 123
f 123 2 72
f 123 80 39
f 123 21 80
f 72 25 123
f 25 100 123
f 41 124 123
f 124 21 123
f 39 71 89
f 89 71 84
f 89 123 39
f 84 123 89
f 90 19 109
f 109 127 90
f 19 127 109
f 54 93 30
f 101 54 30
f 30 73 101
f 9 99 86
f 114 6 86
f 6 29 86
f 86 99 40
f 44 29 56
f 122 29 44
f 56 119 44
f 44 119 122
f 55 86 29
f 102 42 55
f 55 47 9
f 9 86 55
f 27 9 108
f 27 62 9
f 108 91 27
f 27 91 46
f 46 62 27
f 107 15 60
f 60 103 107
f 107 103 15
f 15 103 126
f 76 124 45
f 5 112 32
f 112 81 32
f 32 50 5
f 32 81 50
f 90 50 67
f 50 14 67
f 67 95 90
f 67 14 95
f 73 30 111
f 111 30 93
f 111 40 73
f 114 86 104
f 104 86 40
f 40 111 104
f 104 93 114
f 104 111 93
f 47 55 92
f 19 47 92
f 92 55 42
f 92 127 19
f 92 16 127
f 87 122 102
f 102 55 87
f 87 29 122
f 87 55 29
f 34 103 54
f 34 126 103
f 34 54 101
f 101 126 34
f 41 123 118
f 118 123 100
f 74 100 25
f 25 106 74
f 43 16 37
f 16 92 37
f 37 42 43
f 37 92 42
f 110 45 124
f 110 118 45
f 110 124 41
f 41 118 110
f 51 74 45
f 51 118 100
f 45 118 51
f 83 74 106
f 60 15 83
f 83 106 60
f 101 76 83
f 76 45 83
f 45 74 83
f 83 126 101
f 15 126 83
f 100 74 13
f 13 51 100
f 74 51 13

