# https://github.com/mikedh/trimesh
v -0.00997103 0.00051086 -0.06755840
v -0.00997103 0.00124039 -0.06755840
v -0.00861260 0.00050984 -0.06753924
v -0.00590892 0.00016840 -0.06652350
v -0.00726735 0.00016789 -0.06652350
v -0.04757199 0.00066928 -0.06742425
v -0.12104618 0.00343052 -0.06729009
v -0.00861260 0.00122194 -0.06753924
v -0.12104618 0.00370838 -0.06729009
v -0.10920274 0.00365507 -0.06725815
v -0.00726735 0.00051855 -0.06750729
v -0.00455048 0.00017507 -0.06652350
v -0.00455048 0.00013867 -0.06516280
v -0.00251943 -0.00047244 -0.04155820
v -0.00261175 -0.00047244 -0.04155820
v -0.06010124 0.00014482 -0.04891109
v -0.00861260 0.00017865 -0.06652350
v -0.06552180 0.00076156 -0.06732204
v -0.13188727 0.00356227 -0.06721344
v -0.00861260 0.00159977 -0.06652350
v -0.00455048 0.00149622 -0.06652350
v -0.00726735 0.00119015 -0.06750729
v -0.13188727 0.00362277 -0.06721344
v -0.13188727 0.00413800 -0.06652350
v -0.13052884 0.00413903 -0.06652350
v -0.12104618 0.00409494 -0.06652350
v -0.11021826 0.00393703 -0.06652350
v -0.00455048 0.00054521 -0.06743063
v -0.00352176 0.00066108 -0.06734120
v -0.00331074 0.00052983 -0.06652350
v -0.00319205 0.00016174 -0.06380849
v -0.00249305 -0.00047500 -0.04077883
v -0.00116099 -0.00047244 -0.02929914
v -0.00116099 -0.00047602 -0.02859004
v -0.00114781 -0.00048218 -0.02723574
v -0.06686704 0.00013610 -0.04348746
v -0.06280492 0.00014328 -0.04755677
v -0.00288871 -0.00047500 -0.04077883
v -0.08989450 0.00014789 -0.02452712
v -0.08853606 0.00014636 -0.02588142
v -0.08717763 0.00014789 -0.02723574
v -0.08583238 0.00014995 -0.02859004
v -0.06145968 0.00015764 -0.04891109
v -0.05874281 0.00016891 -0.05026539
v -0.06552180 0.00071183 -0.06652350
v -0.13460414 0.00288965 -0.06516280
v -0.10147416 0.00222677 -0.06720705
v -0.13258629 0.00358637 -0.06720066
v -0.00455048 0.00161515 -0.06516280
v -0.11562563 0.00433128 -0.06516280
v -0.00319205 0.00152851 -0.06380849
v -0.00331074 0.00118195 -0.06652350
v -0.00352176 0.00103327 -0.06734120
v -0.00455048 0.00112299 -0.06743063
v -0.13258629 0.00359970 -0.06720066
v -0.13312702 0.00401855 -0.06658739
v -0.13324571 0.00473577 -0.06516280
v -0.00234798 0.00067492 -0.06485617
v -0.00221608 0.00053752 -0.06380849
v -0.00213696 0.00050266 -0.06245418
v -0.00246667 -0.00047859 -0.03942452
v -0.00114781 -0.00048679 -0.02588142
v -0.00116099 0.00082462 -0.03354733
v -0.00113461 -0.00048884 -0.02452712
v -0.06821229 0.00014943 -0.04348746
v -0.06686704 0.00015302 -0.04484177
v -0.08989450 0.00026786 -0.03265936
v -0.09123974 0.00029042 -0.03265936
v -0.06416336 0.00016686 -0.04755677
v -0.06280492 0.00017712 -0.04891109
v -0.00319205 -0.00048218 -0.03807022
v -0.00329756 -0.00047756 -0.03948202
v -0.00662111 -0.00047192 -0.03485692
v -0.09123974 0.00014431 -0.02181849
v -0.08989450 0.00013969 -0.02317281
v -0.09123974 0.00015200 -0.02317281
v -0.08989450 0.00016225 -0.02588142
v -0.08853606 0.00016327 -0.02723574
v -0.08717763 0.00016584 -0.02859004
v -0.09123974 0.00042269 -0.03807022
v -0.09259818 0.00044883 -0.03807022
v -0.09259818 0.00049190 -0.03942452
v -0.09259818 0.00053650 -0.04077883
v -0.11428039 0.00081898 -0.03265936
v -0.11418806 0.00086563 -0.03398173
v -0.13324571 0.00151826 -0.03671591
v -0.13460414 0.00204170 -0.04619607
v -0.13534272 0.00216422 -0.04704572
v -0.13532953 0.00341206 -0.06516280
v -0.13531634 0.00350075 -0.06589745
v -0.13460414 0.00331978 -0.06613382
v -0.13312702 0.00334388 -0.06658739
v -0.13324571 0.00472962 -0.06380849
v -0.00213696 0.00119477 -0.06245418
v -0.00221608 0.00118195 -0.06380849
v -0.00234798 0.00106814 -0.06485617
v -0.13531634 0.00365763 -0.06589745
v -0.13460414 0.00391243 -0.06613382
v -0.13460414 0.00429026 -0.06516280
v -0.13460414 0.00437742 -0.06380849
v -0.13460414 0.00438101 -0.06245418
v -0.00319205 -0.00049140 -0.03401367
v -0.00184680 -0.00050063 -0.02588142
v -0.00116099 0.00088563 -0.03354733
v -0.00116099 -0.00047602 -0.01950595
v -0.00114781 -0.00048013 -0.02046419
v -0.00114781 -0.00048423 -0.02181849
v -0.00114781 -0.00048730 -0.02317281
v -0.00184680 -0.00050063 -0.02452712
v -0.08853606 0.00020429 -0.02995074
v -0.08989450 0.00024274 -0.03130505
v -0.09123974 0.00026325 -0.03130505
v -0.09259818 0.00028683 -0.03130505
v -0.09259818 0.00031759 -0.03265936
v -0.09259818 0.00041192 -0.03671591
v -0.09123974 0.00032220 -0.03401367
v -0.09123974 0.00035399 -0.03536160
v -0.09123974 0.00038629 -0.03671591
v -0.00319205 -0.00049345 -0.03265936
v -0.00808506 -0.00047295 -0.02836007
v -0.09123974 0.00014174 -0.02046419
v -0.09259818 0.00015046 -0.01775556
v -0.09259818 0.00015661 -0.02046419
v -0.09259818 0.00016225 -0.02181849
v -0.09123974 0.00016635 -0.02452712
v -0.09259818 0.00017404 -0.02317281
v -0.08989450 0.00018122 -0.02723574
v -0.09123974 0.00018173 -0.02588142
v -0.09123974 0.00019967 -0.02723574
v -0.13403703 0.00087025 -0.01870742
v -0.11428039 0.00077489 -0.03130505
v -0.13535590 0.00215551 -0.04619607
v -0.13550098 0.00331875 -0.05839125
v -0.13543504 0.00337002 -0.06245418
v -0.13536909 0.00336541 -0.06380849
v -0.13431400 0.00079488 -0.00962332
v -0.13434038 0.00078104 -0.00826901
v -0.13543504 0.00387039 -0.06245418
v -0.13546142 0.00389243 -0.06109988
v -0.13547461 0.00388782 -0.05974556
v -0.13550098 0.00387039 -0.05839125
v -0.00319205 -0.00049653 -0.02723574
v -0.00319205 -0.00049551 -0.02995074
v -0.00319205 -0.00049499 -0.03130505
v -0.00184680 -0.00047551 -0.01955067
v -0.00184680 -0.00048320 -0.02046419
v -0.00184680 -0.00049089 -0.02181849
v -0.00184680 -0.00049653 -0.02317281
v -0.00793998 -0.00047192 -0.02520427
v -0.00726735 -0.00047705 -0.02588142
v -0.00726735 -0.00047859 -0.02723574
v -0.00590892 -0.00048474 -0.02723574
v -0.08989450 0.00022223 -0.02995074
v -0.09123974 0.00021967 -0.02859004
v -0.09123974 0.00024120 -0.02995074
v -0.09259818 0.00026376 -0.02995074
v -0.00815100 -0.00047346 -0.02723574
v -0.09259818 0.00014072 -0.01097763
v -0.09123974 0.00013815 -0.01775556
v -0.09259818 0.00014431 -0.01369263
v -0.09395661 0.00015251 -0.00962332
v -0.09259818 0.00018942 -0.02452712
v -0.09259818 0.00020531 -0.02588142
v -0.09259818 0.00022274 -0.02723574
v -0.09259818 0.00024274 -0.02859004
v -0.13539547 0.00203862 -0.03671591
v -0.13546142 0.00338130 -0.06109988
v -0.13538228 0.00202632 -0.03536160
v -0.13539547 0.00238313 -0.03671591
v -0.13538228 0.00236365 -0.03536160
v -0.00804549 -0.00047295 -0.02588142
v -0.09259818 0.00013969 -0.00962332
v -0.13450520 0.00068816 0.00392749
v -0.13455804 0.00068429 0.00528042
v -0.13325047 0.00061514 0.00122163
v -0.13325047 0.00060060 0.00257456
v -0.13325047 0.00058929 0.00392749
v -0.13405614 0.00076377 0.06217979
v -0.13325047 0.00058186 0.00528042
v -0.13189009 0.00047911 0.06759845
v -0.13402973 0.00078154 0.06353272
v -0.13405614 0.00123067 0.06217979
v -0.13189009 0.00063420 0.06854897
v -0.13280141 0.00073049 0.06843796
v -0.13289388 0.00069010 0.06759845
v -0.13052970 0.00046618 0.06759845
v -0.13052970 0.00061255 0.06858366
v -0.13397691 0.00082549 0.06445549
v -0.13402973 0.00114763 0.06353272
v -0.13393728 0.00224492 0.05347941
v -0.13395049 0.00225720 0.05269541
v -0.13189009 0.00126201 0.06854897
v -0.13280141 0.00112113 0.06843796
v -0.12918253 0.00062160 0.06856284
v -0.00184774 0.00013790 0.02018346
v -0.00184774 0.00016149 0.02154333
v -0.00184774 0.00020091 0.02289626
v -0.00184774 0.00044163 0.03102771
v -0.00184774 0.00048557 0.03238064
v -0.00048736 0.00083453 0.04179564
v -0.00319492 0.00193312 0.06623857
v -0.00319492 0.00203328 0.06725848
v -0.13052970 0.00128592 0.06858366
v -0.05515375 0.00216576 0.06832695
v -0.00997043 0.00332670 0.06623857
v -0.00184774 0.00326143 0.06488565
v -0.13397691 0.00102582 0.06445549
v -0.13289388 0.00127881 0.06759845
v -0.13325047 0.00167107 0.06353272
v -0.13325047 0.00179612 0.06217979
v -0.13311841 0.00197835 0.06072279
v -0.13257688 0.00223846 0.06020243
v -0.13325047 0.00236221 0.05269541
v -0.13325047 0.00239226 0.05134248
v -0.13189009 0.00170241 0.06759845
v -0.00048736 0.00055407 0.03238064
v 0.00025227 0.00083776 0.04158751
v -0.00184774 0.00196704 0.06623857
v -0.00184774 0.00206010 0.06720298
v -0.00319492 0.00268112 0.06725848
v -0.08311430 0.00224977 0.06828532
v -0.08650867 0.00223749 0.06827144
v -0.09530495 0.00245818 0.06758457
v -0.10885598 0.00233281 0.06730011
v -0.13052970 0.00173957 0.06759845
v -0.05515375 0.00233313 0.06832695
v -0.05556319 0.00233313 0.06832695
v -0.08311430 0.00297419 0.06488565
v -0.00184774 0.00322492 0.06623857
v -0.07769918 0.00299939 0.06623857
v -0.07904635 0.00263233 0.06759845
v -0.07363123 0.00265140 0.06759845
v -0.00048736 0.00281780 0.06488565
v -0.00048736 0.00285270 0.05676113
v -0.00048736 0.00285108 0.05540126
v -0.13190331 0.00225752 0.06072279
v -0.13189009 0.00246108 0.05269541
v -0.13189009 0.00249307 0.05134248
v -0.13146745 0.00224718 0.06183982
v -0.12576175 0.00223264 0.06554477
v -0.12841648 0.00222650 0.06416409
v -0.13010706 0.00224104 0.06299849
v -0.13100518 0.00220938 0.06274178
v -0.11770510 0.00223814 0.06692545
v 0.00029189 0.00074826 0.02289626
v 0.00029189 0.00074309 0.02424919
v 0.00030510 0.00075472 0.03238064
v 0.00030510 0.00076086 0.03372663
v 0.00037114 0.00200614 0.05540126
v 0.00018623 0.00223490 0.06558640
v -0.00042132 0.00213700 0.06612063
v -0.00083076 0.00213086 0.06706421
v -0.00184774 0.00268791 0.06720298
v -0.09395777 0.00247401 0.06759151
v -0.07904635 0.00299034 0.06623857
v -0.08040674 0.00297160 0.06623857
v -0.08176713 0.00295189 0.06623857
v -0.08311430 0.00293186 0.06623857
v -0.10208046 0.00261909 0.06623857
v -0.13052970 0.00251407 0.05134248
v -0.13052970 0.00232731 0.05946699
v -0.13052970 0.00229403 0.06081992
v -0.13054290 0.00225526 0.06224917
v -0.00083076 0.00254025 0.06706421
v -0.00042132 0.00265140 0.06612063
v 0.00018623 0.00225494 0.06558640
v 0.00019944 0.00229597 0.06488565
v 0.00034472 0.00247175 0.05676113
v 0.00037114 0.00247498 0.05540126
v 0.00035793 0.00245818 0.05404833
v 0.00035793 0.00243330 0.05269541
v 0.00027869 0.00230825 0.04591688
v -0.12751836 0.00224234 0.06440692
v -0.12485042 0.00224298 0.06562803
v 0.00022585 0.00082775 0.01883053
v 0.00029189 0.00103842 0.02289626
v 0.00030510 0.00075699 0.03102771
v 0.00019944 0.00222586 0.06488565
v 0.00022585 0.00093341 0.01883053
v 0.00018623 0.00088494 0.01670747
v 0.00018623 0.00087977 0.01670747
f 49 51 21
f 206 51 49
f 195 105 196
f 49 21 20
f 52 21 51
f 217 248 249
f 217 201 200
f 217 105 248
f 217 199 198
f 200 199 217
f 93 228 255
f 179 180 174
f 202 204 187
f 202 201 219
f 219 201 218
f 201 217 218
f 216 196 105
f 105 217 216
f 216 217 196
f 238 228 260
f 260 93 238
f 228 93 260
f 50 206 49
f 49 20 50
f 238 93 214
f 179 174 177
f 161 180 179
f 197 217 198
f 196 217 197
f 178 180 181
f 178 174 180
f 261 228 238
f 261 262 228
f 259 258 228
f 205 220 229
f 205 229 206
f 255 228 256
f 45 86 46
f 132 174 166
f 132 166 133
f 133 88 132
f 132 137 174
f 88 137 132
f 187 180 186
f 201 202 186
f 200 201 186
f 186 199 200
f 198 199 186
f 186 197 198
f 196 197 186
f 195 196 186
f 186 105 195
f 186 145 105
f 180 161 186
f 98 55 97
f 206 50 57
f 57 205 206
f 93 205 57
f 57 101 93
f 237 261 238
f 141 101 140
f 141 169 170
f 264 265 229
f 264 266 265
f 94 271 272
f 265 266 233
f 206 229 233
f 229 265 233
f 44 45 17
f 14 31 33
f 74 179 124
f 179 177 124
f 122 161 179
f 166 174 168
f 174 178 168
f 275 245 33
f 249 248 247
f 33 245 35
f 35 245 64
f 18 19 7
f 17 45 18
f 45 46 18
f 240 259 273
f 228 262 263
f 263 259 228
f 258 259 224
f 224 225 203
f 31 14 12
f 10 20 8
f 8 20 21
f 221 203 227
f 221 222 203
f 226 205 227
f 220 205 226
f 227 203 226
f 230 93 255
f 230 205 93
f 203 225 215
f 85 86 45
f 88 46 87
f 87 46 86
f 130 88 87
f 87 86 130
f 136 88 130
f 130 137 136
f 136 137 88
f 173 177 174
f 174 137 173
f 194 202 187
f 187 186 194
f 194 186 202
f 145 186 146
f 105 145 146
f 148 186 149
f 172 186 161
f 157 186 172
f 24 9 23
f 23 55 24
f 89 46 88
f 56 57 24
f 98 57 56
f 24 55 56
f 55 98 56
f 10 9 26
f 27 20 10
f 10 26 27
f 27 26 57
f 27 50 20
f 27 57 50
f 97 138 99
f 99 98 97
f 99 57 98
f 139 141 140
f 140 101 139
f 252 218 217
f 217 251 252
f 219 218 252
f 250 217 249
f 250 251 217
f 250 252 251
f 229 220 253
f 253 264 229
f 94 272 104
f 276 272 271
f 276 104 272
f 206 233 234
f 267 233 266
f 74 73 121
f 121 122 74
f 16 15 37
f 16 44 17
f 38 73 74
f 37 15 36
f 130 175 176
f 176 137 130
f 177 173 176
f 176 173 137
f 181 180 185
f 180 184 185
f 183 180 187
f 183 184 180
f 182 141 170
f 181 185 188
f 188 185 184
f 123 179 74
f 74 122 123
f 123 122 179
f 64 107 108
f 106 107 64
f 106 247 248
f 64 247 106
f 248 105 106
f 148 107 106
f 281 275 33
f 33 63 281
f 64 245 246
f 246 247 64
f 277 245 249
f 249 247 277
f 277 246 245
f 247 246 277
f 34 14 33
f 33 35 34
f 34 35 14
f 62 64 103
f 62 35 64
f 103 61 62
f 7 1 6
f 6 18 7
f 48 19 47
f 19 18 47
f 47 18 46
f 242 273 259
f 259 263 242
f 240 273 242
f 258 224 257
f 257 224 256
f 228 258 257
f 257 256 228
f 223 224 203
f 203 222 223
f 223 222 254
f 256 224 223
f 223 254 255
f 255 256 223
f 244 224 259
f 225 224 244
f 240 215 244
f 244 215 225
f 31 12 30
f 30 12 29
f 30 59 31
f 29 12 28
f 5 14 15
f 5 16 17
f 15 16 5
f 5 6 1
f 17 18 5
f 18 6 5
f 33 31 60
f 31 59 60
f 60 63 33
f 21 52 53
f 52 96 53
f 2 9 10
f 10 8 2
f 231 221 227
f 205 230 231
f 254 222 231
f 222 221 231
f 255 254 231
f 231 230 255
f 203 215 192
f 192 215 193
f 212 237 238
f 215 212 209
f 90 91 46
f 46 89 90
f 48 91 90
f 147 186 148
f 147 146 186
f 105 146 147
f 147 106 105
f 148 106 147
f 158 172 161
f 157 172 158
f 135 89 88
f 24 57 25
f 57 26 25
f 25 9 24
f 25 26 9
f 100 99 138
f 100 139 101
f 138 139 100
f 101 57 100
f 57 99 100
f 280 104 279
f 104 276 279
f 270 271 235
f 206 234 235
f 235 271 94
f 51 206 235
f 94 51 235
f 269 234 233
f 270 235 269
f 269 235 234
f 269 271 270
f 269 276 271
f 278 250 249
f 120 121 73
f 120 73 119
f 159 121 120
f 157 158 120
f 120 158 159
f 37 70 43
f 43 16 37
f 43 70 45
f 45 44 43
f 44 16 43
f 144 119 103
f 148 149 109
f 109 142 103
f 109 152 142
f 103 64 109
f 64 108 109
f 109 107 148
f 109 108 107
f 74 124 76
f 76 124 177
f 177 176 76
f 39 40 15
f 15 38 39
f 14 35 32
f 61 71 32
f 32 71 38
f 35 62 32
f 32 62 61
f 42 36 15
f 37 36 42
f 48 47 92
f 92 47 46
f 92 91 48
f 46 91 92
f 241 215 240
f 240 242 241
f 241 242 215
f 274 259 240
f 240 244 274
f 274 244 259
f 14 5 4
f 4 5 1
f 1 3 4
f 4 3 12
f 58 30 29
f 59 30 58
f 95 51 94
f 95 52 51
f 95 96 52
f 22 8 21
f 227 205 232
f 232 231 227
f 205 231 232
f 238 214 213
f 213 212 238
f 239 212 215
f 239 242 263
f 239 263 262
f 262 261 239
f 261 237 239
f 193 215 208
f 215 209 208
f 208 207 193
f 189 207 208
f 208 209 189
f 210 209 212
f 84 85 45
f 84 82 131
f 84 131 130
f 130 86 84
f 86 85 84
f 161 122 160
f 160 158 161
f 122 121 160
f 160 121 159
f 159 158 160
f 134 90 89
f 89 135 134
f 134 135 88
f 133 167 134
f 134 88 133
f 267 269 268
f 233 267 268
f 268 269 233
f 69 70 37
f 69 118 70
f 114 113 130
f 45 70 80
f 142 152 143
f 152 144 143
f 103 142 143
f 143 144 103
f 150 109 149
f 126 176 175
f 126 76 176
f 75 38 74
f 75 39 38
f 74 76 75
f 76 39 75
f 119 73 102
f 73 71 102
f 102 71 61
f 103 119 102
f 102 61 103
f 73 38 72
f 72 71 73
f 38 71 72
f 15 40 41
f 41 42 15
f 37 42 65
f 13 12 14
f 14 4 13
f 13 4 12
f 21 53 54
f 54 22 21
f 11 28 12
f 12 3 11
f 215 242 243
f 243 239 215
f 242 239 243
f 237 212 236
f 236 239 237
f 212 239 236
f 212 213 190
f 190 213 214
f 190 182 189
f 189 209 190
f 209 210 190
f 190 214 93
f 93 101 190
f 45 82 83
f 83 84 45
f 82 84 83
f 113 114 68
f 37 67 68
f 68 69 37
f 70 118 115
f 115 80 70
f 115 114 130
f 115 68 114
f 81 82 45
f 45 80 81
f 80 115 81
f 81 115 130
f 130 131 81
f 131 82 81
f 152 109 151
f 109 150 151
f 157 120 151
f 151 144 152
f 151 120 119
f 119 144 151
f 171 150 149
f 171 186 157
f 171 149 186
f 157 151 171
f 171 151 150
f 163 175 130
f 40 39 77
f 79 65 42
f 37 65 66
f 66 65 111
f 66 67 37
f 111 67 66
f 211 210 212
f 212 190 211
f 211 190 210
f 101 141 191
f 191 190 101
f 141 182 191
f 182 190 191
f 117 115 118
f 118 69 117
f 162 126 175
f 175 163 162
f 164 163 130
f 129 77 128
f 128 164 129
f 163 164 128
f 128 162 163
f 154 155 111
f 127 77 129
f 129 154 127
f 78 41 40
f 40 77 78
f 42 41 78
f 78 79 42
f 77 127 78
f 111 155 112
f 112 67 111
f 113 68 112
f 112 68 67
f 68 115 116
f 115 117 116
f 69 68 116
f 116 117 69
f 126 162 125
f 162 128 125
f 76 126 125
f 125 128 77
f 125 39 76
f 125 77 39
f 130 113 156
f 155 154 156
f 113 112 156
f 156 112 155
f 153 154 111
f 153 127 154
f 165 156 154
f 165 164 130
f 130 156 165
f 110 78 127
f 127 153 110
f 79 78 110
f 110 153 111
f 111 65 110
f 65 79 110
f 166 169 141
f 133 166 141
f 168 169 166
f 170 169 168
f 202 220 226
f 204 202 226
f 226 203 187
f 187 204 226
f 23 9 7
f 7 19 23
f 23 19 48
f 48 55 23
f 133 141 139
f 139 167 133
f 264 252 250
f 266 264 250
f 253 220 202
f 253 202 219
f 253 252 264
f 219 252 253
f 170 168 182
f 182 168 178
f 181 189 182
f 182 178 181
f 63 104 281
f 281 104 280
f 60 104 63
f 94 104 60
f 7 9 2
f 2 1 7
f 187 203 192
f 192 183 187
f 193 184 192
f 184 183 192
f 90 55 48
f 97 55 90
f 279 281 280
f 275 281 279
f 245 275 279
f 279 276 245
f 245 276 269
f 249 245 269
f 249 269 278
f 278 269 267
f 266 250 278
f 278 267 266
f 32 38 15
f 15 14 32
f 207 184 193
f 207 188 184
f 207 189 181
f 181 188 207
f 1 2 3
f 3 2 8
f 58 53 96
f 29 53 58
f 94 60 95
f 95 60 59
f 95 58 96
f 59 58 95
f 167 139 134
f 134 139 138
f 97 90 134
f 134 138 97
f 54 53 29
f 29 28 54
f 11 54 28
f 22 54 11
f 11 3 8
f 8 22 11
f 165 154 129
f 129 164 165

