# https://github.com/mikedh/trimesh
v 0.03443013 -0.03994127 0.10772091
v -0.03203471 0.04164870 -0.12133171
v -0.03158250 0.04362194 0.00903395
v 0.03150263 -0.04358926 -0.08833572
v -0.03254635 0.04212655 0.11740326
v -0.03429531 -0.03752186 -0.04235096
v 0.02248540 0.03751767 0.06899363
v -0.03354830 -0.03268131 -0.12019522
v -0.03025739 -0.04328383 0.07624383
v 0.02383271 0.03751932 -0.07625414
v -0.03396867 0.04135855 -0.06656843
v -0.02299586 -0.03268131 0.12222859
v 0.03025761 -0.04376257 0.06656408
v 0.00605026 -0.04316887 -0.12019522
v -0.03148129 0.04357870 0.04877682
v -0.00121101 0.04291797 0.10288114
v 0.00064157 0.04167910 -0.11982565
v -0.00120454 -0.04367506 0.10045514
v -0.03391199 0.04121007 -0.03510160
v 0.03397250 -0.02894409 -0.11739885
v -0.03025739 -0.04319118 -0.09077358
v -0.03041047 0.04367365 -0.09320124
v -0.03422129 -0.03994127 0.10045514
v 0.00846629 -0.04232808 0.12160716
v -0.03025739 -0.04322378 -0.06897623
v -0.00847271 0.04168769 0.12140942
v -0.03025832 0.04339360 0.09804106
v -0.01331157 -0.04361500 -0.11797246
v -0.00121101 0.04294692 0.08352137
v 0.02541211 -0.03268131 0.12234809
v -0.01331696 0.04336964 -0.10046533
v 0.03025761 -0.04348288 -0.10771910
v -0.01088882 -0.04359784 0.11498670
v -0.01573558 0.04337228 -0.11740561
v 0.01331179 -0.04373855 0.10528305
v -0.01425604 0.04361140 0.09562363
v -0.03268014 -0.04235725 0.11498670
v 0.02541211 -0.03994127 -0.12174877
v -0.02783464 -0.04335247 -0.11739885
v -0.03268014 -0.04249281 0.08833753
v 0.02783486 -0.04372482 0.11740066
v -0.03172636 0.04365611 -0.08109524
v -0.02057765 0.04326195 0.11740326
v 0.03393212 -0.02899385 0.10772091
v -0.03380404 -0.03268131 0.12081844
v -0.02057311 -0.04330443 0.11981462
v 0.03425516 -0.03510072 0.11740066
v 0.00155053 0.03994162 0.11982816
v 0.01573455 -0.04365275 -0.11739885
v 0.01815057 -0.03994127 0.12227638
v 0.03424843 -0.03994127 -0.11739885
v -0.01088882 -0.04362187 0.10528305
v -0.03025832 0.04333625 0.10772456
v -0.00121101 0.04294165 0.09320126
v -0.00847616 0.03994229 -0.12229338
v -0.02299501 0.03994229 -0.12228144
v -0.03147084 0.04357320 -0.10170516
v -0.00846607 -0.03994127 0.12222859
v -0.02783464 -0.03994127 0.12208516
v -0.00121101 0.04285218 0.11256584
v -0.02057311 -0.04180988 -0.12136634
v -0.00605004 -0.04187508 -0.12139024
v -0.03025739 -0.04324265 0.10772091
v 0.03182567 -0.02876392 0.12129645
v -0.00121319 0.04280128 -0.11256553
v -0.02541713 0.03994181 0.12184595
v 0.03431572 -0.03994127 -0.10286728
v -0.03025739 -0.04326839 0.09560331
v -0.03344062 -0.03984518 -0.11969330
v 0.03025761 -0.03268131 -0.12170095
v 0.03025761 -0.03752186 0.12222859
v -0.02541718 0.04353486 -0.11740561
v -0.01573441 0.04176795 0.12142386
v 0.03393212 -0.04124707 0.11871519
v -0.00605398 0.04306563 -0.11740561
v 0.03169107 -0.04365961 0.11254884
v 0.03440321 -0.03268131 -0.11254703
v -0.03204709 0.03752113 0.12133148
v -0.03411289 0.03752081 -0.11740561
v -0.00363278 0.03752185 0.12182277
v 0.03292264 -0.04300414 0.10286909
v -0.03323872 -0.03994127 0.12012532
v -0.03421456 -0.03994127 0.11013488
v 0.01815693 0.03994757 0.07141253
v 0.03025761 -0.04286344 -0.11981281
v -0.02783464 -0.04328383 0.11740066
v -0.03260661 0.04225430 0.10288281
v -0.02783772 0.04333625 0.11498480
v 0.00846629 -0.04371624 0.10772091
v 0.02541211 -0.03994127 0.12225249
v -0.00363181 0.03752081 -0.12232516
v -0.02783580 0.03752081 -0.12225364
v -0.00363278 0.04289166 0.11740578
v 0.03434937 -0.03510072 0.11013488
v -0.00605004 -0.04364932 0.10286909
v 0.01088904 -0.04373340 0.10045514
v 0.02299608 -0.04360299 -0.11873728
v -0.01573433 -0.04215992 0.12160716
v -0.02541188 -0.03994127 -0.12170095
v 0.02057577 0.04065560 -0.07383378
v -0.03268014 -0.04234181 -0.04235096
v 0.03404653 -0.04144096 -0.11254703
v 0.03408018 -0.03510072 -0.11945430
v 0.03025761 -0.04376600 0.10772091
v 0.01088904 -0.04364246 -0.11890458
v -0.01331264 0.04313903 0.11740578
v -0.01088882 -0.04361328 0.11013488
v -0.03025739 -0.04328383 0.08109565
v -0.01089478 0.04323879 -0.11740561
v -0.02057638 0.04349257 -0.11740561
v 0.03025761 -0.03752186 -0.12174877
v -0.00121101 0.04289428 0.10772108
v -0.00121101 0.04294823 0.08836131
v -0.01815421 0.04349257 -0.10046533
v -0.02299586 -0.03994127 0.12218077
v -0.03025798 0.04347010 -0.11740561
v 0.03025761 -0.04206555 0.12153545
v -0.03025739 -0.03510072 0.12218077
v -0.03025739 -0.03752186 -0.12182045
v 0.03433591 -0.03268131 0.10528305
v 0.00846629 -0.04369908 0.11740066
v -0.00363181 0.04183771 -0.12160590
v -0.03025832 0.04150998 0.12125455
v 0.03025761 -0.03268131 0.12222859
v -0.03374115 0.03752113 0.11740326
v 0.03401288 -0.03085217 0.11740066
v -0.01465755 -0.04357554 0.11209473
v -0.02783580 0.04220384 -0.12161782
f 79 125 11
f 79 11 2
f 19 125 5
f 19 11 125
f 6 79 8
f 79 2 8
f 8 2 119
f 5 125 78
f 91 119 92
f 119 2 92
f 3 42 11
f 22 42 3
f 57 2 11
f 11 42 57
f 116 2 57
f 22 116 57
f 57 42 22
f 44 10 7
f 44 20 10
f 1 47 74
f 38 119 91
f 91 111 38
f 6 8 69
f 69 8 119
f 51 67 102
f 102 67 1
f 1 74 102
f 77 67 51
f 51 103 77
f 77 103 20
f 1 67 77
f 20 44 77
f 7 84 48
f 7 10 100
f 100 84 7
f 87 3 11
f 87 19 5
f 11 19 87
f 82 118 45
f 45 118 78
f 45 78 125
f 4 102 81
f 81 102 74
f 39 28 127
f 61 28 39
f 39 69 61
f 120 77 44
f 1 77 120
f 91 92 56
f 22 114 110
f 70 103 111
f 70 111 91
f 91 122 70
f 80 30 124
f 64 80 124
f 48 80 64
f 7 48 64
f 29 100 65
f 76 74 117
f 117 41 76
f 76 41 104
f 76 81 74
f 4 81 76
f 6 69 23
f 23 79 6
f 24 98 46
f 24 41 117
f 46 41 24
f 28 49 13
f 13 49 4
f 13 76 104
f 4 76 13
f 32 102 4
f 52 127 28
f 104 41 121
f 121 41 46
f 119 38 99
f 99 69 119
f 99 61 69
f 62 99 38
f 61 99 62
f 94 47 1
f 1 120 94
f 94 120 47
f 55 122 91
f 91 56 55
f 128 110 122
f 128 2 116
f 128 92 2
f 128 56 92
f 122 55 128
f 128 55 56
f 109 122 34
f 122 110 34
f 34 31 109
f 34 110 114
f 114 31 34
f 30 80 66
f 78 118 66
f 126 74 47
f 126 64 74
f 7 64 126
f 126 44 7
f 47 120 126
f 126 120 44
f 113 100 29
f 113 54 100
f 54 113 36
f 22 3 36
f 36 114 22
f 36 31 114
f 36 113 29
f 17 65 100
f 17 100 10
f 10 20 17
f 17 70 122
f 20 103 17
f 103 70 17
f 21 69 39
f 39 25 21
f 83 37 82
f 82 45 83
f 83 40 37
f 23 40 83
f 83 45 125
f 83 125 79
f 79 23 83
f 28 13 96
f 4 49 97
f 97 32 4
f 33 121 46
f 72 128 116
f 110 128 72
f 72 116 22
f 22 110 72
f 26 80 48
f 26 66 80
f 73 66 26
f 12 66 118
f 30 66 12
f 123 66 73
f 5 78 123
f 78 66 123
f 15 36 3
f 3 87 15
f 15 87 5
f 5 53 15
f 31 36 75
f 109 31 75
f 29 65 75
f 75 36 29
f 65 17 75
f 75 122 109
f 75 17 122
f 86 68 127
f 86 33 46
f 127 33 86
f 82 37 86
f 39 127 108
f 127 68 108
f 108 68 40
f 25 40 101
f 101 21 25
f 69 21 101
f 101 23 69
f 101 40 23
f 115 12 118
f 98 24 58
f 24 50 58
f 58 115 98
f 58 50 30
f 30 12 58
f 12 115 58
f 90 24 117
f 90 50 24
f 30 50 90
f 89 52 95
f 95 52 28
f 35 13 104
f 35 96 13
f 89 96 35
f 104 121 35
f 35 121 89
f 85 62 38
f 85 38 111
f 51 102 85
f 85 103 51
f 111 103 85
f 102 32 85
f 32 97 85
f 61 62 14
f 28 61 14
f 62 85 14
f 14 85 97
f 121 33 107
f 107 52 89
f 89 121 107
f 127 52 107
f 107 33 127
f 93 26 48
f 27 15 53
f 36 15 27
f 63 86 37
f 68 86 63
f 37 40 63
f 40 68 63
f 9 25 39
f 39 108 9
f 9 40 25
f 9 108 40
f 46 98 59
f 98 115 59
f 82 86 59
f 59 86 46
f 59 118 82
f 59 115 118
f 124 30 71
f 30 90 71
f 71 90 117
f 71 64 124
f 117 74 71
f 74 64 71
f 18 96 89
f 89 95 18
f 28 96 18
f 18 95 28
f 28 14 105
f 105 14 97
f 105 49 28
f 105 97 49
f 84 100 112
f 43 123 73
f 73 26 43
f 54 36 16
f 36 112 16
f 100 54 16
f 16 112 100
f 36 93 60
f 60 112 36
f 84 112 60
f 60 48 84
f 60 93 48
f 88 43 36
f 88 27 53
f 36 27 88
f 88 53 5
f 5 123 88
f 123 43 88
f 26 93 106
f 106 43 26
f 106 93 36
f 36 43 106

