# https://github.com/mikedh/trimesh
v 0.00493716 -0.04849890 0.06319622
v 0.00507855 -0.04849890 0.06319622
v 0.00562076 -0.04728273 0.06452292
v 0.00488470 -0.04726560 0.06450187
v 0.00472107 -0.04774522 0.06369461
v 0.00446850 -0.04781945 0.06250128
v 0.00493773 -0.04849319 0.06250128
v 0.00645545 -0.04744831 0.06379289
v 0.00630835 -0.04723135 0.06448081
v 0.00511903 -0.04849319 0.06250128
v 0.00576501 -0.04832761 0.06250128
v 0.00562076 -0.04652905 0.06467736
v 0.00478493 -0.04652905 0.06459312
v 0.00432368 -0.04652905 0.06379289
v 0.00400668 -0.04652905 0.06250128
v 0.00395309 -0.04652905 0.06120966
v 0.00395822 -0.04652905 0.05991104
v 0.00451468 -0.04766529 0.05991104
v 0.00457397 -0.04791651 0.06130092
v 0.00496281 -0.04847607 0.06179230
v 0.00665272 -0.04652905 0.06379289
v 0.00656150 -0.04768241 0.06250128
v 0.00688591 -0.04652905 0.06250128
v 0.00633629 -0.04652905 0.06452292
v 0.00506259 -0.04847607 0.06179230
v 0.00554436 -0.04829335 0.06130092
v 0.00651361 -0.04764815 0.06120966
v 0.00562076 -0.04523295 0.06467034
v 0.00476212 -0.04523295 0.06461418
v 0.00430658 -0.04523295 0.06379289
v 0.00400725 -0.04523295 0.06250128
v 0.00409961 -0.04652905 0.05861943
v 0.00355569 -0.04234384 0.05086274
v 0.00358078 -0.04218397 0.04980278
v 0.00467147 -0.04744831 0.05861943
v 0.00485905 -0.04725990 0.05781217
v 0.00562076 -0.04793364 0.05991104
v 0.00684486 -0.04523295 0.06250128
v 0.00659172 -0.04523295 0.06379289
v 0.00631292 -0.04523295 0.06449486
v 0.00681806 -0.04652905 0.06120966
v 0.00642809 -0.04744260 0.05991104
v 0.00668579 -0.04652905 0.05991104
v 0.00485334 -0.04435366 0.06453697
v 0.00627757 -0.04457062 0.06445273
v 0.00562076 -0.04439934 0.06451591
v 0.00461902 -0.04393114 0.06383500
v 0.00284130 -0.03488697 0.03922421
v 0.00369652 -0.04198984 0.04893937
v 0.00325409 -0.03600607 0.03922421
v 0.00494628 -0.04460489 0.05277208
v 0.00521197 -0.04725990 0.05781217
v 0.00563444 -0.04745403 0.05861943
v 0.00633629 -0.04727132 0.05904762
v 0.00638703 -0.04405675 0.06369461
v 0.00657632 -0.04264646 0.05344597
v 0.00618349 -0.03101009 0.03534938
v 0.00647370 -0.04656331 0.05861943
v 0.00632147 -0.04340585 0.05258255
v 0.00638989 -0.04366849 0.05344597
v 0.00562076 -0.04375414 0.06405261
v 0.00106131 0.00058168 -0.00671220
v 0.00237949 -0.01617058 0.01269706
v 0.00344224 -0.03576627 0.03826954
v 0.00501184 -0.04460489 0.05277208
v 0.00432767 -0.03584050 0.03814319
v 0.00607403 -0.04702009 0.05818421
v 0.00624507 -0.04454779 0.05414793
v 0.00635397 -0.04477618 0.05501134
v 0.00640756 -0.04266930 0.05215435
v 0.00607174 -0.03101009 0.03405075
v 0.00626844 -0.04200126 0.05020992
v 0.00213888 -0.00091997 -0.00688769
v 0.00214173 -0.00215327 -0.00565926
v 0.00244277 -0.01349844 0.00892752
v 0.00336185 -0.01902543 0.01493632
v 0.00346789 -0.02018450 0.01636832
v 0.00360986 -0.03431030 0.03588287
v 0.00515780 -0.04212117 0.04874282
v 0.00531915 -0.04351433 0.05112247
v 0.00432767 -0.03432743 0.03585479
v 0.00503066 -0.03428746 0.03591797
v 0.00618121 -0.04311465 0.05171914
v 0.00598622 -0.03230619 0.03534938
v 0.00515153 -0.02031011 0.01725279
v 0.00533968 -0.02073263 0.01848825
v 0.00544687 -0.01937372 0.01725279
v 0.00563672 -0.02066411 0.01983601
v 0.00518802 -0.03315694 0.03440173
v 0.00551015 -0.03236900 0.03400863
v 0.00270048 -0.00091997 -0.00688769
v 0.00267254 -0.00215327 -0.00565926
v 0.00363494 -0.01746668 0.01269004
v 0.00365604 -0.02133215 0.01787052
v 0.00432767 -0.03388778 0.03520899
v 0.00514412 -0.03570918 0.03830464
v 0.00432767 -0.02019021 0.01636130
v 0.00501983 -0.02008172 0.01651573
v 0.00514412 -0.01932804 0.01603138
v 0.00507057 -0.01763797 0.01379212
v 0.00311725 -0.00133678 -0.00608745
v 0.00463384 -0.01720975 0.01293572
v 0.00390234 -0.01625052 0.01131419
v 0.00377235 -0.01746668 0.01269004
v 0.00377520 -0.02133215 0.01787052
v 0.00432767 -0.01968775 0.01571549
v 0.00432767 -0.01904827 0.01490824
v 0.00432767 -0.01852297 0.01426243
v 0.00504719 -0.01885985 0.01514690
v 0.00353403 -0.00175359 -0.00515384
v 0.00383336 -0.00089713 -0.00565926
v -0.00670429 0.04197187 -0.04298234
v -0.00679518 0.04962874 -0.05344188
v -0.00668192 0.05236074 -0.05712568
v -0.00677001 0.04576888 -0.04825463
v -0.00667353 0.03942839 -0.03904683
v -0.00682595 0.04270283 -0.04345854
v -0.00676582 0.04314272 -0.04446198
v -0.00685391 0.04531245 -0.04730221
v -0.00691544 0.04917892 -0.05249627
v -0.00684552 0.05082275 -0.05486030
v -0.00682874 0.05209614 -0.05645218
v -0.00672666 0.05358782 -0.05848627
v -0.00508083 0.05503320 -0.06091833
v -0.00421807 0.05494059 -0.06100336
v 0.00271904 0.05491083 -0.06103398
v 0.00358181 0.05499021 -0.06095914
v 0.00432711 0.05448746 -0.06014960
v -0.00667353 0.03940525 -0.03835293
v -0.00701752 0.04398283 -0.04352317
v -0.00716154 0.04656930 -0.04740426
v -0.00705527 0.04527606 -0.04611170
v -0.00631136 0.03622342 -0.03447184
v -0.00618411 0.03493019 -0.03188672
v -0.00646937 0.03751666 -0.03576780
v -0.00719930 0.04914915 -0.05127854
v -0.00694480 0.04654615 -0.04869002
v -0.00699514 0.05041262 -0.05387047
v -0.00703430 0.05165293 -0.05523786
v -0.00683993 0.05310823 -0.05763250
v -0.00687489 0.05438163 -0.05896588
v -0.00674065 0.05485460 -0.05979924
v -0.00601492 0.05461976 -0.06004755
v -0.00601492 0.05525481 -0.06069383
v -0.00601492 0.05590308 -0.06128569
v -0.00472146 0.05641905 -0.06215646
v -0.00467811 0.05552602 -0.06141835
v -0.00342941 0.05488436 -0.06105098
v -0.00371327 0.05630329 -0.06224150
v -0.00213596 0.05482483 -0.06110881
v 0.00516192 0.05348529 -0.05860873
v 0.00174161 0.05486121 -0.06108160
v 0.00174161 0.05561532 -0.06170747
v 0.00174161 0.05629006 -0.06224830
v 0.00303506 0.05638928 -0.06217687
v 0.00310358 0.05549956 -0.06145236
v 0.00432711 0.05667042 -0.06199319
v 0.00432711 0.05581047 -0.06134691
v 0.00432711 0.05516550 -0.06079587
v 0.00514793 0.05474876 -0.05989108
v -0.00084250 0.05480168 -0.06113262
v 0.00044815 0.05481822 -0.06111902
v -0.00633234 0.03622342 -0.03317928
v -0.00666654 0.03941517 -0.03763862
v -0.00666654 0.03964669 -0.03763862
v -0.00678539 0.04139636 -0.03964549
v -0.00708603 0.04527606 -0.04481914
v -0.00722727 0.04785923 -0.04869342
v -0.00728320 0.05044239 -0.05257110
v -0.00715875 0.05302886 -0.05645218
v -0.00718671 0.05432209 -0.05774475
v -0.00687768 0.05567817 -0.06026864
v -0.00673785 0.05614783 -0.06108500
v -0.00611420 0.05688210 -0.06197618
v -0.00574923 0.05729554 -0.06244219
v -0.00472146 0.05706732 -0.06258845
v -0.00334131 0.05574101 -0.06179591
v -0.00285050 0.05625698 -0.06227551
v -0.00334131 0.05680272 -0.06260546
v -0.00213596 0.05558225 -0.06175509
v 0.00538285 0.05431879 -0.05903731
v 0.00614634 0.04879194 -0.05167311
v 0.00639384 0.04535214 -0.04729541
v 0.00016010 0.05622721 -0.06229592
v 0.00174161 0.05693833 -0.06270410
v 0.00303506 0.05703755 -0.06263267
v 0.00432711 0.05731869 -0.06243198
v 0.00498852 0.05753037 -0.06228572
v 0.00511158 0.05607176 -0.06114282
v 0.00533111 0.05563186 -0.06032647
v -0.00084250 0.05555910 -0.06177890
v -0.00644840 0.03751666 -0.03447184
v -0.00665535 0.04050664 -0.03776788
v -0.00685251 0.04268960 -0.04093805
v -0.00713358 0.04656930 -0.04611170
v -0.00727481 0.04914915 -0.04998598
v -0.00731816 0.05173562 -0.05386366
v -0.00718532 0.05561532 -0.05903731
v -0.00716434 0.05690856 -0.06032987
v -0.00686370 0.05690856 -0.06135031
v -0.00661060 0.05761637 -0.06222789
v -0.00525982 0.05889637 -0.06354767
v -0.00478579 0.05827787 -0.06329256
v -0.00342941 0.05800004 -0.06333338
v -0.00213596 0.05622721 -0.06229592
v -0.00213596 0.05690856 -0.06275173
v -0.00213596 0.05791735 -0.06337079
v 0.00586807 0.05432209 -0.05774475
v 0.00589464 0.05302886 -0.05645218
v 0.00631833 0.04836858 -0.05080914
v 0.00632393 0.04709519 -0.04948596
v 0.00654486 0.04386707 -0.04493139
v 0.00678537 0.04139636 -0.04093805
v 0.00639944 0.04662553 -0.04862879
v -0.00084250 0.05620737 -0.06231293
v 0.00053345 0.05678288 -0.06264968
v 0.00044815 0.05789420 -0.06337079
v 0.00174161 0.05795043 -0.06335038
v 0.00303506 0.05808603 -0.06327895
v 0.00371325 0.05882691 -0.06357488
v 0.00511997 0.05820180 -0.06246600
v 0.00520526 0.05702432 -0.06159182
v 0.00457462 0.05920727 -0.06337760
v 0.00500390 0.06006723 -0.06359529
v 0.00577578 0.05561532 -0.05903731
v 0.00565413 0.05690856 -0.06032987
v -0.00716714 0.04785923 -0.04740426
v -0.00729998 0.05044239 -0.05127854
v -0.00731396 0.05302886 -0.05515962
v -0.00721608 0.05820180 -0.06032987
v -0.00713637 0.05949503 -0.06162243
v -0.00696718 0.05810918 -0.06172788
v -0.00729159 0.05432209 -0.05645218
v -0.00678120 0.05847963 -0.06242858
v -0.00650433 0.06048067 -0.06343883
v -0.00604987 0.05939250 -0.06331637
v -0.00564296 0.05975632 -0.06368373
v -0.00472146 0.06078826 -0.06427559
v -0.00478579 0.05939250 -0.06379598
v -0.00342941 0.05949503 -0.06402387
v -0.00439705 0.05875745 -0.06360549
v -0.00342941 0.05864500 -0.06365991
v -0.00213596 0.05856562 -0.06370754
v -0.00084250 0.05690856 -0.06277213
v -0.00084250 0.05789750 -0.06337419
v -0.00084250 0.05854577 -0.06372454
v 0.00610299 0.05302886 -0.05515962
v 0.00630295 0.04965520 -0.05206088
v 0.00660219 0.04527606 -0.04611170
v 0.00677419 0.04268960 -0.04223061
v 0.00689444 0.03880989 -0.03706037
v 0.00690423 0.03751666 -0.03576780
v 0.00689444 0.03622342 -0.03447184
v 0.00044815 0.05854247 -0.06372795
v 0.00174161 0.05859869 -0.06369393
v 0.00303506 0.05873430 -0.06361910
v 0.00303506 0.05949503 -0.06396265
v 0.00303506 0.06078826 -0.06446266
v 0.00421804 0.05958102 -0.06371094
v 0.00520946 0.05958102 -0.06293540
v 0.00546395 0.05820180 -0.06162243
v 0.00432711 0.06078826 -0.06406809
v 0.00369787 0.06269339 -0.06486404
v 0.00505424 0.06078826 -0.06366332
v 0.00588905 0.05561532 -0.05774475
v 0.00600511 0.05432209 -0.05645218
v 0.00553807 0.05949503 -0.06162243
v -0.00729439 0.05173562 -0.05257110
v -0.00710981 0.06078826 -0.06162243
v -0.00727061 0.05302886 -0.05386366
v -0.00692663 0.06337473 -0.06291499
v -0.00694201 0.06208150 -0.06291499
v -0.00687069 0.06086103 -0.06296942
v -0.00687209 0.05949503 -0.06261907
v -0.00668052 0.06134392 -0.06358508
v -0.00604987 0.06086103 -0.06379937
v -0.00464176 0.06215757 -0.06465315
v -0.00415654 0.06264047 -0.06487425
v -0.00342941 0.06177390 -0.06477901
v -0.00342941 0.06078826 -0.06449668
v -0.00213596 0.05949503 -0.06412932
v -0.00210519 0.06088749 -0.06465995
v -0.00084250 0.05949503 -0.06417354
v 0.00628337 0.05120973 -0.05226156
v 0.00630575 0.05044239 -0.05227857
v 0.00657143 0.04656930 -0.04740426
v 0.00687347 0.04010313 -0.03835293
v 0.00674203 0.04398283 -0.04352317
v 0.00696156 0.03622342 -0.03317928
v 0.00696716 0.03493019 -0.03188672
v 0.00044815 0.05949503 -0.06417354
v 0.00174161 0.05949503 -0.06410551
v 0.00165771 0.06090733 -0.06464975
v 0.00203246 0.06155230 -0.06482662
v 0.00303506 0.06182021 -0.06476200
v 0.00530734 0.06078826 -0.06291499
v 0.00303506 0.06246517 -0.06491506
v 0.00174161 0.06337473 -0.06523480
v 0.00303506 0.06337473 -0.06505793
v 0.00378456 0.06337473 -0.06489805
v 0.00443199 0.06337473 -0.06444906
v 0.00510738 0.06208150 -0.06375176
v 0.00523043 0.06337473 -0.06291499
v 0.00530455 0.06208150 -0.06291499
v -0.00673086 0.06337473 -0.06365991
v -0.00670429 0.06208150 -0.06361570
v -0.00601492 0.06337473 -0.06423137
v -0.00601492 0.06208150 -0.06406809
v -0.00504867 0.06337473 -0.06478240
v -0.00440264 0.06337473 -0.06492186
v -0.00342941 0.06337473 -0.06508514
v -0.00342941 0.06241886 -0.06493207
v -0.00251630 0.06154237 -0.06482662
v -0.00165493 0.06138361 -0.06487425
v -0.00084250 0.06071881 -0.06465995
v 0.00642880 0.04914915 -0.04998598
v 0.00650711 0.04785923 -0.04869342
v 0.00668469 0.04527606 -0.04481914
v 0.00683571 0.04139636 -0.03964549
v 0.00693220 0.03751666 -0.03447184
v 0.00677838 0.04268960 -0.04093805
v 0.00044815 0.06074527 -0.06465315
v 0.00117109 0.06141669 -0.06486063
v 0.00165771 0.06202196 -0.06497628
v 0.00511018 0.06337473 -0.06380278
v 0.00044815 0.06337473 -0.06531303
v 0.00174161 0.06417184 -0.06530283
v 0.00474242 0.06417184 -0.06417354
v -0.00451871 0.06417184 -0.06495928
v -0.00342941 0.06417184 -0.06516337
v -0.00213596 0.06417184 -0.06533004
v -0.00213596 0.06337473 -0.06524161
v -0.00210519 0.06201866 -0.06498309
v -0.00084250 0.06136708 -0.06487764
v -0.00084250 0.06208150 -0.06505793
v 0.00044815 0.06139023 -0.06487084
v 0.00660918 0.04656930 -0.04611170
v 0.00689025 0.03880989 -0.03576780
v 0.00044815 0.06208150 -0.06505453
v -0.00084250 0.06337473 -0.06531303
v -0.00084250 0.06417184 -0.06540147
v -0.00150015 0.06402762 -0.01442835
v 0.00394656 0.06307597 -0.01419956
v 0.00348074 0.06393801 -0.01449921
v -0.00292115 0.06290527 -0.01431699
v -0.00315848 0.06208378 -0.01406998
v -0.00236217 0.06376731 -0.01460247
v -0.00084309 0.06409590 -0.01437976
v -0.00084309 0.06474029 -0.01486568
v -0.00084309 0.06556179 -0.01551357
v -0.00179435 0.06544443 -0.01561075
v -0.00265637 0.06524812 -0.01577475
v -0.00385084 0.05561853 -0.01249277
v -0.00387045 0.05434042 -0.01249277
v 0.00499981 0.06151407 -0.01437773
v 0.00399952 0.06443090 -0.01536172
v 0.00363765 0.06528867 -0.01574438
v 0.00480858 0.06237610 -0.01479684
v 0.00261872 0.06410871 -0.01436559
v 0.00277563 0.06549564 -0.01556419
v -0.00305551 0.06438822 -0.01546498
v -0.00328303 0.06335122 -0.01505195
v -0.00385378 0.06204964 -0.01518962
v 0.00044847 0.06417911 -0.01431497
v 0.00044847 0.06482564 -0.01481506
v 0.00044847 0.06562579 -0.01546093
v 0.00044847 0.06627232 -0.01601569
v -0.00084309 0.06620831 -0.01607238
v -0.00213661 0.06677162 -0.01686807
v -0.00282014 0.06664146 -0.01698550
v -0.00396166 0.05820463 -0.01378451
v -0.00406757 0.06245719 -0.01601974
v -0.00399304 0.05691158 -0.01378451
v 0.00541856 0.05434042 -0.01249277
v 0.00524596 0.05820463 -0.01378451
v 0.00515770 0.06079073 -0.01507827
v 0.00504296 0.06200057 -0.01516735
v 0.00499491 0.06281565 -0.01565935
v 0.00486154 0.06367769 -0.01611894
v 0.00393381 0.06596079 -0.01670407
v 0.00368962 0.06661372 -0.01700980
v 0.00313750 0.06593946 -0.01613514
v 0.00174199 0.06482351 -0.01482114
v 0.00174199 0.06417698 -0.01431497
v 0.00174199 0.06561086 -0.01546700
v 0.00303453 0.06675668 -0.01687009
v 0.00174199 0.06694018 -0.01669395
v 0.00174199 0.06625739 -0.01604606
v -0.00352329 0.06468695 -0.01636393
v -0.00307022 0.06596079 -0.01670812
v -0.00399108 0.06498568 -0.01729527
v -0.00409601 0.06412365 -0.01695311
v 0.00044847 0.06697859 -0.01666358
v -0.00084309 0.06692952 -0.01671825
v -0.00084309 0.06757604 -0.01735196
v -0.00213661 0.06741814 -0.01751596
v -0.00280936 0.06792171 -0.01828533
v -0.00303589 0.06714503 -0.01777714
v -0.00408032 0.06159515 -0.01569377
v 0.00541954 0.05434042 -0.01250694
v 0.00509886 0.06208378 -0.01637000
v 0.00498707 0.06420685 -0.01766376
v 0.00498216 0.06405749 -0.01698145
v 0.00448888 0.06596079 -0.01766376
v 0.00392597 0.06690818 -0.01766376
v 0.00394950 0.06822257 -0.01921466
v 0.00360725 0.06786196 -0.01835215
v 0.00274523 0.06805187 -0.01813551
v 0.00174199 0.06758671 -0.01735196
v 0.00044847 0.06762512 -0.01730135
v -0.00374493 0.06592879 -0.01770223
v -0.00400285 0.06634060 -0.01855866
v -0.00411170 0.06547857 -0.01815778
v -0.00434216 0.06983995 -0.02412649
v 0.00044847 0.06823750 -0.01794722
v -0.00084309 0.06818416 -0.01799986
v -0.00213661 0.06802626 -0.01816183
v -0.00265637 0.06915502 -0.01964794
v -0.00310160 0.06947081 -0.02050842
v -0.00306728 0.06821190 -0.01895752
v -0.00374297 0.06723464 -0.01897574
v 0.00466050 0.07113300 -0.02671199
v 0.00467815 0.06983995 -0.02412649
v 0.00475366 0.06725384 -0.02024926
v 0.00489096 0.06485339 -0.01766376
v 0.00463402 0.06854689 -0.02154100
v 0.00417604 0.06861091 -0.02020876
v 0.00427313 0.06736054 -0.01885224
v 0.00387007 0.06940679 -0.02060965
v 0.00342974 0.06908460 -0.01974917
v 0.00308748 0.06856824 -0.01893323
v 0.00256772 0.06926170 -0.01951633
v 0.00174199 0.06882428 -0.01876113
v 0.00174199 0.06817776 -0.01799783
v -0.00399794 0.06765499 -0.01983420
v -0.00411955 0.06679296 -0.01942117
v -0.00412641 0.06807534 -0.02069266
v -0.00418525 0.06852342 -0.02156327
v -0.00418918 0.06978447 -0.02291372
v -0.00442552 0.07242604 -0.02800575
v -0.00455007 0.07371910 -0.03059124
v 0.00044847 0.06888403 -0.01868014
v -0.00084309 0.06883068 -0.01874291
v -0.00179435 0.06926810 -0.01951228
v -0.00140208 0.07047153 -0.02091132
v -0.00213661 0.07036058 -0.02106520
v -0.00213661 0.07083000 -0.02171107
v -0.00282211 0.07180513 -0.02344013
v -0.00299274 0.07064650 -0.02196618
v -0.00396362 0.06893737 -0.02114821
v -0.00385476 0.07017708 -0.02253510
v 0.00450849 0.07371910 -0.03059124
v 0.00455458 0.07242604 -0.02800575
v 0.00455556 0.07113300 -0.02542025
v 0.00448005 0.06983995 -0.02283476
v 0.00404463 0.06983781 -0.02159364
v 0.00395833 0.07083854 -0.02283476
v 0.00376906 0.07057396 -0.02205931
v 0.00303453 0.07030937 -0.02113809
v 0.00227842 0.07046940 -0.02091537
v 0.00174199 0.06934918 -0.01940700
v -0.00412739 0.06931505 -0.02200869
v -0.00410778 0.07053982 -0.02339761
v -0.00418329 0.07075532 -0.02412649
v -0.00431078 0.07374257 -0.02933190
v -0.00425488 0.07462380 -0.03059124
v -0.00417054 0.07195449 -0.02577862
v 0.00044847 0.06940892 -0.01932601
v -0.00084309 0.06936198 -0.01938878
v -0.00054006 0.07053768 -0.02082629
v -0.00092056 0.07091109 -0.02142154
v -0.00084309 0.07162589 -0.02240755
v -0.00213661 0.07192034 -0.02327006
v -0.00213661 0.07147653 -0.02262419
v -0.00092056 0.07009599 -0.02033632
v -0.00213661 0.07244738 -0.02412649
v -0.00213661 0.07295308 -0.02496875
v -0.00295940 0.07318353 -0.02586568
v -0.00308002 0.07201637 -0.02412649
v -0.00333892 0.07102417 -0.02298863
v 0.00432412 0.07371910 -0.02929951
v 0.00433883 0.07242604 -0.02671199
v 0.00416329 0.07123328 -0.02404146
v 0.00387301 0.07200143 -0.02441602
v 0.00359155 0.07173044 -0.02355351
v 0.00303453 0.07077026 -0.02178598
v 0.00272953 0.07192675 -0.02325791
v 0.00174199 0.07161523 -0.02242982
v 0.00180475 0.07090042 -0.02142559
v 0.00141640 0.07053128 -0.02083439
v -0.00372629 0.07140185 -0.02412649
v -0.00400089 0.07165363 -0.02491814
v -0.00409307 0.07309391 -0.02731534
v -0.00419310 0.07328168 -0.02800575
v -0.00413720 0.07444244 -0.02978543
v 0.00044847 0.07005545 -0.02015410
v 0.00044847 0.07055902 -0.02079997
v 0.00044847 0.07109459 -0.02154100
v 0.00044847 0.07166857 -0.02235086
v -0.00084309 0.07205904 -0.02305342
v -0.00135697 0.07305550 -0.02480273
v -0.00213661 0.07332862 -0.02561462
v -0.00382142 0.07281652 -0.02645283
v -0.00249848 0.07427387 -0.02753603
v -0.00301726 0.07448938 -0.02839651
v -0.00387928 0.07419065 -0.02892292
v 0.00386909 0.07457046 -0.02929951
v 0.00401619 0.07374043 -0.02807458
v 0.00399756 0.07243031 -0.02550326
v 0.00372297 0.07311098 -0.02599121
v 0.00303453 0.07290187 -0.02506594
v 0.00311004 0.07224894 -0.02404146
v 0.00311004 0.07145946 -0.02282868
v 0.00174199 0.07204410 -0.02307772
v 0.00226371 0.07305337 -0.02480678
v -0.00344092 0.07468355 -0.02933190
v 0.00044847 0.07209318 -0.02299673
v 0.00044847 0.07273971 -0.02402323
v -0.00049495 0.07311098 -0.02470960
v -0.00089310 0.07276744 -0.02421760
v -0.00089310 0.07340544 -0.02530890
v -0.00084309 0.07410744 -0.02653584
v -0.00163646 0.07440829 -0.02728092
v -0.00209542 0.07399862 -0.02679500
v -0.00209542 0.07461100 -0.02798145
v -0.00240041 0.07555839 -0.03015594
v 0.00373473 0.07441469 -0.02855038
v 0.00387203 0.07329021 -0.02671199
v 0.00329147 0.07418638 -0.02768990
v 0.00293057 0.07390047 -0.02682334
v 0.00303453 0.07327101 -0.02571180
v 0.00179593 0.07275677 -0.02421153
v 0.00140169 0.07311738 -0.02469745
v 0.00242945 0.07438055 -0.02732749
v 0.00174199 0.07411170 -0.02656216
v 0.00179593 0.07341397 -0.02531092
v 0.00044847 0.07313445 -0.02466910
v 0.00044847 0.07357187 -0.02542025
v 0.00044847 0.07415651 -0.02646700
v -0.00084309 0.07445737 -0.02718171
v -0.00084309 0.07484998 -0.02800575
v -0.00153839 0.07566934 -0.02991906
v -0.00203560 0.07584430 -0.03058922
v 0.00283153 0.07574829 -0.03065198
v 0.00303453 0.07505269 -0.02929951
v 0.00293057 0.07453632 -0.02807458
v 0.00233432 0.07564800 -0.02996967
v 0.00183908 0.07544529 -0.02934000
v 0.00174199 0.07482864 -0.02800575
v 0.00174199 0.07444030 -0.02720803
v 0.00044847 0.07448938 -0.02711287
v 0.00044847 0.07492039 -0.02800575
v 0.00044847 0.07574829 -0.02975506
v -0.00084309 0.07570561 -0.02984414
v -0.00084309 0.07603207 -0.03059124
v 0.00183908 0.07595313 -0.03047584
v 0.00147230 0.07572908 -0.02979758
v 0.00044847 0.07611316 -0.03059124
v 0.00050829 0.07613450 -0.03065198
v 0.00421316 0.07888997 -0.05128047
v 0.00425548 0.07888997 -0.04998636
v 0.00427664 0.07888997 -0.04869428
v 0.00379301 0.07963585 -0.05143918
v 0.00380409 0.07964680 -0.05128047
v 0.00384742 0.07969059 -0.04998636
v 0.00385951 0.07970017 -0.04869428
v 0.00427059 0.07888997 -0.04740017
v 0.00447109 0.07759802 -0.04352190
v 0.00447412 0.07759802 -0.04481397
v 0.00453255 0.07630471 -0.03835155
v 0.00315725 0.07999305 -0.05143918
v 0.00303432 0.08007927 -0.05128047
v 0.00303432 0.08017918 -0.04998636
v 0.00303432 0.08019971 -0.04869428
v 0.00384440 0.07968375 -0.04740017
v 0.00420107 0.07888997 -0.04610809
v 0.00445396 0.07759802 -0.04222982
v 0.00446404 0.07630471 -0.03705947
v 0.00453457 0.07501139 -0.03447328
v 0.00443986 0.07501139 -0.03317916
v 0.00164088 0.08064450 -0.05124588
v 0.00188269 0.08067324 -0.04998636
v 0.00194214 0.08068282 -0.04869428
v 0.00303432 0.08015317 -0.04740017
v 0.00377487 0.07961806 -0.04610809
v 0.00406706 0.07875585 -0.04352190
v 0.00438444 0.07759802 -0.04093774
v 0.00431391 0.07630471 -0.03576535
v 0.00424036 0.07501139 -0.03188709
v 0.00114315 0.08084431 -0.05079212
v 0.00123585 0.08087169 -0.04998636
v 0.00129630 0.08089222 -0.04869428
v 0.00121368 0.08086758 -0.04740017
v 0.00185952 0.08065271 -0.04740017
v 0.00303432 0.08003548 -0.04610809
v 0.00370938 0.07955921 -0.04531046
v 0.00402273 0.07863268 -0.04222982
v 0.00423432 0.07759802 -0.03964566
v 0.00400560 0.07732841 -0.03705947
v 0.00398344 0.07601731 -0.03317916
v 0.00396329 0.07499634 -0.03065402
v -0.00569610 0.07759802 -0.05143918
v -0.00469762 0.07371945 -0.03188709
v 0.00047313 0.08090042 -0.05124588
v 0.00044895 0.08097981 -0.04998636
v 0.00044895 0.08099623 -0.04869428
v 0.00044895 0.08093738 -0.04740017
v 0.00112401 0.08083884 -0.04665137
v 0.00162980 0.08063082 -0.04617523
v 0.00174164 0.08042279 -0.04481397
v 0.00281770 0.07976039 -0.04352190
v 0.00311896 0.07981513 -0.04485263
v 0.00360661 0.07948393 -0.04444771
v 0.00393407 0.07849444 -0.04093774
v 0.00386555 0.07713544 -0.03576535
v 0.00378898 0.07833980 -0.03964566
v 0.00380309 0.07578054 -0.03188709
v 0.00374666 0.07700817 -0.03495755
v 0.00368319 0.07566010 -0.03123596
v -0.00544220 0.07840960 -0.04610809
v -0.00547847 0.07850129 -0.04740017
v -0.00551071 0.07856835 -0.04869428
v -0.00553489 0.07860530 -0.04998636
v -0.00425933 0.07464324 -0.03065402
v -0.00461500 0.07501139 -0.03317916
v -0.00479938 0.07501139 -0.03447328
v -0.00537167 0.07824948 -0.04414860
v -0.00084374 0.08094559 -0.05128047
v -0.00084374 0.08100581 -0.04998636
v -0.00084374 0.08100581 -0.04869428
v -0.00084374 0.08094696 -0.04740017
v -0.00084374 0.08086485 -0.04644789
v 0.00044895 0.08085800 -0.04648045
v 0.00044895 0.08079504 -0.04583339
v 0.00044895 0.08066366 -0.04481397
v 0.00044895 0.08044606 -0.04352190
v 0.00174164 0.08020107 -0.04352190
v 0.00346455 0.07940182 -0.04352190
v 0.00257589 0.07963448 -0.04222982
v 0.00322274 0.07927865 -0.04222982
v 0.00369226 0.07825357 -0.03896401
v 0.00343533 0.07812630 -0.03810330
v 0.00257287 0.07831653 -0.03749288
v 0.00302626 0.07716145 -0.03450583
v 0.00345145 0.07683709 -0.03409684
v 0.00303432 0.07578875 -0.03093074
v 0.00258899 0.07702733 -0.03360850
v 0.00303432 0.07617469 -0.03188709
v -0.00555303 0.07861488 -0.05128047
v -0.00555202 0.07860941 -0.05143918
v -0.00539887 0.07830422 -0.04481397
v -0.00508955 0.07914726 -0.04740017
v -0.00514094 0.07921433 -0.04869428
v -0.00514900 0.07925128 -0.04998636
v -0.00411828 0.07570390 -0.03242223
v -0.00424019 0.07586265 -0.03317916
v -0.00439838 0.07612679 -0.03447328
v -0.00452130 0.07865594 -0.04222982
v -0.00480140 0.07870247 -0.04363991
v -0.00420090 0.07961670 -0.04503373
v -0.00498175 0.07905557 -0.04610809
v -0.00434296 0.07723945 -0.03705947
v -0.00419787 0.07835075 -0.03990000
v -0.00435304 0.07849035 -0.04093774
v -0.00084374 0.08092917 -0.05143918
v -0.00162257 0.08086073 -0.05143918
v -0.00165381 0.08086758 -0.05128047
v -0.00177975 0.08089769 -0.04998636
v -0.00177270 0.08090042 -0.04869428
v -0.00169008 0.08087716 -0.04740017
v -0.00157522 0.08084705 -0.04660660
v -0.00084374 0.08079094 -0.04580084
v -0.00084374 0.08065545 -0.04481397
v -0.00084374 0.08042689 -0.04352190
v 0.00044895 0.08019150 -0.04222982
v 0.00174164 0.07994515 -0.04222982
v 0.00242274 0.07955374 -0.04152172
v 0.00301619 0.07841781 -0.03846142
v 0.00199856 0.07817009 -0.03663013
v 0.00202577 0.07943330 -0.04066101
v 0.00165398 0.07965638 -0.04103134
v 0.00116431 0.07955647 -0.04024184
v 0.00174164 0.07750359 -0.03447328
v 0.00174164 0.07712039 -0.03336636
v 0.00174164 0.07688362 -0.03271931
v 0.00174164 0.07655242 -0.03188709
v -0.00511172 0.07926223 -0.05128047
v -0.00433591 0.07970428 -0.04610809
v -0.00444271 0.07978229 -0.04740017
v -0.00449409 0.07982061 -0.04869428
v -0.00450215 0.07981787 -0.04998636
v -0.00385027 0.07549588 -0.03155949
v -0.00342307 0.07590919 -0.03195016
v -0.00402558 0.07691783 -0.03519155
v -0.00419888 0.07707249 -0.03605429
v -0.00407495 0.07953595 -0.04417099
v -0.00342911 0.08019150 -0.04610809
v -0.00355808 0.07988904 -0.04468782
v -0.00404976 0.07823031 -0.03903726
v -0.00226338 0.08069514 -0.05143918
v -0.00230066 0.08070745 -0.05128047
v -0.00242660 0.08074030 -0.04998636
v -0.00241854 0.08073208 -0.04869428
v -0.00233592 0.08072525 -0.04740017
v -0.00205784 0.08068282 -0.04614878
v -0.00213642 0.08046385 -0.04481397
v -0.00213642 0.08021340 -0.04352190
v -0.00084374 0.08017097 -0.04222982
v -0.00084374 0.07986030 -0.04093774
v 0.00044895 0.07987125 -0.04093774
v 0.00044895 0.07960985 -0.04009738
v 0.00113610 0.07825221 -0.03639003
v 0.00044895 0.07716281 -0.03326666
v 0.00044895 0.07691783 -0.03261960
v 0.00044895 0.07663728 -0.03188709
v -0.00446588 0.07977271 -0.05128047
v -0.00342911 0.08032425 -0.04740017
v -0.00342911 0.08036941 -0.04869428
v -0.00342911 0.08037352 -0.04998636
v -0.00298781 0.07575864 -0.03101824
v -0.00352785 0.07732157 -0.03567990
v -0.00279939 0.07695752 -0.03380994
v -0.00308050 0.07708207 -0.03447328
v -0.00392886 0.07945930 -0.04352190
v -0.00328201 0.07978913 -0.04352190
v -0.00333541 0.07789638 -0.03714289
v -0.00284171 0.07826590 -0.03762921
v -0.00279839 0.07954416 -0.04155631
v -0.00361752 0.07930192 -0.04222982
v -0.00342911 0.08029687 -0.05128047
v -0.00297068 0.07963175 -0.04222982
v -0.00213642 0.07992189 -0.04222982
v -0.00153693 0.07955100 -0.04025202
v -0.00084374 0.07960574 -0.04010552
v 0.00044895 0.07759939 -0.03447328
v -0.00084374 0.07755149 -0.03447328
v -0.00084374 0.07713407 -0.03334805
v -0.00084374 0.07688636 -0.03270099
v -0.00084374 0.07656611 -0.03188709
v -0.00213642 0.07636630 -0.03188709
v -0.00213642 0.07679056 -0.03295127
v -0.00213642 0.07703964 -0.03359833
v -0.00213642 0.07736673 -0.03447328
v -0.00213642 0.07783890 -0.03576535
v -0.00239839 0.07941961 -0.04069763
v -0.00203466 0.07963996 -0.04104965
v -0.00122661 0.07823031 -0.03645311
v 0.00037926 0.08089253 -0.05143918
v 0.00005740 0.08086465 -0.05210355
v -0.00084453 0.08086136 -0.05208979
v -0.00151773 0.08083676 -0.05196737
v 0.00068344 0.08085644 -0.05143918
v 0.00091924 0.08080560 -0.05165514
v 0.00047240 0.08073016 -0.05255058
v 0.00044882 0.08041853 -0.05386692
v -0.00084453 0.08073999 -0.05273627
v -0.00084453 0.08045298 -0.05386692
v -0.00213670 0.08023321 -0.05386692
v -0.00202352 0.08061042 -0.05246942
v 0.00165611 0.08061371 -0.05143918
v 0.00174218 0.08043002 -0.05257396
v 0.00174218 0.08011840 -0.05386692
v 0.00165257 0.07970018 -0.05513237
v 0.00116329 0.07955258 -0.05583800
v 0.00044882 0.07993963 -0.05515988
v -0.00084453 0.07997408 -0.05515988
v -0.00210133 0.07975595 -0.05519152
v -0.00311055 0.07963622 -0.05478163
v -0.00397239 0.07950501 -0.05439649
v -0.00349608 0.07979038 -0.05392607
v -0.00342888 0.08012332 -0.05257396
v -0.00342888 0.08027585 -0.05143918
v 0.00304614 0.08004951 -0.05143918
v 0.00312631 0.07983138 -0.05260148
v 0.00276200 0.07971002 -0.05386692
v 0.00251795 0.07958865 -0.05468259
v 0.00202514 0.07945581 -0.05554502
v 0.00165257 0.07921308 -0.05634281
v 0.00161720 0.07848652 -0.05779120
v 0.00044882 0.07927540 -0.05657939
v 0.00044882 0.07959849 -0.05593291
v -0.00084453 0.07961489 -0.05596317
v -0.00164742 0.07957389 -0.05587789
v -0.00250926 0.07947549 -0.05564405
v -0.00349608 0.07936888 -0.05519152
v -0.00483895 0.07868989 -0.05525204
v -0.00422587 0.07962146 -0.05353406
v -0.00442748 0.07844879 -0.05645284
v -0.00436853 0.07970018 -0.05257396
v 0.00373821 0.07958537 -0.05218745
v 0.00361795 0.07949681 -0.05304988
v 0.00340809 0.07939021 -0.05386692
v 0.00298365 0.07922456 -0.05513237
v 0.00311334 0.07864397 -0.05651749
v 0.00273371 0.07841435 -0.05738955
v 0.00196501 0.07815358 -0.05825199
v 0.00110316 0.07824542 -0.05839504
v 0.00044882 0.07864397 -0.05774718
v -0.00084453 0.07928032 -0.05660965
v -0.00210133 0.07922783 -0.05636619
v -0.00213670 0.07855048 -0.05763989
v -0.00342888 0.07885226 -0.05645284
v -0.00413627 0.07827167 -0.05715022
v -0.00534709 0.07821427 -0.05574447
v -0.00501462 0.07920816 -0.05257396
v -0.00544023 0.07834219 -0.05488203
v -0.00507475 0.07804698 -0.05645284
v 0.00379244 0.07963622 -0.05143918
v 0.00405064 0.07899494 -0.05260148
v 0.00405418 0.07874401 -0.05386692
v 0.00394217 0.07856196 -0.05515988
v 0.00381131 0.07838976 -0.05612960
v 0.00359555 0.07817490 -0.05699204
v 0.00311334 0.07794529 -0.05779120
v 0.00295182 0.07723185 -0.05898787
v 0.00246490 0.07698584 -0.05972789
v 0.00161720 0.07776160 -0.05891085
v 0.00174218 0.07706129 -0.05982142
v 0.00044882 0.07714493 -0.05992458
v 0.00044882 0.07779112 -0.05906077
v 0.00044882 0.07825855 -0.05841567
v -0.00047786 0.07826183 -0.05841980
v -0.00088226 0.07856689 -0.05786547
v -0.00133852 0.07823395 -0.05837578
v -0.00342888 0.07839140 -0.05736617
v -0.00213670 0.07818310 -0.05828637
v -0.00342888 0.07803222 -0.05801265
v -0.00444399 0.07717281 -0.05869490
v -0.00472105 0.07759103 -0.05772655
v -0.00558761 0.07740078 -0.05645284
v -0.00530583 0.07689399 -0.05830288
v -0.00549800 0.07714821 -0.05744045
v -0.00549918 0.07844879 -0.05386692
v -0.00560883 0.07770912 -0.05525204
v 0.00440905 0.07759759 -0.05386692
v 0.00430059 0.07759759 -0.05515988
v 0.00402352 0.07768616 -0.05651749
v 0.00388204 0.07729254 -0.05774718
v 0.00374646 0.07704324 -0.05852296
v 0.00332674 0.07671523 -0.05938539
v 0.00292117 0.07622156 -0.06024094
v 0.00251442 0.07572789 -0.06104286
v 0.00174218 0.07584434 -0.06116390
v 0.00174218 0.07649054 -0.06046790
v 0.00044882 0.07659878 -0.06057106
v -0.00084453 0.07715477 -0.05994109
v -0.00088226 0.07788461 -0.05892460
v -0.00213670 0.07766156 -0.05903877
v -0.00290422 0.07699240 -0.05973477
v -0.00337346 0.07732370 -0.05909104
v -0.00376607 0.07684316 -0.05955595
v -0.00472223 0.07596899 -0.06003875
v -0.00544731 0.07575086 -0.05978291
v -0.00570197 0.07639869 -0.05782146
v -0.00598257 0.07501118 -0.05903877
v -0.00558879 0.07600671 -0.05903877
v -0.00554163 0.07856032 -0.05257396
v -0.00573498 0.07759759 -0.05386692
v 0.00443853 0.07759759 -0.05257396
v 0.00501034 0.06556758 -0.06365079
v 0.00454228 0.07113402 -0.06162469
v 0.00433596 0.07371879 -0.06033173
v 0.00422395 0.07630520 -0.05774718
v 0.00392803 0.07629208 -0.05898787
v 0.00380069 0.07585254 -0.05989157
v 0.00337626 0.07544580 -0.06075400
v 0.00290938 0.07492097 -0.06153666
v 0.00244132 0.07439615 -0.06229593
v 0.00174218 0.07513091 -0.06181038
v 0.00044882 0.07524408 -0.06192592
v 0.00044882 0.07595259 -0.06127944
v -0.00084453 0.07660698 -0.06058757
v -0.00213670 0.07707605 -0.05984205
v -0.00213670 0.07651842 -0.06048853
v -0.00306339 0.07575414 -0.06106899
v -0.00341473 0.07629865 -0.06032760
v -0.00392523 0.07560162 -0.06092044
v -0.00472223 0.07536216 -0.06068523
v -0.00544849 0.07445683 -0.06106486
v -0.00562887 0.07493738 -0.06026158
v -0.00610400 0.07371879 -0.06033173
v -0.00630797 0.07242641 -0.06033173
v -0.00557582 0.07849144 -0.05143918
v -0.00573262 0.07759759 -0.05257396
v 0.00506221 0.06466881 -0.06375533
v 0.00457293 0.06598416 -0.06413358
v 0.00420273 0.06734215 -0.06433165
v 0.00418387 0.06854761 -0.06410057
v 0.00403178 0.06984164 -0.06390525
v 0.00452931 0.06984164 -0.06291765
v 0.00471913 0.06854761 -0.06291765
v 0.00435718 0.07242641 -0.06162469
v 0.00397519 0.07501446 -0.06032622
v 0.00381602 0.07458476 -0.06116803
v 0.00330316 0.07408290 -0.06203046
v 0.00174218 0.07448471 -0.06235782
v 0.00293767 0.07367779 -0.06253663
v 0.00309212 0.07242641 -0.06326015
v 0.00269952 0.07199343 -0.06367829
v 0.00174218 0.07282987 -0.06342108
v 0.00174218 0.07371879 -0.06286126
v -0.00084453 0.07526048 -0.06193005
v 0.00044882 0.07459788 -0.06244173
v -0.00084453 0.07461428 -0.06245686
v -0.00084453 0.07596079 -0.06128357
v -0.00213670 0.07587223 -0.06118866
v -0.00213670 0.07515059 -0.06183514
v -0.00289833 0.07440107 -0.06229868
v -0.00341119 0.07500134 -0.06162607
v -0.00376017 0.07424690 -0.06218176
v -0.00472223 0.07471596 -0.06130007
v -0.00538718 0.07309556 -0.06228767
v -0.00561237 0.07360235 -0.06154628
v -0.00608750 0.07242641 -0.06162469
v -0.00640818 0.07113402 -0.06162469
v -0.00669232 0.06825896 -0.06240872
v -0.00669232 0.06825896 -0.06212262
v 0.00508108 0.06417679 -0.06377321
v 0.00451398 0.06466881 -0.06440181
v 0.00377358 0.06696985 -0.06491486
v 0.00362385 0.06783253 -0.06484333
v 0.00385139 0.07082240 -0.06371956
v 0.00413317 0.07120455 -0.06301118
v 0.00395868 0.07242641 -0.06263292
v 0.00397519 0.07367779 -0.06160956
v 0.00378419 0.07322021 -0.06238258
v 0.00356136 0.07168345 -0.06350361
v 0.00309212 0.07120455 -0.06389975
v 0.00174218 0.07113402 -0.06426701
v 0.00174218 0.07218368 -0.06378421
v 0.00044882 0.07295287 -0.06349398
v 0.00044882 0.07371879 -0.06301806
v -0.00213670 0.07450440 -0.06237433
v -0.00084453 0.07371879 -0.06305382
v -0.00213670 0.07371879 -0.06291352
v -0.00336875 0.07377784 -0.06260404
v -0.00342888 0.07266258 -0.06331379
v -0.00417989 0.07184418 -0.06360127
v -0.00472223 0.07332353 -0.06243623
v -0.00472223 0.07397137 -0.06194655
v -0.00465502 0.07233620 -0.06309096
v -0.00504173 0.07148500 -0.06341695
v -0.00544377 0.07062396 -0.06361914
v -0.00557935 0.07242641 -0.06249675
v -0.00580336 0.07108646 -0.06295892
v -0.00622308 0.06984164 -0.06291765
v -0.00650015 0.06863289 -0.06287088
v -0.00658621 0.06725523 -0.06328628
v -0.00664516 0.06643682 -0.06348711
v -0.00672887 0.06725523 -0.06263980
v -0.00686917 0.06466881 -0.06291765
v -0.00689157 0.06417679 -0.06291765
v 0.00386790 0.06466881 -0.06493962
v 0.00384668 0.06596284 -0.06494512
v 0.00448333 0.06417679 -0.06441969
v 0.00303435 0.06596284 -0.06514456
v 0.00312985 0.06734215 -0.06500839
v 0.00276200 0.06826060 -0.06492999
v 0.00228333 0.06912328 -0.06484196
v 0.00312985 0.06863454 -0.06475943
v 0.00303435 0.06984164 -0.06443482
v 0.00044882 0.07113402 -0.06440043
v 0.00180820 0.06981047 -0.06471679
v 0.00044882 0.07015981 -0.06475943
v 0.00044882 0.07230832 -0.06385160
v -0.00084453 0.07298404 -0.06351461
v -0.00213670 0.07288891 -0.06345684
v -0.00342888 0.07201803 -0.06369480
v -0.00342888 0.07113402 -0.06411432
v -0.00465502 0.07108646 -0.06376082
v -0.00472223 0.06984164 -0.06422161
v -0.00561472 0.06984164 -0.06376495
v -0.00581869 0.06854761 -0.06394926
v -0.00593895 0.06725523 -0.06406206
v -0.00668289 0.06557414 -0.06359576
v -0.00676188 0.06598744 -0.06300018
v -0.00671826 0.06466881 -0.06364666
v 0.00303435 0.06466881 -0.06515145
v 0.00383606 0.06417679 -0.06492449
v 0.00174218 0.06596284 -0.06533714
v 0.00174218 0.06725523 -0.06523810
v 0.00180820 0.06863454 -0.06500702
v 0.00142031 0.06935945 -0.06490248
v -0.00084453 0.07024673 -0.06478556
v -0.00084453 0.07113402 -0.06443894
v 0.00044882 0.06951362 -0.06494925
v -0.00084453 0.07233948 -0.06386261
v -0.00213670 0.07224436 -0.06381310
v -0.00213670 0.07113402 -0.06434678
v -0.00213670 0.07012537 -0.06474292
v -0.00338997 0.06977111 -0.06463838
v -0.00379554 0.06890351 -0.06479657
v -0.00464088 0.06850333 -0.06461225
v -0.00496392 0.06725523 -0.06470854
v -0.00515256 0.06596284 -0.06478281
v -0.00613466 0.06598744 -0.06404005
v -0.00601558 0.06466881 -0.06425600
v 0.00174218 0.06466881 -0.06534401
v 0.00332085 0.06417679 -0.06505515
v 0.00303435 0.06417679 -0.06511706
v 0.00044882 0.06725523 -0.06536877
v 0.00044882 0.06596284 -0.06545405
v 0.00044882 0.06854761 -0.06516520
v -0.00084453 0.06960054 -0.06497263
v -0.00213670 0.06947918 -0.06493687
v -0.00293370 0.06929221 -0.06488734
v -0.00338997 0.06850333 -0.06496713
v -0.00415631 0.06804083 -0.06488322
v -0.00431783 0.06725523 -0.06493412
v -0.00450529 0.06596284 -0.06498639
v -0.00523627 0.06466881 -0.06481995
v 0.00044882 0.06466881 -0.06542929
v 0.00223500 0.06417679 -0.06523535
v -0.00084453 0.06725523 -0.06540866
v -0.00084453 0.06854761 -0.06520647
v -0.00084453 0.06596284 -0.06548981
v -0.00213670 0.06854761 -0.06515007
v -0.00342888 0.06725523 -0.06514870
v -0.00342888 0.06596284 -0.06523122
v -0.00459018 0.06466881 -0.06498226
v -0.00084453 0.06466881 -0.06545268
v 0.00044882 0.06417679 -0.06538528
v -0.00213670 0.06725523 -0.06534401
v -0.00213670 0.06466881 -0.06538253
v -0.00213670 0.06596284 -0.06541829
v -0.00342888 0.06466881 -0.06521059
v 0.00686090 0.03234059 -0.02283431
v 0.00691328 0.03234059 -0.02412638
v 0.00694905 0.03234059 -0.02542062
v 0.00695544 0.03363460 -0.02800477
v -0.00607617 0.03492860 -0.03059108
v -0.00528413 0.03234059 -0.02283431
v 0.00696438 0.03234059 -0.02671270
v 0.00696949 0.03363460 -0.02929901
v -0.00595480 0.03363460 -0.02929901
v -0.00536333 0.03234059 -0.02353255
v -0.00568781 0.03234059 -0.02671270
v -0.00555751 0.03234059 -0.02542062
v -0.00543104 0.03234059 -0.02418076
v 0.00550239 0.05303048 -0.01249197
f 353 373 31
f 227 627 228
f 15 30 31
f 50 63 64
f 50 112 63
f 50 116 112
f 271 231 269
f 272 231 271
f 64 63 78
f 181 111 151
f 151 160 181
f 111 101 151
f 151 101 160
f 31 373 354
f 354 1032 31
f 373 1032 354
f 373 353 371
f 371 399 373
f 371 353 31
f 31 30 371
f 371 30 399
f 47 30 44
f 392 399 372
f 372 30 392
f 399 30 372
f 414 227 392
f 414 627 227
f 621 602 620
f 884 602 621
f 621 622 884
f 376 355 38
f 181 160 190
f 248 249 210
f 17 6 16
f 6 15 16
f 31 1032 1036
f 1036 15 31
f 1036 1039 15
f 1036 1032 373
f 373 1031 1036
f 1036 1031 1035
f 1035 1039 1036
f 112 116 117
f 116 50 48
f 63 112 115
f 230 269 231
f 75 76 63
f 75 74 76
f 63 62 75
f 62 74 75
f 89 98 90
f 90 72 89
f 80 67 65
f 64 78 66
f 127 128 91
f 91 126 127
f 91 128 160
f 152 126 91
f 91 101 92
f 160 101 91
f 44 30 29
f 5 15 6
f 5 6 1
f 1 4 5
f 343 45 355
f 344 45 343
f 355 45 55
f 688 660 697
f 658 664 696
f 627 664 658
f 696 660 658
f 189 190 160
f 258 292 293
f 38 1028 1027
f 1027 1040 38
f 1028 1040 1027
f 71 86 87
f 403 376 402
f 285 248 247
f 835 859 303
f 209 182 181
f 210 182 209
f 17 16 134
f 134 16 15
f 134 15 1035
f 1035 15 1037
f 193 399 194
f 392 227 195
f 132 117 116
f 34 48 50
f 34 32 17
f 116 48 34
f 197 228 229
f 197 171 170
f 113 74 62
f 113 121 74
f 113 62 63
f 63 115 113
f 71 72 84
f 72 90 84
f 84 90 98
f 97 98 89
f 63 76 77
f 77 78 63
f 105 97 95
f 102 103 92
f 98 103 102
f 71 57 56
f 27 22 11
f 18 6 17
f 17 32 18
f 65 67 52
f 52 37 36
f 89 72 83
f 89 83 96
f 96 83 80
f 363 47 44
f 392 30 363
f 30 47 363
f 362 363 44
f 437 412 435
f 14 29 30
f 30 15 14
f 15 5 14
f 14 5 4
f 384 364 44
f 61 45 344
f 344 359 61
f 61 384 44
f 359 384 61
f 8 21 9
f 11 22 8
f 9 2 8
f 8 2 11
f 39 21 38
f 39 55 45
f 38 355 39
f 355 55 39
f 22 27 23
f 23 27 41
f 23 8 22
f 21 8 23
f 38 21 23
f 1034 1033 23
f 23 1033 1029
f 23 1028 38
f 23 1029 1028
f 358 343 355
f 358 355 379
f 344 343 357
f 702 730 719
f 701 730 702
f 803 807 788
f 804 788 807
f 663 695 699
f 663 699 696
f 696 664 663
f 663 664 627
f 717 697 704
f 652 620 651
f 652 651 627
f 659 660 627
f 627 658 659
f 659 658 660
f 696 699 724
f 724 725 696
f 696 725 698
f 698 660 696
f 697 660 698
f 699 695 694
f 188 189 157
f 160 128 159
f 159 189 160
f 159 128 127
f 226 190 222
f 190 189 222
f 222 189 188
f 322 293 292
f 258 293 294
f 127 126 156
f 220 223 188
f 978 1000 998
f 299 263 298
f 719 730 716
f 805 687 716
f 251 289 252
f 1034 289 1030
f 1030 1033 1034
f 1029 1033 1030
f 1028 1029 1030
f 1030 1040 1028
f 210 249 214
f 100 182 210
f 181 182 100
f 92 101 100
f 100 102 92
f 100 111 181
f 99 87 86
f 99 100 87
f 213 251 252
f 402 376 401
f 355 376 377
f 376 403 377
f 375 376 38
f 38 374 375
f 1040 376 400
f 38 1040 400
f 400 374 38
f 376 375 400
f 400 375 374
f 835 303 860
f 285 247 284
f 266 284 247
f 265 859 266
f 859 284 266
f 208 247 248
f 208 248 210
f 210 209 208
f 181 190 208
f 208 209 181
f 267 859 265
f 267 303 859
f 630 606 629
f 629 606 605
f 762 775 776
f 776 777 762
f 754 755 749
f 762 777 763
f 763 755 762
f 163 134 1035
f 1035 1031 163
f 163 1031 373
f 15 1039 1038
f 1038 1037 15
f 1038 1039 1035
f 1035 1037 1038
f 392 195 167
f 167 399 392
f 167 194 399
f 166 167 130
f 194 167 166
f 193 194 166
f 49 50 64
f 49 34 50
f 116 34 33
f 17 134 33
f 33 34 17
f 119 115 112
f 124 73 74
f 124 125 73
f 199 230 231
f 268 229 228
f 268 228 627
f 627 651 268
f 117 132 136
f 136 119 117
f 137 119 136
f 120 113 115
f 115 119 120
f 120 119 137
f 137 136 120
f 121 113 120
f 78 77 94
f 94 95 78
f 105 95 94
f 93 77 76
f 93 94 77
f 76 74 93
f 89 96 82
f 82 97 89
f 82 95 97
f 81 66 78
f 78 95 81
f 81 82 66
f 95 82 81
f 69 58 54
f 43 56 41
f 41 27 43
f 36 37 20
f 26 27 11
f 53 67 54
f 53 52 67
f 54 37 53
f 37 52 53
f 67 80 68
f 80 83 68
f 54 67 68
f 68 83 72
f 346 362 44
f 435 450 462
f 462 437 435
f 462 439 437
f 413 414 392
f 489 460 488
f 488 460 487
f 13 14 4
f 29 14 13
f 4 12 13
f 13 12 29
f 9 12 3
f 3 12 4
f 3 2 9
f 3 4 1
f 1 2 3
f 24 12 9
f 9 21 24
f 46 61 44
f 45 61 46
f 356 357 343
f 343 358 356
f 379 380 356
f 356 358 379
f 884 883 858
f 858 883 649
f 855 830 854
f 803 827 828
f 851 852 828
f 828 852 853
f 772 730 701
f 701 771 772
f 803 788 785
f 785 788 769
f 787 769 786
f 786 804 787
f 769 788 786
f 788 804 786
f 806 805 787
f 787 804 806
f 806 804 830
f 830 804 832
f 832 854 830
f 855 854 832
f 467 441 464
f 414 441 603
f 627 414 603
f 625 657 627
f 627 657 662
f 662 657 695
f 662 663 627
f 695 663 662
f 719 690 718
f 690 717 718
f 718 702 719
f 718 703 702
f 718 717 704
f 704 703 718
f 689 688 697
f 697 717 689
f 689 717 690
f 689 652 688
f 661 652 627
f 688 652 661
f 627 660 661
f 660 688 661
f 653 689 690
f 652 689 653
f 653 622 621
f 621 620 653
f 620 652 653
f 675 709 710
f 708 732 709
f 709 675 708
f 708 675 674
f 729 724 699
f 725 724 729
f 726 727 699
f 577 587 578
f 641 642 618
f 158 157 189
f 189 159 158
f 127 157 158
f 158 159 127
f 226 222 261
f 261 267 226
f 221 222 188
f 260 261 221
f 221 261 222
f 323 294 293
f 323 322 336
f 293 322 323
f 187 157 186
f 186 220 187
f 188 157 187
f 187 220 188
f 257 292 258
f 258 220 257
f 258 294 295
f 295 263 258
f 223 220 259
f 259 220 258
f 298 263 297
f 297 295 294
f 263 295 297
f 260 221 224
f 223 259 224
f 188 223 224
f 224 221 188
f 979 978 953
f 300 299 1000
f 263 299 300
f 998 1000 1013
f 1000 299 1013
f 691 716 687
f 691 690 719
f 719 716 691
f 789 716 730
f 730 772 789
f 787 805 789
f 805 716 789
f 789 771 787
f 789 772 771
f 338 376 320
f 320 376 1040
f 1040 1030 320
f 320 1030 289
f 338 320 319
f 319 376 338
f 290 289 1034
f 1034 23 290
f 252 289 290
f 290 23 41
f 212 214 249
f 249 213 212
f 212 213 87
f 211 214 87
f 87 100 211
f 210 214 211
f 211 100 210
f 110 101 111
f 111 100 110
f 110 100 101
f 98 99 85
f 85 99 86
f 85 84 98
f 85 86 71
f 71 84 85
f 109 99 98
f 100 99 109
f 98 102 109
f 102 100 109
f 71 213 253
f 253 213 252
f 253 57 71
f 253 56 57
f 41 56 253
f 252 290 253
f 253 290 41
f 71 87 88
f 88 213 71
f 87 213 88
f 249 248 286
f 286 248 285
f 285 317 286
f 402 401 318
f 318 401 376
f 318 317 337
f 318 286 317
f 422 403 402
f 422 423 403
f 355 377 378
f 378 377 403
f 379 355 378
f 378 403 379
f 567 562 566
f 861 836 835
f 835 860 861
f 885 860 303
f 886 860 885
f 918 328 885
f 337 317 316
f 316 317 285
f 285 284 316
f 225 266 247
f 247 208 225
f 265 266 225
f 225 190 226
f 225 208 190
f 226 267 225
f 225 267 265
f 296 261 260
f 267 261 296
f 604 605 590
f 749 665 628
f 628 605 749
f 629 605 628
f 572 760 581
f 816 842 843
f 813 839 814
f 814 839 815
f 590 581 753
f 753 581 760
f 753 754 749
f 755 763 764
f 764 763 777
f 777 778 764
f 939 910 938
f 938 910 937
f 803 785 802
f 850 849 851
f 851 828 850
f 850 828 827
f 850 827 826
f 826 849 850
f 903 870 896
f 904 870 903
f 927 897 926
f 116 134 135
f 134 163 135
f 129 163 164
f 129 130 116
f 129 164 130
f 116 135 129
f 129 135 163
f 373 399 192
f 192 163 373
f 192 399 193
f 164 163 192
f 196 167 195
f 227 228 196
f 196 195 227
f 196 228 197
f 130 164 165
f 165 166 130
f 193 166 165
f 165 192 193
f 164 192 165
f 36 49 51
f 51 49 64
f 64 66 51
f 51 66 65
f 34 49 35
f 32 34 35
f 35 18 32
f 35 49 36
f 36 20 35
f 35 20 18
f 133 134 116
f 116 33 133
f 133 33 134
f 112 117 118
f 118 119 112
f 117 119 118
f 73 125 148
f 148 150 73
f 73 150 161
f 161 91 73
f 232 199 231
f 234 200 232
f 232 200 199
f 229 199 198
f 198 171 197
f 197 229 198
f 230 199 233
f 233 199 229
f 229 268 233
f 201 200 234
f 274 275 234
f 274 232 231
f 234 232 274
f 298 326 1022
f 339 323 336
f 340 333 332
f 197 170 169
f 169 196 197
f 138 120 136
f 138 169 170
f 136 169 138
f 121 120 138
f 108 103 98
f 98 97 106
f 106 107 98
f 79 96 80
f 79 82 96
f 66 82 79
f 79 80 65
f 65 66 79
f 42 43 27
f 42 37 54
f 54 58 42
f 58 43 42
f 27 26 42
f 42 26 37
f 56 43 60
f 1 6 7
f 6 18 19
f 18 20 19
f 19 7 6
f 20 7 19
f 11 2 10
f 25 20 37
f 37 26 25
f 25 26 11
f 11 10 25
f 59 68 72
f 59 69 54
f 54 68 59
f 58 69 59
f 59 43 58
f 59 60 43
f 392 363 391
f 363 362 391
f 391 413 392
f 412 413 391
f 421 450 435
f 438 439 414
f 437 439 438
f 414 413 438
f 440 441 414
f 414 439 440
f 464 441 440
f 440 439 464
f 499 500 472
f 655 694 695
f 655 495 692
f 493 492 503
f 511 515 487
f 529 510 527
f 487 515 514
f 514 488 487
f 499 488 514
f 345 346 44
f 362 346 345
f 490 461 460
f 490 460 489
f 490 498 497
f 499 498 490
f 490 488 499
f 489 488 490
f 446 418 445
f 420 398 397
f 450 421 420
f 420 421 398
f 397 396 417
f 417 418 397
f 396 395 417
f 416 395 415
f 415 442 416
f 416 442 443
f 443 417 416
f 416 417 395
f 468 442 461
f 461 490 468
f 12 24 28
f 45 46 28
f 29 12 28
f 44 29 28
f 28 46 44
f 383 384 359
f 359 385 383
f 408 407 431
f 407 408 381
f 381 408 386
f 381 406 407
f 381 405 406
f 380 405 381
f 381 356 380
f 357 356 381
f 360 359 344
f 344 357 360
f 360 385 359
f 360 388 385
f 360 386 387
f 387 388 360
f 510 511 485
f 484 510 485
f 485 458 484
f 407 406 429
f 431 407 430
f 407 429 430
f 430 429 458
f 484 458 457
f 457 429 456
f 458 429 457
f 602 884 917
f 917 620 602
f 651 620 917
f 269 230 917
f 831 804 807
f 831 832 804
f 831 828 853
f 853 832 831
f 783 799 801
f 801 800 783
f 801 824 826
f 799 824 801
f 826 827 801
f 765 764 781
f 755 764 765
f 749 755 756
f 755 757 756
f 768 785 769
f 833 687 805
f 805 806 833
f 855 832 856
f 856 832 853
f 643 618 642
f 441 467 465
f 466 625 465
f 465 625 441
f 627 603 626
f 626 603 441
f 626 625 627
f 441 625 626
f 466 657 624
f 624 625 466
f 657 625 624
f 654 653 690
f 690 691 654
f 654 691 687
f 654 687 649
f 622 653 623
f 649 883 623
f 623 654 649
f 653 654 623
f 623 884 622
f 623 883 884
f 697 698 706
f 706 698 725
f 629 668 669
f 669 630 629
f 669 703 704
f 668 702 669
f 702 703 669
f 681 643 680
f 682 643 681
f 694 720 722
f 570 577 578
f 570 422 402
f 402 318 570
f 570 318 337
f 600 618 617
f 587 597 598
f 920 957 921
f 291 322 292
f 127 156 155
f 155 156 126
f 126 154 155
f 155 157 127
f 186 157 155
f 153 126 152
f 153 154 126
f 153 184 154
f 255 291 292
f 219 220 186
f 186 218 219
f 218 255 219
f 264 224 263
f 263 300 264
f 260 224 264
f 264 296 260
f 263 224 262
f 262 224 259
f 258 263 262
f 262 259 258
f 1000 978 999
f 999 300 1000
f 978 979 999
f 979 300 999
f 1019 1026 1020
f 1025 1026 1019
f 1005 990 984
f 981 957 956
f 957 920 956
f 930 962 965
f 929 962 930
f 932 900 931
f 965 966 931
f 931 966 932
f 931 930 965
f 900 930 931
f 901 900 932
f 901 903 896
f 932 903 901
f 898 897 927
f 982 959 958
f 958 959 921
f 921 957 958
f 958 981 982
f 958 957 981
f 929 928 961
f 961 963 929
f 959 963 961
f 984 990 985
f 985 962 984
f 965 962 985
f 287 319 320
f 289 251 287
f 287 320 289
f 87 214 183
f 183 212 87
f 214 212 183
f 376 319 321
f 321 318 376
f 572 571 773
f 790 774 773
f 773 571 790
f 836 861 862
f 888 889 860
f 921 889 888
f 888 920 921
f 922 889 921
f 921 961 922
f 927 926 922
f 922 928 927
f 922 961 928
f 891 861 860
f 267 296 304
f 303 267 304
f 918 885 304
f 304 885 303
f 614 598 597
f 592 605 606
f 595 585 584
f 582 581 590
f 582 592 583
f 582 583 573
f 582 573 572
f 572 581 582
f 812 839 813
f 893 865 864
f 864 865 839
f 868 901 896
f 843 842 868
f 900 901 868
f 897 898 868
f 813 814 795
f 795 778 777
f 795 816 796
f 815 816 795
f 795 814 815
f 781 764 780
f 796 797 779
f 779 795 796
f 778 795 779
f 779 764 778
f 797 780 779
f 779 780 764
f 817 797 796
f 796 816 817
f 818 797 817
f 817 816 818
f 818 816 844
f 844 816 843
f 866 842 841
f 842 816 841
f 761 753 760
f 754 753 761
f 761 775 762
f 761 774 775
f 761 773 774
f 762 755 761
f 755 754 761
f 761 760 572
f 572 773 761
f 749 605 748
f 605 604 748
f 752 604 590
f 590 753 752
f 752 748 604
f 752 753 749
f 749 748 752
f 911 910 940
f 910 939 940
f 938 937 968
f 968 969 938
f 907 933 908
f 908 875 907
f 988 968 967
f 967 968 937
f 967 966 988
f 877 852 851
f 877 910 911
f 819 797 818
f 874 875 849
f 906 874 872
f 907 875 906
f 875 874 906
f 902 870 904
f 907 906 902
f 904 933 902
f 902 933 907
f 130 167 131
f 116 130 131
f 131 132 116
f 131 136 132
f 131 169 136
f 74 121 114
f 114 123 74
f 143 124 74
f 74 123 143
f 230 233 270
f 270 233 268
f 270 917 230
f 270 268 651
f 651 917 270
f 234 275 235
f 235 201 234
f 200 201 173
f 275 274 273
f 231 272 273
f 273 274 231
f 324 326 298
f 324 339 326
f 298 297 324
f 324 297 294
f 294 323 324
f 323 339 324
f 1021 1022 326
f 107 106 104
f 98 107 104
f 104 108 98
f 103 108 104
f 104 106 97
f 92 103 104
f 104 97 105
f 56 60 70
f 70 72 71
f 71 56 70
f 70 59 72
f 60 59 70
f 437 438 436
f 436 438 413
f 412 437 436
f 436 413 412
f 692 720 693
f 693 720 694
f 693 655 692
f 694 655 693
f 741 722 740
f 740 722 720
f 709 732 733
f 732 746 733
f 733 745 727
f 746 745 733
f 695 657 656
f 656 655 695
f 656 657 466
f 466 495 656
f 495 655 656
f 506 495 493
f 539 533 535
f 515 534 535
f 546 529 527
f 534 529 546
f 619 618 645
f 619 617 618
f 552 557 553
f 531 534 515
f 515 511 531
f 531 511 510
f 427 406 428
f 456 429 427
f 427 429 406
f 379 403 404
f 404 427 428
f 426 427 404
f 404 380 379
f 404 405 380
f 428 406 404
f 406 405 404
f 403 423 424
f 423 426 424
f 426 404 424
f 509 510 484
f 423 422 453
f 600 589 588
f 578 587 588
f 587 598 588
f 515 533 532
f 532 514 515
f 533 514 532
f 349 350 342
f 365 349 364
f 350 349 365
f 364 384 365
f 384 383 365
f 368 394 369
f 369 395 396
f 369 394 395
f 44 342 347
f 444 445 418
f 444 417 443
f 418 417 444
f 497 498 470
f 470 498 499
f 499 472 470
f 463 462 450
f 464 439 463
f 439 462 463
f 463 467 464
f 463 492 493
f 493 467 463
f 448 449 418
f 389 391 362
f 389 390 391
f 412 391 411
f 391 390 411
f 435 412 411
f 411 421 435
f 398 421 411
f 411 390 398
f 395 394 393
f 393 388 387
f 45 28 40
f 40 28 24
f 40 24 21
f 40 39 45
f 21 39 40
f 434 442 415
f 387 386 409
f 386 408 409
f 408 434 409
f 409 434 415
f 432 408 431
f 431 430 432
f 432 430 460
f 357 381 382
f 382 360 357
f 382 381 386
f 386 360 382
f 512 511 487
f 487 485 512
f 512 485 511
f 513 485 487
f 855 856 881
f 803 828 829
f 828 831 829
f 829 807 803
f 829 831 807
f 823 799 822
f 822 824 823
f 823 824 799
f 872 874 873
f 873 874 849
f 825 801 827
f 825 827 803
f 803 802 825
f 802 800 825
f 800 801 825
f 766 765 781
f 750 665 749
f 749 756 750
f 758 768 769
f 785 768 784
f 784 802 785
f 783 800 784
f 784 800 802
f 687 833 857
f 857 833 858
f 834 806 830
f 834 833 806
f 858 833 834
f 834 830 855
f 855 858 834
f 735 712 711
f 711 682 710
f 711 712 682
f 678 643 642
f 678 642 641
f 645 618 644
f 618 643 644
f 682 712 683
f 494 467 493
f 494 465 467
f 493 495 494
f 494 495 466
f 466 465 494
f 631 671 632
f 671 672 632
f 673 672 671
f 673 706 674
f 671 706 673
f 672 673 635
f 707 708 674
f 674 706 707
f 732 708 707
f 707 706 725
f 705 671 704
f 705 706 671
f 704 697 705
f 697 706 705
f 630 669 670
f 631 630 670
f 670 671 631
f 704 671 670
f 670 669 704
f 710 682 676
f 682 681 676
f 676 675 710
f 727 726 721
f 699 694 721
f 721 726 699
f 728 746 732
f 728 745 746
f 732 707 728
f 728 729 699
f 699 727 728
f 727 745 728
f 577 570 568
f 568 570 337
f 567 577 568
f 568 562 567
f 601 589 600
f 600 617 601
f 954 956 920
f 953 978 954
f 978 956 954
f 919 885 328
f 919 954 920
f 886 885 919
f 919 920 886
f 919 328 955
f 919 955 953
f 953 954 919
f 283 291 254
f 254 255 218
f 291 255 254
f 322 291 315
f 315 291 283
f 336 322 315
f 333 314 313
f 313 314 280
f 280 314 282
f 326 339 335
f 335 340 326
f 333 340 335
f 335 314 333
f 150 148 177
f 154 184 185
f 185 218 186
f 152 91 162
f 91 161 162
f 162 153 152
f 184 153 162
f 220 219 256
f 256 219 255
f 256 257 220
f 292 257 256
f 256 255 292
f 955 328 301
f 953 955 301
f 301 264 300
f 301 979 953
f 301 300 979
f 296 264 302
f 264 301 302
f 981 956 980
f 980 1001 981
f 1002 1001 980
f 998 1002 980
f 980 978 998
f 980 956 978
f 899 928 929
f 929 930 899
f 927 928 899
f 899 898 927
f 899 930 900
f 900 868 899
f 899 868 898
f 983 963 959
f 983 959 982
f 964 986 984
f 984 962 964
f 964 983 986
f 963 983 964
f 964 962 929
f 929 963 964
f 921 959 960
f 960 961 921
f 959 961 960
f 988 966 987
f 987 966 965
f 965 985 987
f 989 985 990
f 990 969 989
f 988 987 989
f 989 987 985
f 989 968 988
f 969 968 989
f 991 969 990
f 251 213 250
f 250 287 251
f 250 213 249
f 249 286 250
f 835 560 561
f 561 859 835
f 561 562 859
f 572 573 564
f 596 585 595
f 613 614 596
f 597 585 596
f 596 614 597
f 892 862 861
f 861 891 892
f 893 862 892
f 887 860 886
f 887 888 860
f 886 920 887
f 920 888 887
f 586 585 597
f 587 576 586
f 586 597 587
f 616 614 613
f 613 638 616
f 616 640 641
f 616 638 640
f 640 638 611
f 595 610 611
f 611 638 613
f 608 635 610
f 573 583 574
f 583 584 574
f 575 584 585
f 567 566 575
f 566 574 575
f 575 574 584
f 575 576 567
f 585 586 575
f 575 586 576
f 591 582 590
f 592 582 591
f 590 605 591
f 605 592 591
f 894 865 893
f 866 865 894
f 790 811 791
f 811 812 791
f 775 774 791
f 791 774 790
f 863 862 893
f 893 864 863
f 836 862 863
f 839 812 838
f 838 864 839
f 838 863 864
f 867 842 866
f 867 868 842
f 869 868 896
f 843 868 869
f 896 870 869
f 870 843 869
f 794 795 777
f 777 776 794
f 776 793 794
f 813 795 794
f 794 812 813
f 793 812 794
f 798 780 797
f 822 799 798
f 799 780 798
f 840 841 816
f 815 839 840
f 840 816 815
f 839 865 840
f 840 865 866
f 866 841 840
f 912 940 939
f 911 940 912
f 936 937 910
f 910 908 936
f 936 967 937
f 935 908 933
f 935 933 904
f 935 936 908
f 967 936 935
f 966 967 934
f 932 966 934
f 934 935 904
f 967 935 934
f 904 903 934
f 934 903 932
f 849 875 876
f 875 877 876
f 851 849 876
f 876 877 851
f 878 877 911
f 852 877 878
f 853 852 878
f 910 877 909
f 909 877 875
f 909 908 910
f 875 908 909
f 818 844 845
f 845 819 818
f 797 819 820
f 872 873 846
f 822 820 846
f 846 820 819
f 846 845 872
f 819 845 846
f 167 196 168
f 168 131 167
f 196 169 168
f 169 131 168
f 122 114 121
f 123 114 122
f 122 140 123
f 139 138 170
f 170 140 139
f 140 122 139
f 121 138 139
f 139 122 121
f 141 170 171
f 141 140 170
f 123 140 141
f 276 235 275
f 237 235 276
f 201 235 236
f 236 235 237
f 142 143 123
f 123 141 142
f 199 200 172
f 200 173 172
f 172 198 199
f 173 142 172
f 172 142 141
f 171 198 172
f 172 141 171
f 174 201 175
f 174 173 201
f 124 143 144
f 143 142 144
f 144 142 173
f 998 1013 327
f 327 299 298
f 327 1013 299
f 1022 1021 1012
f 1012 1002 998
f 1012 1016 1002
f 1021 1016 1012
f 998 327 1012
f 298 1022 1012
f 1012 327 298
f 326 340 341
f 341 1021 326
f 526 740 720
f 523 542 526
f 709 733 734
f 710 709 734
f 734 711 710
f 735 711 734
f 727 722 744
f 744 733 727
f 715 686 685
f 557 686 715
f 520 501 500
f 500 519 520
f 520 519 501
f 518 519 500
f 523 501 522
f 522 540 523
f 539 540 522
f 541 554 542
f 541 542 523
f 523 540 541
f 553 554 541
f 541 552 553
f 540 552 541
f 542 554 555
f 555 554 553
f 550 535 534
f 536 533 515
f 515 535 536
f 536 535 533
f 647 619 645
f 645 644 647
f 647 644 643
f 556 686 557
f 534 531 530
f 530 531 510
f 530 529 534
f 510 529 530
f 425 404 403
f 403 424 425
f 425 424 404
f 589 601 481
f 454 426 423
f 423 453 454
f 422 570 579
f 579 453 422
f 579 570 578
f 600 588 599
f 614 616 599
f 598 614 599
f 599 588 598
f 348 342 44
f 348 349 342
f 44 364 348
f 364 349 348
f 362 345 361
f 361 389 362
f 390 389 361
f 352 347 342
f 352 361 345
f 352 345 44
f 44 347 352
f 469 444 443
f 445 444 469
f 468 470 469
f 443 442 469
f 442 468 469
f 472 445 471
f 471 470 472
f 445 470 471
f 497 470 496
f 496 470 468
f 496 490 497
f 496 468 490
f 418 449 419
f 450 420 419
f 397 418 419
f 419 420 397
f 479 503 492
f 480 463 449
f 449 448 480
f 448 479 480
f 476 448 473
f 473 445 472
f 473 472 500
f 500 501 473
f 473 501 476
f 447 418 446
f 447 448 418
f 446 445 447
f 523 526 525
f 367 394 368
f 367 393 394
f 368 350 367
f 385 388 367
f 388 393 367
f 410 393 387
f 387 409 410
f 410 409 415
f 415 395 410
f 395 393 410
f 433 434 408
f 408 432 433
f 461 442 433
f 442 434 433
f 460 461 433
f 433 432 460
f 459 430 458
f 460 430 459
f 271 269 952
f 269 951 952
f 855 881 882
f 882 858 855
f 884 858 882
f 882 917 884
f 915 881 914
f 915 882 881
f 826 824 848
f 848 849 826
f 848 873 849
f 824 846 848
f 848 846 873
f 782 799 783
f 783 766 782
f 782 766 781
f 781 780 782
f 782 780 799
f 665 750 751
f 751 628 665
f 751 750 756
f 751 756 757
f 757 758 751
f 770 758 769
f 770 769 787
f 787 771 770
f 768 758 767
f 767 784 768
f 783 784 767
f 767 758 757
f 757 766 767
f 767 766 783
f 650 858 649
f 650 857 858
f 649 687 650
f 687 857 650
f 684 683 712
f 685 647 684
f 684 647 683
f 636 673 674
f 636 635 673
f 674 675 636
f 610 635 636
f 723 722 727
f 727 721 723
f 694 722 723
f 723 721 694
f 731 707 725
f 731 728 707
f 725 729 731
f 729 728 731
f 562 568 569
f 859 562 569
f 569 284 859
f 569 316 284
f 337 316 569
f 569 568 337
f 507 601 617
f 507 619 527
f 617 619 507
f 507 481 601
f 311 331 332
f 332 333 312
f 312 311 332
f 278 311 312
f 333 313 312
f 310 311 278
f 238 280 239
f 336 315 334
f 334 315 314
f 314 335 334
f 334 339 336
f 334 335 339
f 239 280 240
f 280 282 240
f 180 161 150
f 325 304 296
f 296 302 325
f 918 304 325
f 325 328 918
f 325 301 328
f 325 302 301
f 984 986 1004
f 1004 1005 984
f 1010 1018 1019
f 1010 1011 995
f 1010 1019 1020
f 1020 1011 1010
f 1007 1018 1008
f 990 1005 1006
f 1006 991 990
f 1008 994 993
f 969 991 971
f 971 993 972
f 319 287 288
f 287 250 288
f 288 321 319
f 318 321 288
f 286 318 288
f 288 250 286
f 810 811 790
f 836 811 810
f 835 836 810
f 810 560 835
f 565 564 573
f 573 574 565
f 565 574 566
f 565 566 562
f 562 561 565
f 565 561 560
f 560 564 565
f 809 564 560
f 560 810 809
f 809 810 790
f 563 809 790
f 564 809 563
f 808 571 572
f 572 564 808
f 564 563 808
f 790 571 808
f 808 563 790
f 890 892 891
f 860 889 890
f 890 891 860
f 641 640 677
f 677 681 680
f 677 676 681
f 677 678 641
f 680 643 677
f 643 678 677
f 595 611 612
f 612 611 613
f 612 596 595
f 613 596 612
f 594 584 583
f 595 584 594
f 635 608 634
f 634 632 672
f 672 635 634
f 926 894 925
f 893 892 925
f 925 894 893
f 792 812 793
f 792 791 812
f 775 791 792
f 792 776 775
f 792 793 776
f 837 838 812
f 837 811 836
f 837 812 811
f 836 863 837
f 863 838 837
f 868 867 895
f 895 926 897
f 897 868 895
f 895 867 866
f 866 894 895
f 895 894 926
f 822 798 821
f 821 798 797
f 821 820 822
f 797 820 821
f 945 914 944
f 913 944 914
f 912 944 913
f 938 942 941
f 942 912 941
f 941 939 938
f 941 912 939
f 871 844 843
f 871 845 844
f 871 843 870
f 872 845 871
f 870 902 871
f 847 824 822
f 822 846 847
f 847 846 824
f 173 174 145
f 145 144 173
f 124 144 145
f 145 146 124
f 145 174 175
f 175 146 145
f 973 994 995
f 972 993 973
f 973 993 994
f 1014 1001 1002
f 1002 1016 1014
f 341 331 1024
f 1021 341 1024
f 1025 1016 1024
f 1024 1016 1021
f 1024 1026 1025
f 331 311 1024
f 542 740 543
f 543 526 542
f 740 526 543
f 736 734 747
f 747 734 733
f 733 744 747
f 736 737 713
f 735 734 713
f 713 734 736
f 685 684 713
f 713 712 735
f 713 684 712
f 714 737 738
f 738 715 714
f 714 713 737
f 714 715 685
f 685 713 714
f 538 533 539
f 539 522 538
f 538 522 519
f 533 518 517
f 499 514 517
f 517 514 533
f 517 500 499
f 517 518 500
f 501 519 521
f 521 522 501
f 519 522 521
f 542 555 739
f 739 740 542
f 739 715 738
f 741 740 739
f 739 738 741
f 549 550 534
f 557 550 549
f 557 552 551
f 551 550 557
f 551 540 539
f 551 552 540
f 539 535 551
f 535 550 551
f 682 683 679
f 683 647 679
f 679 643 682
f 679 647 643
f 548 549 534
f 557 549 548
f 686 556 547
f 685 686 547
f 547 647 685
f 547 544 647
f 547 548 534
f 534 546 547
f 547 556 557
f 557 548 547
f 619 544 547
f 426 454 455
f 455 457 456
f 456 427 455
f 455 427 426
f 578 588 580
f 580 579 578
f 580 588 589
f 589 481 580
f 453 579 452
f 452 481 453
f 579 580 452
f 452 580 481
f 615 618 600
f 600 599 615
f 641 618 615
f 615 616 641
f 615 599 616
f 397 398 370
f 398 390 370
f 390 361 370
f 361 352 370
f 370 396 397
f 370 369 396
f 351 352 342
f 342 350 351
f 369 370 351
f 351 370 352
f 351 350 368
f 368 369 351
f 475 470 445
f 445 469 475
f 475 469 470
f 449 463 451
f 451 419 449
f 451 463 450
f 450 419 451
f 478 479 448
f 503 479 478
f 493 503 478
f 478 506 493
f 492 463 491
f 463 480 491
f 491 479 492
f 491 480 479
f 474 473 448
f 448 447 474
f 445 473 474
f 474 447 445
f 385 367 366
f 366 383 385
f 366 365 383
f 350 365 366
f 366 367 350
f 458 485 486
f 486 459 458
f 485 513 486
f 486 513 487
f 487 460 486
f 460 459 486
f 269 917 916
f 916 951 269
f 917 882 916
f 882 915 916
f 305 272 271
f 995 1011 997
f 629 628 667
f 667 668 629
f 701 702 667
f 667 702 668
f 700 771 701
f 701 751 700
f 759 751 758
f 759 770 771
f 758 770 759
f 771 700 759
f 759 700 751
f 675 676 637
f 637 636 675
f 610 636 637
f 676 677 637
f 637 611 610
f 481 507 508
f 508 507 527
f 217 254 218
f 218 185 217
f 279 313 280
f 279 312 313
f 278 312 279
f 280 238 279
f 279 238 278
f 308 276 275
f 1020 1026 329
f 1026 310 329
f 330 310 1026
f 311 310 330
f 1026 1024 330
f 330 1024 311
f 278 238 277
f 237 276 277
f 277 238 237
f 239 240 202
f 202 238 239
f 237 238 202
f 175 201 202
f 201 236 202
f 202 236 237
f 125 124 147
f 124 146 147
f 149 148 125
f 149 177 148
f 125 147 149
f 149 147 146
f 184 162 191
f 191 215 184
f 191 162 161
f 161 180 191
f 191 180 205
f 205 215 191
f 1008 1018 1009
f 1018 1010 1009
f 1009 1010 995
f 1009 994 1008
f 995 994 1009
f 992 1007 1008
f 992 1006 1007
f 991 1006 992
f 1008 993 992
f 992 971 991
f 993 971 992
f 938 969 970
f 969 971 970
f 970 942 938
f 889 922 923
f 923 890 889
f 892 890 923
f 640 611 639
f 639 677 640
f 611 637 639
f 639 637 677
f 583 592 593
f 593 594 583
f 608 594 593
f 593 592 606
f 609 608 610
f 609 594 608
f 609 610 595
f 595 594 609
f 631 632 607
f 607 593 606
f 608 593 607
f 943 912 942
f 943 944 912
f 943 971 972
f 943 972 945
f 945 944 943
f 942 970 943
f 943 970 971
f 912 913 879
f 911 912 879
f 879 878 911
f 853 878 879
f 872 871 905
f 905 871 902
f 905 906 872
f 905 902 906
f 945 972 946
f 972 973 946
f 946 914 945
f 946 915 914
f 1005 1004 1017
f 1017 1006 1005
f 1007 1006 1017
f 1018 1007 1017
f 1003 1004 986
f 986 983 1003
f 1003 983 982
f 982 981 1003
f 981 1001 1003
f 743 747 744
f 743 737 736
f 736 747 743
f 743 744 722
f 537 518 533
f 533 538 537
f 519 518 537
f 537 538 519
f 557 715 559
f 558 739 555
f 558 555 553
f 715 739 558
f 553 557 558
f 558 559 715
f 557 559 558
f 619 647 648
f 647 544 648
f 545 547 546
f 619 547 545
f 545 546 527
f 527 619 545
f 482 455 454
f 482 508 509
f 481 508 482
f 453 481 482
f 482 454 453
f 516 720 692
f 692 495 516
f 495 506 516
f 720 516 505
f 506 478 505
f 505 516 506
f 523 525 504
f 504 505 478
f 504 525 526
f 504 526 720
f 720 505 504
f 476 501 477
f 477 448 476
f 477 478 448
f 976 951 950
f 951 916 950
f 974 973 995
f 977 997 305
f 977 305 271
f 271 952 977
f 951 975 977
f 977 952 951
f 628 751 666
f 666 667 628
f 666 751 701
f 701 667 666
f 510 509 528
f 509 508 528
f 527 510 528
f 528 508 527
f 216 185 184
f 216 217 185
f 244 217 216
f 184 215 216
f 216 215 244
f 283 243 281
f 281 240 282
f 281 315 283
f 314 315 281
f 281 282 314
f 207 204 243
f 309 329 310
f 1020 329 309
f 309 310 278
f 278 277 309
f 309 1011 1020
f 276 308 309
f 309 277 276
f 243 204 242
f 240 281 242
f 242 281 243
f 176 149 146
f 203 204 176
f 176 146 175
f 175 202 176
f 176 202 203
f 924 922 926
f 924 923 922
f 892 923 924
f 926 925 924
f 924 925 892
f 633 634 608
f 608 607 633
f 632 634 633
f 633 607 632
f 880 879 913
f 914 881 880
f 880 913 914
f 853 879 880
f 880 856 853
f 880 881 856
f 949 946 973
f 949 974 975
f 973 974 949
f 949 950 916
f 976 950 949
f 949 951 976
f 949 975 951
f 1015 1017 1004
f 1014 1017 1015
f 1004 1003 1015
f 1001 1014 1015
f 1015 1003 1001
f 1018 1017 1023
f 1025 1019 1023
f 1019 1018 1023
f 1023 1017 1014
f 1023 1016 1025
f 1023 1014 1016
f 742 722 741
f 742 743 722
f 737 743 742
f 741 738 742
f 738 737 742
f 646 544 619
f 619 648 646
f 646 648 544
f 483 482 509
f 455 482 483
f 483 509 484
f 484 457 483
f 457 455 483
f 523 504 524
f 975 974 996
f 996 977 975
f 997 977 996
f 995 997 996
f 996 974 995
f 272 305 306
f 306 273 272
f 275 273 306
f 305 997 307
f 307 306 305
f 307 997 1011
f 275 306 307
f 307 308 275
f 1011 309 307
f 307 309 308
f 246 207 243
f 283 254 246
f 246 243 283
f 245 217 244
f 244 207 245
f 207 246 245
f 254 217 245
f 245 246 254
f 206 207 244
f 206 215 205
f 244 215 206
f 241 242 204
f 203 202 241
f 241 204 203
f 241 202 240
f 240 242 241
f 947 916 915
f 915 946 947
f 478 477 502
f 502 504 478
f 502 524 504
f 523 524 502
f 502 501 523
f 502 477 501
f 178 206 205
f 205 180 178
f 177 149 178
f 150 177 178
f 178 180 150
f 946 949 948
f 948 947 946
f 948 949 916
f 916 947 948
f 179 178 149
f 206 178 179
f 179 176 204
f 149 176 179
f 204 207 179
f 207 206 179
f 74 73 91
f 92 74 91
f 51 52 36
f 65 52 51
f 1 7 10
f 10 2 1
f 25 10 7
f 25 7 20
f 587 577 576
f 576 577 567
f 104 74 92
f 104 93 74
f 105 94 104
f 94 93 104
f 755 765 766
f 766 757 755
f 185 155 154
f 186 155 185
f 331 341 340
f 331 340 332
f 607 630 631
f 606 630 607

