# https://github.com/mikedh/trimesh
v -0.01629120 -0.02909172 0.06060236
v -0.01636257 -0.02867103 0.06199437
v -0.01766199 -0.02861759 0.06062356
v -0.01759447 -0.02898608 0.05929516
v -0.01759447 -0.02907246 0.05799501
v -0.01759447 -0.02908240 0.05668780
v -0.01759447 -0.02908924 0.05538766
v -0.01538430 -0.02850760 0.06289175
v -0.01597555 -0.02840135 0.06274337
v -0.01727222 -0.02843987 0.06161987
v -0.01836907 -0.02833672 0.06019960
v -0.01856725 -0.02850325 0.05929516
v -0.01889718 -0.02887237 0.05668780
v -0.01889718 -0.02901280 0.05538766
v -0.01889718 -0.02903269 0.05408045
v -0.01889718 -0.02902150 0.05017295
v -0.01889718 -0.02897179 0.04365809
v -0.01759447 -0.02889536 0.03583603
v -0.01538430 -0.02753263 0.06314612
v -0.01605076 -0.02753263 0.06279989
v -0.01670239 -0.02753263 0.06234767
v -0.01733864 -0.02753263 0.06169759
v -0.01799027 -0.02753263 0.06087087
v -0.01838663 -0.02753263 0.06022080
v -0.01882252 -0.02753263 0.05929516
v -0.01933361 -0.02753263 0.05818579
v -0.01959657 -0.02824972 0.05748626
v -0.01972283 -0.02837587 0.05668780
v -0.01895043 -0.02857658 0.05794555
v -0.01987545 -0.02851506 0.05538766
v -0.01994571 -0.02857969 0.05408045
v -0.02002806 -0.02861324 0.05278030
v -0.02028663 -0.02856042 0.05141656
v -0.02020044 -0.02873442 0.04365809
v -0.01889718 -0.02863872 0.01108382
v -0.01581360 -0.02622955 0.06267270
v -0.01565879 -0.02553295 0.06257378
v -0.01646523 -0.02622955 0.06207916
v -0.01709326 -0.02622955 0.06142908
v -0.01779210 -0.02622706 0.06053170
v -0.01830978 -0.02666018 0.06005828
v -0.01959986 -0.02667198 0.05745799
v -0.01962292 -0.02753263 0.05753572
v -0.01988039 -0.02753263 0.05668780
v -0.02017903 -0.02753263 0.05538766
v -0.02086854 -0.02821244 0.05094314
v -0.02096900 -0.02833299 0.04461200
v -0.02077027 -0.02809997 0.00196162
v -0.02011864 -0.02831497 0.00196162
v -0.02008790 -0.02830938 0.00065441
v -0.01545293 -0.02466423 0.06240420
v -0.01592449 -0.02362339 0.06153507
v -0.01679352 -0.02470338 0.06107578
v -0.01711302 -0.02362339 0.06016427
v -0.01815771 -0.02579208 0.05983217
v -0.01801168 -0.02492709 0.05959899
v -0.01829605 -0.02416214 0.05872987
v -0.01841353 -0.02492709 0.05894892
v -0.01855352 -0.02622706 0.05935875
v -0.01900478 -0.02362339 0.05668780
v -0.01963829 -0.02521231 0.05630624
v -0.01972887 -0.02623452 0.05672313
v -0.02005770 -0.02622955 0.05538766
v -0.01848874 -0.02368615 0.05797381
v -0.02086854 -0.02808816 0.05094314
v -0.02096900 -0.02788869 0.04461200
v -0.02099205 -0.02731078 0.00456191
v -0.02099260 -0.02738038 -0.00064574
v -0.02098657 -0.02742388 0.00065441
v -0.01573455 -0.02281743 0.06134430
v -0.01657612 -0.02362339 0.06081435
v -0.01695931 -0.02293984 0.05997349
v -0.01809403 -0.02329342 0.05839071
v -0.01834601 -0.02275653 0.05752159
v -0.01835040 -0.02274410 0.05750039
v -0.01865892 -0.02274410 0.05664540
v -0.01935996 -0.02361220 0.05547245
v -0.01949226 -0.02434359 0.05596000
v -0.01976016 -0.02483761 0.05547245
v -0.02002477 -0.02492709 0.05408045
v -0.02024435 -0.02622955 0.05408045
v -0.02012742 -0.02492709 0.05278030
v -0.01989191 -0.02362339 0.05017295
v -0.02099205 -0.02638490 0.00456191
v -0.02099260 -0.02640851 -0.00064574
v -0.01665024 -0.02274410 0.06016427
v -0.01833064 -0.02274410 0.05753572
v -0.01877695 -0.02274410 0.05624264
v -0.01943243 -0.02315671 0.05408045
v -0.01962676 -0.02403910 0.05509088
v -0.01971240 -0.02380856 0.05408045
v -0.01974259 -0.02352210 0.05281563
v -0.01985349 -0.02362339 0.05147309
v -0.01965201 -0.02274410 0.05017295
v -0.01966684 -0.02274410 0.04887280
v -0.01990344 -0.02362339 0.04887280
v -0.01958229 -0.02290505 0.05241287
v -0.01962292 -0.02281618 0.05147309
v -0.01965037 -0.02274410 0.05020827
v -0.01958175 -0.02274410 0.05147309
v -0.01959053 -0.02274410 0.05134590
v 0.02013175 -0.02231962 0.04105068
v 0.01464649 -0.02274410 0.06274101
v 0.01974800 -0.02121377 0.04105068
v 0.02004805 -0.02231962 0.05147778
v 0.02016364 -0.02274410 0.05147778
v 0.01499949 -0.02220423 0.06226322
v 0.01809969 -0.01793400 0.04626423
v 0.01846864 -0.01858858 0.04495732
v 0.01967683 -0.02145005 0.05147778
v 0.01967056 -0.02149745 0.05277765
v 0.02001503 -0.02231962 0.05277765
v 0.01596969 -0.02231962 0.06154653
v 0.01575276 -0.02155308 0.06135682
v 0.01737716 -0.01755347 0.04756410
v 0.01802852 -0.01798208 0.04756410
v 0.01842195 -0.01863322 0.04756410
v 0.01844415 -0.01858583 0.04626423
v 0.01959996 -0.02159223 0.05379647
v 0.01953392 -0.02169526 0.05466774
v 0.01978330 -0.02220560 0.05417589
v 0.01672353 -0.02274410 0.06099145
v 0.01498810 -0.02134359 0.06164490
v 0.01662161 -0.02231962 0.06086498
v 0.01698202 -0.02161490 0.06000074
v 0.01607958 -0.01746487 0.05277765
v 0.01589283 -0.01758095 0.05408455
v 0.01673093 -0.01800886 0.05277765
v 0.01859902 -0.02123575 0.05669133
v 0.01841910 -0.02144250 0.05766799
v 0.01943542 -0.02193086 0.05538443
v 0.01968423 -0.02258269 0.05538443
v 0.01986871 -0.02274410 0.05463261
v 0.01714998 -0.02231962 0.06021856
v 0.01784006 -0.02227978 0.05927000
v 0.01816232 -0.02181890 0.05853926
v 0.01723539 -0.02138617 0.05929810
v 0.01546865 -0.01790721 0.05575683
v 0.01498810 -0.01721897 0.05408455
v 0.01501600 -0.01748135 0.05534930
v 0.01572372 -0.01769153 0.05489258
v 0.01859845 -0.02227978 0.05806147
v 0.01922931 -0.02238350 0.05663512
v 0.01836729 -0.02274410 0.05884139
v 0.01836045 -0.02268778 0.05881329
v 0.01464649 -0.01758576 0.05634704
v 0.01464649 -0.01737146 0.05536335
v 0.01930048 -0.02274410 0.05678969
v -0.01073179 -0.00982093 -0.05517083
v -0.01173456 -0.00732686 -0.04041685
v -0.00921606 -0.00856272 -0.05093112
v 0.01063386 -0.00440969 -0.02280717
v 0.00993609 -0.00440969 -0.02280717
v 0.00949937 -0.00444593 -0.01889854
v 0.00946257 -0.00450129 -0.01498806
v 0.01060331 -0.00444090 -0.02150305
v 0.00897239 -0.00459792 -0.01421380
v 0.00893003 -0.00450129 -0.01498806
v 0.00929038 -0.00459792 -0.01421380
v 0.00892032 -0.00444593 -0.01889854
v -0.02030405 -0.02362251 -0.05929379
v -0.02030247 -0.02374736 -0.05942433
v -0.02020144 -0.02231876 -0.05798831
v -0.02016230 -0.02231876 -0.05929379
v -0.02029612 -0.02362251 -0.05942433
v -0.02020408 -0.02231876 -0.05668284
v -0.01992903 -0.02101580 -0.05668284
v -0.01990787 -0.02101580 -0.05798831
v -0.01976611 -0.02094297 -0.05928192
v -0.01978727 -0.02108303 -0.05942433
v -0.02014431 -0.02231876 -0.05942433
v -0.02016758 -0.02244441 -0.05942433
v -0.01499659 -0.02183535 0.06108300
v -0.01530338 -0.02194740 0.06094059
v -0.01965133 -0.02019306 -0.05668284
v -0.01965979 -0.02268291 0.04755352
v -0.01960743 -0.02145759 0.00456774
v -0.01958416 -0.02030110 -0.05884280
v -0.01962859 -0.02022667 -0.05798831
v -0.01968148 -0.02079171 -0.05942433
v -0.01975712 -0.02098539 -0.05942433
v -0.01574717 -0.02160806 0.06007423
v -0.01617562 -0.02244361 0.06045400
v -0.01661623 -0.02206985 0.05951643
v -0.01694788 -0.02166408 0.05865007
v -0.01804968 -0.02188657 0.05700042
v -0.01849241 -0.02232036 0.05660878
v -0.01879285 -0.02231876 0.05538638
v -0.01924616 -0.02216349 0.05146994
v -0.01827713 -0.02163687 0.05613406
v -0.01929270 -0.02208986 0.05016447
v -0.01965662 -0.02270692 0.04885899
v -0.01937099 -0.02080612 0.00456774
v -0.01896635 -0.01971365 0.00326227
v -0.01853737 -0.01869162 0.00195679
v -0.01952544 -0.02040595 -0.05942433
v -0.01499659 -0.01871403 0.05660878
v -0.01568899 -0.01900375 0.05612219
v -0.01710604 -0.01887009 0.05146994
v -0.01718485 -0.01878206 0.05016447
v -0.01833531 -0.02157124 0.05538638
v -0.01587782 -0.01882207 0.05538638
v -0.01694577 -0.01905977 0.05344003
v -0.01700078 -0.01899335 0.05277542
v -0.01723140 -0.01872843 0.04885899
v -0.01726789 -0.01869162 0.04755352
v -0.01932867 -0.02205545 0.04885899
v -0.01935353 -0.02203063 0.04755352
v -0.01499659 -0.01825463 0.05538638
v -0.01629146 -0.01848593 0.05277542
v -0.01632214 -0.01870282 0.05395035
v -0.01499659 -0.01797371 0.05416397
v -0.00325494 -0.02898190 0.06320896
v -0.01368128 -0.02910391 0.06190656
v 0.01629059 -0.02840854 0.05929965
v 0.01107572 -0.02861834 0.06320896
v 0.00195652 -0.02886175 0.06320896
v 0.00065280 -0.02889349 0.06320896
v -0.00065092 -0.02892462 0.06320896
v -0.00195464 -0.02895388 0.06320896
v -0.00065092 -0.02879762 0.06451277
v -0.00195464 -0.02881194 0.06451277
v -0.00846982 -0.02903170 0.06320896
v 0.00325682 -0.02873413 0.06451277
v -0.01498500 -0.02905971 0.06190656
v -0.01538430 -0.02906967 0.06151015
v -0.00977354 -0.02904228 0.06320896
v -0.01107726 -0.02901925 0.06320896
v 0.01722572 -0.02827345 0.05929965
v 0.01629401 -0.02831329 0.06058588
v 0.01498688 -0.02846581 0.06060345
v 0.01368316 -0.02851313 0.06190656
v 0.01237944 -0.02855795 0.06320896
v 0.00716798 -0.02860153 0.06451277
v 0.00586426 -0.02865942 0.06451277
v 0.00456054 -0.02870424 0.06451277
v 0.00325682 -0.02836247 0.06533019
v -0.00195464 -0.02838924 0.06534706
v -0.00325494 -0.02879949 0.06451277
v -0.00065092 -0.02838738 0.06535409
v 0.00456054 -0.02834380 0.06531895
v -0.01498500 -0.02857912 0.06299037
v -0.01538430 -0.02894766 0.06193256
v -0.01238097 -0.02895513 0.06320896
v -0.00977354 -0.02862705 0.06439820
v -0.01538430 -0.02362374 0.06201972
v -0.01436727 -0.02292713 0.06258201
v 0.01836562 -0.02274410 0.05884419
v 0.01885708 -0.02371899 0.05852650
v 0.01706190 -0.02823485 0.06013957
v 0.01802775 -0.02809416 0.05852650
v 0.01586398 -0.02825664 0.06152631
v 0.01502442 -0.02834566 0.06193889
v 0.01237944 -0.02834629 0.06417680
v 0.01107572 -0.02840107 0.06433776
v 0.00846828 -0.02853180 0.06451277
v 0.01373776 -0.02836061 0.06326237
v 0.01334187 -0.02827096 0.06401584
v 0.00846828 -0.02824419 0.06522547
v 0.00716798 -0.02828590 0.06526975
v 0.00586426 -0.02831641 0.06529997
v 0.00456054 -0.02753264 0.06565421
v 0.00325682 -0.02753264 0.06566897
v -0.00195464 -0.02753264 0.06567460
v -0.00325494 -0.02836559 0.06531684
v -0.00065092 -0.02753264 0.06568373
v -0.01538430 -0.02860588 0.06270290
v -0.01374954 -0.02865631 0.06331299
v -0.01238097 -0.02847266 0.06411213
v -0.01336047 -0.02831516 0.06395961
v -0.01107726 -0.02859281 0.06428364
v -0.00791352 -0.02819626 0.06517275
v -0.01538430 -0.02438448 0.06234725
v -0.01519660 -0.02362374 0.06218700
v -0.01427171 -0.02274410 0.06250118
v -0.01538430 -0.02458556 0.06242878
v -0.01454474 -0.02362374 0.06270782
v -0.01355842 -0.02374451 0.06336851
v -0.01275639 -0.02339154 0.06370869
v -0.01188611 -0.02281196 0.06394696
v 0.01840658 -0.02492671 0.06016909
v 0.01847825 -0.02373767 0.05927294
v 0.01833491 -0.02274410 0.05889058
v 0.01825641 -0.02424815 0.05996877
v 0.01886390 -0.02492671 0.05929965
v 0.01903455 -0.02425126 0.05852650
v 0.01787758 -0.02800452 0.05929965
v 0.01760114 -0.02761294 0.06063719
v 0.01673427 -0.02808607 0.06100830
v 0.01548516 -0.02811719 0.06239435
v 0.01461487 -0.02826598 0.06286386
v 0.01016448 -0.02811906 0.06509966
v 0.00929420 -0.02820746 0.06518751
v 0.00974470 -0.02840356 0.06460414
v 0.01420874 -0.02810786 0.06373259
v 0.01373776 -0.02761730 0.06431316
v 0.01248182 -0.02754260 0.06488388
v 0.01107572 -0.02798460 0.06498931
v 0.00846828 -0.02753264 0.06550661
v 0.00716798 -0.02753264 0.06557479
v 0.00586426 -0.02753264 0.06562259
v 0.00716798 -0.02622967 0.06566827
v 0.00586426 -0.02622967 0.06569639
v 0.00456054 -0.02622967 0.06570623
v -0.00195464 -0.02622967 0.06567460
v -0.00325494 -0.02622967 0.06564508
v -0.00716610 -0.02622967 0.06554598
v -0.00846982 -0.02622967 0.06550099
v -0.00325494 -0.02753264 0.06562328
v 0.00325682 -0.02622967 0.06570271
v -0.01538430 -0.02788126 0.06310634
v -0.00878039 -0.02809229 0.06511793
v -0.00977354 -0.02786880 0.06504975
v -0.01099876 -0.02746603 0.06488950
v -0.01051413 -0.02698667 0.06518751
v -0.01238097 -0.02753264 0.06445373
v -0.01353111 -0.02753264 0.06406575
v -0.00839473 -0.02760796 0.06530630
v -0.01538430 -0.02532139 0.06268743
v -0.01500548 -0.02503005 0.06284347
v -0.01303966 -0.02425997 0.06386613
v -0.01234343 -0.02374451 0.06404607
v -0.01167792 -0.02274410 0.06399265
v -0.01182809 -0.02274410 0.06392377
v -0.01107726 -0.02362374 0.06452191
v -0.01107726 -0.02274410 0.06419718
v 0.01788100 -0.02492671 0.06082134
v 0.01806188 -0.02622967 0.06104344
v 0.01855674 -0.02622967 0.06039189
v 0.01683324 -0.02321038 0.06112849
v 0.01913011 -0.02622967 0.05929965
v 0.01924615 -0.02492671 0.05852650
v 0.01871374 -0.02735272 0.05929965
v 0.01846118 -0.02713982 0.06026538
v 0.01727009 -0.02721763 0.06164158
v 0.01637933 -0.02766710 0.06201831
v 0.01948163 -0.02622967 0.05852650
v 0.01107572 -0.02733280 0.06535339
v 0.00974470 -0.02762415 0.06538010
v 0.01602780 -0.02724814 0.06285120
v 0.01458757 -0.02723942 0.06404466
v 0.01211323 -0.02711491 0.06525920
v 0.00846828 -0.02622967 0.06562469
v 0.00977200 -0.02622967 0.06555581
v 0.00716798 -0.02492671 0.06541242
v 0.00586426 -0.02492671 0.06543070
v -0.00716610 -0.02392131 0.06525710
v -0.00716610 -0.02492671 0.06544406
v -0.00846982 -0.02492671 0.06541805
v -0.00977354 -0.02622967 0.06533722
v -0.00977354 -0.02721701 0.06525920
v -0.00978036 -0.02501884 0.06526131
v -0.01418297 -0.02753264 0.06375438
v -0.01498500 -0.02753264 0.06334953
v -0.01051413 -0.02622967 0.06518822
v -0.01340825 -0.02622967 0.06405872
v -0.01238097 -0.02622967 0.06448044
v -0.01538430 -0.02559220 0.06276476
v -0.01238097 -0.02492671 0.06430472
v -0.01045611 -0.02551500 0.06517346
v -0.00934693 -0.02408006 0.06522125
v -0.00978036 -0.02363682 0.06492746
v -0.00982814 -0.02274410 0.06452331
v 0.01722913 -0.02492671 0.06156427
v 0.01741002 -0.02622967 0.06178567
v 0.01655680 -0.02492671 0.06221511
v 0.01680594 -0.02622967 0.06243651
v 0.01460805 -0.02622967 0.06405239
v 0.01368316 -0.02622967 0.06456548
v 0.01615408 -0.02622967 0.06294046
v 0.01525991 -0.02622967 0.06359202
v 0.01211323 -0.02652600 0.06525920
v 0.00857750 -0.02480220 0.06532317
v 0.01075832 -0.02532388 0.06523672
v 0.00977200 -0.02506927 0.06530348
v 0.01114398 -0.02614687 0.06535901
v 0.00716798 -0.02408255 0.06521352
v 0.00586426 -0.02404022 0.06522196
v -0.00716610 -0.02326952 0.06503429
v -0.00846982 -0.02394186 0.06525358
v -0.00846982 -0.02329007 0.06502797
v -0.00846982 -0.02274410 0.06475455
v 0.01574112 -0.02274410 0.06192483
v 0.01569334 -0.02417282 0.06259958
v 0.01590494 -0.02492671 0.06275210
v 0.01444764 -0.02538925 0.06393220
v 0.01370022 -0.02494352 0.06413534
v 0.01327702 -0.02391011 0.06397719
v 0.01248182 -0.02614687 0.06500688
v 0.01247500 -0.02353472 0.06416626
v 0.00821232 -0.02417655 0.06519032
v 0.00908260 -0.02428488 0.06514675
v -0.00716610 -0.02274410 0.06477564
v -0.00773605 -0.02274410 0.06476860
v 0.01521554 -0.02274410 0.06233952
v 0.01544079 -0.02330376 0.06241543
v 0.01326679 -0.02274410 0.06353157
v 0.01296987 -0.02304105 0.06380920
v 0.01279240 -0.02274410 0.06376844
v 0.00907351 -0.00861469 -0.05480356
v 0.00915654 -0.00861469 -0.05480356
v 0.01060956 -0.00708293 -0.04496181
v 0.01005488 -0.00708293 -0.04496181
v 0.01022786 -0.00719514 -0.04573961
v 0.01052769 -0.00719514 -0.04573961
v 0.02115684 -0.02492657 -0.01238990
v 0.02094807 -0.02392576 -0.01108875
v 0.02105860 -0.02596554 -0.01369104
v 0.02111590 -0.02492657 -0.03715041
v 0.02090714 -0.02564450 -0.04756511
v 0.02096854 -0.02572499 -0.03584373
v 0.02107088 -0.02492657 -0.04756511
v 0.02008846 -0.02581386 -0.05799088
v 0.02075978 -0.02545560 -0.05668419
v 0.02100129 -0.02477489 -0.05799088
v 0.02101357 -0.02480420 -0.05668419
v 0.01995338 -0.02706872 -0.00978207
v 0.01968321 -0.02694216 -0.02281567
v 0.01965047 -0.02692634 -0.02411681
v 0.02096854 -0.02467021 -0.05929202
v 0.02096854 -0.02372755 -0.05929202
v 0.01996566 -0.02707523 -0.00904568
v 0.02073931 -0.02542628 -0.05799088
v 0.02002706 -0.02579478 -0.05929202
v -0.01823805 -0.02818632 -0.01965416
v 0.01959316 -0.02690122 -0.02542350
v -0.01889299 -0.02838266 -0.01108322
v 0.02067791 -0.02532206 -0.05929202
v 0.02089895 -0.02443850 -0.06059316
v 0.02089895 -0.02402533 -0.06059316
v 0.01955632 -0.02688540 -0.02618757
v 0.01889319 -0.02600555 -0.05929202
v 0.01889319 -0.02594879 -0.06059316
v 0.01889319 -0.02587667 -0.06189984
v 0.01987970 -0.02575012 -0.06059316
v -0.01889299 -0.02840407 -0.00978207
v -0.01826670 -0.02818632 -0.01965416
v -0.01759129 -0.02699055 -0.06190538
v 0.00847139 -0.02621214 -0.06320099
v -0.01969530 -0.02828077 -0.01108322
v -0.01956841 -0.02819655 -0.01629887
v -0.01954794 -0.02818585 -0.01697990
v 0.01970368 -0.02567335 -0.06189984
v 0.01959316 -0.02560821 -0.06261409
v 0.02053055 -0.02509035 -0.06059316
v 0.02085393 -0.02428588 -0.06126312
v 0.02085393 -0.02425052 -0.06126312
v 0.01759149 -0.02596973 -0.06189984
v 0.01628569 -0.02594553 -0.06320099
v 0.01766926 -0.02579758 -0.06330065
v 0.01889319 -0.02570685 -0.06288540
v -0.01889299 -0.02755261 -0.04104831
v -0.01860236 -0.02693937 -0.06190538
v -0.01841816 -0.02691657 -0.06267499
v -0.01759129 -0.02693797 -0.06280788
v -0.01628959 -0.02691564 -0.06281342
v 0.00977309 -0.02617212 -0.06320099
v 0.00847139 -0.02610792 -0.06450213
v -0.01978945 -0.02706220 -0.05147408
v -0.01966665 -0.02825936 -0.01238436
v -0.01976079 -0.02703196 -0.05277522
v -0.01889299 -0.02751306 -0.04234945
v 0.01816047 -0.02554214 -0.06379896
v 0.01902008 -0.02503545 -0.06359410
v 0.01980192 -0.02492657 -0.06291861
v 0.02036681 -0.02480281 -0.06177804
v 0.02055511 -0.02373918 -0.06177804
v 0.01368229 -0.02604603 -0.06320099
v 0.01498399 -0.02600276 -0.06320099
v 0.01628569 -0.02572871 -0.06406473
v 0.01729267 -0.02566637 -0.06397060
v -0.01925321 -0.02678722 -0.06190538
v -0.01889299 -0.02632380 -0.06317884
v -0.01850003 -0.02586178 -0.06408688
v -0.01759129 -0.02672860 -0.06346122
v -0.01628959 -0.02682631 -0.06346122
v -0.01493058 -0.02683933 -0.06314562
v 0.00847139 -0.02579618 -0.06541570
v -0.02046486 -0.02622982 -0.04626396
v -0.02044439 -0.02622982 -0.04756511
v -0.02038299 -0.02622982 -0.05017293
v -0.02035024 -0.02622982 -0.05147408
v -0.01970349 -0.02698822 -0.05408190
v -0.01987541 -0.02613583 -0.06190538
v 0.01766926 -0.02503545 -0.06428067
v 0.01867214 -0.02467393 -0.06410348
v -0.02050989 -0.02492704 -0.05017293
v -0.01759129 -0.02492704 -0.06465717
v 0.00455810 -0.02382573 -0.06530496
v -0.01628959 -0.02492704 -0.06491186
v -0.01856143 -0.02492704 -0.06412010
v -0.01921228 -0.02492704 -0.06349998
v -0.01975670 -0.02492704 -0.06285217
v -0.02012101 -0.02492704 -0.06190538
v -0.02028885 -0.02492704 -0.06059316
v -0.02049761 -0.02492704 -0.05147408
v 0.00977309 -0.02570173 -0.06530496
v 0.01628569 -0.02492657 -0.06461287
v -0.01974442 -0.02591901 -0.06281896
v -0.01954385 -0.02688028 -0.05733200
v -0.01759129 -0.02607721 -0.06433603
v -0.01628959 -0.02617538 -0.06447446
v 0.00716559 -0.02578315 -0.06538802
v 0.00847139 -0.02492657 -0.06560396
v 0.00977309 -0.02492657 -0.06549323
v 0.00847139 -0.02373825 -0.06534372
v 0.00977309 -0.02373127 -0.06534372
v 0.01107479 -0.02385178 -0.06527175
v 0.01464592 -0.02193835 0.06240703
v 0.01431804 -0.02169312 0.06253710
v 0.01464592 -0.02152208 0.06210356
v 0.01302106 -0.01776464 0.05863525
v 0.01144553 -0.01785875 0.05979135
v 0.01345049 -0.02144171 0.06278999
v 0.01166895 -0.02171304 0.06383049
v 0.01247267 -0.02221655 0.06369320
v 0.01432965 -0.01776121 0.05733463
v 0.01346209 -0.01759085 0.05776817
v 0.01250459 -0.01743080 0.05811500
v 0.01215060 -0.01762108 0.05892427
v 0.01057797 -0.01771587 0.06001534
v 0.01080139 -0.02155230 0.06395333
v 0.01117279 -0.02221655 0.06414119
v 0.01210128 -0.02258199 0.06398945
v 0.00977425 -0.01817198 0.06081739
v -0.01499320 -0.02226876 0.06148937
v 0.01459949 -0.01759909 0.05646756
v 0.01381028 -0.01741019 0.05681438
v 0.01107704 -0.01714367 0.05799216
v 0.01103641 -0.01752971 0.05933614
v 0.01237982 -0.01707910 0.05669155
v 0.00977425 -0.01763687 0.06016709
v 0.00846856 -0.01796865 0.06098358
v 0.00977425 -0.02144514 0.06406171
v 0.00977425 -0.02231959 0.06444466
v -0.01483361 -0.02243705 0.06177117
v -0.01304627 -0.02166152 0.06256600
v -0.01333062 -0.01882662 0.05890982
v -0.01454926 -0.01887813 0.05762366
v -0.01305208 -0.01774815 0.05737076
v -0.01498740 -0.01824892 0.05538370
v -0.01492066 -0.01793293 0.05417702
v 0.01464592 -0.01745965 0.05580279
v 0.01368261 -0.01708528 0.05538370
v 0.00846856 -0.01723640 0.05929278
v 0.00977425 -0.01732501 0.05929278
v 0.00846856 -0.01756612 0.06033327
v 0.00716578 -0.01788554 0.06106306
v 0.00846856 -0.01862054 0.06159776
v 0.00846856 -0.02137782 0.06414119
v 0.00716578 -0.01853742 0.06167724
v 0.00846856 -0.02231959 0.06453860
v -0.01356275 -0.02242263 0.06274664
v -0.01107613 -0.02254696 0.06411951
v -0.01035365 -0.02169724 0.06381603
v -0.00944257 -0.01893103 0.06137377
v -0.01107613 -0.01872083 0.06034050
v -0.01194950 -0.01890561 0.06009483
v -0.01362658 -0.01841790 0.05792713
v -0.01238182 -0.01860337 0.05932891
v -0.01430264 -0.01777632 0.05467559
v -0.01237892 -0.01795492 0.05818003
v -0.01104132 -0.01804422 0.05920607
v -0.01145333 -0.01782097 0.05843293
v -0.01058578 -0.01774060 0.05870750
v 0.00716578 -0.01721099 0.05929278
v 0.00586299 -0.01752834 0.06047056
v 0.00716578 -0.01754345 0.06041275
v 0.00586299 -0.01785051 0.06112086
v 0.00716578 -0.02135584 0.06416287
v 0.00586299 -0.02231959 0.06463253
v 0.00716578 -0.02231959 0.06458917
v 0.00456020 -0.01782578 0.06114977
v -0.00986040 -0.02220693 0.06427848
v -0.00948320 -0.02158115 0.06396054
v -0.00847056 -0.01880532 0.06149660
v -0.00836321 -0.01811978 0.06047778
v -0.00983428 -0.01858894 0.06068733
v -0.00977335 -0.01791782 0.05951678
v -0.00785544 -0.01775502 0.05995754
v -0.00716778 -0.01760802 0.05929278
v -0.00586209 -0.01754414 0.05929278
v -0.00195373 -0.01739439 0.05929278
v -0.00065094 -0.01735455 0.05929278
v 0.00586299 -0.01720892 0.05929278
v 0.00456020 -0.01752491 0.06049946
v 0.00586299 -0.02135378 0.06418455
v 0.00456020 -0.02231959 0.06464699
v 0.00325742 -0.01782165 0.06114977
v 0.00325742 -0.01847354 0.06172059
v 0.00456020 -0.01847697 0.06171337
v -0.00847056 -0.02231959 0.06453860
v -0.00847056 -0.02152826 0.06402557
v -0.00716778 -0.01871053 0.06157608
v -0.00716778 -0.01805933 0.06066565
v -0.00716778 -0.01773167 0.06001534
v -0.00586209 -0.01799751 0.06076681
v -0.00586209 -0.01769458 0.06011650
v -0.00455930 -0.01748987 0.05929278
v -0.00325652 -0.01744110 0.05929278
v -0.00455930 -0.01766366 0.06020321
v -0.00325652 -0.01763344 0.06028269
v -0.00195373 -0.01760528 0.06035495
v 0.00195463 -0.01728517 0.05929278
v 0.00325742 -0.01725151 0.05929278
v 0.00456020 -0.01722335 0.05929278
v 0.00325742 -0.01753590 0.06049946
v 0.00456020 -0.02136340 0.06419177
v 0.00195463 -0.01848178 0.06172782
v 0.00195463 -0.01783058 0.06113532
v 0.00064894 -0.01849690 0.06172782
v -0.00716778 -0.02231959 0.06456028
v 0.00325742 -0.02137920 0.06417731
v -0.00065094 -0.01851819 0.06172059
v -0.00455930 -0.01860474 0.06167724
v -0.00586209 -0.01864870 0.06164112
v -0.00455930 -0.01795286 0.06085352
v -0.00325652 -0.01792401 0.06093300
v -0.00195373 -0.01789584 0.06100526
v -0.00065094 -0.01786630 0.06106306
v -0.00065094 -0.01758398 0.06041275
v 0.00195463 -0.01755170 0.06048501
v 0.00064894 -0.01784501 0.06110642
v 0.02103467 -0.02611976 0.01368466
v 0.02104539 -0.02614239 -0.00064731
v 0.02099181 -0.02622923 0.03714358
v 0.02092038 -0.02697896 0.03714358
v 0.02078109 -0.02679367 -0.00064731
v 0.02090253 -0.02412127 0.00717013
v 0.02107396 -0.02492666 0.00717013
v 0.02097753 -0.02509055 0.02801663
v 0.02086681 -0.02546175 0.05147556
v 0.02085967 -0.02553514 0.05277846
v 0.02085967 -0.02566539 0.05277846
v 0.02087395 -0.02693188 0.04496102
v 0.02017750 -0.02747308 0.05017265
v 0.02018107 -0.02747859 0.04886974
v 0.02019893 -0.02747797 0.04496102
v 0.02019893 -0.02746635 0.03714358
v 0.02013107 -0.02714041 -0.00064731
v 0.02103110 -0.02492666 0.01499418
v 0.02040251 -0.02362349 0.05147556
v 0.02085252 -0.02557733 0.05343322
v 0.02085252 -0.02558834 0.05343322
v 0.02080609 -0.02631606 0.05277846
v 0.02085609 -0.02689151 0.04579435
v 0.02012393 -0.02743884 0.05408137
v 0.02015250 -0.02745780 0.05277846
v 0.01919890 -0.02809073 0.05408137
v 0.01914890 -0.02810969 0.05277846
v 0.01889532 -0.02746697 0.00326141
v 0.01889532 -0.02744495 0.00195850
v 0.01889532 -0.02739970 -0.00064731
v 0.01889532 -0.02725721 -0.00847136
v 0.01889532 -0.02755014 0.00847303
v 0.01889532 -0.02753057 0.00717013
v 0.02000607 -0.02362349 0.05538427
v 0.02000250 -0.02492666 0.05668718
v 0.02017393 -0.02622923 0.05668718
v 0.02043465 -0.02622923 0.05538427
v 0.02070252 -0.02610509 0.05395570
v 0.01986678 -0.02729941 0.05668718
v 0.02002036 -0.02741193 0.05538427
v 0.01918462 -0.02806321 0.05538427
v 0.01853102 -0.02824912 0.05538427
v 0.01854888 -0.02824361 0.05408137
v 0.01368445 -0.02846927 0.05017265
v 0.00716639 -0.02877259 0.05277846
v 0.00586278 -0.02882090 0.05277846
v -0.00455897 -0.02886004 0.03844649
v -0.00586258 -0.02887166 0.03714358
v 0.01917033 -0.02370360 0.05789749
v 0.01973463 -0.02274410 0.05538427
v 0.01958820 -0.02286152 0.05616470
v 0.01968820 -0.02370360 0.05663427
v 0.01957391 -0.02419160 0.05739485
v 0.01967749 -0.02492666 0.05764617
v 0.01976678 -0.02622923 0.05789749
v 0.01969177 -0.02709393 0.05773215
v 0.01904890 -0.02795130 0.05668718
v 0.01827744 -0.02819653 0.05742792
v 0.01839530 -0.02822282 0.05668718
v 0.01368445 -0.02848823 0.05147556
v 0.00325555 -0.02888450 0.05408137
v 0.00325555 -0.02888389 0.05277846
v -0.00455897 -0.02888144 0.03974940
v -0.00586258 -0.02889367 0.03844649
v -0.00716620 -0.02889734 0.03714358
v 0.00195551 -0.02891508 0.05408137
v 0.01941319 -0.02332261 0.05703110
v 0.01807030 -0.02811947 0.05830093
v 0.00195551 -0.02891263 0.05277846
v -0.00586258 -0.02890407 0.03974940
v -0.00716620 -0.02890651 0.03844649
v -0.00846981 -0.02890040 0.03714358
v -0.01202471 -0.00572512 -0.02801860
v -0.01199346 -0.00578742 -0.02932252
v -0.01189005 -0.00589187 -0.03016831
v -0.01176409 -0.00577368 -0.01426700
v -0.01200892 -0.00570496 -0.02671719
v -0.01107792 -0.00533298 -0.02020262
v -0.01107792 -0.00571596 -0.01403290
v -0.01179115 -0.00559593 -0.02020262
v -0.01182562 -0.00561334 -0.02150654
v -0.01238074 -0.02027611 -0.06390530
v -0.01368374 -0.02031033 -0.06388935
v -0.02029762 -0.02415074 -0.05982729
v -0.01368374 -0.02101648 -0.06411795
v -0.01452209 -0.02034289 -0.06387287
v -0.02025016 -0.02415074 -0.06060345
v -0.01498675 -0.02231943 -0.06444064
v -0.01496895 -0.02091548 -0.06403235
v -0.01539010 -0.02041383 -0.06383885
v -0.02022248 -0.02362321 -0.06060345
v -0.02018294 -0.02415074 -0.06113081
v -0.01628975 -0.02415074 -0.06473514
v -0.01628975 -0.02362321 -0.06461022
v -0.01602282 -0.02128275 -0.06398398
v -0.01639059 -0.02091548 -0.06369584
v -0.01724871 -0.02010083 -0.06277881
v -0.01628975 -0.01984875 -0.06303293
v -0.01997137 -0.02231943 -0.06060345
v -0.01763427 -0.02415074 -0.06440874
v -0.01639059 -0.02221426 -0.06418386
v -0.01727837 -0.02257902 -0.06402864
v -0.01689083 -0.02171011 -0.06382077
v -0.01764811 -0.02100313 -0.06301378
v -0.01811870 -0.02055991 -0.06243645
v -0.01849635 -0.02010500 -0.06156833
v -0.01983297 -0.02360485 -0.06196332
v -0.01967676 -0.02136204 -0.06060345
v -0.01957988 -0.02159909 -0.06130731
v -0.01968270 -0.02231943 -0.06152739
v -0.01980331 -0.02415074 -0.06233013
v -0.01766591 -0.02356812 -0.06421789
v -0.01825710 -0.02415074 -0.06411369
v -0.01814836 -0.02309736 -0.06379525
v -0.01838365 -0.02142882 -0.06270226
v -0.01887400 -0.02107908 -0.06187188
v -0.01937029 -0.02071015 -0.06060345
v -0.01871780 -0.01987964 -0.06060345
v -0.01962931 -0.02402720 -0.06268790
v -0.01949486 -0.02045974 -0.05971885
v -0.01926748 -0.02231943 -0.06217862
v -0.01946915 -0.02315829 -0.06243486
v -0.01964710 -0.02415074 -0.06271023
v -0.01841331 -0.02396627 -0.06398345
v -0.01844296 -0.02415074 -0.06401056
v -0.01861499 -0.02231943 -0.06294308
v -0.01894123 -0.02356228 -0.06324131
v -0.01957197 -0.02415074 -0.06279954
v 0.00716929 -0.01622082 -0.06270049
v 0.00586630 -0.01623702 -0.06270049
v 0.00716929 -0.01710733 -0.06306755
v 0.00586630 -0.01710733 -0.06306099
v 0.00847228 -0.01628640 -0.06268410
v 0.00847228 -0.01710733 -0.06304297
v 0.01107621 -0.01991417 -0.06401961
v 0.00977528 -0.01988179 -0.06403162
v 0.00933546 -0.01637222 -0.06263385
v 0.01368426 -0.01937175 -0.06370334
v 0.01368426 -0.02002266 -0.06397755
v 0.01107621 -0.02101602 -0.06439649
v 0.01709587 -0.01895238 -0.06267755
v 0.01629024 -0.01880503 -0.06282503
v 0.01498725 -0.01956524 -0.06360994
v 0.01498725 -0.02021696 -0.06392183
v 0.01498725 -0.02101602 -0.06420204
v 0.01368426 -0.02101602 -0.06428070
v 0.01629024 -0.02231946 -0.06445385
v 0.01629024 -0.02362290 -0.06478868
v 0.01629024 -0.02365043 -0.06478541
v 0.01838654 -0.01893295 -0.06141469
v 0.01796522 -0.01932641 -0.06228318
v 0.01839270 -0.02019510 -0.06268683
v 0.01755624 -0.01974173 -0.06291078
v 0.01763228 -0.02098850 -0.06357390
v 0.01656152 -0.02053513 -0.06376616
v 0.01619365 -0.01983079 -0.06349687
v 0.01569423 -0.02034326 -0.06387103
v 0.01619365 -0.02098850 -0.06403763
v 0.01722535 -0.02140382 -0.06396771
v 0.01759323 -0.02362290 -0.06458604
v 0.01759529 -0.02365043 -0.06458057
v 0.01864549 -0.01876779 -0.06060302
v 0.01950867 -0.01912078 -0.05978478
v 0.01929904 -0.01938794 -0.06060302
v 0.01958061 -0.02030682 -0.06131146
v 0.01882429 -0.01981621 -0.06179759
v 0.01809470 -0.02181752 -0.06378255
v 0.01932165 -0.02101602 -0.06225970
v 0.01953128 -0.02169041 -0.06253772
v 0.01867015 -0.02101602 -0.06292171
v 0.02016017 -0.02101602 -0.05973398
v 0.01763228 -0.02227899 -0.06414579
v 0.01762201 -0.02365043 -0.06457402
v 0.01845436 -0.02268621 -0.06397646
v 0.01872359 -0.02362290 -0.06413431
v 0.01953950 -0.01917583 -0.05973398
v 0.01968748 -0.02003885 -0.06060302
v 0.02004714 -0.02101602 -0.06060302
v 0.01972858 -0.02101602 -0.06160806
v 0.01974913 -0.02255991 -0.06282175
v 0.01899282 -0.02218831 -0.06330188
v 0.01975324 -0.01975145 -0.05973398
v 0.01937509 -0.02362290 -0.06372902
v 0.01998137 -0.02220288 -0.06202482
v 0.02052188 -0.02365043 -0.06179923
v 0.01992177 -0.02362290 -0.06307738
v 0.02049517 -0.02365043 -0.06186314
v 0.02095804 -0.02365043 -0.05922288
v 0.01978341 -0.01961785 -0.05932708
v 0.02021588 -0.02101648 -0.05929731
v 0.02083076 -0.02298461 -0.05856290
v 0.02086584 -0.02292096 -0.05769452
v 0.02098310 -0.02350052 -0.05807661
v 0.02097608 -0.02365043 -0.05888049
v 0.01958697 -0.01901569 -0.05891522
v 0.01993325 -0.01971333 -0.05799225
v 0.02087686 -0.02288076 -0.05669216
v 0.02104173 -0.02362279 -0.05669216
v 0.02104123 -0.02365043 -0.05669216
v 0.01962856 -0.01896209 -0.05799225
v 0.01995930 -0.01971333 -0.05669216
v 0.02088187 -0.02286485 -0.05538710
v 0.02104874 -0.02362279 -0.05538710
v 0.01964460 -0.01893780 -0.05669216
v 0.02086834 -0.02291761 -0.04496151
v 0.02087185 -0.02290589 -0.04626657
v 0.02087485 -0.02289500 -0.04756667
v 0.02088087 -0.02286736 -0.05408204
v 0.02103822 -0.02362279 -0.04496151
v 0.02103972 -0.02362279 -0.04626657
v 0.02104774 -0.02362279 -0.05408204
v 0.02102670 -0.02362279 -0.04105130
v 0.02103171 -0.02362279 -0.04235636
v 0.02103571 -0.02362279 -0.04365645
f 69 47 68
f 423 413 424
f 406 835 630
f 630 835 629
f 699 702 701
f 753 713 149
f 400 752 753
f 753 149 400
f 401 773 764
f 401 752 400
f 1 214 226
f 68 47 67
f 33 47 34
f 34 14 33
f 47 33 46
f 408 628 410
f 627 628 408
f 639 627 638
f 639 628 627
f 428 423 424
f 410 413 414
f 413 423 414
f 410 414 415
f 415 414 423
f 629 631 641
f 641 630 629
f 631 630 641
f 626 630 631
f 406 630 626
f 631 632 626
f 634 626 633
f 633 626 632
f 406 834 833
f 833 832 406
f 406 832 837
f 629 835 407
f 407 828 629
f 835 828 407
f 829 828 835
f 629 828 102
f 447 446 809
f 809 467 447
f 153 403 697
f 158 701 702
f 699 701 703
f 501 490 502
f 478 476 502
f 755 753 752
f 711 489 490
f 149 720 729
f 149 713 721
f 721 720 149
f 713 720 721
f 719 720 713
f 765 401 764
f 760 401 765
f 752 401 756
f 756 401 760
f 149 150 151
f 400 149 151
f 405 786 401
f 643 659 644
f 644 645 634
f 660 644 659
f 463 451 471
f 471 485 463
f 456 476 477
f 501 502 475
f 475 502 476
f 349 305 348
f 349 348 380
f 236 216 235
f 236 217 216
f 263 303 304
f 1 226 2
f 7 214 1
f 13 30 14
f 699 200 199
f 199 210 699
f 663 680 664
f 627 626 635
f 635 636 627
f 648 636 635
f 634 645 635
f 635 626 634
f 496 163 161
f 487 163 496
f 85 163 487
f 85 496 68
f 487 496 85
f 65 82 66
f 406 408 409
f 409 408 412
f 625 408 406
f 627 408 625
f 410 412 411
f 411 408 410
f 412 408 411
f 410 628 418
f 628 417 418
f 640 639 650
f 628 639 640
f 640 417 628
f 416 412 410
f 410 415 416
f 642 633 632
f 643 633 642
f 642 112 643
f 642 632 631
f 642 631 629
f 836 835 406
f 406 837 836
f 830 837 832
f 830 836 837
f 830 829 835
f 835 836 830
f 542 210 212
f 699 210 542
f 126 127 116
f 764 773 774
f 774 775 764
f 773 775 774
f 789 773 788
f 788 775 789
f 789 775 773
f 809 803 810
f 810 467 809
f 808 467 810
f 808 810 807
f 807 810 803
f 792 793 775
f 808 807 801
f 801 467 808
f 801 447 467
f 696 153 697
f 701 153 696
f 696 697 179
f 157 158 702
f 160 153 701
f 701 158 160
f 155 156 152
f 127 126 155
f 116 156 155
f 155 139 127
f 159 544 155
f 544 139 155
f 178 150 149
f 179 697 178
f 697 150 178
f 480 496 495
f 179 178 168
f 163 167 168
f 478 502 503
f 503 502 490
f 713 711 717
f 149 729 741
f 741 178 149
f 773 401 785
f 785 786 773
f 401 786 785
f 788 773 787
f 787 786 788
f 773 786 787
f 760 765 766
f 697 403 698
f 403 151 698
f 698 150 697
f 698 151 150
f 400 151 404
f 404 151 403
f 152 818 402
f 818 786 402
f 786 405 402
f 215 230 231
f 645 644 661
f 644 660 661
f 497 471 478
f 444 451 463
f 463 464 444
f 444 434 451
f 444 443 434
f 428 443 444
f 463 485 486
f 486 464 463
f 34 47 48
f 47 69 48
f 48 69 68
f 68 480 48
f 424 432 433
f 433 434 424
f 450 471 451
f 451 434 450
f 455 476 456
f 456 438 455
f 455 475 476
f 264 305 306
f 306 307 264
f 306 305 349
f 349 307 306
f 272 318 312
f 225 226 214
f 222 221 237
f 222 238 239
f 239 227 222
f 213 221 222
f 304 348 310
f 310 348 305
f 580 157 702
f 593 575 592
f 279 322 280
f 553 280 537
f 685 669 684
f 216 217 684
f 684 669 216
f 217 236 218
f 218 236 219
f 218 684 217
f 219 684 218
f 237 221 224
f 224 221 213
f 213 220 224
f 219 236 224
f 224 220 219
f 236 261 241
f 237 224 241
f 241 224 236
f 235 216 234
f 264 238 266
f 266 263 304
f 304 310 266
f 266 305 264
f 266 310 305
f 8 270 9
f 8 242 270
f 9 2 8
f 356 353 317
f 9 270 317
f 317 353 9
f 308 307 349
f 264 307 308
f 1 5 6
f 6 7 1
f 65 46 45
f 31 46 33
f 31 30 46
f 14 30 31
f 46 30 28
f 28 45 46
f 27 45 28
f 30 13 28
f 4 5 1
f 14 5 4
f 4 13 14
f 287 334 288
f 662 680 663
f 679 680 662
f 662 661 660
f 659 679 662
f 662 660 659
f 663 645 662
f 645 661 662
f 638 627 637
f 627 636 637
f 663 664 647
f 647 664 648
f 647 645 663
f 648 635 647
f 649 636 648
f 648 664 649
f 649 637 636
f 638 637 649
f 649 639 638
f 650 639 649
f 479 480 68
f 68 496 479
f 479 496 480
f 84 167 166
f 166 167 163
f 166 85 84
f 163 85 166
f 84 66 83
f 83 66 82
f 826 834 406
f 406 409 826
f 412 821 826
f 826 409 412
f 624 626 627
f 627 625 624
f 406 626 624
f 624 625 406
f 424 413 419
f 419 413 410
f 410 418 419
f 650 417 422
f 422 640 650
f 417 640 422
f 435 428 424
f 435 443 428
f 424 434 435
f 434 443 435
f 822 415 821
f 822 416 415
f 822 821 412
f 412 416 822
f 629 102 105
f 832 833 825
f 825 833 834
f 834 826 825
f 825 826 821
f 829 830 824
f 828 829 824
f 824 102 828
f 116 117 108
f 152 156 108
f 108 156 116
f 678 679 659
f 118 110 109
f 109 108 118
f 118 108 117
f 544 528 147
f 147 139 544
f 116 127 128
f 111 117 116
f 111 118 117
f 110 118 111
f 112 105 111
f 111 105 110
f 658 678 659
f 658 659 643
f 802 807 803
f 802 792 788
f 803 792 802
f 788 801 802
f 802 801 807
f 791 775 788
f 788 792 791
f 791 792 775
f 788 786 800
f 800 801 788
f 818 819 812
f 812 819 813
f 815 811 814
f 814 811 813
f 814 819 815
f 813 819 814
f 815 821 816
f 816 811 815
f 813 811 430
f 447 801 430
f 421 430 811
f 701 696 700
f 699 703 700
f 115 126 116
f 116 155 115
f 115 155 126
f 154 155 152
f 482 495 484
f 713 753 709
f 489 711 708
f 716 711 490
f 716 717 711
f 506 705 755
f 755 759 506
f 489 708 506
f 506 708 705
f 754 755 752
f 754 759 755
f 759 754 758
f 196 741 743
f 178 741 196
f 501 475 474
f 720 719 726
f 761 756 760
f 760 766 761
f 779 765 764
f 779 766 765
f 465 444 464
f 464 486 465
f 446 444 465
f 809 446 465
f 446 428 445
f 428 444 445
f 427 654 669
f 425 419 427
f 419 654 427
f 685 692 687
f 683 666 215
f 16 17 7
f 34 17 16
f 695 688 7
f 695 35 688
f 478 471 470
f 265 238 264
f 239 238 265
f 239 265 245
f 245 265 272
f 243 225 242
f 243 2 226
f 226 225 243
f 240 222 237
f 238 222 240
f 237 263 240
f 240 266 238
f 263 266 240
f 213 222 223
f 223 222 227
f 223 214 213
f 223 227 214
f 304 303 346
f 592 575 574
f 554 363 574
f 377 571 378
f 378 571 588
f 538 173 537
f 540 542 541
f 540 702 699
f 212 210 211
f 321 322 279
f 303 263 262
f 262 261 301
f 262 241 261
f 262 263 237
f 237 241 262
f 354 353 356
f 356 19 354
f 267 8 2
f 242 8 267
f 2 243 267
f 267 243 242
f 349 380 361
f 380 381 361
f 361 574 363
f 381 574 361
f 314 315 270
f 270 313 314
f 314 313 315
f 356 317 357
f 270 315 316
f 316 317 270
f 315 317 316
f 352 308 349
f 349 361 352
f 352 361 360
f 315 308 350
f 350 352 360
f 308 352 350
f 351 308 315
f 318 308 351
f 315 313 351
f 312 318 351
f 351 313 312
f 264 308 309
f 309 308 318
f 318 272 309
f 309 265 264
f 272 265 309
f 44 45 27
f 1 2 3
f 3 4 1
f 32 33 14
f 14 31 32
f 32 31 33
f 679 334 333
f 334 287 333
f 333 680 679
f 333 287 680
f 646 635 645
f 645 647 646
f 646 647 635
f 665 649 664
f 664 682 665
f 665 666 650
f 650 649 665
f 215 666 665
f 665 682 215
f 84 83 96
f 93 83 82
f 94 83 93
f 186 185 190
f 208 195 94
f 699 700 208
f 208 700 195
f 200 191 189
f 189 199 200
f 431 432 424
f 112 642 106
f 106 105 112
f 106 642 629
f 629 105 106
f 831 830 832
f 832 825 831
f 831 824 830
f 825 824 831
f 820 821 815
f 820 825 821
f 820 824 825
f 815 819 820
f 819 824 820
f 104 105 102
f 102 824 104
f 110 105 104
f 109 110 104
f 823 818 152
f 823 819 818
f 823 824 819
f 327 281 284
f 285 281 329
f 331 285 329
f 329 334 331
f 331 334 679
f 127 139 140
f 139 147 140
f 127 140 141
f 125 517 114
f 125 136 130
f 766 779 780
f 799 786 818
f 818 812 799
f 799 800 786
f 801 800 805
f 805 812 801
f 800 799 805
f 805 799 812
f 813 430 794
f 794 430 801
f 794 812 813
f 801 812 794
f 821 415 420
f 420 421 821
f 423 428 420
f 420 415 423
f 811 816 817
f 817 421 811
f 817 816 821
f 821 421 817
f 704 703 701
f 701 700 704
f 704 700 703
f 169 168 178
f 499 474 473
f 499 472 484
f 473 472 499
f 480 495 481
f 495 482 481
f 481 48 480
f 481 482 48
f 712 708 711
f 709 708 712
f 712 711 713
f 713 709 712
f 705 708 706
f 706 708 709
f 706 709 753
f 753 755 706
f 755 705 706
f 725 726 719
f 713 717 718
f 717 724 718
f 724 725 718
f 718 719 713
f 718 725 719
f 489 506 504
f 490 489 504
f 478 503 504
f 504 503 490
f 507 506 759
f 507 504 506
f 728 729 720
f 756 761 757
f 752 756 757
f 757 754 752
f 757 758 754
f 466 444 446
f 446 445 466
f 466 445 444
f 693 692 214
f 688 687 693
f 693 687 692
f 213 214 689
f 214 692 689
f 689 220 213
f 685 684 689
f 689 692 685
f 689 684 219
f 219 220 689
f 670 427 669
f 666 683 667
f 440 50 48
f 34 50 440
f 440 17 34
f 440 35 17
f 688 35 436
f 436 687 688
f 427 687 436
f 436 440 427
f 35 440 436
f 15 16 7
f 7 6 15
f 15 14 34
f 34 16 15
f 15 5 14
f 15 6 5
f 17 35 18
f 35 695 18
f 7 17 18
f 18 695 7
f 34 48 49
f 49 50 34
f 48 50 49
f 434 433 448
f 448 433 432
f 438 452 453
f 453 452 462
f 425 427 437
f 437 438 425
f 437 452 438
f 228 227 239
f 239 245 228
f 214 227 228
f 228 225 214
f 312 313 269
f 269 313 270
f 270 242 269
f 379 381 380
f 588 608 379
f 613 593 592
f 592 608 613
f 572 552 550
f 550 571 572
f 572 377 552
f 572 571 377
f 587 608 588
f 588 571 587
f 575 556 555
f 555 556 537
f 554 574 555
f 555 574 575
f 555 323 554
f 537 323 555
f 575 593 594
f 558 538 537
f 699 542 561
f 561 540 699
f 542 540 561
f 536 526 70
f 537 526 536
f 182 539 185
f 538 539 182
f 87 185 186
f 209 211 202
f 212 211 209
f 209 540 541
f 202 540 209
f 209 542 212
f 541 542 209
f 278 321 279
f 322 321 359
f 359 321 356
f 356 357 359
f 359 357 360
f 537 280 324
f 324 323 537
f 280 323 324
f 216 231 232
f 232 231 230
f 233 234 216
f 216 232 233
f 233 257 258
f 258 254 233
f 233 232 230
f 288 334 335
f 335 289 288
f 258 257 291
f 301 261 260
f 235 234 260
f 260 236 235
f 260 261 236
f 339 293 338
f 234 233 256
f 298 258 297
f 292 254 258
f 292 293 254
f 258 298 292
f 338 293 292
f 292 298 338
f 338 344 299
f 299 339 338
f 344 343 299
f 293 339 299
f 510 514 515
f 311 19 9
f 311 354 19
f 9 353 311
f 353 354 311
f 362 363 554
f 362 361 363
f 360 361 325
f 322 359 325
f 325 359 360
f 325 280 322
f 361 362 325
f 315 350 355
f 355 350 360
f 360 357 355
f 355 317 315
f 355 357 317
f 43 44 27
f 42 44 43
f 80 82 65
f 65 81 80
f 63 44 42
f 45 44 63
f 63 80 81
f 65 45 63
f 63 81 65
f 20 19 356
f 9 19 20
f 20 21 9
f 9 21 10
f 10 2 9
f 10 3 2
f 29 28 13
f 681 664 680
f 681 682 664
f 94 195 192
f 195 194 192
f 94 93 98
f 199 190 204
f 210 199 204
f 202 211 203
f 203 190 202
f 203 204 190
f 203 211 210
f 210 204 203
f 75 60 74
f 76 60 75
f 75 87 186
f 74 87 75
f 202 190 198
f 198 190 185
f 185 539 198
f 205 191 200
f 205 206 191
f 205 200 699
f 699 206 205
f 94 191 207
f 207 208 94
f 699 208 207
f 207 206 699
f 191 206 207
f 201 190 199
f 199 189 201
f 201 189 190
f 426 419 425
f 425 431 426
f 424 419 426
f 426 431 424
f 432 431 439
f 439 448 432
f 457 448 439
f 439 431 425
f 425 438 439
f 439 438 456
f 827 104 824
f 824 823 827
f 109 104 827
f 827 108 109
f 152 108 827
f 827 823 152
f 509 114 510
f 107 395 383
f 114 509 107
f 107 509 395
f 383 395 396
f 396 384 383
f 395 509 396
f 510 384 396
f 396 509 510
f 510 386 103
f 103 384 510
f 386 384 103
f 679 678 337
f 337 331 679
f 543 147 528
f 543 140 147
f 112 111 119
f 119 111 116
f 657 658 643
f 643 133 657
f 678 658 677
f 677 337 678
f 331 337 677
f 138 517 130
f 130 141 138
f 138 141 517
f 130 517 137
f 137 125 130
f 517 125 137
f 284 136 135
f 135 125 284
f 136 125 135
f 330 327 284
f 364 327 330
f 510 114 511
f 114 123 511
f 767 761 766
f 766 780 767
f 767 781 768
f 780 781 767
f 778 780 779
f 778 779 764
f 782 781 778
f 778 781 780
f 764 777 778
f 778 777 782
f 764 775 776
f 776 777 764
f 775 793 790
f 790 776 775
f 777 776 790
f 782 777 790
f 485 471 498
f 471 497 498
f 429 428 446
f 429 420 428
f 168 169 164
f 163 168 164
f 171 172 164
f 161 163 164
f 164 165 161
f 178 196 180
f 180 169 178
f 180 196 743
f 729 732 740
f 743 741 740
f 740 741 729
f 742 732 745
f 488 724 717
f 717 716 488
f 488 716 490
f 488 490 501
f 501 474 488
f 759 758 763
f 763 507 759
f 504 507 508
f 739 728 738
f 739 732 729
f 729 728 739
f 738 728 737
f 726 725 737
f 758 757 762
f 762 757 761
f 762 763 758
f 762 767 768
f 761 767 762
f 507 763 762
f 694 693 214
f 688 693 694
f 214 7 694
f 7 688 694
f 686 670 669
f 687 670 686
f 686 669 685
f 685 687 686
f 671 687 427
f 427 670 671
f 671 670 687
f 668 667 683
f 668 683 215
f 668 652 667
f 215 231 668
f 668 231 216
f 216 669 668
f 442 437 427
f 452 437 442
f 462 452 442
f 449 450 434
f 434 448 449
f 471 450 449
f 449 470 471
f 454 453 472
f 475 455 454
f 454 455 438
f 438 453 454
f 454 472 473
f 454 474 475
f 473 474 454
f 244 228 245
f 225 228 244
f 242 225 244
f 347 379 380
f 346 378 347
f 347 378 588
f 588 379 347
f 304 346 347
f 347 348 304
f 347 380 348
f 393 379 608
f 570 571 550
f 570 587 571
f 576 556 575
f 575 594 576
f 595 576 594
f 614 613 608
f 593 613 614
f 537 556 557
f 557 558 537
f 560 540 538
f 538 558 560
f 558 557 560
f 159 545 529
f 159 157 585
f 538 540 559
f 559 539 538
f 540 539 559
f 70 526 174
f 173 538 174
f 538 182 174
f 537 173 174
f 174 526 537
f 70 174 183
f 183 174 182
f 185 87 72
f 72 87 74
f 72 57 54
f 253 233 230
f 257 233 253
f 253 291 257
f 290 289 336
f 289 335 336
f 252 289 290
f 290 291 252
f 252 253 230
f 291 253 252
f 293 256 294
f 255 233 254
f 255 256 233
f 255 294 256
f 254 293 255
f 293 294 255
f 301 343 302
f 303 262 302
f 302 262 301
f 300 343 301
f 300 299 343
f 301 260 300
f 293 299 259
f 259 260 234
f 259 300 260
f 299 300 259
f 234 256 259
f 259 256 293
f 552 377 391
f 345 302 343
f 377 378 345
f 345 378 346
f 345 346 303
f 303 302 345
f 399 398 397
f 397 386 510
f 397 398 386
f 387 369 386
f 510 515 516
f 516 515 399
f 516 397 510
f 399 397 516
f 524 398 399
f 399 515 524
f 342 344 338
f 342 372 344
f 342 298 297
f 338 298 342
f 369 372 342
f 523 524 515
f 372 524 523
f 523 515 522
f 326 362 554
f 326 325 362
f 554 323 326
f 326 323 280
f 280 325 326
f 42 43 26
f 26 43 27
f 62 63 42
f 63 62 61
f 61 62 42
f 61 60 78
f 42 60 61
f 90 80 79
f 80 63 79
f 63 61 79
f 78 90 79
f 79 61 78
f 247 536 70
f 247 278 279
f 247 553 537
f 279 280 247
f 280 553 247
f 358 321 319
f 319 37 358
f 36 37 21
f 21 20 36
f 358 37 36
f 36 20 356
f 36 321 358
f 356 321 36
f 23 24 11
f 11 10 23
f 11 26 27
f 3 10 11
f 22 39 23
f 23 10 22
f 22 10 21
f 70 72 71
f 71 72 54
f 21 37 38
f 38 22 21
f 39 22 38
f 23 39 40
f 40 39 54
f 41 24 23
f 23 40 41
f 42 24 41
f 41 40 54
f 64 60 42
f 42 57 64
f 74 60 64
f 64 57 74
f 682 681 229
f 215 682 229
f 229 230 215
f 167 177 175
f 179 168 175
f 175 168 167
f 175 194 195
f 195 700 175
f 175 696 179
f 175 700 696
f 193 192 194
f 177 192 193
f 194 175 193
f 193 175 177
f 176 177 167
f 176 192 177
f 176 167 84
f 84 96 95
f 95 176 84
f 192 176 95
f 95 96 83
f 95 83 94
f 94 192 95
f 99 191 94
f 94 98 99
f 101 189 191
f 191 99 101
f 101 99 98
f 91 80 90
f 90 89 91
f 197 539 540
f 197 198 539
f 197 540 202
f 202 198 197
f 187 88 76
f 76 75 187
f 186 190 187
f 187 75 186
f 188 187 190
f 88 187 188
f 517 141 527
f 528 517 527
f 116 128 120
f 120 119 116
f 112 119 120
f 673 657 133
f 132 120 674
f 674 673 132
f 657 673 674
f 281 285 282
f 282 144 281
f 285 144 282
f 142 144 672
f 130 136 142
f 284 281 248
f 281 144 248
f 248 144 136
f 284 125 134
f 134 330 284
f 124 125 114
f 124 134 125
f 364 330 113
f 113 107 383
f 114 107 113
f 383 384 113
f 768 781 770
f 771 508 770
f 770 507 768
f 770 508 507
f 770 781 782
f 804 792 803
f 793 792 804
f 809 465 806
f 806 465 486
f 806 803 809
f 806 804 803
f 782 790 795
f 161 165 162
f 162 496 161
f 162 495 496
f 732 722 731
f 731 180 743
f 743 740 731
f 731 740 732
f 750 747 742
f 742 745 750
f 714 172 171
f 171 722 714
f 714 164 172
f 165 164 714
f 733 732 742
f 733 722 732
f 723 725 724
f 724 488 723
f 723 488 736
f 744 745 732
f 732 739 744
f 738 745 744
f 744 739 738
f 742 747 751
f 474 499 492
f 492 751 747
f 720 726 727
f 726 737 727
f 727 728 720
f 727 737 728
f 768 507 769
f 769 762 768
f 507 762 769
f 669 654 653
f 653 668 669
f 652 668 653
f 653 654 419
f 419 652 653
f 666 667 655
f 650 666 655
f 655 417 650
f 655 418 417
f 427 440 441
f 441 442 427
f 462 442 461
f 461 453 462
f 472 453 461
f 461 482 484
f 469 449 448
f 271 244 245
f 269 244 271
f 271 245 272
f 271 272 312
f 312 269 271
f 268 269 242
f 242 244 268
f 268 244 269
f 612 608 592
f 612 393 608
f 394 612 592
f 393 612 394
f 381 379 394
f 379 393 394
f 533 534 522
f 597 595 594
f 580 595 597
f 577 595 580
f 576 595 577
f 556 576 577
f 593 614 615
f 608 587 609
f 563 560 557
f 531 528 544
f 531 544 159
f 159 529 531
f 566 545 159
f 159 585 566
f 184 182 185
f 184 183 182
f 185 72 184
f 74 57 73
f 73 72 74
f 57 72 73
f 295 336 335
f 290 336 295
f 258 291 295
f 295 291 290
f 386 369 368
f 385 384 386
f 328 327 364
f 329 281 328
f 281 327 328
f 328 334 329
f 328 335 334
f 250 252 230
f 289 252 250
f 230 229 250
f 250 287 288
f 288 289 250
f 250 229 681
f 375 391 373
f 344 375 373
f 373 391 377
f 377 345 373
f 373 343 344
f 373 345 343
f 535 523 522
f 552 391 535
f 522 534 535
f 535 534 550
f 550 552 535
f 369 387 388
f 386 398 388
f 388 387 386
f 344 372 376
f 25 24 42
f 42 26 25
f 25 11 24
f 26 11 25
f 274 247 70
f 537 536 275
f 275 247 537
f 536 247 275
f 321 278 277
f 278 247 277
f 37 319 277
f 12 11 27
f 27 28 12
f 28 29 12
f 13 4 12
f 12 29 13
f 4 3 12
f 3 11 12
f 70 71 52
f 39 38 52
f 52 38 37
f 54 39 53
f 53 71 54
f 39 52 53
f 53 52 71
f 58 57 42
f 58 41 57
f 54 57 56
f 57 41 56
f 189 101 100
f 100 101 98
f 92 98 93
f 92 93 82
f 82 80 92
f 80 91 92
f 88 188 77
f 77 89 90
f 77 188 89
f 78 60 77
f 77 90 78
f 77 60 76
f 76 88 77
f 140 543 146
f 146 141 140
f 146 527 141
f 146 543 528
f 528 527 146
f 130 120 129
f 129 120 128
f 129 128 127
f 127 141 129
f 129 141 130
f 121 120 132
f 132 673 121
f 121 673 133
f 112 120 121
f 643 112 121
f 121 133 643
f 332 286 285
f 285 331 332
f 331 677 332
f 672 144 249
f 249 286 672
f 249 144 285
f 285 286 249
f 672 286 676
f 676 142 672
f 676 677 658
f 676 332 677
f 286 332 676
f 131 120 130
f 131 674 120
f 136 144 145
f 145 142 136
f 144 142 145
f 283 136 284
f 284 248 283
f 283 248 136
f 330 134 122
f 134 124 122
f 122 124 114
f 114 113 122
f 122 113 330
f 797 790 793
f 793 804 797
f 804 806 797
f 797 795 790
f 783 770 782
f 782 795 783
f 771 770 783
f 795 797 783
f 783 772 771
f 498 772 783
f 505 772 498
f 505 498 497
f 771 772 505
f 505 497 478
f 478 504 505
f 505 508 771
f 504 508 505
f 169 180 181
f 180 731 181
f 749 745 738
f 749 750 745
f 747 750 749
f 738 737 749
f 749 737 747
f 495 162 707
f 710 162 165
f 165 714 710
f 710 707 162
f 495 707 710
f 484 495 494
f 494 499 484
f 725 723 735
f 735 737 725
f 747 737 735
f 736 747 735
f 735 723 736
f 736 488 491
f 491 488 474
f 474 492 491
f 656 655 667
f 656 419 418
f 418 655 656
f 460 440 48
f 460 441 440
f 442 441 459
f 459 461 442
f 441 460 459
f 459 460 48
f 48 482 459
f 482 461 459
f 484 472 500
f 468 448 457
f 468 469 448
f 449 469 458
f 478 470 458
f 470 449 458
f 469 468 458
f 458 468 457
f 457 439 458
f 458 476 478
f 458 477 476
f 456 477 458
f 458 439 456
f 382 394 592
f 381 394 382
f 592 574 382
f 382 574 381
f 534 533 549
f 549 533 548
f 522 515 525
f 525 533 522
f 578 557 556
f 556 577 578
f 578 563 557
f 577 563 578
f 616 594 593
f 593 615 616
f 616 597 594
f 616 617 597
f 618 617 616
f 615 620 616
f 611 614 608
f 608 609 611
f 587 570 573
f 573 570 550
f 540 560 562
f 562 563 540
f 560 563 562
f 565 580 702
f 702 540 565
f 579 577 580
f 579 563 577
f 580 565 579
f 579 565 563
f 528 531 519
f 519 531 529
f 546 529 545
f 513 514 510
f 602 617 618
f 183 184 86
f 86 184 72
f 70 183 86
f 86 72 70
f 369 342 341
f 341 368 369
f 367 385 370
f 370 341 367
f 366 367 364
f 366 385 367
f 364 113 366
f 366 113 384
f 384 385 366
f 364 367 365
f 365 328 364
f 365 367 335
f 335 328 365
f 287 250 251
f 680 287 251
f 251 681 680
f 392 391 375
f 375 535 392
f 392 535 391
f 374 535 375
f 523 535 374
f 374 375 344
f 344 376 374
f 372 523 374
f 374 376 372
f 390 524 372
f 398 524 390
f 390 388 398
f 37 277 276
f 276 277 247
f 320 319 321
f 321 277 320
f 320 277 319
f 42 41 59
f 59 58 42
f 41 58 59
f 55 41 54
f 54 56 55
f 55 56 41
f 98 92 97
f 97 92 91
f 97 100 98
f 97 91 89
f 189 100 97
f 190 189 97
f 89 188 97
f 97 188 190
f 675 676 658
f 674 676 675
f 658 657 675
f 657 674 675
f 798 797 806
f 798 783 797
f 798 806 486
f 485 498 784
f 498 783 784
f 170 731 722
f 170 181 731
f 169 181 170
f 170 722 171
f 171 164 170
f 170 164 169
f 715 714 722
f 722 494 715
f 715 710 714
f 495 710 715
f 715 494 495
f 722 733 730
f 730 494 722
f 730 733 742
f 748 492 747
f 748 491 492
f 748 747 736
f 736 491 748
f 667 652 651
f 651 656 667
f 651 652 419
f 419 656 651
f 472 461 483
f 483 500 472
f 483 461 484
f 484 500 483
f 618 616 619
f 619 616 620
f 590 609 587
f 550 534 551
f 534 549 551
f 551 549 548
f 589 611 609
f 609 590 589
f 589 590 573
f 545 566 567
f 540 563 564
f 564 565 540
f 563 565 564
f 518 517 528
f 528 519 518
f 529 546 530
f 530 519 529
f 520 519 530
f 157 580 581
f 581 582 157
f 580 582 581
f 606 585 157
f 157 605 606
f 157 583 584
f 340 295 335
f 340 341 295
f 335 367 340
f 367 341 340
f 295 341 296
f 297 258 296
f 258 295 296
f 296 342 297
f 296 341 342
f 371 385 386
f 371 370 385
f 386 368 371
f 368 341 371
f 341 370 371
f 691 250 681
f 681 251 691
f 691 251 250
f 389 372 369
f 389 390 372
f 369 388 389
f 388 390 389
f 247 274 273
f 273 276 247
f 142 676 690
f 690 148 142
f 690 676 674
f 674 148 690
f 130 142 143
f 142 148 143
f 143 131 130
f 143 148 674
f 674 131 143
f 796 798 486
f 783 798 796
f 796 784 783
f 796 486 485
f 485 784 796
f 734 730 742
f 494 730 734
f 587 573 591
f 591 590 587
f 573 590 591
f 569 551 548
f 569 567 573
f 569 573 550
f 550 551 569
f 614 611 610
f 611 589 610
f 610 615 614
f 545 567 568
f 567 569 568
f 512 519 520
f 512 518 519
f 517 518 512
f 114 517 512
f 520 513 512
f 512 123 114
f 512 511 123
f 510 511 512
f 512 513 510
f 521 513 520
f 520 530 521
f 533 525 521
f 521 525 515
f 521 515 514
f 514 513 521
f 604 605 157
f 157 584 604
f 582 598 599
f 157 582 599
f 600 599 598
f 600 583 157
f 157 599 600
f 596 582 580
f 596 598 582
f 580 597 596
f 597 617 596
f 617 598 596
f 617 602 601
f 601 598 617
f 601 600 598
f 601 602 583
f 583 600 601
f 246 273 274
f 52 273 246
f 246 274 70
f 70 52 246
f 37 276 51
f 276 273 51
f 51 52 37
f 51 273 52
f 494 734 493
f 499 494 493
f 493 492 499
f 623 620 615
f 615 610 623
f 610 622 623
f 532 530 546
f 532 521 530
f 533 521 532
f 585 606 607
f 606 622 607
f 607 610 589
f 607 622 610
f 603 604 584
f 583 602 603
f 603 584 583
f 605 604 603
f 603 619 620
f 746 734 742
f 746 493 734
f 742 751 746
f 751 492 746
f 492 493 746
f 547 532 546
f 547 546 545
f 545 568 547
f 547 569 548
f 547 568 569
f 548 533 547
f 533 532 547
f 585 607 586
f 586 566 585
f 586 567 566
f 586 607 589
f 586 589 573
f 573 567 586
f 621 606 605
f 605 603 621
f 621 622 606
f 621 623 622
f 620 623 621
f 621 603 620
f 634 633 644
f 644 633 643
f 85 67 84
f 68 67 85
f 47 46 66
f 66 46 65
f 84 67 66
f 66 67 47
f 158 157 155
f 155 157 159
f 404 405 401
f 404 401 400
f 403 153 402
f 402 153 152
f 405 404 402
f 402 404 403
f 152 153 154
f 153 160 154
f 158 155 154
f 154 160 158
f 447 430 429
f 446 447 429
f 430 421 429
f 421 420 429
f 618 619 603
f 603 602 618

