# https://github.com/mikedh/trimesh
v 0.02059580 0.00054960 -0.02916455
v 0.02059178 -0.00182542 -0.02581141
v 0.02057975 -0.00218913 -0.02952063
v 0.02050355 -0.00149445 -0.03117247
v 0.02048349 0.00010042 -0.03137029
v 0.02050756 0.00349927 -0.03024269
v 0.02049151 0.00599431 -0.02961954
v 0.02052360 0.00538874 -0.02852161
v 0.02051157 0.00567061 -0.02300230
v 0.02051157 0.00002404 0.00165658
v 0.02054767 -0.00121075 -0.00563327
v 0.02055168 -0.00221823 -0.00752250
v 0.02051558 -0.00260376 -0.00882814
v 0.02052761 -0.00257648 -0.02095481
v 0.02047948 -0.00268559 -0.02656315
v 0.02037921 -0.00294928 -0.02942172
v 0.02043937 -0.00258921 -0.03094497
v 0.02019471 -0.00204183 -0.03307158
v 0.02020674 -0.00015600 -0.03323974
v 0.02025487 0.00510868 -0.03241876
v 0.02028696 0.00651805 -0.02925356
v 0.02047547 0.00618526 -0.02764129
v 0.02023081 0.00638712 -0.03168681
v 0.02045943 0.00537601 -0.00462436
v 0.02046745 0.00596340 -0.01850178
v 0.02035113 0.00524144 0.03006423
v 0.02041531 0.00127519 0.02708697
v 0.02053162 -0.00192908 0.00114223
v 0.02039525 -0.00265831 0.01952017
v 0.02043937 -0.00295110 0.00044984
v 0.02044739 -0.00283471 -0.01736429
v 0.01872675 -0.00779751 -0.02869966
v 0.01857834 -0.00797028 -0.03132084
v 0.01846604 -0.00762475 -0.03333865
v 0.02001823 -0.00273833 -0.03310126
v 0.01950886 -0.00270014 -0.03524766
v 0.01968534 -0.00175813 -0.03527733
v 0.01991395 -0.00005598 -0.03446625
v 0.01987384 0.00613980 -0.03421897
v 0.01990994 0.00690177 -0.02898650
v 0.02014257 0.00669081 -0.02694890
v 0.02027092 0.00654169 -0.02471348
v 0.01980566 0.00689449 -0.03154834
v 0.02025086 0.00603432 0.01852115
v 0.02028295 0.00594885 0.02021255
v 0.01972143 0.00673628 -0.03345735
v 0.02027894 0.00554331 0.03021260
v 0.02028295 0.00533600 0.03176553
v 0.02033509 0.00359747 0.03151825
v 0.02039525 0.00030955 0.03073684
v 0.02036718 0.00371022 0.02999499
v 0.02041531 -0.00034695 0.02621654
v 0.02038723 -0.00116347 0.02976750
v 0.02034712 -0.00228915 0.02752219
v 0.02033910 -0.00294564 0.02410970
v 0.01871471 -0.00785753 -0.00668174
v 0.01867460 -0.00796300 -0.02230002
v 0.02030301 -0.00317114 0.01879811
v 0.01856631 -0.00816486 -0.02832379
v 0.01808100 -0.00837035 -0.03348702
v 0.01816523 -0.00816668 -0.03402115
v 0.01843395 -0.00824851 -0.03030204
v 0.01787244 -0.00803029 -0.03571255
v 0.01930832 -0.00215094 -0.03631591
v 0.01947677 -0.00036695 -0.03592027
v 0.01956100 0.00462495 -0.03542570
v 0.01920805 0.00620344 -0.03623679
v 0.01911981 0.00681993 -0.03549494
v 0.01954496 0.00704907 -0.03049986
v 0.01947677 0.00700360 -0.02441675
v 0.02002225 0.00627619 0.02194352
v 0.02009444 0.00627437 0.01845191
v 0.02015861 0.00615616 0.02108298
v 0.01908772 0.00707089 -0.03380354
v 0.02000219 0.00598704 0.03198313
v 0.01996609 0.00579427 0.03363498
v 0.02016263 0.00536692 0.03324921
v 0.02029097 0.00226994 0.03245791
v 0.02033108 -0.00071611 0.03211172
v 0.02032306 -0.00208002 0.03146879
v 0.02027493 -0.00296019 0.02703751
v 0.01858637 -0.00780842 0.02916413
v 0.01853824 -0.00826670 -0.02290339
v 0.01871070 -0.00747381 0.02832337
v 0.01842994 -0.00839763 -0.02041079
v 0.01818127 -0.00845219 -0.03047019
v 0.01766387 -0.00857949 -0.03234953
v 0.01741119 -0.00852129 -0.03585102
v 0.01708230 -0.00830671 -0.03720613
v 0.01671330 -0.00787389 -0.03872938
v 0.01889119 -0.00268559 -0.03694896
v 0.01868664 -0.00202182 -0.03780949
v 0.01911179 -0.00055062 -0.03690939
v 0.01877086 0.00541238 -0.03748308
v 0.01865856 0.00658898 -0.03733471
v 0.01840588 0.00690358 -0.03729515
v 0.01818127 0.00710908 -0.03664232
v 0.01809704 0.00743460 -0.02950085
v 0.01270247 0.00847480 0.02016310
v 0.01884306 0.00675264 0.01660225
v 0.01828555 0.00737822 -0.03151866
v 0.01954897 0.00635984 0.02729468
v 0.01968133 0.00623072 0.03092477
v 0.01802485 0.00734367 -0.03414973
v 0.01965325 0.00607615 0.03390204
v 0.01943666 0.00593248 0.03593963
v 0.01970539 0.00539237 0.03574181
v 0.01994604 0.00314102 0.03482192
v 0.02016664 0.00103878 0.03361519
v 0.02009043 -0.00132168 0.03397128
v 0.02017466 -0.00222004 0.03294259
v 0.02014257 -0.00279652 0.03157759
v 0.02021878 -0.00280561 0.02954989
v 0.01866257 -0.00734833 0.03058847
v 0.01841390 -0.00762657 0.03202270
v 0.01836978 -0.00806120 0.03033130
v 0.01810908 -0.00860677 -0.02009427
v 0.01823341 -0.00817577 0.02883772
v 0.01653683 -0.00866132 -0.03558396
v 0.01635634 -0.00856676 -0.03739406
v 0.01506084 -0.00847037 -0.04034165
v 0.01587103 -0.00814667 -0.03990643
v 0.01476805 -0.00789572 -0.04190447
v 0.01761173 -0.00207638 -0.03984709
v 0.01804490 -0.00271832 -0.03879862
v 0.01816924 -0.00085796 -0.03887775
v 0.01855829 0.00160253 -0.03803699
v 0.01713845 0.00301554 -0.04093513
v 0.01792458 0.00546330 -0.03918438
v 0.01802485 0.00637439 -0.03881840
v 0.01795666 0.00678720 -0.03856123
v 0.01731092 0.00709817 -0.03884807
v 0.01610366 0.00774011 -0.03536636
v 0.01604751 0.00750916 -0.03802710
v 0.01501271 0.00818747 -0.02971845
v 0.01620393 0.00788560 -0.02722586
v 0.00559927 0.00894399 0.02980706
v 0.00606854 0.00885852 0.03229966
v 0.00757662 0.00873667 0.03112260
v 0.00844697 0.00857119 0.03331846
v 0.00918095 0.00851299 0.03212161
v 0.01086951 0.00816020 0.03437682
v 0.01318377 0.00778194 0.03363498
v 0.01526940 0.00737822 0.03257661
v 0.01736707 0.00684539 0.03284368
v 0.01916794 0.00642349 0.03085553
v 0.01314366 0.00858755 -0.03002508
v 0.01113022 0.00895308 -0.02974813
v 0.00999515 0.00913675 -0.03092518
v 0.00915689 0.00924223 -0.02780944
v 0.00842290 0.00935680 -0.03018334
v 0.00702312 0.00949319 -0.02750282
v 0.00477705 0.00971869 -0.02961954
v 0.01614778 0.00789469 -0.03228028
v 0.01902355 0.00633802 0.03419878
v 0.01899547 0.00617799 0.03603855
v 0.01854225 0.00603796 0.03821462
v 0.01908772 0.00571608 0.03753212
v 0.01896339 0.00437399 0.03827397
v 0.01943265 0.00220993 0.03687930
v 0.01934040 -0.00197636 0.03738375
v 0.01978160 0.00031682 0.03563301
v 0.01978962 -0.00225823 0.03473290
v 0.01795265 -0.00746472 0.03422845
v 0.01798073 -0.00787026 0.03320965
v 0.01752751 -0.00809212 0.03373389
v 0.01745130 -0.00824488 0.03220074
v 0.01740718 -0.00865950 -0.02009427
v 0.01771601 -0.00829034 0.02876848
v 0.00260719 -0.00868314 -0.04767106
v 0.01403808 -0.00858130 -0.04075708
v 0.01124653 -0.00867405 -0.03057899
v 0.01320382 -0.00851038 -0.04275512
v 0.01409022 -0.00825761 -0.04242870
v 0.01723070 -0.00149808 -0.04050981
v 0.01298323 -0.00803029 -0.04388272
v 0.01348859 -0.00731378 -0.04352663
v 0.01682962 0.00064416 -0.04135056
v 0.01665715 0.00496684 -0.04143958
v 0.01719862 0.00622527 -0.04031198
v 0.01716252 0.00673991 -0.04000535
v 0.01624404 0.00694359 -0.04106371
v 0.01489239 0.00759827 -0.03940198
v 0.01571060 0.00716364 -0.04112306
v 0.01408220 0.00812383 -0.03628624
v 0.01433488 0.00827113 -0.03312104
v 0.00265933 0.00910948 0.03062803
v 0.00402301 0.00899309 0.03290302
v 0.00271147 0.00982053 -0.02768086
v 0.00490540 0.00884033 0.03486149
v 0.00691884 0.00868576 0.03443617
v 0.00900849 0.00834569 0.03573192
v 0.01188827 0.00774375 0.03739365
v 0.01335623 0.00764191 0.03536594
v 0.01549401 0.00712908 0.03603855
v 0.01704220 0.00683448 0.03477247
v 0.01201661 0.00876759 -0.03237920
v 0.01058876 0.00898036 -0.03321006
v 0.00855927 0.00931497 -0.03201322
v 0.00685467 0.00953683 -0.03062845
v 0.00555114 0.00962230 -0.03264626
v 0.00287591 0.00983326 -0.03045041
v 0.01790854 0.00649441 0.03634518
v 0.01807298 0.00626709 0.03818495
v 0.01727883 0.00601977 0.04082591
v 0.01814517 0.00560151 0.03994559
v 0.01824144 0.00500139 0.03995548
v 0.01865455 -0.00115438 0.03905537
v 0.01862648 -0.00263649 0.03903559
v 0.01725477 -0.00743199 0.03645398
v 0.01704620 -0.00804847 0.03575170
v 0.01595526 -0.00823760 0.03696832
v 0.01663309 -0.00829761 0.03296237
v 0.00789748 -0.00853039 0.00040039
v -0.01852592 -0.00860313 -0.01311105
v 0.01011949 -0.00867587 -0.02811607
v 0.00081836 -0.00867587 -0.04803704
v 0.00370215 -0.00852857 -0.04846236
v 0.01086951 -0.00850856 -0.04478282
v 0.01278669 -0.00837763 -0.04363544
v 0.01163157 -0.00828852 -0.04480260
v 0.01212491 -0.00781206 -0.04480260
v 0.01250995 -0.00299656 -0.04534662
v 0.01323591 -0.00308931 -0.04455533
v 0.01309553 0.00345926 -0.04540597
v 0.01345650 0.00444855 -0.04509934
v 0.01475602 0.00604705 -0.04359587
v 0.01630821 0.00602159 -0.04165719
v 0.01568653 0.00655988 -0.04228033
v 0.01506485 0.00694723 -0.04251773
v 0.01224523 0.00825658 -0.03839308
v 0.01409423 0.00753826 -0.04098458
v 0.01334420 0.00719273 -0.04371456
v 0.01171981 0.00864575 -0.03549494
v 0.01271851 0.00855846 -0.03401126
v 0.00143602 0.00917312 0.02757164
v -0.00091032 0.00916949 0.03009391
v -0.00103866 0.00913130 0.03248759
v 0.00203765 0.00905674 0.03363498
v 0.00029294 0.00988417 -0.02796770
v 0.00102291 0.00988417 -0.03098453
v 0.00216199 0.00893126 0.03580116
v 0.00403104 0.00876577 0.03664191
v 0.00644155 0.00844753 0.03788821
v 0.00963418 0.00810746 0.03733430
v 0.01409022 0.00734731 0.03702767
v 0.01209683 0.00751461 0.03900592
v 0.01671330 0.00665444 0.03781897
v 0.00944968 0.00908038 -0.03436734
v 0.00762876 0.00932588 -0.03432778
v 0.00596827 0.00951501 -0.03426843
v 0.00351364 0.00972051 -0.03360571
v 0.01654485 0.00637439 0.04033135
v 0.01599938 0.00617071 0.04229971
v 0.01618789 0.00589247 0.04282394
v 0.01682561 0.00545966 0.04228981
v 0.01826149 -0.00206910 0.03985657
v 0.01770398 0.00353746 0.04097428
v 0.01786442 -0.00028148 0.04068743
v 0.01728284 -0.00302384 0.04149851
v 0.01739114 -0.00354758 0.04099406
v 0.01649271 -0.00788117 0.03761125
v 0.01601943 -0.00814486 0.03766071
v 0.01452740 -0.00818123 0.03978733
v 0.01287092 -0.00818123 0.04160732
v 0.01423461 -0.00825033 0.03850147
v 0.01490843 -0.00827943 0.03524725
v 0.01534160 -0.00830125 0.03242824
v 0.00430778 -0.00833944 0.02626599
v -0.01894705 -0.00830125 -0.01253736
v -0.01910347 -0.00810485 -0.03127138
v -0.01816494 -0.00831944 -0.03374419
v -0.01648039 -0.00837399 -0.03718635
v -0.01121817 -0.00848856 -0.04267599
v -0.00268712 -0.00864314 -0.04777987
v -0.00164831 -0.00816486 0.04067754
v -0.01863822 -0.00836126 0.00827382
v -0.01903930 -0.00814304 0.00754187
v -0.00151194 -0.00856130 -0.04869976
v 0.00141998 -0.00853584 -0.04879867
v 0.00227429 -0.00838127 -0.04891736
v 0.00438399 -0.00799755 -0.04875910
v 0.00606854 -0.00826306 -0.04792824
v 0.00897640 -0.00845946 -0.04619727
v 0.00961011 -0.00829761 -0.04619727
v 0.01015558 -0.00808121 -0.04609836
v 0.01095374 -0.00752291 -0.04577195
v 0.01066897 -0.00248191 -0.04673140
v 0.01121044 -0.00140352 -0.04649401
v 0.01014355 -0.00079976 -0.04714683
v 0.00948176 0.00575608 -0.04732487
v 0.01046442 0.00664899 -0.04668194
v 0.01149521 0.00635802 -0.04609836
v 0.01400198 0.00564333 -0.04441684
v 0.01366908 0.00618708 -0.04449598
v 0.01442312 0.00660352 -0.04361565
v 0.01292306 0.00697269 -0.04461467
v 0.01274258 0.00764191 -0.04199349
v 0.01028393 0.00834933 -0.04024274
v 0.01046843 0.00856209 -0.03844253
v 0.01135082 0.00767283 -0.04322990
v 0.01089358 0.00734367 -0.04530706
v 0.00920502 0.00894035 -0.03667200
v -0.00376202 0.00908402 0.03083575
v -0.00192907 0.00987508 -0.02815564
v -0.00387031 0.00902037 0.03317009
v -0.00213362 0.00900218 0.03494062
v 0.00037315 0.00904037 0.03451530
v -0.00087422 0.00989509 -0.03135051
v 0.00127158 0.00978416 -0.03402115
v -0.00001189 0.00882396 0.03735408
v 0.00216600 0.00863484 0.03869929
v 0.00433185 0.00854755 0.03853114
v 0.00475299 0.00823658 0.04060830
v 0.00762074 0.00813110 0.03944113
v 0.01013553 0.00764919 0.04042037
v 0.01449531 0.00697633 0.03944113
v 0.01256610 0.00683266 0.04283383
v 0.01357282 0.00688540 0.04131058
v 0.00650171 0.00934043 -0.03592027
v 0.00476502 0.00945318 -0.03639505
v 0.00270746 0.00959866 -0.03610820
v 0.01436295 0.00627437 0.04377350
v 0.01488436 0.00600704 0.04419882
v 0.01529748 0.00555786 0.04424828
v 0.01566247 0.00432125 0.04392187
v 0.01656490 0.00350291 0.04277449
v 0.01714648 0.00157344 0.04190405
v 0.01720263 -0.00110710 0.04177547
v 0.01659699 -0.00259648 0.04257666
v 0.01676545 -0.00378035 0.04191395
v 0.01578279 -0.00772295 0.03915429
v 0.01528545 -0.00796300 0.03965874
v 0.01338832 -0.00805393 0.04163699
v 0.01250594 -0.00824669 0.03877842
v 0.01015960 -0.00806848 0.04422850
v 0.00389467 -0.00800483 0.04639468
v 0.00313261 -0.00805938 0.04467360
v -0.01960082 -0.00770295 -0.03033171
v -0.01916364 -0.00802847 0.00856067
v -0.01927995 -0.00795391 -0.03245833
v -0.01862217 -0.00815577 -0.03433767
v -0.01729860 -0.00824306 -0.03802710
v -0.01542554 -0.00832853 -0.04060872
v -0.01235324 -0.00843400 -0.04337826
v -0.00641319 -0.00856130 -0.04657314
v -0.00490511 -0.00853766 -0.04835356
v -0.00412300 -0.00806484 0.04270525
v -0.01089329 -0.00794482 0.04368448
v -0.00983844 -0.00798664 0.04262612
v -0.01622370 -0.00797028 0.03735408
v -0.01794434 -0.00799573 0.02983673
v -0.01897914 -0.00783934 0.02870913
v -0.00433156 -0.00830852 -0.04901627
v -0.00153601 -0.00829216 -0.04916465
v 0.00040925 -0.00808484 -0.04928334
v 0.00174085 -0.00757201 -0.04931301
v 0.00320480 -0.00683550 -0.04914486
v 0.00532253 -0.00703373 -0.04864041
v 0.00675841 -0.00770113 -0.04805682
v 0.00811808 -0.00794118 -0.04732487
v 0.00950182 -0.00764657 -0.04668194
v 0.00916491 -0.00726286 -0.04695890
v 0.01015558 -0.00183815 -0.04712705
v 0.00822637 -0.00184542 -0.04809639
v 0.00915689 0.00074600 -0.04761172
v 0.00839082 0.00512687 -0.04785900
v 0.00832263 0.00658170 -0.04779965
v 0.01147515 0.00689631 -0.04586096
v 0.00889618 0.00696541 -0.04731498
v 0.00970236 0.00819475 -0.04177588
v 0.00738811 0.00873486 -0.04026252
v 0.00859537 0.00881851 -0.03857112
v 0.00964220 0.00784195 -0.04374424
v 0.00889618 0.00724001 -0.04687976
v 0.00869965 0.00744187 -0.04628629
v 0.00653781 0.00918404 -0.03753254
v -0.00564712 0.00894944 0.03181498
v -0.00281546 0.00987326 -0.03028226
v -0.00390240 0.00978052 -0.02687967
v -0.00527812 0.00972778 -0.02820509
v -0.00954164 0.00945864 -0.02825455
v -0.00666186 0.00882396 0.03337780
v -0.00529817 0.00884579 0.03502964
v -0.00204939 0.00890580 0.03627593
v -0.00066164 0.00981507 -0.03376397
v -0.00235823 0.00984599 -0.03233963
v -0.00077796 0.00970414 -0.03559385
v -0.00235823 0.00865484 0.03869929
v -0.00001189 0.00852209 0.03993570
v 0.00187722 0.00823112 0.04162710
v 0.00507786 0.00795470 0.04222057
v 0.00781727 0.00774739 0.04182493
v 0.00968231 0.00732003 0.04284372
v 0.01030800 0.00689995 0.04451534
v 0.01289900 0.00632347 0.04501980
v 0.00507786 0.00913312 -0.03906568
v 0.00311255 0.00930406 -0.03874916
v 0.00070204 0.00946773 -0.03801721
v 0.01233347 0.00605614 0.04643425
v 0.01409824 0.00579973 0.04533632
v 0.01359688 0.00553240 0.04597925
v 0.01425065 0.00487045 0.04545501
v 0.01487233 0.00078237 0.04486154
v 0.01613976 0.00004404 0.04334818
v 0.01579081 -0.00154900 0.04369437
v 0.01550604 -0.00307658 0.04383285
v 0.01603146 -0.00383673 0.04278437
v 0.01385759 -0.00776842 0.04165677
v 0.01232144 -0.00758474 0.04340753
v 0.01151526 -0.00797028 0.04346687
v 0.01033206 -0.00779751 0.04473295
v 0.00814214 -0.00780479 0.04597925
v 0.00766887 -0.00789208 0.04593968
v 0.00491743 -0.00789935 0.04692881
v 0.00253499 -0.00793936 0.04730467
v -0.00322056 -0.00789026 0.04707718
v -0.00121514 -0.00797937 0.04563306
v -0.02034684 -0.00218731 0.00021246
v -0.02031074 -0.00217276 -0.00891716
v -0.02028667 -0.00196545 -0.01934254
v -0.02023453 -0.00216912 -0.02492120
v -0.02025459 -0.00171449 -0.02869966
v -0.01955269 -0.00751564 -0.03244844
v -0.01934814 -0.00740653 0.02938174
v -0.02027464 -0.00293291 0.02748262
v -0.02037491 -0.00229097 0.02861022
v -0.02031475 -0.00248373 0.00354580
v -0.01907139 -0.00779206 -0.03434756
v -0.01819703 -0.00795573 -0.03722591
v -0.01752722 -0.00792663 -0.03909536
v -0.01503248 -0.00818850 -0.04402120
v -0.01274229 -0.00835944 -0.04473337
v -0.00981438 -0.00847037 -0.04535651
v -0.00695465 -0.00847219 -0.04759193
v -0.00896007 -0.00837581 -0.04715672
v -0.00667790 -0.00828852 -0.04856128
v -0.01003497 -0.00789753 0.04489121
v -0.01170348 -0.00785389 0.04389220
v -0.01451107 -0.00791572 0.04027200
v -0.01545361 -0.00773386 0.03990602
v -0.01690955 -0.00780297 0.03709691
v -0.01774380 -0.00787571 0.03469334
v -0.01709405 -0.00796846 0.03429769
v -0.01817296 -0.00789026 0.03195346
v -0.01890695 -0.00763384 0.03142922
v -0.00659367 -0.00795936 -0.04904595
v -0.00267910 -0.00779024 -0.04935258
v -0.00069774 -0.00764294 -0.04947127
v 0.00085846 -0.00658273 -0.04944160
v 0.00171277 -0.00133441 -0.04963942
v 0.00379841 -0.00155809 -0.04942182
v 0.00556719 -0.00167084 -0.04905584
v 0.00675439 -0.00199091 -0.04867008
v 0.00634529 -0.00091979 -0.04881845
v 0.00770897 0.00025136 -0.04826454
v 0.00702713 0.00579791 -0.04842280
v 0.00594822 0.00655079 -0.04873932
v 0.00661803 0.00703634 -0.04823487
v 0.00731190 0.00820930 -0.04339805
v 0.00529846 0.00874213 -0.04152860
v 0.00595223 0.00728730 -0.04806671
v 0.00577174 0.00761282 -0.04690944
v 0.00630518 0.00796198 -0.04513891
v -0.00790522 0.00876395 0.03064782
v -0.01083313 0.00933679 -0.02780944
v -0.00395454 0.00981143 -0.03165714
v -0.00549470 0.00971141 -0.03203300
v -0.00567920 0.00966959 -0.03286387
v -0.00813384 0.00869848 0.03271509
v -0.00707096 0.00870576 0.03491095
v -0.00766858 0.00845480 0.03716615
v -0.00504950 0.00861301 0.03785853
v -0.00383422 0.00962230 -0.03549494
v -0.00455617 0.00969141 -0.03387278
v -0.00169644 0.00958230 -0.03685993
v -0.00503346 0.00826749 0.04055884
v -0.00227400 0.00847299 0.04010385
v 0.00008036 0.00799471 0.04315035
v -0.00162826 0.00796925 0.04325916
v 0.00269543 0.00788378 0.04342731
v 0.00679851 0.00763100 0.04314046
v 0.00395082 0.00746188 0.04517806
v 0.00833466 0.00711817 0.04483186
v 0.01041629 0.00633256 0.04695848
v 0.00350161 0.00886761 -0.04154838
v 0.00153629 0.00912948 -0.04046034
v -0.00074988 0.00932406 -0.03933275
v 0.00908068 0.00614889 0.04840260
v 0.01159548 0.00591612 0.04726511
v 0.01173585 0.00540147 0.04750250
v 0.01282279 0.00377569 0.04674087
v 0.01429878 -0.00000870 0.04544512
v 0.01383753 0.00162799 0.04587045
v 0.01455949 -0.00167630 0.04511871
v 0.01347255 -0.00286381 0.04608805
v 0.01449932 -0.00351666 0.04476263
v 0.01336426 -0.00376762 0.04581110
v 0.01213694 -0.00399130 0.04662218
v 0.00867960 -0.00744472 0.04602871
v 0.00716751 -0.00749927 0.04682000
v 0.00521423 -0.00760293 0.04743326
v 0.00293207 -0.00777933 0.04774978
v -0.00022847 -0.00787026 0.04754207
v -0.00040495 -0.00774114 0.04792782
v -0.00366175 -0.00776842 0.04756185
v -0.02030272 -0.00086705 -0.02679064
v -0.02035887 -0.00212730 0.00512840
v -0.02025459 0.00084602 -0.02883813
v -0.02020245 -0.00041787 -0.03082627
v -0.02014228 -0.00179814 -0.03092518
v -0.01968104 -0.00195454 -0.03402115
v -0.01927594 -0.00706828 -0.03428821
v -0.01867432 -0.00752291 -0.03658298
v -0.01893502 -0.00712465 0.03330856
v -0.01927995 -0.00693371 0.03160727
v -0.01945242 -0.00677913 0.02983673
v -0.02027865 -0.00265286 0.03048956
v -0.02031475 -0.00144353 0.03208205
v -0.02037892 -0.00152354 0.02811566
v -0.01826521 -0.00763930 -0.03794797
v -0.01673708 -0.00774478 -0.04123186
v -0.01477979 -0.00809212 -0.04484217
v -0.01062055 -0.00803029 -0.04703803
v -0.01068874 -0.00766840 0.04508904
v -0.00585568 -0.00771932 0.04709696
v -0.01221286 -0.00750837 0.04415926
v -0.01359660 -0.00773205 0.04244807
v -0.01653654 -0.00753928 0.03854103
v -0.01348028 -0.00737925 0.04313057
v -0.01427844 -0.00725013 0.04223046
v -0.01840158 -0.00759747 0.03426801
v -0.01159118 -0.00744290 -0.04680064
v -0.00763248 0.00458676 -0.04795791
v -0.00667790 0.00610343 -0.04827443
v -0.00480885 0.00659807 -0.04883823
v -0.00417514 0.00613798 -0.04904595
v -0.00530619 -0.00751018 -0.04930312
v -0.00428343 -0.00767022 -0.04930312
v -0.01413405 -0.00773932 -0.04543564
v -0.00110284 -0.00148899 -0.04978779
v 0.00055364 -0.00042332 -0.04971856
v 0.00293207 -0.00020510 -0.04954051
v 0.00397890 -0.00051425 -0.04939214
v 0.00508188 0.00631438 -0.04897671
v 0.00401900 0.00672355 -0.04913497
v 0.00450030 0.00707635 -0.04878877
v 0.00496556 0.00845662 -0.04329913
v 0.00320881 0.00736731 -0.04862062
v 0.00427570 0.00752189 -0.04779965
v 0.00392274 0.00823112 -0.04477293
v -0.00919270 0.00858755 0.03218096
v -0.01126630 0.00888216 -0.03545538
v -0.01230511 0.00870212 -0.03542570
v -0.01402576 0.00840206 -0.03481245
v -0.01520494 0.00834023 -0.03050975
v -0.01441882 0.00856573 -0.02869966
v -0.01222489 0.00904401 -0.02747314
v -0.01447096 0.00773466 0.02993565
v -0.01349633 0.00788742 0.03223042
v -0.01290673 0.00803654 0.02986641
v -0.01156711 0.00824567 0.03143912
v -0.00578749 0.00952774 -0.03523777
v -0.00902825 0.00852754 0.03411965
v -0.00997080 0.00826749 0.03610779
v -0.01035584 0.00798016 0.03843223
v -0.00916061 0.00795106 0.03988624
v -0.00689850 0.00820384 0.03993570
v -0.00282349 0.00933679 -0.03884807
v -0.00579953 0.00924405 -0.03817547
v -0.00405481 0.00802926 0.04242829
v -0.00292376 0.00826931 0.04132047
v -0.00594793 0.00768192 0.04359546
v 0.00066995 0.00755826 0.04528686
v -0.00389839 0.00767465 0.04435708
v -0.00193308 0.00760190 0.04504947
v 0.00260719 0.00734185 0.04602871
v 0.00593217 0.00716909 0.04581110
v 0.00404708 0.00671991 0.04820478
v 0.00770496 0.00674719 0.04681011
v 0.00248285 0.00841479 -0.04425859
v 0.00135982 0.00881669 -0.04235947
v -0.00081807 0.00907311 -0.04101425
v 0.00636935 0.00637075 0.04882793
v 0.00619288 0.00593794 0.04994564
v 0.00792957 0.00585065 0.04939173
v 0.00958204 0.00580700 0.04862021
v 0.01032003 0.00546512 0.04840260
v 0.00990691 0.00461768 0.04871912
v 0.01114225 0.00291916 0.04797728
v 0.01285488 -0.00184179 0.04670131
v 0.01233748 0.00075327 0.04712663
v 0.01204469 -0.00244009 0.04728489
v 0.01229336 -0.00324934 0.04691891
v 0.01102193 -0.00340755 0.04770033
v 0.00709933 -0.00348211 0.04970825
v 0.00589206 -0.00376762 0.05003466
v 0.00504177 -0.00733560 0.04768054
v 0.00332112 -0.00747199 0.04803663
v 0.00171678 -0.00758838 0.04814543
v -0.00028463 -0.00739743 0.04840260
v -0.00269514 -0.00756292 0.04807619
v -0.00555888 -0.00749927 0.04755196
v -0.02035085 -0.00165266 0.00045974
v -0.02027865 0.00068781 -0.02743357
v -0.02011020 0.00643258 -0.02952063
v -0.02011822 0.00495774 -0.03031193
v -0.02017437 0.00180257 -0.03061856
v -0.02002597 -0.00031421 -0.03233963
v -0.01925589 -0.00175813 -0.03559385
v -0.01867031 -0.00687915 -0.03674124
v -0.01976927 0.00010587 -0.03372441
v -0.01831334 -0.00709010 0.03514833
v -0.01956071 -0.00253283 0.03573192
v -0.02007811 -0.00259830 0.03360530
v -0.02020245 -0.00174722 0.03327889
v -0.02009014 0.00118972 0.03342726
v -0.02013426 0.00356110 0.03222052
v -0.02009816 0.00570335 0.03183477
v -0.02017838 0.00499230 0.03036097
v -0.02017437 0.00550331 0.02859044
v -0.02015833 0.00588156 -0.00094482
v -0.02014629 0.00590520 -0.02761162
v -0.01748711 -0.00730651 -0.03981742
v -0.01536136 -0.00753019 -0.04459489
v -0.01884678 -0.00167084 -0.03672146
v -0.01490814 -0.00746654 -0.04514880
v -0.00835443 -0.00752291 0.04640457
v -0.01046012 -0.00720285 0.04561327
v -0.01239335 -0.00288199 0.04658261
v -0.01423833 -0.00282198 0.04501980
v -0.01537741 -0.00318023 0.04360535
v -0.01672906 -0.00305294 0.04156775
v -0.01698977 -0.00316932 0.04105341
v -0.01796841 -0.00296019 0.03929276
v -0.00934511 0.00644895 -0.04704792
v -0.00806966 0.00686539 -0.04760183
v -0.00616451 0.00687085 -0.04831400
v -0.00377405 0.00691813 -0.04896682
v -0.00270717 0.00659261 -0.04928334
v -0.00280744 0.00557787 -0.04931301
v -0.00322858 -0.00024329 -0.04944160
v -0.00152397 0.00619799 -0.04944160
v 0.00036914 0.00588884 -0.04952073
v 0.00142399 0.00207899 -0.04959986
v 0.00350161 0.00622527 -0.04928334
v 0.00251895 0.00712545 -0.04908551
v 0.00162854 0.00667990 -0.04941192
v 0.00117532 0.00748734 -0.04848215
v 0.00293207 0.00771647 -0.04728531
v 0.00119938 0.00728912 -0.04897671
v -0.01162727 0.00816020 0.03385258
v -0.00948148 0.00903310 -0.03640494
v -0.01084115 0.00862756 -0.03838319
v -0.01199226 0.00846571 -0.03809634
v -0.01287464 0.00845116 -0.03682037
v -0.01486803 0.00808745 -0.03648407
v -0.01338001 0.00850390 -0.03520809
v -0.01640819 0.00788378 -0.03457506
v -0.01745502 0.00775648 -0.03200333
v -0.01923984 0.00732549 -0.03087573
v -0.01861014 0.00750188 -0.02914476
v -0.01827323 0.00682357 0.03075662
v -0.01684136 0.00724183 0.02628578
v -0.01632798 0.00729457 0.03161716
v -0.01530922 0.00754189 0.03081597
v -0.01451107 0.00763100 0.03373389
v -0.00816191 0.00909311 -0.03744351
v -0.01187595 0.00791287 0.03676061
v -0.01256982 0.00753462 0.03908505
v -0.01194413 0.00747824 0.04029178
v -0.01127031 0.00727638 0.04224036
v -0.00806565 0.00772738 0.04217112
v -0.00386630 0.00901673 -0.04076698
v -0.00610435 0.00885124 -0.04084611
v -0.00842262 0.00866575 -0.04053948
v -0.00787714 0.00730366 0.04457469
v -0.00490110 0.00732912 0.04566273
v -0.00140766 0.00718910 0.04689913
v 0.00081033 0.00727093 0.04652327
v -0.00271519 0.00710180 0.04711674
v 0.00178497 0.00667445 0.04876858
v 0.00265933 0.00622345 0.05027205
v -0.00009211 0.00856209 -0.04380359
v 0.00212990 0.00788378 -0.04670173
v 0.00029695 0.00803835 -0.04620716
v -0.00317644 0.00866575 -0.04300240
v 0.00417142 0.00608160 0.05028194
v 0.00458052 0.00551604 0.05065781
v 0.00627710 0.00539056 0.05025227
v 0.00898843 0.00539783 0.04916423
v 0.00935743 0.00337743 0.04900597
v 0.00936545 -0.00051607 0.04901586
v 0.01048046 0.00269366 0.04838282
v 0.01091764 -0.00046151 0.04811576
v 0.01004328 -0.00178905 0.04861032
v 0.01036014 -0.00260012 0.04833337
v 0.00862345 -0.00266559 0.04924336
v 0.00684664 -0.00298565 0.04998520
v 0.00427971 -0.00330753 0.05063803
v 0.00269543 -0.00343847 0.05077650
v -0.00185687 -0.00715193 0.04845206
v 0.00200155 -0.00287290 0.05107324
v -0.00367779 -0.00731014 0.04815532
v -0.00677416 -0.00712283 0.04741348
v -0.00617655 -0.00237280 0.05012368
v -0.01993372 0.00686358 -0.03010421
v -0.01992971 0.00651623 -0.03168681
v -0.02010217 0.00645077 -0.02377382
v -0.02002196 0.00679447 -0.02764129
v -0.01991768 0.00455585 -0.03226050
v -0.01913556 -0.00032876 -0.03597961
v -0.01967302 0.00450856 -0.03354637
v -0.01953665 0.00188804 -0.03446625
v -0.01915161 -0.00226187 0.03709691
v -0.01867432 -0.00258012 0.03797723
v -0.01950456 -0.00165993 0.03641441
v -0.01993372 -0.00187634 0.03472301
v -0.01994976 -0.00049607 0.03457464
v -0.01986955 0.00479407 0.03423834
v -0.01992570 0.00611979 0.03179520
v -0.02010619 0.00585610 0.02914435
v -0.01975724 0.00601068 0.03405041
v -0.02011822 0.00590157 0.02197320
v -0.02017036 0.00557605 0.02518785
v -0.01833340 0.00109698 -0.03782928
v -0.01815692 0.00524871 -0.03791830
v -0.01763551 0.00509959 -0.03894699
v -0.01714619 0.00571062 -0.03976796
v -0.01633199 0.00656897 -0.04085600
v -0.01578250 0.00584701 -0.04170664
v -0.01499638 0.00672355 -0.04248805
v -0.01425838 0.00631438 -0.04341783
v -0.01209654 0.00653078 -0.04521804
v -0.01019541 0.00590157 -0.04660281
v -0.00880365 -0.00704464 0.04656283
v -0.00945340 -0.00270196 0.04853119
v -0.01119410 -0.00266013 0.04749261
v -0.01299096 -0.00198727 0.04634522
v -0.01118608 -0.00182360 0.04773000
v -0.01462337 -0.00205637 0.04480219
v -0.01567822 -0.00214912 0.04358557
v -0.01618359 0.00170801 0.04320970
v -0.01706998 0.00481772 0.04198319
v -0.00977427 0.00698724 -0.04658303
v -0.00828224 0.00718546 -0.04721607
v -0.00717926 0.00720364 -0.04773041
v -0.00428343 0.00716909 -0.04867008
v -0.00194511 0.00695268 -0.04923388
v -0.00016831 0.00693996 -0.04935258
v -0.00109481 0.00757281 -0.04820519
v -0.00069373 0.00736549 -0.04882834
v -0.01351638 0.00771647 0.03555388
v -0.00970207 0.00869303 -0.03919427
v -0.01216473 0.00811473 -0.04057904
v -0.01364473 0.00805654 -0.03906568
v -0.01761144 0.00749461 -0.03615766
v -0.01571833 0.00774557 -0.03807656
v -0.01878662 0.00737640 -0.03345735
v -0.01945242 0.00716000 -0.03236931
v -0.01959280 0.00717273 -0.03068780
v -0.01966900 0.00712545 -0.02810618
v -0.01929199 0.00722547 -0.02365512
v -0.01927594 0.00659261 0.02786838
v -0.01948049 0.00646531 0.03148857
v -0.01879865 0.00660352 0.03348660
v -0.01653654 0.00715272 0.03418888
v -0.01382922 0.00737095 0.03845201
v -0.01372895 0.00699451 0.04120178
v -0.01450706 0.00651442 0.04308111
v -0.01217275 0.00660898 0.04486154
v -0.00988256 0.00713090 0.04416915
v -0.00569123 0.00854209 -0.04286392
v -0.00751617 0.00850208 -0.04217153
v -0.01063660 0.00816929 -0.04178577
v -0.00956169 0.00656897 0.04687935
v -0.00730760 0.00681811 0.04696837
v -0.00615248 0.00643986 0.04889717
v -0.00443584 0.00685994 0.04773000
v -0.00235823 0.00638712 0.04988629
v -0.00013622 0.00671082 0.04874880
v 0.00073814 0.00622345 0.05044020
v 0.00156838 0.00599249 0.05078639
v -0.00205340 0.00835660 -0.04470369
v -0.00489308 0.00828204 -0.04445641
v 0.00266735 0.00569971 0.05092487
v 0.00332513 0.00481772 0.05096444
v 0.00483721 0.00451584 0.05066770
v 0.00617282 0.00176984 0.05031161
v 0.00681456 0.00461768 0.05010390
v 0.00818626 0.00463950 0.04955988
v 0.00823840 0.00169892 0.04954010
v 0.00796166 -0.00178723 0.04963901
v 0.00607255 -0.00201091 0.05033140
v 0.00458453 -0.00273469 0.05068748
v -0.00084213 -0.00259466 0.05098422
v 0.00219407 -0.00212912 0.05111280
v 0.00036112 -0.00123985 0.05125128
v -0.00009211 -0.00209456 0.05118204
v -0.00400668 -0.00247282 0.05062813
v -0.00822608 -0.00259103 0.04922358
v -0.00383823 -0.00195999 0.05081607
v -0.00499736 -0.00142170 0.05056879
v -0.00674609 -0.00080885 0.05001488
v -0.00827020 -0.00176359 0.04936205
v -0.01975323 0.00696360 -0.03172638
v -0.01968505 0.00647623 -0.03316061
v -0.02006207 0.00655260 -0.01912493
v -0.02012624 0.00592703 0.01522737
v -0.01994174 0.00679447 -0.02118231
v -0.01975323 0.00700542 -0.02395186
v -0.02008613 0.00611797 0.01237869
v -0.02000993 0.00614161 0.02492079
v -0.01994174 0.00625618 0.02346677
v -0.01934011 0.00612161 -0.03472342
v -0.01909144 0.00462131 -0.03564331
v -0.01873047 0.00288460 -0.03676102
v -0.01942434 0.00050050 0.03689909
v -0.01931605 0.00229903 0.03720571
v -0.01953264 0.00470860 0.03583083
v -0.01944440 0.00579791 0.03587040
v -0.01985751 0.00625618 0.02960924
v -0.01961285 0.00634347 0.03276455
v -0.01923984 0.00611070 0.03605833
v -0.01909144 0.00637257 0.03523735
v -0.01872646 0.00660534 -0.03642472
v -0.01793632 0.00670536 -0.03813590
v -0.01721838 0.00665444 -0.03947122
v -0.01678521 0.00703997 -0.03988665
v -0.01394955 0.00686176 -0.04346729
v -0.01547367 0.00715818 -0.04147915
v -0.01189199 0.00710544 -0.04502021
v -0.01011118 -0.00201819 0.04838282
v -0.01180776 -0.00106345 0.04729478
v -0.01236126 0.00308828 0.04680022
v -0.01344819 -0.00093797 0.04595947
v -0.00972614 -0.00104890 0.04866967
v -0.01044408 0.00000403 0.04820478
v -0.01080906 0.00482317 0.04790804
v -0.01161524 0.00503230 0.04735413
v -0.01617155 0.00242997 0.04321959
v -0.01620364 0.00299372 0.04316024
v -0.01443085 0.00537055 0.04488132
v -0.01613947 0.00554513 0.04286351
v -0.01739486 0.00533964 0.04128091
v -0.01846174 0.00503412 0.03928288
v -0.01161925 0.00734367 -0.04490152
v -0.00927291 0.00735640 -0.04640499
v -0.00587172 0.00742732 -0.04778976
v -0.00478077 0.00734367 -0.04831400
v -0.00257481 0.00732367 -0.04876899
v -0.00278739 0.00747642 -0.04840302
v -0.00356148 0.00767465 -0.04747324
v -0.01662879 0.00697996 0.03616713
v -0.01261795 0.00765646 -0.04284414
v -0.01399768 0.00760190 -0.04167697
v -0.01543757 0.00755280 -0.04002513
v -0.01881068 0.00720182 -0.03500038
v -0.01678922 0.00735276 -0.03903601
v -0.01819302 0.00718546 -0.03684015
v -0.01933209 0.00697451 -0.03397169
v -0.01973719 0.00642349 0.02496035
v -0.01952862 0.00649441 0.02795740
v -0.01808873 0.00650896 0.03730462
v -0.01609134 0.00688176 0.03840256
v -0.01551378 0.00665808 0.04098417
v -0.01629990 0.00634529 0.04156775
v -0.01546163 0.00629073 0.04287340
v -0.01394554 0.00627073 0.04459447
v -0.01135855 0.00625073 0.04679033
v -0.00691855 0.00808200 -0.04462456
v -0.00920874 0.00809837 -0.04324968
v -0.01057242 0.00764555 -0.04455533
v -0.00889990 0.00620890 0.04828391
v -0.00649741 0.00621072 0.04933238
v -0.00376603 0.00625982 0.05002477
v -0.00213763 0.00622709 0.05037096
v -0.00165232 0.00602523 0.05070726
v -0.00090631 0.00557605 0.05107324
v 0.00078627 0.00555786 0.05111280
v -0.00607226 0.00761827 -0.04707759
v 0.00162052 0.00492683 0.05115237
v 0.00254703 0.00127519 0.05109302
v 0.00389066 -0.00114165 0.05090509
v 0.00516610 0.00106788 0.05059846
v 0.00720762 0.00016043 0.04995553
v 0.00115527 0.00173529 0.05122161
v -0.00009211 0.00117336 0.05126117
v -0.00208950 -0.00143625 0.05112270
v -0.00309622 -0.00087614 0.05099411
v -0.00360961 0.00278095 0.05084574
v -0.00471660 0.00504503 0.05054900
v -0.00523400 0.00130247 0.05045998
v -0.00661373 0.00505049 0.04997531
v -0.00764050 0.00445401 0.04957966
v -0.00798543 0.00135703 0.04946097
v -0.01890293 0.00437035 0.03834321
v -0.01884678 0.00588156 0.03766071
v -0.01842564 0.00627982 0.03774973
v -0.01377307 0.00730184 -0.04314087
v -0.01522901 0.00738732 -0.04119230
v -0.01297893 0.00533782 0.04626610
v -0.01359258 0.00313375 0.04573197
v -0.00924083 0.00482863 0.04880815
v -0.01024755 0.00552695 0.04818499
v -0.01184787 0.00577791 0.04699805
v -0.01511670 0.00597067 0.04384274
v -0.01343616 0.00589975 0.04559349
v -0.01657665 0.00593248 0.04203264
v -0.01810879 0.00569243 0.03956972
v -0.01192809 0.00749643 -0.04414978
v -0.00804159 0.00759281 -0.04627640
v -0.01715421 0.00642713 0.03975765
v -0.01742695 0.00621436 0.04013352
v -0.01029969 0.00587611 0.04795750
v -0.00818999 0.00588156 0.04908510
v -0.00638511 0.00589793 0.04980716
v -0.00458825 0.00591066 0.05031161
v -0.00253069 0.00562151 0.05089520
v -0.00224994 0.00481408 0.05104357
v -0.00023248 0.00467951 0.05121172
v -0.00171649 0.00137885 0.05114248
v -0.00516983 0.00549603 0.05036107
v -0.00846673 0.00540692 0.04913456
f 216 215 170
f 216 168 215
f 269 215 214
f 215 168 214
f 1 6 7
f 22 9 7
f 19 39 20
f 20 7 6
f 38 39 19
f 370 369 292
f 292 368 370
f 815 826 816
f 426 518 427
f 427 339 426
f 213 214 168
f 269 335 276
f 337 348 276
f 276 215 269
f 276 277 215
f 276 351 277
f 69 99 100
f 135 147 99
f 467 468 382
f 380 304 379
f 387 379 309
f 467 379 387
f 475 467 387
f 87 119 88
f 170 119 172
f 172 216 170
f 172 119 168
f 168 216 172
f 90 123 124
f 3 4 1
f 1 9 10
f 112 111 115
f 13 30 14
f 14 3 13
f 13 3 12
f 29 13 12
f 30 13 29
f 111 112 80
f 80 79 111
f 674 569 583
f 369 296 295
f 227 295 296
f 8 9 1
f 1 7 8
f 8 7 9
f 5 4 19
f 19 20 5
f 5 20 6
f 5 6 1
f 1 4 5
f 23 20 39
f 7 20 23
f 39 46 23
f 713 807 815
f 368 292 291
f 881 785 853
f 871 785 881
f 773 785 871
f 853 785 784
f 345 346 274
f 215 273 274
f 274 273 345
f 272 273 215
f 342 272 271
f 271 272 215
f 270 271 215
f 339 271 270
f 426 339 425
f 425 518 426
f 423 339 422
f 424 339 423
f 714 713 815
f 612 713 714
f 711 608 708
f 708 807 711
f 711 713 612
f 807 713 711
f 607 606 708
f 708 608 607
f 508 427 520
f 169 213 168
f 267 335 269
f 337 276 338
f 146 100 99
f 418 348 337
f 351 276 350
f 519 427 518
f 520 427 519
f 519 618 619
f 238 237 304
f 239 187 238
f 187 237 238
f 470 383 465
f 915 874 870
f 98 99 69
f 147 135 154
f 474 563 475
f 475 387 474
f 469 467 475
f 469 468 467
f 475 563 469
f 469 382 468
f 466 382 469
f 469 553 466
f 469 563 553
f 381 304 380
f 381 382 304
f 380 379 381
f 467 382 381
f 381 379 467
f 304 382 378
f 378 465 383
f 378 382 466
f 466 465 378
f 466 562 552
f 552 465 466
f 470 465 552
f 466 560 561
f 561 562 466
f 560 562 561
f 466 557 558
f 559 560 466
f 466 558 559
f 520 621 622
f 722 621 619
f 509 605 606
f 606 607 509
f 509 607 608
f 757 858 759
f 861 826 815
f 815 807 861
f 759 858 760
f 858 861 760
f 117 169 168
f 168 119 117
f 119 87 117
f 88 119 120
f 123 90 122
f 123 122 174
f 170 218 219
f 219 218 284
f 63 90 64
f 289 223 288
f 123 174 176
f 124 128 126
f 126 92 124
f 125 90 124
f 124 92 125
f 125 92 90
f 64 90 91
f 91 92 64
f 90 92 91
f 36 63 64
f 2 3 1
f 12 3 2
f 15 3 14
f 16 3 15
f 4 3 17
f 17 3 16
f 14 30 31
f 31 15 14
f 81 112 82
f 209 164 161
f 161 164 115
f 161 160 159
f 28 29 12
f 53 29 28
f 30 29 55
f 81 82 55
f 55 80 81
f 111 79 110
f 110 161 111
f 162 161 110
f 113 112 81
f 81 80 113
f 113 80 112
f 54 29 53
f 53 80 54
f 54 55 29
f 80 55 54
f 309 379 305
f 305 379 304
f 304 237 305
f 99 147 148
f 148 149 99
f 241 189 202
f 240 189 241
f 240 305 237
f 187 189 240
f 240 241 309
f 309 305 240
f 488 583 569
f 684 583 582
f 322 321 398
f 321 320 377
f 377 320 303
f 461 460 548
f 461 372 460
f 460 372 371
f 185 134 183
f 183 134 132
f 293 292 369
f 369 295 293
f 297 296 369
f 294 227 226
f 295 227 294
f 226 293 294
f 294 293 295
f 180 128 179
f 43 74 69
f 46 74 43
f 43 23 46
f 180 181 130
f 95 94 130
f 296 297 230
f 230 297 233
f 541 450 449
f 356 355 449
f 449 355 448
f 449 357 356
f 449 450 357
f 734 627 733
f 541 642 641
f 641 643 541
f 646 543 645
f 644 643 750
f 541 643 644
f 453 455 454
f 454 455 365
f 454 359 453
f 368 291 367
f 458 455 453
f 453 359 358
f 222 176 221
f 544 543 646
f 357 450 451
f 451 450 541
f 684 582 581
f 548 460 464
f 750 851 752
f 687 784 785
f 687 773 674
f 785 773 687
f 674 583 687
f 687 583 684
f 684 784 687
f 855 900 856
f 856 755 855
f 828 827 829
f 756 856 857
f 755 856 756
f 215 274 275
f 275 274 346
f 352 351 444
f 277 351 352
f 444 351 443
f 443 352 444
f 445 352 443
f 277 352 353
f 353 352 445
f 445 443 353
f 516 425 515
f 511 424 423
f 341 271 339
f 339 424 341
f 342 271 341
f 339 427 428
f 507 509 423
f 605 509 507
f 515 613 614
f 213 169 167
f 166 211 167
f 268 267 269
f 213 267 268
f 269 214 268
f 214 213 268
f 115 164 165
f 164 211 165
f 165 211 166
f 210 164 209
f 210 211 164
f 213 167 212
f 212 167 211
f 335 267 266
f 266 267 213
f 213 212 266
f 206 255 256
f 137 189 187
f 137 138 99
f 157 106 156
f 156 204 157
f 402 490 491
f 337 336 416
f 505 416 503
f 504 416 505
f 440 441 351
f 528 441 440
f 527 631 530
f 530 631 632
f 530 528 527
f 530 441 528
f 632 631 742
f 615 516 515
f 515 614 615
f 615 614 718
f 619 621 620
f 620 519 619
f 620 621 520
f 520 519 620
f 616 615 718
f 616 519 518
f 518 615 616
f 630 631 527
f 739 631 630
f 629 630 527
f 738 630 629
f 803 706 802
f 804 706 803
f 69 100 70
f 100 71 70
f 100 146 102
f 102 71 100
f 102 146 103
f 103 71 102
f 136 135 99
f 99 98 136
f 136 98 135
f 133 134 185
f 69 74 101
f 101 98 69
f 135 98 101
f 101 154 135
f 476 474 388
f 569 474 476
f 476 488 569
f 388 474 386
f 386 474 387
f 386 387 309
f 669 753 768
f 865 866 768
f 471 383 470
f 652 552 562
f 652 562 560
f 652 753 669
f 759 760 661
f 661 760 761
f 661 660 759
f 763 662 661
f 661 662 557
f 557 660 661
f 661 762 763
f 761 762 661
f 606 605 623
f 623 622 606
f 623 605 520
f 520 622 623
f 621 722 724
f 758 757 657
f 758 756 857
f 657 756 758
f 657 555 658
f 761 760 806
f 806 760 861
f 806 807 708
f 806 861 807
f 356 357 281
f 281 355 356
f 171 120 119
f 173 120 171
f 171 119 170
f 170 219 171
f 171 219 173
f 89 122 90
f 89 63 88
f 90 63 89
f 220 174 173
f 220 219 221
f 173 219 220
f 221 176 220
f 220 176 174
f 121 120 173
f 173 174 121
f 88 120 121
f 121 174 122
f 121 89 88
f 122 89 121
f 178 224 223
f 226 227 178
f 178 128 124
f 178 179 128
f 227 179 178
f 223 224 177
f 177 222 223
f 176 222 177
f 224 178 177
f 123 176 177
f 127 126 128
f 128 94 127
f 67 94 95
f 86 117 87
f 16 15 32
f 15 31 32
f 30 57 32
f 32 31 30
f 88 63 61
f 19 4 18
f 4 17 18
f 114 112 115
f 115 82 114
f 114 82 112
f 83 57 56
f 56 82 83
f 56 57 30
f 116 82 115
f 115 165 116
f 166 167 116
f 116 165 166
f 115 111 163
f 163 161 115
f 111 161 163
f 53 28 52
f 52 28 27
f 10 27 11
f 27 28 11
f 1 10 11
f 11 28 12
f 11 2 1
f 12 2 11
f 30 55 58
f 58 55 82
f 58 56 30
f 109 110 79
f 147 154 186
f 154 133 186
f 185 235 186
f 186 133 185
f 149 198 199
f 199 198 249
f 199 151 149
f 200 151 199
f 201 200 199
f 236 237 187
f 187 240 236
f 236 240 237
f 583 488 487
f 487 582 583
f 399 322 398
f 398 487 399
f 399 487 488
f 388 322 399
f 399 476 388
f 488 476 399
f 398 321 397
f 321 377 397
f 397 377 372
f 372 461 397
f 376 464 460
f 463 464 376
f 376 462 463
f 302 297 369
f 233 297 302
f 299 371 372
f 298 371 299
f 184 183 132
f 184 230 233
f 180 179 228
f 228 179 227
f 40 43 69
f 69 70 40
f 40 70 71
f 68 74 46
f 95 96 68
f 68 46 39
f 39 67 68
f 68 67 95
f 97 96 132
f 74 68 97
f 97 68 96
f 132 134 97
f 134 133 97
f 131 96 95
f 95 130 131
f 131 130 181
f 132 96 131
f 129 94 128
f 129 130 94
f 129 128 180
f 180 130 129
f 230 184 182
f 182 184 132
f 132 131 182
f 182 131 181
f 627 734 735
f 832 745 734
f 815 816 712
f 712 714 815
f 612 714 712
f 345 273 344
f 434 346 345
f 860 827 826
f 826 861 860
f 860 861 858
f 860 829 827
f 858 757 860
f 625 731 627
f 627 523 625
f 648 644 750
f 750 647 648
f 646 645 648
f 645 644 648
f 750 643 640
f 643 641 640
f 639 640 536
f 365 455 456
f 646 648 546
f 546 648 647
f 455 458 457
f 457 456 455
f 368 367 457
f 457 458 368
f 457 367 365
f 365 456 457
f 357 358 282
f 282 358 359
f 282 281 357
f 218 281 282
f 871 881 912
f 881 849 912
f 911 900 855
f 855 873 911
f 545 544 646
f 646 546 545
f 545 546 458
f 545 458 453
f 453 544 545
f 543 544 452
f 452 451 543
f 357 451 452
f 452 358 357
f 453 358 452
f 452 544 453
f 542 645 543
f 543 451 542
f 542 451 541
f 541 644 542
f 542 644 645
f 549 649 650
f 684 581 686
f 686 784 684
f 850 851 748
f 852 752 851
f 852 851 850
f 850 849 852
f 852 881 853
f 852 849 881
f 651 647 750
f 750 752 651
f 549 647 651
f 651 649 549
f 651 752 649
f 857 856 901
f 901 856 900
f 733 627 732
f 627 731 732
f 755 756 654
f 674 773 675
f 774 773 871
f 774 675 773
f 676 675 774
f 855 755 775
f 775 873 855
f 676 774 775
f 217 218 170
f 170 215 217
f 215 275 217
f 340 353 425
f 339 270 340
f 340 425 339
f 515 425 446
f 425 353 446
f 446 353 443
f 510 511 423
f 423 509 510
f 510 509 608
f 511 510 609
f 609 711 612
f 608 711 609
f 609 510 608
f 421 507 423
f 423 422 421
f 421 339 420
f 421 422 339
f 604 508 520
f 604 507 508
f 520 605 604
f 605 507 604
f 715 614 613
f 635 613 529
f 263 212 211
f 264 212 263
f 265 212 264
f 265 266 212
f 265 264 334
f 334 336 265
f 335 266 265
f 265 336 337
f 337 338 265
f 265 276 335
f 265 338 276
f 157 204 205
f 205 206 157
f 255 206 205
f 159 160 107
f 107 76 106
f 107 161 162
f 160 161 107
f 158 106 157
f 157 206 158
f 158 107 106
f 159 107 158
f 192 140 191
f 138 190 191
f 191 140 138
f 239 190 188
f 188 190 138
f 188 187 239
f 188 137 187
f 138 137 188
f 484 485 395
f 395 394 484
f 99 138 139
f 139 140 99
f 138 140 139
f 153 137 99
f 189 137 153
f 153 202 189
f 153 200 201
f 201 202 153
f 105 156 106
f 106 76 105
f 99 140 141
f 400 485 489
f 489 490 400
f 489 585 586
f 491 490 588
f 589 491 588
f 588 691 589
f 324 400 401
f 490 402 401
f 401 400 490
f 410 409 498
f 334 409 410
f 261 210 209
f 417 416 504
f 417 418 337
f 337 416 417
f 349 440 351
f 351 350 349
f 348 418 349
f 349 276 348
f 349 350 276
f 349 417 438
f 418 417 349
f 528 440 439
f 527 528 439
f 439 349 438
f 440 349 439
f 741 631 739
f 741 742 631
f 425 516 517
f 516 615 517
f 518 425 517
f 517 615 518
f 719 616 718
f 720 616 719
f 617 616 720
f 619 618 617
f 617 720 619
f 618 519 617
f 519 616 617
f 744 715 635
f 580 485 484
f 489 485 580
f 688 689 585
f 906 908 902
f 902 840 906
f 915 870 906
f 870 908 906
f 776 870 874
f 874 778 776
f 891 920 892
f 892 803 891
f 892 920 919
f 499 595 500
f 499 410 498
f 703 700 795
f 503 599 600
f 601 505 600
f 600 505 503
f 888 889 798
f 798 887 888
f 737 736 801
f 737 629 736
f 738 629 737
f 802 706 800
f 800 796 802
f 801 706 805
f 805 706 804
f 739 630 740
f 740 630 738
f 916 874 915
f 839 837 904
f 840 740 839
f 835 840 902
f 804 803 893
f 893 894 804
f 893 803 892
f 892 894 893
f 73 47 45
f 24 10 9
f 24 27 10
f 48 47 75
f 75 76 48
f 75 47 73
f 73 71 75
f 75 71 103
f 103 105 75
f 75 105 76
f 104 133 154
f 104 101 74
f 154 101 104
f 74 97 104
f 104 97 133
f 309 241 310
f 310 386 309
f 310 322 388
f 388 386 310
f 667 767 753
f 667 652 560
f 753 652 667
f 753 767 854
f 865 768 854
f 854 768 753
f 875 778 874
f 874 916 875
f 875 916 917
f 875 917 918
f 470 552 564
f 552 652 564
f 564 471 470
f 764 662 763
f 662 764 663
f 765 766 663
f 663 764 765
f 557 662 663
f 663 664 557
f 556 660 557
f 556 557 466
f 466 555 556
f 865 854 864
f 864 766 825
f 767 766 864
f 864 854 767
f 869 908 870
f 770 868 869
f 907 908 869
f 869 868 907
f 725 622 621
f 621 724 725
f 656 756 657
f 862 822 765
f 721 722 619
f 286 222 221
f 226 178 225
f 225 178 223
f 223 289 225
f 289 290 225
f 225 290 291
f 225 291 292
f 225 293 226
f 292 293 225
f 366 290 365
f 291 290 366
f 365 367 366
f 366 367 291
f 365 290 364
f 364 289 288
f 364 290 289
f 175 178 124
f 175 177 178
f 124 123 175
f 123 177 175
f 92 126 93
f 126 127 93
f 93 127 94
f 64 92 93
f 93 65 64
f 94 67 66
f 65 93 66
f 66 93 94
f 66 67 39
f 39 38 66
f 38 65 66
f 85 86 62
f 117 86 85
f 83 82 85
f 82 116 85
f 60 87 88
f 60 86 87
f 88 61 60
f 62 86 60
f 83 85 59
f 59 85 62
f 59 57 83
f 59 32 57
f 33 61 34
f 34 17 33
f 33 59 62
f 32 59 33
f 62 60 33
f 33 60 61
f 33 17 16
f 16 32 33
f 37 38 19
f 19 18 37
f 64 65 37
f 37 65 38
f 37 36 64
f 37 18 36
f 35 17 34
f 35 18 17
f 34 61 35
f 35 61 63
f 63 36 35
f 36 18 35
f 169 117 118
f 118 167 169
f 118 116 167
f 117 85 118
f 118 85 116
f 53 52 50
f 50 52 27
f 27 51 50
f 49 79 50
f 50 80 53
f 79 80 50
f 82 56 84
f 84 58 82
f 56 58 84
f 78 79 49
f 78 109 79
f 49 48 78
f 234 198 235
f 234 235 185
f 303 249 234
f 249 198 234
f 147 186 197
f 197 186 235
f 235 198 197
f 197 198 149
f 197 148 147
f 149 148 197
f 99 149 150
f 150 151 99
f 149 151 150
f 250 199 249
f 250 249 303
f 303 320 250
f 582 487 486
f 486 461 548
f 486 487 398
f 548 581 486
f 486 581 582
f 398 397 486
f 486 397 461
f 462 376 375
f 376 302 375
f 375 369 370
f 375 302 369
f 301 371 298
f 298 233 301
f 233 302 301
f 460 371 374
f 374 376 460
f 374 302 376
f 371 301 374
f 374 301 302
f 373 299 372
f 373 377 303
f 372 377 373
f 298 299 231
f 185 183 231
f 231 234 185
f 183 184 232
f 298 231 232
f 232 231 183
f 232 233 298
f 232 184 233
f 229 227 296
f 229 228 227
f 296 230 229
f 230 182 229
f 229 182 181
f 229 181 180
f 180 228 229
f 72 71 73
f 72 40 71
f 627 735 636
f 533 627 636
f 636 745 637
f 636 735 734
f 734 745 636
f 817 816 826
f 817 712 816
f 726 712 817
f 512 609 612
f 512 513 424
f 424 511 512
f 511 609 512
f 345 344 433
f 433 344 432
f 433 434 345
f 432 523 433
f 827 728 727
f 826 827 727
f 727 625 726
f 728 625 727
f 727 817 826
f 726 817 727
f 729 625 728
f 729 827 828
f 729 728 827
f 626 712 726
f 726 625 626
f 342 341 429
f 429 341 424
f 750 640 749
f 749 640 639
f 749 851 750
f 639 748 749
f 749 748 851
f 537 641 642
f 537 640 641
f 537 536 640
f 370 368 459
f 368 458 459
f 459 375 370
f 462 375 459
f 360 282 359
f 360 454 365
f 359 454 360
f 218 282 283
f 284 218 283
f 283 360 361
f 282 360 283
f 848 912 849
f 873 912 848
f 847 832 900
f 900 911 847
f 745 832 847
f 847 848 745
f 847 911 873
f 873 848 847
f 549 650 550
f 550 462 549
f 463 462 550
f 581 650 685
f 685 686 581
f 685 650 649
f 649 686 685
f 639 536 638
f 638 748 639
f 638 535 637
f 536 535 638
f 649 752 751
f 752 852 751
f 751 686 649
f 784 686 751
f 853 784 751
f 751 852 853
f 831 901 900
f 831 732 829
f 829 860 859
f 859 831 829
f 901 831 859
f 857 901 859
f 859 860 757
f 859 758 857
f 757 758 859
f 900 832 830
f 830 831 900
f 732 831 830
f 830 832 734
f 830 734 733
f 733 732 830
f 828 829 730
f 829 732 730
f 730 732 731
f 730 729 828
f 731 625 730
f 625 729 730
f 676 775 754
f 754 668 676
f 755 654 754
f 754 775 755
f 873 775 872
f 872 775 774
f 872 774 871
f 871 912 872
f 872 912 873
f 280 281 218
f 218 217 280
f 355 281 280
f 277 353 278
f 353 340 278
f 215 277 278
f 278 270 215
f 278 340 270
f 515 446 532
f 532 446 443
f 532 613 515
f 532 529 613
f 508 507 419
f 507 421 419
f 419 421 420
f 420 339 419
f 339 428 419
f 427 508 419
f 419 428 427
f 716 613 635
f 635 715 716
f 716 715 613
f 818 719 718
f 818 744 846
f 715 744 818
f 635 529 634
f 441 530 531
f 531 529 441
f 531 530 632
f 632 529 531
f 441 529 442
f 442 443 351
f 351 441 442
f 442 532 443
f 529 532 442
f 211 210 262
f 262 263 211
f 210 261 262
f 503 416 415
f 415 416 336
f 501 413 500
f 500 595 501
f 794 884 795
f 596 501 595
f 883 884 787
f 790 791 690
f 690 791 691
f 691 586 690
f 585 689 690
f 690 586 585
f 108 107 162
f 162 110 108
f 110 109 108
f 396 395 485
f 485 400 396
f 324 323 396
f 396 400 324
f 253 205 204
f 318 396 323
f 394 395 318
f 395 396 318
f 152 153 99
f 200 153 152
f 99 151 152
f 152 151 200
f 204 156 203
f 145 146 99
f 587 588 490
f 587 490 489
f 489 586 587
f 587 586 691
f 691 588 587
f 256 255 325
f 325 255 324
f 324 401 325
f 325 402 403
f 325 401 402
f 408 409 331
f 498 409 408
f 408 497 498
f 412 413 336
f 500 413 412
f 412 499 500
f 410 499 412
f 329 405 330
f 159 158 207
f 207 158 206
f 207 206 256
f 256 258 207
f 497 408 407
f 331 330 407
f 407 408 331
f 504 505 506
f 506 417 504
f 438 417 506
f 836 741 739
f 902 903 836
f 739 835 836
f 836 835 902
f 741 836 841
f 907 868 909
f 907 909 844
f 619 720 723
f 720 821 723
f 723 721 619
f 306 238 304
f 306 307 238
f 304 378 306
f 306 378 383
f 391 390 479
f 314 393 315
f 392 393 314
f 314 391 392
f 192 191 244
f 244 314 315
f 313 314 244
f 244 191 190
f 242 190 239
f 489 580 584
f 584 585 489
f 584 688 585
f 680 574 679
f 920 891 890
f 802 889 890
f 890 803 802
f 890 891 803
f 892 919 923
f 923 919 918
f 918 917 923
f 923 894 892
f 917 894 923
f 593 695 696
f 593 592 695
f 591 592 593
f 796 703 799
f 802 796 799
f 799 889 802
f 798 889 799
f 799 703 798
f 798 703 797
f 797 887 798
f 883 887 797
f 797 884 883
f 795 884 797
f 797 703 795
f 700 703 701
f 599 700 701
f 701 600 599
f 701 703 601
f 601 600 701
f 889 888 922
f 920 890 922
f 922 890 889
f 879 919 920
f 880 783 879
f 921 888 887
f 880 879 921
f 921 879 920
f 920 922 921
f 921 922 888
f 804 894 895
f 904 837 895
f 738 737 833
f 833 740 738
f 833 737 801
f 801 805 833
f 833 805 837
f 837 740 833
f 924 894 917
f 917 916 924
f 904 895 924
f 924 895 894
f 838 740 837
f 837 839 838
f 838 839 740
f 834 740 840
f 840 835 834
f 739 740 834
f 834 835 739
f 44 45 22
f 73 45 44
f 26 45 47
f 26 47 48
f 26 24 9
f 22 45 26
f 26 48 49
f 26 51 27
f 27 24 26
f 49 50 26
f 26 50 51
f 241 202 252
f 252 310 241
f 252 202 201
f 322 310 252
f 321 322 252
f 771 672 770
f 770 869 771
f 870 776 771
f 771 869 870
f 866 770 769
f 770 672 769
f 769 768 866
f 767 667 665
f 664 663 665
f 665 766 767
f 665 663 766
f 557 664 665
f 384 471 472
f 472 473 384
f 307 306 384
f 385 307 384
f 384 473 385
f 383 471 384
f 384 306 383
f 385 473 389
f 876 875 918
f 778 875 876
f 565 652 669
f 565 564 652
f 669 566 565
f 565 566 472
f 472 471 565
f 471 564 565
f 659 556 555
f 660 556 659
f 759 660 659
f 659 757 759
f 657 757 659
f 659 555 657
f 809 725 724
f 657 658 554
f 554 656 657
f 553 656 554
f 466 553 554
f 554 555 466
f 554 658 555
f 655 654 756
f 756 656 655
f 553 654 655
f 655 656 553
f 863 862 765
f 762 862 863
f 763 762 863
f 863 764 763
f 765 764 863
f 765 822 823
f 822 721 823
f 823 766 765
f 825 766 823
f 823 723 825
f 721 723 823
f 606 710 707
f 708 606 707
f 707 806 708
f 761 806 707
f 707 762 761
f 707 710 762
f 811 862 762
f 762 710 811
f 709 710 606
f 709 809 724
f 725 809 709
f 606 622 709
f 622 725 709
f 812 724 722
f 722 710 812
f 812 710 724
f 722 721 813
f 813 710 722
f 813 721 822
f 285 286 221
f 221 219 285
f 285 219 284
f 361 286 285
f 284 283 285
f 285 283 361
f 222 286 287
f 288 223 287
f 223 222 287
f 251 250 320
f 251 320 321
f 201 199 251
f 199 250 251
f 251 252 201
f 321 252 251
f 303 234 300
f 234 231 300
f 300 373 303
f 299 373 300
f 300 231 299
f 42 72 73
f 42 44 22
f 73 44 42
f 540 523 627
f 540 524 523
f 540 627 533
f 447 540 533
f 524 540 447
f 447 539 448
f 536 537 447
f 447 535 536
f 624 626 625
f 712 626 610
f 612 712 610
f 610 512 612
f 533 636 534
f 534 447 533
f 535 447 534
f 534 636 637
f 637 535 534
f 458 546 547
f 547 459 458
f 547 546 647
f 547 647 549
f 549 462 547
f 462 459 547
f 747 848 849
f 747 849 850
f 747 638 637
f 850 748 747
f 748 638 747
f 551 650 581
f 551 550 650
f 551 581 548
f 463 550 551
f 548 464 551
f 551 464 463
f 570 675 676
f 676 668 570
f 570 569 674
f 674 675 570
f 570 668 563
f 570 474 569
f 563 474 570
f 653 654 553
f 553 563 653
f 563 668 653
f 653 754 654
f 668 754 653
f 717 818 718
f 715 818 717
f 718 614 717
f 614 715 717
f 897 818 846
f 846 898 897
f 897 898 821
f 720 719 819
f 719 818 819
f 818 897 819
f 633 529 632
f 633 634 529
f 632 742 633
f 635 634 633
f 331 409 333
f 334 264 333
f 333 409 334
f 264 263 333
f 263 262 333
f 336 413 414
f 414 415 336
f 413 415 414
f 696 793 698
f 698 596 595
f 793 794 699
f 699 698 793
f 596 698 699
f 699 794 795
f 795 700 699
f 886 791 790
f 886 794 793
f 693 793 696
f 693 694 589
f 696 695 693
f 695 694 693
f 880 921 882
f 882 921 887
f 882 887 883
f 883 787 882
f 689 787 788
f 788 787 884
f 788 690 689
f 109 78 77
f 77 108 109
f 77 78 48
f 107 108 77
f 48 76 77
f 76 107 77
f 192 193 142
f 142 140 192
f 142 141 140
f 142 143 99
f 99 141 142
f 245 193 192
f 192 244 245
f 245 244 315
f 247 193 245
f 195 203 196
f 254 323 324
f 205 253 254
f 324 255 254
f 255 205 254
f 247 318 319
f 319 254 253
f 319 318 323
f 323 254 319
f 155 203 156
f 156 105 155
f 146 145 155
f 103 146 155
f 155 105 103
f 196 203 155
f 155 145 196
f 196 145 144
f 143 195 144
f 144 195 196
f 99 143 144
f 144 145 99
f 256 325 326
f 326 325 403
f 411 336 334
f 411 412 336
f 334 410 411
f 410 412 411
f 260 329 330
f 209 257 260
f 260 261 209
f 260 330 331
f 331 261 260
f 257 207 259
f 259 207 258
f 259 260 257
f 329 260 259
f 405 329 328
f 328 259 258
f 329 259 328
f 208 257 209
f 208 207 257
f 209 161 208
f 208 161 159
f 159 207 208
f 602 505 601
f 602 506 505
f 736 629 628
f 843 836 903
f 843 841 836
f 843 903 902
f 843 844 744
f 907 844 843
f 843 908 907
f 902 908 843
f 846 744 845
f 744 844 845
f 845 844 909
f 867 909 868
f 867 770 866
f 867 868 770
f 825 723 824
f 824 723 821
f 821 898 824
f 390 391 312
f 312 314 313
f 391 314 312
f 243 244 190
f 313 244 243
f 190 242 243
f 243 312 313
f 242 312 243
f 308 307 385
f 308 242 239
f 239 238 308
f 238 307 308
f 578 483 579
f 579 584 578
f 578 584 580
f 578 580 484
f 479 574 481
f 481 391 479
f 392 391 481
f 481 483 392
f 786 783 880
f 880 882 786
f 689 688 786
f 688 783 786
f 786 787 689
f 786 882 787
f 574 680 577
f 577 481 574
f 483 481 577
f 579 483 577
f 777 776 778
f 776 777 677
f 568 473 472
f 695 592 590
f 590 694 695
f 590 491 589
f 589 694 590
f 492 402 491
f 491 590 492
f 492 590 592
f 403 402 492
f 492 592 591
f 697 593 696
f 696 698 697
f 697 698 595
f 594 499 498
f 595 499 594
f 594 697 595
f 593 697 594
f 896 805 804
f 804 895 896
f 837 805 896
f 896 895 837
f 905 839 904
f 904 924 905
f 840 839 905
f 905 916 915
f 905 924 916
f 915 906 905
f 905 906 840
f 25 9 22
f 22 26 25
f 25 26 9
f 671 769 672
f 666 667 560
f 666 665 667
f 560 559 666
f 666 559 558
f 666 558 557
f 557 665 666
f 390 389 478
f 810 811 710
f 724 710 808
f 808 709 724
f 710 709 808
f 814 813 822
f 710 813 814
f 814 810 710
f 811 810 814
f 822 862 814
f 862 811 814
f 362 286 361
f 362 287 286
f 21 42 22
f 22 7 21
f 7 23 21
f 23 43 21
f 43 40 21
f 40 72 41
f 72 42 41
f 41 21 40
f 42 21 41
f 355 280 279
f 279 217 275
f 279 280 217
f 538 537 642
f 538 447 537
f 538 642 541
f 539 447 538
f 541 449 538
f 538 449 448
f 448 539 538
f 431 523 432
f 626 624 521
f 521 610 626
f 521 624 625
f 745 848 746
f 848 747 746
f 637 745 746
f 746 747 637
f 820 821 720
f 720 819 820
f 820 897 821
f 820 819 897
f 743 633 742
f 743 841 744
f 743 744 635
f 635 633 743
f 742 741 743
f 741 841 743
f 331 333 332
f 332 333 262
f 332 261 331
f 332 262 261
f 597 699 700
f 596 699 597
f 597 700 599
f 599 598 597
f 501 596 597
f 792 886 793
f 791 886 792
f 793 693 792
f 792 693 791
f 691 791 692
f 791 693 692
f 589 691 692
f 692 693 589
f 884 794 885
f 885 788 884
f 143 142 194
f 194 142 193
f 194 195 143
f 316 245 315
f 247 245 316
f 315 393 316
f 316 393 394
f 394 318 316
f 316 318 247
f 247 319 317
f 317 319 253
f 256 326 327
f 327 326 405
f 405 328 327
f 327 258 256
f 327 328 258
f 405 326 404
f 493 495 404
f 403 493 404
f 404 326 403
f 702 602 601
f 601 703 702
f 702 703 796
f 506 602 603
f 527 439 525
f 525 439 438
f 525 629 527
f 525 628 629
f 744 841 842
f 842 843 744
f 841 843 842
f 910 845 909
f 910 898 846
f 846 845 910
f 909 867 914
f 914 910 909
f 898 910 914
f 390 312 311
f 311 312 242
f 385 389 311
f 311 389 390
f 311 308 385
f 242 308 311
f 392 483 482
f 483 578 482
f 482 578 484
f 482 393 392
f 484 394 482
f 394 393 482
f 683 783 688
f 683 782 783
f 683 584 579
f 688 584 683
f 782 683 682
f 682 577 680
f 579 577 682
f 682 683 579
f 778 876 780
f 780 779 778
f 918 919 878
f 783 782 878
f 919 879 878
f 878 879 783
f 672 771 772
f 772 771 776
f 776 677 772
f 567 671 672
f 566 671 567
f 472 566 567
f 567 568 472
f 673 677 573
f 573 568 673
f 568 567 673
f 673 772 677
f 672 772 673
f 673 567 672
f 494 493 403
f 403 492 494
f 591 493 494
f 494 492 591
f 330 405 406
f 406 407 330
f 406 495 407
f 405 404 406
f 406 404 495
f 496 493 591
f 496 495 493
f 496 594 498
f 498 497 496
f 591 593 496
f 593 594 496
f 497 407 496
f 407 495 496
f 768 769 670
f 769 671 670
f 670 671 566
f 669 768 670
f 670 566 669
f 477 568 573
f 473 568 477
f 477 389 473
f 477 478 389
f 288 287 363
f 287 362 363
f 363 364 288
f 365 364 363
f 363 360 365
f 361 360 363
f 363 362 361
f 346 434 347
f 434 433 347
f 347 275 346
f 347 279 275
f 343 431 432
f 343 272 342
f 273 272 343
f 343 344 273
f 432 344 343
f 512 610 611
f 610 521 611
f 342 429 430
f 429 521 430
f 430 521 431
f 430 343 342
f 431 343 430
f 522 521 625
f 431 521 522
f 522 625 523
f 523 431 522
f 501 597 502
f 502 597 598
f 502 598 599
f 502 599 503
f 503 415 502
f 502 415 413
f 413 501 502
f 789 885 794
f 789 886 790
f 794 886 789
f 790 690 789
f 690 788 789
f 788 885 789
f 246 194 193
f 195 194 246
f 246 193 247
f 247 317 246
f 248 253 204
f 248 317 253
f 204 203 248
f 203 195 248
f 195 246 248
f 248 246 317
f 704 603 602
f 602 702 704
f 704 800 706
f 706 603 704
f 796 800 704
f 704 702 796
f 736 628 705
f 628 603 705
f 801 736 705
f 705 706 801
f 705 603 706
f 526 603 628
f 526 525 438
f 628 525 526
f 438 506 526
f 506 603 526
f 913 914 867
f 913 867 866
f 913 866 865
f 865 864 913
f 899 824 898
f 898 914 899
f 899 864 825
f 825 824 899
f 899 913 864
f 914 913 899
f 681 780 679
f 779 780 681
f 679 780 781
f 781 680 679
f 781 682 680
f 782 682 781
f 781 780 782
f 782 780 877
f 877 878 782
f 877 780 876
f 877 876 918
f 918 878 877
f 778 779 678
f 678 777 778
f 779 681 678
f 678 681 575
f 678 575 573
f 573 677 678
f 678 677 777
f 479 390 480
f 390 478 480
f 480 574 479
f 573 575 571
f 571 477 573
f 575 480 571
f 524 447 437
f 523 524 437
f 513 512 514
f 512 611 514
f 514 611 521
f 514 521 429
f 424 513 514
f 514 429 424
f 576 681 679
f 575 681 576
f 576 480 575
f 679 574 576
f 574 480 576
f 478 477 572
f 477 571 572
f 572 480 478
f 572 571 480
f 347 437 354
f 355 279 354
f 279 347 354
f 354 437 447
f 448 355 354
f 354 447 448
f 436 433 523
f 523 437 436
f 436 437 347
f 435 347 433
f 433 436 435
f 435 436 347

