# https://github.com/mikedh/trimesh
v -0.00016229 -0.00821244 0.03534051
v -0.00089653 0.00688764 -0.07521725
v -0.00640177 0.00552426 -0.02333256
v 0.00030882 0.00005145 0.06857826
v 0.00062395 -0.00781371 0.00427167
v -0.00177573 -0.00685709 -0.04945800
v -0.00631196 0.00571880 0.01763718
v -0.00130935 0.00811276 -0.04059929
v 0.00757403 0.00417696 -0.05907723
v 0.00245010 0.00812883 0.03170689
v 0.00304568 -0.00711112 -0.02840273
v -0.00785134 0.00146306 -0.00574191
v -0.00216333 -0.00646802 -0.06649939
v -0.00609610 0.00579437 -0.05875330
v -0.00804830 0.00178783 0.03855161
v 0.00764494 -0.00061095 -0.04069788
v -0.00694851 -0.00187143 -0.03585305
v -0.00679725 -0.00293095 0.02638322
v 0.00748265 -0.00068812 -0.07073861
v 0.00772687 -0.00025081 0.03877695
v -0.00384295 0.00142287 0.05959280
v -0.00589284 0.00603875 -0.04890873
v -0.00732508 0.00145824 -0.06779510
v -0.00153308 -0.00400975 -0.07530176
v 0.00630565 -0.00413837 0.03048160
v -0.00595429 -0.00283126 -0.05716183
v -0.00190178 -0.00692623 -0.04082464
v -0.00637813 0.00558696 -0.01272747
v -0.00787813 0.00108202 0.00245486
v -0.00253676 0.00774619 0.03848120
v -0.00136134 0.00814009 -0.06744300
v 0.00352152 -0.00132158 0.05974772
v -0.00782141 0.00311745 0.03134071
v -0.00616700 -0.00411908 0.03473490
v 0.00504043 0.00712077 -0.07068227
v 0.00505146 0.00668828 0.03824177
v 0.00533349 -0.00460784 -0.04606380
v -0.00613234 0.00127495 -0.07455532
v 0.00719431 -0.00261261 -0.02576906
v 0.00332142 -0.00609180 -0.07007667
v -0.00603150 0.00591495 -0.03662767
v 0.00751258 0.00428789 0.03141113
v 0.00743065 0.00458211 -0.06547127
v 0.00513339 -0.00573166 0.03772067
v -0.00795534 0.00141644 0.01362330
v -0.00620639 -0.00218977 -0.06333053
v 0.00648212 0.00355958 -0.07506233
v -0.00756143 0.00272354 -0.04447234
v -0.00502940 -0.00373965 -0.07051327
v -0.00046481 0.00819957 -0.04616239
v 0.00116124 0.00397760 0.05973364
v 0.00472058 -0.00246791 -0.07509050
v -0.00609610 0.00559983 -0.07089353
v -0.00562498 -0.00370267 -0.04226118
v -0.00194117 -0.00313192 0.05967730
v -0.00695009 0.00423645 -0.06402064
v -0.00658769 0.00542137 0.03488983
v -0.00335923 -0.00721241 0.03819952
v -0.00682088 0.00507087 0.00113098
v -0.00233823 -0.00667542 -0.04512019
v 0.00773160 -0.00055628 0.03450957
v -0.00505776 0.00534580 -0.07517500
v 0.00374211 0.00699215 -0.07462573
v -0.00796636 0.00051448 0.02453824
v 0.00325367 -0.00736675 0.03342512
v 0.00583297 -0.00364158 -0.06818944
v -0.00105724 -0.00679118 -0.07024568
v -0.00772844 -0.00093732 0.03307302
v -0.00721006 0.00379592 -0.05182408
v 0.00138813 0.00789892 0.03822769
v 0.00790964 0.00306761 -0.07073861
v -0.00736920 -0.00190359 0.03824177
v -0.00420850 -0.00541976 -0.03827547
v -0.00590072 0.00617380 0.03862203
v 0.00166544 -0.00564484 -0.07435814
v -0.00527362 -0.00530882 0.03138296
v -0.00759137 0.00288914 -0.03548688
v -0.00772214 0.00242611 -0.02448744
v 0.00701469 0.00010450 -0.07458349
v 0.00787025 0.00309976 0.03784742
v 0.00292279 0.00789249 0.03517151
v 0.00022216 0.00821244 -0.07047101
v 0.00238865 -0.00774458 0.03803052
v -0.00604095 -0.00232804 -0.06759793
v -0.00765281 0.00351617 -0.00306599
v -0.00651521 -0.00077494 -0.07090762
v -0.00803884 0.00182481 0.03522784
v -0.00345220 0.00760309 -0.07086536
v 0.00452362 0.00720759 0.02938307
v -0.00167174 0.00122833 0.06635302
v -0.00602362 0.00580562 -0.06664023
v -0.00502782 -0.00165599 -0.07431589
v 0.00065546 -0.00703073 -0.06533043
v -0.00710292 0.00269943 -0.07121745
v -0.00752361 -0.00031351 -0.03840222
v -0.00435030 -0.00477344 -0.06533043
v -0.00294957 0.00781210 -0.04768344
v -0.00406511 0.00739730 -0.04123306
v 0.00334033 0.00205472 0.05983222
v 0.00089338 -0.00358370 0.05967730
v -0.00709662 -0.00242611 0.02918589
v 0.00669011 -0.00341006 0.03822769
v 0.00690912 -0.00303706 0.03355187
v -0.00024580 0.00816099 0.03222799
v -0.00215230 0.00353868 0.05973364
v 0.00544536 -0.00409657 -0.07076678
v -0.00474421 0.00700662 -0.05102130
v -0.00066491 -0.00817385 0.03787559
v 0.00738496 -0.00109328 -0.06825986
v -0.00710765 0.00001447 -0.06397839
v 0.00151418 0.00063828 0.06652202
v -0.00225314 0.00797288 -0.04285270
v 0.00572110 0.00575900 -0.07403421
v 0.00059401 -0.00699536 -0.06768243
v 0.00679567 0.00514162 0.03838261
v -0.00629305 -0.00397117 0.03826994
v -0.00346480 -0.00138267 0.05969138
v 0.00146376 0.00693909 -0.07497783
v -0.00120693 -0.00093411 0.06700087
v 0.00694063 0.00561430 0.03318569
v -0.00679725 -0.00300490 0.03283359
v -0.00730618 0.00441008 0.03836853
v -0.00398161 -0.00560947 -0.04048662
v 0.00635923 0.00610145 0.02993234
v 0.00724473 -0.00231357 0.03153789
v -0.00588811 0.00594871 -0.06879505
v -0.00296533 0.00677349 -0.07473841
v -0.00566910 0.00331520 -0.07527359
f 36 51 115
f 75 67 24
f 113 43 71
f 63 113 47
f 71 79 47
f 47 113 71
f 24 67 49
f 93 5 1
f 115 51 99
f 2 47 24
f 71 43 9
f 98 74 30
f 30 74 105
f 105 51 30
f 74 21 105
f 31 82 88
f 63 82 35
f 35 113 63
f 43 113 35
f 10 35 82
f 76 58 116
f 108 67 1
f 116 58 55
f 55 108 100
f 58 108 55
f 29 64 45
f 29 45 12
f 88 62 53
f 95 64 29
f 29 12 95
f 95 48 23
f 52 75 24
f 24 47 52
f 52 47 79
f 115 99 80
f 71 9 80
f 106 52 79
f 40 75 106
f 75 52 106
f 73 76 54
f 40 93 114
f 114 75 40
f 67 75 114
f 1 67 114
f 114 93 1
f 111 51 4
f 111 99 51
f 127 62 88
f 127 2 62
f 88 82 127
f 82 2 127
f 118 82 63
f 118 2 82
f 63 47 118
f 47 2 118
f 97 31 88
f 88 98 97
f 97 98 30
f 43 35 120
f 115 80 120
f 120 36 115
f 30 51 70
f 51 36 70
f 104 10 82
f 30 70 104
f 104 70 10
f 35 10 89
f 13 49 67
f 67 108 6
f 6 13 67
f 119 100 4
f 119 55 100
f 101 72 17
f 87 64 15
f 87 45 64
f 15 21 122
f 122 21 74
f 74 98 107
f 107 98 88
f 17 72 68
f 68 95 17
f 64 95 68
f 15 64 68
f 68 72 15
f 48 95 78
f 78 95 12
f 78 12 45
f 45 87 78
f 78 87 85
f 42 9 43
f 42 80 9
f 43 120 42
f 42 120 80
f 32 80 99
f 99 111 32
f 100 44 32
f 4 100 32
f 32 111 4
f 19 106 79
f 109 106 19
f 19 79 71
f 109 19 39
f 34 76 116
f 34 54 76
f 116 17 34
f 17 54 34
f 110 95 23
f 17 95 110
f 49 54 26
f 26 84 49
f 26 54 17
f 17 84 26
f 94 56 53
f 94 53 62
f 23 48 94
f 48 56 94
f 49 84 86
f 86 110 23
f 84 110 86
f 23 94 86
f 86 94 38
f 24 49 92
f 92 38 24
f 49 86 92
f 92 86 38
f 112 97 30
f 31 97 112
f 30 104 112
f 81 70 36
f 10 70 81
f 36 89 81
f 81 89 10
f 82 31 50
f 50 104 82
f 31 104 50
f 124 120 35
f 35 89 124
f 36 120 124
f 124 89 36
f 49 13 96
f 73 54 96
f 96 54 49
f 123 13 60
f 123 60 58
f 73 96 123
f 123 96 13
f 123 76 73
f 58 76 123
f 58 60 27
f 27 108 58
f 27 6 108
f 60 13 27
f 13 6 27
f 90 119 4
f 21 119 90
f 90 105 21
f 4 51 90
f 51 105 90
f 117 119 21
f 117 21 15
f 15 72 117
f 55 119 117
f 116 55 117
f 117 72 116
f 18 17 116
f 18 101 17
f 116 72 121
f 72 101 121
f 121 18 116
f 101 18 121
f 15 122 33
f 33 122 85
f 33 87 15
f 85 87 33
f 69 56 48
f 85 56 69
f 85 122 59
f 59 56 85
f 48 78 77
f 77 78 85
f 77 69 48
f 85 69 77
f 44 65 11
f 40 106 11
f 11 93 40
f 5 93 11
f 1 5 11
f 102 32 44
f 16 19 71
f 16 39 19
f 66 106 109
f 109 39 66
f 66 39 106
f 37 39 44
f 106 39 37
f 44 11 37
f 37 11 106
f 46 84 17
f 17 110 46
f 46 110 84
f 128 94 62
f 38 94 128
f 24 38 128
f 128 2 24
f 62 2 128
f 8 104 31
f 31 112 8
f 8 112 104
f 74 107 22
f 56 59 14
f 41 22 14
f 74 22 7
f 7 22 41
f 1 11 83
f 83 11 65
f 83 108 1
f 100 108 83
f 83 44 100
f 83 65 44
f 44 39 25
f 25 102 44
f 103 39 125
f 125 102 103
f 103 25 39
f 102 25 103
f 71 80 61
f 61 16 71
f 125 39 61
f 39 16 61
f 80 32 20
f 32 102 20
f 20 61 80
f 20 102 125
f 125 61 20
f 53 56 91
f 56 14 91
f 57 122 74
f 74 7 57
f 57 59 122
f 41 14 28
f 28 7 41
f 59 57 28
f 28 57 7
f 88 53 126
f 53 91 126
f 126 107 88
f 126 22 107
f 126 14 22
f 126 91 14
f 3 14 59
f 59 28 3
f 3 28 14

