# https://github.com/mikedh/trimesh
v -0.02721256 -0.01172403 -0.00437967
v 0.17231007 0.01098308 0.22611108
v -0.16683321 0.01113597 0.22970314
v 0.17679492 -0.00844303 0.01245238
v -0.17469034 -0.00710066 0.06543532
v -0.02721256 0.01572876 0.20315412
v 0.17231007 -0.00315612 0.12030639
v 0.07517359 -0.01399291 -0.00090274
v 0.07162745 0.00119205 0.20670012
v 0.00098274 -0.00735140 0.11487225
v -0.11906459 -0.01152528 -0.00421848
v -0.15084080 0.01017582 0.14664818
v 0.10218685 -0.01032968 0.07499113
v -0.09785727 0.00196567 0.21022311
v -0.07664995 0.00084040 0.03365937
v -0.17625481 -0.00844303 0.00540640
v 0.15496178 0.00399604 0.06644846
v 0.02219006 -0.01480934 0.01952137
v 0.12461098 0.00134494 0.20315412
v 0.17491753 0.01010549 0.17137817
v 0.13166849 -0.01135098 -0.00433361
v 0.03279372 0.00921568 0.23073933
v -0.17764546 0.00686424 0.18549313
v -0.16850197 0.00658904 0.10782627
v -0.12257596 -0.01322846 0.03718235
v -0.05902354 0.00639334 0.22788408
v -0.06959243 -0.01170874 -0.00428755
v 0.09989229 0.00921568 0.23076236
v -0.12963349 0.00795587 0.22901237
v -0.07313857 -0.00126947 0.18549313
v -0.15789832 -0.01285236 0.03365937
v 0.15259768 0.01105646 0.14333244
v -0.15084080 0.00204517 0.20315412
v 0.15638719 0.00117982 0.19610815
v 0.17696871 -0.00490823 0.04425135
v 0.17651679 -0.00388999 0.08664231
v 0.14227216 0.00764092 0.22947289
v -0.14729466 -0.01463810 0.00540640
v 0.15287583 0.00753695 0.10165529
v 0.14932968 -0.01406324 0.01952137
v 0.00452889 -0.01359540 -0.00322836
v -0.17524660 -0.00037659 0.13605621
v 0.04690875 -0.01466256 0.00186040
v -0.15084080 0.00313374 0.06543532
v -0.04841988 -0.01515487 0.00892939
v -0.09431112 -0.01402960 -0.00110997
v 0.15638719 -0.00911574 -0.00419545
v 0.04690875 0.00110032 0.20670012
v -0.05193125 0.00091685 0.03365937
v 0.06102379 0.00605393 0.22788408
v -0.17051840 0.00030223 0.16348024
v -0.16144446 -0.00769999 0.09016529
v 0.17575191 0.00731679 0.14664818
v -0.17201336 0.01488481 0.20670012
v 0.17606480 0.01133472 0.20315412
v -0.07313857 0.00173328 0.21022311
v -0.08725361 0.00762563 0.22954196
v -0.17768024 -0.00278613 0.03718235
v -0.04136236 0.00204823 0.21374610
v 0.09634615 -0.00912492 -0.00437967
v 0.09989229 0.00177914 0.21022311
v -0.11906459 0.00225922 0.21022311
v 0.06102379 -0.01493471 0.01599838
v -0.17788883 0.00093214 0.08374102
v 0.08310026 0.00392265 0.22256507
v 0.15638719 0.00364745 0.21692368
v -0.03075870 -0.01497140 0.01599838
v 0.16699086 -0.01225609 0.03011336
v 0.15993334 -0.00883443 0.07957331
v 0.16469629 -0.01016151 0.05960973
v -0.14729466 0.00593162 0.22436109
v 0.16441816 -0.00659613 0.10154016
v -0.00604001 -0.00255679 0.00625837
v 0.04339738 -0.01474818 0.01952137
v -0.10846093 0.00518858 0.22436109
v -0.15789832 -0.00204309 0.01245238
v 0.12461098 0.00650342 0.22788408
v -0.17201336 -0.01186469 0.02306739
v 0.11400732 -0.00913409 -0.00435664
v -0.16144446 0.00117982 0.18903914
v 0.14227216 0.00188617 0.20670012
v -0.06608105 -0.01500809 0.01245238
v 0.16549592 -0.00319587 0.13838184
v -0.16207024 0.00399910 0.21498951
v 0.16490488 0.00042455 0.17973663
v 0.15638719 0.01551166 0.22788408
v -0.17006645 -0.01016762 0.04910985
v -0.15981045 -0.01018903 -0.00343559
v 0.13521464 -0.01461670 0.01245238
v -0.13672577 0.00253748 0.21022311
v 0.02924758 -0.01513652 0.00540640
v 0.04690875 0.00386150 0.22274929
v -0.17149186 -0.00352000 0.11839523
v -0.04487374 -0.00925029 -0.00428755
v 0.17321399 -0.00702116 0.07250431
v 0.11049595 0.00406943 0.22201245
v -0.12963349 -0.01475124 0.00540640
v 0.17231007 0.00037868 0.15908226
v 0.17053699 -0.01096265 -0.00094878
v -0.02721256 0.00157733 0.21022311
v -0.05902354 0.00210327 0.21374610
v 0.00807503 -0.01504785 0.01599838
v 0.15993334 -0.01418555 0.00892939
v -0.16495584 -0.00868460 0.07602730
v -0.15435217 -0.01412440 0.01952137
v 0.06102379 -0.01459224 0.00186040
v -0.17406455 0.00025637 0.15017118
v 0.17053699 0.00483999 0.21374610
v 0.03630510 -0.00897508 -0.00435664
v 0.15287583 0.00538122 0.07957331
v -0.17083131 0.00372695 0.19963112
v 0.17585620 -0.00311331 0.02444896
v 0.14581831 -0.01407547 0.00186040
v 0.13166849 0.00319184 0.21729210
v -0.17399502 0.00736266 0.21934143
v -0.16495584 -0.01403572 0.00892939
v -0.00955138 -0.01512735 0.00540640
v -0.16610311 0.00046735 0.17577614
v -0.16850197 -0.00588366 0.10075728
v 0.08577725 0.00165683 0.21022311
v -0.08374223 0.00287383 0.21729210
v 0.05751242 0.00193815 0.21374610
v 0.03630510 0.00192592 0.21374610
v 0.01513255 -0.01514875 0.00540640
v -0.16342613 -0.01023183 0.06041564
v 0.17582144 0.01098002 0.19081216
v 0.17175381 0.00387984 0.07809965
v -0.14378329 -0.00311943 0.00344920
f 6 54 86
f 47 128 73
f 3 86 54
f 6 86 32
f 32 39 6
f 86 20 32
f 2 108 55
f 86 2 55
f 64 54 58
f 12 54 6
f 6 39 15
f 15 12 6
f 44 12 15
f 112 47 73
f 35 4 112
f 112 55 35
f 35 55 36
f 36 55 108
f 36 4 35
f 44 15 76
f 115 111 84
f 115 3 54
f 87 125 104
f 54 12 24
f 24 12 44
f 44 76 24
f 24 58 54
f 24 76 58
f 39 110 49
f 49 15 39
f 73 128 49
f 128 76 49
f 49 76 15
f 28 86 22
f 86 3 22
f 71 115 84
f 3 115 71
f 69 13 40
f 40 70 69
f 68 70 40
f 17 112 73
f 73 49 17
f 17 49 110
f 17 110 39
f 55 112 126
f 126 20 86
f 86 55 126
f 95 68 4
f 4 36 95
f 23 54 64
f 23 115 54
f 64 58 23
f 42 23 5
f 115 23 42
f 125 52 80
f 80 104 125
f 80 33 84
f 52 33 80
f 87 104 119
f 31 52 125
f 25 30 31
f 30 33 31
f 31 33 52
f 38 88 46
f 16 76 128
f 128 88 16
f 58 76 16
f 16 23 58
f 5 23 16
f 41 1 21
f 47 112 99
f 99 112 4
f 99 21 47
f 113 21 99
f 4 68 99
f 3 71 29
f 71 75 29
f 102 18 25
f 10 18 13
f 10 30 25
f 25 18 10
f 63 40 13
f 89 40 63
f 18 102 63
f 34 13 69
f 34 85 108
f 127 17 39
f 112 17 127
f 20 112 127
f 39 32 127
f 127 32 20
f 53 112 20
f 20 126 53
f 53 126 112
f 98 36 108
f 98 95 36
f 107 42 5
f 107 93 111
f 111 115 107
f 115 42 107
f 51 93 87
f 87 119 51
f 111 93 51
f 104 80 118
f 118 119 104
f 118 51 119
f 111 51 118
f 84 111 118
f 118 80 84
f 94 88 128
f 91 113 89
f 89 63 91
f 91 63 102
f 11 46 88
f 88 94 11
f 11 94 1
f 41 46 11
f 116 88 38
f 116 16 88
f 116 125 87
f 116 31 125
f 41 21 8
f 8 21 113
f 103 99 68
f 113 99 103
f 68 40 103
f 89 113 103
f 103 40 89
f 57 22 3
f 3 29 57
f 26 50 57
f 57 75 26
f 57 29 75
f 28 22 57
f 37 50 77
f 28 57 37
f 37 57 50
f 37 86 28
f 37 2 86
f 67 102 25
f 13 19 9
f 9 10 13
f 30 10 9
f 13 18 74
f 74 63 13
f 18 63 74
f 108 85 83
f 60 21 1
f 27 1 41
f 41 11 27
f 27 11 1
f 105 116 38
f 31 116 105
f 25 31 105
f 78 116 87
f 16 116 78
f 5 16 78
f 87 93 78
f 78 107 5
f 93 107 78
f 43 117 46
f 43 46 41
f 41 8 43
f 26 75 92
f 92 50 26
f 123 122 92
f 66 37 77
f 66 34 108
f 66 108 2
f 2 37 66
f 61 9 19
f 30 9 48
f 48 9 122
f 48 123 30
f 48 122 123
f 72 70 68
f 68 83 72
f 69 70 72
f 72 34 69
f 85 34 72
f 72 83 85
f 95 98 7
f 68 95 7
f 7 83 68
f 7 98 108
f 108 83 7
f 1 94 109
f 109 60 1
f 109 94 128
f 47 21 79
f 21 60 79
f 60 109 79
f 128 47 79
f 79 109 128
f 38 46 97
f 46 117 97
f 102 67 45
f 45 97 117
f 124 43 91
f 117 43 124
f 124 45 117
f 124 91 102
f 102 45 124
f 106 8 113
f 106 43 8
f 113 91 106
f 91 43 106
f 30 123 100
f 100 101 30
f 121 92 75
f 123 92 121
f 121 71 84
f 121 75 71
f 121 14 101
f 77 50 65
f 50 92 65
f 65 92 122
f 122 9 120
f 120 61 122
f 9 61 120
f 81 61 19
f 34 66 81
f 81 19 13
f 13 34 81
f 122 61 114
f 114 65 122
f 114 81 66
f 61 81 114
f 82 45 67
f 82 67 25
f 25 105 82
f 82 105 38
f 38 97 82
f 97 45 82
f 90 33 30
f 84 33 90
f 90 121 84
f 30 101 56
f 56 14 30
f 101 14 56
f 123 121 59
f 59 121 101
f 59 100 123
f 101 100 59
f 77 65 96
f 65 114 96
f 96 66 77
f 96 114 66
f 30 14 62
f 62 90 30
f 14 121 62
f 121 90 62

