# https://github.com/mikedh/trimesh
v 0.00879056 0.00844164 -0.31769982
v -0.00251213 0.05956933 0.15972030
v 0.05484286 -0.03588459 -0.06968205
v -0.14919160 0.03725118 0.00091857
v 0.13846627 0.05029227 0.05841035
v -0.08472420 -0.01464086 0.09243117
v -0.06573643 -0.03646567 -0.06071794
v 0.06556940 -0.00954733 0.11102988
v 0.13105398 0.03181419 -0.04549040
v 0.10934980 -0.02202866 0.01959306
v -0.08210155 0.05747717 0.13461792
v -0.13204166 0.04709058 0.07603150
v -0.10713056 -0.02735697 0.00650923
v -0.01516673 -0.00858843 0.12665863
v 0.07503712 0.06119591 0.13860431
v -0.00476677 -0.03876014 -0.08239628
v 0.10251320 -0.02267654 -0.03875946
v 0.11300456 0.00270084 0.08129282
v 0.03264954 0.01660451 0.14730561
v 0.15197906 0.04226236 0.00624767
v -0.12635183 -0.00131703 0.04970915
v 0.11331671 0.05713908 0.10480908
v -0.06509721 0.01061514 0.13289160
v -0.12335032 -0.00159731 -0.03202081
v 0.09052759 0.02438042 0.11992209
v 0.13065636 0.00640545 0.04287738
v -0.10716417 0.01993084 0.10245786
v 0.12875569 -0.00089474 -0.01035901
v -0.04537366 0.05428575 0.15314151
v 0.03854926 0.05926166 0.15454818
v -0.09142562 -0.03313687 -0.03146136
v -0.01301288 0.02056752 0.15222688
v -0.13568354 0.03199136 -0.03530359
v 0.02599949 -0.00843918 0.12345794
v -0.13114078 -0.00239799 0.00904907
v -0.11307252 0.05377582 0.10534803
v -0.09873120 -0.01988899 0.06146917
v 0.10637379 -0.01634522 0.05609298
v 0.06481637 0.02852800 0.13838677
v -0.02241660 0.01306782 -0.31625167
v 0.02417750 -0.03693697 -0.07124127
v -0.11623742 0.00264941 0.07842659
v -0.06247875 -0.01134331 0.11271466
v -0.15073764 0.04104903 0.03053257
v -0.03426500 -0.03849646 -0.07762059
v 0.08858387 -0.01180560 0.09037273
v 0.07802174 -0.03272746 -0.05276865
v 0.00704092 0.00166364 0.14237098
v -0.03593903 0.00675140 0.14215958
v -0.08641094 0.00409357 0.11469654
v 0.10421467 -0.02644337 -0.01071728
v 0.11001842 0.02338798 0.09909401
v 0.12145329 -0.00022164 -0.03652344
v 0.05346904 0.00261047 0.13205913
v 0.12973756 -0.00256265 0.01754878
v -0.11844902 -0.01702852 0.02846612
v -0.11197914 -0.02214568 -0.02079710
v 0.09614199 0.05635047 0.12363319
v 0.12718137 0.01847906 0.06716084
v 0.14804313 0.04647151 0.02955707
v 0.12633912 0.05455319 0.08481748
v -0.05126264 0.02588472 0.14449798
v 0.07457018 0.00737467 0.12423435
v 0.09547643 0.00454703 0.10495362
v -0.04034480 -0.00865211 0.12671886
v 0.01353443 0.02537623 0.15322690
v -0.00946476 -0.00132029 -0.32579872
v -0.02325038 0.05542255 0.15837464
v -0.09863394 0.05572756 0.12148853
v -0.12639762 -0.00734813 -0.01094657
v -0.10014547 -0.00102972 0.09701168
v 0.12043820 -0.01144671 0.03384311
v 0.12066722 -0.00184740 0.06006705
v 0.01807812 0.05734041 0.15869410
v -0.06405299 0.06025231 0.14421721
v 0.11805931 -0.01680653 0.00174800
v -0.08730144 0.02266808 0.12293987
v 0.05722678 0.05598384 0.14822693
v -0.01608998 0.00274090 0.14297166
v 0.11641577 -0.01564832 -0.02170529
v 0.09299278 -0.01547633 0.07033096
v -0.10526069 -0.02280319 0.04328440
v -0.10667110 -0.02137860 -0.03924473
v -0.12654664 0.01165280 0.06560330
v -0.11483259 -0.01063761 0.06062749
v -0.12266853 0.04393491 0.09312508
v 0.00764740 -0.00863550 0.12417401
v 0.13742103 0.03092885 -0.02831721
v -0.04654135 -0.03702655 -0.06408799
v 0.04521129 -0.00857350 0.12015184
v -0.00497568 0.01627959 -0.32713959
v 0.04822155 0.02687935 0.14539261
v -0.03063893 0.02391609 0.15038119
v -0.13025722 -0.00277410 0.02672279
v -0.08227143 -0.03445528 -0.04643452
v -0.10114427 -0.03061752 -0.00957145
v 0.08075155 0.04557269 0.13338353
v -0.12152779 -0.01635732 0.00696009
v 0.02394820 0.00188351 0.14042135
v 0.08109990 -0.00158904 0.11137433
v -0.14033715 0.02778987 -0.01970585
v -0.10545002 -0.01013780 0.07727545
v -0.11792726 0.01693968 0.08608837
v 0.03929628 -0.03715026 -0.07678781
v 0.13338925 0.04661211 0.07297596
v -0.07272477 0.00020837 0.12130912
v 0.09577537 -0.02912965 -0.02622618
v 0.03923114 0.00457067 0.13896260
v -0.07580373 -0.01222930 0.10489943
v 0.10154296 -0.00140725 0.09207806
v -0.04936501 0.00143195 0.13393098
v -0.15343130 0.03894016 0.01571429
v 0.11861167 0.01662064 0.08319414
v -0.11753122 -0.01417012 0.04435894
v -0.07094377 0.02434578 0.13461195
v 0.08758887 -0.03114386 -0.04133039
v -0.09668350 0.01526350 0.11185320
v 0.00016717 0.01401314 0.15053222
v -0.11349013 -0.02259778 -0.00599463
v 0.10966945 -0.01858250 0.04038293
v 0.00935791 -0.03863486 -0.08326935
v -0.00217628 -0.00698811 0.13408236
v 0.12116566 -0.01349930 0.01743323
v 0.05369880 0.01439766 0.13935927
v 0.09794427 0.01749483 0.11046854
v 0.10722870 -0.02435270 0.00558909
v 0.12447312 -0.00332032 -0.02349383
v 0.01722578 0.01110585 0.14791472
f 112 91 40
f 91 67 40
f 1 91 20
f 1 67 91
f 91 36 75
f 44 91 112
f 44 36 91
f 101 70 112
f 24 40 67
f 24 101 40
f 70 101 24
f 67 95 31
f 16 67 121
f 67 1 17
f 9 1 20
f 20 88 9
f 122 14 34
f 112 70 35
f 35 94 112
f 40 101 33
f 45 67 16
f 67 31 83
f 83 24 67
f 70 24 83
f 67 3 104
f 104 121 67
f 41 104 3
f 121 104 41
f 16 121 41
f 98 35 70
f 94 35 98
f 107 41 3
f 15 75 2
f 91 75 15
f 87 14 82
f 87 34 14
f 20 91 60
f 91 61 60
f 105 61 22
f 22 15 58
f 22 61 91
f 91 15 22
f 82 96 81
f 96 41 81
f 41 107 81
f 81 87 82
f 34 87 81
f 112 40 4
f 40 33 4
f 4 101 112
f 4 33 101
f 7 31 95
f 7 95 67
f 67 45 7
f 89 96 31
f 31 7 89
f 89 7 45
f 89 45 16
f 16 41 89
f 89 41 96
f 31 96 57
f 57 83 31
f 70 83 57
f 57 98 70
f 13 96 82
f 47 3 67
f 21 44 112
f 112 94 21
f 94 114 21
f 11 29 75
f 50 77 117
f 118 48 128
f 19 66 128
f 128 66 118
f 74 66 19
f 2 66 74
f 2 75 68
f 75 29 68
f 92 39 78
f 97 15 78
f 78 39 97
f 58 15 97
f 126 76 10
f 10 81 126
f 126 81 107
f 51 107 17
f 51 126 107
f 76 126 51
f 127 88 20
f 5 61 105
f 105 60 5
f 5 60 61
f 105 22 52
f 52 22 58
f 19 128 108
f 46 8 81
f 81 38 46
f 46 38 110
f 20 60 26
f 26 55 20
f 72 73 38
f 55 26 72
f 72 26 73
f 94 98 56
f 56 114 94
f 98 13 56
f 82 114 56
f 56 13 82
f 82 14 37
f 14 43 37
f 82 37 102
f 98 57 119
f 119 13 98
f 119 57 96
f 96 13 119
f 116 107 3
f 3 47 116
f 17 107 116
f 67 17 116
f 116 47 67
f 65 14 122
f 65 43 14
f 50 109 106
f 109 43 106
f 43 65 106
f 44 21 84
f 103 86 84
f 77 11 69
f 69 117 77
f 69 75 36
f 69 11 75
f 36 86 69
f 27 86 103
f 27 69 86
f 117 69 27
f 78 15 30
f 30 92 78
f 30 15 2
f 2 74 30
f 30 74 19
f 19 92 30
f 29 11 115
f 115 62 29
f 115 11 77
f 80 51 17
f 76 51 80
f 80 17 1
f 105 52 113
f 58 97 25
f 25 97 39
f 39 63 25
f 99 128 48
f 99 108 128
f 99 48 122
f 108 99 54
f 8 46 100
f 100 54 8
f 63 54 100
f 100 46 110
f 10 76 123
f 123 76 55
f 55 72 123
f 120 72 38
f 120 81 10
f 120 38 81
f 10 123 120
f 120 123 72
f 71 109 50
f 50 117 71
f 117 27 71
f 6 102 37
f 6 43 109
f 6 37 43
f 109 71 6
f 6 71 102
f 79 48 118
f 122 48 79
f 79 65 122
f 44 84 12
f 12 84 86
f 36 44 12
f 12 86 36
f 85 21 114
f 85 114 82
f 82 102 85
f 53 80 1
f 127 80 53
f 1 9 53
f 53 9 88
f 88 127 53
f 28 80 127
f 20 55 28
f 28 127 20
f 55 76 28
f 76 80 28
f 73 26 59
f 105 113 59
f 59 60 105
f 59 26 60
f 110 38 18
f 38 73 18
f 18 113 52
f 73 59 18
f 18 59 113
f 125 52 58
f 58 25 125
f 125 25 63
f 8 54 90
f 90 54 99
f 90 99 122
f 122 34 90
f 34 81 90
f 81 8 90
f 124 63 39
f 124 54 63
f 39 92 124
f 124 92 19
f 19 108 124
f 108 54 124
f 93 68 29
f 29 62 93
f 111 106 65
f 103 84 42
f 42 84 21
f 21 85 42
f 102 71 42
f 42 85 102
f 42 27 103
f 42 71 27
f 63 100 64
f 64 125 63
f 64 100 110
f 110 18 64
f 64 18 52
f 52 125 64
f 32 79 118
f 68 93 32
f 118 66 32
f 32 66 2
f 2 68 32
f 65 79 49
f 49 111 65
f 79 32 49
f 49 32 93
f 49 93 62
f 106 111 23
f 50 106 23
f 62 115 23
f 23 77 50
f 23 115 77
f 23 49 62
f 111 49 23

