# https://github.com/mikedh/trimesh
v 0.00039200 -0.00784704 -0.01541462
v -0.00097248 0.00293279 0.07401709
v -0.00052122 0.00325089 -0.07539304
v 0.00437380 0.00645771 0.02892683
v -0.00767714 0.00016194 -0.04470640
v -0.00468659 -0.00616128 0.05018723
v -0.00679604 0.00359159 0.00653586
v 0.00714408 0.00291341 -0.05615883
v 0.00658269 0.00405501 0.05782218
v -0.00766338 0.00040415 -0.02792419
v 0.00724351 0.00262599 -0.00243520
v 0.00763971 0.00086757 -0.03815797
v -0.00693983 -0.00342596 -0.06166480
v -0.00382843 -0.00677003 0.02543237
v 0.00768101 0.00042837 0.04206775
v -0.00050134 -0.00769687 0.06467895
v -0.00748746 0.00162164 -0.00741260
v -0.00753029 0.00123895 0.03863202
v 0.00546142 -0.00570755 -0.06680372
v -0.00657729 0.00386609 0.06127259
v -0.00041109 -0.00780990 0.00917873
v 0.00737966 -0.00322573 0.01945655
v 0.00600599 0.00495441 0.00982476
v 0.00654291 0.00417289 -0.01426938
v 0.00462314 -0.00743690 0.03352248
v -0.00547591 0.00570202 0.02298038
v -0.00366781 0.00677419 -0.06518863
v -0.00234309 -0.00745467 -0.00341894
v -0.00386055 -0.00679748 -0.03526549
v 0.00757852 -0.00158680 0.06936270
v -0.00381313 -0.00570593 -0.07214818
v 0.00626298 0.00457495 -0.06822792
v -0.00755324 -0.00280752 0.06962699
v -0.00691841 0.00331709 -0.01688288
v -0.00655588 0.00392907 0.05191977
v -0.00678992 0.00352054 -0.05593859
v 0.00634558 -0.00477101 0.05628050
v -0.00367699 -0.00689759 -0.02460593
v 0.00676166 0.00375145 -0.04651236
v 0.00408163 0.00655136 0.06594165
v 0.00582549 0.00509650 0.04914476
v 0.00015031 -0.00770979 -0.05993226
v 0.00165094 -0.00630499 0.07298930
v -0.00539790 0.00573432 0.03124668
v -0.00497723 -0.00592392 0.04167132
v -0.00738038 0.00139881 -0.06968150
v -0.00431334 -0.00648422 0.01577122
v -0.00334045 -0.00706552 -0.04282703
v 0.00615437 -0.00531840 -0.04223973
v 0.00721904 -0.00310140 -0.06035805
v 0.00391337 -0.00224721 -0.07437994
v -0.00572678 0.00503514 0.06805595
v -0.00432558 -0.00636473 0.05908488
v -0.00446631 -0.00639057 0.00302672
v -0.00733296 0.00220778 -0.00011535
v 0.00395620 0.00683232 -0.06264854
v 0.00536811 0.00293925 0.07329764
v -0.00770162 -0.00000599 -0.03422303
v -0.00068490 -0.00771140 -0.06618705
v 0.00131441 0.00763806 -0.06982833
v 0.00005547 0.00771557 0.07027303
v 0.00624615 -0.00466444 0.06439999
v -0.00769703 -0.00014647 0.05592812
v -0.00492522 -0.00606278 -0.01390231
v 0.00730929 -0.00082142 -0.06957873
v 0.00764123 0.00049134 0.06208013
v 0.00721598 -0.00355352 0.03049787
v -0.00124477 -0.00771302 -0.03044960
v 0.00765041 0.00067219 -0.05110802
v 0.00196606 -0.00662632 -0.07166366
v -0.00707750 0.00292148 -0.06338267
v -0.00516997 0.00591678 0.03722249
v 0.00480059 0.00300060 -0.07341088
v -0.00416955 0.00531449 -0.07198668
v -0.00316760 -0.00707359 0.06931866
v 0.00227812 0.00766228 0.05225747
v -0.00320890 -0.00139787 -0.07529026
v -0.00693065 0.00212382 0.07232859
v -0.00194996 -0.00751118 0.03761892
v -0.00670732 -0.00436087 0.06469364
v 0.00033846 -0.00784220 -0.02139044
v -0.00158436 0.00864887 0.02475697
v -0.00537189 -0.00567525 -0.04739332
v -0.00733755 0.00205600 0.04374157
v -0.00088376 -0.00768718 0.05567852
v -0.00750888 0.00146340 -0.05146040
v -0.00744157 0.00171852 0.02522681
v 0.00249687 -0.00106847 0.07385558
v -0.00466976 -0.00257177 0.07354724
v 0.00745002 0.00186223 -0.06445450
v -0.00425521 0.00655297 -0.06046084
v -0.00630348 -0.00455948 -0.06828666
v 0.00693299 0.00340590 -0.00707491
v 0.00733988 0.00226591 0.05259517
v -0.00407318 0.00615898 0.07229922
v 0.00004629 -0.00782121 0.01368629
v 0.00667294 -0.00463860 -0.03792305
v 0.00408316 -0.00653266 0.06933334
v 0.00504534 0.00593777 0.03322883
v -0.00655282 0.00403402 -0.00393283
v 0.00676013 0.00375468 -0.06029933
v 0.00682744 0.00349309 0.06506070
v -0.00729778 0.00223685 0.02992524
v 0.00771007 -0.00029018 0.04616420
v 0.00655056 0.00394360 0.06958295
v -0.00228496 -0.00747889 -0.01836582
v -0.00622852 -0.00110884 -0.07275017
v -0.00261691 -0.00735778 -0.03890678
v 0.00059086 -0.00443838 -0.07455613
v 0.00193241 0.00761707 -0.06605490
v -0.00240428 0.00731835 -0.06910888
v -0.00061912 0.00624134 -0.07297041
v -0.00757159 0.00102420 -0.06016718
v 0.00732000 -0.00208090 -0.06605490
v -0.00312936 -0.00715594 -0.06341204
v 0.00039353 -0.00768557 0.06843770
v 0.00549660 -0.00394266 -0.07151683
v 0.00358601 0.00684201 0.07086033
v -0.00110557 -0.00748050 -0.06981365
v -0.00254348 -0.00681040 0.07287184
v 0.00640830 -0.00448844 -0.06357355
v 0.00764277 -0.00112014 0.06526626
v 0.00689627 -0.00385708 0.05965751
v -0.00758536 -0.00122187 -0.06435172
v 0.00650773 -0.00163362 0.07269565
v -0.00501394 -0.00599496 -0.03207937
v 0.00258406 0.00065281 -0.07573074
v -0.00564571 0.00510619 -0.06887396
f 124 33 58
f 44 26 52
f 82 95 61
f 61 95 118
f 118 95 57
f 80 75 33
f 60 111 82
f 82 61 76
f 76 61 118
f 33 124 13
f 13 124 92
f 13 80 33
f 92 80 13
f 36 100 26
f 3 73 127
f 87 18 84
f 87 17 18
f 84 55 87
f 87 55 17
f 18 17 10
f 44 52 72
f 82 26 72
f 72 26 44
f 72 95 82
f 72 52 95
f 95 52 78
f 33 89 78
f 20 52 26
f 84 78 20
f 20 78 52
f 120 116 43
f 75 116 120
f 33 75 120
f 120 89 33
f 2 57 95
f 95 78 2
f 2 78 89
f 118 57 105
f 105 125 30
f 57 125 105
f 59 70 42
f 4 99 56
f 4 76 118
f 56 76 4
f 56 60 110
f 110 76 56
f 110 60 82
f 82 76 110
f 32 60 56
f 32 73 60
f 32 65 73
f 90 65 32
f 56 99 32
f 99 23 32
f 92 124 46
f 46 107 92
f 82 111 91
f 91 26 82
f 111 60 112
f 60 73 112
f 73 3 112
f 77 3 127
f 127 109 77
f 103 55 84
f 84 20 103
f 17 55 86
f 86 10 17
f 84 18 63
f 63 78 84
f 33 78 63
f 58 33 63
f 63 10 58
f 18 10 63
f 26 100 35
f 35 20 26
f 88 2 89
f 88 120 43
f 89 120 88
f 57 2 88
f 43 125 88
f 88 125 57
f 9 105 102
f 118 105 40
f 40 4 118
f 99 4 40
f 98 125 43
f 30 125 98
f 43 116 98
f 116 25 98
f 31 115 92
f 31 109 70
f 31 77 109
f 92 107 31
f 107 77 31
f 115 59 68
f 9 23 41
f 41 23 99
f 99 40 41
f 41 105 9
f 41 40 105
f 42 70 19
f 19 25 42
f 19 49 25
f 51 109 127
f 70 109 51
f 127 73 51
f 73 65 51
f 69 65 90
f 69 15 104
f 94 90 11
f 90 8 11
f 90 32 101
f 101 8 90
f 107 46 74
f 74 77 107
f 3 77 74
f 74 112 3
f 111 112 74
f 71 86 55
f 34 36 71
f 71 55 34
f 10 86 113
f 113 46 124
f 113 71 46
f 86 71 113
f 20 35 7
f 7 103 20
f 7 35 100
f 34 55 7
f 55 103 7
f 7 36 34
f 100 36 7
f 94 102 66
f 66 15 94
f 30 122 66
f 104 15 66
f 66 122 104
f 66 105 30
f 66 102 105
f 25 49 97
f 81 59 42
f 42 25 81
f 25 1 81
f 81 68 59
f 119 59 115
f 115 31 119
f 70 59 119
f 119 31 70
f 96 25 116
f 96 1 25
f 75 80 53
f 53 6 75
f 80 6 53
f 80 64 45
f 45 6 80
f 64 6 45
f 48 29 115
f 48 28 75
f 83 80 92
f 92 115 83
f 115 29 83
f 65 69 114
f 117 51 65
f 65 114 117
f 117 114 19
f 117 19 70
f 70 51 117
f 15 69 12
f 12 69 90
f 94 15 12
f 12 90 94
f 93 11 8
f 9 102 93
f 93 102 94
f 94 11 93
f 8 101 93
f 93 101 39
f 39 101 24
f 9 93 24
f 24 93 39
f 24 101 32
f 24 23 9
f 24 32 23
f 111 74 128
f 128 71 36
f 128 74 46
f 46 71 128
f 128 36 26
f 26 91 128
f 58 10 5
f 10 113 5
f 5 124 58
f 5 113 124
f 38 48 75
f 29 48 38
f 29 47 54
f 54 6 64
f 54 47 6
f 126 83 29
f 126 54 64
f 29 54 126
f 126 64 80
f 80 83 126
f 121 114 50
f 19 114 121
f 50 97 121
f 49 19 121
f 121 97 49
f 27 91 111
f 111 128 27
f 27 128 91
f 25 97 37
f 22 97 50
f 22 122 30
f 104 122 22
f 22 69 104
f 50 114 22
f 22 114 69
f 115 68 108
f 68 106 108
f 108 106 28
f 108 48 115
f 28 48 108
f 21 85 68
f 1 96 21
f 21 81 1
f 68 81 21
f 75 28 79
f 79 85 75
f 68 85 79
f 79 106 68
f 28 106 79
f 16 96 116
f 16 116 75
f 75 85 16
f 16 21 96
f 85 21 16
f 14 47 29
f 29 38 14
f 14 38 75
f 75 6 14
f 6 47 14
f 67 37 97
f 123 37 67
f 97 22 67
f 30 123 67
f 67 22 30
f 62 37 123
f 30 98 62
f 62 123 30
f 62 98 25
f 25 37 62

