# https://github.com/mikedh/trimesh
v 0.00241921 -0.00820373 0.05428800
v -0.00306402 0.00719614 0.07196327
v -0.00419848 0.00677751 0.04089692
v 0.00361005 -0.00809055 0.07097417
v 0.00617072 -0.00361023 0.04085841
v -0.00816318 0.00145119 0.05686704
v 0.00777321 0.00270039 0.06138376
v 0.00241925 0.00789280 0.05138640
v -0.00776166 -0.00390858 0.07041653
v -0.00576185 -0.00512129 0.04170884
v 0.00693535 0.00209670 0.07203868
v 0.00779759 -0.00048330 0.05041818
v -0.00605977 -0.00573680 0.05106341
v -0.00241967 0.00788831 0.06299534
v -0.00580213 0.00612396 0.05032289
v 0.00422182 0.00681198 0.04339725
v -0.00813001 0.00177392 0.06364137
v -0.00792456 0.00274179 0.07073918
v 0.00080657 -0.00745930 0.04170965
v 0.00338651 0.00755636 0.07041655
v -0.00788366 0.00112886 0.04235476
v -0.00274157 -0.00824014 0.06944825
v -0.00817563 0.00016108 0.05041778
v 0.00783717 -0.00370934 0.07009394
v 0.00424012 -0.00745257 0.06009394
v 0.00775472 0.00232490 0.05557712
v -0.00274236 0.00787899 0.05493326
v 0.00551126 -0.00583372 0.05009684
v 0.00709837 0.00194384 0.04184539
v -0.00112914 -0.00791889 0.04944979
v -0.00016141 0.00831284 0.04590246
v 0.00290416 0.00774210 0.06525416
v 0.00649570 0.00489722 0.05041978
v 0.00774505 -0.00259114 0.05467204
v -0.00807063 -0.00229744 0.05944815
v 0.00033029 0.00677688 0.04057692
v -0.00173552 -0.00808472 0.05590023
v -0.00112947 0.00790021 0.06815704
v -0.00253346 -0.00650167 0.03988595
v -0.00628919 -0.00048455 0.07222906
v -0.00501169 -0.00630455 0.07193573
v 0.00651458 0.00523455 0.07009183
v -0.00274236 0.00789981 0.05106416
v -0.00607799 0.00575657 0.07073905
v -0.00681718 0.00426068 0.04115353
v -0.00338702 -0.00761138 0.05235423
v -0.00746269 -0.00209762 0.04108929
v 0.00038899 0.00678583 0.07219388
v 0.00530971 0.00436415 0.04048336
v 0.00567513 -0.00567589 0.07183830
v -0.00779978 0.00335486 0.05106417
v 0.00209657 -0.00810870 0.05106342
v 0.00788418 0.00241877 0.06460810
v -0.00780091 -0.00304772 0.05041888
v 0.00747170 -0.00112844 0.07189784
v 0.00016134 -0.00839409 0.07041661
v -0.00817607 0.00112886 0.05332314
v 0.00741693 -0.00322497 0.05156099
v 0.00702145 -0.00080630 0.04070273
v 0.00425207 -0.00778271 0.06815658
v -0.00209638 -0.00725713 0.07209044
v -0.00016141 0.00823194 0.04299919
v -0.00013430 -0.00809046 0.05302541
v 0.00521373 -0.00649995 0.05783473
v 0.00297574 -0.00653021 0.04054486
v -0.00241967 0.00787285 0.06557764
v 0.00783267 0.00306418 0.06977133
v 0.00470714 0.00599740 0.07195245
v 0.00471754 0.00668892 0.05074151
v -0.00808319 -0.00145178 0.07073903
v 0.00265844 0.00714133 0.04150743
v 0.00787872 -0.00016091 0.05493226
v 0.00757377 0.00274177 0.05074061
v 0.00812052 0.00080652 0.07041662
v -0.00614695 0.00326157 0.07219215
v -0.00419391 -0.00709659 0.05025615
v -0.00184679 0.00739656 0.04092294
v 0.00387497 0.00709868 0.04563837
v -0.00274236 0.00778639 0.06977061
v 0.00080657 -0.00821359 0.05589892
v -0.00628936 -0.00435457 0.07204464
v 0.00648487 -0.00488326 0.05267520
v 0.00145173 0.00789482 0.06944899
v 0.00661260 -0.00370934 0.07198934
v -0.00649185 -0.00585229 0.07041653
v -0.00130527 -0.00742012 0.04215539
v 0.00742097 0.00003672 0.04277310
v 0.00495254 -0.00525718 0.04138752
v -0.00161430 0.00806419 0.05318089
v -0.00467735 0.00532240 0.07222524
v 0.00551351 -0.00680126 0.07009389
v 0.00629291 0.00406955 0.07202309
v -0.00779096 0.00080663 0.07161192
v -0.00499265 -0.00720450 0.07009257
v -0.00419476 -0.00612991 0.04090120
v -0.00623021 -0.00403215 0.04014788
v 0.00775493 0.00263184 0.05944633
v 0.00177442 -0.00821508 0.07138414
v 0.00680525 -0.00424134 0.05009684
v -0.00382248 -0.00771601 0.07149775
v -0.00723375 -0.00274224 0.07193568
v -0.00443960 0.00704390 0.07073905
v -0.00145157 0.00775449 0.07126234
v 0.00403222 -0.00661273 0.07199371
v 0.00209700 0.00734540 0.07179681
v -0.00241903 -0.00784193 0.05074107
v 0.00678969 -0.00550263 0.07041647
v -0.00551164 0.00583529 0.04171021
v -0.00435418 0.00721473 0.05074029
v -0.00743807 0.00261709 0.04088817
v -0.00717208 0.00431479 0.07106175
v 0.00816932 -0.00177383 0.07041662
v 0.00307491 -0.00794697 0.05267520
v 0.00649393 0.00306416 0.04053303
v -0.00792513 -0.00048357 0.04171041
v 0.00103498 0.00776535 0.04180073
v -0.00680770 -0.00361340 0.04170893
v -0.00161446 -0.00838668 0.07090081
v -0.00702190 0.00473095 0.05041808
v 0.00521097 0.00649103 0.07041556
v 0.00761874 -0.00241883 0.05009574
v -0.00816812 0.00177392 0.05073996
v -0.00814637 -0.00145136 0.05073996
v -0.00817249 0.00112886 0.05525618
v 0.00725790 0.00048444 0.07196584
v 0.00776880 0.00112862 0.05074061
v -0.00806641 0.00258746 0.05396583
v -0.00811465 0.00112886 0.07009353
f 96 36 39
f 108 119 15
f 3 96 110
f 36 96 3
f 3 109 43
f 15 109 3
f 3 108 15
f 117 13 54
f 61 41 100
f 112 34 12
f 101 75 93
f 70 101 93
f 9 101 70
f 100 41 85
f 54 13 85
f 85 9 54
f 57 122 23
f 123 70 23
f 51 122 127
f 93 75 111
f 119 51 111
f 119 108 45
f 110 51 45
f 45 51 119
f 45 3 110
f 108 3 45
f 95 96 39
f 116 36 77
f 36 3 77
f 13 117 10
f 10 117 96
f 96 95 10
f 10 76 13
f 10 95 76
f 123 23 115
f 54 123 115
f 115 23 122
f 75 101 40
f 103 79 2
f 105 103 2
f 24 34 112
f 112 55 24
f 31 83 32
f 32 8 31
f 112 12 72
f 35 70 123
f 9 70 35
f 35 123 54
f 54 9 35
f 100 85 94
f 13 76 94
f 94 85 13
f 57 23 124
f 124 23 70
f 70 128 124
f 43 109 27
f 109 79 27
f 38 83 31
f 38 103 83
f 79 103 38
f 2 79 102
f 102 109 15
f 102 79 109
f 62 77 3
f 62 43 31
f 62 3 43
f 116 77 62
f 31 8 62
f 96 117 47
f 110 96 47
f 47 115 110
f 47 117 54
f 54 115 47
f 110 115 21
f 21 115 122
f 21 51 110
f 122 51 21
f 41 61 81
f 61 40 81
f 81 40 101
f 81 101 9
f 81 85 41
f 9 85 81
f 20 68 120
f 20 105 68
f 20 32 83
f 83 103 20
f 103 105 20
f 8 32 20
f 48 105 2
f 68 105 48
f 48 92 68
f 104 4 50
f 50 4 107
f 67 92 11
f 92 48 11
f 91 4 60
f 107 4 91
f 91 28 107
f 39 19 86
f 86 95 39
f 76 95 86
f 86 106 76
f 22 118 100
f 100 94 22
f 22 37 118
f 106 37 22
f 99 24 107
f 60 4 113
f 52 19 113
f 39 59 65
f 65 19 39
f 65 113 19
f 67 33 42
f 42 92 67
f 120 68 42
f 68 92 42
f 73 33 67
f 18 51 127
f 18 111 51
f 93 111 18
f 18 70 93
f 18 128 70
f 127 122 17
f 17 18 127
f 128 18 17
f 66 27 79
f 66 38 31
f 79 38 66
f 44 111 2
f 2 102 44
f 44 102 15
f 15 119 44
f 119 111 44
f 75 40 90
f 40 48 90
f 90 48 2
f 2 111 90
f 90 111 75
f 67 11 74
f 74 55 112
f 112 72 74
f 55 74 125
f 125 74 11
f 84 48 40
f 84 11 48
f 84 40 61
f 84 61 104
f 84 125 11
f 55 125 84
f 104 50 84
f 84 24 55
f 107 24 84
f 84 50 107
f 4 56 1
f 52 113 1
f 1 113 4
f 118 56 98
f 98 56 4
f 98 61 100
f 100 118 98
f 104 61 98
f 98 4 104
f 25 91 60
f 60 113 25
f 25 113 28
f 30 37 106
f 106 86 30
f 30 19 52
f 30 86 19
f 46 94 76
f 46 22 94
f 76 106 46
f 106 22 46
f 107 28 82
f 82 99 107
f 28 99 82
f 34 24 58
f 24 99 58
f 88 99 28
f 28 113 88
f 113 65 88
f 33 16 69
f 120 42 69
f 69 42 33
f 69 20 120
f 71 36 116
f 116 16 71
f 6 124 128
f 128 17 6
f 6 17 122
f 6 122 57
f 57 124 6
f 31 43 89
f 89 66 31
f 43 27 14
f 27 66 14
f 14 89 43
f 66 89 14
f 126 74 72
f 126 72 12
f 12 87 126
f 126 87 73
f 118 37 80
f 80 56 118
f 80 1 56
f 52 1 80
f 28 91 64
f 64 25 28
f 91 25 64
f 59 87 121
f 34 58 121
f 121 12 34
f 121 87 12
f 99 88 5
f 59 121 5
f 5 65 59
f 5 88 65
f 5 58 99
f 5 121 58
f 8 20 78
f 20 69 78
f 78 69 16
f 78 16 116
f 116 62 78
f 78 62 8
f 33 73 114
f 114 16 33
f 114 59 39
f 7 73 67
f 7 97 73
f 74 126 26
f 97 7 26
f 73 97 26
f 26 126 73
f 37 30 63
f 63 80 37
f 63 30 52
f 52 80 63
f 73 87 29
f 29 114 73
f 29 87 59
f 59 114 29
f 49 71 16
f 16 114 49
f 36 71 49
f 39 36 49
f 49 114 39
f 67 74 53
f 74 26 53
f 53 7 67
f 53 26 7

