# https://github.com/mikedh/trimesh
v -0.03023811 0.00180983 -0.06019365
v 0.01861365 -0.00178951 0.05834153
v -0.02047686 0.02409011 0.01626178
v 0.03153454 -0.00178736 -0.05335231
v -0.00601407 -0.03120200 0.01745582
v -0.00179316 -0.03158759 -0.05095073
v 0.00180877 0.03176999 -0.05335375
v 0.02062364 0.02420196 0.02466873
v 0.02858981 -0.01391384 0.02226878
v -0.01908073 0.00061379 0.05741940
v -0.03001145 -0.00961829 0.02826780
v 0.00060794 0.01936480 0.05787093
v -0.00133283 -0.01921462 0.05771860
v -0.00299476 0.03046684 0.03427435
v 0.02001680 -0.02337192 -0.05957165
v 0.02278001 0.02037650 -0.05992828
v -0.02188671 0.02310128 -0.05095476
v -0.02272498 -0.02151767 -0.05856176
v 0.01195047 -0.02874327 0.03360742
v 0.03028004 0.00532250 0.03434200
v -0.02781889 0.01261629 0.03401411
v -0.01732370 -0.02541552 0.03417798
v 0.01728929 -0.02671919 0.01626311
v -0.01820246 0.02537343 0.03251888
v -0.01019592 0.02462031 -0.06171274
v -0.00511052 0.03127648 0.01866197
v -0.00299346 -0.03129874 0.03279290
v 0.01445243 0.01326593 0.05891979
v -0.02114878 -0.02354857 0.01986221
v 0.01261167 -0.02910399 -0.04855451
v 0.02788933 -0.01491763 -0.04855451
v 0.01236402 -0.01469772 0.05794312
v -0.02219593 0.01381185 -0.06177389
v -0.01380300 -0.01258576 0.05812469
v 0.01112762 0.02894660 0.03388010
v -0.01340604 0.01345135 0.05676877
v 0.00660530 -0.02698657 -0.06155569
v 0.02338554 -0.02096199 0.03300937
v 0.02461134 -0.01018616 -0.06173545
v 0.01020771 0.02461427 -0.06171077
v 0.02701495 0.00780783 -0.06145282
v -0.01139472 -0.02858403 -0.05962642
v 0.03012977 -0.00753116 0.03384938
v -0.02927947 0.01261889 -0.05095476
v -0.03012872 -0.00995392 -0.05575522
v -0.03132539 0.00301491 0.02706961
v 0.02657129 0.01705208 0.03280186
v -0.01011848 0.03020165 -0.05095476
v 0.00526797 0.03129346 0.02466873
v -0.02532147 -0.01816837 0.03307366
v -0.01318942 -0.02878517 0.02466977
v -0.02649575 0.01696501 0.02466942
v 0.02117363 -0.02358793 -0.04855451
v 0.01723478 0.02670098 -0.05455510
v -0.01488718 0.02788861 0.02346933
v -0.00059350 0.02701950 -0.06165071
v 0.03017276 0.01010390 0.02586857
v 0.02310400 -0.02190106 0.02226878
v -0.01957545 0.02314341 -0.06017705
v 0.01941070 0.02418240 0.03390247
v 0.02851888 0.01381577 -0.05455354
v -0.00179230 -0.03026588 -0.06025153
v 0.00300986 -0.03162844 0.01746424
v -0.03031920 -0.00298911 0.03420252
v 0.00540947 -0.03130640 0.02826754
v 0.02616992 -0.01762673 -0.05695575
v 0.02701495 -0.00178294 -0.06166993
v 0.01728697 -0.02670780 0.02706641
v -0.02657481 -0.01706283 0.02467037
v -0.02459353 -0.01379098 -0.06137506
v 0.01922582 0.00605037 0.05530457
v -0.00779611 0.03059650 0.02706961
v 0.03005200 -0.00969761 -0.05455510
v 0.01004075 0.03015966 -0.05575645
v -0.02403012 0.01981908 0.03251888
v -0.02699714 -0.00538173 -0.06161402
v -0.02886461 0.00982726 -0.06002416
v 0.02800323 -0.01499140 0.03066981
v 0.00781172 -0.03061052 -0.05455510
v -0.00525068 0.03129183 -0.05695686
v 0.03172866 -0.00058836 0.02946867
v -0.03128638 0.00533627 -0.05335397
v -0.01631024 0.02733101 -0.05455561
v -0.02167986 0.02289768 0.02586952
v 0.01494369 -0.02787801 -0.05575645
v -0.01256813 0.02907557 0.01626178
v -0.02175322 -0.02294184 0.02826780
v -0.02522857 0.01925436 -0.05695686
v -0.01091175 0.02886732 0.03375522
v -0.00659492 0.01727701 0.05799880
v -0.01767114 -0.02617680 -0.05575403
v 0.01706984 -0.00898861 0.05793719
v 0.01392646 0.02858369 0.02706842
v -0.03013629 0.00541553 0.03392121
v 0.00414038 0.03128654 0.03187477
v -0.01008331 -0.02964468 0.03296323
v -0.03155999 -0.00298916 -0.05455561
v 0.03123396 0.00491893 -0.05575477
v 0.00541066 -0.01739228 0.05841774
v -0.00779596 -0.01619309 0.05845537
v 0.01261133 -0.02338778 -0.06174179
v 0.02100893 -0.01619018 -0.06176537
v -0.02642417 0.01804771 -0.04768792
v -0.01728539 0.02673387 -0.04735390
v -0.01805272 -0.00611812 0.05655301
v 0.01810255 -0.02526166 0.03378394
v 0.01620772 0.01980985 -0.06174223
v 0.02221375 0.01381185 -0.06171907
v -0.02724267 -0.01619471 -0.05575522
v -0.02927900 0.01141483 0.02706961
v -0.00179525 0.03161812 0.02466942
v -0.00779591 -0.03058834 -0.05454871
v 0.00546674 0.02952118 -0.06037319
v 0.02479692 0.01991812 0.02706842
v 0.00545633 -0.03029637 0.03437210
v 0.02913655 0.01152591 0.03318364
v -0.02908063 -0.00893689 0.03431151
v 0.00420950 -0.03138669 -0.04975381
v -0.03123428 -0.00381457 0.02707097
v 0.02523446 0.01924436 -0.05455510
v -0.01688767 0.00856223 0.05658267
v 0.03014564 -0.00999618 0.02826754
v 0.00980826 0.01695118 0.05898215
v 0.00180862 -0.03156624 -0.05575645
v 0.03004712 -0.00659017 -0.05957165
v 0.02530457 -0.01930793 0.02706641
v 0.02191230 -0.02308670 0.01626311
v 0.01620772 0.02554261 -0.06021156
f 61 47 57
f 8 60 114
f 114 60 47
f 82 1 97
f 81 57 20
f 20 43 81
f 2 43 20
f 2 20 71
f 92 43 2
f 38 92 32
f 123 34 100
f 44 103 88
f 29 91 51
f 42 91 18
f 18 91 29
f 120 47 61
f 120 114 47
f 120 54 8
f 8 114 120
f 24 89 55
f 125 4 73
f 15 102 125
f 7 49 74
f 54 128 74
f 93 49 95
f 93 60 8
f 93 74 49
f 8 54 93
f 54 74 93
f 116 71 20
f 116 57 47
f 116 20 57
f 43 92 78
f 92 38 78
f 90 89 24
f 24 36 90
f 90 34 123
f 123 100 28
f 2 71 28
f 28 60 123
f 47 60 28
f 28 116 47
f 71 116 28
f 13 100 96
f 34 50 22
f 96 100 22
f 22 100 34
f 22 51 96
f 77 82 44
f 44 88 77
f 1 82 77
f 16 128 54
f 54 120 16
f 16 120 61
f 111 14 95
f 7 80 111
f 111 49 7
f 95 49 111
f 83 55 86
f 17 88 103
f 103 84 17
f 83 88 17
f 39 102 108
f 39 125 102
f 4 125 98
f 61 57 98
f 98 57 81
f 81 4 98
f 15 125 66
f 66 125 73
f 113 74 128
f 128 40 113
f 113 80 7
f 7 74 113
f 35 93 95
f 60 93 35
f 123 60 35
f 101 102 15
f 97 1 45
f 1 76 45
f 107 40 128
f 107 16 108
f 128 16 107
f 108 102 107
f 25 40 107
f 112 91 42
f 112 51 91
f 62 112 42
f 68 19 30
f 43 78 122
f 81 43 122
f 122 4 81
f 73 4 122
f 68 38 106
f 106 19 68
f 106 38 32
f 32 19 106
f 58 38 68
f 68 127 58
f 12 14 89
f 89 90 12
f 12 90 123
f 95 14 12
f 123 35 12
f 12 35 95
f 100 13 99
f 99 19 32
f 32 92 99
f 99 92 2
f 2 28 99
f 99 28 100
f 115 19 99
f 99 13 115
f 27 13 96
f 115 13 27
f 29 51 87
f 51 22 87
f 87 22 50
f 50 69 87
f 87 18 29
f 44 82 110
f 59 77 88
f 59 88 83
f 59 80 25
f 83 80 59
f 67 39 108
f 125 39 67
f 89 14 72
f 14 111 72
f 72 55 89
f 72 86 55
f 3 17 84
f 24 55 3
f 3 84 24
f 31 66 73
f 56 40 25
f 56 113 40
f 25 80 56
f 80 113 56
f 18 87 109
f 109 87 69
f 65 19 115
f 115 27 65
f 65 27 63
f 65 30 19
f 37 101 15
f 76 101 37
f 15 66 53
f 53 58 127
f 66 58 53
f 85 37 15
f 62 37 85
f 15 53 85
f 118 65 63
f 126 58 66
f 126 31 78
f 66 31 126
f 126 78 38
f 38 58 126
f 6 63 5
f 63 27 5
f 5 112 6
f 5 27 96
f 96 51 5
f 51 112 5
f 75 36 24
f 75 121 36
f 24 84 75
f 105 50 34
f 105 117 50
f 11 69 50
f 50 117 11
f 11 109 69
f 45 109 11
f 33 59 25
f 77 59 33
f 33 101 76
f 33 76 1
f 1 77 33
f 102 101 33
f 25 107 33
f 33 107 102
f 41 16 61
f 61 98 41
f 108 16 41
f 41 67 108
f 41 98 125
f 125 67 41
f 26 111 80
f 26 72 111
f 86 72 48
f 48 80 83
f 83 86 48
f 48 26 80
f 72 26 48
f 83 17 104
f 17 3 104
f 104 55 83
f 104 3 55
f 9 122 78
f 78 31 9
f 73 122 9
f 9 31 73
f 76 37 70
f 42 18 70
f 70 62 42
f 70 37 62
f 70 45 76
f 18 109 70
f 70 109 45
f 23 85 53
f 23 127 68
f 23 53 127
f 68 30 23
f 30 85 23
f 124 63 6
f 124 118 63
f 6 112 124
f 112 62 124
f 121 75 21
f 21 110 94
f 21 75 110
f 52 84 103
f 52 75 84
f 110 75 52
f 52 103 44
f 44 110 52
f 10 105 34
f 34 90 10
f 10 90 36
f 36 121 10
f 10 21 94
f 121 21 10
f 117 105 10
f 97 45 119
f 45 11 119
f 118 124 79
f 79 85 30
f 62 85 79
f 79 124 62
f 30 65 79
f 65 118 79
f 64 10 94
f 117 10 64
f 64 11 117
f 64 119 11
f 46 110 82
f 94 110 46
f 46 82 97
f 97 119 46
f 46 64 94
f 119 64 46

