# https://github.com/mikedh/trimesh
v 0.00708239 -0.06518128 -0.03070908
v 0.01105968 -0.06465689 -0.03070908
v 0.01105968 -0.06438498 -0.03192955
v 0.01236705 -0.06429758 -0.03182900
v 0.01236705 -0.06448209 -0.03070908
v 0.01105968 -0.06346243 -0.03245075
v 0.01236705 -0.06346243 -0.03237553
v 0.01325420 -0.06421018 -0.03162712
v 0.01497755 -0.06320995 -0.03193953
v 0.01336880 -0.06425874 -0.03070908
v 0.00975231 -0.06346243 -0.03246841
v 0.01497755 -0.06216116 -0.03245459
v 0.02151016 -0.05954890 -0.03244154
v 0.01889542 -0.06085017 -0.03236171
v 0.01402249 -0.06399654 -0.03070908
v 0.01604722 -0.06298659 -0.03173151
v 0.02250343 -0.06034520 -0.03169851
v 0.01971040 -0.06157850 -0.03156264
v 0.02151016 -0.06054913 -0.03191804
v 0.01889542 -0.06174359 -0.03181672
v 0.01236705 0.03187064 -0.03246534
v 0.02412066 -0.05824762 -0.03246610
v 0.04893100 -0.01384884 -0.03247071
v 0.02412066 -0.05935467 -0.03195719
v 0.01625521 -0.06307399 -0.03070908
v 0.02412066 -0.05981109 -0.03070908
v 0.02512666 -0.05911190 -0.03175915
v 0.02151016 -0.06089873 -0.03070908
v 0.01367018 0.03187064 -0.03235250
v 0.01628492 0.03055965 -0.03243233
v 0.01889542 0.02925837 -0.03244845
v 0.03325952 0.02011059 -0.03243540
v 0.03587002 0.01749833 -0.03243693
v 0.04762363 -0.00339978 -0.03246917
v 0.03456265 -0.05041082 -0.03245920
v 0.02803853 -0.05563535 -0.03242235
v 0.02673116 -0.05693663 -0.03230798
v 0.02550868 -0.05833502 -0.03205928
v 0.04893100 -0.01253785 -0.03245229
v 0.05001340 -0.01515012 -0.03197024
v 0.04893100 -0.01515012 -0.03245920
v 0.04240264 -0.03996177 -0.03245536
v 0.02530069 -0.05921872 -0.03070908
v 0.02595438 -0.05881085 -0.03070908
v 0.02932043 -0.05564506 -0.03201322
v 0.02794090 -0.05688808 -0.03185663
v 0.02887474 -0.05642195 -0.03167241
v 0.02744003 -0.05763582 -0.03147974
v 0.02281329 0.02794739 -0.03240930
v 0.02673116 0.02533512 -0.03243310
v 0.03195215 0.02142158 -0.03242312
v 0.03463906 0.02019799 -0.03206081
v 0.03595067 0.01886758 -0.03205928
v 0.03717739 0.01619705 -0.03241544
v 0.04109526 0.01097253 -0.03242926
v 0.04501313 0.00313573 -0.03244615
v 0.04632050 0.00052347 -0.03240546
v 0.04762363 -0.00208879 -0.03227958
v 0.04860416 -0.00339978 -0.03196103
v 0.04893100 -0.01123657 -0.03237860
v 0.03587427 -0.05038169 -0.03199710
v 0.03452020 -0.05171210 -0.03198022
v 0.03325952 -0.05171210 -0.03239779
v 0.03978789 -0.04387531 -0.03243463
v 0.03587002 -0.04909984 -0.03241544
v 0.04994549 -0.01384884 -0.03196947
v 0.05043787 -0.01515012 -0.03070908
v 0.04994124 -0.01645139 -0.03192265
v 0.04893100 -0.01645139 -0.03241544
v 0.04370576 -0.03734950 -0.03231182
v 0.04370576 -0.03865078 -0.03213757
v 0.04373548 -0.03984523 -0.03185663
v 0.04250875 -0.04136015 -0.03206158
v 0.04109526 -0.04257403 -0.03233945
v 0.02673116 -0.05821848 -0.03070908
v 0.03031369 -0.05521778 -0.03175608
v 0.03405753 -0.05247927 -0.03162789
v 0.03261857 -0.05368344 -0.03139607
v 0.02542803 0.02664611 -0.03236555
v 0.03064478 0.02272286 -0.03232794
v 0.03325103 0.02144100 -0.03202550
v 0.03425279 0.02102343 -0.03176222
v 0.03556440 0.01981926 -0.03176989
v 0.03676990 0.01847914 -0.03175761
v 0.03719437 0.01747891 -0.03201476
v 0.03848476 0.01488607 -0.03230721
v 0.04240264 0.00966154 -0.03235173
v 0.04370576 0.00704927 -0.03236708
v 0.04726707 0.00052347 -0.03188043
v 0.04844286 -0.00208879 -0.03173151
v 0.04893100 -0.00339978 -0.03070908
v 0.04962289 -0.00897391 -0.03149893
v 0.04968656 -0.00992559 -0.03167471
v 0.04977145 -0.01123657 -0.03184435
v 0.04986059 -0.01253785 -0.03193569
v 0.03717739 -0.04779856 -0.03229186
v 0.03981760 -0.04517659 -0.03203088
v 0.04106131 -0.04379762 -0.03189962
v 0.04060712 -0.04473959 -0.03169774
v 0.03665529 -0.04992528 -0.03165936
v 0.03544131 -0.05127511 -0.03174073
v 0.05033600 -0.01645139 -0.02940263
v 0.05029780 -0.01645139 -0.03070908
v 0.05030628 -0.01384884 -0.03070908
v 0.04841315 -0.02918254 -0.02906412
v 0.04848955 -0.02809490 -0.02946097
v 0.04821789 -0.02846392 -0.02993457
v 0.04713549 -0.03212498 -0.03027769
v 0.04564984 -0.03531019 -0.03131625
v 0.04474147 -0.03734950 -0.03180827
v 0.04451226 -0.03865078 -0.03158183
v 0.04331525 -0.04099114 -0.03176913
v 0.02746549 -0.05765525 -0.03070908
v 0.03555591 -0.05138193 -0.03070908
v 0.03478338 -0.05203257 -0.03070908
v 0.03413393 -0.05253754 -0.03070908
v 0.02542803 0.02763664 -0.03182900
v 0.02667173 0.02662669 -0.03194491
v 0.02805551 0.02538368 -0.03204469
v 0.03186726 0.02269373 -0.03189117
v 0.03281383 0.02222760 -0.03169313
v 0.03639212 0.01928516 -0.03070908
v 0.03797540 0.01703220 -0.03167702
v 0.04192298 0.01185623 -0.03171079
v 0.04237717 0.01089484 -0.03192188
v 0.04112922 0.01228351 -0.03203702
v 0.04335770 0.00966154 -0.03181134
v 0.04377368 0.00833113 -0.03196026
v 0.04460564 0.00704927 -0.03183207
v 0.04607006 0.00313573 -0.03194337
v 0.04707606 0.00142659 -0.03164401
v 0.04831127 -0.00136047 -0.03146439
v 0.04860840 -0.00208879 -0.03070908
v 0.04180838 -0.04330236 -0.03152964
v 0.03620960 -0.05066331 -0.03070908
v 0.03786079 -0.04848804 -0.03145518
v 0.04958893 -0.02237511 -0.02872561
v 0.04958893 -0.02237511 -0.02876552
v 0.04862963 -0.02820172 -0.02809771
v 0.04702512 -0.03290186 -0.02940263
v 0.04731377 -0.03212498 -0.02940263
v 0.04701664 -0.03288244 -0.03012647
v 0.04437218 -0.03934027 -0.03139070
v 0.04344683 -0.04118536 -0.03070908
v 0.02763528 0.02617998 -0.03172307
v 0.03918090 0.01559497 -0.03148742
v 0.04312848 0.01040929 -0.03155727
v 0.04443585 0.00788442 -0.03158107
v 0.04755996 0.00052347 -0.03070908
v 0.04805234 -0.00067099 -0.03070908
v 0.04832401 -0.00133134 -0.03070908
v 0.04420239 0.00862246 -0.03070908
v 0.04447405 0.00797182 -0.03070908
v 0.04299689 -0.04183600 -0.03070908
v 0.04243659 -0.04257403 -0.03070908
v 0.03672321 -0.05001267 -0.03070908
v 0.04134146 -0.04400155 -0.03070908
v 0.03737690 -0.04916782 -0.03070908
v 0.04675771 -0.03356220 -0.02940263
v 0.04466506 -0.03865078 -0.03070908
v 0.04438067 -0.03934997 -0.03070908
v 0.04410052 -0.04000061 -0.03070908
v 0.04316668 0.01046755 -0.03070908
v 0.04365907 0.00966154 -0.03070908
v 0.05020210 -0.01558351 0.02936601
v 0.04289273 -0.04171363 0.03067261
v 0.04177764 -0.04326442 0.03029291
v 0.04171926 -0.04318759 0.03116398
v 0.04050492 -0.04461034 0.03137616
v 0.05013788 -0.01645423 0.03067261
v 0.05018069 -0.01645423 0.02936601
v 0.04334810 -0.04105917 0.03067261
v 0.04321383 -0.04086852 0.03144317
v 0.04204035 -0.04231687 0.03149342
v 0.04079294 -0.04387904 0.03152692
v 0.05015345 -0.01558351 0.03067261
v 0.04976035 -0.01645423 0.03152134
v 0.04958909 -0.01975215 0.03133149
v 0.04953655 -0.02062287 0.03114723
v 0.04998414 -0.01776031 0.03067261
v 0.04963580 -0.02140822 0.03027616
v 0.04394359 -0.03996081 0.03067261
v 0.04445930 -0.03830189 0.03140408
v 0.04345514 -0.03996081 0.03158276
v 0.04240232 -0.03996081 0.03214672
v 0.04244708 -0.04128965 0.03169444
v 0.04120939 -0.04268109 0.03178378
v 0.03979267 -0.04387904 0.03203505
v 0.04885154 -0.02690286 0.03067261
v 0.04976618 -0.01558351 0.03152692
v 0.04851098 -0.02690286 0.03152134
v 0.04893327 -0.01645423 0.03195129
v 0.04893327 -0.01776031 0.03189545
v 0.04893327 -0.01906638 0.03183403
v 0.04881846 -0.02167854 0.03175028
v 0.04874256 -0.02298462 0.03170002
v 0.04858882 -0.02559678 0.03158276
v 0.04842341 -0.02820894 0.03144875
v 0.04834362 -0.02905120 0.03138174
v 0.04968251 -0.02026149 0.03069494
v 0.04430361 -0.03917545 0.03067261
v 0.04570867 -0.03550762 0.03136500
v 0.04380348 -0.03870310 0.03171119
v 0.04370812 -0.03734865 0.03208530
v 0.04370812 -0.03604257 0.03228632
v 0.04240232 -0.03865473 0.03233657
v 0.04109652 -0.04126689 0.03227515
v 0.04866083 -0.02820894 0.03067261
v 0.04762747 -0.02690286 0.03210205
v 0.04762747 -0.02037246 0.03229190
v 0.04762747 -0.02167854 0.03228073
v 0.04762747 -0.02298462 0.03224723
v 0.04762747 -0.02429070 0.03220814
v 0.04762747 -0.02559678 0.03216347
v 0.04762747 -0.02820894 0.03196246
v 0.04695414 -0.03273042 0.03113606
v 0.04841757 -0.02922193 0.03067261
v 0.04768780 -0.02949795 0.03166652
v 0.04643843 -0.03222677 0.03174469
v 0.04698917 -0.03281294 0.03027058
v 0.04501392 -0.03473649 0.03196804
v 0.04631972 -0.03081825 0.03212439
v 0.04501392 -0.03343041 0.03221931
v 0.04631972 -0.02951502 0.03230865
v 0.04501392 -0.03212433 0.03235332
v 0.04370812 -0.03473649 0.03238682
v 0.04240232 -0.03734865 0.03240357
v 0.04109652 -0.03996081 0.03241474
v 0.03979267 -0.04257297 0.03235332
v 0.04631972 -0.02820894 0.03238682
v 0.04631972 -0.02690286 0.03240916
v 0.04501392 -0.03081825 0.03240916
v 0.03848687 -0.04387904 0.03240357
v 0.05021193 -0.01514582 0.02936577
v 0.04959966 -0.00916603 0.03007483
v 0.05015944 -0.01514582 0.03067223
v 0.05015361 -0.01558351 0.03067223
v 0.04869196 -0.00339086 0.02936577
v 0.04964825 -0.00992203 0.03025908
v 0.05002144 -0.01383845 0.03067223
v 0.04868029 -0.00339086 0.03067223
v 0.04958217 -0.01190298 0.03131988
v 0.04963465 -0.01277266 0.03138688
v 0.04970073 -0.01383845 0.03145946
v 0.04976682 -0.01514582 0.03152646
v 0.05002727 -0.01558351 0.03095697
v 0.04309801 0.01037631 0.03014742
v 0.04828184 -0.00142413 0.03003017
v 0.04973572 -0.01122656 0.03053824
v 0.04953941 -0.01122656 0.03119147
v 0.04840623 -0.00214034 0.03054940
v 0.04832654 -0.00261497 0.03138129
v 0.04945583 -0.00992203 0.03091231
v 0.04839263 -0.00339086 0.03145387
v 0.04847621 -0.00469823 0.03153204
v 0.04855590 -0.00600276 0.03160462
v 0.04863948 -0.00731013 0.03167162
v 0.04872111 -0.00861466 0.03172745
v 0.04880275 -0.00992203 0.03177211
v 0.04888632 -0.01122656 0.03179445
v 0.04893297 -0.01383845 0.03190053
v 0.04893297 -0.01514582 0.03195636
v 0.04055955 0.01309052 0.03142596
v 0.04174520 0.01162115 0.03131430
v 0.04335069 0.00968567 0.03061640
v 0.04440806 0.00782125 0.03016975
v 0.04293085 0.01013473 0.03101839
v 0.04814384 -0.00174244 0.03090114
v 0.04690182 0.00102577 0.03114122
v 0.04425451 0.00745178 0.03104072
v 0.04566563 0.00378830 0.03132546
v 0.04443527 0.00657925 0.03140363
v 0.04709619 0.00015609 0.03145387
v 0.04729055 -0.00078181 0.03161020
v 0.04767541 -0.00214034 0.03171628
v 0.04762681 -0.00339086 0.03200102
v 0.04762681 -0.00469823 0.03211827
v 0.04762681 -0.00600276 0.03218527
v 0.04762681 -0.00731013 0.03222993
v 0.04762681 -0.00861466 0.03226902
v 0.04762681 -0.00992203 0.03229135
v 0.03980151 0.01345147 0.03171628
v 0.04206008 0.01074862 0.03156554
v 0.04320297 0.00926504 0.03147621
v 0.04404459 0.00829872 0.03063315
v 0.04341289 0.00836125 0.03163812
v 0.04461020 0.00574935 0.03156554
v 0.04608158 0.00183009 0.03168837
v 0.04632065 -0.00078181 0.03219644
v 0.04632065 -0.00208634 0.03235835
v 0.04632065 -0.00339086 0.03240301
v 0.04245853 0.00968567 0.03173862
v 0.03979179 0.01227768 0.03211269
v 0.04240217 0.00836125 0.03210152
v 0.04370833 0.00574935 0.03205127
v 0.04501449 0.00183009 0.03224668
v 0.04370833 0.00444198 0.03227460
v 0.04501449 0.00052272 0.03238068
v 0.03979179 0.01097315 0.03229693
v 0.04109601 0.00966578 0.03221877
v 0.04240217 0.00705388 0.03225785
v 0.04370833 0.00313746 0.03236393
v 0.03786867 0.01690733 0.03135826
v 0.03937129 0.01456407 0.03150343
v 0.03914819 0.01556061 0.03008519
v 0.03666133 0.01835411 0.03142526
v 0.03712720 0.01740760 0.03156485
v 0.03794413 0.01700339 0.03067147
v 0.03678600 0.01851420 0.03067147
v 0.03628403 0.01916655 0.03067147
v 0.03979779 0.01355152 0.03168211
v 0.03545398 0.01971885 0.03146993
v 0.03588377 0.01879835 0.03165419
v 0.03717641 0.01619895 0.03200038
v 0.03563115 0.01989895 0.03067147
v 0.03848218 0.01358754 0.03223489
v 0.03412525 0.02092150 0.03142526
v 0.03456160 0.02013908 0.03165978
v 0.03456488 0.01881236 0.03220139
v 0.03587065 0.01750566 0.03213438
v 0.03717641 0.01489425 0.03231864
v 0.03269481 0.02214216 0.03137501
v 0.03076569 0.02285254 0.03177703
v 0.03195334 0.02142377 0.03202830
v 0.03325911 0.02011707 0.03214555
v 0.03195334 0.02244232 0.03152018
v 0.03064758 0.02142377 0.03235215
v 0.03195334 0.02011707 0.03240240
v 0.03325911 0.01881236 0.03241357
v 0.03456488 0.01750566 0.03240240
v 0.03587065 0.01619895 0.03237448
v 0.02150720 0.02664659 0.03239123
v 0.02609379 0.02731295 0.03133592
v 0.02542122 0.02664659 0.03193337
v 0.02673027 0.02533989 0.03206738
v 0.02803604 0.02403318 0.03217905
v 0.02934181 0.02273048 0.03227398
v 0.02542122 0.02533989 0.03237448
v 0.02673027 0.02403318 0.03240798
v 0.02281297 0.02664659 0.03238006
v 0.01889567 0.02795129 0.03236890
v 0.02542122 0.02750906 0.03146993
v 0.02404000 0.02798131 0.03162069
v 0.02411546 0.02664659 0.03226281
v 0.02020144 0.02795129 0.03233540
v 0.01628413 0.02925800 0.03232423
v 0.00714048 0.03186941 0.03222372
v 0.02281297 0.02795129 0.03194454
v 0.02150720 0.02795129 0.03219022
v 0.01758990 0.02925800 0.03224047
v 0.01367260 0.03056471 0.03221814
v 0.00844625 0.03186941 0.03216789
v 0.00975201 0.03186941 0.03210647
v 0.01889567 0.02925800 0.03206180
v 0.01497836 0.03056471 0.03210647
v 0.01105778 0.03186941 0.03202271
v 0.01236683 0.03186941 0.03190546
v 0.03662583 -0.04989049 0.03036754
v 0.04044003 -0.04465302 0.03139510
v 0.03649113 -0.04971769 0.03123873
v 0.03540043 -0.05123709 0.02936791
v 0.03611990 -0.05036120 0.03075287
v 0.03539057 -0.05122914 0.03067469
v 0.03928033 -0.04602147 0.03143419
v 0.03525916 -0.05110203 0.03136159
v 0.04013121 -0.04465302 0.03156263
v 0.03848529 -0.04647034 0.03167991
v 0.03401733 -0.05245062 0.03027819
v 0.03449698 -0.05193820 0.03069703
v 0.03683281 -0.04884776 0.03154029
v 0.03554827 -0.05041284 0.03155146
v 0.03456597 -0.05041284 0.03205407
v 0.03456597 -0.05136619 0.03154587
v 0.03152710 -0.05385284 0.03147886
v 0.03010129 -0.05506439 0.03140626
v 0.02867220 -0.05627395 0.03129457
v 0.03382678 -0.05229968 0.03114938
v 0.03723032 -0.04783880 0.03176926
v 0.03598192 -0.04921321 0.03185303
v 0.02883318 -0.05639709 0.03042339
v 0.02739423 -0.05760268 0.03006039
v 0.03333728 -0.05180711 0.03184744
v 0.03848201 -0.04518729 0.03216018
v 0.03717776 -0.04649418 0.03226070
v 0.03587022 -0.04779907 0.03234446
v 0.03456597 -0.04910596 0.03240031
v 0.03325843 -0.05041284 0.03240031
v 0.03195418 -0.05171774 0.03235005
v 0.03064665 -0.05302462 0.03225511
v 0.02934240 -0.05432952 0.03213225
v 0.03195747 -0.05305441 0.03176367
v 0.03058094 -0.05430369 0.03166315
v 0.02934240 -0.05536032 0.03160172
v 0.02635280 -0.05780130 0.03150120
v 0.02490400 -0.05897908 0.03141185
v 0.02575488 -0.05865931 0.03067469
v 0.02510112 -0.05910023 0.03067469
v 0.03770997 -0.04465302 0.03241148
v 0.03064665 -0.05171774 0.03242265
v 0.02934240 -0.05302462 0.03240589
v 0.02803486 -0.05432952 0.03236122
v 0.02672732 -0.05563441 0.03230537
v 0.02542307 -0.05694130 0.03223277
v 0.02537379 -0.05824023 0.03168549
v 0.02676346 -0.05699691 0.03178601
v 0.02780161 -0.05659769 0.03156263
v 0.02411554 -0.05914592 0.03156263
v 0.02220351 -0.06022241 0.03134483
v 0.02411554 -0.05956301 0.03067469
v 0.01318545 -0.06418874 0.03030611
v 0.00844810 -0.06216486 0.03238356
v 0.01759100 -0.05955308 0.03238914
v 0.02150704 -0.05824619 0.03234446
v 0.02281457 -0.05824619 0.03224953
v 0.02411554 -0.05824619 0.03207082
v 0.01852730 -0.06162463 0.03144535
v 0.02150704 -0.06035151 0.03147328
v 0.02150704 -0.05955308 0.03198705
v 0.02270944 -0.05957095 0.03167432
v 0.01572825 -0.06285802 0.03137276
v 0.01596479 -0.06295733 0.03067469
v 0.02239734 -0.06030384 0.03067469
v 0.01964100 -0.06155114 0.03020000
v 0.02243348 -0.06031973 0.02959129
v 0.01363882 -0.06388883 0.03071378
v 0.01276494 -0.06407155 0.03117730
v 0.01234443 -0.06425229 0.03071378
v 0.01105989 -0.06443502 0.03067469
v 0.01189434 -0.06415100 0.03135600
v 0.01105989 -0.06420860 0.03141743
v 0.00975235 -0.06428606 0.03149562
v 0.00975235 -0.06216486 0.03237239
v 0.01497592 -0.06085797 0.03238356
v 0.00714056 -0.06347174 0.03218810
v 0.01889525 -0.05955308 0.03233888
v 0.01628346 -0.06085797 0.03229979
v 0.02020278 -0.05955308 0.03220485
v 0.01759100 -0.06085797 0.03213784
v 0.01759100 -0.06180735 0.03159055
v 0.01497592 -0.06300301 0.03150120
v 0.01497592 -0.06216486 0.03202615
v 0.01893467 -0.06094536 0.03178601
v 0.01367167 -0.06326121 0.03166873
v 0.01234443 -0.06357104 0.03169666
v 0.01105989 -0.06347174 0.03192004
v 0.00975235 -0.06347174 0.03204290
v 0.01105989 -0.06216486 0.03235005
v 0.01236414 -0.06216486 0.03232213
v 0.01367167 -0.06216486 0.03224394
v 0.00844810 -0.06347174 0.03212667
v -0.01245067 -0.06425317 0.03043199
v -0.01245255 -0.06402245 0.03108478
v -0.01324422 -0.06417834 0.03019554
v -0.01375825 -0.06317855 0.03162963
v -0.01477316 -0.06296861 0.03147543
v -0.01564363 -0.06278570 0.03125955
v -0.01371135 -0.06381667 0.03064787
v -0.01970331 -0.06153857 0.03010816
v -0.01603947 -0.06295199 0.03039087
v -0.01245255 -0.06216421 0.03226701
v -0.01375825 -0.06216421 0.03211795
v -0.01767722 -0.06085888 0.03197916
v -0.01637152 -0.06198338 0.03169132
v -0.02290002 -0.05932490 0.03167076
v -0.02028862 -0.06052007 0.03159880
v -0.01767722 -0.06171316 0.03151655
v -0.02122850 -0.06032468 0.03144973
v -0.01843700 -0.06155519 0.03137263
v -0.02487920 -0.05891334 0.03134179
v -0.02209709 -0.06014385 0.03118758
v -0.01930747 -0.06137644 0.03098198
v -0.02249293 -0.06030806 0.03031377
v -0.02420572 -0.05954106 0.02936798
v -0.01506395 -0.06085888 0.03232355
v -0.01637152 -0.06085888 0.03220019
v -0.02159432 -0.05824612 0.03234925
v -0.01898292 -0.05955354 0.03228243
v -0.02290002 -0.05824612 0.03221047
v -0.02420572 -0.05824612 0.03194832
v -0.02420572 -0.05905468 0.03147543
v -0.02539323 -0.05820455 0.03158852
v -0.02636875 -0.05774103 0.03145487
v -0.02871376 -0.05623615 0.03119786
v -0.02573841 -0.05859948 0.03067357
v -0.02508557 -0.05904221 0.03067357
v -0.02420572 -0.05945584 0.03067357
v -0.02291690 -0.05997756 0.03071984
v -0.02515310 -0.05908586 0.02936798
v -0.03073609 -0.05171736 0.03246748
v -0.02551142 -0.05563545 0.03242122
v -0.02420572 -0.05694078 0.03237495
v -0.02551142 -0.05694078 0.03216935
v -0.02680961 -0.05697196 0.03172216
v -0.02784142 -0.05655625 0.03153197
v -0.02663327 -0.05794681 0.03067357
v -0.02889386 -0.05637749 0.03032919
v -0.02580595 -0.05863689 0.02936798
v -0.02943040 -0.05302477 0.03244177
v -0.02812282 -0.05432803 0.03237495
v -0.02681712 -0.05563545 0.03229785
v -0.03073609 -0.05302477 0.03222589
v -0.02943040 -0.05432803 0.03208197
v -0.03066668 -0.05431140 0.03162963
v 0.00191466 -0.06477728 -0.03240889
v 0.00060521 -0.06477728 -0.03246112
v -0.02420459 -0.05824571 -0.03246406
v -0.03465229 -0.05041272 -0.03236035
v 0.00191466 -0.06564557 -0.03188006
v 0.00060521 -0.06572692 -0.03195067
v -0.00069959 -0.06477728 -0.03245965
v -0.00984249 -0.06347178 -0.03246921
v -0.01506634 -0.06216424 -0.03245082
v -0.02159035 -0.05955325 -0.03243390
v -0.02420459 -0.05933973 -0.03195361
v -0.02557440 -0.05832705 -0.03205511
v -0.02681419 -0.05694022 -0.03225076
v -0.02812364 -0.05563675 -0.03237212
v -0.03334749 -0.05171822 -0.03230372
v -0.03458728 -0.05168365 -0.03186020
v -0.03591530 -0.05032528 -0.03182931
v -0.03595709 -0.04910519 -0.03227062
v -0.03978327 -0.04525173 -0.03193816
v 0.00517898 -0.06543003 -0.03136226
v 0.00452426 -0.06547273 -0.03150348
v 0.00321946 -0.06555813 -0.03173663
v 0.00060521 -0.06602380 -0.03070912
v -0.00069959 -0.06572488 -0.03194846
v -0.00200439 -0.06477728 -0.03240301
v -0.01114729 -0.06347178 -0.03244788
v -0.01245209 -0.06347178 -0.03235741
v -0.01898074 -0.06085875 -0.03233976
v -0.02159035 -0.06053339 -0.03190654
v -0.02255618 -0.06033411 -0.03168221
v -0.02517971 -0.05910385 -0.03175355
v -0.02939129 -0.05563675 -0.03195876
v -0.03077503 -0.05439022 -0.03202275
v -0.03410901 -0.05245435 -0.03154981
v -0.03545560 -0.05122612 -0.03163587
v -0.03036177 -0.05520158 -0.03172192
v -0.03943966 -0.04611393 -0.03170133
v -0.03982971 -0.04525173 -0.03190874
v -0.03862241 -0.04652673 -0.03200436
v -0.03738263 -0.04910519 -0.02940284
v -0.03674183 -0.04992876 -0.02940284
v -0.03623105 -0.05058150 -0.02940284
v -0.03906354 -0.04693749 -0.02940284
v -0.03790269 -0.04843617 -0.02940284
v 0.00191466 -0.06586112 -0.03070912
v -0.00069959 -0.06601974 -0.03070912
v -0.00200439 -0.06563948 -0.03187270
v -0.01114729 -0.06438481 -0.03192493
v -0.01245209 -0.06429331 -0.03180871
v -0.01506634 -0.06319319 -0.03193228
v -0.01898074 -0.06172908 -0.03179180
v -0.02420459 -0.05978100 -0.03070912
v -0.01610646 -0.06297764 -0.03171972
v -0.01331112 -0.06420383 -0.03160498
v -0.01976548 -0.06156640 -0.03153142
v -0.02534223 -0.05920552 -0.03070912
v -0.02599231 -0.05877442 -0.03070912
v -0.02749213 -0.05761127 -0.03141153
v -0.02892695 -0.05640541 -0.03162263
v -0.03416473 -0.05249908 -0.03070912
v -0.03481945 -0.05197648 -0.03070912
v -0.03555312 -0.05132373 -0.03070912
v -0.03666754 -0.04983115 -0.03149024
v -0.03905425 -0.04692936 -0.03070912
v -0.03620784 -0.05055100 -0.03070912
v -0.03557633 -0.05133186 -0.02940284
v -0.03788875 -0.04841584 -0.03070912
v -0.03481017 -0.05198664 -0.02940284
v -0.00200439 -0.06584893 -0.03070912
v -0.00437254 -0.06548289 -0.03154025
v -0.00330919 -0.06555407 -0.03172413
v -0.01506634 -0.06356735 -0.03070912
v -0.01341328 -0.06424450 -0.03070912
v -0.01406800 -0.06398015 -0.03070912
v -0.01245209 -0.06446209 -0.03070912
v -0.02681419 -0.05814811 -0.03070912
v -0.02900589 -0.05646438 -0.03070912
v -0.03201018 -0.05415637 -0.03070912
v -0.00722824 -0.06516160 -0.03070912
v -0.01114729 -0.06464510 -0.03070912
v -0.04875277 -0.00339205 0.03067475
v -0.04851363 -0.00339205 0.03145132
v -0.04844067 -0.00247971 0.03139474
v -0.04851970 -0.00227275 0.03067475
v -0.04771514 -0.00469721 0.03208903
v -0.04771514 -0.00339205 0.03197589
v -0.04707270 0.00120978 0.03133818
v -0.04829070 -0.00162017 0.03067475
v -0.04780025 -0.00206156 0.03169303
v -0.04771514 -0.00600448 0.03217646
v -0.04640796 -0.00208479 0.03234617
v -0.04640796 -0.00077963 0.03216617
v -0.04457589 0.00679154 0.03142560
v -0.04442998 0.00766164 0.03114275
v -0.04710512 0.00128792 0.03067475
v -0.04640796 0.00052764 0.03189360
v -0.04391522 0.00715901 0.03174446
v -0.04710918 0.00129214 0.02984161
v -0.04315523 0.01033531 0.03018618
v -0.04771514 -0.00630648 0.03219189
v -0.04640796 -0.00339205 0.03243360
v -0.04379565 0.00444521 0.03232046
v -0.04510282 0.00183279 0.03225360
v -0.04510282 0.00052764 0.03239760
v -0.04249049 0.00705552 0.03237703
v -0.04379565 0.00574826 0.03213017
v -0.04510282 0.00313795 0.03201703
v -0.04334168 0.00940185 0.03146675
v -0.04360311 0.00836068 0.03161589
v -0.04310862 0.01027195 0.03105532
v -0.04343085 0.00976932 0.03064389
v -0.04419489 0.00825086 0.03069532
v -0.04446443 0.00774400 0.03027361
v -0.04249049 0.00836068 0.03220732
v -0.04189467 0.01169748 0.03136903
v -0.04640796 -0.00469721 0.03247474
v -0.04510282 -0.00077963 0.03247474
v -0.04379565 0.00313795 0.03244389
v -0.04118332 0.00966795 0.03235646
v -0.04249049 0.00574826 0.03246960
v -0.04118332 0.00836068 0.03246446
v -0.04218042 0.01097310 0.03151303
v -0.04259993 0.00976932 0.03175474
v -0.04118332 0.01097310 0.03200160
v -0.04113469 0.01219167 0.03155932
v -0.04640796 -0.00600448 0.03249531
v -0.03987818 0.01097310 0.03241817
v -0.03689093 0.01526871 0.03233074
v -0.03726789 0.01489068 0.03231017
v -0.03857506 0.01358552 0.03222275
v -0.03987818 0.01227826 0.03212503
v -0.03857506 0.01227826 0.03243874
v -0.03407892 -0.05242927 0.02981237
v -0.03165647 -0.05386684 0.03146722
v -0.03400428 -0.05237048 0.03132846
v -0.03406196 -0.05241324 0.03067577
v -0.03471507 -0.05190287 0.03067577
v -0.03550389 -0.05125088 0.03067577
v -0.03207209 -0.05306790 0.03172933
v -0.03452677 -0.05163834 0.03150320
v -0.03540211 -0.05115202 0.03139013
v -0.03664047 -0.04979193 0.03134388
v -0.03615700 -0.05050805 0.03067577
v -0.03204325 -0.05171583 0.03231521
v -0.03334947 -0.05171583 0.03192462
v -0.03465569 -0.05040918 0.03203768
v -0.03588727 -0.05029963 0.03151862
v -0.03596191 -0.04910254 0.03195546
v -0.03689663 -0.04910254 0.03148264
v -0.04085770 -0.04387863 0.03150320
v -0.04057780 -0.04459475 0.03135930
v -0.04179072 -0.04316519 0.03092246
v -0.03668967 -0.04985339 0.03067577
v -0.03334947 -0.05040918 0.03239230
v -0.03465569 -0.04910254 0.03240257
v -0.03596191 -0.04779857 0.03232549
v -0.03857436 -0.04518528 0.03211991
v -0.03988058 -0.04387863 0.03199657
v -0.04128689 -0.04266818 0.03175502
v -0.04210115 -0.04229676 0.03147750
v -0.04251847 -0.04126802 0.03166766
v -0.04327675 -0.04083514 0.03142611
v -0.04294087 -0.04166081 0.03067577
v -0.04183991 -0.04322932 0.03004878
v -0.04339889 -0.04100882 0.03067577
v -0.04379585 -0.03343349 0.03245397
v -0.03596191 -0.04649192 0.03245397
v -0.03726814 -0.04518528 0.03244883
v -0.03857436 -0.04387863 0.03242313
v -0.03988058 -0.04257466 0.03235118
v -0.04118510 -0.04126802 0.03225353
v -0.04248963 -0.03996404 0.03211477
v -0.04350407 -0.03996404 0.03156487
v -0.04454057 -0.03826193 0.03140555
v -0.04395361 -0.03996404 0.03067577
v -0.04894440 -0.02693501 0.03067577
v -0.04640829 -0.02820959 0.03236660
v -0.04510207 -0.03082020 0.03241799
v -0.04379585 -0.03474014 0.03241285
v -0.04248963 -0.03735075 0.03244883
v -0.04118510 -0.03996404 0.03245911
v -0.04248963 -0.03865740 0.03234604
v -0.04379585 -0.03735075 0.03206338
v -0.04387558 -0.03868145 0.03169849
v -0.04580607 -0.03552573 0.03137471
v -0.04435227 -0.03910096 0.03067577
v -0.04876628 -0.02820959 0.03067577
v -0.04847450 -0.02914481 0.03142097
v -0.04857119 -0.02820959 0.03150320
v -0.04771451 -0.02820959 0.03193490
v -0.04640829 -0.02951623 0.03226381
v -0.04510207 -0.03212685 0.03235632
v -0.04379585 -0.03604678 0.03228951
v -0.04510207 -0.03343349 0.03219700
v -0.04510207 -0.03474014 0.03195546
v -0.04706480 -0.03278685 0.03132846
v -0.04851521 -0.02924101 0.03067577
v -0.04640829 -0.03212685 0.03184239
v -0.04779255 -0.02955364 0.03166766
v -0.04640829 -0.03082020 0.03207880
v 0.00060760 0.03317643 0.03209947
v 0.00583306 0.03187111 0.03227385
v 0.00322033 0.03317643 0.03198665
v 0.00191485 0.03317643 0.03204306
v -0.00069788 0.03317643 0.03209435
v -0.00330883 0.03187111 0.03235078
v 0.00322033 0.03187111 0.03234053
v 0.00452580 0.03187111 0.03232001
v -0.00200158 0.03317643 0.03204306
v -0.00591979 0.03187111 0.03229437
v -0.00461431 0.03187111 0.03233540
v -0.00330883 0.03317643 0.03198151
v -0.00853251 0.03187111 0.03218666
v -0.00983799 0.03187111 0.03212512
v -0.04949787 -0.01137534 -0.02971861
v -0.04979737 -0.01122902 -0.02904589
v -0.04842039 -0.00494155 -0.03012025
v -0.04862693 -0.00339228 -0.02931773
v -0.04831711 -0.00339228 -0.02997058
v -0.04836186 -0.00406793 -0.03005000
v -0.04972507 -0.01016605 -0.02851597
v -0.04972507 -0.01016605 -0.02888478
v -0.04820351 -0.00992075 -0.03116635
v -0.04795910 -0.00458005 -0.03061657
v -0.04851333 -0.00233791 -0.02907720
v -0.04712603 0.00134162 -0.03015155
v -0.04724307 0.00052825 -0.03029358
v -0.04740487 -0.00078003 -0.03046920
v -0.04745650 -0.00220450 -0.03077616
v -0.04771813 -0.00339228 -0.03070897
v -0.04873709 -0.00339228 -0.02809753
v -0.04803139 -0.00730850 -0.03096018
v -0.04711570 -0.00339228 -0.03142291
v -0.04720520 -0.00469625 -0.03151989
v -0.04794533 -0.00600453 -0.03085710
v -0.04715356 0.00141478 -0.02940248
v -0.04747027 0.00052825 -0.02940248
v -0.04572839 0.00366123 -0.03130456
v -0.04448911 0.00780984 -0.03143589
v -0.04462336 0.00705672 -0.03160159
v -0.04582134 0.00279191 -0.03143742
v -0.04706406 -0.00271662 -0.03136641
v -0.04685751 -0.00078003 -0.03112206
v -0.04697111 -0.00184731 -0.03125722
v -0.04729126 -0.00600453 -0.03160006
v -0.04737732 -0.00730850 -0.03166649
v -0.04746338 -0.00861678 -0.03171842
v -0.04754944 -0.00992075 -0.03175430
v -0.04620345 -0.00078003 -0.03175354
v -0.04689194 0.00206892 -0.02940248
v -0.04450976 0.00786148 -0.03070897
v -0.04482647 0.00575275 -0.03177950
v -0.04424125 0.00851562 -0.03070897
v -0.04318786 0.01038336 -0.03147789
v -0.04339785 0.00966897 -0.03173598
v -0.04384193 0.00829184 -0.03185662
v -0.04592461 0.00183222 -0.03154814
v -0.04606231 0.00052825 -0.03167336
v -0.04510187 0.00052825 -0.03207730
v -0.04640655 -0.00600453 -0.03194902
v -0.04640655 -0.00730850 -0.03200094
v -0.04498827 0.00444447 -0.03184670
v -0.04379718 0.00575275 -0.03225979
v -0.04645131 0.00314050 -0.02940248
v -0.04379718 0.00705672 -0.03212998
v -0.04365604 0.00966897 -0.03070897
v -0.04244774 0.01087826 -0.03183524
v -0.04321196 0.01041348 -0.03070897
v -0.03923937 0.01556482 -0.03140611
v -0.03803452 0.01700220 -0.03162679
v -0.04198300 0.01181644 -0.03165504
v -0.04248905 0.00966897 -0.03226819
v -0.04248905 0.00836500 -0.03239036
v -0.04120157 0.01226400 -0.03198414
v -0.03693982 0.01858160 -0.03070897
v -0.03643722 0.01923574 -0.03070897
v -0.03682966 0.01843959 -0.03173827
v -0.03726685 0.01746268 -0.03197498
v -0.03726685 0.01619744 -0.03238426
v -0.04118436 0.01097294 -0.03237738
v -0.01898400 0.02925868 -0.03246061
v -0.01637118 0.03056266 -0.03243313
v -0.03987623 0.01227691 -0.03240945
v -0.03595872 0.01750141 -0.03244000
v -0.03578660 0.01996304 -0.03070897
v -0.03562480 0.01979520 -0.03177034
v -0.03602068 0.01884842 -0.03205286
v -0.02681901 0.02533816 -0.03242625
v -0.02290151 0.02795041 -0.03240411
v -0.03334590 0.02011366 -0.03244458
v -0.03470911 0.02018682 -0.03206050
v -0.03465403 0.01880969 -0.03244152
v -0.03430978 0.02100449 -0.03175430
v -0.02551433 0.02664644 -0.03233768
v -0.03204465 0.02142194 -0.03241022
v -0.03332524 0.02143485 -0.03200628
v -0.03287428 0.02220949 -0.03166497
v -0.02768995 0.02616014 -0.03170162
v -0.03073997 0.02272591 -0.03229339
v -0.02812715 0.02536829 -0.03203148
v -0.02673984 0.02661631 -0.03190549
v -0.02551433 0.02761043 -0.03179554
v -0.04962071 -0.02195759 0.03067243
v -0.04970656 -0.02130537 0.03067243
v -0.04864969 -0.02693500 0.03155723
v -0.04969702 -0.02125085 0.03135147
v -0.05024931 -0.01645517 0.03067243
v -0.04773684 -0.02693500 0.03203050
v -0.04902074 -0.02037046 0.03183502
v -0.04973804 -0.02037046 0.03139262
v -0.05027411 -0.01514872 0.03067243
v -0.04991927 -0.01645517 0.03152637
v -0.04771491 -0.02693500 0.03204078
v -0.04771491 -0.02428778 0.03221569
v -0.04902074 -0.01645517 0.03210251
v -0.04902074 -0.01906402 0.03192761
v -0.05013771 -0.01384227 0.03067243
v -0.04992786 -0.01514872 0.03153151
v -0.04986204 -0.01384227 0.03148522
v -0.04968844 -0.01044995 0.03134118
v -0.04902074 -0.01514872 0.03211795
v -0.04971419 -0.01025409 0.03067243
v -0.04640907 -0.02693500 0.03240088
v -0.04771491 -0.02298336 0.03229285
v -0.04771491 -0.02167691 0.03235458
v -0.04771491 -0.02037046 0.03239573
v -0.04771491 -0.01775757 0.03247289
v -0.04771491 -0.01645517 0.03249862
v -0.04902074 -0.01384227 0.03204078
v -0.04979050 -0.01253583 0.03143377
v -0.04972564 -0.01122938 0.03137719
v -0.04902074 -0.01122938 0.03182473
v -0.04771491 -0.01514872 0.03250890
v -0.04771491 -0.01384227 0.03248318
v -0.04771491 -0.01253583 0.03244203
v -0.04771491 -0.01122938 0.03239573
v -0.04771491 -0.00861851 0.03229799
v -0.04771491 -0.00731206 0.03224141
v -0.00983590 -0.06216475 0.03235580
v 0.00060803 -0.06347050 0.03235580
v -0.00069746 -0.06347050 0.03235019
v -0.01114330 -0.06216475 0.03232775
v -0.00330653 -0.06347050 0.03231091
v -0.00200487 -0.06347050 0.03233336
v 0.00060803 -0.06477625 0.03193497
v 0.00191352 -0.06347050 0.03233336
v 0.00322092 -0.06347050 0.03229969
v 0.00583191 -0.06347050 0.03222675
v -0.00069746 -0.06477625 0.03192375
v -0.00591752 -0.06347050 0.03221552
v -0.00461203 -0.06347050 0.03227725
v -0.00069746 -0.06550144 0.03139070
v 0.00060803 -0.06550541 0.03139632
v 0.00196704 -0.06489811 0.03174420
v 0.00322092 -0.06471483 0.03177225
v -0.01244880 -0.06337044 0.03173859
v -0.00853232 -0.06347050 0.03202475
v -0.00722492 -0.06347050 0.03212575
v -0.00330653 -0.06468808 0.03177225
v -0.00201633 -0.06489316 0.03173298
v -0.00158818 -0.06545390 0.03134582
v -0.00069746 -0.06575804 0.03067249
v 0.00060803 -0.06576498 0.03067249
v 0.00156756 -0.06545885 0.03135143
v -0.01160969 -0.06409366 0.03125604
v -0.01073809 -0.06415904 0.03136265
v -0.00983590 -0.06422542 0.03142998
v -0.00853232 -0.06432053 0.03152537
v -0.00722492 -0.06441068 0.03159831
v -0.00245978 -0.06540535 0.03125604
v -0.00330653 -0.06551433 0.03038633
v -0.00416858 -0.06545687 0.03015067
v -0.00069746 -0.06579569 0.02936513
v -0.00201633 -0.06557971 0.03075666
v 0.00060803 -0.06580262 0.02936513
v 0.00410973 -0.06546083 0.03020117
v 0.00322092 -0.06551928 0.03044805
v 0.00196704 -0.06558764 0.03077349
v 0.00243725 -0.06541526 0.03128409
v 0.00322092 -0.06536770 0.03110454
v -0.04249114 -0.03995937 -0.03242053
v -0.04640303 -0.03081713 -0.03240990
v -0.04771073 -0.02690755 -0.03234839
v -0.04257533 -0.04134215 -0.03202568
v -0.04362486 -0.03995937 -0.03192697
v -0.04379323 -0.03734967 -0.03239699
v -0.03987573 -0.04387559 -0.03234763
v -0.04118344 -0.04256907 -0.03224209
v -0.04510094 -0.03473666 -0.03233472
v -0.04771073 -0.02821406 -0.03233548
v -0.04771073 -0.02560104 -0.03231574
v -0.04869291 -0.02690755 -0.03185255
v -0.04874343 -0.02560104 -0.03183661
v -0.04876026 -0.02429121 -0.03180320
v -0.04771073 -0.02429121 -0.03226638
v -0.04771073 -0.01645548 -0.03196569
v -0.05025879 -0.01514897 -0.02809769
v -0.04337230 -0.04095749 -0.03173410
v -0.03987573 -0.04514894 -0.03193228
v -0.04460704 -0.03838095 -0.03168626
v -0.04482031 -0.03734967 -0.03189280
v -0.04748623 -0.03081713 -0.03191482
v -0.04859750 -0.02821406 -0.03181610
v -0.04874904 -0.02298471 -0.03177054
v -0.04872098 -0.02168151 -0.03173714
v -0.04859189 -0.01645548 -0.03160273
v -0.04977612 -0.02037500 -0.03023899
v -0.04981541 -0.01906849 -0.03026860
v -0.04980980 -0.01776199 -0.03023823
v -0.04931028 -0.01906849 -0.03092238
v -0.04854138 -0.01514897 -0.03154958
v -0.04846280 -0.01384246 -0.03146681
v -0.04840106 -0.01292724 -0.03140075
v -0.05010164 -0.01514897 -0.02940221
v -0.05014093 -0.01645548 -0.02940221
v -0.05022511 -0.01645548 -0.02809769
v -0.03983083 -0.04525173 -0.03190798
v -0.04348455 -0.04112993 -0.03070825
v -0.04410753 -0.03995937 -0.03070825
v -0.04065025 -0.04468469 -0.03160577
v -0.04186254 -0.04326544 -0.03143492
v -0.04583617 -0.03559218 -0.03158071
v -0.04847964 -0.02914586 -0.03164070
v -0.04601577 -0.03473666 -0.03181307
v -0.04882761 -0.02821406 -0.03070825
v -0.04902405 -0.02690755 -0.03070825
v -0.04916436 -0.02560104 -0.03070825
v -0.04971438 -0.02136981 -0.03015015
v -0.04927661 -0.01776199 -0.03089125
v -0.04924855 -0.01645548 -0.03085252
v -0.04999500 -0.01906849 -0.02940221
v -0.05007919 -0.01776199 -0.02940221
v -0.04978734 -0.01645548 -0.03019950
v -0.04919242 -0.01514897 -0.03078874
v -0.04920365 -0.01388225 -0.03059207
v -0.04988275 -0.01253595 -0.02922149
v -0.04992204 -0.01388225 -0.02949333
v -0.04969193 -0.01434649 -0.03007877
v -0.04973683 -0.01514897 -0.03013572
v -0.04987153 -0.02037500 -0.02940221
v -0.04303555 -0.04178650 -0.03070825
v -0.04441622 -0.03922985 -0.03070825
v -0.04707091 -0.03280673 -0.03140303
v -0.04035841 -0.04525173 -0.03070825
v -0.04072322 -0.04478086 -0.03070825
v -0.04187938 -0.04328534 -0.03070825
v -0.04854138 -0.02929508 -0.03070825
v -0.04964703 -0.02213249 -0.02940221
v -0.04973122 -0.02147924 -0.02940221
v -0.04963581 -0.01347438 -0.02998993
v -0.04957407 -0.01253595 -0.02987527
v -0.04737398 -0.03212364 -0.03070825
v -0.04827759 -0.02994833 -0.03070825
v -0.01245345 0.03056394 0.03231813
v -0.01898282 0.02795192 0.03238488
v -0.02159567 0.02664678 0.03240029
v -0.01375987 0.03056394 0.03225650
v -0.01636997 0.02925881 0.03234380
v -0.02290210 0.02664678 0.03237461
v -0.02812229 0.02272963 0.03241056
v -0.03334799 0.01881071 0.03241569
v -0.02681586 0.02403652 0.03239515
v -0.03465442 0.01750557 0.03241056
v -0.03596084 0.01619868 0.03237461
v -0.01114702 0.03187084 0.03204084
v -0.01506630 0.03056394 0.03210246
v -0.01767640 0.02925881 0.03223596
v -0.02028925 0.02795192 0.03232840
v -0.01245345 0.03187084 0.03190732
v -0.02420852 0.02664678 0.03223596
v -0.02551219 0.02533989 0.03233867
v -0.03204157 0.02011760 0.03237975
v -0.03465442 0.01881071 0.03215894
v -0.03596084 0.01750557 0.03206138
v -0.02159567 0.02795192 0.03215894
v -0.01371302 0.03192720 0.03167111
v -0.01506630 0.03155733 0.03160435
v -0.01898282 0.02925881 0.03201002
v -0.02420852 0.02772295 0.03166084
v -0.02514838 0.02749574 0.03150165
v -0.02555629 0.02670491 0.03177895
v -0.02812229 0.02403652 0.03212300
v -0.02942872 0.02272963 0.03223596
v -0.03073514 0.02142273 0.03231813
v -0.03334799 0.02011760 0.03208705
v -0.03457173 0.02007709 0.03160949
v -0.03545371 0.01961563 0.03145030
v -0.03591675 0.01872616 0.03159922
v -0.02745805 0.02598101 0.03130139
v -0.02889677 0.02477980 0.03140922
v -0.03033550 0.02357682 0.03148111
v -0.02937084 0.02402067 0.03165057
v -0.03075719 0.02277366 0.03175327
v -0.03408114 0.02083269 0.03138355
v -0.03667469 0.01823476 0.03137841
v -0.03563286 0.01980409 0.03067491
v -0.03628607 0.01905024 0.03067491
v -0.03788741 0.01681514 0.03123977
v -0.03800317 0.01696133 0.03037194
v 0.00407717 0.06411704 -0.00458702
v 0.00497653 0.06350556 -0.00197479
v 0.00504250 0.06354384 -0.00067048
v -0.00267043 0.06388424 0.00136857
v -0.00272961 0.06394115 0.00063623
v -0.00277327 0.06398357 -0.00067048
v -0.00275678 0.06396702 -0.00197479
v -0.00272282 0.06393494 -0.00458702
v -0.00270536 0.06391529 -0.00589373
v -0.00268304 0.06389356 -0.00687855
v 0.00420329 0.06424017 -0.00328150
v 0.00260541 0.06520345 -0.00697547
v 0.00432360 0.06432398 -0.00197479
v 0.00438957 0.06438192 -0.00067048
v 0.00503474 0.06353349 0.00063623
v -0.00249192 0.06370111 0.00324846
v -0.00258797 0.06380044 0.00223851
v -0.00133740 0.06517034 0.00125967
v -0.00191272 0.06470784 0.00074872
v -0.00141696 0.06523138 0.00038853
v -0.00208444 0.06463645 -0.00067048
v -0.00273932 0.06395150 -0.00328150
v -0.00143151 0.06523966 -0.00067048
v -0.00139173 0.06520552 -0.00153324
v 0.00282176 0.06531209 -0.00328150
v 0.00362119 0.06503480 -0.00067048
v 0.00355036 0.06497685 -0.00197479
v 0.00191464 0.06537934 -0.00589373
v 0.00191464 0.06569492 -0.00067048
v 0.00438181 0.06435191 0.00063623
v 0.00498041 0.06350245 0.00194175
v -0.00235124 0.06356660 0.00455397
v -0.00020229 0.06522518 0.00290742
v -0.00047977 0.06530174 0.00194175
v -0.00082030 0.06538452 0.00074872
v -0.00169831 0.06414705 0.00455397
v -0.00069612 0.06548177 -0.00067048
v -0.00125979 0.06514033 -0.00240438
v -0.00077373 0.06535244 -0.00197120
v -0.00042932 0.06530898 -0.00328150
v 0.00289743 0.06535037 -0.00197479
v 0.00296825 0.06538762 -0.00067048
v 0.00355812 0.06500479 0.00063623
v 0.00203009 0.06526656 -0.00720283
v 0.00102498 0.06525518 -0.00719924
v 0.00060975 0.06564007 -0.00197479
v 0.00060975 0.06572492 -0.00067048
v 0.00060975 0.06567836 0.00063623
v 0.00191464 0.06563801 0.00063623
v 0.00290519 0.06535554 0.00063623
v 0.00432651 0.06424224 0.00194175
v 0.00488921 0.06345693 0.00324846
v 0.00060975 0.06548695 0.00194175
v 0.00019257 0.06515585 0.00377856
v 0.00060975 0.06553351 -0.00328150
v -0.00069612 0.06464576 -0.00719924
v -0.00108225 0.06507825 -0.00328150
v -0.00021200 0.06523552 -0.00434530
v 0.00270534 0.06524897 0.00194175
v 0.00335827 0.06489512 0.00194175
v 0.00410725 0.06401875 0.00455397
v 0.00423628 0.06413050 0.00324846
v 0.00037302 0.06502755 -0.00719924
v 0.00106185 0.06519207 0.00398797
v 0.00136164 0.06519207 0.00398797
v 0.00191464 0.06543521 0.00194175
v 0.00259085 0.06518793 0.00266810
v 0.00062042 0.06526863 0.00330470
v 0.00062042 0.06507205 0.00447619
v -0.00066701 0.06502031 -0.00470309
v 0.00310408 0.06482476 0.00316110
v 0.00184382 0.06501721 0.00447619
v 0.00223286 0.06511343 0.00353924
v 0.00184382 0.06524690 0.00316110
v 0.00204138 0.06525491 -0.00732720
v 0.00119155 0.06520032 -0.00796065
v 0.00256078 0.06517403 -0.00784753
v 0.00169017 0.06520032 -0.00796065
v 0.00060884 0.06446034 -0.00981324
v 0.00069689 0.06490110 -0.00844077
v -0.00263616 0.06385583 -0.00775076
v 0.00114208 0.06391042 -0.01186316
v 0.00388252 0.06126593 -0.01440073
v 0.00281900 0.06415910 -0.00981324
v 0.00266862 0.06396097 -0.01063522
v 0.00184846 0.06407014 -0.01109020
v 0.00191475 0.06457761 -0.00981324
v 0.00204138 0.06504060 -0.00844077
v 0.00136864 0.06391042 -0.01186316
v -0.00062782 0.06356065 -0.01105626
v -0.00141632 0.06389425 -0.00923384
v 0.00066721 0.06403981 -0.01105626
v -0.00009260 0.06258413 -0.01444221
v -0.00171213 0.06399938 -0.00850612
v -0.00266584 0.06388009 -0.00720403
v -0.00236508 0.06373048 -0.00850612
v -0.00255503 0.06249719 -0.01164070
v -0.00277565 0.06268118 -0.01077096
v 0.00060884 0.06231524 -0.01513347
v -0.00020340 0.06134680 -0.01711175
v 0.00406159 0.06017619 -0.01602458
v 0.00347987 0.06104758 -0.01527047
v 0.00223925 0.06372442 -0.01150622
v 0.00266268 0.06261850 -0.01318159
v 0.00133797 0.06260031 -0.01445352
v 0.00028335 0.06134680 -0.01711175
v -0.00168344 0.06272161 -0.01220502
v -0.00134706 0.06256189 -0.01307476
v -0.00066245 0.06155100 -0.01631868
v -0.00059518 0.06217978 -0.01494118
v -0.00207224 0.06291368 -0.01117064
v -0.00200299 0.06198164 -0.01372958
v -0.00241653 0.06113047 -0.01537856
v -0.00271728 0.06130434 -0.01450756
v -0.00107401 0.06108801 -0.01673847
v -0.00154493 0.06135489 -0.01586747
v -0.00277269 0.05874679 -0.01843018
v -0.00265891 0.05995379 -0.01699738
v 0.00389341 0.05866794 -0.01833215
v 0.00374600 0.05985068 -0.01689557
v 0.00317713 0.06058257 -0.01630863
v 0.00260926 0.06127806 -0.01572293
v 0.00220957 0.06238398 -0.01405133
v 0.00182967 0.06208880 -0.01494746
v 0.00191475 0.06144991 -0.01600573
v 0.00115297 0.06122549 -0.01694836
v 0.00067413 0.06163592 -0.01644437
v -0.00198914 0.06150450 -0.01498014
v -0.00198914 0.06081912 -0.01631868
v -0.00285777 0.06018428 -0.01634130
v 0.00139140 0.06002051 -0.01839248
v 0.00157937 0.05881755 -0.01983157
v 0.00244998 0.05858100 -0.01952364
v 0.00322066 0.05886405 -0.01858855
v 0.00287539 0.06011756 -0.01721355
v 0.00191475 0.06103140 -0.01665929
v 0.00186232 0.06033591 -0.01764842
v -0.00009532 0.05606236 -0.02355277
v 0.00127470 0.05604109 -0.02353382
v 0.00060850 0.05727206 -0.02213599
v -0.00208403 0.05544097 -0.02292849
v -0.00257602 0.05598675 -0.02216797
v -0.00059720 0.05640259 -0.02286689
v -0.00069619 0.05712557 -0.02194645
v 0.00060850 0.05664831 -0.02287281
v 0.00060850 0.05605999 -0.02355159
v 0.00060850 0.05537954 -0.02403728
v 0.00060850 0.05291288 -0.02577983
v 0.00060850 0.05146218 -0.02680451
v 0.00060850 0.05002803 -0.02781617
v -0.00023292 0.05224660 -0.02623235
v -0.00246317 0.05459276 -0.02342957
v 0.00197457 0.05827148 -0.02026550
v 0.00191418 0.05707123 -0.02187182
v 0.00179242 0.05634588 -0.02284319
v 0.00278530 0.05617104 -0.02238712
v 0.00214582 0.05571976 -0.02325781
v 0.00134400 0.05217572 -0.02618023
v -0.00170490 0.05621121 -0.02242740
v 0.00167363 0.04980593 -0.02765506
v 0.00061048 0.04878525 -0.02849968
v 0.00017690 0.04830562 -0.02879228
v -0.00014284 0.04830562 -0.02879228
v -0.00069619 0.04986973 -0.02770837
v 0.00263582 0.05737602 -0.02096441
v 0.00104703 0.04805990 -0.02870817
v 0.00019472 0.04452530 -0.03014154
v -0.00026558 0.04452530 -0.03014154
v 0.00000466 0.04045674 -0.03137709
v -0.00010918 0.04045674 -0.03137709
v 0.00191446 0.04624095 0.02712653
v 0.00258539 0.04821546 0.02611442
v 0.00191446 0.04754538 0.02658096
v 0.00106899 0.04832565 0.02617561
v 0.00191446 0.04830480 0.02616541
v 0.00325631 0.05275118 0.02317496
v 0.00284468 0.05230743 0.02360581
v 0.00191446 0.05316514 0.02334322
v 0.00191446 0.05251292 0.02372308
v 0.00131315 0.05082134 0.02480658
v 0.00123647 0.05082134 0.02480658
v 0.00409169 0.05357315 0.02230051
v 0.00322100 0.05382926 0.02249172
v 0.00195381 0.05417771 0.02263194
v 0.00154520 0.05479716 0.02225717
v 0.00107807 0.05479716 0.02225717
v 0.00060994 0.05309367 0.02330498
v -0.00069660 0.05370418 0.02239484
v 0.00412095 0.05490437 0.02105895
v 0.00322100 0.05448148 0.02196399
v 0.00241589 0.05468101 0.02214500
v 0.00197600 0.05539279 0.02154844
v 0.00153713 0.05610159 0.02095443
v 0.00106597 0.05610159 0.02095443
v 0.00019528 0.05594077 0.02078871
v 0.00020738 0.05461550 0.02208636
v 0.00062911 0.05413601 0.02260134
v -0.00138670 0.05347189 0.02222403
v -0.00069660 0.05435640 0.02184417
v 0.00322100 0.05515156 0.02131134
v 0.00408160 0.05620583 0.01974856
v 0.00322100 0.05645301 0.01999840
v 0.00322100 0.05580676 0.02065105
v 0.00240782 0.05598842 0.02083460
v 0.00233719 0.05728987 0.01952421
v 0.00146650 0.05737922 0.01961599
v 0.00111338 0.05737922 0.01961599
v 0.00035670 0.05857047 0.01818832
v 0.00024269 0.05725413 0.01949107
v -0.00069660 0.05765321 0.01857838
v -0.00069660 0.05700397 0.01923103
v -0.00069660 0.05634878 0.01988878
v -0.00069660 0.05569358 0.02054142
v -0.00069660 0.05503839 0.02119152
v -0.00140889 0.05480014 0.02095953
v 0.00403721 0.05749536 0.01842542
v 0.00322100 0.05710523 0.01932791
v 0.00322100 0.05772468 0.01867526
v 0.00322100 0.05837987 0.01796908
v 0.00216467 0.05857047 0.01818832
v 0.00180348 0.05908867 0.01770139
v 0.00129499 0.05865088 0.01827245
v 0.00122739 0.05865088 0.01827245
v 0.00071890 0.05910058 0.01770139
v 0.00060994 0.05986299 0.01685753
v -0.00069660 0.05893083 0.01726034
v -0.00069660 0.05830542 0.01791299
v -0.00140889 0.05610457 0.01964913
v 0.00520654 0.05867471 0.01569756
v 0.00397567 0.05874618 0.01707678
v 0.00322100 0.05896954 0.01731643
v 0.00191446 0.05984810 0.01683969
v 0.00191446 0.06030078 0.01618449
v 0.00060994 0.06031269 0.01620489
v -0.00040805 0.06016974 0.01598564
v -0.00138165 0.05867769 0.01700030
v -0.00078438 0.05962474 0.01637825
v 0.00524387 0.06002976 0.01319914
v 0.00500980 0.05978853 0.01406849
v 0.00472730 0.05952646 0.01500412
v 0.00387578 0.05995233 0.01565932
v 0.00322100 0.05962176 0.01654141
v 0.00322100 0.06010422 0.01588876
v 0.00254200 0.06125378 0.01434382
v 0.00202948 0.06101255 0.01494038
v 0.00167131 0.06131335 0.01446110
v 0.00060994 0.06096788 0.01511119
v -0.00007108 0.06127165 0.01438206
v -0.00067541 0.06058668 0.01497862
v -0.00127874 0.05989574 0.01557518
v 0.00521864 0.06131036 0.01055286
v 0.00502695 0.06108403 0.01142221
v 0.00474950 0.06085769 0.01239353
v 0.00409674 0.06142651 0.01239353
v 0.00444885 0.06053605 0.01356880
v 0.00407454 0.06011911 0.01500412
v 0.00388789 0.06126867 0.01306912
v 0.00260254 0.06257905 0.01177147
v 0.00191446 0.06262968 0.01186835
v 0.00202948 0.06159627 0.01382629
v 0.00060994 0.06230804 0.01256179
v 0.00060994 0.06398176 0.00934954
v 0.00060994 0.06364225 0.01000219
v -0.00011749 0.06260586 0.01182501
v -0.00015784 0.06394007 0.00926541
v -0.00131305 0.06122996 0.01300029
v -0.00153097 0.06013400 0.01470329
v 0.00517425 0.06255225 0.00774852
v 0.00505823 0.06240930 0.00847510
v 0.00415323 0.06275774 0.00953820
v 0.00385359 0.06254927 0.01040754
v 0.00260657 0.06388944 0.00917108
v 0.00191446 0.06394305 0.00927561
v 0.00191446 0.06361247 0.00993081
v 0.00060994 0.06427957 0.00847510
v 0.00060994 0.06458930 0.00716725
v -0.00038384 0.06406515 0.00847510
v -0.00103661 0.06365714 0.00847510
v -0.00162379 0.06277859 0.00954584
v -0.00133726 0.06255523 0.01041774
v -0.00252878 0.06237952 0.00847510
v 0.00404831 0.06397879 0.00502065
v 0.00397869 0.06393114 0.00557133
v 0.00385056 0.06385668 0.00644322
v 0.00373756 0.06379414 0.00716725
v 0.00440546 0.06296919 0.00847510
v 0.00345709 0.06362141 0.00847510
v 0.00280331 0.06399367 0.00847510
v 0.00191446 0.06451485 0.00716725
v 0.00191446 0.06420810 0.00847510
v 0.00187209 0.06491392 0.00502065
v 0.00060994 0.06482755 0.00586196
v -0.00076924 0.06416938 0.00713666
v -0.00125251 0.06380605 0.00754966
v -0.00187602 0.06300493 0.00847510
v -0.00264885 0.06254927 0.00778676
v 0.00308379 0.06414258 0.00716725
v 0.00191446 0.06475310 0.00586196
v -0.00152593 0.06399963 0.00586196
v -0.00140385 0.06390433 0.00668032
v -0.00202635 0.06323127 0.00723354
v -0.00217869 0.06342485 0.00586196
v -0.00163691 0.06409493 0.00502065
v -0.01244999 0.03187069 -0.03247565
v -0.00461408 0.03317679 -0.03244401
v -0.00331093 0.03317679 -0.03246834
v 0.00321971 0.03317679 -0.03246713
v 0.00452711 0.03317679 -0.03244644
f 885 776 787
f 82 1158 1121
f 1120 789 1132
f 668 944 666
f 228 836 399
f 231 836 228
f 1028 1044 1045
f 886 776 885
f 93 104 67
f 511 506 1306
f 1306 506 793
f 793 506 787
f 793 784 1306
f 885 787 884
f 787 506 884
f 51 52 32
f 87 54 86
f 53 54 33
f 32 52 33
f 33 52 53
f 55 54 87
f 34 33 55
f 55 33 54
f 83 52 82
f 53 52 83
f 83 84 53
f 82 1121 83
f 1004 146 122
f 122 83 1079
f 84 83 122
f 1159 1158 82
f 1159 1141 1158
f 789 1120 796
f 1283 1297 1298
f 789 779 788
f 1083 788 779
f 1083 1100 789
f 789 788 1083
f 780 779 789
f 655 656 645
f 823 586 584
f 598 591 590
f 590 591 586
f 706 353 1173
f 353 706 352
f 709 710 704
f 641 645 646
f 645 656 646
f 545 646 656
f 667 666 944
f 667 655 666
f 656 655 667
f 171 170 181
f 236 244 245
f 105 138 139
f 172 144 162
f 162 182 172
f 201 182 162
f 162 161 201
f 140 105 217
f 201 161 220
f 220 140 217
f 397 381 396
f 381 376 396
f 361 358 363
f 363 368 361
f 380 376 381
f 381 368 380
f 380 368 376
f 377 365 376
f 481 493 482
f 216 202 201
f 216 220 217
f 201 220 216
f 183 182 201
f 201 202 183
f 469 485 486
f 481 482 469
f 481 469 479
f 1044 1028 1043
f 534 539 535
f 535 539 519
f 893 886 885
f 602 756 616
f 769 602 771
f 769 756 602
f 814 823 820
f 929 952 943
f 807 810 943
f 943 952 807
f 60 34 59
f 59 95 60
f 245 244 258
f 1270 1288 1271
f 1045 1063 1064
f 1063 1270 1064
f 1004 1005 163
f 163 146 1004
f 147 146 163
f 1016 1005 1004
f 1016 1017 1005
f 505 511 11
f 792 784 791
f 784 793 791
f 795 793 787
f 507 884 506
f 80 51 79
f 79 51 50
f 32 31 50
f 50 51 32
f 1085 83 1103
f 1086 83 1085
f 1079 83 1086
f 1085 1087 1086
f 1086 1087 1079
f 53 84 85
f 85 54 53
f 85 86 54
f 87 86 85
f 85 126 87
f 124 85 84
f 1003 122 1079
f 148 147 152
f 148 127 147
f 129 127 148
f 34 55 56
f 56 57 34
f 130 129 89
f 785 1172 1306
f 1306 784 785
f 785 784 792
f 79 50 49
f 49 50 31
f 1136 1137 1121
f 82 120 121
f 121 1159 82
f 1163 1162 79
f 79 49 1163
f 1163 1164 1152
f 1152 1162 1163
f 1145 1140 1144
f 1119 1120 1144
f 1144 796 1119
f 1119 796 1120
f 1144 1154 801
f 801 1154 804
f 790 780 789
f 1012 779 1011
f 778 772 771
f 779 772 778
f 771 602 1008
f 997 992 1238
f 990 997 1252
f 997 1238 1252
f 1252 1238 1239
f 998 991 990
f 990 1000 998
f 1097 779 1012
f 1097 1083 779
f 1012 1026 1097
f 1097 1026 1083
f 1081 1078 1084
f 786 787 776
f 776 783 786
f 786 783 787
f 773 780 774
f 779 780 773
f 773 772 779
f 601 591 598
f 598 616 601
f 728 591 739
f 823 584 825
f 825 820 823
f 586 591 587
f 587 584 586
f 587 591 728
f 585 586 823
f 824 831 836
f 824 836 837
f 599 600 590
f 983 1238 992
f 355 354 1175
f 1173 357 1175
f 1175 357 355
f 1180 1188 1183
f 355 357 356
f 1173 353 356
f 356 357 1173
f 708 709 704
f 708 704 1173
f 717 715 1173
f 344 340 338
f 345 340 344
f 704 352 707
f 707 352 706
f 1173 704 707
f 707 706 1173
f 710 709 332
f 488 473 485
f 555 473 488
f 569 545 565
f 569 571 641
f 641 646 569
f 646 545 569
f 546 667 944
f 656 667 547
f 667 546 547
f 208 139 138
f 217 105 208
f 105 139 208
f 67 171 102
f 171 181 102
f 235 239 240
f 240 236 235
f 240 239 249
f 235 236 234
f 67 104 234
f 234 104 235
f 236 237 234
f 234 237 170
f 107 108 68
f 68 108 109
f 105 140 141
f 159 220 161
f 140 220 159
f 369 363 365
f 368 363 369
f 365 377 369
f 376 368 369
f 369 377 376
f 362 360 365
f 365 363 362
f 358 360 362
f 362 363 358
f 43 27 44
f 397 43 44
f 44 381 397
f 449 433 448
f 433 447 448
f 639 496 638
f 483 469 638
f 638 469 482
f 638 496 495
f 638 637 503
f 494 482 493
f 494 493 503
f 503 637 494
f 494 638 482
f 637 638 494
f 214 230 209
f 231 228 232
f 232 230 231
f 199 216 217
f 217 208 199
f 202 216 199
f 172 182 173
f 182 183 173
f 365 372 373
f 415 407 404
f 229 228 233
f 233 386 229
f 972 1176 979
f 875 451 453
f 873 868 451
f 876 866 865
f 865 875 876
f 864 873 865
f 865 873 877
f 878 866 876
f 843 848 849
f 849 447 843
f 849 448 447
f 485 469 484
f 495 496 484
f 484 469 483
f 484 496 497
f 484 638 495
f 483 638 484
f 497 488 484
f 484 488 485
f 476 491 478
f 549 527 526
f 876 875 549
f 549 878 876
f 526 878 549
f 526 524 523
f 525 524 526
f 26 27 43
f 26 43 397
f 5 523 8
f 2 523 5
f 879 410 427
f 866 878 879
f 879 878 526
f 2 5 879
f 879 5 410
f 1079 1087 1088
f 1087 1091 1088
f 1049 1030 1048
f 1045 1286 1285
f 1286 1270 1285
f 1045 1044 1052
f 1062 1286 1045
f 1079 1028 1029
f 1014 1028 1079
f 565 538 537
f 519 539 537
f 537 538 519
f 534 535 515
f 776 886 766
f 885 884 889
f 951 929 807
f 807 952 951
f 951 952 929
f 929 690 679
f 922 678 689
f 668 678 922
f 691 690 700
f 892 893 885
f 885 889 892
f 928 690 929
f 928 926 950
f 928 700 690
f 950 700 928
f 789 1100 1116
f 1132 789 1116
f 1144 1120 1102
f 67 68 40
f 89 59 58
f 34 57 58
f 58 59 34
f 94 59 93
f 95 59 94
f 94 93 67
f 67 95 94
f 90 59 89
f 295 286 294
f 276 255 254
f 254 252 276
f 254 255 244
f 276 252 275
f 272 286 287
f 249 239 241
f 241 253 249
f 241 239 235
f 241 251 252
f 235 238 241
f 241 238 248
f 248 251 241
f 257 258 244
f 231 230 211
f 211 210 231
f 245 262 190
f 190 236 245
f 1054 1270 1033
f 1045 1064 1053
f 1053 1270 1054
f 1053 1064 1270
f 534 515 514
f 514 515 506
f 517 507 506
f 536 535 519
f 887 884 891
f 7 14 9
f 35 62 63
f 73 97 74
f 74 42 73
f 1122 83 1121
f 1122 1103 83
f 1121 1137 1122
f 87 127 128
f 128 127 129
f 123 124 84
f 84 122 123
f 123 122 146
f 123 146 147
f 147 124 123
f 147 127 125
f 125 124 147
f 87 126 125
f 125 127 87
f 126 85 125
f 85 124 125
f 1015 1016 1004
f 1079 1029 1015
f 1028 1016 1015
f 1015 1029 1028
f 1004 122 1015
f 57 56 88
f 88 55 87
f 88 56 55
f 87 128 88
f 88 128 129
f 129 130 88
f 88 130 89
f 89 58 88
f 88 58 57
f 1308 1309 1306
f 21 33 34
f 21 34 1306
f 1306 1309 21
f 21 31 32
f 32 33 21
f 1164 49 1169
f 1141 1134 1156
f 79 1162 117
f 117 118 79
f 1162 118 117
f 1141 118 1160
f 1160 118 1162
f 1152 1141 1160
f 1160 1162 1152
f 79 118 119
f 1141 1159 145
f 145 118 1141
f 1159 121 145
f 145 121 120
f 120 118 145
f 1168 49 1164
f 1164 1163 1168
f 1168 1163 49
f 1151 1141 1152
f 1152 1140 1151
f 1141 1149 1148
f 1148 1149 1140
f 1144 1140 1143
f 1143 1154 1144
f 1140 1154 1143
f 1153 1140 1152
f 1152 1166 1153
f 800 796 1144
f 1144 801 800
f 800 801 796
f 787 783 782
f 782 790 787
f 1038 1020 1034
f 1007 1000 1006
f 1006 1000 1019
f 1019 1020 1006
f 1019 1000 999
f 999 1000 990
f 999 1283 1298
f 1010 778 771
f 1010 1011 779
f 779 778 1010
f 1010 1008 1024
f 1002 1008 602
f 1002 1000 1007
f 1007 1008 1002
f 1025 1026 1012
f 1012 1011 1025
f 990 991 976
f 991 977 976
f 1298 1297 1296
f 1296 1303 1298
f 1268 1252 1267
f 1267 1252 1251
f 591 601 753
f 753 739 591
f 753 601 616
f 734 587 728
f 584 587 734
f 598 590 597
f 597 616 598
f 595 599 592
f 592 590 586
f 592 599 590
f 590 600 596
f 596 597 590
f 611 597 596
f 617 600 609
f 1234 1227 1224
f 1183 1188 1189
f 978 981 1176
f 349 345 344
f 1177 1175 1174
f 1179 1180 1174
f 714 708 713
f 709 708 714
f 1173 715 712
f 712 708 1173
f 713 708 712
f 339 338 340
f 340 332 339
f 624 629 339
f 319 321 320
f 340 345 346
f 636 496 639
f 555 458 472
f 472 473 555
f 486 485 472
f 485 473 472
f 560 488 497
f 497 496 560
f 560 636 579
f 496 636 560
f 565 545 568
f 545 570 568
f 567 570 545
f 544 545 656
f 544 567 545
f 189 199 208
f 67 102 103
f 103 102 138
f 103 138 105
f 103 68 67
f 105 68 103
f 249 253 250
f 250 240 249
f 253 241 250
f 250 241 252
f 170 237 176
f 176 237 236
f 165 171 67
f 67 234 165
f 165 170 171
f 165 234 170
f 106 68 105
f 105 107 106
f 106 107 68
f 142 141 140
f 140 159 142
f 142 109 108
f 105 141 142
f 142 107 105
f 108 107 142
f 427 410 426
f 426 429 427
f 387 386 399
f 372 386 387
f 414 437 415
f 433 435 412
f 399 411 412
f 412 411 433
f 400 387 399
f 399 412 400
f 418 407 415
f 75 113 381
f 381 44 75
f 432 447 433
f 433 411 432
f 843 447 432
f 432 411 843
f 640 638 641
f 639 638 640
f 640 636 639
f 641 571 640
f 571 636 640
f 197 209 191
f 196 209 197
f 191 177 197
f 177 196 197
f 195 196 177
f 195 209 196
f 177 194 195
f 195 194 209
f 230 232 226
f 215 199 198
f 198 209 215
f 191 209 198
f 206 228 229
f 376 365 375
f 395 404 407
f 397 396 395
f 395 396 376
f 386 233 398
f 399 386 398
f 398 233 228
f 398 228 399
f 385 386 372
f 372 384 385
f 229 386 385
f 623 629 624
f 620 629 623
f 837 836 619
f 836 629 619
f 619 629 620
f 635 624 964
f 635 630 624
f 964 976 966
f 966 635 964
f 630 635 966
f 624 630 622
f 972 979 969
f 969 960 972
f 981 978 969
f 1176 981 980
f 980 979 1176
f 981 969 980
f 980 969 979
f 972 960 968
f 968 1176 972
f 968 960 717
f 968 1175 1176
f 968 717 1173
f 1173 1175 968
f 717 960 957
f 957 714 713
f 709 714 957
f 626 611 617
f 836 831 669
f 669 684 836
f 689 678 677
f 654 655 645
f 843 411 489
f 489 411 399
f 399 836 489
f 836 684 489
f 452 453 451
f 451 868 452
f 452 868 454
f 874 451 875
f 874 873 451
f 877 873 874
f 875 865 874
f 874 865 877
f 850 849 848
f 448 849 850
f 454 464 465
f 463 464 454
f 479 464 463
f 463 478 479
f 480 479 469
f 480 464 479
f 480 465 464
f 862 863 852
f 462 463 454
f 478 463 462
f 527 549 550
f 509 7 3
f 526 527 509
f 18 26 28
f 17 18 8
f 27 26 17
f 17 26 18
f 9 14 19
f 19 20 9
f 19 17 20
f 423 28 26
f 10 5 8
f 410 5 10
f 427 429 428
f 428 879 427
f 429 430 882
f 526 523 548
f 548 879 526
f 1089 1090 1079
f 1091 1090 1089
f 1079 1088 1089
f 1089 1088 1091
f 1105 1091 1087
f 1087 1106 1105
f 1078 1030 1046
f 1046 1030 1079
f 1079 1077 1046
f 1078 1083 1058
f 1083 1059 1058
f 1083 1026 1040
f 1040 1059 1083
f 1037 1020 1036
f 1036 1050 1037
f 1035 1036 1020
f 1050 1036 1035
f 1284 1063 1045
f 1045 1285 1284
f 1284 1270 1063
f 1284 1285 1270
f 1045 1052 1061
f 1061 1062 1045
f 1069 1062 1061
f 1286 1062 1073
f 1073 1062 1069
f 1027 1043 1028
f 1028 1014 1027
f 887 891 902
f 565 537 564
f 564 569 565
f 571 569 564
f 768 766 765
f 765 766 752
f 739 742 729
f 780 790 781
f 774 780 781
f 781 777 774
f 790 782 781
f 781 782 777
f 820 825 724
f 724 825 584
f 725 734 728
f 584 734 725
f 725 724 584
f 820 724 725
f 900 725 917
f 900 810 814
f 919 810 900
f 814 820 900
f 820 725 900
f 919 900 918
f 918 900 917
f 807 929 806
f 929 679 806
f 929 930 906
f 906 928 929
f 926 928 906
f 950 926 946
f 1115 1120 1132
f 1132 1116 1115
f 1094 1081 1084
f 1144 1102 1146
f 1140 1145 1146
f 1146 1102 1140
f 1084 1102 1095
f 1095 1094 1084
f 1081 1094 1095
f 1084 1091 1101
f 1101 1102 1084
f 60 95 66
f 66 95 67
f 67 40 66
f 132 148 152
f 93 59 92
f 104 93 92
f 284 286 272
f 284 265 267
f 274 275 252
f 274 287 286
f 272 252 271
f 268 269 252
f 252 251 268
f 268 251 248
f 244 255 256
f 256 257 244
f 256 255 276
f 276 257 256
f 212 211 230
f 192 262 210
f 210 211 192
f 211 212 192
f 177 190 192
f 192 190 262
f 231 210 281
f 210 262 281
f 262 280 281
f 291 298 330
f 291 281 280
f 231 281 291
f 289 295 294
f 276 275 289
f 286 295 289
f 275 274 289
f 1270 310 305
f 305 1033 1270
f 267 265 247
f 247 163 1005
f 1005 1017 247
f 1017 1033 247
f 1033 305 247
f 315 1270 1271
f 315 310 1270
f 1017 1016 1032
f 1032 1033 1017
f 1045 1053 1032
f 1054 1033 1032
f 1032 1053 1054
f 1032 1028 1045
f 1032 1016 1028
f 511 505 510
f 527 528 510
f 510 509 527
f 505 509 510
f 552 553 530
f 555 558 575
f 575 458 555
f 533 555 534
f 533 558 555
f 534 514 533
f 798 791 793
f 516 515 535
f 535 517 516
f 506 515 516
f 516 517 506
f 507 517 518
f 519 507 518
f 518 536 519
f 518 517 535
f 535 536 518
f 884 507 890
f 890 891 884
f 6 505 11
f 14 7 13
f 3 7 4
f 4 9 8
f 4 7 9
f 524 525 4
f 8 523 4
f 4 523 524
f 63 37 36
f 36 37 22
f 36 35 63
f 22 35 36
f 22 37 38
f 63 62 45
f 45 37 63
f 45 38 37
f 27 38 45
f 64 42 74
f 64 35 42
f 42 35 23
f 23 41 42
f 23 35 22
f 23 22 11
f 40 41 23
f 1306 34 23
f 23 511 1306
f 11 511 23
f 70 42 69
f 42 41 69
f 69 40 68
f 69 41 40
f 167 155 154
f 154 144 172
f 172 166 154
f 154 166 167
f 134 155 136
f 134 154 155
f 144 154 134
f 161 162 143
f 143 142 159
f 143 162 144
f 1085 1103 1104
f 1103 1122 1104
f 1104 1087 1085
f 1104 1106 1087
f 1013 1003 1079
f 1079 1015 1013
f 122 1003 1013
f 1013 1015 122
f 1306 1172 1307
f 1307 1308 1306
f 1172 1308 1307
f 1310 21 1309
f 30 1169 49
f 30 49 31
f 31 21 30
f 1170 785 792
f 1172 785 1170
f 1158 1141 1157
f 1157 1156 1158
f 1141 1156 1157
f 1158 1156 1167
f 1167 1121 1158
f 1167 1136 1121
f 1137 1136 1167
f 52 51 81
f 51 80 81
f 81 80 79
f 79 119 81
f 82 52 81
f 81 120 82
f 81 118 120
f 81 119 118
f 1150 1149 1141
f 1141 1151 1150
f 1140 1149 1150
f 1150 1151 1140
f 1140 1102 1142
f 805 1153 1166
f 1140 1153 805
f 804 1154 805
f 805 1154 1140
f 1304 1034 1298
f 1038 1034 1304
f 1298 1303 1304
f 1298 1034 1018
f 1018 999 1298
f 1019 999 1018
f 1018 1020 1019
f 1018 1034 1020
f 613 597 611
f 613 1002 602
f 1000 1002 613
f 771 1008 1009
f 1009 1010 771
f 1008 1010 1009
f 1024 1008 1023
f 1023 1010 1024
f 1011 1010 1023
f 1023 1025 1011
f 1199 1189 1188
f 983 1189 1199
f 1190 1200 983
f 983 1199 1190
f 1271 1288 1272
f 1259 1256 1272
f 1272 1273 1259
f 1289 1272 1288
f 1280 1296 1297
f 1301 1304 1303
f 1279 1035 1020
f 1279 1280 1267
f 1296 1280 1279
f 1056 1035 1279
f 990 1252 1269
f 1252 1268 1269
f 1078 1081 1082
f 1082 1083 1078
f 1082 1096 1083
f 767 616 756
f 756 753 767
f 767 753 616
f 756 742 754
f 754 753 756
f 754 742 739
f 739 753 754
f 616 597 615
f 809 690 691
f 809 679 690
f 809 806 679
f 807 806 809
f 809 810 807
f 809 813 810
f 814 810 815
f 810 813 815
f 611 596 612
f 612 596 600
f 617 611 612
f 612 600 617
f 600 599 610
f 610 609 600
f 610 599 595
f 595 609 610
f 1183 1189 982
f 982 1189 983
f 982 1176 1183
f 982 978 1176
f 988 996 989
f 989 997 990
f 990 976 989
f 989 976 988
f 997 989 994
f 994 989 996
f 964 624 963
f 988 976 987
f 1182 1177 1174
f 1182 1180 1183
f 1175 1177 1182
f 1183 1176 1182
f 1176 1175 1182
f 329 629 836
f 329 339 629
f 329 836 231
f 231 291 329
f 329 291 330
f 330 319 329
f 331 319 330
f 321 319 331
f 330 298 331
f 298 302 331
f 313 319 320
f 313 307 306
f 350 346 345
f 345 349 350
f 350 354 355
f 350 349 354
f 710 346 711
f 704 710 711
f 341 346 710
f 340 346 341
f 710 332 341
f 341 332 340
f 561 560 579
f 534 560 561
f 579 636 580
f 580 636 581
f 580 561 579
f 581 561 580
f 488 560 559
f 555 488 559
f 534 555 559
f 559 560 534
f 566 538 565
f 565 568 566
f 923 538 566
f 948 547 546
f 656 547 543
f 543 544 656
f 567 544 543
f 137 208 138
f 137 189 208
f 181 189 137
f 138 102 137
f 137 102 181
f 178 198 199
f 170 177 178
f 178 177 191
f 191 198 178
f 243 254 244
f 244 236 243
f 246 176 236
f 236 190 246
f 246 190 177
f 246 177 170
f 170 176 246
f 425 426 410
f 449 437 436
f 436 433 449
f 436 435 433
f 436 414 435
f 437 414 436
f 403 414 415
f 415 404 403
f 435 414 413
f 413 403 402
f 414 403 413
f 413 412 435
f 413 400 412
f 429 426 443
f 443 439 441
f 443 441 449
f 441 418 438
f 449 441 438
f 438 437 449
f 415 437 438
f 438 418 415
f 407 418 419
f 416 407 419
f 419 439 416
f 361 368 114
f 114 358 361
f 74 97 96
f 218 199 215
f 215 222 218
f 227 232 228
f 227 226 232
f 228 206 227
f 227 206 226
f 172 173 168
f 168 166 172
f 167 166 168
f 358 167 168
f 168 360 358
f 371 372 365
f 365 364 371
f 206 185 205
f 206 205 224
f 224 205 223
f 223 222 224
f 224 209 230
f 215 209 224
f 224 222 215
f 382 373 372
f 392 405 404
f 397 395 409
f 422 423 409
f 409 26 397
f 417 407 416
f 408 417 416
f 422 409 408
f 408 409 395
f 408 395 407
f 407 417 408
f 404 395 394
f 376 375 394
f 394 395 376
f 229 385 207
f 207 385 384
f 207 206 229
f 207 185 206
f 207 188 185
f 184 173 183
f 184 185 173
f 617 609 606
f 606 609 595
f 620 623 621
f 838 824 837
f 837 619 838
f 823 835 588
f 604 619 620
f 620 621 604
f 604 621 607
f 604 838 619
f 630 966 967
f 967 966 976
f 960 969 970
f 970 969 978
f 716 957 713
f 717 957 716
f 713 712 716
f 715 717 716
f 716 712 715
f 611 626 625
f 627 625 626
f 617 622 627
f 627 626 617
f 692 809 691
f 808 809 692
f 831 824 818
f 824 815 818
f 818 815 813
f 828 827 680
f 828 818 827
f 685 682 696
f 644 645 641
f 641 638 644
f 658 649 657
f 657 489 658
f 684 673 672
f 672 673 658
f 684 672 671
f 671 672 658
f 458 453 459
f 459 472 458
f 470 469 486
f 470 456 469
f 472 459 470
f 864 862 872
f 872 871 864
f 869 873 864
f 868 873 869
f 453 452 457
f 457 452 456
f 457 459 453
f 456 459 457
f 848 434 851
f 851 850 848
f 434 448 851
f 448 850 851
f 455 452 454
f 456 452 455
f 844 848 843
f 844 852 848
f 847 852 844
f 854 852 846
f 846 852 847
f 843 489 490
f 461 460 475
f 461 462 454
f 475 478 461
f 478 462 461
f 860 872 862
f 476 460 474
f 476 478 477
f 477 460 476
f 477 478 475
f 475 460 477
f 574 549 573
f 574 550 549
f 573 552 574
f 552 550 574
f 573 549 572
f 572 549 875
f 573 583 578
f 578 453 576
f 875 453 578
f 578 583 875
f 554 553 556
f 556 533 554
f 504 509 505
f 7 509 504
f 505 6 504
f 504 6 7
f 16 17 8
f 20 17 16
f 8 9 16
f 9 20 16
f 8 18 15
f 15 10 8
f 15 423 410
f 410 10 15
f 879 428 883
f 883 428 429
f 429 882 883
f 864 865 855
f 855 865 866
f 848 852 855
f 855 852 863
f 855 862 864
f 855 863 862
f 2 879 1
f 879 548 1
f 1 523 2
f 1 548 523
f 1047 1030 1078
f 1047 1048 1030
f 1049 1048 1039
f 1026 1025 1039
f 1039 1041 1026
f 1039 1050 1049
f 1037 1050 1039
f 1078 1046 1080
f 1080 1046 1077
f 1080 1077 1079
f 1079 1090 1080
f 1080 1090 1091
f 1026 1041 1042
f 1042 1040 1026
f 1055 1035 1056
f 1050 1035 1055
f 540 538 923
f 520 507 519
f 519 538 520
f 538 540 520
f 521 890 507
f 891 890 521
f 507 520 521
f 750 749 752
f 766 898 764
f 894 766 886
f 894 898 766
f 899 764 898
f 768 765 755
f 721 725 728
f 775 783 776
f 776 766 775
f 775 766 768
f 775 782 783
f 777 782 775
f 757 758 742
f 756 769 757
f 757 742 756
f 757 769 771
f 771 772 757
f 757 773 774
f 772 773 757
f 728 739 740
f 740 729 728
f 739 729 740
f 741 731 730
f 730 729 741
f 934 810 919
f 934 943 810
f 941 942 917
f 751 899 909
f 909 899 898
f 898 894 909
f 922 903 901
f 887 902 901
f 901 540 923
f 893 906 895
f 896 886 895
f 886 893 895
f 895 911 896
f 893 892 905
f 905 906 893
f 926 906 905
f 925 903 922
f 922 946 925
f 926 903 925
f 925 946 926
f 1120 1115 1131
f 1111 1095 1102
f 1099 1115 1116
f 1099 1116 1100
f 1099 1098 1113
f 1100 1083 1099
f 1083 1098 1099
f 1161 1145 1144
f 1144 1146 1161
f 1161 1146 1145
f 1130 1110 1112
f 1110 1095 1112
f 1095 1111 1112
f 1093 1095 1110
f 1083 1096 1093
f 1093 1098 1083
f 1093 1082 1081
f 1096 1082 1093
f 1133 1134 1141
f 1141 1128 1133
f 1091 1105 1107
f 1108 1128 1141
f 1141 1142 1108
f 1108 1142 1102
f 1102 1101 1108
f 1108 1101 1091
f 1091 1107 1108
f 1106 1104 1124
f 148 132 131
f 131 132 90
f 131 90 89
f 89 129 131
f 129 148 131
f 151 132 150
f 150 132 149
f 248 151 150
f 150 149 248
f 90 132 91
f 59 90 91
f 91 92 59
f 91 238 235
f 235 104 91
f 104 92 91
f 248 238 91
f 153 132 152
f 149 132 153
f 152 248 153
f 248 149 153
f 264 284 267
f 267 247 264
f 273 274 252
f 287 274 273
f 273 252 272
f 272 287 273
f 266 247 265
f 266 248 152
f 152 247 266
f 266 268 248
f 213 230 214
f 213 212 230
f 214 192 213
f 213 192 212
f 193 192 214
f 214 209 193
f 209 194 193
f 193 194 177
f 177 192 193
f 259 278 260
f 245 258 259
f 259 260 245
f 261 278 262
f 260 278 261
f 261 262 245
f 245 260 261
f 279 291 280
f 278 291 279
f 279 280 262
f 262 278 279
f 278 259 277
f 277 259 258
f 277 257 276
f 258 257 277
f 296 289 294
f 298 291 290
f 289 296 290
f 290 291 278
f 278 277 290
f 276 289 290
f 290 277 276
f 288 274 286
f 286 289 288
f 288 289 274
f 308 247 305
f 164 247 152
f 163 247 164
f 152 147 164
f 147 163 164
f 1253 315 1271
f 1271 1272 1253
f 1253 1272 1254
f 1254 1272 1255
f 1255 1272 1256
f 320 321 316
f 316 293 320
f 294 293 316
f 320 293 314
f 314 293 282
f 314 313 320
f 307 313 314
f 282 293 292
f 292 293 294
f 294 286 292
f 286 284 292
f 348 349 344
f 1174 1175 348
f 348 1175 354
f 354 349 348
f 343 1179 1174
f 1174 348 343
f 343 348 344
f 529 510 528
f 528 530 529
f 511 510 529
f 552 530 551
f 527 550 551
f 551 550 552
f 551 528 527
f 551 530 528
f 512 529 530
f 506 511 512
f 511 529 512
f 531 530 553
f 577 575 558
f 458 575 577
f 576 453 577
f 577 453 458
f 554 533 532
f 532 533 514
f 532 553 554
f 514 531 532
f 532 531 553
f 791 798 797
f 797 798 802
f 797 803 804
f 792 791 797
f 804 805 797
f 794 798 793
f 793 795 794
f 794 795 787
f 787 790 794
f 789 796 794
f 794 790 789
f 24 13 22
f 24 19 14
f 14 13 24
f 24 38 27
f 22 38 24
f 27 17 24
f 17 19 24
f 7 6 12
f 12 13 7
f 22 13 12
f 11 22 12
f 12 6 11
f 508 509 3
f 3 4 508
f 508 4 525
f 508 525 526
f 526 509 508
f 39 34 60
f 39 23 34
f 60 66 39
f 39 66 40
f 40 23 39
f 136 155 157
f 157 158 136
f 157 155 167
f 167 158 157
f 97 73 98
f 109 142 111
f 142 143 111
f 160 159 161
f 161 143 160
f 160 143 159
f 21 1310 1171
f 1171 1310 1309
f 1171 1308 1172
f 1309 1308 1171
f 1165 1170 792
f 792 797 1165
f 1165 797 805
f 1152 1164 1165
f 1165 1166 1152
f 1165 805 1166
f 1137 1167 1135
f 1155 1156 1134
f 1155 1167 1156
f 1155 1135 1167
f 1147 1148 1140
f 1140 1142 1147
f 1141 1148 1147
f 1147 1142 1141
f 1001 998 1000
f 1025 1023 1022
f 1022 1008 1007
f 1022 1023 1008
f 1022 1020 1037
f 1037 1039 1022
f 1022 1039 1025
f 1239 1238 1228
f 1238 983 1228
f 983 1200 1201
f 1201 1217 983
f 1200 1190 1201
f 1213 1212 1230
f 1230 1217 1213
f 983 1217 1230
f 1286 1073 1287
f 1287 1073 1069
f 1287 1289 1288
f 1288 1270 1287
f 1287 1270 1286
f 1267 1280 1281
f 1281 1280 1297
f 1297 1283 1281
f 990 1269 1281
f 1281 1269 1268
f 1281 999 990
f 1283 999 1281
f 1038 1304 1305
f 1304 1301 1305
f 1305 1020 1038
f 1305 1301 1020
f 1302 1296 1020
f 1020 1301 1302
f 1303 1296 1302
f 1302 1301 1303
f 1020 1296 1295
f 1295 1279 1020
f 1296 1279 1295
f 1267 1251 1266
f 1251 1250 1266
f 1237 1250 1251
f 1237 1252 1239
f 1237 1251 1252
f 1239 1228 1237
f 1237 1228 1227
f 597 613 614
f 614 615 597
f 614 613 602
f 602 616 614
f 616 615 614
f 821 815 824
f 814 815 821
f 978 982 973
f 974 962 973
f 973 982 983
f 983 994 995
f 995 994 996
f 993 983 992
f 993 994 983
f 993 992 997
f 997 994 993
f 974 987 975
f 975 976 964
f 975 987 976
f 986 987 974
f 974 973 986
f 986 973 985
f 986 985 988
f 988 987 986
f 965 962 974
f 974 975 965
f 964 963 965
f 965 975 964
f 959 332 709
f 959 965 963
f 962 965 959
f 959 339 332
f 624 339 959
f 959 963 624
f 1234 1224 1223
f 1206 1207 1195
f 1180 1179 1185
f 1185 1186 1180
f 1193 1186 1185
f 1244 1245 1234
f 1174 1180 1181
f 1181 1182 1174
f 1180 1182 1181
f 299 302 301
f 299 331 302
f 321 331 299
f 318 319 312
f 319 313 312
f 312 313 306
f 312 317 318
f 306 310 312
f 310 315 312
f 1232 317 312
f 315 1253 312
f 351 711 346
f 353 352 351
f 351 356 353
f 355 356 351
f 351 350 355
f 346 350 351
f 563 561 581
f 571 564 563
f 563 564 537
f 537 561 563
f 563 636 571
f 581 636 563
f 562 537 539
f 562 561 537
f 562 539 534
f 534 561 562
f 923 566 924
f 570 567 924
f 924 568 570
f 924 566 568
f 924 901 923
f 547 948 947
f 947 543 547
f 567 543 947
f 947 924 567
f 948 924 947
f 949 546 944
f 949 948 546
f 944 924 949
f 949 924 948
f 199 189 179
f 179 178 199
f 179 189 181
f 170 178 179
f 240 250 242
f 236 240 242
f 242 243 236
f 254 243 242
f 252 254 242
f 242 250 252
f 450 434 848
f 848 446 450
f 450 448 434
f 449 448 450
f 450 446 449
f 445 430 429
f 449 446 445
f 389 403 390
f 404 405 390
f 390 403 404
f 372 389 390
f 390 382 372
f 388 403 389
f 372 387 388
f 388 389 372
f 402 403 388
f 401 413 402
f 400 413 401
f 402 388 401
f 387 400 401
f 401 388 387
f 420 408 416
f 426 425 420
f 420 425 410
f 439 419 442
f 442 419 418
f 441 439 442
f 442 418 441
f 115 114 368
f 115 368 381
f 100 134 136
f 135 100 136
f 135 114 101
f 101 100 135
f 358 114 135
f 35 64 65
f 65 64 74
f 74 96 65
f 27 45 46
f 46 47 27
f 45 47 46
f 76 45 62
f 76 47 45
f 169 168 173
f 360 168 169
f 365 360 169
f 169 364 365
f 383 384 372
f 383 207 384
f 188 207 383
f 226 206 225
f 206 224 225
f 230 226 225
f 225 224 230
f 374 375 365
f 365 373 374
f 373 392 374
f 424 423 26
f 26 409 424
f 424 409 423
f 393 394 375
f 375 374 393
f 393 374 392
f 393 392 404
f 204 222 223
f 223 205 204
f 204 205 185
f 203 183 202
f 203 184 183
f 185 184 203
f 203 204 185
f 608 621 623
f 608 622 617
f 607 621 608
f 608 623 624
f 624 622 608
f 832 588 835
f 832 834 833
f 832 821 824
f 832 835 823
f 823 834 832
f 589 585 823
f 823 588 589
f 586 585 589
f 589 592 586
f 595 592 589
f 594 604 607
f 594 606 595
f 595 589 594
f 607 608 594
f 588 604 594
f 594 589 588
f 631 622 630
f 630 967 631
f 632 622 631
f 631 976 632
f 631 967 976
f 991 998 618
f 998 1001 618
f 618 613 611
f 611 625 618
f 1000 613 618
f 618 1001 1000
f 977 627 634
f 634 627 622
f 684 669 683
f 669 682 683
f 683 685 684
f 682 685 683
f 680 682 681
f 681 682 669
f 681 826 680
f 681 669 831
f 831 826 681
f 830 826 831
f 680 826 830
f 831 818 830
f 688 687 691
f 677 687 688
f 689 677 688
f 674 685 675
f 674 673 684
f 684 685 674
f 697 694 703
f 696 694 697
f 696 682 695
f 695 694 696
f 695 682 680
f 680 694 695
f 686 687 675
f 691 687 686
f 686 698 691
f 675 685 686
f 686 685 696
f 696 697 686
f 686 697 698
f 653 654 645
f 665 678 668
f 665 677 678
f 655 654 665
f 668 666 665
f 666 655 665
f 645 644 650
f 650 644 649
f 642 638 503
f 649 644 643
f 643 648 649
f 643 644 638
f 638 642 643
f 643 642 648
f 489 657 498
f 491 490 498
f 498 490 489
f 658 673 659
f 659 649 658
f 673 674 659
f 659 674 660
f 658 489 670
f 670 671 658
f 670 489 684
f 684 671 670
f 486 472 487
f 487 470 486
f 472 470 487
f 471 459 456
f 456 470 471
f 471 470 459
f 864 871 870
f 870 869 864
f 467 480 469
f 842 846 847
f 847 844 842
f 842 490 491
f 842 844 843
f 843 490 842
f 842 491 476
f 854 460 853
f 853 852 854
f 582 583 573
f 573 572 582
f 875 583 582
f 582 572 875
f 557 552 573
f 573 578 557
f 557 578 576
f 557 553 552
f 557 556 553
f 576 577 557
f 557 577 558
f 558 533 557
f 533 556 557
f 18 28 25
f 25 15 18
f 28 423 25
f 423 15 25
f 866 879 880
f 879 883 880
f 881 882 866
f 881 883 882
f 866 880 881
f 881 880 883
f 867 882 430
f 866 882 867
f 857 867 858
f 858 446 848
f 848 857 858
f 1060 1042 1047
f 1059 1040 1060
f 1040 1042 1060
f 1048 1047 1057
f 1047 1042 1057
f 1057 1042 1041
f 1057 1039 1048
f 1041 1039 1057
f 1051 1061 1052
f 1069 1061 1051
f 1050 1067 1051
f 1066 1067 1050
f 1050 1055 1066
f 1276 1260 1275
f 1278 1279 1267
f 1056 1279 1278
f 1067 1066 1278
f 920 520 540
f 920 901 902
f 540 901 920
f 542 521 520
f 891 521 542
f 766 764 763
f 763 899 751
f 764 899 763
f 743 755 741
f 741 729 743
f 743 729 742
f 741 755 744
f 744 755 760
f 744 731 741
f 760 745 744
f 722 730 731
f 722 721 728
f 728 729 722
f 729 730 722
f 752 745 761
f 761 745 760
f 760 755 761
f 761 765 752
f 761 755 765
f 777 775 770
f 770 775 758
f 774 777 770
f 770 757 774
f 758 757 770
f 919 918 935
f 935 934 919
f 917 942 936
f 922 901 921
f 921 924 944
f 901 924 921
f 921 944 668
f 668 922 921
f 888 901 903
f 888 892 889
f 888 889 884
f 888 884 887
f 887 901 888
f 911 895 910
f 910 895 906
f 934 935 910
f 918 911 910
f 910 935 918
f 927 903 926
f 926 905 927
f 950 946 956
f 946 955 956
f 956 700 950
f 945 946 922
f 945 955 946
f 1117 1102 1120
f 1120 1131 1117
f 1110 1099 1109
f 1109 1099 1113
f 1113 1098 1109
f 1109 1093 1110
f 1098 1093 1109
f 1130 1115 1114
f 1115 1099 1114
f 1114 1110 1130
f 1114 1099 1110
f 1081 1095 1092
f 1092 1093 1081
f 1095 1093 1092
f 1139 1128 1137
f 1139 1133 1128
f 1137 1135 1139
f 1135 1155 1139
f 1134 1133 1139
f 1139 1155 1134
f 1129 1107 1128
f 1128 1108 1129
f 1129 1108 1107
f 1137 1128 1138
f 1128 1107 1127
f 1127 1138 1128
f 1124 1138 1127
f 1106 1124 1125
f 1125 1105 1106
f 1125 1107 1105
f 133 151 248
f 248 91 133
f 133 132 151
f 133 91 132
f 272 271 270
f 270 284 272
f 252 269 270
f 270 271 252
f 269 268 270
f 268 266 270
f 297 302 298
f 301 302 297
f 298 290 297
f 297 290 296
f 294 301 297
f 297 296 294
f 309 305 310
f 309 308 305
f 1179 343 342
f 333 1185 342
f 513 514 506
f 513 531 514
f 506 512 513
f 513 512 530
f 530 531 513
f 802 798 799
f 798 794 799
f 799 797 802
f 803 797 799
f 799 794 796
f 804 803 799
f 799 801 804
f 796 801 799
f 71 42 70
f 68 109 110
f 109 111 110
f 110 71 70
f 110 69 68
f 70 69 110
f 112 111 143
f 112 98 73
f 144 134 112
f 112 143 144
f 29 1171 1169
f 1169 30 29
f 29 30 21
f 21 1171 29
f 1007 1006 1021
f 1021 1022 1007
f 1021 1006 1020
f 1020 1022 1021
f 1225 1226 1209
f 1225 1224 1227
f 1227 1226 1225
f 1197 1212 1213
f 1197 1211 1212
f 1196 1197 1188
f 1211 1197 1196
f 1212 1211 1229
f 1229 1230 1212
f 1229 1228 983
f 983 1230 1229
f 1227 1228 1210
f 1210 1226 1227
f 1228 1229 1210
f 1210 1229 1211
f 1211 1196 1210
f 1209 1226 1210
f 1210 1196 1209
f 1217 1201 1216
f 1299 1287 1069
f 1282 1268 1267
f 1267 1281 1282
f 1282 1281 1268
f 1261 1260 1276
f 1246 1260 1261
f 1234 1245 1235
f 1235 1245 1246
f 1248 1249 1235
f 1235 1227 1234
f 971 973 962
f 960 970 971
f 971 970 978
f 978 973 971
f 984 973 983
f 985 973 984
f 983 995 984
f 984 995 996
f 984 996 988
f 988 985 984
f 709 957 958
f 958 959 709
f 962 959 958
f 1193 1185 1192
f 1206 1193 1202
f 1202 1205 1206
f 1193 1192 1202
f 1191 1205 1202
f 1202 1192 1191
f 1208 1195 1207
f 1208 1223 1224
f 1187 1186 1193
f 1188 1180 1187
f 1180 1186 1187
f 1194 1193 1206
f 1206 1195 1194
f 1195 1187 1194
f 1194 1187 1193
f 1218 317 1232
f 1259 1258 1257
f 1257 1256 1259
f 1234 1223 1222
f 1222 1208 1207
f 1223 1208 1222
f 328 329 319
f 319 327 328
f 339 329 328
f 338 339 328
f 328 327 338
f 300 316 321
f 321 299 300
f 294 316 300
f 300 301 294
f 300 299 301
f 1232 312 1243
f 1245 1244 1243
f 1243 1244 1232
f 1243 1258 1259
f 1246 1245 1243
f 1259 1260 1243
f 1243 1260 1246
f 325 327 319
f 325 319 318
f 318 324 325
f 336 325 335
f 335 325 324
f 344 338 335
f 338 336 335
f 323 326 333
f 318 326 323
f 323 324 318
f 347 351 352
f 347 352 704
f 200 179 181
f 429 443 444
f 444 445 429
f 444 443 449
f 449 445 444
f 382 390 391
f 373 382 391
f 391 392 373
f 405 392 391
f 391 390 405
f 440 443 426
f 426 420 440
f 439 443 440
f 416 439 440
f 440 420 416
f 421 420 410
f 408 420 421
f 422 408 421
f 410 423 421
f 421 423 422
f 381 113 116
f 116 115 381
f 47 76 77
f 101 114 77
f 114 115 77
f 62 101 77
f 77 76 62
f 134 100 99
f 99 112 134
f 98 112 99
f 97 98 61
f 61 100 101
f 98 99 61
f 61 99 100
f 61 96 97
f 61 65 96
f 61 101 62
f 62 35 61
f 35 65 61
f 136 158 156
f 156 135 136
f 358 135 156
f 156 167 358
f 156 158 167
f 173 185 186
f 185 188 186
f 370 371 364
f 364 367 370
f 379 383 372
f 188 383 379
f 372 371 379
f 371 370 379
f 379 370 367
f 404 394 406
f 406 393 404
f 394 393 406
f 204 203 221
f 222 204 221
f 822 832 833
f 821 832 822
f 822 834 823
f 833 834 822
f 822 823 814
f 814 821 822
f 840 841 824
f 604 841 840
f 593 832 824
f 588 832 593
f 593 604 588
f 606 594 605
f 605 594 608
f 617 606 605
f 605 608 617
f 628 618 625
f 991 618 628
f 628 977 991
f 628 627 977
f 625 627 628
f 633 622 632
f 633 634 622
f 632 976 633
f 633 976 977
f 977 634 633
f 819 818 813
f 827 818 817
f 680 827 817
f 829 828 680
f 680 830 829
f 818 828 829
f 829 830 818
f 689 688 699
f 699 922 689
f 699 688 691
f 699 945 922
f 691 700 699
f 955 945 699
f 700 956 699
f 699 956 955
f 703 702 701
f 701 697 703
f 698 697 701
f 691 698 701
f 701 702 691
f 703 694 693
f 693 702 703
f 693 692 691
f 691 702 693
f 676 687 677
f 677 665 676
f 675 687 676
f 676 665 675
f 654 653 663
f 663 665 654
f 675 665 664
f 665 663 664
f 664 653 662
f 664 663 653
f 675 664 661
f 661 664 662
f 661 674 675
f 660 674 661
f 648 642 502
f 503 493 502
f 502 642 503
f 492 478 491
f 491 500 492
f 479 478 492
f 492 493 481
f 481 479 492
f 492 502 493
f 657 500 499
f 499 498 657
f 499 500 491
f 491 498 499
f 869 870 859
f 454 868 859
f 868 869 859
f 859 870 871
f 859 860 460
f 871 872 859
f 872 860 859
f 859 461 454
f 460 461 859
f 468 467 469
f 455 467 468
f 469 456 468
f 456 455 468
f 466 467 455
f 454 465 466
f 466 455 454
f 465 480 466
f 480 467 466
f 854 846 845
f 846 842 845
f 845 460 854
f 845 474 460
f 476 474 845
f 845 842 476
f 460 860 861
f 861 853 460
f 852 853 861
f 862 852 861
f 861 860 862
f 856 857 848
f 856 867 857
f 848 855 856
f 856 855 866
f 866 867 856
f 1072 1058 1059
f 1059 1060 1072
f 1072 1060 1058
f 1058 1060 1065
f 1065 1060 1047
f 1078 1058 1065
f 1065 1047 1078
f 1069 1051 1068
f 1067 1076 1068
f 1068 1051 1067
f 1031 1052 1044
f 1031 1051 1052
f 1044 1043 1031
f 1043 1027 1031
f 1031 1030 1049
f 1031 1027 1014
f 1049 1050 1031
f 1050 1051 1031
f 1079 1030 1031
f 1031 1014 1079
f 1070 1055 1056
f 1056 1066 1070
f 1070 1066 1055
f 1071 1066 1056
f 1277 1275 1292
f 1277 1278 1267
f 1292 1278 1277
f 1292 1275 1274
f 1274 1275 1260
f 1273 1272 1274
f 1272 1289 1274
f 1259 1273 1274
f 1274 1260 1259
f 1067 1278 1291
f 1291 1278 1292
f 1291 1300 1067
f 1292 1274 1291
f 1056 1278 1294
f 1294 1071 1056
f 1294 1278 1066
f 1066 1071 1294
f 1075 1076 1067
f 1069 1068 1075
f 1075 1068 1076
f 1075 1291 1069
f 1300 1291 1075
f 902 520 541
f 541 920 902
f 520 920 541
f 522 520 902
f 522 542 520
f 522 902 891
f 891 542 522
f 762 763 751
f 766 763 762
f 751 750 762
f 752 766 762
f 762 750 752
f 742 758 759
f 759 743 742
f 759 775 768
f 758 775 759
f 768 755 759
f 755 743 759
f 731 744 732
f 732 722 731
f 938 941 720
f 720 727 938
f 733 732 745
f 722 732 733
f 748 915 737
f 737 752 748
f 752 749 748
f 749 750 914
f 914 748 749
f 915 748 914
f 914 750 751
f 751 909 914
f 917 725 719
f 719 939 917
f 725 721 719
f 940 941 917
f 917 939 940
f 954 940 939
f 939 719 954
f 897 894 886
f 897 907 894
f 897 886 896
f 896 911 897
f 907 897 913
f 943 934 931
f 934 910 931
f 929 943 931
f 931 930 929
f 931 906 930
f 931 910 906
f 904 927 905
f 904 905 892
f 892 888 904
f 904 888 903
f 903 927 904
f 1118 1112 1111
f 1118 1131 1115
f 1118 1117 1131
f 1118 1111 1102
f 1102 1117 1118
f 1118 1115 1130
f 1130 1112 1118
f 1123 1122 1137
f 1137 1138 1123
f 1123 1138 1124
f 1123 1104 1122
f 1123 1124 1104
f 1107 1125 1126
f 1126 1125 1124
f 1126 1127 1107
f 1124 1127 1126
f 283 292 284
f 284 264 283
f 264 263 283
f 282 292 283
f 285 266 265
f 285 270 266
f 265 284 285
f 284 270 285
f 1178 1185 1179
f 1179 342 1178
f 1178 342 1185
f 334 343 344
f 334 342 343
f 344 335 334
f 333 342 334
f 334 323 333
f 334 335 324
f 324 323 334
f 72 110 111
f 111 112 72
f 71 110 72
f 42 71 72
f 72 73 42
f 72 112 73
f 1188 1197 1198
f 1198 1201 1190
f 1198 1216 1201
f 1197 1216 1198
f 1198 1199 1188
f 1198 1190 1199
f 1213 1217 1214
f 1214 1197 1213
f 1248 1261 1264
f 1264 1261 1276
f 1276 1275 1264
f 1264 1277 1267
f 1275 1277 1264
f 1246 1261 1262
f 1262 1261 1248
f 1236 1249 1250
f 1236 1237 1227
f 1250 1237 1236
f 1227 1235 1236
f 1236 1235 1249
f 1247 1235 1246
f 1248 1235 1247
f 1246 1262 1247
f 1247 1262 1248
f 961 971 962
f 962 958 961
f 961 958 957
f 961 957 960
f 960 971 961
f 1184 1185 333
f 1184 1192 1185
f 1184 333 1191
f 1191 1192 1184
f 317 1218 322
f 1191 333 322
f 333 326 322
f 322 326 318
f 318 317 322
f 1221 1222 1207
f 1241 1257 1258
f 1258 1243 1241
f 337 325 336
f 327 325 337
f 337 336 338
f 338 327 337
f 711 351 705
f 351 347 705
f 704 711 705
f 705 347 704
f 180 181 170
f 180 200 181
f 170 179 180
f 179 200 180
f 115 116 78
f 78 77 115
f 78 116 113
f 113 75 78
f 174 169 173
f 173 186 174
f 188 367 366
f 378 367 188
f 188 379 378
f 378 379 367
f 219 203 202
f 219 221 203
f 202 199 219
f 199 218 219
f 219 218 222
f 222 221 219
f 824 838 839
f 839 840 824
f 838 604 839
f 604 840 839
f 824 841 603
f 603 593 824
f 603 841 604
f 604 593 603
f 813 809 812
f 812 819 813
f 812 809 808
f 818 819 811
f 811 817 818
f 819 812 811
f 811 812 808
f 808 692 811
f 692 693 811
f 660 661 651
f 649 659 651
f 651 659 660
f 651 650 649
f 645 650 651
f 651 661 662
f 662 653 651
f 649 648 501
f 648 502 501
f 501 492 500
f 502 492 501
f 431 858 867
f 431 867 430
f 446 858 431
f 430 445 431
f 431 445 446
f 1290 1291 1274
f 1290 1274 1289
f 1290 1299 1069
f 1069 1291 1290
f 1289 1287 1290
f 1287 1299 1290
f 1067 1300 1293
f 1300 1075 1293
f 746 732 744
f 726 938 727
f 727 733 736
f 738 727 736
f 736 733 745
f 736 752 737
f 736 745 752
f 722 733 723
f 720 941 723
f 723 727 720
f 723 733 727
f 915 914 937
f 942 941 937
f 941 938 937
f 937 938 915
f 941 940 953
f 940 954 953
f 953 723 941
f 953 954 722
f 722 723 953
f 722 954 718
f 718 954 719
f 721 722 718
f 718 719 721
f 907 913 908
f 908 909 894
f 894 907 908
f 932 913 936
f 909 908 932
f 932 908 913
f 936 913 912
f 912 911 918
f 912 897 911
f 912 913 897
f 912 918 917
f 917 936 912
f 304 283 263
f 1217 1216 1215
f 1215 1214 1217
f 1215 1216 1197
f 1197 1214 1215
f 1263 1249 1248
f 1263 1266 1250
f 1250 1249 1263
f 1267 1266 1263
f 1191 322 1203
f 1203 322 1218
f 1233 1218 1232
f 1233 1221 1218
f 1232 1244 1233
f 1233 1244 1234
f 1234 1222 1233
f 1222 1221 1233
f 1231 1243 312
f 312 1241 1231
f 1257 1241 1240
f 1240 1255 1256
f 1256 1257 1240
f 1254 1255 1240
f 1240 1241 312
f 1240 1253 1254
f 1240 312 1253
f 47 77 48
f 77 78 48
f 48 44 27
f 27 47 48
f 48 75 44
f 48 78 75
f 175 174 186
f 187 186 188
f 188 366 187
f 187 175 186
f 366 175 187
f 680 817 816
f 817 811 816
f 816 694 680
f 816 693 694
f 816 811 693
f 652 653 645
f 645 651 652
f 652 651 653
f 647 657 649
f 649 501 647
f 647 500 657
f 647 501 500
f 1074 1075 1067
f 1067 1293 1074
f 1074 1293 1075
f 747 744 745
f 747 746 744
f 745 732 747
f 732 746 747
f 735 727 738
f 735 726 727
f 738 736 735
f 735 736 726
f 915 938 916
f 938 726 916
f 737 915 916
f 916 736 737
f 726 736 916
f 933 914 909
f 933 937 914
f 909 932 933
f 933 932 936
f 933 936 942
f 942 937 933
f 282 283 311
f 283 304 311
f 311 304 307
f 311 314 282
f 307 314 311
f 306 307 303
f 307 304 303
f 303 304 263
f 303 263 264
f 303 264 247
f 247 308 303
f 308 309 303
f 303 310 306
f 303 309 310
f 1248 1264 1265
f 1265 1263 1248
f 1265 1264 1267
f 1267 1263 1265
f 1219 1203 1218
f 1219 1207 1206
f 1242 1241 1243
f 1243 1231 1242
f 1242 1231 1241
f 359 175 366
f 359 366 367
f 169 174 359
f 174 175 359
f 364 169 359
f 359 367 364
f 1218 1221 1220
f 1220 1219 1218
f 1220 1221 1207
f 1207 1219 1220
f 1191 1203 1204
f 1203 1219 1204
f 1204 1205 1191
f 1206 1205 1204
f 1204 1219 1206
f 1080 1091 1084
f 1084 1078 1080
f 1171 1170 1169
f 1172 1170 1171
f 1169 1170 1165
f 1164 1169 1165
f 1208 1225 1209
f 1224 1225 1208
f 1209 1196 1208
f 1208 1196 1195
f 1195 1196 1187
f 1187 1196 1188

