# https://github.com/mikedh/trimesh
v 0.04059453 -0.00001089 0.00331468
v -0.03990720 0.00088101 -0.00216608
v 0.00223187 -0.02899988 -0.03183766
v -0.00276562 -0.03247631 0.02611140
v 0.02277257 0.00805750 -0.03528810
v 0.01534863 0.01026271 0.03413772
v -0.01820017 0.00551529 -0.03621769
v -0.02329495 0.00496902 0.03112064
v 0.02386437 -0.03255376 -0.00103874
v -0.02406977 -0.03131764 -0.00270147
v 0.02501359 -0.01957024 0.02763217
v 0.03281782 -0.01527005 -0.02071206
v -0.02910334 -0.01526343 -0.02346932
v -0.02627445 -0.02057874 0.02459681
v 0.00015951 -0.04026286 -0.00370872
v 0.03378643 0.00059665 0.02534763
v 0.01712675 -0.01345362 -0.03593656
v 0.03579169 0.00681344 -0.01799659
v -0.03254192 0.01036554 -0.01947042
v -0.03622366 0.01231930 0.01626852
v -0.01124082 -0.01440940 -0.03743009
v -0.00484182 -0.00267054 0.03509633
v 0.03574722 -0.01828690 0.01036535
v 0.00305050 0.00911952 -0.03766243
v -0.03532908 -0.01741572 0.00555411
v -0.01401181 -0.03215705 -0.02135713
v 0.01993972 -0.02958429 -0.02221880
v 0.01257491 -0.03644723 0.01408579
v -0.01274228 -0.03706938 0.01111450
v -0.03575369 -0.00683024 0.01918342
v -0.01216720 -0.01887404 0.03324137
v 0.00846624 -0.02203032 0.03223094
v 0.01649955 -0.00833998 0.03531583
v 0.03746355 -0.01527794 -0.00542329
v 0.03695954 0.01072648 0.01395227
v 0.00509743 -0.03660518 -0.01894111
v -0.03604039 -0.01280883 -0.00849823
v 0.02594499 -0.02893275 0.01284326
v 0.02983959 -0.00555215 -0.03083793
v -0.02486817 -0.02893071 0.01363784
v -0.02553774 -0.02668818 -0.01565659
v 0.03006869 -0.02550523 -0.01187157
v 0.03818372 0.01055604 -0.00473208
v -0.03248749 -0.00264748 -0.02193586
v -0.01898006 -0.00764467 0.03329093
v -0.01844702 -0.02277187 -0.03037782
v -0.01623213 -0.02889996 0.02539607
v 0.01517381 -0.03649067 -0.01062904
v 0.03833861 -0.00619975 0.01446426
v -0.02474659 -0.00837790 -0.03320549
v -0.03634886 0.01198991 -0.00751337
v -0.01171690 -0.03782102 -0.00731630
v 0.03934888 -0.00213253 -0.00998635
v 0.00223187 -0.03965405 0.00850920
v 0.02388034 0.01133981 0.02567961
v -0.03949167 0.00104796 0.01085513
v 0.01687887 -0.03026348 0.02295485
v -0.00699581 0.00340763 -0.03862890
v -0.03757006 0.01208918 0.00394133
v 0.02744725 -0.00681576 0.03142402
v 0.01100881 -0.03895075 -0.00034607
v 0.01296925 -0.02359403 -0.03386569
v 0.03300184 -0.01155426 0.02252639
v -0.03319335 0.00213539 0.02510577
v -0.00740778 -0.02419857 -0.03455809
v -0.02767347 0.00708972 -0.02857205
v 0.02270763 -0.02168283 -0.02957398
v 0.03555943 -0.00490061 -0.02034073
v 0.00223187 -0.01942495 -0.03656757
v 0.02530354 0.00454214 0.03364697
v -0.03121911 -0.02308298 -0.00760591
v -0.02795473 -0.00992557 0.02858249
v -0.03676258 -0.00092835 -0.01262932
v 0.03131556 -0.02601067 0.00179621
v -0.02945899 0.01199442 0.02394906
v 0.02978344 0.00869634 -0.02786199
v -0.00457005 -0.03338607 -0.02504982
v 0.00735832 -0.03403849 0.02246212
v 0.01694457 -0.00001089 -0.03709952
v 0.01111021 -0.03143626 -0.02666047
v -0.00352715 -0.02443725 0.03203481
v -0.00665394 -0.03975090 0.00348200
v -0.03185965 -0.02044337 0.01431203
v -0.00335141 -0.03816315 -0.01414121
v -0.01484460 -0.00541441 -0.03767792
v 0.01338093 0.00900474 -0.03699126
v -0.03845011 -0.00800791 0.00805921
v 0.03103389 -0.02017835 0.01903447
v 0.03917612 -0.00986420 0.00579515
v -0.03028825 -0.02525332 0.00421233
v 0.01913977 -0.03504148 0.00755896
v 0.02752612 -0.02385859 -0.02061923
v -0.02143503 -0.01615684 0.03100166
v 0.03377517 0.01002619 0.02242482
v -0.00599900 -0.03726377 0.01713526
v -0.01738366 -0.03590702 0.00114501
v -0.03353993 -0.01010605 -0.01750732
v 0.03945296 0.00836706 0.00535704
v -0.03074188 -0.01982972 -0.01617876
v 0.01828516 0.00005752 0.03568934
v 0.01379174 -0.03437414 -0.01873402
v 0.03759875 -0.01005374 -0.01242142
v -0.01801164 -0.03416141 -0.01151510
v -0.00530085 0.01019057 -0.03400089
v -0.02339475 -0.02429674 -0.02339000
v 0.03926521 0.00286447 0.01268933
v -0.03767167 -0.01141006 -0.00049382
v 0.01810697 -0.02381121 0.02918890
v 0.00223187 -0.03760969 0.01700222
v 0.00705787 -0.03935747 -0.00808686
v 0.03605142 -0.01903716 0.00222467
v -0.02729242 -0.00088775 -0.02987417
v -0.03177618 -0.01570111 0.02082925
v 0.00478571 -0.02949742 0.02859620
v -0.01289148 -0.02824279 -0.02845898
v 0.02344373 -0.00755812 -0.03522247
v 0.02628676 -0.01465404 -0.03080937
v 0.03241580 0.00127723 -0.02656296
v -0.01841854 -0.03236241 0.01672941
v -0.02143503 -0.03291042 0.00725282
v -0.01800757 0.01080795 0.03046306
v 0.02189641 -0.03257745 -0.01202867
v -0.02143503 -0.01582231 -0.03256572
v 0.02226071 -0.01408937 0.03250230
v -0.02909246 -0.00808913 -0.02655608
v 0.02381930 -0.02736114 0.02011275
v -0.03575731 -0.01397296 0.01265299
v -0.02789848 -0.00112238 0.02962022
f 58 69 21
f 40 47 14
f 1 43 98
f 51 43 104
f 43 86 104
f 104 19 51
f 62 3 69
f 17 62 69
f 76 86 43
f 37 97 99
f 84 26 77
f 77 26 115
f 65 21 69
f 69 3 65
f 65 115 46
f 65 3 77
f 77 115 65
f 119 47 40
f 96 82 29
f 31 47 81
f 47 119 95
f 95 119 29
f 29 82 95
f 44 112 50
f 55 43 51
f 49 89 1
f 15 84 110
f 89 49 23
f 23 49 63
f 77 3 36
f 36 84 77
f 36 110 84
f 3 62 80
f 80 36 3
f 101 36 80
f 80 62 67
f 18 76 43
f 86 76 5
f 39 5 76
f 50 112 66
f 66 7 50
f 112 44 66
f 66 44 19
f 19 104 66
f 104 7 66
f 85 21 50
f 50 7 85
f 58 21 85
f 85 7 58
f 24 104 86
f 24 7 104
f 24 86 58
f 58 7 24
f 46 115 105
f 105 115 26
f 13 99 97
f 13 105 99
f 103 26 52
f 26 84 52
f 52 96 103
f 82 96 52
f 52 84 15
f 15 82 52
f 120 96 29
f 120 119 40
f 29 119 120
f 40 90 120
f 4 81 47
f 114 81 4
f 47 95 4
f 70 124 60
f 32 81 114
f 100 124 70
f 70 6 100
f 54 82 15
f 54 95 82
f 19 44 73
f 2 51 73
f 51 19 73
f 73 44 97
f 73 37 2
f 73 97 37
f 35 98 43
f 43 55 35
f 20 55 51
f 6 55 75
f 75 121 6
f 55 20 75
f 75 20 64
f 1 98 106
f 106 49 1
f 98 35 106
f 122 9 48
f 48 101 122
f 48 36 101
f 110 36 48
f 88 23 63
f 122 101 27
f 27 92 122
f 101 80 27
f 67 92 27
f 27 80 67
f 1 89 53
f 53 43 1
f 53 18 43
f 86 5 79
f 58 86 79
f 79 69 58
f 79 17 69
f 76 18 118
f 118 39 76
f 62 17 116
f 5 39 116
f 17 79 116
f 116 79 5
f 99 105 41
f 41 26 103
f 41 105 26
f 83 90 40
f 113 127 83
f 40 14 83
f 83 14 113
f 2 37 107
f 107 87 2
f 37 99 71
f 71 107 37
f 99 41 71
f 97 44 125
f 125 13 97
f 125 44 50
f 50 13 125
f 46 105 123
f 105 13 123
f 123 13 50
f 50 21 123
f 123 65 46
f 21 65 123
f 126 88 11
f 11 88 63
f 63 60 11
f 11 60 124
f 9 74 38
f 38 88 126
f 38 74 23
f 23 88 38
f 63 49 16
f 16 60 63
f 49 106 16
f 70 60 16
f 108 32 114
f 124 32 108
f 108 11 124
f 114 57 108
f 108 57 126
f 126 11 108
f 33 32 124
f 124 100 33
f 31 81 33
f 81 32 33
f 6 121 22
f 22 100 6
f 31 33 22
f 22 33 100
f 95 54 109
f 109 4 95
f 15 110 61
f 61 54 15
f 61 48 9
f 110 48 61
f 94 35 55
f 94 6 70
f 94 55 6
f 70 16 94
f 94 106 35
f 94 16 106
f 30 127 113
f 30 87 127
f 113 14 72
f 72 30 113
f 64 30 72
f 59 51 2
f 59 20 51
f 42 9 122
f 42 74 9
f 122 92 42
f 92 12 42
f 34 53 89
f 102 53 34
f 34 12 102
f 34 42 12
f 39 12 117
f 117 116 39
f 117 92 67
f 117 12 92
f 67 62 117
f 62 116 117
f 18 53 68
f 68 118 18
f 68 53 102
f 39 118 68
f 102 12 68
f 68 12 39
f 25 71 90
f 107 71 25
f 25 83 127
f 90 83 25
f 127 87 25
f 87 107 25
f 10 41 103
f 10 71 41
f 90 71 10
f 103 96 10
f 96 120 10
f 10 120 90
f 78 57 114
f 114 4 78
f 4 109 78
f 9 38 91
f 91 61 9
f 87 30 56
f 2 87 56
f 64 20 56
f 56 30 64
f 56 59 2
f 20 59 56
f 93 72 14
f 93 47 31
f 93 14 47
f 121 75 8
f 8 75 64
f 8 22 121
f 23 74 111
f 89 23 111
f 111 34 89
f 74 42 111
f 42 34 111
f 54 61 28
f 61 91 28
f 28 109 54
f 28 78 109
f 57 78 28
f 126 57 28
f 28 38 126
f 28 91 38
f 64 72 128
f 128 8 64
f 45 93 31
f 31 22 45
f 22 8 45
f 8 128 45
f 72 93 45
f 45 128 72

