# https://github.com/mikedh/trimesh
v -0.00880304 -0.01143788 -0.05138174
v 0.00278910 0.01947743 0.05532198
v -0.01484135 0.01746467 0.00634902
v 0.00514692 -0.00964359 0.03345003
v 0.01165823 0.02285452 0.02403015
v 0.01052967 0.00868866 -0.05138402
v -0.01489531 0.02335664 0.03462743
v -0.01343710 -0.00474552 -0.00896655
v -0.01466523 0.00454320 0.04876515
v 0.01212187 0.00568250 0.04405426
v -0.01134916 0.00789255 -0.05374164
v 0.01193273 0.01864417 0.00517108
v 0.00909860 -0.00927881 -0.05583932
v 0.00278910 0.02889368 0.03934009
v 0.00396782 -0.00845623 0.05108981
v -0.00545706 0.02556767 0.01813742
v -0.01338028 0.02208395 0.05109740
v -0.00309982 0.00686063 0.05802287
v 0.01196470 0.01981927 0.04405361
v -0.00893790 -0.00845630 0.04641344
v -0.01312851 -0.00328440 -0.06023572
v 0.00964341 0.00921744 0.05556804
v -0.00428034 0.02790748 0.02991507
v 0.01164368 -0.00671415 -0.04465974
v -0.00310210 0.02762322 0.04960270
v -0.01494903 0.02099981 0.02285172
v -0.00074388 0.00601151 -0.05775570
v 0.01168727 0.00063770 -0.05914179
v 0.01144368 0.02442507 0.03455834
v -0.01140168 0.01268757 0.05548305
v -0.01145815 0.02764688 0.04290533
v 0.00712111 0.02639600 0.04949378
v 0.00278910 0.02673435 0.02284993
v 0.01195813 0.01981927 0.01460595
v -0.01321051 0.02283982 0.01370330
v 0.01075526 0.01742076 0.05236435
v -0.00620338 0.01931558 0.05527522
v 0.00396872 0.02799953 0.03109334
v -0.01198622 0.02632551 0.02799448
v -0.00542043 0.02869754 0.03826180
v -0.01498831 0.02099981 0.04287654
v 0.01225803 0.01275350 0.04640848
v 0.01046969 0.02632680 0.04169401
v -0.01498704 0.01510943 0.04994385
v 0.00699208 0.02513607 0.01749717
v -0.01017056 0.00598111 0.05661151
v -0.01017090 -0.00885817 -0.05765295
v -0.01324775 0.00332393 -0.05806812
v 0.00396721 0.00730331 0.05768775
v -0.01321305 -0.00713659 -0.05020616
v 0.00950345 0.02646166 0.02873988
v 0.00868085 0.00679665 -0.05698672
v -0.00781965 0.02453563 0.05230385
v 0.00161086 0.02492749 0.05271642
v -0.00663530 0.02669659 0.02402624
v -0.00545706 0.01275368 0.05685843
v -0.01017002 0.02769569 0.03462758
v -0.00074562 0.02919386 0.04429584
v 0.01217280 0.00686063 0.04994904
v 0.00043262 0.02551150 0.01695748
v -0.01130400 0.02521960 0.02058081
v 0.00986040 -0.00530843 -0.06009243
v -0.01472424 0.00921755 0.05230038
v 0.01178638 -0.00704742 -0.05138402
v 0.00708308 -0.00814783 0.04641336
v -0.00647657 0.02874269 0.04523489
v 0.00746566 0.02216161 0.05315258
v -0.00074562 0.02868097 0.03502331
v 0.00471564 0.02868940 0.04485237
v 0.00750351 0.02798385 0.03580811
v -0.01098655 0.02642995 0.04840402
v -0.00074562 0.01575937 0.05644203
v -0.01192365 0.01802189 0.05405645
v 0.01133894 0.02211875 0.04870649
v -0.01495030 0.02217823 0.02874193
v -0.01436446 0.02524210 0.03934053
v -0.00310210 0.02351209 0.05380837
v 0.00043262 0.02767635 0.02755881
v 0.00754861 0.01512025 0.05544614
v 0.01181012 0.02217850 0.02991495
v -0.00781179 0.00666824 -0.05703733
v 0.01183728 0.02217850 0.03933914
v 0.01135088 0.02115594 0.00989148
v 0.01230261 -0.00374234 -0.05609799
v 0.00753206 0.02642669 0.02400332
v -0.01492496 0.01864298 0.01106660
v -0.01494802 0.01982140 0.01813390
v -0.00192386 0.02656031 0.02166999
v -0.01500237 0.00568250 0.04405312
v 0.01210793 0.01157559 0.05112295
v 0.00161086 0.02794054 0.04877039
v -0.01420963 0.02499295 0.04546616
v -0.01363626 -0.00492044 -0.05609716
v -0.01499185 0.01982140 0.04758965
v 0.01179077 0.00450406 -0.05491622
v 0.00580373 -0.01024642 -0.05311872
v -0.01218483 -0.00948372 -0.05374164
v 0.01009728 0.02587953 0.04640848
v -0.00852781 0.02749863 0.03037615
v 0.01205153 0.01746686 0.04758829
v -0.00192386 0.01982166 0.05547266
v 0.01056995 0.02407340 0.01931568
v -0.01307368 0.02626227 0.03198130
v 0.00043535 0.00921744 0.05791274
v -0.00192386 0.02909718 0.04052003
v -0.01417399 0.00533492 0.05269586
v -0.01017918 0.02166131 0.05345820
v -0.01314362 0.02514615 0.02449024
v 0.00636299 0.01161996 0.05658212
v -0.01017002 0.02802350 0.03934009
v -0.00663054 0.00796613 0.05769341
v -0.00899178 0.01628710 0.05550977
v 0.01038583 0.01306761 0.05400375
v 0.00750351 0.02812084 0.04051891
v 0.01078838 0.02313961 0.01578575
v 0.00761055 0.02763231 0.03217373
v -0.01226400 0.02409712 0.01695748
v 0.01086955 0.02571223 0.03815934
v -0.00674214 0.02873345 0.04161284
v -0.01449039 0.01864298 0.05094203
v -0.01230377 0.00921755 0.05555105
v -0.00663637 -0.00885137 0.04912927
v -0.01355807 -0.00020746 -0.05845270
v -0.00663530 0.02737822 0.04920759
v 0.00396874 0.02255172 0.05392211
v -0.01327437 0.02644745 0.03580453
v 0.01187338 0.02100059 0.02049548
v -0.01490899 0.01982140 0.01460260
f 89 8 9
f 1 47 13
f 20 9 8
f 27 28 21
f 84 28 95
f 97 47 1
f 97 20 8
f 1 20 97
f 21 47 97
f 64 13 84
f 65 13 64
f 4 13 65
f 62 28 84
f 84 13 62
f 21 28 62
f 62 47 21
f 62 13 47
f 9 20 106
f 28 27 52
f 6 95 52
f 52 95 28
f 11 60 6
f 6 52 11
f 121 46 111
f 111 30 121
f 121 106 46
f 73 121 30
f 21 97 93
f 93 8 89
f 1 13 96
f 96 4 1
f 13 4 96
f 15 4 65
f 22 49 15
f 65 59 15
f 15 59 22
f 122 20 1
f 1 4 122
f 4 15 122
f 122 15 46
f 46 106 122
f 122 106 20
f 81 52 27
f 81 11 52
f 11 81 48
f 48 27 21
f 48 81 27
f 6 60 33
f 33 45 6
f 6 45 85
f 45 33 85
f 12 95 6
f 6 83 12
f 84 95 12
f 6 85 102
f 102 85 51
f 74 98 32
f 25 124 53
f 53 124 71
f 71 124 66
f 58 119 66
f 66 25 58
f 66 124 25
f 50 97 8
f 8 93 50
f 50 93 97
f 65 64 24
f 22 59 90
f 10 64 84
f 84 59 10
f 10 24 64
f 10 59 65
f 65 24 10
f 18 15 49
f 111 46 18
f 46 15 18
f 76 7 92
f 121 73 120
f 120 92 94
f 60 11 16
f 11 61 16
f 71 66 31
f 76 92 31
f 31 92 71
f 110 66 119
f 110 31 66
f 21 93 123
f 123 48 21
f 11 48 35
f 48 128 35
f 3 123 93
f 48 123 3
f 7 128 75
f 107 73 112
f 112 30 111
f 112 73 30
f 105 68 40
f 105 119 58
f 40 119 105
f 38 33 78
f 38 85 33
f 78 68 38
f 115 83 6
f 6 102 115
f 118 102 51
f 58 25 91
f 107 112 37
f 22 90 113
f 113 79 22
f 82 118 74
f 84 12 34
f 104 18 49
f 111 18 104
f 106 121 63
f 121 120 63
f 9 106 63
f 89 9 63
f 17 73 107
f 17 120 73
f 107 53 17
f 17 53 71
f 71 92 17
f 92 120 17
f 60 16 88
f 88 33 60
f 78 33 88
f 108 35 128
f 108 7 76
f 108 128 7
f 117 61 11
f 11 35 117
f 117 108 61
f 35 108 117
f 7 75 41
f 41 92 7
f 94 92 41
f 89 94 41
f 86 93 89
f 86 3 93
f 86 128 48
f 48 3 86
f 79 113 36
f 36 90 74
f 36 113 90
f 14 38 68
f 14 105 58
f 68 105 14
f 51 85 116
f 85 38 116
f 43 118 51
f 43 114 98
f 43 98 74
f 74 118 43
f 56 112 111
f 56 37 112
f 111 104 56
f 56 104 72
f 84 34 42
f 42 59 84
f 42 90 59
f 5 12 83
f 5 34 12
f 83 115 5
f 5 115 102
f 72 104 2
f 44 120 94
f 44 63 120
f 44 94 89
f 89 63 44
f 23 68 78
f 78 88 23
f 40 68 23
f 103 108 76
f 26 75 128
f 128 86 26
f 26 41 75
f 77 53 107
f 107 37 77
f 25 53 77
f 32 91 54
f 54 77 125
f 54 91 25
f 25 77 54
f 79 36 67
f 67 2 79
f 125 2 67
f 32 54 67
f 67 54 125
f 74 32 67
f 67 36 74
f 69 14 58
f 114 14 69
f 58 91 69
f 69 91 32
f 98 114 69
f 69 32 98
f 38 14 70
f 70 116 38
f 70 14 114
f 51 116 70
f 70 43 51
f 114 43 70
f 19 34 82
f 19 42 34
f 19 82 74
f 118 82 29
f 102 118 29
f 29 5 102
f 82 34 80
f 80 29 82
f 5 29 80
f 79 2 109
f 109 2 104
f 109 104 49
f 109 49 22
f 22 79 109
f 57 119 40
f 57 110 119
f 40 23 99
f 99 57 40
f 55 88 16
f 55 23 88
f 55 99 23
f 55 16 61
f 61 99 55
f 31 110 126
f 76 31 126
f 126 103 76
f 110 57 126
f 126 57 103
f 89 41 87
f 41 26 87
f 87 86 89
f 87 26 86
f 101 77 37
f 72 2 101
f 101 2 125
f 125 77 101
f 101 56 72
f 37 56 101
f 90 42 100
f 42 19 100
f 74 90 100
f 100 19 74
f 34 5 127
f 127 80 34
f 5 80 127
f 39 99 61
f 57 99 39
f 61 108 39
f 108 103 39
f 103 57 39

