# https://github.com/mikedh/trimesh
v 0.03864029 0.02593961 -0.00732914
v -0.05438899 -0.02600971 -0.01445339
v -0.00033400 -0.02151320 0.05796664
v 0.00984476 -0.02603350 -0.05299156
v -0.04266284 0.02543246 0.03173750
v -0.02939835 0.02448241 -0.04839953
v 0.04928119 -0.02475134 0.02395299
v 0.02733063 0.02554696 0.04701982
v 0.05218911 -0.01874014 -0.02504652
v -0.04318488 -0.02367054 0.03354057
v 0.02191385 0.02361989 -0.05016888
v -0.05307836 0.02515526 -0.01146171
v -0.03000305 -0.02551672 -0.04536299
v -0.01116921 0.02479628 0.05355508
v 0.05202176 0.01831100 0.02377417
v 0.02841990 -0.02461514 0.04710506
v 0.05637595 -0.00387095 0.00161555
v -0.00386269 0.02401258 -0.05797701
v 0.04292062 0.02404721 -0.03358731
v 0.03477614 -0.02435118 -0.04399099
v -0.03664457 0.00299800 0.04313513
v -0.02593097 -0.02002633 0.05210642
v -0.05336345 -0.02480267 0.01104248
v -0.03798583 0.02562031 0.00827744
v -0.03270034 -0.02615151 -0.02153837
v 0.05330513 -0.02542735 -0.00294930
v -0.04517303 -0.01491268 -0.03472168
v -0.04335416 0.02497751 -0.03304994
v 0.05640202 0.02179695 0.00389549
v -0.01030493 -0.02587541 -0.05332535
v 0.02924724 -0.02600956 -0.02488201
v 0.00856277 0.02524458 0.05395932
v 0.00672580 0.02571920 -0.03874432
v -0.03111356 0.02443741 0.04620740
v 0.03699792 0.02599422 0.01109294
v -0.01470067 0.02601601 0.03567469
v -0.03555765 -0.02590434 0.01459322
v -0.05393904 0.02241176 0.01636104
v 0.04196627 0.02519210 0.03597359
v 0.02319715 0.02623237 0.03086661
v 0.05443712 -0.00565110 -0.01571878
v -0.03425502 -0.00949194 -0.04532127
v -0.01781850 0.01593452 -0.05559307
v 0.05110156 0.02520707 -0.01744828
v 0.04030050 -0.02465045 0.03718558
v 0.01351224 -0.02517325 0.05076807
v 0.03085730 0.02581752 -0.02426847
v -0.02764931 0.02585384 0.02776370
v -0.04543905 0.01060307 0.03334919
v -0.01246272 -0.02520263 0.05069210
v -0.05499652 0.02421403 0.00267684
v 0.05585449 0.01002241 0.01069060
v 0.02269484 -0.02315328 -0.04963054
v 0.04069084 -0.02564838 -0.03207123
v 0.05377154 -0.02337916 0.01017401
v 0.03311443 0.02513076 -0.04241711
v -0.03314285 -0.02523927 0.04287323
v -0.03907837 -0.02596635 -0.03505245
v -0.04936913 -0.02504635 0.02296894
v 0.01087526 0.02341198 -0.05524097
v -0.05439186 -0.02515890 -0.00066414
v 0.05470141 -0.02442748 -0.01526973
v 0.05625983 -0.01220325 -0.00664446
v -0.04960633 0.02379802 -0.02375242
v 0.05378702 0.02515620 -0.00676005
v -0.02003733 -0.02622400 -0.04943357
v 0.05516211 0.02035919 0.01415273
v -0.02125754 0.02569343 0.04886566
v -0.05063542 0.02157408 0.02605128
v -0.00000115 -0.02365761 -0.05452626
v -0.03474915 0.02569646 0.01784681
v -0.00996500 -0.01820681 0.05752018
v -0.03348285 0.01464422 0.04569368
v -0.02720808 0.01537880 -0.05171619
v -0.01687097 0.02484616 -0.05150461
v -0.00140020 0.02581944 0.05342396
v 0.05683947 0.01168719 0.00120327
v 0.04661595 0.02557550 0.02697801
v -0.03908680 0.02558573 -0.00107725
v 0.01960946 0.02474060 0.05105735
v 0.04739842 -0.02029678 -0.03302712
v -0.03762709 0.02546800 0.03874329
v 0.01596825 0.02615678 0.03550424
v 0.04985770 0.02557046 0.01916959
v -0.00665544 0.02608153 0.03795696
v 0.00881426 -0.02244170 0.05711672
v 0.04741968 0.02461697 -0.02658040
v -0.02072444 -0.02522783 0.04829119
v -0.01757454 -0.01630162 0.05540338
v -0.01095725 0.01971338 -0.05770285
v -0.03819750 0.02480069 -0.03927798
v 0.04194851 -0.02123789 -0.03875803
v 0.04862571 -0.02547033 -0.02305470
v 0.04487776 -0.02509943 0.03084745
v 0.02157052 -0.02505229 0.05079269
v 0.03581205 0.02589382 -0.01451391
v -0.02738144 0.01788110 0.04878448
v 0.03436165 -0.02519024 0.04178520
v -0.02336559 0.02168364 -0.05327171
v -0.04168300 0.00336861 0.03776117
v 0.04698098 0.01984967 0.03159253
v -0.00000115 -0.02517325 0.05165436
v -0.03485497 0.02064799 -0.04548815
v 0.02819007 0.02219043 -0.04682311
v 0.05202466 -0.02471603 0.01702376
v 0.00428304 0.02196173 -0.05732160
v -0.04164955 -0.01106310 -0.03927798
v -0.02764663 -0.02514215 0.04708917
v -0.05363308 0.02517046 -0.00457654
v 0.03751069 0.02381487 0.04100535
v 0.02849386 -0.02559242 -0.04626291
v -0.05445841 -0.01952785 0.00310494
v -0.03648127 0.01986827 0.04261637
v 0.05650631 0.01767031 -0.00184658
v 0.05136124 0.02547965 0.01202677
v 0.05648314 0.01640407 0.00880804
v -0.03548348 -0.02543084 -0.04155166
v 0.05614419 -0.01734054 -0.00243768
v -0.04123858 0.01094830 0.03845118
v -0.01906560 -0.02371073 0.05439806
v 0.03818157 0.02524267 -0.03784660
v -0.04988582 0.02528016 0.02083346
v 0.01702084 -0.02527288 -0.05173736
v -0.04503480 0.01697956 0.03354561
v 0.05413657 -0.02519528 0.00420345
v 0.05348931 -0.02533807 -0.00911200
v -0.00780012 -0.02388714 0.05691449
v 0.00740433 -0.02518333 0.05072499
f 51 12 2
f 79 12 109
f 109 12 51
f 34 14 68
f 3 32 72
f 32 14 72
f 97 14 34
f 80 8 32
f 110 45 101
f 3 72 127
f 20 11 104
f 9 41 62
f 62 81 9
f 66 31 25
f 25 2 66
f 66 2 58
f 112 38 51
f 23 38 112
f 106 70 18
f 53 11 20
f 20 123 53
f 93 54 20
f 93 81 62
f 20 81 93
f 31 54 93
f 111 123 20
f 20 54 111
f 107 27 103
f 90 99 18
f 43 99 90
f 18 70 90
f 6 75 18
f 18 99 6
f 6 91 75
f 6 99 103
f 103 91 6
f 74 99 43
f 74 13 42
f 103 99 74
f 74 43 66
f 66 13 74
f 74 107 103
f 42 107 74
f 64 2 12
f 27 2 64
f 122 109 51
f 51 38 122
f 122 38 69
f 32 8 76
f 76 14 32
f 76 68 14
f 89 97 22
f 89 72 14
f 14 97 89
f 73 97 34
f 22 97 73
f 49 124 69
f 119 124 49
f 8 110 39
f 39 110 101
f 52 55 118
f 15 39 101
f 52 67 15
f 3 127 86
f 86 32 3
f 86 80 32
f 10 49 69
f 23 2 59
f 59 10 69
f 59 38 23
f 69 38 59
f 120 127 72
f 120 89 22
f 72 89 120
f 87 81 19
f 87 9 81
f 29 115 84
f 84 67 29
f 65 115 29
f 56 104 11
f 18 75 56
f 92 81 20
f 20 104 92
f 104 56 92
f 19 81 92
f 61 2 23
f 23 112 61
f 51 2 61
f 61 112 51
f 11 53 60
f 60 106 18
f 123 106 60
f 60 53 123
f 18 56 60
f 60 56 11
f 66 43 30
f 43 90 30
f 30 90 70
f 4 54 31
f 4 111 54
f 4 31 66
f 66 30 4
f 123 111 4
f 4 30 70
f 70 106 4
f 4 106 123
f 117 2 27
f 117 58 2
f 27 107 117
f 66 58 117
f 117 13 66
f 42 13 117
f 117 107 42
f 28 64 12
f 28 12 79
f 28 91 103
f 75 91 28
f 103 27 28
f 27 64 28
f 34 68 82
f 22 73 21
f 21 73 119
f 21 10 22
f 113 124 119
f 119 73 113
f 113 73 34
f 69 124 113
f 34 82 113
f 113 82 69
f 8 39 78
f 39 15 78
f 78 67 84
f 78 15 67
f 77 118 63
f 63 118 62
f 62 41 63
f 17 118 77
f 52 118 17
f 119 49 100
f 49 10 100
f 100 21 119
f 10 21 100
f 84 115 1
f 1 35 84
f 114 29 77
f 65 29 114
f 77 63 114
f 114 63 41
f 116 67 52
f 116 29 67
f 77 29 116
f 116 17 77
f 52 17 116
f 19 92 121
f 121 92 56
f 121 87 19
f 2 25 37
f 37 25 31
f 31 98 37
f 62 118 125
f 125 118 55
f 95 86 127
f 127 102 95
f 8 80 95
f 80 86 95
f 5 122 69
f 69 82 5
f 68 76 85
f 83 85 76
f 84 35 40
f 40 78 84
f 35 1 40
f 8 78 40
f 40 76 8
f 40 83 76
f 85 83 40
f 44 115 65
f 44 1 115
f 87 121 44
f 65 114 44
f 44 114 41
f 41 9 44
f 9 87 44
f 96 121 47
f 96 40 1
f 1 44 96
f 96 44 121
f 57 59 2
f 2 37 57
f 10 59 57
f 22 10 57
f 46 37 98
f 46 95 102
f 98 95 46
f 45 98 94
f 101 45 94
f 94 15 101
f 126 93 62
f 62 125 126
f 16 95 98
f 45 110 16
f 16 98 45
f 16 110 8
f 8 95 16
f 68 85 36
f 88 57 37
f 102 37 128
f 128 46 102
f 37 46 128
f 125 94 26
f 26 126 125
f 26 98 31
f 26 94 98
f 31 93 26
f 93 126 26
f 15 94 7
f 122 71 24
f 79 109 24
f 109 122 24
f 122 5 48
f 48 71 122
f 48 5 82
f 48 36 79
f 48 82 68
f 68 36 48
f 79 24 48
f 48 24 71
f 85 40 33
f 33 36 85
f 79 36 33
f 33 28 79
f 33 96 47
f 40 96 33
f 75 28 33
f 33 56 75
f 47 121 33
f 33 121 56
f 50 37 102
f 50 88 37
f 50 102 127
f 127 120 108
f 108 50 127
f 88 50 108
f 57 88 108
f 108 120 22
f 22 57 108
f 52 15 105
f 15 7 105
f 105 55 52
f 105 125 55
f 105 94 125
f 105 7 94

