# https://github.com/mikedh/trimesh
v 0.00222845 -0.00092157 -0.25075266
v 0.00190844 -0.00209816 -0.25151831
v 0.00177116 -0.00195673 -0.25346184
v 0.00202610 -0.00069579 -0.25313792
v 0.00204839 0.00019624 -0.25237226
v 0.00196460 0.00098773 -0.25045818
v 0.00119265 -0.00341107 -0.25075266
v 0.00139410 -0.00293907 -0.25234282
v 0.00095910 -0.00306175 -0.25434527
v 0.00137360 -0.00207771 -0.25455141
v 0.00182643 -0.00062763 -0.25416857
v 0.00159110 0.00090168 -0.25360906
v 0.00134151 0.00142480 -0.25125328
v 0.00023529 -0.00400405 -0.25222504
v 0.00084857 -0.00346304 -0.25316736
v -0.00003658 -0.00391544 -0.25434527
v -0.00034946 -0.00367944 -0.25493422
v 0.00074339 -0.00189198 -0.25487533
v 0.00120245 -0.00028002 -0.25469866
v 0.00112669 0.00076195 -0.25443360
v 0.00025491 0.00144354 -0.25363854
v 0.00076478 0.00171703 -0.24872077
v -0.00151362 -0.00465837 -0.25204834
v -0.00130949 -0.00459703 -0.25405079
v -0.00065521 -0.00458936 -0.25092936
v -0.00139150 -0.00431928 -0.25490478
v -0.00077733 -0.00321596 -0.25511092
v -0.00000716 -0.00031666 -0.25496367
v 0.00008821 0.00117346 -0.25440416
v -0.00110982 0.00083778 -0.25431582
v -0.00105009 0.00110786 -0.25266677
v -0.00073454 0.00158156 -0.24922137
v 0.00014972 0.00162416 -0.25098825
v -0.00002588 0.00178945 -0.24798456
v -0.00234707 -0.00434399 -0.25304958
v -0.00232211 -0.00416507 -0.25428638
v -0.00228913 -0.00324323 -0.25496367
v -0.00148777 -0.00133393 -0.25493422
v -0.00106257 0.00037600 -0.25475755
v -0.00202706 0.00004884 -0.25413916
v -0.00197714 0.00041094 -0.25196001
v -0.00184343 0.00073725 -0.24995756
v -0.00302809 -0.00354398 -0.25269622
v -0.00271967 -0.00342299 -0.25449252
v -0.00237559 -0.00143191 -0.25472811
v -0.00277137 -0.00134245 -0.25402135
v -0.00251287 -0.00036778 -0.25355017
v -0.00273126 -0.00050324 -0.25178331
v -0.00322420 -0.00202744 -0.25148886
v -0.00302007 -0.00220977 -0.25360906
v -0.00301918 -0.00111752 -0.25142995
v 0.00163646 -0.02288937 0.08870561
v 0.00289512 -0.02280791 0.08709842
v 0.00311482 -0.02279076 0.09002220
v 0.00010224 -0.02275646 0.09214536
v -0.00094788 -0.02277361 0.09162347
v -0.00206503 -0.02276075 0.08993324
v -0.00591175 -0.02263213 0.09001628
v 0.00108161 -0.02281220 0.08674851
v 0.00225462 -0.02283363 0.08653501
v 0.00420963 -0.02262355 0.08770333
v 0.00388193 -0.02249493 0.08330876
v 0.00472724 -0.02251208 0.09046106
v 0.00448147 -0.02241776 0.09184883
v 0.00191202 -0.02264928 0.09251305
v -0.00183415 -0.02253352 0.09435747
v -0.00324176 -0.02261069 0.09268504
v -0.00474619 -0.02261926 0.08808289
v -0.00353222 -0.02232344 0.09397198
v -0.00616870 -0.02221625 0.09161160
v -0.00677196 -0.02229771 0.08918599
v 0.00207960 -0.02272216 0.08438220
v 0.00534540 -0.02234916 0.08770333
v 0.00600079 -0.02204476 0.08468466
v 0.00631732 -0.02201904 0.08737122
v 0.00706953 -0.02166319 0.08890725
v 0.00617581 -0.02175751 0.09210977
v 0.00556511 -0.02171892 0.09375256
v 0.00415750 -0.02205762 0.09397198
v 0.00283181 -0.02221625 0.09426259
v 0.00069805 -0.02233201 0.09490901
v -0.00140219 -0.02215195 0.09629085
v -0.00315612 -0.02157744 0.09704997
v -0.00736777 -0.01948521 0.09975432
v -0.00828383 -0.01905219 0.09938069
v -0.00922224 -0.01884211 0.09660517
v -0.00750555 -0.02142309 0.09049665
v -0.00953132 -0.01987107 0.08599532
v -0.00968400 -0.01989251 0.08378321
v 0.00761321 -0.02136307 0.08476176
v 0.00874526 -0.02058706 0.08899028
v 0.00870057 -0.02044558 0.09095924
v 0.00733393 -0.02120015 0.09191407
v 0.00810476 -0.02111012 0.08687305
v 0.00750895 -0.02061279 0.09417955
v 0.00604548 -0.02093862 0.09568000
v 0.00398620 -0.02162460 0.09569186
v 0.00112629 -0.02189899 0.09635608
v -0.00121227 -0.02164604 0.09785652
v -0.00201662 -0.02154314 0.09797513
v -0.00591175 -0.01991395 0.09974246
v -0.00679430 -0.01905648 0.10140896
v -0.00782580 -0.01848626 0.10137337
v -0.00885731 -0.01813470 0.10003305
v -0.00931906 -0.01828476 0.09856227
v -0.01030215 -0.01785602 0.09538939
v -0.01027236 -0.01835764 0.09311204
v -0.01124428 -0.01736726 0.09008744
v -0.01382490 -0.01460621 0.08141097
v -0.01348231 -0.01500065 0.07975040
v -0.01438348 -0.01380448 0.07808390
v -0.01424942 -0.01383878 0.07572351
v 0.00827978 -0.02081429 0.08370019
v 0.01223077 -0.01772311 0.09012895
v 0.00904689 -0.02039842 0.08674851
v 0.01244675 -0.01771025 0.08753728
v 0.00981028 -0.01953238 0.09127948
v 0.00967994 -0.01937803 0.09286889
v 0.01004488 -0.01870492 0.09449980
v 0.00766907 -0.02001256 0.09574523
v 0.00708443 -0.01972959 0.09728719
v 0.00582205 -0.02039413 0.09728719
v 0.00431017 -0.02086145 0.09741173
v 0.00139441 -0.02144882 0.09742359
v -0.00081755 -0.02123874 0.09869274
v -0.00170754 -0.02096006 0.09926208
v 0.00092148 -0.01861059 0.10163432
v -0.00562502 -0.01867490 0.10171141
v -0.00718903 -0.01780029 0.10229261
v -0.00870835 -0.01737155 0.10112429
v -0.00791890 -0.01763737 0.10204946
v -0.01665501 -0.00416223 0.09969501
v -0.01743702 -0.00345911 0.09870460
v -0.01693058 -0.00550846 0.09655772
v -0.01058516 -0.01698140 0.09656958
v -0.01111022 -0.01719577 0.09328403
v -0.01460691 -0.01335859 0.08342145
v -0.01452498 -0.01363298 0.08163039
v -0.01507238 -0.01280553 0.07859393
v -0.01535912 -0.01222673 0.07382572
v 0.01255102 -0.01748731 0.08423393
v 0.01277072 -0.01734583 0.08897248
v 0.01278562 -0.01680991 0.09165311
v 0.01144131 -0.01793319 0.09289854
v 0.01291595 -0.01722578 0.08582333
v 0.01096466 -0.01753876 0.09534196
v 0.00902827 -0.01885926 0.09610700
v 0.00873781 -0.01827190 0.09745324
v 0.00674928 -0.01852485 0.09917905
v 0.00589653 -0.01944234 0.09866308
v 0.00492461 -0.02005972 0.09847331
v 0.00281319 -0.02065137 0.09839028
v 0.00228068 -0.01940375 0.10042448
v 0.00019906 -0.02029124 0.09975432
v 0.00244826 -0.01803180 0.10181817
v 0.00167742 -0.01659554 0.10298650
v -0.00006533 -0.01707144 0.10270183
v -0.01433879 -0.00268310 0.10218586
v 0.00152474 -0.01548083 0.10354991
v 0.00017299 -0.01457620 0.10369817
v 0.00131621 -0.01158363 0.10429122
v 0.00253390 -0.00995873 0.10467672
v -0.00364021 0.00842542 0.10548327
v -0.01299448 0.00247887 0.10311697
v -0.01478937 -0.00423512 0.10157502
v -0.01551924 -0.00411936 0.10114208
v -0.01639435 -0.00328762 0.10069729
v -0.01735509 -0.00260593 0.09962977
v -0.01776472 -0.00304324 0.09783281
v -0.01718752 -0.00545701 0.09503949
v -0.01649117 -0.00812803 0.09098889
v -0.01617836 -0.00806801 0.09312391
v -0.01583205 -0.01017738 0.08850396
v -0.01491226 -0.01201665 0.08772706
v -0.01515803 -0.01199522 0.08595381
v -0.01531816 -0.01204238 0.08391368
v -0.01556021 -0.01187517 0.08081198
v -0.01608527 -0.01112917 0.07757387
v -0.01639435 -0.01061040 0.07512452
v -0.01619698 -0.01076046 0.07266333
v 0.01577586 -0.01377447 0.08140504
v 0.01334047 -0.01646692 0.09017640
v 0.01554871 -0.01417748 0.08521841
v 0.01417833 -0.01494491 0.09149299
v 0.01204085 -0.01703285 0.09362208
v 0.01593971 -0.01368443 0.08339179
v 0.01326972 -0.01472197 0.09442864
v 0.01153441 -0.01625255 0.09591722
v 0.01051780 -0.01706715 0.09672378
v 0.00950120 -0.01728581 0.09774978
v 0.00782547 -0.01753447 0.09917905
v 0.00592259 -0.01804038 0.10020504
v 0.00404206 -0.01873921 0.10047192
v 0.00448147 -0.01721721 0.10146233
v -0.01475958 0.00166427 0.10235786
v -0.01591769 -0.00257592 0.10120731
v 0.01293085 0.00373077 0.10615937
v 0.00333825 -0.01092767 0.10445135
v 0.00356541 -0.01575093 0.10251205
v 0.01192541 0.00342208 0.10628984
v 0.01096839 0.00421096 0.10630763
v -0.00066859 0.00981452 0.10596959
v -0.00235921 0.00949297 0.10579168
v -0.00294013 0.01127650 0.10563748
v -0.00495473 0.00967304 0.10513338
v -0.01332963 0.00381652 0.10279079
v -0.01695292 0.00024516 0.10060240
v -0.01698644 -0.00161126 0.10027028
v -0.01658426 0.00150564 0.10110056
v -0.01753012 0.00111120 0.09972467
v -0.01754129 -0.00048369 0.09951710
v -0.01790250 -0.00059516 0.09843180
v -0.01801421 -0.00089099 0.09737615
v -0.01792112 -0.00273455 0.09572151
v -0.01725828 -0.00831239 0.07807203
v -0.01682631 -0.00816662 0.08754914
v -0.01621188 -0.00985154 0.08656466
v -0.01610761 -0.01090194 0.08018926
v -0.01675183 -0.00985154 0.07671393
v -0.01707208 -0.00914413 0.07352920
v -0.01871802 0.00005223 0.05880945
v -0.01853555 0.00303193 0.05867304
v -0.01865844 -0.00228009 0.06632352
v -0.01896379 -0.00081382 0.06605071
v 0.01662862 -0.01235535 0.08120932
v 0.01518005 -0.01424179 0.08832605
v 0.01585778 -0.01372731 0.08529551
v 0.01425281 -0.01425465 0.09259015
v 0.01305746 -0.01551942 0.09365173
v 0.01507205 -0.01390737 0.09004593
v 0.01662117 -0.01246254 0.08313677
v 0.01383574 -0.01372731 0.09412618
v 0.01253985 -0.01416890 0.09642725
v 0.01131843 -0.01530076 0.09713893
v 0.00965015 -0.01644977 0.09830724
v 0.00782920 -0.01682706 0.09962384
v 0.00613485 -0.01663413 0.10081590
v -0.01531443 0.00268037 0.10184189
v -0.01586929 0.00025802 0.10149792
v 0.01355273 0.00309196 0.10546549
v 0.01446507 0.00428813 0.10504441
v 0.01376499 0.00521419 0.10572050
v 0.01207437 0.00445105 0.10631357
v -0.00069838 0.01199249 0.10590436
v -0.00174106 0.01316722 0.10570271
v -0.00283214 0.01288426 0.10540618
v -0.01263327 0.00528279 0.10242902
v -0.01458456 0.00426669 0.10146233
v -0.00290289 0.01373315 0.10484871
v -0.01659171 0.00260749 0.10038296
v -0.01783175 0.00152708 0.09869868
v -0.01820413 0.00119266 0.09629085
v -0.01869940 -0.00225436 0.06885588
v -0.01763811 -0.00683325 0.07709348
v -0.01666246 -0.00985154 0.07893197
v -0.01668108 -0.00887832 0.08589450
v -0.01755246 -0.00755781 0.07464415
v -0.01721731 -0.00869396 0.07601412
v -0.01752639 -0.00743777 0.07063507
v -0.01869940 0.00163426 0.05924238
v -0.01866589 0.00264607 0.06366661
v -0.01835308 0.00400516 0.06406989
v -0.01494950 0.01622410 0.07577097
v -0.01787643 -0.00623302 0.07103834
v -0.01894517 -0.00011927 0.06626421
v 0.01754840 -0.01047321 0.08024856
v 0.01571628 -0.01346578 0.08755507
v 0.01640519 -0.01268548 0.08481513
v 0.01535879 -0.01272835 0.09050258
v 0.01613707 0.00362359 0.10184782
v 0.01647594 -0.01180657 0.08679595
v 0.01717602 -0.01106915 0.08368239
v 0.01312821 -0.01341433 0.09582233
v 0.01183604 -0.01342290 0.09791583
v 0.01487841 0.00317342 0.10391167
v 0.01094605 -0.01455048 0.09815899
v 0.01030555 -0.01390737 0.09922057
v 0.00966132 -0.01257830 0.10047786
v 0.01095349 -0.01240252 0.09945779
v 0.01596205 0.00460539 0.10277893
v 0.01499385 0.00621743 0.10426157
v 0.01244303 0.00608453 0.10590436
v 0.01365700 0.00720781 0.10497326
v 0.01170571 0.00520562 0.10620088
v -0.00046378 0.01342447 0.10559003
v -0.00184905 0.01430337 0.10500289
v -0.00822425 0.01328298 0.09975432
v -0.00927437 0.01300859 0.09880542
v -0.01372063 0.00579727 0.10091672
v -0.01617092 0.00380366 0.09978990
v 0.00043366 0.01995409 0.09905451
v -0.00798965 0.01452631 0.09829539
v -0.01765300 0.00252174 0.09798107
v -0.01809241 0.00184005 0.09662889
v -0.01845735 0.00361501 0.06727242
v -0.01814827 0.00478546 0.06633538
v -0.01434251 0.01793047 0.07706383
v 0.01810325 -0.00888260 0.07912175
v 0.01779045 -0.00965861 0.08227091
v 0.01631209 -0.01103057 0.08855141
v 0.01666958 0.00444676 0.10054902
v 0.01744041 -0.00971006 0.08466094
v 0.01608866 0.00589588 0.10218586
v 0.01442411 0.00745648 0.10405401
v 0.01540347 0.00763655 0.10212063
v 0.01214512 0.00708777 0.10554852
v 0.01314683 0.00945438 0.10334826
v 0.00826116 0.01620267 0.10132592
v 0.00607899 0.01725735 0.10221552
v 0.00595983 0.01654565 0.10270776
v 0.00007245 0.01397324 0.10519861
v 0.00465649 0.01734310 0.10270183
v 0.00442189 0.01815770 0.10218586
v 0.00244081 0.01863788 0.10141490
v 0.00230675 0.01934958 0.10060240
v -0.00933396 0.01366027 0.09789804
v -0.01669970 0.00439102 0.09763116
v 0.00229185 0.01988978 0.09950523
v 0.00091404 0.02033567 0.09775570
v 0.00049697 0.02067008 0.09582233
v -0.00034090 0.02039140 0.09608328
v -0.01373553 0.01879651 0.07792971
v -0.00953877 0.01423906 0.09633236
v -0.01749660 0.00354642 0.09632643
v -0.01273382 0.01924239 0.07670207
v 0.01844957 -0.00718053 0.07858800
v 0.01808464 -0.00866395 0.08129236
v 0.01836020 -0.00694901 0.07571166
v 0.01907145 0.00587445 0.07440100
v 0.01717974 -0.00940137 0.08616731
v 0.01691907 0.00493552 0.09888844
v 0.01667330 0.00581442 0.09998561
v 0.01779418 -0.00838527 0.08356971
v 0.01610356 0.00685625 0.10094044
v 0.01399959 0.00923573 0.10255356
v 0.01521728 0.00844257 0.10096416
v 0.00699878 0.01733452 0.10123698
v 0.00912137 0.01645991 0.09976025
v 0.00778451 0.01769038 0.09968315
v 0.00527465 0.01819628 0.10155129
v 0.00416494 0.01866360 0.10143267
v 0.00463415 0.01944390 0.09956454
v 0.00337921 0.02018990 0.09794548
v 0.00209077 0.02073011 0.09570964
v 0.00085445 0.02080299 0.09357464
v -0.00043027 0.02062292 0.09429816
v -0.00903233 0.01999268 0.07542700
v -0.00966538 0.01989836 0.07428832
v -0.00746087 0.02012559 0.06887960
v 0.01843468 -0.00574427 0.07912768
v 0.01888898 0.00684339 0.07455519
v 0.01630092 0.00696772 0.09962384
v 0.01001509 0.01632700 0.09818271
v 0.00986241 0.01542666 0.10009830
v 0.01545933 0.00842971 0.09911381
v 0.01071517 0.01596257 0.09665261
v 0.00648117 0.01880509 0.09911975
v 0.00842873 0.01797763 0.09795142
v 0.00659288 0.01936673 0.09730498
v 0.00476820 0.02000125 0.09765489
v 0.00436231 0.02042999 0.09533008
v 0.00308503 0.02065293 0.09368139
v 0.00074646 0.02091017 0.06938371
v -0.00264595 0.02083300 0.07112137
v -0.00457862 0.02073868 0.07076553
v -0.00617987 0.02052002 0.07084856
v -0.00847375 0.02010415 0.07266926
v -0.00554309 0.02045571 0.06803153
v 0.01733615 0.00931290 0.07297765
v 0.01116203 0.01552955 0.09533602
v 0.00934107 0.01739455 0.09711520
v 0.00990710 0.01705156 0.09557917
v 0.00858886 0.01829061 0.09549615
v 0.00728552 0.01915236 0.09606548
v 0.00544967 0.02002698 0.09656365
v 0.00589280 0.01993266 0.09422699
v 0.00244081 0.02062721 0.06698775
v 0.00148006 0.02082871 0.07076553
v 0.00237378 0.02054146 0.06513146
v 0.00091404 0.02066151 0.06527381
v 0.00007990 0.02078155 0.06762825
v -0.00244859 0.02076440 0.06892113
v 0.01440176 0.01273849 0.06519670
v 0.01585034 0.01146943 0.07153651
v 0.01360859 0.01396467 0.06919393
v 0.01208554 0.01548668 0.06847039
v 0.01168709 0.01582538 0.07073588
v 0.01042098 0.01685863 0.07363594
v 0.00895379 0.01790046 0.07365374
v 0.00613857 0.01937530 0.07420528
v 0.00427293 0.01996696 0.06593803
v 0.00946024 0.01700011 0.06125285
v 0.01036513 0.01650278 0.06318030
v 0.01220098 0.01531519 0.06625234
v 0.01487841 0.01254556 0.07000642
v 0.01096094 0.01628412 0.06698775
v 0.01058856 0.01671715 0.07170257
v 0.01000764 0.01685863 0.06471632
v 0.00904317 0.01777612 0.07192793
v 0.00832447 0.01779756 0.06273550
v 0.00680142 0.01863359 0.06335822
f 28 18 27
f 58 59 52
f 58 35 23
f 326 298 328
f 326 328 329
f 329 350 326
f 383 384 6
f 6 394 385
f 385 383 6
f 384 385 372
f 52 59 60
f 224 221 43
f 43 36 35
f 43 223 224
f 35 112 43
f 112 140 43
f 89 112 35
f 59 58 68
f 7 141 113
f 90 25 14
f 14 113 90
f 7 113 14
f 24 14 25
f 59 68 24
f 23 35 24
f 35 36 24
f 24 58 23
f 24 68 58
f 74 25 90
f 62 24 74
f 74 24 25
f 329 328 1
f 328 298 1
f 18 28 19
f 28 20 19
f 331 326 350
f 331 350 329
f 6 384 369
f 369 351 6
f 377 376 391
f 384 383 395
f 395 385 384
f 383 385 395
f 222 263 51
f 322 316 323
f 321 346 322
f 320 346 321
f 111 140 112
f 112 89 111
f 111 89 110
f 42 41 322
f 49 43 221
f 49 222 51
f 180 140 179
f 180 43 140
f 317 316 322
f 165 166 131
f 136 135 134
f 115 113 141
f 7 14 15
f 53 24 62
f 60 24 53
f 52 60 53
f 72 60 59
f 59 24 72
f 72 24 60
f 11 19 20
f 2 1 298
f 3 1 2
f 298 266 2
f 299 266 298
f 186 181 225
f 225 2 266
f 364 363 382
f 12 11 20
f 320 321 291
f 291 249 286
f 291 321 322
f 371 358 353
f 371 372 373
f 373 358 371
f 374 358 373
f 374 376 375
f 373 389 374
f 374 389 376
f 340 337 357
f 357 342 340
f 339 358 357
f 357 337 339
f 339 337 308
f 164 129 163
f 57 58 52
f 351 369 370
f 384 372 370
f 370 369 384
f 281 305 304
f 380 33 363
f 388 389 373
f 391 376 390
f 376 389 390
f 263 294 297
f 51 263 297
f 297 48 51
f 252 265 224
f 224 213 252
f 260 221 224
f 224 265 260
f 260 49 221
f 222 49 260
f 295 294 263
f 295 252 294
f 378 377 363
f 345 363 364
f 345 344 363
f 320 344 345
f 345 346 320
f 376 377 361
f 375 376 361
f 377 378 361
f 361 360 375
f 179 140 139
f 140 111 139
f 31 322 32
f 31 42 322
f 41 42 31
f 31 30 41
f 322 41 47
f 47 297 322
f 48 297 47
f 51 48 47
f 131 130 103
f 85 84 103
f 103 129 131
f 85 103 104
f 104 103 130
f 71 88 89
f 35 58 71
f 71 89 35
f 85 86 71
f 248 249 287
f 247 249 248
f 248 206 247
f 247 206 249
f 316 317 290
f 293 290 317
f 293 317 322
f 166 165 158
f 158 129 164
f 131 129 158
f 158 165 131
f 238 206 248
f 211 168 210
f 168 211 212
f 212 211 210
f 212 252 213
f 131 166 167
f 220 180 179
f 259 43 220
f 43 180 220
f 219 220 179
f 224 223 253
f 90 113 94
f 113 115 94
f 94 115 91
f 94 76 90
f 91 76 94
f 14 24 16
f 16 15 14
f 75 74 90
f 90 76 75
f 4 1 3
f 3 11 4
f 18 19 10
f 19 11 10
f 10 11 3
f 3 2 8
f 7 15 8
f 2 225 8
f 8 181 7
f 8 225 181
f 298 326 327
f 327 299 298
f 326 331 327
f 327 331 301
f 186 225 231
f 231 225 266
f 363 33 381
f 381 382 363
f 33 382 381
f 29 20 28
f 6 12 13
f 13 394 6
f 315 291 286
f 357 358 359
f 358 374 359
f 359 374 375
f 375 360 359
f 359 342 357
f 359 360 342
f 338 339 308
f 353 358 338
f 358 339 338
f 311 313 286
f 286 285 311
f 313 311 312
f 312 311 285
f 306 310 312
f 312 285 306
f 227 183 186
f 186 231 227
f 183 142 145
f 186 183 145
f 145 181 186
f 145 141 7
f 7 181 145
f 91 115 116
f 116 145 142
f 116 115 141
f 141 145 116
f 143 142 182
f 182 142 183
f 118 117 144
f 356 370 372
f 356 371 353
f 372 371 356
f 303 305 281
f 334 305 303
f 308 337 309
f 309 340 313
f 337 340 309
f 313 312 309
f 309 312 310
f 33 380 22
f 386 385 394
f 386 372 385
f 398 13 392
f 401 390 389
f 391 390 401
f 401 13 391
f 263 222 262
f 261 260 265
f 222 260 261
f 265 252 261
f 252 295 261
f 261 262 222
f 295 262 261
f 344 361 362
f 362 361 378
f 363 344 362
f 362 378 363
f 348 349 32
f 322 346 325
f 346 347 325
f 347 348 325
f 32 322 325
f 325 348 32
f 137 108 136
f 41 30 40
f 40 47 41
f 43 49 50
f 67 69 58
f 66 69 67
f 106 135 136
f 85 104 105
f 105 86 85
f 105 106 86
f 135 106 105
f 105 104 133
f 133 134 105
f 105 134 135
f 86 106 107
f 107 106 136
f 136 108 107
f 107 108 89
f 89 88 107
f 70 71 58
f 85 71 70
f 70 84 85
f 58 69 70
f 288 287 316
f 248 287 288
f 316 290 288
f 249 291 292
f 292 287 249
f 316 287 292
f 292 323 316
f 322 323 292
f 292 291 322
f 251 293 294
f 294 252 251
f 251 212 210
f 252 212 251
f 324 297 294
f 294 293 324
f 322 297 324
f 324 293 322
f 195 158 164
f 195 238 209
f 164 206 195
f 206 238 195
f 209 238 250
f 210 209 250
f 248 290 250
f 250 238 248
f 250 251 210
f 290 293 250
f 293 251 250
f 207 167 209
f 207 209 210
f 210 168 207
f 209 167 196
f 158 195 196
f 166 158 196
f 196 167 166
f 132 168 133
f 132 167 168
f 133 104 132
f 132 104 130
f 132 130 131
f 131 167 132
f 136 134 172
f 172 173 136
f 259 220 257
f 256 216 215
f 217 216 256
f 26 16 24
f 26 24 36
f 61 53 62
f 1 4 5
f 5 12 6
f 329 1 5
f 11 12 5
f 5 4 11
f 5 351 329
f 6 351 5
f 15 16 9
f 9 10 3
f 3 8 9
f 9 8 15
f 333 327 301
f 34 33 32
f 33 22 21
f 21 22 13
f 21 13 12
f 32 33 21
f 21 31 32
f 30 31 21
f 21 29 30
f 21 12 20
f 20 29 21
f 341 315 313
f 313 340 341
f 341 340 342
f 286 313 314
f 314 315 286
f 313 315 314
f 318 341 342
f 315 341 318
f 291 315 318
f 335 304 305
f 335 338 308
f 202 201 244
f 306 285 282
f 162 163 129
f 162 201 202
f 200 201 162
f 306 282 283
f 283 282 242
f 281 304 283
f 283 242 281
f 283 310 306
f 283 309 310
f 308 309 283
f 164 163 205
f 163 204 205
f 205 206 164
f 249 206 246
f 286 249 246
f 206 205 246
f 246 205 204
f 92 117 118
f 92 76 91
f 114 142 143
f 143 144 114
f 114 144 117
f 91 116 114
f 114 116 142
f 114 92 91
f 117 92 114
f 240 274 275
f 336 356 353
f 353 335 336
f 336 335 305
f 336 305 334
f 334 352 336
f 301 331 332
f 332 303 301
f 334 303 332
f 332 352 334
f 351 352 332
f 329 351 332
f 332 331 329
f 13 22 379
f 379 377 391
f 391 13 379
f 379 22 380
f 363 377 379
f 379 380 363
f 387 388 373
f 373 372 387
f 372 386 387
f 394 13 393
f 13 398 393
f 396 386 394
f 394 393 396
f 396 393 398
f 400 401 389
f 400 398 392
f 13 401 400
f 392 13 400
f 296 295 263
f 263 262 296
f 296 262 295
f 349 348 367
f 175 137 136
f 175 173 217
f 89 108 109
f 110 89 109
f 109 111 110
f 36 43 44
f 43 50 44
f 102 103 84
f 129 103 102
f 126 102 100
f 66 67 56
f 56 57 52
f 58 57 56
f 56 67 58
f 87 71 86
f 86 107 87
f 88 71 87
f 87 107 88
f 289 290 248
f 248 288 289
f 289 288 290
f 168 167 208
f 208 207 168
f 167 207 208
f 239 195 209
f 209 196 239
f 239 196 195
f 215 257 258
f 258 257 220
f 220 219 258
f 259 257 264
f 264 257 253
f 264 253 223
f 264 43 259
f 223 43 264
f 253 257 254
f 254 257 215
f 171 216 217
f 171 170 216
f 217 173 171
f 134 170 171
f 171 172 134
f 173 172 171
f 169 134 133
f 169 170 134
f 169 212 213
f 133 168 169
f 168 212 169
f 215 216 169
f 216 170 169
f 74 75 73
f 62 74 73
f 73 61 62
f 16 26 17
f 17 9 16
f 17 26 27
f 10 9 17
f 27 18 17
f 18 10 17
f 343 361 344
f 360 361 343
f 342 360 343
f 343 318 342
f 291 318 319
f 319 344 320
f 320 291 319
f 319 343 344
f 318 343 319
f 353 338 354
f 354 335 353
f 338 335 354
f 243 244 201
f 243 201 200
f 200 197 243
f 242 282 243
f 243 197 242
f 276 274 277
f 240 197 237
f 129 159 160
f 159 162 160
f 203 162 202
f 163 162 203
f 203 204 163
f 202 244 203
f 203 244 204
f 200 162 198
f 198 162 159
f 198 197 200
f 159 197 198
f 308 283 307
f 307 283 304
f 307 335 308
f 304 335 307
f 204 244 245
f 245 246 204
f 245 244 285
f 245 285 286
f 286 246 245
f 76 92 93
f 118 95 93
f 93 92 118
f 281 242 241
f 240 275 241
f 241 197 240
f 242 197 241
f 370 356 355
f 356 336 355
f 351 370 355
f 355 352 351
f 355 336 352
f 386 396 397
f 388 387 397
f 397 387 386
f 389 388 397
f 397 398 389
f 397 396 398
f 389 398 399
f 399 400 389
f 398 400 399
f 366 348 347
f 366 367 348
f 366 347 346
f 349 367 366
f 32 349 366
f 366 34 32
f 368 34 366
f 136 173 174
f 174 175 136
f 173 175 174
f 217 256 255
f 255 218 217
f 219 218 255
f 255 258 219
f 255 256 215
f 215 258 255
f 137 175 176
f 176 175 217
f 217 218 176
f 178 219 179
f 178 218 219
f 179 139 178
f 108 137 138
f 138 109 108
f 138 178 139
f 138 139 111
f 111 109 138
f 82 69 66
f 125 124 123
f 84 70 83
f 83 70 69
f 69 82 83
f 83 82 100
f 55 65 66
f 66 56 55
f 55 56 52
f 214 254 215
f 215 169 214
f 253 254 214
f 224 253 214
f 214 213 224
f 214 169 213
f 63 75 76
f 63 73 75
f 61 73 63
f 299 327 302
f 327 333 302
f 302 333 301
f 285 244 284
f 244 243 284
f 284 282 285
f 284 243 282
f 150 121 149
f 119 95 118
f 118 144 119
f 279 274 240
f 240 277 279
f 279 277 274
f 199 197 159
f 192 150 149
f 278 277 240
f 240 237 278
f 161 162 129
f 129 160 161
f 161 160 162
f 97 96 123
f 123 124 97
f 80 79 97
f 120 96 95
f 121 96 120
f 95 119 120
f 234 274 276
f 274 234 233
f 233 275 274
f 233 270 275
f 280 241 275
f 275 270 280
f 280 303 281
f 281 241 280
f 301 303 280
f 280 270 301
f 346 345 365
f 365 366 346
f 365 345 364
f 364 382 365
f 368 366 365
f 365 382 33
f 33 34 365
f 365 34 368
f 137 176 177
f 177 176 218
f 218 178 177
f 177 138 137
f 178 138 177
f 46 44 50
f 46 45 44
f 51 47 46
f 47 40 46
f 40 45 46
f 46 49 51
f 46 50 49
f 38 28 27
f 44 45 37
f 37 26 36
f 36 44 37
f 27 26 37
f 37 38 27
f 45 38 37
f 81 65 80
f 66 65 81
f 81 82 66
f 82 81 98
f 98 97 124
f 80 97 98
f 98 81 80
f 100 82 99
f 126 100 99
f 99 125 126
f 82 98 99
f 124 125 99
f 99 98 124
f 152 125 123
f 125 152 153
f 101 100 102
f 101 83 100
f 101 102 84
f 84 83 101
f 76 93 77
f 77 63 76
f 53 61 54
f 61 63 54
f 52 53 54
f 54 55 52
f 65 55 54
f 268 227 231
f 268 267 227
f 227 267 226
f 183 227 226
f 226 182 183
f 301 270 300
f 300 270 269
f 121 150 122
f 123 96 122
f 122 96 121
f 185 144 143
f 127 102 126
f 127 153 155
f 155 192 194
f 194 199 159
f 194 192 237
f 194 237 197
f 197 199 194
f 237 192 236
f 236 278 237
f 277 278 236
f 149 121 148
f 28 38 39
f 39 29 28
f 30 29 39
f 39 38 45
f 39 40 30
f 39 45 40
f 126 125 154
f 125 153 154
f 154 127 126
f 153 127 154
f 150 192 193
f 193 192 155
f 155 153 193
f 151 152 123
f 151 153 152
f 123 122 151
f 151 122 150
f 150 193 151
f 151 193 153
f 63 77 64
f 80 65 64
f 64 79 80
f 65 54 64
f 64 54 63
f 267 268 271
f 302 300 271
f 271 300 269
f 143 182 184
f 182 226 184
f 184 185 143
f 229 185 184
f 330 302 301
f 301 300 330
f 330 300 302
f 128 157 129
f 128 127 157
f 129 102 128
f 102 127 128
f 156 194 159
f 155 194 156
f 156 127 155
f 157 127 156
f 156 159 129
f 129 157 156
f 277 236 235
f 276 277 235
f 235 234 276
f 149 148 191
f 191 148 190
f 191 192 149
f 191 236 192
f 190 235 191
f 191 235 236
f 270 233 273
f 273 232 270
f 233 232 273
f 187 232 233
f 187 233 188
f 187 185 229
f 146 187 188
f 185 187 146
f 146 119 144
f 144 185 146
f 79 64 78
f 78 64 77
f 78 97 79
f 96 97 78
f 95 96 78
f 78 93 95
f 78 77 93
f 272 271 268
f 272 268 231
f 299 302 272
f 302 271 272
f 266 299 272
f 272 231 266
f 269 270 228
f 270 232 228
f 232 187 228
f 229 184 228
f 228 187 229
f 230 226 267
f 230 184 226
f 230 228 184
f 269 228 230
f 230 271 269
f 267 271 230
f 190 148 189
f 148 146 189
f 189 146 188
f 188 233 189
f 189 233 234
f 234 235 189
f 189 235 190
f 147 148 121
f 147 146 148
f 119 146 147
f 121 120 147
f 147 120 119

