# https://github.com/mikedh/trimesh
v -0.04247234 -0.02926373 -0.10758346
v -0.03945584 -0.03093117 -0.10749809
v -0.03945584 -0.03306378 -0.10732416
v -0.03305807 -0.03093117 -0.10746910
v -0.03732326 -0.03306378 -0.10731289
v -0.01386474 -0.03448822 -0.10684422
v -0.01599734 -0.03449748 -0.10685227
v -0.01812993 -0.03450442 -0.10686033
v -0.02026252 -0.03451252 -0.10686676
v -0.02666030 -0.03093117 -0.10743850
v -0.02452770 -0.02926373 -0.10751904
v 0.00534261 -0.04108509 -0.10282916
v -0.02239511 -0.03451947 -0.10687321
v 0.09944321 -0.03093117 -0.09492467
v -0.03519066 -0.03306378 -0.10730001
v -0.01812993 -0.03306378 -0.10719532
v -0.01173215 -0.03447318 -0.10683456
v -0.02452770 -0.03093117 -0.10742562
v -0.01173215 -0.02926373 -0.10743367
v -0.01599734 -0.03093117 -0.10737086
v 0.01600557 -0.03425101 -0.10671054
v 0.01813816 -0.03423134 -0.10670087
v 0.02027075 -0.03420357 -0.10668638
v 0.05780156 -0.04053198 -0.10239270
v 0.07785072 -0.04083978 -0.10078862
v 0.08346280 -0.04068241 -0.09492467
v 0.10014472 -0.02974973 -0.09919097
v 0.10034115 -0.02926373 -0.09822304
v 0.09850319 -0.03245512 -0.09492467
v 0.09944321 -0.03093117 -0.09705701
v -0.01599734 -0.03306378 -0.10718082
v -0.01173215 -0.03093117 -0.10733866
v -0.00912253 -0.02926373 -0.10741274
v 0.02240334 -0.03417233 -0.10667350
v -0.01386474 -0.03306378 -0.10716471
v 0.08424850 -0.03514664 -0.10509035
v 0.08638109 -0.03510498 -0.10505170
v 0.08211590 -0.03623204 -0.10444292
v 0.08424850 -0.03621237 -0.10437850
v 0.08638109 -0.03616955 -0.10428991
v 0.02396069 -0.03414803 -0.10666223
v 0.08851368 -0.03605962 -0.10408538
v 0.07953434 -0.04079465 -0.10056797
v 0.08332250 -0.04062802 -0.09632422
v 0.09491145 -0.03506911 -0.10132170
v 0.09638463 -0.03442921 -0.09919097
v 0.10008860 -0.02959351 -0.10132170
v 0.09942918 -0.03093117 -0.09919097
v 0.09933097 -0.03093117 -0.10132170
v 0.09745092 -0.03352201 -0.09492467
v 0.09850319 -0.03244934 -0.09705701
v -0.00958553 -0.03093117 -0.10732093
v -0.00698994 -0.02926373 -0.10739502
v -0.01173215 -0.03306378 -0.10714538
v -0.00532035 -0.03093117 -0.10728551
v 0.08424850 -0.03306378 -0.10568141
v 0.08638109 -0.03306378 -0.10563470
v 0.02537775 -0.03409827 -0.10665096
v 0.08851368 -0.03306378 -0.10557029
v 0.08851368 -0.03499389 -0.10500982
v 0.09064627 -0.03483652 -0.10495345
v 0.00321002 -0.03306378 -0.10700528
v 0.00960779 -0.03306378 -0.10694407
v 0.01174039 -0.03306378 -0.10692314
v 0.01813816 -0.03306378 -0.10685388
v 0.02027075 -0.03306378 -0.10682973
v 0.09277886 -0.03457501 -0.10482461
v 0.09277886 -0.03544634 -0.10345566
v 0.09167048 -0.03624592 -0.10228480
v 0.09614611 -0.03424869 -0.10267939
v 0.09630045 -0.03436788 -0.10132170
v 0.09745092 -0.03349771 -0.09919097
v 0.09745092 -0.03351622 -0.09705701
v 0.09829273 -0.03220171 -0.10279534
v 0.09847513 -0.03243082 -0.09919097
v 0.09841900 -0.03236024 -0.10132170
v -0.00485735 -0.02926373 -0.10737570
v -0.00318776 -0.03093117 -0.10726619
v 0.03731745 -0.03319222 -0.10654305
v 0.03858017 -0.03202814 -0.10665739
v 0.04371523 -0.03031788 -0.10667995
v 0.04531467 -0.03007025 -0.10666545
v 0.08851368 -0.03093117 -0.10565887
v 0.09064627 -0.03093117 -0.10559928
v 0.02240334 -0.03306378 -0.10680235
v 0.02462012 -0.03325818 -0.10675081
v 0.02666853 -0.03293187 -0.10675403
v 0.03091968 -0.03260787 -0.10672182
v 0.03518486 -0.03228734 -0.10668638
v 0.03731745 -0.03212650 -0.10666867
v 0.09277886 -0.03093117 -0.10552036
v 0.09064627 -0.03306378 -0.10548171
v 0.09277886 -0.03306378 -0.10530455
v 0.00107743 -0.03093117 -0.10722430
v 0.00747520 -0.03093117 -0.10715666
v 0.02027075 -0.03093117 -0.10700689
v 0.00960779 -0.03093117 -0.10713251
v 0.09489742 -0.03311585 -0.10492446
v 0.09416785 -0.03430539 -0.10465873
v 0.09489742 -0.03458774 -0.10341701
v 0.09559893 -0.03386105 -0.10410148
v 0.09701598 -0.03303138 -0.10344761
v 0.09736674 -0.03342712 -0.10132170
v 0.09789989 -0.03170530 -0.10421744
v 0.09872767 -0.03096820 -0.10348625
v 0.03091968 -0.03093117 -0.10684583
v 0.03305227 -0.03093117 -0.10681202
v 0.02240334 -0.03093117 -0.10697790
v 0.02453593 -0.03093117 -0.10694568
v 0.04574960 -0.02926373 -0.10667834
v 0.09491145 -0.03093117 -0.10537864
v 0.01813816 -0.02926373 -0.10712285
v 0.00793820 -0.02926373 -0.10724202
v 0.09646881 -0.03243892 -0.10475536
v 0.09839094 -0.03028317 -0.10468933
v 0.09712823 -0.03096820 -0.10492769
v -0.06505957 0.03867066 -0.10688249
v -0.06505957 0.03732954 -0.10725322
v -0.09780578 0.02239964 -0.10132319
v -0.09779593 0.02026560 -0.10132319
v -0.09774667 0.02666546 -0.09919014
v -0.09740188 0.02879497 -0.10558928
v -0.09769150 0.02239964 -0.10345623
v -0.09768559 0.02026560 -0.10345623
v -0.09765013 0.02879497 -0.09919014
v -0.09748857 0.02879497 -0.10345623
v -0.09733096 0.03092901 -0.10345623
v -0.09710044 0.03092901 -0.10558928
v -0.09640889 0.03092901 -0.10700897
v -0.09660788 0.02879497 -0.10712986
v -0.09743931 0.02666546 -0.10558928
v -0.09679308 0.03306306 -0.10345623
v -0.09640889 0.03310610 -0.10562325
v -0.09615276 0.03242420 -0.10681616
v -0.09505534 0.03310610 -0.10718382
v -0.09492333 0.03092901 -0.10756347
v -0.09662955 0.02666546 -0.10712887
v -0.09492333 0.02879497 -0.10768736
v -0.09619019 0.03443138 -0.10345623
v -0.09612123 0.03432491 -0.10493588
v -0.09585723 0.03384690 -0.10635757
v -0.09443472 0.03479612 -0.10700598
v -0.09278958 0.03306306 -0.10773331
v -0.09278958 0.03092901 -0.10779026
v -0.09278958 0.02879497 -0.10779525
v -0.09535876 0.03549840 -0.10345623
v -0.09413721 0.03652238 -0.10515767
v -0.09499624 0.03527186 -0.10575812
v -0.09378849 0.03621881 -0.10658037
v -0.09236599 0.03663565 -0.10688809
v -0.09296100 0.03538287 -0.10720579
v -0.09065583 0.03519484 -0.10754548
v -0.08852405 0.03519484 -0.10764039
v -0.08639227 0.03519484 -0.10769735
v -0.09065583 0.03092901 -0.10781024
v -0.09065583 0.02879497 -0.10781524
v -0.09278958 0.02666546 -0.10779626
v -0.09278958 0.02453142 -0.10779626
v -0.09278958 0.02239964 -0.10779326
v -0.09429286 0.03667416 -0.10345623
v -0.09296690 0.03774119 -0.10345623
v -0.09179659 0.03843668 -0.10464014
v -0.09065583 0.03813991 -0.10620971
v -0.08958796 0.03839363 -0.10665430
v -0.09065583 0.03707288 -0.10703396
v -0.08639227 0.03732888 -0.10737365
v -0.08425851 0.03732888 -0.10744158
v -0.08212673 0.03732888 -0.10743459
v -0.07999297 0.03519484 -0.10765238
v -0.09306344 0.03777970 -0.10132319
v -0.09199755 0.03857034 -0.10132319
v -0.09189904 0.03850464 -0.10345623
v -0.09065583 0.03897585 -0.10345623
v -0.09065583 0.03860658 -0.10514269
v -0.08873487 0.03886711 -0.10580108
v -0.08639227 0.03930887 -0.10558928
v -0.08816547 0.03852277 -0.10677020
v -0.08873487 0.03754183 -0.10708291
v -0.08639227 0.03864736 -0.10687110
v -0.08425851 0.03873572 -0.10694703
v -0.08212673 0.03874025 -0.10695402
v -0.09065583 0.03915935 -0.10132319
v -0.08852405 0.03949690 -0.10345623
v -0.08639227 0.03968947 -0.10345623
v -0.08425851 0.03944253 -0.10558928
v -0.08852405 0.03963056 -0.09919014
v -0.08852405 0.03962150 -0.10132319
v -0.08425851 0.03973024 -0.10345623
v -0.08852099 -0.02886823 -0.10765065
v -0.08852099 -0.03093120 -0.10761701
v -0.07572356 -0.03306384 -0.10744041
v -0.07785470 -0.03306384 -0.10744376
v -0.08425342 -0.03306384 -0.10745218
v -0.08638984 -0.03306384 -0.10745051
v -0.08852099 -0.03306384 -0.10734790
v -0.09065741 -0.03093120 -0.10750601
v -0.04299146 -0.03093120 -0.10750937
v -0.05866383 -0.03306384 -0.10740004
v -0.05866383 -0.03462495 -0.10697955
v -0.06079498 -0.03462613 -0.10698292
v -0.06293140 -0.03462613 -0.10698628
v -0.07785470 -0.03461550 -0.10700142
v -0.07999112 -0.03460487 -0.10700310
v -0.06506255 -0.03462731 -0.10698797
v -0.08212227 -0.03458716 -0.10700142
v -0.08425342 -0.03456355 -0.10699470
v -0.08638984 -0.03451395 -0.10697955
v -0.08852099 -0.03437697 -0.10688031
v -0.08983977 -0.03422818 -0.10674576
v -0.09059411 -0.03307920 -0.10700310
v -0.09287823 -0.03103866 -0.10708551
v -0.05653268 -0.03306384 -0.10739332
v -0.05226511 -0.03461078 -0.10696610
v -0.05439626 -0.03461668 -0.10697114
v -0.05226511 -0.04093077 -0.10288737
v -0.07261651 -0.04055053 -0.10245343
v -0.09059411 -0.03438051 -0.10541366
v -0.09174936 -0.03414670 -0.10458446
v -0.09126405 -0.03380070 -0.10600738
v -0.09364840 -0.03182276 -0.10647666
v -0.09222412 -0.03237894 -0.10683827
v -0.09428669 -0.03039981 -0.10687864
v -0.05012869 -0.03460133 -0.10696105
v -0.08228580 -0.03917718 -0.09276877
v -0.08165806 -0.03912758 -0.09492502
v -0.08007025 -0.03890322 -0.09908785
v -0.07941613 -0.03877333 -0.10078662
v -0.09181794 -0.03418567 -0.10345587
v -0.09288351 -0.03350195 -0.10345587
v -0.09432890 -0.03243563 -0.10345587
v -0.09416009 -0.03227857 -0.10505540
v -0.09493553 -0.03088751 -0.10557849
v -0.09570570 -0.02945985 -0.10610158
v -0.09201839 -0.03431202 -0.09705774
v -0.09197620 -0.03428722 -0.09918877
v -0.09190761 -0.03424117 -0.10132147
v -0.09297319 -0.03353029 -0.10132147
v -0.09435527 -0.03246396 -0.10132147
v -0.09542084 -0.03127838 -0.10132147
v -0.09539446 -0.03116501 -0.10345587
v -0.09304176 -0.03355391 -0.09918877
v -0.09308396 -0.03357398 -0.09705774
v -0.09603275 -0.02995345 -0.10467865
v -0.09438165 -0.03248758 -0.09918877
v -0.09621739 -0.03021206 -0.10132147
v -0.09612770 -0.03009869 -0.10345587
v 0.09639435 -0.03453123 0.06931767
v 0.09639503 -0.03453123 0.07144804
v 0.09639091 -0.03453123 0.07357841
v 0.09638061 -0.03453123 0.07785834
v 0.09637236 -0.03453123 0.07998871
v 0.09631258 -0.03448310 0.09492050
v 0.09521946 -0.03544568 0.10344198
v 0.09745243 -0.03325582 0.06077699
v 0.09745450 -0.03324379 0.06292656
v 0.09745862 -0.03321972 0.06718730
v 0.09744762 -0.03317761 0.07785834
v 0.09743938 -0.03317159 0.07998871
v 0.09739746 -0.03311745 0.08851019
v 0.09739334 -0.03309339 0.09064056
v 0.09628579 -0.03445904 0.09705087
v 0.09613326 -0.03437481 0.10344198
v 0.09608585 -0.03430261 0.10467030
v 0.09831677 -0.03225715 0.02878305
v 0.09825768 -0.03219698 0.05864662
v 0.09825287 -0.03219097 0.06077699
v 0.09818897 -0.03210675 0.07998871
v 0.09815805 -0.03204658 0.08851019
v 0.09814225 -0.03202252 0.09064056
v 0.09812920 -0.03200447 0.09202242
v 0.09752113 -0.03285274 0.09275174
v 0.09731639 -0.03306330 0.09492050
v 0.09809965 -0.03198041 0.09344267
v 0.09806049 -0.03195032 0.09492050
v 0.09800965 -0.03188415 0.09705087
v 0.09795124 -0.03178789 0.09918124
v 0.09830165 -0.03030192 0.10131161
v 0.09813675 -0.02991087 0.10238639
v 0.09850296 -0.02666218 0.10284701
v 0.09871458 -0.02452647 0.10309651
v 0.10033606 0.02239303 0.10250155
v 0.09849265 -0.03072304 0.09918124
v 0.10009146 -0.02968226 -0.07998100
v 0.09889115 -0.03092759 0.05651625
v 0.09887810 -0.03092759 0.05864662
v 0.09866236 -0.03092759 0.08851019
v 0.09864037 -0.03092759 0.09064056
v 0.09851945 -0.03113214 0.09275174
v 0.09857579 -0.03087946 0.09492050
v 0.09853251 -0.03081930 0.09705087
v 0.09870702 -0.02879188 0.10131161
v 0.09911376 -0.02879188 0.09918124
v 0.09919621 -0.02666218 0.10131161
v 0.10031957 0.02061828 0.10248235
v 0.09951295 -0.02452647 0.10131161
v 0.10029965 0.02398128 0.10246316
v 0.10079159 0.01812762 0.09918124
v 0.09934187 -0.02879188 0.09279013
v 0.10056073 -0.02861741 -0.07998100
v 0.10055318 -0.02858733 -0.07358989
v 0.10049684 -0.02844896 -0.04585669
v 0.10049065 -0.02843693 -0.04372632
v 0.10048310 -0.02841888 -0.04157676
v 0.10028934 -0.02783532 0.01172089
v 0.10034499 -0.02800978 -0.00319170
v 0.10033743 -0.02798572 -0.00106133
v 0.09952533 -0.02666218 0.09918124
v 0.09975480 -0.02452647 0.09918124
v 0.09985030 -0.02239677 0.09918124
v 0.10094205 0.01812762 0.09705087
v 0.09969571 -0.02666218 0.09279013
v 0.09964830 -0.02666218 0.09492050
v 0.10028041 -0.02781126 0.01385126
v 0.10026942 -0.02777516 0.01598163
v 0.10026117 -0.02774508 0.01753623
v 0.10102794 -0.02666218 -0.07358989
v 0.10055730 -0.02859335 -0.07572027
v 0.10102038 -0.02666218 -0.07144034
v 0.10091801 -0.02666218 -0.04798706
v 0.10090564 -0.02666218 -0.04585669
v 0.09981252 -0.02452647 0.09705087
v 0.09990733 -0.02239677 0.09705087
v 0.09998016 -0.02026106 0.09705087
v 0.10004062 -0.01813136 0.09705087
v 0.10099358 0.01812762 0.09492050
v 0.10126704 0.02452874 0.08851019
v 0.09983725 -0.02452647 0.09492050
v 0.10034224 -0.02639747 0.02878305
v 0.10031545 -0.02610268 0.03519335
v 0.10025705 -0.02560335 0.04482800
v 0.10087404 -0.02666218 -0.04157676
v 0.10049409 -0.02666218 0.00746015
v 0.10047623 -0.02666218 0.00959052
v 0.10143262 -0.01599565 -0.07572027
v 0.10143057 -0.01599565 -0.07358989
v 0.10125467 -0.02452647 -0.07358989
v 0.10125055 -0.02452647 -0.07144034
v 0.10124367 -0.02452647 -0.06930996
v 0.10117772 -0.02452647 -0.05437817
v 0.10116467 -0.02452647 -0.05224780
v 0.10115024 -0.02452647 -0.05011743
v 0.10106229 -0.02452647 -0.03731602
v 0.10098740 -0.02452647 -0.02664497
v 0.10067479 -0.02452647 0.00959052
v 0.10077716 -0.02239677 0.00746015
v 0.10121620 0.02239303 0.08851019
v 0.10119558 -0.02026106 -0.03305528
v 0.10121276 -0.02026106 -0.03518565
v 0.10122582 -0.02026106 -0.03731602
v 0.10127254 -0.01813136 -0.03944639
v 0.10141270 -0.01813136 -0.07144034
v 0.10142575 -0.01599565 -0.07144034
v 0.10097092 -0.02452647 -0.02451460
v 0.10069402 -0.02452647 0.00746015
v 0.10143125 -0.01813136 -0.08424174
v 0.10141750 -0.01813136 -0.07358989
v 0.10142644 -0.01813136 -0.07998100
v 0.10142919 -0.01813136 -0.08211137
v 0.10132407 -0.02239677 -0.06930996
v 0.10131926 -0.02239677 -0.06717960
v 0.10131170 -0.02239677 -0.06504922
v 0.10126429 -0.02239677 -0.05437817
v 0.10115367 -0.02239677 -0.03518565
v 0.10113788 -0.02239677 -0.03305528
v 0.10110558 -0.02239677 -0.02879453
v 0.10108840 -0.02239677 -0.02664497
v 0.10123613 -0.02026106 -0.03944639
v 0.10128765 -0.02026106 -0.05011743
v 0.10134742 -0.02026106 -0.06291884
v 0.10135636 -0.02026106 -0.06504922
v 0.10137285 -0.02026106 -0.06930996
v 0.10140720 -0.02026106 -0.08424174
v 0.10141063 -0.02026106 -0.08639131
v 0.10141201 -0.02026106 -0.08852168
v 0.10143125 -0.01813136 -0.08639131
v 0.10140995 -0.02026106 -0.09065206
v 0.10143057 -0.01813136 -0.08852168
v -0.09974813 -0.03106526 0.09278082
v -0.10032297 -0.02999953 0.09278082
v -0.10030130 -0.02995279 0.09064218
v -0.09968500 -0.03116342 0.09278082
v -0.09972458 -0.03116342 0.09491947
v -0.09976510 -0.03109798 0.09491947
v -0.10033899 -0.03003225 0.09491947
v -0.10069709 -0.02879358 0.09278082
v -0.10066693 -0.02879358 0.09064218
v -0.10026172 -0.02987333 0.08722784
v -0.09974907 -0.03116342 0.09703937
v -0.09977452 -0.03112135 0.09703937
v -0.10034936 -0.03005562 0.09703937
v -0.10035313 -0.03006965 0.09917802
v -0.10069426 -0.02879358 0.09491947
v -0.10114659 -0.02666212 0.09278082
v -0.10112493 -0.02666212 0.09064218
v -0.10026266 -0.02359113 -0.00644136
v -0.09941077 -0.02666212 -0.00745441
v -0.10026266 -0.02334339 -0.00644136
v -0.09976133 -0.03116342 0.09914050
v -0.09977923 -0.03113538 0.09917802
v -0.10032109 -0.02999953 0.10035991
v -0.10068484 -0.02879358 0.09917802
v -0.10112493 -0.02666212 0.09491947
v -0.10128230 -0.02453065 0.09703937
v -0.10130115 -0.02453065 0.09491947
v -0.10129078 -0.02453065 0.09278082
v -0.09976038 -0.03116342 0.09917802
v -0.10046904 -0.02879358 0.10054751
v -0.10103634 -0.02666212 0.09917802
v -0.10133319 -0.02239452 0.09703937
v -0.09918931 -0.00959640 0.10114783
v -0.10063583 -0.02666212 0.10073511
v -0.10131717 -0.01172786 0.09917802
v -0.10078567 -0.00959640 0.10092271
v -0.08639063 0.03732876 0.10151380
v -0.08639063 0.03872932 0.10069516
v -0.08804990 0.03861343 0.10057822
v -0.08639063 0.03911644 0.09917484
v -0.08866631 0.03883534 0.09933078
v -0.08639063 0.03954672 0.00107500
v -0.08639063 0.03957507 -0.01597991
v -0.08425839 0.03964411 -0.03305431
v -0.08991076 0.03907329 0.09705029
v -0.08639063 0.03914603 0.09705029
v -0.08425839 0.03945918 0.05011518
v -0.08852442 0.03913493 0.09705029
v -0.08639063 0.03946411 0.02664762
v -0.08425839 0.03955042 0.02452307
v -0.08425839 0.03955658 0.02237902
v -0.08425839 0.03959233 0.00319956
v -0.09279078 0.01172984 -0.10777652
v -0.09492319 0.01386119 -0.10770874
v -0.09279078 -0.02879704 -0.10753927
v -0.09279078 0.00746268 -0.10776465
v -0.09492319 0.01172984 -0.10770534
v -0.09664616 0.01386119 -0.10714783
v -0.09789018 -0.00106719 -0.09705817
v -0.09742691 -0.02239408 -0.10345528
v -0.09723411 -0.02666123 -0.10345528
v -0.09682942 -0.02879704 -0.10132178
v -0.09487686 -0.02886823 -0.10705122
v -0.09496884 -0.02876589 -0.10704953
v -0.09492319 -0.02666123 -0.10736134
v -0.09279078 -0.02666123 -0.10763078
v -0.09279078 -0.00959705 -0.10771212
v -0.09492319 0.00959848 -0.10769687
v -0.09663253 0.00959848 -0.10713766
v -0.09664139 0.01172984 -0.10714274
v -0.09279078 -0.01172841 -0.10770534
v -0.09744939 0.01386119 -0.10558879
v -0.09744258 0.00959848 -0.10558879
v -0.09744735 0.01172984 -0.10558879
v -0.09744531 -0.02026272 -0.10345528
v -0.09730700 -0.01813137 -0.10558879
v -0.09726681 -0.02026272 -0.10558879
v -0.09720073 -0.02239408 -0.10558879
v -0.09735742 -0.02452988 -0.10345528
v -0.09689278 -0.02666123 -0.10558879
v -0.09671906 -0.02879704 -0.10345528
v -0.09709581 -0.02452988 -0.10558879
v -0.09668703 -0.02886823 -0.10345528
v -0.09492728 -0.02886823 -0.10703936
v -0.09613520 -0.02803616 -0.10677840
v -0.09627759 -0.02666123 -0.10689025
v -0.09637501 -0.02452988 -0.10695802
v -0.09492319 -0.02452988 -0.10744099
v -0.09492319 -0.02239408 -0.10748674
v -0.09492319 -0.02026272 -0.10752910
v -0.09492319 -0.01813137 -0.10755961
v -0.09492319 -0.01599556 -0.10757825
v -0.09279078 -0.02452988 -0.10764773
v -0.09279078 -0.02239408 -0.10765959
v -0.09492319 -0.01172841 -0.10760028
v -0.09652829 -0.01599556 -0.10706986
v -0.09732336 -0.01599556 -0.10558879
v -0.09651604 -0.01813137 -0.10705631
v -0.09647992 -0.02026272 -0.10702920
v -0.09642951 -0.02239408 -0.10699362
v -0.09632323 -0.02876589 -0.10547017
v -0.09629939 -0.02886823 -0.10540239
v -0.09667682 -0.02886823 -0.10353154
v -0.09588721 -0.02886823 -0.10638355
v -0.09623466 -0.02886823 -0.10556167
v -0.07359148 0.03646036 0.10251125
v -0.07533984 0.03637528 0.10245440
v 0.03518611 0.04118886 -0.10380314
v 0.03518611 0.04118886 -0.10500546
v 0.09065260 0.03905791 -0.10345646
v 0.03518611 0.03945789 -0.10558414
v 0.03305060 0.03945789 -0.10561412
v 0.09065260 0.03860275 -0.10472395
v 0.08851709 0.03863723 -0.10478259
v 0.08851709 0.03732004 -0.10540363
v 0.10147153 0.02452740 -0.10345646
v 0.10145739 0.02665836 -0.10345646
v 0.10123111 0.02878932 -0.10345646
v 0.10077855 0.03092027 -0.10345646
v 0.10036842 0.03225816 -0.10345646
v 0.09971788 0.03332018 -0.10345646
v 0.09865719 0.03483048 -0.10345646
v 0.09782279 0.03589251 -0.10345646
v 0.09674796 0.03689247 -0.10345646
v 0.09488117 0.03798208 -0.10352163
v 0.09358007 0.03828552 -0.10427560
v 0.09284466 0.03869930 -0.10352163
v 0.09216583 0.03851310 -0.10462945
v 0.09065260 0.03518908 -0.10572360
v 0.09065260 0.03732004 -0.10533520
v 0.09278809 0.03518908 -0.10567342
v 0.10050984 -0.02678106 -0.10363828
v 0.09988759 -0.02882926 -0.10363828
v 0.10022700 -0.02757413 -0.10447045
v 0.10083512 -0.02239502 -0.10345646
v 0.10073612 -0.02452597 -0.10345646
v 0.10096239 -0.01599525 -0.10345646
v 0.10042498 -0.01812621 -0.10469071
v 0.10043914 -0.01599525 -0.10471222
v 0.10075027 0.02452740 -0.10491619
v 0.10073612 0.02665836 -0.10490054
v 0.10060885 0.02878932 -0.10482690
v 0.10038257 0.03092027 -0.10465747
v 0.10026942 0.03202368 -0.10453952
v 0.09833192 0.03439601 -0.10470244
v 0.09633783 0.03658903 -0.10481583
v 0.09490945 0.03696143 -0.10500481
v 0.09284466 0.03747865 -0.10503478
v 0.01387351 0.02452740 -0.10684837
v 0.09490945 0.03305123 -0.10568254
v 0.01173801 -0.00958859 -0.10749090
v 0.00961665 -0.00745763 -0.10749807
v 0.00322428 -0.00531978 -0.10755607
v 0.00107464 -0.00318882 -0.10755347
v -0.00106086 -0.00105787 -0.10754173
v -0.00318222 0.00107999 -0.10752674
v -0.00531773 0.00321094 -0.10751175
v -0.00745323 0.00534190 -0.10749611
v 0.09490945 0.03518908 -0.10558935
v 0.09966130 -0.02926373 -0.10360830
v 0.09869962 -0.02926373 -0.10480931
v 0.09884104 -0.02878788 -0.10486470
v 0.09937845 -0.02678106 -0.10489924
v 0.10029771 -0.02615350 -0.10456754
v 0.10034014 -0.02452597 -0.10460534
v 0.10036842 -0.02239502 -0.10463466
v 0.10039671 -0.02025716 -0.10466334
v 0.09918046 -0.02452597 -0.10504717
v 0.09918046 -0.02239502 -0.10507844
v 0.09918046 -0.02025716 -0.10510972
v 0.09918046 -0.01812621 -0.10513905
v 0.10045327 -0.01385740 -0.10472590
v 0.09918046 -0.01599525 -0.10516186
v 0.09918046 -0.01385740 -0.10517750
v 0.09918046 0.02452740 -0.10542057
v 0.09918046 0.02665836 -0.10542253
v 0.09918046 0.02878932 -0.10536779
v 0.09918046 0.03092027 -0.10519510
v 0.09909561 0.03285813 -0.10485102
v 0.09704496 0.03513391 -0.10503739
v -0.01172423 0.01172787 -0.10741205
v -0.01172423 0.01385883 -0.10736644
v -0.01385973 0.01385883 -0.10739055
v -0.01385973 0.01599668 -0.10734428
v 0.09704496 0.03092027 -0.10562715
v 0.03730747 -0.02025716 -0.10700737
v 0.03091510 -0.01811931 -0.10716246
v 0.02880788 -0.01811931 -0.10720938
v 0.02240138 -0.01598835 -0.10733841
v 0.02028002 -0.01598835 -0.10738143
v 0.02028002 -0.01385740 -0.10737099
v 0.01814451 -0.01385740 -0.10741074
v 0.01602316 -0.01385740 -0.10744984
v 0.01173801 -0.01171954 -0.10750981
v 0.00961665 -0.01171954 -0.10754369
v 0.00961665 -0.00958859 -0.10752349
v 0.00748115 -0.00745763 -0.10752805
v 0.00107464 -0.00531978 -0.10758474
v -0.00106086 -0.00318882 -0.10757822
v -0.00531773 0.00107999 -0.10755086
v -0.00745323 0.00321094 -0.10753717
v -0.00958873 0.00534190 -0.10752023
v -0.00958873 0.00745906 -0.10747657
v 0.09704496 0.03305123 -0.10549877
v 0.09707325 -0.02926373 -0.10522442
v 0.09704496 -0.02878788 -0.10530587
v 0.09704496 -0.02665693 -0.10544207
v 0.09704496 -0.02452597 -0.10545836
v -0.01172423 0.00959692 -0.10745636
v -0.01385973 0.01172787 -0.10743485
v 0.09490945 -0.02452597 -0.10553852
v 0.09278809 -0.02665693 -0.10559065
v 0.04798498 -0.02239502 -0.10673692
v 0.04584948 -0.02239502 -0.10679036
v 0.03945711 -0.02025716 -0.10695458
v 0.04371397 -0.02239502 -0.10684184
v 0.03518611 -0.02025716 -0.10705689
v 0.03305060 -0.02025716 -0.10710577
v 0.03091510 -0.02025716 -0.10715400
v 0.02880788 -0.02025716 -0.10719831
v 0.02665824 -0.01811931 -0.10725305
v 0.02028002 -0.01811931 -0.10737687
v 0.01814451 -0.01598835 -0.10741922
v 0.02452274 -0.01811931 -0.10729605
v 0.02240138 -0.01811931 -0.10733777
v 0.01387351 -0.01385740 -0.10748764
v 0.01173801 -0.01385740 -0.10752349
v 0.00961665 -0.01385740 -0.10755541
v 0.00748115 -0.01171954 -0.10757301
v 0.00322428 -0.00958859 -0.10760950
v 0.00322428 -0.00745763 -0.10758410
v 0.00107464 -0.00745763 -0.10761146
v -0.00106086 -0.00958859 -0.10766425
v -0.00106086 -0.00531978 -0.10760820
v -0.00958873 0.00321094 -0.10755802
v -0.01598109 -0.00318882 -0.10771702
v -0.01598109 -0.00105787 -0.10768445
v -0.01172423 0.00107999 -0.10761146
v -0.01172423 0.00534190 -0.10754108
v -0.01172423 0.00745906 -0.10750003
v -0.03732197 -0.02666382 -0.10767075
v -0.03518647 -0.02666382 -0.10766685
v -0.03305097 -0.02666382 -0.10766098
v -0.02665860 -0.02879478 -0.10755476
v 0.09278809 -0.02926373 -0.10556328
v 0.09278809 -0.02878788 -0.10557501
v 0.09490945 -0.02665693 -0.10552680
v 0.09065260 -0.02878788 -0.10563171
v 0.04989420 -0.02452597 -0.10667697
v 0.04798498 -0.02452597 -0.10672324
v 0.03945711 -0.02239502 -0.10693959
v 0.03730747 -0.02239502 -0.10698717
v 0.03518611 -0.02239502 -0.10703213
v 0.03305060 -0.02239502 -0.10707645
v 0.02880788 -0.02239502 -0.10716377
v 0.02665824 -0.02239502 -0.10720612
v 0.02452274 -0.02025716 -0.10728041
v 0.02028002 -0.02025716 -0.10735796
v 0.01814451 -0.01811931 -0.10741140
v 0.01602316 -0.01598835 -0.10745441
v 0.02240138 -0.02025716 -0.10732082
v 0.01387351 -0.01598835 -0.10748829
v 0.00961665 -0.01598835 -0.10755020
v 0.00748115 -0.01385740 -0.10758474
v 0.01173801 -0.01598835 -0.10752023
v 0.00534564 -0.01171954 -0.10760103
v 0.00107464 -0.00958859 -0.10763752
v -0.00106086 -0.01171954 -0.10768054
v -0.00318222 -0.01171954 -0.10770269
v -0.00318222 -0.00958859 -0.10768574
v 0.00322428 -0.01171954 -0.10762776
v 0.00107464 -0.01171954 -0.10765447
v -0.01172423 0.00321094 -0.10757757
v -0.01385973 -0.00745763 -0.10775222
v -0.01598109 -0.00531978 -0.10774375
v -0.03732197 -0.02452597 -0.10773462
v -0.03518647 -0.02452597 -0.10773332
v -0.03305097 -0.02452597 -0.10772876
v -0.03091547 -0.02452597 -0.10772355
v -0.02665860 -0.02666382 -0.10764144
v -0.02452310 -0.02666382 -0.10763427
v -0.02238760 -0.02666382 -0.10762515
v -0.02452310 -0.02879478 -0.10754499
v 0.04948407 -0.02621557 -0.10666655
v 0.04584948 -0.02452597 -0.10677082
v 0.03945711 -0.02452597 -0.10690571
v 0.03518611 -0.02452597 -0.10699499
v 0.03305060 -0.02452597 -0.10703930
v 0.03091510 -0.02452597 -0.10708296
v 0.02880788 -0.02452597 -0.10712402
v 0.02452274 -0.02239502 -0.10724653
v 0.02240138 -0.02239502 -0.10728433
v 0.02028002 -0.02239502 -0.10731951
v 0.01814451 -0.02239502 -0.10735405
v 0.01602316 -0.02239502 -0.10738794
v 0.01814451 -0.02025716 -0.10739186
v 0.01602316 -0.02025716 -0.10742509
v 0.01602316 -0.01811931 -0.10744333
v 0.01387351 -0.01811931 -0.10747461
v 0.00961665 -0.01811931 -0.10753456
v 0.00748115 -0.01598835 -0.10757953
v 0.00534564 -0.01598835 -0.10760755
v 0.00534564 -0.01385740 -0.10761210
v -0.00106086 -0.01385740 -0.10768445
v -0.00318222 -0.01385740 -0.10770726
v 0.00107464 -0.01385740 -0.10766098
v -0.00531773 -0.01171954 -0.10772355
v -0.00745323 -0.01171954 -0.10774309
v -0.00958873 -0.01171954 -0.10776199
v -0.01172423 -0.00958859 -0.10776003
v -0.01385973 -0.00958859 -0.10777438
v -0.01598109 -0.00745763 -0.10776525
v -0.03732197 -0.02239502 -0.10777372
v -0.03518647 -0.02239502 -0.10777438
v -0.03305097 -0.02239502 -0.10777372
v -0.03091547 -0.02239502 -0.10776982
v -0.02877996 -0.02239502 -0.10776460
v -0.02877996 -0.02452597 -0.10771637
v -0.02238760 -0.02452597 -0.10769292
v -0.02025210 -0.02452597 -0.10768445
v -0.01811660 -0.02452597 -0.10767402
v -0.02025210 -0.02666382 -0.10761341
v -0.01385973 -0.02666382 -0.10757171
v -0.01172423 -0.02879478 -0.10745962
v 0.04754656 -0.02824998 -0.10666655
v 0.04814054 -0.02681554 -0.10668415
v 0.03730747 -0.02666382 -0.10690896
v 0.03518611 -0.02666382 -0.10695068
v 0.02665824 -0.02452597 -0.10716246
v 0.03091510 -0.02666382 -0.10702822
v 0.02452274 -0.02452597 -0.10719831
v 0.02028002 -0.02452597 -0.10726738
v 0.01602316 -0.02452597 -0.10733516
v 0.01387351 -0.02239502 -0.10742053
v 0.01387351 -0.02025716 -0.10745701
v 0.01173801 -0.02025716 -0.10748699
v 0.00748115 -0.01811931 -0.10756389
v 0.00322428 -0.01811931 -0.10761993
v 0.00322428 -0.01598835 -0.10763427
v 0.00107464 -0.01598835 -0.10766098
v -0.00106086 -0.01598835 -0.10768639
v -0.00318222 -0.01598835 -0.10770791
v -0.00531773 -0.01385740 -0.10772811
v -0.00745323 -0.01385740 -0.10774765
v -0.00958873 -0.01385740 -0.10776590
v -0.01172423 -0.01171954 -0.10777763
v -0.01385973 -0.01171954 -0.10778870
v -0.01811660 -0.00958859 -0.10779523
v -0.03732197 -0.02025716 -0.10779914
v -0.03518647 -0.02025716 -0.10780174
v -0.03305097 -0.02025716 -0.10780305
v -0.03091547 -0.02025716 -0.10780369
v -0.02877996 -0.02025716 -0.10780305
v -0.02665860 -0.02025716 -0.10780045
v -0.02452310 -0.02025716 -0.10779458
v -0.02665860 -0.02239502 -0.10775743
v -0.02238760 -0.02239502 -0.10774180
v -0.01598109 -0.02239502 -0.10771441
v -0.01385973 -0.02239502 -0.10770399
v -0.01172423 -0.02239502 -0.10769227
v -0.01385973 -0.02452597 -0.10764795
v -0.01172423 -0.02666382 -0.10755672
v -0.00958873 -0.02879478 -0.10744333
v 0.04594847 -0.02889133 -0.10668350
v -0.02452310 -0.00958859 -0.10781869
v -0.02238760 -0.00958859 -0.10781348
v 0.02880788 -0.02666382 -0.10706472
v 0.02028002 -0.02666382 -0.10720287
v 0.01387351 -0.02452597 -0.10736448
v 0.01173801 -0.02239502 -0.10745049
v 0.01814451 -0.02666382 -0.10723545
v 0.00961665 -0.02025716 -0.10751566
v 0.00107464 -0.01811931 -0.10764665
v 0.00748115 -0.02025716 -0.10754369
v 0.00534564 -0.02025716 -0.10757040
v -0.00106086 -0.01811931 -0.10767075
v -0.00318222 -0.01811931 -0.10769096
v -0.00531773 -0.01598835 -0.10772616
v -0.00745323 -0.01598835 -0.10774375
v -0.01172423 -0.01598835 -0.10777763
v -0.01172423 -0.01385740 -0.10778154
v -0.01385973 -0.01385740 -0.10779327
v -0.01598109 -0.01385740 -0.10780240
v -0.01811660 -0.01171954 -0.10780695
v -0.03732197 -0.01811931 -0.10781673
v -0.03518647 -0.01811931 -0.10781869
v -0.03091547 -0.01811931 -0.10781998
v -0.02877996 -0.01811931 -0.10781998
v -0.02665860 -0.01811931 -0.10781933
v -0.02452310 -0.01811931 -0.10781673
v -0.02238760 -0.01811931 -0.10781152
v -0.02238760 -0.02025716 -0.10778610
v -0.01811660 -0.01811931 -0.10779849
v -0.01811660 -0.02025716 -0.10776656
v -0.01598109 -0.02025716 -0.10775613
v -0.01172423 -0.02452597 -0.10763297
v -0.01385973 -0.02025716 -0.10774375
v -0.01172423 -0.02025716 -0.10773005
v -0.00958873 -0.02239502 -0.10767597
v -0.00958873 -0.02926373 -0.10741661
v -0.00958873 -0.02666382 -0.10753977
v -0.00531773 -0.02879478 -0.10740554
v -0.02238760 -0.01171954 -0.10782194
v -0.02452310 -0.01171954 -0.10782586
v -0.02025210 -0.01171954 -0.10781544
v 0.03518611 -0.02879478 -0.10688029
v 0.02240138 -0.02879478 -0.10708556
v 0.02028002 -0.02879478 -0.10711880
v 0.01602316 -0.02666382 -0.10726412
v 0.01173801 -0.02452597 -0.10739119
v 0.00961665 -0.02239502 -0.10747787
v 0.00322428 -0.02025716 -0.10759517
v 0.00748115 -0.02239502 -0.10750393
v 0.00107464 -0.02025716 -0.10761732
v -0.00318222 -0.02025716 -0.10765772
v -0.00531773 -0.02025716 -0.10767728
v -0.00745323 -0.02025716 -0.10769618
v -0.00531773 -0.01811931 -0.10770921
v -0.00958873 -0.01811931 -0.10774375
v -0.01172423 -0.01811931 -0.10776068
v -0.01385973 -0.01811931 -0.10777698
v -0.01385973 -0.01598835 -0.10779327
v -0.01598109 -0.01598835 -0.10780501
v -0.01811660 -0.01385740 -0.10781087
v -0.03732197 -0.01598835 -0.10782259
v -0.03518647 -0.01598835 -0.10782586
v -0.03305097 -0.01598835 -0.10782651
v -0.02452310 -0.01385740 -0.10782325
v -0.02238760 -0.01598835 -0.10781804
v -0.02025210 -0.01598835 -0.10781544
v -0.01811660 -0.01598835 -0.10781152
v -0.01598109 -0.01811931 -0.10778937
v -0.00958873 -0.02452597 -0.10761537
v -0.00958873 -0.02025716 -0.10771377
v -0.00745323 -0.02239502 -0.10765643
v -0.00531773 -0.02666382 -0.10750003
v -0.00318222 -0.02879478 -0.10738598
v -0.02025210 -0.01385740 -0.10781673
v -0.02665860 -0.01171954 -0.10782586
v 0.02074672 -0.02926373 -0.10708817
v 0.02028002 -0.02926373 -0.10709469
v 0.01814451 -0.02879478 -0.10714747
v 0.01387351 -0.02666382 -0.10729019
v 0.00961665 -0.02452597 -0.10741727
v 0.00322428 -0.02239502 -0.10755151
v 0.00534564 -0.02239502 -0.10752870
v 0.00107464 -0.02239502 -0.10757301
v -0.00531773 -0.02239502 -0.10763622
v -0.00531773 -0.02452597 -0.10757497
v -0.00318222 -0.02666382 -0.10747983
v 0.00107464 -0.02879478 -0.10734428
v -0.00059416 -0.02926373 -0.10733450
v -0.00106086 -0.02926373 -0.10733906
v 0.01861122 -0.02926373 -0.10711684
v 0.00534564 -0.02666382 -0.10739119
v 0.01173801 -0.02666382 -0.10731561
v 0.00322428 -0.02879478 -0.10732146
v 0.00748115 -0.02452597 -0.10744202
v 0.00322428 -0.02452597 -0.10748829
v -0.00106086 -0.02452597 -0.10753261
v -0.00318222 -0.02452597 -0.10755412
v 0.00534564 -0.02452597 -0.10746548
v 0.00107464 -0.02666382 -0.10743812
v 0.00155548 -0.02926373 -0.10731300
v 0.00322428 -0.02666382 -0.10741531
v 0.06719051 -0.04151894 0.09278873
v 0.06505235 -0.04159093 0.09278873
v 0.06292532 -0.04158828 0.09278873
v -0.03519609 -0.04115639 0.09113728
v 0.05866015 -0.03735321 0.10558828
v -0.03519609 -0.04115639 0.09231178
v 0.05866015 -0.03673179 0.10693151
v 0.03986217 -0.03655612 0.10688283
v 0.00767844 -0.03665717 0.10573428
v 0.05866015 -0.03596970 0.10693151
v 0.00852479 -0.03626556 0.10665572
v 0.03986217 -0.03598225 0.10688283
v 0.00852479 -0.03626093 0.10665572
v -0.04299146 -0.02879704 -0.10760599
v -0.09065622 -0.02452988 -0.10767331
v -0.09065622 -0.02666123 -0.10766684
v -0.09095199 -0.02879704 -0.10762843
v -0.09058580 -0.02886823 -0.10764181
v -0.04373321 -0.02879704 -0.10760815
v -0.08852015 -0.02879704 -0.10765173
v -0.09065622 -0.02879704 -0.10764267
v -0.09095199 -0.02636756 -0.10766425
v -0.09770545 -0.03374684 0.09278843
v -0.09972263 -0.03116439 0.09484111
v -0.09865569 -0.03265181 0.09065735
v -0.09867792 -0.03267984 0.09278843
v -0.09772213 -0.03376617 0.09492308
v -0.09663852 -0.03460798 0.09278843
v -0.09869459 -0.03269917 0.09492308
v -0.09773324 -0.03377584 0.09705416
v -0.09665518 -0.03461861 0.09492308
v -0.09492141 -0.03549522 0.09492308
v -0.09870571 -0.03270883 0.09705416
v -0.09704973 -0.03309736 0.10081384
v -0.09492141 -0.03469690 0.10083523
v -0.08851977 -0.03644817 0.10057864
v -0.09851677 -0.03240826 0.10069980
v -0.09666630 -0.03461668 0.09705416
v -0.09765544 -0.03372945 0.09918880
v -0.09871127 -0.03266341 0.09918880
v -0.09362108 -0.03607317 0.09492308
v -0.09492141 -0.03546333 0.09705416
v -0.08349071 -0.04074614 0.08212589
v -0.09633844 -0.03437313 0.10068555
v -0.09182061 -0.03627807 0.10028285
v -0.09065365 -0.03635539 0.10043609
v -0.07145429 -0.04085825 0.09198304
v -0.06933153 -0.04086985 0.09205075
v -0.05439993 -0.04103126 0.09216835
v -0.05439993 -0.04103126 0.09096383
v -0.09658850 -0.03455482 0.09918880
v -0.08344625 -0.04072681 0.08425698
v -0.09355439 -0.03604322 0.09705416
v -0.09492141 -0.03534155 0.09918880
v -0.08145685 -0.04077707 0.08798102
v -0.09320430 -0.03598329 0.09918880
v -0.09213736 -0.03636022 0.09918880
v -0.07930630 -0.04063403 0.08979850
v -0.07358818 -0.04071908 0.09185831
v -0.08332955 -0.04064563 0.08557910
v -0.09248745 -0.03645397 0.09705416
v 0.08910397 0.03832394 0.09859964
v 0.08910397 0.03629373 0.10456505
v 0.08852420 0.03832000 0.09918068
v 0.08910397 0.03830689 0.09918068
v 0.08852420 0.03708850 0.10344170
v 0.08852420 0.03631078 0.10458442
v 0.08639097 0.03716326 0.10344170
v 0.08639097 0.03808786 0.10131119
v 0.08852420 0.03806557 0.10131119
v 0.08910397 0.03812196 0.10073014
v 0.08910397 0.03794360 0.10131119
v 0.04927897 0.03637448 0.10679658
v 0.04862875 0.03637448 0.10679658
v 0.07358982 0.03497025 0.10685540
v 0.07572108 0.03501211 0.10684834
v 0.07785234 0.03501591 0.10681775
v 0.05555235 0.03627047 0.10666716
v -0.01599546 0.03655207 0.10486013
v -0.01386420 0.03656856 0.10490954
v 0.07998360 0.03575291 0.10584129
v -0.02373785 0.03630852 0.10455896
v 0.10155676 0.02768816 -0.10130735
v 0.10153725 0.02666579 -0.05651082
v 0.10129468 0.02879813 -0.10305321
v 0.10151409 0.02879813 -0.10130735
v 0.10121667 0.02666579 0.08849769
v 0.10151043 0.02879813 -0.09917126
v 0.10150312 0.02879813 -0.09491959
v 0.09416749 0.03851001 -0.10284781
v 0.09438568 0.03835399 -0.10305321
v 0.10084001 0.03093185 -0.10305321
v 0.10110573 0.03093185 -0.10130735
v 0.10119229 0.03093185 -0.09917126
v 0.10119229 0.03093185 -0.09705570
v 0.09065934 0.03833072 0.09704210
v 0.10104479 0.02879813 0.09490599
v 0.10118376 0.02666579 0.09063379
v 0.10141779 0.02879813 -0.05651082
v 0.09435398 0.03858118 -0.10130735
v 0.09541934 0.03809806 -0.10130735
v 0.09500856 0.03801183 -0.10305321
v 0.10051455 0.03201307 -0.10305321
v 0.10051090 0.03254958 -0.10130735
v 0.10056087 0.03261391 -0.09917126
v 0.10056209 0.03260433 -0.09705570
v 0.10021713 0.03188716 0.09704210
v 0.10056087 0.03081962 0.09704210
v 0.09065934 0.03827187 0.09917821
v 0.09279128 0.03800635 0.09704210
v 0.10046092 0.03072929 0.09917821
v 0.10090949 0.02879813 0.09704210
v 0.09439543 0.03860171 -0.09917126
v 0.09546079 0.03808847 -0.09917126
v 0.09705640 0.03713316 -0.09917126
v 0.09724533 0.03691692 -0.10138952
v 0.09650908 0.03712632 -0.10305321
v 0.10040241 0.03231691 -0.10305321
v 0.10029392 0.03251947 -0.10305321
v 0.09993920 0.03361575 -0.10130735
v 0.09993433 0.03368008 -0.09917126
v 0.09995262 0.03362533 -0.09278349
v 0.09952720 0.03306145 0.09917821
v 0.10022078 0.03179546 0.09917821
v 0.08910518 0.03794203 0.10131431
v 0.09279128 0.03782022 0.09917821
v 0.09492445 0.03705652 0.09917821
v 0.09492445 0.03720981 0.09704210
v 0.09438690 0.03860445 -0.09705570
v 0.09414920 0.03867699 -0.09705570
v 0.09414920 0.03867562 -0.09884262
v 0.10032196 0.03036933 0.10039003
v 0.09705640 0.03713453 -0.09705570
v 0.09631893 0.03649127 0.09704210
v 0.09822902 0.03637220 -0.09917126
v 0.09824365 0.03638725 -0.09705570
v 0.09808153 0.03621891 -0.10214947
v 0.09717098 0.03668972 -0.10305321
v 0.09685648 0.03690323 -0.10305321
v 0.09818636 0.03632840 -0.10071171
v 0.09976733 0.03338308 -0.10305321
v 0.09897502 0.03519516 -0.09917126
v 0.09876170 0.03538404 -0.10138952
v 0.09850328 0.03456011 0.09704210
v 0.09849475 0.03454232 0.09917821
v 0.09836555 0.03439314 0.10057489
v 0.09883362 0.03302724 0.10129377
v 0.09981609 0.03102081 0.10119107
v 0.09065934 0.03761218 0.10131431
v 0.09617022 0.03638041 0.10036949
v 0.09629699 0.03646800 0.09917821
v 0.09843136 0.03049799 0.10494979
v 0.09843136 0.02959195 0.10494979
v 0.09736235 0.03560986 0.09917821
v 0.09738550 0.03562629 0.09704210
v 0.09848134 0.03526360 -0.10305321
v 0.09790722 0.03599992 -0.10305321
v 0.09569239 0.03386348 0.10556597
v 0.09671265 0.03279730 0.10556597
v 0.09805837 0.03192000 0.10437468
v 0.08968540 0.03627502 0.10451846
v 0.09421990 0.03424807 0.10673672
v 0.09630796 0.03240998 0.10677780
v 0.09630796 0.03177493 0.10677780
v 0.09208675 -0.03589706 0.10691794
v 0.09208675 -0.03654414 0.10691794
v 0.09405105 -0.03638427 0.10472708
v 0.09446849 -0.03605105 0.10428116
v 0.09065586 -0.03659210 0.10691794
v 0.09065586 -0.03716176 0.10558016
v 0.09279409 -0.03671916 0.10550260
v 0.09278945 -0.03700778 0.10344746
v 0.09415077 -0.03644569 0.10344746
v 0.09446849 -0.03615034 0.10344746
v 0.09065586 -0.03743355 0.10344746
v 0.07572769 -0.04104252 0.09245439
v 0.07785897 -0.04091967 0.09218296
v 0.07993457 -0.04092808 0.09053496
v 0.09278945 -0.03703050 0.10131476
v 0.08141650 -0.04092556 0.08851859
v 0.08212614 -0.04115948 0.07572243
v 0.08533581 -0.04053765 0.04080440
v 0.08533581 -0.04053765 0.04016459
v 0.08368228 -0.04085740 -0.07571829
v 0.07983254 -0.04106608 0.08834410
v -0.08156260 -0.04081371 -0.01812248
v -0.08172105 -0.04062195 -0.07708465
v -0.08338151 -0.04067957 0.05651935
v -0.08230535 -0.04039713 -0.07574634
v -0.10154425 0.02879606 0.08850770
v -0.10154995 0.02453215 0.09918528
v -0.10156135 0.02666411 0.09918528
v -0.10153284 0.02879606 0.09065101
v -0.10095122 0.03068450 0.09065101
v -0.10097061 0.03061808 0.08850770
v -0.10040838 0.03215450 0.07145864
v -0.10037531 0.03213015 0.06931532
v -0.10150091 0.02879606 0.08638387
v -0.10094210 0.02453215 0.10117271
v -0.10090446 0.02666411 0.10086096
v -0.10096377 0.02897982 0.09936064
v -0.10146784 0.02879606 0.09704197
v -0.10082122 0.03045868 0.09704197
v -0.09842176 0.03452556 0.09277483
v -0.10041066 0.03214122 0.07358246
v -0.09751397 0.03559264 0.09277483
v -0.09653778 0.03672393 0.09491815
v -0.09571324 0.03599999 -0.09065357
v -0.09634276 0.03498383 -0.08851026
v -0.10086341 0.02239798 0.10117271
v -0.09918927 0.02239798 0.10144550
v -0.09918927 0.02453215 0.10138705
v -0.09279148 0.03680141 0.10076354
v -0.09443825 0.03656674 0.10056869
v -0.09839211 0.03247552 0.10039333
v -0.10062962 0.02839093 0.10052972
v -0.10014380 0.02981444 0.10019848
v -0.10060681 0.03024615 0.09877610
v -0.09817657 0.03422447 0.09840590
v -0.09639522 0.03659995 0.09667177
v -0.09492407 0.03775116 0.09491815
v -0.09481573 0.03687669 0.09918528
v -0.09588089 0.03600442 0.09918528
v -0.09778426 0.03389682 0.09982827
v -0.09213117 0.03859465 0.09846435
v -0.09857914 0.03313525 0.09914631
v -0.09361487 0.03824264 0.09704197
v -0.09375627 0.03835555 0.09491815
v -0.09268884 0.03868763 0.09491815
v -0.08991076 0.03876733 0.09902941
v -0.09065773 0.03872526 0.09883456
v -0.09065773 0.03903963 0.09704197
v -0.09254856 0.03869427 0.09704197
v 0.10155645 0.02768773 -0.10132265
v 0.10159760 0.02452685 -0.10132265
v 0.10159521 0.02666198 -0.10132265
v 0.10148846 0.02666198 -0.10305321
v 0.10150098 0.02452685 -0.10305321
v 0.10143300 -0.01599587 -0.09705752
v 0.10142405 -0.01813099 -0.09705752
v 0.10142882 -0.01386074 -0.09918950
v 0.10141690 -0.01599587 -0.09918950
v 0.10142405 -0.00533141 -0.10132265
v 0.10138290 -0.01173120 -0.10132265
v 0.10136680 -0.01386074 -0.10132265
v 0.10134473 -0.01599587 -0.10132265
v 0.10103701 -0.01599587 -0.10305321
v 0.10140139 -0.01813099 -0.09918950
v 0.10140377 -0.02026054 -0.09705752
v 0.09994565 -0.02902959 -0.10305321
v 0.10000887 -0.02926372 -0.10233555
v 0.10131909 -0.01813099 -0.10132265
v 0.10103165 -0.01639725 -0.10305321
v 0.10137516 -0.02026054 -0.09918950
v 0.10137635 -0.02239566 -0.09705752
v 0.10039829 -0.02815436 -0.10305321
v 0.10022833 -0.02926372 -0.10132265
v 0.10128808 -0.02026054 -0.10132265
v 0.10099944 -0.01853237 -0.10305321
v 0.10133699 -0.02239566 -0.09918950
v 0.10128629 -0.02453078 -0.09705752
v 0.10125111 -0.02453078 -0.09918950
v 0.10062432 -0.02675510 -0.10305321
v 0.10093503 -0.02666033 -0.10132265
v 0.10051757 -0.02852228 -0.10132265
v 0.10026948 -0.02926372 -0.10055131
v 0.10123620 -0.02239566 -0.10132265
v 0.10096724 -0.02026054 -0.10305321
v 0.10105133 -0.02666033 -0.09492438
v 0.10105133 -0.02666033 -0.09705752
v 0.10103641 -0.02666033 -0.09918950
v 0.10114555 -0.02453078 -0.10132265
v 0.10082471 -0.02453078 -0.10305321
v 0.10057005 -0.02867838 -0.09918950
v 0.10033926 -0.02926372 -0.09918950
v 0.10057423 -0.02867838 -0.09705752
v 0.10091118 -0.02239566 -0.10305321
v 0.10095710 -0.02066749 -0.10305321
v 0.09377015 0.03857022 -0.10305321
v 0.09414806 0.03851332 -0.10286184
v 0.09283202 0.03877648 -0.10305321
v 0.09279023 0.03902543 -0.10132265
v 0.09414806 0.03851739 -0.10283149
v 0.09279023 0.03908233 -0.09705752
v 0.09065700 0.03939934 -0.09705752
v 0.09065700 0.03940239 -0.09918950
v 0.09065700 0.03935261 -0.10132265
v 0.09065700 0.03911890 -0.10305321
v 0.09279023 0.03907318 -0.09918950
v 0.09414806 0.03864033 -0.10132265
v 0.09414806 0.03867589 -0.09886160
v 0.09414806 0.03864643 -0.10104259
f 855 1053 853
f 1026 1023 844
f 1049 1062 1063
f 916 855 854
f 921 855 916
f 1034 1032 409
f 853 1053 410
f 410 876 853
f 1015 1026 46
f 853 876 877
f 877 878 853
f 154 155 143
f 1077 1078 926
f 26 1026 43
f 46 1026 26
f 12 215 202
f 845 12 844
f 845 215 12
f 846 845 848
f 215 845 846
f 1074 186 1071
f 1071 182 1070
f 186 182 1071
f 518 517 553
f 188 486 185
f 486 180 185
f 426 425 427
f 414 921 415
f 938 1127 485
f 485 486 188
f 188 421 485
f 1069 1063 1062
f 1070 1063 1069
f 1053 855 484
f 1049 1050 1038
f 1040 1032 127
f 170 160 1050
f 408 409 403
f 412 409 408
f 876 410 411
f 411 412 408
f 408 403 402
f 1022 1027 1023
f 1020 1027 1022
f 916 854 852
f 891 848 847
f 847 851 891
f 848 845 847
f 847 845 844
f 844 1012 847
f 847 1012 1011
f 878 877 888
f 888 877 887
f 886 877 876
f 896 887 886
f 887 877 886
f 889 897 891
f 878 888 889
f 853 878 889
f 889 851 853
f 781 156 155
f 430 762 433
f 155 156 144
f 144 143 155
f 1080 1078 1077
f 1080 1086 493
f 949 948 965
f 14 27 264
f 72 75 51
f 51 75 48
f 46 26 45
f 803 156 804
f 119 1032 1040
f 216 215 1029
f 25 42 43
f 12 24 25
f 43 1026 25
f 844 12 25
f 25 1026 844
f 217 209 216
f 218 209 217
f 207 215 216
f 1004 918 1005
f 1005 918 1007
f 912 906 911
f 187 182 186
f 183 182 187
f 171 1063 1070
f 1070 182 171
f 1049 1063 171
f 171 1050 1049
f 171 170 1050
f 173 182 183
f 487 490 486
f 494 493 517
f 517 518 494
f 181 180 486
f 486 117 181
f 184 421 188
f 184 187 186
f 183 187 184
f 188 185 184
f 184 176 183
f 185 176 184
f 420 184 186
f 421 184 420
f 422 426 1074
f 425 426 422
f 922 921 916
f 916 415 922
f 922 415 921
f 414 415 416
f 423 485 425
f 906 485 423
f 427 425 424
f 424 485 427
f 425 485 424
f 429 485 421
f 421 420 429
f 938 952 1126
f 1126 1127 938
f 970 971 952
f 970 993 976
f 976 956 970
f 970 956 971
f 1075 1071 1070
f 1070 1069 1075
f 1074 1071 1075
f 483 921 414
f 414 484 483
f 483 484 921
f 855 921 924
f 924 484 855
f 921 484 924
f 1051 1038 1050
f 1048 1046 1049
f 1049 1038 1048
f 1048 1038 1046
f 139 1051 1050
f 160 170 161
f 170 171 161
f 405 395 394
f 405 409 1032
f 1032 395 405
f 408 402 401
f 401 392 391
f 400 401 391
f 408 401 400
f 393 405 394
f 393 401 402
f 392 401 393
f 393 402 403
f 844 1023 843
f 1023 1027 843
f 843 1012 844
f 1018 1012 843
f 843 1027 1020
f 1020 1018 843
f 1023 1024 1014
f 1014 1022 1023
f 1026 1015 1025
f 1015 1024 1025
f 1023 1026 1025
f 1025 1024 1023
f 1011 1012 1008
f 1019 1018 1020
f 1020 1012 1019
f 1019 1012 1018
f 247 1015 46
f 247 248 1015
f 849 847 1011
f 1011 1008 849
f 853 851 850
f 851 847 850
f 847 849 850
f 899 897 887
f 891 851 890
f 890 889 891
f 851 889 890
f 887 897 900
f 901 888 887
f 901 889 888
f 887 900 901
f 897 889 901
f 901 900 897
f 523 536 524
f 506 535 526
f 804 156 816
f 816 781 804
f 156 781 816
f 154 143 153
f 143 152 153
f 152 166 153
f 155 613 652
f 493 1086 1087
f 1085 1080 1077
f 1086 1080 1085
f 965 948 964
f 310 326 939
f 929 326 926
f 926 931 929
f 937 950 939
f 949 950 937
f 948 949 937
f 936 937 928
f 29 14 264
f 75 72 76
f 27 14 30
f 30 48 27
f 51 48 30
f 30 29 51
f 14 29 30
f 101 99 114
f 114 99 98
f 111 114 98
f 553 517 552
f 517 551 552
f 762 430 802
f 802 803 762
f 802 430 156
f 156 803 802
f 1040 127 125
f 397 395 1032
f 1032 119 397
f 397 119 395
f 218 217 225
f 895 903 896
f 1028 1029 215
f 1028 897 885
f 885 1029 1028
f 1028 846 892
f 215 846 1028
f 892 891 1028
f 891 897 1028
f 219 209 218
f 219 220 209
f 92 111 93
f 93 111 98
f 40 25 24
f 42 25 40
f 194 207 195
f 196 211 432
f 216 209 208
f 208 207 216
f 209 195 208
f 208 195 207
f 82 57 56
f 56 57 36
f 83 57 82
f 916 852 917
f 917 852 1007
f 1007 918 917
f 991 968 914
f 991 1004 992
f 992 968 991
f 908 912 910
f 910 920 908
f 908 1003 1004
f 1004 991 908
f 951 952 938
f 951 968 952
f 914 968 951
f 951 912 914
f 1130 486 1129
f 1130 487 486
f 981 980 501
f 490 487 505
f 523 524 505
f 1079 1080 493
f 493 494 1079
f 1078 1080 1079
f 494 928 1079
f 419 426 427
f 419 429 420
f 1074 426 419
f 419 186 1074
f 419 420 186
f 906 423 417
f 911 906 417
f 417 423 425
f 417 415 911
f 425 422 417
f 417 416 415
f 417 418 416
f 417 422 1074
f 952 971 972
f 972 1126 952
f 1127 1126 1128
f 1129 486 1128
f 486 485 1128
f 1128 485 1127
f 975 956 976
f 993 970 969
f 992 993 969
f 969 968 992
f 952 968 969
f 969 970 952
f 1034 1041 1042
f 1041 1056 1042
f 1033 1041 1034
f 412 1041 1033
f 1034 409 1033
f 409 412 1033
f 1053 1041 1052
f 1053 484 1054
f 1054 1041 1053
f 1054 484 414
f 414 1041 1054
f 414 416 1055
f 416 1056 1055
f 1055 1041 414
f 1055 1056 1041
f 1064 1069 1062
f 1067 1056 416
f 1067 1075 1069
f 1074 1075 1067
f 1069 1064 1067
f 1067 1064 1056
f 1035 1032 1034
f 1034 1044 1035
f 1036 1035 1044
f 1032 1035 1036
f 1032 1038 1039
f 1039 127 1032
f 1051 139 132
f 127 1039 132
f 1038 1051 132
f 132 1039 1038
f 162 161 172
f 172 161 171
f 172 171 182
f 172 173 162
f 182 173 172
f 231 232 220
f 231 219 218
f 220 219 231
f 399 400 391
f 399 391 390
f 407 411 408
f 408 400 407
f 879 400 882
f 879 886 876
f 879 407 400
f 876 411 879
f 411 407 879
f 378 379 245
f 458 460 245
f 378 245 381
f 404 393 403
f 405 393 404
f 404 403 409
f 409 405 404
f 439 396 395
f 458 245 439
f 395 396 386
f 394 395 386
f 259 268 260
f 260 252 259
f 1021 1024 1015
f 1015 1014 1021
f 1021 1014 1024
f 1022 1014 1017
f 1017 1014 1012
f 1020 1022 1017
f 1017 1012 1020
f 1009 1014 1015
f 1012 1014 1013
f 1013 1008 1012
f 1014 1009 1013
f 1013 1009 1008
f 896 903 898
f 903 899 898
f 898 887 896
f 898 899 887
f 897 899 902
f 902 899 903
f 507 524 536
f 490 505 507
f 169 506 526
f 526 561 169
f 169 587 586
f 169 155 154
f 532 506 531
f 531 576 532
f 528 506 527
f 560 561 526
f 560 169 561
f 587 169 560
f 586 587 560
f 560 558 586
f 586 558 580
f 526 535 580
f 580 558 526
f 613 576 611
f 612 576 615
f 155 743 742
f 155 688 725
f 725 743 155
f 725 688 724
f 743 782 780
f 780 742 743
f 780 781 155
f 155 742 780
f 156 430 159
f 159 158 156
f 689 688 155
f 155 652 689
f 689 652 688
f 724 688 723
f 688 687 723
f 723 687 686
f 1094 493 1088
f 493 1087 1088
f 1116 1113 1112
f 1112 1118 1116
f 1112 1113 1103
f 1086 1085 1084
f 1084 1085 1077
f 315 311 298
f 321 311 327
f 954 310 939
f 345 346 324
f 325 346 326
f 326 310 325
f 325 324 346
f 310 324 325
f 939 326 940
f 940 929 939
f 326 929 940
f 939 929 941
f 941 929 931
f 941 937 939
f 931 937 941
f 925 926 1078
f 925 928 926
f 930 931 926
f 926 928 930
f 930 937 931
f 930 928 937
f 254 29 264
f 250 29 254
f 248 29 249
f 249 29 250
f 1015 248 249
f 249 250 1015
f 50 29 248
f 248 247 50
f 50 247 46
f 71 72 46
f 46 45 71
f 74 105 537
f 44 45 26
f 44 69 45
f 44 26 43
f 43 69 44
f 68 69 43
f 511 538 539
f 537 105 511
f 517 493 516
f 583 111 584
f 763 803 804
f 762 803 763
f 395 119 436
f 436 437 395
f 121 119 1040
f 1040 125 121
f 196 432 190
f 194 195 190
f 190 195 196
f 690 190 189
f 433 762 857
f 222 462 461
f 220 462 222
f 461 211 222
f 461 462 441
f 224 1029 218
f 218 225 224
f 216 1029 224
f 224 225 216
f 216 225 226
f 226 225 217
f 1030 1029 885
f 874 1030 885
f 39 40 24
f 42 40 61
f 92 93 61
f 210 211 196
f 196 195 210
f 210 195 209
f 442 465 443
f 443 432 442
f 432 441 442
f 442 441 462
f 442 464 465
f 21 22 12
f 12 17 21
f 21 16 22
f 21 17 16
f 6 17 12
f 16 17 6
f 12 214 213
f 203 202 215
f 215 205 203
f 203 205 194
f 215 207 206
f 206 205 215
f 206 207 194
f 194 205 206
f 58 56 36
f 702 83 82
f 661 83 702
f 1004 1005 1000
f 992 1004 1000
f 1000 988 992
f 986 997 987
f 965 986 987
f 987 988 965
f 1001 1000 1005
f 988 1000 1001
f 1004 923 919
f 923 920 919
f 919 918 1004
f 909 920 923
f 909 923 1004
f 909 908 920
f 967 991 914
f 967 908 991
f 914 912 967
f 912 908 967
f 904 951 938
f 906 951 904
f 938 485 904
f 904 485 906
f 906 912 913
f 912 951 913
f 963 964 948
f 958 980 981
f 977 982 958
f 557 556 581
f 557 536 523
f 557 581 536
f 554 518 553
f 165 166 152
f 150 164 165
f 1050 160 146
f 146 139 1050
f 174 164 162
f 162 173 174
f 174 173 183
f 183 176 175
f 176 164 175
f 175 174 183
f 164 174 175
f 162 164 163
f 179 185 180
f 179 176 185
f 180 166 179
f 428 419 427
f 429 419 428
f 427 485 428
f 485 429 428
f 1131 1128 1126
f 978 975 976
f 976 997 978
f 978 997 986
f 978 986 965
f 965 964 978
f 964 963 978
f 956 975 957
f 977 958 957
f 957 978 977
f 975 978 957
f 1058 1042 1057
f 1057 1042 1056
f 1056 1066 1057
f 413 1052 1041
f 412 411 413
f 413 1041 412
f 413 411 410
f 413 410 1053
f 1053 1052 413
f 1043 1044 1034
f 1034 1042 1043
f 1043 1042 1058
f 1044 1043 1060
f 1060 1057 1066
f 1065 1066 1056
f 1056 1064 1065
f 1065 1064 1062
f 1073 1067 416
f 1074 1067 1073
f 1073 417 1074
f 1046 1038 1047
f 1047 1036 1046
f 1038 1036 1047
f 1037 1038 1032
f 1032 1036 1037
f 1037 1036 1038
f 406 398 882
f 406 399 398
f 882 400 406
f 400 399 406
f 230 231 218
f 232 231 243
f 438 439 395
f 458 439 438
f 396 439 387
f 387 386 396
f 385 393 394
f 394 386 385
f 392 393 385
f 390 391 385
f 391 392 385
f 385 386 379
f 284 267 266
f 284 266 27
f 27 283 284
f 302 319 303
f 266 267 258
f 258 257 266
f 258 267 268
f 258 268 259
f 259 252 258
f 885 897 894
f 897 902 894
f 903 895 894
f 894 902 903
f 508 507 536
f 536 527 508
f 508 527 506
f 525 505 524
f 524 507 525
f 525 507 505
f 486 490 491
f 490 507 491
f 168 181 117
f 168 169 154
f 579 580 535
f 586 580 579
f 535 506 534
f 578 579 535
f 535 534 578
f 536 581 562
f 562 527 536
f 562 554 553
f 581 554 562
f 553 552 562
f 562 588 589
f 589 590 562
f 562 590 591
f 591 592 562
f 526 558 559
f 559 560 526
f 558 560 559
f 529 506 528
f 528 573 529
f 612 615 614
f 614 613 155
f 155 169 614
f 614 576 613
f 614 615 576
f 688 652 651
f 651 687 688
f 651 652 613
f 1111 1118 1112
f 1112 1103 1111
f 302 284 301
f 301 284 283
f 301 283 27
f 27 300 301
f 1108 27 1099
f 27 47 1099
f 28 1116 1118
f 1104 1103 1113
f 1097 1103 1104
f 1090 1088 1087
f 1090 1087 1086
f 1086 1084 1090
f 1094 1088 1090
f 326 346 347
f 296 994 281
f 296 974 994
f 281 954 296
f 296 954 974
f 966 950 949
f 966 949 965
f 965 988 966
f 328 311 315
f 328 329 311
f 311 329 330
f 330 327 311
f 330 329 344
f 344 327 330
f 297 954 281
f 310 954 297
f 322 344 345
f 322 327 344
f 321 327 322
f 1078 1079 1076
f 1076 925 1078
f 1076 1079 928
f 928 925 1076
f 73 72 51
f 46 72 73
f 73 50 46
f 103 76 72
f 72 71 103
f 103 74 76
f 100 99 101
f 100 68 99
f 69 68 100
f 105 74 104
f 104 511 105
f 101 114 104
f 70 100 101
f 70 103 71
f 74 103 70
f 70 71 45
f 45 69 70
f 69 100 70
f 1106 1104 1113
f 584 545 540
f 539 583 540
f 540 583 584
f 540 511 539
f 540 545 542
f 517 516 549
f 1089 493 1094
f 1089 514 493
f 515 516 493
f 493 514 515
f 114 111 116
f 539 538 116
f 3 212 2
f 8 212 3
f 437 436 452
f 189 190 863
f 862 690 189
f 189 863 862
f 461 441 440
f 440 441 432
f 440 211 461
f 440 432 211
f 227 217 216
f 216 226 227
f 227 226 217
f 1029 1030 1031
f 1030 874 1031
f 884 895 896
f 884 894 895
f 873 1031 874
f 38 39 24
f 42 61 67
f 43 42 67
f 67 61 93
f 67 68 43
f 99 68 67
f 98 99 67
f 67 93 98
f 60 61 40
f 92 61 60
f 60 59 92
f 221 222 211
f 211 210 221
f 220 222 221
f 209 220 221
f 221 210 209
f 463 442 462
f 464 442 463
f 12 8 7
f 7 6 12
f 8 3 7
f 7 3 6
f 12 202 204
f 204 201 12
f 199 214 12
f 12 213 13
f 80 56 79
f 56 58 79
f 41 58 36
f 41 36 24
f 623 625 589
f 83 625 623
f 626 83 661
f 626 625 83
f 591 590 626
f 589 625 626
f 626 590 589
f 110 702 82
f 996 987 997
f 976 993 996
f 996 997 976
f 996 993 992
f 992 988 996
f 988 987 996
f 915 919 920
f 915 920 910
f 918 919 915
f 910 912 915
f 916 917 915
f 915 917 918
f 915 912 911
f 915 415 916
f 911 415 915
f 1004 1003 905
f 905 909 1004
f 1003 908 905
f 908 909 905
f 907 951 906
f 906 913 907
f 907 913 951
f 977 978 984
f 984 978 963
f 523 505 503
f 487 1130 1123
f 523 501 500
f 500 501 980
f 936 928 935
f 556 521 555
f 581 556 555
f 555 554 581
f 166 165 178
f 178 165 164
f 145 144 156
f 143 142 151
f 151 142 150
f 151 152 143
f 151 165 152
f 150 165 151
f 177 164 176
f 176 179 177
f 177 178 164
f 177 179 166
f 166 178 177
f 1133 1131 1126
f 1045 1036 1044
f 1044 1060 1045
f 1046 1036 1045
f 1058 1057 1059
f 1057 1060 1059
f 1059 1043 1058
f 1059 1060 1043
f 416 418 1072
f 1072 1073 416
f 418 417 1072
f 417 1073 1072
f 398 399 388
f 378 381 866
f 390 385 384
f 384 385 379
f 867 381 245
f 246 245 460
f 460 243 246
f 458 479 480
f 479 243 480
f 480 460 458
f 480 243 460
f 232 243 233
f 220 232 233
f 395 437 456
f 456 438 395
f 458 438 457
f 457 463 462
f 380 387 439
f 380 245 379
f 380 439 245
f 379 386 380
f 386 387 380
f 305 306 286
f 286 303 305
f 285 303 286
f 285 286 268
f 285 284 302
f 302 303 285
f 268 267 285
f 267 284 285
f 286 306 304
f 304 298 286
f 304 313 298
f 314 332 315
f 315 298 314
f 298 313 314
f 268 286 287
f 286 298 287
f 271 260 270
f 288 273 270
f 252 253 1016
f 257 258 251
f 250 256 251
f 251 256 257
f 251 258 252
f 252 1016 251
f 1015 250 251
f 251 1016 1015
f 489 117 486
f 492 508 506
f 507 508 492
f 486 491 492
f 492 491 507
f 167 168 154
f 154 153 167
f 167 153 166
f 167 166 180
f 180 181 167
f 181 168 167
f 169 579 616
f 616 578 612
f 579 578 616
f 617 169 586
f 586 579 617
f 617 579 169
f 506 532 533
f 533 534 506
f 532 578 533
f 533 578 534
f 577 532 576
f 577 578 532
f 577 576 612
f 612 578 577
f 588 562 585
f 585 562 552
f 585 552 551
f 608 607 644
f 610 609 644
f 644 609 608
f 531 506 530
f 506 529 530
f 612 614 650
f 650 614 169
f 650 616 612
f 169 616 650
f 565 527 564
f 564 596 565
f 566 565 598
f 527 565 566
f 647 651 613
f 613 611 647
f 647 611 610
f 687 651 647
f 686 687 647
f 685 721 686
f 686 647 685
f 685 647 684
f 49 47 27
f 27 48 49
f 76 74 49
f 74 47 49
f 49 48 75
f 75 76 49
f 1093 47 74
f 299 28 1118
f 299 300 27
f 27 28 299
f 316 301 300
f 316 1111 1103
f 1118 1111 316
f 316 299 1118
f 1117 28 27
f 1116 28 1117
f 1117 27 1108
f 1108 1116 1117
f 1097 1104 1102
f 1102 1104 1109
f 1083 1084 1077
f 366 346 345
f 366 347 346
f 345 344 366
f 974 954 953
f 953 966 974
f 950 966 953
f 939 950 953
f 953 954 939
f 989 966 988
f 994 974 990
f 974 966 990
f 966 989 990
f 315 332 333
f 333 328 315
f 332 328 333
f 307 292 298
f 298 292 282
f 276 275 282
f 294 297 281
f 295 297 294
f 294 280 295
f 309 297 295
f 309 324 310
f 310 297 309
f 321 322 309
f 1006 280 995
f 280 294 995
f 281 994 995
f 995 294 281
f 345 324 323
f 323 322 345
f 324 309 323
f 323 309 322
f 250 254 255
f 255 256 250
f 255 254 264
f 264 256 255
f 266 257 265
f 257 256 265
f 265 256 264
f 264 27 265
f 27 266 265
f 115 104 114
f 114 116 115
f 115 116 538
f 538 511 115
f 511 104 115
f 101 104 102
f 102 70 101
f 102 104 74
f 74 70 102
f 1098 1099 47
f 47 1093 1098
f 513 509 511
f 541 540 542
f 511 540 541
f 541 513 511
f 546 545 584
f 584 547 546
f 546 515 545
f 547 515 546
f 550 549 516
f 550 551 517
f 517 549 550
f 550 585 551
f 584 585 550
f 1109 1110 1100
f 1100 1102 1109
f 544 515 514
f 545 515 544
f 582 583 539
f 539 116 582
f 111 583 582
f 582 116 111
f 686 721 722
f 770 769 732
f 16 6 15
f 120 436 119
f 474 452 124
f 124 119 123
f 124 120 119
f 124 452 436
f 436 120 124
f 127 132 128
f 126 121 125
f 126 125 127
f 137 131 130
f 137 435 131
f 450 124 123
f 474 124 450
f 435 137 138
f 144 145 138
f 130 136 138
f 138 137 130
f 143 144 138
f 138 136 143
f 859 190 432
f 859 432 443
f 443 863 859
f 190 861 197
f 2 212 197
f 1 197 861
f 728 690 727
f 690 862 727
f 727 862 726
f 727 726 762
f 762 763 727
f 727 763 728
f 762 726 858
f 726 862 858
f 858 857 762
f 858 862 863
f 858 863 443
f 433 857 858
f 433 858 444
f 444 858 448
f 465 464 477
f 477 476 465
f 467 468 443
f 475 468 467
f 467 476 475
f 218 1029 228
f 1029 1031 228
f 228 1031 236
f 235 1031 234
f 236 1031 235
f 885 894 883
f 894 884 883
f 883 874 885
f 883 884 874
f 874 884 880
f 880 873 874
f 234 1031 870
f 1031 873 870
f 40 39 37
f 37 60 40
f 39 38 37
f 36 57 37
f 24 36 37
f 37 38 24
f 57 59 37
f 59 60 37
f 12 201 200
f 200 199 12
f 214 199 198
f 198 213 214
f 212 213 198
f 198 197 212
f 9 8 12
f 12 13 9
f 9 212 8
f 22 16 31
f 31 35 22
f 62 41 54
f 66 85 58
f 58 41 66
f 23 24 12
f 12 22 23
f 34 35 54
f 54 41 34
f 22 35 34
f 34 23 22
f 34 41 24
f 24 23 34
f 661 702 703
f 703 702 704
f 704 665 703
f 631 665 632
f 597 631 632
f 596 630 597
f 630 631 597
f 597 565 596
f 598 565 597
f 589 588 624
f 624 623 589
f 584 623 624
f 624 585 584
f 588 585 624
f 584 111 91
f 91 111 92
f 92 59 91
f 704 702 741
f 741 110 704
f 702 110 741
f 959 958 981
f 981 501 959
f 502 501 523
f 523 503 502
f 502 959 501
f 944 959 502
f 504 505 487
f 487 1123 504
f 504 503 505
f 499 521 522
f 522 500 499
f 523 500 522
f 522 521 556
f 522 557 523
f 556 557 522
f 980 958 979
f 979 958 982
f 521 495 520
f 520 555 521
f 927 935 928
f 927 928 494
f 494 495 927
f 496 495 521
f 496 927 495
f 936 935 946
f 518 554 519
f 554 555 519
f 555 520 519
f 519 520 495
f 519 494 518
f 519 495 494
f 147 146 160
f 147 161 162
f 160 161 147
f 1126 972 973
f 973 1133 1126
f 1061 1045 1060
f 1061 1065 1062
f 1066 1065 1061
f 1061 1062 1049
f 1049 1046 1061
f 1046 1045 1061
f 389 399 390
f 389 388 399
f 239 867 245
f 865 867 238
f 238 239 230
f 867 239 238
f 882 398 875
f 398 388 875
f 240 246 243
f 231 230 240
f 240 243 231
f 230 239 240
f 245 246 240
f 240 239 245
f 481 462 220
f 220 233 481
f 482 243 479
f 482 233 243
f 482 481 233
f 462 481 482
f 478 457 462
f 462 482 478
f 478 482 479
f 478 479 458
f 458 457 478
f 437 452 453
f 453 452 474
f 453 473 475
f 474 473 453
f 438 456 459
f 459 457 438
f 464 463 459
f 463 457 459
f 320 303 319
f 320 305 303
f 306 305 320
f 320 304 306
f 313 304 320
f 269 260 268
f 269 270 260
f 288 270 269
f 268 287 269
f 269 287 288
f 262 275 276
f 1010 1016 253
f 1010 1009 1015
f 1015 1016 1010
f 118 492 506
f 506 169 118
f 169 168 118
f 489 492 118
f 118 168 117
f 117 489 118
f 488 489 486
f 486 492 488
f 488 492 489
f 610 644 648
f 606 607 573
f 574 530 529
f 574 529 573
f 574 607 608
f 573 607 574
f 608 609 575
f 575 574 608
f 530 574 575
f 531 530 575
f 575 576 531
f 575 611 576
f 575 609 610
f 610 611 575
f 528 527 571
f 527 570 571
f 527 568 569
f 569 570 527
f 602 638 599
f 300 299 317
f 317 316 300
f 299 316 317
f 302 301 318
f 301 316 318
f 318 319 302
f 341 320 340
f 1082 1090 1084
f 1084 1083 1082
f 1077 1081 1082
f 1082 1083 1077
f 371 360 372
f 1077 926 335
f 926 326 335
f 335 326 352
f 361 360 371
f 1097 372 359
f 359 372 360
f 362 361 369
f 349 350 326
f 353 328 332
f 329 328 353
f 994 990 1002
f 1002 990 989
f 1005 994 1002
f 1002 1001 1005
f 988 1001 1002
f 1002 989 988
f 312 298 311
f 312 307 298
f 312 311 321
f 289 287 298
f 288 287 289
f 289 273 288
f 274 262 273
f 275 262 274
f 295 307 308
f 308 309 295
f 321 309 308
f 308 312 321
f 307 312 308
f 1106 1098 1105
f 511 509 1105
f 1105 1098 511
f 1107 1098 1106
f 1113 1116 1107
f 1107 1106 1113
f 1099 1098 1107
f 1107 1116 1108
f 1108 1099 1107
f 1092 1098 1093
f 1092 74 537
f 1092 1093 74
f 542 514 512
f 512 541 542
f 513 541 512
f 514 1110 512
f 548 550 516
f 516 515 548
f 548 515 547
f 548 547 584
f 584 550 548
f 1102 1100 1096
f 1097 1102 1096
f 1094 1090 1096
f 1096 1100 1094
f 1101 1110 514
f 1101 1100 1110
f 543 514 542
f 543 544 514
f 542 545 543
f 545 544 543
f 724 760 761
f 761 760 782
f 761 782 743
f 761 725 724
f 743 725 761
f 782 760 801
f 801 760 800
f 800 808 801
f 801 780 782
f 724 723 759
f 759 760 724
f 800 760 759
f 691 730 692
f 691 729 730
f 692 653 691
f 691 690 728
f 728 729 691
f 190 690 691
f 691 653 190
f 6 3 5
f 5 15 6
f 54 35 78
f 35 55 78
f 78 62 54
f 16 15 18
f 130 131 122
f 127 128 122
f 122 126 127
f 122 131 123
f 123 119 122
f 119 121 122
f 121 126 122
f 143 136 135
f 135 142 143
f 474 450 447
f 447 450 435
f 469 473 472
f 443 468 469
f 469 468 475
f 475 473 469
f 131 435 449
f 123 131 449
f 860 863 190
f 190 859 860
f 860 859 863
f 2 197 621
f 197 1 621
f 448 858 471
f 471 469 472
f 465 476 466
f 476 467 466
f 443 465 466
f 466 467 443
f 229 228 236
f 236 235 229
f 229 235 237
f 229 237 230
f 229 230 218
f 218 228 229
f 893 884 896
f 893 880 884
f 896 886 893
f 880 893 881
f 881 893 886
f 881 879 882
f 886 879 881
f 865 870 869
f 869 870 873
f 191 198 199
f 199 200 191
f 190 197 191
f 197 198 191
f 223 13 213
f 223 9 13
f 223 213 212
f 212 9 223
f 58 85 86
f 86 87 58
f 85 87 86
f 88 87 85
f 58 87 88
f 88 89 58
f 64 41 63
f 41 62 63
f 63 78 64
f 62 78 63
f 65 41 64
f 65 66 41
f 664 703 665
f 665 631 664
f 664 631 630
f 595 596 564
f 564 594 595
f 593 594 563
f 563 592 591
f 591 593 563
f 563 594 564
f 564 527 563
f 527 562 563
f 563 562 592
f 629 630 596
f 661 630 629
f 629 662 661
f 627 593 591
f 591 626 627
f 627 626 661
f 661 662 627
f 633 597 632
f 622 623 584
f 584 91 622
f 933 502 503
f 944 502 933
f 1121 504 1123
f 1122 503 1121
f 503 504 1121
f 999 500 980
f 980 979 999
f 499 500 999
f 498 521 499
f 935 927 934
f 927 496 934
f 936 946 947
f 947 937 936
f 948 937 947
f 947 963 948
f 945 946 935
f 935 934 945
f 945 496 521
f 945 934 496
f 985 979 982
f 148 147 149
f 142 141 149
f 149 141 148
f 150 142 149
f 149 147 162
f 162 163 149
f 149 164 150
f 149 163 164
f 956 957 943
f 943 957 958
f 958 959 943
f 943 959 944
f 944 933 943
f 1129 1128 1124
f 1128 1131 1124
f 1124 1130 1129
f 1124 1123 1130
f 1124 1125 1122
f 1122 1121 1124
f 1124 1121 1123
f 1068 1060 1066
f 1066 1061 1068
f 1068 1061 1060
f 382 388 383
f 388 389 383
f 390 384 383
f 383 389 390
f 378 866 383
f 383 866 382
f 383 379 378
f 383 384 379
f 244 870 865
f 865 238 244
f 455 459 456
f 455 456 437
f 476 477 455
f 455 477 464
f 464 459 455
f 331 320 343
f 331 353 332
f 343 353 331
f 332 314 331
f 331 314 313
f 313 320 331
f 342 320 341
f 343 320 342
f 272 270 273
f 273 262 272
f 271 270 272
f 276 282 263
f 263 262 276
f 1009 1010 263
f 253 262 263
f 263 1010 253
f 263 280 1006
f 1008 1009 263
f 263 1006 1008
f 677 713 714
f 643 648 644
f 643 644 607
f 607 606 643
f 643 606 641
f 603 571 570
f 641 606 572
f 572 606 573
f 572 573 528
f 528 571 572
f 598 597 601
f 597 602 601
f 711 713 712
f 712 674 711
f 713 677 712
f 341 340 363
f 363 342 341
f 343 342 363
f 362 349 363
f 377 1082 1081
f 377 1081 1077
f 377 374 1082
f 1090 1082 1091
f 1097 1096 1091
f 1091 1096 1090
f 1082 374 1091
f 371 372 351
f 352 326 351
f 351 335 352
f 326 350 351
f 350 369 351
f 334 355 1077
f 1077 335 334
f 334 335 355
f 360 361 338
f 338 318 316
f 319 318 338
f 370 361 371
f 370 369 361
f 371 351 370
f 370 351 369
f 362 369 368
f 368 369 350
f 344 329 354
f 329 353 354
f 354 366 344
f 354 353 366
f 298 282 290
f 290 289 298
f 290 282 275
f 275 274 290
f 273 289 290
f 290 274 273
f 293 307 295
f 292 307 293
f 295 280 293
f 277 282 292
f 277 263 282
f 278 263 277
f 509 513 1115
f 1115 1105 509
f 513 512 1115
f 510 1092 537
f 1098 1092 510
f 537 511 510
f 511 1098 510
f 1120 1110 1109
f 1120 512 1110
f 514 1089 1095
f 1095 1101 514
f 1100 1101 1095
f 1095 1089 1094
f 1094 1100 1095
f 780 801 815
f 815 801 808
f 781 780 815
f 800 759 758
f 758 759 723
f 781 815 807
f 807 815 808
f 804 766 765
f 730 729 765
f 765 766 730
f 768 800 770
f 768 808 800
f 770 732 768
f 80 107 81
f 82 56 81
f 81 56 80
f 85 66 96
f 10 5 3
f 15 5 10
f 10 18 15
f 20 31 16
f 16 18 20
f 80 109 106
f 106 107 80
f 109 81 106
f 106 81 107
f 142 135 134
f 134 141 142
f 148 141 140
f 139 146 140
f 140 132 139
f 146 147 140
f 140 147 148
f 446 473 474
f 474 447 446
f 435 450 451
f 451 449 435
f 451 450 123
f 123 449 451
f 156 158 157
f 157 145 156
f 619 620 861
f 619 190 618
f 619 861 190
f 657 620 656
f 620 619 656
f 657 621 856
f 861 620 856
f 856 620 657
f 856 1 861
f 856 621 1
f 864 858 443
f 864 471 858
f 443 469 470
f 469 471 470
f 470 864 443
f 471 864 470
f 880 881 872
f 873 880 872
f 872 869 873
f 872 881 882
f 882 875 872
f 875 869 872
f 871 869 875
f 871 388 382
f 871 875 388
f 192 200 201
f 192 191 200
f 190 191 192
f 58 89 90
f 80 79 90
f 90 79 58
f 661 703 663
f 703 664 663
f 663 630 661
f 663 664 630
f 666 665 704
f 632 665 666
f 666 633 632
f 667 633 666
f 705 110 82
f 704 110 705
f 705 666 704
f 667 666 705
f 711 674 672
f 673 672 674
f 596 595 628
f 628 629 596
f 593 627 628
f 662 629 628
f 628 627 662
f 628 594 593
f 628 595 594
f 634 633 638
f 597 633 634
f 638 602 634
f 634 602 597
f 668 633 667
f 668 667 706
f 706 669 668
f 668 669 638
f 638 633 668
f 84 622 91
f 84 91 59
f 83 623 84
f 623 622 84
f 57 83 84
f 84 59 57
f 499 999 998
f 998 999 979
f 998 498 499
f 979 498 998
f 946 945 960
f 960 961 946
f 946 961 962
f 963 947 962
f 962 947 946
f 962 984 963
f 979 985 962
f 977 984 962
f 962 982 977
f 962 985 982
f 1122 1125 932
f 932 943 933
f 932 503 1122
f 932 933 503
f 971 956 955
f 956 943 955
f 955 972 971
f 955 973 972
f 1133 973 955
f 1131 1133 955
f 242 244 238
f 242 238 230
f 870 244 242
f 234 870 242
f 437 453 454
f 454 455 437
f 476 455 454
f 475 476 454
f 454 453 475
f 261 272 262
f 261 253 252
f 261 262 253
f 271 272 261
f 261 260 271
f 252 260 261
f 280 263 279
f 279 263 278
f 279 293 280
f 278 293 279
f 720 684 682
f 680 643 641
f 648 643 680
f 750 752 789
f 719 721 720
f 720 682 719
f 719 682 718
f 757 758 722
f 797 798 757
f 796 797 757
f 605 639 642
f 642 640 605
f 641 572 605
f 600 603 570
f 636 673 674
f 676 712 677
f 676 640 642
f 677 640 676
f 343 363 364
f 348 363 349
f 326 347 348
f 348 349 326
f 348 364 363
f 347 366 348
f 373 372 1097
f 1097 374 373
f 373 374 355
f 1077 355 375
f 375 377 1077
f 355 374 375
f 374 377 375
f 376 374 1097
f 1097 1091 376
f 376 1091 374
f 339 361 362
f 339 338 361
f 362 363 339
f 339 363 340
f 319 338 339
f 339 320 319
f 339 340 320
f 337 359 360
f 360 338 337
f 337 338 316
f 367 349 362
f 362 368 367
f 350 349 367
f 367 368 350
f 291 293 278
f 278 277 291
f 292 293 291
f 291 277 292
f 1106 1105 1114
f 1105 1115 1114
f 1114 1115 1109
f 1109 1104 1114
f 1104 1106 1114
f 1119 1120 1109
f 512 1120 1119
f 1109 1115 1119
f 1119 1115 512
f 781 807 805
f 804 781 805
f 805 766 804
f 764 765 729
f 728 763 764
f 764 729 728
f 764 763 804
f 804 765 764
f 766 807 767
f 730 766 767
f 767 807 808
f 808 768 767
f 770 800 809
f 809 769 770
f 660 699 700
f 700 699 738
f 842 835 832
f 112 819 831
f 819 818 831
f 831 96 112
f 818 96 831
f 817 81 109
f 783 745 744
f 82 783 744
f 95 65 64
f 660 10 4
f 2 621 4
f 4 621 660
f 4 3 2
f 4 10 3
f 11 10 660
f 18 10 11
f 660 20 11
f 11 20 18
f 740 19 701
f 660 700 701
f 701 20 660
f 19 20 701
f 52 55 35
f 35 31 32
f 31 20 32
f 32 52 35
f 32 20 19
f 777 52 32
f 32 19 740
f 740 777 32
f 129 135 136
f 129 134 135
f 129 136 130
f 128 134 129
f 130 122 129
f 129 122 128
f 133 140 141
f 133 134 128
f 141 134 133
f 133 128 132
f 132 140 133
f 434 446 447
f 434 444 448
f 434 447 435
f 433 444 434
f 434 430 433
f 732 733 694
f 654 619 618
f 618 190 654
f 190 653 654
f 654 653 692
f 734 732 769
f 734 733 732
f 660 621 659
f 659 699 660
f 733 734 695
f 695 694 733
f 656 694 695
f 382 866 868
f 868 871 382
f 868 866 381
f 381 867 868
f 868 867 865
f 201 204 193
f 193 192 201
f 193 204 202
f 194 190 193
f 190 192 193
f 193 203 194
f 202 203 193
f 711 672 710
f 497 945 521
f 497 960 945
f 961 960 497
f 521 498 497
f 983 962 961
f 979 962 983
f 983 498 979
f 983 497 498
f 961 497 983
f 1125 1124 1132
f 1132 1124 1131
f 230 237 241
f 241 242 230
f 237 235 241
f 241 235 234
f 234 242 241
f 646 682 684
f 645 682 646
f 684 647 646
f 646 647 610
f 610 645 646
f 679 680 641
f 648 680 649
f 649 680 645
f 610 648 649
f 649 645 610
f 645 680 683
f 683 680 718
f 714 713 749
f 722 755 756
f 756 757 722
f 796 757 756
f 800 758 799
f 758 757 799
f 799 757 798
f 799 809 800
f 798 809 799
f 604 605 572
f 571 603 604
f 604 572 571
f 639 605 604
f 603 600 604
f 567 602 599
f 599 600 567
f 567 601 602
f 567 566 598
f 598 601 567
f 567 568 527
f 527 566 567
f 567 569 568
f 570 569 567
f 567 600 570
f 712 676 675
f 674 712 675
f 675 636 674
f 675 676 642
f 642 639 675
f 639 636 675
f 365 348 366
f 364 348 365
f 343 364 365
f 366 353 365
f 365 353 343
f 358 373 355
f 355 335 358
f 356 351 372
f 372 373 356
f 335 351 356
f 1097 359 336
f 359 337 336
f 336 1103 1097
f 336 316 1103
f 336 337 316
f 806 807 766
f 766 805 806
f 806 805 807
f 731 768 732
f 731 767 768
f 730 767 731
f 692 730 731
f 732 694 731
f 842 840 836
f 812 793 792
f 796 756 795
f 795 756 755
f 776 793 812
f 698 737 738
f 738 699 698
f 699 659 698
f 698 659 697
f 108 96 818
f 818 817 108
f 108 817 109
f 108 109 80
f 80 90 108
f 108 90 89
f 89 88 108
f 108 88 85
f 85 96 108
f 82 81 784
f 784 783 82
f 784 745 783
f 707 705 82
f 82 744 707
f 707 744 706
f 706 667 707
f 667 705 707
f 711 710 747
f 751 749 747
f 747 713 711
f 747 749 713
f 835 823 821
f 787 786 821
f 832 835 821
f 820 786 819
f 820 821 786
f 748 710 745
f 64 78 94
f 94 95 64
f 66 65 97
f 65 95 97
f 97 96 66
f 112 96 97
f 740 53 33
f 33 777 740
f 33 53 55
f 55 52 33
f 33 52 777
f 473 446 445
f 446 434 445
f 472 473 445
f 445 471 472
f 448 471 445
f 445 434 448
f 431 434 435
f 435 138 431
f 145 157 431
f 431 157 158
f 431 138 145
f 158 159 431
f 431 159 430
f 430 434 431
f 655 656 619
f 619 654 655
f 697 734 735
f 735 698 697
f 735 734 769
f 658 621 657
f 658 659 621
f 697 659 658
f 657 656 658
f 656 695 658
f 696 734 697
f 696 695 734
f 697 658 696
f 696 658 695
f 672 673 635
f 669 670 635
f 638 669 635
f 599 638 635
f 635 636 599
f 673 636 635
f 709 744 745
f 745 710 709
f 709 710 672
f 746 786 787
f 746 747 710
f 746 748 786
f 710 748 746
f 942 955 943
f 943 932 942
f 942 932 1125
f 1125 1132 942
f 718 680 717
f 717 750 718
f 678 679 641
f 715 678 714
f 679 678 715
f 714 749 715
f 715 749 751
f 751 752 715
f 752 750 715
f 681 682 645
f 645 683 681
f 718 682 681
f 681 683 718
f 639 604 637
f 637 604 600
f 637 600 599
f 599 636 637
f 637 636 639
f 373 358 357
f 357 356 373
f 357 358 335
f 335 356 357
f 769 809 771
f 809 772 771
f 771 735 769
f 772 735 771
f 775 737 774
f 737 772 774
f 798 775 774
f 740 701 739
f 739 778 740
f 739 701 700
f 813 778 810
f 810 776 812
f 838 840 827
f 825 824 838
f 812 792 825
f 839 823 835
f 835 842 839
f 842 836 839
f 837 840 838
f 837 836 840
f 789 823 822
f 836 837 822
f 838 824 822
f 822 837 838
f 754 792 793
f 793 776 794
f 795 754 794
f 794 754 793
f 811 737 775
f 811 776 737
f 811 794 776
f 811 797 796
f 796 795 811
f 795 794 811
f 811 798 797
f 811 775 798
f 785 818 819
f 785 817 818
f 81 817 785
f 785 784 81
f 819 786 785
f 786 748 785
f 745 784 785
f 785 748 745
f 787 821 788
f 788 752 751
f 751 747 788
f 788 746 787
f 747 746 788
f 833 819 832
f 833 820 819
f 832 821 833
f 821 820 833
f 779 53 740
f 740 778 779
f 693 655 654
f 693 654 692
f 693 694 656
f 656 655 693
f 692 731 693
f 693 731 694
f 737 698 736
f 698 735 736
f 736 772 737
f 736 735 772
f 706 744 708
f 744 709 708
f 708 709 670
f 708 669 706
f 708 670 669
f 671 709 672
f 670 709 671
f 672 635 671
f 671 635 670
f 1134 1132 1131
f 1134 942 1132
f 1131 955 1134
f 955 942 1134
f 680 679 716
f 716 717 680
f 679 715 716
f 750 717 716
f 716 715 750
f 773 700 738
f 773 739 700
f 738 737 773
f 778 739 773
f 773 810 778
f 737 776 773
f 776 810 773
f 838 827 826
f 826 825 838
f 813 810 826
f 826 827 813
f 826 810 812
f 812 825 826
f 792 754 791
f 791 825 792
f 824 825 791
f 789 822 791
f 791 822 824
f 790 821 823
f 790 788 821
f 752 788 790
f 789 752 790
f 790 823 789
f 95 94 841
f 94 828 841
f 834 97 95
f 95 841 834
f 834 841 828
f 832 819 834
f 834 842 832
f 829 94 78
f 829 828 94
f 789 791 753
f 753 791 754
f 753 750 789
f 718 750 753
f 753 754 719
f 753 719 718
f 112 97 113
f 97 834 113
f 113 819 112
f 113 834 819
f 830 829 78
f 814 830 78
f 828 829 814
f 829 830 814
f 813 827 814
f 814 778 813
f 814 779 778
f 53 779 77
f 779 814 77
f 77 814 78
f 846 848 891
f 846 891 892
f 849 1008 1007
f 1007 852 849
f 850 854 855
f 850 855 853
f 850 849 852
f 850 852 854
f 1007 1008 1006
f 1006 1005 1007
f 29 50 73
f 51 29 73
f 720 721 685
f 685 684 720
f 1005 1006 995
f 995 994 1005
f 686 722 758
f 758 723 686
f 719 755 722
f 719 722 721
f 869 871 868
f 865 869 868
f 678 640 677
f 678 677 714
f 641 605 678
f 678 605 640
f 774 772 809
f 774 809 798
f 822 839 836
f 823 839 822
f 755 719 754
f 754 795 755
f 834 828 840
f 834 840 842
f 840 828 814
f 814 827 840
f 55 53 77
f 77 78 55

