# https://github.com/mikedh/trimesh
v -0.00093084 0.02143934 0.05683886
v 0.00202764 -0.02086967 0.04085165
v -0.02062733 -0.00430350 0.05755041
v 0.02068943 -0.00233657 0.05918342
v 0.01709003 0.01470312 0.04308355
v -0.01716904 0.01265817 0.04193740
v -0.00715541 -0.01917291 0.05881578
v 0.01855049 -0.01003606 0.04115986
v -0.01598885 -0.01352267 0.04065886
v 0.01113821 -0.01802498 0.05797823
v -0.01639910 0.01258798 0.05916537
v 0.01418255 0.01479683 0.05984718
v 0.00365170 0.02179449 0.04265150
v -0.02172633 -0.00049192 0.04219944
v 0.02147974 0.00219952 0.04205442
v -0.01602713 -0.01408591 0.05285427
v -0.00881263 0.02053356 0.04298675
v -0.00863438 -0.01970565 0.04706540
v 0.02046117 0.00720814 0.05386730
v -0.02082038 0.00519149 0.05309104
v 0.01170790 -0.01819983 0.04371707
v 0.01909686 -0.00985458 0.05279683
v 0.00963665 0.01967865 0.05280284
v 0.00373891 -0.02096227 0.05247080
v -0.01236551 0.00399591 0.05962986
v -0.00945732 0.01873850 0.05911438
v -0.00717932 0.02074474 0.05185529
v 0.01628813 0.01473019 0.05246880
v 0.01128064 0.01967661 0.04370603
v 0.01622539 -0.00939477 0.05978426
v 0.01469858 -0.01585884 0.05159184
v 0.00756855 0.01846992 0.05995071
v 0.01714079 0.00499092 0.06006282
v 0.00013643 -0.02000327 0.05910883
v -0.01668661 -0.01043765 0.05912114
v -0.00149707 -0.02138780 0.04771568
v -0.02016517 -0.00737333 0.04221146
v -0.00385969 -0.01303545 0.05960262
v -0.00653067 -0.01943009 0.04043999
v -0.02078568 0.00704151 0.04386758
v -0.01444632 0.01618163 0.05376119
v 0.02073816 0.00869005 0.04279703
v -0.01923763 0.00674239 0.05917018
v -0.01330284 -0.01577501 0.05861615
v -0.00251537 0.02229788 0.04359299
v -0.02013356 -0.00734446 0.05213727
v -0.00445217 -0.02079083 0.05355572
v 0.02187967 -0.00357088 0.04405982
v -0.01555285 -0.01485086 0.04697276
v -0.01027677 -0.01863626 0.05392181
v 0.01862802 0.01038181 0.05847776
v -0.01178142 -0.01766180 0.04190995
v 0.00569198 -0.01896255 0.05929196
v -0.02097689 0.00123492 0.05819301
v -0.01357902 0.01782509 0.04320782
v 0.01538456 -0.01503961 0.04129749
v 0.00678084 -0.02033079 0.04425935
v 0.01608740 -0.01385793 0.05678090
v -0.02154203 -0.00009912 0.05269961
v 0.00884049 -0.01973949 0.05227675
v 0.02116013 0.00312165 0.05756186
v -0.01059578 0.01381186 0.05967924
v -0.00451166 0.01932970 0.05978363
v 0.00362045 0.02107935 0.05836473
v 0.01422236 0.01009614 0.06009098
v -0.00831653 -0.01441585 0.05943691
v 0.01151144 0.01817761 0.05677671
v -0.01826738 -0.01108852 0.04415822
v -0.00354995 -0.02107993 0.04340513
v 0.02007173 -0.00686004 0.05585620
v 0.02143408 -0.00164468 0.05495500
v -0.00026857 -0.02138791 0.05392236
v -0.01399810 0.01588001 0.05862700
v -0.01965847 0.00908871 0.05362267
v 0.02060289 -0.00657172 0.04142127
v -0.00427700 0.02129809 0.05460851
v -0.00308313 -0.01762899 0.05949307
v 0.01324786 -0.01398509 0.05960750
v 0.01750597 -0.01286184 0.04389565
v -0.02158960 0.00354691 0.04211282
v 0.00765890 0.02093863 0.04272545
v -0.01787169 -0.00091945 0.05934354
v 0.02019733 0.00680922 0.05827390
v 0.01428889 0.01737332 0.04297336
v -0.01837584 -0.01076289 0.05243800
v -0.01605442 -0.01377943 0.05684998
v -0.01925680 -0.00776771 0.05845876
v 0.01690369 0.01326397 0.05686208
v -0.00178065 -0.02010692 0.04034742
v 0.00990950 -0.01805050 0.04053787
v 0.01085461 0.01669716 0.06001659
v -0.01870432 0.01019208 0.05780078
v -0.02079551 -0.00411284 0.04085837
v 0.00349717 -0.02097804 0.05746508
v 0.00588843 -0.02062947 0.04761204
v 0.00082800 0.01967405 0.05989322
v 0.01820925 -0.00656959 0.05984167
v 0.00798252 -0.01974386 0.05683349
v 0.00672932 0.02048902 0.05700826
v 0.01861459 0.01168445 0.04251079
v 0.00524995 -0.01990399 0.04056485
v 0.01822363 -0.01096931 0.05585620
v -0.00279703 -0.02099716 0.05778038
v 0.01507426 -0.01550272 0.04827602
v -0.01604926 0.01559915 0.04326353
v 0.02225368 -0.00036773 0.04486297
v -0.00699935 -0.02005211 0.05545322
v -0.02085499 0.00413697 0.05616560
v -0.01506793 -0.01523547 0.04379164
v -0.01016132 -0.01805160 0.05852106
v 0.02158684 0.00601136 0.04424714
v -0.01989299 0.00926951 0.04181063
v 0.01914265 0.00030767 0.05995003
v -0.01404225 -0.01278910 0.05917834
v 0.01619284 0.01241702 0.05987117
v -0.01004722 -0.01891548 0.04448039
v 0.02178037 -0.00135083 0.04199533
v -0.00622044 0.02051624 0.05757876
v 0.00428089 0.01865203 0.05997591
v 0.00069841 0.02217868 0.04271132
v 0.00863888 -0.01734576 0.05944471
v -0.01777112 -0.01114750 0.04074211
v 0.01580131 -0.01248660 0.05950284
v 0.01406236 -0.01589148 0.05755957
v -0.01402508 -0.01561239 0.04069109
v 0.02128473 0.00030767 0.05766638
v 0.01417886 -0.01629627 0.04350102
v -0.00625447 -0.02042039 0.04305413
f 6 55 17
f 6 93 112
f 14 3 59
f 74 108 92
f 90 93 13
f 13 93 6
f 66 82 35
f 14 93 37
f 106 71 48
f 106 111 61
f 15 75 100
f 99 13 64
f 10 94 98
f 53 94 10
f 80 93 14
f 80 112 93
f 14 59 80
f 59 108 80
f 105 112 74
f 74 92 105
f 105 55 6
f 6 112 105
f 43 92 108
f 11 92 43
f 43 62 11
f 82 62 43
f 8 75 79
f 79 56 8
f 8 56 90
f 90 13 8
f 8 13 75
f 64 13 120
f 120 17 45
f 6 17 120
f 120 13 6
f 28 5 84
f 84 5 100
f 84 67 28
f 29 67 84
f 73 92 11
f 27 17 55
f 45 17 27
f 1 118 64
f 1 120 45
f 64 120 1
f 2 24 36
f 90 57 101
f 101 57 2
f 21 57 90
f 90 56 21
f 21 56 127
f 52 125 39
f 39 128 52
f 64 96 32
f 32 99 64
f 67 99 32
f 51 12 115
f 115 33 113
f 65 33 115
f 28 67 88
f 67 12 88
f 88 12 51
f 88 5 28
f 51 5 88
f 25 82 66
f 25 62 82
f 11 62 63
f 63 96 64
f 64 118 63
f 103 7 107
f 18 107 50
f 87 35 82
f 82 43 87
f 30 33 38
f 38 33 65
f 65 25 38
f 38 25 66
f 123 102 4
f 83 61 111
f 83 4 61
f 113 4 83
f 51 115 83
f 83 115 113
f 42 15 100
f 111 15 42
f 100 5 42
f 42 5 51
f 117 48 75
f 75 15 117
f 106 48 117
f 117 111 106
f 117 15 111
f 23 67 29
f 29 99 23
f 23 99 67
f 81 99 29
f 13 99 81
f 29 84 81
f 81 84 100
f 100 75 81
f 75 13 81
f 95 94 24
f 95 24 2
f 2 57 95
f 121 10 123
f 53 10 121
f 31 21 127
f 10 21 31
f 77 38 66
f 53 121 77
f 30 38 77
f 44 87 86
f 35 87 44
f 86 50 44
f 74 112 40
f 112 80 40
f 55 105 41
f 41 105 92
f 92 73 41
f 45 27 76
f 76 27 118
f 76 1 45
f 118 1 76
f 2 36 69
f 128 39 69
f 24 94 72
f 72 36 24
f 72 94 103
f 103 36 72
f 57 21 60
f 60 95 57
f 60 10 98
f 60 21 10
f 98 94 60
f 94 95 60
f 89 101 2
f 2 69 89
f 89 69 39
f 90 101 89
f 89 93 90
f 119 32 96
f 119 25 65
f 62 25 119
f 96 63 119
f 119 63 62
f 91 12 67
f 67 32 91
f 65 115 91
f 91 115 12
f 91 119 65
f 32 119 91
f 113 33 97
f 97 33 30
f 97 4 113
f 97 30 123
f 123 4 97
f 26 63 118
f 118 27 26
f 26 73 11
f 11 63 26
f 26 41 73
f 26 27 55
f 55 41 26
f 116 18 50
f 52 128 116
f 128 18 116
f 3 87 54
f 54 87 43
f 54 43 108
f 54 59 3
f 54 108 59
f 49 116 50
f 122 68 37
f 122 37 93
f 86 87 85
f 70 48 71
f 71 4 70
f 70 4 102
f 126 4 71
f 61 4 126
f 126 71 106
f 106 61 126
f 19 83 111
f 111 42 19
f 51 83 19
f 19 42 51
f 104 56 79
f 79 31 104
f 127 56 104
f 104 31 127
f 79 102 58
f 58 31 79
f 58 102 123
f 53 77 34
f 34 77 7
f 34 7 103
f 103 94 34
f 34 94 53
f 30 77 78
f 78 77 121
f 123 30 78
f 78 121 123
f 35 44 114
f 114 44 7
f 66 35 114
f 114 77 66
f 7 77 114
f 110 44 50
f 7 44 110
f 50 107 110
f 110 107 7
f 20 80 108
f 20 40 80
f 20 108 74
f 74 40 20
f 128 69 47
f 47 18 128
f 107 18 47
f 103 107 47
f 47 36 103
f 47 69 36
f 16 50 86
f 16 49 50
f 86 85 16
f 68 49 16
f 16 85 68
f 109 49 68
f 109 125 52
f 52 116 109
f 116 49 109
f 37 68 46
f 68 85 46
f 46 85 87
f 46 87 3
f 46 3 14
f 14 37 46
f 48 70 22
f 22 70 102
f 75 48 22
f 79 75 22
f 22 102 79
f 10 31 124
f 31 58 124
f 123 10 124
f 124 58 123
f 68 122 9
f 9 109 68
f 125 109 9
f 9 39 125
f 9 122 93
f 93 89 9
f 9 89 39

