# https://github.com/mikedh/trimesh
v 0.00351655 -0.00098160 0.06671356
v 0.01479048 -0.00655396 -0.04068318
v -0.03616461 0.01520209 0.00691635
v 0.00261917 -0.03537246 0.01298972
v 0.03240928 0.00840121 0.00743887
v -0.02705886 -0.02154060 -0.02468433
v -0.01862295 0.01670883 -0.03535273
v -0.00606900 0.01145007 0.03201734
v -0.03132875 -0.02101921 0.01313901
v 0.02729027 -0.02119097 -0.01099160
v 0.00011069 -0.03467791 -0.01951060
v 0.02557648 -0.01705247 0.01995883
v 0.03111876 0.00566926 -0.01915651
v -0.03540458 0.00418756 -0.01733640
v -0.01823689 -0.03525437 -0.00255674
v 0.01745461 0.00937276 0.02863119
v -0.00525732 -0.02166898 -0.03859108
v 0.00619868 0.01487122 -0.03935662
v -0.01398223 -0.02588235 0.02706365
v -0.02052427 -0.00527578 -0.03747427
v -0.04006907 -0.00544211 0.00083620
v -0.02708898 0.01318384 0.02491931
v 0.01435280 -0.02430576 -0.02854926
v 0.01995078 -0.02995645 0.00609526
v -0.03372805 -0.00369224 0.02012169
v 0.00262662 0.00855687 0.04771310
v -0.03322137 -0.02207665 -0.00784974
v 0.03383992 -0.01397141 0.00377449
v 0.02746190 -0.01015639 -0.02455078
v 0.02247759 0.00902873 -0.03325964
v 0.00986179 -0.03522754 -0.00609219
v -0.01508237 -0.03116897 -0.02272036
v 0.03435406 -0.00608087 -0.00987193
v 0.03123198 -0.00296760 0.01911059
v -0.01439950 -0.03472834 0.01210077
v -0.02981075 0.01661322 -0.02386188
v 0.01377369 -0.02615611 0.02202852
v -0.03261805 -0.00731914 -0.02630621
v -0.00288723 0.01517102 -0.02906331
v -0.00171001 -0.03858235 0.00040869
v -0.02842415 0.00463138 -0.03130999
v -0.02550187 -0.01788446 0.02493967
v -0.01876483 -0.01858077 -0.03591678
v -0.03527791 0.01552416 -0.01000765
v -0.01264845 0.00951769 0.04348549
v -0.03807959 -0.00934981 -0.01129018
v 0.03371326 0.00727399 -0.00676399
v -0.00852046 -0.03753565 -0.01073373
v 0.00593813 -0.01552438 -0.03987155
v 0.01261875 -0.03096021 -0.01802178
v -0.02351983 -0.02934453 -0.01230806
v -0.03757290 0.00308718 0.01058752
v -0.02480145 -0.02975247 0.00785280
v -0.03890667 0.00513764 -0.00507431
v 0.02775225 0.00846562 0.02035919
v 0.00300147 -0.02772985 -0.03248171
v -0.00599448 -0.03270471 0.02072563
v 0.03600079 -0.00142170 0.00315019
v -0.03624658 -0.01853396 0.00229516
v 0.01404593 0.00662317 -0.03995761
v -0.00741500 0.01602878 -0.03908387
v 0.02463818 -0.00171742 -0.03233685
v 0.02302160 -0.02068549 -0.02107207
v 0.01689767 -0.01562781 -0.03469717
v 0.02802794 -0.02317703 0.00331983
v -0.03389287 -0.01586343 -0.01900774
v -0.00574811 -0.03140434 -0.02719966
v -0.02176879 -0.02756781 0.01731233
v -0.03359393 0.01234647 0.01632838
v 0.01221638 -0.03237191 0.01242649
v -0.02655264 -0.01278591 -0.03366103
v 0.00473532 -0.03020873 0.02172315
v 0.02147829 -0.02821731 -0.00729329
v 0.02241715 -0.02477124 0.01408225
v -0.02087547 0.00738859 -0.03717176
v 0.00723894 -0.03639233 0.00447343
v -0.03696935 -0.00894723 0.01264364
v -0.01087505 -0.03786845 0.00343519
v -0.01154807 -0.02641898 -0.03299497
v 0.00637460 0.00945865 0.03893216
v 0.03401130 -0.00828163 0.01170040
v -0.01056958 -0.01433359 -0.03913237
v -0.01954269 -0.02481425 -0.02931455
v 0.03137356 -0.00440078 -0.01900573
v 0.00184424 -0.03725653 -0.00934263
v 0.03135120 -0.01850712 -0.00337783
v -0.03000988 -0.02297842 -0.01587743
v -0.03169386 -0.01337559 0.02086813
v 0.02954800 -0.01380501 -0.01697675
v -0.01641879 -0.03400907 -0.01395703
v 0.00909010 -0.02234403 -0.03567496
v 0.01448902 -0.03371921 0.00078870
v -0.02572860 0.01292152 -0.03293073
v -0.03299783 0.00463308 0.01964667
v -0.03138836 -0.02531874 0.00243088
v -0.03715563 0.01506790 -0.00197316
v -0.03575417 -0.00509035 -0.01900774
v -0.02190291 0.01238405 0.03128447
v -0.02781202 -0.00410968 -0.03380592
v -0.03814665 -0.01415391 -0.00426679
v -0.02480890 -0.03087969 -0.00071777
v 0.01966949 0.00119093 -0.03801023
v 0.02995037 -0.01653180 0.01322723
v -0.00562937 -0.03603269 0.01341723
v -0.03878745 0.00724715 0.00391699
v 0.02693968 0.00413871 -0.02749182
v -0.02234852 -0.02774555 -0.01998369
v -0.00919107 -0.03491621 -0.01900573
v 0.03364619 0.00309254 0.01316615
v 0.00993722 -0.00008028 -0.04073005
v 0.01911624 -0.02661236 -0.01718033
v 0.01650486 0.01331198 -0.03575492
v 0.01331172 0.00910974 0.03551886
v -0.00604664 0.00887357 0.04735345
v 0.02203683 -0.01693325 -0.02767373
v 0.03209633 -0.01434715 -0.00974978
v -0.01884045 -0.03425598 0.00607490
v -0.01431753 -0.03029998 0.02112600
v -0.03098826 -0.01540697 -0.02598828
v -0.02789372 -0.01106211 0.02677864
v -0.03856391 -0.01144858 0.00480594
v -0.00422018 -0.02751376 -0.03365298
v 0.00984192 -0.02914942 -0.02546039
v 0.03445093 0.00723642 0.00057834
v 0.02047320 -0.00934674 -0.03492085
v -0.00978717 -0.03824419 -0.00350677
v 0.03577725 -0.00620433 -0.00195959
v -0.01992088 -0.02109436 0.02755902
f 1 57 72
f 1 81 34
f 1 74 12
f 103 12 74
f 103 81 1
f 1 12 103
f 1 25 120
f 25 88 120
f 54 46 21
f 118 57 1
f 1 19 118
f 42 120 88
f 1 120 42
f 85 76 40
f 37 74 1
f 1 72 37
f 58 124 109
f 109 81 58
f 109 34 81
f 1 34 109
f 47 124 58
f 43 20 82
f 30 47 13
f 112 47 30
f 62 125 102
f 102 30 62
f 102 125 2
f 125 64 2
f 2 82 110
f 49 82 2
f 9 53 68
f 68 42 9
f 9 42 88
f 77 88 25
f 21 121 77
f 77 9 88
f 94 25 1
f 36 3 7
f 68 53 35
f 35 118 68
f 57 118 35
f 35 104 57
f 128 42 68
f 68 118 128
f 128 118 19
f 128 19 1
f 1 42 128
f 40 76 4
f 4 104 40
f 4 72 57
f 57 104 4
f 76 85 31
f 85 50 31
f 31 50 73
f 84 62 13
f 61 18 110
f 110 82 61
f 61 75 7
f 20 75 61
f 61 82 20
f 60 18 112
f 112 30 60
f 60 30 102
f 102 2 60
f 110 18 60
f 60 2 110
f 5 47 112
f 124 47 5
f 5 109 124
f 1 114 45
f 67 56 11
f 11 50 85
f 17 82 49
f 43 82 17
f 17 79 43
f 106 30 13
f 13 62 106
f 106 62 30
f 91 17 49
f 56 17 91
f 49 2 91
f 91 2 64
f 91 64 23
f 99 75 20
f 59 77 121
f 9 77 59
f 87 27 66
f 52 69 3
f 21 77 52
f 52 77 25
f 25 94 52
f 52 94 69
f 117 53 101
f 117 35 53
f 70 37 72
f 72 4 70
f 74 37 70
f 70 24 74
f 70 4 76
f 73 24 92
f 92 31 73
f 76 31 92
f 92 70 76
f 24 70 92
f 125 62 29
f 62 84 29
f 58 81 127
f 127 47 58
f 112 18 16
f 43 79 83
f 101 27 51
f 51 27 87
f 15 117 101
f 101 51 15
f 15 51 90
f 67 11 108
f 123 11 56
f 50 11 123
f 23 50 123
f 123 91 23
f 56 91 123
f 79 17 122
f 122 17 56
f 67 79 122
f 122 56 67
f 71 20 43
f 71 99 20
f 43 83 71
f 75 99 93
f 7 75 93
f 93 36 7
f 38 66 46
f 119 66 38
f 38 71 119
f 99 71 38
f 100 59 121
f 21 46 100
f 100 121 21
f 27 59 100
f 46 66 100
f 100 66 27
f 53 9 95
f 9 59 95
f 101 53 95
f 95 27 101
f 95 59 27
f 21 52 105
f 105 52 3
f 3 96 105
f 105 54 21
f 105 96 54
f 36 14 44
f 3 36 44
f 44 96 3
f 54 96 44
f 44 14 54
f 35 117 78
f 104 35 78
f 78 15 126
f 117 15 78
f 40 104 78
f 78 126 40
f 89 29 84
f 116 10 89
f 115 64 125
f 125 29 115
f 23 64 115
f 29 89 115
f 33 127 116
f 33 89 84
f 116 89 33
f 33 84 13
f 13 47 33
f 47 127 33
f 65 24 73
f 65 103 74
f 74 24 65
f 111 10 73
f 111 50 23
f 73 50 111
f 55 5 112
f 112 16 55
f 1 109 55
f 109 5 55
f 7 3 8
f 107 51 87
f 90 51 107
f 32 108 90
f 90 107 32
f 32 107 83
f 32 83 79
f 32 79 67
f 67 108 32
f 90 108 48
f 126 15 48
f 48 15 90
f 48 85 40
f 40 126 48
f 48 11 85
f 48 108 11
f 119 71 6
f 6 71 83
f 87 66 6
f 6 66 119
f 6 107 87
f 83 107 6
f 97 38 46
f 14 38 97
f 46 54 97
f 54 14 97
f 41 38 14
f 41 14 36
f 36 93 41
f 41 93 99
f 99 38 41
f 73 10 86
f 86 65 73
f 86 10 116
f 10 111 63
f 63 89 10
f 63 115 89
f 23 115 63
f 63 111 23
f 39 16 18
f 39 8 16
f 18 61 39
f 39 61 7
f 7 8 39
f 26 114 1
f 98 8 3
f 98 45 114
f 114 26 98
f 98 26 8
f 116 127 28
f 28 86 116
f 28 127 81
f 81 103 28
f 103 65 28
f 65 86 28
f 8 26 80
f 3 69 22
f 22 98 3
f 69 94 22
f 22 94 1
f 1 45 22
f 45 98 22
f 16 8 113
f 8 80 113
f 113 80 26
f 113 55 16
f 1 55 113
f 113 26 1

