# https://github.com/mikedh/trimesh
v -0.00058549 -0.01459293 -0.04867667
v 0.00071803 -0.01459293 -0.04867667
v -0.00043576 -0.01457295 -0.04038745
v -0.00056259 -0.01458722 -0.04659415
v -0.00162126 -0.01442453 -0.04867667
v -0.00147153 -0.01441882 -0.05282128
v -0.00142045 -0.01440455 -0.05488338
v -0.00038468 -0.01455297 -0.05488338
v 0.00173443 -0.01446734 -0.05282128
v 0.00178375 -0.01446449 -0.04659415
v 0.00074798 -0.01458722 -0.04659415
v 0.00053131 -0.01457295 -0.04038745
v 0.00066871 -0.01455297 -0.05488338
v 0.00170448 -0.01446734 -0.05488338
v -0.00035121 -0.01455582 -0.03830494
v -0.00138698 -0.01437886 -0.03830494
v -0.00147153 -0.01439028 -0.04038745
v -0.00159836 -0.01441882 -0.04659415
v -0.00310622 -0.01389364 -0.05073877
v -0.00310622 -0.01389935 -0.05282128
v -0.00310622 -0.01388508 -0.05488338
v -0.00130595 -0.01437886 -0.05694547
v -0.00083739 -0.01437030 -0.06094716
v -0.00027018 -0.01453870 -0.05694547
v -0.00310622 -0.01376521 -0.06109008
v -0.00310622 -0.01372239 -0.06317260
v -0.00103468 -0.01428752 -0.06317260
v 0.00310665 -0.01398498 -0.05488338
v 0.00310665 -0.01397356 -0.04659415
v 0.00310665 -0.01397071 -0.04453206
v 0.00310665 -0.01394502 -0.04244955
v 0.00310665 -0.01385654 -0.03624284
v 0.00310665 -0.01382514 -0.03416032
v 0.00156708 -0.01442738 -0.04038745
v 0.00128172 -0.01440169 -0.03624284
v 0.00041329 -0.01455582 -0.03830494
v 0.00043091 -0.01453870 -0.05694547
v 0.00310665 -0.01386796 -0.06109008
v 0.00310665 -0.01390791 -0.05902798
v 0.00310665 -0.01394787 -0.05694547
v 0.00017020 -0.01451586 -0.05902798
v 0.00084310 -0.01440169 -0.06094716
v 0.00120597 -0.01441311 -0.05902798
v 0.00146668 -0.01443880 -0.05694547
v 0.00103511 -0.01417336 -0.06731721
v 0.00310665 -0.01367387 -0.06731721
v -0.00019443 -0.01453013 -0.03624284
v -0.00123020 -0.01435888 -0.03624284
v -0.00103468 -0.01414767 -0.02795362
v -0.00310622 -0.01345695 -0.02795362
v -0.00310622 -0.01351974 -0.03001571
v -0.00310622 -0.01363962 -0.03416032
v -0.00310622 -0.01369956 -0.03624284
v -0.00310622 -0.01375093 -0.03830494
v -0.00310622 -0.01381944 -0.04244955
v -0.00310622 -0.01384512 -0.04453206
v -0.00310622 -0.01386225 -0.04659415
v -0.00310622 -0.01387937 -0.04867667
v -0.00483251 -0.01294605 -0.05282128
v -0.00482546 -0.01294319 -0.05488338
v -0.00477614 -0.01287755 -0.06109008
v -0.00474619 -0.01285757 -0.06317260
v -0.00001652 -0.01450159 -0.06015091
v -0.00010988 -0.01451586 -0.05902798
v -0.00468982 -0.01281475 -0.06523469
v -0.00462289 -0.01276909 -0.06731721
v -0.00310622 -0.01363962 -0.06523469
v -0.00103468 -0.01421332 -0.06523469
v 0.00489459 -0.01298030 -0.05488338
v 0.00483822 -0.01294319 -0.06109008
v 0.00486112 -0.01296032 -0.05902798
v 0.00488578 -0.01297459 -0.05694547
v 0.00486817 -0.01298030 -0.04453206
v 0.00485231 -0.01296603 -0.04244955
v 0.00478009 -0.01291750 -0.03624284
v 0.00144906 -0.01441026 -0.03830494
v 0.00474662 -0.01290038 -0.03416032
v 0.00460394 -0.01281475 -0.02795362
v 0.00310665 -0.01365674 -0.02795362
v 0.00103511 -0.01421617 -0.02795362
v 0.00103511 -0.01433319 -0.03209823
v 0.00088890 -0.01440455 -0.03411949
v 0.00024595 -0.01453013 -0.03624284
v 0.00481356 -0.01291465 -0.06317260
v 0.00472725 -0.01284900 -0.06731721
v 0.00477657 -0.01288040 -0.06523469
v 0.00002400 -0.01450159 -0.06015091
v -0.00103468 -0.01412483 -0.06731721
v 0.00103511 -0.01407060 -0.06937930
v 0.00310665 -0.01358254 -0.06937930
v 0.00466912 -0.01280904 -0.06937930
v -0.00007113 -0.01451015 -0.03477283
v -0.00103468 -0.01427611 -0.03209823
v -0.00103468 -0.01358254 -0.01551978
v -0.00310622 -0.01335705 -0.02589152
v -0.00440093 -0.01262923 -0.02589152
v -0.00447316 -0.01268346 -0.02795362
v -0.00465107 -0.01280334 -0.03624284
v -0.00469158 -0.01283473 -0.03830494
v -0.00451543 -0.01271486 -0.03001571
v -0.00473034 -0.01285757 -0.04038745
v -0.00476381 -0.01288040 -0.04244955
v -0.00478318 -0.01289752 -0.04453206
v -0.00482370 -0.01293463 -0.05073877
v -0.00585947 -0.01208693 -0.05073877
v -0.00586828 -0.01209549 -0.05282128
v -0.00586123 -0.01208693 -0.05488338
v -0.00581191 -0.01205268 -0.06109008
v -0.00578196 -0.01202699 -0.06317260
v -0.00572559 -0.01198703 -0.06523469
v -0.00310622 -0.01354543 -0.06731721
v -0.00565866 -0.01193280 -0.06731721
v -0.00550893 -0.01181863 -0.07146182
v -0.00454714 -0.01271200 -0.06937930
v 0.00593036 -0.01215828 -0.05488338
v 0.00584933 -0.01208408 -0.06317260
v 0.00592155 -0.01214687 -0.05694547
v 0.00592684 -0.01215543 -0.05282128
v 0.00591803 -0.01214972 -0.04867667
v 0.00591275 -0.01214116 -0.04659415
v 0.00590394 -0.01212689 -0.04453206
v 0.00588809 -0.01210691 -0.04244955
v 0.00584052 -0.01206124 -0.03830494
v 0.00586519 -0.01208408 -0.04038745
v 0.00581586 -0.01202699 -0.03624284
v 0.00563971 -0.01179295 -0.02795362
v 0.00453348 -0.01276052 -0.02589152
v 0.00310665 -0.01357683 -0.02589152
v 0.00578239 -0.01198418 -0.03416032
v 0.00103511 -0.01413625 -0.02589152
v 0.00010150 -0.01451015 -0.03477283
v 0.00581234 -0.01205839 -0.06523469
v 0.00576302 -0.01201557 -0.06731721
v -0.00103468 -0.01401923 -0.06937930
v -0.00103468 -0.01390506 -0.07146182
v 0.00103511 -0.01395358 -0.07146182
v 0.00310665 -0.01346551 -0.07146182
v 0.00450353 -0.01268061 -0.07352392
v 0.00459513 -0.01275196 -0.07146182
v 0.00570489 -0.01195849 -0.06937930
v 0.00103511 -0.01363106 -0.01551978
v 0.00103511 -0.00908716 0.06731118
v -0.00033359 -0.00864190 0.06937327
v -0.00285256 -0.01289182 -0.01551978
v -0.00299524 -0.01295746 -0.01760230
v -0.00431814 -0.01256644 -0.02380900
v -0.00423711 -0.01250364 -0.02174691
v -0.00550893 -0.01167592 -0.02795362
v -0.00555120 -0.01174442 -0.03001571
v -0.00568684 -0.01190997 -0.03624284
v -0.00572736 -0.01195564 -0.03830494
v -0.00576435 -0.01199559 -0.04038745
v -0.00579958 -0.01203270 -0.04244955
v -0.00581895 -0.01205268 -0.04453206
v -0.00674375 -0.01102802 -0.04659415
v -0.00675432 -0.01103943 -0.04867667
v -0.00676137 -0.01105085 -0.05073877
v -0.00676841 -0.01105941 -0.05282128
v -0.00676137 -0.01105085 -0.05488338
v -0.00674023 -0.01101660 -0.06109008
v -0.00672790 -0.01099377 -0.06317260
v -0.00670324 -0.01095095 -0.06523469
v -0.00666801 -0.01089672 -0.06731721
v -0.00662925 -0.01083964 -0.06937930
v -0.00658169 -0.01078256 -0.07146182
v -0.00653061 -0.01072262 -0.07352392
v -0.00447316 -0.01265206 -0.07146182
v -0.00438860 -0.01259212 -0.07352392
v -0.00310622 -0.01343412 -0.06937930
v -0.00647248 -0.01065126 -0.07560643
v -0.00542438 -0.01175870 -0.07352392
v 0.00681464 -0.01112221 -0.05488338
v 0.00681112 -0.01112221 -0.05282128
v 0.00680936 -0.01111079 -0.05694547
v 0.00675123 -0.01102231 -0.06523469
v 0.00677061 -0.01104800 -0.06317260
v 0.00680055 -0.01111364 -0.04867667
v 0.00679350 -0.01110508 -0.04659415
v 0.00677589 -0.01109081 -0.04453206
v 0.00675651 -0.01107083 -0.04244955
v 0.00673714 -0.01104800 -0.04038745
v 0.00671248 -0.01102516 -0.03830494
v 0.00668429 -0.01099091 -0.03624284
v 0.00665258 -0.01094810 -0.03416032
v 0.00661031 -0.01089102 -0.03209823
v 0.00656098 -0.01082537 -0.03001571
v 0.00650814 -0.01075687 -0.02795362
v 0.00645001 -0.01067980 -0.02589152
v 0.00232982 -0.00856198 0.06937327
v 0.00238619 -0.00864475 0.06731118
v 0.00671952 -0.01097950 -0.06731721
v 0.00662616 -0.01085677 -0.07146182
v 0.00667548 -0.01092241 -0.06937930
v -0.00310622 -0.01331709 -0.07146182
v -0.00103468 -0.01378233 -0.07352392
v 0.00103511 -0.01382800 -0.07352392
v 0.00310665 -0.01332851 -0.07352392
v 0.00420936 -0.01247225 -0.07911812
v 0.00429391 -0.01252648 -0.07766853
v 0.00553931 -0.01182434 -0.07352392
v 0.00543361 -0.01174728 -0.07560643
v 0.00563090 -0.01189284 -0.07146182
v 0.00651166 -0.01071406 -0.07560643
v 0.00657155 -0.01079112 -0.07352392
v 0.00224879 -0.00846494 0.07145578
v 0.00215543 -0.00836504 0.07351788
v 0.00209026 -0.00830225 0.07478372
v 0.00103511 -0.00891876 0.06937327
v -0.00007817 -0.00835933 0.07504915
v -0.00207397 -0.00621868 0.08290961
v -0.00411557 -0.01240660 -0.01890897
v -0.00417546 -0.01245512 -0.02027690
v -0.00543671 -0.01159315 -0.02589152
v -0.00635798 -0.01055707 -0.02589152
v -0.00642315 -0.01063985 -0.02795362
v -0.00647952 -0.01070835 -0.03001571
v -0.00653061 -0.01076543 -0.03209823
v -0.00657112 -0.01081966 -0.03416032
v -0.00660811 -0.01087389 -0.03624284
v -0.00664687 -0.01091956 -0.03830494
v -0.00668210 -0.01095952 -0.04038745
v -0.00670676 -0.01099662 -0.04244955
v -0.00672614 -0.01101660 -0.04453206
v -0.00777424 -0.00932120 -0.04659415
v -0.00779714 -0.00934403 -0.05073877
v -0.00778657 -0.00936687 -0.05694547
v -0.00777600 -0.00932691 -0.06109008
v -0.00778128 -0.00934974 -0.05902798
v -0.00772668 -0.00932120 -0.06523469
v -0.00767912 -0.00932120 -0.06731721
v -0.00762803 -0.00932120 -0.06937930
v -0.00755405 -0.00932120 -0.07146182
v -0.00747126 -0.00932120 -0.07352392
v -0.00737261 -0.00932120 -0.07560643
v -0.00428467 -0.01252077 -0.07560643
v -0.00726340 -0.00932120 -0.07766853
v -0.00714714 -0.00932120 -0.07973062
v -0.00640378 -0.01057134 -0.07766853
v -0.00632979 -0.01048572 -0.07973062
v -0.00532045 -0.01168734 -0.07560643
v 0.00785041 -0.00939826 -0.05488338
v 0.00784513 -0.00939826 -0.05694547
v 0.00780462 -0.00935831 -0.06317260
v 0.00782047 -0.00937258 -0.06109008
v 0.00773768 -0.00932120 -0.06731721
v 0.00784161 -0.00937258 -0.05073877
v 0.00783632 -0.00936116 -0.04867667
v 0.00782928 -0.00934689 -0.04659415
v 0.00777995 -0.00932120 -0.04244955
v 0.00773768 -0.00932120 -0.04038745
v 0.00768307 -0.00932120 -0.03830494
v 0.00755976 -0.00932120 -0.03416032
v 0.00762318 -0.00932120 -0.03624284
v 0.00747873 -0.00932120 -0.03209823
v 0.00739066 -0.00932120 -0.03001571
v 0.00729730 -0.00932120 -0.02795362
v 0.00718809 -0.00932120 -0.02589152
v 0.00638659 -0.01059132 -0.02380900
v 0.00261519 -0.00679523 0.08180711
v 0.00257115 -0.00665537 0.08388962
v 0.00766193 -0.00932120 -0.06937930
v 0.00738537 -0.00932120 -0.07560643
v 0.00748050 -0.00932120 -0.07352392
v 0.00757209 -0.00932120 -0.07146182
v -0.00310622 -0.01319436 -0.07352392
v -0.00310622 -0.01304594 -0.07560643
v -0.00103468 -0.01362535 -0.07560643
v 0.00103511 -0.01334564 -0.07973062
v 0.00221356 -0.01248081 -0.08757067
v 0.00264689 -0.01265777 -0.08387524
v 0.00310665 -0.01300884 -0.07766853
v 0.00532968 -0.01166165 -0.07766853
v 0.00327047 -0.01278336 -0.07977146
v 0.00298511 -0.01210691 -0.08816276
v 0.00344310 -0.01212689 -0.08595774
v 0.00483822 -0.01088245 -0.09010235
v 0.00494039 -0.01099948 -0.08801985
v 0.00587399 -0.01001192 -0.09010235
v 0.00622982 -0.01037440 -0.08303814
v 0.00636193 -0.01052853 -0.07973062
v 0.00644296 -0.01062557 -0.07766853
v 0.00727440 -0.00932120 -0.07766853
v 0.00103511 -0.00835362 0.07508998
v 0.00264161 -0.00484866 0.09838555
v 0.00245665 -0.00466028 0.10044764
v 0.00103511 -0.00699502 0.08595172
v 0.00103511 -0.00497424 0.10044764
v -0.00069999 -0.00670960 0.08595172
v -0.00020852 -0.00445763 0.10044764
v -0.00009931 -0.00426925 0.10169306
v -0.00060839 -0.00310473 0.10044764
v -0.00076516 -0.00103543 0.10044764
v -0.00149091 0.00517818 0.09630303
v -0.00817586 -0.00310473 -0.02174691
v -0.00829389 -0.00420931 -0.02464609
v -0.00802613 -0.00517689 -0.02174691
v -0.00827275 -0.00611593 -0.02919904
v -0.00831150 -0.00631857 -0.03056697
v -0.00758752 -0.00724905 -0.02174691
v -0.00724050 -0.00932120 -0.03001571
v -0.00712248 -0.00932120 -0.02795362
v -0.00700093 -0.00932120 -0.02589152
v -0.00687586 -0.00932120 -0.02380900
v -0.00628576 -0.01046003 -0.02380900
v -0.00735147 -0.00932120 -0.03209823
v -0.00743250 -0.00932120 -0.03416032
v -0.00764036 -0.00932120 -0.04038745
v -0.00770026 -0.00932120 -0.04244955
v -0.00774429 -0.00932120 -0.04453206
v -0.00827979 -0.00826229 -0.04659415
v -0.00828508 -0.00828227 -0.04767624
v -0.00829036 -0.00829939 -0.04904417
v -0.00788874 -0.00912141 -0.04849292
v -0.00829565 -0.00830796 -0.05073877
v -0.00830622 -0.00833079 -0.05694547
v -0.00828860 -0.00829369 -0.06268259
v -0.00786760 -0.00911855 -0.06329510
v -0.00824809 -0.00815668 -0.06937930
v -0.00822166 -0.00807106 -0.07146182
v -0.00818996 -0.00797401 -0.07352392
v -0.00806665 -0.00767718 -0.07973062
v -0.00801380 -0.00757728 -0.08181313
v -0.00420012 -0.01246369 -0.07705602
v -0.00795039 -0.00746882 -0.08387524
v -0.00769497 -0.00724905 -0.09010235
v -0.00691462 -0.00924128 -0.08387524
v -0.00685649 -0.00951814 -0.08195605
v -0.00626462 -0.01041151 -0.08134355
v -0.00620120 -0.01034301 -0.08273190
v -0.00500513 -0.01175870 -0.07770935
v 0.00831546 -0.00836219 -0.05488338
v 0.00784689 -0.00938399 -0.05282128
v 0.00831722 -0.00836504 -0.05694547
v 0.00831193 -0.00835077 -0.05902798
v 0.00830136 -0.00832223 -0.06317260
v 0.00788388 -0.00912141 -0.06529594
v 0.00829255 -0.00829939 -0.06466302
v 0.00826613 -0.00821662 -0.06731721
v 0.00828023 -0.00827085 -0.06603095
v 0.00830136 -0.00832508 -0.04867667
v 0.00829608 -0.00831081 -0.04659415
v 0.00828903 -0.00829654 -0.04516498
v 0.00790502 -0.00911855 -0.04449122
v 0.00827318 -0.00823660 -0.04244955
v 0.00828199 -0.00827085 -0.04377664
v 0.00825204 -0.00815383 -0.04038745
v 0.00822033 -0.00803395 -0.03830494
v 0.00818863 -0.00791122 -0.03624284
v 0.00815516 -0.00777707 -0.03416032
v 0.00811817 -0.00762580 -0.03209823
v 0.00807765 -0.00748024 -0.03001571
v 0.00337969 -0.00310473 0.09838555
v 0.00823443 -0.00810816 -0.06937930
v 0.00808117 -0.00768574 -0.07766853
v 0.00767779 -0.00724905 -0.09010235
v -0.00409091 -0.01240375 -0.07844436
v -0.00328237 -0.01280048 -0.07770935
v -0.00291421 -0.01277765 -0.07973062
v -0.00103468 -0.01328570 -0.07973062
v -0.00267817 -0.01268061 -0.08181313
v -0.00206869 -0.01242658 -0.08697858
v 0.00103511 -0.01316867 -0.08181313
v 0.00192820 -0.01241516 -0.08893860
v 0.00288118 -0.01274911 -0.08181313
v 0.00310665 -0.01180151 -0.09010235
v 0.00456519 -0.01065983 -0.09175612
v 0.00658212 -0.00875892 -0.09216446
v 0.00671600 -0.00897584 -0.09010235
v 0.00714757 -0.00932120 -0.07973062
v 0.00316654 -0.00310473 0.10044764
v 0.00262576 -0.00317609 0.10248932
v 0.00219947 -0.00430921 0.10179515
v 0.00103511 -0.00436344 0.10185640
v 0.00103511 -0.00354714 0.10289766
v -0.00005527 -0.00219424 0.10363267
v -0.00026489 -0.00297344 0.10242807
v -0.00036001 -0.00091556 0.10271391
v -0.00102058 0.00517818 0.09838555
v -0.00081801 0.00701914 0.09630303
v -0.00049565 0.00890578 0.08803423
v -0.00730920 0.00310602 -0.02589152
v -0.00795568 0.00103387 -0.02589152
v -0.00823752 -0.00055593 -0.02589152
v -0.00820933 -0.00113533 -0.02374776
v -0.00830093 -0.00189170 -0.02440109
v -0.00826218 -0.00310473 -0.02331900
v -0.00844361 -0.00310473 -0.02795362
v -0.00852288 -0.00310473 -0.03001571
v -0.00857925 -0.00517689 -0.03416032
v -0.00850703 -0.00517689 -0.03209823
v -0.00839782 -0.00532816 -0.02993404
v -0.00834673 -0.00645558 -0.03209823
v -0.00807017 -0.00749165 -0.03209823
v -0.00811069 -0.00763722 -0.03416032
v -0.00824280 -0.00813100 -0.04244955
v -0.00826746 -0.00821662 -0.04453206
v -0.00854226 -0.00722907 -0.04659415
v -0.00850174 -0.00745455 -0.04849292
v -0.00856164 -0.00724905 -0.05073877
v -0.00858277 -0.00724905 -0.05694547
v -0.00849998 -0.00745455 -0.06329510
v -0.00828332 -0.00827941 -0.06407093
v -0.00852641 -0.00712061 -0.06937930
v -0.00851055 -0.00703498 -0.07146182
v -0.00849118 -0.00694079 -0.07352392
v -0.00847180 -0.00683518 -0.07560643
v -0.00845066 -0.00673529 -0.07766853
v -0.00842600 -0.00664110 -0.07973062
v -0.00839782 -0.00654120 -0.08181313
v -0.00833088 -0.00632999 -0.08595774
v -0.00830445 -0.00625864 -0.08744817
v -0.00827451 -0.00617016 -0.08881610
v -0.00824809 -0.00607597 -0.09010235
v -0.00497695 -0.01097950 -0.08595774
v -0.00818291 -0.00589901 -0.09216446
v -0.00748887 -0.00724905 -0.09216446
v -0.00669619 -0.00887024 -0.09010235
v -0.00684063 -0.00912141 -0.08595774
v -0.00601272 -0.01015748 -0.08595774
v -0.00613427 -0.01027736 -0.08387524
v 0.00860611 -0.00724905 -0.05488338
v 0.00861139 -0.00724905 -0.05694547
v 0.00860434 -0.00724905 -0.05902798
v 0.00858321 -0.00724905 -0.06317260
v 0.00850746 -0.00744884 -0.06529594
v 0.00853917 -0.00718054 -0.06731721
v 0.00841939 -0.00664966 -0.07766853
v 0.00844757 -0.00674956 -0.07560643
v 0.00859730 -0.00724905 -0.05282128
v 0.00857440 -0.00724905 -0.04867667
v 0.00855855 -0.00724905 -0.04659415
v 0.00852155 -0.00720338 -0.04244955
v 0.00850218 -0.00711775 -0.04038745
v 0.00848808 -0.00744884 -0.04449122
v 0.00847752 -0.00699788 -0.03830494
v 0.00844757 -0.00687514 -0.03624284
v 0.00841234 -0.00674100 -0.03416032
v 0.00834188 -0.00644416 -0.03001571
v 0.00831193 -0.00632143 -0.02838237
v 0.00808470 -0.00710634 -0.02779028
v 0.00795963 -0.00724905 -0.02589152
v 0.00361749 -0.00103543 0.10044764
v 0.00828199 -0.00617872 -0.02699403
v 0.00812169 -0.00778564 -0.07560643
v 0.00838768 -0.00653264 -0.07973062
v 0.00803537 -0.00756872 -0.07973062
v 0.00821153 -0.00590471 -0.09010235
v 0.00749635 -0.00724905 -0.09216446
v 0.00816220 -0.00574488 -0.09216446
v -0.00394999 -0.01233810 -0.07973062
v -0.00483074 -0.01087674 -0.08801985
v -0.00469158 -0.01076543 -0.09010235
v -0.00103468 -0.01310017 -0.08181313
v -0.00025432 -0.01246939 -0.08926527
v -0.00223603 -0.01249223 -0.08561066
v -0.00124077 -0.01264921 -0.08616192
v -0.00103468 -0.01290609 -0.08387524
v -0.00371394 -0.01222964 -0.08181313
v -0.00299877 -0.01209835 -0.08616192
v -0.00310622 -0.01185859 -0.08801985
v -0.00310622 -0.01161313 -0.09010235
v -0.00174281 -0.01237235 -0.08801985
v 0.00103511 -0.01298601 -0.08387524
v 0.00103511 -0.01278336 -0.08595774
v 0.00115665 -0.01255217 -0.08816276
v 0.00054717 -0.01246939 -0.08926527
v 0.00115665 -0.01226674 -0.09000027
v 0.00320177 -0.01093097 -0.09232779
v 0.00395570 -0.01030876 -0.09312404
v 0.00639364 -0.00849348 -0.09345071
v 0.00336912 -0.00103543 0.10253016
v 0.00241261 -0.00253389 0.10385725
v 0.00103511 -0.00251106 0.10383683
v 0.00084839 -0.00091556 0.10393891
v -0.00005527 -0.00152636 0.10363267
v 0.00003457 -0.00014777 0.10353058
v -0.00035825 0.00103387 0.10224432
v -0.00064538 0.00310602 0.10044764
v -0.00018915 0.00310602 0.10177474
v -0.00003237 0.00419919 0.10152973
v -0.00027194 0.00500407 0.10032514
v -0.00008874 0.00628847 0.09954930
v -0.00044281 0.00659101 0.09838555
v -0.00001828 0.00829783 0.09336301
v -0.00018386 0.00844339 0.09217884
v -0.00042167 0.00873738 0.09009632
v 0.00103511 0.00943951 0.08803423
v -0.00002533 0.01245070 0.04999773
v -0.00019619 0.01262481 0.04658812
v -0.00028427 0.01271900 0.04452603
v -0.00035825 0.01279892 0.04246393
v -0.00041462 0.01285600 0.04038142
v -0.00738847 0.00310602 -0.02795362
v -0.00802613 0.00103387 -0.02795362
v -0.00827979 -0.00004217 -0.02919904
v -0.00826746 -0.00020486 -0.02795362
v -0.00836082 -0.00124094 -0.02795362
v -0.00865852 -0.00310473 -0.03416032
v -0.00859158 -0.00310473 -0.03209823
v -0.00876597 -0.00517689 -0.04038745
v -0.00838372 -0.00660114 -0.03416032
v -0.00851055 -0.00709492 -0.04244955
v -0.00852464 -0.00718054 -0.04453206
v -0.00888576 -0.00517689 -0.04659415
v -0.00890513 -0.00517689 -0.04867667
v -0.00892979 -0.00517689 -0.05282128
v -0.00894036 -0.00517689 -0.05488338
v -0.00894036 -0.00517689 -0.05694547
v -0.00892451 -0.00517689 -0.06523469
v -0.00854930 -0.00720623 -0.06523469
v -0.00854050 -0.00716627 -0.06731721
v -0.00889104 -0.00517689 -0.06937930
v -0.00886286 -0.00517689 -0.07146182
v -0.00883291 -0.00517689 -0.07352392
v -0.00880120 -0.00517689 -0.07560643
v -0.00876597 -0.00517689 -0.07766853
v -0.00872722 -0.00517689 -0.07973062
v -0.00868318 -0.00517689 -0.08181313
v -0.00863562 -0.00517689 -0.08387524
v -0.00858454 -0.00517689 -0.08595774
v -0.00850703 -0.00503989 -0.09010235
v -0.00848765 -0.00486578 -0.09216446
v -0.00842424 -0.00454896 -0.09424697
v -0.00834321 -0.00426925 -0.09541072
v -0.00793454 -0.00558504 -0.09424697
v -0.00655351 -0.00869042 -0.09216446
v -0.00637207 -0.00846208 -0.09345071
v -0.00572736 -0.00990631 -0.09010235
v 0.00894432 -0.00517689 -0.05282128
v 0.00893727 -0.00517689 -0.05073877
v 0.00895489 -0.00517689 -0.05694547
v 0.00895489 -0.00517689 -0.05902798
v 0.00894784 -0.00517689 -0.06109008
v 0.00891789 -0.00517689 -0.06523469
v 0.00893551 -0.00517689 -0.06317260
v 0.00877873 -0.00517689 -0.07352392
v 0.00881573 -0.00517689 -0.07146182
v 0.00885272 -0.00517689 -0.06937930
v 0.00888619 -0.00517689 -0.06731721
v 0.00869594 -0.00517689 -0.07766853
v 0.00873822 -0.00517689 -0.07560643
v 0.00844933 -0.00486864 -0.09010235
v 0.00892494 -0.00517689 -0.04867667
v 0.00890732 -0.00517689 -0.04659415
v 0.00884391 -0.00517689 -0.04244955
v 0.00881044 -0.00517689 -0.04038745
v 0.00876464 -0.00517689 -0.03830494
v 0.00871004 -0.00517689 -0.03624284
v 0.00865014 -0.00517689 -0.03416032
v 0.00857968 -0.00517689 -0.03209823
v 0.00828903 -0.00417792 -0.02270650
v 0.00370028 0.00103387 0.10044764
v 0.00839825 -0.00536527 -0.02779028
v 0.00850570 -0.00517689 -0.03001571
v 0.00842115 -0.00470880 -0.09216446
v 0.00795082 -0.00515691 -0.09438989
v 0.00827142 -0.00408087 -0.09518614
v 0.00836302 -0.00445192 -0.09381822
v -0.00447316 -0.01059418 -0.09171528
v -0.00070703 -0.01254360 -0.08801985
v -0.00098007 -0.01220966 -0.09000027
v -0.00319253 -0.01087104 -0.09230737
v -0.00103468 -0.01136196 -0.09216446
v 0.00103511 -0.01139050 -0.09216446
v 0.00257467 -0.01046574 -0.09332822
v 0.00517819 -0.00892447 -0.09389988
v 0.00334269 -0.00938399 -0.09430821
v 0.00410895 -0.00827371 -0.09526781
v 0.00517819 -0.00795403 -0.09494114
v 0.00646586 -0.00647270 -0.09549239
v 0.00682345 -0.00719767 -0.09418572
v 0.00294107 0.00119370 0.10271391
v 0.00259757 -0.00103543 0.10400017
v 0.00352061 0.00310602 0.10044764
v 0.00141559 0.00061145 0.10383683
v 0.00103511 0.00310602 0.10248932
v 0.00103511 0.00454740 0.10175432
v 0.00103511 0.00558348 0.10085598
v 0.00103511 0.00639407 0.09981472
v 0.00103511 0.00688785 0.09838555
v 0.00103511 0.00751578 0.09630303
v 0.00103511 0.00806093 0.09438385
v 0.00103511 0.00919691 0.09009632
v 0.00103511 0.01289025 0.04658812
v 0.00254120 0.00874309 0.09009632
v 0.00232278 0.01269331 0.04658812
v 0.00222942 0.01258485 0.04809897
v -0.00000771 0.01450288 0.02074045
v -0.00004823 0.01453713 0.01965836
v -0.00044985 0.01292450 0.03831932
v -0.00659402 0.00476717 -0.02795362
v -0.00613427 0.01018732 -0.10045367
v -0.00657465 0.00906561 -0.09839158
v -0.00728806 0.00724748 -0.09839158
v -0.00743074 0.00310602 -0.03001571
v -0.00809836 0.00129360 -0.03416032
v -0.00834497 0.00026038 -0.03416032
v -0.00831679 0.00014050 -0.03209823
v -0.00856692 -0.00103543 -0.03624284
v -0.00852112 -0.00103543 -0.03416032
v -0.00846475 -0.00103543 -0.03209823
v -0.00871665 -0.00310473 -0.03624284
v -0.00882234 -0.00517689 -0.04244955
v -0.00893332 -0.00310473 -0.04659415
v -0.00896150 -0.00310473 -0.04867667
v -0.00898088 -0.00310473 -0.05073877
v -0.00887343 -0.00310473 -0.04244955
v -0.00899673 -0.00310473 -0.05488338
v -0.00900025 -0.00310473 -0.05694547
v -0.00900730 -0.00310473 -0.06317260
v -0.00899145 -0.00310473 -0.05282128
v -0.00900554 -0.00310473 -0.06523469
v -0.00900202 -0.00310473 -0.06731721
v -0.00899497 -0.00310473 -0.06937930
v -0.00891218 -0.00517689 -0.06731721
v -0.00891394 -0.00310473 -0.07973062
v -0.00880649 -0.00310473 -0.09010235
v -0.00878183 -0.00310473 -0.09216446
v -0.00870960 -0.00310473 -0.09424697
v -0.00845242 -0.00294490 -0.09618656
v -0.00831679 -0.00214857 -0.09739115
v -0.00779538 -0.00352716 -0.09677865
v -0.00653237 -0.00654976 -0.09555364
v -0.00685649 -0.00724334 -0.09418572
v -0.00552830 -0.00793120 -0.09483906
v -0.00394118 -0.01030876 -0.09310362
v 0.00898131 -0.00310473 -0.05282128
v 0.00897426 -0.00310473 -0.05073877
v 0.00898835 -0.00310473 -0.05902798
v 0.00898659 -0.00310473 -0.05694547
v 0.00898483 -0.00310473 -0.05488338
v 0.00898307 -0.00310473 -0.06109008
v 0.00897250 -0.00310473 -0.06317260
v 0.00865719 -0.00310473 -0.09010235
v 0.00884743 -0.00310473 -0.07560643
v 0.00887386 -0.00310473 -0.07352392
v 0.00889852 -0.00310473 -0.07146182
v 0.00893727 -0.00310473 -0.06731721
v 0.00895665 -0.00310473 -0.06523469
v 0.00862020 -0.00310473 -0.09216446
v 0.00896017 -0.00310473 -0.04867667
v 0.00894079 -0.00310473 -0.04659415
v 0.00885272 -0.00310473 -0.04038745
v 0.00881397 -0.00310473 -0.03830494
v 0.00876816 -0.00310473 -0.03624284
v 0.00871884 -0.00310473 -0.03416032
v 0.00866071 -0.00310473 -0.03209823
v 0.00859025 -0.00310473 -0.03001571
v 0.00851274 -0.00310473 -0.02795362
v 0.00829255 -0.00200586 -0.02266566
v 0.00368267 0.00310602 0.09838555
v 0.00847399 -0.00327599 -0.09438989
v 0.00784865 -0.00327599 -0.09637032
v 0.00818334 -0.00161198 -0.09708490
v 0.00839472 -0.00269944 -0.09571698
v -0.00256015 -0.01046288 -0.09332822
v -0.00103468 -0.01054280 -0.09343030
v 0.00103511 -0.01054566 -0.09343030
v 0.00103511 -0.00959521 -0.09445114
v 0.00103511 -0.00856198 -0.09555364
v 0.00272969 -0.00845638 -0.09545156
v 0.00242142 -0.00632143 -0.09743199
v 0.00380245 -0.00608738 -0.09724823
v 0.00517819 -0.00691796 -0.09588031
v 0.00517819 -0.00565925 -0.09692156
v 0.00628971 -0.00421788 -0.09739115
v 0.00681640 -0.00501420 -0.09622739
v 0.00243199 0.00061145 0.10383683
v 0.00270855 0.00310602 0.10220349
v 0.00274202 0.00526095 0.10048848
v 0.00240557 0.00462732 0.10179515
v 0.00326343 0.00517818 0.09838555
v 0.00230868 0.00637980 0.09983514
v 0.00209906 0.00830354 0.09326093
v 0.00229107 0.00846623 0.09217884
v 0.00001871 0.01450288 0.02074045
v 0.00305204 0.00724748 0.09217884
v 0.00325286 0.00724748 0.09009632
v 0.00017020 0.01454569 0.01831085
v 0.00014202 0.01453713 0.01965836
v 0.00798253 0.00103387 -0.02795362
v 0.00725854 0.00310602 -0.02795362
v 0.00729554 0.00310602 -0.03001571
v 0.00616993 0.00818366 -0.09839158
v 0.00557101 0.00931964 -0.09839158
v 0.00460570 0.01105785 -0.10045367
v 0.00387467 0.01209393 -0.10045367
v 0.00283890 0.01309861 -0.10045367
v -0.00071232 0.01346395 0.01965836
v -0.00005703 0.01454569 0.01831085
v -0.00310622 0.01358097 -0.10045367
v -0.00432167 0.01261625 -0.10045367
v -0.00527817 0.01139179 -0.10045367
v -0.00427234 0.01256202 -0.10216869
v -0.00413847 0.01242216 -0.10355703
v -0.00643901 0.00888294 -0.10186243
v -0.00657112 0.00915124 -0.10045367
v -0.00718941 0.00724748 -0.10045367
v -0.00789226 0.00517818 -0.09839158
v -0.00787112 0.00517818 -0.09630907
v -0.00814063 0.00150196 -0.04038745
v -0.00811245 0.00137352 -0.03624284
v -0.00750825 0.00310602 -0.03416032
v -0.00836435 0.00033744 -0.03624284
v -0.00869023 -0.00103543 -0.04244955
v -0.00865147 -0.00103543 -0.04038745
v -0.00882586 -0.00310473 -0.04038745
v -0.00877126 -0.00310473 -0.03830494
v -0.00877830 -0.00103543 -0.04867667
v -0.00879592 -0.00103543 -0.05073877
v -0.00884876 -0.00103543 -0.06731721
v -0.00885229 -0.00103543 -0.06937930
v -0.00885229 -0.00103543 -0.07352392
v -0.00885053 -0.00103543 -0.07560643
v -0.00882234 -0.00103543 -0.09424697
v -0.00898088 -0.00310473 -0.07146182
v -0.00895269 -0.00310473 -0.07560643
v -0.00893508 -0.00310473 -0.07766853
v -0.00868494 -0.00103543 -0.09630907
v -0.00841543 -0.00103543 -0.09763616
v -0.00807017 0.00103387 -0.09906533
v -0.00703440 0.00103387 -0.10008617
v -0.00663806 -0.00051597 -0.09969825
v -0.00716299 -0.00294490 -0.09779949
v -0.00641435 -0.00431206 -0.09747282
v -0.00517776 -0.00573346 -0.09698281
v -0.00497343 -0.00724334 -0.09579864
v -0.00414904 -0.00828798 -0.09528822
v 0.00875760 -0.00103543 -0.05282128
v 0.00874703 -0.00103543 -0.05073877
v 0.00875936 -0.00103543 -0.06317260
v 0.00876464 -0.00103543 -0.06109008
v 0.00876640 -0.00103543 -0.05902798
v 0.00876464 -0.00103543 -0.05694547
v 0.00875055 -0.00103543 -0.06523469
v 0.00859906 -0.00103543 -0.09216446
v 0.00871884 -0.00103543 -0.07146182
v 0.00873998 -0.00103543 -0.06731721
v 0.00857792 -0.00103543 -0.09424697
v 0.00873293 -0.00103543 -0.04867667
v 0.00871532 -0.00103543 -0.04659415
v 0.00869418 -0.00103543 -0.04453206
v 0.00866776 -0.00103543 -0.04244955
v 0.00863957 -0.00103543 -0.04038745
v 0.00860611 -0.00103543 -0.03830494
v 0.00857264 -0.00103543 -0.03624284
v 0.00853036 -0.00103543 -0.03416032
v 0.00848104 -0.00103543 -0.03209823
v 0.00839296 -0.00115816 -0.02795362
v 0.00835773 -0.00144644 -0.02589152
v 0.00831898 -0.00179751 -0.02380900
v 0.00356288 0.00517818 0.09424093
v 0.00827142 -0.00012209 -0.02795362
v 0.00671248 -0.00310473 -0.09775865
v 0.00645882 -0.00032473 -0.09959617
v 0.00675827 0.00103387 -0.09990242
v 0.00831898 -0.00023055 -0.09743199
v 0.00841410 -0.00096693 -0.09637032
v -0.00103468 -0.00958950 -0.09445114
v -0.00310622 -0.00840785 -0.09539030
v -0.00103468 -0.00855342 -0.09553323
v -0.00103468 -0.00742886 -0.09657448
v 0.00103511 -0.00743172 -0.09659490
v 0.00103511 -0.00639564 -0.09749324
v 0.00103511 -0.00517689 -0.09839158
v 0.00103511 -0.00389820 -0.09926949
v 0.00310665 -0.00358424 -0.09908575
v 0.00310841 -0.00530818 -0.09796283
v 0.00436613 -0.00223420 -0.09951450
v 0.00517819 -0.00462317 -0.09767698
v 0.00574716 -0.00170617 -0.09920825
v 0.00828375 -0.00000792 -0.02905612
v 0.00122359 0.01413469 -0.10045367
v 0.00018782 0.01456567 -0.10045367
v 0.00833307 0.00017190 -0.03416032
v 0.00835069 0.00023469 -0.03624284
v 0.00803537 0.00120798 -0.03416032
v 0.00804947 0.00127077 -0.03624284
v 0.00807765 0.00136781 -0.04038745
v 0.00808822 0.00141633 -0.04244955
v 0.00742413 0.00310602 -0.04038745
v 0.00659269 0.00714758 -0.09839158
v 0.00614879 0.00802953 -0.10045367
v 0.00557454 0.00931964 -0.10045367
v 0.00445597 0.01085235 -0.10212785
v 0.00268741 0.01300727 -0.10251577
v -0.00051327 0.01456567 -0.10045367
v -0.00154904 0.01442867 -0.10045367
v -0.00331232 0.01321563 -0.10271994
v -0.00275744 0.01295019 -0.10392453
v -0.00331232 0.01159444 -0.10408786
v -0.00444145 0.01104072 -0.10376120
v -0.00663982 0.00724748 -0.10202577
v -0.00749944 0.00517818 -0.10045367
v -0.00821638 0.00318880 -0.09853449
v -0.00837668 0.00255231 -0.09794241
v -0.00841543 0.00275210 -0.09630907
v -0.00821638 0.00378818 -0.09630907
v -0.00845771 0.00067709 -0.04867667
v -0.00823223 0.00184446 -0.05488338
v -0.00819172 0.00171317 -0.04867667
v -0.00839782 0.00046588 -0.04038745
v -0.00844361 0.00062001 -0.04659415
v -0.00865324 0.00103387 -0.09424697
v -0.00864971 0.00103387 -0.09630907
v -0.00846123 0.00103387 -0.09804449
v -0.00666096 0.00517818 -0.10190327
v -0.00646719 0.00367401 -0.10167868
v -0.00597749 -0.00189740 -0.09931034
v -0.00594755 0.00229257 -0.10139285
v -0.00524294 -0.00113818 -0.10002492
v -0.00524294 -0.00307048 -0.09886116
v -0.00517776 -0.00469738 -0.09775865
v -0.00379850 -0.00609309 -0.09724823
v -0.00241923 -0.00631572 -0.09743199
v 0.00843348 0.00052297 -0.05282128
v 0.00842995 0.00050299 -0.05073877
v 0.00842643 0.00048301 -0.04867667
v 0.00844052 0.00058861 -0.05902798
v 0.00843876 0.00056578 -0.05694547
v 0.00839825 0.00062001 -0.09424697
v 0.00820800 0.00165609 -0.09424697
v 0.00843876 0.00061145 -0.06523469
v 0.00844229 0.00059432 -0.06109008
v 0.00831898 0.00026038 -0.09743199
v 0.00836478 0.00050584 -0.09630907
v 0.00841762 0.00045446 -0.04659415
v 0.00840705 0.00041736 -0.04453206
v 0.00839472 0.00038025 -0.04244955
v 0.00840353 -0.00082993 -0.02985238
v 0.00510597 -0.00102402 -0.09984117
v 0.00505313 0.00116516 -0.10090285
v 0.00566085 0.00267789 -0.10127035
v 0.00624743 0.00405933 -0.10151535
v 0.00679350 0.00326301 -0.10053534
v 0.00630909 0.00517818 -0.10159702
v -0.00103468 -0.00639278 -0.09749324
v -0.00103468 -0.00517689 -0.09841199
v -0.00103468 -0.00394958 -0.09928992
v -0.00103468 -0.00291350 -0.09992284
v 0.00103511 -0.00286213 -0.09988201
v 0.00310665 -0.00254816 -0.09969825
v 0.00510597 -0.00299627 -0.09871825
v 0.00310665 -0.00103543 -0.10051493
v 0.00310665 0.00053438 -0.10127035
v 0.00093822 0.01407760 -0.10253619
v 0.00018253 0.01456282 -0.10186243
v 0.00810760 0.00149054 -0.04659415
v 0.00728673 0.00517818 -0.09630907
v 0.00728497 0.00517818 -0.09839158
v 0.00647467 0.00699346 -0.10045367
v 0.00630556 0.00661670 -0.10159702
v 0.00484703 0.00931964 -0.10245452
v 0.00376546 0.01148313 -0.10269953
v 0.00235096 0.01272185 -0.10376120
v -0.00046923 0.01456282 -0.10186243
v -0.00110866 0.01432021 -0.10253619
v -0.00103468 0.01326701 -0.10408786
v -0.00103468 0.01139179 -0.10457787
v -0.00310622 0.00931964 -0.10416953
v -0.00456123 0.00931964 -0.10380203
v -0.00440093 0.00783830 -0.10367953
v -0.00517776 0.00517818 -0.10265869
v -0.00522532 0.00303181 -0.10192368
v -0.00459646 -0.00235693 -0.09959617
v -0.00456652 0.00174457 -0.10163785
v -0.00522532 0.00104529 -0.10108659
v -0.00310622 -0.00103543 -0.10067826
v -0.00310622 -0.00372410 -0.09912658
v -0.00310798 -0.00531389 -0.09800366
v 0.00816220 0.00162469 -0.05902798
v 0.00811640 0.00151908 -0.04867667
v 0.00787508 0.00310602 -0.09630907
v 0.00786979 0.00310602 -0.09424697
v 0.00817630 0.00164752 -0.06523469
v 0.00820624 0.00154192 -0.09630907
v 0.00774296 0.00310602 -0.09839158
v 0.00683754 0.00517818 -0.10045367
v 0.00427982 0.00194436 -0.10153576
v 0.00505313 0.00326301 -0.10171951
v 0.00517819 0.00517818 -0.10222993
v 0.00356641 0.00724748 -0.10341411
v 0.00401031 0.00931964 -0.10349578
v -0.00310622 -0.00268802 -0.09980034
v -0.00085324 -0.00082993 -0.10104576
v -0.00004294 -0.00000792 -0.10149493
v 0.00002928 -0.00000792 -0.10149493
v 0.00084662 -0.00082993 -0.10100493
v 0.00141031 0.00014906 -0.10143368
v 0.00310665 0.00157046 -0.10169910
v 0.00103511 0.01309576 -0.10396537
v 0.00274730 0.01139179 -0.10390412
v 0.00103511 0.01139179 -0.10439412
v -0.00103468 0.00931964 -0.10435328
v 0.00103511 0.00931964 -0.10427162
v -0.00303928 0.00718754 -0.10376120
v -0.00368576 0.00645687 -0.10349578
v -0.00310622 0.00138494 -0.10178076
v -0.00310622 0.00034886 -0.10133160
v -0.00310622 0.00310602 -0.10245452
v -0.00142397 0.00010054 -0.10145409
v 0.00310665 0.00310602 -0.10229118
v 0.00291641 0.00536941 -0.10310786
v 0.00209906 0.00619142 -0.10357744
v 0.00253063 0.00724748 -0.10367953
v 0.00297454 0.00931964 -0.10386328
v -0.00085324 0.00088830 -0.10182160
v -0.00103468 0.00310602 -0.10267910
v 0.00084662 0.00091685 -0.10180118
v 0.00103511 0.00310602 -0.10265869
v 0.00103511 0.00724748 -0.10390412
v -0.00103468 0.00724748 -0.10394495
v -0.00230473 0.00610865 -0.10359786
v -0.00303928 0.00532089 -0.10323036
v -0.00103468 0.00492130 -0.10333245
v 0.00103511 0.00601732 -0.10361828
v 0.00103511 0.00498124 -0.10331202
v -0.00103468 0.00595738 -0.10363870
f 443 442 352
f 380 487 488
f 292 376 377
f 377 293 292
f 292 293 210
f 210 293 294
f 294 295 210
f 210 214 213
f 573 575 474
f 486 487 380
f 678 585 677
f 674 581 673
f 586 585 678
f 487 585 586
f 489 490 380
f 380 488 489
f 610 507 609
f 381 293 380
f 380 493 381
f 291 292 210
f 376 292 291
f 210 290 291
f 291 290 376
f 681 586 678
f 471 572 573
f 471 574 572
f 76 34 33
f 210 295 296
f 385 293 384
f 385 294 293
f 92 94 49
f 287 288 209
f 209 288 210
f 210 143 209
f 211 143 210
f 210 213 211
f 377 376 375
f 376 290 375
f 476 474 575
f 575 480 476
f 876 821 826
f 672 585 673
f 672 677 585
f 574 651 672
f 651 752 672
f 678 677 672
f 672 752 678
f 673 585 675
f 675 674 673
f 487 486 583
f 674 675 583
f 583 585 487
f 583 675 585
f 684 683 782
f 684 586 683
f 773 847 774
f 584 488 487
f 502 603 504
f 389 392 298
f 676 584 586
f 592 590 689
f 592 493 591
f 591 590 592
f 492 493 380
f 492 591 493
f 590 591 492
f 607 504 603
f 607 706 705
f 799 700 798
f 210 288 289
f 289 290 210
f 289 288 287
f 287 290 289
f 344 433 346
f 256 351 352
f 683 586 682
f 586 681 682
f 472 471 573
f 371 471 472
f 472 372 371
f 575 671 577
f 572 574 669
f 574 671 669
f 668 575 573
f 668 671 575
f 668 669 671
f 573 572 668
f 572 669 668
f 442 551 552
f 552 651 574
f 552 471 442
f 574 471 552
f 554 551 442
f 205 189 260
f 126 189 190
f 371 372 285
f 285 372 287
f 373 290 287
f 287 372 373
f 295 298 297
f 297 296 295
f 297 298 210
f 210 296 297
f 304 214 210
f 295 294 386
f 294 385 386
f 287 209 286
f 207 285 286
f 286 285 287
f 94 141 142
f 189 205 142
f 142 143 94
f 142 209 143
f 141 128 142
f 128 189 142
f 94 143 144
f 26 27 7
f 809 723 811
f 811 723 810
f 725 623 621
f 621 623 622
f 720 721 621
f 626 559 527
f 895 904 911
f 398 397 399
f 508 507 610
f 415 416 325
f 673 581 580
f 580 579 673
f 475 375 474
f 474 476 475
f 377 375 475
f 475 476 377
f 377 476 477
f 825 877 876
f 876 826 825
f 877 852 851
f 787 788 690
f 772 681 678
f 678 752 772
f 670 672 673
f 574 672 670
f 673 671 670
f 670 671 574
f 581 674 582
f 674 583 582
f 487 586 587
f 587 584 487
f 586 584 587
f 397 504 505
f 502 504 503
f 503 504 397
f 295 389 390
f 390 389 298
f 679 773 774
f 589 689 590
f 590 492 589
f 592 689 589
f 380 490 491
f 491 492 380
f 491 589 492
f 599 607 600
f 706 607 599
f 383 385 384
f 383 497 385
f 384 293 383
f 392 389 500
f 602 601 600
f 603 500 602
f 593 493 592
f 250 344 251
f 346 253 251
f 251 344 346
f 184 251 253
f 260 189 259
f 189 258 259
f 188 189 126
f 188 258 189
f 284 256 352
f 207 260 284
f 284 285 207
f 352 351 441
f 441 440 352
f 351 440 441
f 433 344 432
f 782 849 850
f 877 851 850
f 576 480 575
f 575 577 576
f 576 577 480
f 578 577 671
f 578 671 673
f 673 579 578
f 480 577 578
f 749 748 830
f 649 551 648
f 648 552 649
f 649 552 551
f 650 751 651
f 651 552 650
f 650 552 648
f 553 442 443
f 443 554 553
f 553 554 442
f 648 551 550
f 551 554 550
f 550 554 443
f 439 550 443
f 439 440 351
f 443 352 439
f 352 440 439
f 436 437 349
f 529 531 627
f 821 738 737
f 737 738 633
f 770 663 769
f 771 755 666
f 666 770 771
f 832 755 831
f 769 845 831
f 831 845 832
f 831 771 769
f 755 771 831
f 666 755 754
f 836 825 757
f 852 825 836
f 206 260 207
f 206 205 260
f 207 142 206
f 206 142 205
f 371 285 370
f 370 471 371
f 370 284 352
f 285 284 370
f 370 352 442
f 442 471 370
f 374 375 290
f 290 373 374
f 372 472 374
f 374 373 372
f 88 45 63
f 42 45 43
f 8 1 7
f 7 24 8
f 7 27 22
f 23 27 63
f 23 22 27
f 23 24 7
f 7 22 23
f 130 128 141
f 130 80 128
f 130 141 94
f 130 94 92
f 34 76 35
f 33 34 10
f 10 9 28
f 131 130 92
f 80 130 131
f 31 10 30
f 29 10 28
f 30 10 29
f 174 117 176
f 28 72 69
f 69 29 28
f 73 30 69
f 30 29 69
f 33 78 79
f 79 78 128
f 79 76 33
f 79 35 76
f 128 80 79
f 80 35 79
f 77 78 33
f 127 189 128
f 128 78 127
f 127 190 189
f 126 190 127
f 127 78 126
f 9 10 2
f 469 567 568
f 269 268 363
f 270 196 269
f 196 268 269
f 270 198 273
f 273 198 271
f 199 198 272
f 501 394 392
f 501 603 502
f 501 500 603
f 392 500 501
f 210 298 299
f 298 392 393
f 392 394 393
f 393 299 298
f 59 58 104
f 56 103 104
f 6 21 7
f 7 1 6
f 207 286 283
f 283 286 209
f 212 211 213
f 143 211 145
f 145 144 143
f 211 212 145
f 94 144 145
f 145 95 94
f 145 212 147
f 147 95 145
f 112 170 113
f 170 112 166
f 166 112 110
f 7 21 25
f 25 26 7
f 21 62 25
f 25 62 26
f 59 106 60
f 60 20 59
f 21 20 60
f 109 62 108
f 110 62 109
f 67 26 66
f 110 112 66
f 113 114 66
f 66 112 113
f 135 194 265
f 67 66 111
f 111 66 114
f 111 88 67
f 560 454 457
f 267 268 196
f 461 561 462
f 462 361 461
f 561 454 462
f 462 454 560
f 452 528 559
f 452 559 461
f 167 111 114
f 167 114 113
f 461 361 460
f 460 452 461
f 266 356 357
f 624 623 527
f 808 810 723
f 808 721 807
f 807 862 808
f 725 621 724
f 724 621 723
f 724 809 725
f 723 809 724
f 625 623 727
f 527 623 625
f 625 626 527
f 461 559 562
f 559 626 562
f 562 561 461
f 562 563 561
f 417 325 416
f 240 239 328
f 400 399 507
f 507 508 400
f 396 503 397
f 502 503 396
f 318 229 317
f 318 317 402
f 378 477 478
f 378 293 377
f 377 477 378
f 380 293 379
f 379 486 380
f 293 378 379
f 379 378 483
f 484 580 581
f 581 582 484
f 484 582 583
f 484 379 483
f 484 583 486
f 479 476 480
f 479 477 476
f 478 477 479
f 480 378 479
f 479 378 478
f 878 852 877
f 877 825 878
f 878 825 852
f 788 787 856
f 788 789 691
f 690 788 691
f 691 589 690
f 692 589 691
f 686 687 586
f 397 505 506
f 507 399 506
f 506 399 397
f 391 298 295
f 295 390 391
f 391 390 298
f 680 676 586
f 586 679 680
f 773 679 688
f 688 786 773
f 687 786 688
f 586 687 688
f 688 679 586
f 592 589 693
f 693 589 692
f 490 489 588
f 588 491 490
f 589 491 588
f 588 489 488
f 488 584 588
f 584 676 588
f 504 607 604
f 604 605 504
f 604 607 705
f 606 505 504
f 504 605 606
f 606 506 505
f 611 507 606
f 507 506 606
f 600 607 707
f 707 607 603
f 498 497 601
f 601 602 498
f 385 497 498
f 498 500 389
f 498 602 500
f 610 609 712
f 715 619 618
f 493 593 594
f 700 701 594
f 802 799 803
f 802 701 799
f 801 701 700
f 799 701 801
f 341 430 342
f 249 344 250
f 341 342 248
f 248 342 343
f 343 249 248
f 186 126 185
f 185 254 186
f 257 259 258
f 258 188 257
f 257 188 256
f 260 259 257
f 257 284 260
f 256 284 257
f 187 126 186
f 187 188 126
f 256 188 187
f 255 349 256
f 255 254 349
f 186 254 255
f 255 187 186
f 256 187 255
f 782 683 781
f 781 780 782
f 683 780 781
f 482 578 579
f 579 580 482
f 480 578 482
f 580 484 482
f 482 484 483
f 483 378 482
f 651 751 750
f 750 749 651
f 830 772 753
f 753 749 830
f 753 772 752
f 753 752 651
f 651 749 753
f 648 550 549
f 550 439 549
f 351 256 350
f 256 349 350
f 547 436 435
f 433 546 435
f 435 546 547
f 346 433 435
f 435 436 346
f 348 436 349
f 349 254 348
f 433 432 545
f 545 546 433
f 545 432 544
f 430 530 543
f 663 770 665
f 666 570 665
f 665 770 666
f 843 770 769
f 769 771 843
f 843 771 770
f 667 570 666
f 666 754 667
f 833 755 832
f 835 836 757
f 852 836 883
f 900 915 908
f 887 908 910
f 910 908 915
f 861 862 807
f 863 808 862
f 913 915 900
f 913 918 915
f 866 868 811
f 832 845 879
f 879 833 832
f 844 889 845
f 844 845 769
f 769 842 844
f 375 374 473
f 473 374 472
f 474 375 473
f 573 474 473
f 473 472 573
f 68 26 67
f 67 88 68
f 27 26 68
f 63 27 68
f 68 88 63
f 63 45 87
f 45 42 87
f 197 196 270
f 270 271 197
f 271 198 197
f 89 90 45
f 45 88 89
f 28 9 14
f 13 37 14
f 14 2 13
f 9 2 14
f 14 42 43
f 64 23 63
f 24 23 64
f 81 35 80
f 80 131 81
f 36 35 82
f 35 81 82
f 82 81 131
f 4 18 1
f 1 3 4
f 4 3 18
f 116 84 132
f 241 173 172
f 70 116 117
f 84 116 70
f 115 118 73
f 73 69 115
f 115 72 117
f 115 69 72
f 115 117 174
f 174 172 115
f 173 118 115
f 115 172 173
f 75 77 33
f 126 78 129
f 129 185 126
f 184 185 129
f 11 2 10
f 467 365 363
f 467 454 561
f 564 468 467
f 468 365 467
f 467 563 564
f 561 563 467
f 91 90 139
f 90 138 139
f 139 140 91
f 139 138 200
f 363 365 274
f 274 269 363
f 275 198 274
f 274 198 270
f 270 269 274
f 364 271 270
f 270 273 364
f 364 273 271
f 199 272 201
f 201 138 199
f 200 138 201
f 366 468 469
f 366 365 468
f 214 304 301
f 102 153 154
f 154 103 102
f 154 104 103
f 57 104 58
f 56 104 57
f 58 18 57
f 57 18 56
f 102 54 101
f 101 54 99
f 101 153 102
f 99 153 101
f 55 54 102
f 102 103 55
f 55 103 56
f 99 54 53
f 97 100 53
f 19 18 58
f 19 58 59
f 59 20 19
f 209 142 208
f 208 283 209
f 208 142 207
f 207 283 208
f 148 96 147
f 148 149 97
f 97 96 148
f 148 213 214
f 214 215 148
f 148 212 213
f 147 212 148
f 50 49 94
f 94 95 50
f 97 51 50
f 50 96 97
f 50 95 96
f 147 96 146
f 146 95 147
f 96 95 146
f 110 109 164
f 108 62 61
f 61 60 108
f 61 62 21
f 21 60 61
f 108 60 107
f 107 60 106
f 26 62 65
f 65 66 26
f 65 62 110
f 110 66 65
f 88 111 134
f 135 89 134
f 134 89 88
f 560 457 456
f 456 457 361
f 456 462 560
f 361 462 456
f 361 267 360
f 195 265 266
f 266 267 195
f 135 265 195
f 195 267 196
f 359 267 361
f 268 267 359
f 169 194 135
f 135 134 169
f 169 134 111
f 524 621 622
f 524 624 527
f 622 623 524
f 623 624 524
f 722 808 723
f 721 808 722
f 723 621 722
f 722 621 721
f 725 809 812
f 528 417 526
f 527 559 526
f 559 528 526
f 526 416 527
f 526 417 416
f 418 417 328
f 325 417 418
f 323 414 356
f 323 356 266
f 266 265 323
f 239 240 171
f 113 170 171
f 512 615 616
f 612 508 610
f 610 714 612
f 714 715 612
f 509 400 508
f 509 615 510
f 510 400 509
f 502 396 395
f 395 501 502
f 394 501 395
f 315 400 316
f 316 402 317
f 618 619 522
f 238 171 170
f 239 171 238
f 486 379 485
f 485 484 486
f 379 484 485
f 592 693 694
f 694 693 692
f 692 691 694
f 694 691 789
f 631 627 531
f 586 684 685
f 685 686 586
f 783 684 782
f 783 851 852
f 782 850 783
f 783 850 851
f 891 858 846
f 847 773 846
f 773 786 846
f 495 599 600
f 596 494 493
f 382 383 293
f 293 381 382
f 494 495 382
f 382 381 493
f 493 494 382
f 708 602 600
f 600 707 708
f 603 602 708
f 708 707 603
f 388 389 295
f 713 714 610
f 610 712 713
f 711 712 609
f 804 715 714
f 714 713 804
f 804 713 712
f 712 711 804
f 619 715 719
f 720 621 719
f 718 715 616
f 717 715 718
f 616 615 718
f 615 717 718
f 796 795 806
f 806 721 720
f 720 719 806
f 807 721 794
f 794 795 698
f 721 806 794
f 794 806 795
f 798 700 699
f 700 594 699
f 699 594 698
f 698 795 699
f 699 795 796
f 698 594 697
f 592 696 697
f 696 698 697
f 697 593 592
f 697 594 593
f 700 799 800
f 800 801 700
f 799 801 800
f 431 342 430
f 544 432 431
f 430 543 431
f 431 543 544
f 344 249 345
f 345 249 343
f 343 342 345
f 342 431 345
f 345 432 344
f 341 248 247
f 252 185 184
f 254 185 252
f 252 184 253
f 252 253 346
f 252 348 254
f 757 825 758
f 174 176 243
f 654 754 755
f 779 780 683
f 683 778 779
f 683 682 777
f 777 778 683
f 777 682 681
f 481 378 480
f 480 482 481
f 481 482 378
f 648 549 647
f 647 750 751
f 647 650 648
f 751 650 647
f 438 549 439
f 349 437 438
f 438 350 349
f 438 439 351
f 351 350 438
f 346 436 347
f 436 348 347
f 347 252 346
f 348 252 347
f 664 568 663
f 663 665 664
f 664 569 568
f 664 665 570
f 570 569 664
f 653 667 754
f 754 654 653
f 653 654 557
f 653 557 570
f 570 667 653
f 756 654 755
f 757 654 756
f 880 879 903
f 833 879 880
f 895 893 906
f 906 893 892
f 892 883 906
f 881 880 903
f 904 910 917
f 917 910 915
f 909 889 887
f 887 910 909
f 909 910 889
f 903 879 902
f 904 903 902
f 902 910 904
f 793 861 807
f 807 794 793
f 793 698 696
f 793 794 698
f 695 790 791
f 695 696 592
f 592 694 695
f 789 790 695
f 695 694 789
f 859 893 895
f 791 790 859
f 790 858 859
f 891 893 859
f 859 858 891
f 897 863 862
f 900 866 897
f 907 901 908
f 868 901 885
f 864 866 810
f 810 808 864
f 808 863 864
f 863 897 864
f 864 897 866
f 899 901 868
f 868 866 899
f 811 810 867
f 867 866 811
f 810 866 867
f 769 663 767
f 767 842 769
f 841 844 842
f 842 767 841
f 841 767 766
f 196 197 137
f 199 138 137
f 137 138 90
f 137 198 199
f 137 197 198
f 43 45 44
f 44 14 43
f 45 14 44
f 45 90 46
f 46 14 45
f 46 90 91
f 91 85 46
f 41 14 37
f 41 87 42
f 42 14 41
f 36 82 83
f 83 82 131
f 92 49 93
f 3 15 16
f 16 53 54
f 16 50 51
f 49 50 16
f 202 139 200
f 140 139 202
f 191 132 133
f 91 140 133
f 133 85 91
f 132 85 133
f 175 176 117
f 117 116 175
f 175 243 176
f 175 132 191
f 175 116 132
f 71 72 28
f 28 70 71
f 117 72 71
f 71 70 117
f 32 75 33
f 33 10 32
f 10 31 32
f 74 30 73
f 74 31 30
f 74 32 31
f 75 32 74
f 182 249 250
f 181 249 182
f 180 179 248
f 180 249 181
f 180 248 249
f 12 11 10
f 12 10 34
f 34 35 12
f 12 35 36
f 2 11 12
f 363 268 362
f 362 463 363
f 268 359 362
f 454 463 362
f 362 359 454
f 466 463 454
f 466 467 363
f 454 467 466
f 469 568 566
f 568 569 566
f 210 301 302
f 302 301 304
f 97 149 150
f 150 149 217
f 153 152 221
f 108 107 160
f 306 217 305
f 305 215 214
f 305 393 394
f 394 395 305
f 305 395 306
f 104 154 105
f 105 106 59
f 59 104 105
f 105 154 155
f 99 53 98
f 98 53 100
f 98 153 99
f 98 152 153
f 98 100 97
f 97 152 98
f 52 51 97
f 97 53 52
f 52 16 51
f 53 16 52
f 18 19 5
f 5 19 20
f 1 18 5
f 5 6 1
f 21 6 5
f 5 20 21
f 216 148 215
f 216 305 217
f 215 305 216
f 217 149 216
f 149 148 216
f 230 229 318
f 165 166 110
f 110 164 165
f 165 233 166
f 164 233 165
f 358 267 266
f 358 360 267
f 266 357 358
f 358 357 356
f 356 360 358
f 361 457 453
f 453 359 361
f 453 457 454
f 454 359 453
f 451 452 356
f 356 414 451
f 419 417 528
f 419 451 414
f 528 452 419
f 452 451 419
f 459 460 361
f 361 458 459
f 459 458 460
f 361 360 455
f 452 460 450
f 460 458 450
f 356 452 450
f 450 360 356
f 450 455 360
f 450 458 361
f 361 455 450
f 525 416 415
f 415 524 525
f 527 416 525
f 525 524 527
f 814 869 870
f 811 868 865
f 865 809 811
f 865 812 809
f 869 814 865
f 565 567 469
f 565 468 564
f 469 468 565
f 327 239 237
f 239 238 237
f 170 236 237
f 237 238 170
f 330 323 240
f 414 323 329
f 323 330 329
f 328 417 329
f 417 419 329
f 329 240 328
f 329 330 240
f 168 171 240
f 168 167 113
f 113 171 168
f 194 169 168
f 111 167 168
f 168 169 111
f 513 618 514
f 513 512 618
f 617 512 616
f 618 512 617
f 616 715 617
f 617 715 618
f 510 615 511
f 615 512 511
f 511 402 510
f 615 509 614
f 314 315 225
f 225 312 314
f 314 400 315
f 399 400 314
f 398 399 314
f 314 312 398
f 225 155 224
f 396 308 307
f 307 395 396
f 306 395 307
f 401 400 510
f 401 316 400
f 510 402 401
f 402 316 401
f 515 516 404
f 514 618 515
f 618 516 515
f 408 407 518
f 318 404 405
f 404 516 405
f 518 407 517
f 618 518 517
f 517 516 618
f 517 405 516
f 519 518 618
f 618 522 519
f 409 408 519
f 519 408 518
f 413 522 415
f 415 325 413
f 619 524 523
f 523 522 619
f 523 524 415
f 415 522 523
f 857 858 790
f 857 790 789
f 857 856 847
f 857 789 788
f 788 856 857
f 847 846 857
f 857 846 858
f 778 777 776
f 776 777 681
f 784 685 684
f 686 685 784
f 684 783 784
f 891 846 855
f 855 846 786
f 892 893 855
f 855 893 891
f 855 883 892
f 706 599 597
f 599 495 597
f 705 706 597
f 597 704 705
f 597 596 704
f 494 596 597
f 493 594 595
f 595 596 493
f 703 595 594
f 383 382 496
f 496 382 495
f 601 497 496
f 497 383 496
f 600 601 496
f 496 495 600
f 387 386 385
f 385 388 387
f 295 386 387
f 387 388 295
f 385 498 499
f 499 388 385
f 499 498 389
f 389 388 499
f 611 711 608
f 608 711 609
f 608 507 611
f 608 609 507
f 611 606 710
f 710 711 611
f 710 804 711
f 715 804 805
f 796 806 805
f 805 719 715
f 805 806 719
f 620 524 619
f 619 719 620
f 621 524 620
f 620 719 621
f 434 431 432
f 432 345 434
f 434 345 431
f 739 826 821
f 739 825 826
f 739 758 825
f 757 758 655
f 655 654 757
f 557 654 655
f 758 739 655
f 140 202 203
f 276 198 275
f 365 366 276
f 276 274 365
f 275 274 276
f 570 557 571
f 241 333 331
f 331 332 241
f 354 264 263
f 555 447 449
f 539 538 634
f 242 172 174
f 241 172 242
f 242 333 241
f 264 354 261
f 548 647 549
f 548 436 547
f 437 436 548
f 548 438 437
f 549 438 548
f 643 545 544
f 546 545 643
f 904 895 905
f 895 906 905
f 834 883 836
f 833 880 834
f 880 881 834
f 836 835 834
f 755 833 834
f 834 756 755
f 834 835 757
f 757 756 834
f 911 904 916
f 904 917 916
f 845 889 890
f 890 879 845
f 890 902 879
f 889 910 890
f 910 902 890
f 791 861 792
f 792 695 791
f 861 793 792
f 792 793 696
f 696 695 792
f 896 897 862
f 913 897 896
f 914 913 900
f 900 897 914
f 914 897 913
f 886 908 887
f 886 907 908
f 901 907 886
f 886 885 901
f 868 885 840
f 840 766 839
f 840 841 766
f 887 841 840
f 840 886 887
f 885 886 840
f 898 866 900
f 898 899 866
f 901 899 898
f 900 908 898
f 908 901 898
f 839 766 765
f 815 814 870
f 815 869 839
f 870 869 815
f 661 568 567
f 567 565 661
f 766 767 662
f 662 765 766
f 764 765 662
f 663 568 662
f 568 661 662
f 889 844 888
f 844 841 888
f 887 889 888
f 888 841 887
f 196 137 136
f 136 89 135
f 135 195 136
f 136 195 196
f 14 46 38
f 84 70 38
f 38 46 85
f 18 3 17
f 3 16 17
f 56 18 17
f 17 55 56
f 54 55 17
f 17 16 54
f 75 74 122
f 179 180 122
f 122 180 181
f 183 182 250
f 250 251 183
f 251 184 183
f 465 466 363
f 303 304 210
f 210 302 303
f 303 302 304
f 151 152 97
f 97 150 151
f 153 221 222
f 222 221 308
f 225 315 226
f 315 316 226
f 106 105 157
f 158 107 106
f 106 157 158
f 225 226 158
f 158 157 225
f 393 305 300
f 299 393 300
f 214 301 300
f 300 305 214
f 210 299 300
f 300 301 210
f 166 233 234
f 170 166 234
f 234 236 170
f 234 233 321
f 321 233 320
f 409 410 320
f 320 410 411
f 411 321 320
f 725 812 813
f 812 865 813
f 813 865 814
f 728 815 760
f 814 815 728
f 728 625 727
f 626 625 728
f 325 418 326
f 326 237 325
f 327 237 326
f 326 418 328
f 326 239 327
f 328 239 326
f 420 419 414
f 414 329 420
f 420 329 419
f 240 323 235
f 235 168 240
f 235 323 265
f 235 265 194
f 194 168 235
f 403 511 512
f 512 513 403
f 403 404 318
f 403 513 514
f 318 402 403
f 402 511 403
f 514 515 403
f 403 515 404
f 613 614 509
f 508 612 613
f 613 509 508
f 613 612 715
f 715 614 613
f 716 715 717
f 716 614 715
f 716 717 615
f 615 614 716
f 313 312 225
f 225 224 313
f 313 224 312
f 310 396 397
f 406 407 318
f 318 405 406
f 406 517 407
f 405 517 406
f 521 410 409
f 411 410 521
f 521 522 411
f 411 522 412
f 522 413 412
f 747 746 772
f 830 748 747
f 747 772 830
f 745 744 772
f 772 746 745
f 745 643 744
f 746 643 745
f 780 779 829
f 829 779 778
f 778 776 829
f 681 772 775
f 775 776 681
f 772 744 775
f 744 776 775
f 872 871 849
f 629 632 731
f 630 531 629
f 630 631 531
f 785 783 852
f 785 784 783
f 686 784 785
f 687 686 785
f 785 786 687
f 598 495 494
f 494 597 598
f 598 597 495
f 701 802 702
f 702 594 701
f 702 703 594
f 596 595 702
f 595 703 702
f 702 802 704
f 704 596 702
f 709 606 605
f 709 710 606
f 709 604 705
f 605 604 709
f 705 704 709
f 704 802 709
f 709 802 803
f 803 799 709
f 799 710 709
f 804 710 797
f 797 805 804
f 797 799 798
f 797 710 799
f 796 805 797
f 798 699 797
f 797 699 796
f 177 173 241
f 639 638 736
f 736 633 639
f 736 737 633
f 821 737 736
f 736 739 821
f 640 739 634
f 263 264 192
f 264 261 192
f 192 133 140
f 198 276 277
f 470 366 469
f 469 566 470
f 570 571 470
f 470 569 570
f 470 566 569
f 470 571 557
f 332 331 340
f 341 247 340
f 422 331 333
f 333 423 422
f 355 449 447
f 355 282 368
f 555 449 558
f 558 449 557
f 558 640 555
f 445 354 447
f 634 739 635
f 635 739 636
f 636 739 637
f 637 736 638
f 739 736 637
f 639 633 535
f 538 539 426
f 428 540 426
f 174 243 244
f 244 242 174
f 243 175 245
f 245 175 191
f 191 261 245
f 642 643 544
f 744 643 642
f 547 546 644
f 546 643 644
f 644 643 746
f 746 747 644
f 883 834 882
f 882 834 881
f 882 906 883
f 882 905 906
f 882 881 903
f 882 903 904
f 904 905 882
f 894 859 895
f 894 895 911
f 868 840 884
f 884 865 868
f 869 865 884
f 839 869 884
f 884 840 839
f 760 815 761
f 838 815 839
f 839 765 838
f 838 765 764
f 768 767 663
f 663 662 768
f 768 662 767
f 28 14 40
f 40 70 28
f 84 38 86
f 86 38 85
f 132 84 86
f 86 85 132
f 48 93 49
f 49 16 48
f 48 47 92
f 92 93 48
f 15 47 48
f 48 16 15
f 77 75 123
f 73 118 119
f 119 118 173
f 173 177 119
f 121 74 73
f 121 122 74
f 179 122 121
f 463 466 464
f 466 465 464
f 363 463 464
f 464 465 363
f 220 221 152
f 152 151 220
f 308 221 220
f 220 307 308
f 155 154 223
f 223 224 155
f 309 222 308
f 309 308 396
f 309 223 222
f 224 223 309
f 396 310 309
f 309 310 224
f 227 317 229
f 228 316 317
f 228 226 316
f 317 227 228
f 160 226 228
f 228 227 160
f 156 105 155
f 156 157 105
f 156 155 225
f 225 157 156
f 159 160 107
f 107 158 159
f 159 226 160
f 159 158 226
f 163 164 109
f 109 162 163
f 231 230 318
f 231 163 162
f 161 109 108
f 161 162 109
f 108 160 161
f 161 227 229
f 160 227 161
f 229 230 161
f 230 231 161
f 161 231 162
f 725 813 726
f 726 623 725
f 727 623 726
f 726 813 814
f 726 728 727
f 814 728 726
f 312 224 311
f 224 310 311
f 398 312 311
f 311 397 398
f 311 310 397
f 520 519 522
f 522 521 520
f 409 519 520
f 520 521 409
f 322 412 413
f 322 321 411
f 411 412 322
f 322 237 236
f 236 234 322
f 322 234 321
f 828 827 780
f 780 829 828
f 742 829 776
f 780 827 848
f 827 872 848
f 782 780 848
f 848 849 782
f 848 872 849
f 735 738 821
f 821 731 735
f 735 731 632
f 633 738 735
f 735 632 633
f 732 731 821
f 732 733 629
f 629 731 732
f 822 821 876
f 822 732 821
f 824 822 873
f 873 850 849
f 873 822 876
f 876 877 873
f 877 850 873
f 852 883 853
f 853 785 852
f 178 247 248
f 248 179 178
f 179 121 178
f 652 655 739
f 739 640 652
f 640 558 652
f 557 655 652
f 652 558 557
f 140 203 204
f 204 192 140
f 193 261 191
f 193 192 261
f 191 133 193
f 133 192 193
f 368 282 369
f 262 354 263
f 262 355 354
f 282 355 262
f 263 192 262
f 192 204 262
f 203 282 262
f 262 204 203
f 278 277 276
f 278 276 366
f 278 272 198
f 198 277 278
f 556 470 557
f 246 340 247
f 332 340 246
f 247 178 246
f 246 178 177
f 241 332 246
f 246 177 241
f 421 340 331
f 331 422 421
f 529 530 421
f 447 354 446
f 446 355 447
f 354 355 446
f 448 355 368
f 449 355 448
f 470 556 448
f 557 449 448
f 448 556 557
f 555 640 542
f 640 540 542
f 542 447 555
f 542 445 447
f 427 540 428
f 427 542 540
f 445 542 427
f 532 422 423
f 531 422 532
f 629 531 532
f 532 632 629
f 339 426 425
f 534 426 539
f 636 637 534
f 534 637 638
f 534 635 636
f 534 638 639
f 639 535 534
f 534 539 634
f 634 635 534
f 335 244 243
f 242 244 335
f 336 245 339
f 243 245 336
f 544 543 641
f 641 642 544
f 646 548 547
f 647 548 646
f 749 750 646
f 750 647 646
f 748 749 646
f 646 747 748
f 860 896 862
f 860 894 896
f 859 894 860
f 862 861 860
f 860 861 791
f 791 859 860
f 912 894 911
f 912 916 918
f 911 916 912
f 918 913 912
f 913 896 912
f 896 894 912
f 837 838 764
f 815 838 837
f 764 662 763
f 763 662 661
f 763 837 764
f 660 661 565
f 660 763 661
f 563 562 656
f 656 562 626
f 760 761 656
f 626 728 656
f 656 728 760
f 14 38 39
f 39 40 14
f 39 38 70
f 70 40 39
f 75 122 124
f 124 123 75
f 124 122 181
f 181 182 124
f 182 123 124
f 77 123 125
f 78 77 125
f 125 129 78
f 184 129 125
f 125 183 184
f 182 183 125
f 125 123 182
f 73 119 120
f 120 121 73
f 120 178 121
f 120 119 177
f 177 178 120
f 218 150 217
f 218 217 306
f 306 307 218
f 219 151 150
f 219 220 151
f 150 218 219
f 307 220 219
f 219 218 307
f 319 320 233
f 319 231 318
f 318 407 319
f 407 408 319
f 319 408 409
f 409 320 319
f 164 163 232
f 163 231 232
f 232 233 164
f 232 319 233
f 231 319 232
f 324 413 325
f 324 322 413
f 325 237 324
f 237 322 324
f 741 828 829
f 829 742 741
f 740 827 741
f 827 828 741
f 741 742 642
f 741 641 740
f 642 641 741
f 743 776 744
f 743 742 776
f 744 642 743
f 642 742 743
f 818 827 740
f 818 872 827
f 871 872 818
f 730 818 740
f 818 730 729
f 733 732 823
f 732 822 823
f 823 824 733
f 823 822 824
f 849 871 874
f 874 873 849
f 785 853 854
f 854 855 786
f 786 785 854
f 883 855 854
f 854 853 883
f 366 470 367
f 367 278 366
f 368 278 367
f 367 448 368
f 470 448 367
f 272 278 279
f 279 201 272
f 279 278 368
f 200 201 279
f 341 340 429
f 340 421 429
f 429 430 341
f 429 530 430
f 429 421 530
f 338 427 428
f 338 426 339
f 428 426 338
f 339 245 338
f 338 245 261
f 533 532 423
f 632 532 533
f 633 632 533
f 533 535 633
f 426 534 424
f 424 425 426
f 424 534 535
f 423 335 424
f 424 533 423
f 535 533 424
f 538 426 537
f 426 536 537
f 634 538 537
f 537 640 634
f 537 536 640
f 541 426 540
f 541 536 426
f 541 540 640
f 640 536 541
f 337 335 243
f 337 336 339
f 243 336 337
f 339 425 337
f 425 424 337
f 337 424 335
f 334 423 333
f 334 335 423
f 333 242 334
f 242 335 334
f 628 543 530
f 628 641 543
f 627 729 628
f 628 729 730
f 547 644 645
f 645 646 547
f 645 644 747
f 747 646 645
f 762 761 815
f 815 837 762
f 837 763 762
f 762 660 761
f 763 660 762
f 564 563 657
f 563 656 657
f 733 824 734
f 631 630 734
f 627 631 734
f 734 729 627
f 816 729 820
f 816 820 871
f 875 874 871
f 824 873 819
f 873 874 819
f 874 875 819
f 820 729 819
f 871 820 819
f 819 875 871
f 819 734 824
f 729 734 819
f 281 202 200
f 281 203 202
f 368 369 281
f 281 282 203
f 281 369 282
f 354 445 444
f 445 427 353
f 427 338 353
f 353 444 445
f 353 338 261
f 353 261 354
f 354 444 353
f 759 656 761
f 759 657 656
f 761 660 759
f 658 565 564
f 564 657 658
f 818 729 817
f 729 816 817
f 871 818 817
f 817 816 871
f 200 279 280
f 280 281 200
f 280 279 368
f 368 281 280
f 659 660 565
f 565 658 659
f 659 759 660
f 657 759 659
f 659 658 657
f 679 787 690
f 774 787 679
f 13 8 37
f 37 8 24
f 2 8 13
f 1 8 2
f 856 787 774
f 774 847 856
f 680 679 690
f 690 589 680
f 588 680 589
f 676 680 588
f 41 37 24
f 24 64 41
f 63 87 41
f 41 64 63
f 12 15 3
f 36 15 12
f 1 2 12
f 12 3 1
f 916 917 915
f 915 918 916
f 136 137 90
f 90 89 136
f 47 83 131
f 47 131 92
f 47 15 36
f 36 83 47
f 153 222 223
f 223 154 153
f 421 422 531
f 421 531 529
f 529 627 628
f 628 530 529
f 628 730 740
f 740 641 628
f 734 630 629
f 629 733 734

