# https://github.com/mikedh/trimesh
v 0.03716079 -0.00566094 0.08718564
v -0.02357920 -0.01245315 -0.11372524
v 0.03448803 -0.01450267 -0.02151230
v -0.03596979 0.01018980 0.03056327
v -0.03563569 -0.01245315 -0.03734775
v -0.03344954 -0.01041379 0.09849668
v 0.03475676 0.01469536 -0.08718351
v 0.03398689 -0.01586789 0.03734989
v -0.03486582 0.01431256 -0.08039688
v -0.00566152 -0.01717551 0.05320774
v 0.00566141 -0.01471948 0.11399617
v -0.01698445 0.01685667 0.07359000
v 0.03437182 -0.01421472 -0.06001461
v 0.00112933 0.01398734 -0.10438523
v -0.03057341 -0.01710438 0.00565659
v 0.00112933 -0.01683675 -0.03734775
v 0.02150915 -0.01539023 -0.10077915
v 0.01698434 0.01410591 0.10286431
v -0.03409594 -0.01599662 0.06680338
v -0.01698445 0.01736143 -0.05546781
v -0.03366743 -0.01564430 -0.07358786
v 0.03695017 -0.00792388 0.00791880
v -0.01698445 0.01339112 0.10400662
v -0.03057341 -0.01721955 0.03961210
v 0.03283208 -0.01636248 0.06227897
v -0.02377530 0.01451581 -0.10286217
v -0.03681229 -0.00113167 -0.01244107
v 0.03397236 0.01585393 -0.06337433
v -0.03575189 0.01018980 0.08718564
v -0.03610778 -0.00566094 -0.09464207
v 0.03628924 -0.00923151 -0.08265909
v 0.03283208 0.01488507 0.08037663
v 0.02245333 0.01334030 -0.10413886
v -0.01698445 -0.01701291 -0.02829892
v -0.01698445 0.01714800 0.03056327
v 0.02726140 -0.00716167 0.10420819
v 0.00112933 -0.00339461 -0.11271733
v -0.03480771 0.01424141 -0.06001461
v 0.03057331 -0.01634893 -0.03963235
v 0.03392879 0.00861794 0.09730959
v 0.03420478 0.00113127 -0.09782260
v -0.03283219 -0.01647766 -0.02151230
v 0.01018622 -0.01703662 0.05094553
v -0.00963435 -0.01630151 0.11164436
v -0.03068962 0.00566053 0.10102767
v -0.02377530 -0.01723649 0.05320774
v -0.03280314 -0.01630828 -0.05094339
v 0.03057331 -0.01675206 0.09397227
v 0.01471830 -0.01671818 -0.03282333
v -0.01245237 -0.01689095 -0.04189456
v -0.03527981 0.01018980 -0.09397013
v -0.03666703 -0.00339461 0.08718564
v 0.03283208 -0.01634216 0.08037663
v -0.03703744 -0.00566094 0.00791880
v 0.03411762 -0.01161641 -0.09540360
v -0.03653629 -0.01016311 0.04868333
v 0.03170633 -0.01585434 -0.07257995
v -0.03283219 -0.01653186 0.08718564
v -0.03340597 -0.01547831 -0.08718351
v 0.03569368 0.01245613 -0.07585007
v -0.00566152 -0.01696887 -0.02603671
v -0.02377530 -0.01693499 -0.03963235
v 0.00566141 0.01458695 0.10078129
v 0.03241083 0.01246291 -0.09869613
v 0.03700101 -0.00339461 -0.06227683
v -0.03267241 -0.01624391 -0.06227683
v 0.03395784 -0.01584418 0.02603885
v 0.03057331 -0.01684353 0.01018101
v 0.01163881 0.01584715 -0.10180946
v 0.02830727 -0.00566094 -0.10342212
v -0.02715983 -0.00457351 0.10416340
v 0.03447350 -0.00339461 0.09809352
v -0.00112944 0.00727305 -0.11168701
v -0.02830738 -0.01699258 -0.03056112
v 0.02604123 0.01477666 0.09849668
v -0.03687765 -0.00339461 -0.08492130
v -0.03612231 0.01018980 -0.06906345
v -0.02604134 -0.01697226 0.09849668
v -0.03057341 0.01423125 0.09623448
v 0.03331869 -0.01543427 -0.04868118
v -0.03474235 -0.01471948 0.07811442
v -0.01471841 0.01559647 -0.10077915
v 0.02377519 -0.01659962 -0.03056112
v 0.03469139 0.01411946 0.08944786
v -0.03623125 -0.01131152 0.05773215
v -0.01564080 -0.01590176 -0.11121666
v 0.03676134 -0.00339461 -0.08944571
v -0.00339548 -0.01056963 0.11381698
v -0.03627483 0.00752373 -0.08492130
v -0.02604134 0.01245613 0.10288671
v -0.00792030 -0.01693499 -0.03508554
v -0.03533791 0.00566053 0.09397227
v -0.01924323 -0.01721278 0.04642112
v -0.03173549 -0.01587466 -0.09515722
v -0.03653629 -0.01013601 0.01470542
v 0.03283208 -0.01502775 -0.08718351
v 0.03585347 -0.01016989 0.09394987
v -0.03071868 0.01452259 -0.09865133
v 0.02830727 0.00792347 0.10261793
v 0.03626746 0.00272007 0.09296436
v 0.03538863 -0.01245315 -0.03508554
v 0.02828548 -0.01472287 0.10078129
v -0.03639830 -0.00966852 0.09171006
v -0.02522789 -0.01602033 -0.10756577
v 0.03462603 -0.01471948 0.08718564
v 0.02840169 -0.01257511 -0.10138389
v 0.02604123 0.01605719 -0.09851694
v -0.02830738 -0.01723649 0.04642112
v -0.03283219 0.01518318 -0.08944571
v -0.02377530 0.01647725 0.07585221
v 0.03057331 -0.01680626 0.07359000
v -0.02377530 0.01725641 -0.05320560
v 0.00792018 -0.01678594 -0.03508554
v 0.03707364 -0.00566094 0.01470542
v -0.03615136 0.00339421 -0.09226787
v -0.03607873 -0.01085419 -0.08265909
v 0.03461150 -0.01471948 0.04415891
v -0.03234557 -0.01636926 0.09397227
v -0.03057341 -0.01689434 -0.03963235
v -0.03057341 -0.01721955 0.05320774
v 0.03373995 -0.00566094 -0.09934567
v -0.00566152 -0.01684691 -0.04189456
v -0.01698445 -0.01697903 -0.03508554
v -0.03461887 -0.01471948 -0.03056112
v -0.03474961 -0.01471948 0.03508769
v 0.03057331 -0.01642007 -0.03282333
v -0.03232379 -0.00339461 0.10028853
v -0.03640556 -0.00957705 -0.08944571
f 30 51 2
f 54 95 56
f 56 95 85
f 38 29 79
f 79 109 38
f 20 69 82
f 55 87 31
f 65 31 87
f 2 73 37
f 60 65 87
f 1 65 60
f 35 28 20
f 35 12 28
f 110 109 79
f 12 35 110
f 84 28 32
f 28 12 32
f 116 124 5
f 5 95 116
f 85 95 5
f 115 89 51
f 51 30 115
f 54 27 76
f 76 27 89
f 89 115 76
f 76 115 30
f 78 58 120
f 103 56 85
f 54 56 103
f 9 109 51
f 9 38 109
f 51 89 9
f 29 38 9
f 7 60 87
f 7 28 84
f 84 60 7
f 20 28 107
f 107 69 20
f 28 7 107
f 107 7 64
f 2 51 98
f 51 109 98
f 109 82 98
f 26 82 69
f 26 98 82
f 26 73 2
f 2 98 26
f 114 65 1
f 33 37 73
f 33 107 64
f 69 107 33
f 102 72 36
f 55 31 96
f 22 114 1
f 31 65 22
f 65 114 22
f 109 110 112
f 20 82 112
f 112 82 109
f 112 35 20
f 112 110 35
f 128 76 30
f 54 76 128
f 128 95 54
f 116 95 128
f 1 60 100
f 100 60 84
f 18 23 88
f 63 110 79
f 12 110 63
f 79 23 63
f 63 23 18
f 40 100 84
f 72 100 40
f 44 78 48
f 124 19 125
f 85 5 125
f 125 5 124
f 81 103 85
f 85 125 81
f 81 125 19
f 81 19 58
f 58 78 118
f 118 81 58
f 103 81 118
f 54 103 52
f 52 27 54
f 79 29 92
f 29 52 92
f 92 52 103
f 77 9 89
f 89 27 77
f 73 26 14
f 14 26 69
f 14 33 73
f 69 33 14
f 37 33 70
f 70 33 64
f 21 19 124
f 21 124 116
f 58 19 42
f 19 21 42
f 111 48 10
f 10 48 78
f 17 96 57
f 96 80 57
f 90 23 79
f 90 88 23
f 36 72 99
f 72 40 99
f 11 102 36
f 36 99 11
f 11 88 44
f 18 88 11
f 11 99 18
f 44 48 11
f 11 48 102
f 72 102 97
f 102 48 97
f 1 100 97
f 97 100 72
f 4 77 27
f 4 52 29
f 27 52 4
f 29 9 4
f 9 77 4
f 37 70 106
f 55 96 106
f 106 96 17
f 121 70 64
f 121 87 55
f 55 106 121
f 121 106 70
f 53 48 111
f 104 119 94
f 94 119 66
f 94 128 30
f 94 30 2
f 2 104 94
f 116 128 59
f 59 21 116
f 128 94 59
f 66 21 59
f 59 94 66
f 66 119 47
f 119 42 47
f 47 21 66
f 47 42 21
f 111 10 43
f 46 78 120
f 46 10 78
f 17 57 86
f 86 104 2
f 86 106 17
f 2 37 86
f 37 106 86
f 103 118 6
f 6 92 103
f 6 78 44
f 6 118 78
f 75 40 84
f 75 99 40
f 18 99 75
f 84 32 75
f 75 63 18
f 75 32 12
f 12 63 75
f 31 22 101
f 41 121 64
f 87 121 41
f 64 7 41
f 41 7 87
f 62 119 104
f 104 50 62
f 122 86 16
f 122 50 104
f 104 86 122
f 39 57 126
f 79 92 45
f 45 90 79
f 25 53 111
f 105 97 48
f 48 53 105
f 105 101 22
f 105 22 1
f 1 97 105
f 13 96 31
f 31 101 13
f 13 80 96
f 10 46 93
f 57 49 113
f 16 86 113
f 113 86 57
f 111 43 68
f 68 43 10
f 10 61 68
f 68 113 49
f 68 61 16
f 16 113 68
f 68 25 111
f 126 57 68
f 50 122 91
f 16 61 91
f 91 122 16
f 83 49 57
f 57 39 83
f 83 39 126
f 126 68 83
f 83 68 49
f 92 6 127
f 127 45 92
f 53 25 8
f 8 105 53
f 108 93 46
f 108 46 120
f 45 127 71
f 90 45 71
f 71 6 44
f 71 127 6
f 44 88 71
f 88 90 71
f 25 68 67
f 67 8 25
f 67 68 57
f 67 57 80
f 80 13 67
f 101 105 117
f 105 8 117
f 119 62 74
f 93 108 34
f 34 61 10
f 10 93 34
f 34 91 61
f 101 117 3
f 3 13 101
f 3 67 13
f 8 67 3
f 3 117 8
f 119 74 15
f 15 42 119
f 24 34 108
f 74 34 24
f 24 15 74
f 24 108 120
f 42 15 24
f 120 58 24
f 58 42 24
f 123 74 62
f 123 34 74
f 123 62 50
f 50 91 123
f 91 34 123

