# https://github.com/mikedh/trimesh
v 0.00091313 -0.00694262 0.08145998
v 0.00115850 -0.00692738 0.08190764
v -0.00001333 -0.00692461 0.08328509
v -0.00120752 -0.00691215 0.08321622
v 0.00111665 -0.00684982 -0.04094293
v 0.00125596 -0.00684289 -0.04180383
v 0.00137292 -0.00688998 0.07975539
v 0.00146235 -0.00685951 0.08101231
v 0.00130928 -0.00684705 0.08313013
v 0.00087070 -0.00687890 0.08364667
v -0.00077582 -0.00689691 0.08397381
v -0.00139098 -0.00680688 0.08412877
v -0.00159737 -0.00680688 0.08306126
v -0.00159221 -0.00656865 -0.08199068
v -0.00109859 -0.00669331 -0.08044107
v -0.00000072 -0.00676394 -0.08088873
v 0.00112468 -0.00676256 -0.08044107
v 0.00141763 -0.00675148 -0.07708355
v 0.00158045 -0.00671547 -0.07875370
v 0.00157587 -0.00677918 -0.04073631
v 0.00172894 -0.00671685 0.07978982
v 0.00164581 -0.00675286 0.08192486
v 0.00218299 -0.00653264 -0.03364249
v 0.00150306 -0.00669054 0.08362945
v 0.00116653 -0.00677364 0.08414599
v 0.00083172 -0.00682350 0.08409434
v 0.00073139 -0.00676810 0.08447313
v -0.00096616 -0.00670577 0.08478305
v -0.00125969 -0.00633734 0.08554065
v -0.00172579 -0.00650632 0.08452478
v -0.00181006 -0.00663652 0.08300960
v -0.00218271 -0.00646200 0.03473027
v -0.00217354 -0.00646477 0.02780863
v -0.00181293 -0.00661159 0.01170978
v -0.00186739 -0.00641768 -0.08119866
v -0.00196084 -0.00625286 -0.08324760
v -0.00154233 -0.00651463 -0.08321317
v -0.00082226 -0.00669608 -0.08235227
v 0.00036390 -0.00674871 -0.08230061
v 0.00083573 -0.00671270 -0.08264497
v 0.00136030 -0.00670716 -0.08112978
v 0.00175474 -0.00659220 -0.08050993
v 0.00188717 -0.00663513 -0.07648092
v 0.00193418 -0.00658527 0.08071961
v 0.00226326 -0.00647585 -0.02742678
v 0.00183041 -0.00656865 0.08201095
v 0.00200298 -0.00628194 0.08326787
v 0.00176506 -0.00644538 0.08376719
v 0.00222198 -0.00630549 -0.07665310
v 0.00152714 -0.00637197 0.08505855
v 0.00097619 -0.00649386 0.08528238
v -0.00018360 -0.00658666 0.08509298
v -0.00012512 -0.00612543 0.08593667
v -0.00150736 -0.00567529 0.08628102
v -0.00180490 -0.00601185 0.08554065
v -0.00204053 -0.00597446 0.08459365
v -0.00208582 -0.00617391 0.08300960
v -0.00226985 -0.00627917 0.06389760
v -0.00233693 -0.00635535 0.02782585
v -0.00205142 -0.00618499 -0.07821994
v -0.00206805 -0.00612543 -0.08188738
v -0.00249115 -0.00614067 0.01690962
v -0.00223029 -0.00573761 -0.08390188
v -0.00201588 -0.00607141 -0.08426347
v -0.00154290 -0.00640521 -0.08421181
v -0.00096215 -0.00654233 -0.08397076
v 0.00035301 -0.00664760 -0.08354031
v 0.00121354 -0.00664344 -0.08290324
v 0.00178226 -0.00645785 -0.08218008
v 0.00205343 -0.00636089 -0.08102647
v 0.00205343 -0.00644261 0.07641510
v 0.00199724 -0.00640383 0.08144276
v 0.00236072 -0.00626394 -0.02567054
v 0.00209872 -0.00591213 0.08378441
v 0.00209471 -0.00559495 0.08502411
v 0.00184245 -0.00597584 0.08542012
v 0.00209929 -0.00618360 0.07978982
v 0.00219618 -0.00622931 -0.08006226
v 0.00238250 -0.00588443 -0.07713521
v 0.00137521 -0.00615175 0.08578170
v -0.00020195 -0.00570299 0.08638433
v -0.00050064 -0.00508663 0.08683200
v -0.00151022 -0.00466142 0.08700418
v -0.00189147 -0.00492735 0.08659095
v -0.00208525 -0.00508109 0.08593667
v -0.00215118 -0.00568775 0.08388772
v -0.00219532 -0.00550631 0.08158050
v -0.00232661 -0.00567944 0.06289896
v -0.00249459 -0.00613651 0.02780863
v -0.00218730 -0.00598969 -0.07615378
v -0.00230654 -0.00594260 -0.05606035
v -0.00282481 -0.00343425 -0.05791989
v -0.00244414 -0.00564204 -0.05492396
v -0.00229221 -0.00543151 -0.08252445
v -0.00231400 -0.00482209 -0.08493496
v -0.00222972 -0.00539689 -0.08510715
v -0.00191154 -0.00598692 -0.08498662
v -0.00146207 -0.00616006 -0.08512437
v -0.00091743 -0.00627640 -0.08498662
v 0.00061157 -0.00645923 -0.08433234
v 0.00141591 -0.00644399 -0.08378136
v 0.00188660 -0.00610604 -0.08383301
v 0.00211649 -0.00601324 -0.08290324
v 0.00215892 -0.00618637 0.06782331
v 0.00216006 -0.00595230 0.07992757
v 0.00240830 -0.00602571 -0.02689302
v 0.00231887 -0.00604648 0.01940623
v 0.00215433 -0.00570299 0.08220036
v 0.00217267 -0.00485256 0.08388772
v 0.00212108 -0.00495090 0.08543734
v 0.00193991 -0.00522930 0.08612607
v 0.00162574 -0.00557972 0.08631546
v 0.00220019 -0.00611851 -0.08083708
v 0.00230339 -0.00586227 -0.08021723
v 0.00235097 -0.00557972 -0.08009670
v 0.00240945 -0.00540935 -0.07778949
v 0.00240085 -0.00561434 -0.07577498
v 0.00243811 -0.00565866 -0.02654866
v 0.00125482 -0.00493151 0.08679757
v 0.00028421 -0.00420019 0.08719358
v -0.00049892 -0.00388301 0.08736576
v -0.00161399 -0.00360877 0.08736576
v -0.00192243 -0.00384562 0.08707305
v -0.00207780 -0.00437056 0.08655651
v -0.00218558 -0.00450352 0.08560953
v -0.00244930 0.00651742 0.02636231
v -0.00251408 -0.00578470 0.02448555
v -0.00276519 0.00097440 -0.08751767
v -0.00249287 0.00598278 0.00785294
v -0.00267403 0.00018076 -0.08775872
v -0.00216322 -0.00489827 -0.08591639
v -0.00159278 -0.00571268 -0.08574422
v -0.00074658 -0.00588581 -0.08569256
v 0.00073483 -0.00610327 -0.08526211
v 0.00141477 -0.00608665 -0.08488332
v 0.00212624 -0.00560742 -0.08400519
v 0.00177308 -0.00566420 -0.08514158
v 0.00223230 -0.00568360 -0.08286881
v 0.00220707 -0.00591906 0.07035436
v 0.00218185 -0.00590659 0.07694886
v 0.00221567 -0.00559357 0.07570916
v 0.00220707 -0.00545368 0.07801637
v 0.00242264 -0.00569606 -0.01564966
v 0.00227931 -0.00580133 0.05220656
v 0.00215720 -0.00386362 0.08412877
v 0.00303206 0.00577364 -0.04008203
v 0.00241117 0.00562544 0.05604618
v 0.00206489 -0.00106026 0.08564395
v 0.00207579 -0.00383038 0.08593667
v 0.00201100 -0.00415726 0.08640155
v 0.00174040 -0.00407831 0.08688366
v 0.00156727 -0.00464895 0.08681478
v 0.00229708 -0.00496890 -0.08321317
v 0.00237390 -0.00482624 -0.08028610
v 0.00115621 -0.00323619 0.08741742
v -0.00100514 -0.00323342 0.08753794
v -0.00119032 -0.00242454 0.08758959
v -0.00181293 -0.00263923 0.08741742
v -0.00206461 -0.00213230 0.08702140
v -0.00214946 -0.00358800 0.08655651
v -0.00196313 -0.00214199 0.08722802
v -0.00215290 -0.00226249 0.08640155
v -0.00202161 0.00155889 0.08638433
v -0.00193963 0.00305892 0.08650486
v -0.00183414 0.00581519 0.08182155
v -0.00193676 0.00617531 0.07114638
v -0.00190122 0.00658944 0.07099142
v -0.00194594 0.00705205 0.00502919
v -0.00222685 0.00673349 0.00442656
v -0.00214946 0.00624040 -0.07947686
v -0.00210417 0.00578887 -0.08326482
v -0.00192071 0.00598555 -0.08464226
v -0.00252612 0.00178466 -0.08799978
v -0.00194364 -0.00135251 -0.08779316
v -0.00200785 -0.00427776 -0.08645015
v -0.00167534 -0.00504647 -0.08629519
v -0.00044617 -0.00535672 -0.08615745
v 0.00107136 -0.00567252 -0.08577865
v 0.00203680 -0.00527085 -0.08495218
v 0.00224950 -0.00484009 -0.08417737
v 0.00164868 -0.00511710 -0.08601970
v 0.00235843 -0.00558387 0.02002608
v 0.00222714 0.00084836 -0.08629519
v 0.00212165 0.00614068 -0.07994174
v 0.00300396 0.00623486 -0.03946218
v 0.00185048 0.00652850 0.08264802
v 0.00195826 0.00597032 0.08121893
v 0.00196571 0.00480548 0.08256193
v 0.00200068 0.00109351 0.08591945
v 0.00201272 -0.00108242 0.08640155
v 0.00190494 -0.00135528 0.08700418
v 0.00180060 -0.00303259 0.08707305
v 0.00133680 -0.00258798 0.08750351
v 0.00228447 -0.00375559 -0.08385023
v 0.00024466 -0.00258521 0.08760681
v -0.00053217 0.00177912 0.08789952
v -0.00110777 0.00014336 0.08771012
v -0.00131301 0.00143701 0.08767568
v -0.00169712 0.00198272 0.08740020
v -0.00190294 0.00110182 0.08710749
v -0.00209843 -0.00112397 0.08683200
v -0.00199925 0.00123202 0.08679757
v -0.00182153 0.00323620 0.08703861
v -0.00180032 0.00409217 0.08664260
v -0.00179802 0.00497584 0.08543734
v -0.00186338 0.00486365 0.08402546
v -0.00176362 0.00591768 0.08364667
v -0.00175101 0.00627087 0.08040968
v -0.00165355 0.00625841 0.08335397
v -0.00163348 0.00647863 0.07982426
v -0.00136805 0.00675703 0.08009975
v -0.00137263 0.00683598 0.07765479
v -0.00129638 0.00689277 0.07440059
v -0.00090080 0.00703543 0.07896337
v -0.00024093 0.00718225 0.07872231
v 0.00017013 0.00720441 0.07825743
v -0.00101202 0.00694678 -0.06447996
v -0.00121841 0.00689277 -0.06825071
v -0.00136633 0.00687476 -0.06497929
v -0.00158533 0.00678473 -0.06869838
v -0.00196428 0.00672240 -0.05390809
v -0.00211506 0.00631104 -0.07716964
v -0.00184675 0.00662130 -0.07722130
v -0.00193504 0.00638583 -0.08304099
v -0.00156698 0.00651880 -0.08393632
v -0.00132619 0.00623902 -0.08545151
v -0.00172521 0.00575148 -0.08572700
v -0.00191154 0.00513374 -0.08588196
v -0.00136805 0.00510881 -0.08655346
v -0.00149819 0.00377222 -0.08731105
v -0.00199295 0.00266971 -0.08772428
v 0.00063393 0.00412541 -0.08703557
v -0.00000244 -0.00193700 -0.08768985
v -0.00051096 -0.00190238 -0.08777595
v -0.00163635 0.00517114 -0.08634684
v -0.00163062 -0.00168631 -0.08775872
v -0.00145977 -0.00389687 -0.08688061
v -0.00078672 -0.00458247 -0.08663955
v 0.00090338 -0.00500491 -0.08636407
v 0.00195654 -0.00456862 -0.08581309
v 0.00213942 -0.00444951 -0.08527932
v 0.00119347 -0.00432900 -0.08660512
v 0.00170314 -0.00442042 -0.08632963
v 0.00201502 -0.00328051 -0.08612301
v 0.00208439 -0.00056718 -0.08651903
v 0.00170027 0.00300351 -0.08665677
v 0.00192386 0.00256860 -0.08638128
v 0.00188602 0.00551048 -0.08557203
v 0.00199323 0.00571962 -0.08457339
v 0.00204655 0.00512820 -0.08441842
v 0.00187112 0.00610744 -0.08491775
v 0.00191928 0.00639830 -0.08190460
v 0.00204540 0.00638999 -0.07749678
v 0.00192673 0.00659221 -0.07463860
v 0.00163721 0.00674595 -0.07992452
v 0.00279242 0.00639692 -0.03885955
v 0.00170429 0.00670163 0.08400824
v 0.00182239 0.00596478 0.08445591
v 0.00192099 0.00578333 0.08287185
v 0.00193934 0.00189685 0.08640155
v 0.00194278 0.00311155 0.08519629
v 0.00187914 0.00226251 0.08674591
v 0.00188946 0.00060597 0.08688366
v 0.00179315 0.00182344 0.08712471
v 0.00177996 -0.00007271 0.08722802
v 0.00168766 -0.00171401 0.08738298
v 0.00136030 -0.00090098 0.08760681
v 0.00060182 -0.00151456 0.08767568
v 0.00030313 0.00311016 0.08788230
v -0.00023692 0.00359216 0.08784787
v -0.00109859 0.00311986 0.08774456
v 0.00053761 0.00094947 0.08781343
v -0.00153602 0.00388026 0.08729689
v -0.00153774 0.00510327 0.08643599
v -0.00158303 0.00593153 0.08528238
v -0.00139900 0.00635675 0.08447313
v -0.00133479 0.00665869 0.08226922
v -0.00092775 0.00693847 0.08097787
v -0.00007926 0.00696341 0.08214870
v -0.00006435 0.00698972 -0.04228593
v 0.00078929 0.00706036 0.07772367
v 0.00163950 0.00678196 -0.06246545
v 0.00138725 0.00683182 -0.06315417
v 0.00149790 0.00679027 -0.07901197
v 0.00133795 0.00678196 -0.08190460
v -0.00104757 0.00679166 -0.08230061
v -0.00126886 0.00680551 -0.07725573
v -0.00150621 0.00668224 -0.08221452
v -0.00109745 0.00675288 -0.08329926
v -0.00105617 0.00660744 -0.08426347
v -0.00014748 0.00641492 -0.08531376
v 0.00071591 0.00623625 -0.08588196
v -0.00126600 0.00598140 -0.08591639
v -0.00109401 0.00440797 -0.08708722
v -0.00021284 0.00567391 -0.08632963
v 0.00005260 0.00444813 -0.08700113
v 0.00045162 -0.00193008 -0.08753489
v 0.00089708 0.00574455 -0.08638128
v 0.00149102 0.00538305 -0.08624353
v 0.00117570 0.00459079 -0.08662234
v 0.00083459 -0.00189130 -0.08736271
v 0.00150363 -0.00293702 -0.08676007
v 0.00162345 -0.00166415 -0.08686338
v 0.00187284 -0.00276527 -0.08643293
v 0.00166759 0.00597447 -0.08570978
v 0.00173008 0.00649802 -0.08357474
v 0.00153917 0.00642739 -0.08510715
v 0.00168078 0.00663376 -0.08185294
v 0.00192501 0.00646063 -0.07952851
v 0.00167963 0.00672102 0.08125336
v -0.00055797 0.00650772 0.08540291
v -0.00004658 0.00633736 0.08607440
v 0.00115392 0.00631935 0.08533403
v 0.00145891 0.00587752 0.08578170
v 0.00168250 0.00555064 0.08557509
v 0.00171633 0.00465174 0.08621215
v 0.00185220 0.00415034 0.08560953
v 0.00167046 0.00370989 0.08695253
v 0.00164180 0.00237885 0.08729689
v 0.00160166 0.00043699 0.08745185
v 0.00132591 0.00209353 0.08762403
v 0.00097447 0.00149518 0.08774456
v 0.00101747 0.00332900 0.08765846
v 0.00082197 0.00440520 0.08752072
v -0.00033553 0.00451185 0.08760681
v -0.00111809 0.00416143 0.08755516
v -0.00117484 0.00550355 0.08672869
v -0.00119548 0.00631243 0.08574726
v -0.00091284 0.00671271 0.08349171
v 0.00138438 0.00666700 -0.08383301
v 0.00108397 0.00677088 -0.08324760
v 0.00069986 0.00660883 -0.08478001
v 0.00039945 0.00517114 -0.08667399
v -0.00074487 0.00619747 0.08633268
v 0.00057144 0.00598001 0.08643599
v 0.00107767 0.00529995 0.08693531
v 0.00145203 0.00490659 0.08691809
v 0.00141821 0.00391488 0.08729689
v 0.00044130 0.00528471 0.08714192
v -0.00032807 0.00554926 0.08698697
v -0.00088532 0.00518914 0.08715914
f 185 147 146
f 216 257 281
f 187 147 186
f 186 185 257
f 147 185 186
f 280 217 216
f 284 217 280
f 216 217 168
f 212 168 167
f 254 185 253
f 216 281 282
f 13 34 14
f 92 129 128
f 1 5 6
f 6 2 1
f 118 106 79
f 144 182 146
f 146 141 144
f 143 106 118
f 143 118 146
f 146 182 143
f 182 144 143
f 285 217 284
f 285 286 217
f 168 212 213
f 279 257 216
f 214 213 212
f 168 213 214
f 216 282 283
f 283 282 284
f 283 280 216
f 284 280 283
f 257 185 256
f 256 282 281
f 44 71 72
f 108 74 105
f 19 6 18
f 49 70 78
f 49 43 70
f 49 23 43
f 78 79 49
f 18 6 17
f 17 6 5
f 17 19 18
f 92 128 95
f 87 86 125
f 125 88 87
f 62 93 91
f 92 93 62
f 62 89 92
f 92 89 127
f 127 89 88
f 248 247 246
f 146 116 154
f 147 145 109
f 146 147 109
f 145 110 109
f 9 2 8
f 20 23 8
f 43 23 20
f 20 19 43
f 6 19 20
f 78 113 114
f 114 79 78
f 118 79 117
f 117 79 116
f 146 118 117
f 117 116 146
f 140 141 105
f 106 143 107
f 107 143 144
f 258 186 257
f 217 286 218
f 218 168 217
f 167 168 126
f 126 166 167
f 126 88 125
f 126 127 88
f 126 129 92
f 92 127 126
f 286 285 331
f 165 207 167
f 206 207 165
f 167 166 165
f 166 126 165
f 275 207 205
f 205 207 206
f 167 207 208
f 215 279 216
f 216 168 215
f 168 214 215
f 284 282 255
f 282 256 255
f 185 254 255
f 255 256 185
f 255 285 284
f 310 281 257
f 257 256 310
f 310 256 281
f 77 71 105
f 77 72 71
f 105 74 77
f 8 23 21
f 45 71 44
f 44 21 45
f 45 21 23
f 23 49 45
f 92 95 94
f 16 17 5
f 89 62 59
f 58 31 57
f 88 89 58
f 89 59 58
f 58 59 31
f 57 86 58
f 86 87 58
f 58 87 88
f 60 62 91
f 142 109 108
f 105 141 142
f 142 108 105
f 142 141 146
f 146 109 142
f 8 2 7
f 7 20 8
f 2 6 7
f 6 20 7
f 115 154 116
f 116 79 115
f 79 114 115
f 105 71 104
f 187 186 259
f 186 258 259
f 190 189 260
f 148 110 145
f 148 145 147
f 189 190 148
f 149 110 148
f 148 190 149
f 287 218 286
f 220 287 223
f 218 287 220
f 169 126 168
f 307 306 251
f 330 331 285
f 330 306 307
f 307 332 330
f 330 332 331
f 233 242 234
f 293 227 226
f 164 205 206
f 206 165 164
f 164 165 126
f 209 208 207
f 209 207 275
f 275 276 209
f 276 277 209
f 209 210 167
f 167 208 209
f 211 214 212
f 211 212 167
f 167 210 211
f 210 209 211
f 211 209 277
f 309 254 253
f 309 255 254
f 71 45 73
f 73 104 71
f 107 104 73
f 106 107 73
f 73 79 106
f 73 49 79
f 73 45 49
f 91 93 90
f 90 60 91
f 61 60 90
f 70 43 42
f 43 19 42
f 19 17 41
f 41 42 19
f 68 42 41
f 70 42 69
f 69 42 68
f 17 16 39
f 128 171 172
f 172 171 224
f 224 225 172
f 226 227 172
f 172 225 226
f 63 95 96
f 63 94 95
f 61 90 63
f 63 90 93
f 63 93 92
f 92 94 63
f 61 63 36
f 13 31 32
f 31 59 32
f 35 59 62
f 62 60 35
f 35 36 14
f 35 60 61
f 61 36 35
f 154 115 153
f 153 194 154
f 246 303 301
f 44 46 22
f 22 9 8
f 22 21 44
f 8 21 22
f 139 107 144
f 139 104 107
f 139 144 141
f 141 140 139
f 139 140 105
f 105 104 139
f 187 259 188
f 188 259 189
f 189 148 188
f 188 147 187
f 188 148 147
f 260 189 261
f 189 259 261
f 261 258 260
f 261 259 258
f 288 287 286
f 223 287 288
f 224 223 288
f 288 225 224
f 168 220 221
f 221 220 223
f 221 169 168
f 168 218 219
f 219 220 168
f 218 220 219
f 248 251 249
f 306 330 308
f 285 255 308
f 308 330 285
f 299 248 246
f 163 164 126
f 201 202 163
f 163 202 164
f 214 211 278
f 278 211 277
f 278 277 329
f 278 215 214
f 329 279 278
f 279 215 278
f 30 31 13
f 152 111 151
f 192 193 151
f 150 110 149
f 150 111 110
f 191 192 150
f 150 151 111
f 192 151 150
f 149 190 150
f 150 190 191
f 266 192 191
f 267 193 266
f 266 193 192
f 324 269 323
f 323 338 324
f 338 319 318
f 315 258 257
f 257 279 311
f 311 312 257
f 311 279 329
f 311 334 312
f 99 65 98
f 38 15 14
f 38 16 15
f 38 39 16
f 128 172 173
f 234 174 173
f 233 234 173
f 173 232 233
f 173 231 232
f 294 231 230
f 231 173 230
f 96 95 130
f 130 95 128
f 128 173 130
f 130 173 174
f 236 234 237
f 237 174 236
f 236 174 234
f 176 174 237
f 239 242 181
f 239 234 242
f 14 36 37
f 37 36 65
f 37 38 14
f 98 65 97
f 97 132 98
f 33 34 13
f 13 32 33
f 33 14 34
f 33 35 14
f 33 32 59
f 59 35 33
f 240 244 241
f 241 244 183
f 247 248 183
f 246 247 183
f 183 249 250
f 248 249 183
f 146 154 183
f 154 194 183
f 302 301 303
f 297 232 246
f 246 301 297
f 233 232 297
f 297 242 233
f 297 301 242
f 170 223 224
f 224 171 170
f 126 169 170
f 169 221 170
f 129 126 170
f 170 128 129
f 170 171 128
f 332 291 290
f 226 225 290
f 290 291 226
f 184 249 251
f 253 185 184
f 184 185 146
f 250 249 184
f 146 183 184
f 184 183 250
f 246 232 300
f 300 299 246
f 232 299 300
f 248 299 305
f 307 251 305
f 305 251 248
f 298 299 232
f 298 305 299
f 57 31 56
f 31 30 56
f 56 86 57
f 1 2 3
f 29 30 12
f 12 30 13
f 75 109 110
f 110 111 75
f 111 76 75
f 74 108 75
f 108 109 75
f 74 75 47
f 47 75 76
f 47 22 46
f 47 77 74
f 72 77 47
f 44 72 47
f 47 46 44
f 152 151 155
f 155 151 193
f 269 196 272
f 157 196 197
f 156 196 157
f 197 158 157
f 200 202 201
f 322 272 267
f 269 272 322
f 191 190 263
f 267 266 320
f 338 323 321
f 321 319 338
f 321 320 319
f 321 323 269
f 269 322 321
f 321 322 267
f 267 320 321
f 262 190 260
f 262 263 190
f 338 318 337
f 324 338 337
f 337 336 324
f 78 70 103
f 103 113 78
f 194 153 180
f 241 183 180
f 180 183 194
f 136 103 102
f 70 69 102
f 102 103 70
f 134 99 133
f 98 132 133
f 133 99 98
f 132 176 133
f 100 99 134
f 228 172 227
f 227 173 228
f 228 173 172
f 227 293 235
f 235 173 227
f 175 130 174
f 174 176 175
f 238 176 237
f 237 234 238
f 234 239 238
f 65 36 64
f 64 97 65
f 64 36 63
f 64 63 96
f 96 97 64
f 243 240 181
f 244 240 243
f 243 304 244
f 181 242 243
f 303 304 243
f 243 302 303
f 242 301 243
f 301 302 243
f 136 102 137
f 179 240 241
f 241 180 179
f 179 180 136
f 136 137 179
f 181 240 179
f 179 137 181
f 244 304 245
f 245 183 244
f 245 304 303
f 245 303 246
f 246 183 245
f 222 221 223
f 223 170 222
f 222 170 221
f 331 332 289
f 332 290 289
f 286 331 289
f 289 290 225
f 289 288 286
f 225 288 289
f 252 251 306
f 252 184 251
f 306 308 252
f 252 309 253
f 253 184 252
f 255 309 252
f 252 308 255
f 296 298 232
f 296 231 294
f 232 231 296
f 295 298 294
f 293 298 295
f 292 298 293
f 292 293 226
f 226 291 292
f 292 332 307
f 292 291 332
f 307 305 292
f 305 298 292
f 162 126 125
f 162 163 126
f 201 163 162
f 55 30 29
f 29 54 55
f 55 56 30
f 83 54 82
f 4 3 11
f 4 16 5
f 4 5 1
f 1 3 4
f 15 16 4
f 13 14 4
f 14 15 4
f 4 12 13
f 11 12 4
f 9 22 24
f 11 3 10
f 2 9 10
f 10 3 2
f 11 27 28
f 29 12 28
f 28 12 11
f 82 54 81
f 112 76 111
f 112 80 76
f 112 111 152
f 112 81 80
f 121 155 156
f 120 155 121
f 82 120 121
f 121 83 82
f 195 196 156
f 156 155 195
f 195 155 193
f 159 200 201
f 161 200 159
f 265 266 191
f 265 320 266
f 260 258 317
f 317 262 260
f 312 334 335
f 316 337 318
f 315 337 316
f 318 262 316
f 262 317 316
f 258 315 316
f 316 317 258
f 314 315 257
f 314 337 315
f 336 337 314
f 314 335 336
f 270 196 269
f 270 269 324
f 340 335 334
f 164 202 203
f 202 200 203
f 197 196 198
f 198 158 197
f 138 103 136
f 138 180 153
f 136 180 138
f 138 115 114
f 138 153 115
f 138 114 113
f 113 103 138
f 134 133 178
f 178 239 181
f 181 137 178
f 177 133 176
f 176 238 177
f 177 238 239
f 239 178 177
f 177 178 133
f 135 100 134
f 135 137 102
f 134 178 135
f 135 178 137
f 17 39 40
f 40 41 17
f 68 41 40
f 65 99 66
f 99 100 66
f 66 37 65
f 38 37 66
f 229 230 173
f 173 235 229
f 294 230 229
f 229 235 293
f 229 295 294
f 293 295 229
f 96 130 131
f 130 175 131
f 131 175 176
f 131 176 132
f 131 97 96
f 132 97 131
f 294 298 333
f 333 296 294
f 298 296 333
f 56 55 85
f 85 124 125
f 125 86 85
f 86 56 85
f 156 157 122
f 122 157 158
f 122 121 156
f 83 121 122
f 54 83 84
f 124 85 84
f 84 55 54
f 84 85 55
f 48 47 76
f 22 47 48
f 48 24 22
f 9 24 25
f 25 10 9
f 26 27 11
f 11 10 26
f 26 25 27
f 10 25 26
f 27 25 51
f 53 54 29
f 53 81 54
f 80 81 53
f 29 51 53
f 53 51 80
f 82 81 119
f 81 112 119
f 119 112 152
f 119 120 82
f 152 155 119
f 119 155 120
f 268 272 196
f 196 195 268
f 268 195 193
f 268 193 267
f 267 272 268
f 160 162 125
f 125 124 160
f 201 162 160
f 160 159 201
f 263 262 264
f 191 263 264
f 264 265 191
f 264 318 319
f 264 262 318
f 319 320 264
f 320 265 264
f 313 314 257
f 335 314 313
f 257 312 313
f 312 335 313
f 196 270 271
f 271 270 326
f 271 198 196
f 326 270 325
f 325 270 324
f 336 335 339
f 335 340 339
f 324 336 339
f 339 325 324
f 340 325 339
f 205 164 204
f 164 203 204
f 275 205 204
f 328 327 334
f 328 276 275
f 334 311 328
f 328 311 329
f 329 277 328
f 328 277 276
f 341 327 326
f 326 325 341
f 341 325 340
f 341 340 334
f 334 327 341
f 273 271 326
f 273 204 203
f 326 327 273
f 68 100 101
f 100 135 101
f 101 135 102
f 101 69 68
f 101 102 69
f 67 66 100
f 67 100 68
f 68 40 67
f 67 40 39
f 39 38 67
f 38 66 67
f 83 122 123
f 123 84 83
f 124 84 123
f 123 122 158
f 158 161 123
f 161 159 123
f 123 160 124
f 159 160 123
f 52 28 27
f 27 51 52
f 29 28 52
f 52 51 29
f 80 51 50
f 50 51 25
f 76 80 50
f 50 25 24
f 50 48 76
f 24 48 50
f 275 204 274
f 274 328 275
f 327 328 274
f 274 273 327
f 204 273 274
f 198 271 199
f 271 273 199
f 158 198 199
f 199 203 200
f 199 273 203
f 199 161 158
f 199 200 161

