# https://github.com/mikedh/trimesh
v -0.03137931 -0.00043946 -0.05759069
v 0.01654137 -0.00823545 0.05786120
v 0.03145337 0.00432076 -0.05106284
v -0.03006584 0.01127049 0.02271958
v 0.01568884 0.02775365 0.02510630
v -0.00765498 -0.03087478 0.02272514
v 0.00281141 -0.03127233 -0.05701274
v -0.00195087 0.03165521 -0.05701262
v 0.03080261 -0.00708415 0.02272337
v -0.01329310 0.01447194 0.05668683
v -0.01199141 -0.01521709 0.05652557
v -0.02773328 -0.01450547 0.03343776
v -0.01135541 0.02957092 0.03332627
v 0.01649098 -0.02602080 0.03402408
v -0.02123114 -0.02333409 -0.05106300
v 0.02470144 -0.01872619 -0.05850013
v 0.01172390 0.01560854 0.05659893
v -0.02310955 0.02192326 -0.05225191
v 0.01987957 0.02498857 -0.05106284
v 0.02840855 0.01208079 0.03405118
v 0.02184926 0.01264268 -0.06142910
v 0.00344230 -0.01889783 0.05665846
v -0.02418763 0.01947401 0.03462842
v -0.03116722 0.00075127 0.03415268
v -0.01933579 -0.00163180 0.05677170
v -0.02217870 -0.01234181 -0.06180559
v -0.01682604 -0.02602493 0.03403046
v -0.01027925 -0.02305208 -0.06179320
v 0.00357718 0.03112335 0.03409251
v 0.00231356 -0.03080113 0.03405862
v 0.02404865 -0.02056751 0.02272337
v 0.00994981 0.02335910 -0.06152074
v 0.02798913 -0.00519548 -0.06099852
v -0.01265914 0.02335910 -0.06164872
v -0.02455859 0.01145675 -0.06159009
v 0.01559124 -0.02738508 -0.05225204
v 0.02737327 -0.01353180 0.03429623
v 0.00995278 -0.03008841 0.02272337
v -0.03176443 -0.00401167 0.02152909
v -0.02382885 -0.02111974 0.02272514
v -0.00076059 0.01933025 0.05799435
v -0.03011280 0.01024867 -0.04986483
v 0.03089161 0.00664896 0.02272196
v 0.03066798 -0.00044304 0.03389285
v -0.00314048 0.03178315 0.02391652
v -0.01966790 0.02550547 0.02510178
v 0.02502048 0.01944383 0.02510630
v -0.00909046 -0.03015597 -0.05225267
v 0.01798910 0.00551023 0.05693350
v 0.02752101 0.01617062 -0.05106284
v 0.00995315 0.03041188 -0.05225204
v 0.01113975 -0.02304594 -0.06163798
v -0.02798669 -0.01472149 -0.05225267
v 0.02040031 0.02306244 0.03440771
v -0.01360670 0.02888371 -0.05225267
v 0.02974754 -0.01097304 -0.05225204
v -0.00789955 -0.03011588 0.03343776
v 0.01954297 0.02224690 -0.06034131
v 0.02909320 0.00555166 -0.06032191
v -0.01986015 -0.02192760 -0.06043833
v -0.03006141 0.01031329 0.03216063
v 0.00638299 0.03138298 0.02510630
v -0.02901823 -0.01353103 0.02391365
v -0.01612121 -0.02749662 0.02391365
v 0.01269538 0.02859143 0.03367845
v -0.02125251 0.01978901 -0.06103155
v 0.00162318 -0.03149305 0.02510155
v 0.01786565 -0.02615425 0.02510155
v -0.00194964 -0.02543010 -0.06174944
v 0.02324185 -0.02081318 0.03224362
v -0.02657726 0.01829639 0.02628717
v -0.02983361 -0.00914040 -0.05853729
v 0.02232014 -0.02233206 -0.05106284
v -0.03111642 -0.00702742 0.02944253
v -0.01810555 0.00749534 0.05693888
v -0.01133517 0.03007657 0.02391652
v -0.01867184 0.02553174 0.03343662
v -0.03179604 0.00313115 0.02628717
v -0.02312526 -0.02162706 0.03105230
v 0.00995278 -0.02985297 0.03105453
v 0.01081137 -0.01552822 0.05684506
v -0.01491714 -0.02746553 -0.05701262
v 0.00281014 0.02692919 -0.06146130
v -0.03039873 0.00789260 -0.05759028
v -0.02574853 0.00312449 -0.06173706
v -0.02723365 0.01630207 -0.05581950
v 0.01874559 -0.02354366 -0.05989051
v 0.02303920 -0.01114973 -0.06148606
v -0.00943893 0.02981107 -0.05857816
v 0.03145436 -0.00282099 -0.05463304
v 0.03145697 -0.00044133 0.02629064
v 0.02860156 -0.01335731 0.02629064
v -0.01693634 -0.00954353 0.05675803
v 0.01546291 0.02761531 -0.05701274
v -0.00405393 0.03113429 0.03411671
v 0.02864544 0.01266112 -0.05821859
v -0.01870935 0.02550706 -0.05703298
v -0.00667900 0.03122397 -0.05106300
v -0.00393141 -0.01893623 0.05674790
v -0.03158629 0.00313350 -0.05106271
v 0.03078640 0.00613946 0.03056362
v -0.02574853 -0.00400955 -0.06176472
v -0.02538664 -0.01801340 -0.05820414
v 0.00976014 -0.02973789 -0.05701274
v -0.00420713 -0.03086961 -0.05759028
v 0.02499768 0.01941160 -0.05701274
v 0.02856786 0.01360705 0.02629106
v 0.03020206 -0.00758231 0.03224362
v 0.00519003 -0.02661603 -0.06148565
v 0.00845931 0.02999542 -0.05893813
v 0.02517879 0.01868635 0.03225235
v 0.00281191 0.03176237 -0.05225204
v 0.01888209 -0.00108970 0.05665118
v -0.00432953 0.02692919 -0.06151083
v -0.03146314 -0.00401285 -0.05225267
v 0.02045418 0.02428721 0.02748323
v 0.02827128 -0.01269821 -0.05848362
v 0.03010063 0.01027153 -0.05225204
v -0.00757884 0.03116448 0.02867238
v -0.02644504 -0.01783153 0.02748673
v -0.00314130 -0.03144027 0.02986378
v -0.01125195 -0.02974486 0.02748673
v -0.01637030 -0.02694220 -0.05106300
v 0.02610902 -0.01782569 -0.05225204
v 0.00638040 0.01823993 0.05691312
v -0.02266500 0.02265146 0.02986344
v 0.02408903 0.02090601 -0.05106284
v 0.00162194 0.03179150 0.02867540
f 81 70 2
f 86 66 84
f 35 84 66
f 2 70 37
f 37 108 2
f 22 81 2
f 86 71 18
f 36 68 38
f 100 39 78
f 100 115 39
f 8 112 110
f 110 112 51
f 83 114 110
f 70 68 31
f 38 68 80
f 67 38 80
f 24 12 25
f 125 65 29
f 17 65 125
f 4 71 86
f 71 4 61
f 78 24 61
f 61 4 78
f 41 125 29
f 2 49 41
f 41 49 17
f 17 125 41
f 97 66 86
f 86 18 97
f 97 18 46
f 46 55 97
f 40 103 15
f 15 103 82
f 15 64 40
f 103 53 72
f 72 53 63
f 74 12 24
f 74 24 78
f 78 39 74
f 63 12 74
f 39 115 74
f 115 72 74
f 74 72 63
f 120 12 63
f 63 53 120
f 120 103 40
f 120 53 103
f 82 103 60
f 26 28 60
f 60 72 26
f 103 72 60
f 108 37 92
f 92 37 70
f 70 31 92
f 118 96 50
f 3 96 118
f 50 107 118
f 16 87 33
f 33 87 88
f 33 88 21
f 84 35 85
f 83 110 58
f 56 92 124
f 124 92 31
f 68 36 73
f 73 31 68
f 73 124 31
f 16 124 73
f 73 87 16
f 36 87 73
f 67 80 30
f 30 80 22
f 14 68 70
f 14 80 68
f 70 81 14
f 81 22 14
f 22 80 14
f 17 111 54
f 54 65 17
f 2 108 113
f 113 49 2
f 20 111 17
f 17 49 20
f 20 107 111
f 20 101 107
f 93 25 12
f 2 41 93
f 93 41 25
f 86 84 42
f 42 4 86
f 84 100 42
f 42 100 78
f 78 4 42
f 75 41 10
f 25 41 75
f 24 25 75
f 75 61 24
f 126 77 46
f 46 18 126
f 126 18 71
f 76 55 46
f 119 98 76
f 76 98 55
f 119 76 13
f 13 77 10
f 10 41 13
f 46 77 13
f 13 76 46
f 66 97 89
f 8 110 89
f 89 110 114
f 89 97 55
f 89 98 8
f 55 98 89
f 123 15 82
f 64 15 123
f 82 48 123
f 1 72 115
f 115 100 1
f 1 100 84
f 84 85 1
f 79 27 11
f 11 93 79
f 79 93 12
f 12 120 79
f 79 120 40
f 40 64 79
f 64 27 79
f 122 27 64
f 122 48 6
f 64 123 122
f 122 123 48
f 109 69 52
f 52 87 109
f 88 87 52
f 7 38 67
f 108 92 9
f 9 92 56
f 91 108 9
f 90 9 56
f 90 3 91
f 91 9 90
f 8 98 45
f 45 98 119
f 45 112 8
f 45 128 112
f 51 112 62
f 112 128 62
f 29 65 62
f 62 128 29
f 26 72 102
f 102 85 26
f 72 1 102
f 102 1 85
f 32 58 21
f 83 58 32
f 32 114 83
f 32 69 28
f 32 52 69
f 21 88 32
f 88 52 32
f 94 58 110
f 94 110 51
f 11 27 99
f 99 30 22
f 99 22 2
f 2 93 99
f 99 93 11
f 50 127 47
f 47 107 50
f 111 107 47
f 19 94 5
f 5 94 51
f 51 62 5
f 5 62 65
f 43 118 107
f 107 101 43
f 3 118 43
f 91 3 43
f 43 101 91
f 101 20 44
f 44 113 108
f 49 113 44
f 44 20 49
f 44 108 91
f 91 101 44
f 77 126 23
f 61 75 23
f 71 61 23
f 23 126 71
f 10 77 23
f 23 75 10
f 119 13 95
f 29 128 95
f 95 41 29
f 95 13 41
f 95 45 119
f 128 45 95
f 66 89 34
f 34 89 114
f 34 35 66
f 34 85 35
f 114 32 34
f 26 85 34
f 34 28 26
f 34 32 28
f 27 122 57
f 57 99 27
f 30 99 57
f 109 87 104
f 104 7 109
f 104 87 36
f 104 36 38
f 38 7 104
f 105 69 109
f 109 7 105
f 28 69 105
f 105 48 82
f 82 60 105
f 105 60 28
f 6 48 105
f 59 90 33
f 59 33 21
f 59 96 3
f 3 90 59
f 21 58 59
f 59 58 96
f 117 90 56
f 117 124 16
f 56 124 117
f 16 33 117
f 33 90 117
f 58 94 106
f 96 58 106
f 19 127 106
f 106 94 19
f 50 96 106
f 106 127 50
f 65 54 116
f 116 5 65
f 116 54 111
f 111 47 116
f 19 5 116
f 116 127 19
f 116 47 127
f 121 122 6
f 121 57 122
f 6 105 121
f 67 30 121
f 30 57 121
f 121 7 67
f 121 105 7

