# https://github.com/mikedh/trimesh
v -0.00286550 -0.03434229 0.11158480
v -0.00286550 -0.03434229 0.11161421
v -0.00593734 -0.02963784 0.13020265
v -0.00191355 -0.03312505 0.11276128
v -0.00285770 -0.03434229 0.11161421
v -0.00429175 -0.03105246 0.13020265
v -0.00594291 -0.02949309 0.13305563
v -0.00623684 -0.02718363 0.13305563
v -0.00032252 -0.03060505 0.12161432
v -0.00174098 -0.03271711 0.11589367
v -0.00177772 -0.03250656 0.11874664
v -0.00175322 -0.03216442 0.12161432
v -0.00229099 -0.03174990 0.12448201
v -0.00124774 -0.02975627 0.12995265
v -0.00226761 -0.02934176 0.13305563
v -0.00429175 -0.03022343 0.13305563
v -0.00585049 -0.02891408 0.13482034
v -0.00642946 -0.02167647 0.13896744
v -0.00662319 -0.02145934 0.13592330
v -0.00686034 -0.01859719 0.13592330
v -0.00707856 -0.01573505 0.13592330
v 0.00008164 -0.02905225 0.12448201
v 0.00000816 -0.02863773 0.12883499
v -0.00118985 -0.02718363 0.13305563
v -0.00285102 -0.02863773 0.13451152
v -0.00429175 -0.02885486 0.13474682
v -0.00551648 -0.02593350 0.13745274
v -0.00578703 -0.02593350 0.13745274
v -0.00629696 -0.02086717 0.14105572
v -0.00722664 -0.01001076 0.13879098
v -0.00825653 0.00714896 0.13879098
v -0.00905817 0.02145969 0.13879098
v 0.00003933 -0.02876274 0.12733497
v 0.00000816 -0.02835481 0.12883499
v -0.00048285 -0.02145934 0.13305563
v -0.00054074 -0.02432149 0.13305563
v -0.00183561 -0.02432149 0.13559976
v -0.00244464 -0.02718363 0.13495269
v -0.00509339 -0.02086717 0.14105572
v -0.00603754 0.00237214 0.14321750
v -0.00631032 0.00428681 0.14330573
v -0.00864733 0.01947921 0.14315867
v -0.00874531 0.01899890 0.14164394
v -0.00881434 0.02124256 0.14151160
v -0.00875310 0.02314408 0.14048217
v -0.00887335 0.02362439 0.13879098
v -0.00896464 0.02446659 0.13607036
v -0.00915169 0.02432183 0.13305563
v -0.00072556 -0.01573505 0.13305563
v -0.00094936 -0.01573505 0.13592330
v -0.00122882 -0.01859719 0.13592330
v -0.00205272 -0.01573505 0.13801156
v -0.00235111 -0.01859719 0.13783509
v -0.00548196 0.00428681 0.14330573
v -0.00557549 0.00237214 0.14321750
v -0.00650294 0.00714896 0.14333515
v -0.00672005 0.01573540 0.14342338
v -0.00864733 0.02014376 0.14315867
v -0.00879875 0.02609176 0.13521741
v -0.00783455 0.02314408 0.14048217
v -0.00886444 0.02624309 0.13305563
v -0.00871636 0.02877625 0.12102608
v -0.00872193 0.02878283 0.11874664
v -0.00235111 0.00428681 0.13592330
v -0.00280760 0.00910969 0.13755567
v -0.00271964 0.00714896 0.13787921
v -0.00314385 0.00714896 0.13932040
v -0.00433183 0.00714896 0.14164394
v -0.00545413 0.01573540 0.14342338
v -0.00545858 0.01287325 0.14339398
v -0.00554877 0.01796590 0.14330573
v -0.00796593 0.02014376 0.14315867
v -0.00715316 0.02831568 0.12448201
v -0.00768313 0.02609176 0.13521741
v -0.00592732 0.02272298 0.14011453
v -0.00698949 0.02380862 0.13901158
v -0.00605870 0.01987399 0.14295280
v -0.00797707 0.02877625 0.12102608
v -0.00620455 0.03169104 0.07512852
v -0.00625465 0.03174367 0.07296673
v -0.00635820 0.03207265 0.06154014
v -0.00645729 0.03232926 0.05008413
v -0.00644504 0.03240822 0.04723116
v -0.00290335 0.01101121 0.13592330
v -0.00405126 0.02145969 0.13592330
v -0.00318727 0.01004400 0.13862920
v -0.00524370 0.01878835 0.14184983
v -0.00490300 0.02164392 0.13901158
v -0.00542184 0.02081488 0.14104100
v -0.00689931 0.02630230 0.13330562
v -0.00577478 0.02572988 0.13442329
v -0.00550646 0.02601280 0.13251150
v -0.00498651 0.02672340 0.12733497
v -0.00561446 0.02871045 0.11515836
v -0.00548308 0.02886179 0.11302599
v -0.00689931 0.02536141 0.13607036
v -0.00521586 0.02344674 0.13821743
v -0.00551982 0.03169104 0.07512852
v -0.00503438 0.03207265 0.06154014
v -0.00492193 0.03240822 0.04723116
v -0.00403344 0.02432183 0.12448201
v -0.00491302 0.02400601 0.13592330
v -0.00438416 0.01859754 0.13879098
v -0.00414367 0.02432183 0.12733497
v -0.00440977 0.02432183 0.13020265
v -0.00524592 0.02628915 0.13020265
v -0.00490411 0.02705896 0.12448201
v -0.00543409 0.03174367 0.07296673
v -0.00429104 0.03352700 -0.01287800
v -0.00429104 0.03325689 -0.01574134
v -0.00610276 0.03238870 -0.01574134
v -0.00616565 0.03262022 -0.01287800
v -0.00240071 0.03231153 -0.01001776
v -0.00236730 0.03238227 -0.01287800
v -0.00235944 0.03234368 -0.01574134
v -0.00238695 0.03217648 -0.01860159
v -0.00266795 0.03161697 -0.02596137
v -0.00429104 0.03227937 -0.02146493
v -0.00598880 0.03188708 -0.02146493
v -0.00310418 0.03161697 -0.02596137
v -0.00607722 0.03204786 -0.01860159
v -0.00173654 0.03004137 -0.01001776
v -0.00165597 0.03004137 -0.01287800
v -0.00161864 0.03004137 -0.01574134
v -0.00581195 0.03160411 -0.02305774
v -0.00020773 -0.03435604 -0.08442874
v 0.00009966 -0.03435604 -0.08442874
v -0.00163983 -0.03424568 -0.08442874
v -0.00017198 -0.03435223 -0.08647819
v 0.00153177 -0.03412391 -0.08442874
v 0.00147220 -0.03412771 -0.08156159
v 0.00008060 -0.03435223 -0.08647819
v -0.00429197 -0.03361398 -0.08442874
v -0.00429197 -0.03359876 -0.08728555
v -0.00429197 -0.03354929 -0.09015270
v -0.00143014 -0.03417338 -0.09015270
v -0.00124666 -0.03425329 -0.08737870
v -0.00143014 -0.03408966 -0.09299915
v -0.00143014 -0.03397930 -0.09586632
v 0.00119340 -0.03415055 -0.08737870
v 0.00142931 -0.03405160 -0.09015270
v 0.00429113 -0.03317256 -0.09015270
v 0.00429113 -0.03321822 -0.08728555
v 0.00429113 -0.03323725 -0.08442874
v 0.00429113 -0.03322964 -0.07870478
v 0.00142931 -0.03386134 -0.09586632
v 0.00142931 -0.03396789 -0.09299915
v -0.00677015 -0.03227449 -0.08442874
v -0.00677253 -0.03227068 -0.08728555
v -0.00675824 -0.03225166 -0.09015270
v -0.00672249 -0.03221360 -0.09299915
v -0.00429197 -0.03346938 -0.09299915
v -0.00429197 -0.03335902 -0.09586632
v -0.00429197 -0.03321442 -0.09872312
v -0.00143014 -0.03383089 -0.09872312
v 0.00429113 -0.03311167 -0.09299915
v 0.00636423 -0.03197386 -0.09299915
v 0.00639044 -0.03201572 -0.08728555
v 0.00638091 -0.03201953 -0.08442874
v 0.00633325 -0.03201572 -0.07870478
v 0.00142931 -0.03371292 -0.09872312
v 0.00429113 -0.03286813 -0.09872312
v 0.00429113 -0.03300893 -0.09586632
v -0.00820226 -0.03104535 -0.08442874
v -0.00820464 -0.03105296 -0.08728555
v -0.00819034 -0.03104154 -0.09015270
v -0.00815222 -0.03101110 -0.09299915
v -0.00665816 -0.03215652 -0.09586632
v -0.00657237 -0.03208802 -0.09872312
v -0.00646038 -0.03199289 -0.10157992
v -0.00632694 -0.03189014 -0.10444707
v -0.00429197 -0.03302415 -0.10157992
v -0.00143014 -0.03364062 -0.10157992
v 0.00142931 -0.03352646 -0.10157992
v 0.00616407 -0.03180643 -0.10157992
v 0.00631419 -0.03192820 -0.09586632
v 0.00779395 -0.03059631 -0.09299915
v 0.00774391 -0.03056587 -0.09586632
v 0.00780587 -0.03059631 -0.09015270
v 0.00782016 -0.03058489 -0.08728555
v 0.00778442 -0.03048976 -0.08156159
v 0.00776536 -0.03041365 -0.07870478
v 0.00781302 -0.03055445 -0.08442874
v 0.00429113 -0.03271972 -0.10157992
v 0.00605684 -0.03171510 -0.10444707
v -0.00921974 -0.02954983 -0.07870478
v -0.00923880 -0.02958788 -0.08156159
v -0.00925549 -0.02961452 -0.08442874
v -0.00926263 -0.02962213 -0.08728555
v -0.00925072 -0.02961071 -0.09015270
v -0.00924119 -0.02958027 -0.09299915
v -0.00921498 -0.02952319 -0.09586632
v -0.00917685 -0.02945089 -0.09872312
v -0.00808788 -0.03095402 -0.09586632
v -0.00800210 -0.03088172 -0.09872312
v -0.00789248 -0.03079800 -0.10157992
v -0.00775904 -0.03069906 -0.10444707
v -0.00759224 -0.03058870 -0.10730387
v -0.00616252 -0.03176837 -0.10730387
v -0.00429197 -0.03281105 -0.10444707
v -0.00143014 -0.03342371 -0.10444707
v 0.00142931 -0.03330575 -0.10444707
v 0.00429113 -0.03252184 -0.10444707
v 0.00735789 -0.03033754 -0.10730387
v 0.00748895 -0.03040224 -0.10444707
v 0.00759618 -0.03044790 -0.10157992
v 0.00766766 -0.03051640 -0.09872312
v 0.00895441 -0.02916548 -0.09299915
v 0.00891867 -0.02908557 -0.09872312
v 0.00894250 -0.02913504 -0.09586632
v 0.00880191 -0.02890672 -0.10730387
v 0.00884718 -0.02897141 -0.10444707
v 0.00894250 -0.02915407 -0.08728555
v 0.00895441 -0.02916548 -0.09015270
v 0.00891390 -0.02912362 -0.08442874
v 0.00886625 -0.02905893 -0.08156159
v 0.00877093 -0.02890672 -0.07583763
v 0.00858745 -0.02862131 -0.06575601
v 0.00580902 -0.03153244 -0.10921877
v 0.00592578 -0.03161235 -0.10730387
v -0.01038735 -0.02718288 -0.07298082
v -0.01043501 -0.02718288 -0.07583763
v -0.01047313 -0.02718288 -0.07870478
v -0.01050649 -0.02718288 -0.08156159
v -0.01053271 -0.02718288 -0.08442874
v -0.01053985 -0.02718288 -0.08728555
v -0.01052079 -0.02718288 -0.09015270
v -0.01049934 -0.02718288 -0.09299915
v -0.01046360 -0.02718288 -0.09586632
v -0.01041356 -0.02718288 -0.09872312
v -0.01035399 -0.02718288 -0.10157992
v -0.01027297 -0.02718288 -0.10444707
v -0.00913396 -0.02936717 -0.10157992
v -0.00907915 -0.02926823 -0.10444707
v -0.00901243 -0.02915787 -0.10730387
v -0.00893380 -0.02903991 -0.11017103
v -0.00884087 -0.02891813 -0.11302784
v -0.00873364 -0.02878495 -0.11589500
v -0.00864547 -0.02868220 -0.11796514
v -0.00854777 -0.02857565 -0.11988003
v -0.00596712 -0.03163518 -0.11017103
v -0.00581700 -0.03153624 -0.11218943
v -0.00429197 -0.03256370 -0.10730387
v -0.00143014 -0.03317256 -0.10730387
v 0.00142931 -0.03306220 -0.10730387
v 0.00429113 -0.03229732 -0.10730387
v 0.00845163 -0.02848051 -0.11875180
v 0.00855409 -0.02858326 -0.11589500
v 0.00994092 -0.02718288 -0.09299915
v 0.00992901 -0.02718288 -0.09872312
v 0.00979556 -0.02718288 -0.10730387
v 0.00985275 -0.02718288 -0.10444707
v 0.00989326 -0.02718288 -0.10157992
v 0.00939048 -0.02675287 -0.12447576
v 0.00946673 -0.02704969 -0.11875180
v 0.00992901 -0.02718288 -0.09015270
v 0.00983131 -0.02718288 -0.08442874
v 0.00975744 -0.02718288 -0.08156159
v 0.00988373 -0.02718288 -0.08728555
v 0.00910692 -0.02742261 -0.06463812
v 0.00919508 -0.02700783 -0.06153291
v 0.00914504 -0.02688606 -0.05866575
v 0.00449368 -0.03194722 -0.11017103
v 0.00491306 -0.03114809 -0.11589500
v 0.00558265 -0.03141066 -0.11112330
v 0.00640474 -0.02903230 -0.12734291
v 0.00665018 -0.02923018 -0.12447576
v 0.00808228 -0.02818369 -0.12447576
v -0.01122135 -0.02492247 -0.07011367
v -0.01119038 -0.02485398 -0.06725687
v -0.01124042 -0.02498336 -0.07298082
v -0.01125471 -0.02503283 -0.07583763
v -0.01126901 -0.02507849 -0.07870478
v -0.01128331 -0.02511655 -0.08156159
v -0.01129046 -0.02513938 -0.08442874
v -0.01129284 -0.02514319 -0.08728555
v -0.01128331 -0.02512416 -0.09015270
v -0.01127378 -0.02510133 -0.09299915
v -0.01126425 -0.02507469 -0.09586632
v -0.01125233 -0.02504044 -0.09872312
v -0.01123327 -0.02497955 -0.10157992
v -0.01120706 -0.02489964 -0.10444707
v -0.01117370 -0.02481212 -0.10730387
v -0.01113319 -0.02472079 -0.11017103
v -0.01109030 -0.02460663 -0.11302784
v -0.01104026 -0.02450388 -0.11589500
v -0.01017051 -0.02718288 -0.10730387
v -0.01005375 -0.02718288 -0.11017103
v -0.00991554 -0.02718288 -0.11302784
v -0.00975827 -0.02718288 -0.11589500
v -0.00947471 -0.02703447 -0.12161896
v -0.00939607 -0.02685942 -0.12447576
v -0.00930076 -0.02668437 -0.12734291
v -0.00843340 -0.02846529 -0.12161896
v -0.00561923 -0.03143730 -0.11409397
v -0.00823085 -0.02829024 -0.12447576
v -0.00700367 -0.02953461 -0.12161896
v -0.00679875 -0.02934053 -0.12447576
v -0.00429197 -0.03228971 -0.11017103
v -0.00388926 -0.03181404 -0.11589500
v -0.00143014 -0.03289096 -0.11017103
v 0.00142931 -0.03278441 -0.11017103
v 0.00348096 -0.03170748 -0.11589500
v 0.00388605 -0.03187111 -0.11302784
v 0.00930231 -0.02660446 -0.12734291
v 0.01097509 -0.02432122 -0.11017103
v 0.01097985 -0.02432122 -0.10157992
v 0.01145166 -0.02290562 -0.12627679
v 0.01082020 -0.02433644 -0.12447576
v 0.01087024 -0.02404343 -0.12727046
v 0.01085356 -0.02432122 -0.09015270
v 0.01095126 -0.02432122 -0.09872312
v 0.01088930 -0.02432122 -0.09299915
v 0.01067246 -0.02432122 -0.08156159
v 0.01018874 -0.02432122 -0.06153291
v 0.00929993 -0.02718288 -0.06725687
v 0.01009342 -0.02432122 -0.05866575
v 0.00908070 -0.02674145 -0.05580895
v 0.00416961 -0.03107959 -0.11893810
v 0.00429113 -0.03035657 -0.12447576
v 0.00429113 -0.02990754 -0.12734291
v 0.00606876 -0.02881539 -0.12907149
v 0.00783684 -0.02803528 -0.12734291
v -0.01158832 -0.02342315 -0.06725687
v -0.01153351 -0.02321385 -0.06153291
v -0.01156449 -0.02332040 -0.06438971
v -0.01161453 -0.02355253 -0.07298082
v -0.01162406 -0.02360200 -0.07583763
v -0.01163359 -0.02364767 -0.07870478
v -0.01163836 -0.02368572 -0.08156159
v -0.01164312 -0.02370855 -0.08442874
v -0.01164551 -0.02371236 -0.08728555
v -0.01164312 -0.02369333 -0.09015270
v -0.01164074 -0.02367050 -0.09299915
v -0.01163836 -0.02364386 -0.09586632
v -0.01163121 -0.02360581 -0.09872312
v -0.01161691 -0.02354873 -0.10157992
v -0.01159785 -0.02346881 -0.10444707
v -0.01157878 -0.02338129 -0.10730387
v -0.01155734 -0.02328996 -0.11017103
v -0.01147394 -0.02298172 -0.11875180
v -0.01145487 -0.02292084 -0.12056318
v -0.01097592 -0.02441255 -0.11875180
v -0.01143105 -0.02281048 -0.12246771
v -0.01078529 -0.02432122 -0.12447576
v -0.01064470 -0.02432122 -0.12734291
v -0.01024199 -0.02432122 -0.13019972
v -0.00897431 -0.02623153 -0.13019972
v -0.00796874 -0.02811520 -0.12734291
v -0.00532137 -0.03132695 -0.11589500
v -0.00451596 -0.03191298 -0.11310029
v -0.00653901 -0.02912362 -0.12734291
v -0.00336980 -0.03163899 -0.11875180
v -0.00301951 -0.03152483 -0.12055282
v -0.00143014 -0.03259414 -0.11302784
v 0.00142931 -0.03248759 -0.11302784
v 0.00313544 -0.03157429 -0.11811005
v 0.00902113 -0.02625817 -0.12953727
v 0.01143736 -0.02284854 -0.12818132
v 0.01144928 -0.02290181 -0.11700252
v 0.01143260 -0.02275721 -0.11017103
v 0.01145166 -0.02290562 -0.12447576
v 0.01167803 -0.02172214 -0.12727046
v 0.01071535 -0.02145957 -0.06153291
v 0.01139447 -0.02222826 -0.10157992
v 0.01062957 -0.02145957 -0.05866575
v 0.01051996 -0.02145957 -0.05580895
v 0.01040320 -0.02145957 -0.05294179
v 0.00996952 -0.02432122 -0.05580895
v 0.00272559 -0.03145633 -0.12001459
v 0.00142931 -0.03055445 -0.12734291
v 0.00429113 -0.02912362 -0.12943377
v 0.00114336 -0.03115951 -0.12419629
v 0.00429113 -0.02786024 -0.13086218
v 0.00640236 -0.02609834 -0.13191794
v 0.00831104 -0.02559222 -0.13144180
v -0.01149538 -0.02307305 -0.05866575
v -0.01189332 -0.02145957 -0.06438971
v -0.01193145 -0.02145957 -0.06725687
v -0.01184567 -0.02145957 -0.06153291
v -0.01195290 -0.02145957 -0.07011367
v -0.01200293 -0.02145957 -0.08156159
v -0.01196719 -0.02145957 -0.07298082
v -0.01197911 -0.02145957 -0.07583763
v -0.01201247 -0.02145957 -0.08728555
v -0.01200770 -0.02145957 -0.09015270
v -0.01199817 -0.02145957 -0.09586632
v -0.01198625 -0.02145957 -0.09872312
v -0.01196719 -0.02145957 -0.10157992
v -0.01193621 -0.02145957 -0.10444707
v -0.01186950 -0.02145957 -0.11017103
v -0.01166933 -0.02107903 -0.12734291
v -0.01165027 -0.02088115 -0.13019972
v -0.01100451 -0.02405484 -0.12155685
v -0.01140245 -0.02268490 -0.12447576
v -0.01135956 -0.02250986 -0.12734291
v -0.01128093 -0.02231198 -0.13019972
v -0.01157402 -0.02052344 -0.13228022
v -0.01133811 -0.01981184 -0.13418475
v -0.00866215 -0.02582816 -0.13170058
v -0.00616490 -0.02887627 -0.12917499
v -0.00480190 -0.03114809 -0.11875180
v -0.00429197 -0.03055445 -0.12447576
v -0.00429197 -0.03007878 -0.12734291
v -0.00410134 -0.03101871 -0.12155685
v -0.00143014 -0.03063436 -0.12734291
v -0.00190671 -0.03139925 -0.12246771
v -0.00143014 -0.03190917 -0.11875180
v -0.00143014 -0.03226307 -0.11589500
v -0.00000280 -0.03147535 -0.12304736
v -0.00000042 -0.03147535 -0.12304736
v 0.00142931 -0.03215652 -0.11589500
v 0.00981225 -0.02451149 -0.13037568
v 0.01122052 -0.02245658 -0.13019972
v 0.01159463 -0.02044734 -0.13198005
v 0.01170186 -0.02102575 -0.13019972
v 0.01171616 -0.02145957 -0.12447576
v 0.01207121 -0.01859791 -0.12734291
v 0.01207835 -0.01859791 -0.13019972
v 0.01083211 -0.01859791 -0.06153291
v 0.01075586 -0.01859791 -0.05866575
v 0.01137302 -0.02195427 -0.09872312
v 0.01126580 -0.02145957 -0.09015270
v 0.01146357 -0.02024945 -0.09644595
v 0.01066770 -0.01859791 -0.05580895
v 0.01057000 -0.01859791 -0.05294179
v 0.01027929 -0.02145957 -0.05008499
v 0.01012917 -0.02145957 -0.04722818
v 0.00163423 -0.03175315 -0.11893810
v 0.00061198 -0.03156669 -0.12161896
v 0.00204409 -0.03135359 -0.12161896
v 0.00142931 -0.02941664 -0.12973393
v 0.00142931 -0.02811139 -0.13116235
v 0.00429113 -0.02642941 -0.13221811
v 0.00429113 -0.02470557 -0.13364652
v 0.00589242 -0.02298934 -0.13457808
v 0.00710292 -0.02429078 -0.13302547
v 0.00780110 -0.02240331 -0.13412264
v 0.00906164 -0.02049680 -0.13482650
v 0.00924750 -0.02368192 -0.13221811
v -0.01177895 -0.02145957 -0.05866575
v -0.01211970 -0.01859791 -0.06153291
v -0.01215306 -0.01859791 -0.06438971
v -0.01218403 -0.01859791 -0.06725687
v -0.01206965 -0.01859791 -0.05866575
v -0.01219833 -0.01859791 -0.07011367
v -0.01220786 -0.01859791 -0.08442874
v -0.01220310 -0.01859791 -0.09015270
v -0.01220071 -0.01859791 -0.07298082
v -0.01217450 -0.01859791 -0.10157992
v -0.01203868 -0.01859791 -0.12734291
v -0.01201962 -0.01859791 -0.13019972
v -0.01179563 -0.01875394 -0.13316002
v -0.01165265 -0.01790533 -0.13495071
v -0.01152398 -0.01454517 -0.13746594
v -0.01091396 -0.01644787 -0.13685524
v -0.01017289 -0.01867022 -0.13597542
v -0.00943182 -0.02090398 -0.13508527
v -0.00715379 -0.02617064 -0.13200074
v -0.00839050 -0.02281048 -0.13443317
v -0.00429197 -0.02920734 -0.12957868
v -0.00429197 -0.02804289 -0.13101742
v -0.00143014 -0.02945469 -0.12980640
v -0.00114419 -0.03122801 -0.12419629
v -0.00114419 -0.03157810 -0.12155685
v 0.01097032 -0.01933236 -0.13388458
v 0.01154698 -0.01742586 -0.13465053
v 0.01175428 -0.01846853 -0.13298407
v 0.01213554 -0.01573626 -0.13019972
v 0.01148264 -0.02052344 -0.09872312
v 0.01205453 -0.01573626 -0.13306688
v 0.01062480 -0.01573626 -0.06153291
v 0.01055570 -0.01573626 -0.05866575
v 0.01047707 -0.01573626 -0.05580895
v 0.01131584 -0.02145957 -0.09299915
v 0.01038413 -0.01573626 -0.05294179
v 0.01044371 -0.01859791 -0.05008499
v -0.00143014 -0.02819511 -0.13123479
v 0.00142931 -0.02668056 -0.13245618
v 0.00142931 -0.02498336 -0.13388458
v 0.00429113 -0.02327474 -0.13478509
v 0.00429113 -0.02145957 -0.13592368
v 0.00642142 -0.01763896 -0.13764189
v 0.00696948 -0.02145576 -0.13513702
v 0.00728640 -0.01859411 -0.13675174
v 0.00833010 -0.01696160 -0.13724858
v 0.00919270 -0.01505510 -0.13772471
v 0.01001479 -0.01846853 -0.13529228
v -0.01209825 -0.01573626 -0.06438971
v -0.01212208 -0.01573626 -0.06725687
v -0.01213399 -0.01573626 -0.07011367
v -0.01214591 -0.01287841 -0.13306688
v -0.01220548 -0.01573626 -0.13019972
v -0.01218403 -0.01573626 -0.13306688
v -0.01177656 -0.01559166 -0.13591333
v -0.01163359 -0.01287841 -0.13769366
v -0.00954858 -0.00715511 -0.14107835
v -0.00927217 -0.01001676 -0.14066432
v -0.00885516 -0.01178246 -0.14035380
v -0.00998226 -0.01559166 -0.13796277
v -0.00900528 -0.01753241 -0.13755909
v -0.00429197 -0.02661207 -0.13238372
v -0.00732298 -0.02421087 -0.13360511
v -0.00648421 -0.02318341 -0.13471264
v -0.00715379 -0.01946174 -0.13701050
v -0.00732298 -0.02169931 -0.13549930
v 0.00972170 -0.01287841 -0.13821119
v 0.01115380 -0.01287841 -0.13688630
v 0.01168756 -0.01573626 -0.13500246
v 0.01193538 -0.01287841 -0.13306688
v 0.01170663 -0.01287841 -0.13545789
v 0.00995045 -0.01287841 -0.05580895
v 0.00987182 -0.01287841 -0.05294179
v 0.01159940 -0.01085395 -0.13306688
v 0.01023640 -0.01573626 -0.05008499
v -0.00143014 -0.02676428 -0.13250794
v -0.00143014 -0.02501380 -0.13393633
v 0.00142931 -0.02355253 -0.13497140
v 0.00142931 -0.02145957 -0.13626525
v 0.00429113 -0.01809560 -0.13791102
v 0.00429113 -0.01573626 -0.13914275
v 0.00429113 -0.01381835 -0.14002258
v 0.00728640 -0.01589989 -0.13816980
v 0.00805369 -0.01094147 -0.14003292
v 0.00879714 -0.00903497 -0.14037450
v -0.01181707 -0.01001676 -0.13592368
v -0.01199102 -0.01287841 -0.13592368
v -0.01162168 -0.01001676 -0.13777646
v -0.00936033 -0.00429345 -0.14123361
v -0.00758033 -0.00429345 -0.14266200
v -0.00687976 -0.00688112 -0.14246534
v -0.00715379 -0.01001676 -0.14146133
v -0.00715379 -0.01236849 -0.14059186
v -0.00715379 -0.01379932 -0.14000186
v -0.00715379 -0.01573626 -0.13905995
v -0.00715379 -0.01803091 -0.13784891
v -0.00429197 -0.02488062 -0.13381213
v -0.00429197 -0.02344979 -0.13489895
v -0.00429197 -0.02145957 -0.13623419
v -0.00429197 -0.01987652 -0.13725892
v 0.01128248 -0.01000915 -0.13608928
v 0.00897824 -0.00715511 -0.14058152
v 0.01001479 -0.00715511 -0.13879083
v 0.01157080 -0.01095669 -0.13525088
v 0.01122052 -0.00942312 -0.13306688
v 0.01059621 -0.00715511 -0.13592368
v -0.00143014 -0.02358298 -0.13497140
v -0.00143014 -0.02145957 -0.13633770
v -0.00143014 -0.01991458 -0.13728997
v -0.00143014 -0.01848375 -0.13813873
v 0.00142931 -0.01837340 -0.13807663
v 0.00160326 -0.01552696 -0.13963959
v 0.00267555 -0.01426738 -0.14019853
v 0.00429113 -0.01238752 -0.14059186
v 0.00614501 -0.01179007 -0.14035380
v 0.00712198 -0.01279850 -0.13960855
v 0.00712198 -0.00999773 -0.14067467
v 0.00715296 -0.00715511 -0.14150272
v -0.01152874 -0.00826628 -0.13592368
v -0.01150730 -0.00833478 -0.13757978
v -0.01096400 -0.00729210 -0.13863556
v -0.00606720 0.00050895 -0.14331411
v -0.00639366 -0.00143180 -0.14341761
v -0.01023961 -0.00429345 -0.13879083
v -0.00897431 -0.00203686 -0.14089204
v -0.00615061 -0.00429345 -0.14324166
v -0.00574313 -0.00574711 -0.14308639
v -0.00429197 -0.01001676 -0.14197886
v -0.00549770 -0.01424835 -0.14018819
v -0.00429197 -0.01844570 -0.13809733
v 0.00863272 -0.00276749 -0.14029169
v 0.00715296 -0.00429345 -0.14180289
v 0.00550163 -0.00143180 -0.14292078
v 0.00885671 -0.00429345 -0.14052975
v 0.00867085 -0.00270661 -0.13879083
v -0.00143014 -0.01595697 -0.13956714
v 0.00076687 -0.01443862 -0.14029169
v 0.00160326 -0.01314098 -0.14076783
v 0.00142931 -0.01001676 -0.14195816
v 0.00429113 -0.01001676 -0.14144063
v 0.00429113 -0.00715511 -0.14234114
v 0.00453419 -0.00450656 -0.14293113
v -0.00651042 0.00144888 -0.14150272
v -0.00527371 0.00241926 -0.14235148
v -0.00336503 0.00313467 -0.14332445
v -0.00430865 0.00144888 -0.14364533
v -0.00429197 -0.00143180 -0.14398691
v -0.00917685 -0.00169057 -0.13879083
v -0.00843340 -0.00025974 -0.13879083
v -0.00429197 -0.00429345 -0.14356253
v -0.00429197 -0.00606296 -0.14316919
v -0.00429197 -0.00749379 -0.14277586
v -0.00143014 -0.01001676 -0.14215481
v -0.00143014 -0.01287841 -0.14105764
v -0.00358902 -0.01447668 -0.14030203
v -0.00444209 -0.01312576 -0.14076783
v -0.00444209 -0.01554980 -0.13964994
v 0.00714820 -0.00166393 -0.14128536
v 0.00619028 0.00055461 -0.14098519
v 0.00637376 0.00076772 -0.13879083
v 0.00780349 -0.00127578 -0.13879083
v 0.00407191 -0.00143180 -0.14345901
v 0.00341900 0.00142985 -0.14332445
v 0.00287094 0.00286829 -0.14308639
v -0.00143014 -0.01452995 -0.14033310
v -0.00143014 -0.00773733 -0.14285867
v 0.00157466 -0.00707519 -0.14280692
v 0.00262551 -0.00560631 -0.14305533
v 0.00374307 -0.00369601 -0.14327270
v -0.00580509 0.00293298 -0.14044695
v -0.00430865 0.00340105 -0.14150272
v -0.00143014 0.00335158 -0.14352112
v -0.00143014 0.00142985 -0.14420426
v -0.00143014 0.00425345 -0.14164764
v -0.00143014 -0.00143180 -0.14421462
v -0.00143014 -0.00429345 -0.14367639
v -0.00143014 -0.00630650 -0.14323130
v 0.00495834 0.00219854 -0.13879083
v 0.00325220 0.00312325 -0.14164764
v 0.00142931 -0.00143180 -0.14401795
v 0.00142931 0.00142985 -0.14392480
v 0.00142931 0.00314989 -0.14334516
v 0.00142931 0.00389575 -0.14164764
v 0.00071683 -0.00606677 -0.14315884
v 0.00157466 -0.00450656 -0.14341761
f 83 112 63
f 109 112 83
f 83 100 109
f 477 49 35
f 27 25 39
f 39 25 38
f 38 37 39
f 111 110 119
f 111 112 109
f 109 110 111
f 610 119 125
f 583 589 610
f 610 589 119
f 117 623 614
f 117 110 109
f 73 59 74
f 95 73 94
f 102 91 97
f 3 7 269
f 145 160 5
f 9 4 182
f 5 160 182
f 182 4 5
f 35 23 34
f 34 477 35
f 23 477 34
f 65 49 64
f 112 111 121
f 121 111 119
f 8 7 18
f 48 490 489
f 491 490 48
f 63 48 62
f 59 73 62
f 62 83 63
f 47 59 48
f 46 59 47
f 29 18 17
f 17 18 7
f 32 47 48
f 46 47 32
f 445 21 32
f 21 31 32
f 29 42 30
f 30 18 29
f 21 18 30
f 30 31 21
f 39 52 54
f 57 42 56
f 41 42 29
f 29 40 41
f 41 56 42
f 54 56 41
f 12 9 23
f 441 7 8
f 441 380 7
f 8 445 441
f 445 380 441
f 490 491 446
f 37 38 24
f 24 38 25
f 583 610 584
f 125 614 611
f 611 610 125
f 611 584 610
f 120 614 125
f 120 117 614
f 110 117 120
f 599 117 600
f 96 91 74
f 97 91 96
f 73 91 92
f 92 102 106
f 91 102 92
f 90 73 74
f 74 91 90
f 90 91 73
f 85 102 97
f 97 88 85
f 45 59 46
f 46 32 45
f 508 541 511
f 544 541 546
f 546 514 544
f 544 511 541
f 89 88 97
f 71 88 89
f 39 37 53
f 53 52 39
f 37 52 53
f 68 52 50
f 50 67 68
f 35 49 50
f 50 49 65
f 7 3 2
f 5 6 2
f 2 6 7
f 134 135 128
f 128 133 134
f 131 145 5
f 23 9 22
f 9 318 369
f 369 22 9
f 5 4 10
f 10 4 9
f 181 182 160
f 9 182 218
f 49 477 515
f 515 64 49
f 65 64 515
f 561 564 529
f 8 18 19
f 48 59 61
f 61 62 48
f 59 62 61
f 78 62 73
f 78 95 98
f 73 95 78
f 29 17 28
f 28 17 27
f 25 27 26
f 27 17 26
f 7 6 16
f 16 17 7
f 16 26 17
f 25 26 16
f 42 32 43
f 43 32 31
f 43 30 42
f 31 30 43
f 39 54 55
f 70 54 52
f 57 56 70
f 70 56 54
f 269 7 270
f 7 380 377
f 377 325 7
f 380 325 377
f 48 489 443
f 37 24 36
f 35 50 36
f 36 23 35
f 36 24 23
f 623 117 619
f 614 623 622
f 622 612 614
f 613 612 622
f 584 611 585
f 585 612 613
f 585 611 614
f 614 612 585
f 125 119 118
f 118 120 125
f 119 110 118
f 110 120 118
f 98 95 108
f 601 600 117
f 83 62 82
f 82 81 83
f 62 81 82
f 80 62 79
f 79 81 80
f 80 81 62
f 97 96 76
f 74 60 76
f 76 96 74
f 103 85 88
f 44 32 42
f 44 45 32
f 468 419 415
f 116 117 109
f 545 514 546
f 545 123 514
f 514 123 101
f 101 513 514
f 71 67 86
f 65 85 86
f 85 103 86
f 68 67 69
f 69 67 71
f 69 52 68
f 69 70 52
f 69 71 57
f 57 70 69
f 58 44 42
f 45 44 58
f 58 42 57
f 57 71 58
f 71 72 58
f 77 72 71
f 71 89 77
f 60 72 77
f 51 52 37
f 51 50 52
f 37 36 51
f 51 36 50
f 66 50 65
f 67 50 66
f 65 86 66
f 66 86 67
f 132 129 139
f 139 146 132
f 1 2 133
f 133 128 1
f 150 135 134
f 232 231 284
f 359 414 415
f 127 131 5
f 244 245 201
f 212 211 251
f 255 211 254
f 251 211 255
f 211 212 178
f 428 477 23
f 23 22 33
f 33 369 23
f 22 369 33
f 9 12 11
f 11 10 9
f 11 12 5
f 5 10 11
f 262 318 9
f 9 218 262
f 217 218 182
f 84 85 65
f 65 515 84
f 84 515 85
f 418 419 469
f 469 420 418
f 448 450 387
f 560 121 119
f 119 564 560
f 112 121 560
f 560 564 561
f 565 589 583
f 565 529 564
f 20 18 21
f 20 19 18
f 20 21 445
f 20 445 8
f 8 19 20
f 14 12 23
f 269 270 324
f 7 325 326
f 326 270 7
f 326 324 270
f 326 325 380
f 446 449 385
f 385 449 447
f 447 448 385
f 442 380 445
f 48 443 442
f 442 32 48
f 445 32 442
f 490 446 444
f 444 489 490
f 444 443 489
f 467 468 415
f 618 117 599
f 599 619 618
f 618 619 117
f 604 619 599
f 623 619 604
f 604 622 623
f 613 622 621
f 603 602 621
f 621 604 603
f 622 604 621
f 586 585 613
f 543 541 508
f 573 604 599
f 603 604 573
f 573 602 603
f 97 76 75
f 75 76 60
f 60 77 75
f 75 89 97
f 75 77 89
f 87 88 71
f 87 103 88
f 71 86 87
f 87 86 103
f 419 468 471
f 469 419 471
f 571 116 575
f 571 601 117
f 117 116 571
f 599 600 571
f 600 601 571
f 574 573 571
f 571 575 546
f 571 543 574
f 546 541 571
f 541 543 571
f 99 108 95
f 98 108 99
f 115 116 109
f 546 575 115
f 575 116 115
f 513 101 104
f 123 113 122
f 122 101 123
f 113 101 122
f 156 163 175
f 157 142 156
f 142 141 156
f 219 247 220
f 202 245 246
f 201 245 202
f 202 174 201
f 146 139 161
f 136 128 135
f 170 154 169
f 169 154 153
f 153 154 139
f 135 150 151
f 134 133 149
f 149 150 134
f 235 236 195
f 169 194 195
f 228 229 191
f 191 229 230
f 285 232 284
f 286 232 285
f 221 3 269
f 269 222 221
f 221 222 3
f 187 2 3
f 188 187 224
f 226 276 277
f 254 247 305
f 415 419 416
f 416 359 415
f 132 146 147
f 147 141 132
f 147 156 141
f 146 163 147
f 163 156 147
f 130 127 132
f 131 127 130
f 144 145 130
f 145 131 130
f 130 141 142
f 128 129 126
f 126 1 128
f 2 1 126
f 320 357 370
f 370 357 356
f 356 412 370
f 263 219 246
f 320 266 264
f 219 263 264
f 356 357 302
f 302 303 245
f 357 303 302
f 245 244 302
f 302 244 301
f 183 181 160
f 182 181 183
f 267 266 323
f 219 266 267
f 251 255 309
f 309 252 251
f 309 255 254
f 176 178 157
f 176 156 175
f 157 156 176
f 210 252 253
f 177 158 157
f 157 178 177
f 268 247 219
f 268 267 323
f 219 267 268
f 323 305 268
f 268 305 247
f 311 365 364
f 250 210 253
f 514 513 512
f 512 473 514
f 513 473 512
f 474 473 513
f 514 473 510
f 510 544 514
f 469 471 510
f 511 544 510
f 510 471 511
f 472 420 469
f 472 473 420
f 469 510 472
f 472 510 473
f 424 418 420
f 424 364 423
f 420 364 424
f 419 418 417
f 392 340 391
f 341 340 392
f 392 391 452
f 452 393 392
f 289 236 235
f 289 290 236
f 492 491 48
f 492 48 63
f 492 446 491
f 589 565 588
f 588 565 564
f 119 589 588
f 588 564 119
f 13 14 6
f 12 14 13
f 13 6 5
f 5 12 13
f 15 16 6
f 6 14 15
f 25 16 15
f 15 24 25
f 23 24 15
f 15 14 23
f 327 324 379
f 443 444 379
f 379 442 443
f 269 324 271
f 271 324 327
f 271 222 269
f 335 277 276
f 275 332 276
f 275 276 226
f 387 332 386
f 386 332 385
f 386 448 387
f 386 385 448
f 415 414 413
f 468 467 509
f 509 471 468
f 511 471 509
f 508 511 509
f 509 467 508
f 598 573 599
f 599 571 598
f 598 571 573
f 100 99 114
f 114 99 113
f 109 100 114
f 114 115 109
f 114 113 123
f 546 115 114
f 102 85 105
f 85 104 105
f 513 104 476
f 476 474 513
f 85 515 476
f 476 104 85
f 476 515 477
f 246 219 203
f 203 202 246
f 174 202 203
f 162 163 146
f 146 161 162
f 175 163 162
f 162 185 175
f 155 161 139
f 139 154 155
f 174 161 155
f 137 129 128
f 128 136 137
f 137 136 129
f 138 139 129
f 129 136 138
f 169 153 168
f 168 194 169
f 168 151 194
f 133 2 148
f 148 149 133
f 167 151 150
f 194 151 167
f 194 233 234
f 234 195 194
f 235 195 234
f 196 195 236
f 197 170 196
f 196 170 169
f 169 195 196
f 229 228 280
f 280 228 279
f 279 228 227
f 3 222 186
f 186 187 3
f 222 187 186
f 188 224 225
f 226 189 225
f 225 189 188
f 225 224 274
f 225 275 226
f 274 275 225
f 223 187 222
f 223 224 187
f 222 271 223
f 223 271 224
f 452 391 390
f 390 389 452
f 337 389 390
f 388 451 452
f 452 389 388
f 387 450 388
f 450 451 388
f 388 335 387
f 253 252 308
f 308 250 253
f 308 309 359
f 252 309 308
f 362 307 308
f 132 141 140
f 140 130 132
f 141 130 140
f 144 130 143
f 143 130 142
f 143 142 157
f 143 158 144
f 157 158 143
f 265 266 219
f 219 264 265
f 265 264 266
f 246 245 304
f 245 303 304
f 304 263 246
f 304 264 263
f 304 303 264
f 320 264 319
f 264 303 319
f 319 357 320
f 319 303 357
f 160 145 159
f 159 145 144
f 144 158 159
f 182 183 215
f 310 305 359
f 359 309 310
f 254 305 310
f 310 309 254
f 211 178 207
f 207 176 175
f 178 176 207
f 211 205 248
f 254 211 248
f 248 247 254
f 209 178 212
f 209 212 251
f 209 177 178
f 210 177 209
f 251 252 209
f 252 210 209
f 180 183 160
f 160 159 180
f 180 159 158
f 208 177 210
f 210 250 208
f 214 180 208
f 311 364 314
f 314 257 311
f 361 365 311
f 361 418 365
f 361 417 418
f 257 314 315
f 315 314 364
f 261 262 218
f 261 315 262
f 420 473 421
f 473 474 421
f 421 364 420
f 475 424 423
f 365 418 422
f 422 475 423
f 423 364 422
f 422 364 365
f 391 340 339
f 455 495 496
f 394 343 344
f 344 343 286
f 373 370 431
f 399 455 456
f 290 289 346
f 237 196 236
f 197 196 237
f 236 290 237
f 526 492 63
f 613 621 620
f 620 621 602
f 620 602 609
f 456 455 500
f 324 326 378
f 378 379 324
f 378 326 380
f 380 442 378
f 442 379 378
f 327 274 273
f 274 224 273
f 276 332 333
f 333 332 387
f 278 335 279
f 277 335 278
f 226 277 278
f 278 227 226
f 279 227 278
f 328 274 327
f 328 329 274
f 332 275 331
f 385 332 331
f 446 385 382
f 385 331 382
f 507 525 508
f 487 525 507
f 508 467 507
f 467 487 507
f 542 543 508
f 508 525 542
f 574 543 542
f 542 573 574
f 558 542 525
f 524 525 487
f 488 487 467
f 467 439 488
f 488 439 487
f 484 439 438
f 438 439 376
f 376 439 440
f 415 413 440
f 440 413 376
f 376 413 358
f 358 305 323
f 358 413 414
f 414 359 358
f 359 305 358
f 437 438 376
f 613 620 615
f 615 620 616
f 546 114 124
f 124 114 123
f 124 545 546
f 123 545 124
f 93 105 104
f 106 102 93
f 102 105 93
f 94 73 93
f 93 92 106
f 73 92 93
f 247 248 204
f 204 248 205
f 204 220 247
f 204 185 220
f 204 205 175
f 175 185 204
f 184 162 161
f 184 161 174
f 174 203 184
f 219 220 184
f 184 203 219
f 220 185 184
f 185 162 184
f 173 155 154
f 154 172 173
f 201 174 173
f 174 155 173
f 173 200 201
f 173 172 200
f 152 168 153
f 135 151 152
f 151 168 152
f 152 136 135
f 152 138 136
f 149 148 165
f 192 167 191
f 191 230 192
f 192 230 231
f 193 233 194
f 194 167 193
f 167 192 193
f 232 233 193
f 231 232 193
f 193 192 231
f 288 289 235
f 235 234 288
f 281 230 229
f 229 280 281
f 281 339 340
f 281 280 337
f 279 335 336
f 336 280 279
f 337 280 336
f 335 388 336
f 336 389 337
f 336 388 389
f 363 308 359
f 359 416 363
f 362 308 363
f 363 416 419
f 419 417 363
f 306 308 307
f 250 308 306
f 216 217 182
f 182 215 216
f 213 215 183
f 213 180 214
f 183 180 213
f 214 256 213
f 213 256 215
f 206 205 211
f 211 207 206
f 175 205 206
f 206 207 175
f 177 208 179
f 179 208 180
f 158 177 179
f 179 180 158
f 23 369 427
f 427 428 23
f 477 428 427
f 313 361 311
f 311 256 313
f 262 315 317
f 317 369 318
f 318 262 317
f 317 427 369
f 368 427 317
f 257 315 258
f 315 261 258
f 261 316 258
f 217 216 258
f 218 217 258
f 258 215 257
f 258 216 215
f 260 261 218
f 260 316 261
f 218 258 260
f 260 258 316
f 311 257 259
f 259 256 311
f 257 215 259
f 215 256 259
f 307 256 249
f 249 306 307
f 250 306 249
f 249 208 250
f 214 208 249
f 249 256 214
f 474 476 425
f 425 421 474
f 424 475 470
f 475 422 470
f 418 424 470
f 470 422 418
f 338 390 391
f 391 339 338
f 337 390 338
f 338 281 337
f 339 281 338
f 496 495 527
f 495 494 527
f 527 494 492
f 492 526 527
f 450 448 493
f 493 451 450
f 493 448 447
f 452 451 493
f 493 494 452
f 492 494 493
f 447 449 493
f 493 449 446
f 446 492 493
f 393 344 342
f 341 392 342
f 342 392 393
f 342 285 284
f 286 285 342
f 342 344 286
f 411 412 356
f 371 373 411
f 371 372 321
f 321 266 320
f 321 373 371
f 320 370 321
f 370 373 321
f 432 372 371
f 243 299 244
f 201 200 243
f 243 244 201
f 200 242 243
f 401 349 348
f 352 349 401
f 241 242 200
f 495 455 454
f 455 399 454
f 454 494 495
f 397 396 393
f 346 396 397
f 290 346 292
f 457 399 456
f 238 239 197
f 197 237 238
f 237 292 238
f 559 526 63
f 560 526 559
f 63 112 559
f 112 560 559
f 592 591 606
f 607 606 624
f 272 271 327
f 327 273 272
f 224 271 272
f 272 273 224
f 334 335 276
f 276 333 334
f 387 335 334
f 334 333 387
f 330 331 275
f 330 275 274
f 274 329 330
f 329 382 330
f 330 382 331
f 329 328 381
f 327 379 381
f 381 328 327
f 381 444 446
f 381 379 444
f 485 439 484
f 484 483 485
f 521 483 520
f 573 542 572
f 572 558 573
f 542 558 572
f 557 558 525
f 525 524 557
f 580 581 557
f 557 581 558
f 466 439 467
f 466 440 439
f 466 467 415
f 415 440 466
f 376 358 322
f 266 321 322
f 322 321 372
f 323 266 322
f 322 358 323
f 529 565 562
f 562 563 529
f 583 584 562
f 562 565 583
f 584 585 562
f 585 586 562
f 529 563 530
f 530 563 566
f 498 530 531
f 531 530 566
f 498 531 499
f 499 531 532
f 499 455 498
f 499 500 455
f 566 563 587
f 613 615 587
f 587 586 613
f 587 562 586
f 563 562 587
f 107 104 101
f 107 93 104
f 107 101 113
f 113 99 107
f 107 99 95
f 107 95 94
f 94 93 107
f 150 149 166
f 149 165 166
f 166 167 150
f 191 167 166
f 164 148 2
f 164 165 148
f 2 187 164
f 164 187 188
f 188 189 164
f 189 165 164
f 287 234 233
f 287 288 234
f 287 233 232
f 287 232 286
f 286 343 287
f 231 230 282
f 230 281 282
f 341 342 282
f 282 340 341
f 282 281 340
f 417 361 360
f 360 363 417
f 362 363 360
f 360 307 362
f 360 361 307
f 312 256 307
f 312 313 256
f 307 361 312
f 361 313 312
f 368 317 367
f 366 315 364
f 366 317 315
f 366 367 317
f 364 421 366
f 421 425 366
f 426 476 477
f 426 425 476
f 368 367 426
f 426 366 425
f 367 366 426
f 477 427 426
f 426 427 368
f 528 526 560
f 528 527 526
f 496 527 528
f 528 560 561
f 561 529 528
f 430 373 431
f 430 411 373
f 431 370 430
f 412 411 430
f 355 411 356
f 404 401 461
f 352 401 404
f 299 243 295
f 295 243 242
f 295 351 299
f 295 352 350
f 400 401 348
f 197 239 198
f 452 494 453
f 494 454 453
f 395 344 393
f 393 396 395
f 394 344 395
f 395 396 394
f 394 396 345
f 345 396 346
f 345 343 394
f 345 287 343
f 288 287 345
f 345 346 289
f 289 288 345
f 346 397 347
f 347 400 348
f 399 400 347
f 296 242 294
f 348 349 293
f 293 347 348
f 349 296 293
f 293 292 346
f 346 347 293
f 293 296 294
f 239 238 293
f 293 238 292
f 291 237 290
f 290 292 291
f 291 292 237
f 399 457 458
f 458 400 399
f 460 400 458
f 608 581 607
f 607 624 608
f 558 581 582
f 573 558 582
f 582 608 609
f 581 608 582
f 609 602 582
f 602 573 582
f 616 620 625
f 625 624 616
f 625 608 624
f 625 620 609
f 609 608 625
f 616 624 617
f 617 624 606
f 617 606 591
f 329 381 383
f 383 381 446
f 487 439 486
f 439 485 486
f 486 485 483
f 436 483 484
f 484 438 436
f 438 437 436
f 518 519 482
f 519 520 482
f 482 520 483
f 483 436 482
f 522 483 521
f 523 524 487
f 523 556 524
f 487 486 523
f 523 486 483
f 483 522 523
f 523 522 556
f 372 432 374
f 374 322 372
f 529 530 497
f 497 530 498
f 497 528 529
f 496 528 497
f 497 455 496
f 498 455 497
f 532 531 567
f 567 591 592
f 567 531 566
f 534 499 533
f 533 499 532
f 190 165 189
f 190 166 165
f 191 166 190
f 190 228 191
f 190 227 228
f 190 189 226
f 226 227 190
f 284 231 283
f 231 282 283
f 283 342 284
f 283 282 342
f 429 370 412
f 412 430 429
f 429 430 370
f 354 355 301
f 463 478 432
f 432 478 433
f 433 374 432
f 434 374 433
f 518 480 517
f 401 400 459
f 459 400 460
f 199 198 239
f 200 172 199
f 199 241 200
f 398 393 452
f 452 453 398
f 398 397 393
f 399 347 398
f 398 347 397
f 398 454 399
f 398 453 454
f 298 296 349
f 298 349 352
f 352 295 298
f 298 295 242
f 240 293 294
f 239 293 240
f 294 242 240
f 242 241 240
f 240 199 239
f 241 199 240
f 505 506 460
f 534 533 569
f 384 382 329
f 329 383 384
f 446 382 384
f 384 383 446
f 375 436 437
f 375 437 376
f 375 374 434
f 376 322 375
f 322 374 375
f 518 482 481
f 481 482 436
f 481 480 518
f 555 522 554
f 556 522 555
f 555 554 580
f 580 557 555
f 555 557 524
f 524 556 555
f 591 567 590
f 590 587 615
f 566 587 590
f 590 567 566
f 590 615 616
f 616 617 590
f 590 617 591
f 371 411 406
f 406 354 404
f 406 432 371
f 406 463 432
f 406 404 461
f 461 463 406
f 300 295 350
f 351 295 300
f 299 351 300
f 301 244 300
f 244 299 300
f 404 354 403
f 350 352 403
f 352 404 403
f 479 480 434
f 434 433 479
f 479 433 478
f 518 517 547
f 517 538 547
f 197 198 171
f 198 199 171
f 171 170 197
f 154 170 171
f 171 172 154
f 171 199 172
f 242 296 297
f 297 298 242
f 296 298 297
f 460 458 501
f 501 505 460
f 501 458 457
f 536 505 501
f 456 500 501
f 501 457 456
f 500 499 501
f 501 499 534
f 534 569 535
f 535 569 536
f 535 501 534
f 536 501 535
f 568 533 532
f 568 569 533
f 568 567 592
f 532 567 568
f 551 520 519
f 519 550 551
f 580 554 579
f 579 581 580
f 607 581 579
f 579 606 607
f 434 480 435
f 480 481 435
f 435 375 434
f 436 375 435
f 435 481 436
f 407 406 464
f 354 406 407
f 353 300 350
f 353 354 301
f 301 300 353
f 350 403 402
f 402 353 350
f 354 353 402
f 506 505 504
f 460 506 504
f 462 463 461
f 478 463 462
f 461 401 462
f 401 459 462
f 518 547 548
f 548 519 518
f 548 547 540
f 540 547 539
f 539 547 538
f 538 504 539
f 539 505 540
f 539 504 505
f 536 569 570
f 570 550 540
f 540 505 570
f 570 505 536
f 596 595 569
f 569 568 596
f 596 568 595
f 605 595 594
f 595 568 594
f 605 594 577
f 577 594 578
f 465 407 410
f 411 355 410
f 410 407 464
f 410 406 411
f 464 406 410
f 409 410 355
f 355 354 409
f 405 403 354
f 354 402 405
f 405 402 403
f 503 459 460
f 460 504 503
f 503 504 459
f 516 479 478
f 516 517 480
f 480 479 516
f 459 504 502
f 502 462 459
f 478 462 502
f 502 516 478
f 549 550 519
f 519 548 549
f 540 550 549
f 549 548 540
f 569 595 597
f 597 570 569
f 595 570 597
f 576 595 605
f 576 570 595
f 550 570 576
f 605 577 576
f 576 551 550
f 576 577 551
f 593 594 568
f 592 606 593
f 593 568 592
f 606 579 593
f 593 579 578
f 578 594 593
f 553 577 578
f 553 522 521
f 521 520 553
f 554 522 553
f 553 579 554
f 578 579 553
f 408 407 465
f 465 410 408
f 410 409 408
f 354 407 408
f 408 409 354
f 537 504 538
f 537 502 504
f 537 538 517
f 517 516 537
f 516 502 537
f 551 577 552
f 577 553 552
f 520 551 552
f 552 553 520
f 45 60 74
f 74 59 45
f 79 62 78
f 98 79 78
f 28 27 39
f 39 29 28
f 55 29 39
f 55 40 29
f 55 41 40
f 54 41 55
f 60 45 58
f 58 72 60
f 99 79 98
f 99 81 79
f 100 83 99
f 83 81 99
f 132 127 126
f 126 129 132
f 5 2 126
f 126 127 5
f 139 138 152
f 152 153 139
f 356 302 355
f 355 302 301

