# https://github.com/mikedh/trimesh
v -0.04506082 -0.01777094 -0.05700274
v -0.01147213 -0.03945203 -0.06445380
v -0.01196560 0.03828263 -0.06507319
v -0.04276604 -0.00373554 -0.06316686
v 0.03090481 0.01608019 -0.06789855
v 0.04238031 -0.01922356 -0.06002284
v 0.03526529 -0.02701463 -0.06207661
v 0.00720261 -0.04930981 -0.05482002
v -0.01441257 0.04058448 -0.06327824
v -0.00977253 0.04099485 -0.06392816
v 0.01970088 0.03407380 -0.06540573
v -0.04388292 -0.01417497 -0.06035493
v -0.03712988 -0.02737864 -0.06028753
v -0.00751816 -0.04941013 -0.05426819
v -0.04803042 -0.00049880 -0.05776284
v -0.04341368 -0.02298115 -0.05574445
v 0.03232842 0.03645760 -0.05656534
v -0.03581165 -0.03532464 -0.05290227
v -0.04528863 -0.00813861 -0.06044352
v -0.03858426 -0.03124681 -0.05458729
v -0.03661383 -0.03146114 -0.05738219
v -0.02955368 -0.03557853 -0.06024455
v -0.04267902 0.00554627 -0.06309371
v 0.04193998 -0.01451320 -0.06215482
v -0.01850988 0.04816068 0.05667413
v 0.03651928 0.01986660 -0.06422604
v 0.00360953 0.03312750 -0.06838105
v 0.03955181 -0.02153892 -0.06159809
v -0.02440787 -0.02098862 -0.06814768
v -0.00455491 0.03935762 -0.06531807
v 0.02586441 -0.04313276 0.05760197
v 0.00426504 -0.04198735 -0.06378062
v 0.04348128 -0.00276375 -0.06287574
v 0.03296023 0.01119452 -0.06786546
v -0.04695850 0.00425664 -0.05905504
v -0.01467205 -0.04695615 -0.05588969
v 0.04490040 0.00295464 -0.06167875
v -0.00644990 -0.04158625 -0.06386325
v 0.04842573 0.00964042 0.05748986
v 0.04279665 0.01180665 -0.06223614
v 0.04435154 0.00715133 -0.06172531
v -0.03038036 0.01302510 -0.06834323
v -0.03426095 -0.03120609 -0.06005202
v -0.04502624 0.00637945 -0.06110250
v -0.03193967 -0.03913598 -0.05228558
v -0.03482154 0.02425718 -0.06359142
v -0.04842159 -0.00502824 -0.05665960
v 0.02137618 -0.03600057 -0.06400246
v -0.02530685 -0.02264825 -0.06808421
v -0.01691238 -0.04437953 -0.05877932
v -0.02969446 -0.03092324 -0.06324569
v -0.04866484 -0.00993231 0.05705817
v -0.00213753 0.04387776 -0.06259142
v -0.03925657 0.00822081 -0.06489066
v -0.00334316 -0.03438614 -0.06815754
v -0.04779361 -0.01054295 -0.05618191
v -0.02996054 0.02471565 -0.06552088
v 0.00990152 -0.04017509 -0.06424451
v -0.03390308 -0.02700284 -0.06289421
v -0.02727310 -0.02899357 -0.06506228
v 0.05144076 0.00536596 0.05667037
v 0.02525708 -0.04563233 0.05601914
v -0.02970379 0.01706418 -0.06795722
v -0.04566479 -0.00259124 -0.06079722
v -0.04583279 0.02324148 0.05648802
v -0.00387032 0.05128097 0.05692411
v -0.04449372 0.00175686 -0.06196325
v -0.02191051 0.03273503 -0.06531584
v -0.00177204 -0.04978714 -0.05472801
v 0.00702472 0.05251659 0.03281843
v -0.00125270 -0.04737453 -0.05897866
v -0.01899374 -0.04215957 -0.06031711
v 0.00792724 -0.04389855 -0.06199655
v 0.01293329 -0.04427188 -0.06056927
v 0.01181744 -0.03180661 -0.06819930
v -0.04486927 -0.02703044 0.03684399
v -0.00306168 0.04097134 -0.06455415
v -0.01864187 0.03859164 -0.06340669
v -0.02602518 -0.03629357 -0.06187932
v 0.02727418 -0.03205889 -0.06389735
v -0.02903347 -0.01758441 -0.06813608
v 0.00500591 0.05111037 0.05688960
v 0.01042105 0.05160556 0.03433732
v -0.04647561 -0.01163122 -0.05786299
v 0.01634503 -0.03599826 -0.06528833
v -0.01941575 -0.04698778 0.05729959
v 0.00115762 -0.04495158 -0.06169006
v 0.05030490 0.01095635 0.05704447
v -0.00508982 0.04666809 -0.05942005
v -0.02878097 -0.04032452 -0.05500592
v 0.00552703 0.04304163 -0.06300098
v 0.04509581 0.02329516 0.05732792
v 0.04593214 -0.00067203 -0.06069407
v -0.04886597 -0.01495894 0.05637292
v 0.02269672 0.03550664 -0.06388158
v 0.01126057 -0.04768102 -0.05660502
v -0.00741262 0.04391250 -0.06203768
v -0.02535353 -0.03389425 -0.06363307
v -0.00644906 -0.04826476 -0.05698729
v -0.01835917 0.03653317 -0.06461512
v 0.03088112 0.02753014 -0.06434532
v 0.02538374 0.04531947 0.05656723
v 0.02563041 0.02957571 -0.06545920
v -0.02740143 0.02892492 -0.06505532
v -0.03941425 -0.00579064 -0.06500437
v -0.02797620 0.03293284 -0.06309323
v -0.02194608 -0.02793153 -0.06720901
v 0.02250252 -0.04197011 -0.05875788
v 0.05098716 0.01128638 -0.03959078
v -0.02779078 0.03721704 -0.06007053
v 0.01840954 0.03861608 -0.06344855
v 0.04545728 -0.00784720 -0.06048822
v 0.01454012 0.04708697 -0.05528874
v -0.04164272 -0.01641372 -0.06171032
v 0.03283860 -0.01149507 -0.06812463
v -0.00475879 -0.04381843 -0.06244226
v -0.01289411 -0.04510903 -0.05950884
v -0.00720713 -0.05052163 -0.05111213
v 0.00301860 -0.04749131 -0.05875582
v 0.02510921 0.02295575 -0.06821611
v -0.03107260 0.02914091 -0.06348052
v 0.02416059 0.04226357 -0.05627542
v -0.04205672 -0.02055200 -0.05947264
v -0.02263032 -0.03346273 -0.06476060
v 0.03542110 0.03203883 -0.05830278
v -0.03986883 0.00159867 -0.06497246
v -0.02501522 -0.04130063 -0.05756394
v 0.03649995 0.01685194 -0.06495225
v -0.00020769 -0.04133389 -0.06429510
v -0.03358707 0.00774743 -0.06766392
v -0.01116214 -0.04986980 -0.05085603
v 0.01566609 0.04511543 -0.05818033
v -0.03928514 -0.01111298 -0.06449658
v -0.01623602 -0.03112645 -0.06752989
v 0.02591966 -0.03552058 -0.06251472
v 0.01204410 0.04625096 -0.05805358
v 0.04402145 -0.01481138 -0.06011754
v 0.01520400 -0.03957968 -0.06366122
v -0.01966943 -0.03761068 -0.06357132
v -0.04343297 0.01276354 -0.06129050
v 0.01896900 0.04328974 -0.05890658
v -0.02022849 -0.04007527 -0.06167967
v -0.03872087 0.01824036 -0.06334026
v 0.03140827 -0.03157901 -0.06202764
v -0.03920004 0.02764288 -0.05799194
v -0.04124206 0.01727905 -0.06180246
v 0.00273337 -0.03318579 -0.06823936
v 0.03308109 0.03291258 -0.05976060
v -0.03516915 0.02062736 -0.06458011
v -0.05050405 -0.00182896 0.05677389
v 0.00422412 -0.04868428 -0.05673627
v 0.03426139 0.02922564 -0.06153999
v 0.01195649 0.04184412 -0.06290106
v 0.03127002 -0.02751915 -0.06412104
v -0.02439854 -0.03968415 -0.05995587
v -0.04044525 0.01233349 -0.06365354
v -0.03448361 0.00141217 -0.06766945
v -0.03715479 0.01572156 -0.06482154
v 0.03906356 0.02089362 -0.06228141
v 0.03520902 0.02419217 -0.06348147
v 0.03666037 0.02651302 -0.06142154
v -0.03832671 -0.01596010 -0.06414428
v -0.02427405 0.03409154 -0.06399823
v 0.01601784 -0.04146164 -0.06210652
v 0.01595665 0.04320117 -0.06048408
v 0.01203112 0.04426348 -0.06069114
v 0.04024476 -0.02454395 -0.05918894
v 0.04012855 0.00524119 -0.06483926
v 0.03627652 -0.02263342 -0.06339712
v 0.04089646 -0.00227244 -0.06461388
v 0.02634667 0.03606147 -0.06196079
v 0.03825730 0.01140618 -0.06511932
v 0.00694065 0.04573828 -0.06018437
v 0.02997309 0.04257394 0.05637569
v 0.02207405 0.03938246 -0.06145815
v 0.02789755 0.03765216 -0.05947996
v -0.04021869 -0.02470711 -0.05893560
v 0.03993216 0.01405859 -0.06376509
v -0.01533465 -0.04800809 -0.05307268
v 0.04866723 0.01443620 0.05737039
v 0.00205828 0.04636366 -0.05997640
v -0.04207917 -0.01133991 -0.06268592
v -0.04714062 0.02155739 0.05561862
v -0.03145129 -0.02666338 -0.06430665
v -0.03828251 -0.02141089 -0.06245761
v -0.03579405 -0.02125021 -0.06404567
v -0.02126596 -0.04621077 -0.05135271
v -0.01369508 -0.04136187 -0.06276474
v 0.01683493 0.04153154 -0.06180424
v -0.03807589 0.03345936 -0.05343437
v 0.01700384 0.04958084 0.05082639
v -0.04594726 -0.01920006 0.05712082
v 0.05063555 -0.01231161 -0.02907053
v 0.01827244 -0.04932438 -0.03111823
v -0.04309864 -0.02638121 0.05721422
v 0.02540456 -0.04576705 0.04551977
v -0.00802159 -0.05198647 -0.00174298
v 0.03917391 -0.03366607 0.05658312
v 0.03022632 0.03431635 -0.06086146
v 0.02533745 0.04596493 0.00066932
v -0.04370681 0.02480398 -0.05306319
v 0.01298938 0.05072070 0.05357479
v -0.03673938 0.03309937 -0.05642399
v 0.04193251 0.00982909 -0.06327842
v 0.04129282 -0.03141101 0.05000509
v 0.00964594 0.03321630 -0.06786507
v 0.05183410 0.00263922 0.05368197
v 0.05148975 -0.00804524 -0.02912872
v -0.01377614 -0.05038159 0.05609571
v 0.05164784 -0.00177110 0.05666440
v 0.03821834 -0.03511406 0.05221419
v 0.04904624 0.01810915 -0.02519328
v 0.01373583 -0.04829984 0.05765836
v -0.01176117 0.05120141 0.01356046
v 0.03638056 0.03372721 -0.05467901
v 0.02110979 0.04795880 0.05092722
v 0.01059119 -0.05127818 0.05615591
v 0.02198368 -0.04774180 0.01576220
v 0.04788342 -0.01203877 0.05769422
v 0.04685792 0.02322909 0.04493985
v -0.00672318 -0.05187694 -0.03354729
v 0.02539257 0.04601828 0.02306805
v -0.03530865 -0.03628315 0.05721663
v -0.00965453 -0.05126766 -0.04185380
v 0.04783023 0.02147271 -0.01175706
v -0.02451958 0.03797790 -0.06141952
v 0.03201538 -0.04113754 0.05345053
v -0.02524010 -0.04602089 0.00840527
v 0.01857035 0.04915464 0.00701285
v 0.02785468 0.04442273 -0.01470802
v 0.01675284 0.04979305 -0.00087566
v 0.02161935 0.04792944 0.03094989
v 0.05083362 -0.01103703 -0.04021170
v -0.00721698 -0.05126145 -0.04715776
v -0.00710639 -0.05215794 0.00934214
v -0.05219212 -0.00216779 -0.01708602
v -0.04853262 -0.01186426 -0.05389985
v 0.02154964 0.04781281 -0.01305633
v 0.04816248 -0.01901368 -0.04597192
v -0.03841480 0.03343675 0.05682234
v 0.00882810 -0.05193247 -0.00041315
v -0.01869787 -0.04859791 -0.04536779
v 0.01308563 0.05086970 0.04433788
v -0.03151746 -0.03934095 0.05728216
v 0.01093343 -0.05150711 0.01423985
v -0.05001569 0.01368636 -0.04231146
v 0.02756165 0.04466847 0.00079035
v 0.03493103 -0.03853317 0.05403429
v 0.05044122 -0.01350861 0.00371067
v 0.05005699 -0.01487430 -0.01587784
v -0.01353032 -0.05027290 -0.04483618
v 0.04487486 0.02682982 0.04781468
v 0.03509887 -0.03813899 0.05628853
v 0.03368683 -0.03974204 0.04647683
v -0.00248407 0.04613271 -0.06030951
v 0.01016437 -0.05164736 -0.01816649
v -0.00527958 -0.05238631 0.02362833
v -0.01359735 0.04459745 -0.05976926
v 0.02868442 -0.04378328 -0.04240818
v -0.01089273 -0.05135528 0.05206375
v 0.01681026 0.04980861 0.03810254
v 0.01158085 -0.05130065 0.03895566
v 0.04700081 -0.02273661 -0.02499021
v -0.00415463 -0.05221914 -0.03372989
v 0.01902196 0.04902240 0.02494312
v -0.00394471 -0.05247528 0.03706346
v -0.03274303 -0.04037963 -0.04272124
v 0.00286813 0.04907561 -0.05593938
v -0.00688347 -0.05199635 -0.02583121
v 0.02795862 0.04428624 0.05255506
v 0.00484694 -0.05189455 -0.04525524
v 0.04982298 -0.01522135 -0.03214133
v 0.00826947 0.04924153 -0.05371307
v 0.05223248 -0.00146718 -0.01470324
v -0.00918163 0.04673977 -0.05831268
v 0.02977317 -0.04228966 0.05671194
v 0.01345028 -0.05078611 0.04926132
v 0.02775307 0.03948029 -0.05730516
v -0.03404344 0.03723899 -0.05306425
v -0.00199936 -0.05207868 0.05668022
v 0.05185808 -0.00607831 -0.01648890
v 0.00886793 -0.05152309 -0.04342708
v 0.02893187 0.04388813 0.02556392
v -0.01923572 0.04632290 0.05711285
v 0.03579860 0.03838605 0.00418553
v 0.05128344 -0.00979672 -0.01409573
v 0.02349875 -0.04713211 -0.01168533
v 0.05075654 -0.00903999 -0.04763983
v 0.05053422 0.01327744 -0.03518116
v 0.02543623 0.04409256 0.05722447
v 0.00274886 0.05046625 -0.05195551
v 0.05096327 -0.01033740 0.03752792
v 0.05170745 -0.00656149 0.02663204
v 0.03875589 0.02990728 -0.05614163
v -0.02640760 -0.04388060 0.05711586
v 0.05064969 -0.01271289 -0.01414075
v 0.05181871 0.00685998 -0.02070068
v 0.05158933 -0.00655943 0.03955735
v 0.02844852 -0.04376478 0.05372540
v 0.01960487 -0.04854845 -0.04304040
v 0.04340397 -0.02853570 0.04107355
v 0.01663333 -0.04986913 0.03276560
v 0.03166752 0.04186892 0.00973532
v -0.03573730 0.03445511 0.05709369
v -0.04808848 0.00933789 -0.05609088
v -0.05143556 -0.00366888 -0.04670410
v -0.03433699 0.03807655 -0.04919617
v 0.01419221 -0.05067203 0.02721755
v -0.04675692 0.01688023 -0.05456159
v -0.01300119 -0.04978819 0.05728799
v 0.03115728 0.04233449 0.02774077
v 0.03941615 -0.03091440 0.05766381
v 0.04808335 -0.02041254 -0.01691045
v 0.02384795 0.04670474 -0.01334139
v 0.04960368 -0.01637865 -0.00655815
v 0.02233572 0.04751394 0.00020828
v 0.01517529 -0.05040176 0.01345664
v -0.00126150 -0.05255696 0.05475437
v 0.04976128 -0.01435677 -0.04535582
v 0.03014575 0.04293638 -0.00555578
v -0.04910091 0.00146605 0.05697935
v 0.04291863 0.02499332 -0.05458440
v 0.05088004 -0.01135517 0.02273993
v -0.02409995 -0.04665134 0.02320852
v -0.04985161 -0.01096248 -0.05001203
v 0.05210289 -0.00384989 -0.01243467
v -0.00392537 -0.05250463 0.00106017
v -0.02450335 -0.04611857 -0.04232657
v 0.03056668 0.04264173 0.04439512
v 0.03639788 0.03774020 -0.01594237
v -0.02307296 -0.04689734 -0.03630916
v 0.04512492 -0.02516172 -0.04720033
v 0.05148750 0.00943327 -0.01204518
v -0.04890438 -0.01710300 -0.04372880
v -0.01482380 -0.05022960 -0.03782264
v -0.04926430 -0.01510608 -0.04709784
v 0.04106389 0.03175785 0.05668496
v 0.03516048 0.03576251 -0.05303210
v -0.04200556 0.03092919 -0.02771831
v 0.01600193 -0.04831044 -0.05242936
v 0.04484298 -0.02662574 -0.03892981
v 0.04640741 0.02441845 -0.01030295
v 0.04440095 -0.02697901 -0.04471464
v -0.01808419 0.04862820 -0.04442441
v 0.04316693 -0.02927591 -0.04095398
v 0.05195011 -0.00191622 0.04329942
v 0.03620601 -0.03747355 0.03941491
v -0.04001209 0.03342488 -0.03100044
v 0.03371525 0.04029997 0.01935534
v 0.05175079 0.00605347 0.04312717
v -0.05071655 0.00990366 0.05567576
v 0.02559103 -0.04579216 0.02965944
v -0.01772443 0.04825008 -0.04833233
v -0.05160144 0.00305810 -0.04529609
v -0.02747451 0.04426829 0.05544798
v 0.00942026 -0.05104518 -0.04795373
v -0.01349867 0.04848700 -0.05270895
v -0.02450496 -0.04327443 0.05732878
v 0.04419445 -0.02702874 0.05537768
v -0.04973661 0.01531314 0.03183396
v -0.05097419 0.01010954 -0.03525690
v 0.01595325 -0.04941137 0.05690610
v -0.01940757 -0.04859818 -0.03920159
v -0.01892858 -0.04855150 0.05611245
v 0.04897993 -0.01790232 -0.02749829
v 0.04895322 -0.01823401 -0.00211572
v -0.02288685 -0.04687360 0.05545136
v -0.02595268 -0.04444378 -0.04929949
v 0.02402023 0.04649290 -0.02213021
v 0.04702079 0.02220015 0.05624770
v 0.01986287 0.04862306 0.04366188
v -0.03909565 0.03405730 -0.04425504
v -0.01959376 0.04542870 -0.05505674
v 0.04836667 -0.01922512 -0.04098246
v -0.00282918 -0.05258623 0.01424803
v -0.05017852 -0.00886065 0.05640445
v -0.02189381 -0.04773164 0.03513474
v -0.02738886 -0.04449106 -0.03854710
v -0.00501265 -0.05229439 -0.01376734
v 0.02204139 0.04769305 0.01526906
v 0.05028455 0.01219645 -0.04622309
v 0.04975284 -0.01559402 0.01802346
v -0.05167909 -0.00276111 0.05387127
v 0.05118453 -0.00825695 0.04720157
v 0.00292293 -0.05250262 0.05266983
v 0.04999959 -0.00378054 0.05762277
v 0.04791992 -0.02020066 0.03336864
v 0.00863581 -0.05083817 0.05729582
v -0.04828359 -0.01981485 -0.00378791
v 0.02879348 -0.04152298 -0.05331308
v -0.04070962 0.03155226 -0.04762879
v 0.04697006 -0.02257405 -0.03568337
v -0.01469450 0.05031948 0.04414098
v 0.03345123 0.04040665 -0.00460687
v -0.00033182 -0.05036726 0.05769802
v 0.03570323 -0.03844653 -0.01008667
v 0.01976144 -0.04636365 0.05781198
v 0.02877302 -0.04369647 0.03877883
v 0.04566341 -0.02537833 -0.02570597
v -0.04776342 0.01879898 0.05649702
v -0.04884327 0.01734611 0.05540501
v -0.05172469 -0.00682101 -0.02263924
v -0.00256515 -0.05243552 -0.02287796
v -0.04961300 0.01513974 0.05197275
v 0.04779116 0.02084613 0.05156776
v -0.03794006 0.03424806 -0.05059635
v -0.00084648 -0.05264265 0.03416923
v 0.01452145 -0.05064263 -0.00312361
v 0.05139144 0.00981114 -0.03636905
v 0.00373678 -0.05127230 0.05740305
v -0.02534851 -0.04587589 -0.00821947
v 0.03696859 -0.03710310 -0.03661957
v 0.03886406 0.03150522 0.05726065
v -0.03581541 0.03751139 -0.04418116
v 0.04922652 0.00362358 0.05756821
v -0.00717605 0.05203902 0.00007532
v 0.01505997 0.05006884 0.05545340
v 0.01718215 -0.04957535 0.05538071
v 0.05034895 0.01443405 -0.01541516
v -0.02455051 0.04543012 0.05651839
v -0.05082376 0.00070937 -0.05094427
v 0.03875257 0.03537200 -0.00502171
v 0.00479303 -0.05228166 -0.03121156
v 0.00653688 -0.05216573 -0.02262876
v -0.02244608 -0.04747728 0.00571699
v -0.03418064 0.03931050 -0.03629891
v 0.04602170 -0.02343699 0.05658961
v -0.04831170 -0.01969426 -0.02226654
v -0.03726898 0.03642805 -0.03441704
v -0.04693190 -0.02285868 -0.00535089
v -0.01921133 0.04860145 0.05114996
v 0.01853259 -0.04921595 0.01917407
v 0.01487908 0.04953945 0.05668951
v -0.03862978 0.03501896 -0.03231157
v 0.03256877 0.03901643 0.05723814
v 0.03669487 -0.03282017 -0.05600046
v 0.05027193 -0.00881400 0.05738317
v 0.02369080 0.04685668 0.04265113
v 0.04686035 -0.01121427 -0.05761698
v -0.04889256 -0.01765771 -0.03703735
v 0.05164482 -0.00754329 0.01371445
v 0.03523333 0.03867336 -0.02471280
v -0.03879735 0.03146517 -0.05456115
v 0.03835193 -0.03300423 -0.05275803
v 0.00160450 -0.05264008 0.02313558
v 0.05121728 -0.01021470 0.00344676
v 0.00119098 -0.05259937 0.04383861
v 0.04025110 -0.03302251 0.03562096
v 0.04222794 -0.02801689 -0.05205682
v 0.02096367 -0.04744831 0.05685112
v 0.01565449 -0.05030299 -0.01802955
v 0.03356421 0.04035544 0.04159205
v -0.00606884 0.05177392 0.05593330
v -0.04513932 -0.02569789 0.05016685
v 0.04305791 -0.02377541 -0.05600609
v 0.05043476 -0.01285825 0.03375886
v 0.01995251 -0.04857837 0.03550501
v -0.00454546 -0.05128713 0.05731244
v -0.04908063 0.01364136 0.05670821
v -0.04530718 0.02228393 0.05694533
v 0.02830375 -0.04414267 0.02201966
v 0.00038685 -0.05267434 0.00784073
v 0.01678346 0.04728986 -0.05276452
v 0.00389097 -0.05249919 0.03726457
v -0.01254454 -0.05091545 -0.02550866
v 0.04669491 -0.01735688 -0.05437564
v -0.05185732 -0.00627698 -0.01587305
v 0.03780224 0.03644455 0.01473667
v -0.04145041 0.02609798 -0.05611946
v 0.04977141 0.01548364 0.05378728
v 0.04499529 0.02641260 0.05281760
v 0.02002702 0.04806486 0.05623278
v 0.02533517 -0.04611139 -0.00419630
v -0.04154603 -0.02726336 -0.05454003
v 0.02809139 -0.04440744 -0.00025419
v 0.03807264 -0.03571315 0.02650411
v -0.05140456 0.00334175 0.05590311
v -0.05010306 0.00735035 0.05681776
v 0.04771103 0.00423088 -0.05811845
v -0.01903804 -0.04894419 0.04041204
v -0.01615155 -0.04990425 0.05171112
v 0.04350651 0.02877032 0.05616881
v -0.04984551 0.01200461 -0.04872661
v 0.00461408 -0.05238995 0.05044033
v 0.04139960 -0.03206794 -0.01072700
v -0.00207786 0.05232388 0.05269567
v 0.05181646 0.00673682 0.02633031
v -0.02004868 -0.04858909 0.02105356
v -0.01741405 -0.04960809 0.01042111
v 0.04664806 -0.02295303 -0.04326000
v 0.05023614 0.01381605 -0.04059032
v 0.04654185 0.00994069 -0.05860303
v 0.02690914 0.04512514 0.03808081
v 0.05133193 0.00921357 0.04229887
v -0.03756011 -0.03506946 0.05659683
v 0.05043068 -0.01169505 0.05192136
v 0.03174299 -0.03858511 -0.05467542
v 0.03893731 0.03507236 -0.01772576
v 0.04481724 0.01198416 -0.06024827
v 0.03844717 -0.03511718 0.03848589
v 0.03042755 0.03944304 -0.05372275
v 0.04320913 0.01720465 -0.06006027
v 0.04102719 0.02233126 -0.05977518
v 0.01233962 -0.05121545 -0.00962998
v 0.04232736 0.03089655 -0.01753544
v -0.04073795 0.03016880 -0.05188630
v 0.04808252 0.02077282 0.03429163
v 0.04997064 0.01514952 -0.03614934
v 0.04924060 0.01774287 0.03399292
v 0.00575898 -0.05234607 0.02414718
v 0.05120654 -0.00115510 0.05722631
v 0.02668365 -0.04540030 -0.01738757
v -0.03165935 0.04109045 0.05613433
v 0.00103842 -0.05229387 -0.04054987
v -0.04152776 0.02606916 0.05707130
v -0.03928051 0.02206992 -0.06153799
v -0.02054532 -0.04506316 -0.05528571
v -0.02537971 -0.04285152 -0.05486384
v 0.04048166 -0.03298126 0.01739929
v 0.02291155 -0.04719876 0.03571840
v 0.04364384 -0.02868187 -0.03398056
v 0.00704053 -0.05214891 0.04130282
v 0.05084080 0.01108461 0.05483453
v 0.04311671 -0.02443042 0.05769158
v 0.02931006 -0.03840760 -0.05784765
v -0.03549351 -0.03775604 0.05596800
v 0.03134287 -0.04180707 0.03829096
v 0.01752950 -0.04966260 -0.00034844
v 0.03274629 -0.03521745 -0.05841303
v 0.03384527 0.04019714 0.02975434
v -0.03155632 -0.04044076 0.05698082
v 0.03612284 0.03816293 0.02467917
v -0.04341266 -0.02756696 0.05619471
v -0.00030923 -0.05259522 -0.01042191
v 0.04673572 0.02378242 -0.00084172
v 0.04821407 0.01986705 -0.03419401
v -0.02815760 -0.04390869 0.05564018
v 0.04241918 -0.02845282 0.05723736
v -0.01646652 -0.04991214 0.03580825
v -0.04579334 -0.02568790 0.03347130
v -0.05167073 -0.00420261 -0.04345446
v -0.00044206 -0.05193856 -0.04616449
v -0.05175259 -0.00494701 0.02565993
v 0.03741562 0.03608955 0.05649646
v 0.04700973 -0.01822900 0.05759082
v -0.04417183 0.02722627 0.05555887
v 0.04912320 -0.01619485 0.05481224
v 0.00490348 -0.05222360 0.05586832
v 0.03668917 -0.03297498 0.05769899
v -0.00045892 -0.05241178 -0.03403207
v -0.02215607 -0.04750895 -0.01208498
v 0.03679050 -0.03554693 0.05714076
v 0.04709205 0.02296435 0.03461959
v 0.03837827 0.03351994 -0.05052654
v 0.02342913 0.04677167 0.05521741
v -0.00021443 0.05001602 0.05710482
v 0.05154274 -0.00517597 0.05337698
v -0.04555139 0.02531142 -0.02933258
v 0.04159312 -0.03112594 -0.04562590
v 0.04291130 -0.02882518 0.05642279
v -0.04101571 0.02848313 0.05707099
v 0.04609950 -0.02233755 0.05719088
v -0.02004674 -0.04855165 0.00268275
v -0.04040783 -0.03261504 0.05520678
v 0.00964034 -0.05165276 -0.03235374
v 0.03114704 -0.04214175 0.01942171
v -0.03095676 0.03859088 0.05711939
v -0.03673436 0.03666497 0.05584312
v -0.03133243 0.04002937 0.05691611
v -0.01822508 -0.04931504 0.02843245
v 0.01898593 0.04810890 -0.04461637
v 0.04981515 0.01620511 0.00871694
v -0.04582387 0.02510555 -0.01877187
v -0.04418388 0.02780162 -0.02369033
v 0.03190859 -0.03951325 0.05734656
v -0.01318920 0.05083837 0.02279025
v 0.02469673 0.04491432 -0.04753481
v -0.05056466 -0.00677846 -0.05016451
v -0.04540065 0.02593630 -0.01083355
v 0.00524123 -0.05241628 0.00669150
v 0.01439853 0.04897184 -0.04972512
v 0.05087692 0.00354275 -0.05045074
v 0.01377421 0.04988917 -0.04538902
v -0.04570738 0.02393844 -0.04674834
v -0.04279565 0.02944948 -0.04199099
v 0.00910543 0.05051701 -0.04850929
v 0.02041701 0.04656202 -0.04972046
v -0.04701841 0.02286360 -0.00855619
v 0.02545864 0.04315758 -0.05271181
v -0.05040259 -0.01277215 0.03523089
v -0.03603777 -0.03713951 -0.04546119
v 0.04031180 0.03237219 -0.04627792
v 0.03968306 0.03361504 -0.04153898
v 0.00751686 0.04753541 -0.05754691
v 0.01976875 0.04488827 -0.05542828
v 0.05198013 -0.00356132 0.03414764
v 0.01819088 0.04767846 0.05710916
v -0.00429253 -0.05199280 -0.04171423
v -0.04889553 0.01768390 0.04429178
v 0.02244896 -0.04731716 0.05005331
v 0.01779586 0.03661520 -0.06476285
v 0.00683398 -0.05219584 -0.00810263
v -0.02652500 0.01977552 -0.06834407
v -0.04951827 0.01452761 0.05598031
v 0.00315764 -0.05256774 -0.00124486
v 0.03392524 -0.00357261 -0.06819509
v 0.00908443 -0.04684995 -0.05862429
v 0.00952279 -0.05170503 0.05230400
v -0.04535903 0.02603301 -0.00307759
v -0.00962494 -0.05163067 -0.01652434
v -0.02378968 0.04520967 -0.04988877
v -0.04812538 0.01950902 0.05023146
v -0.02113978 -0.04317938 -0.05787318
v -0.05189947 0.00175076 -0.03952167
v 0.04267684 -0.00764470 -0.06303836
v 0.01876305 -0.04925059 -0.01378593
v 0.03755286 -0.02932056 -0.05856091
v -0.04824129 0.02008000 -0.00419009
v 0.03676933 -0.01598847 -0.06497136
v 0.02915311 -0.04381919 -0.01575937
v -0.00190706 0.05198670 -0.03888495
v -0.01970257 0.02846891 -0.06770026
v 0.03396619 -0.03968736 0.03147878
v 0.01450422 0.05000912 -0.04074453
v 0.03043461 -0.04278140 0.00221353
v 0.04337286 -0.02927243 -0.01089202
v 0.00911924 -0.03413246 -0.06757084
v 0.02099727 -0.04830331 -0.00675485
v 0.01128918 0.03868516 -0.06498774
v -0.01951534 0.02677861 -0.06840992
v 0.00232880 -0.05249459 -0.02038881
v -0.00943475 0.05130982 -0.03523255
v -0.04757068 -0.02051572 -0.04323530
v 0.00835585 -0.05198880 0.01718000
v 0.04629634 -0.02317935 0.05455372
v 0.00924638 -0.05182318 0.03377660
v 0.00618034 0.04038181 -0.06466765
v 0.01937717 0.04829481 -0.03867237
v 0.00101580 0.04269560 -0.06351285
v -0.03197919 0.01261827 -0.06780616
v -0.01280269 0.03094164 -0.06837493
v -0.04412918 0.02218980 -0.05532285
v -0.04256275 0.03039529 -0.01530757
v -0.03046340 0.04084315 -0.05066839
v -0.00646961 0.05121773 -0.04619993
v 0.03135168 -0.04218198 -0.01114426
v 0.04181000 -0.03113976 0.02625182
v 0.03265463 -0.04107238 -0.00098577
v 0.01538994 0.05028502 0.02450946
v -0.05108167 -0.01092256 -0.01856020
v 0.02331340 -0.04721020 -0.02406303
v -0.05008681 0.01386319 0.04210550
v -0.01768925 -0.02832504 -0.06808969
v 0.01426219 -0.04629749 -0.05756226
v 0.04041805 0.03350524 0.01953616
v 0.05198544 0.00285039 0.04298756
v -0.05145187 -0.00732086 -0.03723383
v 0.04922193 0.01579673 -0.04648988
v 0.03601320 -0.03791891 0.01840420
v -0.04335680 -0.02919910 0.03248709
v -0.04500465 0.01647677 -0.05789263
v 0.05103182 -0.00564038 -0.04875740
v 0.03488011 -0.00618866 -0.06753570
v -0.04218653 0.02170132 -0.05873737
v -0.04302923 -0.02925512 0.04852577
v -0.04782469 -0.01886576 -0.04831734
v 0.01982561 -0.02917835 -0.06749525
v -0.04455423 -0.02638456 0.05504187
v 0.00592374 0.05160952 -0.04165426
v -0.02502400 0.02345548 -0.06792509
v 0.03926880 -0.00950939 -0.06487388
v -0.04758384 -0.02098235 -0.03362298
v 0.01447418 -0.05059879 -0.02719046
v -0.01601618 -0.04987088 -0.03130903
v 0.03458243 0.00579119 -0.06767685
v -0.03070655 -0.01023008 -0.06817441
v 0.01404178 0.03208036 -0.06758612
v -0.04019683 -0.03327962 0.04268949
v 0.04230049 0.01502250 -0.06180733
v -0.04590821 0.02163009 -0.05135755
v 0.02447668 -0.04647923 -0.03440489
v 0.05145936 0.00930999 0.02401464
v 0.05210973 0.00363705 -0.02139894
v 0.05217292 -0.00200413 0.01696186
v -0.04575782 0.01023509 -0.05948515
v 0.01895248 0.04888705 -0.01491185
v 0.01840896 -0.02751724 -0.06820425
v 0.05193190 -0.00421476 -0.03302287
v 0.04235365 0.00389015 -0.06362752
v 0.02630513 -0.04554900 -0.02752060
v 0.05047019 0.01311604 0.04674832
v 0.02056298 -0.04848807 -0.02354198
v 0.02661271 -0.03837433 -0.05987160
v -0.04582905 -0.02395335 -0.04472586
v 0.03900654 0.02716859 -0.05862208
v 0.02177688 -0.04007277 -0.06104507
v -0.04339703 0.02728456 -0.04879293
v -0.03241074 -0.01241724 -0.06757813
v -0.04933307 0.01721333 -0.01431246
v 0.01031363 0.05089142 -0.04340536
v 0.04644511 0.02430829 0.02850457
v 0.02641137 -0.04486012 -0.04635997
v -0.03205108 0.00303689 -0.06829550
v 0.04953741 0.01271341 -0.05015397
v -0.04040256 -0.03314379 0.03054347
v -0.04482239 0.02619257 -0.04135650
v -0.05136099 0.00158063 -0.04837236
v 0.00382321 0.05209601 -0.02963629
v -0.00735416 -0.04484583 -0.06122467
v 0.02770544 0.03239698 -0.06353282
v 0.05134282 -0.00751957 -0.04409218
v -0.04891429 0.01772181 -0.03341133
v -0.01308034 0.04251770 -0.06214436
v 0.02838262 -0.04417006 -0.03611461
v -0.05199236 -0.00242396 -0.03194875
v 0.02557943 -0.04572663 -0.04127540
v -0.02651363 -0.04341533 -0.05179533
v -0.00205478 -0.05126751 -0.05015979
v 0.01441552 0.03012567 -0.06835962
v -0.04791239 0.02065113 -0.02174197
v 0.01827978 0.02940395 -0.06786568
v -0.03716164 -0.03657079 0.05056981
v 0.02054749 -0.04740913 -0.04914430
v -0.02952332 -0.03748564 -0.05838554
v 0.02158892 -0.04784981 -0.03827476
v -0.00235231 0.04848378 -0.05710445
v -0.01162792 -0.03203454 -0.06812434
v 0.00752493 -0.04559942 -0.06048914
v -0.03467643 0.03929872 0.00240011
v 0.02042787 -0.04683871 -0.05168426
v 0.04138928 0.03225221 -0.00798805
v 0.02999899 -0.03466424 -0.06079843
v -0.04165157 -0.03155022 -0.00620044
v -0.05057711 -0.01141799 0.04847995
v 0.02123545 -0.04760240 -0.04596789
v -0.04399663 0.02779520 -0.03524466
v 0.02268184 0.04121233 -0.05926068
v 0.02990760 -0.04325415 -0.02671347
v -0.04371802 0.02872575 0.00129490
v 0.00339809 -0.03504788 -0.06766435
v 0.02935522 -0.01844918 -0.06819675
v 0.04416477 0.02669812 -0.04769771
v 0.00935071 0.05124702 -0.03785763
v -0.02961258 0.04327477 -0.00858537
v 0.03287106 -0.04104044 -0.02144064
v 0.00380612 0.05155151 -0.04582721
v -0.04008296 0.03366109 -0.01084059
v 0.05183498 -0.00268932 -0.04387918
v -0.03282785 -0.00790285 -0.06813402
v 0.05171810 -0.00561766 -0.04056669
v 0.04226023 0.03082282 0.05107164
v -0.00752494 -0.04644894 -0.05937091
v -0.04918044 0.01752997 0.00001391
v -0.03255745 0.04051195 -0.04180658
v 0.02869786 0.02006490 -0.06765900
v -0.04498120 -0.02439629 -0.04911102
v -0.04642237 -0.02237036 -0.04676620
v 0.00459072 0.05261274 0.03086384
v 0.00079773 0.05204935 -0.03711428
v -0.00154729 0.03404348 -0.06822228
v -0.03759006 0.03645640 -0.01173062
v 0.00914349 0.05146788 -0.02510714
v 0.03166472 0.03987337 -0.05011947
v -0.01291958 0.04662787 -0.05698625
v -0.00458172 0.05202084 -0.03253817
v 0.01314744 -0.05082819 -0.03719330
v 0.05216381 0.00067431 0.03185015
v 0.04554036 0.02595932 0.03549194
v 0.05047185 0.01375726 0.03271610
v 0.03856823 0.03515859 -0.03244052
v 0.03574807 0.00087133 -0.06718051
v 0.03051473 -0.01306101 -0.06823973
v 0.01410600 0.05063366 0.01618365
v 0.02555466 -0.03042774 -0.06517861
v 0.00021152 0.05229276 -0.02703622
v 0.01233774 -0.05058895 -0.04643081
v -0.00778675 0.03386466 -0.06771326
v 0.02882274 0.01724612 -0.06829822
v -0.00515666 -0.03270280 -0.06819805
v -0.04016965 0.03316534 0.04849261
v 0.03032954 -0.04284958 -0.03585399
v -0.01840377 0.04430222 -0.05777743
v -0.04145030 -0.03155044 -0.02879644
v 0.04389709 0.02863406 0.03901510
v 0.04375101 -0.02830052 0.02553859
v -0.03238180 -0.03718956 -0.05555119
v 0.02691385 -0.02362059 -0.06723289
v 0.03879110 -0.01698440 -0.06364838
v -0.03408224 0.03978414 0.02134973
v 0.03467747 -0.03869906 -0.04634639
v -0.03621029 0.02674260 -0.06156748
v -0.00456479 0.03241946 -0.06845624
v -0.01469014 -0.05044024 0.04265342
v -0.03466378 0.03553827 -0.05538578
v 0.00917407 0.05162930 0.04951572
v -0.04106443 0.03190530 -0.03982783
v 0.03128630 -0.04143843 -0.04724004
v 0.05209198 0.00470651 0.00368783
v -0.04620541 -0.02422447 -0.02256705
v -0.03425798 -0.03497142 -0.05620560
v -0.01977562 0.04209157 -0.05999767
v 0.03174089 -0.04158652 -0.04233102
v 0.00602559 -0.05203489 -0.04023011
v 0.03305454 -0.04073668 -0.03578981
v -0.05184450 0.00464337 -0.03132796
v -0.04662216 -0.02002834 -0.05172444
v 0.01682416 -0.04376446 -0.05969025
v 0.03956454 -0.03432874 -0.03084255
v 0.02437647 -0.02298662 -0.06826766
v -0.03233557 0.04099623 -0.02906736
v 0.03947444 -0.03426922 -0.03953719
v -0.03776407 -0.03613231 0.03851501
v 0.04830728 -0.01205100 -0.05442586
v 0.04572494 0.02386090 0.05698130
v 0.04056374 0.03295595 -0.02881429
v -0.04576614 -0.02468359 -0.03366041
v 0.03555493 -0.03829793 -0.04253418
v 0.01532739 0.05020449 -0.00903529
v -0.04875677 0.01828631 0.03044581
v 0.04987561 0.00577095 0.05751469
v 0.03296626 0.04033550 -0.03508712
v -0.03748584 0.03657200 0.00250278
v -0.03590569 0.03808630 0.02748096
v -0.01794489 -0.04933683 -0.00730048
v -0.03262325 0.03412239 -0.05899390
v -0.03260006 0.04105208 0.00662723
v -0.04696263 0.02215793 -0.04036417
v -0.01192455 0.05092595 -0.02913729
v -0.04688975 0.02276041 0.03033364
v -0.03914574 -0.03463329 -0.01113148
v 0.05072880 -0.00231753 -0.05136921
v -0.02126310 0.04781262 0.04713524
v -0.01506130 0.04986931 -0.03709808
v -0.02871072 0.04330399 -0.04252888
v -0.03054560 0.04165772 -0.04683771
v 0.04963062 -0.00760782 -0.05333993
v -0.01855893 0.04888978 -0.02669559
v 0.04649861 0.02283314 -0.04565904
v -0.01507888 -0.04914629 -0.04973881
v 0.04244144 0.03039709 -0.03272439
v -0.03428176 -0.03933993 0.05299198
v -0.00595503 0.05221857 0.02152234
v -0.04543691 -0.02576510 -0.01319733
v -0.04019805 0.03343122 -0.01994965
v 0.03139945 0.04193995 -0.01745689
v -0.01438051 0.05051326 -0.00459535
v 0.00361467 -0.05036740 -0.05305910
v -0.03023824 0.03336572 -0.06159611
v -0.02779325 0.04446114 -0.01085997
v -0.01060237 -0.05128649 -0.03252918
v 0.03607296 0.03680478 -0.04712055
v 0.01635432 -0.04986487 -0.03994291
v -0.00897285 0.05171364 0.04238652
v -0.03738346 -0.03658636 0.01852347
v 0.03542916 -0.03876966 -0.02503271
v 0.00503753 -0.05130148 -0.04943157
v -0.01408462 -0.05067996 0.00670551
v 0.01636206 -0.04938634 -0.04682183
v -0.02343585 0.04695265 0.00505075
v -0.01578774 -0.05017305 0.01909201
v -0.00644543 0.05156453 -0.04122950
v -0.02737898 0.04474241 0.02688776
v 0.03349923 -0.04025916 0.01276245
v 0.00816946 0.05140429 0.05620211
v 0.05082211 0.01247772 0.01982733
v 0.05204286 0.00548288 -0.00888073
v -0.02981981 0.04277486 -0.03378651
v -0.05188303 -0.00271749 0.03512655
v 0.04528251 -0.02613737 -0.00901474
v -0.03949737 -0.03424441 0.01264428
v -0.01482405 -0.05035833 -0.01405461
v -0.03438612 -0.03939536 -0.01445443
v -0.00985293 -0.05170341 0.02687098
v -0.04142422 0.03199440 -0.00094400
v -0.02331650 0.04679123 -0.02721189
v -0.04966537 -0.01530287 0.04069477
v 0.04982131 0.01576626 0.04182830
v -0.01889413 0.04859142 -0.03505521
v -0.01346577 0.05047393 0.05399423
v 0.04263931 0.02976913 -0.04272386
v 0.04211224 0.02970664 -0.04769830
v -0.05139670 -0.00185762 0.05591790
v -0.05200303 -0.00336982 0.00249839
v -0.04138268 -0.03163416 0.04851312
v -0.02430260 0.04651180 0.02373667
v -0.04772251 -0.02027381 0.05241787
v -0.03161681 0.04182046 -0.00762580
v 0.04559456 -0.02501945 0.03391642
v 0.04011180 0.03356552 0.05395693
v -0.05193923 0.00080261 0.03550559
v -0.03254497 0.04105059 -0.01548425
v -0.04584097 0.02448634 0.05230826
v -0.03259084 -0.04099301 0.03820217
v -0.03985748 -0.03217798 -0.04915806
v 0.05095822 0.00825270 -0.04708502
v -0.04997070 -0.01441769 -0.03708854
v -0.05114266 -0.00780759 0.05385134
v -0.04919254 -0.01648147 0.04890524
v -0.04733136 0.02165875 -0.03082035
v 0.04817680 -0.02002492 0.01149223
v 0.01202026 0.05115414 0.00975857
v -0.03694169 -0.03658256 -0.03829868
v -0.01145222 -0.05132752 0.04025145
v -0.05073948 -0.01176920 -0.03206750
v 0.04944963 -0.01245400 -0.05052278
v 0.04803461 -0.02052759 -0.00235296
v -0.01227271 -0.05109980 -0.00878446
v -0.01746271 0.04949801 -0.00864503
v 0.05223904 0.00266081 -0.00828297
v 0.04941573 -0.01609923 0.03614543
v -0.05214152 0.00196032 -0.00625734
v -0.05141231 -0.00896756 -0.00682257
v 0.05066513 -0.01005567 0.05666404
v 0.01479694 0.05022380 -0.02000876
v -0.01722245 0.04960175 0.02651707
v 0.02991799 0.04199616 -0.04591401
v -0.01816990 0.04922211 0.03760139
v -0.01327986 -0.05090560 0.02981841
v -0.04281914 0.02842665 0.05649578
v -0.02403681 0.04654892 -0.01711565
v -0.03001928 -0.04299842 0.03137583
v 0.05187761 0.00679345 0.00494625
v -0.03038003 0.04254621 -0.02426892
v 0.05227626 -0.00002942 0.00083629
v -0.04453516 -0.02699514 -0.02901694
v -0.04046557 0.03244098 0.05590049
v 0.04141432 0.03223838 0.01057273
v -0.03857388 0.03502988 0.05061360
v -0.01861109 0.04091295 -0.06171122
v -0.05199180 0.00456328 -0.00760514
v -0.04722501 -0.02029309 0.05596204
v 0.04468615 0.02655270 -0.04320014
v 0.05132371 0.01038484 0.00160305
v -0.03847360 0.03546346 0.01673032
v 0.04835288 0.02020218 0.00612855
v -0.03265650 0.04096298 0.02790342
v -0.03953256 -0.03398926 -0.02631404
v -0.01243375 0.05034958 -0.04282075
v -0.01309558 0.04970140 -0.04813634
v -0.05091207 0.00674928 -0.04842794
v -0.01135182 -0.05137521 0.01085044
v -0.03497210 -0.03893439 0.00405971
v -0.03654695 0.03730444 0.04293785
v -0.05178357 0.00011323 0.05103005
v -0.05118602 0.00855025 0.04453311
v -0.03507730 -0.03885195 0.03574559
v -0.03019851 -0.04286604 0.01906608
v -0.00860816 -0.05154749 0.05617612
v -0.05122889 -0.00871160 0.03724201
v 0.05207505 -0.00126791 -0.03468903
v 0.03372935 0.04007943 -0.01901078
v 0.05201324 -0.00494758 0.00168317
v 0.04861213 -0.01620170 -0.04942105
v -0.05093565 -0.01112970 0.00171269
v -0.01177717 0.05049024 0.05657568
v -0.04342364 -0.02904839 -0.00936752
v -0.02653208 0.04485746 -0.03534391
v -0.02342298 0.04667431 0.05154690
v -0.00480786 -0.05232308 0.05512265
v 0.04785051 -0.02060569 0.02238315
v -0.04444001 -0.02673094 -0.04098860
v 0.01861193 0.04883336 -0.02783200
v -0.04306169 -0.02926746 -0.03026442
v 0.04495189 0.02676103 -0.02469638
v 0.03821365 0.03600671 0.03416167
v 0.04441832 0.02789472 -0.01279488
v -0.02632650 -0.04518450 0.05081163
v -0.00715509 -0.05206053 0.04643578
v 0.04381613 -0.02850794 -0.02593303
v 0.05154097 0.00685329 -0.04257802
v -0.04399835 0.02799875 0.03819183
v 0.04613483 0.02421103 -0.03855202
v -0.05196163 0.00528967 -0.01679923
v -0.05042792 -0.01348507 -0.00784770
v 0.00460934 0.05214492 0.05375854
v -0.05111974 0.00835314 -0.04396034
v 0.03907384 -0.03441454 -0.04484412
v -0.00801076 -0.05201669 0.03394273
v 0.03804388 -0.03613492 -0.02247097
v -0.00437687 0.05236227 0.03835495
v -0.03676541 -0.03720139 -0.00767297
v -0.03148373 -0.04163696 -0.02768454
v -0.05039501 0.00717135 -0.05082635
v -0.03072988 -0.04236247 -0.01113142
v 0.00648706 0.05206172 -0.01277860
v -0.05067569 0.01084711 0.05058116
v 0.02609899 0.04481520 -0.04217654
v 0.04871101 0.01891816 0.04361096
v -0.04157664 -0.03104378 -0.04064298
v 0.04905627 -0.00557340 -0.05538209
v 0.05192397 0.00091712 -0.04330847
v 0.04718852 -0.02230745 0.00807505
v -0.04985119 -0.01370067 0.05492586
v -0.04307327 -0.02849846 -0.04561303
v -0.02030560 0.04841023 0.00290422
v -0.05052647 0.01237957 0.02797616
v 0.04053123 0.03318068 0.04587695
v -0.03016984 0.04290799 0.00615946
v -0.03491627 0.03904959 -0.01205159
v -0.04844552 0.01850800 -0.04299561
v 0.02722198 0.04330409 -0.04870490
v -0.04948549 0.00462149 -0.05444254
v -0.00773970 0.05190750 -0.01337216
v -0.02617731 0.04539034 0.03731916
v -0.01074423 0.05129246 -0.02129229
v 0.00054011 0.05202776 0.05633374
v -0.02384480 0.04157084 -0.05799146
v -0.03022478 -0.04203391 -0.04551721
v 0.04136663 0.03228022 0.03577061
v 0.03417870 -0.03565339 -0.05609968
v -0.04730286 0.02171193 0.04032045
v -0.02898364 0.03889556 -0.05709356
v -0.00718936 0.05188785 0.05080494
v 0.04656534 -0.02369972 -0.00528518
v -0.05106442 0.01089188 -0.00685802
v 0.03595780 -0.03811188 0.00076823
v 0.01235862 0.05095897 -0.01443018
v 0.01414081 0.05025901 -0.03183657
v -0.02497210 0.04527479 -0.04590701
v -0.05003863 0.01476639 -0.02102538
v 0.01032549 0.05151051 -0.00159381
v -0.03306712 -0.04064042 0.02599854
v -0.00063975 0.05253451 -0.00444351
v 0.01716644 -0.04708079 -0.05453520
v -0.04803337 -0.01586889 -0.05200598
v -0.02758571 0.04461781 0.00163133
v -0.05025229 0.01432866 -0.01039450
v 0.04546146 -0.02556025 0.01541908
v -0.05181625 0.00379552 0.03613488
v 0.02414089 -0.04444199 -0.05319446
v 0.00547482 0.05225331 -0.00342983
v 0.04789930 0.02126409 0.02165791
v -0.02920209 0.04014429 -0.05484351
v -0.02599463 0.04258587 -0.05417484
v 0.03257570 0.04028212 -0.04324209
v 0.02002506 -0.04502237 -0.05610177
v 0.05158408 0.00206173 -0.04689983
v 0.01951079 0.04589163 0.05721447
v 0.04660306 0.02382984 -0.02208893
v 0.02995280 0.04282816 -0.02636019
v -0.04978587 -0.00057926 -0.05430329
v 0.01082537 0.04918312 0.05708193
v 0.02509358 -0.04476263 -0.05074495
v 0.04127022 -0.03206114 -0.03702826
v 0.05221784 0.00047837 -0.02075396
v -0.01067403 0.04960069 0.05710330
v 0.04389247 0.02593429 -0.05072315
v -0.03930659 -0.03375998 -0.04365004
v -0.04751324 0.01989453 -0.04736201
v 0.04958805 -0.00021692 -0.05486766
v -0.02934769 -0.04340435 0.03975104
v -0.04252427 0.03024804 0.03597791
v -0.04967233 -0.00632882 -0.05350989
v -0.02815525 0.04400230 0.04815844
v 0.04801314 0.01492731 -0.05307313
v -0.04067264 0.03284051 0.01776967
v -0.05215948 0.00155430 -0.02115986
v -0.04538406 0.02562795 0.03890295
v 0.02733074 -0.04389806 -0.04872221
v -0.04926233 0.01556547 -0.04582440
v -0.03730139 -0.03646281 -0.02468999
v 0.04917368 -0.01489509 0.05709073
v -0.02766698 0.04435873 -0.02524185
v -0.04293553 -0.02719226 -0.05088596
v 0.04651268 -0.02347400 0.02442478
v 0.04965777 0.00552908 -0.05401054
v -0.03067211 0.04251588 0.02297919
v 0.04781704 -0.01962080 0.05636530
v 0.04826064 0.01929299 -0.04299152
v -0.04319905 0.02900930 0.05158728
v -0.05118987 0.00929049 0.02176284
v -0.03078591 -0.04229340 0.04850265
v -0.02738132 -0.04476348 0.03333637
v -0.03418015 -0.03937369 -0.02984577
v -0.03861428 0.03521555 0.03313328
v 0.03390011 -0.03268984 -0.05953938
v -0.02073622 0.04605213 -0.05229746
v 0.04608114 -0.01993229 -0.05340348
v 0.04234448 -0.03060148 0.00813573
v -0.03764243 -0.03501988 -0.04818914
v -0.00610239 0.05199165 -0.02435816
v 0.04901294 -0.01763351 0.02538209
v 0.02271903 0.04690459 -0.03414556
v 0.04440302 -0.01911714 -0.05745789
v -0.05010514 0.01395687 -0.03153069
v -0.02866070 -0.04386741 -0.00122053
v -0.03271269 -0.04087667 0.00247277
v -0.05156099 0.00739427 -0.02777678
v -0.05149721 0.00542030 0.05215817
v 0.04970571 0.00892721 -0.05233468
v -0.04885639 0.01177046 -0.05302977
v 0.03320118 0.04035509 0.05414914
v 0.03849716 -0.03550477 0.00005970
v 0.04701919 -0.02075655 -0.04884512
v -0.04850418 -0.01880329 0.03873589
v 0.04377793 0.02120926 -0.05668095
v -0.04807532 0.01700722 -0.05028988
v 0.04911270 0.01817711 0.02438076
v -0.00393117 0.05239361 0.00397212
v 0.04619900 0.02250115 -0.04892100
v -0.01154402 0.05123303 0.00043769
v -0.00143607 0.05253732 0.01819858
v -0.05165106 0.00686488 0.00484595
v -0.02198623 0.04710157 -0.04036694
v 0.04497351 0.02703332 -0.00453600
v 0.02618436 -0.04137005 -0.05671988
v 0.03994402 -0.03386324 -0.00364408
v -0.02444908 -0.04640059 0.04134769
v 0.04376579 0.02835677 -0.03647163
v -0.03110643 -0.04177363 0.05573884
v -0.02203628 -0.04751493 0.04910503
v 0.04631640 0.01503285 -0.05668096
v -0.02996309 0.04295850 0.03463315
v -0.03571935 0.03819240 -0.02246123
v -0.00861839 0.05182452 0.01396987
v -0.03511906 0.03855335 0.05056701
v -0.02767255 -0.04458286 0.01989760
v -0.00255912 0.05248022 0.02676772
v -0.00076677 0.05257628 0.03959503
v -0.04105634 0.03220563 0.03958940
v 0.00107564 0.05248936 0.04622909
v -0.03392253 0.03982899 0.03655798
v 0.04516739 -0.02349926 -0.05109794
v -0.02221194 0.04755423 0.01626562
v 0.04910675 0.01699590 0.05660351
v -0.04931187 -0.01712049 -0.00539481
v 0.03971180 -0.03423521 -0.01900266
v 0.03302427 -0.03921022 -0.05052455
v -0.05219902 -0.00066910 -0.00879892
v 0.05196007 0.00361384 -0.03565071
v -0.05106016 0.01089990 -0.01816406
v 0.04799266 -0.00180576 -0.05796540
v -0.02351380 0.04681809 0.04161419
v -0.02060474 0.04824920 -0.01252027
v -0.05080724 -0.00935941 -0.04597122
v -0.01195150 0.05113680 0.03649400
v 0.04837562 0.00812288 -0.05603963
v -0.05160129 -0.00541592 0.04384643
v 0.03715024 0.03639487 -0.04061792
v 0.04598494 0.01955031 -0.05393257
v 0.04481314 0.02726802 0.00404891
v 0.04939646 0.01752243 -0.01075638
v -0.05165445 0.00571900 0.03136717
v 0.04602798 0.02138123 -0.05167134
v 0.04114324 0.02921626 -0.05235268
v 0.04540565 0.02622627 0.01841149
v 0.04361814 0.02914558 0.02735539
v 0.05058057 0.01366599 -0.00272569
v 0.04177346 -0.03152518 -0.02625515
v 0.02582896 0.04541260 -0.02730959
v -0.00709646 0.04885349 -0.05539376
v -0.01236964 0.05099655 -0.01245211
v -0.01522764 0.05012160 -0.02117685
v 0.03565487 0.03849160 0.04221615
v 0.05204359 0.00414025 0.03148750
v -0.04990219 -0.01520940 -0.02426687
v 0.00010860 0.05139683 -0.04801920
v 0.03563570 -0.03631766 -0.05191568
v -0.02087579 0.04815768 0.02972170
v 0.03799185 -0.03500416 -0.04833352
v 0.04016220 -0.02845442 -0.05582161
v 0.05218621 0.00213822 0.01852324
v 0.00165070 0.05246481 -0.01350961
v -0.00737421 0.05018821 -0.05129688
v -0.02488972 0.04618514 -0.00598304
v 0.04815031 -0.01895761 0.05093479
v 0.04805730 0.01825489 -0.04868916
v 0.03767752 0.03639374 0.04814056
v 0.01195226 -0.04994604 -0.05045334
v -0.00473157 0.05230168 -0.00934265
v 0.01248300 -0.04915683 -0.05279694
v 0.02874390 0.04341732 -0.03554163
v -0.03172093 0.04141901 0.05177167
v -0.00314886 0.05050921 -0.05181492
v -0.01620122 0.04994499 0.00393878
v 0.04381747 -0.02839820 0.00861573
v -0.03166118 0.04163496 0.04128492
v -0.05035910 -0.01202158 -0.04478477
v 0.04320925 0.02974633 0.01312125
v -0.00186350 0.05242285 -0.01655620
v 0.03619836 0.03755536 -0.03308093
v 0.04098468 -0.03100979 -0.04946809
v -0.00277970 0.05245748 0.04426770
v -0.04841579 0.00925984 0.05701239
v 0.04323933 0.02971880 -0.00383404
v -0.04965538 -0.01615845 -0.01524338
v -0.05155432 0.00834310 -0.01234176
v -0.00847513 0.05186404 0.02921455
v -0.03583449 0.03049837 -0.05931096
f 284 567 397
f 244 86 358
f 295 86 244
f 173 166 91
f 486 1119 1183
f 531 295 244
f 395 358 86
f 244 358 395
f 397 567 395
f 567 561 395
f 244 395 195
f 195 561 515
f 195 395 561
f 376 150 882
f 383 882 477
f 477 944 383
f 1089 944 477
f 477 150 478
f 882 150 477
f 350 61 207
f 207 656 350
f 207 767 656
f 523 61 350
f 691 470 523
f 523 470 1125
f 297 866 683
f 683 866 909
f 219 284 397
f 1038 284 219
f 219 415 1038
f 386 415 219
f 562 538 427
f 437 511 386
f 386 219 437
f 437 219 545
f 31 549 397
f 312 549 31
f 210 913 557
f 210 437 913
f 511 437 210
f 61 511 210
f 210 207 61
f 350 656 1155
f 656 767 1155
f 1125 370 814
f 579 588 609
f 304 561 567
f 561 919 460
f 567 284 569
f 284 420 569
f 420 513 569
f 569 304 567
f 453 66 1006
f 1006 864 975
f 1006 82 864
f 66 82 1006
f 1006 486 453
f 975 486 1006
f 1046 284 1038
f 1125 814 180
f 180 814 92
f 413 435 92
f 1038 415 290
f 415 435 290
f 649 70 83
f 417 864 433
f 433 472 417
f 864 82 433
f 555 472 102
f 975 864 795
f 795 70 975
f 91 637 639
f 639 637 77
f 639 53 91
f 77 53 639
f 77 637 760
f 571 638 987
f 1035 851 916
f 581 113 273
f 273 586 581
f 273 594 268
f 273 113 594
f 1170 1099 1023
f 1023 1099 1102
f 1023 1119 758
f 1102 1119 1023
f 10 3 9
f 10 53 77
f 268 594 181
f 181 594 173
f 181 173 91
f 91 53 181
f 383 944 868
f 223 531 244
f 244 195 223
f 931 195 94
f 931 533 195
f 478 459 351
f 351 477 478
f 1089 477 351
f 886 540 454
f 783 937 733
f 948 458 310
f 310 395 86
f 310 458 395
f 537 367 295
f 537 531 1110
f 295 531 537
f 924 767 684
f 684 767 596
f 684 596 952
f 298 596 557
f 249 456 382
f 1068 562 427
f 545 219 524
f 312 538 524
f 524 549 312
f 524 562 545
f 538 562 524
f 397 549 524
f 524 219 397
f 913 437 1062
f 1062 437 545
f 545 562 1062
f 562 1068 1062
f 1062 547 913
f 1062 1068 547
f 397 395 213
f 213 388 397
f 382 456 910
f 910 456 547
f 767 207 346
f 207 210 346
f 596 767 346
f 557 596 346
f 346 210 557
f 852 776 858
f 95 171 710
f 909 1155 1162
f 1162 1155 767
f 924 909 1162
f 1162 767 924
f 212 225 1142
f 769 470 691
f 691 523 769
f 1109 880 840
f 796 372 585
f 1170 1081 1003
f 720 588 899
f 899 827 720
f 643 585 574
f 739 579 609
f 643 574 739
f 739 574 579
f 609 588 1058
f 588 829 1058
f 1184 195 515
f 515 561 1184
f 561 460 1184
f 1184 459 478
f 1184 460 459
f 65 460 919
f 568 513 1116
f 304 569 240
f 561 304 240
f 240 919 561
f 240 513 568
f 240 569 513
f 25 420 284
f 284 1046 25
f 556 82 66
f 66 1046 556
f 556 1046 1038
f 88 511 61
f 1125 180 88
f 88 523 1125
f 61 523 88
f 820 180 92
f 820 415 386
f 386 511 820
f 511 88 820
f 820 88 180
f 840 880 593
f 243 649 83
f 83 70 243
f 597 433 82
f 1038 290 597
f 597 290 102
f 102 472 597
f 472 433 597
f 1092 452 329
f 174 555 102
f 544 1092 174
f 174 435 544
f 102 290 174
f 174 290 435
f 202 864 417
f 202 795 864
f 70 795 202
f 202 243 70
f 638 571 624
f 641 3 777
f 777 760 641
f 641 760 792
f 792 809 147
f 91 166 153
f 153 637 91
f 113 595 132
f 132 595 141
f 175 171 95
f 589 595 463
f 463 113 581
f 463 595 113
f 577 571 987
f 265 232 238
f 141 595 122
f 122 589 278
f 122 595 589
f 763 851 338
f 763 916 851
f 1170 1023 1180
f 632 1003 1081
f 765 632 1081
f 765 1180 775
f 765 1081 1170
f 1170 1180 765
f 669 759 708
f 708 759 775
f 645 1157 1174
f 746 759 669
f 842 1099 1170
f 1183 1119 1118
f 1118 1119 1102
f 1102 1099 1118
f 1163 708 775
f 775 1180 1163
f 1163 1180 1023
f 1163 1023 758
f 758 70 1163
f 1119 486 1121
f 758 1119 1121
f 1121 486 975
f 1121 70 758
f 975 70 1121
f 414 372 429
f 1114 429 761
f 764 357 1151
f 94 376 993
f 886 931 993
f 993 931 94
f 930 1143 973
f 805 1057 973
f 1131 1187 1015
f 650 590 954
f 1027 1131 1015
f 618 829 588
f 618 720 699
f 588 720 618
f 911 1057 1129
f 930 973 911
f 911 973 1057
f 1029 944 1089
f 1089 1143 1029
f 1029 1143 930
f 930 911 1029
f 1187 1143 945
f 945 1143 1089
f 1089 351 945
f 945 351 986
f 1110 531 526
f 548 388 410
f 395 458 410
f 410 213 395
f 388 213 410
f 280 458 948
f 280 318 548
f 548 410 280
f 280 410 458
f 397 388 362
f 841 722 946
f 1110 526 841
f 841 526 722
f 946 722 812
f 812 722 678
f 42 792 147
f 378 267 1008
f 816 925 799
f 756 1064 994
f 733 660 956
f 783 733 956
f 948 310 209
f 1072 537 1110
f 1110 841 1072
f 494 523 350
f 494 769 523
f 682 769 494
f 350 1155 487
f 487 494 350
f 682 494 487
f 596 298 293
f 952 596 293
f 293 441 952
f 557 913 384
f 384 298 557
f 441 293 292
f 292 293 298
f 298 384 292
f 292 384 913
f 913 547 496
f 547 456 496
f 496 292 913
f 456 292 496
f 297 683 409
f 409 866 297
f 1182 1160 444
f 559 1160 1182
f 253 198 552
f 552 538 312
f 552 198 538
f 312 31 575
f 575 552 312
f 390 1106 497
f 1059 390 797
f 96 1024 1171
f 728 74 607
f 73 74 728
f 716 725 735
f 766 776 852
f 847 718 69
f 679 40 178
f 11 601 95
f 152 160 101
f 101 710 152
f 935 225 1032
f 1142 225 935
f 225 212 536
f 509 988 470
f 508 212 1142
f 508 536 212
f 152 710 199
f 199 710 171
f 1145 322 294
f 880 1109 932
f 932 742 880
f 1105 342 966
f 851 593 592
f 592 593 880
f 482 814 370
f 339 585 643
f 339 796 585
f 453 486 1013
f 1013 486 1183
f 1000 827 1049
f 1000 720 827
f 588 579 573
f 899 588 573
f 573 827 899
f 579 574 573
f 1049 827 584
f 585 697 584
f 736 574 585
f 971 1058 1070
f 1070 1052 971
f 971 1052 739
f 971 739 609
f 609 1058 971
f 892 1058 829
f 1070 1058 892
f 195 1184 52
f 52 376 94
f 150 376 52
f 459 460 400
f 460 65 400
f 400 65 183
f 183 401 400
f 958 25 431
f 1122 823 1116
f 1173 1116 513
f 1173 1122 1116
f 955 25 1046
f 955 66 453
f 955 1046 66
f 39 820 92
f 415 820 39
f 92 435 39
f 39 435 415
f 1154 452 1092
f 530 452 1154
f 1154 532 530
f 1105 966 1147
f 927 731 655
f 70 649 773
f 773 901 70
f 70 901 1017
f 82 556 1042
f 1042 597 82
f 1042 556 1038
f 1038 597 1042
f 493 329 283
f 311 452 530
f 311 329 452
f 311 283 329
f 303 320 311
f 320 283 311
f 555 174 270
f 270 329 493
f 1092 329 270
f 270 174 1092
f 438 270 493
f 555 270 438
f 371 232 265
f 371 438 232
f 700 746 669
f 586 746 700
f 583 571 581
f 583 624 571
f 583 700 624
f 581 586 583
f 586 700 583
f 638 624 962
f 962 238 638
f 686 238 962
f 962 624 914
f 760 777 30
f 77 760 30
f 30 10 77
f 3 10 30
f 30 777 3
f 719 792 27
f 27 792 760
f 27 206 719
f 27 760 637
f 637 206 27
f 719 206 677
f 677 206 601
f 629 206 637
f 601 206 629
f 637 153 629
f 166 132 165
f 165 132 141
f 136 132 166
f 166 173 136
f 173 594 136
f 594 113 136
f 113 132 136
f 737 122 278
f 141 122 737
f 737 165 141
f 95 601 111
f 111 175 95
f 601 629 111
f 111 629 153
f 987 916 1001
f 1001 577 987
f 916 763 1001
f 1001 763 589
f 571 577 587
f 581 571 587
f 587 463 581
f 589 463 587
f 587 1001 589
f 577 1001 587
f 229 231 265
f 686 231 229
f 265 238 229
f 229 238 686
f 987 638 1083
f 638 238 1083
f 338 17 501
f 501 763 338
f 501 17 278
f 278 589 501
f 589 763 501
f 1005 632 828
f 1003 632 1005
f 828 1152 1005
f 632 765 861
f 775 759 621
f 621 765 775
f 621 861 765
f 759 746 621
f 621 746 1157
f 621 1157 645
f 645 861 621
f 70 762 985
f 708 1163 985
f 268 1174 291
f 291 1174 1157
f 291 273 268
f 586 273 291
f 291 746 586
f 1157 746 291
f 1151 357 1164
f 1164 1174 1151
f 645 1174 1164
f 1099 842 980
f 1183 1118 980
f 980 1118 1099
f 980 1013 1183
f 853 1013 980
f 416 1003 1115
f 1170 1003 416
f 416 842 1170
f 255 181 53
f 258 89 97
f 53 10 97
f 97 255 53
f 89 255 97
f 834 835 754
f 754 835 414
f 1019 835 834
f 611 835 1019
f 1077 611 353
f 353 357 1077
f 611 1019 353
f 353 1019 344
f 938 861 645
f 632 861 938
f 828 632 938
f 761 429 434
f 372 796 434
f 434 429 372
f 891 923 810
f 887 923 891
f 826 887 891
f 810 923 867
f 834 754 867
f 867 754 810
f 744 923 887
f 275 89 258
f 258 764 275
f 1151 89 275
f 275 764 1151
f 756 994 694
f 633 694 816
f 734 993 897
f 897 882 383
f 897 376 882
f 897 993 376
f 734 897 949
f 954 590 949
f 949 590 734
f 876 993 734
f 734 590 876
f 1129 1057 236
f 467 883 236
f 236 868 1129
f 236 883 868
f 715 236 1057
f 467 236 715
f 1103 1143 1187
f 1187 973 1103
f 1103 973 1143
f 1187 1131 1088
f 1088 973 1187
f 805 973 1088
f 541 306 1135
f 1135 306 578
f 541 1135 657
f 657 1135 1178
f 996 1027 1015
f 1015 945 996
f 996 945 986
f 829 618 1011
f 183 892 1011
f 1011 892 829
f 753 618 699
f 753 360 599
f 699 1027 753
f 1027 360 753
f 944 1029 890
f 890 1029 911
f 890 911 1129
f 1129 868 890
f 890 868 944
f 1015 1187 1071
f 1071 945 1015
f 1187 945 1071
f 531 223 495
f 495 526 531
f 195 533 495
f 495 223 195
f 959 280 948
f 318 280 959
f 266 318 959
f 959 968 978
f 317 451 528
f 194 451 852
f 548 608 217
f 217 608 418
f 418 362 217
f 217 388 548
f 217 362 388
f 397 362 450
f 450 31 397
f 450 418 62
f 450 362 418
f 946 1022 893
f 893 841 946
f 893 1072 841
f 893 1022 921
f 921 1072 893
f 981 946 854
f 946 812 854
f 986 351 404
f 351 401 404
f 404 401 599
f 599 360 404
f 612 401 183
f 599 401 612
f 183 1011 612
f 604 351 459
f 604 401 351
f 459 400 604
f 604 400 401
f 921 1022 947
f 947 1117 921
f 368 1008 45
f 871 857 860
f 251 224 335
f 335 857 871
f 540 956 76
f 76 956 660
f 540 389 428
f 540 799 843
f 843 799 925
f 843 956 540
f 925 956 843
f 937 902 1061
f 1061 872 981
f 267 902 591
f 591 1008 267
f 1080 45 591
f 45 1008 591
f 894 994 1064
f 1064 20 894
f 678 660 705
f 705 660 733
f 705 812 678
f 783 956 963
f 963 956 925
f 963 989 783
f 941 197 873
f 873 903 941
f 978 903 873
f 481 209 364
f 86 295 364
f 295 367 364
f 364 310 86
f 364 209 310
f 978 968 260
f 260 903 978
f 260 959 948
f 968 959 260
f 948 209 260
f 260 209 481
f 228 1117 378
f 1086 984 378
f 378 1117 1086
f 1086 947 984
f 1117 947 1086
f 921 1117 1073
f 1073 228 324
f 1117 228 1073
f 1111 364 367
f 481 364 1111
f 551 331 363
f 798 487 1155
f 909 866 798
f 798 1155 909
f 441 292 323
f 456 249 323
f 323 292 456
f 289 409 109
f 109 409 970
f 109 895 381
f 970 895 109
f 866 409 333
f 419 409 289
f 419 508 1142
f 289 508 419
f 1130 991 970
f 1130 409 683
f 970 409 1130
f 1045 683 909
f 1045 909 924
f 1045 1130 683
f 991 1130 1045
f 326 684 952
f 1066 1090 582
f 582 1090 895
f 1037 895 970
f 970 991 1037
f 1037 582 895
f 1028 869 1014
f 1065 1028 1014
f 888 1028 1065
f 547 1068 1166
f 382 910 1082
f 1082 366 382
f 1082 910 547
f 547 1166 1082
f 1158 444 1160
f 497 1010 1158
f 1158 1010 444
f 1044 1149 808
f 979 412 808
f 343 341 345
f 345 559 343
f 1044 559 345
f 345 1149 1044
f 412 817 977
f 1160 559 977
f 790 1160 977
f 977 817 790
f 427 538 560
f 538 198 560
f 1106 390 1030
f 730 1024 1030
f 807 74 164
f 74 73 164
f 654 1024 96
f 96 607 654
f 654 74 807
f 654 607 74
f 856 718 847
f 96 1171 8
f 8 856 847
f 1171 856 8
f 340 1024 730
f 340 1171 1024
f 147 55 779
f 740 55 147
f 723 735 858
f 723 340 730
f 858 340 723
f 300 735 725
f 300 194 852
f 725 194 300
f 852 858 300
f 858 735 300
f 776 766 282
f 282 766 565
f 266 959 257
f 257 959 978
f 118 131 14
f 14 69 118
f 118 69 718
f 718 856 542
f 542 856 271
f 159 26 160
f 159 679 178
f 178 26 159
f 449 444 1161
f 1182 444 449
f 343 559 332
f 332 559 1182
f 1182 449 332
f 332 449 1123
f 1039 342 225
f 1039 536 972
f 225 536 1039
f 1105 768 1146
f 1146 342 1105
f 225 342 535
f 572 419 1142
f 1142 935 1098
f 1098 572 1142
f 509 572 1098
f 470 769 877
f 877 509 470
f 769 572 877
f 877 572 509
f 215 17 338
f 1145 294 215
f 152 199 148
f 503 159 161
f 161 160 152
f 161 159 160
f 1055 1144 1167
f 1167 1144 1100
f 536 508 1069
f 972 536 1069
f 658 1167 1069
f 1047 742 1100
f 1100 1144 1047
f 1047 322 1145
f 1047 1144 322
f 1100 742 838
f 742 932 838
f 838 1167 1100
f 838 1069 1167
f 838 932 972
f 972 1069 838
f 1109 966 964
f 972 932 964
f 964 932 1109
f 964 1039 972
f 964 966 342
f 342 1039 964
f 880 742 881
f 881 592 880
f 881 1047 1145
f 742 1047 881
f 1145 215 554
f 554 215 338
f 554 881 1145
f 592 881 554
f 338 851 554
f 851 592 554
f 988 509 507
f 509 1098 507
f 507 935 1032
f 507 1098 935
f 405 220 370
f 405 370 1125
f 988 507 405
f 405 507 220
f 1125 470 405
f 470 988 405
f 814 482 337
f 544 435 337
f 435 413 337
f 92 814 337
f 337 413 92
f 252 220 768
f 791 145 1189
f 791 516 145
f 791 46 516
f 121 46 791
f 1189 848 791
f 791 848 121
f 145 516 664
f 761 434 844
f 844 339 643
f 796 339 844
f 761 934 822
f 934 823 822
f 1131 1027 1020
f 1020 1027 699
f 1060 1000 1049
f 680 584 697
f 1049 584 680
f 585 372 391
f 391 697 585
f 406 372 414
f 406 391 372
f 190 391 406
f 110 848 825
f 558 573 574
f 574 736 558
f 827 573 558
f 568 1116 928
f 546 892 183
f 1070 892 546
f 183 65 546
f 546 65 919
f 94 195 192
f 192 52 94
f 195 52 192
f 321 1184 478
f 321 52 1184
f 478 150 321
f 150 52 321
f 761 822 729
f 729 822 823
f 826 891 729
f 355 513 420
f 420 25 355
f 25 958 355
f 355 1173 513
f 1054 1173 355
f 832 958 431
f 431 917 832
f 832 917 1159
f 1004 862 1054
f 1054 355 1004
f 1004 355 958
f 885 862 1004
f 1122 1173 1177
f 431 25 879
f 25 955 879
f 853 1136 879
f 879 1013 853
f 453 1013 879
f 879 955 453
f 845 320 303
f 1040 845 821
f 1139 593 851
f 1139 851 1035
f 1035 821 1139
f 498 731 815
f 840 593 815
f 1141 768 1105
f 1105 1147 1141
f 1141 1147 768
f 1185 1147 966
f 1185 731 927
f 468 330 532
f 927 655 1009
f 1035 916 1172
f 1172 916 987
f 1172 821 1035
f 1040 821 1172
f 649 231 818
f 818 773 649
f 914 1017 818
f 901 773 818
f 818 1017 901
f 818 231 686
f 818 962 914
f 686 962 818
f 1021 762 70
f 70 1017 1021
f 1021 1017 762
f 417 472 216
f 472 555 216
f 555 438 216
f 438 371 216
f 649 243 261
f 261 371 265
f 265 231 261
f 261 231 649
f 624 700 743
f 762 1017 743
f 743 700 669
f 743 985 762
f 669 708 743
f 708 985 743
f 176 737 278
f 176 199 171
f 171 175 176
f 175 737 176
f 278 17 176
f 17 148 176
f 176 148 199
f 175 111 189
f 189 737 175
f 165 737 189
f 189 111 153
f 189 153 166
f 166 165 189
f 380 238 232
f 380 316 238
f 493 283 222
f 222 438 493
f 316 380 222
f 232 438 222
f 222 380 232
f 1115 1003 1101
f 1003 1005 1101
f 214 1115 1101
f 1101 1005 1152
f 1031 1163 70
f 70 985 1031
f 1031 985 1163
f 853 980 1188
f 1188 980 842
f 1188 1136 853
f 1188 416 1115
f 842 416 1188
f 1188 1115 214
f 214 1136 1188
f 726 255 89
f 726 89 1151
f 268 181 726
f 181 255 726
f 726 1174 268
f 1151 1174 726
f 258 97 713
f 713 10 9
f 713 97 10
f 810 754 426
f 426 891 810
f 1114 891 426
f 426 754 414
f 414 429 426
f 429 1114 426
f 414 835 307
f 307 406 414
f 307 279 190
f 190 406 307
f 1077 357 373
f 357 764 373
f 190 279 794
f 1034 611 1077
f 1077 373 1034
f 1034 373 1007
f 885 1159 1124
f 1124 859 885
f 939 1164 357
f 357 353 939
f 645 1164 939
f 939 938 645
f 939 353 344
f 344 938 939
f 828 938 833
f 833 938 344
f 849 744 1026
f 756 694 757
f 757 633 666
f 694 633 757
f 336 1025 666
f 325 578 1053
f 1025 336 325
f 325 1135 578
f 1178 1135 325
f 325 336 1178
f 237 325 1053
f 1025 325 237
f 806 1064 756
f 666 1025 806
f 756 757 806
f 806 757 666
f 18 45 1080
f 1080 894 18
f 18 894 20
f 474 20 1064
f 1064 806 474
f 467 949 1138
f 383 868 1138
f 1138 897 383
f 1138 949 897
f 467 650 912
f 912 949 467
f 912 650 954
f 954 949 912
f 886 993 898
f 993 876 898
f 402 650 467
f 402 657 650
f 541 657 402
f 402 715 541
f 467 715 402
f 904 657 1178
f 650 657 904
f 904 1156 650
f 652 360 1027
f 1027 996 652
f 652 404 360
f 652 996 986
f 986 404 652
f 722 526 564
f 526 495 564
f 564 495 533
f 678 722 564
f 302 317 528
f 418 608 277
f 692 194 725
f 241 504 245
f 62 418 600
f 418 457 600
f 819 1011 618
f 819 612 1011
f 599 612 819
f 819 753 599
f 618 753 819
f 185 114 162
f 185 123 114
f 177 123 185
f 162 114 182
f 641 792 630
f 792 42 630
f 81 29 49
f 49 184 81
f 128 26 178
f 178 34 128
f 755 101 160
f 178 40 204
f 606 34 675
f 41 204 40
f 689 204 41
f 466 1078 1084
f 93 479 1132
f 1087 947 1022
f 984 947 1087
f 1022 872 1087
f 982 267 378
f 378 984 982
f 984 1087 982
f 982 1087 872
f 1074 902 267
f 267 982 1074
f 1074 982 872
f 1074 1061 902
f 872 1061 1074
f 942 1022 946
f 942 872 1022
f 942 946 981
f 981 872 942
f 14 36 99
f 99 69 14
f 71 69 99
f 99 752 71
f 179 36 14
f 14 131 179
f 941 903 918
f 918 857 941
f 918 860 857
f 363 335 674
f 674 335 871
f 850 335 224
f 941 857 907
f 857 335 907
f 668 76 665
f 665 564 668
f 668 454 540
f 540 76 668
f 668 564 533
f 886 454 668
f 668 931 886
f 533 931 668
f 665 76 884
f 678 564 884
f 884 564 665
f 884 660 678
f 884 76 660
f 974 876 590
f 590 650 974
f 650 1156 974
f 430 799 540
f 540 428 430
f 430 428 799
f 799 428 672
f 816 799 672
f 672 633 816
f 633 672 440
f 440 672 428
f 1048 937 783
f 783 989 1048
f 1048 902 937
f 1048 591 902
f 1080 591 1048
f 1048 894 1080
f 1048 989 994
f 994 894 1048
f 981 854 830
f 830 733 937
f 830 1061 981
f 937 1061 830
f 994 989 961
f 989 963 961
f 961 963 925
f 961 925 816
f 816 694 961
f 961 694 994
f 411 228 378
f 537 1072 1051
f 1051 1072 921
f 921 1073 1051
f 481 1111 480
f 480 1111 377
f 539 481 480
f 377 488 480
f 324 377 1108
f 377 1111 1108
f 1108 1073 324
f 922 798 866
f 487 798 922
f 682 487 922
f 866 333 922
f 441 323 446
f 446 323 249
f 491 508 289
f 289 109 491
f 491 1069 508
f 658 1069 491
f 381 658 491
f 491 109 381
f 409 419 1148
f 1148 572 769
f 419 572 1148
f 274 1045 924
f 924 684 274
f 684 326 274
f 1014 869 399
f 341 392 399
f 969 341 399
f 399 869 969
f 490 341 343
f 490 392 341
f 343 332 490
f 888 1065 635
f 635 1068 427
f 900 906 366
f 366 1082 900
f 366 906 313
f 313 906 1014
f 960 1065 992
f 992 900 960
f 906 900 992
f 992 1065 1014
f 1014 906 992
f 1161 444 436
f 444 1010 436
f 1161 436 617
f 797 390 1128
f 790 797 1128
f 1128 390 497
f 497 1158 1128
f 1128 1160 790
f 1128 1158 1160
f 969 1149 521
f 1149 345 521
f 521 341 969
f 521 345 341
f 811 808 412
f 412 977 811
f 1044 808 811
f 811 559 1044
f 811 977 559
f 62 299 276
f 276 450 62
f 253 552 276
f 552 575 276
f 276 575 31
f 31 450 276
f 785 1028 888
f 979 808 1127
f 1127 808 1149
f 205 560 198
f 390 1059 1043
f 1043 1030 390
f 730 1030 1043
f 1043 723 730
f 802 259 797
f 781 259 802
f 802 797 790
f 790 817 802
f 714 259 781
f 690 716 714
f 716 259 714
f 1036 108 1106
f 1106 1030 1036
f 1036 1030 1024
f 1024 654 1036
f 807 108 1036
f 1036 654 807
f 696 164 48
f 807 164 696
f 696 108 807
f 809 667 687
f 1169 856 1171
f 1171 340 1169
f 1169 858 776
f 1169 340 858
f 151 69 71
f 151 607 96
f 96 8 151
f 847 69 151
f 151 8 847
f 776 282 356
f 356 282 271
f 271 856 356
f 356 1169 776
f 856 1169 356
f 451 504 673
f 673 504 766
f 852 451 673
f 673 766 852
f 451 317 408
f 408 504 451
f 565 766 256
f 766 504 256
f 504 241 256
f 235 257 978
f 978 873 235
f 235 873 197
f 327 257 235
f 197 379 235
f 235 379 327
f 327 534 375
f 266 257 375
f 375 257 327
f 631 423 605
f 580 464 605
f 271 282 803
f 803 282 565
f 234 224 251
f 234 118 718
f 718 542 234
f 251 131 234
f 131 118 234
f 327 379 264
f 1066 479 1137
f 1137 1090 1066
f 1055 1090 1137
f 1137 1112 1055
f 502 159 503
f 679 159 502
f 503 1096 502
f 1096 1112 502
f 1140 1112 1096
f 322 1144 1140
f 1140 1096 322
f 1140 1144 1055
f 1055 1112 1140
f 710 101 103
f 95 710 103
f 768 220 553
f 553 507 1032
f 220 507 553
f 1032 225 553
f 225 535 553
f 125 215 294
f 17 215 125
f 125 148 17
f 152 148 125
f 125 161 152
f 1055 1167 704
f 704 1090 1055
f 704 658 381
f 704 1167 658
f 381 895 704
f 895 1090 704
f 482 252 784
f 1147 1009 784
f 768 1147 784
f 784 252 768
f 370 220 471
f 220 252 471
f 471 482 370
f 471 252 482
f 57 46 121
f 63 57 670
f 516 46 143
f 643 739 874
f 739 1052 874
f 348 434 796
f 796 844 348
f 348 844 434
f 214 1101 846
f 846 1101 1152
f 712 1020 699
f 699 720 712
f 720 1000 712
f 1097 1060 1049
f 1097 680 309
f 1049 680 1097
f 541 715 614
f 614 1057 805
f 614 715 1057
f 1131 1020 1085
f 201 680 697
f 1053 1041 47
f 827 558 706
f 706 558 736
f 706 584 827
f 585 584 706
f 706 736 585
f 568 928 926
f 1070 546 926
f 926 546 919
f 926 240 568
f 919 240 926
f 1116 823 943
f 943 928 1116
f 999 1114 761
f 761 729 999
f 999 891 1114
f 999 729 891
f 823 1122 789
f 789 729 823
f 826 729 789
f 885 1004 1133
f 1133 1004 958
f 958 832 1133
f 1133 1159 885
f 1133 832 1159
f 1067 887 826
f 1113 1173 1054
f 1113 1177 1173
f 1113 1067 1177
f 1054 862 1113
f 862 1067 1113
f 393 879 1136
f 393 917 431
f 431 879 393
f 532 330 285
f 442 330 1181
f 1181 821 442
f 1181 1139 821
f 840 815 505
f 505 815 731
f 731 1185 505
f 505 1185 966
f 505 1109 840
f 505 966 1109
f 422 731 498
f 422 655 731
f 498 330 422
f 330 468 422
f 889 337 482
f 544 337 889
f 1147 1185 1179
f 1179 1009 1147
f 1179 1185 927
f 927 1009 1179
f 417 216 191
f 191 216 371
f 371 261 191
f 191 261 243
f 191 202 417
f 243 202 191
f 624 743 1018
f 1018 743 1017
f 914 624 1018
f 1018 1017 914
f 320 845 230
f 230 845 1040
f 230 283 320
f 1040 1172 230
f 110 1007 226
f 226 848 110
f 1007 373 782
f 782 764 258
f 782 373 764
f 190 794 203
f 1189 145 203
f 203 848 1189
f 203 825 848
f 110 825 203
f 644 835 611
f 611 1034 644
f 644 307 835
f 279 307 644
f 1012 1034 1007
f 1012 1007 110
f 110 203 1012
f 1012 203 794
f 121 848 106
f 848 226 106
f 106 226 163
f 104 163 68
f 104 57 121
f 670 57 104
f 121 106 104
f 104 106 163
f 68 163 100
f 9 3 100
f 100 3 641
f 995 1124 1159
f 1159 917 995
f 344 1019 1104
f 849 1026 1165
f 885 859 1165
f 1165 862 885
f 1165 1026 862
f 834 867 1063
f 1063 867 923
f 1063 744 849
f 923 744 1063
f 957 1019 834
f 834 1063 957
f 957 1104 1019
f 875 1104 957
f 543 1138 868
f 467 1138 543
f 868 883 543
f 543 883 467
f 1095 898 876
f 886 898 1095
f 1095 389 540
f 1095 540 886
f 308 302 418
f 418 277 308
f 317 302 308
f 308 408 317
f 504 408 308
f 651 692 725
f 194 692 616
f 528 451 616
f 451 194 616
f 218 457 628
f 692 651 628
f 457 616 628
f 628 616 692
f 580 605 424
f 424 605 423
f 424 803 565
f 423 803 424
f 565 256 424
f 484 608 548
f 484 522 608
f 520 457 218
f 520 600 457
f 473 352 520
f 62 600 196
f 196 299 62
f 600 520 196
f 196 520 352
f 475 620 461
f 114 123 12
f 12 182 114
f 84 12 1
f 1 12 123
f 1025 237 1
f 1 806 1025
f 186 185 162
f 162 81 186
f 186 81 184
f 186 184 59
f 59 185 186
f 177 185 13
f 13 185 59
f 162 182 133
f 133 182 4
f 698 81 162
f 749 81 698
f 162 133 698
f 698 133 749
f 29 81 703
f 703 779 29
f 703 42 147
f 147 779 703
f 778 34 606
f 778 792 719
f 809 792 778
f 601 11 721
f 721 11 95
f 95 103 721
f 719 677 721
f 721 677 601
f 168 204 689
f 772 741 809
f 809 778 772
f 772 778 606
f 115 772 606
f 741 772 115
f 787 667 809
f 809 741 787
f 37 41 479
f 479 93 37
f 689 41 37
f 170 168 689
f 675 168 170
f 71 752 709
f 87 73 728
f 71 709 87
f 87 709 116
f 363 331 328
f 328 411 378
f 378 1008 328
f 1008 368 328
f 242 328 368
f 363 328 242
f 251 335 242
f 242 335 363
f 539 860 793
f 860 918 793
f 793 481 539
f 793 918 903
f 793 260 481
f 903 260 793
f 871 860 489
f 489 674 871
f 563 551 363
f 563 489 488
f 335 850 465
f 465 907 335
f 1126 1095 876
f 389 1095 1126
f 1126 428 389
f 633 440 334
f 666 633 334
f 334 336 666
f 1178 336 334
f 870 854 812
f 870 830 854
f 812 705 870
f 870 705 733
f 733 830 870
f 228 411 425
f 324 228 425
f 331 551 425
f 551 563 425
f 425 328 331
f 411 328 425
f 425 563 488
f 425 377 324
f 425 488 377
f 1073 1108 967
f 537 1051 967
f 967 1051 1073
f 367 537 967
f 967 1111 367
f 967 1108 1111
f 933 333 409
f 409 1148 933
f 682 922 933
f 933 922 333
f 582 1037 831
f 1014 399 263
f 263 399 392
f 263 313 1014
f 392 313 263
f 1094 332 1123
f 1094 490 332
f 1123 1078 1094
f 296 446 249
f 249 250 296
f 888 635 359
f 359 785 888
f 427 560 359
f 359 635 427
f 560 205 359
f 387 1065 960
f 387 635 1065
f 1068 635 387
f 387 1166 1068
f 387 1082 1166
f 960 900 387
f 387 900 1082
f 382 366 315
f 315 249 382
f 315 250 249
f 455 1084 1078
f 455 449 1161
f 1123 449 455
f 455 1078 1123
f 869 1028 1176
f 1028 785 1176
f 979 1127 1093
f 211 205 198
f 735 723 702
f 723 1043 702
f 702 1043 1059
f 716 735 702
f 702 259 716
f 702 1059 797
f 797 259 702
f 738 714 781
f 659 1093 476
f 461 620 398
f 398 352 461
f 299 196 398
f 398 196 352
f 299 398 527
f 527 398 566
f 119 151 71
f 119 87 728
f 71 87 119
f 728 607 119
f 607 151 119
f 60 184 49
f 138 164 73
f 73 58 138
f 48 164 138
f 462 534 631
f 631 605 462
f 462 375 534
f 269 850 224
f 269 379 197
f 269 264 379
f 598 234 542
f 224 234 598
f 598 264 224
f 403 534 327
f 327 264 403
f 514 803 423
f 514 423 631
f 514 598 542
f 514 542 271
f 271 803 514
f 479 41 492
f 492 1137 479
f 1112 1137 492
f 768 553 701
f 701 553 535
f 701 535 342
f 701 1146 768
f 342 1146 701
f 695 125 294
f 695 294 322
f 503 161 695
f 161 125 695
f 695 1096 503
f 322 1096 695
f 670 630 603
f 603 63 670
f 603 630 42
f 42 63 603
f 640 63 42
f 4 126 105
f 105 133 4
f 749 133 105
f 23 126 4
f 149 143 46
f 46 57 149
f 57 63 149
f 146 664 516
f 146 661 664
f 516 143 146
f 146 143 156
f 747 934 761
f 761 844 747
f 747 844 643
f 643 874 747
f 1120 874 1052
f 1120 1052 1070
f 576 1136 214
f 214 846 576
f 576 393 1136
f 908 995 915
f 915 995 917
f 917 393 915
f 915 576 846
f 393 576 915
f 1153 1152 828
f 1153 846 1152
f 828 833 1153
f 908 846 1153
f 1153 837 908
f 833 837 1153
f 361 1088 1131
f 1020 712 246
f 246 1085 1020
f 246 712 1000
f 1000 1060 246
f 1131 1085 246
f 246 361 1131
f 506 201 697
f 190 201 506
f 697 391 506
f 506 391 190
f 56 47 84
f 84 1 56
f 56 1 237
f 56 237 1053
f 1053 47 56
f 998 1067 862
f 862 1026 998
f 998 1026 744
f 998 744 887
f 887 1067 998
f 936 1067 826
f 1177 1067 936
f 826 789 936
f 1122 1177 936
f 936 789 1122
f 951 330 442
f 951 285 330
f 442 821 951
f 951 821 845
f 1139 1181 770
f 593 1139 770
f 770 330 498
f 770 1181 330
f 498 815 770
f 770 815 593
f 751 889 482
f 482 784 751
f 751 784 1009
f 1168 1154 1092
f 1168 1092 544
f 544 889 1168
f 965 1009 655
f 965 1168 889
f 655 422 965
f 965 422 468
f 965 468 532
f 532 1154 965
f 1154 1168 965
f 247 222 283
f 283 230 247
f 316 222 314
f 238 316 314
f 801 226 1007
f 1007 782 801
f 801 782 258
f 642 661 309
f 664 661 642
f 309 680 642
f 680 201 642
f 469 201 190
f 469 642 201
f 469 203 145
f 145 664 469
f 664 642 469
f 279 644 1033
f 1033 644 1034
f 1034 1012 1033
f 1033 794 279
f 1033 1012 794
f 622 630 670
f 670 104 622
f 622 104 68
f 641 630 622
f 622 100 641
f 68 100 622
f 226 801 929
f 929 713 9
f 258 713 929
f 929 801 258
f 163 226 78
f 78 100 163
f 226 929 78
f 9 100 78
f 78 929 9
f 920 1165 859
f 875 957 920
f 920 957 1063
f 849 1165 920
f 920 1063 849
f 878 833 344
f 878 837 833
f 344 1104 878
f 878 1104 875
f 875 920 1134
f 1134 878 875
f 837 878 1134
f 1134 995 908
f 908 837 1134
f 1134 920 859
f 859 1124 1134
f 1124 995 1134
f 262 308 277
f 262 277 608
f 245 504 262
f 504 308 262
f 681 716 690
f 690 651 681
f 681 725 716
f 681 651 725
f 512 651 690
f 690 714 512
f 620 475 512
f 512 738 620
f 714 738 512
f 512 352 473
f 461 352 512
f 512 475 461
f 432 457 418
f 432 616 457
f 528 616 432
f 432 302 528
f 418 302 432
f 218 628 287
f 287 628 651
f 287 520 218
f 473 520 287
f 287 512 473
f 651 512 287
f 608 522 636
f 636 241 245
f 245 262 636
f 636 262 608
f 580 241 510
f 510 464 580
f 510 484 464
f 522 484 510
f 602 241 580
f 580 424 602
f 602 256 241
f 602 424 256
f 518 90 127
f 43 13 59
f 117 99 36
f 752 99 117
f 117 709 752
f 50 117 36
f 72 117 50
f 182 12 19
f 19 64 4
f 4 182 19
f 19 12 84
f 84 47 19
f 19 47 64
f 16 474 806
f 806 1 16
f 177 474 16
f 16 123 177
f 16 1 123
f 676 81 749
f 749 703 676
f 676 703 81
f 42 703 130
f 130 640 42
f 5 128 34
f 34 778 5
f 26 128 5
f 160 26 5
f 5 755 160
f 755 5 120
f 120 5 778
f 120 721 103
f 120 778 719
f 719 721 120
f 101 755 120
f 120 103 101
f 172 675 34
f 172 168 675
f 204 168 172
f 172 34 178
f 178 204 172
f 788 741 619
f 619 115 788
f 741 115 619
f 788 115 671
f 671 170 615
f 663 115 606
f 606 170 663
f 663 671 115
f 170 671 663
f 689 37 33
f 33 170 689
f 615 170 33
f 33 37 93
f 606 675 771
f 771 170 606
f 675 170 771
f 788 671 24
f 24 671 615
f 1084 455 167
f 1161 617 167
f 167 455 1161
f 112 33 93
f 615 33 112
f 112 93 1132
f 112 24 615
f 137 24 112
f 32 58 73
f 73 87 32
f 740 58 32
f 187 242 368
f 570 860 539
f 570 489 860
f 539 480 570
f 570 480 488
f 488 489 570
f 824 563 363
f 489 563 824
f 363 674 824
f 674 489 824
f 876 974 1186
f 1186 1126 876
f 1186 974 1156
f 428 1126 1186
f 1156 440 1186
f 1186 440 428
f 896 904 1178
f 1178 334 896
f 896 334 440
f 1156 904 896
f 896 440 1156
f 865 1148 769
f 865 933 1148
f 865 769 682
f 682 933 865
f 1066 582 1050
f 582 831 1050
f 1050 479 1066
f 1132 479 1050
f 392 490 374
f 374 313 392
f 193 296 250
f 785 359 301
f 301 359 205
f 205 211 448
f 476 519 448
f 1079 1176 785
f 745 738 781
f 625 398 620
f 566 398 625
f 227 527 566
f 299 527 227
f 253 276 227
f 227 276 299
f 135 696 48
f 184 60 51
f 59 184 51
f 51 43 59
f 22 43 51
f 49 653 107
f 107 60 49
f 85 667 48
f 48 138 85
f 445 605 464
f 445 462 605
f 224 264 221
f 221 269 224
f 264 269 221
f 610 269 197
f 850 269 610
f 610 197 941
f 941 907 610
f 610 465 850
f 907 465 610
f 631 534 550
f 550 514 631
f 534 403 550
f 550 403 264
f 264 598 550
f 598 514 550
f 499 502 1112
f 1112 492 499
f 679 502 499
f 40 679 499
f 499 41 40
f 499 492 41
f 309 661 305
f 143 149 158
f 156 143 158
f 63 640 158
f 158 149 63
f 685 305 661
f 874 1120 1056
f 934 747 1056
f 1056 747 874
f 1070 926 780
f 780 1120 1070
f 780 926 928
f 1175 846 908
f 908 915 1175
f 1175 915 846
f 1060 1097 483
f 483 246 1060
f 707 306 541
f 361 246 976
f 976 614 805
f 805 1088 976
f 1088 361 976
f 246 483 976
f 530 532 349
f 532 285 349
f 349 311 530
f 303 311 349
f 1009 965 997
f 997 965 889
f 997 751 1009
f 889 751 997
f 200 314 222
f 230 314 200
f 222 247 200
f 200 247 230
f 1150 314 230
f 987 1083 1150
f 1150 1172 987
f 1150 230 1172
f 190 203 443
f 443 469 190
f 203 469 443
f 634 510 241
f 522 510 634
f 241 636 634
f 634 636 522
f 127 90 724
f 155 127 724
f 724 22 155
f 724 43 22
f 613 518 127
f 72 50 613
f 613 127 155
f 155 72 613
f 188 117 72
f 709 117 188
f 749 105 157
f 157 105 126
f 157 703 749
f 157 130 703
f 640 130 54
f 156 158 54
f 54 158 640
f 54 23 156
f 126 23 54
f 54 157 126
f 130 157 54
f 6 137 1084
f 1084 167 6
f 6 24 137
f 154 787 741
f 288 711 319
f 953 1078 466
f 953 1094 1078
f 439 112 1132
f 137 112 439
f 1084 137 439
f 466 1084 439
f 439 813 466
f 38 2 55
f 38 188 2
f 116 709 38
f 709 188 38
f 129 87 116
f 129 32 87
f 116 38 129
f 129 38 55
f 55 740 129
f 740 32 129
f 839 187 179
f 242 187 839
f 839 179 131
f 839 131 251
f 251 242 839
f 717 187 368
f 518 187 717
f 717 368 45
f 45 90 717
f 90 518 717
f 179 187 517
f 517 187 518
f 36 179 517
f 518 613 517
f 517 50 36
f 517 613 50
f 990 831 836
f 990 1050 831
f 1132 1050 990
f 990 439 1132
f 836 813 990
f 813 439 990
f 319 374 239
f 239 953 319
f 1094 953 239
f 490 1094 239
f 239 374 490
f 272 193 250
f 272 374 319
f 313 374 365
f 366 313 365
f 365 315 366
f 374 272 365
f 250 315 365
f 365 272 250
f 991 1045 950
f 1045 274 950
f 750 711 748
f 991 950 748
f 748 1037 991
f 476 448 500
f 500 448 211
f 1107 1093 1127
f 476 1093 1107
f 1107 519 476
f 626 1149 969
f 1176 1079 626
f 969 869 626
f 869 1176 626
f 205 448 647
f 647 448 519
f 647 1079 785
f 785 301 647
f 647 301 205
f 781 802 804
f 804 745 781
f 804 802 817
f 863 745 396
f 648 745 863
f 566 745 648
f 863 227 648
f 648 227 566
f 620 738 646
f 738 745 646
f 646 625 620
f 646 745 566
f 566 625 646
f 623 227 863
f 863 396 623
f 623 396 659
f 108 696 693
f 696 135 693
f 7 1076 144
f 144 154 7
f 7 167 617
f 617 1076 7
f 2 188 139
f 627 138 58
f 627 85 138
f 627 58 740
f 407 447 318
f 375 462 407
f 462 445 407
f 407 445 447
f 407 318 266
f 266 375 407
f 464 484 385
f 385 445 464
f 447 445 385
f 318 447 385
f 548 318 385
f 385 484 548
f 661 146 140
f 140 685 661
f 140 146 156
f 156 23 140
f 4 64 67
f 67 23 4
f 15 1041 1002
f 15 47 1041
f 64 47 15
f 934 1056 1075
f 1075 1056 1120
f 928 943 1075
f 1075 780 928
f 1120 780 1075
f 1075 823 934
f 1075 943 823
f 1091 1097 309
f 1091 483 1097
f 983 483 1091
f 309 305 1091
f 1002 983 1091
f 1091 305 1002
f 578 306 421
f 306 707 421
f 1053 578 421
f 421 1041 1053
f 421 707 983
f 1002 1041 421
f 421 983 1002
f 614 976 354
f 541 614 354
f 354 707 541
f 285 951 394
f 394 349 285
f 394 951 845
f 394 845 303
f 303 349 394
f 369 1150 1083
f 314 1150 369
f 369 1083 238
f 238 314 369
f 786 724 90
f 45 18 786
f 786 90 45
f 80 135 48
f 144 135 80
f 80 154 144
f 905 288 319
f 319 953 905
f 905 813 836
f 836 288 905
f 466 813 905
f 905 953 466
f 688 274 326
f 688 950 274
f 750 748 688
f 688 748 950
f 662 831 1037
f 1037 748 662
f 836 831 662
f 662 288 836
f 711 288 662
f 662 748 711
f 319 711 233
f 233 711 750
f 750 208 233
f 233 272 319
f 193 272 233
f 281 208 750
f 281 688 326
f 750 688 281
f 281 326 952
f 952 441 281
f 1149 626 485
f 485 626 1079
f 485 1127 1149
f 485 1107 1127
f 519 1107 485
f 485 647 519
f 1079 647 485
f 855 817 412
f 855 804 817
f 745 804 855
f 855 396 745
f 855 412 979
f 979 396 855
f 1093 659 1016
f 659 396 1016
f 979 1093 1016
f 1016 396 979
f 248 623 659
f 253 227 248
f 248 198 253
f 248 211 198
f 1106 108 525
f 108 693 525
f 497 1106 525
f 525 1010 497
f 529 525 693
f 1010 525 529
f 529 436 1010
f 529 617 436
f 529 1076 617
f 169 7 154
f 169 741 788
f 169 154 741
f 142 72 155
f 142 188 72
f 142 139 188
f 22 51 79
f 139 142 79
f 155 22 79
f 79 142 155
f 60 107 124
f 85 627 75
f 667 85 75
f 75 687 667
f 147 809 75
f 809 687 75
f 75 740 147
f 75 627 740
f 685 140 44
f 44 140 23
f 23 67 44
f 305 685 35
f 1002 305 35
f 35 15 1002
f 685 44 35
f 64 15 35
f 35 67 64
f 35 44 67
f 940 354 976
f 940 483 983
f 940 976 483
f 983 707 940
f 707 354 940
f 13 43 21
f 177 13 21
f 21 474 177
f 20 474 21
f 48 667 774
f 774 80 48
f 667 787 774
f 787 154 774
f 154 80 774
f 286 233 208
f 446 296 286
f 296 193 286
f 193 233 286
f 208 281 286
f 441 446 286
f 286 281 441
f 227 623 254
f 254 248 227
f 623 248 254
f 347 659 476
f 347 248 659
f 476 500 347
f 347 500 211
f 211 248 347
f 144 1076 732
f 1076 529 732
f 732 135 144
f 732 693 135
f 732 529 693
f 167 7 28
f 7 169 28
f 28 6 167
f 28 169 788
f 788 24 28
f 24 6 28
f 98 51 60
f 60 124 98
f 98 79 51
f 139 79 98
f 98 124 139
f 134 107 653
f 134 124 107
f 139 124 134
f 724 786 800
f 43 724 800
f 800 21 43
f 20 21 800
f 800 18 20
f 800 786 18
f 727 134 653
f 727 779 55
f 29 779 727
f 55 2 727
f 49 29 727
f 727 653 49
f 2 139 727
f 139 134 727

