# https://github.com/mikedh/trimesh
v -0.02329373 -0.01231313 -0.05930980
v -0.02310616 -0.01163867 0.04307422
v -0.02375490 -0.01125431 0.05058246
v -0.02398105 -0.01148154 0.00312008
v -0.02397972 -0.01149121 0.00188299
v -0.02332344 -0.01229620 -0.05930980
v -0.02405688 -0.01155648 -0.06057139
v -0.02310616 -0.01153956 0.05058246
v -0.02427904 -0.01061369 0.05058246
v -0.02374116 -0.01124464 0.05139086
v -0.02417306 -0.01072731 0.05181955
v -0.02490029 -0.00980870 0.05181955
v -0.02497967 -0.00999001 0.01873673
v -0.02479609 -0.01086027 -0.05557406
v -0.02417306 -0.01167010 -0.05930980
v -0.02472425 -0.01056776 -0.06062038
v -0.02386754 -0.01135825 -0.06128179
v -0.02479742 -0.01084818 -0.05930980
v -0.02329373 -0.00686431 -0.06244538
v -0.02329373 0.01141848 -0.05930980
v -0.02284320 0.01238303 0.04431130
v -0.02263656 -0.00811169 0.06268384
v -0.02412473 -0.01061369 -0.06144102
v -0.02446262 -0.00942433 -0.06152676
v -0.02502889 -0.00905205 -0.06124505
v -0.02435442 -0.00811410 -0.06175948
v -0.02352831 -0.00686431 -0.06231065
v -0.02322012 -0.01145978 0.05181955
v -0.02371278 -0.01122046 0.05223599
v -0.02418149 -0.01047832 0.05306888
v -0.02376599 -0.00879339 0.06126304
v -0.02505328 -0.00904964 0.05278717
v -0.02509230 -0.00918501 0.05181955
v -0.02508299 -0.01024625 -0.05807272
v -0.02479076 -0.01086994 -0.05807272
v -0.02502224 -0.01012296 -0.06024068
v -0.02495128 -0.00988606 -0.06107357
v -0.02506436 -0.01021966 -0.05930980
v -0.02411719 0.00811390 -0.06137978
v -0.02394602 0.00936369 -0.06130629
v -0.02377841 0.01004540 -0.06122055
v -0.02342322 0.01095676 -0.06057139
v -0.02368839 0.01120092 -0.05930980
v -0.02320904 0.01215821 0.04431130
v -0.02401387 0.01153210 0.04807155
v -0.02271151 0.00686894 0.06252461
v -0.02295584 -0.00561451 0.06264710
v -0.02295273 -0.00686431 0.06264710
v -0.02285695 -0.00811169 0.06264710
v -0.02266938 -0.00892877 0.06254911
v -0.02300284 -0.00927929 0.06164273
v -0.02325915 -0.00950169 0.06055263
v -0.02290263 -0.01142836 0.05306888
v -0.02509318 -0.00942433 -0.06062038
v -0.02523375 -0.00811410 -0.06057139
v -0.02507146 -0.00811410 -0.06128179
v -0.02435442 -0.00686431 -0.06179622
v -0.02499873 -0.00062017 -0.06120830
v -0.02348086 -0.00811169 0.06207143
v -0.02382851 -0.00811169 0.06144676
v -0.02525992 -0.00811169 0.05181955
v -0.02510028 -0.00814069 0.05313012
v -0.02526967 -0.00811169 0.05058246
v -0.02526346 -0.00936148 -0.05807272
v -0.02522799 -0.00936148 -0.05930980
v -0.02373539 0.00999947 0.06120179
v -0.02298023 0.01046603 0.06166723
v -0.02395888 0.01142332 0.04930864
v -0.02498543 0.00016065 -0.06118380
v -0.02478766 0.00686652 -0.06085310
v -0.02478234 0.00820334 -0.06053464
v -0.02444710 0.00936369 -0.06057139
v -0.02396376 0.01033307 -0.06057139
v -0.02414379 0.01057723 -0.05930980
v -0.02400589 0.01155386 0.04682222
v -0.02450120 0.01061349 0.04807155
v -0.02448790 0.01061349 0.04930864
v -0.02261794 0.00936611 0.06250012
v -0.02274210 0.00561914 0.06253687
v -0.02284276 0.00686894 0.06243888
v -0.02284276 0.00561914 0.06247563
v -0.02355979 -0.00311734 0.06225515
v -0.02287735 -0.00062017 0.06259811
v -0.02357798 -0.00436713 0.06225515
v -0.02357975 -0.00561451 0.06225515
v -0.02357664 -0.00686431 0.06223065
v -0.02526169 -0.00686431 -0.06057139
v -0.02531934 -0.00811410 -0.05930980
v -0.02508476 -0.00686431 -0.06130629
v -0.02503731 -0.00311734 -0.06124505
v -0.02522311 -0.00436713 -0.06057139
v -0.02519917 -0.00311734 -0.06057139
v -0.02517256 -0.00186754 -0.06057139
v -0.02507057 0.00561914 -0.06027742
v -0.02505594 0.00686652 -0.06021618
v -0.02405112 -0.00686431 0.06055263
v -0.02388306 -0.00686431 0.06161824
v -0.02518187 -0.00686431 0.05306888
v -0.02531313 -0.00686431 0.05181955
v -0.02532333 -0.00686431 0.05058246
v -0.02532954 -0.00811410 -0.05807272
v -0.02487856 0.00956917 0.05181955
v -0.02500051 0.00885362 0.05251770
v -0.02376200 0.00936369 0.06126304
v -0.02324229 0.00936369 0.06187545
v -0.02284276 0.00980366 0.06225515
v -0.02502312 0.00784557 -0.06010595
v -0.02496814 0.00867715 -0.05976300
v -0.02480362 0.00926216 -0.05933430
v -0.02478500 0.00941446 -0.05807272
v -0.02416064 0.01055789 -0.05807272
v -0.02491093 0.00958851 0.05057022
v -0.02333630 0.00686652 0.06207143
v -0.02336646 0.00561672 0.06209592
v -0.02383783 0.00686652 0.06145901
v -0.02385423 0.00561672 0.06148351
v -0.02387064 0.00187217 0.06154475
v -0.02388527 -0.00311734 0.06163048
v -0.02388971 -0.00436713 0.06164273
v -0.02389192 -0.00561451 0.06164273
v -0.02524484 -0.00561693 -0.06057139
v -0.02532377 -0.00686431 -0.05930980
v -0.02527544 -0.00311734 -0.05930980
v -0.02507234 -0.00561693 -0.06128179
v -0.02513620 0.00561914 -0.05930980
v -0.02510915 0.00686652 -0.05930980
v -0.02405865 -0.00561451 0.06055263
v -0.02519384 -0.00561451 0.05306888
v -0.02531047 -0.00561451 0.05181955
v -0.02530204 -0.00436713 0.05181955
v -0.02500938 0.00894548 0.05181955
v -0.02505195 0.00811390 0.05181955
v -0.02514640 0.00436935 0.05181955
v -0.02501248 0.00811390 0.05257895
v -0.02380501 0.00811390 0.06137327
v -0.02328221 0.00811390 0.06199794
v -0.02503022 0.00820334 -0.05933430
v -0.02498898 0.00877868 -0.05893011
v -0.02499208 0.00879077 -0.05807272
v -0.02506392 0.00436935 0.05281167
v -0.02518897 -0.00436713 0.05306888
v -0.02525770 -0.00186754 -0.05930980
v -0.02523952 -0.00062017 -0.05930980
v -0.02522001 0.00062238 -0.05930980
v -0.02528253 -0.00311734 0.05181955
v -0.02521557 0.00062238 0.05181955
v -0.02509008 0.00686652 0.05057022
v -0.02505283 0.00811390 0.05057022
v -0.02503776 0.00811390 -0.05807272
v 0.02375495 -0.01002141 0.05087744
v 0.02253834 -0.01128081 0.02934486
v 0.02246466 0.01247445 0.05058218
v 0.02402193 -0.00936642 0.05182647
v 0.02375225 -0.01001659 0.05182647
v 0.02179350 -0.01149753 0.04433260
v 0.02241803 -0.01117486 0.04433260
v 0.02238052 -0.01116763 0.04683525
v 0.02165832 -0.01140121 0.05058218
v 0.02159782 0.01281398 0.05058218
v 0.02184014 0.01275137 0.05058218
v 0.02245892 0.01247204 0.05182647
v 0.02300572 0.01184595 0.05182647
v 0.02300606 0.01185077 0.05058218
v 0.02434197 -0.00811665 0.05182647
v 0.02418753 -0.00811665 0.05307780
v 0.02388202 -0.00933271 0.05295829
v 0.02373501 -0.00999733 0.05246620
v 0.02310609 -0.01050542 0.05182647
v 0.02235145 -0.01116523 0.04807954
v 0.02232205 -0.01115078 0.04933086
v 0.02223317 -0.01110262 0.05182647
v 0.02159782 -0.01138195 0.05182647
v 0.02159782 0.01280917 0.05182647
v 0.02183439 0.01274896 0.05182647
v 0.02164108 0.01150401 0.06057167
v 0.02226561 0.01097665 0.06057167
v 0.02362991 0.01102240 0.05182647
v 0.02363025 0.01103444 0.05058218
v 0.02504997 -0.00014124 0.04528164
v 0.02441632 -0.00686929 0.05182647
v 0.02429939 -0.00686929 0.05307780
v 0.02320950 -0.00686929 0.06057167
v 0.02312772 -0.00811665 0.05932035
v 0.02288474 -0.00819130 0.06062790
v 0.02312671 -0.01032242 0.05295829
v 0.02208008 -0.01102556 0.05307780
v 0.02266034 -0.00895947 0.06025532
v 0.02277423 -0.00911599 0.05932035
v 0.02209799 -0.00973967 0.05932035
v 0.02159782 0.01121505 0.06164021
v 0.02260559 0.01020849 0.06148555
v 0.02267081 0.01035297 0.06057167
v 0.02381240 0.01025183 0.05274036
v 0.02385093 0.01039872 0.05182647
v 0.02385363 0.01040835 0.05058218
v 0.02386242 0.01039631 0.04933086
v 0.02386310 0.01037946 0.04807954
v 0.02504997 0.00016217 0.04528164
v 0.02432473 -0.00561952 0.05307780
v 0.02300437 -0.00436975 0.06182299
v 0.02299085 -0.00561952 0.06182299
v 0.02282728 -0.00688133 0.06190032
v 0.02273604 -0.00782528 0.06154179
v 0.02159782 -0.00971077 0.06031156
v 0.02234469 -0.00865846 0.06108485
v 0.02190435 0.01065638 0.06192141
v 0.02232374 0.00970521 0.06231508
v 0.02250995 0.00887203 0.06246974
v 0.02267250 0.00931992 0.06187220
v 0.02292901 0.00936568 0.06057167
v 0.02404998 0.00936568 0.05182647
v 0.02405066 0.00936568 0.04933086
v 0.02414630 0.00811591 0.05182647
v 0.02418111 0.00686854 0.05182647
v 0.02423518 -0.00062285 0.05307780
v 0.02426559 -0.00187262 0.05307780
v 0.02429229 -0.00312239 0.05307780
v 0.02431392 -0.00436975 0.05307780
v 0.02298781 -0.00312239 0.06182299
v 0.02264918 -0.00312239 0.06261737
v 0.02265290 -0.00436975 0.06261737
v 0.02262823 -0.00561952 0.06257518
v 0.02255828 -0.00647197 0.06250489
v 0.02228454 -0.00730515 0.06237132
v 0.02189826 -0.00813592 0.06187923
v 0.02276882 0.00811591 0.06182299
v 0.02188711 0.00931992 0.06256816
v 0.02185703 -0.00312239 0.06279311
v 0.02299964 0.00811591 0.06057167
v 0.02403646 0.00686854 0.05307780
v 0.02407634 0.00561877 0.05307780
v 0.02410912 0.00436900 0.05307780
v 0.02185703 -0.00436975 0.06278609
v 0.02185703 -0.00561952 0.06270172
v 0.02186379 -0.00688133 0.06255410
v 0.00562169 -0.01262441 -0.06057493
v 0.00687016 -0.01261441 -0.06057493
v 0.01186822 -0.01257691 -0.06052404
v 0.00562169 -0.01251191 -0.06123233
v 0.01186822 -0.01247691 -0.06114791
v 0.01311461 -0.01254691 -0.06031932
v 0.01186822 -0.01185187 -0.06176825
v 0.00687016 -0.01250191 -0.06122115
v 0.02060545 -0.01152935 -0.06153000
v 0.02185601 -0.01147935 -0.06145882
v 0.02185601 -0.01188687 -0.06057493
v 0.02185601 -0.01204438 -0.05932601
v 0.01549711 0.01282705 -0.05921394
v 0.01186822 -0.01061430 -0.06213975
v 0.02060545 -0.01061430 -0.06189002
v 0.02185601 -0.01061430 -0.06184267
v 0.02264046 -0.01136934 -0.06133645
v 0.02289224 -0.01152685 -0.06057493
v 0.02304830 -0.01161686 -0.05932601
v 0.02408453 0.00561913 -0.05921394
v 0.02268416 0.01105445 -0.05921394
v 0.01685795 0.01277454 -0.05932601
v 0.01560948 0.01281705 -0.05932601
v 0.02310448 -0.00437144 -0.06205651
v 0.02185601 -0.00936423 -0.06191385
v 0.02185392 0.00811678 -0.06209710
v 0.02310448 -0.00811666 -0.06188503
v 0.02310448 -0.00936423 -0.06179649
v 0.02307535 -0.01055430 -0.06148970
v 0.02351439 -0.01097682 -0.06057493
v 0.02379322 -0.01009677 -0.06128057
v 0.02367461 -0.01116183 -0.05932601
v 0.02439665 -0.00686908 -0.05913481
v 0.02439249 -0.00686908 -0.05932601
v 0.02436127 -0.00561901 -0.05932601
v 0.02408037 0.00561913 -0.05932601
v 0.02403251 0.00686670 -0.05932601
v 0.02393263 0.00811678 -0.05932601
v 0.02379946 0.00900933 -0.05932601
v 0.02358930 0.00963436 -0.05932601
v 0.02289848 0.01073443 -0.05942043
v 0.02246984 0.01122945 -0.05989958
v 0.02197461 0.01156197 -0.05942043
v 0.02060545 0.01188449 -0.06057493
v 0.01766113 0.01254453 -0.06005753
v 0.01685795 0.01261453 -0.06015842
v 0.01560948 0.01261203 -0.06015078
v 0.01935698 0.01061442 -0.06183649
v 0.02185392 0.00936435 -0.06203533
v 0.02391390 -0.00437144 -0.06147323
v 0.02393263 -0.00686908 -0.06146558
v 0.02393887 -0.00811666 -0.06145734
v 0.02310448 -0.00561901 -0.06201092
v 0.02305870 0.00811678 -0.06171060
v 0.02310240 0.00312149 -0.06183620
v 0.02388685 -0.00312137 -0.06145970
v 0.02388269 -0.00936423 -0.06138440
v 0.02389102 -0.01035428 -0.06057493
v 0.02414903 -0.00936423 -0.06057493
v 0.02396384 -0.01053930 -0.05932601
v 0.02437376 -0.00811666 -0.05932601
v 0.02423226 -0.00561901 -0.06057493
v 0.02425723 -0.00811666 -0.06057493
v 0.02425515 -0.00686908 -0.06057493
v 0.02419897 -0.00428644 -0.06057493
v 0.02393055 0.00436906 -0.06057493
v 0.02385980 0.00686670 -0.06052727
v 0.02380362 0.00811678 -0.06035462
v 0.02375368 0.00884682 -0.06013490
v 0.02287143 0.01049441 -0.06057493
v 0.02351855 0.00930434 -0.06056051
v 0.02169370 0.01151197 -0.06057493
v 0.02231794 0.01111945 -0.06057493
v 0.02144401 0.01136196 -0.06132263
v 0.02060545 0.01148697 -0.06143764
v 0.01935698 0.01156197 -0.06148382
v 0.01685795 0.01218451 -0.06078259
v 0.01810642 0.01156947 -0.06146823
v 0.02060545 0.01061442 -0.06184326
v 0.02269248 0.01025690 -0.06141322
v 0.02291721 0.00936435 -0.06160853
v 0.02185809 0.01064942 -0.06157795
v 0.02392639 -0.00561901 -0.06146352
v 0.02376617 0.00436906 -0.06125851
v 0.02368294 0.00811678 -0.06097849
v 0.02371415 0.00686670 -0.06115115
v 0.02372663 0.00623167 -0.06119703
v 0.02374536 0.00539912 -0.06122615
v 0.02427180 -0.00936423 -0.05932601
v 0.02418025 -0.00428644 -0.06063434
v 0.02386605 0.00573664 -0.06069817
v -0.02263599 -0.01008247 0.06057518
v -0.02185642 -0.01036199 0.06057518
v -0.02250261 -0.01000348 0.06122968
v -0.02263599 -0.00981106 0.06134603
v -0.02060657 -0.01059087 0.06057518
v -0.02069740 -0.01026477 0.06193034
v -0.02185642 -0.01012704 0.06151171
v -0.02117458 -0.00995892 0.06241789
v -0.02185642 -0.00979688 0.06213617
v -0.02263599 -0.00894212 0.06257567
v -0.01935787 -0.01044504 0.06182347
v -0.02034211 -0.01007842 0.06253772
v -0.02185642 -0.00917303 0.06265724
v -0.02185642 -0.00811572 0.06280332
v -0.02263599 -0.00889959 0.06258136
v -0.02263599 -0.00811572 0.06268349
v -0.01810917 -0.01046124 0.06182347
v -0.01810917 -0.01015742 0.06264397
v -0.01935787 -0.01014121 0.06261297
v -0.01935787 -0.00936545 0.06286307
v -0.02069740 -0.00947077 0.06269772
v -0.01810917 -0.00936545 0.06288078
v -0.02263599 -0.01149870 0.05307528
v -0.02263599 -0.01180703 0.04355666
v -0.02028945 -0.01253010 0.04433643
v -0.02185534 -0.01207783 0.04433643
v -0.01685989 -0.01184599 0.05307528
v -0.01849361 -0.01249637 0.04623209
v -0.01810846 -0.01257998 0.04433643
v -0.01935704 -0.01257951 0.04433643
v -0.02263599 -0.01163363 0.05183168
v -0.02185534 -0.01185881 0.05183168
v -0.02185534 -0.01170251 0.05307528
v -0.02263599 -0.01166308 0.05104518
v -0.02014114 -0.01251727 0.04514981
v -0.01810846 -0.01184266 0.05307528
v -0.01880633 -0.01249637 0.04623209
v -0.01809007 -0.01252487 0.04566070
v -0.01927656 -0.01252772 0.04557332
v -0.02060677 -0.01192865 0.05183168
v -0.02060677 -0.01180228 0.05307528
v -0.01935704 -0.01182698 0.05307528
v -0.02186384 0.01002294 0.06251536
v 0.02060133 0.01305795 0.05182223
v -0.01311590 0.01117277 0.06243133
v -0.02185514 0.01024821 0.06250837
v -0.02256855 0.01010559 0.06249436
v 0.02060133 0.01306383 0.05057575
v 0.01935721 0.01311836 0.05182223
v 0.01810875 0.01312633 0.05182223
v -0.01935822 0.01105447 0.06242433
v -0.01311590 0.01158387 0.06180809
v -0.01810975 0.01155996 0.06180109
v -0.01935822 0.01154863 0.06180109
v -0.02060233 0.01101420 0.06238231
v -0.02284260 0.01034805 0.06194814
v -0.02185514 0.01087283 0.06217223
v -0.02255115 0.01129232 0.06131090
v -0.02284260 0.01073566 0.06155599
v 0.01935721 0.01311836 0.05057575
v -0.01686129 0.01290610 0.05182923
v -0.01436001 0.01188968 0.06056861
v -0.01311590 0.01189639 0.06056861
v 0.01061362 0.01315192 0.03558995
v -0.02060233 0.01152304 0.06175907
v -0.01561282 0.01157674 0.06179408
v -0.01686129 0.01157002 0.06179408
v -0.01561282 0.01188171 0.06056861
v -0.01686129 0.01187206 0.06056861
v -0.01810975 0.01185863 0.06056861
v -0.01935822 0.01183934 0.06056861
v -0.02185514 0.01141104 0.06154899
v -0.02257725 0.01253779 0.04308285
v -0.02284260 0.01101714 0.06099578
v -0.02185514 0.01159310 0.06056861
v -0.02260770 0.01133175 0.06056861
v -0.01810975 0.01289016 0.05057575
v -0.01810975 0.01282514 0.05182923
v -0.02060233 0.01179529 0.06056861
v -0.02124614 0.01249122 0.00094754
v -0.02258160 0.01253989 0.04432933
v -0.02185514 0.01269090 0.04308285
v -0.02135054 0.01250842 0.00562536
v -0.02129834 0.01249919 0.00313239
v -0.02126789 0.01249500 0.00187891
v -0.02192474 0.01262462 0.04558982
v -0.02254680 0.01252227 0.04516966
v -0.01935822 0.01285073 0.04558281
v -0.02060233 0.01281465 0.04558281
v -0.02060233 0.01281088 0.04432933
v -0.02185514 0.01269090 0.04432933
v 0.02159749 -0.00778531 0.06230057
v 0.01732674 -0.00995861 0.06239888
v 0.01810902 -0.00908851 0.06260252
v 0.02159749 -0.00837128 0.06181604
v 0.01982304 -0.00994004 0.06111381
v 0.02060533 -0.00976689 0.06090314
v 0.02151163 -0.00891104 0.06139470
v 0.01689108 -0.00947282 0.06267275
v 0.01649358 -0.01001820 0.06246910
v 0.01689108 -0.01017192 0.06192137
v 0.01810902 -0.01013177 0.06157025
v 0.02060533 -0.01014386 0.06027816
v 0.01685928 -0.00813983 0.06271488
v 0.02135263 -0.01005749 0.06005345
v 0.00561794 -0.01051651 0.06057310
v 0.01685928 -0.01044396 0.06057310
v 0.01810902 -0.01036710 0.06057310
v 0.01938738 -0.01020129 0.06065034
v 0.02060533 -0.01149758 0.05308037
v 0.02129539 -0.01126743 0.05374046
v 0.02060533 -0.01187887 0.04433768
v 0.02159749 -0.00995429 0.05981470
v 0.02145439 -0.01132270 0.05308037
v 0.02159749 -0.01125577 0.05308037
v 0.01685928 -0.01167160 0.05308037
v 0.01810902 -0.01165562 0.05308037
v 0.01935876 -0.01161590 0.05308037
v 0.02060533 -0.01160251 0.05183041
v 0.01935876 -0.01203087 0.04433768
v 0.01685928 -0.01209434 0.04433768
v 0.02159749 -0.01156106 0.04433768
v 0.02159749 -0.01138185 0.05183041
v 0.02060533 -0.01184044 0.04558062
v 0.01935876 -0.01201402 0.04558062
v 0.02159749 -0.01137538 0.05192170
v 0.02159749 -0.01128254 0.05284864
v 0.01810902 -0.01172989 0.05183041
v 0.01935876 -0.01170269 0.05183041
v 0.01810902 -0.01206411 0.04558062
v 0.01685928 -0.01208182 0.04558062
v 0.01685928 -0.01201921 0.04683058
v 0.01810902 -0.01199848 0.04683058
v -0.02185534 -0.01279667 -0.05308026
v -0.02060560 -0.01306902 -0.05308026
v -0.02329395 -0.01231297 -0.05932416
v -0.01935846 -0.01314510 -0.05308026
v -0.01810873 -0.01316017 -0.05308026
v -0.01810873 -0.01314069 -0.05432693
v -0.01810873 -0.01061637 -0.06297437
v -0.02269884 -0.01257063 -0.05932416
v -0.02185534 -0.01272978 -0.05932416
v -0.01935846 -0.01311056 -0.05432693
v -0.02329395 -0.01231003 -0.05936114
v -0.02262380 -0.01253718 -0.06017465
v -0.02060560 -0.01282056 -0.05932416
v -0.01935846 -0.01283489 -0.05932416
v -0.01810873 -0.01283600 -0.05932416
v -0.00811863 -0.01281431 -0.05932416
v -0.00687148 -0.01280843 -0.05932416
v -0.00187514 -0.01277976 -0.05932416
v -0.00062541 -0.01277094 -0.05932416
v -0.01810873 -0.01170174 -0.06275778
v -0.01935846 -0.01061637 -0.06298493
v -0.02185534 -0.01260187 -0.06037010
v -0.02329395 -0.01228872 -0.05946679
v -0.02306626 -0.01219940 -0.06058140
v -0.02185534 -0.01240486 -0.06099343
v -0.02147757 -0.01021905 -0.06256761
v -0.02021749 -0.01141799 -0.06257818
v -0.02329395 -0.01153377 -0.06138434
v -0.01935846 -0.01271250 -0.06057083
v -0.01810873 -0.01274668 -0.06057083
v -0.00312488 -0.01267942 -0.06057083
v -0.00187514 -0.01267281 -0.06057083
v -0.01935846 -0.01161096 -0.06271024
v -0.01810873 -0.01232621 -0.06208162
v -0.02062371 -0.01062776 -0.06271553
v -0.02056938 -0.01262686 -0.06065007
v -0.01935846 -0.01254012 -0.06135792
v -0.02329395 -0.01205238 -0.06058140
v -0.02329395 -0.01196270 -0.06078741
v -0.02310507 -0.01158964 -0.06141603
v -0.01935846 -0.01223542 -0.06198126
v -0.01810873 -0.01257063 -0.06145829
v -0.01186265 0.01147025 -0.06137684
v -0.01186265 0.01061600 -0.06165879
v -0.01311238 0.01146395 -0.06137121
v -0.01935846 0.01200127 -0.05932627
v -0.02060560 0.01196979 -0.05932627
v -0.02185534 -0.00811658 -0.06287385
v -0.01311238 0.01061600 -0.06164519
v -0.01561185 0.01144716 -0.06136089
v -0.01685899 0.01185015 -0.06057463
v -0.01935846 0.01179348 -0.06057463
v -0.01810873 0.01182496 -0.06057463
v -0.02060560 0.01173051 -0.06057463
v -0.02185534 0.01189422 -0.05932627
v -0.02056938 -0.00940530 -0.06293577
v -0.02060560 -0.00936542 -0.06293389
v -0.02060560 0.01061600 -0.06147958
v -0.01935846 0.01061600 -0.06151899
v -0.01685899 0.01061600 -0.06157998
v -0.01561185 0.01061600 -0.06160953
v -0.02187862 -0.00938431 -0.06269464
v -0.02286444 -0.00811658 -0.06264772
v -0.02290325 -0.00686774 -0.06263881
v -0.02310507 0.00936716 -0.06146269
v -0.01685899 0.01143247 -0.06134963
v -0.01935846 0.01138629 -0.06131164
v -0.02060560 0.01135271 -0.06128677
v -0.01810873 0.01141148 -0.06133040
v -0.02185534 0.01129604 -0.06124267
v -0.02185534 0.01162557 -0.06057463
v -0.02279716 0.01140099 -0.06057463
v -0.02306367 0.01154371 -0.05932627
v -0.02329395 0.01141778 -0.05932627
v -0.02186051 -0.00940530 -0.06269511
v -0.02185534 0.01061600 -0.06141531
v -0.02266520 -0.00898132 -0.06255624
v -0.02329395 -0.00811658 -0.06240331
v -0.02329395 -0.00731060 -0.06244177
v -0.02329395 0.00936716 -0.06142892
v -0.02329395 0.00955606 -0.06139749
v -0.02299381 0.01052365 -0.06128912
v -0.02250220 0.01125196 -0.06120937
v -0.02329395 0.01105047 -0.06057463
v -0.02329395 0.01034105 -0.06126613
v 0.02148959 0.01196193 -0.05556368
v 0.02011893 0.01251500 -0.05650204
v 0.02148959 0.01191978 -0.05684102
v 0.02056444 0.01232049 -0.05688033
v 0.01992672 0.01244952 -0.05733722
v 0.01903390 0.01254353 -0.05807415
v 0.01686025 0.01277663 -0.05921393
v 0.01811774 0.01258341 -0.05921393
v 0.01809079 0.01258795 -0.05921393
v 0.01674888 0.01278409 -0.05921393
v 0.01561175 0.01286189 -0.05807415
v 0.01186625 0.01300908 -0.05557842
v 0.01561175 0.01282331 -0.05921393
v 0.01436145 0.01290177 -0.05807415
v 0.01311295 0.01296012 -0.05682629
v 0.02116077 -0.01241668 -0.05182992
v 0.02287430 -0.01156272 -0.03808869
v 0.02408455 0.00561838 -0.05921393
v 0.02437742 -0.00811777 -0.05913040
v 0.02427519 -0.00936474 -0.05913040
v 0.02403680 0.00686778 -0.05921393
v 0.02407635 0.00686778 -0.05807414
v 0.02412000 0.00561838 -0.05807414
v 0.02438898 -0.00561896 -0.05807414
v 0.02441323 -0.00686837 -0.05807414
v 0.02439309 -0.00811777 -0.05807414
v 0.02428490 -0.00936474 -0.05807414
v 0.02428564 -0.00936474 -0.05557842
v 0.02428564 -0.00936474 -0.05432564
v 0.02185730 0.01180959 -0.05557842
v 0.02185730 0.01175865 -0.05682628
v 0.02185730 0.01169314 -0.05807414
v 0.02195803 0.01158155 -0.05921393
v 0.02394018 0.00811718 -0.05921393
v 0.02399763 0.00811718 -0.05807414
v 0.02400397 0.00811718 -0.05682628
v 0.02439868 -0.00561896 -0.05682136
v 0.02440614 -0.00811777 -0.05557842
v 0.02440279 -0.00811777 -0.05682136
v 0.02440764 -0.00811777 -0.05432564
v 0.02440764 -0.00811777 -0.05307287
v 0.02257286 0.01131711 -0.05682628
v 0.02256353 0.01130983 -0.05807414
v 0.02253145 0.01128072 -0.05906654
v 0.02230014 0.01139959 -0.05921393
v 0.02381855 0.00892990 -0.05921393
v 0.02383982 0.00915310 -0.05807414
v 0.02384392 0.00920404 -0.05682628
v 0.02311568 0.01061356 -0.05682628
v 0.02308098 0.01061356 -0.05807414
v 0.02380438 0.00902209 -0.05921393
v 0.02359396 0.00964800 -0.05921393
v 0.02362343 0.00977658 -0.05807414
v 0.02364843 0.00982753 -0.05682628
v 0.02365962 0.00983966 -0.05557842
v 0.02292765 0.01071545 -0.05921393
v 0.02301047 0.01058687 -0.05921393
v 0.01810971 -0.01296706 -0.05307702
v 0.01935796 -0.01292729 -0.05307702
v 0.02052926 -0.01269038 -0.05307702
v 0.01810971 -0.01295594 -0.05432782
v 0.01935796 -0.01288233 -0.05432782
v 0.02050018 -0.01265184 -0.05432782
v 0.01810971 -0.01283020 -0.05557862
v 0.02007099 -0.01249695 -0.05751123
v 0.02026251 -0.01252338 -0.05682452
v 0.01560953 0.01196032 0.06057498
v 0.01560953 0.01170459 0.06182360
v 0.01685928 0.01195648 0.06057498
v 0.00686769 0.01194302 0.06057498
v 0.01311323 0.01132388 0.06251513
v 0.01560953 0.01133157 0.06252221
v 0.01685928 0.01132964 0.06251884
v 0.01685928 0.01169882 0.06182360
v 0.01935876 0.01193340 0.06057498
v 0.02060533 0.01184880 0.06057498
v 0.01560953 0.01061436 0.06257951
v -0.00562021 0.01124889 0.06245481
v 0.01685928 0.01061436 0.06257512
v 0.02051310 0.01066051 0.06252659
v 0.01810902 0.01131234 0.06250367
v 0.01810902 0.01166998 0.06182360
v -0.00651061 0.01124312 0.06245110
v 0.01935876 0.01162383 0.06182360
v 0.02051310 0.01148924 0.06190009
v 0.02148301 0.01142002 0.06153478
v 0.02063712 0.00944723 0.06257781
v 0.02159749 0.00934916 0.06257478
v 0.02159749 0.01001637 0.06254816
v 0.02148937 0.01027403 0.06253872
v 0.02003293 0.01124889 0.06245447
v 0.01935876 0.01127773 0.06247638
v 0.02086609 0.01110660 0.06236752
v 0.02159749 0.01147962 0.06084324
v 0.02159749 0.01037209 0.06238101
v 0.02159749 0.01078934 0.06205849
v 0.02159749 -0.00768297 0.06238269
v 0.02159749 -0.00755991 0.06248076
v 0.02145121 -0.00761375 0.06250334
v 0.02159749 -0.00735418 0.06252322
f 151 254 267
f 196 599 178
f 390 556 387
f 179 569 198
f 63 100 101
f 107 71 70
f 506 513 514
f 593 178 599
f 593 163 178
f 197 599 196
f 197 592 599
f 196 212 197
f 212 592 197
f 579 592 580
f 580 592 212
f 580 198 579
f 212 198 580
f 546 374 159
f 159 160 546
f 374 173 159
f 390 387 376
f 451 446 438
f 469 461 468
f 14 4 13
f 4 12 13
f 13 12 33
f 15 4 14
f 15 5 4
f 4 5 1
f 316 284 315
f 153 295 573
f 253 267 254
f 33 63 64
f 64 63 101
f 112 110 139
f 112 76 110
f 95 107 70
f 95 126 107
f 125 126 95
f 71 107 108
f 41 42 542
f 399 514 532
f 532 514 531
f 506 514 406
f 406 556 506
f 211 212 196
f 211 198 212
f 152 574 160
f 546 160 545
f 545 574 546
f 160 574 545
f 162 177 178
f 178 163 162
f 162 152 161
f 163 152 162
f 586 593 587
f 163 593 586
f 586 152 163
f 587 574 586
f 574 152 586
f 546 574 548
f 548 278 546
f 575 574 587
f 315 309 308
f 309 307 308
f 306 316 315
f 320 316 306
f 160 159 174
f 174 159 173
f 45 44 75
f 75 44 43
f 43 74 75
f 75 76 45
f 110 76 75
f 614 376 389
f 386 556 390
f 390 376 386
f 402 413 45
f 401 413 402
f 45 413 407
f 412 413 401
f 387 405 397
f 337 338 332
f 346 344 348
f 345 338 337
f 337 344 345
f 345 346 338
f 344 346 345
f 348 344 425
f 171 168 167
f 167 186 171
f 447 457 355
f 355 602 447
f 356 464 355
f 464 602 355
f 456 457 447
f 447 602 456
f 456 446 451
f 426 425 344
f 455 456 451
f 459 456 455
f 445 455 451
f 461 469 463
f 356 351 463
f 463 351 461
f 463 464 356
f 463 465 464
f 469 465 463
f 9 12 4
f 9 11 12
f 30 11 29
f 12 11 30
f 5 15 6
f 6 1 5
f 462 1 6
f 15 18 7
f 284 314 317
f 317 309 315
f 315 284 317
f 296 563 324
f 570 563 569
f 569 563 268
f 268 568 569
f 268 296 269
f 563 296 268
f 581 198 569
f 569 568 581
f 254 604 247
f 247 253 254
f 246 253 247
f 560 604 254
f 151 155 560
f 560 155 604
f 33 12 32
f 45 66 68
f 68 66 400
f 34 13 33
f 33 64 34
f 14 13 34
f 45 76 77
f 77 66 45
f 102 66 77
f 77 112 102
f 76 112 77
f 148 126 147
f 69 95 70
f 139 110 138
f 110 74 109
f 109 138 110
f 108 138 109
f 71 108 72
f 108 109 72
f 284 507 503
f 507 508 503
f 507 523 524
f 524 517 507
f 529 513 527
f 527 517 529
f 530 542 531
f 531 514 530
f 530 514 513
f 513 529 530
f 530 529 542
f 41 542 544
f 544 542 541
f 531 542 543
f 543 542 42
f 43 531 543
f 543 42 43
f 527 513 511
f 511 513 506
f 43 399 20
f 399 532 20
f 415 414 416
f 416 414 556
f 556 406 416
f 409 514 399
f 196 178 195
f 178 177 195
f 320 306 304
f 275 274 304
f 304 306 275
f 315 308 305
f 305 306 315
f 275 306 305
f 305 276 275
f 187 167 184
f 370 173 374
f 111 74 110
f 110 75 111
f 111 75 74
f 228 621 348
f 403 414 415
f 403 387 556
f 556 414 403
f 401 405 404
f 404 412 401
f 404 405 387
f 387 403 404
f 415 412 404
f 404 403 415
f 417 407 413
f 413 412 417
f 417 412 415
f 395 387 396
f 387 397 396
f 337 332 331
f 431 187 204
f 461 351 460
f 150 295 153
f 267 295 150
f 364 355 457
f 356 355 364
f 427 433 434
f 427 426 343
f 343 433 427
f 343 344 337
f 343 426 344
f 343 432 433
f 362 353 343
f 431 204 424
f 425 426 419
f 419 426 427
f 443 455 444
f 436 434 444
f 444 445 436
f 455 445 444
f 444 433 443
f 444 434 433
f 454 455 443
f 459 455 454
f 451 438 450
f 450 445 451
f 157 155 151
f 89 57 56
f 56 87 89
f 101 100 122
f 328 332 333
f 328 331 332
f 35 15 14
f 35 18 15
f 14 34 35
f 35 34 18
f 36 37 16
f 16 18 36
f 16 7 18
f 472 469 468
f 472 465 469
f 301 326 302
f 302 271 301
f 579 198 566
f 566 565 579
f 583 570 569
f 583 569 179
f 179 582 583
f 582 571 583
f 583 571 570
f 564 295 324
f 564 571 295
f 570 571 564
f 324 563 564
f 563 570 564
f 572 573 295
f 295 571 572
f 584 582 179
f 179 585 584
f 584 571 582
f 584 572 571
f 608 606 605
f 465 476 605
f 605 602 464
f 464 465 605
f 609 606 608
f 246 247 609
f 607 247 604
f 607 606 247
f 446 456 603
f 603 456 602
f 603 438 446
f 602 605 603
f 603 605 606
f 603 604 438
f 603 607 604
f 606 607 603
f 561 254 151
f 151 560 561
f 561 560 254
f 267 253 265
f 289 316 320
f 284 316 289
f 103 66 102
f 327 52 29
f 340 373 78
f 340 339 346
f 384 68 400
f 400 66 384
f 66 385 384
f 401 402 384
f 384 402 45
f 45 68 384
f 385 373 384
f 36 18 38
f 18 34 38
f 38 65 36
f 38 34 64
f 64 65 38
f 556 386 559
f 505 558 248
f 505 511 506
f 505 559 558
f 506 556 505
f 556 559 505
f 555 386 374
f 248 558 555
f 555 559 386
f 558 559 555
f 311 281 310
f 314 311 310
f 309 317 310
f 310 317 314
f 312 281 311
f 311 313 312
f 282 281 312
f 546 278 279
f 278 307 279
f 279 307 309
f 309 310 279
f 279 310 281
f 94 95 58
f 95 69 58
f 27 57 58
f 19 538 27
f 523 538 19
f 41 72 73
f 73 42 41
f 73 109 74
f 73 72 109
f 43 42 73
f 73 74 43
f 283 314 284
f 284 503 283
f 527 511 526
f 520 508 507
f 535 524 541
f 517 524 535
f 541 542 535
f 542 529 535
f 535 529 517
f 39 524 523
f 523 19 39
f 39 69 70
f 39 19 27
f 27 58 39
f 39 58 69
f 537 538 522
f 522 538 523
f 536 23 522
f 522 523 507
f 258 505 248
f 258 281 282
f 43 20 533
f 533 20 532
f 533 531 43
f 533 532 531
f 514 409 410
f 177 191 193
f 179 198 199
f 199 180 179
f 198 211 213
f 277 305 308
f 276 305 277
f 277 308 307
f 277 307 278
f 278 589 277
f 278 548 577
f 548 576 577
f 577 576 575
f 577 589 278
f 575 589 577
f 547 576 548
f 575 576 547
f 547 548 574
f 574 575 547
f 274 595 590
f 598 593 599
f 599 592 598
f 591 592 579
f 591 598 592
f 597 598 591
f 579 590 591
f 591 590 595
f 203 182 202
f 203 184 182
f 187 184 203
f 164 165 153
f 153 573 164
f 573 585 164
f 179 180 164
f 164 585 179
f 182 184 183
f 183 165 182
f 166 184 167
f 166 167 153
f 153 165 166
f 166 183 184
f 165 183 166
f 618 619 613
f 372 621 616
f 621 617 616
f 620 174 173
f 620 630 174
f 173 370 620
f 620 370 619
f 619 370 375
f 375 376 613
f 613 619 375
f 375 386 376
f 374 386 375
f 375 370 374
f 348 425 430
f 192 191 177
f 21 407 399
f 45 407 21
f 21 399 43
f 43 44 21
f 21 44 45
f 408 409 399
f 399 407 408
f 407 417 408
f 408 410 409
f 415 416 408
f 408 417 415
f 66 373 382
f 382 373 385
f 222 234 223
f 202 222 223
f 223 203 202
f 224 203 223
f 208 228 220
f 228 221 220
f 220 219 208
f 425 234 233
f 233 430 425
f 233 221 228
f 233 228 348
f 348 430 233
f 222 221 233
f 233 234 222
f 468 461 467
f 461 460 467
f 467 1 462
f 439 187 431
f 439 189 187
f 431 186 439
f 186 189 439
f 188 167 187
f 187 189 188
f 188 189 167
f 186 167 185
f 185 189 186
f 167 189 185
f 153 167 154
f 154 150 153
f 154 167 168
f 151 267 154
f 267 150 154
f 364 454 354
f 429 434 436
f 429 437 431
f 436 437 429
f 431 422 429
f 422 419 429
f 423 422 431
f 431 424 423
f 423 419 422
f 424 419 423
f 643 425 420
f 420 419 643
f 425 419 420
f 421 424 225
f 225 419 421
f 421 419 424
f 458 364 457
f 458 454 364
f 459 454 458
f 457 456 458
f 458 456 459
f 445 450 172
f 172 450 438
f 170 168 171
f 26 56 57
f 26 538 537
f 26 57 27
f 27 538 26
f 87 122 123
f 87 56 55
f 17 23 536
f 37 23 17
f 17 16 37
f 7 16 17
f 485 17 536
f 608 605 238
f 7 497 482
f 567 268 269
f 568 268 567
f 567 566 198
f 198 581 567
f 567 581 568
f 320 304 303
f 303 302 320
f 475 476 465
f 247 606 610
f 610 609 247
f 606 609 610
f 267 265 293
f 293 265 266
f 293 295 267
f 266 294 293
f 324 295 293
f 293 294 324
f 298 296 324
f 324 294 298
f 269 296 298
f 261 507 284
f 284 289 261
f 289 259 261
f 102 112 131
f 131 103 102
f 131 112 139
f 139 149 131
f 126 148 131
f 131 149 126
f 66 103 104
f 115 103 134
f 125 146 133
f 133 126 125
f 147 126 133
f 134 103 133
f 100 63 61
f 61 63 33
f 33 32 61
f 100 61 99
f 116 115 141
f 96 120 127
f 338 346 347
f 347 339 338
f 346 339 347
f 338 339 334
f 333 332 334
f 334 332 338
f 372 373 369
f 373 340 369
f 369 340 346
f 369 346 348
f 348 621 369
f 369 621 372
f 280 279 281
f 126 149 137
f 107 126 137
f 139 138 137
f 137 149 139
f 137 108 107
f 137 138 108
f 94 58 93
f 502 283 503
f 502 311 314
f 314 283 502
f 502 313 311
f 502 312 313
f 282 510 512
f 512 258 282
f 511 505 512
f 505 258 512
f 507 517 518
f 518 517 527
f 527 526 518
f 41 544 40
f 40 72 41
f 71 72 40
f 70 71 40
f 40 39 70
f 537 522 24
f 24 522 23
f 557 258 248
f 248 555 557
f 554 557 555
f 554 555 374
f 411 406 514
f 514 410 411
f 410 408 411
f 411 416 406
f 411 408 416
f 194 193 211
f 194 211 196
f 196 195 194
f 194 195 177
f 177 193 194
f 218 199 198
f 229 219 218
f 180 199 181
f 181 164 180
f 165 164 181
f 182 165 181
f 181 199 182
f 198 213 214
f 213 229 230
f 210 193 191
f 211 193 210
f 210 213 211
f 210 229 213
f 588 277 589
f 588 575 587
f 588 589 575
f 593 598 594
f 594 598 597
f 597 600 594
f 587 593 594
f 594 588 587
f 276 600 601
f 601 600 597
f 597 591 596
f 596 601 597
f 596 591 595
f 275 276 596
f 276 601 596
f 596 274 275
f 596 595 274
f 205 224 225
f 205 203 224
f 225 424 205
f 205 424 204
f 187 203 205
f 205 204 187
f 612 618 613
f 612 614 389
f 617 618 612
f 612 616 617
f 372 616 615
f 208 191 207
f 634 635 624
f 637 635 634
f 208 207 634
f 621 228 623
f 623 634 624
f 624 617 623
f 623 617 621
f 630 191 176
f 191 192 176
f 176 162 161
f 177 162 176
f 176 192 177
f 67 385 66
f 66 382 67
f 67 382 385
f 82 115 116
f 66 104 105
f 105 104 136
f 643 641 642
f 642 641 224
f 642 223 643
f 224 223 642
f 418 419 225
f 225 224 418
f 224 641 418
f 643 419 418
f 418 641 643
f 235 223 234
f 208 219 226
f 226 219 229
f 229 210 226
f 201 221 222
f 201 222 202
f 202 182 201
f 53 28 357
f 53 358 349
f 357 358 53
f 29 28 53
f 53 327 29
f 349 328 53
f 328 327 53
f 4 1 3
f 3 9 4
f 11 9 3
f 357 28 360
f 351 358 360
f 360 358 357
f 331 328 359
f 359 328 349
f 349 358 359
f 351 360 352
f 352 460 351
f 352 467 460
f 156 157 151
f 151 154 156
f 156 154 157
f 353 354 442
f 442 343 353
f 442 454 443
f 442 354 454
f 432 343 442
f 443 433 442
f 433 432 442
f 363 353 362
f 363 354 353
f 364 354 363
f 427 434 428
f 428 419 427
f 428 429 419
f 441 186 431
f 171 186 441
f 171 441 453
f 436 445 440
f 440 437 436
f 440 453 441
f 431 437 440
f 440 441 431
f 158 172 438
f 155 170 158
f 171 172 158
f 158 170 171
f 155 157 169
f 169 170 155
f 168 170 169
f 169 154 168
f 157 154 169
f 54 37 36
f 36 65 54
f 65 55 54
f 88 122 87
f 87 55 88
f 101 122 88
f 88 55 65
f 88 64 101
f 88 65 64
f 498 497 7
f 7 17 498
f 498 17 487
f 487 499 498
f 499 484 498
f 534 485 536
f 259 260 466
f 466 261 259
f 246 609 241
f 241 609 608
f 608 238 241
f 478 238 605
f 7 482 470
f 470 6 15
f 15 7 470
f 462 6 470
f 468 467 471
f 471 467 462
f 462 470 471
f 562 270 271
f 269 270 562
f 562 567 269
f 273 303 304
f 273 304 274
f 302 303 272
f 271 302 272
f 272 565 271
f 303 273 272
f 579 565 272
f 297 270 269
f 321 289 320
f 320 302 321
f 321 302 326
f 263 264 251
f 266 264 263
f 135 104 103
f 103 115 135
f 136 104 135
f 103 131 132
f 132 133 103
f 132 131 148
f 132 148 147
f 147 133 132
f 134 133 140
f 140 133 146
f 140 115 134
f 140 141 115
f 130 122 100
f 130 123 122
f 48 86 49
f 340 47 48
f 52 327 329
f 329 328 333
f 329 327 328
f 333 334 329
f 329 334 335
f 335 334 336
f 336 334 339
f 336 329 335
f 339 340 336
f 62 61 32
f 32 60 62
f 62 60 96
f 546 279 549
f 549 550 546
f 279 550 549
f 257 280 281
f 281 258 257
f 546 550 257
f 258 557 257
f 557 554 257
f 89 87 121
f 87 123 121
f 121 143 144
f 121 144 125
f 125 95 121
f 95 91 121
f 90 91 58
f 90 57 89
f 90 58 57
f 92 93 58
f 58 91 92
f 92 91 95
f 92 95 94
f 94 93 92
f 509 503 508
f 509 510 282
f 282 312 509
f 519 520 507
f 507 518 519
f 526 520 519
f 519 518 526
f 524 39 539
f 39 40 539
f 56 26 25
f 25 26 537
f 537 24 25
f 25 55 56
f 25 23 37
f 25 24 23
f 37 54 25
f 25 54 55
f 198 216 217
f 217 218 198
f 216 229 217
f 229 218 217
f 215 216 198
f 198 214 215
f 215 229 216
f 231 214 213
f 213 230 231
f 231 230 229
f 276 277 256
f 277 588 256
f 256 600 276
f 256 594 600
f 588 594 256
f 611 612 613
f 614 612 611
f 613 376 611
f 376 614 611
f 394 387 395
f 380 396 397
f 395 396 380
f 624 635 636
f 630 620 629
f 629 637 630
f 629 635 637
f 206 207 191
f 227 228 208
f 227 632 228
f 228 632 631
f 631 623 228
f 632 623 631
f 633 623 632
f 634 623 633
f 632 227 633
f 208 634 633
f 633 227 208
f 174 630 175
f 175 176 161
f 161 174 175
f 78 373 113
f 373 136 113
f 136 135 113
f 113 135 115
f 85 120 86
f 86 48 85
f 85 48 47
f 106 136 373
f 106 105 136
f 106 373 66
f 66 105 106
f 644 234 425
f 644 235 234
f 644 425 643
f 643 223 644
f 223 235 644
f 209 210 191
f 209 226 210
f 209 191 208
f 208 226 209
f 221 201 200
f 200 220 221
f 219 220 200
f 200 201 182
f 200 218 219
f 182 199 200
f 199 218 200
f 10 28 29
f 29 11 10
f 11 3 10
f 361 358 351
f 361 351 356
f 361 366 358
f 434 429 435
f 435 428 434
f 429 428 435
f 452 440 445
f 453 440 452
f 171 453 452
f 448 158 438
f 155 158 448
f 438 604 448
f 604 155 448
f 521 522 507
f 536 522 521
f 521 534 536
f 515 521 507
f 534 521 515
f 246 241 240
f 240 241 238
f 479 240 493
f 242 240 479
f 477 605 476
f 477 478 605
f 493 501 496
f 496 500 493
f 484 500 496
f 476 475 490
f 489 490 475
f 483 482 497
f 497 498 483
f 483 470 482
f 483 471 470
f 483 498 484
f 484 471 483
f 481 471 484
f 481 496 495
f 484 496 481
f 468 471 481
f 481 472 468
f 271 565 255
f 255 562 271
f 565 566 255
f 566 567 255
f 567 562 255
f 579 272 578
f 578 272 273
f 578 590 579
f 274 590 578
f 578 273 274
f 269 298 299
f 299 297 269
f 298 287 299
f 271 270 300
f 270 297 300
f 301 271 300
f 300 326 301
f 286 287 259
f 318 299 286
f 286 299 287
f 290 259 289
f 289 291 290
f 290 291 259
f 259 291 285
f 285 286 259
f 318 286 285
f 285 299 318
f 297 299 285
f 251 260 262
f 262 263 251
f 287 263 262
f 266 263 292
f 292 263 287
f 292 294 266
f 292 298 294
f 292 287 298
f 141 130 129
f 100 99 129
f 129 130 100
f 141 140 145
f 145 130 141
f 145 140 146
f 145 146 125
f 125 144 145
f 144 143 145
f 143 130 145
f 22 48 49
f 340 48 22
f 46 340 78
f 46 79 340
f 83 47 340
f 340 79 83
f 83 82 47
f 83 79 82
f 330 336 51
f 329 336 330
f 120 96 97
f 96 60 97
f 86 120 97
f 97 60 86
f 51 336 50
f 31 32 12
f 31 60 32
f 12 30 31
f 31 30 29
f 29 52 31
f 31 330 51
f 51 50 31
f 52 329 31
f 329 330 31
f 49 86 59
f 86 60 59
f 60 31 59
f 59 31 50
f 59 336 49
f 59 50 336
f 98 62 96
f 98 99 61
f 61 62 98
f 552 550 279
f 279 280 552
f 551 374 546
f 546 257 551
f 551 554 374
f 551 257 554
f 142 121 123
f 143 121 142
f 123 130 142
f 142 130 143
f 89 121 124
f 124 90 89
f 124 121 91
f 91 90 124
f 504 502 503
f 503 509 504
f 312 502 504
f 504 509 312
f 508 520 525
f 525 509 508
f 511 512 525
f 525 512 510
f 510 509 525
f 540 40 544
f 540 539 40
f 524 539 540
f 541 524 540
f 540 544 541
f 232 215 214
f 214 231 232
f 229 215 232
f 232 231 229
f 391 397 405
f 391 380 397
f 379 394 395
f 395 380 379
f 625 618 617
f 625 617 624
f 624 636 625
f 619 618 626
f 618 625 626
f 639 634 207
f 207 206 639
f 206 640 639
f 637 634 639
f 639 640 637
f 630 176 638
f 638 175 630
f 176 175 638
f 116 141 117
f 141 118 117
f 127 120 119
f 119 118 141
f 47 82 84
f 84 85 47
f 118 119 84
f 120 85 84
f 84 119 120
f 84 117 118
f 84 82 116
f 116 117 84
f 467 352 350
f 368 363 362
f 368 366 363
f 368 343 337
f 362 343 368
f 367 359 358
f 358 366 367
f 366 368 367
f 331 359 367
f 337 331 367
f 367 368 337
f 365 361 356
f 356 364 365
f 364 363 365
f 363 366 365
f 366 361 365
f 445 172 449
f 449 452 445
f 449 172 171
f 171 452 449
f 507 261 516
f 516 515 507
f 261 515 516
f 239 501 493
f 239 489 501
f 490 489 239
f 246 240 245
f 493 500 492
f 492 479 493
f 492 484 499
f 492 500 484
f 249 479 466
f 249 466 260
f 251 242 250
f 242 479 250
f 479 249 250
f 250 260 251
f 250 249 260
f 488 489 472
f 488 481 495
f 472 481 488
f 495 496 488
f 488 496 501
f 501 489 488
f 465 472 473
f 472 489 473
f 319 291 289
f 319 285 291
f 297 285 319
f 288 260 259
f 288 262 260
f 259 287 288
f 287 262 288
f 341 336 340
f 49 336 341
f 82 79 81
f 79 46 81
f 128 96 127
f 128 98 96
f 127 119 128
f 128 119 141
f 99 98 128
f 128 129 99
f 141 129 128
f 280 257 553
f 553 552 280
f 553 257 550
f 550 552 553
f 528 520 526
f 528 525 520
f 528 526 511
f 511 525 528
f 398 405 401
f 398 391 405
f 401 384 398
f 380 391 377
f 377 371 380
f 394 379 393
f 622 379 380
f 615 379 622
f 371 377 622
f 372 615 622
f 622 377 372
f 635 629 628
f 628 636 635
f 619 626 628
f 628 625 636
f 628 626 625
f 628 620 619
f 628 629 620
f 190 640 206
f 190 191 630
f 190 206 191
f 630 637 190
f 637 640 190
f 1 467 2
f 467 350 2
f 2 3 1
f 493 240 243
f 243 239 493
f 240 239 243
f 236 239 240
f 478 477 236
f 244 240 242
f 244 245 240
f 244 242 251
f 251 245 244
f 251 264 252
f 252 245 251
f 252 265 253
f 252 253 246
f 246 245 252
f 266 265 252
f 252 264 266
f 486 499 487
f 486 492 499
f 487 17 486
f 17 485 486
f 492 486 494
f 485 534 494
f 494 486 485
f 466 479 480
f 479 492 480
f 261 466 480
f 480 515 261
f 492 494 480
f 534 515 480
f 480 494 534
f 474 489 475
f 474 473 489
f 474 475 465
f 465 473 474
f 289 321 322
f 322 321 326
f 325 300 297
f 297 319 325
f 325 319 300
f 340 22 342
f 342 341 340
f 342 22 49
f 49 341 342
f 82 81 80
f 78 113 80
f 80 46 78
f 80 81 46
f 391 398 381
f 381 377 391
f 381 373 372
f 372 377 381
f 388 393 389
f 394 393 388
f 389 376 388
f 388 376 387
f 387 394 388
f 392 612 389
f 389 393 392
f 380 371 627
f 627 622 380
f 371 622 627
f 8 2 350
f 3 2 8
f 8 350 352
f 28 10 8
f 8 10 3
f 8 360 28
f 8 352 360
f 490 239 491
f 239 236 491
f 491 236 477
f 491 477 476
f 476 490 491
f 237 240 238
f 237 236 240
f 238 478 237
f 478 236 237
f 323 319 289
f 289 322 323
f 300 319 323
f 326 300 323
f 323 322 326
f 82 80 114
f 114 80 113
f 115 82 114
f 114 113 115
f 373 381 383
f 383 381 398
f 383 384 373
f 383 398 384
f 612 392 378
f 616 612 378
f 378 615 616
f 378 379 615
f 378 393 379
f 378 392 393
f 174 152 160
f 161 152 174
f 573 572 584
f 584 585 573

