# https://github.com/mikedh/trimesh
v 0.07046252 -0.00694137 -0.10184473
v -0.07344206 -0.00420638 0.10504684
v 0.07385299 0.00855293 0.05564082
v -0.07235773 -0.00939145 -0.05142517
v -0.01565456 -0.00947239 0.02624924
v 0.00954899 -0.00681439 0.10375135
v 0.06415929 -0.00739743 -0.02204947
v -0.01775201 -0.00700098 -0.10546582
v -0.00095464 -0.00938230 -0.03254282
v -0.07349998 -0.00859104 0.04512623
v -0.07038713 -0.00533370 -0.10464427
v 0.07046252 -0.00323255 0.10554254
v -0.06963262 0.00472272 -0.00314947
v 0.02866149 -0.00851498 0.00962398
v 0.01726472 -0.00849080 -0.07389458
v -0.03244603 -0.00851195 0.08696005
v 0.00547990 -0.00851444 0.06206624
v -0.03034560 -0.00942467 -0.06195557
v 0.06205923 -0.00755321 -0.06194856
v 0.04735880 -0.00708531 0.07875720
v 0.05995917 -0.00738749 0.02624545
v 0.03445160 -0.00850282 -0.04094008
v 0.01585161 -0.00533413 -0.10580597
v -0.01775201 -0.00964275 -0.00523695
v -0.02615070 -0.00922487 0.05564527
v -0.05555053 -0.00945544 -0.07876046
v -0.06815886 -0.00907187 0.07453841
v 0.01374528 -0.00871022 0.03464333
v 0.03685850 -0.00646319 0.10312531
v 0.07394863 0.00869357 0.08294437
v 0.07154829 -0.00638701 0.00256091
v -0.07025787 -0.00999542 -0.02414340
v 0.04525875 -0.00533400 -0.10568125
v 0.00324914 -0.00915842 0.00944434
v -0.00514954 -0.00908751 -0.05984869
v 0.03444762 -0.00850227 -0.01573369
v -0.01565514 -0.00650801 0.10511512
v -0.04924930 -0.00963205 0.04514430
v -0.04085062 -0.00878576 -0.09766261
v -0.02404436 -0.00962179 -0.03884675
v -0.07025787 -0.00991626 0.01573472
v -0.00514954 -0.00864332 -0.08524833
v -0.01145078 -0.00849972 0.07823574
v -0.05135357 -0.00799887 0.10186397
v 0.06205923 -0.00697207 0.04725393
v -0.06969304 0.00495874 0.05985301
v -0.00514954 -0.00905897 0.04305413
v -0.07423685 -0.00743440 -0.08503614
v 0.07364859 -0.00640827 -0.03883813
v 0.02215105 -0.00746380 0.08926354
v 0.05995917 -0.00751123 -0.08085808
v 0.07373391 0.00843029 0.03673678
v -0.06983236 0.00489424 0.08715546
v 0.06205923 -0.00666271 0.06614454
v -0.03245194 -0.00963427 0.03464333
v -0.05555053 0.00431719 -0.09929290
v 0.07455997 0.00306656 -0.08715075
v 0.02862961 -0.00850724 -0.05788302
v -0.00095464 -0.00823058 -0.10186511
v -0.05345309 -0.00962848 -0.06195557
v -0.07365105 -0.00870685 -0.06824100
v 0.01794906 -0.00886007 -0.00314679
v -0.01565456 -0.00904247 -0.07245653
v 0.05105284 -0.00640252 0.09511393
v -0.01775201 -0.00962669 -0.02414873
v -0.01985835 -0.00963695 0.01155122
v -0.05974902 0.00476216 0.10145584
v -0.06395563 -0.00851342 0.09115290
v 0.00115169 -0.00909732 0.02624924
v 0.07432181 -0.00533389 -0.07035174
v 0.01486510 -0.00848634 0.05051183
v -0.07025787 -0.01000128 -0.00106042
v 0.07434712 -0.00484985 0.09134387
v -0.06942028 0.00430492 -0.05564464
v -0.07025787 -0.00937972 0.05985301
v 0.07046252 0.00734282 -0.10184473
v 0.02544167 -0.00848846 0.02352248
v 0.07256281 0.00950794 0.09976402
v -0.01775201 -0.00939880 -0.05145460
v -0.05555053 -0.00937516 0.06825311
v 0.06126622 -0.00640197 0.08044014
v 0.06205923 -0.00755432 -0.00733786
v -0.05345309 -0.00855521 -0.10312506
v -0.03454938 -0.00963918 -0.04934772
v 0.01585161 -0.00882662 0.01364138
v -0.01985835 -0.00940371 0.03884037
v -0.07235773 -0.00946914 -0.03673976
v 0.00745293 -0.00883866 -0.06195557
v 0.06205923 -0.00742726 0.01365171
v -0.00305308 -0.00758841 0.10186397
v 0.03608941 -0.00849122 -0.02834634
v -0.06964688 0.00253552 -0.09134467
v -0.07025787 -0.00980191 0.02833108
v 0.05995917 -0.00735213 -0.09345182
v 0.00534659 -0.00860542 -0.07876046
v -0.03034560 -0.00807158 -0.10407103
v -0.01355712 -0.00883152 0.06614623
v -0.00725588 -0.00942913 0.00314041
v -0.01355712 -0.00910223 0.05144822
v -0.00195893 -0.00848545 0.07143016
v -0.04962824 -0.00848703 0.09040034
v -0.04294806 -0.00962357 -0.05775853
v -0.05975432 -0.00962357 0.04934134
v 0.05995917 -0.00533400 -0.10558568
v -0.07441143 -0.00533370 0.09346397
v -0.06185677 -0.00677188 0.10533610
v -0.02194691 -0.00875036 0.07455704
v 0.07474843 0.00516626 0.07246047
v -0.02614945 -0.00785228 0.10186397
v 0.00324914 -0.00875125 0.05144822
v 0.02005219 -0.00497463 0.10544959
v 0.02845826 -0.00860944 -0.00523891
v -0.03034560 -0.00947417 0.04514430
v 0.00745293 -0.00910580 -0.00103991
v 0.01164782 -0.00885917 0.02414235
v -0.06993476 0.00475350 0.09766276
v -0.01775201 -0.00925208 -0.06195557
v -0.06815886 -0.00900737 -0.09345440
v -0.02615070 -0.00963383 0.02624924
v 0.05995917 -0.00725546 0.03674023
v -0.07399095 -0.00713975 0.08295666
v 0.02482799 -0.00785165 -0.10186440
v -0.06394922 -0.00962892 -0.06615262
v 0.07188959 -0.00642462 -0.00734514
v 0.07362702 -0.00639519 -0.08504571
v -0.02274679 -0.00848813 0.08412162
v 0.06205923 -0.00750681 0.00313801
v 0.07468936 -0.00113285 -0.09555025
f 78 67 12
f 74 78 56
f 56 78 76
f 1 76 128
f 12 67 2
f 2 106 12
f 11 76 23
f 56 76 11
f 108 128 57
f 128 76 57
f 76 1 104
f 67 78 116
f 116 2 67
f 105 2 116
f 78 74 13
f 13 46 78
f 105 116 13
f 121 2 105
f 106 2 68
f 2 121 68
f 92 74 56
f 56 11 92
f 52 76 78
f 52 57 76
f 23 76 33
f 76 104 33
f 125 1 128
f 128 70 125
f 78 46 53
f 53 116 78
f 46 13 53
f 53 13 116
f 106 68 44
f 108 57 30
f 119 72 66
f 72 24 66
f 32 24 72
f 12 106 111
f 111 37 12
f 106 37 111
f 41 93 10
f 75 121 10
f 10 93 75
f 101 44 68
f 68 80 101
f 57 52 3
f 3 30 57
f 3 52 78
f 78 30 3
f 9 24 65
f 24 32 65
f 58 22 9
f 91 36 9
f 9 22 91
f 22 19 91
f 118 83 39
f 11 83 118
f 103 38 80
f 103 75 93
f 80 75 103
f 93 41 103
f 41 38 103
f 27 80 68
f 27 75 80
f 27 68 121
f 121 75 27
f 44 101 109
f 90 6 109
f 6 37 109
f 109 37 106
f 106 44 109
f 9 36 114
f 119 66 5
f 80 38 55
f 55 113 80
f 55 38 41
f 55 72 119
f 55 41 72
f 90 109 16
f 16 101 80
f 16 109 101
f 80 113 25
f 25 113 99
f 97 25 99
f 97 107 80
f 80 25 97
f 88 58 9
f 22 58 51
f 51 19 22
f 1 19 51
f 39 83 59
f 94 51 58
f 94 122 1
f 1 51 94
f 96 104 1
f 1 122 96
f 96 59 83
f 122 59 96
f 87 32 72
f 10 61 87
f 72 41 87
f 87 41 10
f 10 121 48
f 48 61 10
f 48 121 105
f 74 92 48
f 48 92 11
f 105 13 48
f 48 13 74
f 11 118 48
f 48 118 61
f 4 118 32
f 61 118 4
f 32 87 4
f 4 87 61
f 1 125 49
f 49 125 70
f 12 64 73
f 73 78 12
f 73 49 70
f 108 30 73
f 73 30 78
f 73 128 108
f 73 70 128
f 54 73 81
f 81 73 64
f 90 50 29
f 50 64 29
f 29 6 90
f 29 64 12
f 12 37 29
f 29 37 6
f 9 114 98
f 98 24 9
f 98 66 24
f 98 5 66
f 5 69 47
f 99 113 86
f 86 47 99
f 5 47 86
f 113 55 86
f 119 5 86
f 86 55 119
f 80 107 126
f 126 16 80
f 90 16 126
f 17 97 99
f 95 117 63
f 63 117 18
f 58 88 15
f 15 94 58
f 95 122 15
f 122 94 15
f 8 33 104
f 104 96 8
f 23 33 8
f 8 11 23
f 8 83 11
f 8 96 83
f 40 65 32
f 9 65 40
f 32 118 123
f 82 19 1
f 82 91 19
f 36 91 82
f 54 81 20
f 20 120 54
f 71 120 20
f 20 17 71
f 20 64 50
f 20 81 64
f 62 112 85
f 62 114 36
f 36 112 62
f 5 98 34
f 34 69 5
f 34 98 114
f 34 62 85
f 114 62 34
f 43 50 90
f 90 126 43
f 107 97 43
f 43 126 107
f 110 47 71
f 71 17 110
f 99 47 110
f 110 17 99
f 9 40 79
f 18 117 79
f 42 122 95
f 95 63 42
f 42 59 122
f 35 15 88
f 35 79 117
f 35 117 95
f 95 15 35
f 35 88 9
f 9 79 35
f 32 102 84
f 84 40 32
f 84 79 40
f 84 102 18
f 18 79 84
f 60 102 32
f 32 123 60
f 127 49 124
f 36 82 127
f 1 49 7
f 7 82 1
f 49 127 7
f 7 127 82
f 28 77 71
f 71 47 28
f 28 47 69
f 85 112 14
f 14 112 36
f 36 127 14
f 97 17 100
f 100 43 97
f 50 43 100
f 100 20 50
f 17 20 100
f 26 60 123
f 26 118 39
f 26 123 118
f 102 60 26
f 18 102 26
f 26 63 18
f 26 42 63
f 39 59 26
f 59 42 26
f 124 49 31
f 49 73 31
f 54 120 45
f 45 73 54
f 21 120 71
f 71 77 21
f 77 14 21
f 115 28 69
f 115 34 85
f 69 34 115
f 77 28 115
f 85 14 115
f 115 14 77
f 89 127 124
f 124 31 89
f 89 31 73
f 73 45 89
f 89 14 127
f 89 21 14
f 89 45 120
f 120 21 89

