# https://github.com/mikedh/trimesh
v -0.00004611 0.02164626 0.05615636
v 0.00286118 -0.02146928 0.04220831
v -0.02064217 -0.00418213 0.05820415
v 0.02093632 -0.00155822 0.05895227
v -0.01693800 0.01304380 0.04164842
v 0.01704440 0.01423999 0.04259510
v -0.00759712 -0.01861049 0.05905990
v -0.01525435 -0.01524867 0.04114573
v 0.01864692 -0.01044658 0.04251451
v 0.01217233 -0.01734935 0.05797503
v -0.01481444 0.01269898 0.05924402
v 0.01473065 0.01478379 0.05933492
v -0.02178740 -0.00129482 0.04179116
v -0.00441560 0.02103641 0.04193955
v 0.02176789 0.00158852 0.04275894
v 0.00729296 0.02110812 0.04253807
v -0.01662812 -0.01343197 0.05325021
v -0.02038808 0.00725657 0.05123784
v 0.02037464 0.00822074 0.05269518
v 0.00100238 -0.02144793 0.05246494
v 0.01226965 -0.01822675 0.04320378
v -0.00660618 -0.02063975 0.04362306
v 0.02025959 -0.00806634 0.05164104
v -0.00828024 0.02037677 0.05173616
v 0.00918657 0.01999030 0.05165951
v 0.01763931 -0.01125526 0.05883474
v 0.00408120 -0.01858974 0.05937684
v -0.01523838 0.01558082 0.05170561
v -0.02039312 0.00386823 0.05879312
v -0.02003972 -0.00816770 0.04828209
v 0.00677977 0.01539185 0.05944288
v 0.00844793 -0.01988703 0.05026415
v 0.01567781 0.01570154 0.05013338
v -0.00761728 -0.02015779 0.05129133
v -0.00862901 0.01848940 0.05916690
v -0.01149579 0.01829328 0.04185028
v 0.02201038 0.00054966 0.05180290
v 0.01358954 -0.00263475 0.05953036
v -0.02082811 0.00674898 0.04246201
v -0.02170108 -0.00005284 0.05129677
v 0.01585568 -0.01482284 0.05241049
v -0.01286224 -0.01387916 0.05929133
v -0.00000136 0.02211300 0.04915602
v 0.02030091 0.00898111 0.04582164
v -0.01942408 -0.00974882 0.04165890
v 0.01888095 0.00816920 0.05931096
v -0.01745030 -0.00946934 0.05916126
v 0.02161079 -0.00523093 0.04308753
v -0.00117552 -0.02103527 0.05797239
v -0.00270281 -0.02134823 0.04806312
v 0.01093007 0.01872669 0.05694394
v 0.01310180 0.01816089 0.04360759
v 0.00543145 0.02058691 0.05820999
v -0.01904480 0.00967348 0.05765900
v -0.01971762 -0.00854585 0.05362715
v 0.00209786 0.02232105 0.04282638
v 0.02022982 -0.00663387 0.05838144
v -0.01052367 -0.01837260 0.04128375
v 0.01594265 -0.01474471 0.04231809
v 0.00770854 -0.02004297 0.04208289
v 0.02124242 0.00468222 0.05615636
v -0.01327304 -0.01684105 0.05288579
v -0.01610458 -0.00312012 0.05931840
v 0.01762847 0.01278924 0.05615636
v -0.00512759 0.02087717 0.05709982
v -0.00219538 -0.02147910 0.04250254
v 0.00072918 0.01850635 0.05939038
v 0.01347179 -0.01268441 0.05945938
v 0.00671097 -0.02015435 0.05615616
v -0.01366836 0.01652748 0.05743356
v 0.02116223 0.00605236 0.04278425
v -0.02001289 -0.00552164 0.04120165
v -0.02129902 0.00000160 0.05720155
v 0.02214339 0.00000160 0.04670610
v -0.01152914 -0.01760449 0.05794135
v -0.00509492 -0.02054160 0.05661878
v -0.02134698 0.00299981 0.04146719
v 0.01858020 -0.01093247 0.05506839
v -0.01496553 0.01607493 0.04304861
v -0.01633587 -0.01332742 0.05792980
v 0.02174192 0.00080247 0.05615636
v -0.00338333 -0.01836780 0.05936396
v 0.00884588 -0.01802970 0.05926327
v 0.01893686 0.01120988 0.04261951
v -0.00860959 0.02023723 0.04205048
v -0.00045363 0.02190308 0.05274089
v 0.02011130 0.00390001 0.05930506
v 0.02143016 -0.00336020 0.05607242
v 0.01499834 -0.01512163 0.05761055
v -0.01513888 0.00930482 0.05926699
v -0.01887826 0.01024588 0.04162924
v 0.02043753 0.00847609 0.04930724
v 0.02198945 -0.00179603 0.04294919
v -0.01823114 -0.01084728 0.05615756
v -0.00112230 0.02170252 0.04208682
v 0.00313499 -0.02100000 0.05726158
v -0.01536918 -0.01522015 0.05084790
v 0.00838009 0.02053514 0.04858959
v -0.01761851 -0.00625636 0.05927549
v -0.01209673 0.01442149 0.05929882
v 0.01749893 0.01106334 0.05926830
v 0.00311019 0.02138782 0.05615636
v 0.00811967 0.01920340 0.05899790
v 0.00066223 -0.01895896 0.05936231
v -0.01703655 -0.01343197 0.04287927
v -0.01028492 0.01884110 0.05660462
v 0.01510987 0.01570966 0.05643858
v 0.00335419 0.01693639 0.05943402
v -0.00470011 -0.01989787 0.04135448
v -0.00145342 0.02057632 0.05903925
v -0.01754479 0.01223711 0.05720680
v -0.00854753 -0.01583102 0.05932699
v 0.01051495 0.01861035 0.04227443
v 0.01248064 0.01726479 0.05879903
v 0.01991621 -0.00832855 0.05615756
v -0.01964130 -0.00809205 0.05639758
v 0.02044838 0.00736621 0.05615636
v 0.00111323 -0.02171732 0.04434090
v -0.00588181 0.01830295 0.05935526
v 0.00432839 0.02086957 0.04213365
v -0.00023705 -0.02157661 0.04921987
v 0.01694543 -0.01300176 0.05686705
v 0.00771714 -0.01997875 0.05367289
v -0.00998445 -0.01904618 0.05189994
v 0.01407756 0.00000160 0.05950884
v -0.01973802 -0.00087995 0.05918040
v 0.00197216 0.02078395 0.05880428
v 0.00606370 0.02080297 0.05563853
f 120 8 14
f 108 63 38
f 11 54 29
f 79 5 91
f 91 39 54
f 14 8 72
f 72 5 14
f 59 84 15
f 74 93 15
f 48 93 74
f 95 120 14
f 95 43 56
f 8 120 109
f 111 54 11
f 79 91 111
f 111 91 54
f 79 24 85
f 85 24 43
f 85 95 14
f 43 95 85
f 31 108 38
f 12 108 31
f 67 108 12
f 63 108 119
f 108 67 119
f 101 46 117
f 12 46 101
f 117 46 61
f 13 72 45
f 45 8 105
f 45 72 8
f 63 90 126
f 126 90 11
f 11 29 126
f 41 21 59
f 26 4 68
f 26 68 83
f 18 29 54
f 54 39 18
f 18 39 40
f 77 91 5
f 5 72 77
f 77 72 13
f 39 91 77
f 13 40 77
f 40 39 77
f 59 15 9
f 9 15 93
f 93 48 9
f 84 44 71
f 71 15 84
f 74 15 71
f 44 92 71
f 92 61 71
f 117 61 19
f 19 61 92
f 64 92 44
f 64 19 92
f 12 101 64
f 64 101 117
f 117 19 64
f 79 111 28
f 36 5 79
f 79 85 36
f 14 5 36
f 36 85 14
f 125 31 38
f 12 31 125
f 125 46 12
f 100 90 63
f 63 119 100
f 11 90 100
f 81 4 88
f 88 48 74
f 87 61 46
f 87 68 4
f 87 4 81
f 81 61 87
f 38 68 87
f 87 125 38
f 46 125 87
f 37 61 81
f 37 88 74
f 81 88 37
f 74 71 37
f 37 71 61
f 16 95 56
f 120 95 16
f 52 98 25
f 52 16 98
f 73 18 40
f 29 18 73
f 78 41 59
f 59 9 78
f 105 8 97
f 21 41 10
f 10 41 89
f 10 89 26
f 26 83 10
f 38 63 82
f 82 68 38
f 6 44 84
f 6 64 44
f 51 52 25
f 103 67 12
f 103 51 53
f 25 98 128
f 128 51 25
f 53 51 128
f 128 16 56
f 98 16 128
f 86 43 65
f 43 24 65
f 57 4 26
f 57 88 4
f 26 89 122
f 122 78 26
f 89 41 122
f 41 78 122
f 94 45 105
f 42 75 7
f 7 82 42
f 3 47 126
f 3 126 29
f 29 73 3
f 3 73 40
f 3 40 13
f 124 34 75
f 64 6 33
f 33 6 52
f 16 52 113
f 52 6 113
f 120 16 113
f 113 6 84
f 113 109 120
f 113 84 59
f 59 109 113
f 67 103 110
f 110 119 67
f 114 103 12
f 51 103 114
f 102 128 56
f 56 43 102
f 53 128 102
f 35 100 119
f 119 110 35
f 35 110 65
f 11 100 35
f 26 78 115
f 115 57 26
f 88 57 115
f 105 97 17
f 17 94 105
f 99 42 63
f 47 42 99
f 63 126 99
f 126 47 99
f 112 82 63
f 63 42 112
f 112 42 82
f 58 124 8
f 8 109 58
f 62 124 75
f 62 97 8
f 8 124 62
f 104 82 7
f 7 49 104
f 7 75 76
f 76 49 7
f 75 34 76
f 83 49 96
f 66 58 109
f 52 51 107
f 107 33 52
f 51 114 107
f 64 33 107
f 12 64 107
f 107 114 12
f 127 103 53
f 127 110 103
f 53 102 127
f 70 111 11
f 11 35 70
f 70 28 111
f 70 24 79
f 79 28 70
f 23 115 78
f 23 9 48
f 23 78 9
f 48 88 23
f 88 115 23
f 94 17 80
f 80 17 97
f 75 42 80
f 80 42 47
f 80 116 94
f 80 62 75
f 97 62 80
f 47 3 80
f 3 116 80
f 13 45 30
f 30 3 13
f 27 49 83
f 27 104 49
f 27 83 68
f 68 82 27
f 82 104 27
f 58 66 22
f 34 124 22
f 124 58 22
f 22 76 34
f 20 96 49
f 121 20 49
f 2 66 109
f 2 123 96
f 1 127 102
f 86 65 1
f 65 110 1
f 110 127 1
f 1 43 86
f 1 102 43
f 106 35 65
f 106 70 35
f 106 65 24
f 24 70 106
f 55 116 3
f 3 30 55
f 94 116 55
f 45 94 55
f 55 30 45
f 69 123 10
f 96 123 69
f 69 10 83
f 83 96 69
f 76 22 50
f 50 22 66
f 66 121 50
f 49 76 50
f 50 121 49
f 59 21 60
f 60 109 59
f 60 2 109
f 96 20 118
f 118 2 96
f 20 121 118
f 118 121 66
f 66 2 118
f 123 2 32
f 2 60 32
f 32 60 21
f 21 10 32
f 10 123 32

