# https://github.com/mikedh/trimesh
v -0.00153153 -0.05582834 0.05201400
v -0.02223027 0.00917604 -0.05236729
v 0.04114715 -0.02026622 -0.04528988
v 0.01150292 -0.05837909 -0.04442067
v 0.03703771 -0.01120473 -0.04788161
v 0.03961785 -0.02908353 -0.04520357
v 0.03899325 -0.01364525 -0.04671426
v 0.01662841 -0.05567647 -0.04512078
v -0.03590571 -0.04022545 -0.04677753
v -0.04227236 -0.03834672 -0.03848626
v -0.04080169 -0.01741759 -0.04812639
v 0.03544733 -0.01937849 0.05229455
v -0.03534419 0.00299846 -0.04768788
v 0.03342939 -0.01679775 -0.05107801
v 0.02666516 -0.04935940 -0.04486565
v -0.03819900 -0.00951548 -0.04933154
v -0.03479023 -0.02044294 -0.05204308
v -0.04095362 -0.00546673 -0.04643913
v 0.00230939 0.02210241 -0.04709946
v 0.03238882 -0.04224796 -0.04545783
v 0.02235411 -0.05413987 -0.04306199
v -0.02181724 -0.04459451 -0.05174797
v -0.00272947 0.02026879 0.05208896
v 0.04036521 -0.01074556 -0.04495781
v 0.03165087 0.00643181 -0.04634824
v 0.03896360 -0.02510209 -0.04626520
v -0.03201167 -0.04302489 -0.04778328
v -0.00100778 -0.05545614 -0.04866808
v 0.03187875 -0.01464466 -0.05193092
v 0.02956585 -0.00837834 -0.05214368
v 0.01025243 0.01346256 -0.05228015
v 0.03488308 -0.03146951 -0.04787024
v 0.03298556 0.00052632 -0.04791675
v 0.01687087 0.01256786 -0.05199559
v 0.02928844 0.00167106 -0.04988286
v 0.01748854 -0.04415835 -0.05182055
v 0.02041874 0.00801738 -0.05217117
v -0.01933533 -0.05382254 -0.04713890
v -0.03687780 -0.00406872 -0.04906104
v -0.04344944 -0.01756052 -0.04609694
v 0.02196459 0.01152774 0.05236057
v 0.03664418 -0.00441856 -0.04693888
v 0.03573707 -0.03662429 -0.04565799
v 0.02789941 0.01340022 -0.04435370
v 0.00244413 -0.05181153 -0.05130504
v -0.00306644 -0.05653919 0.05104586
v -0.03325815 0.00840625 -0.04646024
v 0.01301599 -0.05534395 -0.04682986
v -0.04127126 -0.02802620 -0.04687688
v -0.01253906 0.01447059 -0.05224743
v -0.04302695 -0.02413366 -0.04602801
v 0.02614951 0.00042362 -0.05210340
v 0.02904015 -0.04581459 -0.04580772
v 0.01904088 0.01432600 -0.05108233
v -0.04339729 -0.01133912 -0.04548409
v -0.03837411 -0.03649564 -0.04655400
v 0.01978194 -0.04660603 -0.05015711
v 0.00304681 -0.05454438 -0.04910638
v 0.02301375 -0.04141881 -0.05156041
v -0.02021315 0.01369088 -0.05207529
v -0.02250230 0.01274622 -0.05161047
v -0.01766892 -0.04805456 -0.05145630
v -0.00654390 -0.06311311 -0.03366369
v -0.03699307 -0.01624768 -0.05095356
v 0.02139238 0.01110920 -0.05138177
v -0.01488988 -0.05481775 -0.04763280
v -0.03234404 -0.03529712 -0.05098229
v -0.00560385 0.01446928 -0.05229185
v -0.00462893 0.02230954 -0.04709974
v -0.03139984 -0.03250086 -0.05194763
v -0.03520755 0.00004023 0.05217712
v -0.02611497 0.01170260 0.05209480
v 0.00847697 -0.05721234 -0.04648473
v -0.03828935 0.00207765 -0.04588956
v 0.03277026 -0.03668481 -0.04763969
v 0.00374089 0.01688741 -0.05108034
v -0.03692335 -0.02172333 -0.05091497
v 0.02954614 -0.03406906 -0.05081027
v -0.02868068 0.01315907 -0.04648521
v 0.02647419 -0.03750581 -0.05149371
v 0.04207915 -0.02522471 -0.04356196
v 0.01839991 -0.05212462 -0.04729320
v 0.01111776 -0.05090035 -0.05051664
v -0.03171205 -0.04085376 0.05217976
v -0.02742595 -0.05094020 -0.04551926
v -0.02838686 -0.04799719 -0.04708554
v 0.01243882 -0.06018290 -0.04028333
v -0.04100207 -0.02243615 -0.04783123
v 0.02183707 -0.05249128 -0.04538490
v -0.04169885 -0.01371692 -0.04731463
v 0.02279886 -0.04847580 -0.04760039
v 0.02891551 -0.03172353 -0.05188596
v 0.00835958 -0.06051976 -0.04220967
v 0.03021758 -0.02306093 -0.05208232
v -0.01070725 -0.05750919 -0.04651757
v -0.02339056 -0.05082968 -0.04756109
v -0.02385504 -0.05620277 -0.00757789
v 0.03884296 -0.03779266 -0.01734554
v 0.02865119 -0.03958659 0.05229112
v -0.04302699 -0.01757672 0.02667776
v 0.03914916 0.00101808 -0.04135248
v 0.04440531 -0.02076050 -0.03639689
v -0.03861296 -0.00500736 0.04926453
v 0.04272371 -0.00677039 -0.03625002
v 0.03788141 0.00431230 -0.03998327
v 0.04089973 -0.03321687 -0.01642985
v -0.03625528 -0.03610843 0.04848152
v 0.01132893 -0.05724806 0.02293777
v 0.03787855 -0.04074057 -0.02509464
v 0.04006180 -0.03726496 -0.03533845
v -0.02438530 -0.05754307 -0.03273592
v 0.00218188 0.06030905 0.00956057
v -0.02535740 -0.04790535 0.05198328
v -0.04456967 -0.00110924 -0.03524328
v -0.04534434 -0.02602548 -0.00681029
v -0.02944562 -0.05179266 -0.04282410
v 0.01833114 0.01569482 0.05165487
v -0.04181484 -0.02134705 0.03736836
v 0.01318719 0.01800173 0.05195577
v -0.03939557 0.00770027 -0.03815297
v 0.03943939 -0.03852533 -0.03143262
v 0.03169744 -0.04805524 -0.03977519
v 0.03553376 -0.04035588 -0.04363523
v 0.04081099 -0.00417321 -0.04237637
v -0.03375902 0.01018301 -0.04469334
v -0.02444464 0.01814396 -0.04463502
v 0.01298669 -0.05443104 0.04519142
v -0.03459590 0.00249545 0.05160716
v 0.04449242 -0.01558622 -0.03367860
v 0.00569808 0.02025569 0.05188130
v -0.03756803 -0.03915784 0.02274861
v 0.03269365 -0.00067393 0.05210304
v 0.03284480 -0.04524146 -0.04247318
v 0.01117440 -0.06173837 -0.02972249
v 0.03644088 -0.02814766 0.04524550
v 0.01363117 -0.06072879 -0.02413610
v -0.04780403 -0.01631219 -0.03293648
v -0.04365451 -0.00246985 -0.00950994
v -0.01397261 -0.06083727 -0.01196398
v -0.03793470 -0.04122408 -0.04427444
v 0.00703400 -0.06103872 -0.00748691
v 0.01329825 0.01678195 0.05220321
v -0.00513237 0.05999551 0.00901730
v -0.02408514 -0.05224252 0.03094199
v -0.03823905 -0.04550534 -0.02744255
v -0.04275115 -0.02013798 0.02852874
v 0.03520798 -0.04392554 -0.03951050
v -0.02735682 -0.05248817 0.00694970
v 0.00489459 0.01917225 0.05216946
v 0.03607328 -0.00890779 0.05133462
v -0.01734461 -0.05992391 -0.01157353
v 0.01669631 -0.05850644 -0.01274116
v 0.03444803 -0.00597201 0.05236729
v 0.03906444 -0.00147004 -0.04364126
v -0.04489826 -0.01515690 0.00519536
v -0.00605229 0.05826409 0.01596421
v 0.00246533 0.05802045 0.01940404
v 0.03888871 -0.03668553 -0.04142033
v 0.00066786 0.06143851 0.00115402
v -0.02996911 0.00797652 0.05212262
v -0.00694531 0.05188861 0.02743753
v -0.00515529 0.06109786 -0.00054675
v -0.04044393 -0.04186176 -0.02298137
v -0.00531413 0.05706121 -0.01816777
v -0.04709426 -0.01664194 -0.01942607
v -0.04107981 -0.03434667 -0.04497330
v -0.03788458 -0.03109481 0.05100706
v -0.03014764 -0.05378821 -0.03273074
v -0.00736855 -0.05557476 0.05204227
v -0.02015668 -0.05122709 0.05217335
v -0.00436285 0.05412917 0.02693883
v 0.03631335 0.00232996 -0.04465288
v 0.02902607 -0.04073190 0.05182396
v -0.00742557 0.05543965 -0.01805526
v -0.02292664 -0.05147298 0.04409609
v 0.00645259 -0.06251803 -0.02528855
v 0.03784876 -0.02580984 0.03728110
v 0.03065609 -0.04709407 0.00161793
v 0.03664310 -0.01341498 0.05164789
v 0.00343445 -0.05912349 -0.04547690
v -0.02589679 -0.05460866 -0.00359298
v 0.00098043 -0.06139255 -0.04260250
v -0.04300747 -0.01441009 0.02644689
v 0.00706754 0.05642733 0.01672096
v -0.01375620 -0.05533149 0.04738678
v -0.03168734 -0.05242557 -0.02784808
v -0.03925999 -0.00103279 0.02929991
v 0.00523983 -0.06262381 -0.03712452
v 0.00538786 -0.06207776 -0.01655354
v -0.00334406 -0.06305161 -0.02558507
v 0.00703854 0.05910823 0.00075541
v 0.03254807 -0.03507408 0.05176126
v -0.01724259 -0.05837860 -0.04324208
v 0.00721143 0.05781241 0.00815218
v -0.03695887 -0.03017320 0.05231189
v -0.04742075 -0.01850252 -0.03765329
v -0.04545277 -0.02366844 -0.04276642
v 0.03915557 -0.00584801 -0.04518109
v 0.03718478 -0.02393638 0.04684339
v 0.03552846 -0.01411317 0.05229926
v 0.03767602 -0.04143918 -0.03674682
v 0.02864118 -0.05202396 -0.03545384
v -0.03766281 0.00176614 0.03179799
v 0.00704850 0.05914453 -0.00503845
v -0.03422906 -0.04921230 -0.01837835
v -0.01301315 -0.05445774 0.05197277
v 0.00683199 -0.05378368 0.05206027
v 0.03679287 -0.00263121 0.02637962
v 0.03857142 -0.02202915 0.03577866
v 0.01369987 -0.05587943 0.02872696
v -0.03634124 0.00227687 0.04162694
v -0.03770190 -0.03415208 0.04468942
v 0.01898349 -0.05008141 0.05175114
v 0.02163778 -0.04899685 0.04874539
v -0.01688081 -0.06082013 -0.02746536
v -0.00375686 0.06071544 -0.01142954
v -0.00634703 0.05870248 -0.01436434
v -0.04451621 -0.02177694 0.00817840
v -0.04640279 -0.02866457 -0.03628729
v -0.03611783 -0.03901328 0.03666673
v 0.00442583 0.05950431 -0.01356575
v 0.00413084 -0.05570851 0.05172198
v -0.00890991 -0.06275199 -0.02705746
v 0.04262149 -0.02991893 -0.01980407
v 0.00208655 0.05916954 0.01559788
v 0.04436483 -0.01565335 -0.03754302
v -0.02926110 -0.05414121 -0.03658635
v 0.04303452 -0.02743348 -0.01741707
v 0.04405659 -0.01422999 -0.02659853
v -0.03724082 -0.04534858 -0.01430949
v 0.00406561 0.06068503 0.00501782
v -0.02376048 -0.05393275 0.01641571
v -0.01810505 -0.06035401 -0.03449093
v -0.01155091 0.01841889 0.05217359
v 0.00122942 0.05663102 0.02311602
v 0.03832094 -0.03715538 -0.00715035
v 0.01707962 -0.05160810 0.05074227
v 0.00346668 0.06139117 -0.00203606
v 0.02735426 0.00673249 0.05234625
v 0.03475191 -0.03078853 0.05110828
v -0.04080924 -0.02171274 0.04664545
v -0.02561258 -0.05632005 -0.03766172
v -0.04303415 -0.03609094 -0.01686313
v 0.03746984 0.00589782 -0.03690479
v 0.03962563 0.00201729 -0.03668186
v 0.01086254 -0.06064162 -0.01287388
v 0.03748806 -0.02050094 0.04758871
v -0.01904529 -0.05259478 0.05104011
v 0.00349928 0.05052398 0.03032993
v -0.00087631 0.06087985 -0.01187040
v -0.02135842 -0.05827349 -0.03912899
v -0.03049222 -0.05259572 -0.01850780
v -0.04033630 -0.00993701 0.04613487
v -0.03502768 -0.04236559 0.02680523
v -0.03960657 -0.02395553 0.05149276
v -0.02369824 -0.05591132 -0.04231073
v -0.04284821 -0.03355315 -0.04299076
v 0.03359642 -0.02969771 0.05236729
v 0.01593677 -0.05367526 0.04071821
v 0.03602243 -0.03408090 0.02954168
v -0.00678030 0.05960867 -0.01083106
v 0.00711611 0.05830529 -0.00952637
v -0.04633238 -0.02898950 -0.02821557
v -0.02066171 -0.05346227 0.03859472
v 0.03758087 -0.03559180 0.00740802
v -0.01664787 -0.06006052 -0.03954738
v -0.00060267 0.05726556 -0.01910122
v -0.04451731 -0.01863198 0.00997443
v -0.04186237 -0.03995931 -0.03522458
v -0.00953995 -0.06210099 -0.03837411
v -0.03659756 -0.04196816 0.01500998
v -0.00350020 -0.06297946 -0.03731789
v 0.00257894 0.06146231 -0.00663464
v 0.01283002 -0.05308241 0.05188176
v 0.03222442 -0.03946704 0.03814222
v 0.00203398 -0.06271783 -0.02083121
v -0.01056315 -0.06036183 -0.04285732
v -0.04522179 -0.00871919 -0.04182133
v 0.00566454 0.06011279 -0.00926193
v 0.00624149 0.05782693 -0.01472144
v -0.02143538 -0.05580924 0.01023271
v 0.00601075 0.06036166 -0.00060205
v -0.03366336 -0.03975478 0.05067164
v 0.00611263 0.05976104 0.00516887
v 0.00593417 0.05891747 0.01115668
v -0.03847247 -0.04286142 -0.00786183
v -0.00579522 -0.06133746 -0.04218300
v -0.04024876 -0.02354230 0.04915370
v 0.00573170 0.06055760 -0.00488822
v 0.03311603 0.01041103 -0.04137886
v 0.00524319 0.05754385 0.01821570
v -0.00721946 0.05993836 -0.00261058
v 0.03942211 -0.03176857 -0.04452848
v 0.00473322 0.05565459 0.02346517
v -0.03843036 -0.04067769 0.00584333
v -0.04246830 -0.02488056 0.02576914
v -0.00146551 0.05544701 0.02543533
v -0.04649432 -0.01780520 -0.04126382
v -0.00328375 -0.06008824 -0.04456705
v -0.03361641 -0.04278210 0.03609708
v 0.03689706 -0.01929965 0.05153930
v -0.04458201 -0.00323569 -0.03947785
v 0.03527137 0.00639835 -0.04314898
v 0.01882527 -0.05303636 0.03257339
v -0.00455579 -0.05783224 -0.04683414
v -0.04674654 -0.02779806 -0.03346755
v 0.00627651 0.05493317 0.02275732
v 0.03599610 -0.02574246 0.05164991
v -0.02632619 -0.05551214 -0.01676146
v 0.03328286 0.00264647 0.04145059
v -0.00220489 0.05801079 0.01946040
v -0.00535631 0.05746637 0.01950201
v -0.04684682 -0.01162879 -0.03826556
v -0.02791436 -0.05530744 -0.02819200
v -0.02210528 0.01496763 0.05181261
v 0.02953534 -0.04915739 -0.00562128
v 0.00579040 0.05126681 0.02836976
v -0.03916607 -0.01953539 0.05235762
v 0.03779554 -0.04005472 -0.03977783
v -0.01254985 -0.06192819 -0.03611825
v -0.04674081 -0.00793862 -0.03072823
v 0.00047991 -0.05858823 0.03102008
v -0.04524323 -0.00345525 -0.02480460
v 0.04310561 -0.02887869 -0.03400453
v -0.03871402 -0.01036397 0.05218747
v -0.02544011 -0.05675340 -0.02576073
v -0.04063169 -0.03980501 -0.04110630
v 0.02728490 -0.05239855 -0.01754304
v -0.03422357 0.00395229 0.05014477
v -0.03419066 -0.03813854 0.05178215
v -0.04158945 -0.03705553 -0.00530824
v 0.01851732 -0.05181542 0.04408222
v -0.00727092 0.05640574 0.01970804
v 0.02453988 -0.04711088 0.04585802
v -0.00769379 0.05763407 0.01233585
v -0.01802255 -0.05378929 0.04668156
v 0.01647770 -0.05463222 0.02902494
v -0.04359627 -0.02691490 0.00968875
v -0.04075363 -0.02599082 0.04117864
v -0.01907542 -0.05539102 0.02658993
v -0.00785223 0.05865544 0.00305148
v -0.04034379 -0.01867434 0.05111887
v -0.04078447 -0.01803080 0.04860046
v -0.04281207 -0.03003273 0.00967667
v -0.04144845 -0.04096160 -0.03104655
v -0.00690662 0.05914528 0.00891133
v -0.00183154 0.05970622 -0.01528244
v -0.00799610 0.05533756 0.01962963
v 0.01956737 -0.05452934 0.01357849
v 0.04148234 -0.00701492 -0.04276036
v 0.04273632 -0.01178615 -0.04194820
v 0.04353292 -0.01579141 -0.04082284
v 0.04287517 -0.01995677 -0.04353238
v 0.03907370 -0.01906082 0.03254261
v 0.03185099 -0.03786656 0.04827871
v -0.04233452 0.00304911 -0.03752899
v 0.03823794 -0.01781527 0.04142676
v 0.02463088 -0.04563849 0.05182052
v 0.03761330 -0.01491955 0.04643572
v -0.04518570 -0.01416066 -0.04351791
v 0.04296426 -0.00961830 -0.03989416
v -0.00313071 0.05915556 0.01525914
v 0.04013309 -0.01570152 0.02050676
v 0.04098499 -0.00234080 -0.03802566
v -0.04034293 -0.03988446 -0.00785905
v 0.03542033 0.00848352 -0.03898648
v 0.03850300 0.00372357 -0.02148455
v 0.04239826 -0.03038248 -0.03795076
v 0.04119737 -0.03428885 -0.02879666
v -0.03893451 -0.03069017 0.04570485
v -0.00650156 0.05499858 0.02387956
v -0.04326154 -0.02863637 -0.04477157
v 0.02831882 0.01484581 -0.04240026
v 0.02462202 -0.05513254 -0.02556619
v -0.00155422 0.06031900 0.01007001
v 0.00195010 0.06063274 -0.01195487
v 0.03104035 -0.04470276 0.01538204
v 0.03573619 -0.03768786 0.01507409
v -0.00297214 0.06136473 0.00194085
v 0.04155894 -0.02982542 -0.04180074
v -0.00484215 0.06117742 -0.00687730
v -0.03191840 -0.04393859 0.04181996
v -0.02708060 -0.03980914 -0.05180004
v 0.03929634 0.00289967 -0.02675996
v -0.04476723 -0.02927420 -0.00852751
v -0.00298222 0.05710519 -0.01907178
v -0.01575422 -0.05551460 0.04038997
v -0.04550971 -0.01156422 -0.00481121
v 0.03284412 -0.02134434 -0.05133807
v 0.00051718 0.04931390 0.03158061
v 0.02880629 -0.04746938 0.01318396
v -0.04161125 -0.00229214 0.01042599
v -0.03971071 -0.02753871 0.04706454
v -0.04458324 -0.01002157 0.00231312
v -0.04149603 -0.03427818 0.00771233
v -0.04671096 -0.01036879 -0.02178761
v 0.03320729 -0.04432865 -0.00051100
v -0.03241035 -0.00168169 -0.05151665
v -0.03071992 -0.00093308 -0.05197917
v -0.03457143 -0.02712587 -0.05179155
v 0.04113976 -0.00118609 -0.03374797
v -0.03747116 -0.00066111 0.04485027
v 0.02175483 -0.05143405 0.03017422
v -0.02215521 -0.05492021 -0.04494192
v 0.02980894 -0.00490969 -0.05189167
v 0.00308311 0.05710916 -0.01880599
v 0.03171766 -0.02819383 -0.05100515
v -0.04718588 -0.02280483 -0.03791047
v 0.03569717 -0.04122431 -0.00350713
v -0.03960712 -0.03580620 0.02000441
v 0.03232377 -0.04863087 -0.03015620
v -0.03512854 -0.04877285 -0.03779138
v 0.02195452 -0.05036668 0.03806745
v -0.04596437 -0.01801657 -0.00554803
v 0.02325358 0.01229691 0.05149944
v -0.00716855 0.02074273 0.05129056
v 0.03288182 -0.01131188 -0.05105175
v 0.03781154 -0.03655537 -0.04360153
v -0.00451889 -0.05130682 -0.05155976
v 0.04156483 -0.01576063 -0.04451098
v 0.02740612 -0.04458192 0.04418056
v 0.03472058 -0.04595821 -0.03278680
v -0.04486647 -0.01928014 -0.04426076
v -0.03738620 -0.04469894 -0.04126159
v 0.03403335 -0.04613492 -0.02311528
v -0.03351979 -0.04618897 -0.04479551
v 0.01546825 0.01504559 -0.05161161
v 0.03508363 -0.04527650 -0.02874875
v -0.00144705 -0.04941522 -0.05166575
v 0.04083739 -0.02058971 0.01267791
v 0.02959355 -0.04841017 -0.04295625
v 0.04031094 0.00091508 -0.02823832
v 0.03114402 -0.02338425 -0.05206581
v 0.02479058 -0.03823274 -0.05186243
v -0.03376938 -0.04901608 -0.04096884
v 0.00149103 0.01559303 -0.05216502
v -0.04439989 -0.03305180 -0.01853525
v -0.02858370 -0.04241244 -0.04988547
v -0.03132419 -0.04346889 0.04830099
v -0.02901876 -0.04905356 0.02595196
v 0.03956309 0.00078112 -0.01678295
v 0.03717702 -0.03042073 0.03169425
v 0.01615792 -0.04709330 -0.05139799
v 0.03105794 0.00385394 0.04948080
v 0.04182478 -0.00302154 -0.02850982
v -0.04160843 -0.01691850 0.04118917
v -0.00101183 0.06175913 -0.00575739
v -0.02384247 -0.04602901 -0.05022209
v -0.01102461 -0.05047360 -0.05155027
v 0.03869227 -0.01487271 0.03578991
v 0.03788891 0.00232856 -0.00665768
v -0.04364423 -0.03251471 -0.00715970
v -0.00095734 0.05267794 0.02915123
v -0.00358244 0.01617839 -0.05193786
v 0.02985674 -0.05035193 -0.02018033
v 0.00174917 0.05465732 -0.02134144
v -0.04178268 0.00396562 -0.02151684
v -0.03333569 0.00137696 0.05235214
v -0.04047930 -0.00467583 0.03088261
v -0.02490929 0.00840832 -0.05219253
v -0.04730136 -0.02309458 -0.02600880
v -0.04558102 -0.00586063 -0.01952331
v 0.03891780 -0.00087975 -0.00206601
v 0.04271544 -0.00997785 -0.01498618
v 0.00084132 -0.06263117 -0.03895423
v -0.03474518 -0.00922868 -0.05181774
v 0.00910164 -0.05009664 -0.05154481
v 0.00526375 0.05575214 -0.01928845
v -0.03984362 0.00516526 -0.00785465
v -0.03931581 0.00856683 -0.03452958
v -0.03969262 -0.00602140 0.04315367
v 0.02155132 -0.05371007 0.01003765
v -0.04025950 0.00327441 -0.00150306
v 0.02464020 -0.04872383 0.03429331
v 0.04052717 -0.03516658 -0.03878147
v -0.04577956 -0.02204568 -0.00554758
v -0.04500354 -0.03365828 -0.03501012
v 0.04050859 -0.00126567 -0.01788534
v 0.01666461 -0.05889810 -0.03949162
v -0.04577379 -0.00420831 -0.03260340
v -0.01126559 -0.05619686 0.04624239
v -0.03362571 0.01289607 -0.04156560
v 0.01310269 -0.05925431 -0.00555258
v -0.04725144 -0.02509902 -0.02985484
v 0.03693823 -0.04290844 -0.03240058
v 0.03417854 -0.03785858 0.02918067
v 0.00938554 -0.05486831 0.05076735
v -0.04234668 0.00129476 -0.01227597
v -0.03064495 -0.04661154 0.03319625
v 0.02303885 -0.05640501 -0.03378423
v -0.03642243 0.01125596 -0.03869581
v 0.02173518 -0.05596846 -0.04034761
v -0.03960949 -0.03287458 0.03211012
v -0.01483454 -0.05281839 0.05236729
v 0.03239538 -0.04137286 0.02551472
v 0.03389912 -0.04674588 -0.03588004
v 0.02428115 -0.05019983 0.02443292
v 0.04139458 -0.00629937 -0.00887948
v -0.02980320 0.01508599 -0.04357008
v 0.00095033 -0.06333061 -0.03122573
v -0.04274208 0.00311759 -0.02920858
v 0.03881012 0.00413180 -0.03301924
v 0.02333728 -0.05221255 0.01272661
v 0.02813625 -0.05250458 -0.02924209
v 0.01962766 -0.04831919 0.05220744
v 0.00387563 -0.05749533 0.03964539
v -0.00020261 -0.06234548 -0.01531000
v -0.01226971 -0.05692760 0.03718759
v 0.02977784 -0.04132712 0.04649853
v -0.03970744 -0.03831427 0.00673243
v 0.03155888 -0.04833164 -0.01665706
v -0.04622373 -0.01303866 -0.01107686
v 0.01608875 -0.05726763 0.00309758
v -0.01265764 -0.06214419 -0.03130357
v -0.04082615 -0.01325415 0.04625747
v 0.03078244 -0.04202537 0.03532530
v 0.04108141 -0.01800036 0.01098740
v -0.04776975 -0.02104766 -0.03214158
v 0.01290228 -0.06099528 -0.03601451
v -0.00920901 -0.06190389 -0.01552145
v 0.00727505 -0.06269565 -0.03187666
v 0.02344830 -0.05572296 -0.03751051
v 0.00992105 -0.05611306 0.04025514
v 0.00977665 -0.06153463 -0.02004328
v 0.04275427 -0.01927290 -0.00751456
v -0.04001969 -0.01325769 0.05127599
v 0.03253367 -0.04689224 -0.01364639
v 0.03809159 -0.01211924 0.03885458
v 0.02751730 0.00807556 0.05139412
v -0.00909706 -0.05751413 0.03826015
v -0.04605671 -0.02797225 -0.02046842
v -0.00899033 -0.05695941 0.04387991
v -0.03321397 -0.05107560 -0.03507387
v -0.02889977 -0.05305790 -0.00960631
v -0.02631610 -0.05067006 0.03101001
v -0.00262470 -0.05731466 0.04504475
v 0.03756912 -0.00645949 0.03192415
v -0.04749112 -0.01236128 -0.03386498
v -0.01513683 0.01832612 0.05179450
v 0.04201716 -0.00517115 -0.02048674
v -0.04264287 -0.03809999 -0.02417622
v -0.03222774 -0.04985744 -0.00582369
v 0.04221765 -0.01463459 -0.00260762
v 0.04406200 -0.01163070 -0.03443839
v -0.04418414 -0.00602779 -0.00306675
v -0.00948756 -0.06056827 0.00034605
v 0.03015278 0.00421563 0.05184137
v 0.00851473 -0.05589016 0.04565047
v -0.03685972 -0.04425892 -0.00195106
v -0.04612396 -0.02759058 -0.03928483
v 0.04349616 -0.02646781 -0.02761098
v -0.04477835 -0.03423759 -0.03145466
v -0.03425000 -0.04033289 0.04490574
v 0.03455087 -0.04443047 -0.01429940
v -0.03816811 -0.04560943 -0.03467508
v 0.03670392 -0.04109232 -0.01330808
v 0.04360204 -0.02491542 -0.03826312
v -0.03760254 0.00684797 -0.04323141
v -0.03977322 0.00503664 -0.04167858
v -0.03528219 -0.04429433 0.01146278
v 0.02258736 -0.05493766 -0.00840707
v -0.03174995 -0.04828483 0.01110738
v 0.02512631 -0.05322663 -0.00865948
v -0.04611880 -0.02549430 -0.01490318
v -0.03321713 -0.04519285 0.02297457
v -0.03822360 -0.03588031 0.03283658
v 0.00303018 -0.05865614 0.02762182
v 0.03394282 -0.03648119 0.03811872
v -0.04476405 -0.03303322 -0.03839204
v 0.02669657 -0.05259536 -0.04009340
v -0.03700811 0.00919346 -0.04135316
v -0.04138334 0.00379675 -0.03951165
v -0.01328248 -0.06146738 -0.02065194
v -0.00412030 0.05160586 0.02965150
v -0.02531827 -0.04929601 0.04750269
v -0.04231681 0.00062521 -0.04126046
v -0.02815144 -0.04609891 0.05120872
v 0.00246867 0.05361397 0.02779850
v 0.03427267 -0.03289726 0.04917981
v -0.01637215 -0.05724253 -0.04514315
v 0.03909726 -0.00939603 0.02312351
v 0.04418640 -0.02320339 -0.03203832
v 0.03500120 -0.03311480 0.04255909
v 0.02184428 -0.05705974 -0.02744897
v -0.04020191 0.00231611 -0.04354335
v 0.03380441 -0.00193085 0.05121559
v 0.01919259 -0.05849077 -0.03467521
v 0.01952033 -0.05679367 -0.00914124
v -0.04191188 -0.00143724 -0.04361945
v -0.04264665 -0.00513046 -0.04446082
v 0.04333402 -0.00849557 -0.02870514
v -0.04455620 -0.02442291 0.00439649
v -0.04437760 -0.00040445 -0.02995389
v 0.03657133 -0.00947381 0.04904325
v -0.04213249 0.00413388 -0.03385761
v 0.01572137 -0.06011843 -0.03360761
v -0.04280315 -0.01177028 0.02454264
v 0.00151796 0.05900163 -0.01640589
v 0.02684024 -0.04797428 0.02430623
v 0.03975977 -0.00330704 -0.00126733
v -0.00575884 -0.05752844 0.04186337
v -0.04462479 -0.02938590 -0.04220732
v -0.00795811 -0.05636349 0.04979063
v 0.00011992 -0.05724548 0.04552628
v -0.00515378 -0.06201973 -0.01261999
v -0.03809907 -0.00549923 0.05181886
v 0.03927443 -0.03388938 -0.00214976
v -0.04577968 -0.00869597 -0.01369811
v -0.03617537 0.00628700 -0.04533980
v -0.00339715 -0.05817944 0.03592264
v -0.02854455 -0.04673420 0.04651947
v 0.02740243 -0.05051495 -0.00055804
v -0.02238028 -0.05826017 -0.02308550
v 0.00440904 -0.05645739 0.04815768
v -0.04771573 -0.01742788 -0.02849482
v -0.04144393 -0.03223799 0.01622676
v -0.04116061 -0.02842723 0.03106093
v -0.04010637 0.00763369 -0.02947608
v 0.04340096 -0.01521468 -0.01636286
v -0.03083334 0.00803862 0.05132011
v -0.03492590 -0.04688702 -0.00408750
v -0.02123690 0.01472539 0.05217557
v -0.04347436 -0.00026179 -0.01720813
v 0.03791106 -0.01008057 0.03722547
v -0.04692641 -0.02092245 -0.01835555
v -0.02680737 -0.04921988 0.04014893
v 0.01558858 -0.06021551 -0.02917653
v 0.02207701 -0.05628459 -0.01953424
v 0.01790190 -0.05897735 -0.02480491
v -0.04732881 -0.01259908 -0.02643120
v -0.03539033 -0.04904445 -0.03072215
v 0.01684676 -0.05756149 -0.04250377
v 0.03973691 -0.01357360 0.02300258
v -0.00729416 -0.05944062 0.01726127
v 0.02787475 -0.04573080 0.03342924
v -0.04131780 -0.00974705 0.03642047
v 0.03116288 0.01094198 -0.04369069
v -0.02984198 -0.05043025 0.00779450
v 0.03603251 -0.00616547 0.04634934
v 0.00755569 -0.05742533 0.03282869
v 0.03515281 -0.00187687 0.04016778
v -0.02153867 -0.05895764 -0.02851063
v 0.04107453 -0.01109437 0.00517643
v 0.04390020 -0.01985180 -0.02280950
v -0.04605030 -0.00635202 -0.03702019
v -0.03369047 -0.04654495 0.00885349
f 367 384 191
f 191 384 502
f 468 427 406
f 54 427 468
f 65 54 637
f 191 502 204
f 204 502 244
f 606 526 325
f 325 526 318
f 94 36 70
f 17 2 70
f 70 2 94
f 129 544 229
f 153 258 12
f 12 258 308
f 301 12 308
f 359 301 247
f 547 184 307
f 154 101 124
f 244 502 245
f 159 238 447
f 289 204 279
f 138 323 462
f 406 427 456
f 637 54 44
f 54 468 44
f 637 468 280
f 280 290 637
f 447 238 273
f 273 289 279
f 238 289 273
f 279 280 221
f 221 468 406
f 221 280 468
f 262 204 244
f 279 204 262
f 262 280 279
f 637 290 303
f 101 154 303
f 247 301 199
f 199 301 308
f 177 228 199
f 318 526 342
f 107 167 212
f 119 149 142
f 130 149 119
f 23 149 130
f 512 630 165
f 17 70 400
f 46 536 604
f 46 222 1
f 153 12 200
f 12 301 200
f 464 540 498
f 619 229 464
f 543 525 619
f 619 464 543
f 543 464 643
f 310 451 194
f 194 184 310
f 194 451 367
f 194 367 191
f 3 420 353
f 401 245 502
f 124 101 364
f 101 245 364
f 245 401 364
f 292 381 261
f 447 273 250
f 23 416 234
f 234 416 539
f 234 149 23
f 249 130 119
f 578 249 317
f 453 249 578
f 578 297 453
f 235 297 578
f 545 138 462
f 459 138 545
f 323 138 623
f 392 138 459
f 388 512 183
f 515 636 183
f 636 515 253
f 253 515 526
f 278 302 589
f 454 456 19
f 19 456 427
f 406 456 267
f 68 31 2
f 373 468 637
f 637 44 373
f 373 44 468
f 290 280 366
f 366 303 290
f 366 262 244
f 280 262 366
f 65 52 37
f 598 221 406
f 406 267 598
f 598 267 347
f 399 2 17
f 355 173 509
f 224 442 260
f 260 442 583
f 177 199 135
f 308 240 135
f 135 199 308
f 135 442 224
f 583 442 135
f 224 228 135
f 135 228 177
f 135 579 583
f 240 579 135
f 224 121 369
f 353 102 557
f 368 380 557
f 582 557 102
f 582 102 129
f 548 506 640
f 640 506 141
f 604 506 614
f 614 506 548
f 614 46 604
f 222 46 614
f 1 222 207
f 487 614 548
f 222 614 487
f 531 115 564
f 49 400 56
f 318 342 255
f 255 195 318
f 167 195 255
f 255 342 288
f 462 323 321
f 183 512 155
f 137 196 518
f 36 467 429
f 322 506 604
f 336 387 185
f 481 532 603
f 603 185 481
f 206 185 603
f 170 206 494
f 1 207 494
f 494 207 505
f 505 99 494
f 494 99 258
f 318 195 494
f 494 84 170
f 195 84 494
f 153 318 494
f 494 258 153
f 508 387 151
f 508 532 481
f 481 185 508
f 508 185 387
f 600 478 463
f 463 208 600
f 498 540 600
f 540 478 600
f 463 478 441
f 310 463 441
f 441 451 310
f 367 451 441
f 384 367 441
f 639 150 594
f 641 463 310
f 641 208 463
f 310 639 641
f 641 639 208
f 247 199 209
f 209 199 228
f 619 525 644
f 129 229 644
f 644 229 619
f 644 582 129
f 644 525 228
f 228 582 644
f 226 544 129
f 129 102 226
f 226 102 353
f 301 359 179
f 179 200 301
f 179 359 594
f 594 150 179
f 179 150 153
f 153 200 179
f 643 624 528
f 594 359 528
f 528 624 594
f 581 624 643
f 643 464 581
f 581 464 498
f 357 359 247
f 112 159 375
f 375 225 112
f 362 225 375
f 375 143 362
f 235 578 294
f 294 317 307
f 294 578 317
f 81 3 353
f 353 557 81
f 81 557 380
f 350 154 124
f 350 198 154
f 353 420 350
f 350 351 353
f 445 478 540
f 104 364 401
f 401 445 104
f 124 364 104
f 469 473 203
f 333 348 329
f 162 381 292
f 292 346 162
f 162 346 143
f 447 381 162
f 161 315 574
f 574 23 453
f 574 416 23
f 539 416 574
f 574 315 539
f 161 574 171
f 453 297 171
f 171 574 453
f 470 618 292
f 292 261 470
f 470 261 120
f 457 618 501
f 501 623 457
f 125 482 499
f 216 261 381
f 216 381 447
f 447 250 216
f 216 250 347
f 216 347 217
f 217 261 216
f 376 250 273
f 376 273 279
f 279 221 376
f 221 598 376
f 347 250 376
f 376 598 347
f 390 249 453
f 130 249 390
f 453 23 390
f 23 130 390
f 317 415 529
f 529 547 307
f 307 317 529
f 119 142 41
f 41 318 153
f 41 142 149
f 149 234 41
f 459 545 471
f 471 545 636
f 636 253 471
f 488 623 138
f 488 203 473
f 457 623 488
f 488 469 457
f 488 473 469
f 183 636 597
f 597 388 183
f 636 545 394
f 394 597 636
f 388 597 394
f 462 321 396
f 396 321 630
f 396 630 512
f 512 388 396
f 343 342 526
f 526 515 343
f 313 278 298
f 278 360 298
f 196 313 298
f 298 360 423
f 55 360 278
f 454 19 76
f 76 19 427
f 217 347 164
f 69 456 454
f 69 267 456
f 101 303 105
f 303 366 105
f 105 366 244
f 244 245 105
f 105 245 101
f 434 36 94
f 94 433 434
f 172 303 154
f 34 31 427
f 34 37 31
f 65 37 34
f 34 427 54
f 54 65 34
f 570 122 202
f 431 122 570
f 293 81 380
f 80 20 53
f 308 258 192
f 192 240 308
f 258 99 192
f 192 99 173
f 192 579 240
f 192 173 355
f 355 579 192
f 554 409 397
f 516 509 421
f 224 260 607
f 355 509 275
f 275 509 516
f 110 369 121
f 106 121 224
f 106 98 121
f 236 98 106
f 224 607 106
f 106 607 236
f 236 409 556
f 556 98 236
f 556 409 554
f 551 228 224
f 551 582 228
f 141 506 189
f 63 500 190
f 190 223 63
f 63 320 270
f 332 237 259
f 548 640 523
f 328 316 612
f 455 316 328
f 274 237 213
f 274 487 237
f 222 487 274
f 274 207 222
f 213 505 274
f 505 207 274
f 393 255 288
f 167 255 393
f 339 393 288
f 617 393 339
f 564 115 476
f 115 592 476
f 283 107 553
f 566 107 212
f 365 331 541
f 345 541 552
f 533 168 186
f 533 412 227
f 227 168 533
f 330 195 167
f 330 84 195
f 330 107 283
f 167 107 330
f 283 577 330
f 330 577 84
f 645 278 313
f 302 278 645
f 137 630 538
f 630 321 538
f 538 196 137
f 538 313 196
f 538 645 313
f 321 645 538
f 137 518 615
f 615 630 137
f 615 165 630
f 484 518 306
f 484 531 564
f 116 242 227
f 336 185 248
f 248 185 206
f 248 206 170
f 169 603 46
f 206 603 169
f 169 46 1
f 1 494 169
f 169 494 206
f 537 600 208
f 208 639 537
f 498 600 537
f 537 581 498
f 624 581 537
f 594 624 537
f 537 639 594
f 150 639 586
f 153 150 586
f 586 639 310
f 228 525 430
f 430 209 228
f 353 351 352
f 352 226 353
f 351 226 352
f 450 528 359
f 359 357 450
f 633 543 643
f 643 528 633
f 633 450 543
f 528 450 633
f 525 543 517
f 517 450 357
f 238 159 231
f 159 112 231
f 231 112 225
f 235 294 157
f 312 171 297
f 24 350 420
f 198 350 24
f 14 3 389
f 417 14 29
f 389 433 29
f 29 14 389
f 478 445 432
f 384 441 432
f 432 441 478
f 432 445 401
f 432 502 384
f 432 401 502
f 591 445 540
f 540 464 591
f 544 104 591
f 591 104 445
f 591 229 544
f 591 464 229
f 361 226 351
f 351 350 361
f 544 226 361
f 361 104 544
f 361 350 124
f 124 104 361
f 622 234 539
f 539 315 622
f 606 325 71
f 333 329 620
f 335 348 333
f 333 346 335
f 457 469 335
f 335 203 211
f 469 203 335
f 211 329 335
f 335 329 348
f 379 143 375
f 379 162 143
f 375 159 379
f 379 159 447
f 447 162 379
f 323 623 593
f 623 501 593
f 618 470 595
f 595 501 618
f 595 470 120
f 589 302 576
f 491 261 217
f 120 261 491
f 571 482 125
f 571 559 120
f 120 491 571
f 217 482 571
f 571 491 217
f 415 41 239
f 547 529 239
f 239 529 415
f 239 41 153
f 119 41 117
f 117 41 415
f 117 249 119
f 317 249 117
f 117 415 317
f 103 471 253
f 103 526 606
f 103 253 526
f 203 488 187
f 187 392 459
f 138 392 187
f 187 488 138
f 459 471 187
f 608 545 462
f 608 394 545
f 462 396 608
f 388 394 608
f 608 396 388
f 590 278 589
f 590 55 278
f 466 399 17
f 398 399 466
f 40 51 423
f 423 360 40
f 360 55 40
f 454 76 436
f 436 76 427
f 427 31 436
f 31 68 436
f 347 267 386
f 386 164 347
f 267 69 386
f 174 482 217
f 217 164 174
f 174 499 482
f 174 164 499
f 80 434 92
f 92 434 433
f 303 172 25
f 25 65 637
f 637 303 25
f 405 52 65
f 417 29 405
f 479 632 492
f 45 467 73
f 73 58 45
f 389 3 26
f 59 434 80
f 80 53 59
f 59 53 91
f 36 434 59
f 82 91 89
f 82 89 8
f 8 48 82
f 15 53 431
f 89 91 15
f 91 53 15
f 8 632 4
f 4 48 8
f 73 48 4
f 87 632 479
f 93 4 87
f 87 4 632
f 202 122 496
f 377 397 516
f 516 397 495
f 495 397 409
f 495 275 516
f 409 275 495
f 358 509 173
f 358 421 509
f 358 505 213
f 358 99 505
f 173 99 358
f 236 607 265
f 265 607 260
f 486 275 409
f 368 110 475
f 475 380 368
f 121 98 109
f 98 556 109
f 109 556 554
f 582 551 324
f 368 557 324
f 557 582 324
f 324 551 224
f 224 369 324
f 324 110 368
f 369 110 324
f 506 322 567
f 567 189 506
f 190 500 276
f 500 176 276
f 276 176 189
f 276 567 322
f 189 567 276
f 251 193 266
f 270 320 266
f 514 63 223
f 320 63 514
f 513 210 152
f 237 487 127
f 127 259 237
f 127 487 548
f 548 523 127
f 210 259 127
f 127 523 210
f 246 523 640
f 455 328 504
f 617 616 370
f 370 393 617
f 212 167 370
f 167 393 370
f 296 592 115
f 288 342 241
f 342 343 241
f 241 339 288
f 631 205 145
f 186 205 631
f 631 533 186
f 412 533 631
f 163 286 365
f 365 541 163
f 163 541 345
f 163 345 145
f 145 286 163
f 365 286 295
f 264 387 336
f 565 549 621
f 565 489 382
f 243 541 331
f 243 452 437
f 331 452 243
f 437 552 243
f 243 552 541
f 186 168 314
f 372 51 49
f 96 62 38
f 170 84 113
f 84 577 113
f 113 248 170
f 113 577 575
f 575 248 113
f 263 484 306
f 531 484 263
f 437 531 263
f 263 552 437
f 518 484 461
f 461 615 518
f 564 476 461
f 461 484 564
f 299 95 305
f 256 193 251
f 251 242 256
f 242 116 256
f 227 412 435
f 435 116 227
f 435 412 424
f 193 580 277
f 277 580 95
f 277 266 193
f 277 95 299
f 299 287 277
f 277 287 270
f 270 266 277
f 419 429 467
f 419 467 45
f 45 28 419
f 28 305 419
f 95 449 419
f 419 305 95
f 66 449 95
f 66 580 38
f 95 580 66
f 38 62 66
f 62 449 66
f 605 223 190
f 139 508 151
f 153 586 132
f 132 586 547
f 132 239 153
f 547 239 132
f 444 586 310
f 547 586 444
f 310 184 444
f 184 547 444
f 209 430 354
f 247 209 354
f 354 357 247
f 354 517 357
f 354 430 525
f 525 517 354
f 543 450 363
f 363 517 543
f 450 517 363
f 282 289 238
f 238 231 282
f 191 204 282
f 204 289 282
f 285 231 225
f 184 194 285
f 371 312 333
f 171 312 371
f 161 171 371
f 333 620 371
f 371 620 161
f 311 297 235
f 311 312 297
f 362 312 311
f 235 157 311
f 225 362 311
f 311 157 225
f 156 346 333
f 333 312 156
f 143 346 156
f 156 362 143
f 156 312 362
f 198 24 7
f 7 24 420
f 420 3 7
f 3 14 7
f 7 14 417
f 318 41 458
f 458 325 318
f 458 71 325
f 458 41 234
f 234 622 458
f 72 315 161
f 161 620 72
f 72 622 315
f 128 620 329
f 606 71 128
f 128 103 606
f 329 103 128
f 341 346 292
f 341 335 346
f 292 618 341
f 341 618 457
f 457 335 341
f 480 645 321
f 480 321 323
f 323 593 480
f 356 576 302
f 356 595 120
f 125 47 609
f 609 47 13
f 398 13 460
f 13 47 460
f 2 399 460
f 460 399 398
f 211 203 402
f 203 187 402
f 402 329 211
f 402 103 329
f 471 103 402
f 402 187 471
f 18 590 589
f 55 590 18
f 51 40 88
f 49 51 88
f 17 400 77
f 77 400 49
f 49 88 77
f 90 40 55
f 55 18 90
f 499 164 126
f 50 68 2
f 454 436 50
f 50 436 68
f 154 198 42
f 42 172 154
f 417 405 42
f 65 25 33
f 33 25 172
f 172 42 33
f 33 42 405
f 52 405 30
f 30 405 29
f 30 29 433
f 30 433 94
f 30 37 52
f 31 37 30
f 94 2 30
f 2 31 30
f 374 504 328
f 587 584 627
f 627 596 587
f 134 596 627
f 522 587 479
f 479 492 522
f 522 570 202
f 522 492 570
f 21 492 632
f 8 89 21
f 21 632 8
f 570 492 21
f 89 15 21
f 431 570 21
f 21 15 431
f 299 305 180
f 180 4 93
f 73 4 180
f 180 305 28
f 58 73 180
f 45 58 180
f 180 28 45
f 75 20 80
f 75 43 20
f 293 43 32
f 20 43 123
f 83 73 467
f 83 48 73
f 83 82 48
f 443 467 36
f 36 59 443
f 443 83 467
f 82 83 443
f 519 87 479
f 479 587 519
f 587 596 519
f 519 596 134
f 455 504 411
f 411 504 202
f 202 496 411
f 411 496 422
f 511 316 455
f 455 411 511
f 511 411 425
f 147 496 122
f 422 496 201
f 201 110 121
f 319 475 201
f 201 475 110
f 201 147 319
f 496 147 201
f 516 421 635
f 635 377 516
f 378 409 236
f 378 486 409
f 428 411 422
f 425 411 428
f 554 425 428
f 428 109 554
f 507 276 322
f 190 276 507
f 507 605 190
f 629 588 152
f 629 627 584
f 561 588 628
f 628 374 561
f 584 374 628
f 628 629 584
f 588 629 628
f 337 513 152
f 152 588 337
f 337 259 210
f 210 513 337
f 524 640 141
f 524 246 640
f 141 189 524
f 189 176 524
f 152 210 483
f 563 503 561
f 561 374 563
f 563 374 328
f 563 328 612
f 421 358 334
f 334 635 421
f 474 635 334
f 612 474 497
f 497 563 612
f 503 563 497
f 403 503 497
f 474 334 413
f 403 497 413
f 413 497 474
f 212 370 493
f 493 370 616
f 493 566 212
f 493 410 566
f 344 616 617
f 344 452 616
f 118 476 592
f 592 296 118
f 118 241 343
f 118 296 339
f 339 241 118
f 512 165 414
f 414 155 512
f 183 155 414
f 414 100 183
f 412 631 555
f 145 345 555
f 555 631 145
f 424 412 555
f 555 10 424
f 560 549 565
f 220 553 107
f 107 566 220
f 553 220 254
f 549 560 254
f 440 626 489
f 489 626 611
f 611 382 489
f 575 577 611
f 611 626 575
f 151 387 340
f 340 264 151
f 387 264 340
f 151 264 281
f 144 181 232
f 232 264 144
f 232 281 264
f 175 248 575
f 144 264 175
f 336 248 175
f 175 264 336
f 575 626 175
f 646 489 565
f 565 621 646
f 638 440 542
f 542 621 205
f 542 534 638
f 542 205 186
f 230 621 549
f 230 286 145
f 230 549 286
f 145 205 230
f 205 621 230
f 395 452 331
f 331 410 395
f 616 452 395
f 395 493 616
f 410 493 395
f 566 410 510
f 510 331 365
f 510 410 331
f 56 140 166
f 166 140 257
f 257 372 166
f 49 56 166
f 166 372 49
f 9 140 56
f 140 9 426
f 116 435 426
f 424 140 426
f 426 435 424
f 306 518 408
f 408 219 306
f 408 518 196
f 196 298 408
f 257 140 327
f 327 10 257
f 327 140 424
f 424 10 327
f 345 552 477
f 306 219 477
f 477 263 306
f 552 263 477
f 404 96 38
f 404 256 116
f 38 580 404
f 404 580 193
f 193 256 404
f 62 96 448
f 448 96 86
f 165 615 625
f 615 461 625
f 625 461 476
f 625 414 165
f 476 414 625
f 270 287 272
f 287 465 272
f 272 63 270
f 500 63 272
f 601 603 532
f 536 46 601
f 46 603 601
f 530 601 532
f 634 601 530
f 532 508 530
f 508 139 530
f 573 514 223
f 223 139 573
f 573 139 151
f 225 157 291
f 291 285 225
f 291 157 294
f 184 285 291
f 307 184 291
f 291 294 307
f 284 282 231
f 231 285 284
f 191 282 284
f 284 194 191
f 284 285 194
f 160 458 622
f 622 72 160
f 71 458 160
f 160 128 71
f 160 72 620
f 620 128 160
f 114 356 302
f 302 645 114
f 645 480 114
f 114 480 593
f 595 356 114
f 114 593 501
f 501 595 114
f 559 576 572
f 576 356 572
f 120 559 572
f 572 356 120
f 559 571 558
f 558 571 125
f 125 609 558
f 74 609 13
f 74 18 589
f 74 13 398
f 61 460 47
f 61 126 164
f 16 18 466
f 466 90 16
f 16 90 18
f 64 90 466
f 64 466 17
f 17 77 64
f 5 7 417
f 417 42 5
f 198 7 5
f 5 42 198
f 35 405 65
f 65 33 35
f 35 33 405
f 202 504 490
f 504 374 490
f 490 522 202
f 490 374 584
f 490 584 587
f 587 522 490
f 299 180 182
f 182 180 93
f 93 465 182
f 182 287 299
f 182 465 287
f 78 32 43
f 43 75 78
f 80 92 78
f 78 75 80
f 293 32 6
f 81 293 6
f 389 26 6
f 3 81 6
f 6 26 3
f 418 43 293
f 418 123 43
f 319 123 418
f 91 82 57
f 82 443 57
f 57 59 91
f 57 443 59
f 521 519 134
f 521 176 500
f 134 524 521
f 521 524 176
f 316 511 178
f 391 316 178
f 397 377 178
f 178 635 391
f 377 635 178
f 133 123 319
f 319 147 133
f 20 123 133
f 133 122 431
f 133 147 122
f 431 53 133
f 133 53 20
f 391 635 599
f 599 635 474
f 599 316 391
f 612 316 599
f 599 474 612
f 486 378 568
f 568 265 260
f 236 265 568
f 568 378 236
f 568 260 583
f 568 579 355
f 583 579 568
f 355 275 568
f 275 486 568
f 121 109 485
f 109 428 485
f 485 201 121
f 422 201 485
f 485 428 422
f 304 413 332
f 403 413 304
f 332 259 304
f 259 337 304
f 523 246 108
f 246 483 108
f 210 523 108
f 108 483 210
f 136 483 246
f 246 524 136
f 152 483 136
f 134 627 136
f 136 524 134
f 136 629 152
f 627 629 136
f 214 358 213
f 214 334 358
f 214 237 332
f 213 237 214
f 332 413 214
f 214 413 334
f 385 344 617
f 115 531 385
f 452 344 385
f 385 531 437
f 437 452 385
f 146 476 218
f 218 118 146
f 476 118 218
f 446 100 146
f 146 118 446
f 446 118 343
f 183 100 446
f 446 515 183
f 446 343 515
f 146 100 268
f 100 414 268
f 268 476 146
f 268 414 476
f 269 555 345
f 10 555 269
f 345 477 269
f 269 477 10
f 271 295 286
f 286 549 271
f 549 254 271
f 271 254 220
f 300 382 553
f 553 254 300
f 565 382 300
f 300 560 565
f 300 254 560
f 439 611 577
f 382 611 439
f 439 577 283
f 283 553 439
f 553 382 439
f 638 534 148
f 148 181 144
f 148 534 181
f 181 534 309
f 309 534 314
f 97 232 181
f 281 232 97
f 181 309 97
f 151 281 97
f 97 613 151
f 562 440 489
f 562 542 440
f 489 646 562
f 562 646 621
f 621 542 562
f 252 542 186
f 534 542 252
f 186 314 252
f 314 534 252
f 131 220 566
f 566 510 131
f 295 271 131
f 131 271 220
f 365 295 131
f 131 510 365
f 320 514 233
f 251 266 233
f 233 266 320
f 86 426 27
f 27 426 9
f 70 383 67
f 67 27 9
f 67 400 70
f 67 9 56
f 67 56 400
f 85 426 86
f 116 426 85
f 85 404 116
f 86 96 85
f 96 404 85
f 197 408 298
f 197 298 423
f 423 51 197
f 51 372 197
f 257 10 569
f 10 477 569
f 569 477 219
f 62 448 22
f 22 448 383
f 22 449 62
f 429 419 22
f 22 419 449
f 22 383 70
f 22 70 36
f 36 429 22
f 605 507 610
f 634 605 610
f 610 601 634
f 610 507 322
f 536 601 610
f 604 536 610
f 610 322 604
f 634 530 520
f 223 605 520
f 520 605 634
f 520 139 223
f 585 558 609
f 609 74 585
f 559 558 585
f 585 74 589
f 589 576 585
f 585 576 559
f 39 74 398
f 18 74 39
f 398 466 39
f 466 18 39
f 499 126 79
f 126 61 79
f 125 499 79
f 79 47 125
f 79 61 47
f 164 386 60
f 60 61 164
f 60 386 69
f 60 50 2
f 60 69 454
f 454 50 60
f 2 460 60
f 460 61 60
f 40 90 11
f 90 64 11
f 11 64 77
f 11 88 40
f 11 77 88
f 407 6 32
f 407 78 92
f 32 78 407
f 389 6 407
f 407 433 389
f 407 92 433
f 158 293 380
f 158 418 293
f 380 475 158
f 158 475 319
f 319 418 158
f 519 521 188
f 87 519 188
f 188 521 500
f 93 87 188
f 188 465 93
f 500 272 188
f 188 272 465
f 397 178 527
f 527 178 511
f 554 397 527
f 527 425 554
f 527 511 425
f 403 304 472
f 561 503 472
f 472 503 403
f 349 337 588
f 349 304 337
f 349 472 304
f 349 588 561
f 561 472 349
f 617 339 338
f 338 385 617
f 115 385 338
f 338 296 115
f 339 296 338
f 535 148 144
f 144 175 535
f 535 175 626
f 638 148 535
f 535 440 638
f 626 440 535
f 326 309 314
f 613 97 326
f 326 97 309
f 111 242 251
f 251 233 111
f 111 326 314
f 111 314 168
f 227 242 111
f 111 168 227
f 215 233 514
f 215 573 151
f 514 573 215
f 86 27 438
f 438 448 86
f 383 448 438
f 438 67 383
f 27 67 438
f 602 372 257
f 602 197 372
f 257 569 602
f 546 530 139
f 139 520 546
f 546 520 530
f 613 326 642
f 326 111 642
f 642 111 233
f 233 215 642
f 151 613 642
f 642 215 151
f 408 197 550
f 197 602 550
f 219 408 550
f 550 569 219
f 550 602 569

