# https://github.com/mikedh/trimesh
v 0.00794653 0.00010562 0.02845975
v 0.00791003 0.00033742 0.02563598
v 0.00748029 0.00266515 0.03079818
v 0.00760971 0.00115601 0.07086040
v 0.00764953 -0.00044551 0.06980149
v 0.00766447 -0.00050549 0.06638943
v 0.00757487 -0.00131598 0.06677182
v 0.00755496 -0.00190926 -0.03700167
v 0.00779388 -0.00065138 -0.03822236
v 0.00777563 -0.00072594 -0.04935566
v 0.00779886 0.00012021 -0.04291394
v 0.00772088 0.00143320 -0.03611924
v 0.00671539 0.00477566 0.02576835
v 0.00667391 0.00487454 0.02962161
v 0.00724302 0.00254357 0.07047801
v 0.00739567 0.00209943 0.06858079
v 0.00734424 0.00269108 -0.03501621
v 0.00702567 0.00220155 0.07213992
v 0.00744379 0.00056760 0.07197814
v 0.00739733 -0.00075350 0.07175753
v 0.00732433 -0.00184928 0.07113983
v 0.00734756 -0.00215079 0.06796309
v 0.00735087 -0.00224642 0.06393334
v 0.00729114 -0.00258521 -0.00245463
v 0.00705056 -0.00327899 -0.03814883
v 0.00722145 -0.00280728 -0.04563475
v 0.00737078 -0.00231288 -0.06393042
v 0.00764290 -0.00120089 -0.06635710
v 0.00773249 -0.00003054 -0.05966535
v 0.00771424 0.00046872 -0.06476872
v 0.00774743 0.00058219 -0.05107639
v 0.00763958 0.00127921 -0.05687100
v 0.00751348 0.00175416 -0.06801900
v 0.00733760 0.00247225 -0.06625415
v 0.00676849 0.00378687 -0.06281268
v 0.00633211 0.00458925 -0.06818078
v 0.00649804 0.00509176 0.02610661
v 0.00628732 0.00538840 0.02826856
v 0.00562529 0.00519226 0.07034565
v 0.00658763 0.00394734 0.06990444
v 0.00693607 0.00338000 0.06703654
v 0.00628566 0.00402191 0.07188990
v 0.00585426 0.00339297 0.07288998
v 0.00637028 0.00101661 0.07297823
v 0.00658266 -0.00056709 0.07291940
v 0.00627072 -0.00343947 0.07200755
v 0.00689293 -0.00318173 0.06983089
v 0.00695266 -0.00327899 0.06560995
v 0.00718661 -0.00281539 0.02598895
v 0.00649472 -0.00424023 -0.03611924
v 0.00655445 -0.00406516 -0.06357745
v 0.00715840 -0.00287212 -0.06676890
v 0.00663077 -0.00394035 0.02403290
v 0.00718827 -0.00247498 -0.06956325
v 0.00760307 -0.00094802 -0.06907792
v 0.00762796 0.00077346 -0.06912203
v 0.00720652 0.00229556 -0.07010742
v 0.00676683 0.00370744 -0.06912203
v 0.00555726 0.00531383 -0.06928381
v 0.00568336 0.00531221 -0.06641593
v 0.00387813 0.00668356 0.02995988
v 0.00383997 0.00667221 0.06322739
v 0.00428132 0.00633505 0.06819841
v 0.00511425 0.00571259 0.06522757
v 0.00457832 0.00622482 -0.06453341
v 0.00431119 0.00645986 -0.04541415
v 0.00346167 0.00692671 -0.06473931
v 0.00362427 0.00684079 -0.04939978
v 0.00399428 0.00641772 0.07141927
v 0.00424316 0.00508689 0.07294881
v 0.00451693 0.00213833 0.07366946
v 0.00515241 -0.00069190 0.07366946
v 0.00551910 -0.00283646 0.07311059
v 0.00367239 -0.00589363 0.07268408
v 0.00498981 -0.00550622 0.07150751
v 0.00597870 -0.00462764 0.07019858
v 0.00653786 -0.00401167 0.06749246
v 0.00645987 -0.00418674 0.06194788
v 0.00606830 -0.00479136 -0.03119236
v 0.00561036 -0.00525496 -0.06215085
v 0.00616122 -0.00462440 0.02603308
v 0.00576964 -0.00503127 -0.06794547
v 0.00653620 -0.00400195 -0.06763662
v 0.00622592 -0.00415594 -0.06979856
v 0.00674692 -0.00244905 -0.07082807
v 0.00726293 0.00006672 -0.07072511
v 0.00659925 0.00206701 -0.07157813
v 0.00622095 0.00370420 -0.07097513
v 0.00411872 0.00617619 -0.07021036
v 0.00439747 0.00629777 -0.06859258
v 0.00468949 0.00489886 -0.07176932
v 0.00348988 0.00689267 0.02541538
v 0.00356786 0.00682296 0.05700628
v 0.00296888 0.00710826 0.06002124
v 0.00321279 0.00695426 0.06888964
v 0.00221062 0.00754430 -0.06319506
v 0.00332396 0.00699479 -0.04078140
v 0.00226040 0.00724118 -0.06912203
v 0.00269843 0.00664628 0.07219874
v 0.00173608 0.00737410 0.07094864
v 0.00052818 0.00610001 0.07306647
v 0.00233672 0.00467678 0.07364004
v 0.00342185 0.00066486 0.07406655
v 0.00272166 -0.00130301 0.07411067
v 0.00306180 -0.00312500 0.07390478
v 0.00342683 -0.00458064 0.07350768
v 0.00121011 -0.00712396 0.07246348
v 0.00283780 -0.00687432 0.07183107
v 0.00216250 -0.00581096 0.07325765
v 0.00383168 -0.00652581 0.07003680
v 0.00517066 -0.00561320 0.06787485
v 0.00591233 -0.00489997 0.06491872
v 0.00569498 -0.00519337 -0.01597048
v 0.00528183 -0.00563427 -0.02905982
v 0.00584099 -0.00499885 0.05850641
v 0.00580946 -0.00505883 0.01815005
v 0.00574973 -0.00513339 0.00186927
v 0.00527851 -0.00555971 -0.06703363
v 0.00468783 -0.00591957 -0.06976915
v 0.00543614 -0.00468114 -0.07088689
v 0.00597372 -0.00218483 -0.07246055
v 0.00639351 -0.00031259 -0.07238702
v 0.00611144 0.00105551 -0.07268116
v 0.00547596 0.00270243 -0.07287235
v 0.00300704 0.00593467 -0.07191639
v 0.00138101 0.00672084 -0.07157813
v 0.00406894 0.00401705 -0.07337239
v 0.00191362 0.00747460 0.05344716
v 0.00227201 0.00732709 0.06688947
v 0.00118191 0.00767884 -0.06600413
v 0.00069742 0.00782311 -0.06495991
v 0.00120182 0.00773071 -0.05888588
v 0.00079697 0.00778420 0.04485819
v 0.00049499 0.00756375 -0.06957795
v 0.00018970 0.00755402 0.07109571
v -0.00051879 0.00708880 0.07225757
v 0.00099276 0.00760914 0.06674241
v -0.00210998 0.00577581 0.07315471
v -0.00042753 0.00413051 0.07381653
v 0.00127482 0.00216426 0.07415479
v 0.00060616 0.00032121 0.07422833
v -0.00008573 -0.00124628 0.07411067
v 0.00066755 -0.00346540 0.07390478
v 0.00058625 -0.00498588 0.07358122
v 0.00030750 -0.00585959 0.07325765
v -0.00062498 -0.00656310 0.07277232
v -0.00027323 -0.00744329 0.07187518
v 0.00106742 -0.00760701 0.07105159
v 0.00244623 -0.00726984 0.07093393
v 0.00407724 -0.00646422 0.06693359
v 0.00506447 -0.00573315 0.06387451
v 0.00556722 -0.00531818 0.02813619
v 0.00529510 -0.00556295 0.04116671
v 0.00508936 -0.00576557 0.02298870
v 0.00496658 -0.00588553 -0.00395476
v 0.00493174 -0.00591470 -0.01410268
v 0.00457003 -0.00620324 -0.02398586
v 0.00476581 -0.00602331 -0.06138609
v 0.00512089 -0.00572343 -0.05532675
v 0.00426639 -0.00639775 -0.06610707
v 0.00291911 -0.00691485 -0.06987210
v 0.00354297 -0.00584824 -0.07178403
v 0.00458662 -0.00469897 -0.07225466
v 0.00373046 -0.00671060 -0.06843080
v 0.00475254 -0.00350106 -0.07316650
v 0.00464801 -0.00191250 -0.07397539
v 0.00538636 -0.00024938 -0.07360771
v 0.00423818 0.00104741 -0.07441660
v 0.00450864 0.00238958 -0.07390185
v 0.00141088 0.00540947 -0.07353418
v -0.00055861 0.00574663 -0.07350476
v -0.00007744 0.00704828 -0.07134281
v 0.00257233 0.00278348 -0.07469603
v 0.00088823 0.00416131 -0.07453426
v 0.00174438 0.00749405 0.06096250
v -0.00091037 0.00769829 -0.06866612
v -0.00127042 0.00771937 -0.06751896
v -0.00068637 0.00804194 -0.01016116
v 0.00019799 0.00774530 0.05140287
v 0.00042364 0.00768208 0.06206553
v -0.00142472 0.00729953 -0.07034273
v -0.00174329 0.00739517 0.07147810
v -0.00068969 0.00766587 0.06449221
v -0.00209836 0.00742435 0.07006621
v -0.00343735 0.00657657 0.07222816
v -0.00394009 0.00335082 0.07343414
v -0.00404794 0.00532194 0.07283115
v -0.00144795 0.00260841 0.07399301
v -0.00191253 0.00049141 0.07400773
v -0.00179141 -0.00243446 0.07378712
v -0.00310883 -0.00362426 0.07331648
v -0.00251649 -0.00488376 0.07299293
v -0.00361489 -0.00523875 0.07233111
v -0.00191087 -0.00694240 0.07190460
v -0.00185778 -0.00741411 0.06999268
v -0.00062996 -0.00769292 0.06687476
v -0.00018861 -0.00780315 0.05619739
v -0.00167692 -0.00851800 -0.04634070
v 0.00103258 -0.00768481 0.05509436
v 0.00157182 -0.00755514 0.06206553
v 0.00282619 -0.00712558 0.06686006
v 0.00196506 -0.00745626 0.05925648
v 0.00212102 -0.00744167 0.04929975
v 0.00288260 -0.00716772 0.04869676
v 0.00363257 -0.00673978 0.06338917
v 0.00371221 -0.00674465 0.04559355
v 0.00452357 -0.00621783 0.04069608
v 0.00472433 -0.00604438 0.05099107
v 0.00437590 -0.00633778 -0.01089652
v 0.00393455 -0.00662631 -0.02880980
v 0.00144240 -0.00749192 -0.06890143
v 0.00084011 -0.00722446 -0.07078394
v 0.00167303 -0.00658093 -0.07181344
v 0.00164317 -0.00567966 -0.07321062
v 0.00293238 -0.00501182 -0.07337239
v 0.00333723 -0.00690512 -0.06282739
v 0.00267520 -0.00717907 -0.06535701
v 0.00321611 -0.00700238 0.00060445
v 0.00311655 -0.00336004 -0.07432836
v 0.00345171 -0.00047955 -0.07487252
v 0.00210941 0.00055787 -0.07547551
v -0.00087054 0.00368799 -0.07482840
v -0.00269402 0.00500584 -0.07347535
v -0.00148114 0.00633505 -0.07250468
v 0.00045185 0.00174929 -0.07574025
v -0.00282842 0.00724280 -0.06794547
v -0.00214482 0.00747298 -0.06173906
v -0.00078758 0.00802411 -0.00976407
v -0.00146123 0.00758807 0.06258029
v -0.00298439 0.00683431 -0.07018095
v -0.00410104 0.00675488 0.06618353
v -0.00426696 0.00665924 0.06690418
v -0.00412261 0.00651011 0.07019858
v -0.00181962 0.00770964 -0.00838160
v -0.00389032 0.00705963 -0.00796980
v -0.00555119 0.00490210 0.07209580
v -0.00537864 0.00557643 0.07038977
v -0.00595604 0.00298124 0.07265466
v -0.00533881 0.00122896 0.07312530
v -0.00360161 0.00143807 0.07368417
v -0.00391521 -0.00125438 0.07350768
v -0.00466683 -0.00267436 0.07305176
v -0.00555617 -0.00408137 0.07206638
v -0.00414252 -0.00567966 0.07143398
v -0.00333282 -0.00673168 0.07019858
v -0.00354022 -0.00699752 0.06753659
v -0.00222115 -0.00747895 0.06572761
v -0.00148943 -0.00770264 0.05746220
v -0.00420557 -0.00724229 -0.04289923
v -0.00567729 -0.00641234 -0.04523766
v -0.00329134 -0.00723418 -0.06379806
v -0.00172670 -0.00749192 -0.06737189
v 0.00021126 -0.00757783 -0.06863670
v 0.00162492 -0.00747247 -0.06584235
v 0.00176927 -0.00746274 -0.05872410
v 0.00240309 -0.00727795 -0.05525322
v 0.00225874 -0.00736872 -0.01617638
v 0.00239313 -0.00736224 0.04141673
v 0.00115702 -0.00768968 0.04613772
v -0.00255963 -0.00741087 0.06181552
v -0.00255465 -0.00746436 0.05518260
v -0.00349211 -0.00711423 0.05959474
v -0.00396664 -0.00694727 0.04835849
v 0.00244955 -0.00731847 0.00011912
v 0.00312651 -0.00703156 -0.01466155
v 0.00312153 -0.00705101 0.03713696
v 0.00405567 -0.00654851 0.00359000
v 0.00406065 -0.00653068 0.03059229
v 0.00440245 -0.00630860 0.02197391
v -0.00073615 -0.00735089 -0.07019566
v -0.00184450 -0.00681435 -0.07159283
v -0.00046404 -0.00643828 -0.07253409
v -0.00067310 -0.00565859 -0.07347535
v 0.00088491 -0.00470707 -0.07418129
v 0.00064432 -0.00298883 -0.07515196
v 0.00142083 -0.00175202 -0.07544610
v 0.00017974 0.00011210 -0.07601968
v -0.00134342 0.00084154 -0.07585790
v -0.00260443 0.00324870 -0.07462250
v -0.00485100 0.00357290 -0.07312237
v -0.00338592 0.00565261 -0.07223995
v -0.00441795 0.00635774 -0.06859258
v -0.00409938 0.00659927 -0.06482755
v -0.00441131 0.00688294 -0.01319083
v -0.00197890 0.00765128 -0.01316142
v -0.00458387 0.00563803 -0.07071041
v -0.00503850 0.00616971 0.06387451
v -0.00462867 0.00637557 0.06788956
v -0.00682381 0.00294558 0.07190460
v -0.00635591 0.00431044 0.07099276
v -0.00680722 0.00430720 0.06913967
v -0.00686861 0.00042009 0.07216933
v -0.00596600 -0.00224967 0.07244877
v -0.00705610 -0.00225453 0.07140456
v -0.00601909 -0.00440071 0.07061038
v -0.00458055 -0.00593253 0.06977207
v -0.00516626 -0.00551432 0.06809545
v -0.00403467 -0.00663604 0.06418336
v -0.00437647 -0.00645287 0.05918294
v -0.00444118 -0.00673654 0.03957834
v -0.00581833 -0.00612705 -0.04597302
v -0.00640071 -0.00408137 -0.06857787
v -0.00561093 -0.00524038 -0.06538643
v -0.00442625 -0.00648367 -0.06563645
v -0.00499536 -0.00628915 0.02925394
v -0.00611367 -0.00446068 0.06708067
v -0.00668610 -0.00355942 0.06866904
v -0.00678233 -0.00347675 0.05907999
v -0.00358004 -0.00685649 -0.06781310
v -0.00248994 -0.00702507 -0.06988680
v -0.00273716 -0.00577044 -0.07278411
v -0.00353193 -0.00645287 -0.07048980
v -0.00221285 -0.00454660 -0.07396068
v -0.00079422 -0.00360967 -0.07490194
v -0.00057852 -0.00169043 -0.07572553
v -0.00161553 -0.00075188 -0.07585790
v -0.00305905 0.00072321 -0.07519608
v -0.00426862 0.00226639 -0.07419600
v -0.00563084 0.00293099 -0.07272528
v -0.00584322 0.00425695 -0.07085747
v -0.00522433 0.00556346 -0.06944559
v -0.00532056 0.00562830 -0.06701892
v -0.00585981 0.00549214 -0.01164658
v -0.00741283 0.00370906 0.06388922
v -0.00736140 0.00051411 0.07115454
v -0.00758705 0.00335082 0.06891906
v -0.00836523 0.00196002 0.06833077
v -0.00739956 -0.00118144 0.07087510
v -0.00900402 0.00155315 0.06662475
v -0.00561756 -0.00509611 0.06250675
v -0.00533218 -0.00547704 0.05834463
v -0.00701960 -0.00316876 -0.06323919
v -0.00698642 -0.00310554 0.04991745
v -0.00730001 -0.00238259 -0.06598942
v -0.00741118 -0.00165314 -0.06846022
v -0.00676242 -0.00281539 -0.07022507
v -0.00523262 -0.00528414 -0.06996034
v -0.00450589 -0.00494536 -0.07181344
v -0.00404628 -0.00383498 -0.07329886
v -0.00261770 -0.00261763 -0.07490194
v -0.00393014 -0.00068866 -0.07468133
v -0.00571214 0.00086424 -0.07335769
v -0.00629950 0.00144617 -0.07243114
v -0.00634098 0.00280131 -0.07153401
v -0.00649529 0.00400570 -0.06932794
v -0.00611533 0.00470434 -0.06779840
v -0.00582828 0.00508527 -0.06409220
v -0.00601577 0.00530248 -0.01014646
v -0.00884640 0.00189194 0.06540405
v -0.00700964 0.00321142 -0.06818078
v -0.00742943 0.00206538 -0.06731306
v -0.00753064 0.00178658 -0.06391571
v -0.00771481 0.00060326 -0.06312153
v -0.00767997 0.00028879 -0.06756308
v -0.00773804 -0.00058168 -0.06109195
v -0.00762687 -0.00107932 -0.06523935
v -0.00750077 -0.00185739 -0.05878292
v -0.00748418 0.00029852 -0.06957795
v -0.00708763 -0.00094153 -0.07076924
v -0.00591622 -0.00323522 -0.07162225
v -0.00594111 -0.00118144 -0.07281353
v -0.00433333 -0.00241501 -0.07369595
v -0.00611533 -0.00029638 -0.07288706
v -0.00696153 0.00105389 -0.07131340
v -0.00720875 0.00208322 -0.06960737
v -0.00655336 0.00411268 -0.06481285
f 249 250 198
f 250 249 300
f 307 294 329
f 329 351 352
f 232 184 231
f 3 4 1
f 198 148 197
f 197 196 198
f 148 196 197
f 248 247 198
f 198 196 248
f 248 196 247
f 329 294 328
f 294 292 328
f 198 250 251
f 305 300 297
f 250 300 305
f 232 231 284
f 326 291 324
f 282 226 230
f 329 326 349
f 349 326 324
f 69 95 100
f 2 3 1
f 15 4 16
f 16 3 15
f 4 3 16
f 13 3 17
f 38 39 14
f 39 40 14
f 14 37 38
f 15 3 14
f 3 13 14
f 15 40 42
f 42 40 39
f 39 69 42
f 34 13 17
f 38 37 36
f 37 14 36
f 36 14 13
f 28 54 55
f 55 30 28
f 55 56 30
f 85 54 84
f 84 120 85
f 82 119 84
f 84 119 120
f 77 76 112
f 46 45 73
f 44 45 19
f 5 4 19
f 1 4 5
f 46 76 47
f 47 21 46
f 76 77 47
f 199 148 198
f 198 259 199
f 148 199 200
f 200 199 259
f 257 258 198
f 113 117 114
f 114 117 152
f 118 119 82
f 195 246 247
f 247 196 195
f 195 196 148
f 297 300 299
f 300 246 299
f 198 261 262
f 194 244 245
f 245 195 194
f 246 195 245
f 304 251 250
f 306 307 250
f 250 305 306
f 250 307 308
f 308 307 329
f 329 333 308
f 179 133 178
f 180 133 179
f 137 135 100
f 137 133 180
f 180 179 183
f 183 137 180
f 135 137 183
f 183 229 184
f 184 135 183
f 178 229 183
f 183 179 178
f 176 226 177
f 283 226 282
f 282 284 283
f 283 284 226
f 324 291 287
f 232 284 287
f 287 288 232
f 226 284 285
f 235 231 184
f 235 284 231
f 235 285 284
f 292 289 325
f 329 328 325
f 325 328 292
f 327 326 329
f 289 326 327
f 329 325 327
f 327 325 289
f 181 176 134
f 181 226 176
f 181 230 226
f 350 351 329
f 329 349 350
f 100 135 99
f 99 69 100
f 64 39 38
f 95 69 63
f 63 64 38
f 63 69 39
f 39 64 63
f 28 30 29
f 29 10 28
f 30 10 29
f 9 10 1
f 11 10 30
f 30 31 11
f 1 10 11
f 41 40 15
f 15 14 41
f 41 14 40
f 18 4 15
f 15 42 18
f 19 4 18
f 18 42 43
f 18 44 19
f 43 44 18
f 178 133 131
f 134 176 131
f 131 177 178
f 176 177 131
f 12 31 30
f 3 2 12
f 17 3 12
f 12 34 17
f 12 2 1
f 1 11 12
f 12 11 31
f 38 65 66
f 38 36 60
f 60 36 59
f 60 65 38
f 60 59 90
f 90 65 60
f 13 34 35
f 35 36 13
f 28 10 8
f 10 9 8
f 8 9 1
f 52 54 28
f 57 56 86
f 56 55 86
f 86 54 85
f 86 55 54
f 148 107 147
f 147 195 148
f 194 195 147
f 194 147 146
f 146 147 107
f 20 5 19
f 21 5 20
f 19 45 20
f 20 45 46
f 46 21 20
f 7 8 1
f 23 8 7
f 7 5 21
f 48 47 77
f 48 49 23
f 25 49 48
f 203 200 259
f 198 258 203
f 203 259 198
f 256 257 198
f 217 257 256
f 216 217 164
f 216 265 217
f 217 265 264
f 258 257 264
f 264 257 217
f 254 217 198
f 198 251 252
f 252 253 198
f 109 107 74
f 107 108 74
f 46 73 74
f 112 76 111
f 112 111 115
f 115 111 151
f 114 152 153
f 153 115 151
f 152 115 153
f 80 118 82
f 114 118 80
f 114 158 159
f 159 118 114
f 158 118 159
f 164 119 160
f 119 118 160
f 160 118 158
f 298 246 297
f 297 299 298
f 298 299 246
f 263 246 300
f 263 262 246
f 198 262 263
f 263 249 198
f 263 300 249
f 260 262 261
f 198 247 260
f 260 261 198
f 247 246 260
f 246 262 260
f 296 245 244
f 297 246 296
f 246 245 296
f 354 352 351
f 312 338 311
f 311 338 339
f 251 304 309
f 309 252 251
f 250 302 303
f 303 304 250
f 295 306 297
f 307 306 295
f 297 296 295
f 294 307 295
f 295 296 244
f 297 306 330
f 330 306 305
f 324 287 323
f 323 287 284
f 323 347 346
f 227 177 226
f 226 285 227
f 322 284 282
f 346 347 322
f 322 323 284
f 347 323 322
f 285 235 234
f 234 235 184
f 240 186 239
f 239 186 238
f 238 292 239
f 238 289 292
f 238 236 289
f 45 44 72
f 72 104 105
f 72 73 45
f 69 99 70
f 43 42 70
f 70 42 69
f 321 322 282
f 346 322 321
f 318 279 317
f 346 350 366
f 366 350 349
f 136 99 135
f 136 185 138
f 62 63 38
f 95 63 62
f 38 68 61
f 68 92 61
f 61 62 38
f 34 12 33
f 30 56 33
f 33 56 57
f 58 35 34
f 36 35 58
f 58 33 57
f 34 33 58
f 57 88 58
f 59 36 58
f 58 88 59
f 26 8 25
f 25 52 26
f 57 86 87
f 87 86 123
f 87 88 57
f 122 86 85
f 123 86 122
f 90 59 89
f 89 98 90
f 25 8 24
f 24 49 25
f 24 8 23
f 23 49 24
f 78 48 77
f 78 77 112
f 82 84 83
f 83 84 54
f 54 52 83
f 145 107 109
f 145 146 107
f 1 5 6
f 6 7 1
f 5 7 6
f 23 7 22
f 22 7 21
f 21 47 22
f 22 48 23
f 47 48 22
f 148 200 149
f 149 107 148
f 149 108 107
f 198 217 255
f 255 256 198
f 217 256 255
f 253 212 211
f 164 217 211
f 217 254 211
f 198 253 211
f 211 254 198
f 310 309 312
f 252 309 310
f 109 74 106
f 106 74 73
f 106 72 105
f 73 72 106
f 75 111 76
f 75 74 108
f 75 76 46
f 46 74 75
f 157 158 114
f 157 160 158
f 116 152 117
f 116 115 152
f 207 157 155
f 329 352 353
f 353 354 329
f 352 354 353
f 329 354 355
f 301 302 250
f 301 332 302
f 329 332 301
f 301 333 329
f 250 308 301
f 301 308 333
f 337 338 312
f 312 309 337
f 337 309 304
f 337 303 302
f 304 303 337
f 331 305 297
f 297 330 331
f 331 330 305
f 291 326 290
f 290 326 289
f 289 236 290
f 237 287 291
f 288 287 237
f 291 290 237
f 237 290 236
f 237 236 185
f 187 186 138
f 138 185 187
f 185 236 187
f 187 238 186
f 236 238 187
f 348 349 324
f 324 323 348
f 348 323 346
f 346 366 348
f 348 366 349
f 177 227 228
f 228 227 285
f 178 177 228
f 285 234 228
f 228 234 184
f 228 229 178
f 184 229 228
f 138 186 139
f 189 142 141
f 141 142 104
f 43 70 71
f 71 44 43
f 71 72 44
f 282 230 286
f 286 321 282
f 321 286 320
f 317 279 278
f 172 181 134
f 302 335 336
f 336 337 302
f 359 336 335
f 364 359 358
f 335 354 358
f 358 359 335
f 182 136 135
f 185 136 182
f 182 135 184
f 184 185 182
f 95 62 94
f 92 96 94
f 97 92 68
f 97 96 92
f 130 96 98
f 131 96 130
f 130 98 134
f 134 131 130
f 132 131 133
f 133 96 132
f 132 96 131
f 32 12 30
f 30 33 32
f 32 33 12
f 8 26 27
f 27 26 52
f 28 8 27
f 27 52 28
f 164 211 161
f 161 211 212
f 161 119 164
f 161 162 119
f 212 213 161
f 161 213 162
f 121 122 85
f 85 120 121
f 120 165 121
f 163 162 215
f 215 165 163
f 163 165 120
f 120 119 163
f 119 162 163
f 219 165 215
f 219 215 274
f 124 87 123
f 88 87 124
f 313 311 339
f 339 340 313
f 53 50 25
f 53 78 50
f 25 48 53
f 48 78 53
f 81 78 112
f 50 78 81
f 112 115 81
f 25 50 51
f 51 52 25
f 51 83 52
f 82 83 51
f 51 80 82
f 50 80 51
f 144 145 109
f 144 106 105
f 109 106 144
f 200 203 202
f 202 149 200
f 203 149 202
f 272 213 212
f 218 216 164
f 265 216 218
f 164 160 210
f 210 218 164
f 206 218 210
f 156 157 114
f 114 155 156
f 156 155 157
f 154 153 151
f 151 208 154
f 114 153 154
f 154 155 114
f 207 155 154
f 154 208 207
f 356 354 335
f 356 355 354
f 329 355 356
f 356 357 329
f 334 335 302
f 302 332 334
f 334 356 335
f 357 356 334
f 334 332 329
f 329 357 334
f 233 237 185
f 288 237 233
f 232 288 233
f 233 184 232
f 233 185 184
f 138 139 101
f 101 136 138
f 101 70 99
f 99 136 101
f 102 139 140
f 102 71 70
f 70 101 102
f 102 101 139
f 186 240 188
f 188 139 186
f 188 240 189
f 140 139 188
f 189 141 188
f 188 141 140
f 103 141 104
f 140 141 103
f 104 72 103
f 72 71 103
f 103 102 140
f 71 102 103
f 344 320 319
f 319 343 344
f 344 343 364
f 92 94 93
f 93 94 62
f 93 61 92
f 62 61 93
f 128 96 133
f 128 94 96
f 67 97 68
f 96 97 67
f 67 66 65
f 67 65 90
f 67 68 38
f 38 66 67
f 90 98 67
f 98 96 67
f 122 121 167
f 123 122 167
f 167 168 123
f 276 315 277
f 277 221 276
f 316 315 340
f 317 278 316
f 316 278 277
f 277 315 316
f 315 276 275
f 275 219 274
f 275 276 219
f 340 315 314
f 314 313 340
f 315 275 314
f 314 275 274
f 115 116 79
f 79 81 115
f 50 81 79
f 79 116 117
f 117 113 79
f 79 80 50
f 79 113 114
f 114 80 79
f 143 144 105
f 105 104 143
f 104 142 143
f 239 292 293
f 293 292 294
f 271 272 212
f 311 272 271
f 312 311 271
f 271 310 312
f 311 313 273
f 273 272 311
f 273 314 274
f 313 314 273
f 213 272 214
f 215 162 214
f 162 213 214
f 272 273 214
f 274 215 214
f 214 273 274
f 258 264 204
f 201 149 204
f 204 205 201
f 206 205 204
f 204 264 265
f 265 218 204
f 204 203 258
f 204 149 203
f 160 157 209
f 209 210 160
f 209 157 207
f 111 75 110
f 108 149 110
f 110 75 108
f 207 208 150
f 150 206 207
f 150 205 206
f 150 208 151
f 151 111 150
f 111 110 150
f 150 110 149
f 150 149 201
f 201 205 150
f 168 221 173
f 222 278 279
f 279 223 222
f 222 223 171
f 319 320 280
f 280 320 286
f 280 318 319
f 279 318 280
f 280 223 279
f 230 181 224
f 171 223 224
f 181 172 224
f 172 171 224
f 320 344 345
f 345 350 346
f 346 321 345
f 321 320 345
f 336 359 360
f 359 361 360
f 338 337 360
f 337 336 360
f 339 338 360
f 360 361 339
f 317 316 341
f 341 316 340
f 363 359 364
f 363 361 359
f 364 343 363
f 363 341 361
f 133 137 175
f 175 128 133
f 219 276 220
f 220 276 221
f 168 167 220
f 220 221 168
f 145 144 191
f 270 212 253
f 270 271 212
f 310 271 270
f 253 252 270
f 252 310 270
f 266 218 206
f 206 204 266
f 266 204 218
f 207 206 268
f 168 173 169
f 123 168 169
f 169 124 123
f 277 278 225
f 278 222 225
f 225 221 277
f 225 173 221
f 98 89 126
f 126 171 172
f 126 170 171
f 134 98 126
f 126 172 134
f 124 169 127
f 127 169 173
f 281 280 286
f 223 280 281
f 281 224 223
f 281 286 230
f 230 224 281
f 365 344 364
f 365 345 344
f 350 345 365
f 364 358 365
f 351 350 365
f 365 354 351
f 365 358 354
f 339 361 362
f 361 341 362
f 362 340 339
f 362 341 340
f 342 363 343
f 319 318 342
f 342 343 319
f 341 363 342
f 342 318 317
f 317 341 342
f 94 128 129
f 128 175 129
f 95 94 129
f 100 95 129
f 129 137 100
f 129 175 137
f 219 220 166
f 166 220 167
f 165 219 166
f 166 121 165
f 166 167 121
f 144 143 190
f 190 191 144
f 190 143 142
f 190 142 189
f 146 145 192
f 145 191 192
f 269 209 207
f 207 268 269
f 210 209 267
f 206 210 267
f 267 268 206
f 209 269 267
f 267 269 268
f 174 225 222
f 174 222 171
f 171 170 174
f 173 225 174
f 174 127 173
f 170 127 174
f 125 127 170
f 125 126 89
f 170 126 125
f 189 240 241
f 241 190 189
f 191 190 241
f 241 240 239
f 194 146 193
f 146 192 193
f 91 125 89
f 127 125 91
f 59 88 91
f 91 89 59
f 88 124 91
f 124 127 91
f 191 241 242
f 239 293 242
f 242 241 239
f 243 244 194
f 194 193 243
f 294 295 243
f 243 295 244
f 243 293 294
f 243 242 293
f 191 242 243
f 243 192 191
f 243 193 192

