# https://github.com/mikedh/trimesh
v -0.03727389 0.01208264 0.00058911
v 0.03870021 0.01166601 0.00680121
v 0.00299453 0.01577334 -0.03971401
v -0.00124851 0.03103003 0.02749234
v 0.01001461 0.03794986 -0.00867655
v 0.03099041 0.01116593 -0.02570369
v -0.02515750 0.01056225 0.02955737
v -0.02573629 0.01044021 -0.02885773
v 0.02180954 0.01072082 0.03244909
v -0.01850049 0.03292394 -0.01083070
v 0.02257765 0.03075020 0.01652760
v -0.02213028 0.03176691 0.01533009
v 0.02883514 0.02712243 -0.00790931
v 0.01688806 0.02686872 -0.02767373
v -0.00556342 0.04026432 0.00617523
v -0.00960765 0.02633739 -0.02927281
v -0.03022874 0.02048267 -0.01366958
v 0.01821080 0.00932967 -0.03700539
v 0.03703272 0.01097563 -0.00982389
v -0.03423915 0.01596913 0.01690863
v 0.03215630 0.01717549 0.02085838
v 0.01506985 0.02524383 0.02988396
v 0.00791597 0.03789201 0.01462247
v -0.00666286 0.01676819 0.03237084
v -0.00275390 0.03551978 -0.01763856
v -0.01310235 0.01105010 -0.03771890
v -0.02765006 0.02946611 0.00169817
v -0.02031546 0.02438570 0.02789037
v 0.01992695 0.03520567 0.00153147
v 0.00368559 0.02913339 -0.03009690
v 0.03105686 0.02537753 0.00856686
v 0.02656759 0.02452222 -0.01973312
v -0.01995041 0.02497379 -0.02302243
v -0.01223535 0.03336192 0.02218517
v -0.00160777 0.03954802 -0.00641029
v -0.01724306 0.03658926 0.00562751
v 0.03550281 0.01963928 -0.00154763
v 0.01001581 0.03338295 -0.02052721
v 0.00473815 0.02067022 0.03251032
v 0.00942205 0.03983525 0.00334815
v -0.03393793 0.02142264 0.00574658
v -0.00371848 0.03761840 0.01691543
v -0.03523672 0.01190701 -0.00980059
v 0.01210287 0.03312562 0.02298465
v 0.02408393 0.01629105 -0.03211910
v -0.01211624 0.03796862 -0.00458638
v -0.03072585 0.01073107 -0.02001994
v 0.01248243 0.01804906 -0.03759588
v -0.00985575 0.02659322 0.02968324
v 0.01832834 0.03272987 -0.01529599
v -0.02819224 0.02124231 0.02292681
v -0.00838878 0.01959710 -0.03626093
v -0.03013509 0.02513501 0.01395227
v -0.03226783 0.02228725 -0.00428644
v 0.02586089 0.01910630 0.02779171
v 0.03307937 0.02017363 -0.01236654
v -0.01621139 0.01206088 0.03135363
v -0.03723624 0.01054981 0.01033251
v -0.02206315 0.01833094 -0.02823966
v 0.02988212 0.01141106 0.02696162
v 0.00037335 0.02319881 -0.03546460
v 0.01865387 0.03477177 -0.00699445
v 0.01623706 0.01719415 0.03291176
v 0.00663581 0.02832193 0.02948592
v -0.03165622 0.01115610 0.02423659
v 0.02937759 0.02818201 0.00082385
v 0.02865467 0.02497644 0.01703110
v -0.02540488 0.02821702 -0.01004600
v 0.03641850 0.01281641 0.01510555
v 0.02318008 0.02597138 0.02385216
v -0.01266859 0.03295834 -0.01662662
v -0.01060125 0.03793243 0.01243837
v 0.01556685 0.03632187 0.01268671
v -0.00828661 0.03692403 -0.01141544
v -0.01506824 0.02140737 -0.03259172
v -0.00222512 0.01009416 -0.03891142
v 0.03803552 0.01119921 -0.00085676
v -0.02032357 0.00853981 -0.03396043
v 0.00062656 0.04001869 0.01067271
v 0.01001633 0.02634073 -0.03291499
v 0.00335256 0.04056591 -0.00085676
v 0.03518782 0.01145632 -0.01699192
v 0.03434011 0.01958822 0.01169332
v 0.01427915 0.01021713 0.03316351
v -0.02463619 0.02483930 -0.01761432
v 0.02845005 0.01778493 -0.02525105
v 0.02228639 0.02217042 -0.02858897
v 0.02283368 0.03325932 0.00767893
v -0.01981092 0.03018433 0.02182116
v -0.01518726 0.01901302 0.03121075
v 0.01682179 0.02150528 -0.03340776
v 0.01401711 0.03784426 -0.00146497
v -0.02316194 0.03328108 0.00589287
v 0.00015214 0.03532693 0.02191301
v -0.03007484 0.02700052 0.00755305
v 0.02305617 0.03099033 -0.01096251
v -0.02840598 0.01686100 -0.02059560
v 0.02683437 0.01041348 -0.03141929
v 0.00355211 0.03424688 -0.02049864
v -0.00116568 0.02326328 0.03182651
v 0.03478441 0.02097803 0.00474638
v 0.02149478 0.02695414 -0.02322031
v -0.02507466 0.02740161 0.01974932
v 0.01647050 0.03415787 0.01853140
v 0.00431159 0.03813751 -0.01133667
v -0.00737983 0.03976695 -0.00085979
v 0.01914829 0.01537760 -0.03607120
v -0.01530022 0.03519634 0.01538452
v 0.00626682 0.03518080 0.02146734
v 0.03243333 0.01767626 -0.01789553
v 0.01241522 0.01033917 -0.03857562
v -0.01542833 0.01629836 -0.03593441
v -0.01183624 0.03897090 0.00452525
v 0.01080764 0.02173356 0.03220754
v -0.01778244 0.02886755 -0.01906254
v -0.03394330 0.01736766 -0.00802212
v -0.02746180 0.01647592 0.02619616
v -0.00405800 0.01652229 -0.03854106
v -0.00166761 0.02730692 -0.03104824
v 0.02159116 0.02284665 0.02851975
v -0.02620578 0.02962753 -0.00383500
v -0.00200908 0.04085195 0.00100755
v -0.01472791 0.02967753 0.02570287
v 0.03424975 0.01194895 0.02023241
v -0.00676829 0.03408636 0.02306630
v -0.01711962 0.03650808 -0.00259280
v -0.02613645 0.03003820 0.01187023
v 0.02562745 0.01433369 0.03061199
f 78 7 58
f 76 18 78
f 78 58 47
f 24 57 84
f 9 63 84
f 84 57 7
f 84 7 78
f 78 18 84
f 111 76 3
f 18 76 111
f 111 107 18
f 43 58 1
f 43 47 58
f 26 76 78
f 78 112 26
f 3 76 26
f 3 80 48
f 48 111 3
f 107 111 48
f 90 57 24
f 7 57 90
f 90 28 7
f 7 28 117
f 1 58 41
f 41 95 54
f 54 95 27
f 2 124 60
f 83 101 31
f 2 101 83
f 14 50 102
f 91 45 107
f 107 48 91
f 91 48 80
f 80 14 91
f 6 110 82
f 18 107 98
f 107 45 98
f 45 6 98
f 116 43 1
f 1 41 116
f 116 41 54
f 38 14 80
f 50 14 38
f 105 81 5
f 5 38 105
f 50 38 5
f 3 26 118
f 118 26 112
f 16 119 75
f 112 59 75
f 122 81 35
f 35 81 105
f 51 117 28
f 67 11 70
f 67 83 31
f 122 35 106
f 15 79 122
f 15 72 79
f 122 106 15
f 72 15 113
f 113 15 106
f 89 28 123
f 100 90 24
f 18 98 19
f 19 6 82
f 19 98 6
f 19 84 18
f 50 5 62
f 69 124 2
f 2 83 69
f 45 91 87
f 87 91 14
f 87 14 102
f 102 32 87
f 86 6 45
f 110 6 86
f 86 32 110
f 45 87 86
f 86 87 32
f 85 59 97
f 47 43 97
f 78 47 8
f 8 112 78
f 8 59 112
f 47 97 8
f 8 97 59
f 40 73 29
f 40 5 81
f 122 79 40
f 40 81 122
f 29 73 88
f 88 67 31
f 11 67 88
f 30 38 80
f 61 30 80
f 119 30 61
f 61 80 3
f 3 118 61
f 33 59 85
f 33 75 59
f 74 71 10
f 85 68 10
f 103 28 89
f 103 51 28
f 20 41 58
f 21 60 124
f 124 69 21
f 21 67 70
f 83 67 21
f 21 69 83
f 46 35 74
f 46 106 35
f 46 10 126
f 74 10 46
f 126 113 46
f 46 113 106
f 93 27 95
f 126 27 93
f 49 123 28
f 4 123 49
f 28 90 49
f 90 100 49
f 89 123 34
f 79 109 23
f 23 40 79
f 73 40 23
f 120 22 63
f 70 44 120
f 120 44 22
f 39 100 24
f 24 84 39
f 39 84 63
f 121 27 126
f 126 10 121
f 121 10 68
f 54 27 121
f 121 68 54
f 2 60 77
f 77 60 9
f 9 84 77
f 84 19 77
f 37 77 19
f 37 101 2
f 2 77 37
f 85 97 17
f 17 116 54
f 43 116 17
f 17 97 43
f 54 68 17
f 17 68 85
f 29 62 92
f 92 40 29
f 92 62 5
f 5 40 92
f 105 38 99
f 38 30 99
f 52 75 119
f 119 61 52
f 112 75 52
f 52 118 112
f 52 61 118
f 75 33 115
f 16 75 115
f 115 71 16
f 115 10 71
f 115 33 85
f 85 10 115
f 51 103 53
f 53 20 51
f 95 41 53
f 41 20 53
f 117 51 65
f 51 20 65
f 7 117 65
f 65 58 7
f 65 20 58
f 89 34 108
f 108 34 72
f 125 123 4
f 125 34 123
f 104 23 109
f 109 44 104
f 73 23 104
f 11 88 104
f 104 88 73
f 70 11 104
f 104 44 70
f 9 60 128
f 128 63 9
f 128 120 63
f 100 39 114
f 63 22 114
f 114 39 63
f 110 32 56
f 82 110 56
f 56 19 82
f 56 37 19
f 105 99 25
f 25 35 105
f 74 35 25
f 25 99 30
f 25 71 74
f 25 30 119
f 25 119 16
f 16 71 25
f 127 53 103
f 127 93 95
f 95 53 127
f 36 113 126
f 126 93 36
f 72 113 36
f 36 108 72
f 4 109 94
f 94 125 4
f 94 109 79
f 120 128 55
f 55 21 70
f 70 120 55
f 60 21 55
f 55 128 60
f 100 114 64
f 4 49 64
f 64 49 100
f 64 114 22
f 22 44 64
f 64 109 4
f 64 44 109
f 13 56 32
f 37 56 13
f 12 103 89
f 12 127 103
f 89 108 12
f 93 127 12
f 12 36 93
f 108 36 12
f 42 94 79
f 125 94 42
f 79 72 42
f 72 34 42
f 34 125 42
f 96 13 32
f 102 50 96
f 96 32 102
f 50 62 96
f 96 62 29
f 101 37 66
f 37 13 66
f 31 101 66
f 66 88 31
f 29 88 66
f 66 96 29
f 13 96 66

