# https://github.com/mikedh/trimesh
v 0.00487572 -0.05694661 0.08829479
v -0.00424476 0.05721145 0.07575682
v 0.05817533 0.00385094 0.07461717
v -0.05615750 -0.00526718 0.07512684
v -0.00311059 -0.00184743 0.09266069
v 0.03772783 0.04234732 0.09131552
v -0.04217377 0.03576289 0.09202952
v 0.04415796 -0.03542510 0.09112100
v -0.03711404 -0.04265193 0.09057421
v 0.02766892 -0.04972208 0.07366905
v -0.01906475 -0.05387399 0.07487973
v 0.01171504 0.01980896 0.09245655
v 0.02083069 0.05286670 0.07452656
v -0.05211951 0.01980940 0.07480070
v 0.05088479 0.02809175 0.07461739
v -0.02826419 0.04928491 0.07568061
v 0.05443130 -0.02060382 0.07417149
v -0.05043146 -0.02186090 0.09229433
v -0.05325665 0.00727383 0.09252587
v 0.05274563 0.01523872 0.09159690
v 0.05388818 -0.00868524 0.09153841
v 0.00943527 0.05400201 0.09208079
v -0.04620633 -0.03262338 0.07491629
v -0.01741202 0.05230494 0.09229132
v 0.02197667 -0.05085667 0.09160399
v -0.01336919 -0.05313883 0.09207027
v 0.04220032 -0.03920478 0.07387937
v 0.03622223 0.04431801 0.07404634
v -0.03332878 -0.04458566 0.07404478
v -0.04373644 0.03550372 0.07509831
v -0.00310611 -0.05683102 0.07419561
v 0.01279402 -0.05615912 0.07459420
v 0.04879190 0.03068146 0.09006195
v -0.05121862 0.02311568 0.09046108
v 0.02486226 0.05117494 0.09116353
v -0.05573275 -0.00755070 0.09057421
v -0.03228904 0.04665964 0.09026393
v 0.05234707 -0.02331227 0.09024584
v -0.05309668 -0.02008459 0.07689680
v 0.03493440 -0.04562791 0.08800101
v -0.00425001 0.05681868 0.08970156
v -0.02663357 -0.05038431 0.08715484
v 0.05787911 0.00328232 0.08886597
v 0.00868011 0.05681289 0.07547701
v -0.01678225 0.05481405 0.07689676
v 0.05607245 0.01639099 0.07575698
v -0.05553928 0.00726958 0.07469849
v -0.04583663 -0.03317272 0.08974945
v 0.05773491 -0.00868848 0.07575637
v 0.04905947 -0.03034606 0.07383542
v 0.04495293 0.03704629 0.07575677
v 0.05594821 -0.01552751 0.08373456
v -0.03689827 0.04331696 0.07689629
v -0.04859181 0.02892748 0.08145637
v -0.05483332 0.01400901 0.08254492
v -0.00424958 -0.05618660 0.09133598
v 0.01285759 -0.05313620 0.09189247
v 0.02923783 0.04993780 0.07689665
v 0.03586946 -0.04545153 0.07575732
v 0.05308898 0.02327120 0.08715429
v -0.02498940 0.05098658 0.08715469
v 0.05805734 -0.00412639 0.08373461
v -0.04085180 -0.03957685 0.07575623
v 0.01735867 0.05473951 0.08829479
v 0.04410766 0.03737110 0.08715405
v 0.05722640 0.01069015 0.08487447
v -0.02668951 -0.05041403 0.07575692
v 0.03195620 0.04793205 0.08800101
v -0.05431985 -0.01552825 0.08829481
v 0.04908539 -0.03029774 0.08715447
v -0.01108339 -0.05647559 0.07575616
v 0.00487651 -0.05752645 0.07575732
v -0.01187173 0.05576639 0.08715361
v -0.05630488 0.00043445 0.08943468
v 0.02083693 -0.05389273 0.07462800
v -0.05211723 0.01525102 0.09245522
v -0.05647484 0.00157210 0.08031652
v -0.04715431 0.02979876 0.09138497
v -0.02931974 -0.04516128 0.09220598
v 0.00369067 0.05709726 0.08800101
v -0.05501539 -0.01288273 0.07513130
v -0.02020597 -0.04972059 0.09216328
v 0.03792977 -0.03945898 0.09161241
v 0.02881599 -0.04829777 0.09127919
v 0.05437177 -0.01590377 0.09109972
v -0.03902678 0.04091530 0.08822314
v -0.05212078 0.02209015 0.08145637
v -0.03989312 -0.03647241 0.09228080
v -0.02242078 0.05253338 0.08031663
v -0.04952651 0.02664673 0.07500704
v -0.04935719 -0.02767488 0.08829481
v 0.01181239 -0.05615288 0.08605356
v -0.04962163 -0.02692441 0.07485352
v -0.03243519 0.04679474 0.08031663
v -0.01897880 0.05361280 0.08601367
v -0.04496745 0.03441507 0.08145637
v -0.01108339 -0.05684305 0.08715464
v 0.05343837 0.02209126 0.07396640
v 0.05559547 0.01695157 0.08533317
v 0.05705541 -0.00288583 0.09067743
v -0.05499356 0.01363955 0.07575699
v 0.05575876 0.00953988 0.09123886
v 0.05597655 -0.01438896 0.07374697
v 0.00259364 0.05739496 0.07689676
v 0.01462510 0.05573034 0.07659148
v -0.01108317 0.05592015 0.07500482
v 0.05730894 -0.00298828 0.07371706
v 0.05691341 0.01069015 0.07391054
v -0.05607212 0.00749871 0.08145481
v 0.04362654 0.03348618 0.09175909
v 0.01741713 -0.05453298 0.08829479
v -0.00880767 0.05401166 0.09224284
v 0.00031353 0.05400541 0.09221698
v -0.04033309 0.03995181 0.08031663
v 0.04932863 0.02322827 0.09166116
v 0.04617747 -0.03507526 0.07575677
v 0.04164627 -0.03974762 0.08715447
v -0.05211876 -0.01211001 0.09244525
v -0.04527614 -0.02807005 0.09236027
v 0.04097600 0.04108271 0.07490569
v 0.00145456 -0.05427989 0.09191725
v -0.02134201 0.05172682 0.07487993
v -0.02304450 0.05000431 0.09228300
v 0.05202314 -0.02603652 0.07575637
v 0.05729821 -0.00868848 0.08715479
v -0.05325665 -0.00298524 0.09250139
v -0.00082555 -0.05720383 0.08715464
v 0.04883251 0.03187303 0.07803617
f 29 67 63
f 112 113 41
f 31 29 10
f 10 29 28
f 122 28 14
f 13 28 122
f 119 79 5
f 19 126 5
f 55 101 109
f 87 101 55
f 113 12 22
f 22 12 110
f 41 113 22
f 5 79 82
f 82 57 5
f 21 12 5
f 9 48 63
f 63 67 9
f 9 67 42
f 9 82 79
f 14 28 47
f 47 28 29
f 47 101 14
f 77 109 47
f 109 101 47
f 23 29 63
f 63 48 23
f 48 91 23
f 72 31 32
f 32 31 10
f 67 29 11
f 29 31 11
f 42 67 11
f 3 46 66
f 46 15 60
f 98 28 15
f 98 15 46
f 107 103 10
f 10 28 107
f 28 98 107
f 51 15 120
f 15 28 120
f 49 107 3
f 103 107 49
f 30 122 14
f 96 114 30
f 13 122 106
f 5 126 118
f 118 119 5
f 54 78 96
f 96 30 54
f 86 114 96
f 96 78 86
f 76 19 123
f 61 95 89
f 61 94 37
f 37 123 61
f 41 22 80
f 64 80 22
f 42 11 97
f 43 66 102
f 3 66 43
f 8 70 38
f 20 21 102
f 12 21 20
f 5 57 83
f 83 21 5
f 48 9 88
f 79 119 88
f 88 9 79
f 93 47 29
f 81 47 93
f 29 23 93
f 39 81 93
f 93 91 39
f 93 23 91
f 77 47 4
f 4 47 81
f 75 32 10
f 111 32 75
f 10 59 75
f 128 15 51
f 128 60 15
f 99 66 46
f 46 60 99
f 102 66 99
f 99 60 102
f 27 59 10
f 117 70 8
f 116 70 117
f 117 27 116
f 59 27 117
f 108 46 3
f 108 98 46
f 3 107 108
f 108 107 98
f 60 128 33
f 102 60 33
f 116 27 50
f 10 103 50
f 50 27 10
f 122 30 16
f 16 61 89
f 94 61 16
f 44 105 13
f 13 106 44
f 44 64 105
f 80 64 44
f 74 109 77
f 77 4 74
f 74 19 76
f 74 55 109
f 34 54 87
f 78 54 34
f 87 55 34
f 76 78 34
f 34 74 76
f 55 74 34
f 90 30 14
f 90 54 30
f 87 54 90
f 14 101 90
f 90 101 87
f 7 123 37
f 37 86 7
f 7 86 78
f 7 78 76
f 76 123 7
f 71 11 31
f 71 97 11
f 71 31 72
f 72 97 71
f 62 49 3
f 3 43 62
f 125 49 62
f 62 43 125
f 125 43 100
f 102 21 100
f 100 43 102
f 8 83 84
f 115 20 102
f 102 33 115
f 115 33 110
f 110 12 115
f 12 20 115
f 125 38 52
f 52 49 125
f 124 38 70
f 124 70 116
f 116 50 124
f 53 30 114
f 53 16 30
f 94 16 53
f 114 86 53
f 37 94 53
f 53 86 37
f 45 106 122
f 122 16 45
f 45 16 89
f 89 95 45
f 95 73 45
f 45 73 106
f 2 44 106
f 2 73 41
f 106 73 2
f 24 73 95
f 95 61 24
f 24 61 123
f 41 73 24
f 24 112 41
f 5 12 24
f 24 19 5
f 24 123 19
f 113 112 24
f 24 12 113
f 36 118 126
f 126 19 36
f 19 74 36
f 36 4 81
f 36 74 4
f 58 120 28
f 58 68 120
f 58 28 13
f 13 105 58
f 105 64 58
f 51 120 65
f 120 68 65
f 65 128 51
f 65 33 128
f 35 64 22
f 35 58 64
f 68 58 35
f 121 56 57
f 97 56 26
f 42 97 26
f 56 121 26
f 26 9 42
f 82 9 26
f 57 82 26
f 26 121 57
f 72 32 92
f 92 32 111
f 72 92 1
f 1 92 111
f 1 111 57
f 57 56 1
f 85 100 21
f 8 38 85
f 85 38 125
f 125 100 85
f 85 83 8
f 21 83 85
f 25 83 57
f 25 84 83
f 57 111 25
f 111 84 25
f 111 75 40
f 40 84 111
f 40 75 59
f 59 117 40
f 40 117 8
f 8 84 40
f 17 52 38
f 38 124 17
f 103 49 17
f 49 52 17
f 17 50 103
f 17 124 50
f 80 44 104
f 44 2 104
f 41 80 104
f 104 2 41
f 18 91 48
f 118 36 18
f 119 118 18
f 48 88 18
f 18 88 119
f 39 91 69
f 69 81 39
f 69 36 81
f 91 18 69
f 69 18 36
f 33 65 6
f 6 65 68
f 68 35 6
f 110 33 6
f 6 22 110
f 6 35 22
f 127 97 72
f 72 1 127
f 127 56 97
f 127 1 56

