# https://github.com/mikedh/trimesh
v -0.00047253 0.03139539 -0.05740982
v 0.00191133 -0.01832762 0.05928645
v -0.00167535 -0.03139739 -0.04904692
v -0.01909877 0.02520065 0.01903860
v 0.03183950 0.00063211 0.01664645
v 0.03151302 -0.00056518 -0.05263027
v -0.02536427 -0.01845231 0.02381350
v -0.03150999 0.00012156 -0.05672282
v -0.00242616 0.01917890 0.05795236
v 0.01099617 -0.02987754 0.02381273
v 0.01360083 0.02886402 0.02859504
v 0.01943121 0.00301973 0.05830579
v -0.02980745 0.00628338 0.03526724
v -0.02242986 0.02256907 -0.04546558
v -0.01838225 -0.00175940 0.05845836
v 0.02026405 -0.02251213 -0.05903159
v 0.02186367 0.02297277 -0.05024186
v -0.02346870 -0.02112686 -0.04785247
v 0.02752016 -0.01418566 0.03506097
v -0.00891494 -0.02960936 0.03457397
v 0.02869832 0.01180801 0.03503470
v -0.00645257 0.03007507 0.03542782
v -0.03129661 -0.00176041 0.01903624
v -0.01122370 -0.02325813 -0.06088326
v -0.01480742 0.02093307 -0.06078225
v -0.02154077 0.02168536 0.03535400
v 0.02460128 0.01138185 -0.06074532
v -0.02316944 -0.01250842 -0.06083475
v -0.02856824 0.01321026 0.02022565
v -0.02881192 -0.00892741 0.03557350
v 0.01564340 -0.01190679 0.05784645
v 0.00429351 -0.02445050 -0.06097778
v 0.01146096 0.02212545 -0.06094809
v 0.01214350 0.01562492 0.05799114
v -0.02758018 0.01493452 -0.05734393
v -0.01003641 0.03026051 -0.04666048
v 0.02433542 -0.02064910 0.02261747
v 0.01803425 -0.02504643 0.03516256
v -0.01183727 -0.01431222 0.05906257
v 0.02340057 -0.00892519 -0.06101108
v -0.01422293 0.01198529 0.05906003
v 0.03183502 -0.00175874 0.03098425
v -0.03030270 -0.00892796 -0.04665991
v 0.02490521 0.01995471 0.02500624
v 0.00429991 -0.03016183 0.03566146
v -0.02028796 -0.02275390 0.03528230
v 0.02653644 -0.01690455 -0.04904692
v 0.01015062 0.03005396 -0.05024186
v -0.01555928 -0.02752244 0.02381350
v 0.01246861 -0.02880821 -0.05143582
v -0.01372990 -0.02840945 -0.04904692
v -0.00167512 -0.03164456 0.02500607
v 0.02066376 0.02293978 0.03541489
v 0.02901658 0.01249374 -0.05024186
v -0.03124292 0.00541239 -0.04665364
v 0.03005184 -0.01090065 0.02381273
v 0.00190998 0.03172578 0.02859504
v -0.01481187 0.02793627 0.02858874
v -0.02131938 -0.02259774 -0.05784468
v -0.00404400 -0.03013109 -0.05869557
v -0.02978204 -0.00963235 0.02500607
v 0.02579585 0.00063215 -0.06099805
v -0.02761548 0.01485514 0.03098064
v -0.00998012 0.02904733 -0.05865575
v 0.00071573 0.03174652 -0.04785301
v -0.03127596 -0.00056428 0.02859075
v 0.02104818 0.02096365 -0.05955588
v -0.02238024 0.02252369 -0.05501466
v 0.03127498 0.00646902 0.02381701
v 0.02043734 -0.02386944 -0.04904692
v -0.02555859 0.00660013 -0.06073482
v -0.03023143 -0.00892796 -0.05621362
v 0.02998216 -0.00952987 -0.05329659
v 0.00763980 0.02998116 0.03530534
v -0.02339751 0.02110569 0.02620164
v -0.02436402 -0.00295109 -0.06091187
v -0.00609794 0.03114167 0.02500656
v -0.02622429 -0.01679037 0.03303324
v 0.02626755 -0.01650134 -0.05762019
v 0.00787724 0.02960377 -0.05880999
v 0.01866093 -0.02583759 0.02620323
v -0.02871016 0.01349386 -0.04665364
v -0.01708871 0.02715726 -0.05034993
v 0.01265553 -0.02583243 -0.06017757
v 0.00379344 -0.03103650 -0.05583314
v 0.03046235 0.00660453 -0.05731931
v -0.02706019 -0.01619182 -0.05382472
v 0.02431605 -0.02062726 0.03098425
v -0.03033879 0.00779917 0.02620164
v 0.01558509 0.02743937 -0.05621399
v 0.02894017 0.01348376 0.02739877
v 0.01923807 -0.00477764 0.05789566
v 0.00942925 -0.01653436 0.05886889
v 0.01087628 -0.02983224 0.03162032
v -0.02077417 0.01615135 -0.06072323
v 0.02616279 0.01759757 -0.05501956
v -0.01122967 -0.02917714 -0.05621362
v -0.01539947 -0.02742300 0.03145013
v -0.03092038 0.00718886 -0.05381767
v -0.00884153 -0.03033507 0.02620561
v -0.02454678 0.01981020 0.01903760
v 0.00549272 0.01857599 0.05845828
v 0.03136925 0.00540992 0.03217680
v 0.01702859 0.00989067 0.05818322
v 0.01949032 0.02532001 0.02620251
v -0.03006352 -0.00175975 0.03568226
v 0.03181338 -0.00295486 0.02381273
v 0.03002764 -0.00732635 0.03523214
v -0.01723361 0.00529692 0.05929340
v -0.03160536 -0.00175968 -0.04665991
v -0.00405625 0.02570868 -0.06081303
v -0.02105285 -0.02352471 0.02620561
v 0.02980227 -0.00534195 -0.05897836
v -0.00167512 -0.03152628 0.03217543
v -0.00574803 -0.01781594 0.05898176
v -0.00884139 0.01647608 0.05870105
v -0.01621480 -0.00888676 0.05843809
v 0.00430031 -0.03147658 0.02859374
v -0.01331984 0.02766168 0.03538703
v -0.01687442 0.02648593 -0.05731931
v 0.02556181 0.01863202 0.03337307
v -0.03097893 0.00506072 0.01903760
v -0.01600200 -0.01847640 -0.06097342
v 0.01442789 0.02748102 0.03514231
v -0.01912192 -0.02514978 -0.05143582
v 0.01982298 -0.01609166 -0.06098972
v 0.00495780 -0.03103445 -0.04904692
v 0.00071661 0.03099271 0.03505016
f 86 6 113
f 113 6 73
f 83 36 64
f 73 56 47
f 37 56 88
f 37 47 56
f 13 63 89
f 89 66 13
f 122 89 99
f 66 89 122
f 75 63 26
f 57 48 65
f 101 63 75
f 75 14 101
f 16 113 79
f 79 113 73
f 73 47 79
f 95 35 120
f 83 64 120
f 71 35 95
f 95 76 71
f 109 13 15
f 74 57 128
f 73 6 107
f 107 56 73
f 107 6 5
f 88 56 19
f 88 19 38
f 99 89 29
f 29 89 63
f 110 66 55
f 66 122 55
f 55 122 99
f 33 111 80
f 80 111 64
f 27 62 33
f 86 113 27
f 113 62 27
f 44 96 17
f 58 36 83
f 75 26 58
f 41 26 63
f 41 13 109
f 41 63 13
f 116 26 41
f 82 101 14
f 63 101 82
f 82 29 63
f 82 35 99
f 99 29 82
f 126 113 16
f 16 84 126
f 84 32 126
f 33 76 25
f 25 111 33
f 25 76 95
f 64 111 25
f 95 120 25
f 25 120 64
f 68 14 83
f 83 120 68
f 68 120 35
f 68 82 14
f 35 82 68
f 8 71 76
f 76 28 8
f 99 35 8
f 35 71 8
f 110 55 8
f 8 55 99
f 45 93 2
f 2 114 45
f 115 114 2
f 5 6 69
f 69 103 5
f 69 6 86
f 12 93 92
f 12 2 93
f 5 103 42
f 42 107 5
f 56 107 42
f 85 127 3
f 118 114 52
f 118 127 10
f 45 114 118
f 52 3 118
f 118 3 127
f 125 97 51
f 45 118 94
f 94 118 10
f 94 93 45
f 94 38 93
f 81 37 88
f 88 38 81
f 81 94 10
f 38 94 81
f 93 38 31
f 31 38 19
f 92 93 31
f 31 19 92
f 24 28 123
f 123 28 76
f 123 32 24
f 123 76 33
f 59 28 24
f 59 97 125
f 125 18 59
f 59 18 87
f 1 80 64
f 1 36 65
f 1 64 36
f 65 48 1
f 48 80 1
f 90 80 48
f 17 96 90
f 75 58 4
f 4 58 83
f 4 14 75
f 83 14 4
f 36 58 77
f 65 36 77
f 77 57 65
f 128 57 77
f 116 9 119
f 119 26 116
f 119 58 26
f 40 62 113
f 113 126 40
f 33 62 40
f 40 123 33
f 40 126 32
f 32 123 40
f 72 8 28
f 72 59 87
f 28 59 72
f 87 43 72
f 72 43 110
f 110 8 72
f 86 96 54
f 54 69 86
f 103 69 91
f 69 54 91
f 91 44 121
f 96 44 91
f 91 54 96
f 21 12 103
f 21 91 121
f 103 91 21
f 2 12 102
f 102 41 109
f 109 2 102
f 116 41 102
f 102 9 116
f 102 124 74
f 34 124 102
f 102 74 128
f 128 9 102
f 74 124 11
f 48 57 11
f 57 74 11
f 11 90 48
f 92 19 108
f 108 12 92
f 108 19 56
f 56 42 108
f 103 12 108
f 108 42 103
f 85 3 60
f 60 3 97
f 24 32 60
f 60 59 24
f 97 59 60
f 60 84 85
f 60 32 84
f 20 114 115
f 39 20 115
f 46 20 39
f 39 2 109
f 115 2 39
f 10 127 50
f 50 81 10
f 50 127 85
f 50 84 16
f 85 84 50
f 67 90 96
f 67 96 86
f 86 27 67
f 80 90 67
f 33 80 67
f 67 27 33
f 22 77 58
f 58 119 22
f 128 77 22
f 22 9 128
f 22 119 9
f 34 102 104
f 104 102 12
f 12 21 104
f 104 21 121
f 17 90 105
f 90 11 105
f 105 44 17
f 121 44 105
f 105 11 124
f 125 51 49
f 106 15 13
f 106 30 15
f 13 66 106
f 66 30 106
f 61 30 66
f 61 43 87
f 109 15 117
f 117 39 109
f 15 30 117
f 70 50 16
f 81 50 70
f 37 81 70
f 47 37 70
f 16 79 70
f 70 79 47
f 121 105 53
f 53 105 124
f 53 124 34
f 53 104 121
f 34 104 53
f 98 20 46
f 100 49 51
f 100 51 97
f 20 98 100
f 100 98 49
f 100 3 52
f 97 3 100
f 52 114 100
f 114 20 100
f 112 18 125
f 125 49 112
f 112 98 46
f 49 98 112
f 23 66 110
f 23 61 66
f 110 43 23
f 43 61 23
f 46 39 78
f 39 117 78
f 78 117 30
f 78 112 46
f 30 61 78
f 78 61 87
f 87 18 7
f 7 78 87
f 18 112 7
f 112 78 7

