# https://github.com/mikedh/trimesh
v 0.12130883 -0.07049517 -0.03321254
v -0.12076463 0.07640386 0.17358424
v -0.12403993 0.07602569 -0.16533439
v 0.12545678 0.07746986 0.16404852
v -0.10758621 -0.08124960 0.00393521
v 0.09976071 0.07713089 -0.17712875
v 0.00154256 -0.07827804 0.16763316
v -0.01665656 -0.07793312 -0.16324021
v 0.12340456 -0.05867806 0.10764995
v 0.12241996 0.08032074 0.02938185
v 0.11518383 -0.05684539 -0.16430701
v -0.12143805 -0.06776056 0.13489693
v 0.00242552 0.05043828 0.18402915
v -0.12219913 -0.06047232 -0.11242909
v -0.01665245 0.07764652 -0.18040040
v 0.12705328 0.07958216 -0.07601384
v 0.08156281 -0.05683678 0.17853741
v 0.10702754 -0.08105158 0.04029635
v -0.08575673 -0.05683360 -0.17363228
v -0.12398374 -0.05230597 0.06577326
v -0.06392948 -0.05683867 0.17775372
v 0.04155900 0.04136420 -0.17835288
v 0.04883039 -0.06048429 -0.17304207
v 0.11379694 -0.07771444 -0.10151827
v 0.06337371 0.07764494 0.18499480
v -0.05665791 0.07624718 0.18415609
v -0.11763576 -0.07430162 -0.05423028
v -0.10574523 -0.01847301 0.17670210
v 0.12710665 0.07961170 -0.13060392
v -0.12836841 0.07683346 0.12034298
v 0.12342037 -0.03003633 0.15145597
v 0.10638004 -0.08088439 0.14580840
v -0.03847896 0.03044662 0.18241954
v -0.08212493 0.07409894 -0.18032126
v 0.12158563 0.08018779 0.12034298
v 0.04519639 -0.07841962 0.16763316
v -0.12396312 -0.04788620 -0.02027432
v -0.10030853 -0.08235797 -0.14154568
v -0.10695662 -0.06047633 0.17371212
v 0.05610179 0.07987574 -0.17669229
v -0.12038228 -0.04881212 -0.15445091
v 0.12464616 -0.05684641 0.00392881
v 0.08519913 -0.08068771 -0.15492225
v -0.10959139 -0.08058688 0.04393239
v -0.11596085 -0.07622062 0.09487756
v 0.03987505 0.04257277 0.18403973
v 0.12359929 -0.06322765 0.06940340
v 0.12457499 -0.06048017 -0.06874633
v 0.02506477 0.07956523 0.18401857
v -0.05303314 -0.08066563 -0.15833710
v 0.12341049 -0.02244383 -0.15428194
v -0.02756202 -0.05683867 0.17834920
v -0.12396125 -0.03326581 0.14416406
v -0.12395937 -0.05502809 0.02375214
v -0.08212025 -0.08140327 0.16036411
v 0.12403129 -0.06048017 -0.13060392
v 0.00881913 -0.05684584 -0.17379491
v 0.11395744 -0.05684035 0.17013359
v 0.09975190 0.07409624 0.18494190
v -0.02392624 0.07699584 0.18446808
v 0.02336947 -0.05683678 0.17866436
v -0.03343077 0.05029438 -0.17979366
v 0.10702754 -0.08101922 0.00760552
v 0.12438618 -0.05684641 0.03668285
v -0.12130120 -0.06776056 -0.08335157
v 0.02701225 -0.07769711 -0.16281922
v -0.11419155 -0.07771125 -0.02514753
v 0.12365762 0.07964125 -0.15974095
v -0.03848328 -0.06048552 -0.17381504
v 0.07792527 -0.05963066 -0.17256196
v 0.10166848 -0.03370954 -0.17249770
v -0.12780227 0.07624806 -0.13789091
v -0.04432824 -0.07686029 0.16946507
v 0.10613281 -0.08074011 -0.13427083
v 0.07064935 -0.08147361 0.16034795
v -0.10681933 -0.07056828 -0.16588806
v 0.09611408 -0.07671397 0.16930011
v 0.03064261 0.07654517 -0.18001090
v -0.12880330 0.07409670 0.14580481
v -0.10737390 -0.07961489 0.15663642
v -0.07848731 -0.07985405 -0.16025133
v 0.11552756 -0.07636206 0.09123108
v -0.02392624 0.05227528 0.18372640
v 0.12465902 -0.05684641 -0.09423286
v 0.12109297 -0.06776119 0.13124534
v -0.12058511 -0.06660440 -0.13789091
v -0.10750365 -0.08104214 0.12033337
v 0.10702754 -0.08097203 -0.01786184
v 0.11400887 -0.07783984 -0.05422615
v -0.11783628 -0.07447834 0.06942177
v 0.10889943 -0.08051359 0.06576371
v -0.12171361 -0.05684283 0.15671268
v 0.05974767 -0.06411853 0.17778936
v -0.10031550 0.07410692 0.18239610
v 0.00102676 -0.05735245 0.17855959
v 0.10714477 -0.07773449 -0.15622430
v -0.12247282 -0.06411644 0.11305082
v -0.01665245 -0.05683360 -0.17400347
v -0.06393590 -0.06048552 -0.17366055
v 0.02336947 -0.07837648 0.16763316
v -0.08576335 -0.05683867 0.17730086
v -0.12268466 -0.06411644 0.04757323
v -0.10759086 0.07410646 -0.17830862
v -0.12397436 -0.05196937 0.00032605
v 0.06701200 -0.07609700 -0.16424429
v -0.10367343 -0.04620432 -0.17187935
v 0.12476281 -0.05684641 -0.01784024
v 0.12032065 -0.06725673 0.15309659
v 0.12080181 -0.07116151 0.02211420
v -0.02393424 -0.07694192 0.16956583
v -0.11353102 -0.07725599 -0.11971683
v 0.09611540 -0.06776133 -0.16992539
v 0.11535096 -0.07620025 0.11305583
v 0.12069585 -0.07102802 0.05122417
v 0.12482706 -0.05684641 -0.04694379
v 0.11945970 -0.07289547 -0.08333611
v -0.10228324 -0.03769710 0.17678347
v -0.12251031 -0.06411644 -0.03604363
v 0.12130803 -0.06636345 -0.14892054
v -0.11428591 -0.07776312 0.02576406
v -0.12086254 -0.07043876 -0.00332003
v 0.04155857 -0.06047766 0.17841953
v 0.12404908 0.07981851 0.14579603
v 0.11956566 -0.07304379 -0.00332229
v 0.04519939 -0.07628515 -0.16446945
v -0.03484485 -0.07982043 -0.16001625
v 0.12341345 -0.04799834 -0.15066494
v 0.12363587 -0.06048017 0.08758894
f 38 55 87
f 4 49 25
f 79 53 92
f 79 72 54
f 59 4 25
f 31 4 108
f 30 72 79
f 25 49 60
f 49 26 60
f 80 92 12
f 80 87 55
f 38 87 5
f 5 111 38
f 20 53 79
f 79 54 20
f 58 77 108
f 108 4 58
f 4 59 58
f 17 58 59
f 77 58 17
f 75 55 38
f 38 111 76
f 76 111 86
f 51 68 29
f 49 4 123
f 123 35 49
f 4 16 123
f 49 35 10
f 29 68 10
f 10 16 29
f 35 123 10
f 10 123 16
f 2 26 49
f 49 30 2
f 94 26 2
f 2 30 79
f 79 92 2
f 46 59 25
f 46 17 59
f 92 80 39
f 39 2 92
f 39 80 55
f 55 73 39
f 45 80 12
f 87 80 45
f 86 111 27
f 97 20 54
f 53 20 97
f 12 92 97
f 97 92 53
f 104 54 72
f 72 37 104
f 77 17 93
f 36 75 77
f 55 75 36
f 8 126 81
f 81 76 8
f 38 76 81
f 8 76 99
f 99 76 19
f 3 76 41
f 41 76 86
f 41 72 3
f 86 72 41
f 40 68 6
f 3 72 40
f 40 30 49
f 72 30 40
f 49 10 40
f 40 10 68
f 19 76 106
f 106 76 3
f 6 68 11
f 68 51 11
f 9 31 108
f 96 11 119
f 112 11 96
f 96 105 112
f 43 105 96
f 13 60 26
f 26 83 13
f 25 60 13
f 13 46 25
f 52 46 13
f 13 83 52
f 17 46 61
f 94 2 28
f 2 39 28
f 111 5 44
f 44 5 87
f 87 45 44
f 86 27 65
f 65 27 121
f 121 118 65
f 67 27 111
f 111 44 67
f 121 27 90
f 12 121 90
f 90 45 12
f 27 67 90
f 14 72 86
f 14 37 72
f 86 65 14
f 14 65 118
f 14 104 37
f 14 118 54
f 54 104 14
f 102 118 121
f 102 121 12
f 12 97 102
f 102 97 54
f 54 118 102
f 77 93 110
f 110 93 73
f 110 36 77
f 7 73 55
f 7 110 73
f 126 43 50
f 50 81 126
f 50 43 38
f 38 81 50
f 19 34 62
f 62 99 19
f 103 106 3
f 103 34 19
f 19 106 103
f 15 62 34
f 34 103 15
f 3 40 15
f 15 103 3
f 127 51 29
f 119 11 127
f 127 11 51
f 8 112 125
f 112 105 125
f 66 105 43
f 66 126 8
f 66 43 126
f 8 125 66
f 66 125 105
f 77 75 32
f 108 77 32
f 33 83 26
f 95 46 52
f 95 61 46
f 122 93 17
f 17 61 122
f 61 95 122
f 52 93 122
f 122 95 52
f 94 28 117
f 117 28 39
f 45 90 120
f 120 90 67
f 120 44 45
f 120 67 44
f 55 36 100
f 100 7 55
f 36 110 100
f 110 7 100
f 78 40 6
f 78 15 40
f 62 15 78
f 85 9 108
f 4 31 64
f 115 84 29
f 29 16 115
f 115 16 107
f 48 47 1
f 84 115 48
f 107 47 48
f 48 115 107
f 119 1 116
f 1 124 116
f 43 96 74
f 38 43 74
f 101 117 39
f 101 39 73
f 73 93 101
f 101 33 26
f 101 26 94
f 94 117 101
f 71 70 6
f 112 70 71
f 6 11 71
f 71 11 112
f 6 70 22
f 22 78 6
f 62 78 22
f 9 85 128
f 128 85 47
f 47 64 128
f 31 9 128
f 128 64 31
f 47 85 114
f 42 47 107
f 42 64 47
f 4 64 42
f 42 16 4
f 107 16 42
f 56 1 119
f 56 48 1
f 84 48 56
f 119 127 56
f 29 84 56
f 56 127 29
f 63 75 38
f 21 93 52
f 21 101 93
f 33 101 21
f 52 83 21
f 83 33 21
f 99 62 69
f 62 98 69
f 69 112 8
f 8 99 69
f 57 69 98
f 57 98 62
f 62 22 57
f 109 124 1
f 109 114 124
f 1 47 109
f 47 114 109
f 38 74 88
f 88 63 38
f 18 32 75
f 75 63 18
f 23 22 70
f 23 57 22
f 69 57 23
f 23 70 112
f 112 69 23
f 89 116 124
f 24 88 74
f 24 89 88
f 116 89 24
f 119 116 24
f 24 96 119
f 24 74 96
f 91 18 63
f 63 88 91
f 88 89 91
f 32 18 91
f 82 89 124
f 82 91 89
f 124 114 82
f 32 91 113
f 91 82 113
f 108 32 113
f 113 85 108
f 113 114 85
f 113 82 114

