# https://github.com/mikedh/trimesh
v 0.00105104 -0.03717761 -0.04180216
v 0.00366232 -0.03689934 -0.04039671
v 0.00161998 -0.03682612 -0.03894516
v -0.00164777 -0.03714832 -0.04126456
v -0.00249388 -0.03681147 -0.04379132
v 0.00097080 -0.03676021 -0.04413693
v 0.00429690 -0.03678218 -0.04284667
v 0.00779077 -0.03624031 -0.04124152
v 0.00493878 -0.03630621 -0.03816178
v -0.00298988 -0.03678950 -0.03892212
v -0.00581998 -0.03685541 -0.04121080
v -0.00544069 -0.03664305 -0.04341500
v -0.00439764 -0.03588149 -0.04578048
v -0.00038589 -0.03596937 -0.04609536
v 0.00366232 -0.03625495 -0.04510463
v 0.00698842 -0.03580827 -0.04488958
v 0.00833782 -0.03603527 -0.04282362
v 0.01172228 -0.03514190 -0.04096503
v 0.00849100 -0.03563252 -0.03839987
v -0.00535316 -0.03663573 -0.03927540
v -0.00841668 -0.03603527 -0.03894516
v -0.01144372 -0.03531032 -0.03926004
v -0.00894914 -0.03614511 -0.04227066
v -0.00833644 -0.03581559 -0.04449790
v -0.00760703 -0.03463664 -0.04694018
v -0.00416423 -0.03487829 -0.04737026
v -0.00116636 -0.03412405 -0.04841476
v 0.00249527 -0.03555197 -0.04664065
v 0.00573384 -0.03525907 -0.04647169
v 0.00953405 -0.03463664 -0.04608768
v 0.01137216 -0.03466593 -0.04476670
v 0.01189734 -0.03501010 -0.04300027
v 0.01423144 -0.03399957 -0.03975157
v 0.01116063 -0.03492955 -0.03857651
v 0.01432626 -0.03414602 -0.04184057
v -0.01477711 -0.03386044 -0.03818483
v -0.01320159 -0.03495152 -0.04088055
v -0.01467500 -0.03416799 -0.04309243
v -0.01118113 -0.03507600 -0.04434429
v -0.01296089 -0.03367005 -0.04602624
v -0.01092584 -0.03280598 -0.04805380
v -0.00587834 -0.03345769 -0.04863748
v -0.00201977 -0.03233000 -0.04979718
v 0.00229833 -0.03296707 -0.04939782
v 0.00232750 -0.03428515 -0.04821508
v 0.00469808 -0.03493687 -0.04717058
v 0.00886300 -0.03415334 -0.04711682
v 0.01167122 -0.03287920 -0.04759299
v 0.01387403 -0.03294511 -0.04633345
v 0.01513591 -0.03353824 -0.04358396
v 0.01823589 -0.03211764 -0.04106487
v 0.01705425 -0.03250575 -0.03913716
v 0.01871001 -0.03170025 -0.04339196
v -0.01770933 -0.03263023 -0.03879156
v -0.01659334 -0.03351627 -0.04100343
v -0.01844604 -0.03241055 -0.04280058
v -0.01795733 -0.03216890 -0.04474366
v -0.01691428 -0.03187599 -0.04625664
v -0.01652769 -0.03051398 -0.04807683
v -0.01685593 -0.02893961 -0.04926725
v -0.01056114 -0.03104854 -0.04958214
v -0.00826350 -0.03202977 -0.04936710
v -0.00430282 -0.03109979 -0.05032711
v 0.00177315 -0.03116570 -0.05041928
v 0.00655077 -0.03185403 -0.04978183
v 0.00535455 -0.03367737 -0.04848389
v 0.00922770 -0.03260094 -0.04869125
v 0.01324674 -0.03047737 -0.04929029
v 0.01666037 -0.02940826 -0.04883717
v 0.01620084 -0.03098995 -0.04745474
v 0.01725119 -0.03205906 -0.04490494
v 0.02127023 -0.03018446 -0.04181753
v 0.02222575 -0.02928377 -0.03978997
v 0.01949047 -0.03060185 -0.03740913
v 0.01954153 -0.03029430 -0.04573439
v 0.02232787 -0.02902748 -0.04411389
v -0.02017473 -0.03114373 -0.03856115
v -0.02105732 -0.03099727 -0.04167161
v -0.02210766 -0.02999407 -0.04392957
v -0.02183049 -0.02946684 -0.04554239
v -0.01988297 -0.02904944 -0.04797699
v -0.02009450 -0.02682336 -0.04948998
v -0.01653499 -0.02750436 -0.05007367
v -0.01160419 -0.02932039 -0.05022727
v -0.00799362 -0.03040414 -0.05028871
v -0.00628681 -0.02938629 -0.05078792
v 0.00119692 -0.02908606 -0.05107209
v 0.00454490 -0.03019178 -0.05072648
v 0.00874629 -0.03057988 -0.05020423
v 0.01456697 -0.02839773 -0.05019655
v 0.01835989 -0.02740185 -0.04949766
v 0.02027094 -0.02820734 -0.04776195
v 0.02441397 -0.02762153 -0.04265466
v 0.02590197 -0.02632541 -0.04156408
v 0.02496103 -0.02694052 -0.03963637
v 0.02317398 -0.02733594 -0.04607232
v 0.02610620 -0.02565905 -0.04411389
v -0.02273495 -0.02964258 -0.03945973
v -0.02450742 -0.02843434 -0.04206329
v -0.02627988 -0.02662564 -0.04290811
v -0.02611941 -0.02544669 -0.04485886
v -0.02136367 -0.02797301 -0.04772355
v -0.02163355 -0.02574692 -0.04902918
v -0.02475542 -0.02155104 -0.04932870
v -0.02452200 -0.02029154 -0.04998919
v -0.02108649 -0.02426775 -0.05001990
v -0.01916815 -0.02440688 -0.05048071
v -0.01695075 -0.02459726 -0.05081096
v -0.01361736 -0.02624487 -0.05088009
v -0.00851150 -0.02699910 -0.05111817
v -0.00393811 -0.02616432 -0.05141769
v 0.00888488 -0.02817073 -0.05106441
v 0.00149598 -0.02628148 -0.05150986
v 0.00606937 -0.02560779 -0.05155593
v 0.01219639 -0.02825128 -0.05068808
v 0.01686460 -0.02605448 -0.05060360
v 0.02164952 -0.02573960 -0.04894469
v 0.02077423 -0.02448010 -0.05005063
v 0.02464009 -0.02464852 -0.04758531
v 0.02709090 -0.02493411 -0.04041206
v 0.02809019 -0.02387964 -0.04267770
v 0.02662408 -0.02428971 -0.04565760
v 0.02934477 -0.02153639 -0.04472062
v -0.02576929 -0.02705768 -0.03932916
v -0.02776787 -0.02540276 -0.04086519
v -0.02854104 -0.02447278 -0.04247034
v -0.02809610 -0.02295699 -0.04505854
v -0.02440530 -0.02396019 -0.04807683
v -0.02811798 -0.02078948 -0.04668673
v -0.02803046 -0.01837300 -0.04819971
v -0.02647682 -0.01757483 -0.04986631
v -0.02603188 -0.01491670 -0.05071112
v -0.02288084 -0.02078215 -0.05044232
v -0.02240672 -0.01958856 -0.05078024
v -0.01905874 -0.01903204 -0.05124873
v -0.01366112 -0.02338903 -0.05127177
v -0.01223148 -0.02165355 -0.05149450
v -0.00076519 -0.02425310 -0.05164810
v 0.01031452 -0.02456797 -0.05152522
v 0.01527449 -0.02412129 -0.05128713
v 0.01104393 -0.02185127 -0.05176330
v 0.01922059 -0.02247369 -0.05111048
v 0.02301351 -0.02132403 -0.05045768
v 0.02463280 -0.02180733 -0.04956678
v 0.02575609 -0.02252495 -0.04836100
v 0.02844760 -0.02166088 -0.04624896
v 0.02946877 -0.02215882 -0.04127224
v 0.02853513 -0.02274463 -0.03868403
v 0.03035865 -0.02092129 -0.04249338
v 0.03166429 -0.01837300 -0.04406013
v 0.03086194 -0.01758215 -0.04658689
v -0.02815446 -0.02399681 -0.03750897
v -0.03093350 -0.02114097 -0.03934452
v -0.03018221 -0.02253960 -0.04141816
v -0.03061256 -0.02097987 -0.04366076
v -0.03223184 -0.01963250 -0.04134136
v -0.03125444 -0.01777986 -0.04521215
v -0.02997068 -0.01385491 -0.04850692
v -0.02800857 -0.01438947 -0.04985863
v -0.02859939 -0.00993729 -0.05070344
v -0.02634552 -0.00898534 -0.05117193
v -0.02390201 -0.01463112 -0.05106441
v -0.02212225 -0.01143111 -0.05142538
v -0.01836580 -0.01694508 -0.05143305
v -0.02463142 -0.00333224 -0.05152522
v -0.02059050 0.01454239 -0.05177866
v 0.01879754 -0.02059909 -0.05142538
v 0.02441397 -0.00503842 -0.05193994
v 0.01782742 -0.01704760 -0.05178634
v 0.02286763 -0.01864394 -0.05114889
v 0.02613538 -0.01761144 -0.05039624
v 0.02698149 -0.01996202 -0.04902918
v 0.02903113 -0.01904668 -0.04774659
v 0.03092029 -0.01989611 -0.04022006
v 0.03262711 -0.01714279 -0.04260858
v 0.03245934 -0.01747963 -0.04140280
v 0.03204358 -0.01766270 -0.03919860
v 0.03388169 -0.01411121 -0.04364540
v 0.03223323 -0.01634462 -0.04539647
v 0.03282405 -0.01325445 -0.04687105
v 0.02930101 -0.01619817 -0.04905989
v -0.03253090 -0.01841694 -0.03882228
v -0.03264032 -0.01839497 -0.04270842
v -0.03358125 -0.01591258 -0.04346108
v -0.03409913 -0.01605904 -0.04158713
v -0.03369066 -0.01671075 -0.04008182
v -0.03346455 -0.01364256 -0.04481278
v -0.03121068 -0.00958580 -0.04862212
v -0.03277890 -0.01077939 -0.04670209
v -0.02830763 0.00302383 -0.05137929
v -0.02972998 -0.00749884 -0.05008903
v -0.03022597 0.00200598 -0.05041160
v -0.02329660 0.01349525 -0.05164810
v -0.02155332 0.01635109 -0.05162506
v -0.00917526 0.02444996 -0.05176330
v -0.00571787 0.02392272 -0.05177866
v 0.02143070 -0.01667414 -0.05154825
v 0.02200693 0.01106412 -0.05181706
v 0.02539138 0.00116388 -0.05187082
v 0.02745561 -0.00186771 -0.05156361
v 0.02730973 -0.00850204 -0.05137929
v 0.02469845 -0.00915376 -0.05173258
v 0.02232787 -0.01140914 -0.05184010
v 0.01148887 0.02239961 -0.05177098
v 0.02579985 -0.01430160 -0.05116425
v 0.02889254 -0.01392814 -0.05011975
v 0.02811937 -0.01105765 -0.05096457
v 0.03402028 -0.01434553 -0.04198649
v 0.03337840 -0.01525354 -0.03983606
v 0.03491016 -0.01170205 -0.04321531
v 0.03345863 -0.01372311 -0.04540415
v 0.03461839 -0.01077207 -0.04516606
v 0.03132876 -0.01271990 -0.04878341
v 0.03340758 -0.01030342 -0.04744706
v -0.03486501 -0.01384027 -0.03959797
v -0.03499630 -0.01322516 -0.04276219
v -0.03571112 -0.01187779 -0.04148728
v -0.03556524 -0.00832630 -0.04425213
v -0.03388031 -0.00664209 -0.04652545
v -0.03226832 -0.00463568 -0.04822276
v -0.02785540 0.00743940 -0.05116425
v -0.03010927 0.00476663 -0.05057288
v -0.03218079 0.00124443 -0.04874500
v -0.02375613 0.01562614 -0.05129481
v -0.01972250 0.01848930 -0.05155593
v -0.02204931 0.01863576 -0.05120265
v -0.01650581 0.02176986 -0.05147913
v -0.01309218 0.02519687 -0.05117193
v -0.00989008 0.02803806 -0.05086473
v -0.00487905 0.03002251 -0.05094153
v -0.00649833 0.02677856 -0.05144841
v -0.00347129 0.02788429 -0.05134857
v 0.00049669 0.02702753 -0.05149450
v 0.00562443 0.02516025 -0.05169418
v 0.01815565 0.01591905 -0.05179402
v 0.02211634 0.01501836 -0.05160202
v 0.02412951 0.00843528 -0.05178634
v 0.02574150 0.00545496 -0.05170954
v 0.02771819 0.00382933 -0.05147145
v 0.02983348 -0.00094505 -0.05106441
v 0.02944689 -0.00579998 -0.05100296
v 0.01253921 0.02492593 -0.05139466
v 0.01732413 0.02162341 -0.05145609
v 0.01969471 0.01884812 -0.05152522
v 0.03051182 -0.00903660 -0.05022727
v 0.03473510 -0.01244164 -0.04143352
v 0.03448710 -0.01174599 -0.03857651
v 0.03590944 -0.00763797 -0.04353020
v 0.03569062 -0.00919770 -0.04104184
v 0.03530404 -0.00773316 -0.04540415
v 0.03243746 -0.00892676 -0.04893702
v 0.03345863 -0.00571211 -0.04865284
v 0.03488098 -0.00601966 -0.04684802
v -0.03589347 -0.01058168 -0.03896820
v -0.03654265 -0.00919037 -0.04077303
v -0.03668123 -0.00753545 -0.04266234
v -0.03653535 -0.00359586 -0.04407549
v -0.03560900 -0.00142103 -0.04554239
v -0.02676129 0.01267511 -0.05073416
v -0.02881092 0.00875016 -0.05054983
v -0.03406266 0.00200598 -0.04712450
v -0.03534642 0.00311903 -0.04587264
v -0.03212973 0.00639226 -0.04855300
v -0.03135655 0.00929204 -0.04865284
v -0.02539000 0.01661470 -0.05042696
v -0.01870862 0.02248748 -0.05101832
v -0.02298295 0.01969755 -0.05051912
v -0.01514911 0.02732776 -0.04991239
v -0.00738821 0.03090855 -0.05026567
v -0.00026190 0.03135523 -0.05052680
v 0.00005904 0.03053509 -0.05086473
v 0.00252444 0.03037399 -0.05089545
v 0.00598913 0.02751815 -0.05134089
v 0.02530385 0.01315840 -0.05134857
v 0.02778384 0.00925542 -0.05117961
v 0.02946877 0.00338264 -0.05111048
v 0.03137252 0.00272360 -0.05039624
v 0.03141629 -0.00172858 -0.05043464
v 0.03202900 -0.00499449 -0.04990470
v 0.01040205 0.02793555 -0.05104137
v 0.01733872 0.02414973 -0.05105673
v 0.02283116 0.01911905 -0.05104137
v 0.03528945 -0.00912447 -0.03852275
v 0.03625227 -0.00408648 -0.04449021
v 0.03689415 -0.00139173 -0.04246266
v 0.03633979 -0.00606360 -0.04108024
v 0.03323981 -0.00137709 -0.04923654
v 0.03476427 -0.00245352 -0.04760835
v 0.03577086 -0.00150157 -0.04621056
v -0.03726476 -0.00129654 -0.03833843
v -0.03719182 -0.00446725 -0.03912180
v -0.03681253 -0.00748419 -0.03963637
v -0.03742523 -0.00504575 -0.04153336
v -0.03746170 -0.00125993 -0.04245498
v -0.03686359 0.00157395 -0.04392189
v -0.02922669 0.01356847 -0.04908293
v -0.02782622 0.01629250 -0.04913669
v -0.03450760 0.00720508 -0.04606464
v -0.03582783 0.00658997 -0.04454397
v -0.03282266 0.01567008 -0.04598016
v -0.02696552 0.01958038 -0.04832260
v -0.02415001 0.02133050 -0.04919813
v -0.02039355 0.02364446 -0.04992006
v -0.01946721 0.02660282 -0.04873732
v -0.01687051 0.02903395 -0.04831492
v -0.01084560 0.03033738 -0.04962822
v -0.01061219 0.03187514 -0.04861445
v -0.00681198 0.03414517 -0.04754690
v -0.00385788 0.03257812 -0.04946694
v -0.00013790 0.03339826 -0.04910597
v 0.00272868 0.03231450 -0.05001223
v 0.00640489 0.03142846 -0.05021191
v 0.00721454 0.02952456 -0.05086473
v 0.02542056 0.01726642 -0.05074184
v 0.02701067 0.01430074 -0.05079560
v 0.02906030 0.01148884 -0.05051912
v 0.02967301 0.00812041 -0.05071880
v 0.03141629 0.00701469 -0.05002759
v 0.03264169 0.00503757 -0.04943622
v 0.01066464 0.03042525 -0.05010439
v 0.01352391 0.02826506 -0.05049608
v 0.01794413 0.02574607 -0.05047303
v 0.02078152 0.02303668 -0.05065736
v 0.03664615 -0.00194826 -0.03969781
v 0.03633250 -0.00017617 -0.03790834
v 0.03631791 0.00080507 -0.04500478
v 0.03682121 0.00215976 -0.04267770
v 0.03677744 0.00304580 -0.04081143
v 0.03456004 0.00153733 -0.04791555
v 0.03530404 0.00540370 -0.04636416
v -0.03745441 0.00120049 -0.03905268
v -0.03758570 -0.00302469 -0.04084215
v -0.03762217 0.00292132 -0.04177913
v -0.03709700 0.00546960 -0.04260858
v -0.03070009 0.01722248 -0.04689410
v -0.03448572 0.01616802 -0.04409084
v -0.03374901 0.01241881 -0.04572671
v -0.03140032 0.02001974 -0.04466686
v -0.02969351 0.02017352 -0.04614912
v -0.02594435 0.02249480 -0.04751619
v -0.02384366 0.02420831 -0.04787715
v -0.02153143 0.02762799 -0.04706306
v -0.01536064 0.03110626 -0.04749315
v -0.01840957 0.03136255 -0.04584192
v -0.01497405 0.03274654 -0.04631041
v -0.01132701 0.03361061 -0.04684802
v -0.00781856 0.03599780 -0.04498942
v -0.00352964 0.03731588 -0.04448254
v -0.00253765 0.03533876 -0.04711682
v 0.00202115 0.03468705 -0.04786947
v 0.00475643 0.03372045 -0.04872197
v 0.00765218 0.03240969 -0.04948998
v 0.02417327 0.02092775 -0.05018119
v 0.02756502 0.01730303 -0.04984326
v 0.02904572 0.01443255 -0.04988935
v 0.03062853 0.01059547 -0.04990470
v 0.03224052 0.00949707 -0.04896773
v 0.03382334 0.00527189 -0.04834564
v 0.01252463 0.03135523 -0.04915205
v 0.01587990 0.02940740 -0.04935174
v 0.01904553 0.02761335 -0.04922886
v 0.02162034 0.02447925 -0.04980487
v 0.03626685 0.00467876 -0.04437502
v 0.03644921 0.00615793 -0.04245498
v 0.03637627 0.00593093 -0.04022774
v 0.03407863 0.00943849 -0.04697090
v 0.03523110 0.00834009 -0.04545023
v -0.03632382 0.00761515 -0.03746289
v -0.03738876 0.00424672 -0.04005878
v -0.03684171 0.00784947 -0.04100343
v -0.03619253 0.00990714 -0.04247802
v -0.03536100 0.01340737 -0.04157177
v -0.03444925 0.01635841 -0.04197881
v -0.03328949 0.01881150 -0.04317691
v -0.02828575 0.02537993 -0.04323067
v -0.02874528 0.02392272 -0.04418300
v -0.02709681 0.02409847 -0.04566528
v -0.02441259 0.02566552 -0.04658689
v -0.02455848 0.02733509 -0.04515070
v -0.02240672 0.02956850 -0.04479742
v -0.02015285 0.03165546 -0.04396028
v -0.01577640 0.03383029 -0.04471293
v -0.01204183 0.03542663 -0.04422909
v 0.00044563 0.03689117 -0.04505854
v -0.00708915 0.03693510 -0.04323835
v -0.00486446 0.03738178 -0.04201721
v -0.00193953 0.03763076 -0.04223993
v -0.00037860 0.03755021 -0.04336891
v 0.00308609 0.03732321 -0.04354556
v 0.00427502 0.03553647 -0.04676354
v 0.00911100 0.03458453 -0.04719362
v 0.00849829 0.03347148 -0.04850692
v 0.02438480 0.02292684 -0.04923654
v 0.02696690 0.02030533 -0.04896773
v 0.03014712 0.01508427 -0.04890629
v 0.03216029 0.01252133 -0.04810755
v 0.01278721 0.03328109 -0.04727042
v 0.01516508 0.03188246 -0.04762371
v 0.01865895 0.02967834 -0.04783107
v 0.02240081 0.02613417 -0.04839940
v 0.03545721 0.00973140 -0.04370684
v 0.03512898 0.01155474 -0.04243962
v 0.03582921 0.00855977 -0.04018166
v 0.03271464 0.01411035 -0.04663297
v 0.03423180 0.01214055 -0.04521983
v -0.03607583 0.01025131 -0.03915252
v -0.03292478 0.01865040 -0.04049655
v -0.03153161 0.02135979 -0.04279291
v -0.03104291 0.02203348 -0.04153336
v -0.02862128 0.02513096 -0.04167929
v -0.02660811 0.02715202 -0.04252410
v -0.02568176 0.02760603 -0.04359164
v -0.02696552 0.02587788 -0.04428285
v -0.02269119 0.03031541 -0.04240122
v -0.01862109 0.03283441 -0.04129528
v -0.01517099 0.03457720 -0.04278522
v -0.01243571 0.03553647 -0.04124920
v -0.00905126 0.03653236 -0.04113400
v 0.00548584 0.03642251 -0.04538879
v -0.00617739 0.03678865 -0.03909108
v -0.00298988 0.03738911 -0.04026614
v 0.00117504 0.03750627 -0.04103415
v 0.00465431 0.03728659 -0.04223993
v 0.00739689 0.03674471 -0.04399868
v 0.00802418 0.03610032 -0.04541183
v 0.01043852 0.03532412 -0.04568063
v 0.02638338 0.02284629 -0.04787715
v 0.02857889 0.02001242 -0.04783875
v 0.03088382 0.01700280 -0.04727810
v 0.01434815 0.03358864 -0.04590335
v 0.01817754 0.03120146 -0.04647169
v 0.02051164 0.02954653 -0.04660993
v 0.02443586 0.02650763 -0.04629505
v 0.02560291 0.02440602 -0.04727042
v 0.03382334 0.01475475 -0.04346876
v 0.03407863 0.01431539 -0.04093431
v 0.03479345 0.01167923 -0.03917556
v 0.03224052 0.01736161 -0.04472829
v 0.03333464 0.01444719 -0.04530431
v -0.02565259 0.02783303 -0.04091895
v -0.02272037 0.03021289 -0.04077303
v -0.02012367 0.03147972 -0.03863795
v -0.01730816 0.03319322 -0.03904500
v -0.01512723 0.03441611 -0.04001270
v -0.01296089 0.03478224 -0.03794674
v -0.00989008 0.03588796 -0.03850739
v 0.00104374 0.03709620 -0.03849971
v 0.00365503 0.03714013 -0.03965173
v 0.00716348 0.03679597 -0.04157944
v 0.00986229 0.03629803 -0.04323835
v 0.01348744 0.03451863 -0.04459774
v 0.02893630 0.02115476 -0.04656385
v 0.03070147 0.01981471 -0.04506622
v 0.01736060 0.03272457 -0.04445949
v 0.02013235 0.03080603 -0.04508158
v 0.02278010 0.02869710 -0.04521983
v 0.02655114 0.02577536 -0.04386812
v 0.02812666 0.02343943 -0.04510463
v 0.03154758 0.01945590 -0.04276986
v 0.03306475 0.01662203 -0.04111096
v 0.00585054 0.03661290 -0.03858419
v 0.00889947 0.03606370 -0.03906804
v 0.01598931 0.03380832 -0.04294651
v 0.01149616 0.03542663 -0.03986678
v 0.01437732 0.03453327 -0.04110328
v 0.02880501 0.02345407 -0.04282362
v 0.01933000 0.03197766 -0.04293115
v 0.02248104 0.02963440 -0.04348412
v 0.02592385 0.02682250 -0.04214777
v 0.03054830 0.02097169 -0.04048119
v 0.03180288 0.01883347 -0.04005878
v 0.01766695 0.03298086 -0.04148728
v 0.01738978 0.03281976 -0.03916788
v 0.02764525 0.02468428 -0.03998966
v 0.02901654 0.02287558 -0.03952885
v 0.02122646 0.03057903 -0.04025078
v 0.02280198 0.02956118 -0.04192505
v 0.02344386 0.02863852 -0.03705585
v 0.02601138 0.02652227 -0.04029686
v 0.02499021 0.02628062 -0.03421420
v 0.02185375 0.02967102 -0.03689456
v 0.02038764 0.03013235 -0.03470572
v 0.02446503 0.02734973 -0.03610351
v 0.00066138 -0.01561839 0.06927528
v 0.00677459 -0.01470083 0.06916689
v 0.00185647 -0.01588491 0.06925577
v 0.00785344 -0.01580889 0.06882004
v 0.00326901 -0.01753476 0.06864011
v 0.00602754 -0.01735212 0.06776213
v 0.00822931 -0.01659886 0.06754318
v 0.01023611 -0.01485288 0.06828675
v 0.00066138 -0.01807830 0.06813283
v 0.00066138 -0.01824346 0.06769059
v 0.00388858 -0.01841474 0.06604520
v 0.00547453 -0.01821987 0.06484639
v 0.00814308 -0.01723328 0.06496562
v 0.01023611 -0.01589365 0.06609073
v 0.00178992 -0.01886740 0.06503066
v 0.00066138 -0.01879836 0.06550107
v 0.01083060 -0.01551311 0.06641036
v 0.01263751 -0.01453886 0.06504878
v 0.01392210 -0.01303185 0.06646746
v 0.01165061 -0.01428425 0.06796958
v 0.01557204 -0.01126877 0.06608314
v 0.01658420 -0.00887434 0.06939704
v 0.01106875 -0.01363083 0.06892488
v 0.01023612 -0.01419448 0.06889853
v 0.01790759 -0.00779266 0.06647184
v 0.01666269 -0.00988392 0.06578667
v 0.01777678 -0.00673746 0.06933555
v 0.01652917 -0.00473744 0.06947611
v 0.01505514 -0.00933940 0.06949367
v 0.01879255 -0.00504650 0.06612706
v 0.01877180 -0.00333493 0.06686714
v 0.01407817 -0.00475952 0.06956395
v 0.01945108 -0.00193683 0.06377944
v 0.01918045 -0.00123925 0.06551655
v -0.00994334 -0.01539724 0.06634265
v -0.00962037 -0.01556597 0.06643289
v -0.00962037 -0.01505846 0.06790970
v -0.00962037 -0.01474604 0.06874605
v -0.01240659 -0.01288207 0.06799773
v -0.01258431 -0.01326831 0.06626561
v -0.01361302 -0.01256438 0.06469856
v -0.00962037 -0.01457730 0.06889571
v -0.01329774 -0.01131471 0.06882308
v -0.01464257 -0.01012304 0.06807256
v -0.01522614 -0.01013622 0.06616878
v -0.00962037 -0.01406715 0.06917962
v -0.01022273 -0.01361632 0.06923245
v -0.01406243 -0.00925170 0.06932709
v -0.01552005 -0.00685649 0.06954718
v -0.01635395 -0.00634239 0.06867122
v -0.01602928 -0.00796643 0.06768521
v -0.01713659 -0.00647421 0.06582543
v -0.01145649 -0.01141885 0.06936891
v -0.01586352 -0.00385359 0.06961101
v -0.01637958 -0.00406846 0.06939752
v -0.01740573 -0.00427937 0.06754874
v -0.01697339 -0.00242068 0.06904097
v -0.01800381 -0.00401573 0.06473378
v -0.01618136 -0.00242068 0.06951637
v 0.01891674 -0.00056042 0.06720651
v 0.01151978 0.01522825 0.06499204
v 0.01373967 0.01339303 0.06493213
v 0.01841869 0.00562747 0.06572164
v 0.01892208 0.00221458 0.06578368
v 0.01840624 0.00266826 0.06810513
v 0.01039560 0.01552161 0.06735414
v 0.01306196 0.01328728 0.06753600
v 0.01598535 0.01080224 0.06467538
v 0.01528541 0.01075618 0.06795108
v 0.01695477 0.00875894 0.06683208
v 0.01767695 0.00604022 0.06784625
v 0.01749373 0.00367286 0.06875771
v 0.01036092 0.01468758 0.06864431
v 0.01155802 0.01385184 0.06872562
v 0.01609652 0.00887321 0.06835119
v 0.01416123 0.01092845 0.06876413
v 0.01627706 0.00686061 0.06886896
v 0.01036092 0.01408209 0.06894599
v -0.00443929 -0.01448196 0.06935216
v 0.00066045 -0.01601175 0.06924338
v -0.00961952 -0.01391455 0.06922815
v -0.00428835 -0.01653781 0.06919117
v -0.00012645 -0.01745006 0.06902800
v -0.00699619 -0.01602847 0.06894967
v -0.00527348 -0.01723101 0.06825566
v -0.00298021 -0.01782481 0.06819910
v 0.00066045 -0.01747029 0.06893879
v 0.00003254 -0.01820923 0.06800982
v -0.00943638 -0.01486727 0.06879521
v -0.00747417 -0.01668472 0.06702211
v -0.00459928 -0.01800339 0.06634116
v -0.00087611 -0.01870362 0.06614101
v 0.00066045 -0.01807904 0.06813166
v 0.00066045 -0.01844499 0.06694597
v -0.00209067 -0.01876784 0.06488352
v 0.00991379 0.01445259 0.06896654
v 0.00066140 0.01687965 0.06917805
v 0.00251947 0.01712913 0.06902265
v 0.00479055 0.01598656 0.06907877
v 0.01036003 0.01429078 0.06890178
v 0.00788671 0.01641231 0.06847443
v 0.00629828 0.01681637 0.06871617
v 0.00092914 0.01781341 0.06871833
v 0.00421709 0.01764257 0.06845070
v 0.00740914 0.01715444 0.06731541
v 0.00472789 0.01830063 0.06590388
v 0.00174092 0.01862153 0.06678663
v 0.00066140 0.01852481 0.06730895
v 0.00911340 0.01697727 0.06464989
v -0.00177558 0.01655366 0.06938141
v -0.00371329 0.01590672 0.06959146
v 0.00066045 0.01781735 0.06871482
v -0.00413066 0.01660726 0.06934498
v -0.00983588 0.01286979 0.06959789
v -0.00871070 0.01487252 0.06927210
v 0.00066045 0.01790416 0.06860765
v -0.00184858 0.01785433 0.06868052
v -0.00626516 0.01652573 0.06891415
v -0.01215922 0.01193448 0.06942428
v -0.00938359 0.01578594 0.06777816
v -0.01101501 0.01428974 0.06842546
v -0.00078688 0.01839559 0.06800750
v -0.00380057 0.01806193 0.06777173
v -0.00694756 0.01695300 0.06788962
v -0.01276862 0.01133812 0.06933212
v -0.01300667 0.01204696 0.06883056
v -0.00747603 0.01755917 0.06501961
v -0.00907254 0.01675371 0.06506034
v -0.01056271 0.01669180 0.06248399
v -0.01068491 0.01548096 0.06609988
v -0.01254645 0.01349711 0.06718872
v -0.00197871 0.01870283 0.06613632
v -0.00529234 0.01828085 0.06514608
v -0.01399219 0.01182427 0.06751452
v -0.01232109 0.01503180 0.06370357
v -0.01435085 0.01255878 0.06469597
v -0.01473807 0.01133812 0.06608274
v -0.01452859 0.01313174 0.06180668
v -0.01867516 0.00052744 0.06441476
v -0.01801355 0.00346613 0.06649458
v -0.01793454 -0.00242068 0.06681720
v -0.01791931 -0.00206782 0.06727748
v -0.01822679 0.00063249 0.06665805
v -0.01748618 0.00547689 0.06658707
v -0.01686075 0.00781357 0.06557834
v -0.01750426 0.00335031 0.06813350
v -0.01783744 -0.00242068 0.06732049
v -0.01730340 -0.00242068 0.06847332
v -0.01725961 -0.00162473 0.06886907
v -0.01773939 0.00034966 0.06824318
v -0.01649425 0.00625534 0.06864753
v -0.01610681 0.00783647 0.06816790
v -0.01562036 0.01076304 0.06438895
v -0.01578219 0.00933544 0.06694410
v -0.01521388 0.01133812 0.06448788
v -0.01231235 0.00893949 0.06972294
v -0.01666655 0.00395232 0.06914222
v -0.01688455 0.00074831 0.06930138
v -0.01456751 0.00866744 0.06943688
v -0.01465414 0.00949167 0.06904759
v -0.01507585 0.00973275 0.06829050
v -0.01219050 0.01133812 0.06948420
v -0.01497113 0.00642907 0.06958099
v -0.01259984 0.01133812 0.06942613
v -0.01346515 0.01133812 0.06889057
v -0.01364222 0.01133812 0.06866474
f 523 124 98
f 523 528 524
f 153 524 528
f 441 442 415
f 415 442 443
f 639 515 594
f 619 410 409
f 407 636 409
f 334 295 333
f 190 222 221
f 551 475 474
f 552 559 558
f 558 559 560
f 333 295 294
f 257 294 295
f 56 38 55
f 99 98 124
f 285 284 326
f 326 284 289
f 363 326 330
f 330 326 289
f 182 528 186
f 182 153 528
f 524 153 152
f 535 215 186
f 441 415 414
f 443 442 612
f 612 442 441
f 590 589 461
f 461 448 590
f 552 551 545
f 545 551 474
f 474 480 545
f 590 448 447
f 446 445 616
f 616 445 610
f 537 515 639
f 537 532 512
f 512 515 537
f 633 629 626
f 619 409 638
f 638 409 636
f 636 620 638
f 336 334 371
f 422 448 423
f 422 447 448
f 137 165 138
f 137 164 165
f 161 190 165
f 160 190 161
f 83 108 109
f 102 82 81
f 511 510 560
f 511 515 512
f 511 594 515
f 548 510 543
f 512 487 505
f 505 511 512
f 510 511 505
f 364 363 401
f 365 328 364
f 523 98 518
f 512 484 486
f 566 487 486
f 566 486 563
f 563 486 484
f 574 21 578
f 289 284 253
f 253 288 289
f 14 15 6
f 6 5 14
f 1 5 6
f 290 291 622
f 622 331 290
f 292 291 293
f 293 257 256
f 294 257 293
f 62 85 63
f 61 85 62
f 41 25 40
f 61 62 41
f 42 25 41
f 41 62 42
f 40 25 24
f 38 56 57
f 57 56 79
f 78 99 79
f 98 99 78
f 79 56 78
f 78 56 55
f 125 99 124
f 125 152 153
f 125 124 523
f 523 524 125
f 524 152 125
f 285 326 327
f 327 326 363
f 363 364 327
f 327 328 285
f 327 364 328
f 474 475 466
f 255 217 215
f 292 293 255
f 256 217 255
f 255 293 256
f 216 217 256
f 186 528 534
f 534 535 186
f 625 633 626
f 632 633 625
f 626 622 625
f 625 291 292
f 625 622 291
f 381 414 415
f 415 416 381
f 418 386 385
f 385 383 418
f 444 415 443
f 444 416 415
f 610 445 444
f 443 612 444
f 444 612 610
f 441 440 618
f 618 612 441
f 618 440 410
f 483 480 474
f 478 545 483
f 483 545 480
f 544 545 478
f 605 591 590
f 605 599 586
f 532 537 538
f 641 633 632
f 370 334 333
f 371 334 370
f 370 336 371
f 447 422 421
f 421 422 387
f 615 605 421
f 590 447 421
f 421 605 590
f 387 386 421
f 111 137 138
f 82 105 106
f 164 137 135
f 135 108 134
f 165 164 163
f 163 161 165
f 164 135 163
f 138 141 114
f 86 87 63
f 63 85 86
f 86 111 87
f 160 161 132
f 104 105 82
f 60 83 61
f 82 83 60
f 60 81 82
f 61 41 60
f 84 85 61
f 61 83 84
f 84 83 109
f 109 86 84
f 84 86 85
f 299 262 295
f 295 334 299
f 334 336 299
f 261 262 222
f 337 336 300
f 222 262 263
f 263 264 222
f 300 264 263
f 560 510 555
f 510 548 555
f 553 551 552
f 552 558 553
f 437 436 546
f 436 553 546
f 547 548 543
f 543 328 547
f 547 328 365
f 365 546 547
f 547 546 548
f 510 505 508
f 248 284 285
f 249 210 248
f 248 210 212
f 285 328 324
f 10 3 575
f 575 574 578
f 493 498 494
f 488 493 494
f 55 36 54
f 54 78 55
f 485 487 512
f 512 486 485
f 485 486 487
f 572 526 521
f 522 528 523
f 522 521 526
f 523 518 522
f 518 521 522
f 566 563 565
f 565 563 484
f 532 526 531
f 531 530 532
f 526 530 531
f 525 526 572
f 572 530 525
f 525 530 526
f 21 574 22
f 22 574 36
f 22 11 21
f 250 253 284
f 250 248 212
f 284 248 250
f 212 210 211
f 214 250 212
f 253 250 214
f 289 288 329
f 329 330 289
f 358 330 329
f 494 9 19
f 494 498 2
f 2 9 494
f 498 3 2
f 2 3 1
f 16 29 30
f 15 29 16
f 1 6 7
f 7 6 15
f 7 2 1
f 15 16 7
f 7 16 17
f 578 21 20
f 21 11 20
f 20 575 578
f 20 11 10
f 10 575 20
f 4 5 1
f 10 11 4
f 1 3 4
f 4 3 10
f 68 67 89
f 66 67 47
f 30 29 47
f 14 27 28
f 28 15 14
f 28 29 15
f 26 27 14
f 26 25 42
f 42 27 26
f 66 44 65
f 89 67 65
f 65 67 66
f 42 62 43
f 43 62 63
f 43 27 42
f 43 44 27
f 332 291 290
f 332 293 291
f 290 331 332
f 332 331 333
f 333 294 332
f 294 293 332
f 14 5 13
f 13 26 14
f 13 24 25
f 25 26 13
f 5 4 12
f 12 4 11
f 12 13 5
f 24 13 12
f 11 22 23
f 23 12 11
f 24 12 23
f 40 57 58
f 58 41 40
f 80 57 79
f 102 81 80
f 81 58 80
f 80 58 57
f 156 182 186
f 153 182 156
f 222 264 260
f 221 222 260
f 260 259 221
f 165 190 166
f 166 168 141
f 138 165 166
f 166 141 138
f 229 228 266
f 388 422 423
f 387 422 388
f 117 92 91
f 91 92 69
f 205 197 202
f 141 168 169
f 167 141 169
f 169 197 167
f 470 466 475
f 470 553 471
f 475 551 470
f 551 553 470
f 471 553 460
f 460 553 436
f 457 468 469
f 474 466 469
f 469 466 457
f 215 535 254
f 254 255 215
f 292 255 254
f 218 216 256
f 256 257 218
f 217 216 185
f 186 215 185
f 215 217 185
f 185 156 186
f 185 216 184
f 527 534 528
f 528 522 527
f 527 522 526
f 527 526 532
f 292 254 539
f 539 254 535
f 417 445 446
f 417 444 445
f 446 418 417
f 416 444 417
f 417 383 416
f 417 418 383
f 593 581 586
f 593 594 582
f 621 410 619
f 619 618 621
f 621 618 410
f 560 559 561
f 587 589 590
f 587 588 589
f 590 591 587
f 586 581 587
f 587 605 586
f 591 605 587
f 592 478 481
f 481 482 592
f 549 478 592
f 549 544 478
f 592 588 549
f 615 616 606
f 606 605 615
f 636 628 637
f 637 620 636
f 626 629 623
f 623 622 626
f 542 538 537
f 542 641 538
f 640 634 629
f 629 633 640
f 633 641 640
f 333 331 369
f 369 370 333
f 331 622 369
f 622 623 369
f 372 370 406
f 336 370 372
f 408 409 410
f 410 375 408
f 414 381 412
f 410 440 411
f 411 375 410
f 411 440 441
f 441 414 411
f 414 412 411
f 411 412 375
f 386 418 420
f 420 421 386
f 615 421 420
f 420 616 615
f 446 616 420
f 420 418 446
f 110 86 109
f 111 86 110
f 133 106 105
f 133 132 134
f 105 132 133
f 108 83 107
f 106 133 107
f 107 83 82
f 82 106 107
f 134 108 107
f 107 133 134
f 136 135 137
f 108 135 136
f 109 108 136
f 136 110 109
f 137 111 136
f 111 110 136
f 162 135 134
f 134 132 162
f 162 132 161
f 161 163 162
f 162 163 135
f 113 111 138
f 138 114 113
f 87 111 113
f 113 114 87
f 139 114 141
f 103 82 102
f 103 104 82
f 81 60 59
f 59 60 41
f 59 58 81
f 41 58 59
f 192 190 160
f 222 190 192
f 262 261 258
f 258 257 295
f 295 262 258
f 298 263 262
f 336 337 298
f 298 337 300
f 300 263 298
f 298 299 336
f 262 299 298
f 554 553 558
f 554 555 548
f 548 546 554
f 554 546 553
f 554 558 560
f 560 555 554
f 437 546 403
f 403 546 365
f 365 364 403
f 510 508 247
f 543 510 514
f 514 513 543
f 510 513 514
f 513 324 516
f 325 328 543
f 543 324 325
f 325 324 328
f 286 324 513
f 285 324 286
f 286 248 285
f 249 248 286
f 571 575 577
f 498 493 577
f 577 493 571
f 569 571 566
f 566 565 569
f 569 565 568
f 569 575 571
f 574 575 569
f 569 568 574
f 573 568 572
f 574 568 573
f 573 54 36
f 36 574 573
f 566 571 570
f 570 487 566
f 570 488 487
f 489 488 494
f 487 488 489
f 77 518 98
f 77 54 518
f 98 78 77
f 78 54 77
f 572 568 567
f 568 565 567
f 562 565 484
f 512 532 562
f 562 484 512
f 37 36 55
f 37 22 36
f 55 38 37
f 38 23 37
f 37 23 22
f 179 150 151
f 151 150 123
f 251 213 245
f 251 214 213
f 212 211 180
f 180 214 212
f 213 214 180
f 180 179 151
f 211 179 180
f 34 19 18
f 8 19 9
f 9 2 8
f 18 19 8
f 8 17 18
f 8 7 17
f 2 7 8
f 52 496 33
f 18 35 33
f 33 34 18
f 496 34 33
f 119 92 117
f 92 119 96
f 92 96 75
f 76 72 53
f 76 96 97
f 53 75 76
f 76 75 96
f 51 35 53
f 53 72 51
f 52 33 51
f 51 33 35
f 51 72 73
f 53 35 50
f 18 17 32
f 32 35 18
f 32 50 35
f 67 68 48
f 48 47 67
f 48 68 69
f 48 49 30
f 30 47 48
f 66 47 46
f 46 47 29
f 29 28 46
f 64 65 44
f 44 43 64
f 63 87 64
f 64 43 63
f 39 23 38
f 24 23 39
f 40 24 39
f 38 57 39
f 39 57 40
f 128 103 102
f 104 103 128
f 154 125 153
f 153 156 154
f 154 126 125
f 156 126 154
f 416 383 382
f 382 381 416
f 344 381 382
f 382 345 344
f 308 307 346
f 346 307 345
f 346 382 383
f 345 382 346
f 341 304 303
f 300 297 296
f 296 264 300
f 296 260 264
f 259 260 296
f 296 297 259
f 266 228 227
f 221 259 224
f 204 243 244
f 268 229 266
f 266 303 268
f 268 303 304
f 268 305 306
f 304 305 268
f 389 388 423
f 348 349 308
f 348 383 385
f 384 349 348
f 387 388 348
f 348 389 384
f 388 389 348
f 385 386 348
f 348 386 387
f 390 349 384
f 116 91 90
f 90 115 116
f 69 68 90
f 90 91 69
f 90 68 89
f 89 115 90
f 118 91 116
f 116 143 118
f 117 91 118
f 241 200 240
f 245 213 206
f 167 197 170
f 197 205 170
f 203 168 202
f 203 169 168
f 202 197 203
f 197 169 203
f 244 243 282
f 282 274 244
f 320 280 313
f 308 349 309
f 466 470 459
f 459 470 471
f 471 460 459
f 474 469 479
f 479 469 478
f 479 483 474
f 478 483 479
f 183 185 184
f 156 185 183
f 292 539 541
f 533 527 532
f 534 527 533
f 532 538 533
f 535 534 533
f 533 539 535
f 586 599 595
f 582 581 580
f 580 593 582
f 581 593 580
f 647 602 643
f 648 602 609
f 639 594 597
f 597 602 645
f 597 645 639
f 614 618 619
f 649 648 609
f 644 643 649
f 643 648 649
f 610 612 611
f 611 603 610
f 612 603 611
f 602 597 598
f 598 597 594
f 585 587 581
f 467 468 455
f 557 559 552
f 545 544 550
f 544 549 550
f 552 545 550
f 550 557 552
f 549 557 550
f 607 616 610
f 607 606 616
f 610 603 607
f 605 606 600
f 599 605 600
f 600 595 599
f 635 637 628
f 644 637 635
f 635 643 644
f 635 634 643
f 629 634 627
f 627 623 629
f 634 635 627
f 627 635 628
f 627 628 406
f 406 623 627
f 643 634 642
f 634 640 642
f 642 647 643
f 602 647 642
f 639 645 642
f 645 602 642
f 406 370 368
f 370 369 368
f 368 623 406
f 368 369 623
f 336 372 373
f 373 636 407
f 373 628 636
f 406 628 373
f 373 372 406
f 374 408 375
f 336 373 374
f 409 408 374
f 407 409 374
f 374 373 407
f 335 297 300
f 300 339 335
f 297 335 301
f 301 335 339
f 380 381 344
f 380 412 381
f 189 158 187
f 187 218 189
f 184 216 187
f 216 218 187
f 223 261 222
f 222 192 223
f 223 258 261
f 189 218 219
f 219 218 257
f 257 258 219
f 507 505 487
f 507 506 505
f 505 502 504
f 176 209 177
f 177 209 508
f 208 209 176
f 176 175 208
f 510 247 283
f 283 247 249
f 283 513 510
f 249 286 283
f 283 286 513
f 508 209 246
f 246 247 508
f 209 208 246
f 249 247 246
f 246 210 249
f 246 208 210
f 178 211 210
f 210 208 178
f 178 208 175
f 178 175 150
f 150 179 178
f 178 179 211
f 543 513 517
f 513 516 517
f 517 324 543
f 517 516 324
f 498 577 499
f 499 577 575
f 499 3 498
f 499 575 3
f 518 54 519
f 54 573 519
f 492 570 571
f 488 570 492
f 564 567 565
f 564 562 530
f 565 562 564
f 532 530 536
f 536 562 532
f 530 562 536
f 279 251 245
f 245 241 279
f 253 214 252
f 214 251 252
f 288 253 252
f 251 279 252
f 358 329 319
f 495 34 496
f 495 489 494
f 496 489 495
f 494 19 495
f 19 34 495
f 490 489 496
f 487 489 490
f 501 500 73
f 502 500 501
f 73 95 501
f 501 95 502
f 73 500 74
f 74 500 52
f 74 51 73
f 52 51 74
f 151 123 146
f 70 48 69
f 49 48 70
f 69 92 70
f 92 75 70
f 71 50 49
f 49 70 71
f 71 70 75
f 71 75 53
f 53 50 71
f 49 50 31
f 50 32 31
f 30 49 31
f 31 16 30
f 17 16 31
f 31 32 17
f 112 115 89
f 87 114 112
f 114 139 112
f 45 28 27
f 45 46 28
f 66 46 45
f 45 44 66
f 27 44 45
f 89 65 88
f 65 64 88
f 88 112 89
f 88 64 87
f 87 112 88
f 99 125 100
f 125 126 100
f 79 99 100
f 100 80 79
f 127 128 102
f 343 307 306
f 306 305 343
f 345 307 343
f 344 345 343
f 343 305 344
f 195 227 228
f 195 229 230
f 228 229 195
f 194 195 166
f 168 204 198
f 243 204 242
f 273 313 280
f 272 313 273
f 280 242 273
f 269 268 306
f 229 268 269
f 230 229 269
f 306 307 269
f 269 307 308
f 308 309 269
f 425 450 426
f 308 346 347
f 347 348 308
f 347 346 383
f 383 348 347
f 430 397 426
f 207 241 245
f 245 206 207
f 200 241 201
f 202 168 201
f 168 200 201
f 241 207 201
f 201 205 202
f 201 207 205
f 143 170 171
f 171 170 205
f 205 207 171
f 171 207 206
f 455 468 456
f 456 468 457
f 457 433 456
f 315 274 314
f 274 282 314
f 402 364 401
f 402 403 364
f 402 436 437
f 437 403 402
f 367 405 401
f 401 363 367
f 363 330 367
f 320 313 312
f 312 313 272
f 155 126 156
f 156 183 155
f 155 127 126
f 155 183 184
f 630 539 625
f 630 541 539
f 632 533 540
f 540 533 538
f 540 641 632
f 538 641 540
f 631 533 632
f 539 533 631
f 632 625 631
f 625 539 631
f 643 602 608
f 608 648 643
f 602 648 608
f 609 614 617
f 617 649 609
f 617 614 619
f 644 649 617
f 617 637 644
f 619 638 617
f 617 638 620
f 620 637 617
f 604 614 609
f 604 598 603
f 609 602 604
f 602 598 604
f 468 467 477
f 478 469 477
f 477 469 468
f 476 481 478
f 478 477 476
f 476 477 467
f 582 594 579
f 579 581 582
f 579 585 581
f 594 511 579
f 579 511 560
f 560 561 579
f 585 579 584
f 584 549 588
f 588 587 584
f 587 585 584
f 596 598 594
f 594 593 596
f 595 600 596
f 596 593 586
f 586 595 596
f 646 640 641
f 646 642 640
f 641 542 646
f 646 542 537
f 646 537 639
f 639 642 646
f 338 374 375
f 338 377 339
f 336 374 338
f 300 336 338
f 338 339 300
f 339 377 340
f 340 301 339
f 341 303 302
f 302 340 341
f 301 340 302
f 131 130 158
f 105 104 131
f 104 130 131
f 160 132 131
f 131 132 105
f 258 223 220
f 220 219 258
f 220 223 192
f 174 177 508
f 148 147 174
f 176 177 174
f 97 123 121
f 502 95 120
f 120 504 502
f 148 504 120
f 120 147 148
f 120 121 147
f 520 573 572
f 520 519 573
f 518 519 520
f 572 521 520
f 520 521 518
f 493 488 576
f 488 492 576
f 571 493 576
f 576 492 571
f 529 564 530
f 567 564 529
f 529 530 572
f 572 567 529
f 278 241 240
f 278 279 241
f 277 278 240
f 318 319 277
f 238 274 275
f 275 274 315
f 315 316 275
f 497 490 496
f 500 490 497
f 497 496 52
f 52 500 497
f 503 490 500
f 503 500 502
f 503 502 505
f 505 506 503
f 122 96 119
f 119 146 122
f 97 96 122
f 122 123 97
f 122 146 123
f 140 112 139
f 140 141 167
f 140 139 141
f 116 115 140
f 115 112 140
f 102 80 101
f 101 127 102
f 80 100 101
f 101 100 126
f 126 127 101
f 196 204 168
f 168 166 196
f 166 195 196
f 227 195 225
f 195 194 225
f 221 224 193
f 224 194 193
f 193 190 221
f 193 166 190
f 193 194 166
f 168 198 199
f 199 200 168
f 235 204 244
f 235 198 204
f 244 274 236
f 236 235 244
f 198 235 236
f 204 196 234
f 234 196 195
f 234 242 204
f 234 273 242
f 449 450 423
f 423 448 449
f 448 461 449
f 465 588 592
f 384 389 419
f 419 390 384
f 419 425 390
f 450 425 424
f 424 389 423
f 423 450 424
f 424 419 389
f 425 419 424
f 454 467 455
f 359 392 397
f 323 314 282
f 399 400 361
f 393 400 427
f 315 314 354
f 311 312 272
f 157 155 184
f 184 187 157
f 157 187 158
f 158 130 157
f 624 630 625
f 541 630 624
f 624 625 292
f 292 541 624
f 618 614 613
f 614 604 613
f 613 604 603
f 612 618 613
f 613 603 612
f 472 476 467
f 556 557 549
f 549 584 556
f 598 596 601
f 603 598 601
f 601 607 603
f 606 607 601
f 601 600 606
f 601 596 600
f 376 338 375
f 377 338 376
f 412 380 413
f 380 379 413
f 375 412 413
f 413 376 375
f 413 379 377
f 377 376 413
f 342 379 380
f 342 304 341
f 342 380 344
f 344 305 342
f 342 305 304
f 297 301 265
f 301 302 265
f 259 297 265
f 265 224 259
f 159 158 160
f 160 131 159
f 159 131 158
f 219 220 188
f 189 219 188
f 160 158 188
f 188 158 189
f 509 508 505
f 509 174 508
f 505 504 509
f 509 504 148
f 148 174 509
f 149 123 150
f 149 121 123
f 147 121 149
f 150 175 149
f 149 175 176
f 176 174 149
f 149 174 147
f 94 120 95
f 97 121 94
f 121 120 94
f 94 95 73
f 287 319 329
f 279 278 287
f 287 277 319
f 278 277 287
f 287 252 279
f 287 329 288
f 288 252 287
f 238 275 239
f 240 200 239
f 239 199 238
f 200 199 239
f 318 277 317
f 317 275 316
f 506 507 491
f 491 503 506
f 491 507 487
f 487 490 491
f 490 503 491
f 167 170 142
f 142 140 167
f 116 140 142
f 142 143 116
f 142 170 143
f 226 225 194
f 226 194 224
f 266 227 226
f 227 225 226
f 224 265 226
f 238 199 237
f 237 199 198
f 198 236 237
f 237 274 238
f 237 236 274
f 233 234 195
f 273 234 233
f 272 273 233
f 589 588 464
f 588 465 464
f 464 465 450
f 390 425 391
f 391 425 426
f 426 397 391
f 397 392 391
f 451 454 430
f 426 450 451
f 451 430 426
f 362 400 393
f 361 400 362
f 314 323 353
f 353 354 314
f 353 362 393
f 323 362 353
f 361 362 322
f 322 362 323
f 431 454 455
f 430 454 431
f 398 359 397
f 398 431 399
f 397 430 398
f 430 431 398
f 360 399 361
f 361 322 360
f 359 398 360
f 360 398 399
f 320 359 360
f 143 171 144
f 171 172 144
f 117 118 144
f 144 118 143
f 145 146 119
f 145 144 172
f 145 119 117
f 117 144 145
f 151 146 173
f 146 145 173
f 173 145 172
f 434 400 433
f 434 427 400
f 393 427 394
f 394 427 428
f 394 353 393
f 354 353 394
f 355 316 315
f 315 354 355
f 439 438 435
f 405 439 435
f 401 405 435
f 435 402 401
f 435 460 436
f 436 402 435
f 435 459 460
f 435 438 459
f 312 311 352
f 320 312 352
f 352 359 320
f 392 359 352
f 272 271 270
f 270 311 272
f 270 271 230
f 230 269 270
f 270 269 309
f 310 309 349
f 310 270 309
f 311 270 310
f 390 391 351
f 351 391 392
f 311 310 351
f 392 352 351
f 351 352 311
f 127 155 129
f 155 157 129
f 129 157 130
f 128 127 129
f 104 128 129
f 129 130 104
f 481 476 473
f 476 472 473
f 482 481 473
f 592 482 473
f 473 465 592
f 473 472 465
f 583 584 579
f 583 556 584
f 557 556 583
f 583 579 561
f 583 561 559
f 559 557 583
f 378 342 341
f 379 342 378
f 377 379 378
f 341 340 378
f 378 340 377
f 160 188 191
f 191 188 220
f 191 192 160
f 191 220 192
f 93 76 97
f 97 94 93
f 72 76 93
f 73 72 93
f 93 94 73
f 276 239 275
f 275 317 276
f 240 239 276
f 276 277 240
f 276 317 277
f 267 265 302
f 267 226 265
f 267 302 303
f 267 303 266
f 266 226 267
f 231 195 230
f 232 271 272
f 272 233 232
f 230 271 232
f 232 231 230
f 232 233 195
f 195 231 232
f 462 461 589
f 589 464 462
f 462 449 461
f 450 449 462
f 462 464 450
f 454 451 463
f 467 454 463
f 463 472 467
f 465 472 463
f 450 465 463
f 463 451 450
f 281 242 280
f 243 242 281
f 281 322 323
f 281 282 243
f 281 323 282
f 455 456 432
f 432 431 455
f 432 456 433
f 399 431 432
f 433 400 432
f 400 399 432
f 320 360 321
f 321 360 322
f 321 280 320
f 321 281 280
f 322 281 321
f 181 173 172
f 181 206 213
f 151 173 181
f 181 171 206
f 181 172 171
f 181 180 151
f 213 180 181
f 428 427 452
f 427 434 452
f 395 355 354
f 395 394 428
f 354 394 395
f 349 390 350
f 390 351 350
f 350 310 349
f 350 351 310
f 458 434 433
f 458 452 434
f 458 433 457
f 457 466 458
f 429 395 428
f 428 452 429
f 355 395 356
f 316 355 356
f 318 317 356
f 356 317 316
f 466 459 453
f 453 458 466
f 459 438 453
f 452 458 453
f 438 429 453
f 453 429 452
f 395 429 396
f 396 356 395
f 404 396 429
f 404 438 439
f 404 429 438
f 404 439 405
f 356 396 357
f 358 319 357
f 357 319 318
f 318 356 357
f 366 330 358
f 358 357 366
f 366 357 396
f 366 367 330
f 396 404 366
f 405 367 366
f 366 404 405

