# https://github.com/mikedh/trimesh
v 0.00308419 -0.01432074 0.14313045
v -0.00224704 -0.01437802 0.14451638
v 0.00581316 -0.01359522 0.14522171
v 0.00229887 -0.01415527 0.14591467
v 0.00079428 -0.01438756 0.14493711
v -0.00251833 -0.01418709 0.14611267
v -0.00668407 -0.01348066 0.14522171
v 0.00669128 -0.01320064 0.14653338
v 0.00437103 -0.01351885 0.14678088
v -0.00506703 -0.01340111 0.14671901
v -0.00651987 -0.01326110 0.14650863
v -0.00759075 -0.01248467 0.14614978
v -0.00740513 -0.01298426 0.14353880
v 0.00793351 -0.01194371 0.14522171
v 0.00843504 -0.01111954 0.14585280
v 0.00707502 -0.01187370 0.14692937
v 0.00808522 -0.01209327 0.14017299
v -0.00670013 -0.01183552 0.14685513
v -0.00795664 -0.00532176 0.14621165
v -0.00817795 -0.00762878 0.14582805
v -0.00849208 -0.00764151 0.14459062
v -0.00793165 -0.01119592 0.14519696
v 0.00854927 -0.01106863 0.14258598
v 0.00893836 -0.00959214 0.14551871
v 0.00834223 -0.00965578 0.14642201
v 0.00872061 0.00131928 0.14696649
v -0.00356958 0.00628017 0.14654577
v -0.00758540 0.00325400 0.14643440
v -0.00801553 0.00067968 0.14631064
v -0.00839391 0.00271940 0.14608791
v -0.00846531 -0.00284609 0.14561768
v -0.00873303 0.00014827 0.14509797
v -0.00893650 0.00084515 0.14191777
v -0.00864379 -0.00688735 0.14160842
v 0.00897405 -0.00973533 0.14235088
v 0.00925784 -0.00527085 0.14513509
v 0.00907222 -0.00672825 0.14585280
v 0.00915075 -0.00823656 0.14426890
v 0.00905794 -0.00120412 0.14637253
v 0.00855462 0.00369631 0.14662001
v 0.00694651 0.00892768 0.14611267
v 0.00142967 0.01396176 0.14574143
v 0.00124762 0.00770257 0.14649627
v -0.00597550 0.01287348 0.14611267
v -0.00330186 0.00709479 0.14652102
v 0.00908292 0.00308216 0.14616217
v -0.00785312 0.01043600 0.14612503
v -0.00703032 0.00634063 0.14634778
v -0.00843675 0.00652838 0.14584042
v -0.00857953 0.01011460 0.14546920
v -0.00872946 0.00461594 0.14524646
v -0.00883655 0.00307262 0.14447924
v -0.00891508 0.00847582 0.14322944
v -0.00897576 0.00270349 0.14013587
v 0.00922750 -0.00775607 0.14108869
v 0.00925427 -0.00105775 0.14570430
v 0.00921500 0.00923316 0.13831685
v 0.00815840 0.00950682 0.14549395
v 0.00599878 0.01236435 0.14570430
v 0.00407297 0.01440089 0.14546920
v -0.00655199 0.01415587 0.14592706
v 0.00871169 0.00880040 0.14366256
v 0.00801561 0.01455681 0.14306858
v 0.00796028 0.01350990 0.14410803
v -0.00761395 0.01334444 0.14586517
v -0.00851707 0.01137472 0.14449163
v -0.00868662 0.01084967 0.14123718
v -0.00896684 0.00840263 0.14021012
v 0.00697328 0.01419087 0.14478861
v 0.00668771 0.01542235 0.14413278
v 0.00398194 0.01569282 0.14440501
v 0.00045873 0.01491003 0.14530833
v -0.00558106 0.01605558 0.14472674
v -0.00705709 0.01487184 0.14486286
v -0.00808871 0.01263801 0.14282110
v 0.00033737 0.01683838 0.14065559
v -0.00039976 0.01684793 0.14206627
v 0.00084425 0.01628151 0.14341506
v -0.00462975 0.01655199 0.14386053
v -0.00597014 0.01622741 0.14394715
v -0.00545077 0.01659018 0.14155892
v 0.00045046 -0.02763218 -0.04397430
v -0.00305438 -0.02741456 -0.04485094
v -0.00178970 -0.02749826 -0.04677956
v 0.00175926 -0.02747594 -0.04810999
v 0.00266855 -0.02747594 -0.04550069
v 0.00282786 -0.02737550 -0.04168471
v 0.00157054 -0.02731412 -0.03897228
v -0.00103971 -0.02739224 -0.04069462
v -0.00355437 -0.02733644 -0.04175691
v -0.00436808 -0.02721368 -0.04695489
v -0.00347104 -0.02710208 -0.05020362
v -0.00090001 -0.02731412 -0.04981171
v 0.00420774 -0.02721926 -0.04634639
v 0.00247493 -0.02711324 -0.05077086
v 0.00422735 -0.02692910 -0.03805438
v -0.00432151 -0.02718578 -0.04194255
v -0.00416220 -0.02692910 -0.03752839
v -0.00468180 -0.02686214 -0.04270574
v -0.00460092 -0.02695700 -0.04766651
v -0.00439259 -0.02674496 -0.05093588
v -0.00001277 -0.02694584 -0.05216318
v -0.00531169 -0.01574679 -0.11086731
v -0.00379211 -0.01605369 -0.10991848
v 0.00483518 -0.02679518 -0.04586166
v 0.00456313 -0.02695700 -0.04166409
v 0.00431803 -0.02677286 -0.05057490
v 0.00263914 -0.01600905 -0.11041351
v 0.00527145 -0.01563519 -0.11096013
v -0.01144883 -0.01227046 -0.05089462
v -0.01168657 -0.01185754 -0.05741271
v -0.01118168 -0.01293448 -0.05710331
v -0.01137040 -0.01237648 -0.07354295
v -0.01137040 -0.01208632 -0.08285599
v -0.01130422 -0.01184638 -0.09195245
v -0.01105668 -0.01200820 -0.09979067
v -0.01083855 -0.01201936 -0.10647379
v -0.00981160 -0.01328044 -0.10947499
v -0.00886064 -0.01395003 -0.11090856
v -0.00827487 -0.01477029 -0.10851584
v -0.00663764 -0.01554033 -0.10990816
v -0.00000542 -0.01628247 -0.10936155
v -0.00608864 -0.01501581 -0.11268247
v -0.00511807 -0.01448013 -0.11455952
v -0.00207646 -0.01562961 -0.11210493
v 0.00507047 -0.02639900 -0.04194255
v 0.00496018 -0.02636552 -0.04958481
v 0.01085222 -0.01215328 -0.10229684
v 0.01096497 -0.01224256 -0.09476802
v 0.01104585 -0.01230394 -0.08838399
v 0.01137182 -0.01179616 -0.08276317
v 0.00545282 -0.01607601 -0.10825801
v 0.00666603 -0.01557939 -0.10902120
v 0.00827384 -0.01439644 -0.11084668
v 0.00929343 -0.01393330 -0.10835084
v 0.00149456 -0.01516647 -0.11346630
v 0.00468812 -0.01521111 -0.11263091
v 0.00629104 -0.01473681 -0.11300219
v 0.00727876 -0.01474239 -0.11173364
v -0.01151010 -0.01160644 -0.04096277
v -0.01190470 -0.01108192 -0.05351423
v -0.01204196 -0.01054624 -0.06520969
v -0.01173559 -0.01156180 -0.06810776
v -0.01171108 -0.01150042 -0.07468774
v -0.01161304 -0.01100938 -0.09107581
v -0.01139981 -0.01103728 -0.10198744
v -0.01127481 -0.01079176 -0.10845397
v -0.01086061 -0.01147810 -0.11034133
v -0.00999297 -0.01234858 -0.11211523
v -0.00867437 -0.01309072 -0.11379632
v -0.00775282 -0.01447455 -0.11180583
v -0.00659353 -0.01375474 -0.11507519
v -0.00378231 -0.01331950 -0.11678723
v -0.00180685 -0.01405048 -0.11579714
v -0.00180685 -0.01488189 -0.11413667
v 0.01148947 -0.01169014 -0.07378016
v 0.01143310 -0.01196356 -0.06013547
v 0.01144045 -0.01196356 -0.05712394
v 0.01119045 -0.01240996 -0.05246226
v 0.01029831 -0.01272802 -0.10833020
v 0.01090369 -0.01169014 -0.10857772
v 0.01139388 -0.01094242 -0.10311159
v 0.01138408 -0.01130512 -0.09551059
v 0.01159731 -0.01119910 -0.08273223
v 0.00795522 -0.01354270 -0.11394072
v 0.00944539 -0.01307398 -0.11169238
v 0.00294796 -0.01428484 -0.11509582
v 0.00602388 -0.01381612 -0.11528146
v -0.01171843 -0.01101496 -0.04223133
v -0.01186794 -0.01035652 -0.04171566
v -0.01204931 -0.01030630 -0.05142061
v -0.01215225 -0.01003846 -0.05712394
v -0.01225764 -0.00938002 -0.06420927
v -0.01204686 -0.01029514 -0.07318197
v -0.01185078 -0.01070248 -0.08171120
v -0.01162285 -0.01032304 -0.10091484
v -0.01155912 -0.00990454 -0.10723698
v -0.01134099 -0.00965902 -0.11218743
v -0.01094148 -0.01002172 -0.11367257
v -0.01018660 -0.01117678 -0.11415730
v -0.00902731 -0.01138882 -0.11614779
v -0.00703715 -0.01247692 -0.11676660
v -0.00435828 -0.01185754 -0.11865396
v 0.00024703 -0.01281172 -0.11771543
v 0.00361952 -0.01345900 -0.11648814
v 0.01182770 -0.01075828 -0.07071707
v 0.01168309 -0.01127164 -0.05414335
v 0.01055566 -0.01153948 -0.11201210
v 0.01122722 -0.01014448 -0.11208429
v 0.01136937 -0.01052392 -0.10929967
v 0.01161447 -0.00999940 -0.10567965
v 0.01167574 -0.01051834 -0.09240624
v 0.01184730 -0.01042348 -0.08015387
v 0.00676407 -0.01257178 -0.11684910
v 0.00830815 -0.01220908 -0.11601371
v 0.00946009 -0.01191334 -0.11452858
v 0.00566605 -0.01245460 -0.11754011
v -0.01201254 -0.00940234 -0.04026146
v -0.01226744 -0.00902290 -0.05267885
v -0.01241205 -0.00802966 -0.06481777
v -0.01229930 -0.00879970 -0.07459492
v -0.01212284 -0.00954184 -0.07988571
v -0.01190961 -0.00959206 -0.09293222
v -0.01172088 -0.00916240 -0.10619532
v -0.01168657 -0.00825286 -0.11147580
v -0.01138265 -0.00805198 -0.11456984
v -0.01065718 -0.00768370 -0.11747822
v -0.01016454 -0.00991012 -0.11614779
v -0.01002729 -0.00831982 -0.11808673
v -0.00820379 -0.01041232 -0.11831361
v -0.00633618 -0.01051276 -0.11954091
v -0.00413034 -0.01009984 -0.12044851
v -0.00066472 -0.01114888 -0.11965436
v 0.00163426 -0.01068574 -0.12007722
v 0.00387932 -0.01220908 -0.11820017
v 0.01216592 -0.00924052 -0.06935569
v 0.01187672 -0.01066342 -0.05956823
v 0.01201642 -0.00980968 -0.05262728
v 0.01060223 -0.01016122 -0.11469360
v 0.01169780 -0.00879412 -0.11090856
v 0.01119045 -0.00868810 -0.11483798
v 0.01167819 -0.00804640 -0.11299188
v 0.01179583 -0.00887782 -0.10607155
v 0.01194779 -0.00961996 -0.08760018
v 0.01210220 -0.00926842 -0.07833870
v 0.00706308 -0.01086988 -0.11875709
v 0.00804835 -0.01084756 -0.11799390
v 0.00955078 -0.01062994 -0.11636437
v 0.00535233 -0.01070248 -0.11959248
v -0.01217676 -0.00809662 -0.04010675
v -0.01238509 -0.00780646 -0.05307076
v -0.01241205 -0.00780088 -0.05698987
v -0.01252234 -0.00646726 -0.06692171
v -0.01245371 -0.00747724 -0.07323354
v -0.01234587 -0.00753862 -0.08154619
v -0.01217431 -0.00858208 -0.08574376
v -0.01199049 -0.00827518 -0.09803738
v -0.01185078 -0.00789016 -0.10662848
v -0.01175520 -0.00653422 -0.11362100
v -0.01138510 -0.00559678 -0.11697287
v -0.01065473 -0.00556888 -0.11904587
v -0.00943416 -0.00768370 -0.11949967
v -0.00794644 -0.00875506 -0.12008753
v -0.00657392 -0.00818590 -0.12133545
v -0.00512297 -0.00720382 -0.12237711
v -0.00168676 -0.00794596 -0.12220179
v -0.00043433 -0.00964228 -0.12104668
v 0.00231317 -0.00894478 -0.12150047
v 0.01238161 -0.00741586 -0.07280038
v 0.01238896 -0.00748282 -0.06506530
v 0.01215612 -0.00931864 -0.05985700
v 0.01221985 -0.00834214 -0.05343172
v 0.01065615 -0.00801292 -0.11714820
v 0.01194044 -0.00663466 -0.10901089
v 0.01105320 -0.00504436 -0.11812798
v 0.01129584 -0.00313043 -0.11877773
v 0.01171740 -0.00226553 -0.11579714
v 0.01190858 -0.00310253 -0.11219774
v 0.01201152 -0.00725962 -0.10243091
v 0.01225661 -0.00788458 -0.08219593
v 0.01190858 -0.00911218 -0.09575811
v 0.00707043 -0.00906196 -0.12039693
v 0.00877628 -0.00855976 -0.11952029
v 0.00969783 -0.00892804 -0.11805578
v 0.00548223 -0.00812452 -0.12162423
v -0.01228215 -0.00635008 -0.03623921
v -0.01248312 -0.00580882 -0.05110089
v -0.01237773 -0.00627196 -0.04308734
v -0.01242920 -0.00640588 -0.04861535
v -0.01253949 -0.00481000 -0.06470433
v -0.01252479 -0.00456449 -0.07045923
v -0.01249048 -0.00619384 -0.07631727
v -0.01193902 -0.00637798 -0.10664912
v -0.01187284 -0.00443056 -0.11305376
v -0.01174539 -0.00363821 -0.11635406
v -0.01159834 -0.00206465 -0.11768449
v -0.01081404 -0.00381677 -0.11955123
v -0.00982141 -0.00442498 -0.12089198
v -0.00866212 -0.00558004 -0.12155204
v -0.00657882 -0.00614362 -0.12255244
v -0.00549551 -0.00276773 -0.12429541
v -0.00388525 -0.00345407 -0.12422322
v -0.00065246 -0.00585346 -0.12342909
v 0.00283277 -0.00695830 -0.12269682
v 0.01238406 -0.00653422 -0.07938036
v 0.01248210 -0.00514480 -0.07117086
v 0.01249925 -0.00535126 -0.06413709
v 0.01235465 -0.00749398 -0.05913506
v 0.01221249 -0.00584788 -0.03914760
v 0.01020518 -0.00660118 -0.11911806
v 0.01043557 -0.00363263 -0.12032474
v 0.01073703 -0.00061385 -0.12054131
v 0.01134731 -0.00036833 -0.11906650
v 0.01176152 -0.00053015 -0.11591058
v 0.00743072 -0.00711454 -0.12154172
v 0.00905079 -0.00699178 -0.12040725
v 0.00579840 -0.00586462 -0.12284122
v -0.01246106 -0.00388931 -0.03952920
v -0.01248312 -0.00558004 -0.05017268
v -0.01244881 -0.00259475 -0.06326044
v -0.01241450 -0.00138947 -0.04064305
v -0.01231156 0.00106015 -0.04306671
v -0.01238018 -0.00194189 -0.06558096
v -0.01180666 -0.00195305 -0.11475548
v -0.01151500 0.00094297 -0.11755042
v -0.01105913 0.00241609 -0.11984000
v -0.01101011 -0.00054689 -0.11993283
v -0.01007140 -0.00049109 -0.12168611
v -0.00917926 -0.00148991 -0.12252150
v -0.00769890 -0.00133367 -0.12374880
v -0.00719891 -0.00425758 -0.12307842
v -0.00577982 0.00164605 -0.12562585
v -0.00405681 0.00210361 -0.12614152
v -0.00249802 0.00517819 -0.12735851
v -0.00045884 -0.00352103 -0.12437793
v 0.00269061 -0.00390605 -0.12409946
v 0.01243063 -0.00319739 -0.06546752
v 0.01230318 -0.00248873 -0.04195286
v 0.01228357 -0.00313043 -0.03932294
v 0.01229337 -0.00454216 -0.04288107
v 0.01237425 -0.00585346 -0.05435994
v 0.00962921 -0.00502204 -0.12084042
v 0.00901402 -0.00146759 -0.12262464
v 0.00983264 0.00125545 -0.12231523
v 0.01042331 0.00227101 -0.12145922
v 0.01131545 0.00161257 -0.11891180
v 0.01154339 0.00150097 -0.11725134
v 0.01057037 0.00482665 -0.12117044
v 0.00699445 -0.00519502 -0.12274840
v 0.00832286 -0.00590368 -0.12161392
v 0.00482538 -0.00332015 -0.12405821
v -0.01209097 0.00352651 -0.04220038
v -0.01150030 0.00143959 -0.11606529
v -0.01108609 0.00474853 -0.11853020
v -0.01063267 0.00596497 -0.12072697
v -0.01045620 0.00433561 -0.12166549
v -0.00999788 0.00336469 -0.12250088
v -0.00914740 0.00341491 -0.12369724
v -0.00828467 0.00294619 -0.12445012
v -0.00701264 0.00465367 -0.12579086
v -0.00497101 0.00715908 -0.12750290
v -0.00294654 0.00800724 -0.12813203
v -0.00144902 0.01085862 -0.12916335
v -0.00122598 0.00823602 -0.12842080
v -0.00007894 0.00531211 -0.12752353
v 0.00185975 -0.00013397 -0.12549178
v 0.00111711 0.00579198 -0.12763697
v 0.01202377 0.00232123 -0.04276763
v 0.01221004 -0.00115511 -0.04003456
v 0.00834737 -0.00385583 -0.12246994
v 0.00778856 0.00205339 -0.12448106
v 0.00886207 0.00314149 -0.12380037
v 0.00939392 0.00583104 -0.12351160
v 0.01088899 0.00501079 -0.11979875
v 0.01066105 0.00719814 -0.11916964
v 0.01124192 0.00371623 -0.11713789
v 0.01150417 0.00616584 -0.04439715
v 0.00995763 0.00688008 -0.12210897
v 0.00559497 -0.00061385 -0.12479046
v 0.00718808 -0.00217625 -0.12368692
v 0.00100437 0.00905628 -0.12875083
v 0.00406804 0.00553531 -0.12712130
v -0.01087531 0.01113762 -0.04119998
v -0.01146353 0.00816906 -0.04239634
v -0.01155422 0.00732090 -0.04456216
v -0.01073316 0.00686892 -0.11773607
v -0.01039248 0.00849270 -0.11861271
v -0.01015719 0.00785100 -0.12041757
v -0.00930426 0.00698052 -0.12330533
v -0.00931652 0.00599286 -0.12368692
v -0.00788762 0.00575850 -0.12534739
v -0.00546120 0.00828066 -0.12750290
v -0.00352006 0.01044570 -0.12870957
v -0.00210096 0.01237638 -0.12915304
v 0.00058526 0.01383834 -0.12928712
v 0.00022987 0.01057962 -0.12922524
v 0.01148211 0.00616584 -0.04206631
v 0.01072723 0.01037874 -0.04203537
v 0.00574203 0.00411241 -0.12622403
v 0.00679103 0.00665688 -0.12628591
v 0.00751650 0.00786774 -0.12573931
v 0.00887922 0.00725394 -0.12402727
v 0.01007038 0.00852618 -0.11975750
v 0.00815129 0.01525566 -0.11858176
v 0.01003606 0.00964218 -0.11833425
v 0.00697485 0.01697987 -0.12037630
v 0.00296512 0.01114320 -0.12883334
v 0.00281316 0.00872706 -0.12825577
v 0.00500920 0.00902280 -0.12769885
v -0.00996111 0.01464186 -0.03902384
v -0.01015719 0.01382718 -0.04137531
v -0.00944396 0.01165656 -0.11799390
v -0.00814497 0.01454700 -0.11931402
v -0.00696852 0.01638282 -0.12060320
v -0.00423083 0.01564625 -0.12678096
v -0.00457641 0.01422894 -0.12695628
v -0.00591217 0.01695197 -0.12239774
v -0.00460582 0.01159518 -0.12794638
v -0.00713518 0.00756642 -0.12600745
v -0.00414014 0.01167888 -0.12849298
v -0.00354457 0.01384392 -0.12830736
v -0.00140000 0.01394994 -0.12899834
v 0.00139162 0.01259400 -0.12928712
v -0.00066717 0.01581365 -0.12834860
v 0.00171269 0.01537842 -0.12853424
v 0.00284257 0.01399458 -0.12876114
v 0.00994048 0.01342542 -0.04137531
v 0.00932529 0.01554023 -0.03961171
v 0.00562193 0.01020018 -0.12726569
v 0.00436950 0.01331382 -0.12782262
v 0.00399941 0.01607033 -0.12688409
v 0.00915373 0.01248798 -0.11706569
v 0.00693808 0.01745417 -0.11899430
v 0.00768317 0.02019953 -0.03369179
v 0.00839149 0.01833581 -0.03671363
v 0.00471508 0.01792289 -0.12404789
v 0.00589643 0.01811819 -0.12097449
v -0.00922093 0.01705241 -0.03732212
v -0.00797095 0.01541748 -0.11845800
v -0.00834595 0.01949087 -0.03653830
v -0.00570874 0.01750439 -0.12194396
v -0.00678960 0.01719191 -0.11909744
v -0.00370142 0.01714169 -0.12584244
v -0.00296614 0.01591409 -0.12749258
v -0.00459111 0.01741511 -0.12456357
v -0.00132157 0.01782245 -0.12628591
v 0.00075437 0.01676783 -0.12771948
v 0.00252395 0.01728677 -0.12671907
v 0.00364893 0.01495434 -0.12790512
v 0.00350922 0.01810145 -0.12517206
v 0.00493077 0.01916165 -0.11973687
v 0.00438666 0.02729170 -0.02567825
v 0.00409010 0.01888265 -0.12245962
v -0.00834840 0.01954109 -0.03435186
v -0.00772831 0.02104769 -0.03491909
v -0.00649059 0.02426177 -0.02804002
v -0.00605677 0.02541124 -0.02459533
v -0.00492689 0.02726380 -0.02699837
v -0.00492934 0.01853669 -0.12055164
v -0.00416710 0.01819631 -0.12335689
v -0.00505679 0.01877663 -0.11841675
v -0.00424798 0.02824588 -0.02750373
v -0.00260341 0.01850879 -0.12421291
v 0.00071761 0.01812377 -0.12630653
v -0.00050541 0.01895519 -0.12426448
v 0.00158524 0.01891613 -0.12482140
v 0.00223964 0.01936253 -0.12300623
v 0.00369795 0.01983125 -0.11941715
v 0.00162446 0.02913310 -0.02724589
v 0.00294061 0.02866996 -0.02397653
v -0.00648078 0.02446265 -0.02393527
v -0.00315732 0.01941275 -0.12095386
v -0.00275536 0.01987031 -0.11928308
v -0.00347594 0.02876482 -0.02519351
v -0.00015737 0.01951877 -0.12276903
v 0.00104604 0.02013815 -0.12090230
v 0.00189651 0.02036693 -0.11962342
v 0.00096270 0.02937304 -0.02600828
v -0.00006914 0.02034461 -0.11945841
v -0.00039511 0.02932282 -0.02448188
v 0.00587959 0.02489601 -0.02331912
v 0.00521862 0.02631090 -0.01919276
v 0.00488345 0.02683662 -0.01614312
v 0.00493708 0.02662244 -0.02304838
v 0.00420104 0.02766997 -0.01334866
v 0.00418092 0.02792439 -0.01766483
v 0.00357493 0.02830083 -0.01384033
v 0.00375056 0.02825150 -0.02323821
v 0.00340466 0.02858640 -0.01966266
v 0.00244875 0.02874736 -0.01302502
v 0.00282816 0.02879020 -0.01659746
v 0.00221681 0.02903683 -0.02155468
v 0.00150490 0.02881227 -0.01154688
v 0.00181862 0.02907577 -0.01648854
v 0.00051144 0.02924582 -0.01465876
v -0.00135749 0.02924063 -0.01519089
v -0.00043509 0.02932240 -0.02393216
v -0.00076222 0.02929255 -0.01957553
v -0.00320363 0.02879929 -0.01393991
v -0.00062815 0.02930034 -0.02393216
v -0.00231073 0.02911342 -0.01999252
v -0.00546941 0.02666787 -0.01669393
v -0.00620947 0.02502452 -0.01960353
v -0.00681949 0.02354992 -0.02393216
v -0.00647895 0.02449881 -0.02316974
v -0.00370639 0.02873179 -0.01787955
v -0.00432847 0.02830472 -0.01561099
v -0.00340473 0.02879409 -0.02393216
v -0.00328943 0.02883823 -0.02191566
v -0.00506586 0.02751161 -0.01837745
v -0.00570537 0.02627975 -0.01995829
v -0.00600837 0.02553596 -0.02393216
v -0.00625103 0.02499337 -0.02393216
v -0.00471191 0.02793478 -0.02129328
v -0.00547343 0.02665878 -0.02274030
v -0.00585150 0.02585268 -0.02393216
v -0.00481112 0.02762584 -0.02393216
v -0.00532059 0.02683013 -0.02393216
v -0.01196013 -0.00723557 -0.02351712
v -0.01195311 -0.00735564 -0.02393527
f 75 485 66
f 57 378 63
f 355 385 378
f 355 357 356
f 378 357 355
f 355 384 385
f 485 75 483
f 449 457 458
f 25 16 15
f 26 16 25
f 24 25 15
f 37 25 24
f 36 37 24
f 270 302 300
f 302 303 300
f 110 99 12
f 461 384 413
f 413 464 461
f 408 63 407
f 407 63 378
f 407 385 408
f 378 385 407
f 56 37 36
f 57 46 56
f 36 319 56
f 56 319 57
f 57 63 62
f 62 46 57
f 63 46 62
f 64 63 70
f 64 46 63
f 348 57 349
f 23 187 35
f 23 24 15
f 35 24 23
f 23 159 187
f 126 159 23
f 286 317 287
f 286 294 317
f 258 294 286
f 377 57 348
f 348 357 377
f 377 378 57
f 377 357 378
f 408 385 412
f 385 384 412
f 141 171 172
f 67 53 66
f 66 363 67
f 52 53 33
f 298 34 33
f 298 266 34
f 270 299 298
f 485 483 491
f 491 75 482
f 491 483 75
f 45 27 26
f 71 60 70
f 70 77 71
f 70 60 69
f 69 60 59
f 69 64 70
f 42 60 61
f 59 60 42
f 42 43 26
f 50 65 66
f 66 53 50
f 482 75 74
f 74 65 61
f 61 73 74
f 74 75 66
f 66 65 74
f 413 468 432
f 432 464 413
f 466 432 468
f 464 432 466
f 466 63 463
f 458 475 474
f 468 450 469
f 469 466 468
f 36 24 38
f 38 24 35
f 95 109 107
f 107 109 132
f 271 300 303
f 270 300 271
f 271 233 270
f 271 272 233
f 236 235 237
f 201 235 236
f 203 236 237
f 272 271 304
f 304 271 303
f 363 367 364
f 364 67 363
f 12 169 140
f 140 110 12
f 140 169 141
f 141 110 140
f 111 110 141
f 99 110 111
f 89 90 82
f 82 88 89
f 82 90 83
f 90 89 2
f 2 88 5
f 2 89 88
f 90 2 98
f 127 105 107
f 5 88 1
f 463 63 462
f 63 461 462
f 462 461 464
f 462 466 463
f 464 466 462
f 408 412 415
f 415 412 384
f 415 63 408
f 415 461 63
f 37 56 39
f 26 25 39
f 39 25 37
f 39 46 26
f 39 56 46
f 57 319 318
f 318 349 57
f 287 317 318
f 318 319 287
f 318 317 348
f 348 349 318
f 431 468 413
f 431 450 468
f 449 450 431
f 460 477 458
f 487 479 486
f 476 479 81
f 476 77 475
f 454 460 459
f 459 460 458
f 458 457 459
f 457 456 459
f 411 382 410
f 384 355 383
f 413 384 386
f 411 416 386
f 386 382 411
f 302 53 68
f 53 67 68
f 33 34 21
f 270 233 267
f 267 299 270
f 267 298 299
f 33 53 54
f 54 298 33
f 53 298 54
f 301 53 302
f 301 298 53
f 301 302 270
f 270 298 301
f 34 266 499
f 499 21 34
f 170 198 171
f 170 171 141
f 141 169 170
f 495 494 498
f 70 475 76
f 76 77 70
f 475 77 76
f 58 69 59
f 46 64 58
f 64 69 58
f 65 50 47
f 61 65 47
f 53 52 51
f 51 50 53
f 30 50 51
f 27 28 18
f 26 27 18
f 18 16 26
f 18 9 16
f 10 9 18
f 78 71 77
f 60 71 72
f 71 73 72
f 61 60 72
f 72 73 61
f 487 74 80
f 80 479 487
f 81 479 80
f 80 74 73
f 490 74 487
f 482 74 490
f 487 494 490
f 490 491 482
f 490 495 491
f 494 495 490
f 70 63 467
f 467 469 471
f 466 469 467
f 458 474 472
f 472 474 471
f 471 469 472
f 472 449 458
f 472 450 449
f 472 469 450
f 471 474 470
f 70 467 470
f 470 467 471
f 470 474 475
f 287 319 320
f 100 118 101
f 102 95 93
f 93 92 102
f 133 132 109
f 107 132 133
f 133 134 107
f 196 188 166
f 166 188 160
f 67 364 332
f 302 68 332
f 332 68 67
f 332 303 302
f 201 236 202
f 236 203 202
f 82 83 84
f 84 92 93
f 12 99 13
f 129 130 105
f 163 130 129
f 85 86 82
f 82 84 85
f 85 84 93
f 93 95 85
f 16 9 8
f 15 16 8
f 8 14 15
f 6 9 10
f 6 2 5
f 107 105 94
f 86 85 94
f 94 95 107
f 94 85 95
f 87 1 88
f 87 88 82
f 82 86 87
f 86 94 87
f 3 1 96
f 96 8 3
f 1 87 96
f 96 87 94
f 15 14 17
f 17 23 15
f 126 23 17
f 14 8 17
f 384 461 414
f 414 415 384
f 461 415 414
f 228 196 195
f 228 264 253
f 447 456 457
f 447 446 456
f 456 446 455
f 455 459 456
f 452 459 455
f 254 222 258
f 220 222 254
f 257 294 258
f 258 222 257
f 285 260 259
f 259 254 285
f 258 286 285
f 285 254 258
f 79 476 81
f 77 476 79
f 81 80 79
f 79 80 73
f 79 78 77
f 79 73 71
f 71 78 79
f 478 475 458
f 478 476 475
f 458 477 478
f 477 476 478
f 481 486 479
f 479 476 481
f 406 375 405
f 405 375 404
f 380 379 389
f 454 459 453
f 453 459 452
f 424 426 404
f 423 426 424
f 327 355 356
f 327 357 348
f 356 357 327
f 348 317 327
f 317 294 327
f 411 410 429
f 429 410 406
f 406 405 429
f 429 428 411
f 429 405 428
f 381 410 382
f 417 386 416
f 417 431 413
f 413 386 417
f 390 363 66
f 66 418 390
f 392 367 390
f 390 418 392
f 434 418 66
f 234 200 233
f 201 200 234
f 233 272 234
f 234 235 201
f 272 235 234
f 32 52 33
f 33 21 32
f 32 51 52
f 30 51 32
f 12 21 22
f 22 21 198
f 22 169 12
f 22 170 169
f 198 170 22
f 233 200 232
f 232 267 233
f 266 298 268
f 198 21 500
f 21 499 500
f 393 367 392
f 393 368 367
f 419 495 498
f 419 496 495
f 419 393 392
f 26 46 40
f 46 58 40
f 49 50 30
f 30 47 49
f 49 47 50
f 61 47 44
f 27 45 44
f 44 47 27
f 44 42 61
f 43 42 44
f 26 43 44
f 44 45 26
f 48 28 27
f 27 47 48
f 48 47 28
f 29 18 28
f 29 47 30
f 28 47 29
f 63 466 465
f 465 467 63
f 466 467 465
f 473 475 70
f 70 470 473
f 473 470 475
f 36 38 55
f 35 187 218
f 218 38 35
f 218 252 38
f 38 252 289
f 289 55 38
f 287 320 289
f 36 55 289
f 289 319 36
f 289 320 319
f 121 101 120
f 90 98 97
f 97 13 99
f 221 222 189
f 189 222 220
f 220 190 189
f 195 196 165
f 196 166 165
f 165 166 134
f 134 133 139
f 139 165 134
f 138 165 139
f 109 138 139
f 139 133 109
f 135 166 160
f 134 166 135
f 160 127 135
f 107 134 135
f 135 127 107
f 205 177 204
f 204 203 237
f 238 239 205
f 238 204 237
f 205 204 238
f 237 235 238
f 272 304 274
f 229 262 226
f 229 226 197
f 103 101 121
f 103 92 101
f 181 209 210
f 208 209 181
f 173 200 201
f 91 84 83
f 92 84 91
f 101 92 91
f 91 100 101
f 91 83 90
f 90 97 91
f 99 100 91
f 91 97 99
f 160 188 161
f 161 127 160
f 188 189 161
f 161 189 190
f 4 6 5
f 9 6 4
f 5 1 4
f 4 1 3
f 3 8 4
f 4 8 9
f 7 97 98
f 13 97 7
f 7 98 2
f 2 6 7
f 12 13 7
f 106 94 105
f 106 96 94
f 106 105 126
f 8 96 106
f 126 17 106
f 106 17 8
f 219 189 188
f 221 189 219
f 219 188 196
f 196 228 219
f 253 221 219
f 219 228 253
f 448 447 457
f 457 449 448
f 449 431 448
f 446 447 430
f 430 416 411
f 411 428 430
f 430 428 444
f 444 446 430
f 452 455 443
f 443 426 423
f 293 327 294
f 326 327 293
f 293 328 326
f 249 286 287
f 249 285 286
f 287 250 249
f 260 285 249
f 249 250 216
f 486 481 489
f 480 476 477
f 480 481 476
f 477 460 480
f 480 460 454
f 454 481 480
f 367 368 335
f 335 334 367
f 240 239 275
f 275 274 304
f 239 274 275
f 366 364 367
f 367 334 366
f 366 334 364
f 365 332 364
f 364 334 365
f 365 334 332
f 303 332 333
f 332 334 333
f 333 304 303
f 444 428 427
f 428 405 427
f 427 405 404
f 427 426 444
f 404 426 427
f 351 379 380
f 351 360 379
f 253 264 290
f 355 327 354
f 354 327 326
f 354 328 355
f 326 328 354
f 292 324 325
f 325 293 292
f 328 293 325
f 355 328 358
f 358 383 355
f 382 386 358
f 384 383 358
f 358 386 384
f 410 381 409
f 406 410 409
f 380 389 409
f 409 381 380
f 409 387 406
f 389 387 409
f 391 367 363
f 363 390 391
f 391 390 367
f 66 485 484
f 484 434 66
f 485 434 484
f 485 451 435
f 435 451 436
f 436 419 435
f 392 418 420
f 418 434 420
f 420 419 392
f 420 435 419
f 420 434 485
f 485 435 420
f 20 21 12
f 230 499 266
f 198 500 230
f 230 500 499
f 267 232 231
f 266 268 231
f 231 230 266
f 437 419 436
f 496 419 437
f 423 424 395
f 393 419 394
f 422 421 394
f 394 419 422
f 368 393 394
f 41 58 59
f 41 40 58
f 26 40 41
f 41 42 26
f 59 42 41
f 217 186 216
f 187 186 217
f 217 218 187
f 288 250 287
f 288 289 252
f 252 218 251
f 251 288 252
f 250 288 251
f 216 250 251
f 251 217 216
f 218 217 251
f 148 118 117
f 118 100 117
f 113 114 100
f 113 100 99
f 203 204 176
f 176 204 177
f 114 113 144
f 225 224 260
f 225 249 216
f 260 249 225
f 259 260 223
f 220 254 223
f 223 254 259
f 191 223 224
f 191 190 220
f 220 223 191
f 224 225 193
f 216 186 193
f 193 225 216
f 158 159 126
f 187 159 158
f 158 186 187
f 239 238 273
f 273 274 239
f 273 238 235
f 273 235 272
f 272 274 273
f 227 228 195
f 264 228 227
f 195 165 194
f 194 197 226
f 194 227 195
f 226 227 194
f 265 262 229
f 284 297 265
f 213 214 184
f 247 213 212
f 214 213 247
f 229 197 215
f 215 214 229
f 184 214 215
f 109 95 108
f 108 102 122
f 95 102 108
f 137 138 109
f 109 108 137
f 137 108 136
f 154 136 155
f 154 153 184
f 155 136 125
f 125 108 122
f 136 108 125
f 104 102 92
f 92 103 104
f 122 102 104
f 104 125 122
f 103 125 104
f 207 209 208
f 208 179 207
f 178 179 148
f 178 177 205
f 180 179 208
f 208 181 180
f 243 211 210
f 404 375 402
f 375 374 402
f 199 232 200
f 200 173 199
f 199 173 172
f 199 231 232
f 199 172 171
f 230 231 199
f 171 198 199
f 198 230 199
f 163 129 128
f 127 161 128
f 105 127 128
f 128 129 105
f 11 6 10
f 11 7 6
f 12 7 11
f 11 18 12
f 10 18 11
f 416 430 433
f 433 430 447
f 447 448 433
f 433 448 431
f 433 417 416
f 431 417 433
f 445 455 446
f 445 443 455
f 426 443 445
f 445 446 444
f 444 426 445
f 452 443 440
f 442 494 487
f 442 441 422
f 487 486 442
f 454 453 442
f 453 441 442
f 442 486 454
f 454 486 488
f 486 489 488
f 488 481 454
f 488 489 481
f 334 335 306
f 335 336 306
f 403 375 406
f 406 387 403
f 439 453 452
f 439 441 453
f 452 440 439
f 439 440 421
f 439 421 422
f 422 441 439
f 350 351 323
f 360 351 350
f 323 322 350
f 322 330 350
f 329 360 350
f 350 330 329
f 352 324 323
f 323 351 352
f 352 351 380
f 380 381 352
f 264 227 263
f 263 226 262
f 263 227 226
f 291 290 322
f 291 324 292
f 323 324 291
f 291 322 323
f 328 325 353
f 382 358 353
f 353 358 328
f 353 325 324
f 324 352 353
f 353 381 382
f 353 352 381
f 19 20 12
f 30 20 19
f 19 29 30
f 12 18 19
f 18 29 19
f 30 32 31
f 31 20 30
f 31 32 21
f 21 20 31
f 267 231 269
f 269 231 268
f 298 267 269
f 269 268 298
f 436 451 493
f 493 437 436
f 493 451 485
f 397 394 421
f 287 289 321
f 321 288 287
f 289 288 321
f 99 111 112
f 112 113 99
f 111 113 112
f 146 176 177
f 143 113 111
f 143 144 113
f 201 202 174
f 174 173 201
f 260 224 261
f 261 223 260
f 224 223 261
f 186 156 164
f 164 193 186
f 126 156 157
f 157 158 126
f 157 156 186
f 186 158 157
f 295 297 329
f 295 265 297
f 262 265 295
f 329 330 295
f 295 263 262
f 284 265 248
f 214 247 248
f 229 214 248
f 248 265 229
f 138 137 168
f 197 194 168
f 168 165 138
f 168 194 165
f 183 211 212
f 212 213 183
f 184 153 183
f 183 213 184
f 155 125 124
f 124 125 103
f 124 152 153
f 124 154 155
f 153 154 124
f 123 103 121
f 123 124 103
f 152 124 123
f 121 120 119
f 101 118 119
f 119 120 101
f 240 207 206
f 206 207 179
f 179 178 206
f 206 239 240
f 205 239 206
f 206 178 205
f 209 207 241
f 241 207 240
f 284 248 246
f 246 248 247
f 246 247 212
f 210 209 242
f 242 243 210
f 209 241 242
f 163 128 162
f 162 128 161
f 162 161 190
f 190 191 162
f 162 164 163
f 425 443 423
f 425 440 443
f 421 440 425
f 425 397 421
f 423 395 425
f 395 397 425
f 438 419 498
f 422 419 438
f 438 442 422
f 334 306 305
f 305 333 334
f 305 275 304
f 304 333 305
f 282 314 315
f 342 373 343
f 343 314 342
f 343 373 374
f 343 374 375
f 362 389 379
f 362 387 389
f 255 221 253
f 253 290 255
f 437 493 492
f 496 437 492
f 485 491 492
f 492 493 485
f 491 495 492
f 495 496 492
f 116 146 117
f 116 117 100
f 176 146 145
f 114 144 145
f 148 117 147
f 117 146 147
f 147 146 177
f 147 178 148
f 177 178 147
f 142 111 141
f 142 143 111
f 141 172 142
f 144 143 142
f 142 174 144
f 172 173 142
f 173 174 142
f 131 164 156
f 131 156 126
f 131 130 163
f 163 164 131
f 126 105 131
f 105 130 131
f 296 295 330
f 263 295 296
f 296 330 322
f 322 290 296
f 296 290 264
f 264 263 296
f 167 137 136
f 167 168 137
f 136 154 167
f 211 183 182
f 210 211 182
f 153 152 182
f 182 183 153
f 182 181 210
f 152 123 151
f 151 123 121
f 121 119 151
f 150 180 181
f 150 151 119
f 152 151 150
f 181 182 150
f 150 182 152
f 243 242 279
f 245 246 212
f 211 243 244
f 280 245 244
f 243 279 244
f 244 279 280
f 212 211 244
f 244 245 212
f 400 373 372
f 374 373 400
f 340 312 310
f 193 164 192
f 164 162 192
f 192 162 191
f 192 191 224
f 224 193 192
f 494 442 497
f 442 438 497
f 498 494 497
f 497 438 498
f 275 305 276
f 276 305 306
f 240 275 276
f 284 246 283
f 246 245 283
f 282 315 283
f 283 245 282
f 316 297 284
f 284 283 316
f 316 283 315
f 345 315 314
f 387 362 388
f 290 291 256
f 256 255 290
f 292 293 256
f 256 291 292
f 256 257 222
f 256 222 221
f 221 255 256
f 294 257 256
f 256 293 294
f 146 116 115
f 114 145 115
f 115 145 146
f 100 114 115
f 115 116 100
f 144 174 175
f 175 145 144
f 175 174 202
f 176 145 175
f 175 202 203
f 203 176 175
f 185 154 184
f 185 167 154
f 184 215 185
f 185 215 197
f 197 168 185
f 168 167 185
f 180 150 149
f 149 150 119
f 149 119 118
f 149 118 148
f 148 179 149
f 179 180 149
f 282 245 281
f 281 245 280
f 372 373 341
f 341 340 372
f 312 340 341
f 341 373 342
f 370 336 335
f 396 395 401
f 401 400 396
f 401 395 424
f 401 424 404
f 404 402 401
f 401 402 374
f 374 400 401
f 339 340 310
f 338 308 337
f 336 370 337
f 337 370 338
f 307 306 336
f 336 337 307
f 307 337 308
f 307 276 306
f 278 242 241
f 278 279 242
f 297 316 331
f 331 316 347
f 329 297 331
f 376 403 387
f 375 403 376
f 376 343 375
f 346 316 315
f 315 345 346
f 347 316 346
f 346 345 347
f 313 281 312
f 312 341 313
f 313 314 282
f 282 281 313
f 342 314 313
f 313 341 342
f 310 312 311
f 312 281 311
f 311 281 280
f 311 279 310
f 280 279 311
f 399 400 372
f 396 400 398
f 398 370 396
f 400 399 398
f 398 399 370
f 369 395 396
f 396 370 369
f 369 397 395
f 394 397 369
f 368 394 369
f 369 335 368
f 369 370 335
f 277 307 308
f 277 278 241
f 308 278 277
f 277 241 240
f 240 276 277
f 276 307 277
f 338 339 309
f 309 308 338
f 309 278 308
f 309 339 310
f 310 279 309
f 279 278 309
f 359 360 329
f 329 331 359
f 379 360 359
f 359 362 379
f 359 331 362
f 344 345 314
f 344 376 345
f 314 343 344
f 343 376 344
f 347 345 361
f 345 376 361
f 361 331 347
f 362 331 361
f 361 388 362
f 387 388 361
f 361 376 387
f 372 340 371
f 371 399 372
f 340 339 371
f 371 339 338
f 338 370 371
f 370 399 371

