# https://github.com/mikedh/trimesh
v -0.02123870 -0.00107604 0.05900963
v 0.02174318 0.00148348 0.04190259
v -0.00173630 -0.02195460 0.04222503
v -0.00482211 0.02185921 0.04206144
v 0.01242748 0.01563293 0.06025467
v 0.01402417 -0.01394915 0.05983129
v -0.01873601 -0.01120348 0.04119542
v -0.01210584 0.01670080 0.06004180
v -0.01047073 -0.01814918 0.05927861
v -0.02081284 0.00811834 0.04175109
v 0.01320825 0.01842836 0.04205295
v 0.01489868 -0.01540417 0.04177888
v 0.02131011 0.00191825 0.05852548
v 0.00039978 0.02131778 0.05906096
v 0.00232211 -0.02106775 0.05838619
v 0.01880572 0.01133876 0.05078215
v -0.01933605 -0.01037295 0.05230338
v -0.01418482 0.01649577 0.04156645
v -0.02045303 0.00824437 0.05388636
v 0.01273421 -0.00245406 0.06014001
v 0.02053488 -0.00774598 0.05629987
v 0.00497238 0.02237117 0.04284335
v -0.02177614 -0.00094640 0.04089374
v 0.00731762 -0.02103133 0.04194754
v 0.01872850 0.01128948 0.04189765
v 0.02048504 -0.00861411 0.04211888
v -0.01011214 -0.01964558 0.04142100
v -0.01639057 -0.01014457 0.05998144
v 0.01753561 -0.01274414 0.05055440
v -0.00524776 -0.02085559 0.05364647
v 0.01904954 0.00949665 0.05916118
v -0.01693702 0.00969729 0.06031821
v -0.01585808 0.01496060 0.05399644
v 0.02164740 0.00242674 0.05137470
v 0.00917947 -0.01906969 0.05861551
v -0.01292816 -0.01726007 0.05271463
v -0.00598902 0.02118271 0.05650664
v 0.00729496 0.02002615 0.05919728
v -0.02174141 -0.00363689 0.05281555
v 0.01470883 0.01615050 0.05453575
v -0.02079421 -0.00683946 0.04482824
v -0.00489189 -0.01997545 0.05957995
v -0.02063507 0.00467923 0.05928998
v -0.02026441 -0.00674754 0.05800372
v -0.01490585 -0.01530086 0.05851804
v -0.02203220 0.00174063 0.05470321
v 0.01975544 -0.00404665 0.05987163
v -0.00374393 0.01850613 0.06046297
v 0.01542441 -0.01499652 0.05496152
v 0.02023923 0.00768009 0.05449064
v -0.01865841 0.01272604 0.04254360
v 0.00232602 -0.02136496 0.05343615
v 0.02169560 -0.00342857 0.04228276
v 0.01800749 -0.01119451 0.05904313
v 0.02091044 0.00702612 0.04254217
v 0.00030756 0.02179413 0.04186575
v -0.00933403 0.02037410 0.04236560
v -0.01637997 -0.01513409 0.04231554
v 0.01638138 0.01343424 0.05937012
v 0.01672286 0.01529137 0.04267348
v -0.02196500 0.00161212 0.04461726
v 0.01835560 0.01171268 0.05526265
v 0.00271211 -0.02177134 0.04149073
v 0.01112883 0.01878542 0.05463775
v -0.00837178 0.01895013 0.06003086
v 0.00981737 0.02107117 0.04252756
v 0.01105773 -0.01893693 0.04215704
v -0.00129715 -0.02146631 0.05556840
v -0.01599662 0.01371426 0.05960007
v -0.00017296 -0.01841726 0.05984411
v 0.01778469 -0.01298297 0.04254783
v 0.00551549 -0.01944589 0.05960792
v 0.01229722 -0.01706745 0.05906861
v 0.00380746 0.02008049 0.06021772
v 0.02051597 0.00634073 0.05813480
v 0.01054506 0.01851716 0.05922021
v -0.01920965 -0.00421338 0.06007241
v -0.01275818 0.01295191 0.06038425
v -0.01272078 -0.01747563 0.04123709
v 0.01956216 -0.00734052 0.05950345
v -0.00958752 -0.01516264 0.05992502
v -0.00183348 -0.02098912 0.05899126
v -0.02002296 0.00166337 0.06008028
v -0.01188286 0.01923300 0.04386810
v -0.01697726 -0.01296776 0.05843233
v -0.00001411 0.01861504 0.06048571
v -0.00462259 -0.02125536 0.04172436
v 0.01822178 0.00678799 0.06010773
v 0.00672982 0.01740527 0.06043090
v -0.00759871 -0.01986655 0.05845857
v 0.02144877 -0.00100359 0.05847409
v -0.00250913 0.02111988 0.05886050
v 0.01634147 0.00943395 0.06017908
v 0.02138053 0.00447172 0.05615082
v -0.02004170 -0.00920864 0.04356001
v -0.00752843 -0.02063240 0.04157753
v 0.01311868 0.01297444 0.06028524
v -0.01621998 0.01547762 0.04308486
v -0.01996578 0.00730136 0.05898821
v -0.02202441 -0.00142028 0.05436512
v -0.01953802 0.01043416 0.04113486
v -0.02171751 0.00431132 0.05406326
v -0.00180233 0.02274747 0.04318514
v -0.01973588 -0.00875201 0.04099115
v 0.00750085 -0.01746038 0.05980835
v -0.00638509 0.02032403 0.05916008
v -0.01406002 0.01671256 0.05352628
v -0.01930284 -0.00895498 0.05885306
v -0.01279631 -0.01545166 0.05984280
v 0.01697207 0.01360228 0.05443516
v 0.02058530 0.00406679 0.05948732
v -0.01757160 0.01321568 0.05372028
v -0.01413701 0.01605993 0.05882725
v -0.01901902 0.00951718 0.05863219
v -0.00591912 -0.01779733 0.05987298
v -0.01055545 0.01849775 0.05907699
v -0.01744322 -0.00793713 0.06001862
v 0.01305769 -0.01759615 0.04212176
v 0.02168126 0.00256655 0.04897718
v 0.02173555 -0.00088866 0.04188657
v 0.01504377 0.01688430 0.04217054
v 0.01946762 0.00185555 0.06000794
v 0.02148301 0.00381460 0.04209340
v 0.01638979 -0.01277874 0.05949029
v -0.01775160 -0.01319627 0.04180942
v 0.01736825 0.01323341 0.04192598
v -0.00723012 0.02125364 0.04238813
v -0.01081315 0.01881147 0.04166715
f 126 101 56
f 23 95 41
f 23 61 10
f 10 101 23
f 51 101 10
f 56 101 128
f 51 10 19
f 21 71 26
f 23 101 25
f 101 126 25
f 2 120 25
f 25 120 23
f 11 126 56
f 56 66 11
f 125 79 58
f 125 7 79
f 95 7 125
f 104 95 23
f 104 7 95
f 79 7 104
f 69 99 32
f 49 73 118
f 118 71 49
f 124 73 49
f 49 54 124
f 118 73 67
f 67 24 118
f 58 79 27
f 27 36 58
f 12 120 26
f 118 24 12
f 12 71 118
f 26 71 12
f 9 36 90
f 36 27 90
f 24 15 52
f 35 15 24
f 35 67 73
f 24 67 35
f 20 70 105
f 115 70 20
f 103 56 4
f 56 128 4
f 18 101 51
f 18 128 101
f 102 19 10
f 102 61 46
f 102 10 61
f 102 99 19
f 22 56 103
f 22 66 56
f 34 94 91
f 91 21 53
f 53 34 91
f 120 34 53
f 26 120 53
f 53 21 26
f 60 55 25
f 40 11 66
f 95 125 17
f 58 85 17
f 17 125 58
f 45 36 9
f 9 109 45
f 45 109 85
f 45 85 58
f 58 36 45
f 114 99 69
f 19 99 114
f 77 32 83
f 46 61 100
f 100 61 23
f 80 21 91
f 80 54 21
f 124 54 80
f 29 49 71
f 54 49 29
f 71 21 29
f 21 54 29
f 96 90 27
f 96 87 3
f 63 12 24
f 63 96 27
f 63 27 79
f 87 96 63
f 79 104 63
f 3 87 63
f 63 104 23
f 24 52 63
f 23 120 63
f 120 12 63
f 68 52 15
f 3 63 68
f 68 63 52
f 6 73 124
f 20 105 6
f 72 35 73
f 73 6 72
f 72 6 105
f 15 35 72
f 72 105 70
f 9 90 42
f 70 115 42
f 42 72 70
f 42 109 9
f 42 115 109
f 8 32 78
f 69 32 8
f 48 8 78
f 65 8 48
f 119 120 2
f 119 34 120
f 94 34 119
f 20 122 88
f 88 93 20
f 111 88 122
f 2 25 123
f 25 55 123
f 123 119 2
f 123 55 94
f 94 119 123
f 126 11 121
f 121 25 126
f 121 60 25
f 11 40 121
f 121 40 60
f 110 40 59
f 60 40 110
f 55 60 16
f 66 22 38
f 108 17 85
f 44 17 108
f 85 109 108
f 109 28 108
f 39 17 44
f 44 100 39
f 39 41 95
f 95 17 39
f 23 41 39
f 39 100 23
f 43 32 99
f 43 83 32
f 43 102 46
f 99 102 43
f 77 83 1
f 1 108 77
f 44 108 1
f 83 43 1
f 1 100 44
f 46 100 1
f 1 43 46
f 109 115 81
f 81 28 109
f 81 115 20
f 78 32 81
f 90 96 30
f 30 68 90
f 30 96 3
f 3 68 30
f 47 122 20
f 20 6 47
f 47 111 122
f 124 80 47
f 47 6 124
f 47 80 91
f 91 111 47
f 15 72 82
f 72 42 82
f 82 68 15
f 90 68 82
f 82 42 90
f 97 89 20
f 20 93 97
f 69 8 113
f 86 48 78
f 78 81 86
f 86 81 20
f 20 89 86
f 103 4 127
f 91 94 13
f 13 111 91
f 94 75 13
f 75 111 13
f 31 111 75
f 59 88 31
f 88 111 31
f 94 55 50
f 55 16 50
f 50 75 94
f 50 31 75
f 64 40 66
f 89 97 5
f 5 97 93
f 5 88 59
f 93 88 5
f 77 108 117
f 117 108 28
f 28 81 117
f 117 32 77
f 117 81 32
f 69 113 112
f 51 19 112
f 112 114 69
f 19 114 112
f 33 112 113
f 98 18 51
f 51 112 98
f 112 33 98
f 116 8 65
f 116 113 8
f 65 106 116
f 48 86 74
f 74 86 89
f 65 48 74
f 89 5 74
f 57 4 128
f 57 127 4
f 128 18 57
f 62 50 16
f 31 50 62
f 60 110 62
f 62 16 60
f 62 110 59
f 59 31 62
f 76 5 59
f 38 74 76
f 76 74 5
f 59 40 76
f 40 64 76
f 66 38 76
f 76 64 66
f 14 74 38
f 14 38 22
f 92 106 14
f 14 22 103
f 14 106 65
f 65 74 14
f 37 116 106
f 127 57 37
f 103 127 37
f 37 106 92
f 37 14 103
f 92 14 37
f 107 33 113
f 107 98 33
f 113 116 107
f 116 37 84
f 84 37 57
f 84 107 116
f 98 107 84
f 18 98 84
f 84 57 18

