# https://github.com/mikedh/trimesh
v -0.05633111 -0.00015636 0.08914974
v 0.05826164 -0.00138184 0.07737463
v 0.00131498 0.05706632 0.07966650
v 0.00006850 -0.05836692 0.08434928
v 0.04187590 0.03918052 0.09018493
v -0.04069130 -0.03996228 0.07545704
v 0.04066921 -0.04074490 0.09133563
v -0.03986344 0.03976068 0.07665852
v -0.02044811 0.04903143 0.09299482
v 0.02369519 -0.05238056 0.07450246
v -0.02396791 -0.05074809 0.09219953
v -0.04942324 -0.02430062 0.09275741
v 0.05180193 -0.02547279 0.07533965
v -0.04997060 0.02382846 0.09198324
v 0.05382096 0.01809924 0.09196053
v 0.02053985 0.05087813 0.09291469
v -0.05432614 -0.01488081 0.07559881
v 0.05401624 -0.01398695 0.09238277
v -0.01649206 -0.05467321 0.07450261
v 0.01620710 -0.05179244 0.09266913
v 0.03082873 0.04746322 0.07673667
v 0.04944145 0.02840985 0.07648315
v -0.05454985 0.01466017 0.07651155
v -0.03798452 -0.03955942 0.09282751
v -0.01701690 0.05326348 0.07667501
v 0.03796735 -0.04378083 0.07523775
v -0.03993272 0.03642716 0.09241149
v 0.01694444 0.05421649 0.07678281
v 0.05597521 0.01465854 0.07653977
v 0.05696616 0.00320329 0.09179929
v 0.05017729 -0.02860221 0.09085082
v -0.00554745 0.05402641 0.09281152
v -0.04875084 0.02821444 0.07661088
v 0.02989152 -0.04982559 0.08775216
v -0.02971565 -0.04922219 0.07632322
v -0.04964204 -0.02825265 0.07737479
v -0.01014101 -0.05408436 0.09272811
v 0.01048334 -0.05659167 0.07482857
v 0.00818212 0.05584529 0.09112415
v -0.02939336 0.04867689 0.07851996
v 0.04141813 0.03953058 0.07674821
v -0.05492498 -0.01284099 0.08997840
v -0.05480604 0.01237079 0.08975603
v 0.05663400 -0.01398298 0.07737463
v -0.05662419 -0.00138281 0.07658531
v 0.03245145 0.04707905 0.08997826
v 0.04969200 0.02933175 0.08975603
v -0.03190243 0.04586089 0.09120558
v 0.04603450 -0.03575521 0.07622881
v -0.00505676 -0.05696193 0.07450406
v -0.04585991 -0.03349486 0.08883110
v 0.00589551 -0.05523033 0.09263463
v -0.03347239 -0.04651284 0.08539446
v 0.01170118 -0.05684053 0.08539366
v -0.01396375 0.05474783 0.08883160
v -0.01701478 -0.05520032 0.08654041
v -0.00784965 0.05628468 0.07852086
v 0.05754271 -0.00596521 0.08997840
v 0.02004147 -0.05459859 0.08539375
v 0.04651193 -0.03509863 0.08654024
v -0.04623976 0.03243078 0.08828443
v 0.03169486 -0.04894095 0.07703498
v 0.05387541 -0.02200430 0.08768557
v 0.05691985 0.01081209 0.08883122
v 0.05785844 0.00663996 0.07852054
v -0.00211717 -0.05637629 0.09218655
v 0.02470555 0.05185208 0.07966603
v -0.05634818 0.00664049 0.07737474
v 0.00928649 0.05642376 0.07975089
v 0.03339307 -0.04377634 0.09261423
v -0.04500369 0.03459981 0.07966656
v 0.05405408 0.02153653 0.07966691
v 0.00246425 -0.05794526 0.07622829
v -0.03076418 -0.04606827 0.09262944
v 0.04652265 0.03464637 0.07966691
v -0.05249893 0.02153379 0.07852060
v 0.01735780 -0.05547660 0.07737523
v 0.04256637 -0.03346268 0.09257454
v 0.02349440 -0.05228921 0.09150849
v 0.01506844 0.05504071 0.08883212
v -0.05367345 0.00549498 0.09291825
v -0.00989648 -0.05700072 0.08605060
v -0.04530147 -0.03431833 0.07546792
v -0.03541935 -0.04510165 0.07852100
v -0.03764253 0.04218288 0.08883099
v -0.05630943 -0.00825796 0.07852110
v 0.02538167 0.05131273 0.08768523
v 0.03690775 -0.04507838 0.08654058
v -0.02274453 -0.05292871 0.07737520
v -0.01701540 -0.05179244 0.09278560
v -0.05423308 -0.00647892 0.09284087
v -0.03524727 0.04466815 0.07841682
v -0.05209578 -0.02200475 0.07553819
v 0.03683765 0.04444931 0.07852043
v -0.02676973 0.04961752 0.08841647
v 0.00131176 0.05652946 0.09065957
v -0.05295881 -0.01988123 0.08883110
v 0.04370502 0.03298964 0.09245043
v -0.02815404 -0.05024425 0.08653931
v 0.05803909 -0.00069402 0.08385833
v -0.05306002 0.01853311 0.08997826
v 0.05266795 0.02382763 0.08883121
v 0.05470390 -0.01971319 0.07555481
v 0.03726935 0.04376373 0.08768523
v 0.05694051 -0.00711205 0.07563286
v -0.02264277 0.05212094 0.07851996
v 0.02766813 -0.04721423 0.09263463
v -0.04565125 -0.02888447 0.09289948
v 0.04229310 -0.04017777 0.07737499
v -0.01128906 -0.05674287 0.07622847
v 0.01162045 -0.05588517 0.09180041
v -0.01961840 0.05295157 0.08883162
v -0.03789089 -0.04286216 0.08539446
v 0.05057904 -0.01857080 0.09252076
v 0.04906435 -0.03096621 0.07550082
v -0.04173419 -0.03528605 0.09285126
v -0.05138735 -0.01627888 0.09292359
v -0.04680309 0.02840626 0.09219477
v 0.01506364 0.05132311 0.09306814
v 0.04535484 0.03576461 0.08768599
v -0.01471537 0.05132311 0.09300780
v 0.05287795 -0.00711117 0.09251594
v 0.04284246 -0.03945239 0.08654024
v -0.03562982 -0.04411505 0.09112383
v -0.00500025 -0.05810515 0.08251532
v -0.04941536 0.02703864 0.08768626
v -0.02623661 0.04681205 0.09290884
v 0.00394384 -0.05807523 0.08798365
f 8 25 17
f 69 28 3
f 69 80 28
f 23 17 45
f 122 98 119
f 3 28 57
f 28 25 57
f 40 25 8
f 28 105 10
f 10 25 28
f 45 17 86
f 19 17 25
f 19 10 50
f 25 10 19
f 75 72 22
f 39 32 119
f 80 69 39
f 28 80 67
f 119 98 16
f 16 39 119
f 98 5 16
f 16 5 46
f 80 39 16
f 76 101 126
f 23 101 76
f 117 108 119
f 119 108 90
f 43 101 23
f 119 70 78
f 44 105 2
f 2 58 44
f 85 40 92
f 92 40 8
f 92 71 85
f 8 71 92
f 95 40 85
f 13 10 105
f 10 13 26
f 2 105 29
f 105 22 29
f 29 22 72
f 72 64 29
f 120 5 47
f 47 5 98
f 47 75 120
f 47 72 75
f 98 122 15
f 15 47 98
f 100 58 2
f 32 39 96
f 3 57 96
f 96 69 3
f 96 39 69
f 127 27 81
f 14 43 81
f 101 43 14
f 126 101 14
f 87 67 80
f 46 67 87
f 80 16 87
f 87 16 46
f 94 67 46
f 120 75 94
f 94 5 120
f 126 71 33
f 33 76 126
f 33 71 8
f 23 76 33
f 8 17 33
f 17 23 33
f 91 117 81
f 97 86 17
f 52 111 20
f 119 90 20
f 68 23 45
f 68 43 23
f 45 86 1
f 1 68 45
f 43 68 1
f 81 43 1
f 1 91 81
f 18 122 114
f 114 78 18
f 114 122 119
f 119 78 114
f 63 58 18
f 63 44 58
f 4 128 82
f 25 40 106
f 40 95 106
f 106 57 25
f 49 26 115
f 115 26 13
f 10 26 62
f 34 59 62
f 109 26 49
f 17 19 93
f 93 97 17
f 2 29 65
f 65 29 64
f 65 100 2
f 64 100 65
f 72 47 102
f 47 15 102
f 102 64 72
f 102 15 64
f 30 122 18
f 30 15 122
f 18 58 30
f 64 15 30
f 58 100 30
f 30 100 64
f 55 96 57
f 57 106 55
f 32 96 55
f 9 127 81
f 81 117 9
f 48 95 85
f 85 27 48
f 27 127 48
f 81 27 118
f 118 14 81
f 46 5 104
f 104 94 46
f 5 94 104
f 75 22 41
f 41 94 75
f 52 20 37
f 37 20 90
f 107 70 119
f 119 20 107
f 91 1 42
f 86 97 42
f 42 1 86
f 44 63 103
f 105 44 103
f 103 13 105
f 103 115 13
f 63 115 103
f 110 19 50
f 111 59 79
f 79 59 34
f 79 20 111
f 79 107 20
f 70 107 79
f 10 62 77
f 77 62 59
f 7 78 70
f 70 79 7
f 7 79 34
f 19 6 83
f 83 93 19
f 24 90 108
f 35 6 19
f 90 24 74
f 74 24 124
f 112 106 95
f 112 55 106
f 95 48 112
f 112 48 127
f 121 117 119
f 121 9 117
f 119 32 121
f 32 55 121
f 55 112 121
f 127 9 121
f 121 112 127
f 126 14 61
f 14 118 61
f 85 71 61
f 61 71 126
f 61 27 85
f 61 118 27
f 94 41 21
f 28 67 21
f 67 94 21
f 21 41 22
f 21 105 28
f 21 22 105
f 66 82 128
f 52 37 66
f 66 111 52
f 66 128 111
f 4 82 125
f 82 110 125
f 73 128 4
f 4 125 73
f 73 110 50
f 73 125 110
f 54 77 59
f 111 128 54
f 54 59 111
f 128 73 54
f 34 62 88
f 88 7 34
f 88 62 26
f 26 109 88
f 18 78 31
f 78 7 31
f 31 63 18
f 31 115 63
f 60 31 7
f 49 115 60
f 115 31 60
f 51 83 6
f 6 35 84
f 77 54 38
f 38 54 73
f 10 77 38
f 50 10 38
f 38 73 50
f 7 88 123
f 123 60 7
f 123 88 109
f 123 109 49
f 49 60 123
f 97 93 36
f 36 51 97
f 93 83 36
f 83 51 36
f 97 51 12
f 108 117 12
f 12 42 97
f 117 91 12
f 91 42 12
f 113 51 6
f 124 51 113
f 6 84 113
f 124 24 116
f 116 51 124
f 116 12 51
f 116 24 108
f 108 12 116
f 11 74 124
f 124 99 11
f 90 74 11
f 11 37 90
f 53 84 35
f 35 99 53
f 53 113 84
f 53 99 124
f 124 113 53
f 89 35 19
f 89 99 35
f 19 110 89
f 37 11 56
f 82 66 56
f 56 66 37
f 56 11 99
f 99 89 56
f 56 110 82
f 56 89 110

