# https://github.com/mikedh/trimesh
v -0.00181452 -0.00930460 -0.11068405
v -0.00285543 -0.00915432 -0.11148892
v -0.00201292 -0.00924304 -0.11235341
v -0.00099158 -0.00925028 -0.11197582
v -0.00087282 -0.00929193 -0.11034621
v -0.00340312 -0.00897507 -0.11047538
v -0.00366440 -0.00883927 -0.11220437
v -0.00298816 -0.00891532 -0.11340670
v -0.00150016 -0.00911449 -0.11337689
v -0.00048580 -0.00875417 -0.11447987
v 0.00009543 -0.00898231 -0.11238322
v -0.00008900 -0.00916156 -0.11053500
v -0.00459492 -0.00842102 -0.11065424
v -0.00805156 -0.00667196 -0.11284032
v -0.00459492 -0.00833954 -0.11273101
v -0.00378456 -0.00838843 -0.11424139
v -0.00254246 -0.00854052 -0.11513569
v -0.00131014 -0.00864372 -0.11512576
v -0.00038939 -0.00822547 -0.11567227
v 0.00084572 -0.00817839 -0.11464880
v 0.00064871 -0.00860389 -0.11346632
v 0.00152615 -0.00844094 -0.11219443
v 0.00192295 -0.00841559 -0.11084304
v 0.00082616 -0.00891713 -0.10998848
v -0.00798310 -0.00365184 -0.10995867
v -0.00617933 -0.00339292 -0.11522512
v -0.00624360 -0.00432177 -0.11565240
v -0.00657753 -0.00553670 -0.11538411
v -0.00758769 -0.00680232 -0.11341665
v -0.00414084 -0.00785067 -0.11497670
v -0.00302728 -0.00744147 -0.11650696
v -0.00213588 -0.00799009 -0.11627841
v -0.00109497 -0.00772574 -0.11671563
v -0.00042432 -0.00731111 -0.11683487
v 0.00059422 -0.00781265 -0.11554310
v 0.00175528 -0.00788326 -0.11381412
v 0.00242174 -0.00797379 -0.11175721
v 0.00280597 -0.00794845 -0.10995867
v 0.00221636 -0.00833592 -0.10915380
v -0.00730686 -0.00155876 -0.10534804
v -0.00727193 -0.00233733 -0.10985930
v -0.00589570 -0.00145374 -0.11229379
v -0.00545279 -0.00182311 -0.11367500
v -0.00574481 -0.00285697 -0.11499657
v -0.00481568 -0.00363011 -0.11612936
v -0.00445800 -0.00470562 -0.11695411
v -0.00468993 -0.00535201 -0.11694417
v -0.00528653 -0.00560912 -0.11634798
v -0.00401509 -0.00680775 -0.11647715
v -0.00719229 -0.00660134 -0.11399297
v -0.00360571 -0.00617585 -0.11725221
v -0.00191792 -0.00713729 -0.11719259
v -0.00123190 -0.00684034 -0.11743107
v 0.00038045 -0.00616860 -0.11675537
v 0.00073674 -0.00707935 -0.11600018
v -0.00043830 -0.00618128 -0.11735158
v 0.00166307 -0.00715720 -0.11468854
v 0.00251954 -0.00712461 -0.11309867
v 0.00270537 -0.00749760 -0.11219443
v 0.00300297 -0.00763340 -0.11077348
v 0.00345845 -0.00747044 -0.10882589
v 0.00309658 -0.00783076 -0.10762355
v -0.00702463 -0.00097393 -0.10439412
v -0.00707772 -0.00146642 -0.10673919
v -0.00650068 -0.00167464 -0.11075361
v -0.00606616 -0.00146642 -0.11178702
v -0.00409333 -0.00053395 -0.11023690
v -0.00365322 -0.00104635 -0.11248259
v -0.00592923 -0.00044885 -0.10621253
v -0.00480031 -0.00011026 -0.10691804
v -0.00390611 -0.00155333 -0.11369487
v -0.00344364 -0.00204582 -0.11477797
v -0.00514402 -0.00224317 -0.11446993
v -0.00426099 -0.00282800 -0.11559278
v -0.00369933 -0.00348526 -0.11638772
v -0.00360292 -0.00469476 -0.11722240
v -0.00307339 -0.00556205 -0.11759005
v -0.00217779 -0.00595857 -0.11765961
v -0.00086164 -0.00571776 -0.11749069
v 0.00058863 -0.00516914 -0.11659639
v 0.00177345 -0.00539909 -0.11527481
v 0.00263831 -0.00570327 -0.11371474
v 0.00329079 -0.00641847 -0.11160816
v 0.00339698 -0.00709926 -0.11045551
v 0.00400894 -0.00675525 -0.10764342
v 0.00384408 -0.00715177 -0.10665969
v -0.00675078 0.00019574 -0.09705089
v -0.00667393 -0.00016458 -0.10087653
v -0.00664739 -0.00078019 -0.10539772
v -0.00627294 -0.00022071 -0.10360911
v -0.00533962 0.00577789 -0.05795991
v -0.00351490 -0.00017906 -0.10884576
v -0.00284425 -0.00051946 -0.11111134
v -0.00422327 0.00019030 -0.10587469
v -0.00242370 -0.00092866 -0.11273101
v -0.00548772 0.00019211 -0.10345013
v -0.00489811 0.00048906 -0.10280424
v -0.00179776 -0.00131795 -0.11378430
v -0.00157002 -0.00187743 -0.11479785
v -0.00205344 -0.00243691 -0.11559278
v -0.00203528 -0.00321005 -0.11632810
v -0.00257878 -0.00468389 -0.11732177
v -0.00139397 -0.00502067 -0.11743107
v -0.00050396 -0.00457344 -0.11699385
v 0.00069901 -0.00428012 -0.11615917
v 0.00210738 -0.00460785 -0.11489721
v 0.00308680 -0.00425840 -0.11328746
v 0.00360236 -0.00479072 -0.11162804
v 0.00381474 -0.00640217 -0.10966057
v 0.00446722 -0.00518725 -0.10717639
v 0.00460414 -0.00563990 -0.10523874
v -0.00563722 0.00499570 -0.06292826
v -0.00615977 0.00054156 -0.09799488
v -0.00494282 0.00604224 -0.05829776
v -0.00565399 0.00052165 -0.10043931
v -0.00298117 0.00002916 -0.10766330
v -0.00112571 -0.00063353 -0.11177709
v -0.00156582 -0.00033116 -0.11019715
v -0.00429592 0.00073530 -0.10186026
v -0.00363645 0.00073711 -0.10230741
v -0.00515659 0.00100508 -0.09809425
v -0.00389214 0.00637539 -0.05999693
v -0.00342408 0.00635004 -0.06123902
v -0.00040197 -0.00143201 -0.11368493
v -0.00038660 -0.00225947 -0.11514563
v -0.00060037 -0.00290405 -0.11594056
v -0.00129058 -0.00375504 -0.11670569
v 0.00042237 -0.00337843 -0.11578158
v 0.00132216 -0.00347078 -0.11501645
v 0.00252513 -0.00359571 -0.11363525
v 0.00341933 -0.00360295 -0.11195595
v 0.00432331 -0.00328428 -0.10907430
v 0.00381613 -0.00419140 -0.11100202
v 0.00453289 -0.00389627 -0.10822969
v 0.00415844 -0.00516371 -0.10918361
v 0.00486402 -0.00375323 -0.10614298
v -0.00474442 0.00586479 -0.06087136
v -0.00439932 0.00694755 -0.05160042
v -0.00420511 0.00666509 -0.05603219
v -0.00277160 0.00639531 -0.06142782
v -0.00025107 -0.00037280 -0.11002822
v -0.00013650 -0.00079649 -0.11188639
v -0.00083370 0.00670492 -0.05903308
v 0.00191736 0.00675019 -0.05782080
v -0.00359314 0.00693125 -0.05603219
v -0.00306081 0.00684977 -0.05778105
v 0.00030780 -0.00244234 -0.11484753
v 0.00067386 -0.00127630 -0.11240309
v 0.00148842 -0.00246045 -0.11348620
v 0.00292613 -0.00301812 -0.11213481
v 0.00402431 -0.00279541 -0.10943202
v 0.00443509 -0.00242967 -0.10756393
v 0.00473967 -0.00302536 -0.10718633
v 0.00503168 -0.00301993 -0.10499032
v -0.00381250 0.00741288 -0.04985156
v -0.00373146 0.00723725 -0.05235561
v -0.00346320 0.00784018 -0.04546948
v -0.00338775 0.00771163 -0.04835112
v -0.00225184 0.00707791 -0.05642966
v 0.00099102 -0.00002335 -0.10664975
v 0.00100500 -0.00052670 -0.10976987
v 0.00234490 0.00596438 -0.06316675
v -0.00132271 0.00727708 -0.05478017
v 0.00109162 0.00715939 -0.05496896
v 0.00228342 0.00769715 -0.05007017
v 0.00283671 0.00727165 -0.05306112
v 0.00278501 0.00670130 -0.05761213
v -0.00316840 0.00757040 -0.05110359
v -0.00281351 0.00740926 -0.05336916
v 0.00152335 -0.00102281 -0.11044557
v 0.00209201 -0.00179776 -0.11119082
v 0.00383290 -0.00234819 -0.10900474
v 0.00345286 -0.00163480 -0.10795145
v 0.00424507 -0.00166558 -0.10581507
v 0.00488638 -0.00206573 -0.10470215
v 0.00511551 -0.00223050 -0.10356937
v 0.00555423 -0.00126906 -0.09838241
v -0.00259276 0.00841777 -0.04143518
v -0.00281491 0.00799771 -0.04693017
v -0.00138279 0.00767361 -0.05150105
v 0.00160439 0.00053432 -0.10216830
v 0.00243571 0.00089282 -0.09883950
v 0.00219260 0.00004726 -0.10468228
v 0.00356883 0.00604586 -0.06154706
v 0.00175249 -0.00038185 -0.10784215
v 0.00190059 -0.00070596 -0.10880601
v 0.00125928 0.00767904 -0.05067631
v 0.00308680 0.00765731 -0.04942428
v 0.00142136 0.00821860 -0.04551916
v 0.00242314 0.00802306 -0.04670163
v 0.00392511 0.00697652 -0.05376662
v 0.00386224 0.00654378 -0.05749289
v -0.00222669 0.00790718 -0.04916593
v 0.00240917 -0.00048687 -0.10681867
v 0.00366105 -0.00001973 -0.10121437
v 0.00427860 -0.00003784 -0.09906805
v 0.00515464 -0.00080916 -0.09889912
v 0.00515184 -0.00032935 -0.09687204
v 0.00557659 -0.00023338 -0.09326502
v 0.00565203 0.00028808 -0.09004552
v -0.00218338 0.00845761 -0.04277663
v -0.00188299 0.00886138 -0.03540360
v -0.00182151 0.00872739 -0.03926898
v -0.00187879 0.00833992 -0.04479378
v -0.00061574 0.00791623 -0.04918581
v 0.00331454 0.00153197 -0.09312589
v 0.00294848 0.00067555 -0.09944564
v 0.00272493 -0.00009034 -0.10421526
v 0.00452171 0.00592455 -0.06079187
v 0.00244549 0.00829827 -0.04381999
v 0.00331454 0.00791623 -0.04636378
v 0.00030920 0.00837794 -0.04436650
v 0.00139760 0.00861694 -0.04132587
v 0.00378539 0.00762834 -0.04784435
v 0.00434147 0.00704532 -0.05157061
v -0.00106982 0.00837432 -0.04464473
v 0.00354228 0.00048362 -0.09911773
v 0.00410535 0.00040034 -0.09756760
v 0.00440435 0.00127306 -0.09127767
v 0.00526362 0.00092904 -0.08910154
v 0.00569674 0.00283743 -0.07490199
v 0.00609075 0.00454847 -0.06152719
v 0.00561152 0.00526005 -0.06068257
v -0.00115505 0.00866945 -0.04126625
v -0.00115924 0.00900442 -0.03566195
v -0.00064927 0.00892656 -0.03802689
v 0.00379937 0.00149395 -0.09224153
v 0.00491013 0.00636453 -0.05528694
v 0.00488777 0.00596800 -0.05887409
v 0.00500653 0.00548456 -0.06215320
v 0.00450355 0.00383690 -0.07471319
v 0.00231695 0.00859521 -0.04040176
v 0.00309099 0.00824214 -0.04309461
v 0.00384547 0.00793434 -0.04423733
v 0.00000880 0.00882154 -0.03957701
v 0.00099801 0.00888491 -0.03831505
v 0.00433868 0.00745633 -0.04722827
v 0.00479835 0.00701273 -0.04921561
v 0.00521052 0.00337338 -0.07489205
v 0.00489616 0.00233227 -0.08260293
v -0.00013511 0.00915289 -0.03316784
v 0.00056209 0.00905149 -0.03582094
v 0.00196207 0.00890121 -0.03643702
v 0.00298760 0.00853365 -0.03866284
v 0.00354508 0.00822947 -0.04099796
v 0.00446023 0.00765550 -0.04398891
v 0.00104272 0.00914564 -0.03201519
v 0.00206406 0.00896277 -0.03456892
v 0.00286744 0.00870385 -0.03596999
v -0.00746449 -0.00697084 0.04481363
v -0.00618971 -0.00744865 0.04356932
v -0.00787210 -0.00714371 0.04207015
v -0.00635327 -0.00746065 0.04314955
v -0.00618971 -0.00745945 0.04347187
v -0.00931564 -0.00650864 0.04395910
v -0.01035935 -0.00629014 0.04226879
v -0.00827453 -0.00712090 0.03988886
v -0.00651424 -0.00762392 0.04053351
v -0.00618971 -0.00751227 0.04297715
v -0.00935718 -0.00638018 0.04481363
v -0.01137320 -0.00576311 0.04378670
v -0.01141215 -0.00562145 0.04481363
v -0.01175745 -0.00573430 0.04126060
v -0.01049955 -0.00631175 0.03967149
v -0.00984788 -0.00655306 0.03806738
v -0.00618971 -0.00774638 0.03819481
v -0.00618971 -0.00773197 0.03936041
v -0.00618971 -0.00770796 0.04027865
v -0.01322825 -0.00486032 0.04367051
v -0.01235200 -0.00517846 0.04481363
v -0.01308286 -0.00481830 0.04481363
v -0.01345413 -0.00484351 0.04171035
v -0.01294136 -0.00514484 0.04014372
v -0.01161725 -0.00581473 0.03834473
v -0.01892062 0.00040397 0.04336693
v -0.01921399 0.00084457 0.04481363
v -0.01484444 -0.00393111 0.04391787
v -0.01513912 -0.00381947 0.04156043
v -0.01425378 -0.00438731 0.03991510
v -0.01851949 -0.00037757 0.04437512
v -0.01875835 0.00002581 0.04481363
v -0.01585310 -0.00325282 0.04387665
v -0.01500671 -0.00372462 0.04481363
v -0.01621658 -0.00296349 0.04147049
v -0.01720966 -0.00206070 0.04333695
v -0.01785873 -0.00132118 0.04481363
v -0.01670338 -0.00248568 0.04481363
v -0.01667482 -0.00257452 0.04407529
v -0.01703831 -0.00219156 0.04481363
v -0.01736674 -0.00186261 0.04481363
v 0.02141392 0.00038317 0.05098360
v 0.02129067 0.00137891 0.05215869
v 0.02105428 0.00227468 0.05645521
v 0.02063604 0.00185130 0.05679224
v 0.01769223 -0.00130645 0.05372547
v 0.01695073 -0.00197877 0.05306354
v 0.02105226 -0.00021858 0.04954738
v 0.02071888 -0.00037931 0.04668102
v 0.02094315 0.00222372 0.05201294
v 0.02109266 0.00204731 0.05375584
v 0.02001576 0.00430928 0.05926995
v 0.02059361 0.00302541 0.05790357
v 0.01988847 0.00407799 0.06011407
v 0.01886006 0.00502864 0.06329016
v 0.02060776 0.00246089 0.05769709
v 0.02088860 0.00249814 0.05334289
v 0.01707802 0.00002055 0.05807968
v 0.01733057 -0.00074389 0.05597546
v 0.01895098 0.00353700 0.06140151
v 0.01753262 0.00242561 0.06158369
v 0.01657896 0.00089280 0.06031751
v 0.01630216 -0.00172003 0.05499469
v 0.01568390 -0.00294706 0.05194007
v 0.01693254 -0.00253152 0.05086518
v 0.01470802 -0.00274321 0.05428114
v 0.01715479 -0.00293530 0.04801096
v 0.01643551 -0.00373699 0.04511727
v 0.01632237 0.00795706 0.06742270
v 0.01828423 0.00617531 0.06458062
v 0.01920556 0.00400350 0.06168086
v 0.01814078 0.00611651 0.06511503
v 0.01813674 0.00518937 0.06449561
v 0.01532830 -0.00033423 0.05940356
v 0.01623549 -0.00081054 0.05739345
v 0.01840142 0.00405839 0.06277093
v 0.01627994 0.00181798 0.06210899
v 0.01688203 0.00351936 0.06374258
v 0.01443122 0.00124954 0.06299562
v 0.01431807 0.00033221 0.06157762
v 0.01436858 -0.00227082 0.05608476
v 0.01390388 -0.00369387 0.05218298
v 0.01424736 -0.00409961 0.04980851
v 0.01560914 -0.00351549 0.04957471
v 0.01631226 -0.00340181 0.04825995
v 0.01275828 -0.00360174 0.05422041
v 0.01567784 -0.00409765 0.04588548
v 0.01606375 -0.00397612 0.04481363
v 0.01417866 0.00918017 0.06942066
v 0.01480500 0.00891947 0.06901074
v 0.01562531 0.00838240 0.06830630
v 0.01597283 0.00799234 0.06828200
v 0.01686991 0.00741214 0.06692170
v 0.01754474 0.00618903 0.06597130
v 0.01684566 0.00714949 0.06729517
v 0.01666180 0.00648697 0.06718282
v 0.01721541 0.00481695 0.06492070
v 0.01507574 0.00376045 0.06570409
v 0.01246733 -0.00192388 0.05896327
v 0.01384730 -0.00193956 0.05750580
v 0.01264715 -0.00102615 0.06060597
v 0.01502321 0.00250598 0.06427699
v 0.01397661 0.00215904 0.06467779
v 0.01236833 0.00137107 0.06477799
v 0.01170360 0.00034985 0.06376383
v 0.01165511 -0.00056748 0.06228510
v 0.01117424 -0.00325676 0.05706856
v 0.01140255 -0.00456416 0.05268702
v 0.01231984 -0.00489149 0.04980851
v 0.01345938 -0.00480329 0.04796845
v 0.01469994 -0.00424270 0.04807473
v 0.01043677 -0.00420742 0.05512829
v 0.01453426 -0.00460336 0.04623163
v 0.01503735 -0.00452299 0.04481363
v 0.00242364 0.01193609 0.07527484
v 0.00483808 0.01165775 0.07465845
v 0.01203900 0.00994069 0.07159775
v 0.01119040 0.01020923 0.07266961
v 0.01259058 0.00961923 0.07182245
v 0.01611224 0.00756503 0.06830326
v 0.01589807 0.00726709 0.06840346
v 0.01503937 0.00616159 0.06813019
v 0.01532426 0.00503452 0.06681542
v 0.01312600 0.00449941 0.06798443
v 0.01336239 0.00287056 0.06603506
v 0.01011552 -0.00147698 0.06187215
v 0.01002460 -0.00253936 0.05982257
v 0.01029332 0.00222372 0.06722533
v 0.00955585 0.00063603 0.06563426
v 0.00970133 -0.00052632 0.06381848
v 0.00893759 -0.00364094 0.05813130
v 0.00932754 -0.00508163 0.05336111
v 0.00982457 -0.00555009 0.05084696
v 0.01020038 -0.00601464 0.04789862
v 0.01198444 -0.00559910 0.04659296
v 0.01301083 -0.00542661 0.04481363
v 0.00872342 -0.00411529 0.05701087
v 0.00863654 -0.00462884 0.05556857
v 0.00232464 0.01166559 0.07583050
v 0.00685046 0.01122065 0.07411190
v 0.00715959 0.01003870 0.07491655
v 0.01090148 0.00962119 0.07326475
v 0.01371597 0.00856077 0.07062914
v 0.01344927 0.00826087 0.07073542
v 0.01344725 0.00706912 0.06994899
v 0.01141467 0.00531482 0.06993077
v 0.01185513 0.00350759 0.06774153
v 0.01008117 0.00401134 0.06941155
v 0.00861432 -0.00193564 0.06210292
v 0.00871130 -0.00305683 0.05971327
v 0.00862846 0.00211787 0.06809982
v 0.00815770 -0.00075369 0.06445310
v 0.00834560 0.00078304 0.06655429
v 0.00725859 -0.00417605 0.05783373
v 0.00753539 -0.00550305 0.05348864
v 0.00824862 -0.00588723 0.05134493
v 0.00774956 -0.00646155 0.04933180
v 0.00787281 -0.00683005 0.04724579
v 0.00850926 -0.00700842 0.04481363
v 0.00863452 -0.00696922 0.04481363
v 0.01029736 -0.00644195 0.04481363
v 0.00711716 -0.00500910 0.05551695
v 0.00077292 0.00986817 0.07535683
v 0.00222361 0.00951535 0.07530521
v 0.00351468 0.01065221 0.07549650
v 0.00554120 0.00987013 0.07515339
v 0.00636757 0.00890771 0.07460684
v 0.00692118 0.00721613 0.07368073
v 0.00823245 0.00841768 0.07377789
v 0.00876181 0.00942322 0.07401777
v 0.00830721 0.00706324 0.07305220
v 0.01021856 0.00864702 0.07301272
v 0.01091158 0.00733178 0.07175566
v 0.00999631 0.00605378 0.07141861
v 0.00943867 0.00489536 0.07070506
v 0.00828903 0.00372321 0.07007955
v 0.00723233 -0.00302939 0.06066974
v 0.00755762 -0.00194348 0.06271628
v 0.00738588 0.00182974 0.06836702
v 0.00703230 0.00010484 0.06625976
v 0.00682217 -0.00101047 0.06468993
v 0.00582003 -0.00444067 0.05788839
v 0.00614936 -0.00601072 0.05261415
v 0.00614936 -0.00667128 0.04982370
v 0.00671509 -0.00703782 0.04755854
v 0.00685450 -0.00730440 0.04585208
v 0.00832135 -0.00705938 0.04481363
v 0.00514317 -0.00552853 0.05482465
v 0.00077292 0.00853725 0.07491958
v 0.00186801 0.00837848 0.07489833
v 0.00308231 0.00828243 0.07477080
v 0.00478151 0.00740430 0.07429104
v 0.00528259 0.00640268 0.07354712
v 0.00703634 0.00629096 0.07297324
v 0.00880626 0.00639092 0.07231131
v 0.00770309 0.00520897 0.07182852
v 0.00651102 0.00261378 0.06958158
v 0.00668074 0.00394666 0.07095404
v 0.00558363 -0.00297254 0.06154422
v 0.00487647 -0.00348021 0.06065759
v 0.00605844 -0.00201013 0.06325675
v 0.00569678 0.00152984 0.06858564
v 0.00604834 0.00067915 0.06738930
v 0.00494517 -0.00058120 0.06599863
v 0.00468049 -0.00193172 0.06388225
v 0.00414709 -0.00417213 0.05920922
v 0.00405213 -0.00516199 0.05643395
v 0.00442591 -0.00631258 0.05230748
v 0.00450067 -0.00680849 0.05019717
v 0.00478353 -0.00727499 0.04788343
v 0.00536138 -0.00746121 0.04644114
v 0.00697977 -0.00740632 0.04481363
v 0.00303584 -0.00600484 0.05386515
v 0.00222765 -0.00802572 0.04481363
v 0.00176497 -0.00791791 0.04574580
v 0.00077292 0.00807074 0.07467971
v 0.00243576 0.00686723 0.07415441
v 0.00351671 0.00703188 0.07423032
v 0.00431681 0.00617923 0.07356535
v 0.00622412 0.00492672 0.07204107
v 0.00498356 0.00365264 0.07110889
v 0.00462594 0.00244717 0.06990040
v 0.00383998 -0.00283337 0.06239441
v 0.00271256 0.00109077 0.06867370
v 0.00325000 0.00031653 0.06760488
v 0.00334901 -0.00097519 0.06579822
v 0.00319747 -0.00208853 0.06395513
v 0.00256709 -0.00471704 0.05805236
v 0.00175083 -0.00381343 0.06054221
v 0.00191246 -0.00547757 0.05579023
v 0.00218926 -0.00681829 0.05090466
v 0.00262568 -0.00749257 0.04780752
v 0.00352479 -0.00786499 0.04531160
v 0.00102750 -0.00616165 0.05350685
v 0.00077292 -0.00757293 0.04773161
v 0.00099719 0.00651637 0.07386899
v 0.00229837 0.00579309 0.07341353
v 0.00276510 0.00526386 0.07296717
v 0.00401576 0.00462094 0.07223540
v 0.00321768 0.00333706 0.07110586
v 0.00177507 -0.00265696 0.06306849
v 0.00198116 -0.00320972 0.06189644
v 0.00170638 0.00241385 0.07030121
v 0.00167001 -0.00028131 0.06701582
v 0.00159121 -0.00118688 0.06568284
v 0.00077292 -0.00203757 0.06427395
v 0.00077292 -0.00499342 0.05732665
v 0.00077292 -0.00520903 0.05667383
v 0.00077292 -0.00547169 0.05580845
v 0.00077292 -0.00605776 0.05385604
v 0.00077292 -0.00745532 0.04826298
v 0.00077292 -0.00623417 0.05323965
v 0.00092244 0.00441317 0.07231738
v 0.00133461 0.00374673 0.07167670
v 0.00077292 0.00295484 0.07088724
v 0.00077292 -0.00195916 0.06441058
v 0.00077292 0.00367420 0.07160079
v -0.00053550 0.01118462 0.07547311
v 0.00061827 0.00990653 0.07536200
v -0.00129858 0.01215557 0.07513676
v -0.00246660 0.01180484 0.07511874
v -0.00214102 0.01134512 0.07521184
v -0.00083056 0.01009081 0.07519983
v -0.00003289 0.00865420 0.07493254
v -0.00495322 0.01155913 0.07387843
v -0.00393578 0.01167604 0.07455714
v -0.00492269 0.01141646 0.07447305
v -0.00382183 0.01150364 0.07486347
v -0.00466834 0.01095674 0.07458717
v -0.00192736 0.00919714 0.07475235
v -0.00238927 0.00772486 0.07409165
v -0.00104015 0.00677373 0.07384539
v 0.00077292 0.00654387 0.07386641
v 0.00077292 0.00698179 0.07410067
v -0.01480813 0.00909608 0.06684197
v -0.01295639 0.00967865 0.06861084
v -0.01877614 0.00599895 0.05733389
v -0.00864245 0.01079029 0.07210655
v -0.00600932 0.01054458 0.07399254
v -0.01161133 0.00901880 0.07062297
v -0.00534595 0.00931603 0.07384539
v -0.00349421 0.00843821 0.07413069
v -0.00442212 0.00727505 0.07334986
v -0.00292852 0.00609010 0.07309760
v -0.00065759 0.00509339 0.07279728
v -0.01696306 0.00761588 0.06297687
v -0.01667411 0.00782592 0.06404300
v -0.01603923 0.00786951 0.06548453
v -0.01503807 0.00857692 0.06672785
v -0.01406336 0.00909014 0.06798318
v -0.01182703 0.00988869 0.07013346
v -0.01942119 0.00527767 0.05712967
v -0.01896538 0.00582457 0.05840002
v -0.01849329 0.00640120 0.06028903
v -0.01986276 0.00382124 0.05239065
v -0.00769216 0.00894747 0.07271920
v -0.01350173 0.00861061 0.06868893
v -0.01402063 0.00698575 0.06775194
v -0.01228691 0.00777242 0.06963493
v -0.01058169 0.00802407 0.07091428
v -0.00655467 0.00792500 0.07283933
v -0.00558810 0.00711455 0.07286635
v -0.00502444 0.00560264 0.07218163
v -0.00374043 0.00476049 0.07199843
v -0.00212677 0.00429285 0.07198642
v -0.00103812 0.00344475 0.07135275
v -0.01718893 0.00731468 0.06335527
v -0.01638719 0.00669446 0.06463764
v -0.01535754 0.00729685 0.06631341
v -0.01461074 0.00796265 0.06738855
v -0.01767934 0.00649235 0.06246933
v -0.01982817 0.00425322 0.05514757
v -0.01960636 0.00436616 0.05670622
v -0.01872119 0.00605641 0.06033707
v -0.01980578 0.00225385 0.04734231
v -0.02001334 0.00304844 0.05106625
v -0.00858547 0.00744943 0.07170713
v -0.01267761 0.00627438 0.06859282
v -0.01489155 0.00588005 0.06621430
v -0.01358109 0.00536486 0.06724440
v -0.01160523 0.00653594 0.06955685
v -0.01066512 0.00695206 0.07038873
v -0.00905146 0.00655972 0.07107045
v -0.00691077 0.00594941 0.07170112
v -0.00618228 0.00446128 0.07093231
v -0.00365700 0.00366470 0.07111249
v -0.00233840 0.00293550 0.07069805
v -0.00085091 0.00205173 0.06992624
v 0.00034967 0.00235887 0.07029263
v 0.00077292 -0.00808579 0.04481663
v -0.01848108 0.00578890 0.06097075
v -0.01612062 0.00581268 0.06461360
v -0.01733341 0.00573144 0.06276064
v -0.01995026 0.00287605 0.05271800
v -0.01977933 0.00343484 0.05467908
v -0.01947003 0.00333775 0.05569416
v -0.01873137 0.00404912 0.05848411
v -0.01948224 0.00124921 0.04613803
v -0.01975287 0.00181593 0.04825527
v -0.01992381 0.00242228 0.04960370
v -0.01175988 0.00486749 0.06835857
v -0.01596394 0.00427898 0.06373668
v -0.01467382 0.00407686 0.06513316
v -0.01273459 0.00385493 0.06676389
v -0.00988983 0.00553923 0.07002534
v -0.00825379 0.00522020 0.07064100
v -0.00811949 0.00345069 0.06922049
v -0.00586484 0.00325254 0.07001333
v -0.00378113 0.00245002 0.06987518
v -0.00209218 0.00184565 0.06955985
v -0.00077155 0.00068249 0.06831352
v 0.00074851 0.00090244 0.06860484
v 0.00064066 -0.00808777 0.04481363
v 0.00077292 -0.00766174 0.04727323
v -0.01778922 0.00396391 0.06044219
v -0.01730492 0.00482192 0.06212998
v -0.01966538 0.00264223 0.05372407
v -0.01982613 0.00230141 0.05109027
v -0.01931538 0.00131262 0.05058274
v -0.01812090 0.00184763 0.05658310
v -0.01835695 0.00284633 0.05774533
v -0.01871916 -0.00006256 0.04657950
v -0.01921974 0.00086876 0.04886191
v -0.01112093 0.00394211 0.06804024
v -0.01655608 0.00358148 0.06217202
v -0.01525376 0.00283444 0.06315406
v -0.01421394 0.00324263 0.06482083
v -0.01162558 0.00295927 0.06671884
v -0.01306017 0.00278490 0.06539743
v -0.00934245 0.00419971 0.06928956
v -0.00935466 0.00267988 0.06781500
v -0.00665844 0.00223601 0.06865589
v -0.00547822 0.00128686 0.06804024
v -0.00382793 0.00092622 0.06812133
v -0.00278811 0.00028024 0.06753871
v -0.00176253 -0.00035781 0.06682695
v 0.00027641 -0.00029638 0.06706120
v 0.00048194 -0.00758446 0.04772071
v -0.00072678 -0.00785395 0.04614704
v -0.01736596 0.00280273 0.05982653
v -0.01879241 0.00155833 0.05390425
v -0.01878224 0.00182782 0.05459499
v -0.01933776 0.00176045 0.05230056
v -0.01831625 0.00022872 0.05169091
v -0.01836102 -0.00022307 0.04955565
v -0.01761829 0.00086876 0.05580227
v -0.01711364 0.00138990 0.05801862
v -0.01803341 -0.00094831 0.04740838
v -0.01623457 0.00247578 0.06130710
v -0.01495260 0.00134433 0.06141522
v -0.01392295 0.00208938 0.06371266
v -0.01226656 0.00169307 0.06469169
v -0.01037209 0.00218053 0.06666478
v -0.00990407 0.00153653 0.06616625
v -0.00756193 0.00131857 0.06718734
v -0.00629013 0.00011577 0.06623232
v -0.00441398 0.00006822 0.06685399
v -0.00356950 -0.00083536 0.06578485
v -0.00190497 -0.00165572 0.06479681
v -0.00030556 -0.00132678 0.06549354
v 0.00077292 -0.00063324 0.06654165
v -0.00013056 -0.00719410 0.04946556
v -0.00217968 -0.00741207 0.04800000
v -0.00216340 -0.00775488 0.04617707
v -0.00226311 -0.00794510 0.04481363
v -0.01655201 0.00186547 0.05990762
v -0.01776684 0.00015541 0.05349883
v -0.01730289 -0.00117618 0.05020434
v -0.01762439 -0.00123959 0.04845949
v -0.01670056 -0.00015768 0.05538483
v -0.01679620 0.00049227 0.05683537
v -0.01574417 0.00091830 0.05957427
v -0.01745754 -0.00174687 0.04566953
v -0.01380900 0.00013757 0.06067043
v -0.01347732 0.00101737 0.06259847
v -0.01120232 0.00113626 0.06474875
v -0.01128982 0.00008011 0.06304295
v -0.00783460 0.00064088 0.06619629
v -0.00987151 0.00040904 0.06461060
v -0.00672356 -0.00050445 0.06512715
v -0.00482502 -0.00049652 0.06592299
v -0.00515874 -0.00100379 0.06502505
v -0.00316253 -0.00210552 0.06374268
v -0.00082038 -0.00294569 0.06247835
v 0.00069153 -0.00203617 0.06428326
v 0.00077292 -0.00124752 0.06560165
v 0.00077292 -0.00668881 0.05146267
v -0.00045614 -0.00657586 0.05194619
v -0.00260497 -0.00689291 0.05020734
v -0.00348404 -0.00760824 0.04620710
v -0.00393578 -0.00713465 0.04841444
v -0.01685521 -0.00082545 0.05298829
v -0.01678603 -0.00223036 0.04692486
v -0.01630783 -0.00204211 0.04979290
v -0.01590492 -0.00005662 0.05725881
v -0.01565870 -0.00102757 0.05507249
v -0.01496074 -0.00044500 0.05788348
v -0.01237238 -0.00007445 0.06182365
v -0.01387615 -0.00086905 0.05845708
v -0.01259825 -0.00113854 0.05943011
v -0.01064070 -0.00114646 0.06139720
v -0.00968431 -0.00079969 0.06281471
v -0.00846135 -0.00026270 0.06452351
v -0.00780001 -0.00121780 0.06334026
v -0.00619042 -0.00155862 0.06363457
v -0.00460729 -0.00235520 0.06282071
v -0.00452182 -0.00322707 0.06103382
v -0.00188666 -0.00346287 0.06119899
v 0.00077292 -0.00348467 0.06128008
v 0.00077292 -0.00309629 0.06214799
v 0.00077292 -0.00276934 0.06284173
v 0.00030287 -0.00420397 0.05957126
v -0.00121719 -0.00608841 0.05367001
v -0.00316863 -0.00613596 0.05292822
v -0.00452793 -0.00635591 0.05145066
v -0.00526048 -0.00723373 0.04671764
v -0.00557996 -0.00740216 0.04514097
v -0.00542124 -0.00675816 0.04903910
v -0.01586626 -0.00165968 0.05248676
v -0.01570144 -0.00325481 0.04481363
v -0.01537179 -0.00325679 0.04684077
v -0.01505231 -0.00274754 0.05030644
v -0.01444592 -0.00236510 0.05324957
v -0.01416510 -0.00186180 0.05540885
v -0.01287703 -0.00210552 0.05669722
v -0.01103546 -0.00184396 0.05953223
v -0.00971686 -0.00235520 0.05964935
v -0.00911047 -0.00173696 0.06149330
v -0.00749274 -0.00226008 0.06153234
v -0.00636746 -0.00275943 0.06114193
v -0.00603374 -0.00372840 0.05904871
v -0.00471717 -0.00379181 0.05957727
v -0.00279625 -0.00383937 0.06011784
v -0.00136980 -0.00446355 0.05874239
v 0.00077292 -0.00407715 0.05988660
v 0.00021740 -0.00507782 0.05710265
v 0.00077292 -0.00615380 0.05352585
v -0.00067387 -0.00546224 0.05582930
v -0.00237910 -0.00551574 0.05534579
v -0.00432444 -0.00533939 0.05524368
v -0.00532967 -0.00565445 0.05361595
v -0.00582618 -0.00614191 0.05140861
v -0.00694129 -0.00677203 0.04718013
v -0.00760059 -0.00691074 0.04501784
v -0.00570612 -0.00741207 0.04481363
v -0.00550874 -0.00745170 0.04481363
v -0.00708170 -0.00636978 0.04904511
v -0.01299709 -0.00479248 0.04549234
v -0.01407760 -0.00376605 0.04823124
v -0.01373778 -0.00314385 0.05185609
v -0.01274680 -0.00345297 0.05257685
v -0.01174971 -0.00349260 0.05403039
v -0.01057151 -0.00347080 0.05571218
v -0.01076686 -0.00277132 0.05752309
v -0.00870146 -0.00253155 0.06010283
v -0.00888664 -0.00316763 0.05839101
v -0.00711222 -0.00362536 0.05863427
v -0.00608664 -0.00460820 0.05658910
v -0.00449741 -0.00438429 0.05805466
v -0.00305671 -0.00479645 0.05738495
v -0.00596455 -0.00516105 0.05491333
v -0.00660757 -0.00591799 0.05159181
v -0.00903111 -0.00600122 0.04793093
v -0.00939942 -0.00624693 0.04569956
v -0.00757617 -0.00557915 0.05194619
v -0.00876658 -0.00567228 0.05001514
v -0.01234389 -0.00466170 0.04813815
v -0.01143430 -0.00552961 0.04548334
v -0.01291773 -0.00398798 0.05008421
v -0.01144651 -0.00451903 0.05065181
v -0.01014419 -0.00480041 0.05163385
v -0.00938314 -0.00444373 0.05405442
v -0.00877472 -0.00387701 0.05653505
v -0.00754972 -0.00402365 0.05722278
v -0.00719158 -0.00487373 0.05491333
v -0.01060407 -0.00540478 0.04809010
v -0.00815204 -0.00471718 0.05451991
v -0.00898227 -0.00504017 0.05235762
v 0.01720927 -0.00314342 0.04224777
v 0.01672557 -0.00360186 0.04362020
v 0.01601423 -0.00408031 0.04133480
v 0.01649535 -0.00371022 0.04481363
v 0.01494853 -0.00475881 0.04197329
v 0.01387247 -0.00535229 0.03999817
v 0.01343274 -0.00551900 0.04159139
v 0.01526669 -0.00448541 0.04416321
v 0.01385954 -0.00525893 0.04291012
v 0.01276538 -0.00586075 0.03931195
v 0.01193247 -0.00618249 0.04061278
v 0.01179021 -0.00611581 0.04273111
v 0.01283781 -0.00551900 0.04465251
v 0.01102973 -0.00655091 0.03888830
v 0.01000024 -0.00689767 0.04020105
v 0.01030029 -0.00646923 0.04461671
v 0.00919320 -0.00710105 0.04169880
v 0.01276797 -0.00552567 0.04481363
v 0.01046842 -0.00638421 0.04481363
v 0.00896040 -0.00725275 0.03756360
v -0.00478515 -0.00795125 0.04148398
v 0.00784554 -0.00760784 0.03906134
v 0.00854912 -0.00702103 0.04464655
v 0.00724026 -0.00767452 0.04153172
v 0.00712128 -0.00752782 0.04358440
v -0.00374272 -0.00787124 0.04399613
v -0.00618712 -0.00768619 0.04070826
v -0.00457822 -0.00812296 0.03900764
v -0.00268736 -0.00838970 0.03976546
v -0.00237179 -0.00824966 0.04211053
v 0.00645650 -0.00797960 0.03897780
v 0.00533906 -0.00800127 0.04245065
v 0.00490450 -0.00825466 0.03997431
v 0.00596245 -0.00761284 0.04481363
v 0.00544512 -0.00779122 0.04421095
v -0.00253475 -0.00791625 0.04481363
v -0.00228643 -0.00799627 0.04444366
v -0.00577326 -0.00786957 0.03785598
v -0.00264339 -0.00844804 0.03723541
v -0.00088187 -0.00850806 0.04057698
v -0.00126211 -0.00858641 0.03829755
v -0.00057923 -0.00823632 0.04346506
v 0.00496917 -0.00828967 0.03785598
v 0.00391381 -0.00828467 0.04162123
v 0.00374050 -0.00843637 0.03950887
v 0.00542184 -0.00770286 0.04481363
v 0.00305762 -0.00821632 0.04314284
v -0.00195275 -0.00796626 0.04481363
v -0.00050939 -0.00864642 0.03666257
v 0.00049941 -0.00862642 0.03927019
v 0.00110210 -0.00836302 0.04262967
v 0.00064944 -0.00810629 0.04469429
v 0.00054080 -0.00808629 0.04481363
v -0.00065166 -0.00804461 0.04481363
v 0.00309901 -0.00853473 0.03660290
v 0.00222213 -0.00846638 0.04116773
v 0.00187034 -0.00862642 0.03836319
v 0.00077101 -0.00808629 0.04481363
v 0.00125730 -0.00865809 0.03640001
f 544 25 565
f 565 25 564
f 25 14 564
f 26 14 25
f 808 806 1
f 274 6 264
f 178 524 202
f 157 524 178
f 91 112 526
f 177 292 291
f 291 85 111
f 297 85 291
f 297 298 85
f 807 808 817
f 1 806 2
f 2 805 266
f 13 274 14
f 6 274 13
f 284 285 14
f 795 2 806
f 805 2 795
f 565 564 589
f 365 364 388
f 388 364 509
f 202 524 525
f 525 527 202
f 157 178 158
f 158 524 157
f 158 155 524
f 145 122 139
f 291 154 176
f 176 177 291
f 292 177 299
f 770 62 768
f 298 297 768
f 123 122 145
f 526 112 87
f 87 88 526
f 112 88 87
f 41 26 25
f 291 292 293
f 824 817 826
f 816 808 1
f 816 817 808
f 1 826 816
f 816 826 817
f 812 822 810
f 824 822 812
f 823 817 824
f 824 812 823
f 823 812 811
f 264 6 265
f 14 274 273
f 273 272 279
f 279 14 273
f 7 2 6
f 6 13 7
f 7 13 14
f 710 683 682
f 658 682 657
f 657 682 683
f 711 683 710
f 710 738 711
f 662 682 658
f 14 280 275
f 588 607 589
f 588 589 564
f 588 564 14
f 368 367 391
f 365 388 389
f 509 364 247
f 247 364 365
f 338 368 339
f 367 368 338
f 367 338 366
f 116 118 93
f 539 546 529
f 533 521 520
f 516 527 529
f 510 388 509
f 509 515 510
f 515 516 510
f 528 516 529
f 518 516 528
f 591 592 568
f 542 543 526
f 529 527 540
f 527 525 540
f 540 539 529
f 540 525 524
f 524 539 540
f 137 139 122
f 155 158 156
f 145 139 156
f 156 139 155
f 155 139 138
f 240 239 220
f 136 154 291
f 291 111 136
f 5 822 824
f 810 822 5
f 5 826 1
f 824 826 5
f 39 773 777
f 772 773 39
f 770 768 769
f 769 768 297
f 769 772 770
f 85 298 86
f 122 123 97
f 97 123 119
f 97 70 96
f 42 43 26
f 26 41 42
f 70 67 42
f 68 71 43
f 43 42 68
f 68 67 93
f 68 42 67
f 325 309 320
f 324 308 307
f 304 293 303
f 306 293 300
f 300 293 292
f 300 299 306
f 292 299 300
f 294 311 307
f 307 308 294
f 291 293 294
f 800 812 810
f 811 812 800
f 807 817 818
f 817 823 818
f 694 719 695
f 695 719 696
f 694 669 693
f 691 693 692
f 692 693 669
f 15 7 14
f 285 284 288
f 14 285 286
f 286 280 14
f 272 273 263
f 263 274 264
f 263 273 274
f 737 283 277
f 737 738 710
f 710 283 737
f 806 808 796
f 796 795 806
f 796 808 807
f 807 797 796
f 608 607 612
f 607 588 612
f 587 612 588
f 587 588 14
f 340 318 339
f 390 389 388
f 391 367 390
f 367 389 390
f 365 389 248
f 248 247 365
f 248 389 367
f 248 242 247
f 246 238 237
f 318 238 246
f 339 318 246
f 118 116 140
f 119 123 140
f 94 97 119
f 70 97 94
f 94 67 70
f 118 144 141
f 143 144 118
f 143 140 159
f 118 140 143
f 184 167 192
f 529 548 549
f 513 520 521
f 514 515 509
f 527 516 514
f 514 516 515
f 524 155 535
f 155 138 535
f 526 543 535
f 535 138 526
f 541 542 526
f 541 563 543
f 543 542 541
f 526 88 541
f 88 63 541
f 615 592 591
f 524 535 536
f 536 535 543
f 524 536 537
f 717 693 691
f 687 666 664
f 112 91 114
f 114 88 112
f 139 137 114
f 114 138 139
f 114 91 526
f 526 138 114
f 179 158 178
f 178 201 179
f 181 184 182
f 182 184 206
f 196 195 218
f 240 220 219
f 218 227 219
f 219 239 240
f 219 227 239
f 199 299 177
f 199 200 299
f 221 200 220
f 221 239 223
f 221 220 239
f 299 200 221
f 110 136 111
f 134 136 110
f 110 111 85
f 109 110 85
f 810 5 12
f 24 39 777
f 12 11 24
f 14 26 27
f 27 28 14
f 46 27 26
f 122 97 121
f 302 303 293
f 307 311 323
f 323 324 307
f 326 328 311
f 305 294 293
f 305 293 304
f 304 320 305
f 305 320 309
f 309 294 305
f 447 425 445
f 781 782 787
f 787 24 781
f 778 782 781
f 781 24 777
f 777 778 781
f 779 782 778
f 779 780 783
f 779 776 780
f 787 782 789
f 789 24 787
f 12 24 789
f 436 408 407
f 784 789 782
f 784 779 783
f 782 779 784
f 435 436 407
f 811 800 799
f 809 797 807
f 807 818 809
f 814 823 811
f 814 818 823
f 454 475 476
f 648 625 647
f 665 666 668
f 668 666 691
f 691 692 668
f 566 549 572
f 573 551 572
f 598 575 597
f 598 576 575
f 599 576 598
f 621 598 597
f 622 598 621
f 747 746 763
f 763 746 745
f 720 746 747
f 696 719 720
f 719 746 720
f 290 286 285
f 662 286 290
f 289 288 287
f 287 682 289
f 682 662 289
f 662 290 289
f 285 288 289
f 289 290 285
f 279 272 278
f 272 277 278
f 278 14 279
f 278 284 14
f 637 662 658
f 637 286 662
f 282 278 277
f 287 288 282
f 282 288 284
f 284 278 282
f 282 682 287
f 739 711 738
f 712 711 739
f 739 740 712
f 738 737 756
f 756 737 757
f 256 263 264
f 256 261 263
f 757 737 262
f 269 277 272
f 272 263 269
f 263 261 269
f 276 275 280
f 14 275 276
f 276 587 14
f 612 587 611
f 611 637 612
f 280 286 611
f 286 637 611
f 418 390 417
f 216 193 204
f 204 179 201
f 193 179 204
f 245 338 339
f 210 189 213
f 242 248 243
f 319 238 318
f 318 342 319
f 342 321 319
f 304 303 319
f 319 321 304
f 146 140 123
f 145 169 146
f 146 123 145
f 146 169 159
f 159 140 146
f 120 140 116
f 116 94 120
f 119 140 120
f 120 94 119
f 92 116 93
f 92 94 116
f 93 67 92
f 67 94 92
f 211 214 191
f 93 118 117
f 118 141 117
f 162 141 144
f 144 167 162
f 213 189 212
f 212 235 213
f 216 235 212
f 209 227 206
f 209 184 192
f 206 184 209
f 192 191 209
f 545 549 566
f 545 528 529
f 529 549 545
f 520 513 519
f 544 541 40
f 40 541 63
f 63 64 40
f 40 64 41
f 25 544 40
f 40 41 25
f 664 666 641
f 641 666 665
f 665 642 641
f 569 568 592
f 614 615 591
f 614 604 629
f 664 641 640
f 640 641 618
f 592 615 616
f 616 640 618
f 615 640 616
f 538 539 524
f 524 537 538
f 538 537 539
f 556 563 580
f 556 537 536
f 543 563 556
f 556 536 543
f 580 563 562
f 563 541 562
f 716 743 745
f 715 743 716
f 693 717 718
f 718 719 694
f 694 693 718
f 714 743 715
f 741 742 714
f 714 742 743
f 714 740 741
f 715 716 690
f 690 716 717
f 690 717 691
f 691 666 690
f 666 687 690
f 663 687 664
f 96 90 115
f 115 137 122
f 122 121 115
f 115 97 96
f 115 121 97
f 69 90 96
f 96 70 69
f 70 42 69
f 113 114 137
f 137 115 113
f 113 115 90
f 88 114 113
f 113 90 88
f 89 64 63
f 89 63 88
f 88 90 89
f 168 193 169
f 168 179 193
f 158 179 168
f 168 156 158
f 168 169 145
f 145 156 168
f 206 227 207
f 207 182 206
f 198 177 197
f 198 199 177
f 197 196 198
f 220 200 198
f 200 199 198
f 198 196 218
f 218 219 198
f 198 219 220
f 222 221 223
f 299 221 222
f 222 223 306
f 306 299 222
f 134 110 135
f 110 109 135
f 84 109 85
f 174 196 197
f 195 196 174
f 153 176 154
f 132 152 153
f 134 132 153
f 154 136 153
f 153 136 134
f 22 11 21
f 80 106 81
f 28 27 47
f 27 46 47
f 47 77 51
f 46 77 47
f 349 330 324
f 349 323 348
f 324 323 349
f 356 349 348
f 330 349 356
f 308 324 312
f 324 330 312
f 339 368 341
f 341 340 339
f 341 342 318
f 318 340 341
f 325 320 322
f 322 320 304
f 304 321 322
f 322 321 343
f 348 375 376
f 376 356 348
f 399 376 398
f 398 376 375
f 369 341 368
f 345 322 343
f 328 326 351
f 328 353 354
f 310 309 325
f 310 294 309
f 311 294 310
f 310 326 311
f 417 442 443
f 400 425 428
f 428 402 400
f 469 447 445
f 445 443 469
f 469 443 442
f 777 773 774
f 774 778 777
f 774 773 772
f 772 776 774
f 774 779 778
f 776 779 774
f 775 776 772
f 12 789 798
f 810 12 798
f 798 800 810
f 792 784 790
f 790 436 792
f 408 436 790
f 790 784 783
f 790 409 408
f 792 436 461
f 436 435 461
f 802 799 792
f 811 799 802
f 802 814 811
f 797 809 804
f 429 402 428
f 401 402 429
f 429 430 401
f 493 475 474
f 472 454 476
f 448 454 472
f 476 490 472
f 472 490 491
f 601 626 493
f 494 475 493
f 476 475 494
f 694 695 671
f 647 670 671
f 671 669 694
f 671 670 669
f 578 601 492
f 533 520 532
f 552 551 573
f 552 532 551
f 552 553 533
f 533 532 552
f 533 553 554
f 575 576 554
f 554 553 575
f 571 572 549
f 571 549 548
f 593 616 618
f 593 569 592
f 592 616 593
f 667 692 669
f 667 668 692
f 766 767 754
f 747 750 729
f 747 763 764
f 764 763 766
f 764 750 747
f 766 754 764
f 751 750 764
f 764 754 751
f 762 763 745
f 766 763 762
f 745 743 762
f 743 742 762
f 747 729 748
f 748 729 749
f 749 722 748
f 681 685 659
f 681 657 683
f 681 656 657
f 659 656 681
f 661 636 660
f 629 636 655
f 655 636 661
f 657 656 633
f 277 283 709
f 709 282 277
f 709 283 710
f 710 682 709
f 682 282 709
f 760 741 759
f 741 740 759
f 257 256 264
f 264 265 257
f 257 265 6
f 6 2 257
f 257 2 266
f 757 262 255
f 261 256 255
f 255 262 261
f 261 262 270
f 270 262 737
f 271 737 277
f 277 269 271
f 271 270 737
f 271 269 261
f 261 270 271
f 281 276 280
f 587 276 281
f 280 611 281
f 281 611 587
f 391 390 419
f 419 418 391
f 390 418 419
f 492 489 503
f 224 204 201
f 216 204 224
f 224 235 216
f 234 214 211
f 234 246 237
f 237 214 234
f 339 246 234
f 234 245 339
f 249 243 248
f 338 245 249
f 367 366 249
f 249 248 367
f 249 366 338
f 242 243 236
f 213 235 236
f 236 235 242
f 211 210 233
f 233 234 211
f 245 234 233
f 301 228 238
f 238 319 301
f 223 228 301
f 306 223 301
f 301 319 303
f 303 302 301
f 301 293 306
f 301 302 293
f 237 238 215
f 238 228 215
f 215 214 237
f 215 191 214
f 228 209 215
f 215 209 191
f 74 73 72
f 43 71 72
f 72 73 43
f 166 167 144
f 144 165 166
f 192 167 166
f 166 191 192
f 144 143 164
f 164 165 144
f 189 210 190
f 190 165 189
f 163 143 159
f 163 164 143
f 205 212 189
f 205 193 216
f 216 212 205
f 239 227 231
f 227 209 231
f 229 228 223
f 229 209 228
f 550 545 566
f 566 572 550
f 550 572 551
f 388 510 507
f 522 513 521
f 580 604 605
f 604 614 605
f 605 614 591
f 639 640 615
f 639 655 661
f 664 640 639
f 639 663 664
f 661 663 639
f 537 558 559
f 546 539 559
f 539 537 559
f 557 558 537
f 561 544 565
f 561 541 544
f 561 562 541
f 586 604 580
f 580 562 586
f 717 716 744
f 744 718 717
f 744 716 745
f 745 746 744
f 744 746 719
f 719 718 744
f 761 741 760
f 761 742 741
f 760 767 761
f 761 767 766
f 766 762 761
f 761 762 742
f 688 714 689
f 689 714 715
f 689 663 688
f 687 663 689
f 715 690 689
f 689 690 687
f 713 714 688
f 713 685 712
f 712 740 713
f 740 714 713
f 64 89 65
f 41 64 65
f 218 195 217
f 217 227 218
f 217 207 227
f 108 135 109
f 134 135 108
f 298 768 61
f 61 768 62
f 61 86 298
f 85 86 61
f 61 84 85
f 60 84 61
f 22 37 23
f 39 24 23
f 23 11 22
f 23 24 11
f 36 37 22
f 22 21 36
f 36 21 20
f 36 57 58
f 175 174 197
f 152 174 175
f 197 177 175
f 177 176 175
f 176 153 175
f 175 153 152
f 4 5 1
f 4 12 5
f 4 11 12
f 10 21 11
f 11 4 10
f 10 4 9
f 20 21 10
f 7 15 8
f 15 16 8
f 8 16 17
f 17 9 8
f 2 7 8
f 51 31 49
f 49 50 28
f 17 16 30
f 30 31 17
f 55 81 57
f 17 31 32
f 48 47 51
f 28 47 48
f 51 49 48
f 48 49 28
f 44 73 74
f 26 43 44
f 43 73 44
f 76 77 46
f 45 46 26
f 26 44 45
f 45 76 46
f 75 76 45
f 74 75 45
f 45 44 74
f 330 356 335
f 401 430 427
f 427 398 401
f 431 411 403
f 403 411 386
f 397 373 395
f 396 373 397
f 425 400 397
f 377 396 397
f 397 400 377
f 392 368 391
f 392 369 368
f 343 321 344
f 344 345 343
f 344 321 342
f 342 341 344
f 341 369 344
f 347 322 346
f 346 345 347
f 322 345 346
f 394 423 395
f 377 353 374
f 374 396 377
f 374 373 396
f 374 351 347
f 347 373 374
f 327 351 326
f 326 310 327
f 327 322 347
f 347 351 327
f 325 322 327
f 327 310 325
f 378 354 353
f 378 353 377
f 378 402 401
f 377 400 378
f 378 400 402
f 417 443 420
f 420 421 391
f 391 418 420
f 420 418 417
f 776 775 363
f 783 780 786
f 406 382 405
f 405 433 406
f 361 335 356
f 789 784 791
f 791 798 789
f 791 784 792
f 792 799 791
f 791 799 800
f 800 798 791
f 813 435 460
f 792 461 801
f 801 802 792
f 801 461 435
f 801 435 813
f 813 802 801
f 437 411 431
f 456 437 431
f 819 809 818
f 453 474 475
f 430 429 453
f 475 454 453
f 454 430 453
f 477 456 455
f 455 456 431
f 673 674 648
f 492 601 473
f 493 474 473
f 473 601 493
f 473 489 492
f 473 471 489
f 473 474 451
f 451 471 473
f 625 626 600
f 626 601 600
f 493 626 650
f 650 494 493
f 669 670 645
f 645 667 669
f 624 647 625
f 624 600 599
f 625 600 624
f 555 554 576
f 520 519 531
f 531 532 520
f 531 519 518
f 553 552 574
f 597 575 574
f 575 553 574
f 574 552 573
f 534 521 533
f 533 554 534
f 534 522 521
f 485 522 534
f 554 555 534
f 534 486 485
f 534 555 502
f 502 486 534
f 596 621 597
f 597 574 596
f 572 571 594
f 619 594 613
f 622 621 644
f 644 645 622
f 667 645 644
f 755 754 767
f 755 767 760
f 749 729 728
f 728 729 703
f 730 729 750
f 730 751 731
f 730 750 751
f 703 729 730
f 721 720 747
f 747 748 721
f 696 720 721
f 721 722 696
f 721 748 722
f 712 685 708
f 685 681 708
f 708 711 712
f 683 711 708
f 708 681 683
f 659 685 684
f 684 660 659
f 661 660 684
f 635 660 636
f 635 656 659
f 659 660 635
f 615 614 638
f 638 639 615
f 655 639 638
f 638 614 629
f 629 655 638
f 634 633 608
f 608 612 634
f 612 637 634
f 634 637 658
f 658 657 634
f 657 633 634
f 765 759 756
f 765 756 757
f 752 755 765
f 760 759 765
f 765 755 760
f 740 739 758
f 758 759 740
f 756 759 758
f 758 739 738
f 738 756 758
f 266 805 267
f 805 795 267
f 795 268 267
f 753 765 757
f 752 765 753
f 753 732 752
f 256 257 252
f 252 255 256
f 446 471 451
f 446 451 428
f 428 425 446
f 425 447 446
f 470 469 488
f 447 469 470
f 488 489 470
f 489 471 470
f 470 446 447
f 471 446 470
f 203 224 201
f 203 178 202
f 203 201 178
f 242 235 226
f 235 224 226
f 224 203 226
f 232 233 210
f 232 210 213
f 213 236 232
f 232 236 243
f 98 72 71
f 100 75 74
f 74 72 100
f 105 106 80
f 173 174 152
f 124 98 117
f 181 182 160
f 160 184 181
f 167 184 160
f 141 162 160
f 160 162 167
f 211 191 188
f 191 166 188
f 188 166 165
f 165 190 188
f 188 210 211
f 188 190 210
f 165 164 187
f 164 163 187
f 189 165 187
f 187 205 189
f 239 231 230
f 230 231 209
f 223 239 230
f 230 229 223
f 209 229 230
f 513 438 413
f 413 414 388
f 485 486 466
f 517 516 518
f 517 510 516
f 511 517 518
f 511 507 510
f 510 517 511
f 412 413 388
f 513 413 412
f 512 519 513
f 507 511 512
f 518 519 512
f 512 511 518
f 513 522 523
f 523 522 485
f 487 486 502
f 502 503 487
f 487 489 488
f 487 503 489
f 546 559 547
f 529 546 547
f 547 548 529
f 567 548 547
f 547 558 568
f 547 559 558
f 547 569 567
f 568 569 547
f 580 557 560
f 560 557 537
f 560 556 580
f 537 556 560
f 568 558 581
f 558 557 581
f 591 568 581
f 66 65 89
f 66 89 90
f 66 42 41
f 41 65 66
f 66 69 42
f 90 69 66
f 182 207 183
f 183 160 182
f 109 84 83
f 83 108 109
f 82 81 106
f 82 83 58
f 58 57 82
f 57 81 82
f 133 132 134
f 134 108 133
f 38 23 37
f 38 37 60
f 60 61 38
f 38 61 62
f 39 23 38
f 38 62 770
f 770 772 38
f 772 39 38
f 60 37 59
f 37 36 59
f 59 36 58
f 59 84 60
f 58 83 59
f 59 83 84
f 3 4 1
f 9 4 3
f 1 2 3
f 2 8 3
f 3 8 9
f 20 10 19
f 31 30 29
f 50 49 29
f 29 49 31
f 14 28 29
f 28 50 29
f 29 30 16
f 29 15 14
f 29 16 15
f 34 33 53
f 34 19 33
f 53 33 52
f 33 32 52
f 52 32 31
f 52 31 51
f 78 79 53
f 53 52 78
f 77 103 78
f 78 103 79
f 51 77 78
f 78 52 51
f 450 430 454
f 450 427 430
f 450 454 448
f 448 427 450
f 399 398 426
f 398 427 426
f 426 427 448
f 426 403 399
f 431 403 426
f 399 403 380
f 380 403 386
f 380 376 399
f 356 376 380
f 380 361 356
f 386 361 380
f 347 345 372
f 372 373 347
f 395 373 371
f 371 394 395
f 371 372 345
f 373 372 371
f 395 423 424
f 424 397 395
f 445 425 424
f 425 397 424
f 423 394 422
f 391 421 422
f 422 420 423
f 421 420 422
f 393 392 391
f 391 422 393
f 393 422 394
f 352 374 353
f 351 374 352
f 352 353 328
f 328 351 352
f 350 375 348
f 350 355 375
f 348 323 350
f 379 355 354
f 379 378 401
f 354 378 379
f 375 355 379
f 401 398 379
f 379 398 375
f 444 443 445
f 444 420 443
f 423 420 444
f 445 424 444
f 444 424 423
f 780 776 385
f 785 786 780
f 384 786 785
f 780 385 785
f 785 385 384
f 383 786 384
f 383 406 407
f 383 382 406
f 383 384 358
f 358 382 383
f 407 408 383
f 408 409 383
f 386 411 387
f 387 361 386
f 387 411 404
f 335 361 357
f 357 382 358
f 434 460 435
f 406 433 434
f 407 406 434
f 434 435 407
f 458 457 480
f 480 500 481
f 481 458 480
f 404 411 432
f 411 437 432
f 432 437 457
f 432 405 404
f 433 405 432
f 432 458 433
f 457 458 432
f 457 437 462
f 437 456 462
f 480 457 462
f 818 814 825
f 825 819 818
f 480 501 676
f 501 677 676
f 809 819 820
f 679 803 653
f 652 628 627
f 652 653 628
f 652 678 680
f 652 680 679
f 679 653 652
f 451 474 452
f 474 453 452
f 452 453 429
f 428 451 452
f 452 429 428
f 505 674 495
f 476 494 495
f 495 494 505
f 495 490 476
f 495 674 490
f 448 472 449
f 472 455 449
f 449 455 431
f 431 426 449
f 449 426 448
f 477 455 478
f 478 472 491
f 478 455 472
f 725 701 723
f 723 722 749
f 749 728 723
f 477 701 496
f 496 701 725
f 491 490 700
f 490 674 700
f 674 673 700
f 701 673 697
f 722 723 697
f 697 723 701
f 696 722 697
f 672 673 648
f 648 647 672
f 672 697 673
f 672 671 695
f 647 671 672
f 672 695 696
f 696 697 672
f 648 674 649
f 649 674 505
f 649 650 626
f 649 625 648
f 649 626 625
f 646 670 647
f 647 624 646
f 622 645 646
f 646 645 670
f 506 555 578
f 506 503 502
f 502 555 506
f 577 576 599
f 577 555 576
f 578 555 577
f 599 600 577
f 601 578 577
f 577 600 601
f 532 531 530
f 551 532 530
f 530 550 551
f 528 545 530
f 545 550 530
f 518 528 530
f 530 531 518
f 595 574 573
f 595 594 619
f 619 596 595
f 595 596 574
f 573 572 595
f 572 594 595
f 570 594 571
f 570 548 567
f 570 571 548
f 617 641 642
f 618 641 617
f 617 593 618
f 617 613 593
f 667 644 643
f 668 667 643
f 643 642 665
f 665 668 643
f 621 596 620
f 620 644 621
f 642 643 620
f 620 643 644
f 620 617 642
f 613 617 620
f 620 596 619
f 619 613 620
f 788 268 795
f 795 796 788
f 788 796 797
f 752 732 736
f 736 755 752
f 732 707 736
f 751 754 736
f 754 755 736
f 731 751 736
f 736 707 731
f 702 677 501
f 702 728 703
f 702 678 677
f 703 678 702
f 704 730 731
f 703 730 704
f 704 678 703
f 680 678 704
f 731 707 704
f 704 707 680
f 630 633 656
f 630 606 633
f 656 635 630
f 610 636 629
f 629 604 610
f 604 586 610
f 562 561 584
f 583 607 608
f 608 606 583
f 606 584 583
f 565 589 583
f 589 607 583
f 583 561 565
f 583 584 561
f 608 633 632
f 632 606 608
f 633 606 632
f 685 713 686
f 686 684 685
f 686 713 688
f 661 684 686
f 688 663 686
f 686 663 661
f 757 255 260
f 260 753 757
f 258 252 257
f 258 267 268
f 258 257 266
f 266 267 258
f 258 788 259
f 225 203 202
f 225 226 203
f 225 514 509
f 202 527 225
f 527 514 225
f 233 232 244
f 244 249 245
f 245 233 244
f 243 249 244
f 244 232 243
f 71 68 95
f 95 98 71
f 95 68 93
f 93 117 95
f 117 98 95
f 126 100 125
f 125 128 126
f 125 100 99
f 99 124 125
f 98 124 99
f 72 98 99
f 99 100 72
f 106 105 129
f 129 105 128
f 129 130 106
f 195 174 194
f 174 173 194
f 142 124 117
f 142 117 141
f 151 152 132
f 180 187 163
f 205 187 180
f 193 205 180
f 180 163 159
f 159 169 180
f 169 193 180
f 465 438 513
f 465 466 438
f 513 523 465
f 485 466 465
f 465 523 485
f 486 487 468
f 468 487 488
f 488 469 468
f 468 469 442
f 439 413 438
f 438 466 439
f 441 442 417
f 441 468 442
f 513 412 508
f 508 512 513
f 507 512 508
f 388 507 508
f 508 412 388
f 582 557 580
f 582 581 557
f 580 605 582
f 582 605 591
f 591 581 582
f 141 160 161
f 160 183 161
f 161 142 141
f 106 130 107
f 107 133 108
f 107 82 106
f 132 133 107
f 108 83 107
f 83 82 107
f 18 32 33
f 33 19 18
f 17 32 18
f 18 19 10
f 18 9 17
f 18 10 9
f 55 34 54
f 80 81 54
f 81 55 54
f 20 19 35
f 19 34 35
f 35 34 55
f 35 36 20
f 57 36 35
f 35 55 57
f 77 76 102
f 102 103 77
f 127 103 102
f 102 76 75
f 104 103 127
f 128 105 104
f 104 105 80
f 127 126 104
f 104 126 128
f 80 79 104
f 79 103 104
f 370 371 345
f 394 371 370
f 370 344 369
f 345 344 370
f 370 393 394
f 369 392 370
f 392 393 370
f 355 350 329
f 328 354 329
f 354 355 329
f 329 350 323
f 311 328 329
f 329 323 311
f 384 385 359
f 358 384 359
f 336 363 775
f 331 357 358
f 335 357 331
f 360 336 334
f 783 786 410
f 786 383 410
f 410 383 409
f 410 790 783
f 409 790 410
f 361 387 381
f 382 357 381
f 381 357 361
f 381 405 382
f 404 405 381
f 381 387 404
f 813 460 482
f 482 802 813
f 814 802 482
f 458 481 459
f 433 458 459
f 459 482 460
f 481 482 459
f 459 434 433
f 460 434 459
f 477 496 479
f 479 456 477
f 479 462 456
f 464 482 481
f 809 820 821
f 821 820 628
f 627 628 602
f 628 820 602
f 819 825 602
f 602 820 819
f 628 653 815
f 815 821 628
f 815 804 809
f 809 821 815
f 654 803 804
f 654 653 803
f 804 815 654
f 654 815 653
f 651 652 627
f 678 652 651
f 677 678 651
f 651 676 677
f 627 500 651
f 480 676 651
f 651 500 480
f 724 701 477
f 477 478 724
f 491 700 699
f 699 700 673
f 494 650 675
f 650 649 675
f 505 494 675
f 675 649 505
f 622 646 623
f 623 646 624
f 623 598 622
f 599 598 623
f 623 624 599
f 504 506 578
f 503 506 504
f 504 578 492
f 492 503 504
f 590 613 594
f 594 570 590
f 590 570 567
f 567 569 590
f 569 593 590
f 593 613 590
f 793 788 797
f 797 804 793
f 804 803 793
f 793 803 679
f 679 706 793
f 705 707 732
f 732 706 705
f 705 706 679
f 679 680 705
f 680 707 705
f 259 788 254
f 706 734 254
f 254 734 251
f 253 254 251
f 259 254 253
f 253 258 259
f 252 258 253
f 728 702 727
f 725 723 727
f 727 723 728
f 609 635 636
f 636 610 609
f 585 586 562
f 585 610 586
f 562 584 585
f 585 584 606
f 606 609 585
f 585 609 610
f 753 260 733
f 732 753 733
f 733 260 255
f 255 252 733
f 733 706 732
f 268 788 794
f 794 258 268
f 788 258 794
f 242 226 241
f 226 225 241
f 241 225 509
f 509 247 241
f 247 242 241
f 101 126 127
f 100 126 101
f 75 100 101
f 127 102 101
f 101 102 75
f 124 142 148
f 148 161 170
f 142 161 148
f 207 217 208
f 208 183 207
f 208 217 195
f 195 194 208
f 186 173 170
f 186 194 173
f 170 161 186
f 171 148 170
f 467 466 486
f 486 468 467
f 468 441 467
f 467 439 466
f 467 441 439
f 417 390 416
f 416 441 417
f 414 413 415
f 415 416 390
f 441 416 415
f 415 390 388
f 388 414 415
f 413 439 440
f 439 441 440
f 440 415 413
f 441 415 440
f 131 107 130
f 131 151 132
f 132 107 131
f 56 79 80
f 80 54 56
f 53 79 56
f 56 34 53
f 56 54 34
f 362 359 385
f 360 359 362
f 362 336 360
f 363 336 362
f 776 363 362
f 362 385 776
f 337 336 775
f 337 775 772
f 358 359 332
f 332 331 358
f 332 359 360
f 335 331 315
f 315 312 330
f 330 335 315
f 308 312 295
f 291 294 295
f 295 294 308
f 316 334 336
f 462 479 483
f 483 501 480
f 480 462 483
f 497 496 725
f 497 479 496
f 484 500 627
f 484 481 500
f 814 482 463
f 482 464 463
f 463 825 814
f 463 464 825
f 627 602 603
f 603 602 464
f 603 484 627
f 603 464 481
f 481 484 603
f 825 464 579
f 579 602 825
f 464 602 579
f 698 724 478
f 698 699 673
f 698 673 701
f 701 724 698
f 698 478 491
f 491 699 698
f 735 254 788
f 706 254 735
f 788 793 735
f 735 793 706
f 606 630 631
f 631 609 606
f 631 630 635
f 635 609 631
f 252 253 250
f 250 733 252
f 250 253 251
f 251 734 250
f 250 734 706
f 706 733 250
f 147 128 125
f 147 129 128
f 125 124 147
f 124 148 147
f 194 186 185
f 185 186 161
f 185 161 183
f 183 208 185
f 185 208 194
f 172 173 152
f 152 151 172
f 170 173 172
f 172 171 170
f 148 171 149
f 149 147 148
f 130 129 149
f 129 147 149
f 772 769 771
f 771 769 297
f 331 332 313
f 313 315 331
f 499 483 479
f 499 727 702
f 479 497 498
f 498 499 479
f 727 499 498
f 725 727 498
f 498 497 725
f 171 172 150
f 150 149 171
f 130 149 150
f 150 172 151
f 150 131 130
f 151 131 150
f 317 316 336
f 336 337 317
f 297 316 317
f 317 771 297
f 317 337 772
f 772 771 317
f 333 332 360
f 333 313 332
f 360 334 333
f 314 316 297
f 334 316 314
f 314 333 334
f 313 333 314
f 312 315 296
f 315 313 296
f 296 295 312
f 313 314 296
f 291 295 296
f 296 297 291
f 296 314 297
f 726 499 702
f 483 499 726
f 726 702 501
f 501 483 726

