# https://github.com/mikedh/trimesh
v 0.03437823 0.00978061 0.00251361
v 0.03317539 0.01320856 0.00076102
v 0.03392459 0.01106837 0.00448956
v 0.03362216 0.01039252 0.00887103
v 0.03400707 0.00915042 0.00739336
v 0.03407580 0.00900430 0.00387959
v 0.03414454 0.00954315 0.00009091
v 0.03386272 0.01027684 -0.00363763
v 0.03375275 0.01149763 -0.00167886
v 0.03178696 0.01613114 0.00386241
v 0.03266675 0.01375654 -0.00337131
v 0.03142267 0.01693181 -0.00109466
v 0.03293482 0.01309287 0.00611328
v 0.03219249 0.01394225 0.00838993
v 0.03265301 0.01162244 0.01081262
v 0.03276298 0.00938180 0.01288308
v 0.03353280 0.00905605 0.01009956
v 0.03265988 0.00831932 0.01131950
v 0.03315477 0.00859635 0.00594146
v 0.03312040 0.00933309 -0.00316512
v 0.03298293 0.00993891 -0.00759813
v 0.03142954 0.01064521 -0.01568237
v 0.03213750 0.01078525 -0.01227170
v 0.03284546 0.01195124 -0.00685071
v 0.02984179 0.01967477 0.00418028
v 0.03059786 0.01757417 0.00728167
v 0.03002049 0.01973566 0.00068370
v 0.02988990 0.01963824 -0.00310498
v 0.03213063 0.01235309 -0.01011533
v 0.03128520 0.01596675 -0.00586273
v 0.03054287 0.01677654 0.00937790
v 0.03052913 0.01596979 0.01088994
v 0.03143642 0.01242311 0.01314940
v 0.03164949 0.00977756 0.01545182
v 0.03059099 0.00893732 0.01734187
v 0.03114773 0.00845936 0.01533154
v 0.00350291 0.00884599 0.04596745
v 0.03015796 0.00836498 0.01379373
v -0.00537065 0.00903170 0.04666333
v 0.02896887 0.01034686 -0.01941950
v 0.03245368 0.00897385 0.00027992
v 0.03080406 0.01008200 -0.01597447
v 0.02975930 0.01049299 -0.01953119
v 0.02901011 0.01119623 -0.02099168
v 0.02976618 0.01241093 -0.01830266
v 0.03100339 0.01199081 -0.01532154
v 0.02850835 0.02222595 -0.00037301
v 0.02791036 0.02273436 0.00321808
v 0.02848085 0.02099603 0.00754800
v 0.02975243 0.01819522 0.00946382
v 0.03001362 0.01800647 -0.00752081
v 0.02823341 0.02153183 -0.00703112
v 0.02771103 0.02298399 -0.00444520
v 0.02976618 0.01659693 -0.01161877
v 0.02909946 0.01772638 0.01219579
v 0.02988990 0.01262404 0.01617347
v 0.02981429 0.00978061 0.01882813
v 0.02801346 0.00926307 0.02098450
v 0.02827465 0.00864202 0.01955837
v 0.00688462 0.00895254 0.04363926
v 0.00608731 0.00912607 0.04522862
v 0.00353728 0.00922349 0.04694683
v 0.00094600 0.00897690 0.04740217
v -0.00469019 0.00920218 0.04763412
v -0.00858741 0.00940615 0.04588154
v -0.01173542 0.00970145 0.04324407
v -0.03480944 0.01488600 -0.00833697
v -0.03476132 0.01511433 -0.01138681
v 0.02397190 0.01136976 -0.02673913
v 0.02772478 0.01073349 -0.02257244
v 0.02412999 0.01185686 -0.02887832
v 0.02685186 0.01252358 -0.02405870
v 0.02754607 0.01552836 -0.01981469
v 0.02697558 0.01864274 -0.01738341
v 0.02815780 0.01727582 -0.01610333
v 0.02914070 0.01630771 -0.01441089
v 0.02685873 0.02451530 -0.00129226
v 0.02572462 0.02586091 0.00147408
v 0.02592395 0.02510287 0.00466138
v 0.02702369 0.02287135 0.00802910
v 0.02810969 0.02049066 0.01015110
v 0.02895512 0.01932467 -0.00935072
v 0.02660441 0.02213766 -0.01281294
v 0.02606829 0.02419565 -0.00964282
v 0.02553903 0.02590049 -0.00525276
v 0.02685186 0.02066115 -0.01474594
v 0.02643258 0.02063375 0.01379373
v 0.02749796 0.01730626 0.01572674
v 0.02875579 0.01182033 0.01887967
v 0.02680374 0.01193906 0.02147419
v 0.02755294 0.01002416 0.02171474
v 0.00776442 0.00963448 0.04430077
v 0.01032820 0.00922958 0.04082996
v 0.02503728 0.00880946 0.02358760
v 0.00591547 0.01003024 0.04576985
v 0.00285681 0.01048994 0.04735921
v 0.00106285 0.00960708 0.04793482
v -0.00149405 0.00939093 0.04802931
v -0.00292372 0.01023726 0.04814959
v -0.00625732 0.00999980 0.04754821
v -0.00841557 0.01023117 0.04619082
v -0.01114431 0.01021595 0.04413754
v -0.02362641 0.01206692 0.02958420
v -0.03551052 0.01514477 -0.00964282
v -0.03450013 0.01494384 0.01092430
v -0.03341414 0.01542180 -0.01517549
v 0.00703584 0.01438672 -0.03875810
v 0.02243226 0.01185991 -0.02910168
v 0.01972414 0.01265144 -0.03235772
v 0.01675483 0.01362868 -0.03540756
v 0.01898181 0.01341862 -0.03380102
v 0.02173804 0.01276104 -0.03112919
v 0.02296151 0.01316289 -0.02966870
v 0.02401314 0.01929727 -0.02258103
v 0.02597206 0.01645384 -0.02191952
v 0.02547030 0.01881931 -0.02044185
v 0.02540157 0.02159272 -0.01709131
v 0.02489981 0.02692339 -0.00264965
v 0.02391004 0.02781539 0.00224728
v 0.02343578 0.02791890 0.00467857
v 0.02444617 0.02610446 0.00749645
v 0.02605454 0.02326103 0.01009097
v 0.02410937 0.02601617 -0.01247788
v 0.02423996 0.02464621 -0.01486621
v 0.02407500 0.02689904 -0.00947959
v 0.02348389 0.02800719 -0.00716858
v 0.02358012 0.02540121 0.01152568
v 0.02417123 0.02305097 0.01430920
v 0.02320895 0.02169623 0.01755664
v 0.02494792 0.01797907 0.01881094
v 0.02683124 0.01613419 0.01789170
v 0.02432932 0.01364390 0.02324396
v 0.00874732 0.01088267 0.04260832
v 0.02364198 0.01114448 0.02553779
v 0.01094680 0.00991151 0.04062378
v 0.00497382 0.01150980 0.04575267
v 0.00153024 0.01165593 0.04739357
v -0.00060739 0.01129974 0.04792622
v -0.00391349 0.01152807 0.04779736
v -0.00670409 0.01186295 0.04663755
v -0.00869738 0.01186599 0.04523721
v -0.01336442 0.01084309 0.04156021
v -0.01204473 0.01280366 0.04162894
v -0.02291158 0.02037498 0.02684364
v -0.02306966 0.01267884 0.03021994
v -0.02660947 0.01372914 0.02580411
v -0.02798415 0.01370783 0.02370788
v -0.03181950 0.01465463 0.01749650
v -0.02982622 0.01387831 0.02006525
v -0.03243124 0.01441412 0.01547759
v -0.03584044 0.01692267 -0.00020978
v -0.03542117 0.01830481 -0.00259811
v -0.03492628 0.01808562 -0.00691944
v -0.03503625 0.01653909 -0.00973732
v -0.03318731 0.01658779 -0.01626657
v -0.03423207 0.01582975 -0.01324249
v -0.03577859 0.01624683 0.00320089
v -0.03324230 0.01519043 0.01431779
v -0.03313233 0.01700792 0.01357037
v -0.03515998 0.01627118 0.00824388
v -0.03254808 0.01619507 -0.01748650
v -0.03106343 0.01615550 -0.02037312
v -0.02702875 0.01661824 -0.02657590
v -0.02971624 0.01587237 -0.02076831
v -0.01314447 0.01648733 -0.03764984
v 0.00493258 0.01475814 -0.03956566
v 0.00893977 0.01439890 -0.03891274
v 0.01394361 0.01378090 -0.03667905
v 0.01131109 0.01453894 -0.03848318
v 0.01365492 0.01465463 -0.03751238
v 0.01799204 0.01459678 -0.03426494
v 0.02033587 0.01488600 -0.03149861
v 0.01880998 0.01812215 -0.03087145
v 0.02024652 0.02050284 -0.02701405
v 0.02199236 0.02012230 -0.02495218
v 0.02303712 0.02197022 -0.02116350
v 0.02358012 0.02366289 -0.01788169
v 0.02384131 0.02807416 -0.00266684
v 0.02053520 0.03076842 0.00393114
v 0.02140812 0.03032090 -0.00095720
v 0.02101634 0.02978813 0.00679198
v 0.02030838 0.02996166 0.00859611
v 0.02182740 0.02794934 0.01000505
v 0.02204735 0.02639672 -0.01636966
v 0.02179991 0.02820202 -0.01312222
v 0.02118817 0.02969072 -0.01011533
v 0.02149060 0.03011084 -0.00541599
v 0.01988223 0.02773928 0.01418893
v 0.02025339 0.02497805 0.01780578
v 0.01991659 0.02244514 0.02116491
v 0.02023277 0.01931554 0.02363915
v 0.01819824 0.01677350 0.02784879
v 0.00651346 0.01223132 0.04375954
v 0.01513958 0.01881018 0.02961856
v 0.01474779 0.02140702 0.02793471
v 0.00273996 0.01335773 0.04570972
v 0.01180598 0.02259736 0.02970448
v 0.00384658 0.01444761 0.04403445
v 0.00116595 0.01487991 0.04516847
v -0.00080671 0.01339122 0.04676642
v -0.00264191 0.01446283 0.04607913
v -0.00490326 0.01280975 0.04680938
v -0.00740518 0.01463332 0.04429218
v -0.00981087 0.01513564 0.04202413
v -0.01801084 0.02168101 0.03034022
v -0.01851260 0.01878582 0.03186084
v -0.02423814 0.01856967 0.02644844
v -0.02468491 0.01472160 0.02771993
v -0.02179121 0.02256387 0.02637971
v -0.02489799 0.02119086 0.02423194
v -0.02711810 0.01702618 0.02375942
v -0.02933133 0.01615854 0.02117350
v -0.03049981 0.01477336 0.01982470
v -0.03059604 0.01657562 0.01906009
v -0.03188136 0.01628336 0.01683499
v -0.03581295 0.01690136 0.00392255
v -0.03554489 0.01861229 0.00009950
v -0.03496065 0.02049371 0.00041737
v -0.03448638 0.02097167 -0.00310498
v -0.03343475 0.01997617 -0.00990914
v -0.03366157 0.01769594 -0.01289026
v -0.03231439 0.02045413 -0.01297617
v -0.03164080 0.01961693 -0.01636107
v -0.03032110 0.02045413 -0.01840575
v -0.03131774 0.01735193 -0.01937655
v -0.03095346 0.01875538 0.01715286
v -0.03159268 0.01996703 0.01482467
v -0.03399837 0.01806431 0.01025420
v -0.03494003 0.01878887 0.00527135
v -0.02707686 0.01721493 -0.02714291
v -0.02302155 0.01696529 -0.03196253
v -0.01734412 0.01673088 -0.03545052
v -0.01673239 0.01705358 -0.03667045
v -0.01295889 0.01761983 -0.03801926
v -0.00880048 0.01671261 -0.03872373
v -0.00367292 0.01609461 -0.03921343
v 0.00163334 0.01518130 -0.03941961
v 0.00036864 0.01671870 -0.03958284
v 0.00371598 0.01683439 -0.03961721
v 0.00738638 0.01530916 -0.03945398
v 0.00903600 0.01634425 -0.03899864
v 0.01061001 0.01650864 -0.03832854
v 0.01146918 0.01737019 -0.03746084
v 0.01428728 0.01614027 -0.03630963
v 0.01573069 0.01908113 -0.03325978
v 0.01372366 0.01831395 -0.03542474
v 0.01727033 0.02089556 -0.03014980
v 0.01941483 0.02386990 -0.02437657
v 0.02161432 0.02361722 -0.02145560
v 0.01867251 0.03262548 0.00147408
v 0.01703664 0.03375798 0.00296893
v 0.01815013 0.03237584 0.00627651
v 0.01906429 0.03233017 -0.00239192
v 0.01639054 0.03301820 0.00921467
v 0.01632180 0.03227233 0.01145695
v 0.01890620 0.02994340 0.01180919
v 0.02068641 0.02578176 -0.01963428
v 0.02023277 0.02804676 -0.01643839
v 0.01836321 0.03149297 -0.01188510
v 0.01770336 0.03262243 -0.00947100
v 0.01875499 0.03216578 -0.00760672
v 0.01737344 0.02842122 0.01716145
v 0.01788894 0.02530075 0.02059790
v 0.01778584 0.02178756 0.02444671
v 0.01554511 0.02363244 0.02502232
v 0.01571007 0.02633888 0.02196388
v 0.01261704 0.02631452 0.02491922
v 0.00892602 0.02541948 0.02899141
v 0.00961336 0.02263389 0.03147424
v 0.00601170 0.02411345 0.03236772
v 0.00190828 0.01692876 0.04261691
v -0.00017436 0.01948907 0.04099320
v 0.00017618 0.01625291 0.04416332
v -0.00490326 0.01526959 0.04497088
v -0.00130160 0.01786338 0.04280592
v -0.00358357 0.01751328 0.04315815
v -0.00708900 0.01693485 0.04237636
v -0.01418235 0.02408605 0.03118214
v -0.01467724 0.02273131 0.03210140
v -0.01787337 0.02393079 0.02863918
v -0.02056087 0.02418956 0.02614775
v -0.02313840 0.02425045 0.02353606
v -0.02592213 0.02275871 0.02164601
v -0.02691877 0.02095949 0.02177488
v -0.02920074 0.01945558 0.01950683
v -0.03432142 0.02050284 0.00487616
v -0.03345537 0.02273436 0.00317512
v -0.03245186 0.02444528 0.00217855
v -0.03276803 0.02412258 -0.00079397
v -0.03202571 0.02421087 -0.00514967
v -0.03272679 0.02190629 -0.00874075
v -0.03097408 0.02331887 -0.01229747
v -0.02960627 0.02331278 -0.01630952
v -0.02797040 0.02186976 -0.02147278
v -0.02893955 0.01840528 -0.02310509
v -0.02924885 0.02161708 0.01773706
v -0.03010803 0.02338889 0.01404288
v -0.03222504 0.02122435 0.01174046
v -0.03296736 0.02163839 0.00882807
v -0.02611458 0.02046631 -0.02606902
v -0.02562657 0.01825001 -0.02865495
v -0.02247168 0.01747066 -0.03288178
v -0.02047839 0.01725147 -0.03453127
v -0.01828578 0.01839614 -0.03571684
v -0.01462913 0.01895631 -0.03715156
v -0.00884172 0.02011012 -0.03888696
v -0.00790694 0.01936121 -0.03929934
v -0.00606487 0.01880713 -0.03943679
v -0.00156279 0.01909026 -0.03949693
v 0.00223133 0.01932163 -0.03917906
v 0.00663718 0.01830481 -0.03899864
v 0.00974396 0.02152270 -0.03633540
v 0.01289198 0.02234772 -0.03286459
v 0.01516020 0.02346196 -0.02972884
v 0.01655550 0.02416216 -0.02742642
v 0.01795080 0.02611055 -0.02293327
v 0.01742842 0.03358750 -0.00319089
v 0.01572382 0.03485090 -0.00161013
v 0.01387487 0.03576726 0.00355313
v 0.01530454 0.03449776 0.00619919
v 0.01366867 0.03490570 0.00989337
v 0.01238335 0.03474131 0.01278858
v 0.01573757 0.03124029 0.01457553
v 0.01795080 0.03013824 -0.01572533
v 0.01729095 0.02816549 -0.02018411
v 0.01502960 0.03399544 -0.01118922
v 0.01598501 0.03212316 -0.01452257
v 0.01629431 0.03415374 -0.00636960
v 0.01580630 0.02987642 0.01696385
v 0.01393673 0.02844253 0.02125082
v 0.01107740 0.03066187 0.02093295
v 0.00852737 0.02801327 0.02623367
v 0.00480198 0.02628712 0.03064950
v -0.00139095 0.02088339 0.03934370
v -0.00242884 0.01983917 0.04064096
v 0.00244441 0.02711214 0.03058077
v 0.00119345 0.02928886 0.02809794
v -0.00465582 0.01948602 0.04085574
v -0.01179041 0.02498718 0.03168902
v -0.01544706 0.02632974 0.02803780
v -0.01810019 0.02527031 0.02721305
v -0.01962609 0.02647892 0.02467008
v -0.02246480 0.02688077 0.02118209
v -0.02434124 0.02583047 0.02018552
v -0.02627267 0.02477103 0.01883672
v -0.02864399 0.02338889 0.01681781
v -0.03234876 0.02397645 0.00568373
v -0.03052043 0.02700559 0.00277134
v -0.02867836 0.02920362 -0.00040737
v -0.03125589 0.02593398 -0.00142971
v -0.02955128 0.02753226 -0.00508094
v -0.03085723 0.02473754 -0.00911876
v -0.02880895 0.02597964 -0.01338854
v -0.02779856 0.02459750 -0.01826829
v -0.02652699 0.02359287 -0.02199684
v -0.03025924 0.02498109 0.01121640
v -0.02763360 0.02541339 0.01585560
v -0.03051356 0.02566303 0.00874216
v -0.02445809 0.02289266 -0.02605184
v -0.02356455 0.02112998 -0.02885254
v -0.02153690 0.01951647 -0.03242645
v -0.02003849 0.01912984 -0.03404158
v -0.01672551 0.02107214 -0.03532165
v -0.00979712 0.02198849 -0.03753816
v -0.00627794 0.02169927 -0.03873232
v -0.00400972 0.02066419 -0.03927356
v -0.00177586 0.02088643 -0.03910174
v 0.00375723 0.02035975 -0.03866360
v 0.00707708 0.02077379 -0.03761548
v 0.00614230 0.02296268 -0.03661891
v 0.00766132 0.02468275 -0.03447113
v 0.01019073 0.02318797 -0.03445395
v 0.01212903 0.02429916 -0.03140410
v 0.01354495 0.02629930 -0.02764979
v 0.01504335 0.02771188 -0.02384393
v 0.01357244 0.03620260 -0.00113762
v 0.01102241 0.03739599 0.00209264
v 0.01107740 0.03700326 0.00626792
v 0.00915972 0.03748732 0.00865625
v 0.01346934 0.03067709 0.01850167
v 0.00912535 0.03670187 0.01146554
v 0.01017011 0.03563026 0.01308926
v 0.00884354 0.03346268 0.01812366
v 0.01360681 0.03215056 -0.01771846
v 0.01252769 0.03443991 -0.01420470
v 0.01272014 0.03517970 -0.01168750
v 0.01355870 0.03544151 -0.00843147
v 0.01350371 0.03594078 -0.00517544
v 0.00856173 0.03075015 0.02260822
v 0.00502193 0.02825987 0.02811512
v -0.00022247 0.02704517 0.03119074
v -0.00286873 0.02738614 0.03099314
v -0.00627107 0.02655503 0.03171479
v 0.00424524 0.03046703 0.02513400
v 0.00150275 0.03297253 0.02246217
v -0.00063488 0.03064664 0.02637112
v -0.00875237 0.02587918 0.03189521
v -0.01222344 0.02627799 0.02999657
v -0.01480096 0.02809243 0.02636253
v -0.01824453 0.02786714 0.02423194
v -0.02045777 0.02843644 0.02135391
v -0.02144067 0.02966636 0.01855321
v -0.02486362 0.02803458 0.01646557
v -0.02979185 0.02717912 0.00669748
v -0.02781918 0.02977596 0.00423183
v -0.02714559 0.03068318 -0.00193659
v -0.02764735 0.02957199 -0.00589709
v -0.02629329 0.03154777 0.00113903
v -0.02827283 0.02772102 -0.01081980
v -0.02648574 0.02819594 -0.01461707
v -0.02498734 0.02810461 -0.01762396
v -0.02429313 0.02643325 -0.02163601
v -0.02378450 0.02534642 -0.02413603
v -0.02715934 0.02771797 0.01296899
v -0.02715247 0.02873174 0.01055489
v -0.02775732 0.02925537 0.00724731
v -0.02200429 0.02539513 -0.02627521
v -0.02210739 0.02308750 -0.02863777
v -0.01655368 0.02390034 -0.03333711
v -0.02038904 0.02233859 -0.03110341
v -0.01264271 0.02340411 -0.03543333
v -0.00728146 0.02313926 -0.03752957
v -0.00238072 0.02276480 -0.03809658
v -0.00335675 0.02526726 -0.03614640
v 0.00081541 0.02233250 -0.03805362
v 0.00077417 0.02437831 -0.03661032
v 0.00512503 0.02445746 -0.03570825
v 0.00445144 0.02743485 -0.03249517
v 0.00691899 0.02723087 -0.03157593
v 0.01003264 0.02631452 -0.03062231
v 0.01104303 0.02939846 -0.02525287
v 0.01263766 0.03050051 -0.02175629
v 0.01146918 0.03707938 -0.00417887
v 0.01083683 0.03753299 -0.00027851
v 0.00799124 0.03844020 0.00305485
v 0.00878168 0.03800790 0.00555486
v 0.00499444 0.03879030 0.00596723
v 0.00654783 0.03812055 0.00809783
v 0.00559930 0.03753603 0.01080403
v 0.00723517 0.03635482 0.01313222
v 0.00574364 0.03468651 0.01759101
v 0.00539997 0.03319173 0.02049480
v 0.01027321 0.03457996 -0.01661021
v 0.01090556 0.03234235 -0.02028720
v 0.00920783 0.03615998 -0.01405006
v 0.01020448 0.03659228 -0.01094867
v 0.00969584 0.03772478 -0.00560500
v -0.00372104 0.02964201 0.02774570
v -0.00862864 0.02952936 0.02700686
v -0.00954968 0.02815636 0.02867354
v -0.00150780 0.03287511 0.02282299
v 0.00375035 0.03559982 0.01638825
v -0.00065550 0.03492701 0.01864771
v -0.01261522 0.02916709 0.02604466
v -0.01601755 0.03000429 0.02293468
v -0.01904872 0.03018086 0.02022848
v -0.02081519 0.03060402 0.01757382
v -0.02392884 0.02969072 0.01509099
v -0.02580528 0.03155995 0.00462702
v -0.02559908 0.03192832 -0.00272697
v -0.02535851 0.03147471 -0.00781291
v -0.02656135 0.02986424 -0.00987478
v -0.02366078 0.03329219 0.00226446
v -0.02371576 0.03339874 -0.00130085
v -0.02462992 0.03045180 -0.01353459
v -0.02266413 0.03010779 -0.01770128
v -0.02212114 0.02733743 -0.02347451
v -0.02527603 0.03078973 0.00912017
v -0.01923431 0.02771797 -0.02600030
v -0.01850572 0.02643325 -0.02842299
v -0.01653306 0.02613490 -0.03059654
v -0.01416861 0.02556865 -0.03274432
v -0.00887609 0.02546819 -0.03486632
v -0.00526068 0.02601008 -0.03524433
v 0.00024492 0.02621710 -0.03517560
v -0.00259380 0.02796761 -0.03379243
v 0.00172270 0.02713041 -0.03378384
v -0.00053178 0.02914578 -0.03179070
v 0.00340668 0.02969376 -0.02959997
v 0.00640348 0.02873174 -0.02968588
v 0.00918034 0.02885352 -0.02755529
v 0.00911848 0.03219013 -0.02215148
v 0.00798437 0.03855893 -0.00261529
v 0.00610106 0.03905516 -0.00043315
v 0.00646535 0.03884815 0.00286584
v 0.00393593 0.03921651 0.00322667
v 0.00163334 0.03899123 0.00551190
v 0.00181893 0.03807792 0.01007378
v 0.00131029 0.03633960 0.01507381
v 0.00822494 0.03531973 -0.01693667
v 0.00615604 0.03690585 -0.01478889
v 0.00838303 0.03699718 -0.01229747
v 0.00775067 0.03793180 -0.00878371
v 0.00635537 0.03891512 -0.00447956
v -0.00615422 0.03136207 0.02475599
v -0.01211346 0.03106677 0.02339001
v -0.00406471 0.03345963 0.02135391
v -0.00168651 0.03743252 0.01225593
v -0.00472455 0.03562722 0.01642261
v -0.01542644 0.03140773 0.02099309
v -0.01707606 0.03177915 0.01887108
v -0.01925492 0.03184308 0.01649134
v -0.02268475 0.03095108 0.01411161
v -0.02346832 0.03283250 0.00583837
v -0.02407318 0.03283554 -0.00572527
v -0.02360579 0.03273508 -0.00799332
v -0.02349581 0.03192223 -0.01155864
v -0.01969482 0.03531973 0.00276275
v -0.02188744 0.03453429 -0.00120635
v -0.02210739 0.03172131 -0.01485762
v -0.01991477 0.03125552 -0.01889545
v -0.02046464 0.02870130 -0.02313086
v -0.02324837 0.03195876 0.00984182
v -0.01467724 0.02897225 -0.02797625
v -0.01667053 0.02946543 -0.02549342
v -0.01258773 0.02770884 -0.03106046
v -0.00290997 0.03029045 -0.03063950
v 0.00198389 0.03513403 -0.02049339
v 0.00614230 0.03412026 -0.02075972
v 0.00702209 0.03070753 -0.02600030
v 0.00398405 0.03936569 -0.00256374
v 0.00221758 0.03942049 0.00062356
v -0.00348047 0.03882379 0.00497066
v -0.00170026 0.03856807 0.00790882
v -0.00117100 0.03920738 0.00149985
v 0.00568178 0.03549935 -0.01847448
v 0.00417650 0.03686627 -0.01619784
v 0.00408028 0.03783742 -0.01297617
v 0.00557868 0.03794397 -0.01151568
v 0.00504942 0.03890903 -0.00682493
v -0.00908916 0.03268332 0.02164601
v -0.01166669 0.03259503 0.02082985
v -0.00783133 0.03480524 0.01757382
v -0.00466957 0.03702458 0.01284012
v -0.00394099 0.03813577 0.00908581
v -0.01392116 0.03248544 0.01975597
v -0.01567388 0.03322826 0.01645698
v -0.01829952 0.03336830 0.01326968
v -0.02073271 0.03261634 0.01231606
v -0.02090454 0.03381582 0.00735899
v -0.02166062 0.03430596 -0.00560500
v -0.02142692 0.03383409 -0.00907580
v -0.02066397 0.03318564 -0.01294180
v -0.01744722 0.03630306 0.00241910
v -0.01841637 0.03619042 -0.00091425
v -0.01658805 0.03579770 0.00698957
v -0.01857446 0.03595601 -0.00374932
v -0.01857446 0.03233626 -0.01794183
v -0.01742660 0.03067709 -0.02257244
v -0.01369434 0.03110330 -0.02463431
v -0.01203785 0.02962070 -0.02838862
v -0.01467724 0.03204705 -0.02205697
v -0.00750828 0.03090237 -0.02785597
v -0.00650476 0.03359054 -0.02341437
v -0.00313680 0.03447949 -0.02236626
v 0.00109722 0.03601689 -0.01889545
v 0.00241004 0.03922869 -0.00622356
v -0.00070361 0.03936569 -0.00264965
v -0.00550812 0.03897905 0.00119917
v -0.00660099 0.03858024 0.00479025
v 0.00153712 0.03683583 -0.01682499
v 0.00108347 0.03783438 -0.01365487
v 0.00208011 0.03885424 -0.00908440
v -0.01197599 0.03397717 0.01763396
v -0.00878673 0.03542629 0.01566660
v -0.00678657 0.03716157 0.01147413
v -0.00730895 0.03767911 0.00899989
v -0.01497967 0.03479915 0.01268548
v -0.01763280 0.03455865 0.01009956
v -0.01959859 0.03516143 -0.00682493
v -0.01838888 0.03483568 -0.01084557
v -0.01794211 0.03405024 -0.01417033
v -0.01337129 0.03711286 0.00503080
v -0.01445042 0.03724377 0.00125071
v -0.01482158 0.03724986 -0.00255515
v -0.01552267 0.03680538 -0.00634383
v -0.01271145 0.03647355 0.00939509
v -0.01652618 0.03621782 -0.00814796
v -0.01603130 0.03433641 -0.01545041
v -0.01513088 0.03334090 -0.01868067
v -0.01006519 0.03286294 -0.02325114
v -0.01020265 0.03398022 -0.02085422
v -0.00946720 0.03145644 -0.02612057
v -0.01234716 0.03454647 -0.01799338
v -0.00730208 0.03432728 -0.02165319
v -0.00542564 0.03526189 -0.02015834
v -0.00286873 0.03599254 -0.01869785
v -0.00205080 0.03888468 -0.00814796
v -0.00123974 0.03923783 -0.00510671
v -0.00655288 0.03887555 -0.00217714
v -0.00946033 0.03835192 0.00183491
v -0.01072503 0.03823014 -0.00151563
v -0.00947407 0.03791353 0.00580400
v -0.00391349 0.03685105 -0.01598306
v -0.00158341 0.03822101 -0.01155864
v -0.01170793 0.03538062 0.01394838
v -0.01012705 0.03689063 0.01011674
v -0.01448478 0.03604429 -0.01209988
v -0.01262897 0.03772478 -0.00460843
v -0.01176292 0.03764258 -0.00752940
v -0.01267708 0.03679625 -0.01117204
v -0.00862177 0.03536236 -0.01846589
v -0.01076627 0.03628175 -0.01457412
v -0.00674533 0.03614476 -0.01713427
v -0.00519194 0.03887555 -0.00555345
v -0.00524693 0.03792875 -0.01117204
v -0.00933661 0.03764258 -0.00971155
v -0.00982462 0.03824537 -0.00459124
f 152 104 151
f 2 3 1
f 156 106 104
f 67 40 66
f 97 138 99
f 37 62 63
f 62 97 63
f 104 67 105
f 217 152 151
f 218 152 217
f 151 216 217
f 216 218 217
f 229 218 216
f 229 286 218
f 349 289 348
f 470 417 469
f 163 164 106
f 103 67 66
f 66 102 103
f 150 105 103
f 103 105 67
f 69 108 71
f 66 40 39
f 40 18 39
f 37 63 39
f 39 63 64
f 143 102 141
f 100 64 99
f 136 133 193
f 92 133 136
f 96 97 62
f 64 63 98
f 98 63 97
f 99 64 98
f 98 97 99
f 488 437 487
f 439 452 440
f 590 608 592
f 544 508 546
f 546 508 540
f 508 504 540
f 104 105 157
f 151 104 157
f 157 216 151
f 287 286 347
f 218 286 287
f 218 289 219
f 219 152 218
f 508 544 545
f 3 2 10
f 71 108 109
f 108 69 107
f 107 109 108
f 168 109 107
f 107 69 106
f 258 185 184
f 303 302 362
f 471 470 469
f 164 163 231
f 231 302 303
f 106 156 155
f 155 104 154
f 155 156 104
f 40 67 68
f 68 69 40
f 106 69 68
f 104 106 68
f 68 67 104
f 70 69 71
f 40 69 70
f 66 39 65
f 65 39 64
f 64 100 65
f 65 102 66
f 38 18 37
f 37 39 38
f 38 39 18
f 35 59 36
f 37 18 36
f 37 36 60
f 60 36 59
f 1 3 4
f 4 5 1
f 19 18 40
f 20 19 42
f 46 22 45
f 22 44 45
f 44 73 45
f 141 102 101
f 102 65 101
f 101 65 100
f 457 458 402
f 402 458 403
f 399 340 398
f 99 138 139
f 138 200 139
f 139 100 99
f 134 133 91
f 133 132 192
f 194 192 264
f 133 192 194
f 136 193 197
f 91 133 135
f 135 92 91
f 133 92 135
f 90 89 131
f 131 130 90
f 90 130 132
f 90 134 91
f 90 132 133
f 133 134 90
f 131 89 88
f 55 87 88
f 88 130 131
f 57 90 91
f 89 90 57
f 262 266 263
f 263 266 264
f 95 96 62
f 95 92 136
f 136 96 95
f 522 487 486
f 487 437 486
f 524 488 487
f 524 487 523
f 597 593 577
f 334 337 391
f 128 87 127
f 127 188 128
f 608 590 605
f 605 600 608
f 535 524 560
f 560 524 523
f 539 538 569
f 546 540 569
f 569 540 539
f 574 545 544
f 577 593 573
f 546 577 573
f 573 544 546
f 573 574 544
f 539 540 513
f 513 540 504
f 463 504 508
f 459 504 463
f 463 408 459
f 464 408 463
f 148 105 150
f 148 158 105
f 206 141 205
f 206 143 141
f 142 103 102
f 403 458 414
f 414 458 415
f 288 348 289
f 288 289 218
f 218 287 288
f 347 348 288
f 288 287 347
f 104 152 153
f 152 219 153
f 154 104 153
f 153 219 154
f 404 348 347
f 460 408 464
f 348 404 405
f 405 404 416
f 349 348 405
f 405 408 349
f 405 416 459
f 459 408 405
f 170 171 111
f 171 113 111
f 257 258 184
f 248 257 249
f 184 177 249
f 249 257 184
f 127 87 122
f 30 28 11
f 55 32 50
f 46 54 29
f 29 22 46
f 30 11 29
f 29 11 24
f 167 169 168
f 168 107 167
f 167 107 166
f 166 240 167
f 167 240 169
f 241 240 311
f 169 240 241
f 563 595 588
f 328 387 388
f 376 328 388
f 387 328 326
f 187 180 178
f 123 185 186
f 186 125 123
f 184 185 123
f 85 125 126
f 126 118 85
f 178 118 126
f 126 187 178
f 126 125 186
f 186 187 126
f 588 595 606
f 592 608 599
f 608 600 599
f 418 359 417
f 420 418 419
f 419 418 417
f 417 470 419
f 470 471 419
f 516 517 476
f 476 473 516
f 106 164 165
f 166 107 165
f 165 107 106
f 162 163 106
f 154 219 220
f 61 95 62
f 92 95 61
f 61 62 37
f 37 60 61
f 93 92 61
f 61 60 59
f 61 94 93
f 59 94 61
f 58 92 93
f 93 94 58
f 91 92 58
f 58 59 35
f 58 94 59
f 58 57 91
f 35 57 58
f 3 10 13
f 13 4 3
f 16 4 15
f 35 36 16
f 16 36 18
f 6 5 18
f 18 19 6
f 1 5 6
f 6 7 1
f 6 19 20
f 20 7 6
f 41 19 40
f 40 42 41
f 41 42 19
f 43 44 22
f 22 42 43
f 71 44 43
f 43 70 71
f 40 70 43
f 43 42 40
f 22 29 23
f 23 29 24
f 20 42 21
f 21 7 20
f 21 42 22
f 71 113 72
f 72 113 114
f 72 44 71
f 72 73 44
f 457 402 456
f 205 281 209
f 209 206 205
f 280 281 205
f 282 281 342
f 282 209 281
f 282 210 209
f 264 192 191
f 191 192 132
f 132 130 191
f 264 266 265
f 266 197 265
f 267 197 266
f 129 88 87
f 130 88 129
f 87 128 129
f 137 96 136
f 137 199 200
f 137 200 138
f 138 97 137
f 97 96 137
f 593 597 567
f 535 560 567
f 567 560 593
f 489 452 439
f 439 488 489
f 596 597 577
f 397 338 393
f 398 397 450
f 393 449 450
f 450 397 393
f 454 450 449
f 399 398 454
f 398 450 454
f 441 440 452
f 383 382 441
f 441 442 383
f 337 336 390
f 390 336 333
f 179 180 250
f 127 122 121
f 121 122 80
f 80 79 121
f 121 79 120
f 522 558 525
f 525 487 522
f 523 487 525
f 590 558 589
f 589 605 590
f 588 605 589
f 593 560 591
f 592 574 591
f 591 573 593
f 574 573 591
f 539 513 503
f 503 458 457
f 415 458 468
f 458 503 468
f 468 503 513
f 459 416 468
f 468 416 415
f 468 504 459
f 468 513 504
f 508 545 509
f 509 463 508
f 464 463 509
f 509 545 547
f 150 103 149
f 149 148 150
f 103 148 149
f 296 346 297
f 347 286 299
f 286 229 299
f 356 414 415
f 356 298 297
f 356 299 298
f 349 408 406
f 408 460 406
f 76 54 46
f 86 54 76
f 74 117 86
f 74 45 73
f 74 73 116
f 116 117 74
f 175 113 174
f 114 113 175
f 174 248 175
f 248 249 175
f 174 113 173
f 171 245 173
f 112 113 71
f 71 111 112
f 112 111 113
f 170 111 110
f 110 169 170
f 168 169 110
f 110 109 168
f 71 109 110
f 110 111 71
f 372 430 373
f 372 373 314
f 312 369 370
f 311 369 312
f 258 257 316
f 316 257 248
f 2 11 12
f 12 11 28
f 12 10 2
f 24 11 9
f 9 2 1
f 9 11 2
f 48 47 78
f 25 47 48
f 78 79 48
f 48 79 80
f 53 28 52
f 53 47 28
f 25 48 49
f 49 48 80
f 26 10 25
f 25 49 26
f 26 49 50
f 26 13 10
f 476 517 478
f 371 430 372
f 371 427 428
f 372 312 371
f 371 312 370
f 370 427 371
f 368 369 311
f 370 369 368
f 481 431 430
f 521 558 522
f 522 486 521
f 595 563 562
f 562 563 528
f 528 527 562
f 562 527 561
f 526 519 518
f 518 527 526
f 431 481 482
f 482 481 480
f 554 555 517
f 587 555 586
f 586 554 585
f 555 554 586
f 587 561 556
f 556 555 587
f 556 527 518
f 561 527 556
f 518 517 556
f 517 555 556
f 250 317 318
f 317 328 318
f 328 376 318
f 439 440 381
f 381 379 439
f 381 441 382
f 440 441 381
f 439 379 438
f 438 379 437
f 438 488 439
f 437 488 438
f 378 379 321
f 321 255 254
f 437 379 436
f 436 379 378
f 185 258 259
f 186 185 259
f 387 326 386
f 85 118 77
f 77 53 85
f 47 53 77
f 78 47 77
f 77 118 78
f 178 180 119
f 119 179 120
f 180 179 119
f 78 118 119
f 119 118 178
f 119 79 78
f 120 79 119
f 180 187 253
f 253 317 250
f 250 180 253
f 124 117 177
f 124 177 184
f 184 123 124
f 84 123 125
f 84 53 52
f 84 125 85
f 85 53 84
f 588 606 607
f 607 605 588
f 600 605 607
f 548 579 580
f 572 579 548
f 575 574 592
f 592 599 575
f 545 574 575
f 359 418 360
f 300 359 360
f 360 301 300
f 472 419 471
f 471 516 472
f 472 516 473
f 473 421 472
f 472 421 419
f 234 165 233
f 233 305 234
f 362 419 363
f 419 421 363
f 363 421 364
f 306 363 364
f 305 363 306
f 234 305 306
f 306 307 234
f 235 165 234
f 234 307 235
f 106 155 161
f 161 162 106
f 155 162 161
f 163 162 230
f 230 301 302
f 302 231 230
f 230 231 163
f 300 301 230
f 230 295 300
f 221 155 154
f 154 220 221
f 34 16 15
f 34 57 35
f 35 16 34
f 5 4 17
f 4 16 17
f 18 5 17
f 17 16 18
f 116 73 115
f 73 72 115
f 115 114 116
f 115 72 114
f 401 456 402
f 278 340 341
f 341 279 278
f 341 280 279
f 342 281 341
f 281 280 341
f 206 209 144
f 209 210 144
f 144 210 207
f 144 142 102
f 207 142 144
f 102 143 144
f 143 206 144
f 393 338 335
f 201 139 200
f 264 265 195
f 195 265 197
f 195 194 264
f 195 197 193
f 195 193 133
f 133 194 195
f 197 267 268
f 268 333 270
f 189 129 128
f 262 263 189
f 189 188 262
f 189 128 188
f 190 263 264
f 264 191 190
f 190 189 263
f 129 189 190
f 190 191 130
f 130 129 190
f 196 137 136
f 199 137 196
f 270 333 272
f 272 271 270
f 333 336 272
f 199 271 272
f 272 337 334
f 272 336 337
f 334 335 272
f 499 497 453
f 453 497 451
f 452 489 453
f 448 449 393
f 566 567 597
f 597 596 566
f 535 567 566
f 566 534 535
f 534 566 565
f 565 566 596
f 399 454 455
f 337 390 394
f 394 390 442
f 378 321 319
f 319 321 320
f 319 318 376
f 262 188 256
f 252 321 254
f 320 321 252
f 559 591 560
f 559 558 590
f 559 525 558
f 559 560 523
f 523 525 559
f 559 590 592
f 592 591 559
f 147 148 103
f 103 146 147
f 103 142 145
f 145 146 103
f 211 210 284
f 207 210 211
f 284 296 285
f 285 211 284
f 226 285 296
f 228 299 229
f 298 299 228
f 347 299 358
f 299 356 358
f 358 404 347
f 358 356 415
f 415 416 358
f 416 404 358
f 83 54 86
f 83 82 54
f 123 84 83
f 52 82 83
f 83 84 52
f 83 124 123
f 86 117 83
f 117 124 83
f 51 29 54
f 54 82 51
f 30 29 51
f 51 82 52
f 52 28 51
f 51 28 30
f 75 74 86
f 75 76 46
f 86 76 75
f 46 45 75
f 45 74 75
f 114 175 176
f 176 175 249
f 176 249 177
f 177 117 176
f 116 114 176
f 176 117 116
f 172 113 171
f 171 173 172
f 172 173 113
f 315 316 248
f 247 173 245
f 245 314 247
f 174 173 247
f 314 315 247
f 247 248 174
f 247 315 248
f 372 314 313
f 313 314 245
f 313 312 372
f 245 312 313
f 374 373 430
f 374 314 373
f 374 315 314
f 430 431 374
f 170 243 244
f 243 312 244
f 244 171 170
f 242 312 243
f 242 243 170
f 242 241 311
f 311 312 242
f 170 169 242
f 169 241 242
f 258 316 325
f 28 47 27
f 27 12 28
f 27 47 25
f 25 10 27
f 10 12 27
f 8 23 24
f 24 9 8
f 22 23 8
f 8 21 22
f 7 21 8
f 1 7 8
f 8 9 1
f 50 49 81
f 55 50 81
f 80 122 81
f 81 49 80
f 81 87 55
f 81 122 87
f 13 26 14
f 15 4 14
f 4 13 14
f 14 32 15
f 428 427 477
f 476 478 477
f 477 478 428
f 426 427 370
f 480 428 479
f 428 478 479
f 479 519 480
f 518 519 479
f 479 517 518
f 479 478 517
f 429 428 480
f 429 371 428
f 430 371 429
f 480 481 429
f 429 481 430
f 474 473 476
f 476 424 474
f 422 474 424
f 473 474 422
f 364 421 422
f 422 421 473
f 557 563 588
f 588 589 557
f 557 530 563
f 521 530 557
f 557 589 558
f 558 521 557
f 493 492 529
f 529 530 493
f 528 563 529
f 563 530 529
f 388 387 433
f 387 447 433
f 433 376 388
f 446 492 493
f 493 447 446
f 445 492 446
f 446 386 445
f 446 447 387
f 387 386 446
f 491 526 527
f 491 492 445
f 491 529 492
f 491 527 528
f 528 529 491
f 445 443 490
f 490 491 445
f 526 491 490
f 443 482 490
f 519 526 490
f 490 482 519
f 432 431 444
f 431 482 444
f 444 482 443
f 480 519 520
f 520 482 480
f 519 482 520
f 517 516 551
f 511 510 548
f 548 549 511
f 511 549 512
f 417 359 413
f 510 511 466
f 466 511 512
f 379 381 322
f 322 321 379
f 322 381 382
f 322 382 383
f 380 329 322
f 255 321 322
f 485 486 437
f 437 436 485
f 435 485 436
f 326 259 327
f 260 326 328
f 260 259 326
f 186 259 260
f 541 509 547
f 548 510 543
f 543 572 548
f 572 543 571
f 547 545 576
f 545 575 576
f 576 578 547
f 576 575 599
f 576 599 600
f 361 418 420
f 361 360 418
f 420 419 361
f 361 419 362
f 361 362 302
f 302 301 361
f 301 360 361
f 469 512 515
f 512 549 515
f 232 233 165
f 164 231 232
f 232 165 164
f 232 231 303
f 303 233 232
f 303 362 304
f 362 363 304
f 304 233 303
f 305 233 304
f 304 363 305
f 165 235 236
f 507 543 510
f 461 406 460
f 15 32 33
f 33 34 15
f 33 32 55
f 400 401 342
f 456 401 400
f 400 455 456
f 399 455 400
f 400 340 399
f 342 341 400
f 400 341 340
f 343 401 402
f 343 402 403
f 343 282 342
f 342 401 343
f 538 537 568
f 568 596 577
f 568 569 538
f 568 577 546
f 546 569 568
f 564 565 596
f 596 568 564
f 564 568 537
f 502 537 538
f 502 538 539
f 502 503 457
f 539 503 502
f 357 345 403
f 346 345 357
f 403 414 357
f 297 346 357
f 357 356 297
f 414 356 357
f 284 210 283
f 210 282 283
f 283 345 346
f 283 296 284
f 346 296 283
f 339 277 338
f 339 397 398
f 338 397 339
f 278 277 339
f 339 340 278
f 339 398 340
f 278 279 203
f 203 277 278
f 332 390 333
f 333 268 332
f 332 268 267
f 136 197 198
f 198 196 136
f 270 271 198
f 198 271 199
f 199 196 198
f 199 272 273
f 200 199 273
f 273 201 200
f 276 335 338
f 451 497 495
f 449 448 495
f 495 448 451
f 495 497 531
f 498 453 489
f 498 489 488
f 498 534 499
f 499 453 498
f 488 524 498
f 498 524 535
f 535 534 498
f 452 453 395
f 395 453 451
f 395 441 452
f 442 441 395
f 337 394 395
f 395 394 442
f 451 448 396
f 337 395 396
f 396 395 451
f 392 448 393
f 393 335 392
f 392 335 334
f 334 391 392
f 392 396 448
f 392 391 337
f 337 396 392
f 499 534 533
f 534 565 533
f 531 497 533
f 533 497 499
f 533 532 531
f 533 564 532
f 565 564 533
f 496 455 454
f 496 454 449
f 531 532 496
f 496 495 531
f 449 495 496
f 456 455 500
f 500 496 532
f 455 496 500
f 250 318 251
f 318 319 251
f 251 319 320
f 320 252 251
f 251 179 250
f 251 252 179
f 254 255 182
f 255 256 182
f 182 252 254
f 146 145 208
f 207 211 208
f 208 211 146
f 208 142 207
f 208 145 142
f 148 147 213
f 213 147 146
f 158 148 215
f 160 229 216
f 160 228 229
f 216 157 160
f 160 157 105
f 298 228 227
f 297 298 227
f 227 296 297
f 227 226 296
f 375 431 432
f 375 374 431
f 375 325 316
f 316 315 375
f 315 374 375
f 246 312 245
f 246 244 312
f 246 245 171
f 171 244 246
f 31 26 50
f 31 14 26
f 31 50 32
f 32 14 31
f 423 426 425
f 370 368 425
f 425 426 370
f 475 477 427
f 427 426 475
f 476 477 475
f 475 424 476
f 423 424 475
f 475 426 423
f 307 306 365
f 365 366 307
f 365 306 364
f 364 422 365
f 423 366 365
f 365 424 423
f 365 422 424
f 307 366 308
f 238 236 308
f 308 235 307
f 308 236 235
f 310 368 311
f 494 530 521
f 494 447 493
f 493 530 494
f 548 580 552
f 552 549 548
f 552 582 550
f 552 515 549
f 550 515 552
f 553 554 517
f 517 551 553
f 581 551 550
f 550 582 581
f 581 582 585
f 585 554 581
f 467 413 412
f 467 466 512
f 417 413 467
f 469 417 467
f 467 512 469
f 300 295 294
f 323 322 329
f 255 322 323
f 323 256 255
f 323 329 262
f 262 256 323
f 377 436 378
f 377 435 436
f 378 319 377
f 377 319 376
f 324 259 258
f 324 327 259
f 258 325 324
f 384 444 443
f 432 444 384
f 327 324 384
f 384 324 325
f 384 375 432
f 325 375 384
f 385 386 326
f 326 327 385
f 385 443 445
f 445 386 385
f 385 384 443
f 327 384 385
f 261 260 328
f 261 328 317
f 261 187 186
f 186 260 261
f 317 253 261
f 261 253 187
f 601 607 606
f 606 603 601
f 600 607 601
f 601 576 600
f 578 576 601
f 594 603 606
f 594 606 595
f 587 586 594
f 595 562 594
f 594 561 587
f 594 562 561
f 602 586 585
f 585 582 602
f 584 552 580
f 582 552 584
f 584 580 579
f 584 602 582
f 603 602 584
f 547 578 570
f 570 541 547
f 578 571 570
f 514 551 516
f 514 516 471
f 550 551 514
f 514 515 550
f 514 471 469
f 469 515 514
f 237 238 166
f 237 236 238
f 166 165 237
f 165 236 237
f 350 289 349
f 349 351 350
f 350 351 289
f 349 406 407
f 407 351 349
f 406 461 407
f 409 351 407
f 352 351 409
f 220 292 222
f 155 221 222
f 222 221 220
f 465 461 507
f 510 466 465
f 465 507 510
f 505 461 460
f 505 460 464
f 464 509 505
f 509 541 505
f 34 33 56
f 56 88 89
f 55 88 56
f 56 33 55
f 89 57 56
f 57 34 56
f 403 345 344
f 344 343 403
f 282 343 344
f 344 283 282
f 345 283 344
f 204 203 279
f 204 280 205
f 279 280 204
f 205 141 204
f 141 203 204
f 140 203 141
f 141 101 140
f 140 101 100
f 100 139 140
f 390 332 389
f 383 442 389
f 442 390 389
f 330 267 266
f 330 329 380
f 330 266 262
f 262 329 330
f 197 268 269
f 269 198 197
f 269 268 270
f 270 198 269
f 275 273 272
f 275 272 335
f 335 276 275
f 201 273 275
f 275 276 201
f 203 140 202
f 139 201 202
f 202 140 139
f 277 203 274
f 338 277 274
f 274 276 338
f 203 202 274
f 201 276 274
f 274 202 201
f 456 500 501
f 457 456 501
f 501 502 457
f 537 502 501
f 183 182 256
f 183 188 127
f 183 256 188
f 127 121 183
f 121 182 183
f 179 252 181
f 252 182 181
f 120 179 181
f 181 121 120
f 181 182 121
f 211 285 212
f 146 211 212
f 212 213 146
f 148 213 214
f 214 215 148
f 213 212 214
f 226 215 214
f 285 226 214
f 214 212 285
f 159 227 228
f 228 160 159
f 158 215 159
f 105 158 159
f 159 160 105
f 159 215 226
f 226 227 159
f 367 425 368
f 368 310 367
f 367 366 423
f 423 425 367
f 238 308 309
f 309 308 366
f 366 367 309
f 309 367 310
f 484 494 521
f 484 521 486
f 486 485 484
f 485 435 484
f 554 553 583
f 583 553 551
f 583 581 554
f 551 581 583
f 412 413 355
f 355 413 359
f 355 359 300
f 300 294 355
f 295 230 225
f 225 162 155
f 225 230 162
f 447 494 483
f 494 484 483
f 483 484 435
f 598 601 603
f 598 584 579
f 603 584 598
f 579 572 598
f 572 571 598
f 598 571 578
f 578 601 598
f 603 594 604
f 604 602 603
f 604 594 586
f 586 602 604
f 542 571 543
f 542 570 571
f 541 570 542
f 543 507 542
f 409 407 462
f 462 407 461
f 461 465 462
f 291 352 292
f 291 220 219
f 291 292 220
f 289 351 290
f 351 352 290
f 290 219 289
f 290 291 219
f 352 291 290
f 507 461 506
f 461 505 506
f 506 542 507
f 506 505 541
f 541 542 506
f 331 389 332
f 331 332 267
f 267 330 331
f 331 330 380
f 383 389 331
f 331 322 383
f 380 322 331
f 536 501 500
f 532 564 536
f 536 500 532
f 536 564 537
f 537 501 536
f 239 309 310
f 311 240 239
f 239 310 311
f 239 240 166
f 166 238 239
f 238 309 239
f 224 293 294
f 224 225 155
f 224 294 295
f 295 225 224
f 223 222 292
f 292 293 223
f 155 222 223
f 223 224 155
f 293 224 223
f 354 355 294
f 294 293 354
f 412 355 354
f 434 433 447
f 447 483 434
f 376 433 434
f 434 377 376
f 435 377 434
f 434 483 435
f 412 354 411
f 411 465 466
f 411 467 412
f 466 467 411
f 410 411 354
f 465 411 410
f 409 462 410
f 410 462 465
f 353 354 293
f 353 410 354
f 409 410 353
f 353 293 292
f 353 352 409
f 292 352 353

