# https://github.com/mikedh/trimesh
v 0.04362503 0.05738254 -0.01390918
v 0.05409335 0.04698632 -0.01386431
v 0.05848077 0.04043141 -0.01384786
v 0.06979284 0.01417655 -0.01370577
v 0.07028099 0.01700467 -0.01361006
v 0.07234211 0.00330457 -0.01341413
v 0.03821307 0.06156746 -0.01385384
v 0.03495265 0.06333833 -0.01388973
v 0.04138311 0.05968203 -0.01377607
v 0.04814503 0.05441344 -0.01365492
v 0.05402706 0.04858099 -0.01357865
v 0.06004770 0.04001732 -0.01374316
v 0.06411570 0.03221135 -0.01374316
v 0.06733395 0.02410582 -0.01375662
v 0.09003642 0.01450253 -0.00262188
v 0.07196846 0.00952468 -0.01338272
v 0.06743640 0.02762996 -0.01330196
v 0.06978077 0.02136580 -0.01323316
v 0.08754741 0.02565644 -0.00267124
v 0.09083194 0.02088123 -0.00148822
v 0.09031967 0.01105768 -0.00273555
v 0.09027146 0.00699611 -0.00291203
v 0.09397183 0.00612388 -0.00079127
v 0.09488789 0.00359531 -0.00014966
v 0.09652112 0.00339267 0.00129808
v 0.03606758 0.08936413 0.00123676
v 0.03495265 0.06391982 -0.01359510
v 0.04675890 0.07999872 -0.00176341
v 0.05434044 0.07534685 -0.00171256
v 0.05786002 0.07077428 -0.00252916
v 0.06200035 0.06812236 -0.00211039
v 0.06526680 0.06620170 -0.00166769
v 0.06917208 0.05833406 -0.00310795
v 0.07552420 0.05370861 -0.00185614
v 0.06083720 0.04019353 -0.01330795
v 0.06456168 0.03284569 -0.01357566
v 0.09389348 0.01245852 -0.00046373
v 0.08221380 0.03951513 -0.00267124
v 0.08431108 0.03251090 -0.00312590
v 0.08859002 0.02785903 -0.00172602
v 0.09329685 0.02129531 0.00031847
v 0.09585819 0.00659083 0.00078360
v 0.03495265 0.08749633 -0.00050860
v 0.04270294 0.08658006 0.00129808
v 0.04149159 0.08610430 0.00039025
v 0.03591089 0.08690604 -0.00069854
v 0.03543478 0.08474750 -0.00213133
v 0.04099137 0.08330260 -0.00159740
v 0.04790396 0.08198105 -0.00016910
v 0.04995303 0.08107358 0.00009263
v 0.05642568 0.07778732 0.00080454
v 0.06100595 0.07279184 -0.00016312
v 0.06698440 0.06854526 0.00053234
v 0.07129347 0.06091549 -0.00113526
v 0.07577129 0.05665127 -0.00037549
v 0.07910404 0.05500374 0.00097803
v 0.08002611 0.04955013 -0.00083913
v 0.07785652 0.04838716 -0.00241250
v 0.08117721 0.04459871 -0.00177986
v 0.09577984 0.01244090 0.00129808
v 0.09453835 0.02027331 0.00129808
v 0.08585994 0.04265162 0.00045008
v 0.08749919 0.03392055 -0.00106796
v 0.09221807 0.02664320 0.00064600
v 0.06891896 0.06666865 0.00061609
v 0.07197449 0.06291544 0.00034688
v 0.07364990 0.06005207 -0.00009731
v 0.07932100 0.05524162 0.00129808
v 0.09010874 0.03480159 0.00129808
v 0.09017503 0.03364743 0.00092717
v 0.09197701 0.02948014 0.00119638
v 0.09209151 0.02947132 0.00129808
v 0.09045226 0.03398223 0.00129808
v -0.09571939 -0.00413864 -0.00030730
v -0.09290994 -0.00392536 -0.00214931
v -0.09473643 -0.01192314 -0.00056365
v -0.09256137 -0.02098728 -0.00092439
v -0.09418570 -0.01925443 0.00001644
v -0.07306948 -0.00263683 -0.01333214
v -0.09171087 -0.01116779 -0.00252986
v -0.09208732 -0.01817918 -0.00155469
v -0.08866439 -0.01936996 -0.00337423
v -0.08955672 -0.02576818 -0.00201849
v -0.09092310 -0.02868292 -0.00053458
v -0.07239325 -0.01060795 -0.01327400
v -0.07363416 -0.00556935 -0.01286966
v -0.07198194 -0.00020196 -0.01348278
v -0.09152962 -0.01373597 -0.00235676
v -0.07120115 -0.01794813 -0.01316168
v -0.08777902 -0.02707448 -0.00277432
v -0.08888747 -0.03445020 -0.00055572
v -0.08945215 -0.03492118 0.00001644
v -0.09153659 -0.02893174 0.00001644
v -0.07021122 -0.01525554 -0.01338368
v -0.06915855 -0.02298673 -0.01334271
v -0.06419495 -0.03285953 -0.01332421
v -0.02641720 -0.06700115 -0.01317622
v -0.06736691 -0.02947381 -0.01302955
v -0.08542271 -0.03437911 -0.00252326
v -0.08237623 -0.04121276 -0.00237130
v -0.08543666 -0.03985314 -0.00101556
v -0.08555516 -0.04276789 -0.00013420
v -0.06594475 -0.03076234 -0.01330704
v -0.06018642 -0.03987980 -0.01325682
v -0.02730256 -0.06754322 -0.01314847
v -0.04220034 -0.05887896 -0.01313790
v -0.06369301 -0.03620971 -0.01307447
v -0.07776816 -0.04715778 -0.00286153
v -0.08238320 -0.04823304 -0.00014477
v -0.05891066 -0.04302559 -0.01315376
v -0.05271314 -0.04948602 -0.01315904
v -0.02486956 -0.06895615 -0.01295819
v -0.02512750 -0.06887618 -0.01295687
v -0.02956825 -0.06755210 -0.01267013
v -0.03316547 -0.06516166 -0.01301369
v -0.03806633 -0.06264681 -0.01298594
v -0.04272319 -0.05966097 -0.01293309
v -0.04826541 -0.05453351 -0.01309826
v -0.07726622 -0.05297838 -0.00118470
v -0.07459620 -0.05459571 -0.00192203
v -0.03007019 -0.08847962 -0.00087682
v -0.02706554 -0.08733327 -0.00205549
v -0.05472088 -0.04872179 -0.01297801
v -0.05804622 -0.04537161 -0.01274281
v -0.03499196 -0.08518276 -0.00182689
v -0.03649777 -0.08381425 -0.00219952
v -0.04376889 -0.08247239 -0.00105256
v -0.04747068 -0.07722052 -0.00262368
v -0.05637309 -0.07453682 -0.00107370
v -0.04643892 -0.05737715 -0.01260538
v -0.05031499 -0.05369818 -0.01280623
v -0.06160161 -0.07084008 -0.00090060
v -0.07286730 -0.06102948 -0.00023727
v -0.07062253 -0.06094949 -0.00132080
v -0.06670463 -0.06421081 -0.00170400
v -0.05596178 -0.07668734 -0.00009324
v -0.05603847 -0.07678509 0.00001644
v 0.07280051 -0.00354301 -0.01315546
v 0.07268789 -0.00852406 -0.01283125
v 0.07150545 -0.00906491 -0.01345585
v 0.07194465 -0.00279280 -0.01352421
v 0.07211357 -0.00021068 -0.01347760
v 0.07072841 -0.01547659 -0.01336366
v 0.06905047 -0.01954168 -0.01346103
v 0.07162932 -0.00021068 -0.01355011
v -0.01928391 -0.07064322 -0.01299906
v 0.06878019 -0.02276933 -0.01331602
v 0.06679819 -0.02723570 -0.01338749
v 0.06309319 -0.03387418 -0.01339784
v -0.01159237 -0.07126258 -0.01320207
v -0.01221175 -0.07191683 -0.01309539
v 0.06759774 -0.02759335 -0.01295555
v 0.06494005 -0.03185908 -0.01333155
v 0.06057063 -0.03936119 -0.01328080
v 0.05685437 -0.04345245 -0.01330151
v 0.01250701 -0.07086129 -0.01317307
v 0.00060372 -0.07278044 -0.01311300
v -0.00629952 -0.07286768 -0.01299699
v 0.06492880 -0.03364738 -0.01288304
v 0.06287922 -0.03679652 -0.01306535
v 0.05980486 -0.04159437 -0.01304463
v 0.05555931 -0.04617415 -0.01323211
v 0.04812679 -0.05366752 -0.01317618
v 0.03961318 -0.05992219 -0.01316893
v 0.02149360 -0.06930853 -0.01314200
v 0.00757452 -0.07239661 -0.01308399
v 0.00367808 -0.07363533 -0.01254744
v -0.00185127 -0.07361788 -0.01268002
v 0.05609986 -0.04707265 -0.01271731
v 0.05280027 -0.05032647 -0.01291826
v 0.04943312 -0.05361518 -0.01290790
v 0.04339701 -0.05829963 -0.01304981
v 0.03320545 -0.06445834 -0.01310264
v 0.02837431 -0.06742429 -0.01289548
v 0.02099810 -0.07025938 -0.01283643
v 0.01403856 -0.07173364 -0.01295659
v 0.00997319 -0.07287640 -0.01270592
v 0.03899381 -0.06165814 -0.01290687
v 0.03504106 -0.06444962 -0.01269867
v -0.00434430 0.07286319 -0.01358580
v 0.00321281 0.07280377 -0.01367314
v -0.00502804 0.07239635 -0.01382963
v -0.01204535 0.07202288 -0.01351756
v 0.00814292 0.07219264 -0.01379688
v 0.00474822 0.07179370 -0.01401160
v -0.01328088 0.07062235 -0.01388149
v -0.01654363 0.07074967 -0.01370953
v 0.01346888 0.07103826 -0.01397157
v -0.02144975 0.06853428 -0.01387512
v 0.02220153 0.06777885 -0.01400341
v 0.03303339 0.06342448 -0.01399886
v -0.07059493 0.01661287 -0.01360490
v -0.05279374 0.04925792 -0.01375139
v -0.02520431 0.06837301 -0.01355850
v -0.02075402 0.06993482 -0.01353667
v 0.01974247 0.06984144 -0.01383145
v 0.02517639 0.06799954 -0.01384237
v -0.02723153 0.06664145 -0.01382690
v 0.03261355 0.06460432 -0.01391607
v 0.03494065 0.06273695 -0.01394609
v -0.07193841 0.00079114 -0.01350209
v -0.07097878 0.01800491 -0.01341384
v -0.06742814 0.02715503 -0.01359217
v -0.06363758 0.03471789 -0.01366586
v -0.07232226 0.00890572 -0.01349209
v -0.05859952 0.04207703 -0.01369134
v -0.05838360 0.04352000 -0.01356578
v -0.05382535 0.04946163 -0.01341657
v -0.04789962 0.05464783 -0.01368042
v -0.04031852 0.05942661 -0.01373865
v -0.02993050 0.06649715 -0.01352029
v 0.02785137 0.06740538 -0.01359217
v -0.03693582 0.06241440 -0.01366404
v 0.03393304 0.06465524 -0.01351392
v -0.07227428 -0.00020196 -0.01345296
v -0.06889158 0.02514336 -0.01329829
v -0.07276609 0.01092588 -0.01310723
v -0.06424935 0.03515927 -0.01336653
v -0.07348582 0.00342244 -0.01307720
v -0.05759190 0.04534493 -0.01329829
v -0.06169434 0.03974282 -0.01321641
v -0.04360526 0.05862024 -0.01345205
v 0.03495781 0.09685589 0.02043284
v 0.03667145 0.09623654 0.02106142
v 0.03909738 0.09519323 0.01675024
v 0.03902512 0.09513088 0.02244429
v 0.04263823 0.09373008 0.02041117
v 0.04701524 0.09164344 0.01795321
v 0.04507965 0.09233759 0.01562748
v 0.04570936 0.09147716 0.01089797
v 0.03604690 0.09467364 0.00838583
v 0.04053747 0.09402936 0.02316607
v 0.04420734 0.09281146 0.02228606
v 0.03544299 0.09602872 0.02318341
v 0.04908503 0.09055854 0.02080132
v 0.05367367 0.08805207 0.02010121
v 0.05420015 0.08740363 0.01528067
v 0.05427757 0.08701707 0.01187335
v 0.05161420 0.08749092 0.00886919
v 0.04595195 0.09005974 0.00781795
v 0.04167301 0.09211314 0.00809539
v 0.03495781 0.09470689 0.00776593
v 0.03761085 0.09353056 0.00726957
v 0.03786893 0.09454478 0.02344134
v 0.05041155 0.08862569 0.02320291
v 0.04749011 0.09077884 0.02289296
v 0.05215100 0.08867557 0.02205197
v 0.03495781 0.09617004 0.02318557
v 0.05759130 0.08501771 0.02237276
v 0.06098761 0.08309733 0.02037432
v 0.05899525 0.08416560 0.01620620
v 0.06197347 0.08208311 0.01624088
v 0.05846361 0.08413650 0.01290942
v 0.06019273 0.08239485 0.01055334
v 0.05860297 0.08233250 0.00738878
v 0.05120643 0.08659724 0.00651744
v 0.04296857 0.09022601 0.00542719
v 0.03526750 0.09299019 0.00482462
v 0.08466374 0.05742162 0.02295582
v 0.07906860 0.06415957 0.02299050
v 0.05334333 0.08717086 0.02294715
v 0.06144183 0.08187527 0.02295365
v 0.06319676 0.08121436 0.02201295
v 0.06572077 0.07931061 0.02086417
v 0.06801768 0.07738608 0.01824149
v 0.06604595 0.07808024 0.01181049
v 0.06304192 0.08045785 0.01179532
v 0.06303676 0.07938543 0.00860475
v 0.05728160 0.08167991 0.00508255
v 0.06609756 0.07650902 0.00758169
v 0.06487944 0.07644251 0.00577615
v 0.05259490 0.08392866 0.00420038
v 0.04888889 0.08617326 0.00425673
v 0.04278791 0.08869220 0.00337672
v 0.03512814 0.09140650 0.00276982
v 0.03495781 0.09146054 0.00276765
v 0.08645997 0.05575895 0.02265453
v 0.08130356 0.06262992 0.02280843
v 0.07672008 0.06787147 0.02272823
v 0.06942678 0.07484636 0.02284744
v 0.06596337 0.07852500 0.02256133
v 0.07321022 0.07199072 0.02229906
v 0.07088751 0.07465930 0.02056723
v 0.07419091 0.07155427 0.01988879
v 0.07300375 0.07263501 0.01658985
v 0.07290052 0.07222350 0.01200990
v 0.06843060 0.07623468 0.01282055
v 0.05893847 0.07979694 0.00436077
v 0.05606347 0.08088183 0.00330736
v 0.07181143 0.07178705 0.00841834
v 0.07049523 0.07092246 0.00529497
v 0.06423941 0.07405658 0.00279583
v 0.05125289 0.08335505 0.00263544
v 0.04882695 0.08476831 0.00254657
v 0.04330407 0.08681755 0.00175109
v 0.08766261 0.05439556 0.02105058
v 0.08746648 0.05474472 0.02090969
v 0.08408049 0.05980754 0.02102023
v 0.08421984 0.05901777 0.02243995
v 0.08108161 0.06371896 0.02146457
v 0.07773175 0.06745996 0.02167482
v 0.07734980 0.06806683 0.01945529
v 0.07904279 0.06612983 0.01654650
v 0.07723624 0.06724381 0.01111256
v 0.07773691 0.06590121 0.00913145
v 0.07200241 0.07001215 0.00614897
v 0.07705043 0.06331992 0.00498935
v 0.07422704 0.06444222 0.00301908
v 0.07024231 0.06897298 0.00312963
v 0.04840370 0.08349221 0.00130025
v 0.08768327 0.05439556 0.02083383
v 0.08766778 0.05439556 0.01984111
v 0.08465342 0.05897205 0.01713389
v 0.08356949 0.06046014 0.01806159
v 0.08276945 0.06080099 0.01359652
v 0.07960024 0.06455030 0.01162626
v 0.08469471 0.05796199 0.01187118
v 0.08260427 0.05926717 0.00874130
v 0.08107645 0.05980754 0.00689242
v 0.07535227 0.06615892 0.00606226
v 0.07998736 0.05918820 0.00471407
v 0.08064288 0.05666510 0.00324884
v 0.07360766 0.06246780 0.00130025
v 0.07277665 0.06346540 0.00130025
v 0.07574971 0.06186509 0.00255090
v 0.08360046 0.05682306 0.00764021
v 0.08212425 0.05672745 0.00513457
v 0.08474322 0.05066136 0.00340875
v 0.08333784 0.04933608 0.00134676
v 0.09211569 0.04560068 0.02316142
v 0.10299008 0.00020952 0.02350213
v 0.10032415 0.02509611 0.02390037
v 0.08674103 0.05113697 0.00648183
v 0.09079918 0.04349518 0.00639776
v 0.08801476 0.04464412 0.00345743
v 0.08842946 0.04213249 0.00257024
v 0.08689243 0.04244243 0.00129809
v 0.09574269 0.03802302 0.02287601
v 0.09333347 0.04438762 0.02099323
v 0.08969660 0.05070411 0.02251981
v 0.09997198 0.02603129 0.02384727
v 0.10463244 0.00116608 0.02328531
v 0.10042948 0.02591372 0.02303088
v 0.08754739 0.05280961 0.01037130
v 0.09180302 0.04406698 0.00880932
v 0.09354740 0.03839175 0.00726946
v 0.09407400 0.03556482 0.00614554
v 0.09213214 0.03599234 0.00355477
v 0.09647993 0.00497095 0.00129809
v 0.09711186 0.00331968 0.00182465
v 0.09842179 0.00553740 0.00321185
v 0.09704274 0.03554879 0.02202201
v 0.09498899 0.04067360 0.02109500
v 0.09616068 0.03783598 0.01807502
v 0.09343550 0.04385857 0.01733827
v 0.09227697 0.04635417 0.01860600
v 0.09044043 0.04984375 0.01984054
v 0.10474764 0.00205317 0.02203307
v 0.10116342 0.02247225 0.02251760
v 0.10111735 0.02296923 0.01994453
v 0.10009376 0.02720695 0.02168572
v 0.08846895 0.05296459 0.01548425
v 0.08935431 0.05105681 0.01390899
v 0.09190505 0.04603354 0.01218108
v 0.09262255 0.04409904 0.01087795
v 0.09477504 0.03698630 0.00849073
v 0.09643714 0.03035451 0.00701282
v 0.09450517 0.02917351 0.00347955
v 0.09998515 0.00572444 0.00526056
v 0.09779645 0.01242035 0.00318972
v 0.09927753 0.01223332 0.00503932
v 0.09707895 0.03543657 0.01884716
v 0.09627258 0.03695958 0.01445325
v 0.09311953 0.04409370 0.01387802
v 0.10299996 0.00498163 0.01160142
v 0.10233512 0.01254861 0.01294216
v 0.10257539 0.01408231 0.01848874
v 0.10221992 0.01728331 0.02075649
v 0.10141028 0.02034003 0.01728296
v 0.10084088 0.02241346 0.01576302
v 0.09862255 0.03031176 0.01507052
v 0.09916233 0.02957430 0.01918788
v 0.09587763 0.03687408 0.01213240
v 0.09829672 0.02885287 0.01032041
v 0.09711186 0.02830245 0.00710132
v 0.09857976 0.02068204 0.00613227
v 0.09739161 0.02043087 0.00430479
v 0.09584142 0.01919643 0.00232687
v 0.10175915 0.00595957 0.00871197
v 0.10087708 0.01234020 0.00800842
v 0.10007730 0.01414109 0.00690883
v 0.10234170 0.00353344 0.00982925
v 0.10170649 0.01441898 0.01125849
v 0.10112722 0.01943156 0.01306163
v 0.10008717 0.02191648 0.01034696
v -0.07311313 -0.06121683 0.00001644
v -0.07565542 -0.06308513 0.00267369
v -0.06723519 -0.06728880 0.00001644
v -0.06732535 -0.06781843 0.00031340
v -0.02898051 -0.09089273 0.00042118
v -0.07756666 -0.06501599 0.00617344
v -0.08168362 -0.05821839 0.00475462
v -0.07126200 -0.06816456 0.00314223
v -0.07146034 -0.07126310 0.00595787
v -0.06178999 -0.07225981 0.00001644
v -0.06191620 -0.07318144 0.00061696
v -0.06466284 -0.07210550 0.00150784
v -0.03991299 -0.09509640 0.02248874
v -0.03529719 -0.09673534 0.02232816
v -0.02931708 -0.09014208 0.00001644
v -0.02965365 -0.09415808 0.00363057
v -0.03755100 -0.09019212 0.00244492
v -0.03730459 -0.08732295 0.00011542
v -0.07411082 -0.07095450 0.00934543
v -0.07738636 -0.06686343 0.00851394
v -0.07909324 -0.06439878 0.00777263
v -0.08399753 -0.05931935 0.00922225
v -0.06475300 -0.07515399 0.00379775
v -0.06917648 -0.07074598 0.00361297
v -0.06695873 -0.07610900 0.00687075
v -0.05816586 -0.07942856 0.00302125
v -0.07599200 -0.06999116 0.02206639
v -0.04320056 -0.09382029 0.02246014
v -0.03741277 -0.09660605 0.02187942
v -0.07123796 -0.07460769 0.02214338
v -0.03078356 -0.09851188 0.02201140
v -0.02745994 -0.09961701 0.02183762
v -0.02947936 -0.09590961 0.00584568
v -0.03179928 -0.09564272 0.00648140
v -0.03801379 -0.09186024 0.00441807
v -0.04508173 -0.08850732 0.00416070
v -0.04376551 -0.08576326 0.00107450
v -0.07363602 -0.07235572 0.01137577
v -0.07960410 -0.06580417 0.01085224
v -0.06690463 -0.07751856 0.00900448
v -0.06803454 -0.07748102 0.01113820
v -0.08439420 -0.06002413 0.01171453
v -0.05991482 -0.08124265 0.00637142
v -0.05012426 -0.08062961 0.00001644
v -0.05051492 -0.08112588 0.00040359
v -0.05011224 -0.08423276 0.00280787
v -0.05397678 -0.08336534 0.00442027
v -0.05242616 -0.08617195 0.00644621
v -0.07854632 -0.06775171 0.02160885
v -0.07532487 -0.07135485 0.02121510
v -0.04957133 -0.09070924 0.02214558
v -0.04614553 -0.09285278 0.02205979
v -0.04250939 -0.09455009 0.02180902
v -0.05760090 -0.08571321 0.02223137
v -0.03015850 -0.09919164 0.02031102
v -0.03884319 -0.09608893 0.01949492
v -0.06993977 -0.07656356 0.02127669
v -0.06750565 -0.07796896 0.02209939
v -0.03100594 -0.09695636 0.00825437
v -0.03823616 -0.09348666 0.00684215
v -0.04564068 -0.09012957 0.00672777
v -0.07457961 -0.07194287 0.01450377
v -0.08044553 -0.06541634 0.01434539
v -0.06207847 -0.08174725 0.01030671
v -0.06222272 -0.08240199 0.01316634
v -0.06697676 -0.07856531 0.01293317
v -0.06691665 -0.07901154 0.01747778
v -0.08473679 -0.06017009 0.01991287
v -0.08578255 -0.05866878 0.01821909
v -0.08626938 -0.05795982 0.01848745
v -0.05505260 -0.08519610 0.00768025
v -0.05430132 -0.08711444 0.01008894
v -0.05910344 -0.08349878 0.00960280
v -0.04778030 -0.08923295 0.00723150
v -0.08282555 -0.06245959 0.02121730
v -0.08031330 -0.06580417 0.02079055
v -0.07873263 -0.06753902 0.01742939
v -0.07434522 -0.07234739 0.01839946
v -0.05467395 -0.08806109 0.02145487
v -0.04967350 -0.09099699 0.02101053
v -0.04709514 -0.09233566 0.01907478
v -0.06124306 -0.08352380 0.02190141
v -0.03292919 -0.09809902 0.01676288
v -0.03129442 -0.09855358 0.01547164
v -0.03977476 -0.09523819 0.01318174
v -0.06410991 -0.08143865 0.02069377
v -0.06629761 -0.07954116 0.02142627
v -0.03301333 -0.09684376 0.00972378
v -0.03948627 -0.09427485 0.00934763
v -0.04557457 -0.09146407 0.00948621
v -0.04768414 -0.09118883 0.01105021
v -0.06022735 -0.08363640 0.01236124
v -0.05531103 -0.08728125 0.01408362
v -0.06026341 -0.08405343 0.01617995
v -0.06130917 -0.08357384 0.01993267
v -0.05392268 -0.08837387 0.01653410
v -0.04871187 -0.09088856 0.01282538
v -0.03357228 -0.09741926 0.01268680
v -0.10168581 -0.01529827 0.02202116
v -0.10236195 -0.01546505 0.02155806
v -0.10002954 -0.02521556 0.02174330
v -0.10293873 -0.01151600 0.02151929
v -0.10190989 -0.01973574 0.02109496
v -0.10321152 -0.01378239 0.02047463
v -0.10032962 -0.02717221 0.02100019
v -0.10367333 -0.00683433 0.02085588
v -0.10224699 -0.01985189 0.01923180
v -0.10350575 -0.01119138 0.01891302
v -0.10327777 -0.01362455 0.01790497
v -0.10146952 -0.02365798 0.01885486
v -0.10408642 -0.00020196 0.01998999
v -0.10396756 -0.00538694 0.01793081
v -0.10201121 -0.02026287 0.01622058
v -0.10303810 -0.01411296 0.01531162
v -0.10313943 -0.01220396 0.01444573
v -0.09946641 -0.02974534 0.01266441
v -0.10125323 -0.02279133 0.01337952
v -0.10352134 -0.00442202 0.01264718
v -0.10371231 -0.00720362 0.01659106
v -0.10179882 -0.02012290 0.01333860
v -0.10254512 -0.01411892 0.01199884
v -0.09948784 -0.02737175 0.01052339
v -0.09850772 -0.02873575 0.00818420
v -0.09824272 -0.03031120 0.00894024
v -0.10135260 -0.02025394 0.01088310
v -0.09608762 -0.00430587 0.00001644
v -0.09307710 -0.02955772 0.00140788
v -0.10273608 -0.00313843 0.00953257
v -0.10229181 -0.00569965 0.00848360
v -0.10221387 -0.01156068 0.00972858
v -0.10160397 -0.01453586 0.00898978
v -0.09624350 -0.02872383 0.00432218
v -0.09655332 -0.03062688 0.00587086
v -0.10043289 -0.02106996 0.00833498
v -0.09923648 -0.02084659 0.00579548
v -0.09762698 -0.00502361 0.00137558
v -0.09533352 -0.01313613 0.00001644
v -0.09553618 -0.01355307 0.00021460
v -0.09522051 -0.02670762 0.00273256
v -0.09512893 -0.02135884 0.00113649
v -0.10150070 -0.00302228 0.00663982
v -0.10122985 -0.00577410 0.00612718
v -0.10086352 -0.01265069 0.00640289
v -0.09690406 -0.02235652 0.00333136
v -0.09857982 -0.01454778 0.00350152
v -0.09979376 -0.01279364 0.00468404
v -0.09788223 -0.01277279 0.00229747
v -0.09992626 -0.00578900 0.00408955
v -0.09418778 -0.01924434 0.00001644
v -0.09434561 -0.01907756 0.00010906
v -0.09639038 -0.03399534 0.02199312
v -0.09071160 -0.03596183 0.00129101
v -0.08137263 -0.05795982 0.00431974
v -0.07895221 -0.05600403 0.00100369
v -0.09627824 -0.03631500 0.02171444
v -0.09155579 -0.04840025 0.02199312
v -0.09198878 -0.04588261 0.02201473
v -0.08682711 -0.05597460 0.02208601
v -0.08928179 -0.04432813 0.00358092
v -0.09367093 -0.03577187 0.00426574
v -0.08474001 -0.05000555 0.00228691
v -0.07819214 -0.05463953 0.00001644
v -0.08254389 -0.04834942 0.00001644
v -0.09843075 -0.03615715 0.02031457
v -0.08783016 -0.05546358 0.02179870
v -0.09303544 -0.04662639 0.02099075
v -0.08630378 -0.05767890 0.02157187
v -0.09919394 -0.03341476 0.02027569
v -0.09057143 -0.04559900 0.00618624
v -0.09169596 -0.04466257 0.00709788
v -0.08579602 -0.05092325 0.00383152
v -0.09514747 -0.03618925 0.00666799
v -0.09619102 -0.03820926 0.01129318
v -0.09380176 -0.04387062 0.01187862
v -0.09289838 -0.04616888 0.01330225
v -0.09392013 -0.04449669 0.01535237
v -0.09284543 -0.04712136 0.01913289
v -0.08806379 -0.05533783 0.01947854
v -0.08612934 -0.05795982 0.02138392
v -0.09010105 -0.05166436 0.02133423
v -0.09020697 -0.05181419 0.01859714
v -0.08779590 -0.05157072 0.00691858
v -0.08895470 -0.05138344 0.00895790
v -0.09223176 -0.04578628 0.00942452
v -0.09519108 -0.03806746 0.00825580
v -0.08252832 -0.05795982 0.00561808
v -0.09676107 -0.03062956 0.00622512
v -0.09658352 -0.03081952 0.00602638
v -0.09653991 -0.03567021 0.00947637
v -0.08922572 -0.05234929 0.01102314
v -0.08958395 -0.05258474 0.01462219
v -0.08348464 -0.05766552 0.00660318
v -0.08357498 -0.05795982 0.00706764
v 0.04002596 -0.09237961 0.00720035
v 0.04211615 -0.09210835 0.00832980
v 0.03801540 -0.09324271 0.00720035
v 0.04104120 -0.09389797 0.01098978
v 0.03765707 -0.09452504 0.00923797
v 0.03579249 -0.09414985 0.00720035
v -0.02368843 -0.09857456 0.00746773
v -0.00767689 -0.10256419 0.02235500
v 0.02193750 -0.09972654 0.02283597
v 0.02793602 -0.09850762 0.02289744
v 0.04157204 -0.09377114 0.02288361
v 0.04057671 -0.09478045 0.01360519
v 0.03348996 -0.09653306 0.00980193
v 0.03489669 -0.09472232 0.00757222
v -0.02440507 -0.09947816 0.00980347
v -0.01534093 -0.10080276 0.00878773
v -0.02486956 -0.10049804 0.02134079
v -0.02003226 -0.10101413 0.02191705
v -0.01573243 -0.10206218 0.02183560
v -0.00727212 -0.10312784 0.02193088
v 0.00552119 -0.10274738 0.02241493
v 0.01857992 -0.10085560 0.02269153
v 0.02301245 -0.10008234 0.02271765
v 0.03094191 -0.09828216 0.02230275
v 0.03792913 -0.09517501 0.02282215
v 0.03525501 -0.09707030 0.02201078
v 0.04074260 -0.09496187 0.01644342
v 0.03370230 -0.09770265 0.01677227
v 0.03242828 -0.09774669 0.01296133
v 0.03278659 -0.09524898 0.00720035
v 0.02436610 -0.09977057 0.01157218
v 0.02501638 -0.09873484 0.00879695
v -0.02346283 -0.10042405 0.01254643
v -0.02452451 -0.10028843 0.01315648
v -0.01528121 -0.10182791 0.01236663
v -0.00810157 -0.10183496 0.00943159
v -0.02439844 -0.10072350 0.01865008
v -0.02424582 -0.10070941 0.02122247
v -0.01940188 -0.10170989 0.02128701
v -0.01347635 -0.10273328 0.02098582
v -0.00614408 -0.10332865 0.01919560
v -0.00201678 -0.10344138 0.02023285
v 0.00284043 -0.10345195 0.02105651
v -0.00131341 -0.10323353 0.02176184
v 0.00649661 -0.10323001 0.02157283
v 0.01272737 -0.10218372 0.02227663
v 0.01708692 -0.10170637 0.02211989
v 0.02213656 -0.10092606 0.02131774
v 0.02749807 -0.09943237 0.02183099
v 0.03978045 -0.09548502 0.01978261
v 0.04016531 -0.09515915 0.02187095
v 0.04291905 -0.09377819 0.02224896
v 0.03252117 -0.09824693 0.02051406
v 0.04291905 -0.09406883 0.02117330
v 0.03230220 -0.09809721 0.01610997
v 0.02490358 -0.10021269 0.01538773
v 0.01772393 -0.10177155 0.01584258
v 0.01593897 -0.10168700 0.01280766
v 0.01835431 -0.10087322 0.01135397
v 0.01579963 -0.10108282 0.01028291
v 0.01628402 -0.09971244 0.00734479
v -0.01578551 -0.10232463 0.01744226
v -0.02309787 -0.10087322 0.01705348
v -0.00940213 -0.10242680 0.01253413
v -0.00657539 -0.10280903 0.01329478
v -0.00899073 -0.10284249 0.01535239
v 0.00059098 -0.10141750 0.00781501
v -0.00082902 -0.10214321 0.00947462
v 0.00049809 -0.10278437 0.01126330
v -0.00974054 -0.10299398 0.01918792
v 0.00077014 -0.10320710 0.01427211
v 0.00551455 -0.10336740 0.02004231
v 0.01033195 -0.10287420 0.02107034
v 0.01411420 -0.10244793 0.02133926
v 0.02609798 -0.10011756 0.02029739
v 0.01776375 -0.10194065 0.01969041
v 0.04291905 -0.09401951 0.02178950
v 0.02662218 -0.09986216 0.01739309
v 0.01176522 -0.10268749 0.01834121
v 0.00932998 -0.10286011 0.01515416
v 0.00911101 -0.10234753 0.01123564
v 0.00867970 -0.10120084 0.00803629
v 0.00781044 -0.10277028 0.01345460
v 0.03818792 -0.09261741 0.00620659
v 0.03642287 -0.08369166 -0.00191331
v -0.02371498 -0.09838687 0.00719881
v 0.03224912 -0.09425297 0.00518849
v 0.04102792 -0.08969389 0.00420125
v 0.03882493 -0.08509756 -0.00044936
v 0.03248136 -0.08852696 0.00009602
v 0.02905742 -0.08767659 -0.00124950
v -0.02486956 -0.08828799 -0.00184563
v -0.02244095 -0.08934008 -0.00161574
v -0.02382115 -0.09737822 0.00574481
v -0.01510205 -0.09931172 0.00608418
v 0.03116752 -0.09222947 0.00247755
v 0.03829408 -0.08905455 0.00217799
v 0.02478414 -0.09721373 0.00612100
v 0.02383526 -0.09609026 0.00438536
v 0.03648259 -0.08734451 0.00036572
v 0.03150594 -0.09037356 0.00101360
v 0.02520881 -0.08981492 -0.00063546
v 0.02371582 -0.08822592 -0.00185857
v 0.02976079 -0.09002285 0.00038065
v -0.02167123 -0.09347088 0.00096185
v -0.01934879 -0.08991113 -0.00165157
v -0.02234806 -0.09628888 0.00378425
v -0.00818783 -0.10007829 0.00621555
v -0.01525467 -0.09722615 0.00349266
v -0.00571277 -0.09843342 0.00372454
v 0.02450545 -0.09433987 0.00265171
v 0.02362956 -0.09231326 0.00065831
v 0.01640346 -0.09958173 0.00719881
v 0.01865291 -0.09709890 0.00446100
v 0.01587262 -0.09559369 0.00215709
v 0.01577972 -0.09349260 0.00033487
v 0.01484411 -0.08910111 -0.00242783
v -0.01429252 -0.09429331 0.00053888
v -0.01406691 -0.09040459 -0.00194714
v -0.00616399 -0.10077038 0.00719881
v 0.00041182 -0.09970897 0.00521934
v -0.00587203 -0.10060900 0.00686442
v -0.01263364 -0.09596301 0.00190132
v -0.00623034 -0.09678234 0.00193914
v 0.00212379 -0.09731615 0.00236807
v 0.00192473 -0.09936137 0.00476851
v 0.01623094 -0.09961276 0.00719881
v 0.01511617 -0.09764823 0.00437143
v 0.01000017 -0.09735650 0.00306771
v 0.00863989 -0.09541368 0.00104943
v 0.01062391 -0.09184153 -0.00121467
v 0.00749194 -0.09366020 -0.00024534
v 0.00749194 -0.09189428 -0.00143262
v -0.00589193 -0.09100047 -0.00210538
v -0.00462455 -0.09338708 -0.00066532
v 0.00055117 -0.10101245 0.00719881
v 0.00215033 -0.09508161 0.00040951
v 0.00071706 -0.09622992 0.00141467
v 0.00842755 -0.09880274 0.00456350
v 0.00173893 -0.09291535 -0.00113904
v -0.09968193 0.00405619 0.00389840
v -0.09831439 0.00389029 0.00218633
v -0.09798510 0.00198454 0.00169042
v -0.09891487 0.01063696 0.00342020
v -0.09644710 0.00993932 0.00080487
v -0.09492460 0.00221425 -0.00090635
v -0.09726840 0.01866831 0.00295718
v -0.09452169 0.01848539 0.00031403
v -0.09194933 0.01558424 -0.00175479
v -0.09230574 0.01167065 -0.00189057
v -0.09260404 0.00344363 -0.00231395
v -0.09524227 0.02540647 0.00252200
v -0.09177113 0.01877465 -0.00153129
v -0.09226701 0.02524057 -0.00022574
v -0.09142634 0.03426733 0.00170645
v -0.09086847 0.03195747 0.00044981
v -0.09054305 0.02354752 -0.00162322
v -0.08823024 0.02333908 -0.00294227
v -0.08826899 0.03138319 -0.00153045
v -0.09010915 0.04190307 0.00367406
v -0.08708740 0.04000157 0.00006185
v -0.08888883 0.03359522 -0.00049393
v -0.08440655 0.03941879 -0.00173539
v -0.08294217 0.04325581 -0.00140985
v 0.09107150 -0.04898389 0.02030284
v 0.08968773 -0.05144711 0.01786840
v 0.09027113 -0.04999325 0.01578827
v 0.08949004 -0.05109985 0.01349289
v 0.09043024 -0.04950246 0.02229915
v 0.08895485 -0.05259537 0.02112003
v 0.08664535 -0.05641521 0.02118289
v 0.08509765 -0.05863766 0.01772553
v 0.08849681 -0.05100725 0.00962789
v 0.08572444 -0.05698008 0.01343384
v 0.08451425 -0.05791536 0.01052318
v 0.07959148 -0.06537446 0.02303253
v 0.08691054 -0.05499839 0.02245535
v 0.08111507 -0.06416138 0.02258107
v 0.08429245 -0.05990632 0.02079620
v 0.08140437 -0.06395302 0.02050666
v 0.08092222 -0.06411971 0.01527014
v 0.08406585 -0.05943867 0.01380148
v 0.08791341 -0.05003956 0.00744109
v 0.08450942 -0.05673932 0.00890594
v 0.08333297 -0.05823484 0.00859544
v 0.08048346 -0.06355483 0.01111369
v 0.07930701 -0.06383727 0.00891546
v 0.07049811 -0.07493564 0.02297538
v 0.07894540 -0.06674498 0.02240963
v 0.05729681 -0.08477925 0.02297157
v 0.07891165 -0.06695797 0.02083239
v 0.07981809 -0.06572173 0.01717121
v 0.07490497 -0.07117136 0.01522443
v 0.07912862 -0.06589304 0.01323573
v 0.08734930 -0.04807639 0.00522000
v 0.08317386 -0.05636891 0.00628101
v 0.08610053 -0.05089613 0.00573431
v 0.07520390 -0.07021293 0.01220900
v 0.07416728 -0.07083799 0.01056890
v 0.07302940 -0.06951378 0.00696296
v 0.07736394 -0.06368911 0.00595338
v 0.07120205 -0.07491249 0.02216771
v 0.06069115 -0.08276052 0.02287061
v 0.06488104 -0.07946851 0.02289347
v 0.06773056 -0.07821375 0.02199056
v 0.07577766 -0.07033794 0.02197341
v 0.07517015 -0.07126860 0.01974661
v 0.05345406 -0.08770547 0.02294300
v 0.06933612 -0.07669971 0.01616544
v 0.06830914 -0.07690807 0.01206613
v 0.08258564 -0.05458632 0.00433232
v 0.06719537 -0.07579684 0.00779158
v 0.07020882 -0.06873129 0.00362561
v 0.07337655 -0.06763859 0.00561240
v 0.06619732 -0.07374106 0.00453043
v 0.07188670 -0.06690703 0.00357228
v 0.07267743 -0.07374106 0.02132385
v 0.05742698 -0.08585805 0.02214104
v 0.06161206 -0.08291794 0.02205723
v 0.06392156 -0.08126962 0.02174292
v 0.06566213 -0.07999171 0.02053713
v 0.06849718 -0.07769981 0.01977899
v 0.04567214 -0.09238651 0.02262869
v 0.04950042 -0.09062244 0.02211438
v 0.06344905 -0.08166318 0.01786459
v 0.06258118 -0.08201044 0.01425484
v 0.06078758 -0.08206137 0.00985076
v 0.06256672 -0.08072327 0.01006601
v 0.05979917 -0.08046862 0.00620291
v 0.05970756 -0.07825542 0.00371514
v 0.06528123 -0.07331047 0.00357228
v 0.05960631 -0.08458941 0.02092383
v 0.05362763 -0.08836757 0.02160577
v 0.05565267 -0.08728876 0.02049142
v 0.04422569 -0.09347458 0.02175055
v 0.04938470 -0.09095580 0.02079429
v 0.06171331 -0.08297350 0.01829128
v 0.05582142 -0.08704336 0.01773696
v 0.05533927 -0.08686279 0.01323573
v 0.05521873 -0.08613586 0.01047366
v 0.05461122 -0.08538116 0.00816685
v 0.05274529 -0.08410325 0.00488855
v 0.05434604 -0.08183450 0.00374371
v 0.05946166 -0.07826005 0.00357228
v 0.04565285 -0.09275692 0.02002282
v 0.04791414 -0.09157623 0.01742456
v 0.04940399 -0.09075208 0.01729503
v 0.04784182 -0.09116879 0.01325668
v 0.04763449 -0.09070115 0.01091749
v 0.04697395 -0.08987236 0.00824685
v 0.04806361 -0.08842314 0.00701058
v 0.04615911 -0.08798328 0.00494379
v 0.04804432 -0.08573304 0.00385039
v 0.05217636 -0.08302906 0.00357228
v 0.04488623 -0.08718227 0.00357228
v 0.08435842 -0.04875407 0.00240899
v 0.08083548 -0.05594645 0.00336933
v 0.08031087 -0.05378469 0.00177005
v 0.07660027 -0.06171247 0.00357228
v 0.07653203 -0.06154680 0.00337189
v 0.07483026 -0.05942141 0.00085069
v 0.07762815 -0.05476253 0.00041150
v 0.07876692 -0.05155425 -0.00023512
v 0.07134571 -0.06663803 0.00282898
v 0.07245462 -0.06268223 0.00122843
v 0.06860327 -0.06529249 0.00029370
v 0.07132865 -0.06097303 -0.00032923
v 0.07162720 -0.05877087 -0.00120122
v 0.07483879 -0.05506963 -0.00099442
v 0.07712061 -0.05106937 -0.00132606
v 0.06324209 -0.07234748 0.00144098
v 0.06675650 -0.06875534 0.00133726
v 0.06197963 -0.07015745 -0.00047328
v 0.06431688 -0.06821389 -0.00031131
v 0.04385737 -0.08653424 0.00246853
v 0.04614770 -0.08653424 0.00357228
v 0.05968929 -0.07809734 0.00357228
v 0.05951015 -0.07668311 0.00232000
v 0.05657152 -0.07696192 0.00102227
v 0.05584219 -0.07560830 -0.00016854
v 0.05727099 -0.07167270 -0.00157831
v 0.04453124 -0.08400884 0.00058692
v 0.04613065 -0.08444926 0.00160359
v 0.04780681 -0.08557661 0.00357228
v 0.05946324 -0.07825897 0.00357228
v 0.05756102 -0.07829534 0.00248518
v 0.05123593 -0.08126119 0.00141025
v 0.04910766 -0.07928126 -0.00062053
v 0.05281400 -0.07637198 -0.00084845
v 0.04467626 -0.08165313 -0.00079211
v 0.05411911 -0.08179455 0.00357228
v 0.03495264 0.09291042 0.00460170
v -0.00759122 0.10019274 0.00722222
v -0.00754478 0.09859893 0.00460170
v -0.00879415 0.10098155 0.00927721
v -0.00087524 0.10180599 0.01048481
v 0.00056457 0.10056689 0.00733421
v -0.00321608 0.09930998 0.00544535
v -0.00645331 0.09864914 0.00460170
v 0.03495264 0.09317607 0.00496753
v 0.02046636 0.09715574 0.00486674
v 0.02758642 0.09642848 0.00647564
v 0.01983471 0.09964041 0.02349037
v -0.01249584 0.10106578 0.02366955
v -0.00942116 0.10189184 0.01267791
v -0.00729862 0.10152578 0.01082824
v 0.00088968 0.10203438 0.01132099
v 0.00600331 0.10114190 0.00935560
v 0.00350920 0.10054098 0.00758432
v 0.00867391 0.09971168 0.00637111
v 0.00216229 0.09930188 0.00521017
v 0.00072248 0.09884350 0.00460170
v 0.03222631 0.09479094 0.00621620
v 0.03495264 0.09470832 0.00776537
v 0.02170181 0.09853251 0.00781576
v 0.01671359 0.09843371 0.00593063
v 0.01848315 0.09950598 0.00847089
v 0.02666216 0.09840941 0.01023097
v 0.03337351 0.09728532 0.01196119
v 0.03495264 0.09628594 0.02299949
v 0.02767003 0.09873822 0.02263366
v 0.02973220 0.09769997 0.02320293
v 0.02348995 0.09935210 0.02321226
v 0.01955604 0.10019274 0.02324026
v 0.01440526 0.10072077 0.02343811
v -0.00171125 0.10138810 0.02358556
v -0.01249584 0.10120507 0.02345117
v -0.00930505 0.10127795 0.02353889
v -0.00246366 0.10208945 0.02278484
v -0.01060087 0.10204571 0.01967344
v -0.00835292 0.10207973 0.01432974
v -0.00080092 0.10251705 0.01428121
v 0.00771250 0.10194529 0.01193879
v 0.01006727 0.10088436 0.00930147
v 0.00600331 0.09870420 0.00460170
v 0.00392721 0.09881435 0.00460170
v 0.01304906 0.09973273 0.00744060
v 0.01076395 0.09876090 0.00511685
v 0.02357820 0.09948654 0.01105035
v 0.01501833 0.10103986 0.01139192
v 0.02695477 0.09907998 0.01218516
v 0.03124167 0.09799962 0.01586584
v 0.03257929 0.09770645 0.01956518
v 0.02474862 0.09977971 0.01407590
v 0.02269574 0.10051344 0.01910976
v 0.03495264 0.09658884 0.02234995
v 0.03311341 0.09724645 0.02230889
v 0.02505980 0.09984288 0.02081758
v 0.02072646 0.10062196 0.02167989
v 0.01570108 0.10129415 0.02232382
v 0.00960746 0.10150148 0.02317307
v 0.00327233 0.10153387 0.02342691
v -0.01001102 0.10175092 0.02275498
v -0.01249584 0.10141402 0.02286883
v 0.00294257 0.10227409 0.02240968
v -0.00123751 0.10263043 0.02090717
v -0.00611426 0.10208945 0.02223610
v -0.01249584 0.10177198 0.02053201
v -0.00223608 0.10258994 0.01754193
v -0.00031789 0.10261261 0.01856476
v 0.00512549 0.10259156 0.02104716
v 0.00892472 0.10238747 0.01980222
v 0.00535772 0.10229353 0.01492327
v 0.00874358 0.10212670 0.01500353
v 0.01461426 0.10164078 0.01535443
v 0.01795368 0.10094915 0.01267418
v 0.00790292 0.09859083 0.00460170
v 0.01014623 0.09842885 0.00460170
v 0.03495264 0.09672489 0.02166309
v 0.01721055 0.10124232 0.01579492
v 0.01468857 0.10181247 0.01985448
v 0.01913803 0.10104471 0.01998701
v 0.01175788 0.10182543 0.02214651
v 0.00778681 0.10232107 0.02180681
v -0.01249584 0.10162459 0.02182548
v -0.08625867 0.04841799 0.00310110
v -0.08453630 0.04727036 0.00095504
v -0.08358078 0.05510749 0.00487712
v -0.08112846 0.05555119 0.00265029
v -0.07990228 0.05353324 0.00048075
v -0.08150163 0.04714664 -0.00096655
v -0.08236692 0.04476180 -0.00128212
v -0.07843416 0.06206577 0.00487712
v -0.07635501 0.06145996 0.00239483
v -0.07493610 0.05885327 -0.00009497
v -0.07713418 0.05369109 -0.00102008
v -0.07879914 0.05000931 -0.00140045
v -0.07555123 0.05051699 -0.00288720
v -0.05361966 0.08277423 0.00348147
v -0.07252888 0.06812388 0.00431078
v -0.07117558 0.06565370 0.00135514
v -0.07245506 0.05858877 -0.00156669
v -0.06793997 0.06468953 -0.00100693
v -0.05936091 0.07832451 0.00310392
v -0.05503857 0.08288089 0.00487712
v -0.05316036 0.07919057 0.00043191
v -0.05877858 0.07540639 0.00037368
v -0.06648006 0.07381081 0.00419526
v -0.06701317 0.07168620 0.00290387
v -0.06473718 0.07289782 0.00215158
v -0.06417126 0.07080309 0.00029573
v -0.06898160 0.06277397 -0.00137134
v -0.06157129 0.06880648 -0.00194988
v -0.04892414 0.07607619 -0.00290974
v -0.04973201 0.07991157 -0.00047535
v -0.05155281 0.07661801 -0.00173293
v -0.05594897 0.07318366 -0.00202502
v -0.10411777 0.00032552 0.01992050
v -0.10360334 -0.00007860 0.02166493
v -0.10360334 0.00306928 0.02155601
v -0.10387009 0.00613209 0.02031331
v -0.10394630 0.00186118 0.01674767
v -0.10410508 -0.00020196 0.01973659
v -0.10360546 -0.00020196 0.02165064
v -0.10271630 0.00827179 0.02200953
v -0.10347208 0.00891413 0.02127569
v -0.10373036 0.00466449 0.01577993
v -0.10308255 0.01286600 0.02057399
v -0.10262527 0.01682637 0.02043294
v -0.10342974 0.01027538 0.01700478
v -0.10343821 0.00206962 0.01248926
v -0.10224632 0.01412515 0.02195954
v -0.09565389 0.03795971 0.02213987
v -0.10166202 0.01957439 0.02140246
v -0.10277982 0.01178551 0.01229464
v -0.10196264 0.01939572 0.01579243
v -0.10308678 0.01255546 0.01647985
v -0.10031348 0.02729520 0.02042579
v -0.10070512 0.02569148 0.01908846
v -0.10298517 0.00522175 0.01105730
v -0.10267185 0.00261837 0.00930037
v -0.09969107 0.02743983 0.02185776
v -0.09355804 0.04322603 0.02193989
v -0.09746183 0.03544140 0.02172921
v -0.10137410 0.01920430 0.01115550
v -0.10217858 0.01286600 0.01057343
v -0.09982656 0.02802262 0.01440153
v -0.09893318 0.03146401 0.02075790
v -0.09805672 0.03393978 0.01751186
v -0.10219552 0.00526004 0.00848261
v -0.10111160 0.00207813 0.00575794
v -0.09681402 0.03762365 0.02000442
v -0.09468430 0.04261772 0.02110785
v -0.10065855 0.02139505 0.01048058
v -0.10017587 0.02047621 0.00827371
v -0.10150113 0.01318079 0.00853439
v -0.10130848 0.01111765 0.00730597
v -0.09694528 0.03715998 0.01640664
v -0.09719297 0.03585403 0.01365698
v -0.09615986 0.03715573 0.01002349
v -0.09849706 0.02888616 0.00967532
v -0.10039181 0.00414552 0.00479199
v -0.09103876 0.04325581 0.00589900
v -0.09020677 0.04203919 0.00389924
v -0.09451281 0.04315371 0.01928843
v -0.09847166 0.02769081 0.00838084
v -0.09899880 0.01893630 0.00535799
v -0.10042991 0.01227896 0.00599720
v -0.09509288 0.04136282 0.01585314
v -0.09514580 0.04082258 0.01316597
v -0.09533422 0.03570940 0.00728633
v -0.09481343 0.04060138 0.01034310
v -0.09320660 0.04101400 0.00756129
v -0.09108958 0.04325581 0.00597220
v -0.09029146 0.04185202 0.00389924
v -0.09655786 0.02845226 0.00562760
v -0.09703631 0.02494705 0.00478485
v -0.09633557 0.02512572 0.00389924
v -0.09388193 0.03493094 0.00466701
v -0.09355592 0.04277511 0.01004670
v -0.09324894 0.03476078 0.00389924
v -0.01662013 0.10124054 0.01755008
v -0.01867528 0.10092547 0.02127339
v -0.01406167 0.10154466 0.02124159
v -0.01693819 0.10091890 0.01279261
v -0.01846907 0.10099111 0.01726021
v -0.01619721 0.10091015 0.02303873
v -0.02549783 0.09951860 0.02101906
v -0.02177199 0.09986211 0.02292092
v -0.01249934 0.10120553 0.02345015
v -0.01741003 0.09988837 0.00927875
v -0.02530210 0.09850558 0.00994449
v -0.02646249 0.09898693 0.01351633
v -0.02552229 0.09946391 0.01657577
v -0.01853198 0.10007435 0.02363529
v -0.01340808 0.10100424 0.02370635
v -0.02710560 0.09910289 0.02040380
v -0.03036309 0.09809424 0.02108638
v -0.02965357 0.09803954 0.02240291
v -0.02678405 0.09888191 0.02228883
v -0.02755298 0.09831741 0.02297141
v -0.01629158 0.09849026 0.00597059
v -0.02464501 0.09692149 0.00615760
v -0.02297782 0.09845307 0.00870651
v -0.03139067 0.09595659 0.00807068
v -0.03320465 0.09682741 0.01206516
v -0.03395611 0.09698931 0.01706760
v -0.03289708 0.09654953 0.02327062
v -0.03161785 0.09649483 0.02351373
v -0.03965671 0.09363953 0.02347446
v -0.03778331 0.09552994 0.02047674
v -0.03406446 0.09674864 0.02182132
v -0.02557123 0.09551024 0.00460170
v -0.03289358 0.09408370 0.00540396
v -0.04062138 0.09238146 0.00738250
v -0.04104779 0.09326102 0.01000995
v -0.04035225 0.09422153 0.01284123
v -0.04100235 0.09430905 0.01724712
v -0.03789865 0.09529583 0.02207939
v -0.03953438 0.09424341 0.02314720
v -0.04463032 0.09170318 0.02318834
v -0.04820237 0.08991562 0.02316590
v -0.04263109 0.09363953 0.01996434
v -0.04221866 0.09353014 0.02245901
v -0.04026138 0.09107086 0.00505426
v -0.04729014 0.08844968 0.00603979
v -0.04759422 0.08946270 0.00816793
v -0.04210682 0.09331134 0.01225590
v -0.04776548 0.09017161 0.01027550
v -0.04596198 0.09208827 0.02111256
v -0.04693014 0.09124590 0.02256748
v -0.04820237 0.09036633 0.02277318
v -0.04729364 0.08722879 0.00460170
v -0.04820237 0.09018473 0.01124793
v -0.04378060 0.07980178 -0.00255314
v -0.04541050 0.08413869 0.00052351
v -0.04263812 0.08198489 -0.00167110
v -0.03652016 0.08428954 -0.00205785
v -0.00836742 0.09673879 0.00252475
v -0.01355345 0.09638261 0.00278928
v -0.01742933 0.09677231 0.00383915
v -0.04729775 0.08581898 0.00294616
v -0.04015038 0.09070901 0.00460170
v -0.04551578 0.08646009 0.00268712
v -0.03943292 0.08841275 0.00174761
v -0.03697638 0.08728976 0.00011305
v -0.03060107 0.08686236 -0.00191556
v -0.01493770 0.08953993 -0.00260058
v -0.00899131 0.09546914 0.00118026
v -0.01565516 0.09535600 0.00188990
v -0.02340691 0.09411569 0.00221371
v -0.02627288 0.09443834 0.00342504
v -0.03211009 0.09218816 0.00263239
v -0.03070635 0.08995058 0.00023801
v -0.02133250 0.08826190 -0.00255132
v -0.02471707 0.09172724 0.00026355
v -0.02229562 0.09083053 -0.00078085
v -0.01806101 0.09219655 -0.00038954
v -0.00926426 0.09192837 -0.00160452
v -0.01341308 0.09340334 -0.00007759
v -0.09446399 0.04326047 0.01931225
v -0.09340435 0.04448239 0.01405722
v -0.09398851 0.04326047 0.01375966
v -0.09437342 0.04326047 0.02105791
v -0.09176961 0.04859587 0.02063953
v -0.09045187 0.05086715 0.01747461
v -0.09044281 0.05018624 0.01328718
v -0.09432361 0.04326047 0.02117153
v -0.09147075 0.04828339 0.02166745
v -0.08896204 0.05248084 0.02207321
v -0.08876280 0.05367943 0.02057821
v -0.08654843 0.05716331 0.01938979
v -0.08589635 0.05787687 0.01600306
v -0.08999451 0.05002300 0.01068672
v -0.08534842 0.05778826 0.01163168
v -0.09354473 0.04326047 0.02193796
v -0.08680654 0.05520450 0.02244110
v -0.08623145 0.05735452 0.02120218
v -0.08189330 0.06327291 0.02083610
v -0.08115064 0.06424765 0.01670096
v -0.08828279 0.05171596 0.00911057
v -0.08926544 0.04900162 0.00778870
v -0.08492728 0.05625852 0.00789510
v -0.08110083 0.06348744 0.01228090
v -0.07962459 0.06439222 0.00982651
v -0.08389935 0.05873035 0.00975798
v -0.08542540 0.05562891 0.02259438
v -0.07787212 0.06617846 0.02278735
v -0.07738306 0.06770819 0.02250782
v -0.08009553 0.06442953 0.02224633
v -0.07824796 0.06750299 0.02149794
v -0.07564870 0.07055778 0.02138072
v -0.07990082 0.06572141 0.01847368
v -0.07582530 0.07042253 0.01866123
v -0.07659965 0.06937318 0.01691737
v -0.07533624 0.07037590 0.01300225
v -0.08766241 0.04979914 0.00577974
v -0.07909025 0.06317496 0.00681127
v -0.07878684 0.06216758 0.00530185
v -0.08358236 0.05511589 0.00488527
v -0.07528190 0.06954107 0.01050638
v -0.07365622 0.07080963 0.00953617
v -0.07312641 0.07006342 0.00723506
v -0.04931635 0.08881196 0.02330131
v -0.06627049 0.07763279 0.02315343
v -0.06969845 0.07435879 0.02304883
v -0.07519586 0.06964368 0.02276931
v -0.07294527 0.07216680 0.02287030
v -0.07338452 0.07271247 0.02159171
v -0.07285018 0.07332343 0.02019049
v -0.06953995 0.07644352 0.01708689
v -0.07473397 0.07117341 0.01461627
v -0.06900109 0.07637823 0.01270469
v -0.07264640 0.06850104 0.00487986
v -0.06891505 0.07467593 0.00835135
v -0.06740710 0.07658344 0.00959568
v -0.06761540 0.07519362 0.00707456
v -0.05051183 0.08875600 0.02315163
v -0.06101308 0.08191418 0.02307588
v -0.06357612 0.08055701 0.02252586
v -0.06966222 0.07545013 0.02251864
v -0.06709465 0.07800124 0.02207321
v -0.06556860 0.07973152 0.02137711
v -0.06848485 0.07743692 0.02070625
v -0.06351725 0.08130322 0.01632586
v -0.06272479 0.08132654 0.01206089
v -0.06307800 0.08011395 0.00963535
v -0.06144779 0.08056167 0.00766427
v -0.06078213 0.07929777 0.00518823
v -0.05327865 0.08794449 0.02217059
v -0.05647114 0.08517885 0.02297670
v -0.06133458 0.08274901 0.02187123
v -0.06141157 0.08286093 0.01974325
v -0.05702360 0.08573385 0.01612208
v -0.05509000 0.08658266 0.01242517
v -0.06083194 0.08172762 0.00962453
v -0.06057382 0.07915320 0.00487986
v -0.05510810 0.08484772 0.00764082
v -0.05566509 0.08292622 0.00549841
v -0.04820237 0.09082673 0.02192714
v -0.04857370 0.09070081 0.02174139
v -0.05334205 0.08811706 0.02071888
v -0.05768473 0.08521150 0.02179910
v -0.04992315 0.08987532 0.01527089
v -0.04884087 0.09020179 0.01267043
v -0.05412093 0.08347189 0.00487986
v -0.04820237 0.09090136 0.02165122
v -0.04913069 0.09049094 0.01889567
v 0.00140673 0.09711033 0.00236148
v -0.00215522 0.09792662 0.00338673
v -0.00753630 0.09842452 0.00431803
v 0.00529519 0.09843469 0.00413104
v 0.00844158 0.09750324 0.00316964
v 0.00501108 0.09596550 0.00130431
v 0.00168236 0.09521357 0.00050709
v -0.00512775 0.09571147 0.00117934
v -0.00836742 0.09551164 0.00118026
v -0.00836742 0.09839065 0.00441836
v 0.01464530 0.09753033 0.00414289
v 0.01142259 0.09627034 0.00209970
v 0.00975186 0.09457341 0.00032193
v 0.00366687 0.09338116 -0.00089396
v -0.00319412 0.09347261 -0.00078085
v -0.00836742 0.09525760 0.00097046
v 0.01833870 0.09729324 0.00460170
v 0.02016632 0.09581986 0.00298812
v 0.01782137 0.09602986 0.00280843
v 0.01662133 0.09427196 0.00085006
v 0.01447993 0.09262922 -0.00070058
v 0.01223675 0.09087472 -0.00206059
v 0.00493899 0.09075956 -0.00253673
v -0.00160820 0.09154537 -0.00212535
v -0.00836742 0.09188407 -0.00166563
v 0.02042499 0.09696808 0.00460170
v 0.02591632 0.09559631 0.00453329
v 0.02468236 0.09413648 0.00241256
v 0.02674320 0.09143358 0.00028180
v 0.02312189 0.09201617 0.00009663
v 0.02003911 0.09138617 -0.00091676
v 0.02028929 0.08931667 -0.00219923
v -0.00661613 0.09020746 -0.00277479
v 0.02988111 0.09297471 0.00274914
v 0.03495264 0.09136245 0.00267617
v 0.03495264 0.08953343 0.00105894
v 0.03059350 0.09018037 0.00035659
v 0.03495264 0.08705409 -0.00082646
v 0.02932985 0.08789070 -0.00159083
v 0.07957181 -0.04676607 -0.00146856
v 0.10044801 -0.00243992 0.00613492
v 0.09247570 -0.00170609 -0.00183033
v 0.09179849 -0.00375261 -0.00213419
v 0.08044013 -0.04406320 -0.00184103
v 0.08290759 -0.04664300 0.00038397
v 0.07981655 -0.04676607 -0.00132955
v 0.08993113 -0.04235853 0.00463080
v 0.09898967 -0.00435426 0.00388765
v 0.09954954 -0.00147363 0.00463258
v 0.09586176 -0.00420385 0.00073416
v 0.09364908 -0.01038444 -0.00067105
v 0.09167780 -0.00819206 -0.00197112
v 0.08372560 -0.03781880 -0.00183835
v 0.08373901 -0.04073133 -0.00103461
v 0.08775869 -0.04195742 0.00222581
v 0.08299139 -0.04676607 0.00050070
v 0.08610924 -0.04006587 0.00015140
v 0.09253940 -0.03396732 0.00350360
v 0.09313280 -0.03601840 0.00535613
v 0.09127215 -0.04175232 0.00610997
v 0.09987473 -0.01024770 0.00584087
v 0.09785651 -0.00225304 0.00247976
v 0.09696809 -0.01139175 0.00226501
v 0.09758160 -0.00020196 0.00223739
v 0.09475207 -0.01758146 0.00116989
v 0.09235501 -0.01752676 -0.00074145
v 0.09020939 -0.01704362 -0.00208785
v 0.08513702 -0.03050783 -0.00269021
v 0.08863705 -0.03079498 -0.00060779
v 0.08853983 -0.03417699 0.00014695
v 0.09073238 -0.03228999 0.00126880
v 0.09483252 -0.02694806 0.00343855
v 0.09850020 -0.01980574 0.00590770
v 0.09577459 -0.02014303 0.00266332
v 0.09385359 -0.02466908 0.00201819
v 0.09357868 -0.02050767 0.00082505
v 0.09193259 -0.02378028 0.00021912
v 0.08965957 -0.02417227 -0.00137054
v 0.09187895 -0.02768189 0.00104158
v 0.09679040 -0.02669282 0.00596295
v 0.09686080 -0.02677486 0.00613492
v 0.09205337 -0.04309691 0.00852297
v 0.09128323 -0.04176599 0.00613492
v 0.09330776 -0.04290092 0.01164306
v 0.09183576 -0.04463750 0.00984438
v 0.09445550 -0.03465102 0.00634383
v 0.09595949 -0.03549424 0.01009405
v 0.10160643 -0.00368880 0.00807797
v 0.09417816 -0.03493817 0.00613492
v 0.09343790 -0.04377149 0.01481749
v 0.09599363 -0.03687986 0.01267573
v 0.09431683 -0.03460088 0.00613492
v 0.09792216 -0.02806932 0.00879303
v 0.09846190 -0.02890799 0.01120655
v 0.09681283 -0.03495640 0.01312582
v 0.10039470 -0.00399874 0.00613492
v 0.10299736 -0.00290027 0.01161758
v 0.10169816 -0.01004259 0.00965585
v 0.10035203 -0.01331065 0.00750049
v 0.09995949 -0.01079010 0.00613492
v 0.09414616 -0.04280521 0.01882588
v 0.09322243 -0.04466030 0.01823312
v 0.09217709 -0.04676607 0.01924201
v 0.09653336 -0.03663373 0.01589433
v 0.09863256 -0.01976472 0.00613492
v 0.09987629 -0.01937274 0.00830387
v 0.10088110 -0.02022963 0.01185706
v 0.09941550 -0.02753604 0.01414490
v 0.09198510 -0.04676607 0.02187803
v 0.09421442 -0.04110053 0.02272217
v 0.09520856 -0.03801023 0.02296335
v 0.10021123 -0.02044386 0.02323681
v 0.10285229 -0.01158318 0.01694228
v 0.10199896 -0.01299615 0.01187405
v 0.09441496 -0.04203947 0.02123771
v 0.09280857 -0.04531208 0.02165553
v 0.09212376 -0.04676607 0.02112051
v 0.09617496 -0.03809683 0.02081309
v 0.09734190 -0.03487891 0.01861357
v 0.10149976 -0.01864346 0.01474276
v 0.10122456 -0.02080394 0.01572448
v 0.09965230 -0.02806021 0.02063305
v 0.10000642 -0.02632362 0.01846920
v 0.09575470 -0.03821990 0.02256761
v 0.09884803 -0.02839750 0.02282238
v 0.10069763 -0.02124606 0.02302790
v 0.10402136 -0.00041163 0.02338287
v 0.10324056 -0.01015199 0.02200372
v 0.10259629 -0.01443647 0.02043093
v 0.10174936 -0.01927246 0.01907556
v 0.09768323 -0.03375310 0.02167591
v 0.09945816 -0.02807844 0.02217017
v 0.10078723 -0.02352959 0.02111032
v 0.10166190 -0.01913572 0.02167931
v 0.10288215 -0.01089037 0.02275104
f 1183 408 1088
f 598 332 1074
f 1088 408 1074
f 1074 408 598
f 204 192 203
f 1183 494 553
f 778 332 598
f 778 764 332
f 598 408 597
f 408 596 597
f 201 192 96
f 546 494 496
f 500 559 496
f 408 1183 423
f 1183 553 423
f 552 494 546
f 552 553 494
f 332 764 331
f 764 1338 331
f 244 1074 332
f 332 245 244
f 1323 375 358
f 609 597 596
f 149 4 144
f 185 190 191
f 144 4 141
f 495 496 494
f 560 422 553
f 185 189 186
f 186 189 187
f 95 201 96
f 192 201 205
f 1165 494 1183
f 1165 1155 1011
f 968 965 967
f 193 198 189
f 193 189 185
f 185 192 193
f 192 204 193
f 991 995 222
f 1203 1211 1212
f 1189 1202 1203
f 985 995 991
f 260 245 332
f 1007 999 1006
f 550 496 559
f 473 452 445
f 445 472 473
f 471 472 445
f 1353 331 1338
f 1353 342 332
f 332 331 1353
f 1337 1338 764
f 358 378 359
f 359 342 358
f 377 378 358
f 664 645 644
f 664 636 662
f 170 162 169
f 169 162 161
f 155 162 163
f 163 171 172
f 163 162 170
f 170 171 163
f 662 636 635
f 631 660 633
f 633 632 631
f 609 632 633
f 187 1133 1126
f 1126 1133 1135
f 118 111 106
f 106 111 104
f 117 116 129
f 118 106 117
f 117 106 116
f 129 116 128
f 128 116 127
f 132 117 129
f 438 418 421
f 492 488 486
f 486 488 467
f 411 412 400
f 430 412 411
f 123 111 118
f 549 396 397
f 133 396 549
f 154 162 155
f 155 149 154
f 149 153 154
f 161 162 154
f 199 191 190
f 513 1019 523
f 498 495 499
f 500 496 498
f 496 495 498
f 996 1001 506
f 1001 507 506
f 506 507 501
f 1002 506 501
f 1002 997 996
f 996 506 1002
f 499 495 497
f 497 501 499
f 497 1002 501
f 997 1002 497
f 497 494 997
f 497 495 494
f 511 559 563
f 563 559 500
f 500 498 563
f 508 504 509
f 444 560 562
f 422 560 444
f 562 470 444
f 444 470 471
f 471 445 444
f 444 445 422
f 559 571 572
f 551 550 559
f 553 552 551
f 551 560 553
f 551 552 546
f 546 496 551
f 496 550 551
f 567 583 528
f 527 567 528
f 527 539 535
f 438 467 468
f 458 472 471
f 211 198 213
f 213 1113 211
f 187 189 194
f 189 198 194
f 198 211 194
f 194 211 1116
f 182 186 187
f 185 186 182
f 94 95 85
f 201 95 94
f 1008 1015 1013
f 1008 999 1007
f 1007 1015 1008
f 1035 1029 1028
f 1028 1029 1019
f 1024 1013 1023
f 1023 1034 1024
f 1024 1034 1035
f 1035 1028 1024
f 1219 1226 1220
f 1212 1211 1220
f 1003 1165 1011
f 494 1165 1003
f 997 494 1003
f 1188 1202 1189
f 1184 1165 1183
f 1155 1165 1166
f 1165 1184 1166
f 1155 1166 1167
f 1167 1166 1185
f 968 967 972
f 1032 1039 1044
f 1044 1049 1054
f 732 1045 735
f 735 733 732
f 1035 1034 1033
f 1033 1045 1035
f 1033 1034 1023
f 1023 1032 1033
f 1044 1045 1033
f 1033 1032 1044
f 743 748 749
f 749 748 965
f 992 1113 213
f 213 222 992
f 992 222 995
f 1116 211 1115
f 1115 211 1113
f 213 198 210
f 198 193 210
f 218 204 203
f 208 193 207
f 204 218 207
f 207 218 221
f 991 208 981
f 1164 1161 1153
f 971 972 967
f 1175 1161 1178
f 1156 1157 1150
f 1150 1157 1158
f 1211 1203 1201
f 1201 1203 1202
f 1210 1211 1201
f 1204 1203 1212
f 1204 1214 1206
f 245 260 262
f 38 39 17
f 462 461 460
f 489 490 460
f 460 488 489
f 408 423 424
f 574 470 562
f 562 560 574
f 471 470 463
f 463 458 471
f 470 574 463
f 463 465 464
f 463 574 560
f 490 477 481
f 452 462 481
f 462 460 481
f 481 460 490
f 553 422 425
f 425 445 452
f 422 445 425
f 425 423 553
f 425 449 423
f 423 449 446
f 409 596 408
f 408 424 409
f 1098 1099 1088
f 1066 1061 1064
f 1080 1119 1081
f 1081 1069 1080
f 1069 881 1080
f 141 142 138
f 16 21 6
f 6 138 142
f 138 6 1268
f 1276 1268 24
f 375 1323 392
f 1323 1314 392
f 667 664 662
f 645 664 667
f 663 664 644
f 636 664 663
f 638 639 614
f 614 641 638
f 830 817 829
f 824 812 823
f 600 615 616
f 638 641 616
f 616 615 638
f 796 778 598
f 598 599 796
f 622 650 651
f 789 775 788
f 800 817 803
f 803 788 800
f 801 788 803
f 764 778 776
f 800 788 787
f 787 775 774
f 787 788 775
f 805 793 810
f 810 795 805
f 815 817 800
f 829 817 815
f 597 609 610
f 1119 1080 1236
f 181 182 180
f 181 184 185
f 185 182 181
f 185 184 188
f 188 190 185
f 1250 181 180
f 158 151 157
f 157 151 150
f 96 192 150
f 150 192 185
f 185 191 150
f 4 149 150
f 150 191 4
f 126 125 127
f 400 412 413
f 413 125 400
f 127 125 413
f 125 126 114
f 114 126 127
f 117 132 130
f 418 404 419
f 420 418 438
f 420 404 418
f 136 132 129
f 431 412 430
f 491 490 489
f 489 488 491
f 491 488 492
f 480 478 451
f 480 486 484
f 492 486 480
f 135 133 134
f 134 123 135
f 131 123 118
f 135 123 131
f 131 132 135
f 131 130 132
f 118 117 131
f 117 130 131
f 104 111 110
f 111 123 110
f 545 78 535
f 532 74 76
f 101 100 102
f 98 100 99
f 403 404 397
f 403 419 404
f 418 419 403
f 399 396 133
f 397 396 399
f 399 403 397
f 566 577 564
f 119 133 557
f 133 549 557
f 109 557 549
f 119 557 109
f 102 100 109
f 109 108 119
f 109 100 108
f 148 149 144
f 148 153 149
f 197 199 190
f 190 188 197
f 197 188 196
f 191 2 3
f 1 2 191
f 145 141 4
f 1000 1001 996
f 1000 507 1001
f 513 507 1000
f 996 999 1000
f 514 507 513
f 502 498 499
f 499 504 502
f 505 563 502
f 502 563 498
f 502 508 505
f 504 508 502
f 503 504 499
f 507 504 503
f 499 501 503
f 501 507 503
f 560 551 561
f 559 572 561
f 561 551 559
f 518 520 529
f 518 567 580
f 580 584 518
f 580 567 565
f 564 577 565
f 535 539 542
f 531 542 543
f 543 542 541
f 539 527 530
f 530 518 529
f 527 518 530
f 102 556 554
f 554 547 102
f 556 566 554
f 554 566 564
f 564 565 554
f 522 547 527
f 397 404 401
f 573 463 560
f 465 463 573
f 457 458 434
f 473 472 457
f 472 458 457
f 457 452 473
f 457 462 452
f 195 1133 187
f 187 194 195
f 187 1126 183
f 183 182 187
f 87 94 85
f 201 94 87
f 215 205 201
f 215 79 205
f 201 87 215
f 85 79 215
f 215 87 85
f 85 80 86
f 86 79 85
f 80 79 86
f 205 79 219
f 75 79 80
f 75 74 734
f 80 76 75
f 75 76 74
f 1018 1028 1019
f 1018 1024 1028
f 1013 1024 1018
f 1212 1220 1222
f 1222 1220 1226
f 1219 1220 1208
f 1221 1211 1210
f 1221 1220 1211
f 1210 1208 1221
f 1221 1208 1220
f 1110 1208 1196
f 1182 1183 1088
f 1088 1196 1182
f 1182 1197 1183
f 1182 1196 1197
f 1011 1020 1010
f 1010 1003 1011
f 1148 1147 1154
f 1154 1021 1148
f 1148 1155 1156
f 1011 1155 1148
f 1148 1021 1011
f 1183 1197 1198
f 1198 1197 1210
f 1210 1201 1198
f 1198 1201 1200
f 1187 1188 1170
f 1202 1188 1187
f 1187 1201 1202
f 1200 1201 1187
f 1156 1155 1168
f 1155 1167 1168
f 964 748 1175
f 965 748 964
f 964 967 965
f 1057 1054 1049
f 1051 1057 1049
f 973 972 979
f 979 981 973
f 973 981 980
f 968 972 973
f 735 1045 740
f 1055 1045 1044
f 1044 1054 1055
f 1054 1057 1055
f 1038 1049 1044
f 1044 1039 1038
f 1038 1051 1049
f 1050 1051 1038
f 1145 1050 1048
f 1050 1038 1048
f 1040 1029 1035
f 1040 543 1029
f 731 733 734
f 731 521 531
f 531 543 731
f 543 1040 731
f 734 74 731
f 74 521 731
f 970 749 965
f 221 218 970
f 994 992 995
f 994 985 984
f 995 985 994
f 1113 992 994
f 209 210 193
f 209 193 208
f 209 222 213
f 213 210 209
f 209 208 991
f 991 222 209
f 749 970 752
f 752 970 218
f 220 980 208
f 208 207 220
f 220 207 980
f 206 193 204
f 204 207 206
f 206 207 193
f 980 207 976
f 976 207 221
f 989 981 979
f 989 985 991
f 991 981 989
f 208 980 990
f 990 981 208
f 980 981 990
f 1153 1145 1151
f 1145 1144 1151
f 1144 1150 1151
f 1151 1158 1153
f 1151 1150 1158
f 1177 1161 1176
f 1177 1178 1161
f 1177 971 967
f 1152 1145 1153
f 1153 1161 1152
f 1161 1159 1152
f 1152 1050 1145
f 1160 1161 1175
f 1160 1159 1161
f 1160 1152 1159
f 1175 1051 1160
f 1160 1051 1050
f 1171 1157 1170
f 1158 1157 1171
f 1169 1167 1170
f 1170 1157 1169
f 1169 1168 1167
f 1169 1157 1156
f 1156 1168 1169
f 1172 1171 1170
f 1158 1171 1172
f 1170 1188 1172
f 1172 1188 1189
f 1153 1158 1162
f 1158 1174 1162
f 1191 1180 1174
f 1189 1203 1191
f 1203 1204 1191
f 1205 1204 1206
f 972 971 978
f 979 972 978
f 971 1177 978
f 1244 1252 1253
f 239 238 255
f 255 256 239
f 230 238 239
f 230 239 240
f 240 239 256
f 315 313 317
f 303 313 315
f 284 303 285
f 282 284 283
f 314 313 303
f 303 300 314
f 22 6 21
f 15 21 16
f 255 238 254
f 269 256 255
f 255 271 269
f 269 271 288
f 29 50 51
f 1022 1016 1020
f 1022 1020 1011
f 1011 1021 1022
f 1022 1021 1154
f 1154 1147 1022
f 1014 1015 1007
f 1023 1013 1014
f 1013 1015 1014
f 459 468 467
f 438 468 459
f 450 424 451
f 451 478 450
f 482 477 452
f 452 481 482
f 482 481 477
f 477 449 453
f 449 425 453
f 452 477 453
f 453 425 452
f 448 424 423
f 451 424 448
f 424 450 427
f 342 1361 1354
f 358 342 1354
f 1324 1340 1332
f 1324 1314 1323
f 1323 1340 1324
f 358 1354 1339
f 1339 1354 1355
f 1339 1323 358
f 1339 1340 1323
f 765 757 764
f 1336 1337 764
f 764 757 1336
f 1338 1337 1352
f 1337 1351 1352
f 1352 1361 342
f 1352 1353 1338
f 342 1353 1352
f 1074 244 891
f 891 912 913
f 911 912 891
f 918 1064 1061
f 1088 1087 1086
f 1086 1098 1088
f 1074 1065 1073
f 1079 1086 1073
f 1073 1086 1087
f 1088 1074 1073
f 1073 1087 1088
f 1067 1061 1066
f 1067 1065 1061
f 1079 1073 1067
f 1067 1073 1065
f 1063 1070 1071
f 1069 1070 1063
f 1066 1064 1072
f 1071 1085 1072
f 1072 1063 1071
f 1064 1063 1072
f 883 881 1069
f 1082 1069 1081
f 1081 1070 1082
f 1082 1070 1069
f 1135 1133 1125
f 1133 195 1125
f 1125 194 1116
f 1125 195 194
f 1124 1125 1116
f 1132 1125 1124
f 1081 1119 1091
f 1119 1130 1091
f 1129 1130 1119
f 1131 1130 1129
f 378 377 379
f 394 380 379
f 140 139 143
f 140 138 139
f 141 138 140
f 144 141 140
f 140 143 144
f 138 1268 1269
f 1287 1322 1314
f 1314 1322 1267
f 661 667 662
f 660 667 661
f 662 633 661
f 661 633 660
f 668 667 660
f 645 667 668
f 659 660 631
f 659 668 660
f 671 668 659
f 666 663 644
f 641 663 666
f 613 599 598
f 613 614 599
f 612 613 598
f 614 613 612
f 817 830 818
f 818 803 817
f 157 166 167
f 164 163 172
f 155 163 164
f 837 600 592
f 600 601 592
f 592 838 837
f 838 592 590
f 824 823 833
f 833 823 615
f 642 639 638
f 638 615 642
f 615 823 642
f 811 823 812
f 599 614 811
f 812 796 811
f 811 796 599
f 617 601 600
f 600 616 617
f 709 698 714
f 655 624 708
f 723 712 706
f 712 711 706
f 484 454 483
f 493 480 483
f 483 480 484
f 483 622 493
f 430 411 429
f 595 454 429
f 650 628 627
f 627 427 626
f 630 659 631
f 789 788 802
f 802 788 801
f 856 169 161
f 170 169 856
f 801 803 852
f 1327 1344 1341
f 793 776 792
f 821 812 824
f 824 822 821
f 826 822 824
f 825 826 814
f 769 768 780
f 814 815 798
f 800 787 798
f 790 776 793
f 793 805 790
f 768 767 766
f 766 767 759
f 766 765 764
f 759 757 766
f 757 765 766
f 827 815 814
f 814 826 827
f 634 610 609
f 635 610 634
f 609 633 634
f 662 635 634
f 634 633 662
f 611 610 635
f 611 612 598
f 598 597 611
f 597 610 611
f 611 635 636
f 1237 956 926
f 1231 956 1237
f 898 899 885
f 184 181 1249
f 1249 1250 1240
f 181 1250 1249
f 1248 1247 1257
f 1248 188 184
f 184 1249 1248
f 1248 1249 1240
f 1257 1247 1246
f 1244 1255 1246
f 1259 1250 180
f 168 158 157
f 157 167 168
f 125 114 113
f 113 121 125
f 404 420 414
f 414 401 404
f 438 421 443
f 456 431 430
f 456 443 431
f 474 477 490
f 490 491 474
f 474 449 477
f 474 446 449
f 124 110 123
f 78 545 544
f 81 76 80
f 85 95 89
f 99 100 91
f 100 101 91
f 91 101 102
f 95 98 90
f 90 89 95
f 83 89 90
f 90 98 99
f 99 91 90
f 90 91 83
f 96 104 103
f 104 110 103
f 103 95 96
f 103 98 95
f 107 110 108
f 108 100 107
f 100 98 107
f 107 103 110
f 98 103 107
f 398 133 135
f 398 399 133
f 135 132 398
f 132 399 398
f 136 137 406
f 406 421 418
f 406 137 421
f 418 403 407
f 403 399 407
f 407 406 418
f 399 406 407
f 578 577 417
f 417 585 578
f 578 565 577
f 570 572 571
f 570 569 585
f 570 571 559
f 559 569 570
f 437 585 417
f 417 434 437
f 434 458 437
f 437 463 464
f 458 463 437
f 558 549 556
f 558 109 549
f 558 556 102
f 102 109 558
f 17 18 5
f 16 6 5
f 5 15 16
f 5 6 142
f 5 145 4
f 5 142 141
f 141 145 5
f 36 38 17
f 4 191 14
f 191 3 14
f 14 3 13
f 14 5 4
f 13 36 14
f 17 5 14
f 14 36 17
f 191 199 200
f 200 1 191
f 199 1 200
f 7 1 199
f 2 1 10
f 54 34 33
f 54 65 66
f 54 55 34
f 510 514 513
f 507 514 510
f 509 504 510
f 510 504 507
f 1005 1008 1013
f 999 1008 1005
f 1005 1000 999
f 515 508 509
f 529 520 526
f 528 583 582
f 582 527 528
f 582 518 527
f 583 567 582
f 567 518 582
f 511 518 519
f 519 518 584
f 511 520 517
f 517 518 511
f 520 518 517
f 535 542 533
f 533 545 535
f 533 542 531
f 533 544 545
f 531 521 533
f 533 74 532
f 533 521 74
f 1029 543 537
f 537 543 541
f 541 542 540
f 540 530 541
f 540 542 539
f 539 530 540
f 527 547 555
f 547 554 555
f 567 527 555
f 555 565 567
f 555 554 565
f 534 527 535
f 535 522 534
f 534 522 527
f 535 78 77
f 78 544 77
f 76 81 77
f 532 76 77
f 77 533 532
f 544 533 77
f 416 434 417
f 417 401 416
f 577 566 402
f 397 401 402
f 402 566 556
f 560 561 575
f 576 561 572
f 576 575 561
f 576 573 560
f 560 575 576
f 1225 1226 1219
f 1225 1108 1226
f 1096 1222 1226
f 1096 1089 1085
f 1197 1196 1209
f 1196 1208 1209
f 1210 1197 1209
f 1209 1208 1210
f 1099 1110 1100
f 1100 1110 1196
f 1088 1099 1100
f 1100 1196 1088
f 1219 1208 1218
f 1099 1098 1109
f 1109 1110 1099
f 1208 1110 1109
f 1109 1218 1208
f 1012 1010 1020
f 1012 1016 1007
f 1020 1016 1012
f 1007 1006 1004
f 1004 1012 1007
f 1010 1012 1004
f 1004 1006 999
f 1003 1010 1004
f 1143 1144 1139
f 1139 1142 1143
f 1147 1148 1143
f 1170 1167 1186
f 1186 1187 1170
f 1186 1167 1185
f 1186 1184 1183
f 1185 1166 1186
f 1186 1166 1184
f 1175 1178 966
f 966 964 1175
f 967 964 966
f 966 1177 967
f 1178 1177 966
f 1059 748 743
f 1059 1057 748
f 743 740 1059
f 1059 740 1057
f 1052 1051 1175
f 1056 740 1045
f 1045 1055 1056
f 1057 740 1056
f 1056 1055 1057
f 1037 1048 1038
f 1139 1144 1140
f 1140 1144 1145
f 1046 1040 1035
f 732 1040 1046
f 1035 1045 1046
f 1045 732 1046
f 730 732 733
f 733 731 730
f 205 219 739
f 739 75 734
f 739 219 79
f 79 75 739
f 736 737 733
f 736 733 735
f 735 740 736
f 736 740 742
f 192 205 202
f 203 192 202
f 202 216 203
f 744 740 743
f 742 740 744
f 743 749 744
f 749 750 744
f 747 750 749
f 742 744 747
f 747 744 750
f 216 202 747
f 969 965 968
f 969 970 965
f 975 976 969
f 221 970 969
f 969 976 221
f 993 1115 1113
f 1113 994 993
f 993 994 984
f 980 976 974
f 974 976 975
f 968 973 974
f 974 973 980
f 974 969 968
f 975 969 974
f 979 978 987
f 987 978 986
f 985 989 988
f 988 987 986
f 988 989 979
f 979 987 988
f 1050 1152 1058
f 1058 1160 1050
f 1152 1160 1058
f 1173 1174 1158
f 1158 1172 1173
f 1173 1172 1174
f 1190 1172 1189
f 1174 1172 1190
f 1189 1191 1190
f 1190 1191 1174
f 1163 1162 1174
f 1176 1161 1163
f 1161 1164 1163
f 1163 1164 1153
f 1153 1162 1163
f 1194 1191 1204
f 1204 1205 1194
f 1193 1180 1194
f 1180 1191 1194
f 1194 1195 1193
f 1194 1205 1206
f 1206 1195 1194
f 1181 1180 1193
f 1193 1195 1181
f 1181 1195 986
f 1176 1163 1181
f 1181 1163 1180
f 1244 1253 1254
f 1254 1255 1244
f 241 240 243
f 230 240 241
f 243 231 241
f 241 907 230
f 231 907 241
f 257 240 256
f 243 240 257
f 285 303 286
f 303 304 286
f 305 286 304
f 260 259 278
f 299 300 278
f 332 341 330
f 330 260 332
f 330 259 260
f 317 313 362
f 316 304 303
f 303 315 316
f 316 315 317
f 317 305 316
f 316 305 304
f 302 300 303
f 303 284 302
f 284 282 301
f 300 302 301
f 301 302 284
f 301 278 300
f 298 314 300
f 298 300 299
f 298 297 313
f 313 314 298
f 249 262 263
f 236 247 249
f 235 247 236
f 39 38 63
f 268 254 266
f 255 254 268
f 66 65 324
f 324 65 309
f 292 271 291
f 291 309 292
f 288 271 292
f 275 295 26
f 256 269 272
f 395 380 394
f 394 393 395
f 1026 1022 1030
f 1016 1022 1026
f 1030 1022 1031
f 1031 1142 1139
f 1007 1016 1017
f 1017 1014 1007
f 487 459 467
f 460 459 487
f 467 488 487
f 488 460 487
f 479 450 478
f 493 622 479
f 479 480 493
f 478 480 479
f 622 651 625
f 625 479 622
f 450 479 625
f 626 450 625
f 625 627 626
f 625 651 650
f 650 627 625
f 426 409 424
f 424 427 426
f 426 427 606
f 426 606 596
f 596 409 426
f 605 450 626
f 626 427 605
f 605 427 450
f 1350 1336 757
f 1341 1344 1350
f 1350 1351 1337
f 1337 1336 1350
f 1341 1350 1342
f 1342 1327 1341
f 1343 1327 1342
f 758 757 759
f 759 754 758
f 938 912 937
f 913 912 938
f 1064 918 1060
f 1068 1065 1074
f 942 1065 1068
f 942 1068 941
f 1078 1067 1066
f 1079 1067 1078
f 893 1063 1064
f 1064 1060 893
f 893 1060 918
f 894 883 893
f 1069 1063 893
f 893 883 1069
f 1066 1072 1075
f 1075 1072 1085
f 1131 1132 1123
f 1132 1124 1123
f 1134 1132 1131
f 1131 1129 1134
f 1135 1125 1134
f 1134 1125 1132
f 376 379 377
f 394 379 376
f 376 393 394
f 376 377 358
f 358 375 376
f 375 393 376
f 360 379 380
f 360 359 378
f 378 379 360
f 375 392 389
f 389 392 1314
f 1314 1324 1325
f 1325 1324 1332
f 1322 1287 1274
f 1275 1267 1274
f 1274 1267 1322
f 1290 25 350
f 671 659 657
f 659 630 629
f 861 171 170
f 172 178 173
f 173 164 172
f 670 655 714
f 725 712 723
f 593 592 601
f 593 590 592
f 593 601 602
f 823 811 640
f 640 614 639
f 640 811 614
f 644 617 643
f 643 617 616
f 643 666 644
f 643 616 641
f 641 666 643
f 619 620 601
f 601 617 619
f 619 617 644
f 644 645 619
f 623 604 624
f 714 655 724
f 724 709 714
f 709 724 710
f 655 708 710
f 710 724 655
f 723 706 722
f 158 168 722
f 604 623 621
f 621 650 622
f 621 623 650
f 603 483 454
f 603 454 595
f 595 604 603
f 622 483 603
f 603 621 622
f 604 621 603
f 428 429 411
f 428 411 695
f 695 682 428
f 682 674 428
f 595 429 428
f 428 674 595
f 607 627 628
f 596 606 607
f 606 427 607
f 427 627 607
f 139 138 1277
f 1277 1269 1268
f 1268 1276 1277
f 161 154 160
f 160 154 153
f 789 802 804
f 804 852 789
f 804 802 801
f 801 852 804
f 849 856 850
f 849 848 852
f 774 775 763
f 775 773 763
f 763 769 774
f 1355 1354 1360
f 1360 1354 1361
f 1361 1352 1360
f 778 796 791
f 791 776 778
f 791 792 776
f 793 792 807
f 792 791 807
f 813 825 814
f 760 768 769
f 760 767 768
f 760 754 759
f 759 767 760
f 795 780 779
f 779 780 768
f 768 766 779
f 774 769 782
f 814 798 797
f 810 813 797
f 797 813 814
f 797 795 810
f 816 815 800
f 800 798 816
f 816 798 815
f 794 790 805
f 794 805 795
f 829 815 828
f 815 827 828
f 828 827 837
f 837 838 828
f 828 838 829
f 835 826 824
f 835 827 826
f 637 611 636
f 612 611 637
f 636 663 637
f 637 663 641
f 641 614 637
f 614 612 637
f 886 881 885
f 885 899 886
f 962 950 949
f 949 943 962
f 923 898 926
f 1243 1252 1244
f 1244 1237 1243
f 885 896 897
f 897 898 885
f 1258 1248 1257
f 188 1248 1258
f 196 188 1258
f 1256 1255 1257
f 1257 1246 1256
f 1256 1246 1255
f 1239 1246 1247
f 1239 1248 1240
f 1247 1248 1239
f 1244 1246 1245
f 1245 1237 1244
f 1128 1129 1119
f 1128 1134 1129
f 1137 183 1126
f 182 183 1137
f 180 182 1137
f 1137 1259 180
f 400 125 410
f 125 121 410
f 410 681 400
f 121 681 410
f 146 121 112
f 121 113 112
f 127 116 115
f 115 114 127
f 436 460 461
f 436 459 460
f 436 461 462
f 462 457 436
f 129 128 439
f 439 128 127
f 412 431 432
f 127 413 432
f 432 413 412
f 431 443 441
f 441 432 431
f 466 467 438
f 438 443 466
f 466 443 467
f 455 456 430
f 484 456 455
f 430 429 455
f 455 454 484
f 455 429 454
f 484 486 485
f 485 456 484
f 486 456 485
f 467 443 469
f 443 456 469
f 469 486 467
f 469 456 486
f 475 474 491
f 123 134 120
f 120 124 123
f 120 133 119
f 120 134 133
f 110 124 120
f 119 108 120
f 108 110 120
f 82 89 83
f 83 77 82
f 82 77 81
f 82 80 85
f 85 89 82
f 102 547 92
f 92 91 102
f 405 399 132
f 405 406 399
f 132 136 405
f 136 406 405
f 579 578 585
f 565 578 579
f 585 569 579
f 580 565 579
f 568 559 511
f 568 569 559
f 511 519 568
f 568 519 584
f 568 584 580
f 580 579 568
f 568 579 569
f 585 437 586
f 573 576 586
f 465 573 586
f 586 570 585
f 464 465 586
f 586 437 464
f 572 570 586
f 586 576 572
f 1293 1304 143
f 1292 1304 1293
f 1293 1277 1292
f 143 139 1293
f 139 1277 1293
f 58 34 57
f 13 3 12
f 12 36 13
f 12 3 2
f 27 7 8
f 8 7 199
f 8 214 27
f 199 214 8
f 9 7 29
f 1 7 9
f 9 10 1
f 67 54 66
f 55 54 67
f 30 9 29
f 10 9 30
f 32 54 33
f 525 526 516
f 516 526 520
f 513 525 516
f 516 510 513
f 509 510 516
f 516 515 509
f 520 515 516
f 1019 513 1009
f 1009 1018 1019
f 513 1000 1009
f 1000 1005 1009
f 1013 1018 1009
f 1009 1005 1013
f 505 508 512
f 508 515 512
f 511 563 512
f 512 563 505
f 512 520 511
f 512 515 520
f 1019 1029 536
f 1029 537 536
f 538 537 541
f 529 526 538
f 538 526 525
f 538 530 529
f 541 530 538
f 91 92 84
f 535 77 84
f 83 91 84
f 84 77 83
f 84 92 547
f 401 414 415
f 415 416 401
f 415 414 434
f 434 416 415
f 556 549 548
f 548 402 556
f 548 549 397
f 397 402 548
f 1089 1096 1101
f 1226 1108 1101
f 1101 1096 1226
f 997 1003 998
f 1003 1004 998
f 998 1004 999
f 996 997 998
f 998 999 996
f 1149 1148 1156
f 1149 1143 1148
f 1156 1150 1149
f 1149 1150 1144
f 1144 1143 1149
f 1200 1187 1199
f 1187 1186 1199
f 1199 1186 1183
f 1183 1198 1199
f 1199 1198 1200
f 1041 1052 1175
f 1051 1052 1042
f 1052 1041 1042
f 1175 748 1042
f 1042 1041 1175
f 1139 1048 1043
f 1048 1047 1043
f 1043 1031 1139
f 1030 1031 1043
f 1145 1048 1141
f 1141 1140 1145
f 1141 1048 1139
f 1139 1140 1141
f 729 731 1040
f 729 730 731
f 729 1040 732
f 732 730 729
f 738 739 734
f 734 733 738
f 733 737 738
f 741 736 742
f 737 736 741
f 741 202 737
f 749 752 751
f 751 747 749
f 751 752 218
f 216 747 751
f 203 216 751
f 751 218 203
f 1104 1103 1111
f 1083 1070 1081
f 1105 1094 1093
f 1104 1105 1093
f 1093 1103 1104
f 1094 1083 1093
f 985 988 982
f 982 988 986
f 1174 1180 1179
f 1179 1163 1174
f 1180 1163 1179
f 986 978 1192
f 1192 1181 986
f 1176 1181 1192
f 1192 1177 1176
f 1192 978 1177
f 238 237 251
f 251 252 238
f 253 254 238
f 238 252 253
f 253 252 254
f 266 254 267
f 267 252 266
f 254 252 267
f 264 282 283
f 959 953 950
f 959 938 937
f 961 938 959
f 959 962 961
f 950 962 959
f 950 953 952
f 952 953 921
f 952 951 950
f 921 951 952
f 953 959 933
f 1260 1254 1253
f 1253 276 1260
f 1255 1254 1260
f 1260 276 1255
f 273 257 256
f 273 272 294
f 256 272 273
f 243 257 258
f 275 276 258
f 287 286 266
f 357 340 339
f 340 330 339
f 280 262 260
f 338 330 341
f 338 341 332
f 353 339 338
f 338 339 330
f 317 362 363
f 363 362 374
f 297 296 311
f 311 340 357
f 311 296 340
f 313 297 312
f 312 362 313
f 297 311 312
f 357 362 312
f 312 311 357
f 277 296 297
f 297 298 277
f 277 298 299
f 340 296 277
f 299 278 277
f 277 278 259
f 277 330 340
f 259 330 277
f 245 262 261
f 262 249 261
f 261 246 245
f 261 247 246
f 261 249 247
f 39 63 40
f 17 39 40
f 40 18 17
f 21 15 37
f 386 387 368
f 71 63 70
f 347 366 367
f 367 368 347
f 347 368 348
f 270 271 255
f 255 268 270
f 266 286 270
f 270 268 266
f 305 320 306
f 51 292 52
f 29 51 52
f 274 295 275
f 275 258 274
f 274 258 257
f 294 295 274
f 274 273 294
f 257 273 274
f 49 50 29
f 275 26 1261
f 1261 26 1255
f 1261 276 275
f 1255 276 1261
f 45 26 44
f 44 26 295
f 44 49 45
f 295 49 44
f 1265 197 196
f 1265 47 197
f 196 1258 1265
f 1257 1255 1265
f 1265 1258 1257
f 199 197 212
f 197 47 212
f 289 269 288
f 288 292 289
f 289 292 51
f 289 272 269
f 385 395 386
f 385 368 367
f 386 368 385
f 1036 1026 1030
f 1030 1043 1036
f 1036 1043 1047
f 1048 1037 1036
f 1036 1047 1048
f 1146 1022 1147
f 1146 1031 1022
f 1142 1031 1146
f 1147 1143 1146
f 1146 1143 1142
f 1014 1017 1025
f 1023 1014 1025
f 1025 1017 1016
f 1025 1036 1037
f 1025 1032 1023
f 1039 1032 1025
f 1025 1038 1039
f 1025 1037 1038
f 1357 1350 1344
f 757 1343 1335
f 1343 1342 1335
f 1335 1350 757
f 1335 1342 1350
f 753 1343 757
f 757 758 753
f 753 758 754
f 753 754 1329
f 1329 1327 753
f 753 1327 1343
f 913 938 939
f 939 938 961
f 961 962 939
f 939 962 943
f 1061 1065 1062
f 1062 1065 942
f 942 941 1062
f 1062 941 963
f 918 947 919
f 919 893 918
f 920 951 921
f 920 919 947
f 893 919 920
f 947 948 920
f 920 948 949
f 949 950 920
f 950 951 920
f 1114 993 984
f 1115 993 1114
f 1114 1123 1124
f 1116 1115 1114
f 1114 1124 1116
f 1214 1204 1213
f 1213 1204 1212
f 1212 1222 1213
f 1095 1096 1085
f 1094 1106 1095
f 386 395 390
f 390 395 393
f 390 393 375
f 375 389 390
f 1314 1267 369
f 369 389 1314
f 369 1267 1275
f 369 390 389
f 1326 1287 1314
f 1314 1325 1326
f 1326 1299 1287
f 1325 1299 1326
f 1288 1276 24
f 24 25 1288
f 25 1290 1288
f 656 624 655
f 656 657 624
f 655 670 656
f 656 670 657
f 658 628 650
f 658 629 628
f 819 866 859
f 803 866 819
f 859 852 819
f 819 852 803
f 803 818 865
f 865 866 803
f 859 866 867
f 172 171 869
f 171 861 869
f 860 852 859
f 170 856 862
f 862 861 170
f 179 173 178
f 164 173 165
f 712 725 726
f 728 725 723
f 723 722 728
f 728 722 168
f 728 168 167
f 705 719 177
f 177 167 166
f 177 728 167
f 705 177 176
f 176 177 166
f 166 165 176
f 176 165 175
f 720 719 704
f 704 719 705
f 665 640 639
f 823 640 665
f 639 642 665
f 665 642 823
f 624 657 653
f 653 657 659
f 659 629 653
f 697 706 711
f 712 698 697
f 697 711 712
f 624 604 696
f 696 708 624
f 696 710 708
f 698 709 696
f 709 710 696
f 400 681 693
f 695 411 693
f 693 411 400
f 693 697 695
f 706 697 693
f 151 158 707
f 158 722 707
f 707 722 706
f 122 121 146
f 146 681 122
f 596 607 608
f 608 607 628
f 608 609 596
f 608 632 609
f 631 632 608
f 608 630 631
f 628 629 608
f 608 629 630
f 1331 1325 1332
f 1331 1299 1325
f 138 1269 1278
f 1278 1277 138
f 1269 1277 1278
f 1292 1277 1291
f 850 856 857
f 857 851 850
f 857 856 161
f 159 160 153
f 153 1279 159
f 1266 160 1270
f 160 159 1270
f 771 1308 761
f 1345 1357 1344
f 1348 1357 1345
f 1334 1321 1320
f 1348 1345 1334
f 1320 1321 1313
f 1319 1320 1313
f 1313 1312 1319
f 1308 1312 1313
f 1308 1313 1310
f 806 821 822
f 806 796 812
f 812 821 806
f 806 791 796
f 806 807 791
f 793 807 808
f 795 797 781
f 781 797 798
f 781 780 795
f 769 780 781
f 781 782 769
f 795 779 777
f 777 794 795
f 777 779 766
f 777 766 764
f 764 776 777
f 776 790 777
f 790 794 777
f 837 827 836
f 827 835 836
f 836 600 837
f 824 833 834
f 834 835 824
f 834 833 615
f 834 836 835
f 834 615 600
f 600 836 834
f 881 886 887
f 887 886 899
f 1230 956 1231
f 899 898 924
f 898 923 924
f 923 1230 924
f 1246 1239 1238
f 1238 1245 1246
f 1238 1232 1231
f 1238 1239 1232
f 1231 1237 1238
f 1237 1245 1238
f 1119 1236 1229
f 1229 1236 1080
f 899 900 1229
f 1229 887 899
f 1138 1128 1127
f 1127 1137 1138
f 1250 1259 1251
f 1259 1137 1251
f 1241 1251 1137
f 1240 1250 1241
f 1250 1251 1241
f 105 113 114
f 114 115 105
f 146 112 105
f 105 112 113
f 105 150 151
f 151 146 105
f 116 106 105
f 105 115 116
f 435 414 420
f 435 436 414
f 459 436 435
f 435 420 438
f 438 459 435
f 433 436 457
f 414 436 433
f 433 457 434
f 434 414 433
f 440 439 127
f 127 432 440
f 432 441 440
f 440 441 421
f 421 137 440
f 440 137 136
f 440 136 129
f 129 439 440
f 442 443 421
f 421 441 442
f 442 441 443
f 476 491 492
f 476 475 491
f 492 480 476
f 476 480 451
f 451 448 476
f 88 81 80
f 80 82 88
f 88 82 81
f 1303 1304 1292
f 1303 1305 1304
f 1300 1299 1298
f 1284 1297 1298
f 1298 1297 1305
f 38 36 59
f 36 58 59
f 59 58 57
f 11 12 2
f 2 10 11
f 33 34 11
f 34 12 11
f 11 32 33
f 10 32 11
f 34 58 35
f 35 12 34
f 35 58 36
f 36 12 35
f 307 305 319
f 307 320 305
f 291 306 307
f 307 306 320
f 56 67 66
f 55 67 56
f 56 329 57
f 57 34 56
f 34 55 56
f 10 30 31
f 31 32 10
f 31 52 32
f 31 30 29
f 29 52 31
f 524 538 525
f 524 513 523
f 524 525 513
f 537 538 524
f 524 536 537
f 523 1019 524
f 1019 536 524
f 547 522 93
f 93 84 547
f 93 522 535
f 535 84 93
f 417 577 588
f 577 587 588
f 588 401 417
f 588 587 401
f 577 402 581
f 581 587 577
f 581 402 401
f 401 587 581
f 1098 1086 1097
f 1086 1090 1097
f 1097 1090 1089
f 1077 1090 1086
f 1077 1086 1079
f 1079 1078 1077
f 1077 1078 1066
f 1057 1051 1053
f 1051 1042 1053
f 748 1057 1053
f 1053 1042 748
f 205 739 217
f 739 738 217
f 217 738 737
f 217 202 205
f 737 202 217
f 202 741 745
f 742 747 745
f 745 741 742
f 1123 1114 1122
f 1216 1105 1104
f 1206 1214 1216
f 1214 1213 1216
f 1207 1195 1206
f 986 1195 1207
f 1206 1216 1207
f 252 251 250
f 250 237 236
f 250 251 237
f 236 249 250
f 250 249 263
f 263 264 250
f 937 912 909
f 909 912 911
f 232 234 244
f 232 244 245
f 245 246 232
f 223 907 931
f 960 959 937
f 937 933 960
f 960 933 959
f 243 901 242
f 901 902 242
f 242 231 243
f 242 902 231
f 904 1237 926
f 904 1243 1237
f 888 901 243
f 243 258 888
f 880 276 1253
f 1253 258 880
f 880 258 276
f 266 252 265
f 265 287 266
f 252 250 265
f 265 250 264
f 265 264 283
f 285 286 265
f 286 287 265
f 265 284 285
f 283 284 265
f 357 339 356
f 356 362 357
f 374 362 356
f 374 356 355
f 355 356 339
f 282 280 279
f 279 301 282
f 278 301 279
f 260 278 279
f 279 280 260
f 281 280 282
f 281 264 263
f 282 264 281
f 263 262 281
f 262 280 281
f 364 363 374
f 223 957 224
f 224 907 223
f 230 907 229
f 64 63 71
f 64 40 63
f 19 5 18
f 18 40 19
f 20 37 15
f 20 19 40
f 15 5 20
f 5 19 20
f 350 25 349
f 349 25 24
f 24 1268 23
f 6 22 23
f 23 22 21
f 21 37 23
f 23 1268 6
f 348 368 72
f 71 70 72
f 72 64 71
f 368 64 72
f 62 70 63
f 62 63 38
f 38 59 62
f 57 329 62
f 62 59 57
f 334 348 335
f 334 347 348
f 318 305 317
f 319 305 318
f 291 271 290
f 271 270 290
f 290 306 291
f 290 270 286
f 286 305 290
f 305 306 290
f 53 52 292
f 32 52 53
f 309 65 53
f 53 292 309
f 65 54 53
f 54 32 53
f 310 295 294
f 310 49 295
f 294 50 310
f 50 49 310
f 28 214 199
f 27 214 28
f 28 7 27
f 29 7 28
f 28 49 29
f 1255 26 1262
f 1262 1263 1255
f 46 26 45
f 46 1262 26
f 199 212 48
f 48 212 47
f 48 28 199
f 48 46 45
f 47 46 48
f 45 49 48
f 49 28 48
f 294 272 293
f 272 289 293
f 293 289 51
f 293 50 294
f 293 51 50
f 1016 1026 1027
f 1026 1036 1027
f 1027 1025 1016
f 1036 1025 1027
f 1358 1357 1348
f 1348 1359 1358
f 1351 1350 1358
f 1350 1357 1358
f 1358 1352 1351
f 1358 1360 1352
f 1358 1359 1360
f 913 939 940
f 940 939 943
f 946 1062 963
f 946 941 918
f 963 941 946
f 946 918 1061
f 1061 1062 946
f 915 1068 1074
f 915 941 1068
f 917 945 941
f 917 892 916
f 917 940 943
f 941 915 917
f 1074 892 917
f 917 915 1074
f 918 941 944
f 941 945 944
f 944 947 918
f 944 948 947
f 949 948 944
f 945 917 944
f 944 943 949
f 944 917 943
f 894 893 884
f 884 883 894
f 884 896 885
f 885 881 884
f 881 883 884
f 1223 1213 1222
f 1222 1096 1223
f 1096 1095 1223
f 1223 1095 1106
f 1105 1216 1107
f 1107 1216 1213
f 1107 1094 1105
f 1107 1106 1094
f 1084 1085 1071
f 1084 1095 1085
f 1071 1070 1084
f 1094 1095 1084
f 1070 1083 1084
f 1084 1083 1094
f 381 360 380
f 868 869 861
f 868 861 859
f 859 867 868
f 868 875 876
f 867 875 868
f 172 869 868
f 852 860 854
f 854 862 856
f 854 860 859
f 859 861 854
f 861 862 854
f 173 179 174
f 175 165 174
f 174 165 173
f 156 166 157
f 156 165 166
f 157 150 156
f 156 150 149
f 156 149 155
f 155 164 156
f 164 165 156
f 720 728 721
f 721 719 720
f 728 177 721
f 721 177 719
f 705 176 691
f 691 704 705
f 691 176 175
f 839 830 829
f 829 838 839
f 675 687 684
f 684 685 675
f 590 593 591
f 838 590 589
f 589 672 838
f 590 591 589
f 589 591 672
f 685 843 840
f 838 672 840
f 840 839 838
f 841 830 840
f 830 839 840
f 620 649 686
f 686 675 620
f 687 675 686
f 670 649 648
f 620 619 648
f 648 649 620
f 727 670 714
f 727 649 670
f 684 687 699
f 652 623 624
f 624 653 652
f 652 653 623
f 654 653 629
f 654 658 650
f 629 658 654
f 650 623 654
f 623 653 654
f 683 696 604
f 683 604 595
f 595 674 683
f 695 697 683
f 683 697 698
f 698 696 683
f 683 674 682
f 683 682 695
f 694 707 706
f 706 693 694
f 694 693 681
f 151 707 694
f 694 146 151
f 694 681 146
f 680 681 121
f 121 122 680
f 680 122 681
f 1299 1331 1306
f 1306 1298 1299
f 1312 1298 1306
f 1289 1277 1276
f 1289 1291 1277
f 1276 1288 1289
f 1289 1288 1274
f 1300 1291 1289
f 1289 1274 1287
f 1287 1299 1289
f 1289 1299 1300
f 1266 851 858
f 851 857 858
f 858 857 161
f 161 160 858
f 858 160 1266
f 1266 1270 1271
f 1282 1271 1281
f 1281 1284 1273
f 1281 1297 1284
f 1273 1284 1285
f 772 771 761
f 761 763 772
f 772 763 773
f 785 771 784
f 784 772 773
f 771 772 784
f 784 775 789
f 784 773 775
f 1309 771 1273
f 1308 771 1309
f 1309 1312 1308
f 1273 771 783
f 783 771 785
f 845 784 789
f 848 849 845
f 1344 1327 1330
f 1330 1345 1344
f 1321 1334 1330
f 1330 1334 1345
f 1328 1327 1329
f 1329 754 1328
f 761 1308 1311
f 1311 1310 761
f 1308 1310 1311
f 825 813 820
f 822 826 820
f 826 825 820
f 820 808 807
f 820 806 822
f 807 806 820
f 809 813 810
f 810 793 809
f 793 808 809
f 809 820 813
f 808 820 809
f 770 760 769
f 770 762 760
f 769 763 770
f 763 762 770
f 786 798 787
f 786 781 798
f 782 781 786
f 786 787 774
f 774 782 786
f 955 923 926
f 955 1230 923
f 926 956 955
f 956 1230 955
f 1127 1128 1117
f 1128 1229 1117
f 1118 1128 1119
f 1119 1229 1118
f 1118 1229 1128
f 882 1080 881
f 882 1229 1080
f 881 887 882
f 887 1229 882
f 1231 1232 1227
f 1227 1230 1231
f 1227 924 1230
f 1227 900 899
f 899 924 1227
f 1134 1128 1136
f 1128 1138 1136
f 1135 1134 1136
f 1136 1126 1135
f 1136 1137 1126
f 1136 1138 1137
f 1242 1137 1127
f 1242 1241 1137
f 96 150 97
f 150 105 97
f 97 104 96
f 97 106 104
f 97 105 106
f 447 476 448
f 475 476 447
f 423 446 447
f 447 448 423
f 446 474 447
f 474 475 447
f 1304 1294 147
f 143 1304 147
f 144 143 147
f 147 148 144
f 1295 1294 1304
f 1295 1297 1296
f 1296 1279 1295
f 1279 1294 1295
f 1304 1305 1295
f 1305 1297 1295
f 1305 1303 1302
f 1292 1291 1302
f 1302 1303 1292
f 321 307 319
f 322 307 321
f 308 307 322
f 308 324 309
f 308 309 291
f 291 307 308
f 1102 1109 1098
f 1098 1097 1102
f 1108 1225 1102
f 1102 1101 1108
f 1218 1109 1102
f 1089 1101 1102
f 1102 1097 1089
f 1102 1225 1219
f 1219 1218 1102
f 1076 1077 1066
f 1090 1077 1076
f 1066 1075 1076
f 1076 1075 1085
f 1085 1089 1076
f 1089 1090 1076
f 746 747 202
f 202 745 746
f 746 745 747
f 1121 1122 1103
f 1123 1122 1121
f 1121 1103 1131
f 1131 1123 1121
f 1120 1111 1103
f 1103 1122 1120
f 1120 1122 1114
f 1092 1093 1083
f 1092 1083 1081
f 1103 1093 1092
f 1081 1091 1092
f 1131 1103 1092
f 1092 1091 1130
f 1092 1130 1131
f 983 1216 1224
f 1224 1216 1104
f 1215 982 986
f 986 1207 1215
f 1217 1216 983
f 983 1207 1217
f 1217 1207 1216
f 910 909 911
f 234 909 910
f 911 891 910
f 910 891 244
f 935 957 223
f 223 931 935
f 907 933 930
f 930 931 907
f 933 931 930
f 936 931 933
f 936 933 937
f 937 909 936
f 909 935 936
f 936 935 931
f 921 953 954
f 954 928 921
f 932 933 907
f 907 929 932
f 932 954 933
f 929 954 932
f 890 902 901
f 890 907 231
f 231 902 890
f 901 888 890
f 890 888 258
f 890 258 1253
f 927 903 905
f 927 954 929
f 905 928 927
f 928 954 927
f 905 904 925
f 926 898 925
f 925 904 926
f 896 921 922
f 921 928 922
f 922 925 898
f 922 928 905
f 905 925 922
f 922 897 896
f 898 897 922
f 905 903 889
f 889 904 905
f 903 890 889
f 1252 1243 889
f 1243 904 889
f 889 1253 1252
f 889 890 1253
f 365 366 345
f 374 373 365
f 365 364 374
f 317 363 344
f 363 364 344
f 364 365 344
f 344 318 317
f 344 365 345
f 907 224 225
f 225 224 227
f 225 229 907
f 957 935 934
f 227 224 226
f 234 232 226
f 226 224 957
f 957 934 226
f 350 349 351
f 351 1290 350
f 351 1288 1290
f 1274 1288 351
f 1275 1274 351
f 351 369 1275
f 390 369 371
f 369 351 371
f 371 351 370
f 371 387 386
f 371 370 387
f 42 23 37
f 370 351 42
f 42 351 349
f 42 349 24
f 24 23 42
f 348 72 73
f 73 72 70
f 335 348 336
f 336 329 335
f 366 347 346
f 347 334 346
f 345 366 346
f 346 334 345
f 47 1265 1264
f 1264 46 47
f 1264 1265 1255
f 1255 46 1264
f 1255 1263 43
f 43 46 1255
f 1263 1262 43
f 1262 46 43
f 914 917 916
f 940 917 914
f 916 892 914
f 914 892 1074
f 913 940 914
f 1074 891 914
f 914 891 913
f 895 920 921
f 895 921 896
f 896 884 895
f 893 920 895
f 895 884 893
f 1213 1223 1112
f 1112 1107 1213
f 1112 1223 1106
f 1106 1107 1112
f 380 395 384
f 384 381 380
f 367 366 384
f 373 381 384
f 384 385 367
f 395 385 384
f 360 381 361
f 866 865 874
f 874 867 866
f 874 875 867
f 875 874 879
f 841 840 872
f 872 830 841
f 877 178 172
f 172 868 877
f 877 876 178
f 877 868 876
f 853 849 852
f 852 854 853
f 853 854 849
f 856 849 855
f 855 854 856
f 849 854 855
f 175 174 679
f 679 691 175
f 679 692 690
f 690 691 679
f 602 675 594
f 594 675 672
f 672 591 594
f 594 593 602
f 594 591 593
f 601 620 618
f 620 675 618
f 602 601 618
f 618 675 602
f 685 840 676
f 676 840 672
f 676 675 685
f 672 675 676
f 670 648 669
f 671 657 669
f 657 670 669
f 669 668 671
f 647 648 619
f 713 726 725
f 713 727 714
f 712 726 713
f 714 698 713
f 713 698 712
f 684 699 700
f 690 692 700
f 700 691 690
f 704 691 700
f 1307 1331 1332
f 1307 1306 1331
f 1332 1319 1307
f 1312 1306 1307
f 1319 1312 1307
f 1272 851 1266
f 1266 1271 1272
f 1272 1271 851
f 1280 1271 1270
f 1280 159 1279
f 1280 1270 159
f 1318 1285 1284
f 1284 1298 1318
f 1318 1298 1312
f 1273 1312 1286
f 1286 1309 1273
f 1312 1309 1286
f 847 845 789
f 848 845 847
f 789 852 847
f 852 848 847
f 785 784 799
f 784 845 799
f 799 783 785
f 846 849 850
f 846 845 849
f 846 1271 1282
f 850 851 846
f 851 1271 846
f 1321 1330 1317
f 1317 1313 1321
f 1317 1310 1313
f 1355 1360 1356
f 1360 1359 1356
f 1356 1339 1355
f 1356 1347 1339
f 1340 1339 1346
f 1339 1347 1346
f 761 1310 756
f 756 763 761
f 756 762 763
f 756 755 754
f 754 760 756
f 760 762 756
f 1228 1229 900
f 900 1227 1228
f 1228 1117 1229
f 1233 1227 1232
f 1240 1241 1233
f 1233 1239 1240
f 1232 1239 1233
f 152 1294 1279
f 152 147 1294
f 148 147 152
f 153 148 152
f 152 1279 153
f 1301 1298 1305
f 1305 1302 1301
f 1300 1298 1301
f 1301 1291 1300
f 1301 1302 1291
f 324 308 323
f 66 324 323
f 323 56 66
f 325 308 322
f 56 323 325
f 325 323 308
f 1111 1120 977
f 1104 1111 977
f 977 1224 1104
f 983 1224 977
f 977 1120 1114
f 982 1215 977
f 984 985 977
f 985 982 977
f 977 1114 984
f 977 1207 983
f 977 1215 1207
f 244 234 248
f 248 910 244
f 234 910 248
f 908 909 234
f 908 935 909
f 908 934 935
f 234 226 908
f 908 226 934
f 953 933 958
f 958 954 953
f 933 954 958
f 907 890 906
f 906 929 907
f 906 927 929
f 906 890 903
f 903 927 906
f 228 225 227
f 229 225 228
f 228 227 235
f 228 235 236
f 236 237 228
f 228 237 238
f 228 238 230
f 230 229 228
f 235 227 233
f 227 226 233
f 246 247 233
f 247 235 233
f 233 232 246
f 233 226 232
f 387 370 388
f 388 368 387
f 388 61 368
f 37 61 388
f 40 64 41
f 41 20 40
f 37 20 41
f 41 61 37
f 41 64 368
f 368 61 41
f 386 390 391
f 391 371 386
f 390 371 391
f 70 62 69
f 69 73 70
f 69 62 348
f 348 73 69
f 348 62 337
f 337 336 348
f 337 62 329
f 329 336 337
f 328 334 335
f 335 329 328
f 328 329 322
f 334 328 333
f 345 334 333
f 333 344 345
f 318 344 333
f 333 326 318
f 383 384 366
f 373 384 383
f 366 365 383
f 383 365 373
f 354 339 353
f 354 355 339
f 354 373 374
f 374 355 354
f 382 381 373
f 382 361 381
f 343 338 332
f 332 342 343
f 342 359 343
f 359 360 343
f 360 361 343
f 873 865 818
f 873 874 865
f 831 818 830
f 830 879 831
f 842 879 830
f 875 879 842
f 842 871 875
f 830 872 842
f 872 871 842
f 863 843 685
f 685 871 863
f 863 871 843
f 870 871 685
f 876 875 870
f 875 871 870
f 864 872 840
f 864 871 872
f 864 840 843
f 843 871 864
f 645 668 646
f 668 669 646
f 646 619 645
f 646 647 619
f 646 669 648
f 648 647 646
f 649 727 715
f 727 716 715
f 716 702 715
f 718 713 725
f 720 704 718
f 718 728 720
f 725 728 718
f 704 700 703
f 703 700 699
f 703 718 704
f 703 702 716
f 703 699 687
f 687 702 703
f 1283 1281 1271
f 1271 1280 1283
f 1296 1297 1283
f 1297 1281 1283
f 1283 1279 1296
f 1283 1280 1279
f 1315 1318 1312
f 1285 1318 1315
f 1315 1312 1273
f 1273 1285 1315
f 845 846 844
f 1282 1281 844
f 844 846 1282
f 844 1281 1273
f 1273 783 844
f 783 799 844
f 844 799 845
f 1310 1317 1316
f 1316 1317 1330
f 1316 1330 1327
f 1327 1328 1316
f 1316 756 1310
f 755 756 1316
f 754 755 1316
f 1316 1328 754
f 1347 1356 1349
f 1348 1334 1349
f 1334 1347 1349
f 1349 1359 1348
f 1349 1356 1359
f 1332 1340 1333
f 1340 1346 1333
f 1333 1319 1332
f 1333 1320 1319
f 1333 1334 1320
f 1333 1347 1334
f 1333 1346 1347
f 1127 1117 1235
f 1117 1228 1235
f 1235 1242 1127
f 1241 1242 1235
f 68 325 322
f 56 325 68
f 322 329 68
f 329 56 68
f 37 388 60
f 60 388 370
f 60 42 37
f 370 42 60
f 326 333 327
f 319 318 327
f 318 326 327
f 327 321 319
f 322 321 327
f 327 328 322
f 327 333 328
f 352 354 353
f 352 343 361
f 353 338 352
f 338 343 352
f 373 354 372
f 372 382 373
f 361 382 372
f 372 352 361
f 354 352 372
f 832 879 874
f 874 873 832
f 832 831 879
f 832 873 818
f 818 831 832
f 692 679 689
f 689 685 684
f 684 700 689
f 689 700 692
f 673 679 174
f 701 702 687
f 701 715 702
f 687 686 701
f 649 715 701
f 701 686 649
f 718 703 717
f 727 713 717
f 713 718 717
f 717 716 727
f 717 703 716
f 1234 1228 1227
f 1234 1235 1228
f 1227 1233 1234
f 1234 1233 1241
f 1241 1235 1234
f 878 174 179
f 878 673 174
f 876 870 878
f 178 876 878
f 878 179 178
f 678 689 679
f 679 673 678
f 677 678 673
f 677 878 870
f 673 878 677
f 689 678 688
f 678 677 688
f 685 689 688
f 688 870 685
f 688 677 870

