# https://github.com/mikedh/trimesh
v -0.00090925 -0.06619008 -0.07839045
v 0.00277323 0.05150884 0.09219969
v -0.00090925 0.06584227 -0.07839045
v -0.01011925 -0.06496230 0.04696830
v 0.06521086 -0.00477488 0.04513453
v 0.06513411 0.00074371 -0.08022422
v -0.06430473 0.00995857 0.04513453
v -0.06528970 -0.00109151 -0.08022422
v 0.01014274 0.06460156 0.00456052
v 0.03536790 -0.05569573 -0.01386960
v 0.03321809 -0.04074520 0.09215805
v -0.04336195 -0.03059739 0.09087744
v 0.04301732 0.04830430 0.05066665
v -0.03040683 0.05760964 0.04513453
v 0.04478257 0.04825260 -0.03229973
v -0.04390321 0.02655771 0.09198405
v 0.05051275 0.01549504 0.09090088
v 0.04653502 -0.04672642 -0.07839045
v 0.04468023 0.04632692 -0.08575633
v -0.04720229 0.04511206 -0.08022422
v -0.04656271 -0.04673935 -0.08022422
v 0.03843790 -0.05344694 0.04513453
v -0.05150028 -0.04058749 0.04513453
v -0.00828631 -0.05374347 0.08869173
v 0.00830074 0.06469203 0.04513453
v 0.04163582 0.05081157 0.00087758
v 0.05337157 -0.01640663 0.08385468
v 0.03329369 0.04414095 0.08492219
v 0.04643269 -0.04659719 0.01562476
v -0.05285620 0.03768071 0.04328535
v -0.05461721 -0.00293888 0.08754071
v 0.06056748 0.02457570 0.04706076
v 0.02138662 -0.05290413 -0.09252124
v -0.02118404 0.05052724 -0.09313764
v 0.05070511 -0.02136939 -0.09207436
v -0.02118404 -0.05087505 -0.09265993
v -0.02614447 0.04793865 0.08689196
v 0.05733119 -0.03179912 0.04513453
v -0.05068162 -0.02136939 -0.09284485
v 0.01936553 0.05395212 -0.09244419
v -0.05437841 0.02102158 -0.09148878
v -0.06261624 -0.01654871 0.04952633
v 0.05331461 0.02153854 -0.09216681
v 0.01570712 -0.06314000 0.05071288
v -0.03274770 -0.05709153 0.04513453
v 0.02846041 0.05919930 -0.01570337
v 0.01383711 -0.05445741 0.08385489
v -0.03144613 -0.04634901 0.08302842
v -0.01196125 0.06321869 0.05066665
v -0.02039096 0.06254663 -0.07717308
v 0.02816620 0.05905713 0.04328535
v -0.02041654 -0.06290737 -0.07839045
v 0.05648693 0.03393273 -0.07839045
v 0.06252460 -0.01798328 -0.07839045
v 0.03595632 -0.04164726 -0.09253666
v -0.05748678 -0.03216099 -0.07839045
v 0.01752353 -0.06387667 -0.07839045
v -0.00275125 0.05605875 -0.09289107
v -0.00459325 -0.05640656 -0.09253666
v 0.03241303 0.05737700 -0.08013176
v 0.04613243 0.03120625 0.08481602
v -0.03593283 0.04129945 -0.09293731
v -0.04147162 -0.03611576 -0.09276779
v 0.03303982 -0.05723369 -0.08022422
v 0.04817235 -0.04467149 0.03222112
v 0.04610091 -0.03151901 0.08477062
v -0.05437841 0.00257892 -0.09244419
v -0.05710304 0.03108943 -0.07839045
v 0.05255777 -0.00109372 0.09126244
v -0.06301279 0.01549008 -0.07839045
v 0.01835310 0.05142082 0.08654044
v -0.05278647 0.01365198 0.08754071
v -0.03348962 0.05532208 -0.08342946
v 0.01568153 0.06386489 -0.08022422
v 0.05562990 -0.03390574 -0.08207339
v 0.06313860 0.01733822 -0.08022422
v -0.06311511 -0.01768603 -0.08207339
v -0.03405245 -0.05581205 -0.08378388
v 0.05554036 0.00442707 -0.09227469
v -0.05972532 0.02470494 0.04881747
v -0.01156551 0.05339430 0.08678061
v 0.04169978 0.05087619 -0.01753714
v -0.05112382 -0.01763133 0.08929704
v 0.06430265 0.00991980 0.04872502
v -0.04323687 0.04853693 0.04696830
v 0.03043032 0.05828169 -0.03045055
v 0.06272928 -0.01873288 0.04143618
v 0.05295644 0.03783580 0.04881747
v -0.04959432 0.03459186 -0.09024059
v 0.00830074 -0.06161496 -0.08911567
v 0.03227232 0.04499574 -0.09265993
v -0.03410438 0.03767248 0.09249088
v 0.05896852 -0.00911736 -0.09034845
v 0.04528144 0.03399735 -0.09244419
v -0.05719258 -0.02975711 0.05169911
v 0.04783978 -0.04430962 0.04941846
v -0.06433032 -0.00305597 0.05052796
v 0.03202928 -0.05771189 -0.02676761
v -0.02105445 -0.04907039 0.09076694
v -0.04190654 -0.04953095 0.05066665
v 0.03043032 0.05816538 -0.00280536
v 0.00277474 -0.06503984 0.05066665
v 0.02614115 -0.05013085 0.08327800
v -0.05806241 -0.01030638 -0.09144256
v -0.01439167 0.06056925 -0.08840682
v 0.04702111 -0.03428054 -0.09144256
v 0.02766732 -0.05917231 0.04975748
v -0.03224883 -0.04534355 -0.09261370
v 0.00830074 0.06047878 -0.09020977
v -0.02238646 -0.06111092 0.05006567
v -0.05804962 -0.03058425 0.03960241
v -0.05258757 -0.03250994 -0.08951633
v 0.01936553 0.06161610 0.05066665
v -0.01481379 -0.06103338 -0.08854551
v 0.03780782 0.03577918 0.09157315
v 0.03288632 -0.05715615 -0.00280536
v 0.00462189 -0.05373679 0.09042100
v -0.06086378 0.01105712 -0.08856092
v 0.02490213 0.04448298 0.09230170
v -0.03577051 -0.03970163 0.09065568
v 0.01106374 0.06435601 0.03476373
v 0.03907749 -0.05021593 -0.08698912
v -0.00090925 0.06457572 0.05051256
v 0.04702798 -0.02322088 0.09126026
v 0.03894872 -0.04094423 0.08334762
v -0.01750234 0.04684072 0.09260579
v 0.06072098 -0.02189927 0.05112895
v 0.06004302 0.01349977 -0.08917731
f 14 73 85
f 99 11 12
f 7 70 8
f 85 73 20
f 53 32 76
f 84 69 5
f 76 32 84
f 17 115 69
f 69 84 17
f 17 84 32
f 36 63 34
f 73 14 50
f 126 81 37
f 37 14 85
f 83 16 31
f 12 16 83
f 69 11 124
f 11 66 124
f 125 66 11
f 126 11 119
f 115 28 119
f 119 28 71
f 119 11 69
f 69 115 119
f 8 70 118
f 62 73 34
f 62 67 41
f 30 16 85
f 85 20 30
f 31 16 72
f 87 54 5
f 5 127 87
f 38 127 66
f 38 87 127
f 54 87 38
f 32 53 88
f 13 88 15
f 15 88 53
f 123 71 113
f 71 28 113
f 74 109 3
f 60 109 74
f 54 93 6
f 5 54 6
f 6 84 5
f 76 84 6
f 128 93 79
f 76 6 128
f 128 6 93
f 128 53 76
f 75 93 54
f 106 93 75
f 54 38 75
f 75 38 18
f 75 18 122
f 122 106 75
f 79 93 35
f 35 93 106
f 63 36 108
f 4 102 24
f 22 125 103
f 103 125 11
f 49 81 123
f 49 50 14
f 14 37 49
f 49 37 81
f 49 123 3
f 3 50 49
f 2 71 123
f 123 81 2
f 2 119 71
f 2 81 126
f 126 119 2
f 73 50 105
f 34 73 105
f 3 109 105
f 105 50 3
f 99 12 120
f 78 45 21
f 21 45 100
f 85 16 92
f 92 37 85
f 126 37 92
f 92 11 126
f 92 12 11
f 92 16 12
f 66 127 27
f 27 124 66
f 69 124 27
f 5 69 27
f 27 127 5
f 68 118 70
f 68 30 20
f 104 118 41
f 41 67 104
f 8 118 104
f 104 77 8
f 89 62 41
f 89 68 20
f 89 20 73
f 73 62 89
f 41 118 89
f 118 68 89
f 67 62 39
f 39 104 67
f 34 63 39
f 39 62 34
f 7 72 80
f 30 68 80
f 16 30 80
f 80 72 16
f 70 7 80
f 80 68 70
f 18 38 65
f 61 17 32
f 32 88 61
f 115 17 61
f 61 28 115
f 13 28 61
f 61 88 13
f 60 15 19
f 19 15 53
f 53 128 19
f 34 105 58
f 58 105 109
f 60 101 26
f 13 15 26
f 123 113 25
f 25 113 121
f 3 123 25
f 60 74 46
f 55 35 106
f 55 106 122
f 79 35 55
f 55 36 34
f 22 103 107
f 117 24 102
f 117 103 11
f 117 11 99
f 99 24 117
f 122 18 64
f 33 55 122
f 36 55 33
f 90 64 57
f 122 64 90
f 90 33 122
f 52 45 78
f 1 102 4
f 1 57 102
f 4 52 1
f 1 90 57
f 99 120 48
f 48 120 100
f 100 45 48
f 42 83 31
f 8 77 42
f 78 21 112
f 112 39 63
f 112 108 78
f 63 108 112
f 77 104 112
f 104 39 112
f 22 18 29
f 29 65 22
f 18 65 29
f 22 65 96
f 96 65 38
f 96 125 22
f 66 125 96
f 96 38 66
f 40 58 109
f 40 109 60
f 60 19 40
f 94 19 43
f 43 19 128
f 79 94 43
f 43 128 79
f 82 15 60
f 60 26 82
f 82 26 15
f 121 74 9
f 9 25 121
f 9 74 3
f 3 25 9
f 86 101 60
f 60 46 86
f 86 46 101
f 51 46 74
f 121 113 51
f 51 74 121
f 101 46 51
f 13 26 51
f 51 26 101
f 51 28 13
f 51 113 28
f 47 107 103
f 103 117 47
f 47 117 102
f 10 18 22
f 10 64 18
f 98 107 57
f 57 64 98
f 36 33 59
f 33 90 59
f 110 52 4
f 45 52 110
f 110 24 99
f 4 24 110
f 99 48 110
f 110 48 45
f 12 83 95
f 83 42 95
f 97 42 31
f 31 72 97
f 97 72 7
f 97 7 8
f 8 42 97
f 91 19 94
f 91 40 19
f 58 40 91
f 34 58 91
f 91 55 34
f 91 94 79
f 79 55 91
f 44 47 102
f 107 47 44
f 102 57 44
f 57 107 44
f 22 107 116
f 107 98 116
f 116 10 22
f 64 10 116
f 116 98 64
f 114 59 90
f 90 1 114
f 114 1 52
f 114 52 78
f 36 59 114
f 78 108 114
f 114 108 36
f 12 95 23
f 23 120 12
f 100 120 23
f 23 21 100
f 21 23 56
f 56 112 21
f 77 112 56
f 111 23 95
f 111 56 23
f 111 95 42
f 111 42 77
f 77 56 111

