# https://github.com/mikedh/trimesh
v 0.00053645 -0.02159502 0.05769849
v 0.00151488 -0.02143021 0.05853646
v -0.00031864 -0.02155276 0.05834896
v 0.00005141 0.02138570 0.05449356
v 0.00258949 -0.02142598 0.05645655
v 0.00504603 -0.02092311 0.05716969
v -0.00031864 -0.02153586 0.05845957
v 0.00362228 -0.02107102 0.05863443
v 0.00270029 -0.02097382 0.05920536
v 0.00026466 -0.02133724 0.05901101
v -0.00031864 0.02127583 0.05587929
v 0.00035247 0.02127583 0.05548585
v 0.00114274 0.02122935 0.05506239
v 0.00523419 -0.02071182 0.05861968
v 0.00099848 -0.02097382 0.05942552
v 0.00529482 -0.02032305 0.05927067
v 0.00299717 -0.02040756 0.05963356
v -0.00031864 -0.02133724 0.05899574
v 0.00102985 0.02092931 0.05702906
v 0.00226752 0.02082367 0.05679153
v 0.00761337 -0.01998921 0.05781331
v 0.00736877 -0.01985821 0.05884985
v 0.00096922 -0.02044982 0.05972995
v 0.00836184 -0.01897079 0.05940972
v 0.00571086 -0.01957085 0.05966727
v 0.00488505 -0.01919053 0.05982739
v 0.00083541 0.02057012 0.05801609
v 0.00297417 0.02041377 0.05788705
v 0.00485578 0.02023628 0.05722868
v 0.00907266 -0.01941450 0.05663931
v 0.00991102 -0.01890740 0.05794656
v 0.00918347 -0.01908911 0.05877716
v 0.00145843 -0.01969763 0.05984740
v 0.01064276 -0.01799463 0.05915322
v 0.01035216 -0.01748330 0.05961092
v 0.00780154 -0.01834114 0.05977841
v 0.00858554 -0.01700579 0.05986900
v 0.00529273 -0.01846369 0.05987426
v -0.00031864 0.02031234 0.05828470
v 0.00096713 0.02009260 0.05848063
v 0.00410522 0.01988131 0.05835580
v 0.00588439 0.01980102 0.05786861
v 0.00659104 0.01980947 0.05697956
v 0.01057586 -0.01859469 0.05677836
v 0.01148530 -0.01786363 0.05835054
v -0.00021411 -0.01846369 0.05982581
v 0.01306794 -0.01630008 0.05900259
v 0.01224003 -0.01646911 0.05944922
v 0.01286933 -0.01517179 0.05972416
v 0.01098563 -0.01624937 0.05980000
v 0.01059258 -0.01579721 0.05984108
v 0.01299477 -0.01215878 0.05978420
v 0.01252018 -0.00312823 0.05966359
v -0.00031864 0.01999118 0.05850433
v 0.00095249 0.01942915 0.05876031
v 0.00413031 0.01934886 0.05869184
v 0.00699454 0.01898544 0.05851856
v 0.00731023 0.01919251 0.05818621
v 0.00874025 0.01892205 0.05738248
v 0.00855418 0.01909531 0.05660402
v 0.01298013 -0.01682408 0.05794182
v 0.01404219 -0.01578030 0.05839425
v 0.01531960 -0.01405617 0.05900153
v 0.01405683 -0.01489288 0.05938338
v 0.01441433 -0.01400123 0.05960828
v 0.01509171 -0.01272504 0.05970256
v 0.01429098 -0.01269546 0.05977156
v 0.01500808 -0.01077694 0.05975154
v 0.01776777 -0.00644971 0.05963725
v 0.01678725 0.00212868 0.05948082
v 0.01522970 0.01041550 0.05921537
v 0.01052777 0.01493289 0.05907790
v 0.00004305 0.01831776 0.05885933
v -0.00031864 0.01955170 0.05868973
v 0.00445228 0.01845299 0.05889514
v 0.00584467 0.01880373 0.05878085
v 0.00876534 0.01807266 0.05867603
v 0.00890123 0.01860512 0.05806929
v 0.01083928 0.01767544 0.05798343
v 0.01143931 0.01746838 0.05742514
v 0.01006155 0.01835157 0.05649815
v 0.01533214 -0.01455059 0.05794340
v 0.01654682 -0.01287717 0.05853646
v 0.01737054 -0.01121220 0.05905684
v 0.01616214 -0.01230246 0.05943869
v 0.01679143 -0.01038394 0.05963462
v 0.01739772 -0.00846965 0.05965885
v 0.01885492 -0.00560455 0.05950084
v 0.01933160 0.00137649 0.05942710
v 0.01858314 0.00305414 0.05941288
v 0.01697332 0.00809130 0.05927594
v 0.01648828 0.01017463 0.05917534
v 0.01330000 0.01392292 0.05907422
v 0.00980858 0.01647954 0.05901049
v 0.00815068 0.01781489 0.05887565
v 0.01093336 0.01647954 0.05888724
v 0.01067203 0.01729512 0.05854594
v 0.01249928 0.01628937 0.05839583
v 0.01360942 0.01574847 0.05794182
v 0.01266235 0.01664011 0.05639018
v 0.01670780 -0.01291520 0.05757472
v 0.01788485 -0.01100936 0.05826627
v 0.01859777 -0.00921762 0.05888619
v 0.01780749 -0.00958526 0.05943764
v 0.01839288 -0.00750194 0.05951558
v 0.01944449 -0.00502561 0.05931070
v 0.01945704 -0.00398607 0.05939497
v 0.01993998 -0.00111251 0.05931913
v 0.02003406 0.00022707 0.05929332
v 0.01984172 0.00203994 0.05929596
v 0.01915807 0.00434301 0.05929016
v 0.01769251 0.00806595 0.05921590
v 0.01758588 0.00983233 0.05895097
v 0.01651964 0.01119727 0.05899468
v 0.01523597 0.01288337 0.05894939
v 0.01346308 0.01448495 0.05896783
v 0.01324356 0.01522870 0.05876083
v 0.01408401 0.01503431 0.05839215
v 0.01542204 0.01407505 0.05789284
v 0.01404847 0.01550337 0.05665774
v 0.01854968 -0.00984304 0.05815777
v 0.01967447 -0.00684271 0.05841321
v 0.01986263 -0.00552003 0.05883984
v 0.01887792 -0.00755687 0.05924855
v 0.02004243 -0.00300145 0.05913005
v 0.01976437 -0.00327613 0.05930333
v 0.02030585 -0.00005606 0.05912057
v 0.02043965 0.00203994 0.05891147
v 0.02009887 0.00391197 0.05895466
v 0.01900336 0.00657846 0.05907685
v 0.01820891 0.00974359 0.05854541
v 0.01658027 0.01227485 0.05845746
v 0.01896573 0.00799411 0.05868973
v 0.01500181 0.01399898 0.05853593
v 0.01671407 0.01263405 0.05762739
v 0.01604088 0.01350034 0.05690951
v 0.01982708 -0.00683004 0.05771482
v 0.02043547 -0.00456923 0.05766426
v 0.02056300 -0.00336487 0.05816777
v 0.02061318 -0.00150129 0.05868394
v 0.02073862 0.00250055 0.05802293
v 0.02042711 0.00444020 0.05833737
v 0.02074489 0.00074262 0.05842270
v 0.01978527 0.00652775 0.05845693
v 0.01936923 0.00810398 0.05794604
v 0.01780332 0.01101134 0.05791654
v 0.01788903 0.01099866 0.05686158
v 0.02080552 -0.00173371 0.05787915
v 0.02042920 0.00522620 0.05714072
v 0.02015323 0.00628265 0.05759315
v 0.01877757 0.00943933 0.05756260
v -0.02144202 0.00141356 0.05726657
v -0.02151918 -0.00034159 0.05742541
v -0.02125431 0.00006442 0.05822118
v -0.02115211 0.00184918 0.05809094
v -0.02116254 0.00335480 0.05726551
v -0.02111874 0.00392153 0.05585345
v -0.02142116 -0.00268884 0.05717233
v -0.02133356 -0.00244777 0.05795116
v -0.02083092 0.00039430 0.05868446
v -0.02094563 -0.00309908 0.05858492
v -0.02093103 -0.00188105 0.05865958
v -0.02060150 0.00324061 0.05849333
v -0.02070787 0.00410339 0.05808882
v -0.02042422 0.00586700 0.05769649
v -0.02081841 0.00517339 0.05641467
v -0.02096649 -0.00548440 0.05714109
v -0.02093729 -0.00465123 0.05822013
v -0.02026572 0.00221713 0.05884648
v -0.02036791 -0.00062495 0.05897884
v -0.02042422 -0.00343320 0.05898519
v -0.01985067 -0.00735374 0.05883271
v -0.01981939 -0.00610610 0.05907203
v -0.01960665 0.00592198 0.05861881
v -0.01961499 0.00694123 0.05833131
v -0.01977142 0.00786322 0.05745400
v -0.02020523 0.00704697 0.05650945
v -0.02039085 -0.00750177 0.05683295
v -0.02058482 -0.00628796 0.05814124
v -0.01928964 0.00287266 0.05902702
v -0.01938766 0.00490695 0.05886395
v -0.01986110 -0.00409297 0.05918533
v -0.01956494 -0.00017665 0.05912920
v -0.01952740 -0.00877055 0.05861193
v -0.01864726 -0.00992092 0.05898996
v -0.01892048 -0.00881707 0.05913132
v -0.01925835 -0.00599191 0.05928963
v -0.01831981 0.00768982 0.05880359
v -0.01850543 0.00862026 0.05858333
v -0.01894550 0.00885710 0.05812906
v -0.01811542 0.01090830 0.05772614
v -0.01853255 0.01051075 0.05646127
v -0.01944606 -0.00979827 0.05703732
v -0.01995704 -0.00833916 0.05797816
v -0.01818842 0.00357895 0.05907150
v -0.01806536 0.00639143 0.05895819
v -0.01880368 -0.00499380 0.05932352
v -0.01905396 -0.01021274 0.05822648
v -0.01787557 -0.01154496 0.05892272
v -0.01796942 -0.01057223 0.05921551
v -0.01689949 -0.00785280 0.05942782
v -0.01348321 -0.01570235 0.05947759
v -0.01659290 0.01055304 0.05881789
v -0.01690992 0.01111554 0.05861828
v -0.01748347 0.01106056 0.05834296
v -0.01647402 0.01278610 0.05816136
v -0.01708094 0.01261270 0.05744077
v -0.01755438 0.01209673 0.05640673
v -0.01830104 -0.01182409 0.05744500
v -0.01653867 0.00625609 0.05902331
v -0.01592758 0.01056150 0.05888089
v -0.01818842 -0.00345434 0.05929757
v -0.01797359 -0.01207362 0.05835249
v -0.01662001 -0.01311826 0.05909638
v -0.01627380 -0.01301675 0.05929016
v -0.00905956 -0.01741098 0.05970526
v -0.00751619 -0.01772817 0.05973544
v -0.00550354 -0.01792272 0.05976403
v -0.01356038 -0.01623524 0.05920068
v -0.01281372 -0.01631136 0.05947018
v -0.01040689 -0.01755900 0.05959672
v -0.01563768 -0.01415866 0.05918957
v -0.01401922 0.01354315 0.05878559
v -0.01559596 0.01274804 0.05864793
v -0.01480551 0.01447359 0.05829531
v -0.01595052 0.01380536 0.05779762
v -0.01547291 0.01453703 0.05740212
v -0.01795899 -0.01242888 0.05679535
v -0.01692660 -0.01381186 0.05735128
v -0.01365215 0.01203329 0.05889519
v -0.01711431 -0.01321130 0.05839379
v -0.01537697 -0.01483957 0.05895819
v -0.00828996 -0.01854865 0.05966767
v -0.00510310 -0.01924649 0.05975661
v -0.00140109 -0.01967787 0.05981538
v -0.00031864 0.01838567 0.05884754
v -0.00827328 0.01633870 0.05882000
v -0.01404633 -0.01636212 0.05867017
v -0.01179801 -0.01759284 0.05921551
v -0.00971028 -0.01872206 0.05932828
v -0.00761838 -0.01935645 0.05952524
v -0.01105761 0.01526024 0.05881418
v -0.01061128 0.01663898 0.05870087
v -0.01342481 0.01490075 0.05865693
v -0.01260933 0.01605957 0.05848433
v -0.01388365 0.01570854 0.05798134
v -0.01425698 0.01566625 0.05757207
v -0.01469079 -0.01611259 0.05755407
v -0.01580244 -0.01486072 0.05830272
v -0.00518235 -0.02019385 0.05953212
v -0.00205598 -0.02033341 0.05971584
v -0.00031864 -0.02002045 0.05978097
v -0.00362438 0.01899469 0.05873900
v -0.00775604 0.01772591 0.05874376
v -0.01258847 -0.01764359 0.05844674
v -0.01057791 -0.01880241 0.05876123
v -0.00844221 -0.01983436 0.05881736
v -0.00683210 -0.02018539 0.05918797
v -0.00637117 0.01882975 0.05862675
v -0.00792914 0.01856330 0.05852351
v -0.01013992 0.01763709 0.05845415
v -0.01202952 0.01694349 0.05815924
v -0.01272404 0.01687159 0.05762872
v -0.01298265 -0.01760975 0.05644750
v -0.00459629 -0.02083247 0.05917739
v -0.00249813 -0.02088322 0.05944318
v -0.00031864 -0.02040108 0.05972432
v -0.00282558 0.01978980 0.05855157
v -0.01149976 -0.01855711 0.05776532
v -0.00958514 -0.01952562 0.05832496
v -0.00734517 -0.02048567 0.05815871
v -0.00687798 -0.02044337 0.05882424
v -0.00555777 0.01959525 0.05837526
v -0.00774144 0.01916809 0.05816083
v -0.00983334 0.01848295 0.05787227
v -0.01060919 0.01827994 0.05750271
v -0.00347004 -0.02130615 0.05863946
v -0.00208309 -0.02133575 0.05894919
v -0.00075662 -0.02101433 0.05941882
v -0.00129889 0.02047917 0.05813594
v -0.00379540 0.02027616 0.05807135
v -0.00681750 -0.02076057 0.05637338
v -0.00544306 -0.02105662 0.05798876
v -0.00567874 0.01991668 0.05807347
v -0.00786032 0.01951066 0.05765784
v -0.00883223 0.01926959 0.05725333
v -0.00383503 -0.02143303 0.05716598
v -0.00207683 -0.02160220 0.05740317
v -0.00045629 -0.02154299 0.05845362
v -0.00031864 -0.02150492 0.05856004
v -0.00031864 0.02052146 0.05808088
v -0.00197464 0.02093170 0.05730734
v -0.00293612 0.02132080 0.05649833
v -0.00631277 0.02005624 0.05747465
v -0.00514481 0.02085981 0.05561307
v -0.00031864 0.02119392 0.05634638
v -0.00074620 0.02127428 0.05612983
v 0.00969065 -0.01985610 0.04061668
v 0.01551121 -0.01592434 0.04082321
v 0.01502119 -0.01630230 0.04071723
v 0.01186119 -0.01850952 0.04068462
v 0.01179994 -0.01890395 0.04080962
v 0.01035344 -0.01995092 0.04102159
v 0.00893363 -0.02065352 0.04104061
v 0.00667514 -0.02145225 0.04102974
v 0.00732850 -0.02085172 0.04076750
v 0.00423290 -0.02184273 0.04076886
v 0.01406785 -0.01747769 0.04102159
v 0.01296845 -0.01839429 0.04118871
v 0.01148896 -0.01945114 0.04148084
v 0.00787506 -0.02117701 0.04174308
v 0.00644113 -0.02165046 0.04144144
v 0.00392977 -0.02222596 0.04122132
v 0.00182677 -0.02226350 0.04092240
v -0.00031864 -0.02227337 0.04075663
v 0.01448720 -0.01721693 0.04178656
v 0.01327471 -0.01817896 0.04199173
v 0.00743844 -0.02057055 0.05219592
v 0.00919121 -0.02053960 0.04235724
v 0.01303912 -0.01750534 0.05135893
v 0.00646626 -0.02097420 0.05259947
v 0.00566055 -0.02189936 0.04194690
v 0.00266546 -0.02252096 0.04167786
v 0.00027347 -0.02264278 0.04132731
v -0.00031864 -0.02265134 0.04128654
v 0.01464582 -0.01594936 0.05253696
v 0.01363908 -0.01687386 0.05324351
v 0.00618198 -0.02092613 0.05398810
v 0.00419520 -0.02206266 0.04400268
v -0.00001866 -0.02198299 0.05225570
v 0.00038341 -0.02261644 0.04219147
v -0.00675108 0.02041372 0.04907983
v -0.01076643 0.01847019 0.04285344
v -0.00660799 0.02041624 0.04206120
v -0.00826434 0.01979219 0.04286958
v -0.01000440 0.01890412 0.03992070
v -0.01165266 0.01799458 0.04034029
v -0.00660799 0.02040993 0.04168416
v -0.00771965 0.01996968 0.04091099
v -0.00716551 0.02007579 0.04019211
v -0.00845738 0.01925594 0.03968449
v -0.01024468 0.01856241 0.03957593
v -0.01284801 0.01710587 0.04026987
v -0.01339271 0.01675342 0.04168269
v -0.00660799 0.02036887 0.04128364
v -0.01350340 0.01666499 0.04178392
v -0.00660799 0.02024191 0.04018331
v -0.00969324 0.01799268 0.03943069
v -0.01199959 0.01736168 0.03970797
v -0.01350340 0.01651024 0.04010995
v -0.01350340 0.01656078 0.04026987
v -0.01350340 0.01665552 0.04160053
v -0.02156905 0.00008519 0.03994575
v -0.02119837 0.00185155 0.03982152
v -0.02202602 -0.00013032 0.04028955
v -0.02174911 0.00188827 0.04005264
v -0.02119309 0.00388131 0.03997319
v -0.01993003 0.00711632 0.03982874
v -0.02217571 0.00100309 0.04064491
v -0.02192653 0.00289477 0.04100604
v -0.02159591 0.00385098 0.04084859
v -0.02230074 0.00039169 0.04153185
v -0.02216778 0.00182282 0.04145674
v -0.02180018 0.00327231 0.04277850
v -0.02119881 0.00523183 0.04225991
v -0.02063090 0.00677869 0.04127761
v -0.02173722 0.00110526 0.05295963
v -0.02023292 0.00786262 0.04315118
v 0.02041771 -0.00833296 0.04132134
v 0.01989795 -0.00955385 0.04226488
v 0.02007706 -0.00924918 0.04121529
v 0.01907856 -0.00972030 0.05294948
v 0.01942507 -0.01059417 0.04236542
v 0.01942256 -0.01067963 0.04119600
v 0.01940582 -0.00995437 0.04062299
v 0.01871699 -0.01081264 0.05059548
v 0.01827507 -0.01271569 0.04159132
v 0.01826252 -0.01259754 0.04087231
v 0.01796874 -0.01269191 0.04057754
v 0.01955480 -0.00833296 0.04042189
v 0.01722468 -0.01430218 0.04124834
v 0.01609895 -0.01547031 0.04095082
v 0.01642286 -0.01445674 0.04057479
v 0.01701125 -0.01323733 0.04043154
v 0.01530969 -0.01592434 0.04068774
v 0.01623203 -0.01539600 0.04191639
v 0.01551224 -0.01592434 0.04082410
v 0.01572650 -0.01592434 0.04187920
v 0.01568047 -0.01592434 0.04116845
v 0.01564029 -0.01592434 0.04096735
v 0.01219928 0.01747577 0.04136306
v 0.00983318 0.01868726 0.05168182
v 0.01198363 0.01765032 0.04068322
v 0.01219928 0.01749158 0.04073807
v 0.00909799 0.01914560 0.05090961
v 0.01040908 0.01861304 0.04189422
v 0.01219928 0.01746203 0.04062549
v 0.01219928 0.01735414 0.04024443
v 0.01174101 0.01772178 0.04025309
v 0.00935408 0.01903084 0.04028917
v 0.00836892 0.01961081 0.04078137
v 0.00183548 0.02139403 0.05311366
v 0.00633243 0.02031448 0.04285696
v 0.01219928 0.01703324 0.03987348
v 0.01216498 0.01705316 0.03986626
v 0.01059778 0.01819112 0.03997019
v 0.00668532 0.01994959 0.03991967
v 0.00638757 0.02023545 0.04018958
v 0.00613147 0.02041206 0.04107438
v 0.00082459 0.02155482 0.05172512
v -0.00031864 0.02166615 0.05153171
v 0.00475543 0.02077970 0.04055909
v 0.00311350 0.02113702 0.04056919
v 0.01219928 0.01702499 0.03986771
v 0.01088819 0.01758710 0.03957614
v 0.00609349 0.01987606 0.03974069
v 0.00378007 0.02064020 0.03977822
v 0.00340635 0.02097829 0.04012607
v -0.00031864 0.02030692 0.03951552
v 0.00179995 0.02131500 0.04081745
v 0.00032588 0.02138234 0.04103685
v 0.00069838 0.02124422 0.03993555
v 0.00166149 0.02019972 0.03955449
v 0.00120199 0.02096798 0.03962666
v 0.00378252 0.02012688 0.03962233
v -0.00031864 0.02100784 0.03969883
v 0.02095910 -0.00156916 0.04012707
v 0.02075552 -0.00326448 0.04021848
v 0.02074524 -0.00593118 0.04042239
v 0.02131565 -0.00018684 0.04037176
v 0.02124145 -0.00381705 0.04050114
v 0.02121786 -0.00531128 0.04099474
v 0.02042865 -0.00742453 0.04057708
v 0.02153255 0.00059131 0.04084146
v 0.02149868 -0.00231408 0.04068958
v 0.02159800 -0.00194512 0.04151366
v 0.02140964 -0.00347781 0.04295227
v 0.02134952 -0.00213485 0.04911456
v 0.02110370 -0.00555609 0.04234195
v 0.02060559 -0.00782672 0.04137865
v 0.02153445 0.00059918 0.04090193
v 0.02120111 -0.00100959 0.05262322
v 0.02126808 -0.00208414 0.05066287
v 0.02112234 -0.00217594 0.05305494
v 0.02097965 -0.00358798 0.05117054
v 0.02039821 -0.00833296 0.04163881
v 0.02123955 -0.00034859 0.05093850
v 0.02083291 0.00149275 0.04015766
v 0.02002860 0.00349796 0.04008715
v 0.02044936 0.00380031 0.04019715
v 0.02118315 0.00247063 0.04046367
v 0.02127639 0.00059918 0.04039880
v 0.02077453 0.00436568 0.04068507
v 0.02130773 0.00306522 0.04125196
v 0.02007365 0.00681824 0.04187808
v 0.02068795 0.00551665 0.04275098
v 0.02155455 0.00069472 0.04163412
v 0.02045328 0.00700370 0.05287467
v 0.01815906 0.01085338 0.04217140
v 0.01918746 0.00947311 0.04321493
v 0.01986836 0.00793437 0.04360273
v 0.02002821 0.00768259 0.05328926
v 0.01840000 0.01079493 0.04382413
v 0.01755377 0.01208191 0.04270162
v 0.01788874 0.01158847 0.04304148
v -0.02064794 -0.00865590 0.04242192
v -0.01988550 -0.01021080 0.04301959
v -0.01822994 -0.01329904 0.04146956
v -0.01758840 -0.01421999 0.04288274
v -0.01682386 -0.01439650 0.05344112
v -0.01871074 -0.01094378 0.04020859
v -0.02033346 -0.00934307 0.04089423
v -0.01922160 -0.01147735 0.04235350
v -0.01933411 -0.01134194 0.04093752
v -0.01774704 -0.01377939 0.04088864
v -0.01737106 -0.01439650 0.04126987
v -0.01962833 -0.00999993 0.04029376
v -0.02040334 -0.00751465 0.04021557
v -0.01775472 -0.01294939 0.04039571
v -0.01841793 -0.01237135 0.04046553
v -0.02078211 -0.00781175 0.04058422
v -0.01975482 -0.01028490 0.04057305
v -0.01724387 -0.01439650 0.04088864
v -0.00189919 -0.02199452 0.05345016
v -0.00031864 -0.02198503 0.05244528
v -0.00534050 -0.02213028 0.04161690
v -0.00262273 -0.02254405 0.04207280
v -0.00185704 -0.02211089 0.05138106
v -0.00031864 -0.02259836 0.04255299
v -0.00716301 -0.02159454 0.04139030
v -0.00666036 -0.02163204 0.04100453
v -0.00381771 -0.02234579 0.04121495
v -0.00175401 -0.02267206 0.04118932
v -0.00135127 -0.02257164 0.04308577
v -0.00829242 -0.02109716 0.04130937
v -0.00829242 -0.02094587 0.04092900
v -0.00791777 -0.02076959 0.04071723
v -0.00525152 -0.02144067 0.04065923
v -0.00292011 -0.02209020 0.04079816
v -0.00057153 -0.02227467 0.04073747
v -0.00829242 -0.02062563 0.04072263
v -0.00063631 -0.02175617 0.04065384
v -0.01010602 -0.01980824 0.05312897
v -0.00974007 -0.02012486 0.05125263
v -0.01680432 -0.01442295 0.05346130
v -0.01284436 -0.01790385 0.05441862
v -0.01279682 -0.01800433 0.05372251
v -0.01037062 -0.01984063 0.05050045
v -0.00986654 -0.02046132 0.04331782
v -0.00892745 -0.02089957 0.04204322
v -0.00829242 -0.02115010 0.04180799
v -0.01574055 -0.01543232 0.05374712
v -0.01743935 -0.01439717 0.04299370
v -0.01679714 -0.01515800 0.04347646
v -0.01629486 -0.01580117 0.04198851
v -0.01347670 -0.01740941 0.05441862
v -0.01376102 -0.01729308 0.05324795
v -0.01226135 -0.01900180 0.04410692
v -0.01094286 -0.01992391 0.04213348
v -0.00985757 -0.02040712 0.04119804
v -0.01700523 -0.01499539 0.04163978
v -0.01607152 -0.01583289 0.04089033
v -0.01493780 -0.01700355 0.04112693
v -0.01468307 -0.01720119 0.04225519
v -0.01293585 -0.01856156 0.04275300
v -0.01162453 -0.01949624 0.04127873
v -0.01209452 -0.01893900 0.04065921
v -0.00837673 -0.02098484 0.04097649
v -0.01687338 -0.01457564 0.04061954
v -0.01560332 -0.01576217 0.04052108
v -0.01415926 -0.01736513 0.04068929
v -0.01349912 -0.01817817 0.04107906
v -0.01116351 -0.01905997 0.04052518
v -0.00829242 -0.02057237 0.04069476
v -0.01040470 -0.01981088 0.04075630
v -0.01189989 -0.01815107 0.04044723
v -0.02097620 -0.00567793 0.04015914
v -0.02046729 -0.00558631 0.04010676
v -0.02040368 -0.00751465 0.04021577
v -0.02131599 -0.00546367 0.04034036
v -0.02084936 -0.00751465 0.04055272
v -0.02171672 -0.00432311 0.04065749
v -0.02202603 -0.00014469 0.04029364
v -0.02124361 -0.00678025 0.04133988
v -0.02177805 -0.00428416 0.04201378
v -0.02202641 -0.00225122 0.04146022
v -0.02201498 -0.00139923 0.04064050
v -0.02098306 -0.00751465 0.04121247
v -0.02101049 -0.00751465 0.04176319
v -0.02135256 -0.00640583 0.04254044
v -0.02160168 -0.00504453 0.04381179
v -0.02209955 -0.00152042 0.04281651
v -0.02224506 -0.00014469 0.04151827
v -0.02076898 -0.00725277 0.05252009
v -0.01772744 0.01104510 0.03947994
v -0.01794948 0.01148058 0.03964810
v -0.01625673 0.01352325 0.03959400
v -0.01503811 0.01466870 0.03948433
v -0.01902247 0.00964633 0.03978848
v -0.02007129 0.00813742 0.04036169
v -0.01832369 0.01144160 0.04016429
v -0.01686212 0.01326992 0.03989230
v -0.01501786 0.01513298 0.03973876
v -0.01350340 0.01625132 0.03972268
v -0.01956190 0.00942605 0.04042750
v -0.02012419 0.00801033 0.04044797
v -0.01976043 0.00905412 0.04150228
v -0.01898785 0.01052745 0.04052109
v -0.01688629 0.01348512 0.04035585
v -0.01531436 0.01505249 0.04027104
v -0.02016011 0.00801033 0.04139992
v -0.02017513 0.00801033 0.04294847
v -0.01982639 0.00838396 0.05293733
v -0.01915700 0.00982425 0.05306600
v -0.01556971 0.01487203 0.04112208
v -0.01678441 0.01321401 0.05198099
v -0.01503680 0.01539054 0.05229246
v -0.01489574 0.01563115 0.04891605
v -0.01433998 0.01599461 0.04255804
v -0.01454504 0.01595564 0.04921436
v 0.01659357 0.01345744 0.05234405
v 0.01592741 0.01415080 0.05257596
v 0.01663078 0.01343940 0.04176703
v 0.01579690 0.01439015 0.04058123
v 0.01238063 0.01732882 0.04193545
v 0.01755325 0.01187888 0.04201137
v 0.01494257 0.01527251 0.04099812
v 0.01360552 0.01645596 0.04110304
v 0.01612867 0.01366735 0.04034931
v 0.01550024 0.01402257 0.03996555
v 0.01465168 0.01497902 0.03996141
v 0.01371926 0.01613303 0.04021541
v 0.01480315 0.01400643 0.03982474
v -0.00562789 0.02072692 0.05441862
v -0.00031864 0.02165316 0.05178181
v -0.00087702 0.02172029 0.05143708
v -0.00290739 0.02137630 0.04982836
v -0.00542042 0.02084172 0.05062985
v -0.00600220 0.02065460 0.05248275
v -0.00605884 0.02060625 0.05335749
v -0.00158993 0.02130779 0.04058395
v -0.00325892 0.02114710 0.04043026
v -0.00629032 0.02053565 0.04190540
v -0.00292832 0.02106328 0.03991174
v -0.00466196 0.02082050 0.04015592
v -0.00660737 0.02036905 0.04128346
v -0.00116329 0.02103058 0.03973938
v -0.00341283 0.02046609 0.03958281
v -0.00488974 0.02057391 0.03982412
v -0.00660737 0.02019827 0.04010134
v -0.00031864 0.02100832 0.03969916
v -0.00031864 0.02037844 0.03952392
v -0.00048117 0.02031583 0.03951387
v -0.00645592 0.01994820 0.03973363
f 596 602 597
f 603 597 602
f 354 555 471
f 555 536 471
f 427 555 415
f 555 348 415
f 420 413 422
f 112 92 91
f 91 92 71
f 136 581 119
f 156 152 155
f 463 581 458
f 53 71 72
f 542 355 540
f 82 386 381
f 493 486 492
f 486 282 490
f 530 471 536
f 530 522 529
f 427 415 449
f 423 419 424
f 424 415 423
f 423 415 419
f 558 348 555
f 356 357 354
f 367 152 156
f 156 363 367
f 367 363 362
f 157 363 156
f 157 364 363
f 484 287 486
f 322 311 321
f 312 311 322
f 2 323 5
f 601 602 596
f 119 581 582
f 597 603 598
f 293 297 596
f 596 597 293
f 597 598 293
f 465 581 463
f 552 158 362
f 545 158 552
f 168 158 167
f 158 168 159
f 611 422 424
f 611 607 422
f 424 426 611
f 611 426 607
f 607 426 608
f 608 426 424
f 422 607 604
f 602 601 604
f 604 601 422
f 604 608 609
f 607 608 604
f 340 341 336
f 605 603 602
f 602 604 605
f 605 604 609
f 319 311 310
f 381 386 382
f 31 319 310
f 545 550 551
f 167 158 551
f 551 158 545
f 167 551 554
f 554 551 550
f 545 542 544
f 544 550 545
f 430 431 427
f 430 435 431
f 436 435 434
f 435 430 434
f 376 377 373
f 373 377 374
f 388 382 386
f 327 317 316
f 47 45 62
f 62 327 82
f 371 433 440
f 371 373 374
f 370 373 371
f 374 375 371
f 375 433 371
f 372 370 137
f 376 373 372
f 372 373 370
f 436 437 432
f 432 435 436
f 431 435 432
f 432 439 440
f 440 433 432
f 491 492 486
f 486 490 491
f 536 498 533
f 533 530 536
f 527 530 533
f 378 375 374
f 378 379 375
f 374 377 378
f 378 377 381
f 381 382 378
f 378 382 379
f 427 428 384
f 384 555 427
f 384 536 555
f 384 298 536
f 375 379 429
f 429 433 375
f 427 431 429
f 429 428 427
f 431 432 429
f 429 432 433
f 354 471 538
f 538 537 354
f 471 537 538
f 471 480 477
f 540 355 353
f 353 537 540
f 355 356 353
f 354 537 353
f 353 356 354
f 473 193 467
f 471 530 479
f 479 480 471
f 479 530 529
f 529 480 479
f 584 589 590
f 584 582 581
f 587 582 584
f 588 582 587
f 585 100 588
f 100 582 588
f 392 393 396
f 593 415 590
f 590 449 593
f 593 449 415
f 427 449 448
f 448 430 427
f 405 414 415
f 405 415 406
f 406 399 405
f 425 415 424
f 424 416 425
f 425 416 415
f 400 399 406
f 393 399 400
f 569 563 562
f 569 562 561
f 561 562 556
f 348 558 342
f 342 558 563
f 342 608 348
f 336 341 342
f 342 341 609
f 349 343 342
f 337 343 344
f 336 342 337
f 337 342 343
f 359 356 355
f 362 363 359
f 359 547 362
f 358 555 354
f 354 357 358
f 565 561 559
f 559 561 556
f 559 556 555
f 555 358 559
f 559 358 357
f 152 367 153
f 158 159 153
f 362 158 153
f 153 367 362
f 487 486 493
f 487 484 486
f 1 323 2
f 325 324 493
f 493 314 325
f 325 314 324
f 313 323 324
f 324 314 313
f 313 314 307
f 307 305 313
f 313 305 312
f 312 322 313
f 313 322 323
f 329 322 321
f 323 322 329
f 199 214 200
f 420 422 421
f 422 601 421
f 596 420 421
f 421 601 596
f 410 413 420
f 410 402 413
f 29 28 42
f 402 29 43
f 29 42 43
f 119 582 120
f 120 582 100
f 332 335 286
f 332 598 603
f 603 606 345
f 606 340 345
f 294 293 295
f 594 286 295
f 295 293 598
f 73 53 72
f 69 68 87
f 53 68 69
f 93 116 94
f 92 116 93
f 93 71 92
f 94 72 93
f 72 71 93
f 94 116 96
f 96 116 117
f 92 112 113
f 117 116 115
f 115 116 92
f 581 465 464
f 545 552 546
f 546 542 545
f 362 547 546
f 546 547 542
f 213 214 199
f 424 419 612
f 612 608 424
f 347 606 603
f 603 605 347
f 347 340 606
f 347 605 609
f 307 298 306
f 306 305 307
f 298 305 306
f 298 302 303
f 301 298 300
f 300 302 301
f 301 302 298
f 308 302 300
f 308 390 316
f 438 437 436
f 438 432 437
f 439 432 438
f 438 445 439
f 444 438 443
f 445 438 444
f 581 136 135
f 135 146 581
f 135 136 119
f 119 132 135
f 132 146 135
f 581 146 147
f 131 146 132
f 131 113 133
f 132 113 131
f 133 145 131
f 131 145 146
f 103 124 104
f 123 124 103
f 458 145 150
f 150 149 458
f 458 149 141
f 22 14 21
f 6 329 321
f 6 5 323
f 323 329 6
f 16 14 22
f 22 24 16
f 52 68 53
f 87 68 67
f 67 66 87
f 310 45 44
f 44 31 310
f 45 31 44
f 319 31 318
f 321 311 318
f 311 319 318
f 318 21 321
f 32 31 45
f 32 24 22
f 22 21 32
f 32 21 31
f 355 542 543
f 542 547 543
f 543 359 355
f 547 359 543
f 167 554 178
f 178 554 193
f 481 542 540
f 481 544 542
f 466 554 550
f 467 193 466
f 193 554 466
f 457 438 436
f 457 141 447
f 458 141 457
f 103 104 84
f 84 104 85
f 320 45 310
f 320 327 45
f 310 317 320
f 317 327 320
f 386 82 326
f 82 327 326
f 326 388 386
f 316 388 326
f 326 327 316
f 45 327 61
f 61 62 45
f 327 62 61
f 369 371 440
f 370 371 369
f 229 228 505
f 497 491 496
f 498 491 497
f 527 532 531
f 522 530 531
f 531 530 527
f 526 532 527
f 383 384 379
f 379 384 380
f 380 429 379
f 380 384 428
f 428 429 380
f 478 537 471
f 471 477 478
f 475 480 529
f 480 475 474
f 474 475 468
f 474 468 473
f 474 473 467
f 591 584 590
f 590 415 591
f 415 414 591
f 585 588 391
f 584 591 592
f 587 584 592
f 592 588 587
f 395 60 81
f 81 392 395
f 395 43 60
f 395 392 396
f 451 448 450
f 450 448 449
f 450 449 590
f 453 451 450
f 590 589 450
f 450 589 453
f 452 448 451
f 430 448 452
f 451 434 452
f 452 434 430
f 409 408 412
f 412 402 409
f 413 402 412
f 401 408 409
f 400 408 401
f 401 395 396
f 396 393 401
f 393 400 401
f 424 422 418
f 418 422 413
f 413 412 418
f 418 412 408
f 407 400 406
f 407 408 400
f 406 415 407
f 415 416 407
f 579 346 570
f 570 563 569
f 563 558 557
f 557 562 563
f 556 562 557
f 555 556 557
f 557 558 555
f 564 342 563
f 349 342 564
f 563 343 564
f 564 343 349
f 609 608 614
f 614 342 609
f 608 342 614
f 336 337 333
f 333 335 336
f 286 335 333
f 356 359 360
f 361 357 360
f 357 356 360
f 360 359 363
f 363 364 360
f 364 365 360
f 360 366 361
f 365 366 360
f 154 153 159
f 154 155 152
f 152 153 154
f 560 357 361
f 560 559 357
f 565 559 560
f 565 560 567
f 368 365 573
f 368 366 365
f 279 15 23
f 283 277 272
f 287 277 283
f 486 287 283
f 283 282 486
f 272 277 265
f 265 277 278
f 33 26 38
f 23 26 33
f 15 279 10
f 10 290 2
f 287 484 288
f 288 277 287
f 493 489 494
f 324 323 331
f 493 324 331
f 331 489 493
f 307 314 315
f 315 500 307
f 315 314 493
f 493 500 315
f 502 298 307
f 307 500 502
f 502 500 498
f 536 298 502
f 502 498 536
f 499 500 493
f 498 500 499
f 499 491 498
f 493 492 499
f 492 491 499
f 180 183 195
f 212 210 195
f 212 201 53
f 38 53 46
f 46 33 38
f 233 234 216
f 187 200 202
f 202 201 187
f 202 216 201
f 596 297 11
f 4 402 596
f 4 12 402
f 596 11 4
f 4 11 12
f 402 12 13
f 402 410 411
f 411 420 596
f 411 410 420
f 97 96 117
f 77 96 97
f 119 120 99
f 99 120 100
f 60 43 59
f 81 60 59
f 59 42 58
f 59 43 42
f 598 332 599
f 594 295 599
f 599 295 598
f 334 332 603
f 335 332 334
f 569 208 576
f 577 576 208
f 578 569 577
f 569 576 577
f 574 567 573
f 176 574 573
f 286 333 276
f 276 333 337
f 75 72 94
f 75 73 72
f 53 73 230
f 210 212 230
f 230 212 53
f 53 69 70
f 91 71 70
f 71 53 70
f 112 111 130
f 130 113 112
f 133 113 130
f 117 115 134
f 134 115 132
f 134 132 119
f 114 113 132
f 132 115 114
f 92 113 114
f 114 115 92
f 583 584 581
f 581 464 583
f 460 464 465
f 460 465 463
f 460 583 464
f 463 458 460
f 553 552 362
f 362 546 553
f 553 546 552
f 209 228 229
f 229 213 209
f 193 473 209
f 473 468 209
f 469 228 209
f 209 468 469
f 231 213 229
f 232 214 231
f 214 213 231
f 193 209 198
f 198 209 213
f 198 213 199
f 199 184 198
f 161 159 168
f 161 154 159
f 162 154 161
f 161 172 173
f 168 172 161
f 170 180 169
f 183 180 170
f 613 612 419
f 608 612 613
f 348 608 613
f 419 415 613
f 613 415 348
f 610 347 609
f 340 347 610
f 609 341 610
f 341 340 610
f 316 390 389
f 389 390 382
f 389 388 316
f 382 388 389
f 382 390 387
f 387 299 382
f 390 308 387
f 300 299 387
f 387 308 300
f 304 305 298
f 298 303 304
f 304 311 312
f 312 305 304
f 310 311 304
f 304 303 310
f 302 308 309
f 310 303 309
f 309 303 302
f 309 317 310
f 316 317 309
f 309 308 316
f 462 458 581
f 581 147 462
f 462 147 458
f 458 147 151
f 151 147 146
f 151 145 458
f 146 145 151
f 105 104 124
f 87 66 86
f 86 105 87
f 104 105 86
f 86 66 85
f 85 104 86
f 122 123 103
f 140 123 139
f 125 123 140
f 140 139 148
f 148 139 444
f 321 21 328
f 328 21 14
f 328 6 321
f 14 6 328
f 2 5 8
f 5 6 8
f 8 6 14
f 23 15 17
f 17 26 23
f 24 35 36
f 36 35 50
f 68 52 51
f 51 67 68
f 50 67 51
f 85 66 65
f 65 64 85
f 85 64 63
f 63 84 85
f 83 84 63
f 82 83 63
f 63 62 82
f 47 62 63
f 63 64 47
f 31 21 30
f 30 318 31
f 21 318 30
f 34 35 24
f 24 32 34
f 34 45 47
f 34 32 45
f 540 477 541
f 541 481 540
f 477 481 541
f 550 544 549
f 549 466 550
f 436 434 441
f 441 457 436
f 454 451 453
f 453 456 454
f 457 441 454
f 454 456 458
f 458 457 454
f 454 434 451
f 454 441 434
f 446 369 440
f 370 369 446
f 440 137 446
f 137 370 446
f 103 84 102
f 102 84 83
f 513 505 469
f 514 505 513
f 468 475 476
f 469 468 521
f 521 513 469
f 468 476 521
f 514 513 521
f 521 476 522
f 470 228 469
f 469 505 470
f 470 505 228
f 534 533 498
f 498 497 534
f 527 533 534
f 534 497 527
f 501 535 527
f 527 497 501
f 496 535 501
f 501 497 496
f 248 512 517
f 505 512 248
f 229 505 248
f 520 526 527
f 517 518 507
f 507 518 508
f 508 269 507
f 507 269 506
f 517 524 525
f 525 518 517
f 525 524 532
f 532 526 525
f 526 518 525
f 519 509 508
f 508 518 519
f 519 518 526
f 526 520 519
f 503 269 508
f 509 519 510
f 510 519 520
f 509 510 504
f 508 509 504
f 504 503 508
f 379 382 385
f 385 383 379
f 382 299 385
f 385 299 300
f 384 383 385
f 300 298 385
f 298 384 385
f 539 477 540
f 539 478 477
f 540 537 539
f 537 478 539
f 482 481 477
f 482 477 480
f 480 474 482
f 404 591 414
f 414 405 404
f 404 592 591
f 404 405 399
f 393 391 394
f 394 391 588
f 588 592 394
f 398 399 393
f 398 404 399
f 592 404 398
f 43 395 403
f 409 402 403
f 402 43 403
f 403 401 409
f 395 401 403
f 424 418 417
f 417 416 424
f 417 407 416
f 417 418 408
f 408 407 417
f 563 570 351
f 579 570 575
f 575 569 578
f 575 570 569
f 160 154 162
f 169 163 160
f 160 163 155
f 155 154 160
f 160 170 169
f 162 170 160
f 361 366 566
f 566 560 361
f 566 567 560
f 366 368 572
f 573 567 572
f 572 368 573
f 278 290 18
f 290 10 18
f 18 279 278
f 18 10 279
f 289 288 484
f 289 290 278
f 278 277 289
f 277 288 289
f 488 494 489
f 488 331 484
f 489 331 488
f 493 494 488
f 488 487 493
f 484 487 488
f 323 1 330
f 330 331 323
f 187 201 197
f 201 212 197
f 195 183 197
f 197 212 195
f 53 201 218
f 218 46 53
f 215 200 214
f 215 202 200
f 12 11 296
f 296 11 297
f 297 293 296
f 20 13 12
f 20 28 29
f 20 29 402
f 402 13 20
f 596 402 595
f 595 411 596
f 402 411 595
f 78 97 79
f 78 59 58
f 79 59 78
f 58 77 78
f 77 97 78
f 79 97 98
f 98 99 79
f 98 97 117
f 80 99 100
f 79 99 80
f 81 59 80
f 80 59 79
f 80 392 81
f 393 392 80
f 80 391 393
f 80 100 585
f 585 391 80
f 594 599 600
f 600 286 594
f 600 332 286
f 600 599 332
f 339 345 340
f 335 334 339
f 336 335 339
f 339 340 336
f 578 577 580
f 580 577 263
f 580 337 344
f 580 276 337
f 263 276 580
f 344 346 580
f 580 346 579
f 580 575 578
f 579 575 580
f 247 577 227
f 263 577 247
f 568 574 208
f 569 561 568
f 568 208 569
f 568 561 565
f 565 567 568
f 567 574 568
f 166 157 156
f 364 157 166
f 166 365 364
f 156 155 164
f 155 163 164
f 208 574 192
f 574 176 192
f 294 295 285
f 285 295 286
f 274 285 275
f 286 276 275
f 275 285 286
f 227 577 207
f 207 577 208
f 95 75 94
f 94 96 95
f 95 96 77
f 58 42 41
f 41 42 28
f 237 230 73
f 242 230 237
f 237 73 254
f 254 242 237
f 195 210 211
f 210 230 211
f 284 293 294
f 294 285 284
f 284 285 274
f 73 75 55
f 90 69 89
f 90 70 69
f 91 70 90
f 89 111 90
f 90 112 91
f 90 111 112
f 453 589 455
f 455 456 453
f 458 456 461
f 461 460 458
f 456 455 461
f 461 455 460
f 589 584 459
f 459 455 589
f 460 455 459
f 179 172 168
f 184 172 179
f 179 168 167
f 167 178 179
f 185 172 184
f 199 200 185
f 185 184 199
f 183 170 182
f 187 197 182
f 182 197 183
f 173 187 182
f 445 444 138
f 444 139 138
f 439 445 138
f 440 439 138
f 138 137 440
f 138 122 137
f 123 122 138
f 138 139 123
f 127 125 140
f 108 125 127
f 133 130 144
f 130 129 144
f 144 145 133
f 144 150 145
f 124 123 106
f 123 125 106
f 106 105 124
f 140 148 143
f 14 16 9
f 9 8 14
f 9 17 15
f 16 17 9
f 15 10 9
f 9 10 2
f 2 8 9
f 25 16 24
f 25 17 16
f 24 36 25
f 26 17 25
f 25 36 26
f 37 52 53
f 37 51 52
f 37 53 38
f 50 51 37
f 37 36 50
f 38 26 37
f 26 36 37
f 49 65 66
f 49 67 50
f 66 67 49
f 50 35 49
f 481 482 472
f 472 482 474
f 467 466 472
f 472 474 467
f 121 372 137
f 376 372 121
f 121 102 376
f 103 102 121
f 121 122 103
f 137 122 121
f 101 377 376
f 376 102 101
f 381 377 101
f 101 102 83
f 101 82 381
f 101 83 82
f 532 524 523
f 522 531 523
f 523 531 532
f 515 523 524
f 515 505 514
f 515 512 505
f 515 524 517
f 517 512 515
f 514 521 515
f 515 521 522
f 522 523 515
f 516 248 517
f 517 507 516
f 516 507 506
f 506 269 264
f 264 516 506
f 248 516 264
f 238 248 255
f 255 239 238
f 255 264 269
f 248 264 255
f 249 231 229
f 229 248 249
f 232 231 249
f 249 238 232
f 249 248 238
f 496 491 528
f 528 491 490
f 528 520 527
f 528 535 496
f 527 535 528
f 219 239 220
f 220 202 219
f 232 238 219
f 238 239 219
f 220 239 240
f 269 503 270
f 495 528 490
f 520 528 495
f 490 504 511
f 511 504 510
f 511 495 490
f 511 510 520
f 520 495 511
f 483 476 475
f 483 475 529
f 522 476 483
f 529 522 483
f 393 394 397
f 397 394 592
f 397 398 393
f 592 398 397
f 350 343 563
f 563 351 350
f 350 351 343
f 352 351 570
f 352 346 344
f 352 570 346
f 344 343 352
f 343 351 352
f 366 572 571
f 571 572 567
f 571 566 366
f 567 566 571
f 266 279 23
f 278 279 266
f 266 265 278
f 234 251 235
f 33 46 235
f 46 218 235
f 484 1 3
f 3 289 484
f 3 1 2
f 2 290 7
f 290 289 7
f 7 3 2
f 289 3 7
f 484 331 485
f 331 330 485
f 485 1 484
f 485 330 1
f 217 216 234
f 234 235 217
f 217 235 218
f 201 216 217
f 217 218 201
f 222 215 214
f 202 215 222
f 222 214 232
f 232 219 222
f 222 219 202
f 12 296 19
f 19 20 12
f 28 20 19
f 19 296 293
f 99 98 118
f 119 99 118
f 118 134 119
f 117 134 118
f 118 98 117
f 603 345 338
f 345 339 338
f 338 334 603
f 338 339 334
f 165 166 156
f 156 164 165
f 177 176 573
f 573 365 177
f 365 166 177
f 177 165 176
f 166 165 177
f 274 275 261
f 263 247 246
f 191 192 176
f 176 190 191
f 208 192 191
f 191 207 208
f 174 163 169
f 57 77 58
f 58 41 57
f 27 41 28
f 28 19 27
f 27 19 293
f 293 292 27
f 189 174 188
f 253 259 254
f 583 460 586
f 460 459 586
f 584 583 586
f 586 459 584
f 194 179 178
f 194 178 193
f 193 198 194
f 194 198 184
f 184 179 194
f 173 172 186
f 172 185 186
f 186 185 200
f 186 187 173
f 186 200 187
f 171 170 162
f 171 182 170
f 162 161 171
f 171 161 173
f 173 182 171
f 110 111 89
f 110 130 111
f 110 129 130
f 105 106 88
f 89 69 88
f 88 108 89
f 88 69 87
f 87 105 88
f 126 125 108
f 126 106 125
f 447 141 442
f 141 143 442
f 442 444 443
f 442 148 444
f 442 143 148
f 443 438 442
f 442 457 447
f 438 457 442
f 142 144 129
f 150 144 142
f 149 150 142
f 142 141 149
f 129 110 128
f 128 142 129
f 128 127 140
f 140 143 128
f 128 143 141
f 141 142 128
f 48 49 35
f 35 34 48
f 64 65 48
f 65 49 48
f 47 64 48
f 48 34 47
f 466 549 548
f 548 472 466
f 548 549 544
f 544 481 548
f 481 472 548
f 220 240 221
f 221 202 220
f 233 216 221
f 216 202 221
f 258 257 272
f 258 240 257
f 272 265 258
f 239 255 256
f 256 270 257
f 256 255 269
f 269 270 256
f 257 240 256
f 256 240 239
f 271 270 503
f 271 490 282
f 271 504 490
f 503 504 271
f 271 283 272
f 282 283 271
f 272 257 271
f 257 270 271
f 267 266 23
f 251 266 267
f 23 33 267
f 250 266 251
f 250 234 233
f 250 251 234
f 265 266 250
f 250 258 265
f 33 235 252
f 252 235 251
f 252 267 33
f 251 267 252
f 274 261 260
f 262 261 275
f 245 261 262
f 262 276 263
f 262 275 276
f 263 246 262
f 262 246 245
f 223 244 224
f 223 230 242
f 223 211 230
f 243 242 254
f 243 223 242
f 244 223 243
f 243 260 261
f 243 261 245
f 245 244 243
f 254 259 243
f 259 260 243
f 245 246 225
f 224 244 225
f 225 244 245
f 190 189 205
f 205 191 190
f 175 190 176
f 176 165 175
f 175 189 190
f 175 174 189
f 175 165 164
f 175 164 163
f 163 174 175
f 75 95 76
f 76 55 75
f 76 95 77
f 77 57 76
f 41 27 40
f 196 180 195
f 195 211 196
f 224 205 204
f 204 205 189
f 169 180 181
f 181 174 169
f 181 188 174
f 180 196 181
f 181 196 188
f 73 55 236
f 55 253 236
f 254 73 236
f 236 253 254
f 108 127 109
f 89 108 109
f 109 110 89
f 127 128 109
f 109 128 110
f 107 88 106
f 106 126 107
f 108 88 107
f 107 126 108
f 240 258 241
f 258 250 241
f 241 250 233
f 233 221 241
f 241 221 240
f 203 223 224
f 211 223 203
f 224 204 203
f 203 196 211
f 188 196 203
f 189 188 203
f 203 204 189
f 226 225 246
f 226 247 227
f 226 246 247
f 227 207 226
f 55 76 56
f 56 40 55
f 41 40 56
f 56 57 41
f 56 76 57
f 268 253 55
f 259 253 268
f 225 226 206
f 224 225 206
f 206 205 224
f 191 205 206
f 207 191 206
f 206 226 207
f 291 40 27
f 291 27 292
f 292 280 291
f 281 280 292
f 281 292 293
f 293 284 281
f 281 268 280
f 55 40 54
f 40 280 54
f 280 268 54
f 39 280 40
f 40 291 39
f 39 291 280
f 273 281 284
f 268 281 273
f 259 268 273
f 273 260 259
f 273 284 274
f 274 260 273
f 74 268 55
f 55 54 74
f 74 54 268

