# https://github.com/mikedh/trimesh
v -0.00172413 -0.00846774 -0.01442224
v -0.00048670 0.00053048 0.06896904
v 0.00433034 -0.00018069 -0.07156632
v 0.00584916 -0.00475108 0.02688822
v 0.00545587 -0.00563466 -0.04149483
v 0.00764136 -0.00125657 0.00456159
v -0.00642926 0.00430018 0.04133243
v -0.00637970 -0.00422558 -0.05647555
v 0.00477320 0.00738855 -0.03051723
v -0.00251552 0.00806159 -0.04691486
v -0.00774024 0.00005636 0.02267876
v 0.00803306 -0.00109577 -0.05730094
v 0.00645189 -0.00338179 0.04156630
v -0.00322217 0.00795052 -0.06285852
v 0.00786519 0.00067304 -0.01420214
v 0.00407774 -0.00662931 -0.02597762
v -0.00564907 -0.00511579 -0.00277057
v 0.00350859 -0.00678845 0.01436990
v 0.00687716 0.00559653 0.03277596
v -0.00533252 -0.00532632 0.03478439
v -0.00655876 -0.00412114 -0.02556492
v 0.00110246 -0.00737032 -0.06409660
v -0.00626619 -0.00064652 -0.06979174
v 0.00355335 0.00626294 0.04391864
v 0.00274118 0.00299554 0.05988982
v 0.00361410 -0.00683984 -0.00553561
v 0.00746870 0.00330388 0.02343536
v 0.00611296 0.00523680 -0.06481192
v 0.00308492 -0.00672545 0.03471561
v -0.00674422 -0.00374815 -0.01058421
v -0.00083683 0.00564295 -0.07063089
v -0.00311025 -0.00667904 0.04210280
v -0.00265301 -0.00233078 0.06100409
v 0.00741594 -0.00251314 -0.06510081
v -0.00785375 0.00277174 -0.06014851
v 0.00486273 -0.00612535 -0.01698093
v 0.00793074 -0.00062994 -0.02138298
v 0.00775328 -0.00103443 -0.00497160
v 0.00387310 -0.00667738 0.00138386
v -0.00143956 -0.00550370 -0.07035576
v 0.00584277 -0.00531306 -0.03467166
v -0.00658275 -0.00391393 -0.06389025
v 0.00336310 -0.00691444 -0.05775490
v 0.00743352 -0.00183015 0.01203131
v 0.00663895 0.00581701 -0.05826388
v 0.00101613 0.00764882 0.03816847
v 0.00146218 -0.00743165 0.02043647
v 0.00194341 -0.00740679 0.00820703
v -0.00735494 -0.00163453 0.04156630
v 0.00139983 -0.00602589 0.04600962
v -0.00527656 -0.00547386 -0.01779256
v 0.00722249 0.00219816 0.04169010
v -0.00668027 0.00519867 -0.04904710
v 0.00410652 -0.00660941 -0.01157467
v -0.00763472 -0.00049732 0.03426165
v -0.00252671 0.00310992 0.06081150
v 0.00197698 -0.00721117 0.02955696
v 0.00177074 0.00833181 -0.06115273
v -0.00071852 0.00035310 -0.07107109
v 0.00200895 -0.00699898 0.04108482
v 0.00357893 -0.00492017 -0.07019068
v 0.00742713 -0.00039786 0.03743938
v 0.00462931 0.00453392 -0.06931027
v 0.00583637 -0.00521691 -0.06149663
v 0.00665333 -0.00383435 0.01625452
v 0.00647907 -0.00433831 -0.00197270
v -0.00550838 0.00387746 -0.06962667
v -0.00804241 0.00039952 -0.06430294
v 0.00613374 -0.00494504 -0.02240095
v 0.00643590 -0.00453061 -0.05505864
v 0.00518728 0.00624637 0.03820973
v 0.00244062 -0.00712165 0.02471471
v -0.00197514 -0.00722443 -0.06096014
v 0.00799789 0.00230923 -0.06222573
v -0.00210464 0.00744491 0.04113984
v 0.00749748 -0.00088689 0.02441207
v -0.00608074 0.00547054 -0.06485320
v 0.00542069 -0.00550536 0.00977526
v -0.00553876 -0.00497820 0.03909015
v -0.00539327 0.00560482 0.03752191
v 0.00476361 -0.00561643 -0.06556853
v 0.00615452 -0.00415430 0.03405530
v 0.00609857 -0.00480745 0.00570337
v -0.00161542 -0.00725427 0.03845735
v -0.00271216 -0.00667406 -0.06481192
v 0.00311369 0.00778309 -0.06477066
v 0.00192902 -0.00746978 -0.02289618
v 0.00781403 -0.00121844 -0.01753119
v -0.00196075 -0.00111400 0.06597015
v -0.00738532 -0.00179036 0.03772826
v -0.00631256 -0.00428858 -0.06024480
v -0.00444681 -0.00617177 -0.01202863
v 0.00318883 -0.00040946 0.06082525
v 0.00468047 -0.00599771 0.02007880
v 0.00625365 -0.00427531 0.02343536
v 0.00179952 0.00125325 0.06646538
v 0.00799629 -0.00123999 -0.06193684
v 0.00200895 -0.00746481 -0.01561905
v 0.00432075 -0.00595129 0.03878750
v -0.00750363 0.00167929 0.03948908
v 0.00743193 -0.00271538 -0.02451944
v 0.00292664 -0.00712829 -0.00176636
v 0.00649026 -0.00450242 -0.03859223
v 0.00261808 -0.00713989 0.01745133
v 0.00000732 0.00846774 -0.06383523
v 0.00626324 -0.00481574 -0.03163150
v 0.00662296 -0.00026027 -0.06948911
v 0.00560775 0.00534953 0.04192396
v -0.00260025 -0.00195116 -0.07085098
v 0.00668051 -0.00320110 0.03677907
v -0.00640209 -0.00395703 0.03245956
v 0.00245021 -0.00723770 -0.06153791
v 0.00424401 -0.00654642 -0.01975973
v 0.00599465 -0.00507600 -0.01455981
v -0.00200711 0.00173731 0.06605268
v 0.00077472 -0.00161961 0.06635533
v -0.00382490 0.00190143 -0.07065839
v 0.00692992 -0.00377799 -0.01801266
v 0.00260049 0.00627289 -0.06995682
v -0.00480173 -0.00570926 -0.06281725
v 0.00194820 -0.00746149 -0.00762658
v 0.00588913 -0.00497488 0.01241649
v 0.00648706 0.00239709 -0.06899387
v 0.00717293 -0.00346799 -0.05994216
v 0.00431756 -0.00614359 0.02877285
v -0.00773225 -0.00192629 -0.06250086
v -0.00368421 0.00580707 -0.06969545
v 0.00799629 0.00235897 -0.05957074
f 105 127 14
f 9 71 19
f 119 127 105
f 68 23 126
f 105 14 10
f 80 14 53
f 53 7 80
f 35 7 53
f 77 14 127
f 68 35 77
f 35 53 77
f 77 53 14
f 3 107 61
f 45 9 19
f 45 74 28
f 31 119 3
f 127 119 31
f 63 119 28
f 117 23 67
f 127 31 67
f 67 31 117
f 67 77 127
f 67 23 68
f 68 77 67
f 109 23 117
f 49 79 33
f 49 33 89
f 100 7 35
f 1 51 120
f 52 27 19
f 62 27 52
f 15 27 62
f 75 14 80
f 75 10 14
f 105 10 75
f 80 7 75
f 97 74 12
f 34 61 107
f 107 74 34
f 74 97 34
f 128 45 19
f 74 45 128
f 19 27 128
f 27 15 128
f 12 74 128
f 28 119 86
f 86 45 28
f 86 119 105
f 105 58 86
f 9 45 86
f 86 58 9
f 123 63 28
f 28 74 123
f 123 74 107
f 123 107 3
f 3 119 123
f 119 63 123
f 3 109 59
f 59 109 117
f 59 31 3
f 117 31 59
f 3 61 40
f 40 109 3
f 40 61 22
f 23 109 40
f 92 51 1
f 49 100 55
f 68 126 55
f 11 35 68
f 11 100 35
f 68 55 11
f 11 55 100
f 111 79 49
f 126 30 90
f 49 55 90
f 90 55 126
f 90 111 49
f 30 111 90
f 21 30 126
f 21 111 30
f 42 126 23
f 23 40 42
f 8 21 42
f 42 21 126
f 73 22 1
f 1 120 73
f 19 71 108
f 108 52 19
f 37 15 62
f 37 88 12
f 12 128 37
f 37 128 15
f 1 22 112
f 64 43 112
f 5 43 64
f 12 88 101
f 101 97 12
f 24 108 71
f 56 75 7
f 81 34 64
f 61 34 81
f 64 112 81
f 22 61 81
f 81 112 22
f 20 92 1
f 51 92 20
f 79 111 20
f 111 21 20
f 32 33 79
f 79 20 32
f 32 20 1
f 113 5 36
f 116 89 33
f 33 32 116
f 2 89 116
f 116 96 2
f 8 42 91
f 91 42 120
f 91 120 51
f 91 21 8
f 51 21 91
f 85 73 120
f 120 42 85
f 85 42 40
f 85 40 22
f 22 73 85
f 96 52 25
f 52 108 25
f 108 24 25
f 25 24 75
f 75 56 25
f 88 37 38
f 38 6 88
f 38 37 62
f 124 34 97
f 97 101 124
f 124 101 118
f 64 34 124
f 46 24 71
f 75 24 46
f 71 9 46
f 9 58 46
f 46 58 105
f 105 75 46
f 2 96 115
f 115 89 2
f 96 25 115
f 115 25 56
f 49 89 115
f 115 100 49
f 7 100 115
f 115 56 7
f 17 21 51
f 51 20 17
f 17 20 21
f 1 60 84
f 84 32 1
f 60 32 84
f 43 5 16
f 5 113 16
f 118 101 65
f 50 32 60
f 60 116 50
f 50 116 32
f 96 116 93
f 93 52 96
f 41 5 64
f 36 5 41
f 64 124 70
f 70 41 64
f 106 41 70
f 98 112 43
f 44 65 101
f 88 6 44
f 44 101 88
f 4 95 82
f 82 95 65
f 13 93 116
f 62 52 13
f 52 93 13
f 65 95 83
f 106 70 103
f 103 70 124
f 118 106 103
f 103 124 118
f 102 98 43
f 1 112 87
f 87 98 1
f 112 98 87
f 76 44 6
f 76 38 62
f 6 38 76
f 99 116 60
f 99 13 116
f 82 13 99
f 4 82 99
f 99 94 4
f 125 94 99
f 62 13 110
f 110 76 62
f 44 76 110
f 65 44 110
f 110 82 65
f 110 13 82
f 4 94 78
f 78 114 83
f 78 94 36
f 36 41 78
f 41 114 78
f 118 65 66
f 65 83 66
f 66 106 118
f 43 16 26
f 26 102 43
f 29 99 60
f 125 99 29
f 4 78 122
f 122 78 83
f 122 95 4
f 122 83 95
f 83 114 69
f 69 66 83
f 106 66 69
f 69 41 106
f 69 114 41
f 54 16 113
f 54 26 16
f 54 113 36
f 36 94 54
f 102 26 18
f 125 29 18
f 18 94 125
f 98 102 121
f 102 48 121
f 1 98 121
f 121 48 1
f 1 48 47
f 104 18 29
f 104 48 102
f 102 18 104
f 26 54 39
f 39 18 26
f 39 54 94
f 94 18 39
f 57 29 60
f 57 60 1
f 1 47 57
f 57 47 48
f 48 104 57
f 72 104 29
f 29 57 72
f 72 57 104

