# https://github.com/mikedh/trimesh
v 0.00787468 -0.00109086 -0.08640279
v 0.00782216 -0.00287106 -0.08640279
v 0.00775573 -0.00109086 -0.08818881
v 0.00770939 0.00069202 -0.08640279
v 0.00750238 -0.00420421 -0.08462574
v 0.00747611 -0.00411586 -0.08640279
v 0.00739115 -0.00395391 -0.08818881
v 0.00768621 -0.00287106 -0.08818881
v 0.00737879 -0.00287106 -0.08923889
v 0.00740505 -0.00109086 -0.08927479
v 0.00732163 0.00022623 -0.08919401
v 0.00747766 0.00076832 -0.08827856
v 0.00733090 0.00192344 -0.08774904
v 0.00740351 0.00213225 -0.08640279
v 0.00740351 0.00213493 -0.08462574
v 0.00632985 -0.00486944 -0.08462574
v 0.00583704 -0.00757722 -0.01515032
v 0.00579688 -0.00755447 -0.01692737
v 0.00572118 -0.00750227 -0.02049044
v 0.00567638 -0.00746881 -0.02227647
v 0.00632985 -0.00472087 -0.08640279
v 0.00728610 -0.00382006 -0.08914016
v 0.00632985 -0.00287106 -0.08954404
v 0.00632985 -0.00109086 -0.08966071
v 0.00645034 0.00076832 -0.08940941
v 0.00587566 0.00247357 -0.08924787
v 0.00712389 0.00141348 -0.08893374
v 0.00706055 0.00302235 -0.08640279
v 0.00678866 0.00250034 -0.08827856
v 0.00706519 0.00302503 -0.08462574
v 0.00546319 -0.00555207 -0.07489685
v 0.00454865 -0.00479716 -0.08640279
v 0.00585404 -0.00575553 -0.06681038
v 0.00454865 -0.00776060 -0.01515032
v 0.00454865 -0.00771777 -0.01692737
v 0.00549872 -0.00735637 -0.02761659
v 0.00454865 -0.00445584 -0.08818881
v 0.00632985 -0.00434743 -0.08818881
v 0.00632985 -0.00390974 -0.08923889
v 0.00454865 -0.00287106 -0.08970559
v 0.00454865 -0.00109086 -0.08989406
v 0.00454865 0.00069202 -0.08973251
v 0.00454865 0.00247357 -0.08944532
v 0.00552499 0.00342792 -0.08912221
v 0.00586176 0.00382545 -0.08818881
v 0.00603169 0.00440636 -0.08631304
v 0.00603478 0.00438628 -0.08476037
v 0.00545083 0.00515458 -0.08543349
v -0.00508804 -0.00557081 -0.07529175
v 0.00545701 -0.00733362 -0.02869359
v 0.00454865 -0.00680892 -0.04365490
v -0.00512202 -0.00734968 -0.03967898
v -0.00435888 -0.00476638 -0.08462574
v -0.00257768 -0.00463788 -0.08640279
v -0.00529968 -0.00557081 -0.07529175
v -0.00435888 -0.00816616 -0.00623816
v -0.00435888 -0.00790783 -0.01871339
v -0.00435888 -0.00786902 -0.02049044
v 0.00454865 -0.00766690 -0.01871339
v -0.00495209 -0.00738448 -0.03831478
v -0.00257768 -0.00415602 -0.08810803
v 0.00098471 -0.00385084 -0.08916708
v 0.00276591 -0.00390037 -0.08922991
v 0.00454865 -0.00394588 -0.08927479
v 0.00276591 -0.00287106 -0.08969662
v 0.00276591 -0.00109086 -0.08992996
v 0.00276591 0.00069202 -0.08972353
v 0.00098471 0.00247357 -0.08947223
v 0.00276591 0.00247357 -0.08947223
v 0.00276591 0.00372774 -0.08921196
v 0.00454865 0.00358586 -0.08917607
v 0.00276591 0.00461918 -0.08861064
v 0.00465679 0.00458438 -0.08817086
v 0.00532261 0.00510238 -0.08684257
v 0.00545083 0.00515458 -0.08565786
v 0.00465679 0.00525764 -0.08631304
v -0.00532131 -0.00734968 -0.03967898
v -0.00574614 -0.00426310 -0.08462574
v -0.00435888 -0.00450537 -0.08640279
v -0.00567971 -0.00582245 -0.06681038
v -0.00536611 -0.00560829 -0.07393652
v -0.00702217 -0.00550924 -0.05507109
v -0.00540627 -0.00738448 -0.03831478
v -0.00609373 -0.00769367 -0.02049044
v -0.00551441 -0.00742330 -0.03652875
v -0.00257768 -0.00366211 -0.08899657
v -0.00156890 -0.00374376 -0.08905939
v -0.00038092 -0.00380266 -0.08912221
v -0.00435888 -0.00403154 -0.08778494
v 0.00098471 -0.00287106 -0.08962481
v -0.00079494 -0.00109086 -0.08986714
v 0.00098471 -0.00109086 -0.08990304
v -0.00079494 0.00069202 -0.08968763
v 0.00098471 0.00069202 -0.08970559
v -0.00257768 0.00247357 -0.08943634
v -0.00079494 0.00373042 -0.08920299
v 0.00098471 0.00374113 -0.08921196
v 0.00098471 0.00463123 -0.08863756
v 0.00276591 0.00531922 -0.08772211
v 0.00413463 0.00525229 -0.08756056
v 0.00276591 0.00541023 -0.08640279
v -0.00634399 -0.00287106 -0.08462574
v -0.00612462 -0.00287106 -0.08640279
v -0.00555767 -0.00406232 -0.08640279
v -0.00535529 -0.00386021 -0.08744389
v -0.00575232 -0.00586662 -0.06502436
v -0.00704535 -0.00556546 -0.05388639
v -0.00709787 -0.00405965 -0.06146128
v -0.00699900 -0.00332213 -0.06858743
v -0.00703453 -0.00732826 -0.01634400
v -0.00702526 -0.00731354 -0.01752870
v -0.00701290 -0.00729078 -0.01871339
v -0.00605202 -0.00766021 -0.02227647
v -0.00561019 -0.00745007 -0.03474273
v -0.00453653 -0.00297948 -0.08875424
v -0.00406072 -0.00245880 -0.08928376
v -0.00257768 -0.00277067 -0.08943634
v -0.00090308 -0.00303837 -0.08944532
v -0.00257768 -0.00109086 -0.08976842
v -0.00257768 0.00069202 -0.08964276
v -0.00445002 0.00255522 -0.08925684
v -0.00391705 0.00352027 -0.08915811
v -0.00257768 0.00366082 -0.08919401
v -0.00435888 0.00069202 -0.08948121
v -0.00079494 0.00462186 -0.08859269
v 0.00098471 0.00533126 -0.08774904
v 0.00098471 0.00538614 -0.08640279
v -0.00377493 0.00515190 -0.08546042
v -0.00703917 0.00146969 -0.08037160
v -0.00642587 -0.00109086 -0.08640279
v -0.00580948 -0.00126754 -0.08836831
v -0.00559938 -0.00287106 -0.08785674
v -0.00524870 -0.00197828 -0.08907734
v -0.00694184 -0.00718906 -0.02227647
v -0.00706388 -0.00559491 -0.05255809
v -0.00720137 -0.00465260 -0.05255809
v -0.00714112 -0.00480921 -0.05442489
v -0.00698510 -0.00724661 -0.02049044
v -0.00720755 -0.00287106 -0.06146128
v -0.00777142 -0.00109086 -0.04009183
v -0.00738367 0.00069202 -0.06681038
v -0.00733732 0.00069202 -0.06858743
v -0.00705616 0.00125553 -0.07927664
v -0.00723845 -0.00640068 -0.01871339
v -0.00723691 -0.00623739 -0.02405351
v -0.00719365 -0.00595764 -0.03474273
v -0.00716430 -0.00582379 -0.04009183
v -0.00599640 -0.00762809 -0.02405351
v -0.00453653 -0.00126754 -0.08939146
v -0.00535529 0.00201580 -0.08914914
v -0.00510349 0.00320439 -0.08903246
v -0.00434652 0.00425912 -0.08819779
v -0.00257768 0.00455226 -0.08841319
v -0.00542636 0.00069202 -0.08921196
v -0.00079494 0.00530048 -0.08770417
v -0.00468020 0.00502742 -0.08640279
v -0.00257768 0.00522686 -0.08752466
v -0.00379038 0.00517064 -0.08640279
v -0.00703917 0.00167582 -0.08037160
v -0.00657108 0.00247357 -0.08640279
v -0.00609527 0.00069202 -0.08818881
v -0.00537847 -0.00079237 -0.08918504
v -0.00740375 -0.00465260 -0.04009183
v -0.00780077 -0.00109086 -0.03831478
v -0.00741920 0.00069202 -0.06502436
v -0.00773743 -0.00109086 -0.04187785
v -0.00752116 0.00069202 -0.05968424
v -0.00705616 0.00180298 -0.07927664
v -0.00751498 -0.00465260 -0.02583954
v -0.00743773 -0.00465260 -0.03652875
v -0.00742229 -0.00465260 -0.03831478
v -0.00582183 0.00255522 -0.08834139
v -0.00564727 0.00380939 -0.08784776
v -0.00358955 0.00517198 -0.08736312
v -0.00594388 0.00413732 -0.08640279
v -0.00602884 0.00422165 -0.08462574
v -0.00691712 0.00269442 -0.07927664
v -0.00690477 0.00235042 -0.08099984
v -0.00788419 -0.00109086 -0.03117966
v -0.00773280 0.00069202 -0.04187785
v -0.00754278 0.00069202 -0.05789821
v -0.00719365 0.00230358 -0.07037345
v -0.00722455 0.00225405 -0.06858743
v -0.00716275 0.00224602 -0.07215050
v -0.00789964 -0.00109086 -0.02940261
v -0.00693875 0.00319502 -0.07037345
v -0.00790427 -0.00109086 -0.00980122
v -0.00731106 0.00186455 -0.04009183
v -0.00694956 0.00313612 -0.07215050
v -0.00774516 0.00069202 -0.04009183
v -0.00724926 0.00221256 -0.06681038
v -0.00790736 -0.00109086 -0.02583954
v -0.00790427 -0.00109086 -0.02761659
v -0.00726162 0.00219248 -0.06502436
v -0.00729715 0.00209209 -0.05968424
v -0.00774207 0.00069202 -0.03831478
v -0.00732342 0.00189266 -0.04365490
v -0.00731878 0.00187660 -0.04187785
v -0.00770499 0.00069202 -0.03117966
v 0.00831302 -0.00287171 0.08462590
v 0.00796078 -0.00109036 0.08462590
v 0.00786923 -0.00109036 0.08640915
v 0.00820440 -0.00287171 0.08640915
v 0.00829750 -0.00465204 0.08640915
v 0.00830681 -0.00465204 0.08462590
v 0.00742388 0.00009012 0.08640915
v 0.00736026 0.00000196 0.08769175
v 0.00749216 -0.00110860 0.08824962
v 0.00778078 -0.00287171 0.08819240
v 0.00823078 -0.00643441 0.08640915
v 0.00824164 -0.00643441 0.08462590
v 0.00785992 -0.00465204 0.08819240
v 0.00823854 -0.00643441 0.08284742
v 0.00764112 -0.00794014 0.06859097
v 0.00756354 -0.00787732 0.05968903
v 0.00754491 -0.00787023 0.05790578
v 0.00632992 0.00063020 0.08640915
v 0.00642767 0.00031507 0.08824962
v 0.00589854 0.00009620 0.08931766
v 0.00708716 -0.00052596 0.08888377
v 0.00728423 -0.00171454 0.08914601
v 0.00734785 -0.00287171 0.08920322
v 0.00765198 -0.00649622 0.08834022
v 0.00752164 -0.00771520 0.08784910
v 0.00769388 -0.00798878 0.08640915
v 0.00771560 -0.00806883 0.08462590
v 0.00772336 -0.00806377 0.08284742
v 0.00734785 -0.00465204 0.08919846
v 0.00663405 -0.00876496 0.06147228
v 0.00454854 0.00090074 0.08640915
v 0.00454854 0.00080752 0.08819240
v 0.00276716 0.00088554 0.08640915
v 0.00642767 -0.00110860 0.08939872
v 0.00454854 0.00025326 0.08944162
v 0.00454854 -0.00109036 0.08979923
v 0.00632992 -0.00287171 0.08954652
v 0.00728578 -0.00594398 0.08913648
v 0.00714767 -0.00713154 0.08903635
v 0.00549354 -0.00912163 0.08737230
v 0.00647733 -0.00887946 0.08640915
v 0.00632060 -0.00829378 0.08820193
v 0.00658285 -0.00895951 0.08462590
v 0.00658285 -0.00895444 0.08284742
v 0.00632992 -0.00465204 0.08954176
v 0.00574336 -0.00921485 0.06147228
v 0.00655647 -0.00876800 0.05968903
v 0.00276716 0.00080347 0.08819240
v 0.00098422 0.00079739 0.08640915
v 0.00098422 0.00072950 0.08819240
v 0.00276716 0.00025224 0.08943208
v -0.00435836 -0.00109036 0.08978493
v -0.00079560 -0.00109036 0.08979923
v 0.00276716 -0.00109036 0.08980400
v -0.00257698 -0.00287171 0.08995657
v -0.00257698 -0.00465204 0.08996134
v -0.00257698 -0.00643441 0.08995657
v 0.00454854 -0.00287171 0.08978969
v 0.00646492 -0.00649622 0.08935580
v 0.00596061 -0.00768378 0.08926044
v 0.00454854 -0.00877813 0.08837835
v -0.00079560 -0.00902537 0.08886946
v 0.00454854 -0.00914696 0.08748673
v 0.00454854 -0.00919054 0.08640915
v 0.00558664 -0.00913278 0.08640915
v 0.00569216 -0.00914494 0.08462590
v 0.00454854 -0.00465204 0.08977539
v 0.00454854 -0.00643441 0.08969434
v 0.00454854 -0.00938812 0.06147228
v -0.00435836 0.00004756 0.08935104
v -0.00079560 0.00016713 0.08939872
v 0.00098422 0.00022691 0.08941779
v -0.00079560 0.00070113 0.08640915
v -0.00079560 0.00061905 0.08819240
v -0.00554854 -0.00001324 0.08927951
v -0.00578905 -0.00109036 0.08943687
v -0.00435836 -0.00287171 0.08996134
v -0.00435836 -0.00465204 0.08997565
v -0.00435836 -0.00643441 0.08991843
v -0.00257698 -0.00815800 0.08951791
v -0.00079560 -0.00813469 0.08948454
v 0.00454854 -0.00788745 0.08935104
v -0.00257698 -0.00904868 0.08894099
v -0.00257698 -0.00925741 0.08804936
v -0.00079560 -0.00923107 0.08797784
v -0.00257698 -0.00940028 0.08640915
v 0.00276716 -0.00945095 0.06147228
v -0.00677750 -0.00109036 0.08640915
v -0.00703354 -0.00019563 0.05525952
v -0.00592716 0.00004756 0.08640915
v -0.00257698 0.00055724 0.08640915
v -0.00435836 0.00033229 0.08819240
v -0.00583250 0.00006580 0.08819240
v -0.00658043 -0.00109036 0.08819240
v -0.00585888 -0.00287171 0.08950362
v -0.00669836 -0.00287171 0.08819240
v -0.00581699 -0.00465204 0.08951315
v -0.00569905 -0.00643441 0.08947023
v -0.00548492 -0.00775978 0.08930335
v -0.00435836 -0.00805465 0.08947023
v -0.00435836 -0.00894532 0.08875026
v -0.00435836 -0.00923715 0.08785863
v -0.00435836 -0.00939420 0.08640915
v -0.00435836 -0.00939522 0.08462590
v 0.00098422 -0.00942562 0.06147228
v -0.00753940 -0.00643441 0.05256080
v -0.00690474 -0.00287171 0.08640915
v -0.00660216 -0.00465204 0.08819240
v -0.00640974 -0.00643441 0.08819240
v -0.00571767 -0.00829783 0.08817809
v -0.00535302 -0.00917230 0.08757732
v -0.00542750 -0.00922600 0.08640915
v -0.00542905 -0.00923208 0.08462590
v -0.00530492 -0.00913683 0.04365410
v -0.00529095 -0.00912872 0.04187085
v -0.00734233 -0.00769088 0.05256080
v -0.00667509 -0.00643441 0.08640915
v -0.00680854 -0.00465204 0.08640915
v -0.00609940 -0.00821576 0.08640915
v 0.00730627 -0.00745689 0.02939704
v 0.00713294 -0.00709708 0.00801947
v 0.00711318 -0.00706886 0.00623672
v 0.00722814 -0.00733519 0.02093573
v -0.00528553 -0.00912587 0.04126531
v -0.00527443 -0.00911947 0.04008583
v -0.00722798 -0.00764178 0.03295868
v -0.00526073 -0.00911215 0.03903010
v -0.00756988 -0.00643401 0.03295868
v -0.00520527 -0.00911215 0.03903010
v -0.00784588 -0.00465256 0.03474144
v -0.00785045 -0.00465256 0.03295868
v -0.00791635 -0.00287201 0.03295868
v -0.00765079 -0.00108964 0.03652419
v -0.00731541 0.00000559 0.03652419
f 200 4 201
f 55 83 80
f 127 232 101
f 128 156 291
f 232 127 128
f 206 48 217
f 331 287 332
f 315 330 327
f 305 330 315
f 291 156 292
f 288 186 333
f 333 287 288
f 333 332 287
f 33 31 16
f 50 31 33
f 55 80 81
f 107 80 106
f 101 232 230
f 217 48 230
f 230 231 217
f 329 305 331
f 331 330 329
f 329 330 305
f 217 231 218
f 101 230 76
f 76 230 48
f 200 201 202
f 201 206 202
f 263 285 286
f 331 332 187
f 192 330 331
f 331 187 192
f 288 287 289
f 287 292 289
f 289 186 288
f 176 292 156
f 186 289 176
f 176 289 292
f 189 176 177
f 186 176 189
f 188 333 186
f 332 333 199
f 196 187 199
f 199 187 332
f 333 188 199
f 160 178 177
f 177 176 160
f 320 17 321
f 77 83 55
f 31 52 49
f 51 31 50
f 50 52 51
f 51 52 31
f 107 106 134
f 286 326 328
f 232 249 247
f 247 230 232
f 231 230 247
f 249 269 247
f 290 128 291
f 128 290 272
f 272 290 291
f 158 128 127
f 127 157 158
f 157 174 158
f 156 128 158
f 158 174 156
f 331 305 306
f 306 287 331
f 305 315 316
f 219 218 231
f 207 202 206
f 207 219 220
f 218 219 207
f 207 206 217
f 217 218 207
f 30 206 201
f 14 28 30
f 32 49 55
f 55 53 32
f 32 53 54
f 16 31 32
f 31 49 32
f 327 330 169
f 327 169 145
f 145 169 170
f 55 81 82
f 82 80 107
f 82 81 80
f 129 102 109
f 102 82 109
f 330 192 193
f 310 300 298
f 298 309 310
f 186 194 195
f 191 189 183
f 186 189 191
f 191 194 186
f 182 189 177
f 183 189 182
f 159 160 129
f 178 160 159
f 177 178 159
f 159 168 177
f 197 186 196
f 196 199 197
f 78 53 55
f 55 82 78
f 78 82 102
f 54 53 79
f 79 61 54
f 53 78 79
f 130 102 129
f 129 160 130
f 156 174 173
f 213 205 211
f 214 213 227
f 227 242 243
f 213 211 227
f 20 33 16
f 214 216 215
f 243 242 245
f 245 242 265
f 2 205 213
f 243 245 229
f 229 216 214
f 214 227 229
f 229 227 243
f 59 52 50
f 50 35 59
f 58 77 52
f 83 77 58
f 138 112 107
f 107 134 138
f 114 134 106
f 114 138 134
f 326 84 114
f 112 84 111
f 111 84 326
f 285 283 302
f 286 285 302
f 302 303 286
f 303 302 312
f 304 326 286
f 286 303 304
f 248 249 232
f 248 272 249
f 232 128 248
f 128 272 248
f 273 272 291
f 249 272 273
f 273 269 249
f 317 306 305
f 305 316 317
f 317 316 307
f 310 309 318
f 318 316 315
f 301 300 310
f 310 302 301
f 301 302 283
f 262 263 239
f 285 263 262
f 284 283 285
f 285 262 284
f 231 247 234
f 234 219 231
f 208 207 220
f 202 207 208
f 75 76 48
f 75 74 76
f 46 28 45
f 45 74 46
f 74 75 46
f 46 30 28
f 46 75 48
f 76 74 100
f 101 76 100
f 100 99 101
f 14 30 15
f 15 30 201
f 15 4 14
f 15 201 4
f 16 32 21
f 37 21 32
f 37 32 54
f 54 61 37
f 14 4 13
f 13 28 14
f 170 169 185
f 185 169 330
f 330 193 185
f 129 109 143
f 194 191 190
f 190 195 194
f 190 185 193
f 196 186 190
f 186 195 190
f 190 193 192
f 190 187 196
f 190 192 187
f 139 109 108
f 108 82 107
f 108 109 82
f 309 298 308
f 307 316 308
f 308 318 309
f 316 318 308
f 299 298 300
f 299 279 278
f 278 298 299
f 291 292 274
f 274 273 291
f 269 273 274
f 296 295 307
f 177 168 184
f 184 182 177
f 168 182 184
f 198 188 186
f 186 197 198
f 198 199 188
f 198 197 199
f 89 79 105
f 61 79 89
f 105 79 104
f 104 79 78
f 175 160 176
f 175 173 160
f 175 176 156
f 156 173 175
f 264 242 239
f 265 242 264
f 239 263 264
f 263 265 264
f 239 242 240
f 240 242 225
f 240 224 239
f 225 224 240
f 225 242 226
f 242 227 226
f 226 227 211
f 259 267 281
f 281 260 259
f 210 224 225
f 225 226 210
f 210 226 211
f 50 33 36
f 33 20 36
f 36 35 50
f 36 20 35
f 5 215 216
f 5 320 321
f 214 215 5
f 5 213 214
f 5 2 213
f 321 17 5
f 5 20 16
f 5 19 20
f 1 4 200
f 200 205 1
f 205 2 1
f 320 5 322
f 17 320 322
f 322 229 17
f 246 245 17
f 17 229 246
f 246 229 245
f 60 58 52
f 35 58 60
f 52 59 60
f 60 59 35
f 34 58 35
f 35 20 34
f 20 19 34
f 286 328 56
f 57 328 326
f 326 58 57
f 57 56 328
f 286 56 57
f 57 34 286
f 58 34 57
f 113 84 112
f 112 138 113
f 113 114 84
f 85 106 80
f 85 114 106
f 85 80 83
f 83 58 85
f 85 58 326
f 326 114 85
f 110 111 326
f 110 325 315
f 110 315 327
f 135 111 147
f 147 163 135
f 107 112 135
f 112 111 135
f 303 312 313
f 313 312 315
f 315 325 313
f 325 110 313
f 311 302 310
f 311 312 302
f 310 318 311
f 315 312 311
f 311 318 315
f 281 267 256
f 256 280 281
f 267 266 256
f 278 279 256
f 279 280 256
f 261 260 281
f 281 280 261
f 283 284 261
f 261 284 262
f 239 260 261
f 261 262 239
f 221 208 220
f 220 219 221
f 219 233 221
f 48 206 47
f 47 46 48
f 206 30 47
f 30 46 47
f 39 37 64
f 38 37 39
f 21 37 38
f 12 13 4
f 45 28 29
f 28 13 29
f 45 29 44
f 44 74 45
f 122 125 123
f 146 163 147
f 147 111 146
f 146 110 145
f 111 110 146
f 183 182 167
f 107 135 136
f 136 135 163
f 275 274 293
f 293 295 275
f 293 292 287
f 293 274 292
f 306 295 293
f 287 306 293
f 307 308 297
f 297 296 307
f 297 308 298
f 297 298 278
f 278 296 297
f 275 295 294
f 295 296 294
f 102 130 103
f 103 78 102
f 103 104 78
f 105 104 103
f 131 103 130
f 162 131 161
f 161 130 160
f 161 131 130
f 267 259 258
f 239 224 241
f 241 260 239
f 241 259 260
f 22 38 39
f 21 38 22
f 18 5 17
f 19 5 18
f 17 245 18
f 245 19 18
f 319 5 216
f 319 322 5
f 216 229 319
f 229 322 319
f 268 19 245
f 268 34 19
f 286 34 268
f 268 245 265
f 268 263 286
f 268 265 263
f 138 114 148
f 148 113 138
f 114 113 148
f 327 145 144
f 144 110 327
f 145 110 144
f 323 304 303
f 282 280 279
f 282 261 280
f 282 299 300
f 279 299 282
f 283 261 282
f 300 301 282
f 282 301 283
f 270 247 269
f 270 271 247
f 250 234 247
f 247 271 250
f 222 233 236
f 222 221 233
f 228 212 222
f 27 29 13
f 27 12 11
f 13 12 27
f 27 44 29
f 155 157 127
f 99 100 72
f 152 173 174
f 160 173 172
f 172 161 160
f 125 122 153
f 157 155 153
f 153 155 125
f 153 174 157
f 153 152 174
f 122 152 153
f 163 146 171
f 179 163 171
f 171 145 170
f 171 146 145
f 171 185 179
f 170 185 171
f 141 159 129
f 168 159 141
f 141 109 139
f 164 163 179
f 164 136 163
f 180 191 183
f 180 190 191
f 179 185 180
f 185 190 180
f 180 164 179
f 137 108 107
f 107 136 137
f 137 136 108
f 105 103 132
f 103 131 132
f 62 37 61
f 267 258 244
f 244 266 267
f 238 258 259
f 238 241 224
f 259 241 238
f 202 208 203
f 200 202 203
f 208 221 209
f 209 203 208
f 221 222 209
f 209 222 212
f 2 5 6
f 16 21 6
f 6 5 16
f 3 1 2
f 11 12 3
f 4 1 3
f 3 12 4
f 303 313 314
f 314 323 303
f 314 313 110
f 110 323 314
f 326 304 324
f 304 323 324
f 324 110 326
f 324 323 110
f 235 244 236
f 236 233 235
f 219 234 235
f 235 233 219
f 278 256 277
f 277 296 278
f 277 294 296
f 275 294 276
f 294 277 276
f 271 270 251
f 251 250 271
f 251 270 269
f 251 252 234
f 234 250 251
f 251 276 252
f 269 274 251
f 251 274 275
f 275 276 251
f 61 89 86
f 86 87 61
f 125 155 126
f 99 72 126
f 101 99 126
f 126 127 101
f 126 155 127
f 125 126 98
f 98 126 72
f 73 72 100
f 44 72 73
f 73 100 74
f 74 44 73
f 151 172 173
f 173 152 151
f 151 152 122
f 129 143 142
f 142 141 129
f 142 143 109
f 109 141 142
f 165 182 168
f 168 141 165
f 165 167 182
f 166 167 165
f 139 166 165
f 165 141 139
f 140 167 166
f 140 164 167
f 136 164 140
f 108 136 140
f 140 166 139
f 139 108 140
f 183 167 181
f 181 180 183
f 167 164 181
f 164 180 181
f 133 131 162
f 133 132 131
f 105 132 133
f 61 87 88
f 88 62 61
f 258 238 237
f 228 244 237
f 237 244 258
f 204 212 210
f 200 203 204
f 204 209 212
f 203 209 204
f 204 205 200
f 204 211 205
f 204 210 211
f 2 6 7
f 21 22 7
f 7 6 21
f 11 3 10
f 234 252 253
f 253 235 234
f 252 276 253
f 257 256 266
f 257 235 256
f 266 244 257
f 244 235 257
f 256 235 255
f 255 277 256
f 116 86 115
f 105 133 115
f 115 133 116
f 115 89 105
f 115 86 89
f 70 98 72
f 63 65 64
f 63 64 37
f 37 62 63
f 87 86 117
f 117 86 116
f 119 117 116
f 120 119 124
f 223 212 228
f 228 237 223
f 223 237 238
f 223 238 224
f 224 210 223
f 210 212 223
f 2 7 8
f 8 7 22
f 8 3 2
f 23 22 39
f 254 276 277
f 277 255 254
f 254 255 235
f 235 253 254
f 254 253 276
f 26 25 42
f 11 25 26
f 26 27 11
f 44 27 26
f 90 63 62
f 65 63 90
f 62 88 90
f 117 119 90
f 70 69 97
f 98 70 97
f 43 69 70
f 42 69 43
f 44 26 43
f 43 26 42
f 67 42 66
f 149 133 162
f 149 124 119
f 116 133 149
f 149 119 116
f 91 119 120
f 120 93 91
f 65 90 91
f 91 90 119
f 121 151 122
f 154 149 162
f 124 149 154
f 162 161 154
f 9 10 3
f 3 8 9
f 9 8 22
f 22 23 9
f 11 10 24
f 24 25 11
f 10 9 24
f 24 9 23
f 42 25 24
f 40 65 66
f 40 23 39
f 39 64 40
f 64 65 40
f 118 90 88
f 117 90 118
f 118 88 87
f 87 117 118
f 98 97 96
f 123 125 96
f 125 98 96
f 44 43 71
f 71 43 70
f 71 72 44
f 71 70 72
f 66 93 94
f 94 67 66
f 92 93 66
f 92 91 93
f 66 65 92
f 65 91 92
f 124 154 150
f 151 121 150
f 150 121 124
f 172 151 150
f 161 172 150
f 150 154 161
f 66 42 41
f 42 24 41
f 41 40 66
f 41 24 23
f 23 40 41
f 67 94 68
f 68 69 42
f 42 67 68
f 68 97 69
f 68 96 97
f 95 94 93
f 95 68 94
f 95 93 120
f 95 122 123
f 123 96 95
f 96 68 95
f 95 121 122
f 120 124 95
f 124 121 95
f 52 77 49
f 49 77 55
f 306 317 295
f 295 317 307
f 228 222 244
f 244 222 236

