# https://github.com/mikedh/trimesh
v 0.00840162 0.09155490 -0.00240728
v -0.01096785 -0.10257617 0.02202969
v 0.10202919 -0.01495799 0.02162328
v -0.10313766 0.00683181 0.02204841
v 0.08178639 0.06367546 0.01691215
v -0.05590229 -0.04681726 -0.01379735
v -0.06653291 0.07892320 0.02074466
v 0.04618378 -0.05660661 -0.01344704
v 0.07029749 0.01526465 -0.01386875
v -0.06157966 0.03828860 -0.01426074
v -0.05982094 -0.08343583 0.02263943
v 0.04007689 -0.09408510 0.02344992
v 0.08126871 -0.06216473 0.02324381
v -0.09473814 -0.04241454 0.02068069
v 0.04210132 0.05863322 -0.01375395
v -0.00175833 -0.07194320 -0.01409815
v -0.07292083 -0.00509799 -0.01351800
v 0.04855339 0.09192315 0.02040446
v -0.02700086 0.09930515 0.02194194
v -0.02913316 0.06700844 -0.01334702
v -0.09193725 0.04652233 0.02164273
v 0.09995154 0.02546724 0.01470069
v 0.06847466 -0.02201281 -0.01389098
v -0.03173122 -0.08604265 -0.00253260
v -0.08863951 0.02235365 -0.00246703
v 0.01238878 -0.09629466 0.00195755
v 0.08940978 -0.03867747 0.00228572
v -0.09725619 -0.01714266 0.00287612
v 0.05746011 -0.07988001 0.00344708
v -0.07819430 -0.05852348 0.00183502
v 0.09316433 0.00194455 -0.00153400
v 0.02159100 0.10167322 0.01997484
v 0.06043736 0.07652439 0.00122226
v -0.07541192 0.05703873 -0.00030110
v -0.04283370 0.08837728 0.00292799
v 0.08201162 0.04498987 -0.00159005
v -0.03630619 -0.09584155 0.02278119
v 0.01885268 0.07035097 -0.01359740
v 0.07025984 -0.05852500 -0.00235447
v -0.03650840 -0.06337707 -0.01374199
v 0.03372053 0.08956070 -0.00029646
v -0.01810971 0.09150448 -0.00130641
v 0.06047783 0.04054596 -0.01371916
v -0.00534778 0.07261283 -0.01343970
v -0.05941570 -0.07511531 -0.00001735
v 0.03379368 -0.08790049 -0.00052731
v -0.08617278 -0.03688944 -0.00159699
v -0.00515300 0.10330712 0.01365711
v 0.02112444 -0.06975225 -0.01379272
v -0.07672781 -0.06914680 0.02155420
v -0.06732677 -0.02645278 -0.01404700
v 0.09237684 0.04482729 0.02208004
v -0.01118647 -0.09371451 -0.00059326
v 0.01719661 -0.10115273 0.02283898
v 0.06530783 -0.07787210 0.02349936
v 0.09442645 -0.03794918 0.02310350
v -0.05993672 0.07175495 -0.00103376
v -0.04650442 0.05535955 -0.01363562
v -0.08077244 0.06385293 0.02092202
v 0.10206040 0.00667505 0.02273000
v -0.10131089 -0.01459415 0.02283757
v 0.06516666 0.08032430 0.02176477
v 0.05986379 -0.04209818 -0.01341389
v -0.10013970 0.02524200 0.01567237
v 0.08993366 -0.01954095 -0.00207627
v -0.04638293 0.09266788 0.02106941
v 0.07312376 -0.00368857 -0.01345414
v -0.09674159 0.00639492 0.00124424
v 0.09118321 0.02372865 -0.00096810
v -0.09225693 0.03856723 0.00546747
v -0.04928996 -0.08751759 0.00558904
v -0.02062658 -0.06886542 -0.01410654
v 0.08495443 -0.05393705 0.00689575
v 0.07366033 0.06610222 0.00293216
v -0.06832880 0.02370233 -0.01513634
v 0.04893115 0.08737087 0.00426256
v -0.02762013 -0.09760913 0.00768639
v 0.07218502 -0.07213438 0.01040087
v 0.02759614 -0.09794565 0.01003814
v 0.00397162 -0.10279090 0.01473433
v -0.08737785 -0.05557827 0.01816040
v 0.10080662 0.01176518 0.00834266
v 0.01127942 0.10176049 0.00893719
v -0.09737757 -0.03192532 0.01020327
v 0.03636483 0.09659698 0.01261543
v -0.08647356 0.05373963 0.00917327
v 0.10069218 -0.00748417 0.00714967
v 0.05203734 -0.08857734 0.01657790
v -0.02934022 0.09654520 0.00663035
v 0.09307043 0.04142643 0.00808498
v -0.07091187 -0.07336285 0.00911095
v -0.07088167 0.07286320 0.00847589
v -0.05920985 0.08318470 0.00980178
v 0.09867366 -0.02297586 0.00788173
v -0.00359475 0.09718775 0.00170807
v 0.00707098 0.10339682 0.02141818
v 0.07704734 -0.04715097 -0.00309674
v 0.08971339 -0.05030053 0.02246211
v -0.09801548 -0.03013447 0.02298067
v 0.06801691 0.02786748 -0.01322169
v -0.04812222 -0.09144785 0.02056769
v 0.03553952 -0.06369310 -0.01362935
v -0.08238604 0.04242646 -0.00166746
v -0.10250721 -0.00083202 0.00995691
v 0.04364616 -0.09080741 0.00739573
v -0.07184227 0.00741602 -0.01443390
v -0.08995125 -0.04810903 0.00844486
v 0.08438433 0.05640276 0.00712166
v 0.05737285 0.08614778 0.01391154
v -0.10099818 0.01430754 0.00934479
v -0.09711045 0.03516918 0.02160862
v 0.09830949 -0.02611570 0.02310466
v 0.05193039 0.05208973 -0.01324836
v 0.01919461 0.09500504 0.00084793
v 0.00330128 -0.09069724 -0.00273330
v 0.02907144 -0.09791854 0.02350505
v 0.07087859 0.07521591 0.01309448
v -0.00300198 -0.10031160 0.00593789
v -0.02048040 -0.10108784 0.01588964
v 0.04763471 -0.07845911 -0.00207627
v -0.03762844 0.09616753 0.01489871
v -0.04652408 0.07906140 -0.00219969
v -0.01364002 0.10278022 0.02101363
v 0.08759729 0.05512091 0.02111349
v -0.01336670 0.10004485 0.00628134
v 0.03341253 0.06550955 -0.01331910
v 0.06543846 -0.06821246 -0.00023727
v 0.07348420 -0.07050066 0.02351940
f 116 79 12
f 54 2 80
f 80 79 54
f 54 79 116
f 37 54 116
f 2 54 37
f 88 12 79
f 29 78 88
f 52 62 60
f 30 107 47
f 47 107 28
f 28 17 47
f 47 17 51
f 68 17 28
f 77 71 24
f 127 78 29
f 73 78 127
f 101 37 11
f 71 77 101
f 11 50 91
f 91 101 11
f 71 101 91
f 91 107 30
f 14 50 99
f 99 50 11
f 99 37 116
f 11 37 99
f 116 128 99
f 28 107 84
f 84 107 14
f 14 99 84
f 84 99 61
f 81 50 14
f 14 107 81
f 81 91 50
f 107 91 81
f 118 79 80
f 29 88 105
f 105 88 79
f 105 46 29
f 79 46 105
f 55 78 128
f 55 88 78
f 12 88 55
f 55 128 116
f 116 12 55
f 58 20 75
f 70 34 103
f 60 112 3
f 3 82 60
f 30 47 6
f 6 47 51
f 24 71 45
f 45 40 24
f 45 91 30
f 71 91 45
f 30 6 45
f 45 6 40
f 17 68 106
f 75 51 106
f 51 17 106
f 70 68 110
f 59 7 92
f 128 78 13
f 13 78 73
f 73 98 13
f 73 127 39
f 39 97 73
f 63 97 39
f 120 127 29
f 29 46 120
f 26 46 79
f 79 118 26
f 77 118 119
f 2 37 119
f 80 2 119
f 119 118 80
f 37 101 119
f 119 101 77
f 53 77 24
f 53 118 77
f 53 16 115
f 115 26 53
f 53 26 118
f 96 123 19
f 19 62 96
f 60 62 19
f 19 112 60
f 128 112 19
f 19 99 128
f 61 99 19
f 92 7 93
f 7 66 93
f 10 58 75
f 75 103 10
f 10 103 34
f 25 68 70
f 70 103 25
f 25 103 75
f 75 106 25
f 25 106 68
f 96 62 18
f 41 85 76
f 69 82 31
f 69 90 82
f 82 90 22
f 22 90 52
f 60 82 22
f 22 52 60
f 56 3 112
f 56 13 98
f 56 112 128
f 128 13 56
f 3 56 94
f 94 98 73
f 94 56 98
f 62 52 124
f 124 5 62
f 52 90 124
f 124 90 108
f 108 5 124
f 24 40 72
f 72 53 24
f 16 53 72
f 75 16 72
f 40 6 72
f 72 51 75
f 72 6 51
f 115 16 49
f 49 26 115
f 46 26 49
f 64 111 70
f 70 110 64
f 4 111 64
f 64 110 4
f 104 68 28
f 104 110 68
f 4 110 104
f 28 84 104
f 104 61 4
f 104 84 61
f 70 111 86
f 86 59 92
f 92 34 86
f 86 34 70
f 121 93 66
f 66 19 121
f 123 89 121
f 121 19 123
f 57 34 92
f 92 93 57
f 57 10 34
f 58 10 57
f 96 18 32
f 32 18 85
f 83 32 85
f 96 32 83
f 108 90 36
f 90 69 36
f 41 76 33
f 117 33 76
f 62 5 117
f 117 5 108
f 85 18 109
f 109 76 85
f 109 117 76
f 109 18 62
f 62 117 109
f 23 97 63
f 23 49 16
f 23 16 75
f 1 42 95
f 31 67 9
f 9 69 31
f 67 23 9
f 9 23 75
f 82 3 87
f 3 94 87
f 31 82 87
f 97 23 65
f 31 87 65
f 65 87 94
f 65 67 31
f 65 23 67
f 102 120 46
f 46 49 102
f 49 23 102
f 21 86 111
f 59 86 21
f 61 19 21
f 7 59 21
f 4 61 21
f 21 111 4
f 21 66 7
f 21 19 66
f 35 57 93
f 35 121 89
f 93 121 35
f 89 42 35
f 125 83 95
f 125 42 89
f 95 42 125
f 113 36 43
f 74 117 108
f 33 117 74
f 108 36 74
f 36 113 74
f 74 113 33
f 41 38 114
f 38 1 114
f 114 85 41
f 114 83 85
f 95 83 114
f 114 1 95
f 20 42 44
f 42 1 44
f 44 1 38
f 75 20 44
f 44 38 75
f 100 36 69
f 69 9 100
f 43 36 100
f 100 9 43
f 73 97 27
f 97 65 27
f 27 94 73
f 27 65 94
f 127 120 8
f 120 102 8
f 63 39 8
f 8 39 127
f 8 23 63
f 8 102 23
f 57 35 122
f 20 58 122
f 58 57 122
f 122 42 20
f 122 35 42
f 83 125 48
f 48 123 96
f 96 83 48
f 48 89 123
f 48 125 89
f 15 113 43
f 75 38 15
f 15 9 75
f 43 9 15
f 33 113 15
f 41 33 126
f 33 15 126
f 126 38 41
f 126 15 38

