# https://github.com/mikedh/trimesh
v -0.00177049 -0.00940293 -0.11152530
v -0.00279547 -0.00925119 -0.11172643
v -0.00216502 -0.00920784 -0.11276376
v -0.00173850 -0.00917532 -0.11273202
v -0.00048693 -0.00915184 -0.11144063
v -0.00098676 -0.00939209 -0.11056206
v -0.00290877 -0.00925661 -0.11015983
v -0.00344992 -0.00900913 -0.11114424
v -0.00321000 -0.00884837 -0.11276376
v -0.00244226 -0.00865508 -0.11376936
v -0.00147193 -0.00848167 -0.11389638
v 0.00053405 -0.00850154 -0.11214983
v 0.00159635 -0.00759112 -0.11319776
v 0.00110585 -0.00840941 -0.11169467
v 0.00013952 -0.00908681 -0.11077376
v -0.00003909 -0.00925119 -0.10966232
v -0.00368450 -0.00895675 -0.10893194
v -0.00403905 -0.00851599 -0.11115482
v -0.00407770 -0.00866953 -0.10914365
v -0.00426430 -0.00802827 -0.11187462
v -0.00382445 -0.00812942 -0.11276376
v -0.00318467 -0.00772299 -0.11383287
v -0.00218102 -0.00779163 -0.11452090
v -0.00106274 -0.00776092 -0.11470085
v 0.00066467 -0.00719733 -0.11456324
v 0.00231077 -0.00694082 -0.11373761
v 0.00298921 -0.00734545 -0.11204398
v 0.00251737 -0.00803007 -0.11047738
v 0.00231610 -0.00825948 -0.10972583
v 0.00089526 -0.00890798 -0.10929184
v -0.00446557 -0.00826852 -0.10927067
v -0.00469216 -0.00779524 -0.11035036
v -0.00460685 -0.00818181 -0.10725949
v -0.00450022 -0.00715939 -0.11222393
v -0.00511868 -0.00678908 -0.11056206
v -0.00404571 -0.00673128 -0.11322951
v -0.00408170 -0.00502244 -0.11370585
v -0.00238628 -0.00691192 -0.11466910
v -0.00104274 -0.00667528 -0.11521953
v -0.00047094 -0.00717023 -0.11515601
v 0.00138576 -0.00635736 -0.11487021
v 0.00276262 -0.00639529 -0.11392813
v 0.00354901 -0.00660483 -0.11274260
v 0.00414081 -0.00658496 -0.11172643
v 0.00358100 -0.00730571 -0.11083727
v 0.00344105 -0.00768686 -0.10913306
v 0.00275462 -0.00814749 -0.10678317
v -0.00495207 -0.00770131 -0.10794753
v -0.00535193 -0.00678547 -0.10927067
v -0.00466816 -0.00487793 -0.11300723
v -0.00566515 -0.00503689 -0.11038211
v -0.00524530 -0.00490502 -0.11174759
v -0.00600370 -0.00491767 -0.10888960
v -0.00462418 -0.00390067 -0.11313425
v -0.00380713 -0.00404518 -0.11390696
v -0.00326598 -0.00540900 -0.11427744
v -0.00054291 -0.00526269 -0.11507133
v -0.00008974 -0.00630678 -0.11529361
v -0.00224233 -0.00455819 -0.11458442
v 0.00098323 -0.00545958 -0.11519835
v 0.00176163 -0.00540539 -0.11495490
v 0.00260800 -0.00557519 -0.11438330
v 0.00299587 -0.00592382 -0.11393872
v 0.00393821 -0.00551919 -0.11290137
v 0.00453401 -0.00579376 -0.11178994
v 0.00480858 -0.00601595 -0.11093254
v 0.00454734 -0.00657412 -0.11032919
v 0.00426343 -0.00704017 -0.10935535
v 0.00440072 -0.00705643 -0.10797928
v 0.00375561 -0.00757667 -0.10625391
v -0.00543990 -0.00702211 -0.10643385
v -0.00576379 -0.00634110 -0.10656088
v -0.00608901 -0.00524643 -0.10741827
v -0.00516933 -0.00386274 -0.11229802
v -0.00625962 -0.00374713 -0.10884727
v -0.00557852 -0.00379771 -0.11126068
v -0.00674212 -0.00358997 -0.10594694
v -0.00480012 -0.00321063 -0.11213925
v -0.00302473 -0.00380493 -0.11402340
v -0.00325798 -0.00330095 -0.11335654
v 0.00070866 -0.00441368 -0.11487021
v 0.00167899 -0.00434323 -0.11493372
v -0.00190778 -0.00375255 -0.11415043
v 0.00282393 -0.00457445 -0.11430920
v 0.00385024 -0.00471174 -0.11325069
v 0.00490188 -0.00452929 -0.11162058
v 0.00542170 -0.00472980 -0.11010689
v 0.00522844 -0.00569803 -0.10984227
v 0.00508049 -0.00633026 -0.10855088
v 0.00518978 -0.00635916 -0.10683610
v 0.00484590 -0.00672586 -0.10615864
v -0.00627161 -0.00533494 -0.10385108
v -0.00657284 -0.00444078 -0.10515305
v -0.00548255 -0.00317450 -0.11108074
v -0.00601970 -0.00332443 -0.10959881
v -0.00644889 -0.00295774 -0.10759822
v -0.00677277 -0.00312392 -0.10567173
v -0.00677011 -0.00377061 -0.10448619
v -0.00374715 -0.00293606 -0.11231919
v -0.00504803 -0.00276806 -0.11080552
v -0.00186513 -0.00290535 -0.11283787
v 0.00165366 -0.00397112 -0.11465850
v 0.00260667 -0.00408131 -0.11431979
v 0.00372229 -0.00400183 -0.11333537
v 0.00458199 -0.00392415 -0.11217100
v 0.00513647 -0.00389164 -0.11092195
v 0.00585489 -0.00388622 -0.10851912
v 0.00566962 -0.00500257 -0.10866732
v 0.00544969 -0.00573415 -0.10854030
v 0.00539904 -0.00599969 -0.10759822
v 0.00594552 -0.00532591 -0.10440151
v -0.00589308 -0.00272832 -0.10903780
v -0.00664482 -0.00251336 -0.10515305
v -0.00626895 -0.00211415 -0.10566114
v -0.00609701 -0.00237066 -0.10735476
v -0.00663549 -0.00214125 -0.10335357
v -0.00392575 -0.00245737 -0.11091137
v -0.00264886 -0.00232911 -0.11117600
v -0.00537992 -0.00206177 -0.10772524
v -0.00482544 -0.00150179 -0.10665614
v -0.00431362 -0.00151624 -0.10725949
v -0.00145993 -0.00247904 -0.11175818
v 0.00220681 -0.00366945 -0.11375877
v 0.00373295 -0.00358636 -0.11288020
v 0.00437673 -0.00345810 -0.11134536
v 0.00501651 -0.00355926 -0.11026567
v 0.00552433 -0.00367487 -0.10916482
v 0.00643869 -0.00280781 -0.10002984
v 0.00643869 -0.00371100 -0.10459204
v 0.00642136 -0.00418247 -0.10507895
v 0.00638271 -0.00454916 -0.10460262
v -0.00637824 -0.00172578 -0.10285608
v -0.00595172 -0.00146566 -0.10302544
v -0.00522264 -0.00137715 -0.10524832
v -0.00650087 -0.00081897 -0.09504425
v -0.00326998 -0.00183597 -0.10896371
v -0.00145593 -0.00211776 -0.11041387
v -0.00494807 -0.00101587 -0.10311012
v -0.00415901 -0.00071059 -0.10186107
v -0.00038164 -0.00138076 -0.10666673
v -0.00194910 -0.00164269 -0.10815923
v -0.00369250 -0.00023370 -0.09878080
v -0.00279947 -0.00055163 -0.10099309
v 0.00349836 -0.00337682 -0.11247797
v 0.00035811 -0.00242846 -0.11077376
v 0.00511647 -0.00334430 -0.10874142
v 0.00313715 -0.00196783 -0.10540710
v 0.00387290 -0.00183416 -0.10308895
v 0.00596418 -0.00250253 -0.10029447
v 0.00650800 -0.00325940 -0.10163878
v 0.00624409 -0.00071601 -0.08690426
v 0.00638137 -0.00065098 -0.08543294
v 0.00673325 -0.00175649 -0.09018566
v 0.00657464 -0.00330456 -0.10084490
v -0.00630227 -0.00107909 -0.09886548
v -0.00590907 -0.00097793 -0.10014628
v -0.00558918 -0.00094181 -0.10099309
v -0.00546122 -0.00034209 -0.09697074
v -0.00482278 0.00063517 -0.09132886
v -0.00614632 0.00100729 -0.08091308
v -0.00604636 0.00087723 -0.08381341
v -0.00630760 -0.00027164 -0.09206982
v -0.00615965 -0.00038544 -0.09447265
v 0.00040609 -0.00212318 -0.10952471
v -0.00452288 0.00002280 -0.09630387
v -0.00406037 0.00056833 -0.09286371
v -0.00313402 0.00019622 -0.09573228
v -0.00282480 0.00134689 -0.08749704
v 0.00015551 -0.00078646 -0.10236916
v 0.00005155 -0.00132837 -0.10619040
v -0.00363385 0.00147695 -0.08651262
v 0.00190558 -0.00192990 -0.10704779
v 0.00429676 -0.00172759 -0.10124713
v 0.00490455 -0.00112425 -0.09522419
v 0.00272929 -0.00131934 -0.10240091
v 0.00326911 -0.00118748 -0.10055909
v 0.00359433 -0.00062569 -0.09612393
v 0.00406084 -0.00110258 -0.09791282
v 0.00535639 0.00116986 -0.07818212
v 0.00597751 0.00065685 -0.07879605
v 0.00620810 0.00070201 -0.07693306
v 0.00666261 -0.00104116 -0.08513655
v 0.00597351 0.00338449 -0.05663076
v -0.00584643 -0.00029331 -0.09534062
v -0.00527062 0.00077607 -0.08908480
v -0.00484410 0.00139927 -0.08550703
v -0.00432828 0.00134689 -0.08692544
v -0.00551321 0.00279922 -0.06892011
v -0.00564516 0.00239098 -0.07205331
v -0.00572380 0.00150766 -0.08088132
v -0.00608101 0.00041118 -0.08805805
v -0.00578778 0.00113554 -0.08385575
v -0.00572913 0.00063517 -0.08844969
v -0.00190911 0.00536429 -0.05828204
v 0.00312116 0.00105245 -0.08544351
v 0.00296122 -0.00055163 -0.09681197
v -0.00080416 0.00599833 -0.05328586
v 0.00000490 0.00747415 -0.04222438
v 0.00116450 0.00700269 -0.04509296
v 0.00184027 0.00740371 -0.04171630
v 0.00245472 0.00692682 -0.04462721
v 0.00271063 0.00521436 -0.05650374
v -0.00265152 0.00538958 -0.05782688
v 0.00424211 0.00019983 -0.08869316
v 0.00442738 0.00105786 -0.08237383
v 0.00492854 0.00019441 -0.08632208
v 0.00377827 0.00079594 -0.08604687
v 0.00438339 0.00151669 -0.07930414
v 0.00490721 0.00414859 -0.05821854
v 0.00550034 0.00388847 -0.05760460
v 0.00643336 0.00034795 -0.07652024
v 0.00557632 0.00436536 -0.05344464
v 0.00578824 0.00409982 -0.05319059
v -0.00538125 0.00131979 -0.08428974
v -0.00508802 0.00172262 -0.08205628
v -0.00437360 0.00169191 -0.08417330
v -0.00347391 0.00580325 -0.05289420
v -0.00336861 0.00510417 -0.05893832
v -0.00281680 0.00581770 -0.05427028
v -0.00458019 0.00520172 -0.05163458
v -0.00537859 0.00247769 -0.07400098
v -0.00448289 0.00503011 -0.05495831
v -0.00206373 0.00602182 -0.05333878
v -0.00148126 0.00650774 -0.04972925
v -0.00088546 0.00697559 -0.04613030
v 0.00313182 0.00055027 -0.08890486
v 0.00286925 0.00659083 -0.04645844
v -0.00076417 0.00759157 -0.04145167
v -0.00013772 0.00811903 -0.03692123
v 0.00090859 0.00786795 -0.03865719
v 0.00176962 0.00787517 -0.03787389
v 0.00277595 0.00746873 -0.03990624
v 0.00337574 0.00682927 -0.04374865
v -0.00229831 0.00660889 -0.04857547
v 0.00342905 0.00502830 -0.05652491
v 0.00404084 0.00483863 -0.05627087
v 0.00434474 0.00505179 -0.05365634
v 0.00498585 0.00476457 -0.05330703
v 0.00491788 0.00516740 -0.05023734
v 0.00489922 0.00576892 -0.04500828
v 0.00548701 0.00494340 -0.04812031
v 0.00528708 0.00655651 -0.03011499
v -0.00508935 0.00203331 -0.07939941
v -0.00341393 0.00636684 -0.04826850
v -0.00300340 0.00620968 -0.05075601
v -0.00390176 0.00527217 -0.05592156
v -0.00382579 0.00673895 -0.04090124
v -0.00417900 0.00589718 -0.04824733
v -0.00420432 0.00553590 -0.05223793
v -0.00167986 0.00708578 -0.04518823
v -0.00121202 0.00792033 -0.03845607
v -0.00099609 0.00824006 -0.03564043
v -0.00050160 0.00855618 -0.03263425
v 0.00040609 0.00858689 -0.03217909
v 0.00080729 0.00829606 -0.03485713
v 0.00160701 0.00833038 -0.03369276
v 0.00242807 0.00792394 -0.03647665
v 0.00291057 0.00798175 -0.03471952
v 0.00336508 0.00733145 -0.03919704
v 0.00419413 0.00615549 -0.04570690
v 0.00392222 0.00596582 -0.04828968
v 0.00402218 0.00661431 -0.04244667
v -0.00241827 0.00712010 -0.04407679
v -0.00178249 0.00749222 -0.04172688
v 0.00449935 0.00660167 -0.03958868
v 0.00443138 0.00690514 -0.03680479
v 0.00495653 0.00629097 -0.03801150
v 0.00485523 0.00667031 -0.03457133
v 0.00446870 0.00735313 -0.03017849
v 0.00493520 0.00698462 -0.02861189
v 0.00490055 0.00683108 -0.03170276
v -0.00378180 0.00615368 -0.04850137
v -0.00350323 0.00665586 -0.04496594
v -0.00329264 0.00703520 -0.04205502
v -0.00294076 0.00715804 -0.04233024
v -0.00289277 0.00670644 -0.04672307
v -0.00319534 0.00775053 -0.03259191
v -0.00358587 0.00715081 -0.03822320
v -0.00395374 0.00635781 -0.04482833
v -0.00361653 0.00689611 -0.04144109
v -0.00126133 0.00834664 -0.03424319
v -0.00086814 0.00874946 -0.02978685
v 0.00005421 0.00881991 -0.02946929
v 0.00100855 0.00878378 -0.02922583
v 0.00133244 0.00860495 -0.03106765
v 0.00210551 0.00830690 -0.03317409
v 0.00244939 0.00844238 -0.03080302
v 0.00317048 0.00812084 -0.03174509
v 0.00346638 0.00766563 -0.03554516
v -0.00214503 0.00771079 -0.03901709
v 0.00383558 0.00781556 -0.03043254
v 0.00393688 0.00785711 -0.02819907
v 0.00453534 0.00743261 -0.02632550
v 0.00343039 0.00830329 -0.02386975
v -0.00320200 0.00748499 -0.03710118
v -0.00260221 0.00768008 -0.03808559
v -0.00250224 0.00843335 -0.02498119
v -0.00264486 0.00826174 -0.02809322
v -0.00269951 0.00788240 -0.03486771
v -0.00238095 0.00829967 -0.03031610
v -0.00177982 0.00830870 -0.03345989
v -0.00196243 0.00803052 -0.03618027
v -0.00160522 0.00867540 -0.02890828
v -0.00113071 0.00885785 -0.02717232
v -0.00035365 0.00894094 -0.02707705
v 0.00035278 0.00899694 -0.02593385
v 0.00151904 0.00889217 -0.02657955
v 0.00241607 0.00858870 -0.02878126
v 0.00317048 0.00829064 -0.02927876
v 0.00355568 0.00818226 -0.02610322
v 0.00267731 0.00864831 -0.02432491
v 0.00302919 0.00846044 -0.02631492
v -0.00212770 0.00856341 -0.02689710
v -0.00161854 0.00876933 -0.02602912
v -0.00094411 0.00898429 -0.02204911
v -0.00075218 0.00897165 -0.02512938
v -0.00039097 0.00904029 -0.02303352
v 0.00070199 0.00902403 -0.02455779
v 0.00161501 0.00893010 -0.02338283
v 0.00214283 0.00878017 -0.02598678
v 0.00129512 0.00899152 -0.02032373
v 0.00045141 0.00905113 -0.02042958
v 0.01382311 -0.00230671 0.05766023
v 0.01379576 -0.00205449 0.06070826
v 0.01360428 -0.00301048 0.05917007
v 0.01363163 -0.00290930 0.05704708
v 0.01363984 -0.00085233 0.06423122
v 0.01381490 -0.00140055 0.06443679
v 0.01358786 -0.00274317 0.06148799
v 0.01310643 -0.00364177 0.05951031
v 0.01319944 -0.00368104 0.05733417
v 0.01084698 0.00559041 0.08424544
v 0.01334988 0.00037400 0.06957237
v 0.01362342 -0.00048383 0.06685040
v 0.01353316 -0.00036150 0.06929237
v 0.01368361 -0.00143076 0.06563473
v 0.01300249 -0.00344997 0.06189558
v 0.01355504 -0.00227801 0.06355073
v 0.01316114 -0.00242904 0.06588283
v 0.01209159 -0.00447241 0.06061966
v 0.01248549 -0.00438481 0.05787998
v 0.01031084 0.00643163 0.08697449
v 0.01078953 0.00582601 0.08633299
v 0.01128465 0.00480055 0.08307230
v 0.01133935 0.00469030 0.08378469
v 0.01299154 0.00113063 0.07251052
v 0.01291495 0.00120766 0.07370847
v 0.01321585 0.00049331 0.07169890
v 0.01315841 0.00011272 0.07226243
v 0.01333894 -0.00082061 0.06962907
v 0.01312832 -0.00200767 0.06758051
v 0.01266603 -0.00290477 0.06648889
v 0.01250190 -0.00371577 0.06323175
v 0.01138586 -0.00517166 0.05909918
v 0.01181258 -0.00493757 0.05819186
v 0.01174146 -0.00444674 0.06259379
v 0.01192473 -0.00498288 0.05559041
v 0.00945465 0.00708255 0.08888483
v 0.01028348 0.00637273 0.08840636
v 0.01082783 0.00553756 0.08666969
v 0.01183993 0.00303959 0.08083945
v 0.01188917 0.00343981 0.08041769
v 0.01098922 0.00490325 0.08578718
v 0.01202321 0.00192956 0.07930479
v 0.01252652 0.00013236 0.07467604
v 0.01284930 -0.00044607 0.07256723
v 0.01297240 -0.00141717 0.06991970
v 0.01277271 -0.00205147 0.06899820
v 0.01188917 -0.00378373 0.06531575
v 0.01230769 -0.00270088 0.06832480
v 0.01092904 -0.00516411 0.06097408
v 0.01032451 -0.00578180 0.05816705
v 0.01038196 -0.00592829 0.05630988
v 0.01129559 -0.00545558 0.05559041
v 0.01075671 -0.00479862 0.06337351
v 0.00018706 0.00840704 0.08943065
v 0.00846717 0.00734986 0.08900179
v 0.00854923 0.00720790 0.08969291
v 0.00950662 0.00683335 0.08955469
v 0.01044487 0.00557078 0.08797042
v 0.00996618 0.00620056 0.08914356
v 0.01086886 0.00406657 0.08518112
v 0.01154998 0.00261974 0.08160500
v 0.01191653 0.00136774 0.07874481
v 0.01154451 0.00193409 0.08076147
v 0.01208886 -0.00044607 0.07501274
v 0.01230496 -0.00074661 0.07371201
v 0.01240617 -0.00152892 0.07149687
v 0.01191653 -0.00212245 0.07105739
v 0.01173052 -0.00309506 0.06831771
v 0.01098648 -0.00387737 0.06685749
v 0.00994703 -0.00557792 0.06057004
v 0.00941909 -0.00623034 0.05653671
v 0.00928779 -0.00592980 0.05934019
v 0.00936712 -0.00533778 0.06272493
v 0.00979658 -0.00467780 0.06541499
v -0.00754869 0.00874987 0.08957595
v 0.00047975 0.00833455 0.09091567
v 0.00092836 0.00832246 0.08962557
v 0.00121011 0.00795094 0.09139413
v 0.00081621 0.00769722 0.09179818
v 0.00851914 0.00680617 0.09003316
v 0.00874344 0.00613713 0.09002962
v 0.01031631 0.00494554 0.08741398
v 0.01096460 0.00318005 0.08385912
v 0.00985402 0.00525363 0.08841699
v 0.00904708 0.00557531 0.08940583
v 0.01127644 0.00161391 0.08083945
v 0.01171137 -0.00097315 0.07464060
v 0.01161563 0.00037853 0.07765674
v 0.01141595 -0.00163766 0.07329025
v 0.01103572 -0.00289419 0.07025994
v 0.00994703 -0.00391059 0.06798810
v 0.00869694 -0.00633153 0.05691949
v 0.00872703 -0.00643876 0.05559041
v 0.00849999 -0.00598870 0.05992499
v 0.00860941 -0.00510219 0.06450059
v 0.00806780 -0.00557792 0.06256189
v 0.00813071 -0.00468687 0.06640383
v -0.00838573 0.00862753 0.08872180
v -0.00828179 0.00863509 0.09011468
v -0.00754596 0.00847953 0.09054352
v 0.00024998 0.00714900 0.09177337
v 0.00124293 0.00694360 0.09175211
v 0.00063293 0.00645579 0.09147211
v 0.00844255 0.00453022 0.08851269
v 0.00994703 0.00415567 0.08682919
v 0.01045581 0.00334316 0.08497556
v 0.00899510 0.00434596 0.08800586
v 0.01062815 0.00172567 0.08194525
v 0.01107402 0.00001607 0.07783749
v 0.01102752 -0.00106830 0.07544160
v 0.00993608 -0.00320380 0.07034500
v 0.01010568 -0.00138847 0.07548767
v 0.01039563 -0.00212396 0.07308824
v 0.00835775 -0.00396949 0.06870402
v 0.00743591 -0.00647652 0.05692658
v 0.00769304 -0.00603099 0.06021207
v 0.00755627 -0.00502214 0.06524132
v 0.00712134 -0.00549032 0.06297302
v 0.00685874 -0.00478201 0.06625851
v 0.00728547 -0.00418848 0.06829999
v -0.00894649 0.00826809 0.08864382
v -0.00918721 0.00800984 0.08725095
v -0.00839941 0.00841006 0.09036277
v -0.00901214 0.00802645 0.08934558
v -0.00764443 0.00776216 0.09027771
v 0.00070679 0.00427347 0.08856940
v -0.00769367 0.00518869 0.08793498
v -0.00782497 0.00426441 0.08666969
v 0.00072867 0.00302449 0.08647476
v 0.00817448 0.00289612 0.08577300
v 0.00882277 0.00331748 0.08641096
v 0.01001541 0.00309094 0.08510314
v 0.00963792 0.00130129 0.08190271
v 0.01038469 0.00013689 0.07882278
v 0.00937259 -0.00235805 0.07310241
v 0.00970357 -0.00024672 0.07838330
v 0.00894586 -0.00153648 0.07551957
v 0.00819363 -0.00324910 0.07088372
v 0.00665085 -0.00666530 0.05559041
v 0.00650587 -0.00632700 0.05849312
v 0.00241643 -0.00592527 0.06039637
v 0.00301001 -0.00623034 0.05879084
v 0.00195688 -0.00498137 0.06490816
v 0.00232616 -0.00537101 0.06310061
v 0.00083536 -0.00437877 0.06690356
v 0.00730461 -0.00268427 0.07260267
v 0.00135782 -0.00161199 0.07548767
v 0.00124840 -0.00270843 0.07221989
v 0.00148365 -0.00370973 0.06917895
v -0.00949084 0.00771232 0.08750613
v -0.01032514 0.00661286 0.08413558
v -0.00888631 0.00763681 0.08932077
v -0.00821614 0.00752958 0.08988076
v -0.00947169 0.00747068 0.08827877
v -0.00818878 0.00485794 0.08721551
v -0.00839667 0.00621868 0.08845598
v -0.00992030 0.00318005 0.08258674
v -0.00968232 0.00141456 0.07930835
v -0.00742560 0.00137529 0.08121867
v 0.00050437 0.00237206 0.08526263
v 0.00114993 0.00180874 0.08425608
v 0.00800488 0.00167130 0.08326015
v 0.00856017 0.00135868 0.08254422
v 0.00830304 -0.00226442 0.07368012
v 0.00832492 0.00075458 0.08125766
v 0.00119096 0.00085275 0.08205866
v 0.00608735 -0.00667889 0.05559041
v 0.00582202 -0.00649464 0.05708607
v -0.00431817 -0.00585580 0.05940399
v -0.00341275 -0.00614124 0.05811744
v 0.00105692 -0.00539517 0.06274264
v -0.00651197 -0.00449506 0.06541144
v -0.00684569 -0.00342580 0.06896275
v 0.00125387 -0.00072245 0.07797571
v -0.00691408 -0.00198351 0.07341784
v -0.01101447 0.00549225 0.08287738
v -0.01137828 0.00516150 0.08025111
v -0.00970147 0.00580336 0.08626211
v -0.00876322 0.00572634 0.08756992
v -0.01109653 0.00452719 0.08210119
v -0.01056586 0.00449397 0.08330622
v -0.00904770 0.00482321 0.08610971
v -0.01039900 0.00384305 0.08288446
v -0.01047012 0.00274510 0.08100603
v -0.01033608 0.00179515 0.07941467
v -0.01067527 -0.00028750 0.07445984
v -0.00726148 -0.00048383 0.07736256
v -0.00682928 -0.00118308 0.07564007
v -0.00367261 -0.00639949 0.05575344
v -0.00362064 -0.00641611 0.05559041
v -0.00703717 -0.00487716 0.06344440
v -0.00563117 -0.00566702 0.05997460
v -0.00530292 -0.00600230 0.05841161
v -0.00554911 -0.00626055 0.05643393
v -0.00734080 -0.00420207 0.06621952
v -0.00770461 -0.00351038 0.06821492
v -0.00802192 -0.00187930 0.07292165
v -0.00888631 -0.00253626 0.07041943
v -0.00755964 -0.00246981 0.07150397
v -0.01155881 0.00457401 0.08058780
v -0.01401522 -0.00084025 0.05629216
v -0.01253809 0.00301392 0.07368012
v -0.01381553 0.00037249 0.06348693
v -0.01265845 0.00277832 0.07455554
v -0.01179406 0.00437013 0.07868810
v -0.00961667 0.00500746 0.08556389
v -0.01283078 0.00224218 0.07385024
v -0.01155334 0.00333258 0.07926936
v -0.01092146 0.00320572 0.08077211
v -0.01121689 0.00180270 0.07785167
v -0.01108832 0.00116839 0.07693726
v -0.01090505 0.00048727 0.07586336
v -0.01123330 -0.00106528 0.07194345
v -0.01053577 -0.00134769 0.07213838
v -0.00922824 -0.00153043 0.07289330
v -0.00391059 -0.00640402 0.05559041
v -0.00801098 -0.00450412 0.06446160
v -0.00801645 -0.00512333 0.06153761
v -0.00690587 -0.00540726 0.06076143
v -0.00742560 -0.00577274 0.05841161
v -0.00779762 -0.00594340 0.05679544
v -0.00682381 -0.00618051 0.05559041
v -0.00937869 -0.00411448 0.06473804
v -0.00927748 -0.00342127 0.06723672
v -0.01058227 -0.00207413 0.07011817
v -0.01406719 -0.00127671 0.05667139
v -0.01412190 -0.00105168 0.05865970
v -0.01408907 -0.00047024 0.06093509
v -0.01398513 -0.00027541 0.06001360
v -0.01358849 0.00088597 0.06608130
v -0.01367876 0.00080593 0.06727925
v -0.01381006 0.00044951 0.06554613
v -0.01312074 0.00184800 0.07181586
v -0.01324109 0.00097961 0.07029893
v -0.01286908 0.00049633 0.07129485
v -0.01257639 0.00128317 0.07337531
v -0.01214146 0.00100528 0.07417986
v -0.01158617 0.00197638 0.07715700
v -0.01186792 0.00033473 0.07376517
v -0.01164908 -0.00055481 0.07248217
v -0.01166550 -0.00163615 0.06972121
v -0.00892187 -0.00464307 0.06305808
v -0.00932398 -0.00506292 0.06042827
v -0.00906685 -0.00559302 0.05732707
v -0.00840488 -0.00592074 0.05559041
v -0.00786874 -0.00604609 0.05559041
v -0.01044276 -0.00345450 0.06578358
v -0.01008716 -0.00438028 0.06256189
v -0.01085034 -0.00249096 0.06847720
v -0.01398239 -0.00149570 0.05559041
v -0.01405351 -0.00137488 0.05948196
v -0.01397692 -0.00109095 0.06187786
v -0.01380186 -0.00008210 0.06555322
v -0.01311800 -0.00003226 0.06922148
v -0.01247244 -0.00006700 0.07148270
v -0.01267760 -0.00071037 0.06954400
v -0.01206487 -0.00059559 0.07145080
v -0.01223173 -0.00129181 0.06936680
v -0.01228370 -0.00232936 0.06613092
v -0.01189801 -0.00244716 0.06670509
v -0.01085034 -0.00443465 0.06071889
v -0.01024308 -0.00501006 0.05877312
v -0.01018016 -0.00530758 0.05653671
v -0.01160258 -0.00303314 0.06525550
v -0.01070263 -0.00385321 0.06374921
v -0.01355840 -0.00241393 0.05559041
v -0.01340796 -0.00228405 0.06060902
v -0.01351737 -0.00240336 0.05799693
v -0.01352284 -0.00161199 0.06285961
v -0.01374168 -0.00093388 0.06414616
v -0.01287729 -0.00163162 0.06620535
v -0.01279522 -0.00221911 0.06461754
v -0.01233294 -0.00313885 0.06265759
v -0.01186792 -0.00374900 0.06138167
v -0.01130169 -0.00455245 0.05849312
v -0.01115124 -0.00491793 0.05559041
v -0.01087222 -0.00505688 0.05559041
v -0.01291285 -0.00276129 0.06168292
v -0.01288823 -0.00344091 0.05756099
v -0.01243962 -0.00369765 0.05912045
v -0.01192810 -0.00425493 0.05773466
v -0.01278975 -0.00363724 0.05559041
v -0.01251347 -0.00396345 0.05633823
v -0.01247791 -0.00401480 0.05559041
v 0.01344108 -0.00324414 0.05391365
v 0.01301712 -0.00369318 0.05173326
v 0.01193697 -0.00498791 0.05528945
v 0.01235013 -0.00456282 0.05339158
v 0.01271198 -0.00418413 0.05484723
v 0.01128078 -0.00549683 0.05508063
v 0.01122407 -0.00554173 0.05211405
v 0.01174794 -0.00511215 0.05220619
v 0.01091082 -0.00567495 0.05559041
v 0.01040045 -0.00602221 0.05428217
v 0.01066239 -0.00590545 0.05210792
v 0.01038695 -0.00596233 0.05559041
v 0.00941751 -0.00638144 0.05454013
v 0.00940941 -0.00644281 0.05267297
v 0.01001970 -0.00621380 0.05165955
v 0.00833466 -0.00655656 0.05504991
v 0.00828335 -0.00668529 0.05300464
v 0.00825635 -0.00672271 0.05044959
v 0.00843997 -0.00649220 0.05559041
v 0.00807542 -0.00653411 0.05559041
v 0.00711408 -0.00683048 0.05343458
v 0.00709788 -0.00690981 0.05142616
v 0.00633097 -0.00691430 0.05264841
v 0.00621756 -0.00676911 0.05484723
v 0.00559647 -0.00702357 0.04981083
v 0.00535614 -0.00694124 0.05228603
v 0.00518331 -0.00677809 0.05476738
v 0.00541014 -0.00667780 0.05559041
v 0.00385472 -0.00696220 0.05140773
v 0.00309051 -0.00685742 0.05289409
v -0.00280442 -0.00666284 0.05312748
v -0.00336610 -0.00679456 0.05009949
v -0.00523207 -0.00666134 0.05145073
v -0.00564253 -0.00632905 0.05559041
v -0.00578565 -0.00643083 0.05430673
v -0.00672538 -0.00645179 0.05216319
v -0.00794055 -0.00614943 0.05437430
v -0.00768402 -0.00630959 0.04983540
v -0.00846983 -0.00612399 0.05150601
v -0.00928534 -0.00567345 0.05559041
v -0.00943927 -0.00573033 0.05434973
v -0.01386790 -0.00178775 0.05414705
v -0.00942576 -0.00582014 0.05148143
v -0.00986053 -0.00549084 0.05559041
v -0.01113241 -0.00496247 0.05523417
v -0.01041680 -0.00540852 0.05190523
v -0.01283365 -0.00349111 0.05227374
v -0.01342773 -0.00260650 0.05380924
v -0.01196953 -0.00447751 0.05457084
v -0.01132953 -0.00492206 0.05235359
v -0.01195872 -0.00440566 0.05559041
v -0.01236918 -0.00416318 0.05344072
v -0.01286875 -0.00354350 0.05537543
v -0.01287145 -0.00353452 0.05559041
v -0.01228547 -0.00417964 0.05559041
f 322 397 376
f 376 397 398
f 398 397 421
f 421 420 443
f 397 420 421
f 343 242 342
f 638 639 1
f 1 639 7
f 398 377 399
f 399 376 398
f 315 420 397
f 443 420 298
f 523 551 116
f 523 548 549
f 639 638 637
f 635 637 638
f 1 631 635
f 635 638 1
f 607 131 323
f 621 16 30
f 98 648 77
f 8 7 17
f 443 298 277
f 277 444 443
f 278 444 277
f 420 315 314
f 550 523 549
f 551 523 550
f 550 525 551
f 213 344 333
f 242 344 213
f 377 358 311
f 342 242 270
f 242 343 332
f 332 344 242
f 343 344 332
f 632 635 631
f 633 637 636
f 637 635 636
f 636 632 633
f 635 632 636
f 131 607 111
f 323 324 325
f 325 324 329
f 6 631 1
f 16 621 620
f 90 610 91
f 47 621 30
f 71 653 654
f 654 648 71
f 548 77 572
f 77 648 572
f 90 91 69
f 613 70 69
f 53 73 77
f 71 648 72
f 648 92 72
f 93 98 77
f 77 73 93
f 73 72 93
f 93 72 92
f 648 98 93
f 93 92 648
f 17 7 649
f 642 7 639
f 644 7 642
f 30 16 15
f 16 6 15
f 278 277 295
f 420 314 313
f 317 397 322
f 317 315 397
f 446 421 443
f 443 444 472
f 472 446 443
f 476 446 472
f 472 444 278
f 503 476 502
f 552 525 553
f 323 129 154
f 154 153 323
f 183 213 333
f 182 153 181
f 321 399 377
f 322 376 321
f 376 399 321
f 293 292 342
f 292 293 269
f 269 268 266
f 342 270 269
f 269 293 342
f 269 270 242
f 554 575 553
f 550 575 554
f 553 525 554
f 525 550 554
f 90 607 608
f 608 610 90
f 131 111 110
f 110 607 90
f 110 111 607
f 323 153 327
f 326 607 323
f 323 325 326
f 326 325 607
f 607 325 331
f 331 608 607
f 621 47 617
f 617 70 613
f 617 47 70
f 622 627 623
f 631 6 628
f 623 627 628
f 628 6 16
f 624 620 623
f 16 620 624
f 623 628 624
f 624 628 16
f 623 620 619
f 619 622 623
f 614 91 610
f 613 69 614
f 614 69 91
f 648 654 588
f 588 660 590
f 97 96 77
f 97 77 548
f 548 523 97
f 150 154 129
f 153 154 150
f 107 87 106
f 70 47 46
f 46 69 70
f 77 96 75
f 75 53 77
f 75 76 51
f 51 53 75
f 73 53 49
f 49 72 73
f 71 72 49
f 645 7 644
f 645 649 7
f 644 642 645
f 17 649 652
f 43 26 42
f 5 6 1
f 5 15 6
f 19 655 658
f 19 8 17
f 602 605 603
f 603 605 657
f 661 657 605
f 655 657 661
f 48 658 653
f 48 653 71
f 71 49 48
f 297 298 420
f 420 313 297
f 297 313 298
f 500 476 503
f 476 472 498
f 498 502 476
f 559 557 577
f 558 557 559
f 172 144 170
f 175 172 170
f 170 169 175
f 140 169 170
f 147 172 175
f 147 144 172
f 125 144 147
f 200 169 199
f 168 169 140
f 279 247 278
f 216 219 187
f 247 279 248
f 135 525 160
f 551 525 135
f 116 551 135
f 233 208 207
f 146 174 149
f 173 174 146
f 207 208 205
f 206 174 205
f 153 150 128
f 128 150 129
f 129 107 128
f 179 174 206
f 149 174 179
f 206 205 179
f 179 205 208
f 213 183 211
f 211 181 213
f 182 181 211
f 210 181 180
f 180 179 210
f 312 311 358
f 358 294 312
f 266 268 267
f 242 268 271
f 271 269 242
f 268 269 271
f 593 592 594
f 591 600 594
f 594 592 591
f 591 589 600
f 573 550 549
f 590 589 573
f 549 548 573
f 573 588 590
f 548 572 573
f 573 572 648
f 648 588 573
f 575 592 576
f 627 630 629
f 629 628 627
f 633 632 629
f 629 630 633
f 629 632 631
f 631 628 629
f 634 464 633
f 610 608 611
f 611 331 610
f 608 331 611
f 394 393 372
f 414 393 394
f 403 379 402
f 424 425 403
f 333 344 345
f 345 346 333
f 345 344 343
f 359 343 342
f 342 358 359
f 358 379 359
f 381 379 403
f 381 359 379
f 380 359 381
f 625 393 414
f 414 437 625
f 622 619 415
f 415 619 393
f 415 625 622
f 393 625 415
f 616 620 621
f 616 619 620
f 621 617 616
f 372 393 373
f 393 619 373
f 373 616 615
f 590 660 601
f 601 660 605
f 601 589 590
f 605 602 601
f 600 589 601
f 601 602 600
f 653 658 659
f 659 654 653
f 659 588 654
f 660 588 659
f 96 97 113
f 113 523 116
f 113 97 523
f 116 135 132
f 132 135 155
f 187 165 159
f 159 165 138
f 51 76 52
f 131 110 109
f 87 107 108
f 131 109 108
f 30 15 29
f 29 47 30
f 29 46 47
f 35 53 51
f 35 49 53
f 32 35 20
f 49 35 32
f 31 48 32
f 32 48 49
f 468 469 442
f 442 460 468
f 633 464 492
f 84 85 62
f 118 137 122
f 122 144 123
f 4 5 1
f 11 13 4
f 33 19 658
f 31 19 33
f 658 48 33
f 33 48 31
f 8 19 18
f 18 19 31
f 18 32 20
f 31 32 18
f 17 652 656
f 656 19 17
f 655 19 656
f 298 313 300
f 300 277 298
f 295 296 274
f 575 576 556
f 556 576 557
f 553 575 556
f 556 555 553
f 502 498 522
f 499 248 220
f 499 522 498
f 220 188 499
f 558 559 530
f 442 441 419
f 412 433 413
f 413 391 412
f 396 391 413
f 413 419 396
f 456 432 431
f 432 456 434
f 412 432 434
f 408 386 385
f 488 459 487
f 403 425 426
f 175 169 196
f 169 195 196
f 207 177 196
f 200 199 198
f 198 199 169
f 169 197 198
f 167 168 140
f 142 171 167
f 167 171 168
f 144 122 145
f 145 122 137
f 136 137 118
f 245 234 219
f 249 248 279
f 161 135 160
f 201 169 200
f 207 195 227
f 227 201 233
f 232 201 200
f 233 201 232
f 126 106 125
f 125 146 126
f 204 205 174
f 207 205 204
f 204 177 207
f 176 147 175
f 175 196 176
f 176 196 177
f 151 128 149
f 149 179 151
f 151 179 180
f 180 181 151
f 238 260 239
f 239 260 240
f 213 181 212
f 181 210 212
f 212 239 240
f 212 210 238
f 238 239 212
f 310 312 294
f 310 294 358
f 310 358 342
f 342 292 310
f 292 269 291
f 291 269 266
f 266 289 291
f 312 310 309
f 309 310 292
f 292 291 309
f 377 311 319
f 319 321 377
f 574 575 550
f 550 573 574
f 574 592 575
f 574 591 592
f 589 591 574
f 574 573 589
f 354 373 615
f 356 371 354
f 354 371 372
f 372 373 354
f 330 341 331
f 330 325 329
f 330 331 325
f 372 371 392
f 392 394 372
f 412 391 390
f 390 389 412
f 370 389 390
f 390 369 370
f 391 369 390
f 375 391 396
f 375 392 371
f 375 371 356
f 356 369 375
f 375 369 391
f 348 335 333
f 329 324 328
f 328 324 323
f 323 327 328
f 378 402 379
f 378 377 398
f 398 400 378
f 378 358 377
f 378 379 358
f 401 400 398
f 401 378 400
f 402 378 401
f 403 402 401
f 401 424 403
f 421 446 445
f 474 446 476
f 476 500 474
f 474 445 446
f 475 445 474
f 461 630 627
f 627 437 461
f 622 625 626
f 626 625 437
f 627 622 626
f 626 437 627
f 619 616 618
f 618 373 619
f 616 373 618
f 606 659 658
f 606 661 605
f 658 655 606
f 655 661 606
f 605 660 604
f 660 659 604
f 604 606 605
f 659 606 604
f 96 113 114
f 114 113 116
f 116 132 114
f 166 165 187
f 166 171 142
f 187 171 166
f 74 52 76
f 50 52 74
f 76 94 74
f 23 22 38
f 23 10 22
f 61 84 62
f 26 13 25
f 25 13 11
f 131 108 130
f 130 108 107
f 130 107 129
f 130 129 323
f 323 131 130
f 27 26 43
f 27 13 26
f 69 46 68
f 89 109 110
f 89 110 90
f 89 68 67
f 90 69 89
f 69 68 89
f 488 510 496
f 469 468 496
f 596 602 603
f 585 598 599
f 570 545 569
f 442 469 470
f 470 471 442
f 633 492 511
f 515 492 491
f 465 494 491
f 442 471 467
f 467 441 442
f 465 441 467
f 467 494 465
f 64 65 43
f 106 87 86
f 86 64 85
f 65 64 86
f 66 89 67
f 66 86 87
f 65 86 66
f 3 4 1
f 3 10 11
f 11 4 3
f 651 656 652
f 599 598 651
f 655 656 651
f 651 657 655
f 651 598 603
f 603 657 651
f 299 296 295
f 299 295 277
f 277 300 299
f 296 302 290
f 275 274 296
f 296 290 275
f 276 245 244
f 244 275 276
f 274 275 244
f 246 249 244
f 553 555 526
f 473 498 472
f 473 499 498
f 278 247 473
f 473 472 278
f 247 248 473
f 248 499 473
f 502 522 529
f 529 530 502
f 558 530 529
f 522 526 529
f 529 526 555
f 529 557 558
f 529 556 557
f 555 556 529
f 502 530 531
f 442 419 436
f 436 460 442
f 436 413 433
f 419 413 436
f 431 432 409
f 335 348 349
f 386 409 388
f 388 409 389
f 457 434 459
f 433 434 457
f 457 436 433
f 460 436 457
f 435 433 412
f 412 434 435
f 435 434 433
f 364 385 384
f 384 385 386
f 453 426 452
f 426 451 452
f 459 434 458
f 458 487 459
f 458 434 456
f 456 455 458
f 407 381 403
f 403 426 407
f 408 385 405
f 405 428 408
f 226 195 207
f 207 196 226
f 226 196 195
f 168 171 194
f 169 168 194
f 194 197 169
f 194 198 197
f 142 167 143
f 143 167 140
f 164 170 144
f 144 145 164
f 140 170 164
f 164 137 140
f 164 145 137
f 140 137 141
f 137 136 141
f 95 94 76
f 76 75 95
f 95 75 96
f 78 94 100
f 78 74 94
f 219 216 218
f 218 245 219
f 156 132 155
f 248 249 222
f 220 248 222
f 222 188 220
f 189 161 160
f 189 499 188
f 280 249 279
f 280 279 278
f 278 295 280
f 295 274 280
f 135 161 162
f 161 191 162
f 163 191 192
f 163 156 155
f 184 156 163
f 163 162 191
f 155 135 163
f 135 162 163
f 235 233 207
f 207 227 235
f 235 227 233
f 202 227 195
f 201 227 202
f 202 195 169
f 169 201 202
f 208 233 236
f 236 237 208
f 233 237 236
f 209 179 208
f 208 237 209
f 209 237 238
f 238 210 209
f 209 210 179
f 261 237 233
f 233 260 261
f 238 237 261
f 261 260 238
f 266 240 265
f 265 289 266
f 262 260 233
f 289 265 262
f 240 260 262
f 262 265 240
f 127 107 106
f 106 126 127
f 127 126 146
f 127 128 107
f 127 146 149
f 149 128 127
f 178 174 173
f 178 204 174
f 177 204 178
f 152 181 153
f 152 151 181
f 153 128 152
f 128 151 152
f 241 212 240
f 241 240 266
f 266 267 241
f 241 268 242
f 241 267 268
f 242 213 241
f 213 212 241
f 288 289 258
f 288 291 289
f 288 309 291
f 312 309 308
f 320 319 311
f 307 319 320
f 320 308 307
f 311 312 320
f 312 308 320
f 318 319 307
f 318 317 322
f 322 321 318
f 321 319 318
f 315 317 316
f 317 305 316
f 303 313 314
f 303 300 313
f 303 299 300
f 258 232 257
f 198 228 229
f 229 228 251
f 356 354 340
f 341 330 340
f 612 617 613
f 615 616 612
f 612 616 617
f 394 392 395
f 395 375 396
f 392 375 395
f 337 330 329
f 329 339 337
f 337 340 330
f 338 339 329
f 336 328 335
f 339 338 336
f 329 328 336
f 336 338 329
f 333 335 334
f 335 328 334
f 334 328 327
f 182 211 334
f 334 153 182
f 334 327 153
f 334 183 333
f 334 211 183
f 421 445 422
f 398 421 422
f 422 401 398
f 447 445 475
f 475 474 478
f 360 345 343
f 360 363 345
f 343 359 360
f 360 359 380
f 380 363 360
f 462 461 437
f 437 438 462
f 630 461 462
f 462 438 464
f 462 634 633
f 96 114 115
f 186 216 187
f 187 159 186
f 186 218 216
f 215 186 185
f 158 184 185
f 185 159 158
f 185 186 159
f 243 249 246
f 21 36 22
f 34 52 50
f 50 36 34
f 20 35 34
f 34 21 20
f 36 21 34
f 51 52 34
f 34 35 51
f 50 74 54
f 54 78 55
f 74 78 54
f 10 23 24
f 24 23 40
f 11 10 24
f 24 25 11
f 40 25 24
f 41 25 40
f 62 42 41
f 41 61 62
f 41 42 26
f 26 25 41
f 28 29 15
f 46 29 28
f 12 4 13
f 5 4 12
f 44 27 43
f 44 66 67
f 43 65 44
f 65 66 44
f 471 470 497
f 497 470 469
f 469 496 497
f 497 496 510
f 486 496 468
f 486 468 460
f 486 459 488
f 488 496 486
f 486 457 459
f 460 457 486
f 597 596 603
f 603 598 597
f 598 585 597
f 597 585 584
f 583 565 570
f 584 565 583
f 583 597 584
f 596 597 583
f 594 600 595
f 600 602 595
f 602 596 595
f 647 651 652
f 647 652 649
f 649 645 647
f 564 545 570
f 570 565 564
f 586 595 596
f 571 582 586
f 586 569 571
f 546 569 545
f 546 545 517
f 520 547 546
f 571 569 546
f 546 547 571
f 581 593 594
f 581 580 593
f 594 595 581
f 581 586 582
f 595 586 581
f 593 580 578
f 577 557 578
f 557 576 578
f 592 593 578
f 578 576 592
f 512 637 633
f 633 511 512
f 516 492 515
f 516 511 492
f 516 543 544
f 515 491 514
f 463 492 464
f 463 491 492
f 464 438 463
f 438 440 463
f 544 543 568
f 566 543 565
f 584 585 566
f 566 565 584
f 62 85 63
f 85 64 63
f 63 42 62
f 43 42 63
f 63 64 43
f 106 86 105
f 105 86 85
f 125 106 105
f 109 89 88
f 89 66 88
f 88 108 109
f 87 108 88
f 88 66 87
f 84 61 82
f 82 103 84
f 103 82 102
f 102 122 123
f 59 56 55
f 55 79 59
f 55 56 37
f 50 54 37
f 37 54 55
f 37 36 50
f 22 36 37
f 38 22 37
f 37 56 38
f 10 3 9
f 8 18 9
f 22 10 9
f 9 21 22
f 9 18 20
f 20 21 9
f 263 245 276
f 234 245 263
f 276 275 263
f 263 275 290
f 274 244 273
f 273 280 274
f 522 499 527
f 527 526 522
f 499 526 527
f 553 526 524
f 524 526 499
f 524 552 553
f 525 552 524
f 499 189 524
f 160 525 524
f 524 189 160
f 559 532 560
f 560 532 531
f 560 530 559
f 560 531 530
f 410 386 408
f 410 409 386
f 410 408 431
f 431 409 410
f 412 389 411
f 389 409 411
f 411 432 412
f 411 409 432
f 364 349 361
f 361 349 362
f 362 345 361
f 361 363 364
f 345 363 361
f 362 349 347
f 347 349 348
f 346 345 347
f 347 345 362
f 333 346 347
f 347 348 333
f 386 388 387
f 367 387 388
f 386 387 366
f 387 367 366
f 453 452 485
f 485 455 453
f 452 484 485
f 487 458 485
f 485 458 455
f 453 455 454
f 380 381 406
f 381 407 406
f 382 363 380
f 380 405 382
f 224 228 225
f 225 228 198
f 225 194 224
f 198 194 225
f 251 228 250
f 250 228 224
f 224 194 223
f 223 250 224
f 234 250 223
f 139 166 142
f 165 166 139
f 138 165 139
f 139 120 138
f 80 79 55
f 55 78 80
f 133 114 132
f 132 156 133
f 193 163 192
f 184 163 193
f 193 185 184
f 259 262 233
f 289 262 259
f 258 289 259
f 259 232 258
f 233 232 259
f 148 176 177
f 177 178 148
f 148 178 173
f 148 146 125
f 173 146 148
f 125 147 148
f 147 176 148
f 309 288 287
f 287 308 309
f 287 288 258
f 307 308 287
f 287 285 307
f 304 314 315
f 315 316 304
f 304 303 314
f 304 316 305
f 231 232 200
f 231 257 232
f 306 283 305
f 306 305 317
f 317 318 306
f 306 318 307
f 374 354 615
f 615 612 374
f 609 612 613
f 609 357 612
f 613 614 609
f 609 614 610
f 341 357 609
f 610 331 609
f 331 341 609
f 394 395 416
f 414 394 416
f 416 437 414
f 416 438 437
f 396 419 417
f 417 395 396
f 356 340 353
f 340 337 353
f 353 369 356
f 423 422 445
f 425 424 423
f 424 401 423
f 401 422 423
f 423 447 425
f 445 447 423
f 448 426 425
f 448 451 426
f 450 482 451
f 451 448 450
f 450 448 425
f 464 634 490
f 490 462 464
f 634 462 490
f 633 630 489
f 489 462 633
f 630 462 489
f 100 94 112
f 96 115 112
f 112 95 96
f 94 95 112
f 119 120 100
f 100 112 119
f 119 112 115
f 218 186 217
f 217 244 245
f 245 218 217
f 217 186 215
f 246 244 217
f 217 243 246
f 215 243 217
f 249 243 221
f 221 222 249
f 188 222 221
f 221 189 188
f 46 28 45
f 45 28 27
f 27 44 45
f 45 68 46
f 67 68 45
f 45 44 67
f 27 28 14
f 13 27 14
f 14 12 13
f 14 28 15
f 15 5 14
f 5 12 14
f 518 546 517
f 520 546 518
f 471 497 495
f 495 467 471
f 494 467 495
f 517 494 495
f 495 518 517
f 497 518 495
f 537 547 520
f 483 452 451
f 451 482 483
f 483 484 452
f 483 485 484
f 488 487 483
f 487 485 483
f 650 585 599
f 599 651 650
f 651 647 650
f 650 647 646
f 650 566 585
f 646 566 650
f 517 545 539
f 545 564 539
f 570 569 587
f 569 586 587
f 587 583 570
f 596 583 587
f 587 586 596
f 561 559 577
f 561 532 559
f 533 562 534
f 532 561 533
f 533 561 562
f 571 547 563
f 563 562 580
f 563 582 571
f 563 581 582
f 580 581 563
f 641 642 639
f 639 637 641
f 538 512 511
f 511 516 538
f 637 512 538
f 465 491 493
f 491 463 493
f 646 647 643
f 643 647 645
f 643 645 642
f 642 641 643
f 544 568 643
f 643 641 544
f 103 102 124
f 124 144 125
f 125 105 124
f 123 144 124
f 124 102 123
f 84 103 104
f 85 84 104
f 104 105 85
f 103 124 104
f 104 124 105
f 83 102 82
f 83 82 81
f 79 80 83
f 81 59 83
f 83 59 79
f 58 41 40
f 38 56 39
f 56 59 39
f 39 58 40
f 39 23 38
f 40 23 39
f 8 9 2
f 2 9 3
f 7 8 2
f 1 7 2
f 2 3 1
f 272 244 249
f 272 273 244
f 249 280 272
f 280 273 272
f 335 349 350
f 350 336 335
f 349 366 350
f 350 366 367
f 368 367 388
f 368 389 370
f 368 388 389
f 365 384 386
f 386 366 365
f 364 384 365
f 365 349 364
f 365 366 349
f 430 455 456
f 430 454 455
f 431 408 430
f 430 456 431
f 408 428 430
f 428 454 430
f 380 406 404
f 404 405 380
f 428 405 404
f 429 426 453
f 453 454 429
f 429 407 426
f 429 406 407
f 383 405 385
f 383 382 405
f 363 382 383
f 383 385 364
f 364 363 383
f 251 250 264
f 264 263 290
f 234 263 264
f 264 250 234
f 219 234 203
f 234 223 203
f 187 219 203
f 203 171 187
f 203 194 171
f 203 223 194
f 100 120 121
f 121 117 100
f 121 141 136
f 121 136 118
f 118 117 121
f 120 139 121
f 140 141 121
f 121 143 140
f 142 143 121
f 121 139 142
f 118 122 101
f 122 102 101
f 102 83 101
f 101 83 80
f 99 117 118
f 118 101 99
f 99 101 80
f 99 80 78
f 99 78 100
f 100 117 99
f 134 133 156
f 138 120 134
f 114 133 134
f 134 115 114
f 158 159 134
f 134 159 138
f 120 119 134
f 134 119 115
f 215 185 214
f 185 193 214
f 214 243 215
f 214 193 192
f 214 221 243
f 307 285 284
f 284 306 307
f 283 306 284
f 254 285 255
f 254 253 283
f 283 284 254
f 254 284 285
f 255 229 254
f 229 253 254
f 258 257 286
f 286 287 258
f 285 287 286
f 198 229 230
f 200 198 230
f 230 231 200
f 230 229 255
f 255 231 230
f 252 229 251
f 252 253 229
f 612 357 355
f 355 374 612
f 354 374 355
f 355 357 341
f 341 340 355
f 355 340 354
f 418 440 438
f 438 416 418
f 418 416 395
f 395 417 418
f 352 337 339
f 352 353 337
f 352 368 370
f 370 369 352
f 369 353 352
f 475 478 449
f 449 450 425
f 425 447 449
f 449 447 475
f 521 497 520
f 520 518 521
f 521 518 497
f 482 450 481
f 481 483 482
f 535 563 547
f 562 563 535
f 534 562 535
f 535 508 534
f 520 497 519
f 540 539 564
f 540 564 565
f 579 561 577
f 562 561 579
f 577 578 579
f 579 578 580
f 580 562 579
f 637 538 640
f 640 538 516
f 640 641 637
f 640 516 544
f 544 641 640
f 465 493 466
f 466 493 463
f 466 463 440
f 567 643 568
f 567 568 543
f 543 566 567
f 567 566 646
f 646 643 567
f 57 59 81
f 81 82 57
f 57 39 59
f 58 39 57
f 339 336 351
f 336 350 351
f 351 350 367
f 367 368 351
f 351 352 339
f 368 352 351
f 428 404 427
f 427 404 406
f 427 454 428
f 427 429 454
f 406 429 427
f 158 134 157
f 157 134 156
f 157 184 158
f 157 156 184
f 190 214 192
f 221 214 190
f 189 221 190
f 161 189 190
f 192 191 190
f 190 191 161
f 255 285 256
f 285 286 256
f 256 231 255
f 257 231 256
f 256 286 257
f 281 252 251
f 281 290 302
f 251 264 281
f 281 264 290
f 253 252 281
f 440 418 439
f 439 441 465
f 439 419 441
f 465 466 439
f 439 466 440
f 439 417 419
f 439 418 417
f 501 474 500
f 501 478 474
f 483 481 509
f 509 497 510
f 509 519 497
f 509 537 520
f 520 519 509
f 509 510 488
f 488 483 509
f 508 535 536
f 536 509 508
f 537 509 536
f 547 537 536
f 536 535 547
f 539 540 513
f 513 494 517
f 517 539 513
f 540 541 513
f 513 491 494
f 513 514 491
f 515 514 513
f 513 541 515
f 565 543 542
f 542 540 565
f 542 541 540
f 515 541 542
f 542 516 515
f 543 516 542
f 507 533 534
f 534 508 507
f 503 502 505
f 502 531 505
f 505 479 504
f 60 57 82
f 58 57 60
f 60 82 61
f 61 41 60
f 41 58 60
f 301 281 302
f 299 303 301
f 301 302 296
f 296 299 301
f 253 281 282
f 282 304 305
f 303 304 282
f 305 283 282
f 283 253 282
f 282 301 303
f 281 301 282
f 450 449 477
f 477 501 504
f 477 449 478
f 478 501 477
f 477 479 450
f 504 479 477
f 532 533 506
f 533 507 506
f 506 507 479
f 479 505 506
f 531 532 506
f 506 505 531
f 508 509 480
f 480 507 508
f 480 509 481
f 479 507 480
f 480 481 450
f 450 479 480
f 528 505 504
f 528 501 500
f 504 501 528
f 528 500 503
f 503 505 528

