# https://github.com/mikedh/trimesh
v 0.00719700 -0.00000333 -0.05632397
v 0.00715060 -0.00072155 -0.05620667
v 0.00717028 -0.00053527 -0.05997477
v 0.00717450 0.00052344 -0.05956423
v 0.00700438 -0.00135491 -0.05666119
v 0.00697767 -0.00141183 -0.06147027
v 0.00704234 -0.00090576 -0.06472521
v 0.00704937 -0.00026412 -0.06910909
v 0.00715482 -0.00020617 -0.06215938
v 0.00707046 0.00061865 -0.06663124
v 0.00696502 0.00129444 -0.06756960
v 0.00664446 -0.00211142 -0.06787749
v 0.00686098 -0.00128350 -0.07045798
v 0.00683145 -0.00037900 -0.07330238
v 0.00695377 0.00043547 -0.07152829
v 0.00699595 0.00084426 -0.06960759
v 0.00709999 -0.00018547 -0.06575153
v 0.00671757 0.00173634 -0.07220273
v 0.00661915 0.00213478 -0.06717373
v 0.00605256 -0.00304180 -0.06771622
v 0.00646872 -0.00230391 -0.07029670
v 0.00659666 -0.00130834 -0.07412344
v 0.00651230 -0.00048145 -0.07712911
v 0.00674428 0.00109470 -0.07476857
v 0.00581495 0.00278159 -0.08311114
v 0.00560125 0.00316761 -0.08375628
v 0.00546206 -0.00348163 -0.06973955
v 0.00590353 -0.00305525 -0.07104445
v 0.00607786 -0.00252435 -0.07393284
v 0.00608630 -0.00177301 -0.07800882
v 0.00598929 -0.00098752 -0.08102917
v 0.00608208 0.00057829 -0.08163030
v 0.00632953 0.00021814 -0.07909381
v 0.00587541 0.00248044 -0.08280326
v 0.00488562 0.00193918 -0.08723113
v 0.00522164 0.00318210 -0.08576494
v 0.00340516 0.00464442 -0.08312581
v 0.00408001 0.00445917 -0.07868327
v 0.00488984 -0.00367723 -0.07261328
v 0.00477174 -0.00354476 -0.07683588
v 0.00535802 -0.00330259 -0.07463660
v 0.00537208 -0.00299833 -0.07797951
v 0.00566592 -0.00267130 -0.07771559
v 0.00565467 -0.00193859 -0.08105849
v 0.00539598 -0.00219628 -0.08214347
v 0.00522867 -0.00234531 -0.08265664
v 0.00382272 -0.00126798 -0.08755369
v 0.00403362 -0.00022066 -0.08777361
v 0.00456506 0.00137620 -0.08752436
v 0.00279919 0.00105227 -0.08860935
v 0.00319005 0.00204371 -0.08809618
v 0.00192470 0.00345945 -0.08811083
v 0.00497560 0.00269259 -0.08660067
v 0.00478720 -0.00258644 -0.08388823
v 0.00274296 0.00412904 -0.08673262
v 0.00284840 0.00471375 -0.08531042
v 0.00304945 0.00501284 -0.07991488
v 0.00413063 -0.00386040 -0.07453397
v 0.00387334 -0.00379210 -0.07888854
v 0.00474503 -0.00330984 -0.07995886
v 0.00510495 -0.00270752 -0.08149835
v 0.00287512 -0.00210625 -0.08784693
v 0.00245333 -0.00172437 -0.08844806
v 0.00423748 -0.00277479 -0.08479726
v 0.00308460 -0.00265785 -0.08695254
v 0.00417562 0.00086185 -0.08775895
v 0.00251519 -0.00066049 -0.08877062
v 0.00186846 0.00060727 -0.08912250
v 0.00128358 0.00231175 -0.08897589
v 0.00027974 0.00334354 -0.08852137
v 0.00064107 0.00420872 -0.08781760
v 0.00156758 0.00474584 -0.08662999
v 0.00444134 -0.00297453 -0.08309649
v 0.00132717 0.00521775 -0.08528110
v 0.00209903 0.00538644 -0.07941636
v 0.00280060 -0.00398149 -0.08133706
v 0.00367510 -0.00351992 -0.08265664
v 0.00150151 -0.00274996 -0.08816949
v 0.00140309 -0.00180716 -0.08897589
v 0.00288918 -0.00337607 -0.08545704
v 0.00240131 -0.00309044 -0.08687924
v 0.00103895 -0.00070085 -0.08929844
v 0.00050891 0.00078734 -0.08923980
v -0.00072411 0.00177877 -0.08903453
v -0.00135679 0.00302997 -0.08836009
v -0.00142427 0.00421700 -0.08742173
v -0.00100670 0.00487209 -0.08655667
v 0.00027693 0.00522914 -0.08597020
v 0.00039221 0.00567414 -0.07957764
v 0.00126109 0.00556548 -0.07850733
v -0.00619043 0.00311276 -0.06147027
v -0.00662628 0.00242559 -0.06082515
v -0.00671907 0.00206441 -0.05620667
v 0.00199921 -0.00394941 -0.08284724
v 0.00118517 -0.00390387 -0.08475327
v 0.00258830 -0.00379935 -0.08400553
v 0.00217636 -0.00406325 -0.07928441
v 0.00159008 -0.00356235 -0.08651269
v 0.00058342 -0.00315564 -0.08772963
v -0.00021234 -0.00246329 -0.08866798
v -0.00001411 -0.00164261 -0.08919582
v -0.00126399 -0.00075570 -0.08925445
v -0.00229174 0.00017882 -0.08897589
v -0.00242952 0.00208200 -0.08844806
v -0.00263057 0.00378959 -0.08709916
v -0.00268822 0.00440742 -0.08591156
v -0.00146364 0.00516704 -0.08519313
v -0.00040918 0.00534918 -0.08479726
v -0.00076488 0.00565344 -0.07904982
v -0.00583613 0.00345738 -0.06600078
v -0.00622980 0.00296063 -0.06556093
v -0.00696651 0.00131410 -0.05834730
v -0.00659394 0.00225690 -0.06572220
v -0.00693558 0.00142484 -0.06267255
v -0.00699463 0.00105434 -0.05425664
v -0.00715491 0.00007533 -0.05619201
v -0.00017860 -0.00405393 -0.07902049
v 0.00122453 -0.00408601 -0.07877124
v 0.00024459 -0.00379935 -0.08579427
v -0.00128649 -0.00296004 -0.08772963
v -0.00205132 -0.00216731 -0.08885858
v -0.00172233 -0.00139320 -0.08916649
v -0.00295675 -0.00097510 -0.08881460
v -0.00326184 0.00077388 -0.08833076
v -0.00332933 0.00224448 -0.08770031
v -0.00378486 0.00312208 -0.08642472
v -0.00394935 0.00363435 -0.08507583
v -0.00351491 0.00430497 -0.08403484
v -0.00242952 0.00499111 -0.08391755
v -0.00250685 0.00518567 -0.08161564
v -0.00205414 0.00540093 -0.07951900
v -0.00706915 -0.00068326 -0.05779015
v -0.00526251 0.00390136 -0.07034068
v -0.00573912 0.00339839 -0.07160161
v -0.00629588 0.00258082 -0.07035535
v -0.00716616 0.00031232 -0.06144095
v -0.00687232 0.00131824 -0.06645530
v -0.00681889 0.00115266 -0.07003278
v -0.00713242 0.00026368 -0.06456392
v -0.00709446 -0.00051560 -0.06368421
v -0.00169562 -0.00384488 -0.07937238
v -0.00163376 -0.00348267 -0.08567697
v -0.00243233 -0.00274375 -0.08755369
v -0.00272196 -0.00209590 -0.08863866
v -0.00366816 -0.00066049 -0.08797888
v -0.00406323 0.00090739 -0.08740707
v -0.00382703 -0.00141390 -0.08743639
v -0.00435567 0.00213581 -0.08629277
v -0.00484072 0.00301548 -0.08377093
v -0.00479292 0.00357122 -0.08199685
v -0.00401824 0.00430186 -0.08186489
v -0.00332089 0.00477378 -0.08193820
v -0.00336167 0.00492384 -0.07888854
v -0.00688919 -0.00119139 -0.06276052
v -0.00440488 0.00444778 -0.07460728
v -0.00491805 0.00404935 -0.07541368
v -0.00547621 0.00340771 -0.07665993
v -0.00613841 0.00243283 -0.07465126
v -0.00699745 0.00031542 -0.06934368
v -0.00602875 0.00213064 -0.07844868
v -0.00650818 0.00124373 -0.07469525
v -0.00673875 0.00031232 -0.07419675
v -0.00702697 -0.00029931 -0.06748162
v -0.00681748 -0.00095337 -0.06932902
v -0.00682592 -0.00122658 -0.06651395
v -0.00286255 -0.00348474 -0.08067728
v -0.00337010 -0.00305732 -0.08481193
v -0.00340806 -0.00212798 -0.08746571
v -0.00383406 -0.00257816 -0.08535440
v -0.00475637 -0.00037486 -0.08613149
v -0.00483088 0.00046548 -0.08605818
v -0.00454688 -0.00174196 -0.08544238
v -0.00526813 -0.00075673 -0.08459200
v -0.00497851 0.00130686 -0.08531042
v -0.00517393 0.00213788 -0.08371229
v -0.00535811 0.00286128 -0.08154233
v -0.00558587 0.00289543 -0.07966562
v -0.00494476 0.00377717 -0.07951900
v -0.00413353 0.00452023 -0.07819944
v -0.00665439 -0.00155671 -0.06180749
v -0.00690465 -0.00022687 -0.07133769
v -0.00630291 0.00099742 -0.07863929
v -0.00594158 0.00165252 -0.08038404
v -0.00653348 -0.00033036 -0.07676257
v -0.00655457 -0.00095233 -0.07463660
v -0.00650677 -0.00135077 -0.07283320
v -0.00645334 -0.00171919 -0.06699779
v -0.00623261 -0.00181026 -0.07164559
v -0.00632681 -0.00189099 -0.06440264
v -0.00584738 -0.00219835 -0.06831735
v -0.00558587 -0.00233806 -0.07114709
v -0.00468185 -0.00270856 -0.07685055
v -0.00362739 -0.00311528 -0.08170362
v -0.00396201 -0.00290105 -0.08353634
v -0.00494195 -0.00179888 -0.08397620
v -0.00588534 0.00037855 -0.08221678
v -0.00550152 0.00099742 -0.08355100
v -0.00567445 -0.00089748 -0.08229009
v -0.00617075 0.00022849 -0.08038404
v -0.00622839 -0.00059322 -0.07919644
v -0.00622699 -0.00142114 -0.07635204
v -0.00587550 -0.00189409 -0.07608813
v -0.00509942 -0.00243017 -0.07781822
v -0.00480557 -0.00252124 -0.07979757
v -0.00557744 -0.00189616 -0.07890320
v -0.00607374 -0.00123796 -0.07849267
v 0.00319162 -0.00623948 0.08865286
v 0.00381747 -0.00612497 0.08513485
v 0.00465980 -0.00599917 0.08606031
v 0.00435541 -0.00603304 0.08777414
v 0.00279145 -0.00621690 0.08961883
v 0.00005320 -0.00579113 0.08455215
v 0.00421895 -0.00604756 0.08344907
v 0.00491040 -0.00586854 0.08456149
v 0.00528565 -0.00564598 0.08676454
v 0.00415860 -0.00591854 0.08878373
v 0.00471884 -0.00498636 0.08950043
v 0.00346059 -0.00555728 0.08984631
v 0.00234797 -0.00561050 0.09048198
v 0.00074728 -0.00581048 0.09104910
v -0.00161966 -0.00541697 0.09107714
v -0.00096364 -0.00562824 0.08465497
v -0.00472528 -0.00495894 0.08421561
v 0.00545097 -0.00541374 0.08205930
v 0.00594036 -0.00473154 0.08111203
v 0.00620277 -0.00430577 0.08541217
v 0.00591281 -0.00465090 0.08687048
v 0.00546540 -0.00508957 0.08805458
v 0.00492877 -0.00361712 0.09005509
v 0.00402740 -0.00438964 0.09044147
v 0.00555068 -0.00406708 0.08889591
v 0.00096901 -0.00507667 0.09163492
v 0.00016210 -0.00565727 0.09127034
v -0.00275196 -0.00498313 0.09108338
v -0.00350507 -0.00507990 0.09035733
v -0.00031680 -0.00504764 0.09184369
v -0.00140448 -0.00472832 0.09182188
v -0.00600452 -0.00462187 0.08553370
v -0.00553219 -0.00477509 0.08353943
v 0.00662656 -0.00338811 0.08560225
v 0.00623295 -0.00395580 0.08716962
v 0.00372431 -0.00345423 0.09088083
v 0.00595348 -0.00285428 0.08840358
v 0.00463619 0.00830605 0.08814806
v 0.00402084 0.00808832 0.08888033
v 0.00190450 -0.00383001 0.09185927
v 0.00647699 -0.00298976 0.08710419
v 0.00073809 -0.00408160 0.09226124
v -0.00442613 -0.00459768 0.09060351
v -0.00490765 -0.00470090 0.08989305
v -0.00570669 -0.00456704 0.08839735
v -0.00040470 -0.00396709 0.09231734
v -0.00270210 -0.00400741 0.09163804
v -0.00653197 -0.00411385 0.08580168
v -0.00647948 -0.00412514 0.08263578
v -0.00627480 -0.00424771 0.08724441
v 0.00664887 -0.00253012 0.08497904
v 0.00289772 0.00815606 0.08946303
v 0.00356162 0.00908662 0.08842228
v 0.00547065 0.00699648 0.08612887
v 0.00591543 0.00899631 0.08320601
v 0.00543391 0.00930919 0.08380429
v 0.00284655 0.00880600 0.08919505
v 0.00131933 -0.00273171 0.09197769
v 0.00020278 -0.00292524 0.09223942
v -0.00433560 -0.00370905 0.09080294
v -0.00517531 -0.00412837 0.08990239
v -0.00564765 -0.00440576 0.08882424
v -0.00100168 -0.00248980 0.09216153
v -0.00162097 -0.00321716 0.09213348
v -0.00215891 -0.00180921 0.09181876
v -0.00329252 -0.00205435 0.09127346
v -0.00675501 -0.00334134 0.08356747
v -0.00665399 -0.00372195 0.08215902
v -0.00663168 -0.00348326 0.08645605
v -0.00614491 -0.00390419 0.08808263
v 0.00597447 0.00895276 0.07722632
v 0.00135213 0.00847700 0.08972790
v 0.00152663 0.00768513 0.08991174
v 0.00162241 0.00938660 0.08812314
v 0.00136263 0.00918178 0.08902367
v 0.00498257 0.00958497 0.08310318
v 0.00563990 0.00959465 0.07767503
v -0.00033648 0.00830605 0.08981203
v -0.00441563 -0.00164955 0.09030748
v -0.00542460 -0.00340424 0.08943499
v -0.00203951 0.00895922 0.08916389
v -0.00267979 0.00839959 0.08885540
v -0.00659626 -0.00240432 0.08536855
v -0.00664611 -0.00239948 0.08275418
v -0.00621051 -0.00335263 0.08792994
v -0.00629317 -0.00194146 0.08692969
v -0.00105285 0.00916242 0.08929165
v -0.00089147 0.00944627 0.08844097
v -0.00237933 0.00990913 0.08321225
v 0.00485530 0.00971560 0.07700508
v 0.00262744 0.00994623 0.07741640
v -0.00016197 0.01008976 0.07784329
v -0.00238721 0.01023652 0.07715465
v -0.00520417 -0.00164310 0.08929165
v -0.00571981 -0.00153504 0.08834126
v -0.00185976 0.00931241 0.08859677
v -0.00304454 0.00850764 0.08788943
v -0.00641257 -0.00128345 0.08335870
v -0.00356936 0.00937531 0.08289129
v -0.00619871 -0.00093671 0.08562718
v -0.00360479 0.00769481 0.08669598
v -0.00302749 0.00988978 0.08310942
v 0.00171688 0.00997687 0.07222195
v -0.00315738 0.00992526 0.07767192
v -0.00324922 0.00938015 0.08444308
v -0.00342766 0.00865279 0.08556486
f 257 240 1
f 295 282 299
f 305 112 304
f 132 273 140
f 255 238 254
f 277 257 1
f 261 257 277
f 282 262 283
f 283 262 261
f 261 277 283
f 283 19 26
f 283 277 19
f 136 273 290
f 254 273 274
f 274 273 132
f 308 295 299
f 97 118 95
f 97 76 207
f 207 118 97
f 207 76 208
f 76 213 208
f 58 213 76
f 213 58 209
f 215 210 209
f 209 208 213
f 209 210 207
f 207 208 209
f 26 19 18
f 19 277 18
f 116 273 136
f 136 140 116
f 116 140 273
f 132 140 154
f 254 274 154
f 154 274 132
f 141 222 223
f 212 222 141
f 1 240 2
f 240 5 2
f 215 225 226
f 224 225 215
f 299 297 309
f 309 89 299
f 299 282 298
f 298 297 299
f 282 297 298
f 88 107 108
f 108 89 88
f 109 89 108
f 108 107 109
f 109 107 131
f 109 131 299
f 299 89 109
f 75 89 90
f 38 283 26
f 223 222 221
f 304 112 115
f 115 290 304
f 115 112 136
f 136 290 115
f 305 308 310
f 310 308 299
f 179 155 310
f 131 107 130
f 130 107 129
f 299 131 130
f 95 76 94
f 94 97 95
f 76 97 94
f 27 215 214
f 214 209 27
f 215 209 214
f 35 51 52
f 20 215 27
f 20 224 215
f 225 224 20
f 223 238 239
f 239 141 223
f 166 239 238
f 141 239 166
f 166 142 141
f 117 118 207
f 95 118 117
f 6 5 240
f 6 2 5
f 261 262 244
f 51 35 50
f 103 84 102
f 296 309 297
f 296 297 282
f 282 283 296
f 89 309 296
f 296 90 89
f 296 283 75
f 75 90 296
f 75 56 74
f 74 89 75
f 74 88 89
f 37 38 26
f 287 272 271
f 306 305 304
f 305 310 91
f 91 92 305
f 111 92 91
f 112 305 93
f 93 92 112
f 305 92 93
f 136 112 114
f 112 92 114
f 179 310 153
f 153 310 299
f 299 130 153
f 152 130 129
f 129 128 152
f 152 128 151
f 152 153 130
f 152 151 179
f 179 153 152
f 170 173 171
f 173 196 171
f 39 40 27
f 27 209 39
f 39 209 58
f 36 55 56
f 36 37 26
f 56 37 36
f 28 20 27
f 21 20 28
f 225 20 12
f 12 226 225
f 12 20 21
f 240 226 12
f 12 6 240
f 198 196 173
f 143 169 168
f 147 173 170
f 194 166 193
f 167 166 194
f 142 166 167
f 167 143 142
f 194 169 167
f 169 143 167
f 216 210 215
f 261 244 260
f 215 226 227
f 229 244 245
f 302 303 287
f 279 265 264
f 69 50 68
f 52 51 69
f 51 50 69
f 104 84 103
f 103 102 122
f 83 102 84
f 83 69 68
f 84 69 83
f 88 74 72
f 72 71 88
f 56 55 72
f 72 74 56
f 72 55 52
f 52 71 72
f 283 38 57
f 38 37 57
f 75 283 57
f 57 56 75
f 57 37 56
f 272 285 266
f 235 238 223
f 223 221 235
f 292 303 307
f 305 306 307
f 307 306 292
f 311 308 305
f 305 303 311
f 311 302 308
f 303 302 311
f 301 303 292
f 287 303 288
f 288 272 287
f 288 285 272
f 303 301 288
f 289 306 304
f 292 306 289
f 304 290 289
f 289 290 273
f 156 310 155
f 156 133 310
f 156 155 179
f 110 91 310
f 310 133 110
f 111 91 110
f 113 92 111
f 113 114 92
f 150 128 127
f 151 128 150
f 174 171 197
f 197 171 196
f 197 196 183
f 76 77 59
f 59 58 76
f 59 39 58
f 40 39 59
f 96 77 76
f 80 77 96
f 96 98 80
f 96 76 95
f 95 98 96
f 119 98 95
f 141 142 119
f 95 117 119
f 119 117 141
f 53 35 52
f 53 36 35
f 52 55 53
f 55 36 53
f 49 50 35
f 80 98 81
f 81 65 80
f 47 35 54
f 14 22 23
f 32 23 31
f 33 23 32
f 31 35 32
f 18 16 24
f 33 32 24
f 14 23 24
f 24 23 33
f 11 16 18
f 11 18 277
f 181 162 184
f 183 196 182
f 182 160 183
f 184 162 182
f 182 162 161
f 161 160 182
f 161 162 138
f 138 160 161
f 254 180 187
f 187 255 254
f 165 154 140
f 165 187 180
f 165 180 254
f 254 154 165
f 195 169 194
f 195 198 173
f 121 143 144
f 144 143 168
f 168 147 144
f 144 122 121
f 2 6 3
f 1 2 3
f 13 12 21
f 21 22 13
f 6 12 13
f 13 22 14
f 14 8 13
f 242 229 245
f 246 230 242
f 242 230 229
f 228 216 215
f 215 227 228
f 247 260 244
f 261 260 247
f 247 257 261
f 240 257 247
f 295 308 294
f 308 302 294
f 245 244 259
f 259 263 245
f 259 244 262
f 259 262 282
f 279 264 258
f 258 278 279
f 263 278 258
f 245 263 258
f 258 264 246
f 258 242 245
f 246 242 258
f 70 69 84
f 70 86 71
f 70 71 52
f 52 69 70
f 170 171 146
f 88 71 87
f 71 86 87
f 107 88 87
f 253 266 249
f 249 237 253
f 272 266 253
f 270 271 253
f 253 271 272
f 249 266 267
f 267 285 286
f 267 266 285
f 286 276 267
f 276 268 267
f 221 237 234
f 234 237 249
f 234 235 221
f 249 235 234
f 246 264 248
f 248 264 265
f 312 303 305
f 305 307 312
f 312 307 303
f 291 301 292
f 291 276 286
f 286 301 291
f 285 288 300
f 300 288 301
f 286 285 300
f 300 301 286
f 238 235 251
f 133 156 134
f 134 110 133
f 111 110 134
f 151 150 178
f 179 151 178
f 178 156 179
f 178 150 177
f 149 150 127
f 127 126 149
f 64 77 80
f 64 73 77
f 54 73 64
f 80 65 64
f 64 47 54
f 65 47 64
f 142 143 120
f 120 119 142
f 120 143 121
f 65 81 78
f 78 81 98
f 48 49 35
f 35 47 48
f 21 28 29
f 28 43 29
f 30 43 44
f 30 44 31
f 30 29 43
f 31 23 30
f 30 23 22
f 30 22 21
f 21 29 30
f 46 35 31
f 54 35 46
f 60 73 54
f 77 73 60
f 40 59 60
f 60 59 77
f 16 8 15
f 15 24 16
f 15 8 14
f 14 24 15
f 26 18 25
f 18 24 25
f 25 36 26
f 35 36 25
f 4 11 277
f 4 277 1
f 1 3 4
f 114 113 137
f 113 138 137
f 160 138 158
f 177 160 158
f 162 181 159
f 159 138 162
f 159 181 163
f 189 190 238
f 238 255 189
f 255 187 189
f 202 203 188
f 190 189 188
f 188 189 187
f 188 165 186
f 187 165 188
f 186 165 164
f 163 181 164
f 140 163 164
f 164 165 140
f 196 198 199
f 198 200 199
f 199 200 184
f 184 182 199
f 199 182 196
f 184 200 185
f 185 181 184
f 186 164 185
f 185 164 181
f 206 200 198
f 198 195 206
f 173 147 172
f 172 195 173
f 172 147 168
f 168 169 172
f 169 195 172
f 194 203 204
f 204 203 202
f 192 166 238
f 192 193 166
f 194 193 192
f 192 203 194
f 8 3 7
f 7 13 8
f 7 3 6
f 6 13 7
f 207 210 211
f 210 216 211
f 211 222 212
f 211 221 222
f 211 220 221
f 211 117 207
f 212 141 211
f 141 117 211
f 244 229 243
f 243 247 244
f 293 302 287
f 293 294 302
f 284 265 279
f 279 278 284
f 278 293 284
f 287 271 284
f 284 293 287
f 86 70 85
f 84 104 85
f 85 70 84
f 124 104 103
f 106 87 86
f 106 126 127
f 107 87 106
f 127 128 106
f 129 107 106
f 106 128 129
f 104 124 125
f 125 124 146
f 148 171 174
f 148 146 171
f 174 149 148
f 148 149 126
f 148 125 146
f 126 125 148
f 249 267 250
f 250 267 268
f 268 251 250
f 250 235 249
f 250 251 235
f 236 237 221
f 270 253 252
f 252 253 237
f 252 248 265
f 237 236 252
f 252 236 248
f 292 289 275
f 275 291 292
f 275 273 254
f 275 289 273
f 276 291 275
f 256 268 276
f 256 251 268
f 256 275 254
f 276 275 256
f 254 238 256
f 238 251 256
f 157 178 177
f 177 158 157
f 157 134 156
f 156 178 157
f 177 150 176
f 150 149 176
f 183 160 176
f 176 160 177
f 62 47 65
f 65 78 62
f 99 78 98
f 98 119 99
f 119 120 99
f 99 120 121
f 101 122 102
f 121 122 101
f 50 49 67
f 68 50 67
f 44 43 45
f 43 46 45
f 31 44 45
f 45 46 31
f 54 46 61
f 61 60 54
f 42 43 28
f 60 61 42
f 42 46 43
f 42 61 46
f 34 24 32
f 34 25 24
f 34 32 35
f 35 25 34
f 16 11 10
f 11 4 10
f 10 8 16
f 9 3 8
f 9 4 3
f 9 10 4
f 135 138 113
f 135 158 138
f 135 113 111
f 111 134 135
f 134 157 135
f 135 157 158
f 139 159 163
f 139 140 136
f 139 163 140
f 136 114 139
f 114 137 139
f 139 137 138
f 138 159 139
f 190 188 191
f 191 188 203
f 203 192 191
f 238 190 191
f 191 192 238
f 205 206 195
f 205 204 202
f 205 195 194
f 194 204 205
f 220 211 219
f 217 211 216
f 216 228 217
f 229 230 217
f 247 243 231
f 231 243 229
f 229 217 231
f 231 217 228
f 281 278 263
f 281 293 278
f 263 259 281
f 294 293 281
f 269 284 271
f 265 284 269
f 269 271 270
f 270 252 269
f 269 252 265
f 146 124 123
f 123 144 147
f 123 124 103
f 103 122 123
f 122 144 123
f 105 106 86
f 126 106 105
f 105 125 126
f 104 125 105
f 105 85 104
f 86 85 105
f 248 236 232
f 220 219 232
f 246 248 232
f 232 230 246
f 232 219 230
f 221 220 233
f 233 236 221
f 220 232 233
f 233 232 236
f 175 176 149
f 174 197 175
f 175 149 174
f 175 197 183
f 183 176 175
f 121 101 100
f 100 99 121
f 78 99 100
f 49 48 66
f 66 67 49
f 48 67 66
f 78 100 79
f 79 100 101
f 41 42 28
f 27 40 41
f 41 28 27
f 40 60 41
f 60 42 41
f 8 10 17
f 17 9 8
f 10 9 17
f 201 205 202
f 206 205 201
f 202 188 201
f 201 188 186
f 186 185 201
f 201 185 200
f 200 206 201
f 218 219 211
f 211 217 218
f 230 219 218
f 218 217 230
f 241 231 228
f 247 231 241
f 241 228 227
f 240 247 241
f 241 226 240
f 241 227 226
f 294 281 280
f 280 281 259
f 280 259 282
f 282 295 280
f 295 294 280
f 145 123 147
f 146 123 145
f 145 147 170
f 170 146 145
f 63 62 78
f 78 79 63
f 63 79 67
f 47 62 63
f 63 48 47
f 63 67 48
f 82 79 101
f 82 83 68
f 68 67 82
f 67 79 82
f 102 83 82
f 82 101 102

