# https://github.com/mikedh/trimesh
v -0.05666877 0.03056044 -0.10161164
v 0.09685668 -0.03380435 0.10017174
v -0.09504726 0.02888243 0.10105381
v 0.09830531 -0.02821658 -0.08294415
v -0.09666792 -0.02398949 0.01010437
v 0.00041287 -0.00495411 0.10729194
v 0.04059148 0.02814358 -0.10126217
v -0.09654483 -0.02187036 -0.06602031
v -0.01014142 -0.02772284 -0.10543712
v 0.06173967 0.03322962 0.09893921
v -0.06301414 -0.03456018 0.10088862
v 0.09688101 0.02387358 -0.10114813
v 0.03847274 -0.03786432 0.10010765
v 0.05328422 -0.02936864 -0.10520252
v 0.09801870 -0.03244771 0.05029816
v -0.09658321 -0.02610448 0.06721187
v -0.05666877 -0.03236218 -0.10198637
v -0.09341492 0.00561429 -0.10056160
v 0.09939005 0.01195978 0.09893879
v -0.00592435 0.03422889 0.09772220
v -0.02248879 -0.03774762 0.09792503
v -0.09475505 -0.01975349 0.10094328
v -0.09162613 -0.02932976 -0.09888592
v 0.08289427 -0.00918494 -0.10581756
v -0.09656780 -0.02398949 -0.03430278
v 0.07866970 -0.03505118 -0.09987161
v -0.08764895 0.03001616 -0.10315373
v 0.09319316 -0.03809898 0.07355350
v 0.08712508 0.03236894 0.10075259
v -0.09621608 0.00561480 0.09893921
v 0.07443237 -0.03819256 0.10032748
v -0.09033859 -0.03595882 0.08624342
v -0.03552689 0.03019111 -0.09987161
v 0.09941512 0.00561926 -0.09139955
v -0.07570686 0.03504581 0.09893921
v 0.09877043 -0.00828903 0.10000443
v 0.03636936 -0.03506989 -0.09563378
v 0.09528252 -0.02398416 -0.10168008
v -0.09635774 -0.01341297 -0.08929550
v -0.03763917 -0.03187621 -0.10349343
v 0.07943088 0.02573968 -0.10518296
v -0.07360511 -0.02720448 -0.10517889
v -0.08842916 -0.01129726 -0.10468767
v -0.08206235 -0.03456018 0.10076595
v 0.09879493 0.02573685 -0.08506127
v 0.06441528 -0.03563116 -0.09287630
v 0.08501368 -0.03610009 -0.08506127
v 0.09900133 -0.01340988 -0.09139955
v -0.09565779 0.02464847 -0.09139955
v -0.09578580 -0.02705969 -0.08294415
v 0.08500655 0.00561429 -0.10566440
v -0.08205425 0.01407654 -0.10530923
v 0.09136306 -0.03898933 0.08836143
v -0.07782008 -0.03315929 -0.09351667
v 0.08289427 -0.02398416 -0.10589005
v 0.09876671 -0.02095240 0.09789108
v 0.09716184 0.02465108 0.10226982
v 0.09494230 -0.03382148 -0.09351667
v -0.09652591 -0.02610448 0.09047653
v 0.02625486 -0.03774762 0.10000805
v -0.07571740 0.03019111 -0.10334598
v -0.09223508 0.01830767 -0.10158477
v -0.08416653 -0.02187183 -0.10572143
v -0.09375059 -0.03146755 0.10006149
v -0.09608942 -0.00283645 -0.09351667
v -0.08416653 0.00138316 -0.10545994
v -0.09406106 0.01619100 0.10222589
v -0.02072187 -0.02398416 -0.10612385
v 0.08712508 -0.03904594 0.09893921
v 0.07231381 -0.02821529 -0.10559598
v -0.08828498 -0.03287300 -0.08916482
v -0.08628107 0.03499475 0.10105381
v 0.07655087 0.03271175 0.10086191
v 0.09964168 0.01619100 -0.09139955
v 0.08923112 -0.03280279 -0.10230978
v 0.00412024 0.00465200 0.10636885
v -0.09522043 -0.01975761 -0.09775089
v 0.09136243 0.01618887 -0.10484570
v 0.09253548 -0.03567309 -0.07870992
v 0.09838954 -0.03244771 0.09047769
v 0.09027774 -0.01552838 -0.10515445
v 0.09872676 -0.02384400 -0.09145182
v -0.09581535 0.01520811 -0.09248424
v -0.08841124 -0.03656223 0.09490678
v -0.06936151 -0.03266671 -0.09987161
v -0.08348147 -0.03149392 -0.10110332
v -0.04984393 -0.03351637 -0.09674461
v -0.09602623 -0.02578310 -0.09139955
v 0.08501368 -0.03591232 -0.09351667
v -0.08407138 0.02266839 -0.10508683
v -0.09385259 0.02676344 -0.09906513
v 0.08923112 0.02390598 -0.10522043
v 0.09920198 0.02443571 -0.09351667
v -0.09419512 -0.00918494 -0.09965248
v 0.09655751 -0.01340958 -0.10082471
v -0.09552450 -0.03068173 0.07355573
v 0.09031580 -0.00706613 -0.10516341
v -0.09608824 0.02253672 0.09682461
v -0.09647261 -0.01975761 -0.08506127
v 0.09958822 0.02041832 0.09682412
v 0.09662528 -0.03558867 0.08412891
v 0.09227915 -0.03557926 -0.08717839
v 0.09357531 -0.03822570 0.09572197
v 0.08078198 -0.03060623 -0.10477890
v -0.09465587 -0.03244707 0.09259308
v -0.08839957 0.02888243 0.10347328
v -0.08667844 0.00773309 -0.10501026
v 0.09347855 0.03034366 0.10226318
v -0.09124554 -0.01764071 -0.10277901
v -0.09582601 0.00773369 -0.09464056
v 0.08985909 -0.02610296 -0.10505100
v 0.08078786 -0.03941064 0.09682461
v 0.08078198 -0.01552838 -0.10587702
v -0.09659734 -0.02187036 -0.04064106
v 0.09518738 -0.03031465 -0.09984310
v 0.07299650 -0.03563014 -0.09675768
v -0.08717321 -0.00495381 -0.10512023
v 0.09812482 -0.01975918 -0.09775089
v -0.07571740 -0.03252416 -0.09987161
v -0.09092204 -0.02398416 -0.10254602
v -0.09643524 -0.02609922 0.09682461
v -0.07994197 -0.02710729 -0.10513734
v -0.09553429 -0.03063129 0.08624342
v -0.09645811 -0.01956013 0.09490678
v -0.08629666 -0.03268420 -0.09563378
v 0.09759392 -0.03033092 -0.08929550
v -0.09639056 -0.01975761 -0.09139955
v 0.08713102 -0.03937555 0.09259308
f 1 72 35
f 27 72 1
f 73 72 108
f 76 6 108
f 126 82 4
f 4 80 126
f 82 80 4
f 20 1 35
f 1 20 10
f 72 73 10
f 35 72 10
f 10 20 35
f 27 1 61
f 78 92 12
f 13 31 44
f 6 31 2
f 2 101 80
f 3 98 30
f 6 76 106
f 106 72 3
f 3 67 106
f 108 72 106
f 106 76 108
f 5 98 114
f 26 75 89
f 126 101 58
f 102 89 58
f 58 89 75
f 126 80 15
f 15 101 126
f 80 101 15
f 91 72 27
f 3 72 91
f 84 44 64
f 27 61 90
f 7 1 33
f 33 10 7
f 1 10 33
f 93 100 74
f 78 12 38
f 11 31 6
f 6 44 11
f 11 44 31
f 108 6 57
f 6 2 57
f 56 2 80
f 56 80 82
f 82 48 56
f 74 100 56
f 69 2 31
f 69 31 13
f 124 30 98
f 121 30 124
f 22 44 6
f 6 106 22
f 64 44 22
f 22 106 67
f 22 121 64
f 22 30 121
f 22 67 3
f 3 30 22
f 116 89 46
f 26 89 116
f 116 85 26
f 87 85 116
f 112 46 47
f 46 89 47
f 47 89 102
f 104 40 14
f 104 75 26
f 26 40 104
f 26 85 17
f 17 40 26
f 119 125 86
f 86 17 119
f 119 17 85
f 119 85 87
f 21 46 112
f 21 84 46
f 112 69 21
f 44 84 21
f 64 121 105
f 105 84 64
f 105 96 50
f 5 25 16
f 16 98 5
f 16 25 88
f 88 50 16
f 50 96 16
f 23 125 71
f 86 125 23
f 23 120 86
f 23 50 88
f 71 50 23
f 77 23 88
f 120 23 77
f 77 91 94
f 77 110 91
f 94 91 18
f 66 90 52
f 52 68 66
f 66 68 63
f 74 56 34
f 34 56 48
f 7 10 29
f 29 10 73
f 29 73 108
f 41 12 92
f 41 1 7
f 41 61 1
f 41 90 61
f 52 90 41
f 118 48 82
f 12 93 118
f 118 34 48
f 118 93 74
f 74 34 118
f 78 38 81
f 100 93 45
f 45 57 100
f 108 57 45
f 45 29 108
f 45 93 12
f 12 41 45
f 7 29 45
f 45 41 7
f 36 57 2
f 2 56 36
f 103 69 53
f 2 69 103
f 101 2 103
f 53 28 103
f 103 58 101
f 103 28 58
f 87 116 37
f 37 116 46
f 102 53 128
f 128 47 102
f 112 47 128
f 128 69 112
f 53 69 128
f 102 58 79
f 58 28 79
f 79 53 102
f 79 28 53
f 70 104 14
f 55 104 70
f 70 68 55
f 63 68 122
f 86 120 122
f 122 120 63
f 122 17 86
f 40 17 122
f 91 110 49
f 49 98 3
f 3 91 49
f 54 119 87
f 125 119 54
f 71 125 54
f 54 84 71
f 46 84 54
f 87 37 54
f 54 37 46
f 13 44 60
f 44 21 60
f 60 69 13
f 60 21 69
f 123 105 121
f 96 105 123
f 123 16 96
f 71 84 32
f 84 105 32
f 32 50 71
f 32 105 50
f 127 77 88
f 88 99 127
f 63 120 43
f 51 41 92
f 51 24 68
f 51 68 52
f 52 41 51
f 55 24 51
f 95 38 12
f 12 118 95
f 95 118 38
f 115 82 126
f 115 118 82
f 126 58 115
f 38 118 115
f 115 58 75
f 97 92 78
f 78 81 97
f 97 51 92
f 97 81 55
f 55 51 97
f 111 81 38
f 111 115 75
f 38 115 111
f 55 81 111
f 75 104 111
f 111 104 55
f 19 56 100
f 19 36 56
f 100 57 19
f 57 36 19
f 68 70 9
f 9 70 14
f 14 40 9
f 55 68 113
f 113 24 55
f 68 24 113
f 88 25 8
f 8 99 88
f 114 99 8
f 5 114 8
f 8 25 5
f 59 123 121
f 16 123 59
f 121 124 59
f 59 124 98
f 98 16 59
f 110 77 65
f 77 127 65
f 117 66 63
f 63 43 117
f 62 91 27
f 62 18 91
f 109 43 120
f 94 18 109
f 18 62 109
f 109 62 43
f 109 77 94
f 120 77 109
f 42 122 68
f 68 9 42
f 40 122 42
f 42 9 40
f 39 127 99
f 39 65 127
f 98 49 39
f 39 114 98
f 39 99 114
f 90 66 107
f 66 117 107
f 27 90 107
f 107 62 27
f 107 117 43
f 43 62 107
f 83 39 49
f 65 39 83
f 83 49 110
f 110 65 83

