# https://github.com/mikedh/trimesh
v 0.00186829 -0.08664785 0.07352621
v -0.00168722 0.03777940 -0.04403796
v -0.06954649 -0.08674802 -0.03423355
v 0.05814080 -0.08598779 -0.03785695
v 0.00191001 0.01063898 0.05118903
v 0.04489759 0.03784936 0.00531259
v -0.04266405 0.03753411 0.00882804
v -0.00257431 -0.04244772 0.06360199
v -0.06037075 -0.04528870 -0.02995260
v 0.04398376 0.01228538 -0.02557581
v 0.02431734 0.03819837 0.03727071
v -0.01852166 0.03956580 0.03681948
v -0.03536711 0.03716277 -0.02624133
v 0.02806470 0.03559557 -0.03654758
v 0.04230015 0.03580106 -0.01850174
v 0.00173540 0.03207337 0.04611430
v 0.03905638 0.03609183 0.02433279
v -0.02049185 0.03524920 -0.04006476
v -0.03516799 0.03669979 0.02638246
v -0.03898847 0.03973816 -0.00884263
v 0.01395241 0.03675118 -0.04300014
v 0.05738000 -0.07208720 -0.03564417
v 0.04597085 0.03529204 -0.00678772
v 0.01211869 0.03736920 0.04298244
v -0.00821808 0.03874391 0.04240810
v 0.03659287 0.03454316 -0.02848971
v -0.02618714 0.03916142 -0.03196201
v 0.03032611 0.03934449 0.02914134
v -0.02653177 0.03983269 0.03055480
v 0.04113428 0.03883689 0.01512583
v -0.04415718 0.03524632 -0.00047808
v -0.03718321 0.03989141 0.01774314
v -0.01172285 0.03837908 -0.04144960
v -0.03960668 0.03726877 -0.01888616
v 0.00100364 -0.04947321 0.06527250
v 0.00172854 0.02432940 0.04795028
v 0.00195739 0.03924782 0.04283798
v 0.00565061 0.03836427 -0.04201186
v -0.06962241 -0.08018898 -0.03193491
v 0.05883734 -0.07878948 -0.03541241
v -0.02469768 0.03661032 0.03624705
v 0.01902700 0.03800353 -0.03910822
v 0.03073474 0.03783777 -0.03121020
v 0.04472675 0.03537941 0.01122668
v 0.04133803 0.03823398 -0.01286834
v 0.05862401 -0.09121349 -0.03470505
v 0.04430469 0.03832248 -0.00176720
v 0.03002705 0.03623616 0.03437487
v 0.01621324 0.03943481 0.03898931
v -0.04037434 0.03986880 -0.00087535
v -0.01441111 0.03833145 0.04098935
v -0.03990796 0.03490131 0.01863152
v -0.04196656 0.03691730 -0.01286806
v -0.00587650 0.03416011 -0.04520407
v 0.03525151 0.03659644 0.02913243
v 0.00740192 0.03396546 -0.04507112
v 0.03936254 0.03568185 -0.02382135
v -0.02003328 0.03898147 -0.03600736
v 0.00036995 -0.08148342 0.07258868
v -0.00367776 0.03667438 0.04452258
v 0.05410548 -0.07530568 -0.03842123
v -0.06080734 -0.05026338 -0.03170618
v -0.03852209 0.03998185 0.01263807
v -0.04180119 0.03491554 0.01330123
v -0.03149300 0.03995096 0.02472932
v -0.03103669 0.03902753 -0.02834204
v -0.02647915 0.03637753 -0.03626794
v -0.03174140 0.03746102 0.03009834
v -0.04368719 0.03642204 -0.00541110
v -0.01655308 0.03849301 -0.03964492
v 0.02415358 0.03400503 -0.03927695
v -0.00677705 0.03854811 -0.04225585
v 0.02658827 0.03938241 0.03242736
v 0.00249187 0.03438859 -0.04542828
v -0.04307137 0.03834891 0.00315365
v 0.04237821 0.03840078 -0.00788713
v 0.00221667 -0.04316887 0.06373154
v 0.03823138 0.03906714 0.02064466
v -0.03777111 0.03763010 0.02181781
v -0.03955004 0.03997766 0.00632555
v 0.00169361 -0.08878808 0.06953743
v 0.04180845 0.03672950 0.01917654
v -0.03687259 0.03957147 -0.01613970
v 0.03526075 0.03918002 0.02545618
v 0.04233331 0.03884810 0.00967535
v 0.01950427 0.03684109 0.04059710
v -0.07059427 -0.08612756 -0.02992989
v -0.01015291 0.03449295 -0.04404709
v 0.04464284 0.03540030 -0.01286834
v -0.03788922 0.03703167 -0.02280624
v 0.00870962 0.03935775 0.04136948
v -0.03317595 0.03940968 -0.02341984
v 0.02501893 0.03801374 -0.03505264
v -0.00268494 -0.04760052 0.06479521
v -0.02338421 0.03965906 0.03381915
v 0.00958729 0.03795991 -0.04281126
v -0.03309159 0.03583359 -0.02967642
v 0.00390408 0.03619333 0.04459338
v -0.03898372 0.03958403 -0.01286806
v -0.03477667 0.03975686 0.02286891
v -0.03646377 0.03931484 -0.01987489
v 0.03282883 0.03574122 0.03186658
v -0.02327352 0.03686430 -0.03815697
v -0.00150588 -0.08670602 0.07193411
v -0.00161582 0.03447235 -0.04570317
v -0.01372301 0.03557637 -0.04273154
v 0.04645937 0.03539056 -0.00127929
v -0.00422704 0.03926849 0.04200120
v 0.05763446 -0.08150038 -0.03753854
v -0.02926419 0.03675438 0.03263974
v -0.02908130 0.03592286 -0.03380282
v 0.01556278 0.03810505 -0.04007177
v 0.03080590 0.03500522 -0.03430073
v 0.00336565 -0.08377485 0.07202275
v 0.03859683 0.03792519 -0.02118079
v -0.04017670 0.03783390 0.01667020
v 0.04295500 0.03868707 0.00248895
v -0.01767437 0.03784771 0.03992838
v 0.03553682 0.03747221 -0.02705693
v 0.01904977 0.03574884 -0.04168366
v 0.05950047 -0.08605701 -0.03474132
v -0.04027431 0.03976580 0.00973832
v 0.02744240 0.03543981 0.03641504
v 0.04569797 0.03504973 0.00703035
v 0.04324913 0.03554910 0.01638591
v 0.00225698 0.03753028 -0.04431004
v 0.02302805 0.03571504 0.03904563
v -0.02199248 0.03738369 0.03783851
f 114 46 121
f 1 46 114
f 81 46 1
f 121 46 4
f 87 81 104
f 104 81 1
f 1 59 104
f 104 19 87
f 121 4 40
f 40 107 121
f 105 4 3
f 3 4 46
f 3 81 87
f 46 81 3
f 121 107 124
f 109 40 4
f 4 120 109
f 63 65 80
f 32 65 63
f 52 64 87
f 52 116 64
f 87 19 52
f 64 116 7
f 87 64 7
f 77 59 1
f 125 114 121
f 47 89 45
f 74 4 105
f 74 56 4
f 61 120 4
f 4 56 61
f 61 56 120
f 63 80 122
f 75 7 122
f 122 7 116
f 122 32 63
f 116 32 122
f 100 32 116
f 65 32 100
f 62 97 111
f 62 9 90
f 90 9 34
f 9 53 34
f 75 53 69
f 37 60 98
f 8 60 94
f 94 60 51
f 1 114 123
f 114 48 123
f 98 60 16
f 16 60 8
f 105 3 54
f 3 88 54
f 121 124 44
f 44 125 121
f 45 89 15
f 15 10 57
f 15 89 40
f 85 47 117
f 6 47 85
f 6 44 124
f 6 124 107
f 107 47 6
f 82 125 6
f 125 44 6
f 23 47 107
f 89 47 23
f 107 40 23
f 40 89 23
f 115 93 45
f 115 15 57
f 45 15 115
f 57 10 26
f 79 100 116
f 79 52 19
f 116 52 79
f 68 79 19
f 100 79 68
f 19 104 68
f 75 69 31
f 87 7 31
f 31 7 75
f 17 55 114
f 17 125 82
f 114 125 17
f 102 48 114
f 114 55 102
f 102 55 48
f 82 6 30
f 30 6 85
f 1 123 127
f 76 47 45
f 76 117 47
f 45 93 76
f 85 117 58
f 106 3 18
f 106 88 3
f 106 54 88
f 71 109 120
f 120 14 71
f 71 14 109
f 119 115 57
f 57 26 119
f 113 14 119
f 119 26 113
f 22 26 10
f 22 15 40
f 10 15 22
f 40 109 22
f 113 26 22
f 109 14 22
f 22 14 113
f 41 104 59
f 65 100 29
f 100 68 29
f 68 95 29
f 87 31 39
f 39 31 69
f 39 3 87
f 39 53 9
f 39 69 53
f 9 62 39
f 39 62 3
f 84 17 82
f 55 17 84
f 49 73 65
f 65 29 49
f 35 5 8
f 77 5 35
f 8 94 35
f 59 77 35
f 35 94 59
f 36 16 8
f 8 5 36
f 36 5 16
f 38 58 117
f 38 76 93
f 117 76 38
f 18 3 103
f 103 106 18
f 70 106 103
f 42 14 120
f 93 14 42
f 2 38 96
f 105 54 2
f 54 106 2
f 56 74 126
f 126 2 96
f 126 74 105
f 105 2 126
f 43 14 93
f 43 119 14
f 93 115 43
f 115 119 43
f 118 94 51
f 128 95 68
f 128 118 95
f 94 118 128
f 59 94 128
f 128 41 59
f 110 68 104
f 104 41 110
f 110 128 68
f 41 128 110
f 12 29 95
f 12 108 37
f 12 118 51
f 95 118 12
f 60 37 25
f 37 108 25
f 51 60 25
f 25 12 51
f 108 12 25
f 82 30 78
f 78 84 82
f 78 30 85
f 73 84 28
f 28 80 65
f 65 73 28
f 84 78 28
f 28 78 85
f 24 37 98
f 98 16 24
f 16 5 24
f 24 5 77
f 24 77 1
f 70 58 72
f 58 38 72
f 38 2 72
f 85 58 27
f 27 92 85
f 27 58 70
f 70 103 27
f 99 53 75
f 99 34 53
f 21 42 120
f 96 42 21
f 120 56 21
f 56 126 21
f 21 126 96
f 96 38 112
f 112 42 96
f 112 38 93
f 93 42 112
f 91 49 29
f 29 12 91
f 91 12 37
f 37 24 91
f 91 24 49
f 80 28 20
f 85 92 20
f 20 28 85
f 49 24 11
f 11 123 48
f 11 127 123
f 73 49 11
f 11 84 73
f 48 55 11
f 55 84 11
f 33 106 70
f 70 72 33
f 33 2 106
f 33 72 2
f 92 27 66
f 66 27 103
f 83 20 92
f 99 20 83
f 80 20 50
f 75 122 50
f 50 122 80
f 50 99 75
f 50 20 99
f 127 11 86
f 86 11 24
f 1 127 86
f 86 24 1
f 92 66 101
f 101 83 92
f 99 83 101
f 90 34 101
f 34 99 101
f 13 62 90
f 97 62 13
f 90 101 13
f 13 101 66
f 67 66 103
f 67 62 111
f 67 13 66
f 3 62 67
f 67 103 3
f 111 97 67
f 97 13 67

