# https://github.com/mikedh/trimesh
v -0.02786235 0.04120617 0.03658638
v -0.02786235 0.04226912 0.03658044
v -0.02785675 0.04334211 0.03656749
v -0.02783996 0.04441508 0.03654214
v -0.02780078 0.04547803 0.03648603
v -0.02777839 0.04605965 0.03644234
v -0.02703392 0.04761397 0.03680972
v -0.02686040 0.04841619 0.03663709
v -0.02734738 0.04013319 0.03711722
v -0.02669248 -0.03995923 0.03693110
v -0.02669248 -0.03889628 0.03696132
v -0.02669248 -0.00344784 0.03750835
v -0.02669248 -0.00336761 0.03750943
v -0.02734178 0.04120617 0.03712047
v -0.02728581 0.04441508 0.03707569
v -0.02728021 0.04547803 0.03702066
v -0.02672606 0.04610979 0.03751267
v -0.02720744 0.04644071 0.03694136
v -0.02641260 0.04761397 0.03734327
v -0.02619430 0.04870700 0.03702551
v -0.02593122 0.04948917 0.03670129
v -0.02664210 0.05255769 0.03335272
v -0.02664210 0.05268805 0.03312236
v -0.02664210 0.05285853 0.03265787
v -0.02681562 0.04013319 0.03755906
v -0.02669248 -0.04710909 0.03544106
v -0.02669248 -0.04103221 0.03682321
v -0.02616631 -0.04103221 0.03702336
v -0.02616631 -0.03995923 0.03710482
v -0.02616631 -0.03889628 0.03712586
v -0.02616631 -0.03568737 0.03716416
v -0.02616631 -0.00257541 0.03752885
v -0.02681002 0.04120617 0.03755637
v -0.02675405 0.04547803 0.03752615
v -0.02617191 0.04547803 0.03765132
v -0.02619430 0.04650088 0.03758981
v -0.02588084 0.04761397 0.03757201
v -0.02574090 0.04829586 0.03753749
v -0.02656373 0.04682177 0.03744038
v -0.02541065 0.04899781 0.03741340
v -0.02509159 0.04974990 0.03699261
v -0.02616631 0.05267803 0.03344389
v -0.02455424 0.05349028 0.03322109
v -0.02509719 0.05341006 0.03298533
v -0.02477814 0.05038165 0.03657181
v -0.02607675 0.05316940 0.03260877
v -0.02510279 0.00382235 0.03759521
v -0.02510279 0.04334211 0.03776784
v -0.02510279 0.04441508 0.03777162
v -0.02617191 0.04013319 0.03767883
v -0.02617191 0.04120617 0.03767883
v -0.02565694 -0.04799153 0.03536769
v -0.02607115 -0.04741995 0.03551389
v -0.02480612 -0.04604613 0.03652218
v -0.02575210 -0.04497315 0.03648873
v -0.02589763 -0.04423109 0.03657667
v -0.02616631 -0.04209517 0.03686259
v -0.02509719 -0.04423109 0.03684856
v -0.02509719 -0.04316814 0.03699746
v -0.02509719 -0.04209517 0.03707083
v -0.02082631 -0.04636703 0.03704763
v -0.01975719 -0.04636703 0.03706544
v -0.01441719 -0.04744000 0.03711722
v 0.01548459 -0.04744000 0.03727044
v -0.02510279 0.00275940 0.03758604
v -0.02510279 0.04547803 0.03776515
v -0.02510279 0.04655102 0.03773601
v -0.02510279 0.04761397 0.03768368
v -0.02507480 0.04865686 0.03758172
v -0.02469977 0.04929864 0.03753371
v -0.02383776 0.05354042 0.03327989
v -0.02412883 0.05367078 0.03279544
v -0.02509719 0.05359057 0.03245125
v -0.02403367 0.05049196 0.03669859
v -0.02403367 0.04992037 0.03723268
v 0.02779906 0.00702124 0.03647632
v 0.02779906 0.00185690 0.03647201
v 0.02515145 -0.04631688 0.03720354
v 0.02510107 0.00594826 0.03768854
v -0.02296455 0.04441508 0.03779158
v -0.02403367 0.04334211 0.03778349
v -0.02403367 0.04441508 0.03778780
v -0.02403367 0.04547803 0.03778834
v -0.02360826 -0.04695867 0.03646014
v -0.02398889 -0.04639711 0.03660526
v -0.02403367 -0.04530407 0.03689874
v -0.02513637 -0.04532412 0.03661605
v -0.02403367 -0.04423109 0.03700933
v -0.02295895 -0.04530407 0.03701580
v -0.02189543 -0.04636703 0.03696293
v -0.01975719 -0.04744000 0.03697211
v -0.01868807 -0.04744000 0.03704062
v -0.01548631 -0.04849293 0.03677627
v -0.01441719 -0.04849293 0.03679515
v -0.01334807 -0.04849293 0.03680055
v 0.01655371 -0.04851298 0.03689550
v 0.01655371 -0.04744000 0.03725695
v 0.02509548 -0.04636703 0.03720624
v -0.02403367 0.04655102 0.03778025
v -0.02403367 0.04761397 0.03775004
v -0.02403367 0.04867692 0.03769070
v -0.02403367 0.04938889 0.03757579
v -0.02296455 0.05358054 0.03332790
v -0.02296455 0.05379112 0.03269185
v -0.02296455 0.05056215 0.03677735
v -0.02296455 0.04999056 0.03731144
v 0.02653403 0.05282844 0.03269185
v 0.02778227 0.04226912 0.03644611
v 0.02728409 0.00702124 0.03701095
v 0.02403195 -0.04744000 0.03711777
v 0.02403195 -0.04826229 0.03673366
v 0.02482120 -0.04811187 0.03659825
v 0.02617019 0.00594826 0.03761733
v 0.02617019 0.00702124 0.03761787
v 0.02510107 0.00702124 0.03768746
v 0.00694282 0.04867692 0.03778996
v -0.01976279 0.04655102 0.03780075
v -0.02296455 0.04547803 0.03779536
v -0.02296455 0.04655102 0.03779697
v -0.02296455 0.04761397 0.03779050
v -0.01975719 -0.04827231 0.03664950
v -0.02082631 -0.04744000 0.03681242
v -0.02295895 -0.04636703 0.03681673
v -0.01868807 -0.04841270 0.03672556
v -0.01761895 -0.04847287 0.03673959
v 0.02189371 -0.04848290 0.03678760
v 0.02296283 -0.04744000 0.03714312
v -0.02296455 0.04867692 0.03774680
v -0.02296455 0.04944906 0.03760384
v -0.02189543 0.05359057 0.03334301
v -0.02189543 0.05381117 0.03269185
v -0.02189543 0.05057218 0.03680541
v -0.02189543 0.05002065 0.03733949
v 0.02616460 0.05298889 0.03269185
v 0.02461969 0.05351034 0.03324914
v 0.02653403 0.05256772 0.03337592
v 0.02684189 0.04834600 0.03657936
v 0.02699302 0.04761397 0.03675523
v 0.02711617 0.04655102 0.03687770
v 0.02777667 0.04293096 0.03644018
v 0.02479321 0.05357051 0.03269185
v 0.02723931 0.04226912 0.03695376
v 0.02674673 0.01129310 0.03752130
v 0.02728409 0.00808419 0.03700879
v 0.02674673 0.01023015 0.03752184
v 0.02674673 0.00808419 0.03752238
v 0.02296283 -0.04839265 0.03679623
v 0.02605824 0.04441508 0.03756176
v 0.02510107 0.04441508 0.03762704
v -0.01869367 0.04867692 0.03777108
v -0.02189543 0.04761397 0.03780129
v 0.02403195 0.04655102 0.03763297
v 0.02296283 0.04761397 0.03763621
v 0.02189931 0.04867692 0.03763621
v 0.02296283 0.04934878 0.03755421
v 0.00694282 0.04952928 0.03765995
v 0.00587370 0.04952928 0.03766156
v -0.02189543 0.04655102 0.03779913
v -0.02189543 0.04867692 0.03776352
v -0.02189543 0.04948917 0.03761193
v 0.02296283 0.05364070 0.03341476
v -0.01975719 0.05382120 0.03269185
v -0.01976279 0.05057218 0.03682429
v -0.01869367 0.05057218 0.03683076
v -0.01976279 0.05006076 0.03735892
v -0.01869367 0.05007079 0.03736431
v 0.02616460 0.05265797 0.03346601
v 0.02403195 0.05374098 0.03269185
v 0.02403195 0.05358054 0.03333654
v 0.02474843 0.05035157 0.03654645
v 0.02587353 0.04947915 0.03664896
v 0.02620938 0.04868694 0.03685504
v 0.02614221 0.04766411 0.03732115
v 0.02641089 0.04655102 0.03741178
v 0.02651724 0.04547803 0.03745117
v 0.02659000 0.04441508 0.03747328
v 0.02716095 0.04547803 0.03691708
v 0.02720013 0.04441508 0.03693974
v 0.02733447 0.04330199 0.03684695
v 0.02660120 0.04334211 0.03747706
v 0.02597988 0.04547803 0.03755529
v 0.02510107 0.04655102 0.03760977
v 0.02510107 0.04547803 0.03762164
v -0.01976279 0.04867692 0.03777000
v -0.02082631 0.04867692 0.03776838
v 0.02403195 0.04761397 0.03762110
v 0.02296283 0.04867692 0.03762272
v 0.02189931 0.04936884 0.03755960
v 0.02368491 0.04929864 0.03753317
v 0.02296283 0.04989028 0.03724940
v 0.02189931 0.04990032 0.03728500
v 0.02083019 0.04992037 0.03729903
v 0.01976107 0.04994043 0.03730712
v 0.01869195 0.04995045 0.03731198
v 0.00694282 0.05006076 0.03733248
v 0.00587370 0.05007079 0.03733302
v -0.00907159 0.05006076 0.03737024
v -0.01869367 0.04952928 0.03762542
v -0.01976279 0.04951926 0.03762326
v -0.02082631 0.04950923 0.03761841
v 0.02296283 0.05384126 0.03269185
v 0.02189371 0.05386132 0.03269185
v 0.02082459 0.05386132 0.03269185
v -0.00800247 0.05057218 0.03683670
v 0.01655371 0.05056215 0.03678598
v 0.02083019 0.05054210 0.03676495
v 0.02189931 0.05053207 0.03675092
v 0.02296283 0.05049196 0.03671531
v 0.01976107 0.05390143 0.03229048
v 0.02403195 0.05042176 0.03664680
v 0.02403755 0.04969976 0.03721703
v 0.02510107 0.04981006 0.03681782
v 0.02515705 0.04867692 0.03737941
v 0.02554887 0.04805519 0.03748246
v 0.02576718 0.04734322 0.03752454
v 0.02587912 0.04655102 0.03754396
v 0.02515705 0.04766411 0.03755852
v 0.02403755 0.04867692 0.03756284
v 0.02483799 0.04832594 0.03752885
v 0.02439579 0.04902789 0.03745278
v 0.02982543 -0.04854358 0.03197119
v 0.02971448 -0.04854358 0.03269151
v 0.02970280 -0.04873439 0.03197119
v 0.02969112 -0.04854358 0.03277891
v 0.02964440 -0.04865021 0.03269151
v 0.02911297 -0.04939052 0.03269151
v 0.02896698 -0.04920175 0.03333500
v 0.02862242 -0.04992472 0.03269151
v -0.02908123 -0.04931450 0.03269151
v -0.02963018 -0.04854358 0.03271216
v 0.02788660 -0.05020022 0.03330283
v 0.02559738 -0.05222933 0.03318181
v 0.02574921 -0.05239107 0.03246965
v -0.02962434 -0.04854358 0.03272657
v -0.02854980 -0.04984869 0.03269151
v -0.02890603 -0.04913593 0.03328986
v 0.02489075 -0.05240586 0.03333788
v 0.02518859 -0.05263086 0.03277171
v -0.02578171 -0.05240433 0.03269151
v -0.02909875 -0.04854358 0.03345842
v -0.02566491 -0.05229158 0.03325241
v -0.02824029 -0.04953032 0.03345169
v -0.02832789 -0.04854511 0.03400683
v 0.02183651 -0.04854358 0.03675270
v 0.02129340 -0.04904919 0.03641415
v 0.01975752 -0.05308750 0.03307376
v 0.02082621 -0.05305077 0.03302286
v 0.02082621 -0.05354312 0.03248886
v 0.02189491 -0.05346557 0.03237265
v 0.02260737 -0.05338546 0.03224923
v 0.02229202 -0.05352373 0.03197119
v -0.02467798 -0.05338955 0.03227421
v -0.02723583 -0.04854511 0.03455043
v -0.02758623 -0.04891858 0.03420756
v -0.02403559 -0.05307271 0.03294459
v -0.02510428 -0.05239413 0.03331868
v 0.01655727 -0.04854358 0.03687660
v 0.02058094 -0.04906093 0.03644248
v 0.01869466 -0.05311097 0.03308865
v 0.01975752 -0.05357067 0.03253976
v 0.02082621 -0.05371200 0.03197119
v 0.02132260 -0.05365843 0.03197119
v -0.02403559 -0.05354924 0.03197119
v -0.02403559 -0.05345230 0.03241058
v -0.02296690 -0.05350587 0.03249126
v -0.02296690 -0.05311965 0.03302575
v -0.02403559 -0.05253852 0.03338831
v -0.01762342 -0.04854358 0.03669508
v 0.01762597 -0.04907164 0.03645785
v 0.01869466 -0.04907062 0.03645689
v 0.01975752 -0.04906756 0.03645209
v -0.01343625 -0.04854358 0.03676711
v -0.00480493 -0.04862521 0.03674070
v -0.00444870 -0.04905328 0.03643096
v 0.01762597 -0.05312628 0.03309489
v 0.01975752 -0.05373904 0.03197119
v 0.01655727 -0.05313903 0.03309922
v 0.01869466 -0.05357067 0.03255465
v -0.02296690 -0.05365383 0.03197119
v -0.02189820 -0.05371608 0.03197119
v -0.02189820 -0.05354618 0.03249126
v -0.01976082 -0.05358292 0.03255801
v -0.01869212 -0.05316863 0.03311314
v -0.01655473 -0.04903440 0.03637910
v -0.01655473 -0.04854358 0.03672149
v 0.01548858 -0.05314464 0.03309970
v -0.01450494 -0.04854358 0.03676231
v 0.01762597 -0.05357067 0.03256041
v 0.01655727 -0.05357067 0.03256522
v -0.02043240 -0.05375537 0.03197119
v -0.02147773 -0.05372833 0.03197119
v -0.02082951 -0.05357271 0.03250471
v -0.01869212 -0.05357118 0.03257866
v -0.01557363 -0.04854358 0.03674550
v -0.02082951 -0.05374516 0.03197119
v -0.02669520 -0.00258239 0.03751529
v -0.02674144 -0.00258239 0.03750848
v -0.02673043 -0.00342200 0.03750166
v -0.03032300 0.04654495 0.03356915
v -0.02727554 -0.00258239 0.03710637
v -0.02779908 -0.03568712 0.03645890
v -0.02724208 -0.02928007 0.03692235
v -0.02724208 -0.03568712 0.03686101
v -0.02669520 -0.04691194 0.03551155
v -0.03024154 0.04761446 0.03354189
v -0.03094429 0.04440594 0.03307844
v -0.02783475 -0.02393254 0.03651343
v -0.02786469 -0.00150289 0.03657477
v -0.02778191 -0.03759624 0.03643164
v -0.03095882 -0.03995515 0.03316022
v -0.03095045 -0.04103465 0.03314659
v -0.02734820 -0.03789610 0.03673152
v -0.02722491 -0.03889564 0.03678605
v -0.02716414 -0.03995515 0.03676560
v -0.02703117 -0.04103465 0.03669063
v -0.02699418 -0.04637219 0.03551837
v -0.02682554 -0.04703189 0.03541614
v -0.02798490 -0.04819135 0.03440745
v -0.03096190 0.03906840 0.03314659
v -0.03098260 -0.00122301 0.03322157
v -0.02803774 0.05155265 0.03338514
v -0.02903947 0.05055311 0.03339195
v -0.03009755 0.04868397 0.03342603
v -0.03091963 0.04547545 0.03295576
v -0.03103588 0.04440594 0.03254002
v -0.03101738 0.04547545 0.03242416
v -0.02777487 -0.03831591 0.03641801
v -0.03106318 -0.03995515 0.03262180
v -0.03106450 -0.04103465 0.03260817
v -0.03106274 -0.04209416 0.03252639
v -0.03104204 -0.04423318 0.03239690
v -0.03086547 -0.04423318 0.03292850
v -0.03028821 -0.04530269 0.03354871
v -0.02952294 -0.04637219 0.03399171
v -0.02898883 -0.04637219 0.03438701
v -0.02775902 -0.03889564 0.03638393
v -0.02888447 -0.04697191 0.03431204
v -0.02832835 -0.04737173 0.03450968
v -0.02869690 -0.04769158 0.03418936
v -0.02961056 -0.04745169 -0.02926244
v -0.02991922 -0.04691194 -0.02986220
v -0.02961188 -0.04734175 -0.03026431
v -0.02986727 -0.04679200 -0.03057100
v -0.02959647 -0.04640218 -0.03138204
v -0.02968982 -0.04530269 -0.03170918
v -0.02685152 0.05251220 0.03330335
v -0.03104072 0.03799890 0.03261499
v -0.03104996 -0.00044337 0.03268315
v -0.02875018 0.05125279 0.03300347
v -0.02997030 0.04933367 0.03328972
v -0.03036659 0.04868397 0.03268315
v -0.03062946 0.04761446 0.03268315
v -0.03083773 0.04652496 0.03263544
v -0.03099316 0.04616513 0.03224695
v -0.03109268 0.04440594 0.03161994
v -0.03109532 0.04334643 0.03161994
v -0.03103764 0.04334643 0.03254002
v -0.03106802 0.04547545 0.03161994
v -0.03114199 -0.04209416 0.03161994
v -0.03113187 -0.04316367 0.03161994
v -0.03105349 -0.04316367 0.03245142
v -0.03111469 -0.04423318 0.03161994
v -0.03101738 -0.04509278 0.03229466
v -0.03084566 -0.04539264 0.03266270
v -0.03014291 -0.04637219 0.03345329
v -0.02749438 0.05222234 0.00919031
v -0.02719056 0.05273210 0.03054991
v -0.02717735 0.05273210 0.03161994
v -0.02901877 0.04655495 -0.03200224
v -0.02894788 0.04743455 -0.03197498
v -0.02884308 0.04815422 -0.03193409
v -0.02861456 0.04868397 -0.03184549
v -0.02901701 0.04947361 -0.03110261
v -0.02875766 0.05019328 -0.03033246
v -0.02881578 0.05026324 -0.02926244
v -0.02884396 0.05029323 -0.02872402
v -0.02887302 0.05032321 -0.02712239
v -0.02889020 0.05034320 -0.02605918
v -0.02924730 -0.04423318 -0.03206358
v -0.02978140 -0.04423318 -0.03183186
v -0.02915527 -0.04530269 -0.03205677
v -0.02999716 -0.04711185 0.03332379
v -0.02936310 -0.04740172 0.03375317
v -0.02984305 -0.04783152 0.03309889
v -0.03001433 -0.04817136 0.03239008
v -0.03007554 -0.04828131 0.03161994
v -0.03008567 -0.04829131 0.03054991
v -0.03008391 -0.04828131 0.02947989
v -0.03007686 -0.04827132 0.02840986
v -0.03002138 -0.04817136 0.02093332
v -0.02967837 -0.04751167 -0.02391913
v -0.03032564 -0.04743170 0.01987011
v -0.03028161 -0.04636220 -0.01324614
v -0.03025695 -0.04636220 -0.01537937
v -0.03009139 -0.04636220 -0.02926244
v -0.03035558 -0.04530269 -0.02926244
v -0.03002138 -0.04640218 -0.03026431
v -0.02997867 -0.04607233 -0.03101400
v -0.03006321 -0.04530269 -0.03117758
v -0.02703249 0.05263215 0.03268315
v -0.02756616 0.05225232 0.03268315
v -0.03104248 0.03693939 0.03260136
v -0.02914910 0.05087296 0.03266270
v -0.02836049 0.05166260 0.03266270
v -0.02888712 0.05139272 0.03229466
v -0.02972724 0.05002335 0.03268315
v -0.03004868 0.04949360 0.03268315
v -0.03011825 0.04963353 0.03161994
v -0.03046214 0.04868397 0.03161994
v -0.03089321 0.04688480 0.03161994
v -0.03101254 0.04634505 0.03161994
v -0.03106978 0.04547545 0.03054991
v -0.03108827 0.04440594 0.03054991
v -0.03106274 -0.03675663 -0.02819923
v -0.03101650 0.04641502 0.03054991
v -0.03111425 -0.04423318 0.03054991
v -0.03104248 -0.04525271 0.03161994
v -0.03094077 -0.04579246 0.03161994
v -0.03056914 -0.04637219 0.03268315
v -0.02878628 0.05129277 0.01773687
v -0.02772423 0.05236227 0.03054991
v -0.02771146 0.05234228 0.03161994
v -0.02982499 -0.04316367 -0.03187275
v -0.02971227 0.00062613 -0.03183186
v -0.02963390 0.03052235 -0.03179097
v -0.02958854 0.04440594 -0.03174326
v -0.02955288 0.04655495 -0.03164784
v -0.02958018 0.04547545 -0.03171600
v -0.02942078 0.04775440 -0.03146382
v -0.02922748 0.04868397 -0.03130707
v -0.02913854 0.04965352 -0.03033246
v -0.02997911 0.04738457 -0.03100038
v -0.02989324 0.04809424 -0.03060508
v -0.02917553 0.04973349 -0.02926244
v -0.02889945 0.05035320 -0.02498915
v -0.02921471 0.04975348 -0.02712239
v -0.02923541 0.04975348 -0.02605918
v -0.02991394 0.04922372 -0.00321381
v -0.02991790 0.04923372 -0.00256634
v -0.02982852 0.05020327 0.03054991
v -0.03011208 -0.04423318 -0.03130025
v -0.03016008 -0.04745169 0.03271722
v -0.03041326 -0.04743170 0.03161994
v -0.03042119 -0.04743170 0.03054991
v -0.03041635 -0.04743170 0.02947989
v -0.03040754 -0.04743170 0.02840986
v -0.03033709 -0.04743170 0.02093332
v -0.03035162 -0.04636220 -0.00683962
v -0.03040490 -0.04530269 -0.02605918
v -0.03038949 -0.04530269 -0.02712239
v -0.03048019 -0.04423318 -0.02926244
v -0.03028249 -0.04530269 -0.03032565
v -0.03039785 -0.04423318 -0.03032565
v -0.02890605 0.05141271 0.03161994
v -0.02980694 0.05016329 0.03161994
v -0.03013234 0.04966352 0.03054991
v -0.03047447 0.04868397 0.03054991
v -0.03090730 0.04695477 0.03054991
v -0.03047315 0.04547545 -0.02392594
v -0.03097951 0.04495569 0.02037445
v -0.03100373 0.04440594 0.02200334
v -0.03104336 -0.03781614 -0.02885351
v -0.03104688 -0.03783613 -0.02817878
v -0.03049693 0.04440594 -0.02392594
v -0.03043264 0.04440594 -0.02926244
v -0.03040226 0.04333644 -0.03033246
v -0.03037055 0.04761446 -0.01111291
v -0.03044012 0.04655495 -0.02071587
v -0.03099096 -0.04486289 0.02200334
v -0.03104204 -0.04520273 0.03054991
v -0.03100769 -0.03848583 -0.02878536
v -0.03012661 -0.04316367 -0.03133433
v -0.03015876 -0.04209416 -0.03133433
v -0.03017637 -0.04103465 -0.03132752
v -0.03019354 -0.02393254 -0.03131389
v -0.03020059 -0.01325746 -0.03129344
v -0.03016052 0.02945284 -0.03125255
v -0.03015832 0.03052235 -0.03125255
v -0.03013982 0.04333644 -0.03121165
v -0.02963434 0.03159185 -0.03178415
v -0.03013058 0.04440594 -0.03120484
v -0.03004164 0.04655495 -0.03111624
v -0.03009579 0.04547545 -0.03117758
v -0.02970919 0.04858401 -0.03028475
v -0.03021424 0.04655495 -0.03033246
v -0.03001301 0.04768443 -0.03028475
v -0.02991658 0.04816421 -0.02988946
v -0.02970919 0.04871396 -0.02926244
v -0.02973781 0.04886388 -0.02392594
v -0.02999980 0.04837411 -0.02178589
v -0.03007554 0.04855403 -0.01111291
v -0.03013410 0.04868397 -0.00256634
v -0.03031639 0.04868397 0.01239356
v -0.03098480 -0.04481291 0.02093332
v -0.03098084 -0.04478293 0.02027222
v -0.03032608 0.04868397 0.01346359
v -0.03044188 0.04547545 -0.02605918
v -0.03019663 -0.02287303 -0.03130707
v -0.03018738 -0.03247860 -0.03131389
v -0.03042559 0.04547545 -0.02712239
v -0.03040666 0.04547545 -0.02819241
v -0.03038288 0.04547545 -0.02926244
v -0.03039037 0.04440594 -0.03033246
v -0.03035866 0.04761446 -0.01217612
v -0.03033004 0.04761446 -0.01431617
v -0.03024330 0.04761446 -0.02071587
v -0.03042427 0.04655495 -0.02178589
v -0.03032432 0.04547545 -0.03033246
v -0.03027589 0.04655495 -0.02926244
v -0.03007598 0.04761446 -0.02926244
v -0.03009888 0.04761446 -0.02819241
v -0.02992407 0.04818420 -0.02926244
v -0.02998043 0.04833413 -0.02392594
v -0.02999056 0.04835412 -0.02284910
v -0.03033092 0.04655495 -0.02712239
v -0.03030759 0.04655495 -0.02819241
v -0.03022569 0.04761446 -0.02178589
v -0.03020587 0.04761446 -0.02284910
v 0.02557909 -0.01936939 0.03749913
v 0.02572459 -0.01936939 0.03749913
v 0.02653450 0.05296755 0.03053717
v 0.02515660 -0.04637359 0.03719198
v 0.02617395 -0.04530659 0.03714420
v 0.02627505 -0.01860155 0.03747182
v 0.02674837 -0.00044252 0.03751960
v 0.02682083 0.05248890 0.03329465
v 0.02802926 0.05157147 0.03341068
v 0.02699847 0.05260856 0.03268036
v 0.02712878 0.05268834 0.03160876
v 0.02713988 0.05268834 0.03053717
v 0.02713988 0.05268834 0.02947240
v 0.02710657 0.05266839 0.02520649
v 0.02708320 0.05265842 0.02306329
v 0.02617395 -0.04637359 0.03694627
v 0.02515660 -0.04750043 0.03683023
v 0.02700957 -0.04530659 0.03674150
v 0.02709897 -0.04423958 0.03678928
v 0.02717786 -0.04103857 0.03682341
v 0.02674019 -0.00150953 0.03751278
v 0.02722753 -0.03248258 0.03687118
v 0.02776396 -0.03461659 0.03638658
v 0.02728188 0.00062448 0.03700770
v 0.03034795 0.04441157 0.03354719
v 0.03033509 0.04547858 0.03354036
v 0.03031172 0.04654558 0.03353354
v 0.03024335 0.04761259 0.03351989
v 0.02753256 0.05225954 0.03268036
v 0.02902265 0.05051444 0.03337655
v 0.02874041 0.05123243 0.03291242
v 0.02766287 0.05230940 0.03160876
v 0.02767398 0.05231937 0.03053717
v 0.02767456 0.05231937 0.02947240
v 0.02766930 0.05231937 0.02840762
v 0.02762956 0.05230940 0.02413489
v 0.02760560 0.05229943 0.02199852
v 0.02756762 0.05227949 0.01879056
v 0.02877664 0.05022525 -0.02926062
v 0.02875151 0.05018536 -0.03032540
v 0.02899343 0.04947735 -0.03107620
v 0.02860542 0.04867959 -0.03182017
v 0.02879592 0.04804138 -0.03191573
v 0.02891396 0.04733337 -0.03195668
v 0.02617395 -0.04712149 0.03659816
v 0.02671155 -0.04691208 0.03642753
v 0.02683134 -0.04637359 0.03655721
v 0.02991495 -0.04798906 0.03322639
v 0.03000435 -0.04744060 0.03332195
v 0.03015161 -0.04637359 0.03344481
v 0.03024920 -0.04530659 0.03349259
v 0.03029185 -0.04423958 0.03351989
v 0.02775987 -0.03569357 0.03637293
v 0.02779435 -0.00685452 0.03645483
v 0.03029945 -0.04317258 0.03353354
v 0.03030354 -0.04209560 0.03354036
v 0.03093464 0.00809352 0.03309671
v 0.02780136 0.00062448 0.03646848
v 0.03090367 0.04121056 0.03297385
v 0.03088263 0.04441157 0.03291242
v 0.03086861 0.04547858 0.03283052
v 0.03082069 0.04648575 0.03260528
v 0.03060565 0.04761259 0.03268036
v 0.03008733 0.04867959 0.03341068
v 0.02835474 0.05165125 0.03260528
v 0.02885786 0.05136206 0.03219575
v 0.02996228 0.04930783 0.03328099
v 0.02912725 0.05085349 0.03260528
v 0.02972153 0.05002581 0.03268036
v 0.02887422 0.05138201 0.03160876
v 0.02887831 0.05138201 0.03053717
v 0.02951701 -0.04529662 -0.03167001
v 0.02939313 -0.04639354 -0.03143794
v 0.02919328 -0.04744060 -0.03121270
v 0.02999208 -0.04610435 -0.03101477
v 0.02987989 -0.04683230 -0.03059159
v 0.02967011 -0.04733090 -0.03027079
v 0.02968413 -0.04745057 -0.02926062
v 0.02889234 0.05034491 -0.02178675
v 0.02885260 0.05029505 -0.02498789
v 0.02884501 0.05028508 -0.02556123
v 0.02917575 0.04968676 -0.02926062
v 0.02912082 0.04964688 -0.03032540
v 0.02921724 0.04867959 -0.03128779
v 0.02990385 0.04813113 -0.03081683
v 0.02940890 0.04773225 -0.03147208
v 0.02951759 0.04654558 -0.03171096
v 0.02957603 0.04547858 -0.03178604
v 0.02961050 0.04440160 -0.03179969
v 0.02968764 0.04121056 -0.03182700
v 0.02969699 0.04014355 -0.03182700
v 0.02970225 0.03693257 -0.03183382
v 0.02970809 -0.01965858 -0.03184747
v 0.02969640 -0.02713759 -0.03183382
v 0.02998916 -0.04810872 0.03268718
v 0.03023459 -0.04744060 0.03268718
v 0.03050806 -0.04637359 0.03268718
v 0.03068454 -0.04530659 0.03268718
v 0.03083004 -0.04423958 0.03261892
v 0.03083354 -0.04317258 0.03278957
v 0.03084173 -0.04103857 0.03280322
v 0.03092645 0.00062448 0.03304893
v 0.03106202 0.00809352 0.03255750
v 0.03106202 0.00916052 0.03255750
v 0.03090600 0.04013358 0.03297385
v 0.03100651 -0.04209560 0.03226401
v 0.03103105 0.04121056 0.03243464
v 0.03103047 0.04225762 0.03242099
v 0.03102463 0.04441157 0.03238004
v 0.03100768 0.04547858 0.03229813
v 0.03098781 0.04608687 0.03220258
v 0.03045196 0.04867959 0.03160876
v 0.03035905 0.04867959 0.03268036
v 0.02979341 0.05015545 0.03160876
v 0.03006162 0.04949730 0.03268036
v 0.02978289 0.05013550 0.02840762
v 0.02890110 0.05035489 -0.02071516
v 0.02961927 -0.04102860 -0.03177239
v 0.02960934 -0.04208563 -0.03176557
v 0.02960232 -0.04315263 -0.03175192
v 0.02958129 -0.04422961 -0.03172461
v 0.03006279 -0.04529662 -0.03113763
v 0.03024043 -0.04529662 -0.03032540
v 0.03002247 -0.04642345 -0.03027079
v 0.02991787 -0.04691208 -0.02987492
v 0.02997046 -0.04807881 0.01666102
v 0.03005987 -0.04822838 0.03053717
v 0.03005870 -0.04823836 0.03158829
v 0.03005870 -0.04823836 0.03159511
v 0.03006337 -0.04822838 0.03162241
v 0.02977003 0.05008565 0.02520649
v 0.02959999 0.04978648 0.00171328
v 0.02970984 0.04881920 -0.02926062
v 0.02970108 0.04862973 -0.03040730
v 0.02999325 0.04741315 -0.03102842
v 0.02995001 0.04824082 -0.03010698
v 0.03006279 0.04771231 -0.03040730
v 0.03032574 0.04654558 -0.03032540
v 0.03008909 0.04654558 -0.03117858
v 0.03016973 0.04547858 -0.03124683
v 0.03019485 0.04440160 -0.03126048
v 0.03018316 0.04121056 -0.03128779
v 0.03018200 0.03371160 -0.03131509
v 0.03020654 -0.00470057 -0.03131509
v 0.03020654 -0.01965858 -0.03131509
v 0.03014986 -0.04208563 -0.03123318
v 0.03037717 -0.04744060 0.03162241
v 0.03060506 -0.04637359 0.03162241
v 0.03099483 -0.04389056 0.03221622
v 0.03100359 -0.04317258 0.03225718
v 0.03112513 0.00809352 0.03160876
v 0.03112572 0.00916052 0.03160876
v 0.03112513 0.01022753 0.03160876
v 0.03101294 -0.04317258 0.03162241
v 0.03106903 0.04441157 0.03160876
v 0.03104040 0.04547858 0.03160876
v 0.03099541 0.04621651 0.03160876
v 0.03041106 0.04867959 0.02626443
v 0.03013233 0.04961696 0.03160876
v 0.03099541 0.04624642 0.03053717
v 0.03037717 0.04761259 -0.01110492
v 0.03012298 0.04961696 0.03053717
v 0.03013700 -0.04315263 -0.03121953
v 0.03010895 -0.04422961 -0.03119223
v 0.03032458 -0.04422961 -0.03032540
v 0.03028250 -0.04529662 -0.02926062
v 0.03007097 -0.04637359 -0.02926062
v 0.03037600 -0.04743062 0.02947240
v 0.03027666 -0.04743062 0.01986216
v 0.03038126 -0.04743062 0.03053717
v 0.03009259 0.04956710 0.02626443
v 0.02992722 0.04924800 0.00171328
v 0.02997046 0.04828071 -0.02926062
v 0.03016505 0.04761259 -0.02926062
v 0.03037600 0.04654558 -0.02926062
v 0.03045372 0.04547858 -0.03032540
v 0.03048703 0.04440160 -0.03032540
v 0.03019719 0.02625254 -0.03128779
v 0.03050163 -0.00470057 -0.03032540
v 0.03050397 -0.01325655 -0.03032540
v 0.03050280 -0.01965858 -0.03032540
v 0.03050047 -0.02072559 -0.03032540
v 0.03041048 -0.04102860 -0.03032540
v 0.03039762 -0.04208563 -0.03032540
v 0.03049637 -0.02179259 -0.03032540
v 0.03055306 -0.04637359 0.02413489
v 0.03099599 -0.04395039 0.03159511
v 0.03099599 -0.04395039 0.03162241
v 0.03049930 -0.02713759 -0.02926062
v 0.03106436 0.04441157 0.03053717
v 0.03049754 -0.04315263 -0.02392312
v 0.03049404 -0.02928157 -0.02926062
v 0.03049696 -0.02819462 -0.02926062
v 0.03103807 0.04547858 0.03053717
v 0.03037425 0.04867959 0.02199852
v 0.03046716 0.04547858 -0.02926062
v 0.03035496 0.04761259 -0.01324129
v 0.03005578 0.04849013 -0.01431288
v 0.03036782 -0.04315263 -0.03032540
v 0.03040872 -0.04422961 -0.02818903
v 0.03030997 -0.04529662 -0.02818903
v 0.03037600 -0.04637359 0.00273027
v 0.03032984 -0.04529662 -0.02712426
v 0.03034503 -0.04529662 -0.02605266
v 0.03035730 -0.04529662 -0.02498789
v 0.03039470 -0.04637359 0.00491442
v 0.03046774 -0.04637359 0.01345988
v 0.03053728 -0.04637359 0.02199852
v 0.03054546 -0.04637359 0.02306329
v 0.03034269 0.04761259 -0.01431288
v 0.03043385 -0.04102860 -0.02926062
v 0.03042216 -0.04208563 -0.02926062
v 0.03043151 -0.04315263 -0.02818903
v 0.03039353 -0.04529662 -0.02071516
v 0.03038477 -0.04529662 -0.02178675
v 0.03036723 -0.04529662 -0.02392312
v 0.03046365 -0.04422961 -0.02498789
v 0.03048703 -0.04315263 -0.02498789
v 0.03043560 -0.04422961 -0.02712426
v 0.03045079 -0.04422961 -0.02605266
v 0.03046891 -0.04315263 -0.02605266
v 0.00087670 0.04607082 -0.03945540
v 0.01228454 0.03801006 -0.03965036
v 0.00160333 0.04607819 -0.03946202
v 0.01335248 0.03694488 -0.03963564
v 0.01442042 0.03480898 -0.03963270
v 0.00694485 0.04228555 -0.03954809
v 0.01137257 0.03892413 -0.03962387
v 0.01235243 0.03915449 -0.03956134
v 0.00218134 0.04604870 -0.03943847
v 0.00694485 0.04313143 -0.03948924
v 0.00805683 0.04234636 -0.03950910
v 0.01339652 0.03802296 -0.03954957
v 0.01442042 0.03587601 -0.03959224
v 0.01256529 0.03892413 -0.03955913
v 0.01534706 0.03480898 -0.03953485
v 0.01559478 0.03384331 -0.03954441
v 0.01548835 0.03267308 -0.03959739
v 0.01123312 0.04019387 -0.03952676
v 0.01204233 0.03986768 -0.03948997
v 0.01289374 0.03892413 -0.03951793
v 0.01289558 0.03892229 -0.03951793
v 0.01650124 0.02946831 -0.03952308
v 0.00844400 0.04274258 -0.03939286
v 0.00773021 0.04293608 -0.03945907
v 0.00908073 0.04200358 -0.03947673
v 0.01306990 0.03884673 -0.03950395
v 0.01438372 0.03685458 -0.03950468
v 0.01602048 0.03426717 -0.03941566
v 0.01610673 0.03355582 -0.03945540
v 0.01622233 0.03267308 -0.03949807
v 0.01509200 0.03587601 -0.03947011
v 0.01638564 0.03160421 -0.03952455
v 0.01651225 0.03053534 -0.03952676
v 0.01088998 0.04084625 -0.03946054
v 0.01160011 0.04057904 -0.03936932
v 0.01275429 0.03955993 -0.03939065
v 0.01303687 0.03892413 -0.03949292
v 0.01704622 0.03053534 -0.03939874
v 0.01042024 0.04155761 -0.03934430
v 0.00970828 0.04180824 -0.03943553
v 0.01400388 0.03767650 -0.03946570
v 0.01496906 0.03643809 -0.03942523
v -0.02369484 -0.05378067 0.02841340
v -0.02403649 -0.05373128 0.02947942
v -0.02403649 -0.05373051 0.02841340
v -0.02403717 -0.05362556 -0.00683571
v -0.02403649 -0.05369887 0.03055132
v -0.02484800 -0.05345963 0.03055132
v -0.02484595 -0.05346195 0.02947942
v -0.02466728 -0.05339481 -0.00683571
v -0.02441633 -0.05325049 -0.02392137
v -0.02385782 -0.05343957 -0.02499327
v -0.02297267 -0.05370427 -0.01217756
v -0.02297267 -0.05372433 -0.01004553
v -0.02403649 -0.05362556 0.03161733
v -0.02478935 -0.05343880 0.03161733
v -0.02538195 -0.05314013 0.03055132
v -0.02816972 -0.04944124 -0.02819720
v -0.02457727 -0.05332999 -0.01388553
v -0.02879505 -0.05007251 0.03055132
v -0.02854615 -0.04982864 0.00705191
v -0.02853524 -0.04981707 0.00598590
v -0.02496665 -0.05271646 -0.02392137
v -0.02495233 -0.05270025 -0.02499327
v -0.02439178 -0.05323429 -0.02499327
v -0.02379031 -0.05341873 -0.02605929
v -0.02473070 -0.05341256 0.03197071
v -0.02532331 -0.05308920 0.03161733
v -0.02875277 -0.05003470 0.03161733
v -0.02874664 -0.04894965 -0.02392137
v -0.02873709 -0.04893498 -0.02499327
v -0.02871254 -0.04890025 -0.02713119
v -0.02870163 -0.04888096 -0.02819720
v -0.02488346 -0.05257291 -0.02819720
v -0.02491483 -0.05264391 -0.02713119
v -0.02923081 -0.04950143 0.03161733
v -0.02923081 -0.04953925 0.03055132
v -0.02920831 -0.04948291 0.02520947
v -0.02905419 -0.04930618 0.00811792
v -0.02904464 -0.04929461 0.00705191
v -0.02902418 -0.04927146 0.00491399
v -0.02432427 -0.05320419 -0.02605929
v -0.02418447 -0.05317795 -0.02713119
v -0.02364983 -0.05336934 -0.02713119
v -0.02868663 -0.04997373 0.03197071
v -0.02918376 -0.04944047 0.03197071
v -0.02885302 -0.04906463 -0.01324357
v -0.02910602 -0.04846886 -0.02382125
v -0.02910602 -0.04843953 -0.02499327
v -0.02910602 -0.04841252 -0.02600628
v -0.02910602 -0.04841098 -0.02605929
v -0.02910602 -0.04837779 -0.02713119
v -0.02909988 -0.04834384 -0.02819720
v -0.02910602 -0.04835619 -0.02769070
v -0.02484322 -0.05259607 -0.02819720
v -0.02976477 -0.04882385 0.03161733
v -0.02976477 -0.04883311 0.03055132
v -0.02976204 -0.04882848 0.02947942
v -0.02974295 -0.04877447 0.02520947
v -0.02973340 -0.04876211 0.02413757
v -0.02353731 -0.05333384 -0.02769659
v -0.02395057 -0.05307686 -0.02810886
v -0.02986842 -0.04854372 0.02475598
v -0.02992025 -0.04854372 0.02841340
v -0.02993321 -0.04854372 0.02947942
v -0.02993934 -0.04854372 0.03055132
v -0.02993594 -0.04854372 0.03105193
v -0.02992775 -0.04854372 0.03161733
v -0.02971499 -0.04873433 0.02200554
v -0.02982137 -0.04854372 0.02163450
v -0.02402285 -0.05301898 -0.02819720
v -0.02985274 -0.04854372 0.02371352
v -0.02396216 -0.05304213 -0.02819720
v 0.02791912 0.05149269 -0.01538161
v 0.02725184 0.05206231 -0.01004192
v 0.02839178 0.05101480 -0.01538161
v 0.02839178 0.05099452 -0.01644891
v 0.02783293 0.05141739 -0.02392640
v 0.02670966 0.05243642 -0.01073534
v 0.02839178 0.05090522 -0.02072131
v 0.02837510 0.05087819 -0.02285910
v 0.02779957 0.05138746 -0.02713149
v 0.02612579 0.05267923 -0.01431431
v 0.02615638 0.05269323 -0.01217971
v 0.02627593 0.05264785 -0.01109963
v 0.02617028 0.05276371 -0.00576952
v 0.02617028 0.05277626 -0.00469902
v 0.02724071 0.05176736 -0.02713149
v 0.02643997 0.05226891 -0.02926609
v 0.02594785 0.05259138 -0.02713149
v 0.02836676 0.05086129 -0.02392640
v 0.02778845 0.05137732 -0.02801665
v 0.02839178 0.04887487 -0.03186404
v 0.02510262 0.05290708 -0.02713149
v 0.02617028 0.05271254 -0.01004192
v 0.02617028 0.05280088 -0.00256443
v 0.02777454 0.05136574 -0.02872925
v 0.02721291 0.05173454 -0.02926609
v 0.02715452 0.05171233 -0.03033659
v 0.02636768 0.05224671 -0.03033659
v 0.02590336 0.05256965 -0.02926609
v 0.02835564 0.05084343 -0.02499370
v 0.02189965 0.05353993 -0.01217971
v 0.00160303 0.05288197 -0.03138471
v 0.02786073 0.04932815 -0.03196310
v 0.02831393 0.04976550 -0.03146461
v 0.02839178 0.04947152 -0.03156367
v 0.02510262 0.05288680 -0.02819880
v 0.02352059 0.05350566 -0.00979586
v 0.02354562 0.05351000 -0.00897462
v 0.02839178 0.05055958 -0.03033659
v 0.02821662 0.05074158 -0.03033659
v 0.02774674 0.05133484 -0.02926609
v 0.02768835 0.05127547 -0.03033659
v 0.02698492 0.05158393 -0.03110351
v 0.02583107 0.05253248 -0.03033659
v 0.02572542 0.05247600 -0.03094054
v 0.02510262 0.05280474 -0.03033659
v 0.02510262 0.05286412 -0.02926609
v 0.02189965 0.05352352 -0.01324701
v 0.00160303 0.05325174 -0.03033659
v 0.02277824 0.05352110 -0.01217971
v 0.02263644 0.05351290 -0.01324701
v 0.01976155 0.05283081 -0.03132720
v 0.00275688 0.05279074 -0.03150615
v 0.00316837 0.05243497 -0.03193754
v 0.01762624 0.05319237 -0.03033659
v 0.02403496 0.05210913 -0.03180013
v 0.02558640 0.05131553 -0.03193115
v 0.02675693 0.05033560 -0.03195032
v 0.02746871 0.05004017 -0.03183848
v 0.02805536 0.05057455 -0.03112908
v 0.02839178 0.04973316 -0.03141987
v 0.02403496 0.05304417 -0.02926609
v 0.02403496 0.05306493 -0.02819880
v 0.02348445 0.05349600 -0.01050846
v 0.02839178 0.05038870 -0.03074242
v 0.02611745 0.05192377 -0.03126009
v 0.02617028 0.05108961 -0.03184167
v 0.02510262 0.05259475 -0.03110032
v 0.02403496 0.05302100 -0.03033659
v 0.02251132 0.05350614 -0.01380303
v 0.01869389 0.05318609 -0.03033659
v 0.02296730 0.05308231 -0.03033659
v 0.02082921 0.05282260 -0.03132400
v 0.00322954 0.05243497 -0.03193754
v 0.02296730 0.05276854 -0.03131122
v 0.02403496 0.05272316 -0.03126648
v 0.02518047 0.05186053 -0.03169148
v 0.02189965 0.05312141 -0.03033659
v 0.02082921 0.05315375 -0.03033659
v 0.01976155 0.05317258 -0.03033659
v 0.02189965 0.05279895 -0.03131761
v -0.02189621 -0.05389907 0.02948365
v -0.02296592 -0.05388596 0.02841613
v 0.02082943 -0.05387600 0.03055403
v -0.02369480 -0.05378006 0.02948365
v -0.02189621 -0.05389750 0.03055403
v -0.02296592 -0.05388387 0.02948365
v 0.02189915 -0.05377587 0.03055403
v 0.02082943 -0.05382514 0.03162155
v 0.01975972 -0.05384140 0.03162155
v -0.02369480 -0.05374703 0.03055403
v -0.02369480 -0.05366629 0.03162155
v -0.02296592 -0.05375280 0.03162155
v -0.02082649 -0.05385713 0.03162155
v -0.02189621 -0.05382986 0.03162155
v -0.02296592 -0.05384874 0.03055403
v 0.02189915 -0.05369670 0.03162155
v 0.02458392 -0.05333128 0.03099191
v 0.02458392 -0.05333128 0.03126094
v 0.02082943 -0.05371191 0.03197071
v 0.02189915 -0.05358922 0.03197071
v 0.02987481 -0.04854359 0.03162155
v 0.02500342 -0.05305813 0.03161868
v 0.02506110 -0.05292811 0.03197071
v 0.02972799 -0.04877532 0.03162155
v 0.02972799 -0.04877479 0.03055403
v 0.02986957 -0.04854359 0.03055403
v 0.02906728 -0.04929540 0.01132724
v 0.02581094 -0.05246937 0.03162155
v 0.02531279 -0.05278341 0.03197071
v 0.02952873 -0.04897559 0.03197071
v 0.02919313 -0.04949515 0.03162155
v 0.02965457 -0.04854359 0.01453266
v 0.02874742 -0.05002939 0.03162155
v 0.02886802 -0.04982125 0.03197071
v 0.01019437 0.01445097 -0.03949835
v 0.01129197 0.01549903 -0.03951729
v 0.01301594 0.01691943 -0.03947212
v 0.01121739 0.01664822 -0.03957120
v 0.01228533 0.01771620 -0.03957630
v 0.01233957 0.01659765 -0.03952385
v 0.01336513 0.01774684 -0.03950272
v 0.01414236 0.01878418 -0.03947431
v 0.01597820 0.02153763 -0.03940437
v 0.01335412 0.01878418 -0.03955372
v 0.01549000 0.02305610 -0.03955663
v 0.01556882 0.02193142 -0.03949762
v 0.01524929 0.02091860 -0.03947285
v 0.01607482 0.02224860 -0.03944225
v 0.01703597 0.02626004 -0.03940000
v 0.01704868 0.02732955 -0.03940364
v 0.01651387 0.02732955 -0.03950709
v 0.01650115 0.02626004 -0.03949689
v 0.01622061 0.02412407 -0.03948450
v 0.01614178 0.02305610 -0.03946848
v -0.02082916 0.05332464 -0.03033759
v -0.01548781 0.05289695 -0.03134811
v -0.01976256 0.05289814 -0.03132449
v -0.02082916 0.05289340 -0.03132141
v -0.02189855 0.05288273 -0.03131491
v -0.02189855 0.05329502 -0.03033759
v -0.02296793 0.05284008 -0.03130977
v -0.02296793 0.05319550 -0.03033759
v -0.02403453 0.05274886 -0.03125603
v -0.02403453 0.05306873 -0.03033759
v -0.02510391 0.05189941 -0.03152920
v -0.02670520 0.05029647 -0.03193964
v -0.02627912 0.05076918 -0.03183181
v -0.02510391 0.05258892 -0.03107597
v -0.02510391 0.05282587 -0.03033759
v -0.02510391 0.05291117 -0.02926922
v -0.02610368 0.05191007 -0.03122008
v -0.02782472 0.04927761 -0.03195162
v -0.02723990 0.05006664 -0.03186706
v -0.02728724 0.05089002 -0.03137515
v -0.02569987 0.05246571 -0.03092021
v -0.02584747 0.05254035 -0.03033759
v -0.02596722 0.05260314 -0.02926922
v -0.02696420 0.05156177 -0.03109548
v -0.02845966 0.04920179 -0.03166886
v -0.02829536 0.04973729 -0.03147648
v -0.02805308 0.05057251 -0.03113074
v -0.02637938 0.05223943 -0.03033759
v -0.02649913 0.05228682 -0.02926922
v -0.02778573 0.05137695 -0.02985321
v -0.02767712 0.05128454 -0.03056489
v -0.02845966 0.04968042 -0.03139364
v -0.02845966 0.05053342 -0.03030028
v -0.02728724 0.05164469 -0.03026057
v -0.02813940 0.05089002 -0.03026057
v 0.02911831 -0.04531019 -0.03191129
v 0.02911831 -0.04531418 -0.03191090
v 0.02898153 -0.04531418 -0.03198875
v 0.02911831 -0.04841507 -0.02926944
v 0.02911831 -0.04615182 -0.03173907
v 0.02890174 -0.04595956 -0.03196241
v 0.02831473 -0.04634249 -0.03202492
v 0.02617187 -0.04851878 -0.03210828
v -0.02403149 -0.04958618 -0.03221405
v -0.02910369 -0.04537560 -0.03207014
v -0.02830581 -0.04638238 -0.03215900
v 0.02911831 -0.04840949 -0.02934375
v 0.02870797 -0.04891048 -0.02926944
v 0.02868517 -0.04886022 -0.03033774
v 0.02911831 -0.04745058 -0.03127943
v 0.02846861 -0.04745058 -0.03175834
v 0.02779041 -0.04802177 -0.03194589
v 0.02793289 -0.04745058 -0.03198718
v -0.02910369 -0.04827785 -0.02926983
v -0.02868195 -0.04886022 -0.02926983
v 0.02721480 -0.04843422 -0.03200211
v 0.02609208 -0.04955587 -0.03200526
v 0.02510044 -0.04958618 -0.03207722
v 0.02402901 -0.04958618 -0.03211221
v 0.02683867 -0.04918092 -0.03197538
v -0.00053410 -0.05055228 -0.03203908
v -0.02296576 -0.05049803 -0.03207250
v -0.02403149 -0.05044777 -0.03207210
v -0.02510292 -0.04958618 -0.03215979
v -0.02616865 -0.04851958 -0.03218338
v 0.02296328 -0.05039671 -0.03202374
v -0.02724008 -0.04745058 -0.03217473
v -0.02910369 -0.04568992 -0.03205009
v -0.02830581 -0.04741867 -0.03204419
v -0.02901250 -0.04638238 -0.03202296
v -0.02726858 -0.04853792 -0.03206267
v 0.02911831 -0.04834487 -0.02994730
v 0.02817795 -0.04943142 -0.02926944
v 0.02814946 -0.04940589 -0.03033774
v 0.02800698 -0.04927346 -0.03114142
v 0.02898153 -0.04818372 -0.03105256
v 0.02909551 -0.04832652 -0.03033774
v 0.01976039 -0.05289928 -0.02926944
v 0.02082612 -0.05287136 -0.02926944
v -0.02082859 -0.05283147 -0.02926983
v 0.02189755 -0.05280675 -0.02926944
v 0.02296328 -0.05271261 -0.02926944
v 0.02407460 -0.05249163 -0.02933471
v 0.02469010 -0.05238712 -0.02902252
v 0.02753396 -0.04994039 -0.03033774
v 0.02758525 -0.04996592 -0.02926944
v 0.02911831 -0.04771623 -0.03116226
v 0.02755675 -0.04873418 -0.03185349
v -0.02903530 -0.04826270 -0.03033735
v -0.02864206 -0.04879640 -0.03033735
v -0.02810634 -0.04939313 -0.03033735
v -0.02815194 -0.04942264 -0.02926983
v 0.02568175 -0.05013824 -0.03195100
v 0.02510044 -0.05020445 -0.03198167
v 0.02402901 -0.05032331 -0.03201588
v 0.02639414 -0.04989173 -0.03180080
v -0.00159984 -0.05057142 -0.03203711
v 0.02189755 -0.05041984 -0.03202138
v 0.02082612 -0.05043820 -0.03201981
v -0.02189433 -0.05052435 -0.03206621
v -0.01976286 -0.05107880 -0.03189006
v -0.02082859 -0.05107082 -0.03188298
v -0.02189433 -0.05105805 -0.03187276
v -0.02296576 -0.05103332 -0.03185074
v -0.02403149 -0.05098306 -0.03179215
v -0.02510292 -0.05030736 -0.03202650
v -0.02611736 -0.04957900 -0.03204576
v -0.02693233 -0.04921922 -0.03200566
v 0.02296328 -0.05093041 -0.03182321
v 0.02189755 -0.05095434 -0.03184091
v 0.02082612 -0.05097269 -0.03185152
v -0.02910369 -0.04624037 -0.03198246
v -0.02889282 -0.04704212 -0.03196948
v -0.02794677 -0.04819329 -0.03199229
v 0.02911831 -0.04829541 -0.03033577
v 0.02687856 -0.05023955 -0.03108834
v 0.02721480 -0.04958299 -0.03147092
v 0.02082612 -0.05245493 -0.03009357
v 0.02189755 -0.05244855 -0.03009042
v -0.01976286 -0.05246052 -0.03012070
v -0.00159984 -0.05245733 -0.03012227
v -0.02189433 -0.05280914 -0.02926983
v -0.02189433 -0.05245334 -0.03009081
v -0.02082859 -0.05246211 -0.03011205
v 0.02296328 -0.05239510 -0.03004009
v 0.02374405 -0.05231931 -0.02992921
v 0.02445644 -0.05221002 -0.02973458
v 0.02560766 -0.05117532 -0.03081979
v 0.02700394 -0.05033927 -0.03033774
v -0.02910369 -0.04795237 -0.03090236
v -0.02894981 -0.04813506 -0.03109424
v -0.02796956 -0.04926628 -0.03116030
v -0.02754213 -0.04992683 -0.03033735
v -0.02475527 -0.05243100 -0.02905751
v -0.02700642 -0.05035204 -0.03033735
v -0.02688104 -0.05025231 -0.03107812
v 0.02609208 -0.05040788 -0.03142884
v 0.02489527 -0.05130216 -0.03102779
v 0.02402901 -0.05144497 -0.03119136
v 0.02402901 -0.05085702 -0.03172531
v -0.00159984 -0.05110512 -0.03190972
v -0.00267127 -0.05110672 -0.03191011
v -0.01976286 -0.05157102 -0.03135532
v -0.02082859 -0.05156144 -0.03134903
v -0.02189433 -0.05154469 -0.03133880
v -0.02296576 -0.05153033 -0.03131678
v -0.02403149 -0.05146012 -0.03125780
v -0.02492055 -0.05132770 -0.03110053
v -0.02520550 -0.05091047 -0.03143631
v -0.02573552 -0.05017254 -0.03196988
v -0.02764471 -0.04890490 -0.03187237
v 0.02296328 -0.05153830 -0.03128887
v 0.02189755 -0.05154469 -0.03130695
v 0.02082612 -0.05154389 -0.03131757
v -0.02910369 -0.04685625 -0.03179648
v -0.02865916 -0.04775373 -0.03180670
v -0.02910369 -0.04743542 -0.03145047
v -0.02910369 -0.04738277 -0.03148428
v -0.02296576 -0.05278122 -0.02926983
v 0.02189755 -0.05207919 -0.03062398
v -0.00159984 -0.05211030 -0.03065544
v 0.02296328 -0.05207201 -0.03057404
v -0.01976286 -0.05210472 -0.03065465
v -0.02296576 -0.05243579 -0.03006880
v -0.02082859 -0.05209514 -0.03064561
v -0.02296576 -0.05206403 -0.03060196
v 0.02407460 -0.05200659 -0.03030589
v -0.02910369 -0.04750961 -0.03138992
v -0.02831151 -0.04851958 -0.03148350
v -0.02726288 -0.04959895 -0.03147485
v -0.02451591 -0.05222278 -0.02976997
v -0.02410557 -0.05256502 -0.02935633
v -0.02562723 -0.05118570 -0.03086226
v -0.02644221 -0.04993241 -0.03179058
v -0.02611736 -0.05044378 -0.03142295
v -0.00159984 -0.05157660 -0.03137537
v -0.02380352 -0.05236718 -0.02997128
v -0.01548673 0.02305437 -0.03962343
v -0.00053496 0.01130648 -0.03954872
v -0.00480944 0.01237556 -0.03959633
v -0.01548673 0.02198679 -0.03960878
v -0.01335127 0.01878255 -0.03961830
v -0.01441989 0.01985013 -0.03960952
v -0.00267220 0.01130648 -0.03955751
v -0.00587807 0.01237556 -0.03958388
v -0.00801352 0.01344314 -0.03959413
v -0.01514363 0.01985013 -0.03949671
v -0.01550103 0.02097319 -0.03952748
v -0.01618187 0.02198679 -0.03948426
v -0.01636236 0.02305437 -0.03952528
v -0.01121582 0.01557981 -0.03957948
v -0.01340846 0.01766549 -0.03954212
v -0.01228444 0.01664888 -0.03956996
v -0.00694490 0.01237556 -0.03955092
v -0.01014719 0.01451222 -0.03957143
v -0.01697770 0.05350275 -0.02129691
v -0.02145575 0.05350373 -0.02141117
v -0.02082916 0.05350423 -0.02147401
v -0.01869318 0.05350373 -0.02140831
v -0.01762658 0.05350324 -0.02135404
v -0.02240817 0.05349831 -0.01798896
v -0.02250564 0.05350423 -0.01727481
v -0.02158943 0.05350620 -0.02072273
v -0.02802523 0.05158842 -0.00576843
v -0.02845966 0.05080974 -0.02499335
v -0.02785535 0.05143880 -0.02392498
v -0.02665508 0.05237745 -0.02072273
v -0.02350541 0.05350324 -0.01283566
v -0.02262539 0.05350818 -0.01644926
v -0.02276463 0.05351312 -0.01538089
v -0.02670520 0.05243374 -0.01590650
v -0.02733458 0.05212218 -0.00576843
v -0.02800573 0.05157212 -0.00790516
v -0.02725382 0.05205157 -0.01431252
v -0.02713686 0.05212020 -0.01548087
v -0.02732344 0.05211427 -0.00683680
v -0.02610089 0.05265939 -0.02179110
v -0.02612039 0.05266680 -0.02072273
v -0.02664281 0.05304196 0.03162239
v -0.02621077 0.05327997 0.03162239
v 0.02653409 0.05288276 0.03228683
v -0.02664281 0.05294707 0.03218127
v -0.02566422 0.05351356 0.03219679
v -0.02567463 0.05351892 0.03162239
v -0.02566422 0.05351325 0.03088653
v -0.02457632 0.05350505 0.00735145
v 0.02653409 0.05295400 0.03162239
v 0.02496210 0.05362453 0.03162239
v 0.02485800 0.05359679 0.03228683
v -0.02575792 0.05343791 0.03228683
v -0.02510205 0.05360845 0.03228683
v -0.02510205 0.05367813 0.03162239
v -0.02403498 0.05387105 0.03162239
v -0.02296790 0.05390668 0.02200654
v 0.02548263 0.05338557 0.02627887
v 0.02616972 0.05308577 0.02521079
v 0.02653409 0.05292216 0.02479163
v 0.02457171 0.05350348 0.00853131
v 0.02479033 0.05356148 0.01773421
v 0.02481115 0.05356810 0.01880229
v 0.02483197 0.05357346 0.01987037
v 0.02487361 0.05358386 0.02200654
v 0.02491526 0.05359395 0.02414270
v 0.02616972 0.05312928 0.03055430
v 0.02498292 0.05361381 0.03055430
v 0.02497772 0.05361097 0.02948622
v 0.02496731 0.05360940 0.02841503
v 0.02403557 0.05382282 0.03162239
v 0.02438432 0.05370114 0.03228683
v 0.02551386 0.05340134 0.03055430
v -0.02489384 0.05364597 0.03228683
v -0.02409223 0.05375851 0.03228683
v -0.02296790 0.05384615 0.03228683
v -0.02296790 0.05393221 0.03162239
v -0.02296790 0.05391582 0.02307462
v 0.01868977 0.05396626 0.03162239
v 0.01976205 0.05396563 0.03162239
v 0.02550345 0.05339409 0.02841503
v 0.02616972 0.05312455 0.02948622
v 0.02616972 0.05311541 0.02841503
v 0.02616972 0.05309618 0.02627887
v 0.02493087 0.05359900 0.02521079
v 0.02494649 0.05360310 0.02627887
v 0.02653409 0.05292626 0.02521079
v 0.02296328 0.05391960 0.03055430
v 0.02403557 0.05376639 0.02521079
v 0.02403557 0.05379666 0.02841503
v 0.02403557 0.05381462 0.03055430
v 0.02653409 0.05296630 0.03015377
v 0.02550866 0.05339945 0.02948622
v 0.02495690 0.05360688 0.02734695
v 0.02296328 0.05392307 0.03162239
v 0.02336930 0.05384048 0.03228683
v 0.02403557 0.05377553 0.03228683
v -0.02189562 0.05386632 0.03228683
v -0.02189562 0.05394608 0.03162239
v -0.02082854 0.05395018 0.03162239
v -0.01976146 0.05395270 0.03162239
v 0.02189621 0.05389753 0.03228683
v 0.02189621 0.05395112 0.03162239
v 0.02653409 0.05296315 0.02948622
v 0.02653409 0.05296094 0.02908259
v 0.02653409 0.05295527 0.02841503
v 0.02653409 0.05295179 0.02801140
v 0.02653409 0.05293256 0.02586592
v 0.02296328 0.05387799 0.03228683
v -0.02149481 0.05386790 0.03228683
v -0.01976146 0.05387105 0.03228683
v 0.00904243 0.01344648 -0.03948195
v 0.00801146 0.01344262 -0.03953638
v 0.00480817 0.01237374 -0.03954364
v 0.00053449 0.01130581 -0.03954146
v 0.00587462 0.01237374 -0.03952404
v 0.00160291 0.01130581 -0.03952622
v -0.02297207 -0.05333586 -0.02770656
v 0.01975749 -0.05309600 -0.02881519
v 0.01975749 -0.05323759 -0.02848167
v -0.00160300 -0.05335551 -0.02784244
v -0.02296349 -0.05340043 -0.02712909
v 0.02082058 -0.05305288 -0.02881519
v 0.01975749 -0.05336473 -0.02795052
v -0.02296349 -0.05348747 -0.02606061
v -0.02297207 -0.05348667 -0.02606679
v -0.02296349 -0.05352377 -0.02499213
v -0.02297207 -0.05352317 -0.02499831
v -0.02297207 -0.05348707 -0.02606061
v -0.02296349 -0.05375560 -0.00576879
v -0.02296349 -0.05374939 -0.00684036
v -0.02296349 -0.05373314 -0.00897423
v -0.02296349 -0.05372492 -0.01004271
v -0.02296349 -0.05371650 -0.01111118
v -0.02296349 -0.05370507 -0.01217966
v -0.02296349 -0.05369143 -0.01324196
v -0.02297207 -0.05369062 -0.01324505
v -0.02296349 -0.05376523 -0.00363184
v -0.02296349 -0.05376062 -0.00470032
v -0.02297207 -0.05375540 -0.00577188
v -0.02297207 -0.05374899 -0.00684345
v -0.02297207 -0.05371590 -0.01111427
v -0.02297207 -0.05370427 -0.01218275
v -0.02297207 -0.05376463 -0.00363801
v -0.02297207 -0.05376022 -0.00470340
v -0.00694379 0.04228587 -0.03964214
v -0.00801175 0.04228587 -0.03957873
v -0.00692485 0.04337264 -0.03953523
v -0.00587582 0.04335400 -0.03957652
v -0.01065263 0.04172890 -0.03940841
v -0.00904564 0.04228267 -0.03950942
v -0.00801175 0.04302280 -0.03949246
v -0.00655498 0.04395409 -0.03945339
v -0.00587582 0.04406325 -0.03948583
v -0.00866566 0.04288170 -0.03944897
v -0.01713062 0.03135828 -0.03944632
v -0.01715853 0.03053580 -0.03946471
v -0.01719574 0.02839801 -0.03948310
v -0.01720737 0.02732994 -0.03949045
v -0.01718877 0.02626187 -0.03948162
v -0.01714458 0.02519380 -0.03945367
v -0.01710969 0.02452790 -0.03943013
v -0.01606550 0.03541794 -0.03944852
v -0.01706900 0.03207033 -0.03940512
v -0.01616550 0.03480644 -0.03949193
v -0.01630736 0.03373837 -0.03953533
v -0.01644690 0.03267195 -0.03955446
v -0.01665039 0.03166980 -0.03954342
v -0.01655737 0.03053580 -0.03959050
v -0.01717597 0.02946773 -0.03947427
v -0.01655737 0.02732994 -0.03961478
v -0.01655737 0.02626187 -0.03960963
v -0.01655737 0.02519380 -0.03957947
v -0.01660504 0.02438285 -0.03953312
v -0.01673527 0.02438285 -0.03950517
v -0.01546085 0.03581518 -0.03952282
v -0.01388525 0.03854304 -0.03941689
v -0.01508643 0.03663106 -0.03947869
v -0.01548992 0.03480644 -0.03961846
v -0.01548992 0.03373837 -0.03965451
v -0.01311548 0.03908037 -0.03948678
v -0.01444572 0.03697060 -0.03953607
v -0.01286083 0.03966221 -0.03943749
v -0.01228641 0.03908037 -0.03958830
v -0.01121779 0.04014844 -0.03959639
v -0.01442130 0.03587451 -0.03962582
v -0.01222362 0.04006933 -0.03949781
v -0.01182594 0.04074511 -0.03945147
v -0.01121779 0.04097917 -0.03950075
v 0.02083195 -0.05340731 -0.02713218
v 0.02151342 -0.05336488 -0.02713218
v 0.02083195 -0.05320730 -0.02842609
v 0.02871463 -0.04891241 -0.02881519
v 0.02890225 -0.04868589 -0.02881519
v 0.02403701 -0.05268380 -0.02820065
v 0.02083195 -0.05335958 -0.02789185
v 0.02144925 -0.05334442 -0.02776832
v 0.02474202 -0.05241711 -0.02820065
v 0.02470791 -0.05239515 -0.02881519
v 0.02405894 -0.05258000 -0.02881519
v 0.02904460 -0.04424344 -0.03201196
v 0.02911701 -0.04424344 -0.03197597
f 47 79 80
f 672 668 667
f 426 1322 425
f 520 64 98
f 117 116 151
f 79 116 117
f 47 80 81
f 668 672 624
f 414 466 462
f 465 466 414
f 462 463 414
f 480 426 425
f 1348 1309 1343
f 32 63 64
f 32 31 63
f 64 63 94
f 115 116 79
f 115 149 116
f 175 174 215
f 519 79 47
f 519 520 79
f 47 64 519
f 64 520 519
f 158 117 151
f 47 81 48
f 83 66 49
f 117 158 118
f 151 119 118
f 118 158 151
f 118 80 79
f 79 117 118
f 670 695 671
f 712 674 673
f 79 520 524
f 672 707 669
f 669 624 672
f 670 669 699
f 699 669 707
f 320 328 310
f 1164 1334 1343
f 1343 1168 1164
f 1171 1030 1180
f 1177 1168 1172
f 1172 1181 1177
f 1171 1180 1172
f 1079 1082 1123
f 503 466 465
f 465 502 503
f 461 414 413
f 356 414 359
f 359 402 356
f 356 402 347
f 354 358 326
f 326 358 325
f 479 478 462
f 462 466 479
f 426 480 479
f 425 478 479
f 479 480 425
f 369 1320 428
f 428 1320 426
f 462 478 477
f 478 423 477
f 453 471 462
f 453 451 471
f 424 478 425
f 424 423 478
f 425 1322 424
f 1322 423 424
f 1177 1181 1051
f 1167 1032 1175
f 1343 1309 741
f 741 1168 1343
f 1171 1172 1166
f 1166 741 971
f 1166 1172 1168
f 1168 741 1166
f 937 945 946
f 946 947 937
f 946 944 947
f 936 934 938
f 938 934 937
f 937 947 938
f 782 785 934
f 29 63 30
f 63 31 30
f 65 64 47
f 47 32 65
f 65 32 64
f 125 92 124
f 63 92 93
f 93 94 63
f 92 125 93
f 237 232 112
f 116 149 152
f 149 115 114
f 114 115 79
f 120 83 119
f 120 119 151
f 82 83 49
f 82 81 80
f 80 118 82
f 119 83 82
f 82 118 119
f 49 48 82
f 82 48 81
f 1061 1060 1071
f 718 717 702
f 238 232 237
f 238 233 232
f 615 666 667
f 705 709 672
f 735 709 705
f 686 727 704
f 704 666 686
f 727 705 704
f 704 705 666
f 537 523 536
f 537 536 569
f 673 671 708
f 708 671 695
f 708 712 673
f 695 712 708
f 714 712 695
f 540 541 525
f 541 540 538
f 538 540 525
f 538 523 537
f 538 524 523
f 668 624 619
f 523 524 78
f 78 520 98
f 78 524 520
f 670 699 698
f 661 659 696
f 696 659 695
f 348 320 347
f 328 320 348
f 347 402 348
f 348 402 359
f 354 326 324
f 314 333 334
f 364 332 363
f 333 332 364
f 416 414 463
f 416 463 462
f 462 471 416
f 310 328 329
f 359 330 329
f 329 348 359
f 328 348 329
f 360 330 359
f 360 416 362
f 359 414 360
f 414 416 360
f 124 92 91
f 124 91 121
f 942 938 947
f 1319 1320 369
f 1327 1328 1319
f 1322 426 1321
f 426 1320 1321
f 1320 1319 1331
f 1047 1030 1052
f 1061 1071 1102
f 1102 1071 1115
f 1102 1123 1082
f 465 459 497
f 497 500 465
f 501 502 465
f 465 500 501
f 508 503 502
f 485 482 508
f 464 459 465
f 465 414 464
f 414 461 464
f 413 412 460
f 460 461 413
f 460 412 459
f 459 464 460
f 460 464 461
f 413 414 355
f 414 356 355
f 355 412 413
f 355 358 412
f 325 358 355
f 355 356 325
f 347 325 357
f 357 356 347
f 325 356 357
f 924 903 922
f 904 903 925
f 925 905 904
f 466 503 481
f 481 479 466
f 426 479 481
f 481 428 426
f 450 451 396
f 450 449 451
f 476 477 423
f 462 477 476
f 396 451 452
f 451 453 452
f 452 397 396
f 474 423 473
f 462 474 473
f 472 473 423
f 1167 1336 1335
f 1335 1164 1167
f 1334 1164 1335
f 1322 1334 1335
f 1323 423 1322
f 1322 1335 1323
f 1323 1335 1336
f 1323 379 423
f 1177 1051 1053
f 1050 1051 1181
f 1181 1172 1050
f 1030 1049 1050
f 1050 1180 1030
f 1050 1172 1180
f 1167 1175 1176
f 1176 1336 1167
f 1176 1337 1336
f 380 1098 345
f 1309 1348 1310
f 1310 1311 1309
f 1348 1311 1310
f 742 741 1309
f 742 905 925
f 925 903 742
f 903 924 742
f 660 659 661
f 661 610 660
f 1171 1166 1170
f 1170 1030 1171
f 1052 1030 1170
f 1279 1045 1280
f 970 1166 971
f 971 968 970
f 970 968 1276
f 19 8 7
f 7 8 350
f 1189 1220 1183
f 1183 1188 1189
f 1212 1002 1218
f 371 1340 1326
f 1326 1328 371
f 1313 1352 1351
f 937 934 933
f 934 1301 933
f 947 944 943
f 264 944 279
f 944 946 279
f 279 265 264
f 946 265 279
f 294 93 125
f 94 93 294
f 98 110 522
f 522 78 98
f 523 78 522
f 217 182 215
f 116 152 153
f 183 152 149
f 182 152 183
f 186 152 182
f 186 217 187
f 182 217 186
f 187 153 186
f 186 153 152
f 187 217 218
f 79 524 113
f 113 114 79
f 113 524 525
f 525 114 113
f 66 83 99
f 83 120 99
f 99 120 100
f 1072 1071 1060
f 1035 1060 1061
f 1025 1035 1033
f 735 705 734
f 672 709 710
f 717 718 683
f 641 640 683
f 731 718 702
f 717 683 682
f 682 683 640
f 684 642 641
f 641 683 684
f 684 683 718
f 594 642 643
f 227 564 231
f 249 238 237
f 280 265 946
f 667 666 706
f 666 705 706
f 706 672 667
f 706 705 672
f 665 615 614
f 666 615 665
f 614 613 665
f 566 613 614
f 614 615 566
f 566 615 567
f 566 564 227
f 567 536 566
f 537 569 570
f 570 538 537
f 568 536 567
f 568 569 536
f 567 615 568
f 937 933 935
f 935 933 1301
f 655 656 603
f 658 607 606
f 659 607 658
f 695 659 658
f 605 658 606
f 657 658 605
f 603 656 653
f 656 657 653
f 657 605 653
f 694 714 695
f 695 658 694
f 694 656 693
f 693 714 694
f 694 657 656
f 694 658 657
f 525 524 539
f 539 538 525
f 524 538 539
f 626 671 673
f 626 625 671
f 577 625 626
f 541 575 572
f 620 619 624
f 624 575 620
f 623 625 577
f 577 575 623
f 624 669 621
f 621 575 624
f 621 669 670
f 697 695 670
f 670 698 697
f 100 120 128
f 310 329 311
f 311 329 330
f 311 332 333
f 333 364 365
f 382 334 365
f 334 333 365
f 471 451 495
f 451 449 495
f 62 63 29
f 383 334 382
f 241 121 84
f 85 53 84
f 124 121 256
f 256 267 124
f 256 121 241
f 785 782 784
f 784 788 785
f 785 788 789
f 1320 1331 1332
f 1332 1334 1322
f 1322 1321 1332
f 1343 1334 1332
f 1329 1319 1328
f 1328 1342 1329
f 1091 1049 1090
f 1160 1122 1156
f 1061 1102 1103
f 1103 1102 1082
f 1103 1074 1061
f 1082 1074 1103
f 989 990 987
f 989 742 990
f 995 994 993
f 1185 1186 987
f 1251 882 1266
f 926 742 932
f 932 742 924
f 483 481 503
f 483 508 482
f 503 508 483
f 428 481 483
f 1142 1155 1117
f 475 423 474
f 475 476 423
f 399 380 345
f 399 452 453
f 1141 344 345
f 1324 1323 1336
f 1336 1337 1324
f 1324 1176 1325
f 1032 1178 1179
f 1179 1053 1032
f 1177 1053 1179
f 1091 1135 1136
f 1135 1159 1136
f 1057 1053 1051
f 1051 1050 1057
f 1032 1053 1057
f 1032 1057 1055
f 1055 1057 1100
f 1169 1178 1032
f 1032 1173 1169
f 1169 1173 1167
f 1169 1179 1178
f 1169 1168 1177
f 1177 1179 1169
f 1167 1164 1169
f 1169 1164 1168
f 1326 1340 1341
f 1340 1344 1341
f 1316 995 740
f 740 742 1309
f 995 993 740
f 1314 1311 1348
f 1348 1352 1314
f 1350 1352 1348
f 1351 1352 1350
f 608 607 659
f 781 780 884
f 1165 1170 1166
f 1052 1170 1165
f 1275 1276 967
f 1276 968 967
f 981 980 986
f 972 968 971
f 1028 973 974
f 1042 973 1039
f 1039 973 1028
f 1039 1038 1042
f 1039 1028 1027
f 1027 1038 1039
f 603 653 602
f 909 908 918
f 909 774 908
f 49 66 51
f 299 305 306
f 306 305 324
f 306 326 325
f 306 324 326
f 1219 1241 1220
f 1220 1241 1242
f 412 358 415
f 459 412 415
f 515 501 500
f 354 324 353
f 353 352 354
f 324 352 353
f 440 408 455
f 19 7 17
f 1002 1212 1194
f 1194 1219 1220
f 1194 1212 1218
f 1218 1219 1194
f 1187 1188 1183
f 427 483 482
f 428 483 427
f 369 428 427
f 1351 1350 1346
f 1346 1344 1340
f 1346 1350 1344
f 1192 1197 1016
f 678 714 693
f 712 714 678
f 675 674 678
f 674 712 678
f 241 239 252
f 252 807 806
f 252 239 807
f 794 252 806
f 794 942 947
f 947 943 794
f 1052 1045 1081
f 1079 1123 1114
f 1123 1102 1114
f 785 1305 793
f 792 1305 785
f 791 792 785
f 1300 792 791
f 64 94 95
f 284 266 283
f 274 284 283
f 64 95 96
f 245 237 147
f 286 277 270
f 563 112 232
f 232 231 563
f 563 231 564
f 534 536 523
f 534 563 564
f 523 522 534
f 116 153 154
f 154 153 187
f 155 154 187
f 116 154 155
f 214 217 215
f 210 169 208
f 210 170 169
f 213 214 171
f 527 170 171
f 205 206 161
f 208 169 161
f 146 114 525
f 180 143 142
f 215 182 216
f 182 181 216
f 216 175 215
f 1034 1035 1025
f 1060 1035 1034
f 732 705 727
f 686 643 685
f 685 720 686
f 721 722 685
f 643 642 685
f 642 684 685
f 711 707 672
f 672 710 711
f 700 710 703
f 700 703 664
f 700 711 710
f 700 699 707
f 707 711 700
f 701 710 729
f 703 710 701
f 702 664 701
f 664 703 701
f 730 731 702
f 729 731 730
f 702 701 730
f 730 701 729
f 729 710 736
f 736 710 709
f 736 709 735
f 593 640 641
f 641 642 593
f 642 594 593
f 1037 1038 1027
f 1074 1038 1037
f 1062 1035 1061
f 1062 593 594
f 1061 1074 1062
f 1101 1062 594
f 238 249 250
f 941 945 937
f 937 935 941
f 940 935 939
f 940 941 935
f 276 941 940
f 290 946 945
f 686 666 688
f 666 665 688
f 687 643 686
f 687 644 643
f 643 644 596
f 596 644 1025
f 1025 1033 596
f 1025 644 964
f 648 953 647
f 613 953 648
f 648 665 613
f 648 688 665
f 541 538 571
f 538 570 571
f 573 541 571
f 571 570 573
f 569 568 616
f 616 617 569
f 616 568 615
f 616 615 667
f 667 617 616
f 618 619 573
f 573 570 618
f 668 619 618
f 618 570 569
f 569 617 618
f 667 668 618
f 618 617 667
f 1302 935 1301
f 1293 935 1302
f 1302 1303 1293
f 1294 935 1293
f 1293 1303 1294
f 692 728 693
f 693 656 692
f 656 655 692
f 604 653 605
f 604 602 653
f 673 674 628
f 142 143 108
f 108 575 577
f 577 543 108
f 574 620 575
f 574 541 573
f 574 575 541
f 573 619 574
f 619 620 574
f 670 671 622
f 622 621 670
f 671 625 622
f 625 623 622
f 622 623 575
f 575 621 622
f 323 352 324
f 324 305 323
f 323 7 350
f 100 128 101
f 159 128 120
f 151 185 159
f 159 120 151
f 20 8 19
f 20 40 21
f 199 159 185
f 100 101 68
f 70 40 38
f 37 68 38
f 38 20 19
f 40 20 38
f 38 17 37
f 330 360 361
f 363 332 331
f 332 311 331
f 331 362 363
f 331 311 330
f 330 361 331
f 331 360 362
f 331 361 360
f 419 364 363
f 382 365 419
f 419 365 364
f 385 419 443
f 469 416 471
f 61 91 92
f 61 92 63
f 63 62 61
f 61 62 29
f 241 53 253
f 52 53 241
f 241 84 52
f 52 84 53
f 264 265 255
f 265 266 255
f 255 252 264
f 255 266 267
f 267 256 255
f 255 256 241
f 241 252 255
f 783 784 782
f 783 934 936
f 783 782 934
f 788 784 783
f 783 787 788
f 788 787 796
f 796 789 788
f 799 789 796
f 808 815 799
f 799 796 808
f 808 796 807
f 807 239 808
f 395 450 396
f 449 450 395
f 395 394 449
f 1333 1321 1320
f 1320 1332 1333
f 1333 1332 1321
f 1349 1348 1343
f 1343 1342 1349
f 1349 1342 1348
f 1330 1331 1319
f 1319 1329 1330
f 1330 1332 1331
f 1343 1332 1330
f 1330 1342 1343
f 1330 1329 1342
f 1048 1049 1030
f 1030 1047 1048
f 1160 1156 1137
f 1137 1136 1160
f 1137 1155 1142
f 1161 1122 1160
f 1161 1159 1122
f 1160 1136 1161
f 1161 1136 1159
f 903 904 883
f 905 742 988
f 742 989 988
f 988 904 905
f 988 883 904
f 988 989 987
f 987 883 988
f 987 990 991
f 991 740 993
f 990 742 991
f 742 740 991
f 992 993 994
f 1183 987 992
f 987 991 992
f 992 991 993
f 992 1187 1183
f 1188 1187 992
f 992 1194 1188
f 994 1194 992
f 1184 987 1183
f 1184 1185 987
f 1183 1220 1184
f 1220 1185 1184
f 894 918 917
f 918 908 917
f 1224 873 888
f 897 919 920
f 900 883 987
f 1186 882 1182
f 882 899 1182
f 899 900 1182
f 987 1186 1182
f 1182 900 987
f 926 932 929
f 343 1117 1116
f 1154 1117 343
f 821 804 814
f 814 804 803
f 1076 1117 1118
f 1122 1119 1118
f 1118 1156 1122
f 1118 1117 1155
f 1155 1137 1118
f 1118 1137 1156
f 499 474 462
f 462 475 499
f 499 475 474
f 462 476 498
f 498 475 462
f 476 475 498
f 452 399 398
f 343 397 398
f 397 452 398
f 398 1154 343
f 345 344 398
f 398 399 345
f 380 399 441
f 441 472 423
f 423 380 441
f 441 399 453
f 441 453 462
f 462 473 441
f 473 472 441
f 1337 1176 1338
f 1338 1324 1337
f 1176 1324 1338
f 1092 1050 1049
f 1092 1049 1091
f 1091 1136 1092
f 1050 1092 1093
f 1093 1092 1136
f 1174 1032 1167
f 1167 1173 1174
f 1174 1173 1032
f 1056 1054 1176
f 1056 1175 1032
f 1056 1176 1175
f 1032 1055 1056
f 1098 380 1056
f 380 1054 1056
f 1325 1176 1031
f 1176 1054 1031
f 1031 1324 1325
f 1339 1341 1344
f 1326 1341 1339
f 1339 1328 1326
f 1339 1342 1328
f 1317 1311 1316
f 1316 740 1317
f 1309 1311 1312
f 1312 740 1309
f 1311 1317 1312
f 1312 1317 740
f 741 742 745
f 742 750 745
f 927 742 926
f 919 907 927
f 920 919 927
f 908 907 928
f 928 907 919
f 928 917 908
f 919 917 928
f 1352 1313 1318
f 1318 1314 1352
f 1348 1342 1347
f 1347 1350 1348
f 609 608 659
f 659 660 609
f 609 660 610
f 664 612 663
f 612 611 663
f 663 700 664
f 699 700 663
f 663 698 699
f 636 637 981
f 636 612 664
f 664 637 636
f 681 664 702
f 702 717 681
f 717 682 681
f 773 774 758
f 774 909 758
f 561 781 884
f 561 604 605
f 560 602 561
f 602 604 561
f 1280 1045 1278
f 1278 1045 1052
f 1052 1165 1278
f 1029 967 968
f 1029 972 1042
f 968 972 1029
f 1275 967 1029
f 606 607 777
f 607 608 777
f 608 609 777
f 777 609 610
f 985 986 977
f 741 747 743
f 969 973 1042
f 1042 972 969
f 969 972 973
f 975 980 1027
f 559 602 560
f 603 602 559
f 884 885 872
f 872 561 884
f 560 561 872
f 886 885 912
f 886 559 560
f 912 559 886
f 560 872 886
f 886 872 885
f 912 885 911
f 911 559 912
f 916 559 911
f 894 893 911
f 728 692 691
f 49 51 50
f 29 30 303
f 303 11 29
f 1240 1261 1262
f 1262 1241 1240
f 1241 1219 1240
f 1261 1240 1239
f 1239 1240 1219
f 1264 1242 1241
f 491 438 490
f 490 504 491
f 491 504 493
f 493 496 456
f 456 408 440
f 456 496 457
f 457 409 456
f 456 409 408
f 515 510 516
f 502 501 516
f 501 515 516
f 459 415 468
f 468 497 459
f 493 504 467
f 467 496 493
f 467 468 415
f 504 468 467
f 354 352 410
f 352 409 410
f 408 409 351
f 351 409 352
f 351 323 350
f 352 323 351
f 320 1 319
f 347 320 319
f 319 325 347
f 319 306 325
f 33 51 35
f 35 51 66
f 35 68 37
f 5 305 299
f 299 306 5
f 367 1197 421
f 1206 1197 367
f 1218 1002 1211
f 1211 1210 1218
f 322 20 21
f 350 8 322
f 8 20 322
f 1002 1194 996
f 996 1194 994
f 996 994 995
f 995 1000 996
f 1196 1194 1220
f 369 427 370
f 370 427 371
f 370 1319 369
f 1327 1319 370
f 370 1328 1327
f 370 371 1328
f 1316 1318 999
f 511 515 518
f 511 510 515
f 429 430 371
f 371 427 429
f 432 482 485
f 485 486 432
f 430 429 432
f 432 427 482
f 432 429 427
f 1200 1197 1201
f 1201 1192 1200
f 1197 1192 1201
f 438 378 437
f 420 1192 1191
f 1191 378 420
f 1191 1192 1016
f 1016 378 1191
f 435 378 440
f 420 378 435
f 679 678 693
f 546 177 545
f 1307 1301 934
f 934 785 1307
f 787 783 786
f 942 794 786
f 786 783 936
f 936 938 786
f 938 942 786
f 264 252 263
f 252 794 263
f 263 794 943
f 263 944 264
f 263 943 944
f 1079 1114 1124
f 1071 1072 1361
f 949 1358 1361
f 1072 965 1361
f 954 949 1361
f 1283 1281 1066
f 1106 1064 1066
f 1297 793 1305
f 1297 1353 935
f 1290 1353 1299
f 939 935 1354
f 935 1353 1354
f 1354 949 939
f 1354 1358 949
f 1288 1353 1290
f 804 791 790
f 798 802 790
f 790 789 798
f 803 804 790
f 790 802 803
f 785 789 790
f 790 791 785
f 285 294 125
f 285 284 294
f 266 284 268
f 268 125 124
f 268 285 125
f 284 285 268
f 124 267 268
f 267 266 268
f 272 274 273
f 127 110 98
f 127 147 110
f 270 277 271
f 271 259 258
f 269 274 283
f 283 286 269
f 269 286 270
f 244 258 245
f 245 147 244
f 237 112 111
f 111 147 237
f 110 147 111
f 289 286 283
f 945 941 289
f 289 290 945
f 536 534 565
f 565 534 564
f 565 566 536
f 564 566 565
f 112 563 535
f 563 534 535
f 110 111 535
f 535 111 112
f 535 522 110
f 535 534 522
f 187 218 189
f 189 155 187
f 219 218 217
f 217 214 219
f 219 189 218
f 214 189 219
f 169 170 135
f 213 171 212
f 212 171 170
f 137 171 172
f 172 171 214
f 205 161 204
f 204 196 205
f 208 161 207
f 207 161 206
f 207 206 193
f 145 143 114
f 114 146 145
f 149 114 148
f 114 143 148
f 143 180 148
f 148 183 149
f 182 183 148
f 148 181 182
f 959 1025 957
f 1025 964 957
f 957 953 956
f 957 964 644
f 963 957 956
f 963 965 959
f 959 957 963
f 961 955 954
f 233 238 961
f 238 955 961
f 233 965 228
f 232 233 228
f 228 231 232
f 227 231 228
f 1357 1025 959
f 1357 1034 1025
f 1059 965 1072
f 1059 1034 965
f 1059 1072 1060
f 1060 1034 1059
f 720 734 724
f 734 725 724
f 686 720 724
f 724 725 686
f 726 727 686
f 686 725 726
f 726 732 727
f 725 732 726
f 733 734 705
f 705 732 733
f 733 725 734
f 733 732 725
f 723 734 720
f 720 685 723
f 723 685 722
f 735 734 723
f 723 722 735
f 721 685 719
f 719 685 684
f 719 684 718
f 739 731 729
f 729 736 739
f 592 593 1073
f 593 1062 1073
f 1074 1037 1073
f 1073 1062 1074
f 1058 1033 1035
f 1058 596 1033
f 1101 596 1058
f 962 963 956
f 613 566 224
f 948 940 939
f 291 280 946
f 643 596 595
f 595 596 1101
f 595 594 643
f 595 1101 594
f 221 953 613
f 956 953 221
f 646 648 647
f 647 953 646
f 785 793 1304
f 1304 1303 785
f 1304 1294 1303
f 627 626 673
f 673 628 627
f 577 626 627
f 629 674 675
f 629 628 674
f 176 180 142
f 176 148 180
f 181 148 176
f 175 216 176
f 176 216 181
f 174 175 139
f 139 138 174
f 175 176 139
f 139 176 177
f 139 546 138
f 177 546 139
f 544 543 577
f 177 176 178
f 178 176 142
f 142 179 178
f 18 323 305
f 18 17 7
f 7 323 18
f 317 338 318
f 316 338 317
f 41 346 21
f 21 40 41
f 41 40 70
f 45 74 43
f 346 41 45
f 45 41 70
f 75 45 70
f 74 45 75
f 75 105 74
f 106 105 75
f 193 206 194
f 195 206 205
f 205 196 195
f 195 194 206
f 198 199 185
f 166 199 198
f 132 105 133
f 133 105 106
f 70 101 102
f 102 101 128
f 102 75 70
f 106 75 102
f 128 159 129
f 129 102 128
f 129 133 106
f 106 102 129
f 100 68 67
f 66 99 67
f 67 99 100
f 67 35 66
f 68 35 67
f 69 68 101
f 69 38 68
f 69 101 70
f 70 38 69
f 19 17 39
f 39 38 19
f 17 38 39
f 847 387 846
f 229 385 835
f 385 847 835
f 835 847 846
f 382 419 384
f 229 236 234
f 236 384 234
f 234 384 385
f 471 495 494
f 494 469 471
f 494 495 449
f 449 469 494
f 363 362 417
f 362 416 417
f 90 123 91
f 91 61 90
f 90 61 89
f 122 84 121
f 122 121 91
f 91 123 122
f 85 84 122
f 122 123 85
f 85 123 86
f 86 90 89
f 123 90 86
f 28 59 29
f 29 10 28
f 314 27 28
f 28 10 314
f 29 59 60
f 60 61 29
f 89 61 60
f 335 314 334
f 318 338 339
f 339 243 318
f 236 243 339
f 235 239 241
f 241 236 235
f 235 236 229
f 254 243 241
f 318 243 254
f 241 253 254
f 254 253 318
f 242 236 241
f 241 243 242
f 242 243 236
f 1086 1048 1083
f 1083 1048 1047
f 1087 1048 1086
f 1086 1128 1087
f 902 899 882
f 902 913 920
f 914 913 888
f 913 914 887
f 888 873 887
f 887 914 888
f 888 1252 889
f 889 1224 888
f 919 897 896
f 894 917 896
f 896 917 919
f 906 899 922
f 906 900 899
f 883 900 906
f 922 903 906
f 903 883 906
f 931 924 922
f 930 932 924
f 930 929 932
f 924 931 930
f 1076 1041 1075
f 1075 1041 1040
f 1075 1117 1076
f 1075 1116 1117
f 344 1141 1144
f 799 809 800
f 800 809 801
f 800 789 799
f 801 789 800
f 391 829 848
f 1121 1119 1122
f 1078 814 803
f 812 1041 1078
f 1076 1118 1077
f 1077 1118 1119
f 1077 1041 1076
f 1077 1078 1041
f 1119 814 1077
f 814 1078 1077
f 838 819 818
f 818 817 838
f 818 819 799
f 799 817 818
f 816 817 799
f 816 835 836
f 799 815 816
f 815 835 816
f 844 843 838
f 444 387 443
f 445 387 444
f 838 843 389
f 843 844 389
f 391 390 341
f 341 389 392
f 390 389 341
f 394 395 341
f 341 831 391
f 340 831 341
f 341 397 343
f 396 397 341
f 341 395 396
f 1040 340 341
f 341 1075 1040
f 1100 1057 1094
f 1094 1137 1100
f 1094 1057 1050
f 1050 1093 1094
f 1136 1137 1094
f 1094 1093 1136
f 1099 1055 1100
f 1099 1056 1055
f 1099 1137 1142
f 1100 1137 1099
f 1099 1144 1141
f 1098 1056 1099
f 345 1098 1099
f 1099 1141 345
f 1323 1324 381
f 1324 1031 381
f 379 1323 381
f 423 379 381
f 381 380 423
f 381 1054 380
f 381 1031 1054
f 741 745 746
f 746 745 750
f 746 747 741
f 750 747 746
f 750 763 764
f 763 779 764
f 764 779 773
f 773 758 764
f 908 779 762
f 762 779 763
f 748 762 763
f 908 762 748
f 748 907 908
f 742 927 748
f 748 927 907
f 1311 1314 1315
f 1314 1318 1315
f 1316 1311 1315
f 1315 1318 1316
f 1342 1339 1345
f 1345 1347 1342
f 1345 1339 1344
f 1344 1350 1345
f 1350 1347 1345
f 662 611 610
f 662 663 611
f 662 610 661
f 661 696 662
f 662 696 695
f 695 697 662
f 662 697 698
f 698 663 662
f 981 1364 1024
f 1024 980 981
f 1027 980 1024
f 981 637 638
f 638 637 664
f 664 681 638
f 780 781 766
f 781 561 767
f 1277 1279 1280
f 1280 1278 1277
f 1276 1279 1277
f 1277 1278 1165
f 1277 1165 1166
f 1166 970 1277
f 1277 970 1276
f 1046 1029 1042
f 1046 1082 1079
f 1046 1074 1082
f 1042 1038 1046
f 1046 1038 1074
f 1275 1029 1044
f 1044 1276 1275
f 1045 1279 1044
f 1044 1279 1276
f 1044 1081 1045
f 982 611 612
f 982 772 777
f 610 611 982
f 982 777 610
f 982 636 981
f 612 636 982
f 971 977 976
f 976 972 971
f 973 972 976
f 978 986 980
f 978 977 986
f 978 974 973
f 973 976 978
f 978 976 977
f 761 982 981
f 772 982 761
f 761 977 756
f 756 772 761
f 769 777 771
f 777 772 771
f 771 772 756
f 910 911 885
f 910 885 884
f 910 918 894
f 894 911 910
f 884 909 910
f 910 909 918
f 558 559 916
f 597 651 600
f 600 558 557
f 654 692 655
f 654 691 692
f 654 655 603
f 651 691 654
f 650 651 597
f 676 679 713
f 302 303 297
f 25 51 33
f 25 50 51
f 25 297 50
f 300 297 25
f 33 14 25
f 301 303 302
f 302 297 301
f 301 297 300
f 310 311 301
f 11 303 313
f 29 11 313
f 313 10 29
f 314 10 313
f 1218 1210 1209
f 1209 1210 1206
f 1219 1237 1238
f 1263 1241 1262
f 1263 1264 1241
f 492 491 493
f 438 491 492
f 493 456 439
f 439 492 493
f 438 492 439
f 439 456 440
f 440 378 439
f 439 378 438
f 518 515 517
f 505 504 490
f 490 506 505
f 505 468 504
f 506 468 505
f 509 516 510
f 509 486 485
f 509 510 486
f 502 516 509
f 485 508 509
f 509 508 502
f 500 497 507
f 497 468 507
f 507 515 500
f 507 517 515
f 507 468 506
f 506 517 507
f 457 496 458
f 496 467 458
f 458 467 415
f 458 409 457
f 458 410 409
f 354 410 411
f 411 358 354
f 411 415 358
f 411 458 415
f 410 458 411
f 407 351 350
f 408 351 407
f 407 455 408
f 33 35 34
f 34 35 17
f 34 14 33
f 37 17 36
f 36 35 37
f 17 35 36
f 305 5 6
f 6 18 305
f 17 18 6
f 421 1197 366
f 1197 1198 366
f 1200 1192 1202
f 1202 1197 1200
f 1202 1198 1197
f 1016 1197 1193
f 1193 1015 1016
f 1016 1015 1014
f 1210 1211 1204
f 1206 1210 1204
f 1204 1211 1002
f 1204 1197 1206
f 1000 1007 1001
f 1001 996 1000
f 1002 996 1001
f 1188 1194 1195
f 1194 1196 1195
f 1195 1196 1220
f 1220 1189 1195
f 1195 1189 1188
f 1018 1013 1012
f 371 372 1004
f 1004 372 1005
f 1004 1005 1351
f 1351 1346 1004
f 1340 371 1004
f 1004 1346 1340
f 997 995 1316
f 997 1000 995
f 1316 999 997
f 998 1318 1313
f 998 999 1318
f 1005 999 998
f 998 1313 1351
f 1351 1005 998
f 1006 999 1005
f 1005 1012 1006
f 1006 1012 1013
f 1199 1192 420
f 1199 1202 1192
f 1198 1202 1199
f 1199 366 1198
f 1199 1190 421
f 421 366 1199
f 490 438 489
f 438 437 489
f 486 510 487
f 510 511 487
f 728 691 715
f 693 728 715
f 715 679 693
f 691 713 715
f 715 713 679
f 553 589 554
f 553 552 589
f 527 171 548
f 548 171 137
f 588 632 589
f 584 632 588
f 1308 1302 1301
f 1301 1307 1308
f 1303 1302 1308
f 785 1303 1308
f 1308 1307 785
f 787 786 795
f 806 807 795
f 795 794 806
f 795 786 794
f 807 796 795
f 795 796 787
f 1080 1044 1079
f 1081 1044 1080
f 1362 1361 1358
f 1071 1361 1362
f 954 1361 960
f 960 1361 965
f 960 961 954
f 960 965 233
f 233 961 960
f 1066 1064 1282
f 1282 1283 1066
f 1281 1283 1284
f 1296 1297 935
f 793 1297 1296
f 1353 1297 1298
f 1298 1299 1353
f 1305 792 1298
f 1298 1297 1305
f 1360 1354 1353
f 1355 1068 1360
f 1358 1354 1360
f 1291 1288 1290
f 1300 791 1291
f 1291 1299 1300
f 1290 1299 1291
f 1091 1090 1132
f 1134 1135 1091
f 1134 1159 1135
f 821 814 813
f 813 822 821
f 813 814 1119
f 1119 1121 813
f 813 1121 1122
f 284 274 287
f 274 272 287
f 94 294 287
f 294 284 287
f 287 95 94
f 287 272 95
f 64 96 97
f 96 127 97
f 98 64 97
f 97 127 98
f 257 271 258
f 258 244 257
f 257 244 96
f 270 271 257
f 257 269 270
f 274 269 257
f 273 274 257
f 257 272 273
f 257 96 95
f 95 272 257
f 275 271 277
f 259 271 275
f 96 244 126
f 126 244 147
f 126 127 96
f 147 127 126
f 283 266 282
f 282 266 265
f 290 289 282
f 277 286 278
f 278 941 276
f 220 214 213
f 220 189 214
f 213 212 220
f 193 155 192
f 155 191 192
f 192 207 193
f 191 207 192
f 190 210 208
f 155 189 190
f 190 191 155
f 208 207 190
f 190 207 191
f 170 136 167
f 167 135 170
f 136 135 167
f 584 547 583
f 526 135 136
f 527 547 526
f 526 170 527
f 526 136 170
f 211 212 170
f 170 210 211
f 189 220 211
f 211 220 212
f 210 190 211
f 211 190 189
f 173 172 214
f 174 138 173
f 173 138 137
f 137 172 173
f 215 174 173
f 173 214 215
f 72 1238 1237
f 164 204 161
f 161 130 164
f 166 204 164
f 197 204 166
f 196 204 197
f 1242 1264 209
f 1273 1274 1264
f 1264 1263 1273
f 1262 1261 1273
f 1273 1263 1262
f 162 130 161
f 162 1273 1261
f 1274 1273 162
f 1266 882 1243
f 1242 209 1243
f 1243 209 202
f 1243 882 1186
f 1186 1185 1243
f 1243 1185 1220
f 1220 1242 1243
f 169 135 168
f 109 145 146
f 143 145 109
f 109 146 525
f 963 962 226
f 227 228 226
f 225 224 226
f 226 566 227
f 226 224 566
f 1356 1357 959
f 1034 1357 1356
f 959 965 1356
f 965 1034 1356
f 718 731 737
f 731 739 737
f 737 739 736
f 721 719 737
f 737 719 718
f 1036 593 592
f 1036 591 593
f 592 1073 1036
f 1036 1073 1037
f 1063 1058 1035
f 1101 1058 1063
f 1035 1062 1063
f 1062 1101 1063
f 223 962 956
f 956 221 223
f 225 226 223
f 223 226 962
f 940 948 262
f 222 221 613
f 613 224 222
f 222 224 225
f 225 223 222
f 222 223 221
f 648 646 645
f 645 646 953
f 644 687 645
f 645 687 686
f 686 688 645
f 688 648 645
f 577 627 578
f 578 544 577
f 545 544 578
f 580 629 581
f 581 546 580
f 140 178 179
f 142 108 140
f 140 179 142
f 140 544 545
f 545 177 140
f 177 178 140
f 140 108 543
f 543 544 140
f 318 253 26
f 26 317 318
f 26 253 53
f 132 130 103
f 103 105 132
f 43 346 42
f 42 45 43
f 151 116 150
f 188 155 193
f 165 166 132
f 132 133 165
f 160 129 159
f 133 129 160
f 160 165 133
f 386 385 443
f 386 847 385
f 443 387 386
f 387 847 386
f 229 835 825
f 825 835 815
f 825 808 229
f 815 808 825
f 419 385 442
f 442 384 419
f 385 384 442
f 230 385 229
f 229 234 230
f 230 234 385
f 416 469 470
f 470 417 416
f 470 469 449
f 418 446 445
f 418 470 449
f 417 470 418
f 445 444 418
f 418 444 443
f 363 417 418
f 418 419 363
f 443 419 418
f 88 86 89
f 59 86 88
f 89 60 88
f 88 60 59
f 59 28 58
f 56 55 58
f 58 86 59
f 315 27 314
f 314 335 315
f 315 335 316
f 316 55 315
f 315 55 56
f 337 339 338
f 337 338 316
f 316 335 337
f 337 335 334
f 334 383 337
f 383 339 337
f 240 339 383
f 236 339 240
f 240 383 382
f 382 384 240
f 240 384 236
f 824 808 239
f 239 235 824
f 229 808 824
f 824 235 229
f 1127 1128 1086
f 1086 1083 1127
f 1089 1090 1049
f 1049 1048 1089
f 1089 1132 1090
f 1124 1153 1125
f 1079 1124 1125
f 1355 1283 1286
f 882 1251 901
f 901 902 882
f 901 1251 888
f 923 902 920
f 926 929 923
f 923 927 926
f 920 927 923
f 888 913 915
f 913 902 915
f 915 901 888
f 902 901 915
f 1258 1251 1266
f 1258 1234 1251
f 898 897 920
f 920 913 898
f 913 887 898
f 1253 1226 1252
f 888 1251 1253
f 1253 1252 888
f 1225 889 1252
f 1252 1226 1225
f 1224 889 1225
f 873 1224 1225
f 1225 1226 873
f 899 902 921
f 922 899 921
f 921 931 922
f 921 930 931
f 929 930 921
f 921 923 929
f 902 923 921
f 1154 398 1143
f 1143 398 344
f 344 1144 1143
f 1142 1117 1143
f 1117 1154 1143
f 1143 1099 1142
f 1144 1099 1143
f 830 829 391
f 391 831 830
f 830 810 829
f 831 810 830
f 832 340 1040
f 1040 1041 832
f 832 1041 812
f 828 848 829
f 829 810 828
f 809 827 828
f 828 810 809
f 826 827 809
f 803 802 797
f 797 1078 803
f 797 802 798
f 801 809 797
f 809 810 797
f 798 789 797
f 797 789 801
f 812 1078 797
f 387 844 845
f 846 387 845
f 845 835 846
f 836 835 845
f 837 844 838
f 838 817 837
f 836 845 837
f 837 845 844
f 837 816 836
f 817 816 837
f 838 389 842
f 842 389 390
f 388 844 387
f 388 389 844
f 388 387 445
f 445 446 388
f 342 341 343
f 1075 341 342
f 343 1116 342
f 1116 1075 342
f 908 774 778
f 778 779 908
f 778 774 773
f 773 779 778
f 757 747 750
f 750 764 757
f 757 758 747
f 757 764 758
f 749 763 750
f 749 748 763
f 749 750 742
f 742 748 749
f 1027 1024 1023
f 1365 1364 981
f 981 638 1365
f 1365 1024 1364
f 884 776 775
f 775 776 758
f 775 909 884
f 775 758 909
f 753 743 747
f 751 743 753
f 758 776 765
f 780 766 765
f 765 766 751
f 884 780 765
f 765 776 884
f 562 767 561
f 777 767 562
f 562 561 605
f 562 605 606
f 606 777 562
f 1029 1046 1043
f 1043 1044 1029
f 1043 1046 1079
f 1079 1044 1043
f 980 975 979
f 979 978 980
f 974 978 979
f 1028 974 979
f 1027 1028 979
f 979 975 1027
f 985 977 984
f 981 986 984
f 984 986 985
f 554 589 555
f 589 853 555
f 856 589 597
f 916 911 891
f 891 911 893
f 601 600 651
f 558 600 601
f 603 559 601
f 559 558 601
f 597 589 635
f 587 584 586
f 587 632 584
f 651 650 690
f 690 691 651
f 649 690 650
f 649 650 597
f 691 680 716
f 716 713 691
f 680 713 716
f 31 32 13
f 13 30 31
f 13 12 30
f 49 50 296
f 50 297 296
f 297 13 296
f 296 48 49
f 47 48 296
f 296 32 47
f 296 13 32
f 327 311 333
f 314 313 327
f 308 1 320
f 308 320 310
f 1218 1209 1217
f 1217 1219 1218
f 1217 1237 1219
f 44 346 43
f 43 1209 44
f 4 5 306
f 306 3 4
f 306 319 2
f 2 3 306
f 2 319 1
f 1 14 2
f 14 3 2
f 14 34 15
f 15 3 14
f 15 4 3
f 1016 1014 1020
f 1002 1001 1009
f 1015 1193 1009
f 1009 1014 1015
f 1009 1193 1197
f 21 346 321
f 321 322 21
f 368 1208 1209
f 368 367 421
f 1005 372 1011
f 1011 1012 1005
f 1018 1012 1011
f 1003 1007 1000
f 1000 997 1003
f 1003 997 999
f 999 1006 1003
f 513 517 506
f 489 488 513
f 433 432 486
f 486 487 433
f 373 374 1013
f 373 431 374
f 373 1013 1018
f 373 433 431
f 430 432 373
f 432 433 373
f 1018 1011 373
f 373 1011 372
f 371 430 373
f 373 372 371
f 1019 374 1016
f 1016 1021 1019
f 552 553 531
f 554 532 531
f 531 553 554
f 527 548 549
f 586 584 549
f 549 587 586
f 584 583 549
f 549 547 527
f 549 583 547
f 589 552 551
f 551 588 589
f 584 588 550
f 529 547 550
f 550 547 584
f 550 551 529
f 588 551 550
f 1112 1153 1113
f 1113 1124 1114
f 1113 1153 1124
f 1281 1284 1285
f 1146 1104 1147
f 1064 1106 1107
f 1107 1104 1064
f 1106 1147 1107
f 1107 1147 1104
f 1112 1068 1111
f 935 1294 1295
f 1295 1296 935
f 1294 1304 1295
f 1295 1304 793
f 793 1296 1295
f 1300 1299 1306
f 1299 1298 1306
f 1306 792 1300
f 1306 1298 792
f 805 1291 791
f 805 804 821
f 805 791 804
f 821 822 805
f 822 823 805
f 1108 1145 1150
f 1150 1109 1108
f 1108 1109 1066
f 1110 1106 1066
f 1066 1109 1110
f 1129 1087 1128
f 1091 1132 1133
f 1133 1134 1091
f 293 289 283
f 283 282 293
f 293 282 289
f 946 290 295
f 295 291 946
f 265 280 281
f 281 282 265
f 280 291 281
f 286 289 288
f 288 278 286
f 288 289 941
f 941 278 288
f 259 275 260
f 260 275 277
f 277 278 260
f 260 278 276
f 276 940 260
f 940 261 260
f 163 130 132
f 163 164 130
f 132 166 163
f 166 164 163
f 1264 1274 203
f 203 209 1264
f 202 209 203
f 1274 162 203
f 161 202 203
f 203 162 161
f 1266 1243 1265
f 1265 1243 202
f 201 161 169
f 169 168 201
f 201 202 161
f 141 168 135
f 135 134 141
f 168 141 1215
f 1215 141 134
f 575 108 76
f 108 109 76
f 144 108 143
f 143 109 144
f 144 109 108
f 542 109 525
f 525 541 542
f 541 572 542
f 966 228 965
f 966 226 228
f 965 963 966
f 963 226 966
f 738 736 735
f 738 737 736
f 735 722 738
f 591 1036 1026
f 1026 1037 1027
f 1026 1036 1037
f 950 251 948
f 939 949 950
f 950 948 939
f 250 251 950
f 950 949 954
f 954 955 950
f 238 250 950
f 950 955 238
f 249 262 952
f 952 262 948
f 948 251 952
f 952 250 249
f 952 251 250
f 951 261 940
f 940 262 951
f 951 262 249
f 958 957 644
f 644 645 958
f 953 957 958
f 958 645 953
f 579 627 628
f 579 578 627
f 579 629 580
f 628 629 579
f 580 546 579
f 579 546 545
f 545 578 579
f 105 103 71
f 43 74 71
f 74 105 71
f 71 72 43
f 130 162 131
f 131 103 130
f 131 162 1261
f 346 45 22
f 22 42 346
f 45 42 22
f 184 198 185
f 184 185 151
f 151 150 184
f 196 197 156
f 156 195 196
f 194 195 156
f 116 155 156
f 155 188 156
f 193 194 156
f 156 188 193
f 159 199 200
f 200 160 159
f 165 160 200
f 200 199 166
f 166 165 200
f 393 341 392
f 394 341 393
f 449 394 393
f 393 418 449
f 447 418 392
f 446 418 447
f 447 388 446
f 392 389 447
f 389 388 447
f 54 53 85
f 54 26 53
f 85 86 54
f 56 58 57
f 57 58 28
f 57 28 27
f 27 315 57
f 57 315 56
f 1085 1127 1083
f 1085 1083 1047
f 1048 1087 1088
f 1088 1089 1048
f 1087 1129 1088
f 1079 1125 1126
f 1249 1234 1257
f 135 526 107
f 107 134 135
f 897 898 880
f 880 898 887
f 880 887 873
f 1248 1234 1249
f 1248 1229 1234
f 1229 1248 875
f 1234 1229 1254
f 1229 1253 1254
f 1251 1234 1254
f 1254 1253 1251
f 1228 1253 1229
f 853 856 857
f 557 871 599
f 599 600 557
f 833 831 340
f 340 832 833
f 812 831 833
f 833 832 812
f 848 828 839
f 839 828 827
f 839 819 838
f 820 809 799
f 820 826 809
f 799 819 820
f 827 826 820
f 819 839 820
f 820 839 827
f 812 797 811
f 811 797 810
f 811 831 812
f 811 810 831
f 849 390 391
f 391 848 849
f 848 839 849
f 849 839 838
f 1027 1023 590
f 590 1026 1027
f 640 593 590
f 593 591 590
f 591 1026 590
f 639 1365 638
f 1024 1365 639
f 639 681 682
f 639 638 681
f 639 682 640
f 640 590 639
f 744 977 971
f 756 977 744
f 971 741 744
f 741 743 744
f 755 771 756
f 756 744 755
f 755 744 754
f 769 771 755
f 755 754 769
f 769 754 768
f 768 754 767
f 768 777 769
f 768 767 777
f 781 767 770
f 767 754 770
f 770 766 781
f 770 754 766
f 747 758 759
f 758 765 759
f 977 761 983
f 983 984 977
f 983 761 981
f 981 984 983
f 854 857 858
f 853 857 854
f 521 1213 529
f 521 531 1255
f 855 853 589
f 589 856 855
f 855 856 853
f 890 558 916
f 916 891 890
f 651 654 652
f 652 601 651
f 652 654 603
f 603 601 652
f 632 587 633
f 680 649 634
f 589 632 634
f 634 635 589
f 597 635 634
f 634 649 597
f 689 649 680
f 690 649 689
f 689 680 691
f 691 690 689
f 30 12 298
f 298 303 30
f 298 297 303
f 298 13 297
f 12 13 298
f 309 301 311
f 311 327 309
f 303 301 309
f 333 314 336
f 336 327 333
f 314 327 336
f 312 313 303
f 312 327 313
f 303 309 312
f 312 309 327
f 9 308 300
f 300 25 9
f 9 25 14
f 9 14 1
f 1 308 9
f 310 301 307
f 307 308 310
f 307 301 300
f 300 308 307
f 73 1209 43
f 73 1217 1209
f 43 72 73
f 73 72 1237
f 1237 1217 73
f 455 407 406
f 406 405 455
f 406 407 350
f 440 455 454
f 455 405 454
f 454 435 440
f 420 435 454
f 421 1190 454
f 454 1199 420
f 1190 1199 454
f 16 34 17
f 5 4 16
f 16 15 34
f 4 15 16
f 17 6 16
f 16 6 5
f 1010 1014 1007
f 1007 1003 1010
f 1010 1006 1013
f 1010 1003 1006
f 1203 1204 1002
f 1002 1009 1203
f 1197 1204 1203
f 1203 1009 1197
f 1007 1014 1008
f 1014 1009 1008
f 1008 1001 1007
f 1008 1009 1001
f 23 24 346
f 46 24 23
f 346 44 23
f 44 46 23
f 1209 24 1216
f 1216 24 46
f 1216 44 1209
f 1216 46 44
f 1206 367 1205
f 367 368 1205
f 1205 1209 1206
f 1205 368 1209
f 1208 368 400
f 1209 1208 400
f 400 24 1209
f 400 368 405
f 346 24 400
f 377 434 378
f 377 378 1016
f 431 434 376
f 434 377 376
f 376 377 1016
f 434 488 436
f 436 437 378
f 378 434 436
f 436 489 437
f 436 488 489
f 484 434 431
f 484 488 434
f 431 433 484
f 487 488 484
f 484 433 487
f 514 506 490
f 514 513 506
f 490 489 514
f 489 513 514
f 512 488 487
f 512 513 488
f 512 511 518
f 512 487 511
f 518 517 512
f 517 513 512
f 1255 531 1267
f 1069 1068 1112
f 1112 1113 1069
f 1069 1360 1068
f 1359 1360 1353
f 1355 1360 1359
f 1359 1283 1355
f 1281 1285 840
f 840 823 822
f 822 841 840
f 1145 1108 840
f 1066 1281 840
f 840 1108 1066
f 1067 1111 1068
f 1067 1068 1355
f 1355 1286 1067
f 1112 1111 1148
f 1148 1153 1112
f 1148 1125 1153
f 1292 805 823
f 1288 1291 1292
f 1291 805 1292
f 822 813 834
f 834 841 822
f 1150 1145 1163
f 1145 840 1163
f 1163 1133 1150
f 1134 1133 1163
f 1152 1109 1150
f 1150 1133 1152
f 1152 1133 1132
f 1162 1129 1128
f 1128 1127 1162
f 1146 1147 1162
f 1132 1089 1131
f 1149 1147 1106
f 1106 1110 1149
f 1149 1162 1147
f 1129 1162 1149
f 292 281 291
f 282 281 292
f 291 295 292
f 290 282 292
f 292 295 290
f 259 260 246
f 245 258 246
f 258 259 246
f 246 237 245
f 246 247 237
f 237 247 248
f 248 249 237
f 247 246 248
f 248 246 260
f 248 260 261
f 248 951 249
f 261 951 248
f 1259 201 168
f 1234 1258 1259
f 168 1215 1235
f 1214 1234 1235
f 1235 1215 1214
f 1207 1215 134
f 134 107 1207
f 1207 1213 1214
f 1214 1215 1207
f 529 1213 1207
f 77 76 109
f 109 542 77
f 575 76 77
f 103 131 104
f 72 71 104
f 104 71 103
f 1238 72 104
f 1261 1239 104
f 104 131 1261
f 104 1239 1219
f 1219 1238 104
f 157 197 166
f 157 156 197
f 166 198 157
f 198 184 157
f 157 184 150
f 157 150 116
f 116 156 157
f 392 418 448
f 448 393 392
f 418 393 448
f 317 26 304
f 26 54 304
f 304 54 55
f 316 317 304
f 304 55 316
f 87 58 55
f 55 54 87
f 86 58 87
f 87 54 86
f 1084 1047 1052
f 1084 1085 1047
f 1127 1085 1084
f 1052 1097 1084
f 1097 1127 1084
f 1140 1127 1097
f 1097 1139 1140
f 1140 1162 1127
f 1140 1139 1146
f 1146 1162 1140
f 1096 1097 1052
f 1138 1126 1125
f 1125 1148 1138
f 1146 1139 1138
f 1138 1148 1146
f 1138 1139 1097
f 1097 1096 1138
f 1214 1232 1233
f 1233 1234 1214
f 1233 1257 1234
f 528 547 529
f 529 1207 528
f 528 1207 107
f 528 526 547
f 528 107 526
f 895 896 897
f 897 880 895
f 876 890 891
f 558 890 876
f 557 558 876
f 876 871 557
f 533 555 858
f 533 532 554
f 554 555 533
f 873 1228 862
f 862 1228 1229
f 873 1226 1227
f 1227 1228 873
f 1226 1253 1227
f 1253 1228 1227
f 858 857 861
f 861 867 858
f 871 867 861
f 861 857 856
f 856 860 861
f 851 842 390
f 390 849 851
f 838 842 851
f 851 849 838
f 1022 1023 1024
f 1024 639 1022
f 1022 590 1023
f 1022 639 590
f 752 744 743
f 754 744 752
f 752 743 751
f 751 766 752
f 766 754 752
f 760 765 751
f 760 759 765
f 751 753 760
f 760 753 747
f 747 759 760
f 556 555 853
f 853 854 556
f 858 555 556
f 556 854 858
f 530 521 529
f 531 521 530
f 529 551 530
f 552 531 530
f 530 551 552
f 1214 1213 1230
f 1213 521 1230
f 1230 521 1255
f 859 856 597
f 597 860 859
f 859 860 856
f 632 633 677
f 680 634 677
f 677 634 632
f 676 713 677
f 677 713 680
f 585 548 137
f 585 633 587
f 137 138 585
f 585 549 548
f 587 549 585
f 403 406 350
f 405 406 403
f 405 368 422
f 422 454 405
f 422 368 421
f 421 454 422
f 1017 1020 1014
f 1014 1010 1017
f 1017 1021 1016
f 1016 1020 1017
f 1017 1010 1013
f 1017 1019 1021
f 1013 374 1017
f 374 1019 1017
f 401 405 404
f 401 400 405
f 346 400 401
f 374 431 375
f 431 376 375
f 1016 374 375
f 375 376 1016
f 1070 1069 1113
f 1070 1113 1114
f 1070 1362 1358
f 1070 1114 1102
f 1070 1102 1115
f 1115 1071 1070
f 1071 1362 1070
f 1111 1067 1105
f 1064 1104 1105
f 1105 1148 1111
f 1105 1104 1146
f 1146 1148 1105
f 823 840 1289
f 1289 1292 823
f 1288 1292 1289
f 1289 1285 1288
f 1289 840 1285
f 1120 834 813
f 1122 1159 1120
f 1120 813 1122
f 1158 1163 840
f 1130 1088 1129
f 1129 1149 1130
f 1089 1088 1130
f 1130 1131 1089
f 1151 1110 1109
f 1151 1149 1110
f 1109 1152 1151
f 1151 1152 1132
f 1132 1131 1151
f 1131 1130 1151
f 1151 1130 1149
f 1234 1259 1260
f 1260 1259 168
f 1260 1235 1234
f 168 1235 1260
f 1272 1259 1258
f 201 1259 1272
f 1272 1258 1266
f 1266 1265 1272
f 1272 1265 202
f 202 201 1272
f 576 542 572
f 576 77 542
f 576 572 575
f 575 77 576
f 1126 1138 1095
f 1095 1138 1096
f 1081 1080 1095
f 1052 1081 1095
f 1095 1096 1052
f 1095 1080 1079
f 1079 1126 1095
f 892 891 893
f 892 876 891
f 879 895 880
f 896 895 879
f 894 896 879
f 864 533 858
f 1223 533 875
f 869 880 873
f 873 862 869
f 869 862 858
f 598 599 871
f 871 881 598
f 598 881 597
f 597 600 598
f 600 599 598
f 870 881 871
f 871 861 870
f 870 861 860
f 870 860 597
f 597 881 870
f 1214 1230 1236
f 1255 1267 1245
f 1245 1230 1255
f 631 677 633
f 633 585 631
f 138 546 582
f 582 585 138
f 546 581 582
f 581 631 582
f 582 631 585
f 405 403 349
f 322 321 349
f 350 322 349
f 349 403 350
f 404 405 349
f 349 321 346
f 346 401 349
f 349 401 404
f 1363 1070 1358
f 1069 1070 1363
f 1358 1360 1363
f 1360 1069 1363
f 1283 1359 1287
f 1287 1284 1283
f 1353 1288 1287
f 1287 1359 1353
f 1288 1285 1287
f 1287 1285 1284
f 1065 1067 1286
f 1065 1105 1067
f 1064 1105 1065
f 1065 1282 1064
f 1283 1282 1065
f 1065 1286 1283
f 852 840 841
f 852 1158 840
f 1120 1158 852
f 1157 1120 1159
f 1157 1158 1120
f 1163 1158 1157
f 1159 1134 1157
f 1134 1163 1157
f 868 879 880
f 880 869 868
f 858 867 868
f 868 869 858
f 868 867 871
f 871 876 868
f 878 892 893
f 876 892 878
f 878 893 894
f 894 879 878
f 879 868 878
f 533 864 865
f 1231 1232 1214
f 1214 1236 1231
f 1256 1236 1230
f 1230 1245 1256
f 1257 1233 1256
f 1256 1233 1232
f 1232 1231 1256
f 1256 1231 1236
f 1222 1223 875
f 677 631 630
f 676 677 630
f 630 631 581
f 675 678 630
f 630 629 675
f 630 581 629
f 630 679 676
f 678 679 630
f 850 852 841
f 1120 852 850
f 841 834 850
f 834 1120 850
f 877 868 876
f 876 878 877
f 877 878 868
f 875 533 866
f 533 865 866
f 1229 875 866
f 866 865 1229
f 858 862 863
f 863 864 858
f 863 862 1229
f 1229 865 863
f 1268 531 532
f 1268 1267 531
f 1268 1245 1267
f 1221 875 1248
f 1221 1222 875
f 1221 1248 1249
f 1222 1221 1247
f 874 865 864
f 864 863 874
f 874 863 865
f 532 1270 1269
f 1269 1268 532
f 1245 1268 1269
f 1244 1256 1245
f 1245 1221 1244
f 1244 1221 1249
f 1249 1257 1244
f 1257 1256 1244
f 1271 1270 532
f 532 533 1271
f 1223 1222 1250
f 1222 1247 1250
f 1247 1271 1250
f 533 1223 1250
f 1250 1271 533
f 1245 1269 1246
f 1246 1269 1270
f 1246 1221 1245
f 1246 1247 1221
f 1270 1271 1246
f 1246 1271 1247
f 721 737 738
f 738 722 721

