# https://github.com/mikedh/trimesh
v -0.01831428 -0.00079205 0.08045007
v 0.01730746 -0.00090252 0.08148311
v -0.00038236 0.01718218 0.08149251
v -0.00060487 -0.01822434 0.08100654
v 0.01185745 0.01133505 0.07362911
v 0.00915014 -0.00996301 0.07319989
v -0.00517650 -0.00754738 0.07237256
v -0.01040873 0.00836768 0.07346620
v -0.01338815 -0.01249671 0.08061367
v -0.01037073 0.01358063 0.08208761
v 0.00931278 0.01391211 0.08302577
v 0.01375943 -0.01040170 0.08196020
v 0.01240728 -0.00097102 0.07305267
v -0.01273306 -0.00194726 0.07238708
v -0.00877237 -0.00500825 0.08334377
v -0.00446465 0.01464585 0.07324983
v 0.00780636 -0.01655913 0.08037020
v -0.01635343 0.00750575 0.08060307
v 0.01488661 0.00824612 0.08246403
v 0.00185604 -0.01167199 0.07282902
v 0.00723336 0.01641809 0.07610969
v -0.00805140 -0.01654570 0.08031481
v -0.01673819 -0.00735637 0.08051963
v -0.01078472 -0.00734908 0.07287202
v -0.00526078 0.01587759 0.08261693
v 0.01165902 0.01449070 0.07785480
v 0.01651601 -0.00626990 0.08095770
v -0.01327351 0.00296297 0.07321266
v -0.00253844 0.01737354 0.07700908
v 0.00544738 0.01646329 0.08168302
v 0.01659227 0.00360467 0.08187451
v -0.01285963 -0.00762067 0.08292598
v -0.01343400 0.01121030 0.08016751
v 0.01166719 -0.00650336 0.07336395
v -0.01698453 0.00350455 0.08182347
v 0.01077778 -0.01324822 0.08177014
v 0.00398111 -0.01801275 0.08052904
v -0.00440008 -0.01775299 0.08053564
v 0.00538289 -0.01264720 0.07351542
v 0.01265735 0.01097960 0.08300228
v -0.01046907 -0.01437018 0.08118606
v 0.00839403 0.01580098 0.08031050
v -0.01779660 -0.00431244 0.07975573
v -0.01437473 -0.00470080 0.08280875
v 0.00235951 0.01627346 0.08297649
v -0.00335216 0.01710891 0.08027554
v -0.00792943 0.01526882 0.08101895
v -0.01103765 0.00552827 0.07234086
v -0.01508486 -0.01016117 0.07959814
v -0.01404180 0.00781100 0.08241116
v -0.00496757 0.01660255 0.07563500
v 0.00999003 0.01500752 0.07555555
v -0.01230481 -0.00479685 0.07248762
v 0.01267753 -0.00377531 0.07360684
v 0.01550973 0.00099433 0.08265635
v -0.01144210 -0.00410747 0.08335064
v -0.00257362 0.01571056 0.08311028
v -0.01397631 -0.01011263 0.08208607
v -0.01139331 -0.00982855 0.08267220
v -0.01251117 0.01024869 0.08245846
v 0.01062234 0.01444941 0.08076370
v 0.00668230 -0.01039971 0.07245549
v 0.01485220 -0.00774909 0.08219730
v 0.01304145 -0.01219165 0.08034435
v -0.00836988 -0.00743368 0.08299983
v 0.01654763 -0.00417167 0.08216316
v 0.00546598 0.01457817 0.08315612
v 0.00956782 -0.01527186 0.08137423
v -0.00691045 0.01428975 0.08288990
v 0.01149103 0.01315525 0.08239780
v 0.01512377 -0.00928050 0.08056308
v 0.01528652 0.00605840 0.08277425
v -0.01738769 0.00364213 0.07962372
v -0.01715153 0.00062653 0.08172709
v 0.00142012 -0.01833788 0.08007133
v 0.01296461 0.00951034 0.07426525
v 0.00947732 0.01602536 0.07746418
v -0.01465871 0.00972991 0.08158166
v 0.01707216 0.00126531 0.08133879
v -0.01174973 -0.01389192 0.07967887
v 0.01059289 -0.00818519 0.07317851
v -0.00186185 0.01738510 0.07897852
v -0.01207154 0.01275087 0.08148062
v -0.00477692 0.01277133 0.07288989
v -0.01780707 0.00077021 0.07947084
v 0.00744333 0.01428352 0.08313148
v -0.01352166 0.00108511 0.07302479
v 0.01227223 0.01408221 0.07610117
v 0.01324791 0.00883531 0.08310767
v -0.00230298 -0.01838949 0.08029045
v -0.01661884 0.00531025 0.08168913
v 0.01110329 -0.01426004 0.08029217
v -0.00839743 0.01326965 0.08282325
v 0.00567681 -0.01749839 0.08082100
v -0.01567979 -0.00813848 0.08174127
v -0.01155810 0.00685021 0.07338368
v -0.01238802 -0.00558000 0.08315613
v 0.01704705 -0.00307284 0.08088458
v -0.01685486 0.00596804 0.07995446
v -0.00901495 -0.01559278 0.07931302
v 0.01596637 -0.00786096 0.08093516
v 0.00778559 0.01560492 0.08185291
v -0.01201172 0.00419074 0.07243572
v 0.00173822 0.01720116 0.08175321
v -0.01363045 -0.00080958 0.07318296
v 0.01538510 0.00419635 0.08283256
v 0.00121462 -0.01735045 0.08136913
v -0.00415567 0.01714238 0.07712419
v -0.01533133 0.00906639 0.08028331
v -0.00373436 0.01658874 0.08244535
v -0.00084368 0.01660030 0.08286448
v -0.01441946 -0.00868146 0.08245621
v 0.01309631 0.01095195 0.07473711
v -0.01732770 -0.00606005 0.07998760
v -0.01170180 0.01161729 0.08242289
v -0.01614326 -0.00867247 0.08004858
v 0.01681083 -0.00210080 0.08224948
v -0.00416115 0.01592529 0.07396129
v 0.00894252 0.01605897 0.07608128
v -0.00901637 0.01442329 0.08215497
v 0.00892879 0.01597369 0.07895288
v -0.01798333 0.00292558 0.08075520
v 0.01571991 -0.00536497 0.08229716
v 0.01056839 0.01234970 0.08318620
v 0.01679874 -0.00449983 0.08074252
v -0.00475298 0.01651446 0.08141281
v -0.01745509 -0.00107972 0.08157294
v -0.01425412 -0.00728445 0.08281647
f 13 62 48
f 80 49 24
f 122 85 1
f 73 85 122
f 9 49 80
f 80 22 9
f 9 22 41
f 48 96 8
f 8 16 48
f 48 16 84
f 84 16 5
f 84 13 48
f 5 13 84
f 52 88 5
f 119 88 52
f 79 31 2
f 31 88 19
f 124 56 15
f 2 27 98
f 62 13 81
f 48 62 7
f 68 94 17
f 50 56 93
f 97 56 128
f 44 56 50
f 128 56 44
f 109 8 96
f 118 8 51
f 16 8 118
f 51 29 118
f 29 21 118
f 118 21 119
f 119 52 118
f 5 16 118
f 118 52 5
f 76 13 5
f 2 98 76
f 76 98 13
f 113 88 31
f 31 79 113
f 5 88 113
f 113 76 5
f 113 79 2
f 2 76 113
f 31 19 72
f 57 45 111
f 70 102 11
f 11 102 45
f 104 111 45
f 3 111 104
f 82 3 104
f 104 29 82
f 104 21 29
f 40 19 70
f 70 11 40
f 40 11 124
f 40 72 19
f 67 45 57
f 57 56 67
f 56 124 67
f 100 90 22
f 80 24 100
f 100 22 80
f 20 7 62
f 24 7 20
f 20 100 24
f 90 100 20
f 55 106 15
f 125 98 27
f 62 81 6
f 6 81 64
f 54 125 27
f 13 98 54
f 98 125 54
f 48 7 14
f 1 85 43
f 85 105 43
f 17 94 37
f 41 22 38
f 22 90 38
f 36 68 12
f 15 36 12
f 12 63 15
f 12 68 64
f 12 101 63
f 94 68 107
f 107 68 36
f 58 9 41
f 58 95 9
f 69 56 57
f 69 93 56
f 50 93 60
f 60 93 115
f 128 44 127
f 127 122 1
f 127 95 128
f 61 102 70
f 77 88 119
f 119 21 77
f 121 61 77
f 21 104 77
f 45 102 30
f 30 104 45
f 121 77 30
f 30 77 104
f 106 72 89
f 72 40 89
f 89 40 124
f 15 106 89
f 89 124 15
f 124 11 86
f 86 67 124
f 86 11 45
f 45 67 86
f 39 20 62
f 39 37 75
f 75 90 39
f 90 20 39
f 17 37 39
f 62 6 39
f 39 6 17
f 15 63 123
f 123 55 15
f 64 81 71
f 71 12 64
f 101 12 71
f 92 6 64
f 17 6 92
f 64 68 92
f 92 68 17
f 34 81 13
f 13 54 34
f 34 71 81
f 101 71 34
f 27 101 34
f 34 54 27
f 53 7 24
f 53 14 7
f 53 24 49
f 105 14 53
f 53 43 105
f 1 43 114
f 43 53 114
f 48 14 103
f 103 96 48
f 103 28 96
f 87 14 105
f 87 105 85
f 87 103 14
f 28 103 87
f 87 85 73
f 73 28 87
f 99 109 96
f 96 28 99
f 99 28 73
f 73 122 99
f 59 58 41
f 65 36 15
f 65 107 36
f 15 59 65
f 65 59 107
f 4 37 94
f 94 107 4
f 4 90 75
f 75 37 4
f 4 38 90
f 41 38 4
f 4 59 41
f 107 59 4
f 128 95 112
f 95 58 112
f 112 59 128
f 58 59 112
f 25 69 57
f 69 25 120
f 33 83 51
f 109 83 33
f 51 8 33
f 8 109 33
f 78 83 109
f 115 83 78
f 78 60 115
f 50 60 78
f 78 91 50
f 35 44 50
f 50 91 35
f 122 127 35
f 35 91 122
f 102 61 42
f 42 61 121
f 42 30 102
f 121 30 42
f 88 77 26
f 26 77 61
f 26 61 70
f 70 19 26
f 26 19 88
f 55 123 117
f 106 55 117
f 2 31 117
f 117 72 106
f 31 72 117
f 1 114 23
f 23 127 1
f 95 127 23
f 116 53 49
f 116 114 53
f 116 23 114
f 49 9 116
f 9 95 116
f 95 23 116
f 32 59 15
f 15 56 32
f 56 97 32
f 32 97 128
f 128 59 32
f 57 111 110
f 110 25 57
f 110 111 3
f 10 83 115
f 10 120 83
f 115 93 10
f 93 69 10
f 69 120 10
f 109 99 18
f 18 78 109
f 18 99 122
f 122 91 18
f 91 78 18
f 74 127 44
f 44 35 74
f 74 35 127
f 66 117 123
f 66 101 27
f 66 27 2
f 2 117 66
f 63 101 66
f 66 123 63
f 46 3 82
f 46 110 3
f 82 29 108
f 108 46 82
f 108 29 51
f 83 120 47
f 51 83 47
f 47 108 51
f 46 108 126
f 108 47 126
f 110 46 126
f 25 110 126
f 126 120 25
f 126 47 120

