# https://github.com/mikedh/trimesh
v 0.00760879 -0.02000245 -0.19032764
v -0.00776742 -0.06619968 0.19394083
v 0.00964038 -0.06819208 -0.00094831
v -0.01412796 -0.06086433 -0.09802754
v 0.00547776 -0.07195401 0.09675723
v -0.00008154 -0.05915051 -0.15185605
v -0.01368069 -0.06821214 0.04421614
v -0.01615302 -0.06619968 0.14418338
v -0.00776742 -0.06632672 -0.04806131
v -0.01463917 -0.04677499 -0.18237630
v 0.00932482 -0.06420505 -0.07593245
v 0.00985441 -0.06069496 -0.12109689
v 0.01164623 -0.06619968 0.13263130
v 0.01175324 -0.06619968 0.02883657
v -0.01437217 -0.06858654 0.07497530
v -0.01457797 -0.06513885 -0.01730216
v -0.01616674 -0.06619968 0.11342423
v 0.01103470 -0.05109077 -0.17511444
v -0.01491548 -0.06566258 0.00962949
v 0.00760983 -0.07079289 0.05959572
v -0.00496033 -0.07185149 0.16725276
v -0.01501315 -0.02390831 -0.19032764
v -0.01567556 -0.05466650 -0.13647647
v -0.01199589 -0.06372812 -0.07113068
v 0.00517593 -0.06807396 -0.02499195
v 0.01087517 -0.06644928 0.17877004
v 0.01099865 -0.06982344 0.15570068
v -0.01514418 -0.05445135 -0.16341566
v 0.01012606 -0.06481793 -0.05575110
v 0.00760879 -0.03928425 -0.19025742
v 0.01056510 -0.06142149 -0.10188983
v 0.01091633 -0.06983680 0.11342423
v -0.00304503 -0.07211447 0.12494153
v -0.00776742 -0.06944903 0.02497428
v -0.00008154 -0.07235070 0.14418338
v -0.00392311 -0.06245558 -0.11340711
v 0.01089163 -0.06946909 0.07497530
v 0.00396034 -0.06064815 -0.13668525
v -0.01161448 -0.06598796 -0.03268173
v -0.00776742 -0.07048979 0.05959572
v -0.00614298 -0.06433877 -0.08543160
v -0.01618046 -0.06619968 0.12880380
v 0.00376552 -0.07082632 0.04035385
v -0.00776742 -0.07099124 0.09035487
v 0.01147061 -0.06619968 0.01349179
v 0.01138555 -0.05466650 -0.15954584
v 0.00760983 -0.06909913 0.19265340
v -0.00283649 -0.07208327 0.10956195
v -0.00008109 -0.05612198 -0.16760360
v -0.00776823 -0.03587339 -0.19164595
v -0.00745460 -0.06849517 -0.00188779
v 0.00376552 -0.06748337 -0.04037152
v -0.00295174 -0.07209218 0.18263233
v -0.00694697 -0.06068381 -0.12878670
v -0.00008154 -0.06981229 0.00962949
v 0.00581527 -0.06430534 -0.08880676
v -0.00008154 -0.07183812 0.07880279
v -0.00392311 -0.06862889 -0.01343987
v -0.00008109 -0.05097862 -0.17879485
v 0.00376552 -0.07013990 0.02114678
v -0.00008109 -0.02775229 -0.19388674
v -0.00392311 -0.06341389 -0.10188983
v -0.01588136 -0.06235529 -0.00575008
v -0.01583746 -0.06619968 0.18645982
v -0.01161454 -0.05326413 -0.17413130
v -0.00008154 -0.07163754 0.06728551
v -0.00008154 -0.07128987 0.05190593
v -0.01449291 -0.06882278 0.17108025
v -0.01357093 -0.06045649 -0.10790944
v -0.00776742 -0.06984572 0.03652636
v 0.00760879 -0.04784620 -0.18334667
v -0.01466852 -0.06145938 -0.08264796
v -0.01545056 -0.06235529 -0.04037152
v 0.01184654 -0.06619968 0.04035385
v -0.00776742 -0.07110490 0.10187215
v -0.00505637 -0.07185372 0.13649361
v -0.00008154 -0.07231504 0.15956296
v 0.00204230 -0.07198075 0.08764083
v -0.00776742 -0.07120073 0.11725173
v 0.01108097 -0.06235529 -0.06726839
v -0.00008154 -0.06535057 -0.07882047
v -0.00008154 -0.06325120 0.19032212
v -0.01161448 -0.05739881 -0.15571834
v 0.01097464 -0.02775229 -0.19312705
v -0.00776823 -0.04340280 -0.18707815
v -0.00776742 -0.06744771 -0.02499195
v -0.00392311 -0.05976785 -0.14416626
v -0.00008154 -0.06704656 -0.05188881
v -0.00392311 -0.06760371 -0.03650924
v -0.00392311 -0.07078621 0.04421614
v -0.00008154 -0.06208785 -0.12109689
v -0.01565466 -0.03928425 -0.18648444
v -0.00392311 -0.05785568 -0.15954584
v -0.00008154 -0.07071935 0.03266406
v 0.00376552 -0.07231727 0.13649361
v 0.00577960 -0.07198521 0.18478964
v 0.01173952 -0.06619968 0.12111403
v -0.00776823 -0.02034663 -0.19312386
v 0.00919585 -0.06034061 -0.12958699
v -0.00230690 -0.06431425 -0.09277343
v 0.01151452 -0.05851090 -0.10957962
v -0.00008154 -0.07204984 0.19234024
v -0.01054432 -0.06840826 0.01728449
v 0.00760983 -0.06636014 -0.04806131
v 0.01048004 -0.05744561 -0.15185605
v -0.01349136 -0.06425854 -0.05355899
v -0.01566733 -0.05851090 -0.09033775
v -0.01161448 -0.06917267 0.05190593
v 0.00376552 -0.06324451 -0.10571732
v 0.00785720 -0.05618385 -0.16702583
v -0.00776742 -0.07071266 0.07111301
v 0.00885560 -0.06447917 0.18645982
v 0.00376552 -0.07231504 0.12111403
v -0.00505088 -0.06034506 -0.13647647
v -0.00008154 -0.06950697 0.00193971
v -0.00008154 -0.07148600 0.05959572
v -0.00776742 -0.07083523 0.07880279
v 0.00376552 -0.05799386 -0.15954584
v -0.01504045 -0.03159628 -0.19032764
v 0.01161330 -0.06619968 0.02114678
v 0.00376552 -0.07219916 0.10573445
v 0.00376552 -0.05995728 -0.14416626
v -0.00776823 -0.02775229 -0.19380376
v -0.00776823 -0.04922678 -0.18113779
v -0.01161448 -0.06699753 -0.00961237
v -0.00742701 -0.05607171 -0.16688859
v -0.00912294 -0.06415156 -0.07882047
v 0.01127579 -0.06619968 0.00580200
f 22 8 64
f 82 112 1
f 82 64 2
f 68 8 42
f 64 8 68
f 98 22 64
f 64 82 98
f 98 82 1
f 84 98 1
f 13 97 84
f 84 97 74
f 28 23 92
f 42 8 92
f 8 22 92
f 53 68 21
f 13 84 26
f 1 112 26
f 26 84 1
f 74 97 27
f 27 97 13
f 13 26 27
f 22 98 123
f 101 84 74
f 46 84 101
f 17 68 42
f 17 23 63
f 42 92 17
f 17 92 23
f 10 92 50
f 28 92 10
f 77 53 35
f 47 26 112
f 96 27 47
f 47 27 26
f 47 82 2
f 112 82 47
f 113 5 96
f 50 92 119
f 119 123 50
f 119 92 22
f 22 123 119
f 98 84 61
f 61 123 98
f 84 30 61
f 50 123 61
f 61 30 50
f 46 101 31
f 107 23 28
f 28 72 107
f 63 23 107
f 21 68 79
f 68 17 15
f 15 79 68
f 75 79 15
f 46 110 18
f 18 110 71
f 18 84 46
f 18 30 84
f 71 30 18
f 105 110 46
f 46 31 105
f 105 99 122
f 122 110 105
f 50 30 85
f 85 10 50
f 85 30 71
f 65 49 126
f 28 10 65
f 102 77 96
f 53 77 102
f 96 47 102
f 102 47 2
f 2 64 102
f 64 68 102
f 68 53 102
f 74 27 32
f 32 37 74
f 32 27 96
f 96 5 32
f 96 77 95
f 95 113 96
f 95 77 35
f 35 113 95
f 35 53 33
f 33 53 21
f 14 101 74
f 74 37 14
f 99 105 12
f 12 105 31
f 29 31 128
f 128 3 29
f 128 45 37
f 37 3 128
f 101 45 80
f 80 31 101
f 45 128 80
f 80 128 31
f 63 107 73
f 73 107 72
f 73 17 63
f 28 65 83
f 83 65 126
f 126 49 93
f 93 83 126
f 87 83 93
f 124 85 71
f 10 85 124
f 124 65 10
f 20 3 37
f 20 32 5
f 37 32 20
f 25 3 60
f 3 20 60
f 90 51 58
f 76 79 75
f 21 79 76
f 76 33 21
f 120 45 101
f 101 14 120
f 37 45 120
f 120 14 37
f 104 3 25
f 11 56 99
f 99 12 11
f 11 104 56
f 11 31 29
f 11 12 31
f 29 3 11
f 3 104 11
f 19 15 17
f 17 73 19
f 100 88 89
f 91 109 100
f 56 88 81
f 81 109 56
f 81 88 100
f 100 109 81
f 4 72 28
f 4 106 72
f 127 83 54
f 87 93 6
f 122 91 6
f 6 91 87
f 118 49 110
f 118 93 49
f 118 6 93
f 118 110 122
f 122 6 118
f 59 124 71
f 65 124 59
f 71 110 59
f 110 49 59
f 49 65 59
f 25 60 52
f 52 88 56
f 52 104 25
f 56 104 52
f 48 76 75
f 33 76 48
f 48 113 35
f 35 33 48
f 43 20 5
f 43 60 20
f 16 73 72
f 16 19 73
f 72 106 16
f 106 7 16
f 15 19 16
f 16 7 15
f 58 51 86
f 86 89 58
f 100 89 41
f 127 54 41
f 38 91 122
f 109 91 38
f 122 99 38
f 99 56 38
f 56 109 38
f 103 7 125
f 39 86 125
f 125 106 39
f 125 7 106
f 125 51 103
f 125 86 51
f 69 83 127
f 106 4 69
f 28 83 69
f 69 4 28
f 36 91 100
f 87 91 36
f 114 83 87
f 114 54 83
f 87 36 114
f 114 36 54
f 90 48 111
f 115 52 60
f 60 55 115
f 88 52 115
f 115 89 88
f 58 89 115
f 115 55 58
f 5 113 121
f 113 48 121
f 89 86 9
f 127 41 9
f 9 41 89
f 9 86 39
f 39 106 9
f 108 7 103
f 103 70 108
f 15 7 108
f 103 51 34
f 34 70 103
f 51 90 34
f 90 70 34
f 24 69 127
f 106 69 24
f 127 9 24
f 24 9 106
f 62 41 54
f 54 36 62
f 100 41 62
f 62 36 100
f 44 48 75
f 75 15 44
f 40 70 90
f 90 111 40
f 40 108 70
f 111 108 40
f 117 111 48
f 48 44 117
f 117 108 111
f 15 108 117
f 117 44 15
f 94 90 58
f 58 55 94
f 94 55 60
f 60 43 94
f 66 48 90
f 90 116 66
f 67 116 90
f 90 94 67
f 43 116 67
f 67 94 43
f 48 66 57
f 78 57 66
f 5 121 78
f 78 121 48
f 48 57 78
f 78 66 116
f 78 43 5
f 78 116 43

