# https://github.com/mikedh/trimesh
v 0.00577431 0.00015012 -0.07539964
v 0.00576058 0.00035164 -0.06980351
v 0.00556489 -0.00126622 -0.07042952
v 0.00564386 -0.00064686 -0.07723971
v 0.00557977 0.00115317 -0.07672753
v 0.00547678 0.00146968 -0.07025880
v 0.00357597 0.00036302 0.08396658
v 0.00385176 -0.00068557 0.07702359
v 0.00380942 -0.00085635 0.07964144
v 0.00545732 -0.00189355 -0.07280076
v 0.00547449 -0.00166698 -0.07577904
v 0.00495380 -0.00276453 -0.07746736
v 0.00424657 -0.00073908 -0.08541575
v 0.00419393 0.00054747 -0.08600382
v 0.00388266 0.00184426 -0.08579515
v 0.00518153 0.00225413 -0.07710693
v 0.00496753 0.00299987 -0.07632916
v 0.00510829 0.00291448 -0.07179535
v 0.00341117 0.00058049 0.08901257
v 0.00355308 0.00012963 0.08745704
v 0.00369727 -0.00047494 0.08461155
v 0.00376822 -0.00083471 0.08191782
v 0.00348556 -0.00124345 0.08696382
v 0.00466770 -0.00326777 -0.06999321
v 0.00436902 -0.00379149 -0.07572212
v 0.00313652 -0.00333380 -0.08549163
v 0.00374190 -0.00238426 -0.08484665
v 0.00377165 -0.00144155 -0.08638322
v 0.00368125 0.00008522 -0.08708511
v 0.00362632 0.00132736 -0.08678158
v 0.00273599 0.00288374 -0.08651601
v 0.00332420 0.00276875 -0.08524502
v 0.00363204 0.00437295 -0.07687929
v 0.00360801 0.00453348 -0.07230754
v 0.00234461 0.00331639 0.07224317
v 0.00245104 0.00312284 0.07514557
v 0.00277833 0.00213914 0.08578768
v 0.00305985 0.00160403 0.08468743
v 0.00284929 0.00161428 0.08975240
v 0.00303811 0.00076948 0.09109926
v 0.00141652 0.00016378 0.10132404
v 0.00264444 0.00023095 0.09384990
v 0.00311020 -0.00018916 0.09109926
v 0.00341919 -0.00117514 0.08861420
v 0.00258036 -0.00233986 0.08865214
v 0.00332191 -0.00157704 0.08341645
v 0.00420194 -0.00398618 -0.07190917
v 0.00359084 -0.00439036 -0.07733457
v 0.00348098 -0.00459302 -0.07522891
v 0.00202304 -0.00419339 -0.08556751
v 0.00174267 -0.00390648 -0.08636425
v 0.00282754 -0.00283740 -0.08651601
v 0.00287217 -0.00086773 -0.08708511
v 0.00101828 -0.00025065 -0.08755935
v 0.00120710 0.00180213 -0.08778699
v -0.00014326 0.00378546 -0.08786286
v 0.00194179 0.00382076 -0.08592793
v 0.00188114 0.00543976 -0.07703105
v 0.00324638 0.00474753 -0.07577904
v 0.00176785 0.00558321 -0.07001218
v 0.00173581 0.00340861 0.07577157
v 0.00166485 0.00310917 0.08677412
v 0.00238467 0.00316041 0.07708050
v 0.00130437 0.00574830 -0.07078995
v 0.00247736 0.00256154 0.08586357
v 0.00216380 0.00258545 0.08880390
v 0.00226451 0.00140251 0.09314801
v 0.00244875 0.00075127 0.09430518
v 0.00081229 0.00043817 0.10301236
v 0.00084434 -0.00021421 0.10464378
v 0.00144284 -0.00044647 0.10113434
v 0.00146001 -0.00121840 0.09893383
v 0.00240984 -0.00181841 0.09168733
v 0.00210429 -0.00252772 0.09062501
v 0.00175755 -0.00310609 0.08901257
v 0.00275773 -0.00506665 -0.06968970
v 0.00256891 -0.00526703 -0.07646196
v 0.00056740 -0.00479454 -0.08431549
v -0.00000479 -0.00443704 -0.08632631
v 0.00188572 -0.00537519 -0.07725869
v -0.00087109 -0.00380629 -0.08680055
v 0.00114187 -0.00302640 -0.08687643
v -0.00119151 -0.00175465 -0.08712304
v -0.00271582 -0.00235011 -0.08687643
v -0.00411883 0.00147879 -0.08706613
v -0.00112743 0.00405416 -0.08771111
v 0.00073562 0.00442304 -0.08535884
v 0.00057426 0.00563786 -0.07722075
v 0.00139249 0.00570390 -0.07264900
v -0.00022795 0.00358508 0.08745704
v 0.00082374 0.00339381 0.08607224
v 0.00039688 0.00342796 0.08844347
v 0.00173352 0.00298052 0.08812098
v -0.00099811 0.00576879 -0.07636710
v -0.00094204 0.00574374 -0.07327501
v 0.00025040 0.00573236 -0.07048643
v -0.00095119 0.00360671 0.08658442
v 0.00063949 0.00103704 0.10062215
v 0.00017259 0.00082641 0.10248120
v -0.00005286 0.00027308 0.10538360
v -0.00008261 -0.00010036 0.10593373
v 0.00043236 -0.00063547 0.10553537
v 0.00078139 -0.00107608 0.10270885
v 0.00144628 -0.00305372 0.09041635
v 0.00064636 -0.00363893 0.08821584
v 0.00127119 -0.00352280 0.08523756
v 0.00211574 -0.00544009 -0.07097965
v 0.00073676 -0.00573497 -0.07629122
v -0.00108394 -0.00477063 -0.08503635
v -0.00002539 -0.00570195 -0.07722075
v -0.00196969 -0.00432660 -0.08607969
v -0.00279135 -0.00360249 -0.08644012
v -0.00416003 -0.00011630 -0.08687643
v -0.00376980 -0.00221462 -0.08653498
v -0.00240341 0.00378205 -0.08736965
v -0.00422984 0.00089244 -0.08697128
v -0.00467958 -0.00008897 -0.08598485
v -0.00483521 0.00034822 -0.08518811
v -0.00430994 0.00155849 -0.08606073
v -0.00344479 0.00292245 -0.08670571
v -0.00152682 0.00430122 -0.08562442
v -0.00007689 0.00455853 -0.08526399
v -0.00134257 0.00340975 0.08859523
v -0.00033895 0.00339722 0.08916433
v 0.00054680 0.00298280 0.09054913
v -0.00126819 0.00556044 -0.07727766
v -0.00232330 0.00520749 -0.07686032
v -0.00166414 0.00544545 -0.07035364
v -0.00156801 0.00341430 0.08647060
v -0.00032865 0.00083438 0.10268988
v -0.00087109 0.00058276 0.10291751
v -0.00110568 -0.00010719 0.10449202
v -0.00060559 -0.00065938 0.10589579
v -0.00002997 -0.00112504 0.10487141
v 0.00086608 -0.00202107 0.09756800
v 0.00021950 -0.00232392 0.09726448
v 0.00075622 -0.00300021 0.09212364
v 0.00028016 -0.00367650 0.08316984
v -0.00013983 -0.00586249 -0.07132111
v 0.00082717 -0.00367195 0.08311293
v -0.00018561 -0.00343399 0.09037840
v -0.00056211 -0.00349092 0.08920227
v -0.00045339 -0.00584541 -0.07558934
v -0.00258079 -0.00428562 -0.08463798
v -0.00205209 -0.00544237 -0.07642402
v -0.00339787 -0.00369585 -0.08549163
v -0.00402728 -0.00284878 -0.08575721
v -0.00454797 -0.00119563 -0.08590897
v -0.00387279 0.00417598 -0.07706899
v -0.00484093 -0.00065255 -0.08473283
v -0.00566374 0.00127044 -0.07676547
v -0.00462808 0.00141617 -0.08456210
v -0.00570265 -0.00103054 -0.07632916
v -0.00431795 0.00205944 -0.08467592
v -0.00486153 0.00321847 -0.07638607
v -0.00212990 0.00288488 0.08882287
v -0.00295500 0.00491489 -0.07549448
v -0.00256133 0.00506404 -0.07251621
v -0.00331662 0.00469060 -0.07005012
v -0.00200402 0.00306477 0.08707764
v -0.00344594 0.00466214 -0.07268694
v -0.00233932 0.00225755 0.09081471
v -0.00106563 -0.00084155 0.10473863
v -0.00275130 0.00146171 0.09187703
v -0.00325483 0.00153799 0.08922124
v -0.00324224 0.00061236 0.09108029
v -0.00360615 0.00003627 0.08931609
v -0.00022795 -0.00170000 0.10166550
v -0.00247551 -0.00527842 -0.07044850
v -0.00137347 -0.00333152 0.08743807
v -0.00125789 -0.00320173 0.09020767
v -0.00310949 -0.00498809 -0.07644298
v -0.00260139 -0.00524540 -0.07369234
v -0.00407420 -0.00409206 -0.07718281
v -0.00457887 -0.00377100 -0.07513406
v -0.00504349 -0.00277592 -0.07598770
v -0.00441065 -0.00219982 -0.08486562
v -0.00377552 0.00433196 -0.07547552
v -0.00582510 0.00093115 -0.07393895
v -0.00591665 0.00098125 -0.07046746
v -0.00551154 0.00203667 -0.07562727
v -0.00566946 -0.00153833 -0.07281973
v -0.00579306 -0.00048632 -0.06995527
v -0.00515564 0.00284048 -0.07350264
v -0.00481919 0.00323783 -0.07054334
v -0.00305456 0.00196608 0.08764674
v -0.00329831 -0.00096565 0.09016974
v -0.00304197 -0.00150190 0.09039737
v -0.00268722 -0.00231481 0.08948682
v -0.00235420 -0.00293987 0.08796922
v -0.00380069 0.00078201 0.08675515
v -0.00362217 -0.00050795 0.08719146
v -0.00293211 -0.00504957 -0.07001218
v -0.00404903 -0.00420364 -0.07572212
v -0.00391857 -0.00427081 -0.07168154
v -0.00278334 -0.00266776 0.08332159
v -0.00470475 -0.00355809 -0.07082789
v -0.00541198 -0.00218843 -0.06982248
v -0.00398036 0.00044842 0.07645449
v -0.00386821 0.00066018 0.08326469
v -0.00564085 0.00184995 -0.07067613
v -0.00356953 -0.00088139 0.08470640
v -0.00386707 -0.00008442 0.08007775
v -0.00313352 -0.00185940 0.08836760
v -0.00295729 -0.00238654 0.08635678
f 180 183 199
f 180 179 153
f 153 183 180
f 182 183 153
f 3 4 1
f 1 2 3
f 45 47 46
f 47 24 46
f 151 153 179
f 180 181 151
f 151 179 180
f 111 146 112
f 111 112 81
f 56 54 84
f 84 85 56
f 84 112 114
f 84 81 112
f 181 184 155
f 155 178 149
f 155 184 185
f 149 178 157
f 1 4 5
f 5 2 1
f 64 90 61
f 64 96 97
f 97 90 64
f 17 34 18
f 18 5 17
f 17 5 16
f 38 19 18
f 18 19 7
f 7 8 2
f 21 8 7
f 72 103 74
f 101 102 70
f 102 103 70
f 110 109 78
f 143 109 110
f 139 169 143
f 48 77 50
f 76 107 77
f 11 12 4
f 9 3 2
f 2 8 9
f 180 191 201
f 191 184 201
f 201 181 180
f 201 184 181
f 152 151 181
f 114 112 147
f 147 112 146
f 147 148 114
f 147 146 175
f 111 81 79
f 79 109 111
f 50 78 79
f 79 78 109
f 82 81 54
f 55 54 56
f 55 29 54
f 114 148 113
f 113 84 114
f 85 84 113
f 117 148 150
f 117 113 148
f 54 81 83
f 83 84 54
f 81 84 83
f 56 85 86
f 85 115 86
f 120 115 85
f 149 115 120
f 120 155 149
f 128 94 127
f 127 157 128
f 127 115 149
f 149 157 127
f 161 157 178
f 161 155 185
f 178 155 161
f 161 185 160
f 166 165 191
f 164 165 132
f 165 166 132
f 91 61 90
f 95 97 96
f 94 97 95
f 95 96 64
f 64 94 95
f 129 94 128
f 129 97 94
f 128 159 129
f 129 161 160
f 159 161 129
f 160 156 129
f 34 60 35
f 64 61 35
f 35 60 64
f 18 34 35
f 64 60 89
f 89 94 64
f 89 88 94
f 15 17 16
f 16 5 15
f 34 17 33
f 37 38 18
f 19 38 37
f 18 7 6
f 6 7 2
f 6 5 18
f 2 5 6
f 21 7 20
f 20 7 19
f 73 72 74
f 103 72 71
f 71 70 103
f 42 43 19
f 110 78 108
f 108 143 110
f 139 143 108
f 108 107 139
f 77 107 108
f 25 24 47
f 175 146 174
f 146 172 174
f 169 190 193
f 169 193 173
f 173 193 172
f 109 143 145
f 145 173 172
f 145 143 169
f 169 173 145
f 12 11 10
f 10 25 12
f 24 25 10
f 10 9 24
f 3 9 10
f 4 3 10
f 10 11 4
f 23 46 24
f 24 9 23
f 45 46 23
f 176 147 175
f 182 153 176
f 148 147 177
f 177 153 150
f 150 148 177
f 177 176 153
f 147 176 177
f 26 27 12
f 12 25 26
f 26 25 48
f 26 48 50
f 4 12 13
f 12 27 13
f 54 29 53
f 53 82 54
f 85 113 116
f 116 117 85
f 113 117 116
f 118 117 150
f 150 153 118
f 153 151 118
f 151 152 118
f 85 117 118
f 94 86 121
f 121 86 115
f 94 88 122
f 122 86 94
f 119 120 85
f 85 118 119
f 119 118 152
f 155 120 154
f 181 155 154
f 154 152 181
f 154 119 152
f 120 119 154
f 126 127 94
f 115 127 126
f 94 121 126
f 126 121 115
f 128 157 158
f 157 161 158
f 158 159 128
f 158 161 159
f 162 165 164
f 162 156 165
f 131 156 162
f 164 132 162
f 162 132 131
f 165 156 186
f 185 184 186
f 160 185 186
f 186 156 160
f 186 184 191
f 191 165 186
f 170 169 139
f 170 190 169
f 107 76 106
f 182 202 203
f 203 183 182
f 203 199 183
f 198 202 182
f 182 176 198
f 198 176 175
f 97 129 123
f 123 129 156
f 90 97 123
f 123 124 90
f 123 156 131
f 30 55 56
f 29 55 30
f 58 89 60
f 88 89 58
f 17 15 32
f 32 33 17
f 36 37 18
f 63 37 36
f 18 35 36
f 36 35 63
f 77 108 80
f 80 108 78
f 50 77 80
f 80 78 50
f 77 48 49
f 48 25 49
f 49 25 47
f 47 76 49
f 49 76 77
f 194 172 175
f 175 174 194
f 194 174 172
f 175 172 195
f 172 193 195
f 144 145 172
f 144 146 111
f 144 172 146
f 111 109 144
f 109 145 144
f 21 23 22
f 22 23 9
f 22 8 21
f 22 9 8
f 21 20 44
f 44 23 21
f 19 43 44
f 44 20 19
f 43 71 44
f 44 71 72
f 72 73 44
f 45 23 44
f 44 74 45
f 44 73 74
f 14 15 5
f 14 5 4
f 4 13 14
f 29 30 14
f 14 30 15
f 82 53 52
f 52 53 29
f 74 103 104
f 103 135 104
f 134 103 102
f 134 135 103
f 134 104 135
f 171 163 190
f 190 170 171
f 167 132 166
f 167 163 132
f 167 166 191
f 200 203 191
f 199 203 200
f 200 191 180
f 180 199 200
f 175 195 196
f 196 193 190
f 196 195 193
f 101 70 100
f 100 132 101
f 131 132 100
f 70 71 41
f 41 42 19
f 19 40 41
f 41 71 43
f 43 42 41
f 34 33 59
f 33 58 59
f 59 60 34
f 59 58 60
f 57 58 33
f 33 32 57
f 82 52 51
f 51 79 81
f 81 82 51
f 50 79 51
f 51 26 50
f 51 52 26
f 28 52 29
f 29 14 28
f 28 14 13
f 26 52 28
f 27 26 28
f 28 13 27
f 75 47 45
f 45 74 75
f 74 104 75
f 75 76 47
f 75 106 76
f 163 134 133
f 101 132 133
f 132 163 133
f 133 102 101
f 133 134 102
f 104 134 136
f 141 171 142
f 142 171 170
f 142 170 139
f 139 138 142
f 168 134 163
f 163 171 168
f 168 171 141
f 141 136 168
f 168 136 134
f 192 203 202
f 191 203 192
f 192 167 191
f 139 107 140
f 107 106 140
f 197 198 175
f 175 196 197
f 69 100 70
f 99 100 69
f 70 41 69
f 130 123 131
f 131 100 130
f 124 123 130
f 130 99 124
f 130 100 99
f 61 91 62
f 63 35 62
f 62 35 61
f 65 37 63
f 99 69 98
f 98 69 66
f 67 69 41
f 66 69 67
f 19 37 39
f 39 40 19
f 37 65 39
f 39 65 66
f 66 67 39
f 39 67 41
f 58 57 87
f 87 122 88
f 88 58 87
f 87 57 56
f 56 86 87
f 86 122 87
f 31 32 15
f 31 57 32
f 15 30 31
f 31 30 56
f 56 57 31
f 105 136 141
f 105 75 104
f 106 75 105
f 105 140 106
f 141 142 105
f 105 142 138
f 105 138 139
f 139 140 105
f 190 163 189
f 163 188 189
f 163 167 187
f 187 188 163
f 167 192 187
f 92 91 90
f 92 62 91
f 90 124 92
f 124 99 92
f 66 65 93
f 62 92 93
f 63 62 93
f 93 65 63
f 93 98 66
f 68 41 40
f 40 39 68
f 68 39 41
f 104 136 137
f 137 105 104
f 136 105 137
f 204 189 188
f 202 198 204
f 188 187 204
f 204 192 202
f 204 187 192
f 99 98 125
f 125 92 99
f 98 93 125
f 125 93 92
f 190 189 205
f 189 204 205
f 205 196 190
f 205 197 196
f 198 197 205
f 205 204 198

