# https://github.com/mikedh/trimesh
v -0.00003164 -0.01285869 -0.05296561
v 0.00019268 0.00596734 0.04387909
v -0.00237890 -0.02772071 0.00248196
v -0.02323400 0.01564549 0.00256459
v 0.02696931 0.00921850 0.00624433
v -0.02464087 -0.01256601 0.02517189
v 0.02041353 -0.01735293 0.02767830
v 0.00406733 0.02906739 0.01940989
v -0.01972836 0.01570923 0.02993131
v 0.02141103 0.01252182 0.03106058
v -0.00314576 -0.01986809 0.03658570
v 0.00053771 0.01234230 -0.05433775
v 0.02125535 -0.01823961 0.00442650
v -0.02721244 -0.00759945 0.00272985
v -0.00682437 0.02710858 0.00307138
v 0.00564718 -0.02837558 0.02153621
v 0.01333883 0.02438479 0.00328622
v -0.01604974 -0.00362967 0.03941162
v -0.01286122 -0.02621973 0.01880394
v 0.01597382 -0.00378614 0.03959891
v -0.02909787 0.00432148 0.01636363
v 0.02892970 -0.00656209 0.01569709
v 0.00065394 0.02156248 0.03526915
v 0.01326636 -0.00126788 -0.05151835
v -0.01223773 -0.00022486 -0.05396717
v -0.01233076 0.02661018 0.01850648
v -0.01754886 -0.02182110 0.00263620
v 0.02133607 0.02039183 0.01725052
v 0.00214439 -0.00124043 -0.06294119
v 0.02617939 -0.00084213 0.02836687
v -0.02537890 0.00297697 0.02983767
v -0.01228464 0.01007621 0.03977519
v -0.00320918 -0.00816159 0.04320153
v 0.01115933 -0.02718175 0.00958805
v -0.02420843 0.01651478 0.01704119
v 0.01107285 -0.01579979 0.03743954
v 0.01064041 0.01238273 0.03963747
v 0.01318315 0.02379947 0.02686302
v -0.01533477 -0.01695885 0.03354496
v 0.02794374 0.00841875 0.01889759
v -0.02322247 -0.01818166 0.01394536
v 0.02012524 -0.02164145 0.01717890
v -0.01098732 0.02275052 0.03009657
v -0.02755839 0.00541099 0.00234975
v 0.00304101 0.02882978 0.00734605
v -0.01681083 0.02373572 0.00916389
v 0.01040401 -0.02355389 0.02967241
v -0.00313999 -0.02936658 0.01578523
v -0.02850976 -0.00768637 0.01668313
v 0.00997891 0.00860940 -0.05126295
v -0.00314576 -0.02687460 0.02679141
v 0.02146868 0.01884449 0.00624984
v 0.00662737 -0.00198380 0.04365324
v 0.01219719 0.02704483 0.01306398
v -0.00251151 0.02708540 0.02686854
v 0.02857222 -0.00066248 0.00692740
v -0.00835232 0.00085589 0.04321806
v -0.01193292 -0.02640518 0.00902618
v 0.01736916 0.00568917 0.03813362
v 0.02136490 -0.00873532 0.03341826
v -0.00841212 0.00893878 -0.05431772
v 0.02687129 -0.01053186 0.00730198
v -0.00461605 0.02918909 0.01291525
v 0.02557974 -0.01422926 0.01994422
v -0.00877089 -0.00891797 -0.05365669
v -0.01942277 -0.02021580 0.02384982
v 0.00797056 -0.00869447 -0.05496874
v -0.00171006 0.01448063 0.04067860
v -0.02564413 0.01052824 0.02463204
v -0.02149848 -0.00943076 0.03271316
v -0.01010514 -0.01229363 0.03976417
v -0.01129868 -0.02394797 0.02792618
v -0.02773136 -0.00354853 0.02433458
v -0.02659549 0.01197706 0.00997916
v 0.01160330 0.01913425 0.03428311
v -0.01954962 0.00389842 0.03704843
v -0.02347616 -0.01557957 0.00278493
v -0.00848494 0.01793463 0.03674546
v 0.00281614 -0.01514492 0.04013875
v 0.00597583 -0.02708323 0.00261967
v -0.01967070 0.02028172 0.02285827
v 0.02437468 0.01494425 0.02245064
v 0.01403073 -0.02558804 0.02081458
v 0.02549325 0.01478778 0.01179700
v -0.00545224 -0.00104830 -0.06108829
v 0.02620245 0.00675550 0.02657658
v 0.02538370 -0.00947712 0.02683548
v 0.00319092 -0.02367559 0.03234959
v 0.02877979 0.00009091 0.02121671
v 0.02148598 -0.00123041 0.03512042
v 0.01766898 -0.02316561 0.00887744
v 0.01067500 0.00419978 0.04222100
v 0.02912574 0.00417660 0.01282160
v 0.00267776 -0.02933760 0.01105885
v -0.02884994 -0.00390205 0.01022705
v 0.00435562 0.02529465 0.02999191
v 0.01800341 0.01871699 0.02920418
v 0.01080762 -0.00870635 0.04108623
v 0.02408638 -0.01713850 0.01309703
v -0.00037872 0.00532743 -0.06193962
v -0.01826959 -0.02298016 0.01230379
v -0.02676847 -0.01194592 0.01130123
v 0.01110168 0.02721290 0.02002685
v -0.00577499 0.02853422 0.02004889
v -0.01438917 0.02392696 0.00266925
v -0.01091813 0.02717233 0.01035375
v -0.02187326 0.01901255 0.00911982
v -0.02137739 0.00918953 0.03297757
v 0.00477653 0.01721022 0.03861287
v -0.01580757 0.01417928 0.03528568
v 0.01696555 -0.01484936 0.03421150
v -0.02573638 -0.01409018 0.01861114
v -0.02872886 0.00386365 0.00869566
v -0.01034154 -0.02592997 0.00260866
v 0.01764015 0.02325471 0.00919143
v -0.00722222 -0.02778446 0.02181715
v -0.02723550 0.01078903 0.01731111
v 0.00466698 0.01139174 0.04187947
v -0.00126032 -0.00029158 0.04441343
v 0.02274294 0.00643097 0.03256442
v -0.02008007 0.02139442 0.01653991
v -0.02815804 0.00272198 0.02307862
v -0.02182713 -0.00333411 0.03460261
v 0.01923153 0.02091921 0.02324938
v -0.01456792 0.02368356 0.02460450
v 0.01009265 -0.02798150 0.01581277
v -0.02062207 -0.01553900 0.02906647
v 0.01044297 0.00417462 -0.05573493
f 100 128 29
f 12 100 61
f 50 128 12
f 128 100 12
f 1 114 65
f 5 128 50
f 17 12 45
f 50 12 17
f 56 5 93
f 61 100 85
f 85 100 29
f 29 1 85
f 85 1 65
f 21 49 73
f 77 65 27
f 65 114 27
f 67 1 29
f 21 74 113
f 74 44 113
f 14 65 77
f 10 82 97
f 75 10 97
f 37 10 75
f 123 73 70
f 11 33 71
f 50 52 84
f 84 5 50
f 82 40 84
f 93 5 84
f 84 40 93
f 115 52 50
f 50 17 115
f 61 85 25
f 25 85 65
f 25 44 61
f 65 14 25
f 25 14 44
f 57 33 119
f 6 66 127
f 6 112 66
f 127 70 6
f 6 70 73
f 6 73 49
f 49 112 6
f 45 12 15
f 105 106 15
f 15 12 61
f 61 105 15
f 4 105 61
f 61 44 4
f 4 44 74
f 125 121 81
f 69 81 35
f 35 81 121
f 26 121 125
f 125 104 26
f 46 106 105
f 46 26 106
f 121 26 46
f 58 27 114
f 58 114 48
f 27 58 101
f 91 83 126
f 114 1 3
f 1 80 3
f 48 114 3
f 29 128 24
f 24 67 29
f 128 5 24
f 5 56 24
f 34 80 1
f 1 67 34
f 34 67 91
f 91 126 34
f 102 112 49
f 49 14 102
f 102 14 77
f 95 14 49
f 95 49 21
f 21 113 95
f 95 113 44
f 44 14 95
f 120 10 59
f 59 10 37
f 59 90 120
f 20 90 59
f 119 33 53
f 36 88 47
f 86 40 82
f 86 10 120
f 82 10 86
f 36 47 111
f 39 70 127
f 71 70 39
f 39 11 71
f 127 66 39
f 123 70 18
f 18 70 71
f 71 33 18
f 33 57 18
f 33 11 79
f 79 88 36
f 79 11 88
f 28 84 52
f 52 115 28
f 82 84 28
f 54 17 45
f 54 115 17
f 45 8 54
f 54 28 115
f 42 83 91
f 93 40 89
f 40 86 89
f 23 75 96
f 110 78 43
f 78 23 43
f 32 78 110
f 31 108 69
f 31 73 123
f 45 15 63
f 63 15 106
f 63 8 45
f 104 8 63
f 106 26 63
f 63 26 104
f 9 108 110
f 110 43 9
f 69 108 9
f 9 81 69
f 125 81 9
f 9 43 125
f 117 74 21
f 117 35 74
f 69 35 117
f 121 46 107
f 107 35 121
f 105 4 107
f 107 46 105
f 107 4 74
f 74 35 107
f 66 112 41
f 41 101 66
f 41 102 77
f 112 102 41
f 77 27 41
f 27 101 41
f 48 3 94
f 94 3 80
f 80 34 94
f 94 34 126
f 91 67 13
f 20 59 92
f 92 53 20
f 92 59 37
f 16 47 88
f 16 126 83
f 83 47 16
f 48 94 16
f 16 94 126
f 60 90 20
f 20 111 60
f 66 101 19
f 19 101 58
f 19 58 48
f 48 116 19
f 11 39 72
f 72 39 66
f 66 19 72
f 72 19 116
f 98 53 33
f 33 79 98
f 98 79 36
f 20 53 98
f 36 111 98
f 98 111 20
f 97 82 124
f 82 28 124
f 22 56 93
f 93 89 22
f 30 89 86
f 120 90 30
f 30 86 120
f 90 60 30
f 68 23 78
f 78 32 68
f 55 23 96
f 55 43 23
f 96 8 55
f 55 8 104
f 55 104 125
f 125 43 55
f 110 108 76
f 76 32 110
f 123 18 76
f 76 18 57
f 57 32 76
f 76 31 123
f 108 31 76
f 122 31 69
f 122 117 21
f 69 117 122
f 21 73 122
f 73 31 122
f 64 42 99
f 99 22 64
f 99 42 91
f 91 13 99
f 7 60 111
f 7 42 64
f 83 42 7
f 7 47 83
f 7 111 47
f 88 11 51
f 11 72 51
f 51 72 116
f 51 16 88
f 51 116 48
f 48 16 51
f 28 54 103
f 103 124 28
f 103 54 8
f 103 8 96
f 23 68 109
f 37 75 109
f 75 23 109
f 2 32 57
f 2 68 32
f 2 57 119
f 119 53 2
f 53 92 2
f 22 99 62
f 62 24 56
f 56 22 62
f 62 99 13
f 67 24 62
f 62 13 67
f 87 7 64
f 60 7 87
f 87 30 60
f 64 22 87
f 87 22 89
f 89 30 87
f 38 103 96
f 38 75 97
f 96 75 38
f 97 124 38
f 124 103 38
f 118 109 68
f 68 2 118
f 37 109 118
f 118 92 37
f 118 2 92

