# https://github.com/mikedh/trimesh
v -0.03134048 -0.00059028 -0.05770524
v 0.01913999 0.00039771 0.05901747
v 0.03169748 -0.00059166 -0.05150280
v -0.02995004 0.01095137 0.02493141
v 0.00177793 -0.03145198 0.01896254
v 0.01861870 0.02594699 0.01657508
v -0.00061582 0.03154195 -0.04791674
v -0.00061364 -0.03174647 -0.04553190
v -0.01790337 -0.00712012 0.05769909
v 0.02995815 -0.00987997 0.02613052
v -0.00658494 0.03008517 0.03539190
v -0.02515015 -0.01917205 0.02971067
v -0.00007855 0.01916124 0.05901386
v 0.01988993 0.02111467 -0.06031475
v 0.02026370 -0.02266332 -0.05925137
v -0.01850989 -0.02204370 -0.06022051
v -0.02105886 0.02223120 -0.05883617
v 0.02760225 0.01346408 0.03530020
v 0.00388853 -0.01795632 0.05902419
v 0.01687572 -0.02519735 0.03524245
v -0.00897387 -0.02888999 0.03540997
v -0.00007855 0.03175122 0.01723122
v 0.01436273 0.02750023 0.03512757
v -0.01581151 0.01113959 0.05814891
v -0.01804590 0.02636040 0.02253550
v -0.03108092 -0.00368905 0.03392142
v 0.00297244 -0.02567551 -0.06078333
v 0.01491399 0.02791656 -0.04672670
v 0.00535596 0.02567896 -0.06100675
v 0.02881465 0.01348901 0.02015594
v -0.01255461 -0.02896611 0.02135446
v 0.02446703 -0.00895202 -0.06082749
v 0.01328224 0.01336100 0.05907692
v -0.02393665 0.02034682 0.03395012
v 0.02446703 0.00775919 -0.06093623
v -0.02845909 -0.01386649 -0.05508624
v -0.00839984 0.02747646 -0.06046501
v 0.03084663 0.00060091 0.03468085
v 0.00416596 -0.03036801 0.03449321
v 0.01130840 -0.03011145 -0.05150280
v -0.02894697 0.01254223 -0.05507775
v -0.00897572 -0.03037745 -0.05747483
v -0.00838925 -0.01672439 0.05779916
v 0.01449117 -0.01098754 0.05907043
v 0.02884055 -0.01353822 -0.05030878
v 0.00416564 0.03165457 0.02971188
v 0.01470362 -0.02768012 0.02373652
v 0.02368239 0.02128408 0.02732464
v 0.02520353 -0.01691652 0.03526608
v -0.02991434 0.00732781 0.03515026
v -0.01588035 -0.02767044 -0.05031043
v 0.02748608 0.01558391 -0.05508683
v -0.01766486 -0.02608431 0.02971067
v -0.01612579 0.02723352 0.03340303
v -0.01491914 0.02776085 -0.05269075
v -0.00658572 0.03129487 0.02493141
v 0.02215968 -0.02218125 0.02732051
v -0.02449627 0.00537275 -0.06106705
v -0.00419729 -0.03118553 0.02732210
v 0.01013730 0.03027060 0.01657508
v -0.02449627 -0.00775574 -0.06094513
v 0.02858458 -0.00059028 -0.06041459
v 0.01491399 0.02777472 -0.05628085
v -0.03005026 -0.01006002 0.02732210
v 0.01592272 0.02771448 0.02613102
v -0.02487580 0.02002178 0.02493141
v -0.01817547 0.00179560 0.05911069
v -0.00061582 0.03121386 -0.05743804
v 0.01252491 -0.02686566 -0.05977762
v -0.00061364 -0.03175717 -0.05508624
v -0.02091180 0.01373449 -0.06106013
v 0.02175680 0.02296322 -0.04911475
v -0.00848065 0.01677503 0.05900431
v -0.03171958 0.00179662 0.02731842
v 0.02637807 -0.01690708 -0.05789103
v -0.02755014 -0.01327337 0.03517667
v 0.02999102 -0.00776308 0.03420338
v -0.02405486 -0.02082212 -0.05389195
v 0.03107867 0.00616879 -0.05628085
v 0.01133180 -0.02912017 0.03090450
v 0.02135759 0.02257360 0.03488730
v 0.00475989 -0.03104770 0.02669751
v 0.01803109 -0.02636910 -0.05269682
v 0.03149572 -0.00178869 0.02732051
v 0.00774815 0.03048778 -0.05508683
v 0.02417742 0.02068680 0.01776870
v 0.03029720 0.00896131 0.02971188
v -0.01374898 0.02209624 -0.06102916
v -0.00658655 -0.03128192 -0.05031043
v 0.00739882 0.01802849 0.05801295
v -0.02210663 -0.01492119 -0.06080310
v 0.03043442 -0.00895511 -0.05628085
v 0.00655440 -0.03114719 -0.05715206
v -0.01135933 -0.02328293 -0.06080706
v 0.00535997 0.03149108 0.02254318
v -0.00778246 0.03049491 -0.05388425
v 0.01799595 0.00740717 0.05795683
v -0.00419651 -0.02567551 -0.06077443
v -0.02741837 0.01420963 0.03499164
v -0.02506575 0.01908807 -0.05388425
v -0.00520290 -0.03112502 0.02015641
v 0.02326608 0.01492465 -0.06076818
v -0.03116084 0.00529218 -0.05388425
v -0.02121445 -0.02240807 0.03449358
v 0.01252491 0.02328639 -0.06095567
v -0.02076913 0.02428656 0.02851192
v -0.01570668 -0.02756662 -0.05718580
v -0.01335786 -0.01218584 0.05905691
v 0.02641866 -0.01696242 0.02851751
v -0.03041101 -0.00776124 -0.05747483
v -0.01363246 0.02890105 0.02731842
v 0.01968773 -0.01611134 -0.06083408
v -0.00180686 0.02567896 -0.06105091
v 0.02767710 0.01589576 0.02613102
v 0.01103829 0.02997345 0.02971188
v 0.00058354 0.03101028 0.03504231
v -0.02043248 0.02398987 -0.05269075
v 0.00894410 0.03027806 -0.04672670
v 0.02071868 0.02427102 0.02254318
v 0.02351497 0.02108905 -0.05508683
v -0.00300423 -0.03046519 0.03449358
v 0.00964016 -0.01557313 0.05901319
v 0.02189977 -0.02190711 0.03348750
v -0.02569110 -0.00178657 -0.06097050
v -0.02640187 0.01110266 -0.06051181
v 0.02992961 0.00657300 0.03523396
v 0.00836515 0.02986759 0.03510009
v 0.01800624 -0.00624233 0.05801116
f 103 1 74
f 74 4 103
f 78 16 107
f 25 54 111
f 4 99 66
f 51 53 78
f 78 107 51
f 51 31 53
f 16 110 91
f 36 16 78
f 36 110 16
f 36 64 110
f 78 53 12
f 12 36 78
f 64 36 12
f 110 64 26
f 74 1 26
f 1 110 26
f 92 79 3
f 47 83 57
f 53 31 21
f 3 79 84
f 84 92 3
f 10 92 84
f 85 63 68
f 68 63 29
f 120 63 72
f 71 113 58
f 71 88 113
f 113 88 37
f 68 29 37
f 37 29 113
f 50 4 74
f 50 99 4
f 74 26 50
f 50 24 99
f 34 66 99
f 99 24 34
f 5 93 82
f 58 112 27
f 27 93 98
f 61 91 110
f 16 91 94
f 91 61 94
f 94 27 98
f 58 27 94
f 94 61 58
f 104 12 53
f 53 21 104
f 64 12 76
f 76 26 64
f 12 104 76
f 76 104 108
f 45 92 10
f 15 112 32
f 40 93 83
f 83 47 40
f 82 93 40
f 126 2 38
f 128 2 44
f 44 49 128
f 7 56 22
f 95 85 7
f 7 85 68
f 102 52 79
f 114 52 120
f 18 114 81
f 63 85 118
f 118 85 95
f 95 60 118
f 119 72 6
f 9 76 108
f 26 76 9
f 41 103 4
f 4 66 41
f 1 103 41
f 68 37 96
f 96 7 68
f 111 56 96
f 56 7 96
f 66 34 106
f 25 117 106
f 106 117 66
f 106 54 25
f 106 34 54
f 59 21 31
f 59 5 82
f 82 39 59
f 31 51 42
f 42 89 31
f 42 51 107
f 70 89 42
f 42 93 70
f 98 93 42
f 42 107 16
f 16 94 42
f 42 94 98
f 58 61 124
f 124 110 1
f 124 61 110
f 108 104 43
f 43 104 21
f 11 13 116
f 116 56 11
f 11 111 54
f 11 56 111
f 67 9 108
f 67 108 44
f 24 50 67
f 67 50 26
f 26 9 67
f 109 45 10
f 83 93 69
f 69 15 83
f 93 27 69
f 69 27 112
f 112 15 69
f 83 15 75
f 57 83 75
f 92 45 75
f 75 109 57
f 45 109 75
f 75 15 32
f 123 47 57
f 123 20 47
f 57 109 123
f 123 109 49
f 123 49 44
f 123 44 122
f 122 20 123
f 47 20 80
f 20 39 80
f 80 39 82
f 82 40 80
f 80 40 47
f 77 128 49
f 77 38 2
f 2 128 77
f 77 109 10
f 49 109 77
f 10 84 77
f 84 38 77
f 62 102 79
f 79 92 62
f 62 75 32
f 92 75 62
f 113 29 35
f 35 62 32
f 102 62 35
f 32 112 35
f 58 113 35
f 35 112 58
f 14 63 120
f 120 52 14
f 52 102 14
f 86 114 120
f 87 84 79
f 87 18 126
f 114 18 87
f 126 38 87
f 87 38 84
f 79 52 30
f 52 114 30
f 30 87 79
f 114 87 30
f 33 18 81
f 33 23 90
f 81 23 33
f 90 13 33
f 44 2 33
f 33 67 44
f 13 67 33
f 90 23 127
f 127 13 90
f 116 13 127
f 28 72 63
f 28 6 72
f 63 118 28
f 28 118 60
f 6 28 65
f 119 6 65
f 65 81 119
f 65 23 81
f 66 117 100
f 100 41 66
f 55 96 37
f 111 96 55
f 25 111 55
f 55 117 25
f 31 89 101
f 101 59 31
f 89 59 101
f 21 59 121
f 121 59 39
f 121 43 21
f 8 89 70
f 8 59 89
f 5 59 8
f 70 93 8
f 93 5 8
f 24 67 73
f 73 67 13
f 54 34 73
f 73 34 24
f 73 11 54
f 13 11 73
f 105 14 102
f 105 35 29
f 102 35 105
f 105 29 63
f 63 14 105
f 81 114 48
f 114 86 48
f 119 81 48
f 48 72 119
f 120 72 48
f 48 86 120
f 97 33 2
f 18 33 97
f 97 2 126
f 126 18 97
f 116 127 46
f 95 7 46
f 46 7 22
f 22 56 46
f 46 56 116
f 17 100 117
f 17 55 37
f 117 55 17
f 17 37 88
f 41 100 17
f 19 121 39
f 43 121 19
f 19 20 122
f 19 39 20
f 108 43 19
f 122 44 19
f 44 108 19
f 115 60 95
f 95 46 115
f 115 28 60
f 115 65 28
f 115 46 127
f 115 127 23
f 23 65 115
f 1 41 125
f 41 17 125
f 58 124 125
f 125 124 1
f 125 71 58
f 88 71 125
f 125 17 88

