# https://github.com/mikedh/trimesh
v 0.00045629 0.02159588 0.05847127
v -0.00167600 -0.02167762 0.04426574
v 0.02228849 0.00107705 0.04397247
v -0.02134835 0.00367203 0.04414476
v 0.01430094 -0.01347427 0.06053958
v -0.01469545 -0.01132729 0.06030433
v 0.01651474 0.00994650 0.06089057
v 0.01271957 0.01851156 0.04420172
v -0.01663551 0.01260219 0.05981005
v -0.00999715 0.01913061 0.04391663
v 0.01456446 -0.01529135 0.04365937
v -0.01713106 -0.01229393 0.04408493
v -0.00122600 -0.01971551 0.06025275
v 0.02119811 -0.00231948 0.05938252
v -0.02111422 -0.00006958 0.05806404
v 0.00091530 0.02174494 0.04365448
v 0.00900720 -0.01947562 0.05303502
v -0.01100413 -0.01834555 0.05351118
v 0.01098970 0.01847142 0.05964751
v 0.01884471 -0.01076795 0.05193828
v -0.00937296 0.01922867 0.05901256
v 0.01823584 0.01252583 0.05212140
v -0.01732477 0.01343837 0.04433599
v 0.01926034 0.00984772 0.04357643
v -0.01061681 -0.01845611 0.04392192
v 0.00708970 -0.02000624 0.04360618
v 0.01991816 -0.00879290 0.04372730
v -0.02118457 -0.00462131 0.04546786
v 0.02145747 0.00450019 0.05487000
v 0.00812849 -0.00889008 0.06097640
v 0.00809933 -0.01792054 0.06040484
v 0.01271583 0.01805058 0.05240278
v -0.00427723 -0.02100670 0.05290027
v -0.02122162 0.00381582 0.05214802
v -0.01701944 -0.01293751 0.05381647
v -0.00986411 -0.01713832 0.06017801
v -0.02012304 0.00666296 0.05840960
v 0.00415447 0.02165733 0.05280949
v -0.01952680 -0.00640346 0.05976593
v -0.00427093 0.02145787 0.05374629
v 0.01941551 -0.00872540 0.05942699
v 0.02167340 -0.00405286 0.04790987
v 0.01944393 0.00401576 0.06075280
v -0.01830150 0.01155142 0.05400081
v -0.00463334 0.02158284 0.04623943
v 0.00714453 0.02074491 0.04351120
v -0.01244215 0.01785820 0.05404320
v 0.00372332 -0.02104162 0.05540016
v 0.02156580 -0.00291321 0.05347174
v -0.02070885 -0.00504125 0.05442732
v 0.02149706 0.00573066 0.04956021
v 0.01526890 0.01513697 0.05939053
v 0.01656070 0.01474560 0.04367999
v 0.01226347 -0.01751126 0.05680576
v 0.00566883 0.02080469 0.05935880
v -0.00411875 0.02000714 0.06055646
v -0.02015156 0.00873421 0.04477369
v 0.01333682 -0.01702257 0.05176754
v -0.00624112 -0.02014088 0.05746250
v -0.01214381 0.01537454 0.06056213
v 0.01826075 -0.01198690 0.04709236
v -0.00624112 -0.02025314 0.04382580
v -0.01385766 -0.01582832 0.05828810
v 0.02146648 0.00586738 0.04385437
v 0.00293964 -0.02159286 0.04445108
v 0.00326382 -0.02019719 0.06001223
v 0.01978444 0.00857081 0.05811752
v -0.01357890 0.01647239 0.04385288
v 0.01099030 -0.01877301 0.04516911
v -0.01875636 0.00276640 0.06036218
v -0.01938449 -0.00817464 0.04396570
v 0.02146336 -0.00428531 0.04374422
v 0.01471875 -0.01599460 0.04765650
v -0.01814057 -0.01066622 0.05828810
v -0.01680634 0.00763445 0.06045816
v 0.00007970 -0.02138595 0.05395298
v 0.00467260 0.02176559 0.04629170
v -0.00632572 0.02065059 0.05718466
v -0.02165961 0.00002432 0.04516890
v 0.02142728 0.00204945 0.05826899
v 0.00742301 0.01794962 0.06085265
v 0.01867309 -0.00006746 0.06076622
v -0.01870630 -0.00288761 0.06031643
v -0.01802406 -0.01185333 0.05052166
v 0.02067166 -0.00569550 0.05798214
v 0.00863030 -0.01944863 0.05729181
v -0.01217294 -0.01797219 0.04698895
v -0.00655297 -0.01782379 0.06031143
v 0.01352722 0.01268491 0.06090425
v 0.01637509 -0.01083944 0.06057563
v 0.01300148 -0.01639934 0.05979277
v 0.01792309 0.01194887 0.05875197
v -0.00276612 0.02105688 0.04363881
v -0.02106307 0.00369697 0.05538048
v 0.01655347 -0.01343652 0.05828810
v 0.01709905 -0.01338206 0.04392178
v 0.01836210 -0.01125514 0.05503396
v -0.01842929 0.01051404 0.05826873
v -0.00091523 0.02207436 0.04614759
v -0.01467300 0.01545938 0.05877829
v 0.00597649 -0.02069465 0.05336577
v -0.00105444 -0.02113641 0.05755391
v -0.00623229 0.02076398 0.04377342
v 0.00993401 0.01950384 0.04355691
v -0.01333093 -0.01717801 0.04428971
v -0.00422060 -0.01992342 0.05992803
v 0.01226054 0.01603846 0.06082246
v 0.01924058 -0.00597736 0.06055484
v 0.00264380 0.02087256 0.06031213
v -0.02123723 -0.00171554 0.05562603
v -0.02094429 0.00284741 0.05826873
v -0.01501647 -0.01506738 0.05384592
v 0.01342631 -0.01072828 0.06081298
v 0.00367824 0.02094642 0.04348125
v -0.01937269 -0.00006958 0.06028511
v 0.02065227 0.00597783 0.05874630
v -0.00244374 0.02141346 0.05880332
v -0.02091789 -0.00280322 0.05858545
v -0.01574621 -0.01470278 0.04424763
v -0.00754794 0.01827627 0.06078298
v -0.01799826 -0.00861630 0.06009854
v 0.01899809 0.00670750 0.06076338
v -0.01765012 -0.01266045 0.04671488
v 0.00658745 -0.02012103 0.05887570
v 0.00148122 -0.02107616 0.05828810
v 0.01902240 0.01208811 0.04493016
v -0.01188547 0.01766750 0.05932294
v 0.00823968 0.01997320 0.05941221
f 2 26 65
f 65 76 2
f 68 4 23
f 79 4 71
f 71 4 68
f 68 114 71
f 71 114 26
f 105 87 63
f 26 114 24
f 30 120 75
f 75 9 70
f 21 120 56
f 56 81 109
f 120 81 56
f 8 32 52
f 108 113 90
f 67 126 22
f 67 51 126
f 76 65 48
f 44 23 57
f 57 23 4
f 123 35 84
f 119 105 123
f 62 71 26
f 62 26 2
f 2 33 62
f 62 33 87
f 63 87 18
f 87 33 18
f 64 24 126
f 64 51 3
f 126 51 64
f 44 57 37
f 70 9 37
f 100 23 44
f 60 75 120
f 9 75 60
f 122 52 7
f 128 32 8
f 8 77 128
f 77 38 128
f 13 106 66
f 88 106 13
f 30 88 13
f 31 13 66
f 31 113 30
f 30 13 31
f 86 91 124
f 124 31 66
f 91 31 124
f 95 73 61
f 61 73 96
f 96 27 61
f 61 27 20
f 95 61 97
f 97 61 20
f 113 108 82
f 30 113 82
f 82 7 30
f 95 97 41
f 41 108 90
f 85 14 41
f 41 14 108
f 41 97 20
f 41 91 95
f 90 91 41
f 20 27 41
f 41 42 85
f 41 27 42
f 92 52 122
f 22 52 92
f 92 67 22
f 36 121 63
f 36 106 88
f 6 88 30
f 6 36 88
f 121 36 6
f 84 35 74
f 74 35 63
f 63 121 74
f 95 91 54
f 54 91 86
f 86 17 54
f 34 57 4
f 34 4 79
f 94 37 34
f 34 37 57
f 35 123 112
f 112 123 105
f 63 35 112
f 112 105 63
f 71 62 25
f 25 105 119
f 87 105 25
f 25 62 87
f 2 76 102
f 102 33 2
f 26 24 11
f 24 27 11
f 11 27 96
f 53 104 8
f 24 104 53
f 126 24 53
f 22 126 53
f 8 52 53
f 53 52 22
f 46 24 114
f 46 104 24
f 46 77 8
f 8 104 46
f 72 27 24
f 24 64 72
f 72 64 3
f 3 42 72
f 42 27 72
f 21 45 10
f 99 38 77
f 21 56 117
f 117 56 109
f 44 37 98
f 98 37 9
f 98 100 44
f 9 100 98
f 39 74 121
f 30 7 89
f 89 120 30
f 89 81 120
f 19 52 32
f 32 128 19
f 19 128 109
f 109 128 55
f 55 128 38
f 5 91 90
f 5 31 91
f 90 113 5
f 113 31 5
f 101 48 65
f 101 124 48
f 101 17 86
f 86 124 101
f 108 14 43
f 43 82 108
f 122 7 43
f 7 82 43
f 49 42 3
f 3 80 49
f 49 80 14
f 85 42 49
f 49 14 85
f 121 6 83
f 83 39 121
f 83 6 30
f 30 75 83
f 83 75 70
f 69 54 17
f 26 11 69
f 17 101 69
f 96 73 69
f 69 11 96
f 69 65 26
f 69 101 65
f 12 25 119
f 71 25 12
f 119 123 12
f 12 123 71
f 66 106 125
f 106 102 125
f 125 124 66
f 48 124 125
f 76 48 125
f 125 102 76
f 33 102 59
f 59 102 106
f 59 18 33
f 63 18 59
f 59 36 63
f 106 36 59
f 21 10 47
f 47 10 68
f 68 23 47
f 23 100 47
f 103 10 45
f 68 10 103
f 78 45 21
f 21 117 78
f 38 99 1
f 99 117 1
f 1 55 38
f 1 117 109
f 109 55 1
f 111 37 94
f 84 74 50
f 74 39 50
f 107 7 52
f 52 19 107
f 107 89 7
f 81 89 107
f 109 81 107
f 107 19 109
f 51 67 116
f 116 92 122
f 67 92 116
f 122 43 116
f 116 43 14
f 14 80 116
f 115 83 70
f 39 83 115
f 70 37 115
f 37 111 115
f 58 69 73
f 54 69 58
f 58 73 95
f 95 54 58
f 21 47 127
f 127 47 100
f 127 120 21
f 127 60 120
f 127 100 9
f 9 60 127
f 93 114 68
f 68 103 93
f 45 99 16
f 16 103 45
f 16 93 103
f 114 93 16
f 16 46 114
f 77 46 16
f 16 99 77
f 45 78 40
f 40 78 117
f 40 99 45
f 40 117 99
f 15 111 94
f 94 34 15
f 15 34 79
f 79 110 15
f 118 50 39
f 118 15 110
f 39 115 118
f 118 115 111
f 111 15 118
f 84 50 28
f 28 123 84
f 71 123 28
f 79 71 28
f 28 110 79
f 28 118 110
f 50 118 28
f 51 116 29
f 29 116 80
f 3 51 29
f 29 80 3

