# https://github.com/mikedh/trimesh
v 0.00888563 -0.05796786 -0.04938693
v -0.00660815 -0.23326081 0.07553262
v 0.01318495 -0.22143887 -0.09192988
v -0.07843132 -0.21735761 -0.01796432
v 0.08072604 -0.22157095 0.00184641
v -0.06533016 -0.22455679 0.04622594
v 0.05402564 -0.22815572 0.05885609
v -0.04270576 -0.21388656 -0.06787688
v 0.05924536 -0.21375649 -0.05323635
v -0.06890944 -0.23453523 0.01154103
v 0.03073020 -0.23267831 -0.06221903
v -0.03853711 -0.21796165 0.06778044
v 0.06085840 -0.23625492 0.02614184
v -0.05879097 -0.23145187 -0.04315645
v 0.02522372 -0.21986307 0.07485591
v -0.01316698 -0.23089144 -0.07290653
v 0.06694765 -0.23287983 -0.02692508
v -0.03358569 -0.23361972 -0.05754974
v 0.06801029 -0.21834412 0.04042615
v -0.04637010 -0.23470700 0.05418726
v 0.00956928 -0.23169562 -0.07194303
v -0.07431487 -0.21799557 0.02661543
v 0.04916460 -0.23341340 -0.05034568
v -0.07979947 -0.21784548 0.00364825
v -0.02639067 -0.23506016 0.06662390
v 0.07714885 -0.21627890 -0.01912310
v 0.03295687 -0.23524056 0.06303670
v -0.07061591 -0.21443413 -0.03706171
v 0.07758158 -0.22455709 0.02343967
v 0.01314406 -0.23533653 0.07022593
v -0.01921073 -0.21766596 0.07523527
v -0.05809231 -0.21418171 -0.05503462
v 0.00598724 -0.21864310 0.07804644
v 0.07021737 -0.21555656 -0.03750061
v -0.06927297 -0.23111600 -0.02692508
v 0.07077995 -0.23334718 -0.00892976
v -0.06600114 -0.23347098 0.03061844
v -0.07469574 -0.23116493 -0.00713616
v 0.04148737 -0.21800220 0.06599439
v 0.05994955 -0.23381069 0.04323295
v -0.05294417 -0.21961464 0.05887712
v -0.05030842 -0.22879940 -0.05811302
v 0.06357906 -0.22981235 -0.04294992
v -0.03132872 -0.22747029 -0.07123151
v 0.01199235 -0.06076245 -0.06373250
v -0.05633709 -0.23450644 0.04274379
v -0.04043750 -0.23117647 0.06605635
v 0.04363485 -0.22945695 -0.06290135
v -0.07793918 -0.22603293 0.01624033
v 0.06091360 -0.22001395 0.05138407
v 0.07383972 -0.23294893 0.00365510
v -0.00660779 -0.22095516 0.07923803
v 0.04377212 -0.23511581 0.05580299
v 0.07183781 -0.22925802 0.03369028
v -0.06568598 -0.22095419 -0.04667080
v 0.02577700 -0.23233955 0.07259763
v 0.02173264 -0.23092310 -0.07115740
v 0.01515416 -0.22652960 0.07864269
v -0.03153773 -0.22635698 0.07321756
v -0.01896013 -0.23119235 0.07530593
v 0.07957189 -0.22455709 -0.01075816
v 0.05730729 -0.22549644 -0.05488205
v -0.01021324 -0.23691612 0.06483030
v -0.07774001 -0.22936870 0.00392940
v -0.04185617 -0.22736281 -0.06573212
v 0.00418132 -0.23063365 0.07815623
v 0.07384205 -0.22457503 -0.03061847
v 0.03600997 -0.22765408 0.07129882
v 0.07922181 -0.21901228 0.01273930
v 0.07077995 -0.23332895 0.02163560
v -0.07056682 -0.21994436 0.03703408
v -0.05626946 -0.22936870 0.05452088
v -0.06960721 -0.22634842 -0.03774010
v 0.01022701 -0.21451336 -0.09993369
v 0.07530643 -0.22908178 -0.02073053
v -0.07971750 -0.21608192 -0.00715089
v 0.00324866 -0.05623122 -0.05902852
v -0.00118538 -0.23122443 -0.07360322
v -0.07594878 -0.22031048 -0.02795444
v -0.07472604 -0.22958152 -0.01794224
v -0.05101302 -0.21735761 -0.06230734
v -0.07396515 -0.22882067 0.02571992
v 0.07348900 -0.21825145 0.03154051
v -0.05875487 -0.22441056 -0.05388692
v 0.04997103 -0.21834277 0.06026018
v 0.05264850 -0.23456115 0.05025913
v 0.06453114 -0.22095677 -0.04771415
v -0.02278559 -0.23164189 -0.06835582
v -0.05963804 -0.21835291 0.05125081
v 0.06614006 -0.22687802 0.04576054
v -0.04640869 -0.22275715 0.06522751
v 0.04613121 -0.23053297 0.06368086
v -0.06560730 -0.23126569 0.03961610
v -0.08038747 -0.22455642 -0.00355579
v 0.03332787 -0.21862154 0.07086774
v 0.07775762 -0.22973329 -0.00355555
v -0.02762935 -0.21812651 0.07304919
v -0.04942849 -0.22962070 0.06081041
v -0.05344393 -0.23118605 -0.05037532
v -0.07959076 -0.22390540 -0.01214255
v 0.06847061 -0.22939442 -0.03595830
v 0.01438393 -0.21817608 0.07660194
v 0.07349794 -0.21462855 -0.02969308
v 0.01443037 -0.05760856 -0.05575968
v 0.07952670 -0.21735504 -0.00535183
v -0.03719077 -0.23516092 0.05941984
v -0.06419860 -0.23159391 -0.03414396
v -0.01201510 -0.22781283 0.07856267
v 0.00057172 -0.23518875 0.07201953
v 0.06896226 -0.23321378 -0.01792742
v 0.06537232 -0.23333471 0.03602890
v 0.05083571 -0.22940099 -0.05745210
v 0.05763200 -0.23102771 -0.04807774
v 0.06078919 -0.22891633 0.05123387
v -0.07777526 -0.21815692 0.01565958
v -0.02395077 -0.22411418 0.07660946
v -0.07214624 -0.22686228 0.03300437
v 0.01771260 -0.21477498 -0.09808617
v -0.05238362 -0.23437400 0.04936974
v -0.03363113 -0.23127243 -0.06485756
v 0.06856628 -0.22276178 -0.04148320
v 0.07862784 -0.22676443 0.01624191
v -0.04037398 -0.22095554 -0.06950200
v -0.03361608 -0.23222689 0.06885147
v 0.02036938 -0.23533462 0.06843232
v 0.06187327 -0.23283952 -0.03602650
v 0.07730397 -0.21786134 0.01983373
v 0.00058294 -0.22455707 0.08038530
f 77 32 28
f 77 74 8
f 77 89 1
f 45 74 77
f 81 32 77
f 77 8 81
f 71 89 77
f 77 22 71
f 41 1 89
f 12 1 41
f 52 1 31
f 50 1 85
f 5 69 122
f 13 18 23
f 23 18 11
f 18 21 11
f 74 45 118
f 118 3 74
f 77 28 4
f 4 76 77
f 115 22 77
f 55 28 32
f 33 1 52
f 85 1 39
f 97 1 12
f 97 31 1
f 1 50 104
f 77 1 104
f 104 45 77
f 29 122 69
f 110 13 23
f 74 3 16
f 23 11 48
f 3 118 48
f 21 3 57
f 57 11 21
f 3 48 57
f 57 48 11
f 62 118 87
f 87 121 62
f 62 121 43
f 87 118 9
f 9 118 45
f 94 76 100
f 76 4 100
f 79 4 28
f 28 55 79
f 79 55 73
f 73 100 79
f 79 100 4
f 77 76 24
f 24 115 77
f 24 76 94
f 82 10 37
f 123 8 74
f 123 81 8
f 73 55 84
f 84 42 73
f 32 81 84
f 84 55 32
f 81 123 84
f 102 15 1
f 1 33 102
f 1 15 95
f 95 39 1
f 128 33 52
f 83 104 19
f 19 104 50
f 127 104 83
f 69 104 127
f 83 29 127
f 127 29 69
f 105 69 5
f 105 104 69
f 122 29 54
f 12 41 91
f 78 3 21
f 78 16 3
f 78 88 16
f 78 21 18
f 18 88 78
f 45 104 103
f 23 48 112
f 112 48 118
f 118 62 112
f 80 100 73
f 94 100 80
f 89 71 6
f 6 41 89
f 6 91 41
f 72 91 6
f 22 115 49
f 49 24 94
f 115 24 49
f 66 2 109
f 13 110 36
f 36 51 13
f 110 75 36
f 70 111 13
f 13 51 70
f 70 54 111
f 70 51 122
f 122 54 70
f 67 75 101
f 43 121 101
f 101 121 67
f 101 126 43
f 61 75 67
f 61 105 5
f 114 92 86
f 111 54 114
f 90 29 83
f 90 54 29
f 83 19 90
f 90 114 54
f 90 19 50
f 73 42 99
f 99 14 73
f 18 14 99
f 120 88 18
f 18 99 120
f 120 99 42
f 67 121 34
f 34 103 67
f 34 121 87
f 45 103 34
f 87 9 34
f 34 9 45
f 113 62 43
f 113 112 62
f 23 112 113
f 113 126 23
f 43 126 113
f 35 80 73
f 72 6 93
f 93 82 37
f 10 82 64
f 82 49 64
f 64 49 94
f 94 80 64
f 39 95 68
f 85 39 68
f 68 95 15
f 66 109 30
f 51 36 96
f 96 36 75
f 75 61 96
f 122 51 96
f 5 122 96
f 96 61 5
f 17 75 110
f 17 101 75
f 126 101 17
f 17 110 23
f 23 126 17
f 105 61 26
f 104 105 26
f 26 103 104
f 67 103 26
f 26 61 67
f 92 114 7
f 7 50 85
f 7 90 50
f 114 90 7
f 85 68 7
f 7 68 92
f 40 114 86
f 111 114 40
f 86 13 40
f 13 111 40
f 65 120 42
f 42 84 65
f 65 84 123
f 65 123 74
f 16 88 44
f 88 120 44
f 74 16 44
f 44 65 74
f 120 65 44
f 73 14 107
f 107 35 73
f 10 35 107
f 18 10 107
f 107 14 18
f 38 35 10
f 80 35 38
f 10 64 38
f 38 64 80
f 82 93 117
f 117 93 6
f 117 6 71
f 117 49 82
f 117 71 22
f 22 49 117
f 58 68 15
f 15 102 58
f 58 128 66
f 58 102 33
f 33 128 58
f 66 30 56
f 56 30 125
f 56 58 66
f 68 58 56
f 92 68 56
f 125 27 56
f 56 27 92
f 53 13 86
f 53 27 13
f 86 92 53
f 92 27 53
f 59 60 116
f 52 31 116
f 31 97 116
f 91 59 116
f 116 97 12
f 12 91 116
f 47 59 91
f 25 109 2
f 2 60 25
f 37 10 46
f 46 93 37
f 108 116 60
f 66 128 108
f 108 128 52
f 52 116 108
f 108 2 66
f 108 60 2
f 124 60 59
f 59 47 124
f 124 25 60
f 106 25 124
f 98 91 72
f 98 47 91
f 109 25 63
f 63 25 106
f 63 30 109
f 125 30 63
f 18 13 63
f 63 10 18
f 63 46 10
f 106 46 63
f 13 27 63
f 63 27 125
f 47 98 20
f 20 46 106
f 106 124 20
f 20 124 47
f 93 46 119
f 46 20 119
f 72 93 119
f 119 98 72
f 119 20 98

