# https://github.com/mikedh/trimesh
v 0.11234973 -0.00344897 -0.06852610
v -0.00018282 0.00286965 0.06601346
v 0.13519017 0.00420221 0.06468711
v -0.00284804 0.00001720 -0.05267222
v 0.06683865 0.00420716 0.06375868
v 0.13511887 -0.00138194 -0.00153911
v 0.05856373 -0.00300608 -0.06824467
v -0.00010301 -0.00000651 0.01246230
v 0.10269693 0.00464536 0.06375868
v 0.13419946 -0.00237371 -0.04522773
v 0.13534978 0.00113294 0.03478468
v -0.00076583 -0.00039668 -0.02453594
v 0.03924001 0.00285727 0.06731328
v -0.00044883 0.00102524 0.04030890
v 0.01578371 -0.00146720 -0.06808385
v 0.13373975 -0.00414232 -0.06661639
v 0.02131087 0.00089589 0.06651747
v 0.09442107 -0.00417667 -0.06792974
v 0.04116238 -0.00277279 -0.06793644
v -0.00023852 -0.00005918 -0.06803025
v 0.08752101 0.00426781 0.06613283
v 0.12062607 0.00443059 0.06628536
v -0.00076583 -0.00049201 -0.03832600
v 0.05441594 0.00297982 0.06737296
v 0.13513698 -0.00002013 0.02193240
v 0.13541628 0.00306585 0.04720590
v -0.00146892 -0.00001359 -0.01262878
v -0.00022272 0.00126477 0.05134409
v 0.12328812 -0.00332167 -0.06833178
v 0.13387495 -0.00267983 -0.05626380
v 0.07648155 0.00433342 0.06513807
v 0.00888816 0.00097573 0.06767802
v 0.13514592 -0.00145832 -0.01018973
v 0.13515027 0.00273658 0.05625820
v 0.12752905 0.00489850 0.06375868
v 0.10958662 0.00438665 0.06627210
v -0.00177990 -0.00025931 -0.03143767
v -0.00076583 -0.00045589 -0.04522773
v 0.04752626 0.00293093 0.06737959
v 0.00612981 0.00007404 -0.06805035
v 0.10683323 -0.00344897 -0.06850599
v 0.12891279 -0.00255134 -0.06591953
v 0.04613805 -0.00285450 -0.06809726
v 0.13391551 -0.00429153 -0.06177849
v -0.00296973 0.00147200 -0.06453918
v 0.06957857 0.00299715 0.06735306
v 0.13361806 -0.00419680 -0.05212276
v 0.13304879 0.00479266 0.06099988
v 0.00336843 0.00109085 0.06744591
v 0.11924538 -0.00447627 -0.06841218
v 0.11648960 0.00442069 0.06628536
v 0.07096183 0.00427029 0.06375868
v 0.12412412 0.00275205 0.06585430
v 0.13166553 0.00362784 0.06624557
v 0.06318100 0.00414526 0.06472027
v 0.13513698 0.00276938 0.03807401
v -0.00032912 0.00300272 0.06237927
v 0.13167106 -0.00259634 -0.06453918
v 0.12339259 0.00486508 0.06375868
v 0.13378032 -0.00138549 0.00114858
v 0.10959148 -0.00258095 -0.06819107
v -0.00076583 -0.00047661 -0.04246704
v -0.00039563 0.00108342 0.04306770
v 0.07371504 0.00430619 0.06375868
v 0.13028227 0.00490531 0.06375868
v 0.10760483 0.00274648 0.06722043
v 0.13167106 -0.00371068 -0.06832508
v -0.00288862 -0.00003431 -0.06677721
v 0.00198517 0.00090703 0.06513807
v 0.07234508 0.00420097 0.06595377
v 0.13304879 0.00490716 0.06375868
v 0.13375327 -0.00274496 -0.05990899
v 0.13529658 0.00368602 0.06237927
v 0.04337979 -0.00281957 -0.06805705
v 0.13382088 -0.00382969 -0.06453918
v 0.13221189 -0.00278759 -0.06648909
v 0.13166553 0.00487560 0.06237927
v 0.06545539 0.00418364 0.06513807
v 0.06957857 0.00425234 0.06513807
v 0.12476254 0.00484032 0.06513807
v -0.00199623 -0.00023444 -0.04660808
v 0.12891279 -0.00297174 -0.06769521
v 0.13304879 0.00327381 0.06513807
v 0.10821666 0.00467259 0.06513807
v -0.00076583 -0.00047069 -0.03005733
v -0.00210440 0.00146312 -0.06600663
v 0.13407293 0.00430742 0.06602009
v 0.13166553 0.00485579 0.06513807
v 0.13029192 -0.00270529 -0.06685762
v 0.12476189 -0.00280654 -0.06790963
v 0.00017630 0.00162808 0.06513807
v -0.00031582 0.00232747 0.06375868
v 0.00189207 0.00106114 0.06663021
v 0.13443205 0.00329547 0.06375868
v 0.13526998 0.00426657 0.06099988
v 0.09580020 -0.00420450 -0.06809726
v 0.11234973 -0.00448160 -0.06760141
v 0.13388848 -0.00372371 -0.06315883
v 0.04062327 0.00287275 0.06732654
v 0.07096183 0.00419230 0.06594051
v 0.12614579 0.00488860 0.06375868
v 0.13304879 0.00482237 0.06513807
v 0.13391551 -0.00263542 -0.05488345
v 0.13029192 -0.00251522 -0.06453918
v -0.00076583 -0.00046714 -0.04384739
v -0.00076583 -0.00048549 -0.04108670
v -0.00076583 -0.00049082 -0.03694566
v -0.00076583 -0.00049141 -0.03970635
v -0.00026262 0.00123444 0.04996469
v 0.13304879 0.00487312 0.06237927
v 0.10269693 0.00461627 0.06513807
v 0.06683865 0.00420839 0.06513807
v 0.06957857 0.00425172 0.06375868
v 0.10821235 -0.00256318 -0.06821117
v 0.00475068 0.00008648 -0.06805705
v 0.04889621 0.00294826 0.06737959
v 0.12476254 0.00487746 0.06375868
v 0.12891231 0.00490407 0.06375868
v 0.06819531 0.00422944 0.06375868
v 0.13167106 -0.00451890 -0.06729987
v 0.12200364 -0.00344897 -0.06841889
v 0.13443205 0.00464721 0.06237927
v 0.13443205 0.00463422 0.06375868
v 0.12476254 0.00445968 0.06626546
v 0.00888816 0.00076220 0.06651747
v 0.00061329 -0.00033095 -0.06729987
v 0.12338276 -0.00446857 -0.06841889
v 0.13260399 -0.00431640 -0.06821787
f 34 83 25
f 25 83 53
f 8 85 19
f 120 47 97
f 44 47 120
f 45 119 113
f 113 86 45
f 88 80 124
f 11 34 25
f 54 53 83
f 54 66 53
f 58 76 104
f 76 58 48
f 48 58 104
f 48 86 110
f 89 82 90
f 90 86 89
f 104 76 89
f 26 72 56
f 56 95 26
f 72 95 56
f 26 95 73
f 73 11 26
f 34 11 73
f 18 97 125
f 125 97 47
f 47 60 125
f 85 8 12
f 4 57 45
f 25 60 6
f 6 60 47
f 47 44 6
f 6 11 25
f 50 127 120
f 120 97 50
f 82 89 67
f 67 89 76
f 90 82 67
f 16 76 72
f 79 64 52
f 52 113 79
f 64 86 52
f 86 113 52
f 57 55 5
f 45 57 5
f 5 119 45
f 57 2 78
f 78 55 57
f 102 88 124
f 46 66 124
f 32 66 46
f 40 115 86
f 122 95 72
f 72 76 122
f 76 48 122
f 122 48 110
f 104 89 42
f 42 89 86
f 42 48 104
f 86 48 42
f 83 34 94
f 34 73 94
f 69 8 19
f 19 18 69
f 18 125 69
f 17 60 25
f 17 125 60
f 25 53 17
f 32 125 17
f 17 66 32
f 53 66 17
f 96 97 18
f 96 50 97
f 96 18 19
f 19 74 96
f 43 50 96
f 96 74 43
f 7 50 43
f 1 67 127
f 127 50 1
f 115 40 1
f 128 67 76
f 76 16 128
f 120 127 128
f 127 67 128
f 128 44 120
f 128 16 44
f 112 5 55
f 55 78 112
f 119 5 112
f 79 113 112
f 112 113 119
f 32 39 99
f 99 13 32
f 9 86 64
f 9 59 86
f 111 59 9
f 80 59 84
f 84 59 111
f 88 102 71
f 71 122 110
f 87 54 83
f 87 102 124
f 124 66 87
f 66 54 87
f 24 46 124
f 32 46 24
f 37 27 4
f 37 107 85
f 85 12 37
f 37 12 8
f 8 27 37
f 45 86 68
f 68 4 45
f 68 126 38
f 38 105 68
f 68 106 108
f 68 37 4
f 33 6 44
f 33 10 26
f 26 11 33
f 11 6 33
f 103 72 26
f 26 10 103
f 44 16 98
f 98 33 44
f 10 33 98
f 98 103 10
f 15 7 43
f 43 74 15
f 15 74 19
f 38 126 15
f 15 105 38
f 108 106 15
f 15 23 108
f 107 23 15
f 19 85 15
f 85 107 15
f 50 7 41
f 41 1 50
f 7 15 41
f 115 1 41
f 90 67 29
f 110 86 77
f 77 71 110
f 86 59 117
f 117 59 80
f 80 88 118
f 118 35 80
f 86 35 118
f 118 77 86
f 111 9 31
f 31 64 79
f 31 9 64
f 83 94 3
f 3 87 83
f 3 94 73
f 3 73 95
f 102 87 3
f 116 39 32
f 32 24 116
f 8 69 109
f 49 125 32
f 32 13 49
f 49 13 2
f 37 68 81
f 81 23 107
f 107 37 81
f 108 23 81
f 81 68 108
f 75 16 72
f 72 98 75
f 75 98 16
f 72 103 30
f 30 98 72
f 103 98 30
f 62 15 106
f 105 15 62
f 106 68 62
f 62 68 105
f 115 41 20
f 20 41 15
f 20 15 126
f 126 68 20
f 86 115 20
f 20 68 86
f 67 1 121
f 121 29 67
f 13 99 100
f 2 13 100
f 100 99 39
f 100 78 2
f 100 112 78
f 79 112 100
f 100 31 79
f 111 31 100
f 100 84 111
f 80 84 100
f 101 35 86
f 86 117 101
f 80 35 101
f 101 117 80
f 88 71 65
f 65 118 88
f 71 77 65
f 77 118 65
f 95 122 123
f 123 3 95
f 102 3 123
f 123 71 102
f 122 71 123
f 21 116 36
f 80 21 36
f 69 91 28
f 28 109 69
f 14 27 8
f 4 27 14
f 57 4 92
f 4 109 92
f 92 2 57
f 109 28 92
f 92 91 2
f 92 28 91
f 93 91 69
f 93 69 125
f 125 49 93
f 2 91 93
f 93 49 2
f 29 121 114
f 114 1 40
f 114 121 1
f 39 116 70
f 70 100 39
f 70 116 21
f 70 21 80
f 80 100 70
f 51 116 24
f 51 36 116
f 124 80 51
f 80 36 51
f 8 109 63
f 63 14 8
f 63 109 4
f 4 14 63
f 90 29 61
f 29 114 61
f 61 86 90
f 61 40 86
f 61 114 40
f 22 24 124
f 124 51 22
f 22 51 24

