# https://github.com/mikedh/trimesh
v -0.01181770 -0.02454519 -0.01109373
v -0.01093477 -0.02509101 -0.00978512
v -0.01050714 -0.02438896 -0.01435560
v -0.00821684 -0.02570048 -0.01165494
v -0.01291732 -0.02300801 -0.01378209
v -0.00778690 -0.02489621 -0.01503361
v -0.00930493 -0.02481135 -0.01425987
v -0.01293231 -0.02218446 -0.01586357
v -0.01017749 -0.02351526 -0.01593647
v -0.00560840 -0.02573519 -0.01399287
v -0.00413301 -0.02535910 -0.01586884
v -0.01245857 -0.02193373 -0.01660307
v -0.00673914 -0.02397815 -0.01663469
v -0.00184040 -0.02614215 -0.01432047
v -0.00144965 -0.02498686 -0.01667597
v -0.01322508 -0.02073215 -0.01673832
v -0.00830789 -0.02281514 -0.01680331
v -0.00144965 -0.02483063 -0.01681385
v -0.01322508 -0.02035798 -0.01677696
v -0.01239518 -0.02053156 -0.01680595
v -0.00200868 -0.02397236 -0.01690431
v -0.00144965 -0.02446032 -0.01686655
v -0.02613524 -0.00726563 -0.00794253
v -0.02559058 -0.00726563 -0.01174403
v -0.02577129 -0.00847441 -0.00794253
v -0.02550970 -0.00726563 -0.01224581
v -0.02540987 -0.00907562 -0.00919965
v -0.02545031 -0.00941121 -0.00794253
v -0.02474515 -0.00795750 -0.01496129
v -0.02459477 -0.00929511 -0.01379815
v -0.02433444 -0.01119893 -0.01042042
v -0.02418532 -0.00726563 -0.01651185
v -0.02348270 -0.00982474 -0.01626362
v -0.02334748 -0.01138979 -0.01498523
v -0.02303408 -0.01276557 -0.01335133
v -0.02355346 -0.01325863 -0.00879095
v -0.02371269 -0.01319819 -0.00794253
v -0.01322634 -0.01995303 -0.01680619
v -0.02408675 -0.00726563 -0.01662622
v -0.02272067 -0.01020328 -0.01699856
v -0.02133184 -0.01420656 -0.01584606
v -0.02121685 -0.01528969 -0.01437351
v -0.02116503 -0.01621218 -0.01166246
v -0.02280408 -0.01472666 -0.00810122
v -0.02282809 -0.01472666 -0.00794253
v -0.01498544 -0.01998643 -0.01671487
v -0.01594840 -0.01805238 -0.01680619
v -0.01322634 -0.02279048 -0.01376091
v -0.01669778 -0.02032043 -0.01352686
v -0.02055718 -0.01408568 -0.01675565
v -0.01975599 -0.01582251 -0.01610493
v -0.01843413 -0.01792833 -0.01558098
v -0.01891435 -0.01821462 -0.01403219
v -0.01960939 -0.01834027 -0.01033531
v -0.01617334 -0.01964606 -0.01632213
v -0.01322634 -0.02134312 -0.01663686
v -0.01322634 -0.02275230 -0.01389567
v -0.01803227 -0.02008822 -0.00889734
v -0.01656762 -0.01995780 -0.01513151
v -0.01322634 -0.02195547 -0.01590546
v -0.01322634 -0.02200477 -0.01580528
v -0.01538274 -0.02553216 0.01860357
v -0.01548686 -0.02547673 0.01858655
v -0.01794834 -0.02369391 0.02026034
v -0.01924449 -0.02276226 0.01911706
v -0.01789361 -0.02371358 0.01709432
v -0.01766802 -0.02345250 0.02074546
v -0.02081695 -0.02137999 0.02040503
v -0.02215848 -0.01988865 0.01675105
v -0.01973305 -0.02187711 0.01373822
v -0.01739971 -0.02303228 0.00707426
v -0.01548152 -0.02398180 0.00342029
v -0.01934861 -0.02180200 0.02104050
v -0.02099849 -0.02031066 0.02089298
v -0.02324373 -0.01867625 0.02042205
v -0.02264971 -0.01955783 0.01938940
v -0.02428091 -0.01724034 0.01719645
v -0.02326375 -0.01687555 0.00471393
v -0.02092774 -0.01943087 0.00277630
v -0.01977309 -0.02089539 0.00538345
v -0.01785623 -0.02212746 0.00213515
v -0.02858983 -0.00726404 0.02088163
v -0.02830418 -0.00841742 0.02088163
v -0.02655818 -0.01226024 0.02089582
v -0.02540086 -0.01542354 0.02071141
v -0.02561977 -0.01553620 0.01963905
v -0.02529140 -0.01547719 0.01585742
v -0.02457324 -0.01561309 0.00940055
v -0.02506714 -0.01408777 0.00485294
v -0.02384842 -0.01475297 -0.00105073
v -0.02225993 -0.01688449 -0.00198124
v -0.02098247 -0.01789303 -0.00502811
v -0.01980112 -0.01924847 -0.00456853
v -0.01891344 -0.02066114 -0.00142520
v -0.02901966 -0.00726404 0.02051567
v -0.02827481 -0.00995526 0.02060645
v -0.02674106 -0.01347084 0.02053552
v -0.02737111 -0.01202956 0.01860073
v -0.02634861 -0.01196161 0.00665723
v -0.02625784 -0.01146449 0.00400186
v -0.02479216 -0.01277881 -0.00215146
v -0.02358678 -0.01342256 -0.00794165
v -0.02278987 -0.01478337 -0.00794165
v -0.02158717 -0.01646963 -0.00794165
v -0.01968899 -0.01871738 -0.00794165
v -0.02897161 -0.00726404 0.01816668
v -0.02839494 -0.00890739 0.01683900
v -0.02773152 -0.01016091 0.01435668
v -0.02742050 -0.00931867 0.00707993
v -0.02728968 -0.00819927 0.00261460
v -0.02649945 -0.00910051 -0.00107910
v -0.02561977 -0.01081896 -0.00266494
v -0.02474544 -0.01107825 -0.00794165
v -0.02785833 -0.00726404 0.00594516
v -0.02649678 -0.00726404 -0.00541110
v -0.02766211 -0.00726404 0.00390256
v 0.01201560 -0.02441220 -0.00827994
v 0.01201560 -0.02440439 -0.00832808
v 0.01201560 -0.02433805 -0.00872195
v 0.01392164 -0.02301706 -0.01050398
v 0.01201560 -0.02299364 -0.01536169
v 0.01258929 -0.02261510 -0.01572580
v 0.01544619 -0.02107947 -0.01519276
v 0.01645051 -0.02096045 -0.01238230
v 0.01201560 -0.02211168 -0.01689515
v 0.01372078 -0.02115362 -0.01693454
v 0.01758778 -0.01913213 -0.01564352
v 0.01741871 -0.01981897 -0.01421510
v 0.01217311 -0.02101313 -0.01708946
v 0.01680744 -0.01879066 -0.01692403
v 0.02002127 -0.01610185 -0.01624483
v 0.02025971 -0.01680234 -0.01462734
v 0.01914557 -0.01859749 -0.01198055
v 0.02428712 -0.00447829 -0.01722075
v 0.01986954 -0.01504232 -0.01704395
v 0.02256460 -0.01149886 -0.01692666
v 0.02183484 -0.01414670 -0.01568466
v 0.02233483 -0.01407841 -0.01405667
v 0.02077994 -0.01711064 -0.01067466
v 0.02539115 -0.00695442 -0.01399103
v 0.02528132 -0.00583440 -0.01561202
v 0.02492295 -0.00447829 -0.01693541
v 0.02392874 -0.00702466 -0.01709384
v 0.02433481 -0.00823443 -0.01634549
v 0.02336372 -0.01134276 -0.01579845
v 0.02396053 -0.01281205 -0.00864842
v 0.02423365 -0.01084520 -0.01285144
v 0.02567727 -0.00813882 -0.00992106
v 0.02463393 -0.00887639 -0.01492581
v 0.02493017 -0.00450951 -0.01692841
v 0.02493306 -0.00447829 -0.01693016
v 0.02405302 -0.01275156 -0.00827994
v 0.02503711 -0.01067934 -0.00827994
v -0.00144965 -0.02897076 0.02006297
v -0.01469809 -0.02507524 0.02076835
v -0.01048652 -0.02758800 0.02045360
v -0.00371637 -0.02897762 0.02000114
v -0.01427939 -0.02593189 0.02031871
v -0.01177536 -0.02741644 0.01922550
v -0.00908585 -0.02845380 0.01889951
v -0.00792385 -0.02833828 0.02010513
v -0.00376683 -0.02957121 0.01930138
v -0.01538274 -0.02551672 0.01873370
v -0.01538274 -0.02553159 0.01851731
v -0.01249547 -0.02703444 0.01657539
v -0.00992325 -0.02804434 0.01595432
v -0.00674412 -0.02910114 0.01772480
v -0.00396050 -0.02965356 0.01764330
v -0.00144965 -0.02988002 0.01766017
v -0.01538274 -0.02549499 0.01785689
v -0.01510451 -0.02554074 0.01588968
v -0.01345017 -0.02524451 0.00428877
v -0.00477472 -0.02792311 0.00241992
v -0.00241117 -0.02857617 0.00566582
v -0.00237298 -0.02799173 0.00001431
v -0.01538274 -0.02535889 0.01600771
v -0.01538274 -0.02404361 0.00346254
v 0.02318102 0.00857523 -0.01712811
v 0.02194764 0.01175419 -0.01717611
v 0.02321034 0.01040784 -0.01665553
v 0.02204935 0.01325794 -0.01585435
v 0.02410926 0.00978526 -0.01508270
v 0.02434109 0.00857523 -0.01581373
v 0.02411475 0.00857523 -0.01637862
v 0.02059147 0.01542503 -0.01578420
v 0.02268070 0.01405198 -0.01088481
v 0.02369783 0.01177527 -0.01238749
v 0.02127505 0.01607713 -0.01088481
v 0.02274301 0.01688101 0.00059386
v 0.02426870 0.01534633 0.00329646
v 0.02367767 0.01462819 -0.00289884
v 0.02566885 0.01263536 0.00203377
v 0.02467830 0.01212802 -0.00548330
v 0.01981809 0.01741505 -0.01275300
v 0.02231325 0.01801093 0.00329277
v 0.02490830 0.01774531 0.01934962
v 0.02520061 0.01430495 0.00560770
v 0.02696454 0.01449046 0.02000681
v 0.02783322 0.01253277 0.01899887
v 0.02065744 0.01853654 -0.00320898
v 0.01981809 0.02066428 0.00333708
v 0.02360894 0.01947814 0.02008434
v 0.02502375 0.01650717 0.02030956
v 0.02721378 0.01266488 0.02034648
v 0.02856995 0.01076762 0.02007696
v 0.02902445 0.00898841 0.01778048
v 0.01981809 0.02066147 0.00332231
v 0.02151330 0.02140632 0.01938285
v 0.01981809 0.02293115 0.01958960
v 0.02906568 0.00857523 0.02016188
v 0.02914540 0.00857523 0.01800570
v 0.02515604 0.00776382 -0.01350131
v 0.02448358 0.00782514 -0.01626461
v 0.02536678 0.00550116 -0.01559128
v 0.02503677 0.00481125 -0.01665598
v 0.02574435 0.00238634 -0.01586436
v 0.02594557 -0.00398641 -0.01445757
v 0.02616802 0.00013773 -0.01467249
v 0.02350087 0.00857382 -0.01691329
v 0.02552263 0.00078804 -0.01668162
v 0.02477700 0.00263164 -0.01710257
v 0.02372039 0.00718122 -0.01710750
v 0.02593533 -0.00157044 -0.01558142
v 0.02554824 -0.00281995 -0.01632967
v 0.02618046 -0.00246732 -0.01409380
v 0.02511653 -0.00157172 -0.01712623
v 0.02449895 -0.00296559 -0.01729481
v 0.02494164 -0.00447829 -0.01691822
v -0.02023218 0.01806010 -0.00898769
v -0.01905197 0.01959025 -0.00806594
v -0.02537999 0.01631301 0.01968330
v -0.02518261 0.01659238 0.01876155
v -0.02225693 0.01567005 -0.00776723
v -0.02149026 0.01649421 -0.00898769
v -0.01910434 0.01957874 -0.00790663
v -0.01909091 0.01959025 -0.00790378
v -0.02512353 0.01564520 0.02007589
v -0.01909494 0.01959025 -0.00788387
v -0.00528808 0.02896135 0.01980705
v -0.01188269 0.02640701 0.02003434
v -0.01783617 0.02290473 0.02003718
v -0.00144965 0.02961294 0.01953999
v -0.00175269 0.02961588 0.01951726
v -0.00814733 0.02859729 0.01956272
v -0.01519957 0.02567594 0.01974739
v -0.01880712 0.02325702 0.01991502
v -0.00419139 0.02930382 0.01785236
v -0.01243103 0.02711355 0.01942350
v -0.00703826 0.02880041 0.01821603
v -0.00906261 0.02712925 0.00572647
v -0.01240011 0.02702229 0.01723016
v -0.01465535 0.02630986 0.01842911
v -0.01686935 0.02500865 0.01927292
v -0.01900914 0.02372117 0.01923315
v -0.00541796 0.02788584 0.00361551
v -0.00858436 0.02690748 0.00214665
v -0.01093442 0.02612832 0.00261544
v -0.01289898 0.02519313 0.00229439
v -0.01304123 0.02394393 -0.00721199
v -0.01612104 0.02203922 -0.00772055
v -0.01814127 0.02071936 -0.00577155
v -0.00576222 0.02708804 -0.00243039
v -0.00791438 0.02632556 -0.00409528
v -0.01124363 0.02458374 -0.00889962
v -0.01310513 0.02360538 -0.00898769
v -0.01583450 0.02197641 -0.00898769
v -0.00688778 0.02599388 -0.00898769
v 0.01510829 -0.02611332 0.01859384
v 0.01603129 -0.02559484 0.01820422
v 0.01565315 -0.02570677 0.02014106
v 0.01510829 -0.02603999 0.01988413
v 0.01907693 -0.02333306 0.01708898
v 0.01885826 -0.02359423 0.01983613
v 0.01629828 -0.02388885 0.00486941
v 0.01808749 -0.02272709 0.00554984
v 0.01752813 -0.02406769 0.02056456
v 0.01510829 -0.02562700 0.02053633
v 0.01558066 -0.02330347 -0.00242903
v 0.02051820 -0.02188825 0.01513238
v 0.02120079 -0.02166310 0.01847526
v 0.01972085 -0.02120122 0.00404780
v 0.02221560 -0.02065958 0.01962720
v 0.02074533 -0.02154474 0.02041210
v 0.01817689 -0.02182907 -0.00017315
v 0.01927868 -0.02221761 0.02051374
v 0.02067647 -0.02070461 0.00721563
v 0.02384896 -0.01881465 0.01887901
v 0.02124790 -0.01968565 0.00366382
v 0.02196552 -0.02052835 0.01568859
v 0.01986462 -0.02062613 0.00126395
v 0.02348774 -0.01912214 0.01997165
v 0.02421260 -0.01765803 0.02022011
v 0.02428388 -0.01629041 0.00641944
v 0.02584355 -0.01565099 0.01646219
v 0.02580006 -0.01609357 0.01946909
v 0.02305161 -0.01781113 0.00514327
v 0.02141825 -0.01874903 -0.00005739
v 0.02330531 -0.01699673 0.00239895
v 0.02745033 -0.01296979 0.01975143
v 0.02092534 -0.01748177 -0.00827906
v 0.02498579 -0.01418559 0.00180604
v 0.02558743 -0.01405822 0.00579547
v 0.02699971 -0.01353073 0.01604151
v 0.02124669 -0.01708551 -0.00827906
v 0.02349257 -0.01497168 -0.00416258
v 0.02737906 -0.01296979 0.01806305
v 0.02578677 -0.01296979 0.00309350
v 0.01191806 -0.02445670 -0.00827906
v 0.01195101 -0.02438256 -0.00866194
v 0.01002402 -0.02503252 -0.01007875
v 0.01023754 -0.02416726 -0.01422915
v -0.00144833 -0.02395501 -0.01691359
v 0.01201560 -0.02108097 -0.01708864
v 0.00778332 -0.02599628 -0.00845325
v 0.00664320 -0.02550780 -0.01341339
v 0.00782418 -0.02430944 -0.01623666
v -0.00008415 -0.02576169 -0.01581757
v 0.00220663 -0.02622174 -0.01346081
v 0.00226463 -0.02683107 -0.00979246
v 0.00119173 -0.02706059 -0.00827906
v -0.00093166 -0.02491471 -0.01683081
v 0.00580624 -0.02372245 -0.01703345
v 0.01035617 -0.02304304 -0.01685668
v 0.00572716 -0.02657820 -0.00827906
v 0.00463581 -0.02622783 -0.01176375
v 0.00417185 -0.02547429 -0.01557870
v 0.00573902 -0.02433483 -0.01686185
v -0.00144833 -0.02562662 -0.01583481
v 0.00077654 -0.02537882 -0.01651692
v -0.00144833 -0.02483144 -0.01681356
v 0.00704017 -0.02917862 0.01744290
v 0.00798323 -0.02890478 0.01719136
v 0.00934648 -0.02849401 0.01892105
v 0.00704017 -0.02917205 0.01816925
v 0.00704017 -0.02787950 0.00420461
v 0.00882124 -0.02724638 0.00231666
v 0.00922168 -0.02757499 0.00706480
v 0.00981327 -0.02812158 0.01496708
v 0.01173571 -0.02778640 0.01822295
v 0.01172624 -0.02774039 0.02000068
v 0.00704017 -0.02904498 0.01960218
v 0.00922958 -0.02641061 -0.00262651
v 0.01129578 -0.02584978 -0.00109184
v 0.01225147 -0.02627478 0.00551600
v 0.01070499 -0.02727814 0.00943605
v 0.01290624 -0.02698239 0.01545885
v 0.01366922 -0.02692105 0.01920085
v 0.01364237 -0.02657163 0.02051789
v 0.00711047 -0.02826946 0.02059420
v 0.00775576 -0.02603051 -0.00827906
v 0.00782763 -0.02600861 -0.00827906
v 0.01333196 -0.02484641 -0.00146773
v 0.01410837 -0.02500415 0.00292996
v 0.01377585 -0.02346953 -0.00827906
v 0.01510750 -0.02322417 -0.00472643
v 0.01510750 -0.02362836 -0.00222800
v 0.01437849 -0.02309820 -0.00827906
v 0.01510750 -0.02384962 -0.00071029
v -0.02700891 0.00033059 -0.00898769
v -0.02687784 0.00034641 -0.00998863
v -0.02629545 0.00103152 -0.01371945
v -0.02654490 -0.00199976 -0.01170905
v -0.02691272 -0.00197786 -0.00898769
v -0.02628065 0.00322558 -0.01263789
v -0.02576485 0.00432565 -0.01429629
v -0.02568240 0.00231900 -0.01540499
v -0.02606503 -0.00173326 -0.01447384
v -0.02612951 -0.00471100 -0.01220914
v -0.02668019 -0.00397843 -0.00898769
v -0.02677743 0.00353954 -0.00898769
v -0.02635675 0.00499373 -0.01025999
v -0.02485479 0.00516774 -0.01610045
v -0.02494887 0.00443882 -0.01628575
v -0.02539491 0.00028922 -0.01627102
v -0.02523530 -0.00239282 -0.01634855
v -0.02542767 -0.00569182 -0.01463898
v -0.02561370 -0.00703283 -0.01206880
v -0.02633984 0.00516774 -0.01009562
v -0.02457153 -0.00383362 -0.01690755
v -0.02432631 -0.00674930 -0.01656099
v -0.02450494 -0.00726404 -0.01588026
v -0.02495415 -0.00726404 -0.01486304
v -0.02539702 -0.00726404 -0.01279217
v 0.00288793 -0.02895880 0.02017466
v -0.00144965 -0.02932656 0.01985255
v 0.00032111 -0.02959857 0.01973669
v 0.00594335 -0.02930697 0.01992601
v -0.00144965 -0.02958697 0.01954738
v 0.00133903 -0.02996126 0.01859798
v 0.00396900 -0.02980893 0.01930720
v 0.00581289 -0.02953256 0.01776726
v -0.00144965 -0.02987639 0.01771922
v -0.00136489 -0.02988727 0.01765988
v -0.00027302 -0.02986333 0.01613689
v 0.00286466 -0.02975815 0.01591932
v 0.00343885 -0.02852285 0.00402074
v 0.00577550 -0.02832845 0.00554374
v -0.00144965 -0.02988002 0.01765988
v -0.00144965 -0.02806587 0.00011577
v 0.00038011 -0.02862658 0.00417898
v 0.00203537 -0.02779240 -0.00239900
v 0.00403714 -0.02783302 -0.00113879
v 0.00623086 -0.02774815 0.00098606
v -0.00043921 -0.02727522 -0.00633788
v -0.00034614 -0.02815364 0.00024010
v 0.00080140 -0.02714320 -0.00772807
v 0.00359674 -0.02705760 -0.00716578
v 0.00581622 -0.02660642 -0.00799368
v 0.00697540 -0.02693502 -0.00367900
v 0.00703938 -0.02692051 -0.00365074
v 0.00703938 -0.02622851 -0.00827624
v 0.00703938 -0.02686175 -0.00405480
v -0.02602562 -0.00713168 -0.00898477
v -0.02652009 -0.00726404 -0.00523917
v -0.02650633 -0.00724700 -0.00537659
v -0.02674426 -0.00491864 -0.00769530
v -0.02757377 -0.00519239 -0.00074795
v -0.02831587 -0.00359402 0.00311168
v -0.02761099 -0.00193951 -0.00381227
v -0.02808280 -0.00620816 0.00536021
v -0.02854571 -0.00132282 0.00336607
v -0.02874560 -0.00388682 0.00824032
v -0.03020472 -0.00098691 0.02026367
v -0.02753250 0.00026551 -0.00497893
v -0.02916238 -0.00671956 0.01860578
v -0.03035525 0.00118502 0.02015549
v -0.02877797 0.00030663 0.00503273
v -0.02966736 -0.00321599 0.01772567
v -0.02951765 -0.00546212 0.02045665
v -0.02954193 -0.00342657 0.02088063
v -0.02990691 0.00095740 0.02080753
v -0.02820581 0.00064555 0.00041871
v -0.02694982 0.00297992 -0.00841167
v -0.02986645 0.00297992 0.02065548
v -0.02831021 0.00259186 0.00224326
v -0.02622080 0.00634173 -0.00898847
v -0.02628214 0.00516774 -0.01045613
v -0.02605791 0.00698856 -0.00898847
v -0.02545862 0.00706941 -0.01261077
v -0.01621087 0.02168767 -0.00898847
v -0.02434853 0.00986370 -0.01365633
v -0.02445209 0.00828545 -0.01530832
v -0.02548577 0.00516774 -0.01451137
v -0.01621087 0.02096000 -0.01224443
v -0.01802181 0.01981673 -0.01114233
v -0.02416049 0.01192061 -0.00898847
v -0.02319821 0.01340184 -0.01061567
v -0.02343551 0.01125276 -0.01488777
v -0.02293577 0.01029384 -0.01683098
v -0.02385280 0.00748176 -0.01689991
v -0.02468638 0.00516774 -0.01643289
v -0.01657286 0.01995418 -0.01509301
v -0.01909369 0.01826273 -0.01295387
v -0.02266026 0.01469872 -0.00898847
v -0.02208712 0.01418450 -0.01394677
v -0.02105747 0.01468093 -0.01560728
v -0.01926865 0.01603765 -0.01658159
v -0.01814548 0.01793447 -0.01611922
v -0.01992827 0.01701112 -0.01410941
v -0.02101724 0.01700142 -0.00974050
v -0.02693909 0.00298094 -0.00849556
v -0.02686117 0.00301358 -0.00898769
v -0.02693808 0.00298502 -0.00849847
v -0.02969265 0.00853164 0.01661218
v -0.02957121 0.00883662 0.01972517
v -0.02885778 0.01069093 0.01599774
v -0.02615684 0.00697516 -0.00838781
v -0.02383540 0.01261562 -0.00898769
v -0.02819494 0.01213827 0.01728196
v -0.03010350 0.00298094 0.02032214
v -0.02982724 0.00494847 0.02050560
v -0.02844692 0.01140491 0.02020566
v -0.02413089 0.01225149 -0.00823056
v -0.02777700 0.01264826 0.01924468
v -0.02957526 0.00298094 0.02076186
v -0.02925649 0.00492501 0.02071527
v -0.02875051 0.00814405 0.02054346
v 0.02890182 0.00678389 0.00345369
v 0.02864054 0.00649387 0.00082314
v 0.02832828 -0.00341276 0.00049500
v 0.02883411 0.00525969 0.00028520
v 0.02910733 0.00334455 0.00057300
v 0.02990710 0.00594960 0.01941180
v 0.03017793 0.00348892 0.01762045
v 0.02888907 -0.00180424 0.00382487
v 0.02857443 -0.00447829 0.00375225
v 0.03031654 0.00016073 0.01691036
v 0.03015722 -0.00127786 0.01576723
v 0.03010784 -0.00399024 0.01749941
v 0.02975893 -0.00418572 0.01439547
v 0.02917903 0.00857382 0.01977492
v 0.02947535 0.00675706 0.02023217
v 0.03027990 0.00279389 0.01977761
v 0.03045196 -0.00019061 0.01915359
v 0.02872896 -0.00447829 0.00512132
v 0.03032450 -0.00248266 0.01891690
v 0.03001543 -0.00447829 0.01746983
v 0.02933755 0.00339821 0.02024831
v 0.02921647 -0.00283783 0.02025369
v 0.02984497 -0.00376027 0.02010844
v 0.03021298 0.00038687 0.02004120
v 0.03006379 -0.00447829 0.01908087
v 0.02980584 -0.00644656 0.01924032
v 0.03004831 -0.00447829 0.01784449
v 0.02983473 -0.00447829 0.01987809
v 0.02949425 -0.00721958 0.01729063
v 0.02896082 -0.00794272 0.02003474
v 0.02889685 -0.00956687 0.01932703
v 0.02969338 -0.00447829 0.02009628
v 0.02882360 -0.00877724 0.01503605
v 0.02829430 -0.00727111 0.00592539
v 0.02869669 -0.00501026 0.00537713
v 0.02973362 -0.00447829 0.01467520
v 0.02697363 -0.01250266 0.02029768
v 0.02770309 -0.01249019 0.01979417
v 0.02826953 -0.01109877 0.01761791
v 0.02732443 -0.00946630 0.00309737
v 0.02805905 -0.00576914 0.00121482
v 0.02820659 -0.00447829 0.00082040
v 0.02745031 -0.01296979 0.01975221
v 0.02654544 -0.01181775 0.00431697
v 0.02602955 -0.01047371 -0.00263421
v 0.02503802 -0.01067735 -0.00827906
v 0.02597384 -0.00802334 -0.00827906
v 0.02708299 -0.00759195 -0.00213070
v 0.02605328 -0.01296979 0.00507782
v 0.02552501 -0.01177536 -0.00241043
v 0.02399799 -0.01286007 -0.00827906
v -0.00240329 0.02614671 -0.01377971
v -0.00512406 0.02527839 -0.01555402
v -0.00649384 0.02586679 -0.01085979
v -0.00394935 0.02636379 -0.01077597
v -0.00270672 0.02502275 -0.01659175
v -0.00790552 0.02412444 -0.01642487
v -0.00906289 0.02441293 -0.01489894
v -0.00633201 0.02613814 -0.00898769
v -0.00840835 0.02526697 -0.01126417
v -0.00144965 0.02500276 -0.01673145
v -0.00663544 0.02349891 -0.01689057
v -0.01127071 0.02247350 -0.01678967
v -0.01148890 0.02313616 -0.01547640
v -0.01049769 0.02419299 -0.01321467
v -0.01587420 0.01872745 -0.01691618
v -0.01320545 0.02307903 -0.01173996
v -0.01492056 0.02177370 -0.01302994
v -0.00974344 0.02266630 -0.01683546
v -0.01523555 0.01986426 -0.01671981
v -0.01404495 0.02147093 -0.01590484
v -0.01621087 0.01846181 -0.01688358
v -0.01621087 0.01922016 -0.01651879
v 0.00615680 0.02892183 0.02034901
v 0.00990280 0.02808724 0.01982042
v 0.00247748 0.02958648 0.01980355
v 0.00906826 0.02849164 0.01975013
v 0.00648351 0.02934368 0.01975857
v 0.00990280 0.02825112 0.01944366
v -0.00144854 0.02961379 0.01953926
v 0.00443660 0.02940287 0.01855237
v 0.00116732 0.02799695 -0.00665972
v 0.00054614 0.02952123 0.01771168
v 0.00990280 0.02819877 0.01811094
v 0.00586010 0.02746660 -0.00688746
v 0.00581676 0.02733155 -0.00792215
v 0.01981809 0.01831969 -0.00837202
v 0.01880288 0.01934174 -0.00837202
v 0.01981809 0.01890179 -0.00554365
v 0.01219624 0.02410185 -0.00837202
v 0.01239230 0.02543666 0.00133955
v 0.01807204 0.02004955 -0.00837202
v 0.01836127 0.02094291 -0.00223693
v 0.01352786 0.02417967 -0.00312688
v 0.01434119 0.02665175 0.01943331
v 0.01421599 0.02487999 0.00429028
v 0.01123345 0.02786685 0.01895218
v 0.01698501 0.02095787 -0.00837202
v 0.01656670 0.02149359 -0.00736804
v 0.01788375 0.02235553 0.00376744
v 0.01925322 0.02333269 0.01864070
v 0.01621826 0.02332222 0.00209044
v 0.01213219 0.02700790 0.02000622
v 0.01651817 0.02511643 0.01996172
v 0.01658125 0.02549053 0.01948615
v 0.01853306 0.02408539 0.01974479
v 0.01484069 0.02255379 -0.00837290
v 0.01280151 0.02291408 -0.01386193
v 0.01610718 0.02165561 -0.00837290
v 0.01454329 0.02220886 -0.01177671
v 0.01544234 0.02084794 -0.01517699
v 0.01642244 0.02141143 -0.00837290
v 0.01796229 0.01970557 -0.01071424
v 0.01808317 0.01839417 -0.01555058
v 0.01584688 0.01980974 -0.01663072
v 0.01355221 0.02187418 -0.01589503
v 0.01280151 0.02283724 -0.01417016
v 0.01979061 0.01737817 -0.01306529
v 0.01936547 0.01722278 -0.01533685
v 0.01884142 0.01664733 -0.01694514
v 0.01402474 0.02021272 -0.01706702
v 0.01981809 0.01735426 -0.01302554
v 0.01981809 0.01655854 -0.01550289
v 0.01981809 0.01596431 -0.01629865
v 0.01981809 0.01444117 -0.01737172
v 0.01956877 0.01475536 -0.01739468
v 0.00174347 0.02779563 -0.00837289
v 0.00311892 0.02769989 -0.00837289
v 0.00470502 0.02745750 -0.00976345
v 0.00202525 0.02769625 -0.00921319
v 0.00554620 0.02736176 -0.00837289
v 0.00258185 0.02559233 -0.01584703
v -0.00088887 0.02578745 -0.01561922
v 0.01060301 0.02409559 -0.01334456
v 0.01074391 0.02349083 -0.01573575
v 0.00873095 0.02452946 -0.01494015
v 0.00601073 0.02521178 -0.01533795
v -0.00144965 0.02592077 -0.01493840
v 0.01190872 0.02408589 -0.00949708
v 0.00684214 0.02450643 -0.01643059
v 0.00359880 0.02471125 -0.01703694
v -0.00008675 0.02498030 -0.01688272
v -0.00144965 0.02555234 -0.01591888
v -0.00144965 0.02572080 -0.01561045
v 0.01271223 0.02295030 -0.01396755
v 0.01004223 0.02311634 -0.01671799
v 0.01280151 0.02230677 -0.01585229
v 0.01280151 0.02214073 -0.01607135
v 0.00650455 0.02359869 -0.01732346
v -0.00144965 0.02500333 -0.01673114
v 0.01280151 0.02288244 -0.01400610
v 0.01280151 0.02110574 -0.01695983
f 231 246 254
f 426 471 470
f 482 485 480
f 276 73 349
f 73 276 204
f 425 429 428
f 423 431 426
f 423 428 429
f 476 477 471
f 240 477 476
f 241 477 240
f 240 246 241
f 241 246 477
f 560 243 553
f 167 168 162
f 97 84 96
f 96 98 97
f 456 449 448
f 447 448 441
f 246 231 237
f 465 470 471
f 465 464 426
f 426 470 465
f 464 465 466
f 466 441 464
f 487 484 494
f 482 484 487
f 322 40 313
f 499 276 514
f 499 204 276
f 198 203 204
f 254 246 245
f 245 246 240
f 425 428 422
f 422 420 425
f 428 423 422
f 172 171 1
f 156 159 160
f 167 162 160
f 475 476 471
f 386 384 154
f 154 384 349
f 349 156 154
f 156 157 154
f 389 386 388
f 388 162 389
f 386 162 388
f 161 157 156
f 161 162 157
f 156 160 161
f 161 160 162
f 95 429 425
f 425 96 95
f 95 96 429
f 97 98 86
f 85 75 74
f 85 84 97
f 97 86 85
f 85 86 75
f 73 84 85
f 85 74 73
f 73 74 68
f 74 75 68
f 68 67 73
f 64 67 68
f 65 64 68
f 68 69 65
f 457 449 456
f 232 231 254
f 254 235 232
f 472 466 465
f 472 237 231
f 471 477 472
f 472 465 471
f 477 246 472
f 246 237 472
f 446 447 441
f 441 466 446
f 625 623 612
f 625 592 623
f 196 198 197
f 197 198 192
f 572 580 581
f 581 582 572
f 581 583 582
f 612 623 617
f 610 606 609
f 609 606 614
f 609 619 610
f 609 618 619
f 614 617 609
f 609 617 618
f 626 617 623
f 618 617 626
f 626 598 603
f 603 40 626
f 626 40 450
f 619 618 626
f 214 479 481
f 212 479 214
f 482 487 488
f 488 489 482
f 295 291 287
f 349 384 387
f 387 384 386
f 289 288 287
f 287 280 289
f 289 280 288
f 279 280 272
f 553 243 557
f 557 242 553
f 243 242 557
f 503 502 505
f 202 198 196
f 203 198 202
f 196 195 202
f 208 209 202
f 209 583 202
f 583 581 202
f 478 479 192
f 192 198 478
f 198 199 478
f 206 211 478
f 481 479 478
f 478 482 481
f 478 484 482
f 610 619 620
f 540 548 541
f 541 534 540
f 535 534 541
f 253 252 254
f 254 245 253
f 244 245 240
f 254 252 260
f 252 259 260
f 425 420 114
f 114 109 425
f 106 96 425
f 425 109 106
f 98 96 107
f 96 106 107
f 107 106 109
f 426 464 427
f 427 464 432
f 432 464 435
f 371 370 464
f 43 44 35
f 35 44 36
f 44 43 103
f 65 66 63
f 164 62 63
f 63 64 65
f 165 171 172
f 172 1 165
f 165 62 164
f 159 62 165
f 49 1 58
f 58 53 49
f 53 59 49
f 177 171 72
f 72 1 177
f 177 1 171
f 81 1 72
f 58 1 81
f 323 313 129
f 322 313 323
f 55 59 52
f 52 59 53
f 54 53 58
f 58 105 54
f 54 43 53
f 54 105 92
f 92 43 54
f 65 69 70
f 69 80 70
f 70 66 65
f 80 81 70
f 69 78 79
f 79 80 69
f 158 62 159
f 158 159 156
f 158 67 64
f 73 67 155
f 155 156 349
f 349 73 155
f 155 158 156
f 67 158 155
f 431 475 434
f 434 475 471
f 426 431 434
f 434 471 426
f 551 581 580
f 240 476 551
f 476 475 551
f 551 475 431
f 203 202 551
f 551 202 581
f 73 204 551
f 204 203 551
f 386 154 385
f 385 154 157
f 385 162 386
f 157 162 385
f 83 96 84
f 83 84 73
f 430 551 431
f 73 551 430
f 96 83 430
f 429 96 430
f 431 423 430
f 430 423 429
f 75 86 76
f 69 68 76
f 76 68 75
f 100 101 89
f 89 101 90
f 90 78 89
f 78 88 89
f 467 436 464
f 464 438 467
f 467 438 436
f 547 548 540
f 459 460 453
f 458 457 456
f 456 459 458
f 466 472 469
f 231 232 469
f 469 232 233
f 233 454 469
f 447 466 469
f 469 454 447
f 473 446 466
f 613 606 612
f 614 606 613
f 612 617 613
f 613 617 614
f 555 558 553
f 553 551 555
f 605 555 606
f 629 626 623
f 598 626 629
f 623 592 629
f 592 598 629
f 619 626 539
f 539 546 540
f 539 538 619
f 533 538 539
f 540 534 539
f 539 534 533
f 517 518 511
f 130 129 135
f 143 142 150
f 134 142 143
f 143 135 134
f 136 135 143
f 603 602 179
f 179 222 603
f 150 141 144
f 145 136 144
f 144 143 150
f 136 143 144
f 225 482 480
f 481 482 216
f 216 214 481
f 514 276 285
f 285 283 514
f 276 283 285
f 514 283 292
f 292 283 291
f 291 295 292
f 291 283 282
f 287 291 282
f 282 280 287
f 489 488 496
f 496 487 494
f 496 488 487
f 496 505 502
f 497 513 489
f 511 518 512
f 503 508 506
f 511 512 506
f 513 497 506
f 506 512 513
f 287 288 296
f 603 222 227
f 227 142 134
f 129 313 227
f 227 135 129
f 134 135 227
f 227 40 603
f 227 313 40
f 50 46 55
f 40 46 50
f 50 41 40
f 40 21 20
f 20 21 17
f 312 40 322
f 312 21 40
f 336 332 331
f 331 391 336
f 390 391 387
f 390 386 389
f 390 387 386
f 333 331 332
f 288 280 286
f 280 279 286
f 347 346 268
f 268 270 347
f 339 346 347
f 339 333 332
f 336 345 339
f 204 499 498
f 498 492 204
f 499 492 498
f 494 484 493
f 507 508 503
f 503 505 507
f 533 620 627
f 627 538 533
f 627 620 619
f 619 538 627
f 248 244 252
f 245 244 248
f 252 253 248
f 248 253 245
f 247 244 243
f 243 244 239
f 239 242 243
f 239 244 240
f 553 242 239
f 240 551 239
f 239 551 553
f 544 260 265
f 265 260 259
f 544 541 545
f 545 541 548
f 254 260 261
f 98 107 108
f 108 107 109
f 464 436 378
f 378 371 464
f 436 438 378
f 420 422 418
f 418 422 423
f 424 427 432
f 367 362 361
f 42 43 35
f 53 43 42
f 42 52 53
f 41 52 42
f 90 101 37
f 102 36 44
f 90 37 102
f 102 37 36
f 45 103 90
f 44 103 45
f 90 102 45
f 45 102 44
f 91 78 90
f 90 103 91
f 92 79 91
f 91 79 78
f 166 160 159
f 159 165 166
f 167 160 166
f 166 4 167
f 60 59 55
f 71 81 72
f 71 176 66
f 66 70 71
f 71 70 81
f 72 171 71
f 171 176 71
f 58 81 94
f 94 81 80
f 80 79 94
f 10 4 7
f 173 168 167
f 167 4 173
f 126 129 130
f 322 323 327
f 327 323 316
f 163 63 62
f 62 158 163
f 64 63 163
f 163 158 64
f 82 83 73
f 73 430 82
f 82 430 83
f 77 76 86
f 77 88 78
f 77 78 69
f 69 76 77
f 100 89 99
f 99 109 100
f 99 86 98
f 99 89 86
f 98 108 99
f 99 108 109
f 86 89 87
f 87 89 88
f 87 77 86
f 88 77 87
f 543 547 540
f 540 546 543
f 450 449 543
f 546 539 543
f 543 539 626
f 543 626 450
f 233 232 234
f 232 460 234
f 229 232 235
f 229 460 232
f 235 453 229
f 229 453 460
f 550 547 457
f 457 458 550
f 548 547 550
f 550 458 548
f 459 453 452
f 452 458 459
f 453 445 452
f 548 458 452
f 452 545 548
f 474 472 231
f 231 469 474
f 474 469 472
f 468 466 447
f 468 473 466
f 447 446 468
f 446 473 468
f 195 200 201
f 208 202 201
f 201 202 195
f 552 580 572
f 552 551 580
f 607 606 610
f 612 606 611
f 568 616 562
f 572 568 562
f 562 574 572
f 606 555 562
f 180 183 184
f 180 179 181
f 153 147 523
f 508 507 515
f 515 507 514
f 514 292 515
f 294 295 287
f 192 479 193
f 479 187 193
f 195 188 599
f 196 197 190
f 190 197 192
f 518 517 525
f 525 140 518
f 517 524 525
f 525 524 140
f 149 144 141
f 141 140 149
f 145 144 149
f 149 147 145
f 149 523 147
f 482 225 218
f 218 216 482
f 184 183 213
f 212 214 213
f 213 183 212
f 273 283 276
f 273 282 283
f 276 270 273
f 280 282 273
f 272 280 273
f 504 497 489
f 504 502 503
f 503 506 504
f 504 506 497
f 489 496 504
f 504 496 502
f 518 519 486
f 486 512 518
f 486 519 480
f 480 485 486
f 489 513 490
f 513 512 490
f 485 482 490
f 482 489 490
f 510 506 508
f 510 517 511
f 511 506 510
f 221 227 222
f 51 52 41
f 41 50 51
f 55 52 51
f 51 50 55
f 47 46 40
f 19 20 17
f 46 47 19
f 322 327 321
f 8 60 12
f 12 60 55
f 17 13 12
f 277 276 349
f 277 270 276
f 270 277 348
f 348 277 349
f 391 331 334
f 331 333 334
f 387 391 334
f 137 136 145
f 133 132 139
f 340 339 347
f 333 339 340
f 270 348 340
f 349 387 340
f 340 348 349
f 338 339 332
f 290 297 288
f 133 297 290
f 124 284 278
f 501 493 492
f 494 493 501
f 492 493 483
f 483 493 484
f 211 491 483
f 484 478 483
f 483 478 211
f 204 492 210
f 492 483 210
f 210 483 491
f 205 199 198
f 205 210 491
f 205 198 204
f 204 210 205
f 206 478 205
f 205 478 199
f 205 211 206
f 205 491 211
f 264 265 259
f 544 265 264
f 255 256 250
f 249 247 255
f 244 247 249
f 255 250 249
f 249 250 244
f 260 445 230
f 230 453 235
f 230 445 453
f 440 445 260
f 236 261 260
f 236 230 235
f 260 230 236
f 439 378 438
f 464 441 439
f 439 438 464
f 441 448 442
f 442 439 441
f 442 449 450
f 442 448 449
f 367 374 375
f 421 423 426
f 421 418 423
f 426 427 421
f 427 424 421
f 366 374 367
f 367 361 366
f 109 114 110
f 100 109 110
f 367 375 376
f 34 42 35
f 41 42 34
f 104 103 43
f 104 91 103
f 104 43 92
f 92 91 104
f 170 176 171
f 164 63 170
f 170 63 66
f 66 176 170
f 170 165 164
f 171 165 170
f 1 4 2
f 4 166 2
f 2 165 1
f 2 166 165
f 1 49 48
f 48 5 1
f 58 94 93
f 93 105 58
f 93 94 79
f 92 105 93
f 93 79 92
f 10 7 6
f 3 4 1
f 3 7 4
f 1 5 3
f 3 5 8
f 3 6 7
f 175 173 4
f 10 14 175
f 175 4 10
f 168 173 175
f 393 394 389
f 395 394 400
f 389 394 395
f 395 390 389
f 391 390 395
f 125 323 129
f 129 126 125
f 457 547 549
f 547 543 549
f 449 457 549
f 549 543 449
f 455 234 460
f 455 460 459
f 447 454 455
f 455 459 456
f 455 454 233
f 233 234 455
f 456 448 455
f 448 447 455
f 578 583 209
f 578 209 208
f 208 201 578
f 582 583 577
f 583 578 577
f 577 578 201
f 200 566 207
f 207 201 200
f 590 201 207
f 554 552 572
f 554 555 551
f 551 552 554
f 530 534 535
f 530 620 533
f 533 534 530
f 255 247 559
f 559 247 243
f 243 560 559
f 559 560 553
f 553 558 559
f 558 555 559
f 555 605 559
f 608 611 606
f 616 611 563
f 563 562 616
f 611 608 563
f 606 562 563
f 563 608 606
f 555 574 561
f 561 562 555
f 574 562 561
f 587 588 628
f 572 582 573
f 573 568 572
f 182 180 181
f 183 180 182
f 181 187 182
f 212 183 182
f 182 187 479
f 182 479 212
f 179 180 219
f 299 515 520
f 520 515 292
f 520 295 299
f 520 292 295
f 194 200 195
f 195 599 194
f 189 188 195
f 189 195 196
f 196 190 189
f 186 193 187
f 192 193 186
f 186 187 181
f 188 189 186
f 186 189 190
f 517 521 522
f 153 523 522
f 522 149 517
f 523 149 522
f 299 295 303
f 295 294 303
f 140 524 148
f 148 149 140
f 148 524 517
f 517 149 148
f 217 140 141
f 217 225 480
f 518 140 217
f 480 519 217
f 217 519 518
f 223 218 225
f 225 217 223
f 216 218 223
f 495 486 485
f 512 486 495
f 485 490 495
f 495 490 512
f 215 221 222
f 184 213 215
f 222 219 215
f 214 216 215
f 215 213 214
f 215 180 184
f 215 219 180
f 16 19 17
f 46 19 16
f 17 12 16
f 16 12 46
f 20 19 38
f 38 19 47
f 40 20 38
f 38 47 40
f 17 21 22
f 22 321 17
f 21 312 22
f 22 312 322
f 322 321 22
f 18 13 17
f 17 321 18
f 55 46 56
f 56 12 55
f 46 12 56
f 145 147 138
f 138 137 145
f 132 137 138
f 304 139 138
f 138 139 132
f 131 135 136
f 136 137 131
f 130 135 131
f 131 137 132
f 300 139 304
f 300 297 133
f 133 139 300
f 269 268 346
f 346 353 269
f 272 273 269
f 270 268 269
f 269 273 270
f 344 353 346
f 346 339 344
f 344 339 345
f 344 345 336
f 278 284 274
f 274 269 353
f 347 270 271
f 271 340 347
f 270 340 271
f 341 340 387
f 333 340 341
f 387 334 341
f 341 334 333
f 337 332 336
f 337 338 332
f 336 339 337
f 339 338 337
f 288 286 281
f 281 290 288
f 281 286 279
f 281 279 272
f 284 290 281
f 128 132 133
f 133 290 128
f 128 290 284
f 284 124 128
f 500 499 514
f 500 492 499
f 500 501 492
f 494 501 500
f 500 496 494
f 505 496 500
f 544 264 542
f 542 541 544
f 535 541 542
f 252 244 251
f 251 250 252
f 244 250 251
f 258 259 252
f 258 264 259
f 256 264 257
f 257 250 256
f 264 258 257
f 252 250 257
f 257 258 252
f 266 440 260
f 266 260 544
f 544 545 266
f 445 440 444
f 545 452 444
f 444 452 445
f 444 266 545
f 440 266 444
f 238 236 235
f 261 236 238
f 238 235 254
f 254 261 238
f 371 378 437
f 378 439 437
f 40 39 379
f 450 40 379
f 379 374 450
f 379 375 374
f 419 421 424
f 424 359 419
f 418 421 419
f 419 416 418
f 360 361 362
f 360 419 359
f 439 442 443
f 361 364 365
f 365 366 361
f 365 364 371
f 439 443 365
f 371 437 365
f 365 437 439
f 451 442 450
f 450 374 451
f 116 114 420
f 116 110 114
f 420 418 417
f 418 416 417
f 417 116 420
f 110 116 417
f 377 416 368
f 368 376 377
f 368 362 367
f 367 376 368
f 61 60 8
f 59 60 61
f 5 48 57
f 8 5 57
f 57 61 8
f 59 61 57
f 57 49 59
f 57 48 49
f 11 14 10
f 10 6 11
f 6 3 9
f 9 12 13
f 8 12 9
f 9 3 8
f 13 11 9
f 9 11 6
f 174 394 168
f 168 175 174
f 174 175 394
f 168 394 398
f 394 393 398
f 389 162 392
f 392 393 389
f 396 395 400
f 391 395 396
f 396 397 391
f 336 391 335
f 391 397 335
f 556 574 555
f 555 554 556
f 572 574 556
f 556 554 572
f 592 625 593
f 593 588 592
f 577 576 579
f 582 577 579
f 579 573 582
f 568 573 571
f 573 579 571
f 222 179 178
f 178 219 222
f 179 219 178
f 564 566 200
f 200 194 564
f 564 194 590
f 590 194 595
f 595 194 599
f 603 598 597
f 597 598 592
f 597 602 603
f 597 179 602
f 181 179 597
f 191 190 192
f 192 186 191
f 191 186 190
f 153 522 527
f 527 522 521
f 527 147 153
f 527 152 147
f 287 296 293
f 293 294 287
f 306 515 299
f 299 303 306
f 302 303 294
f 294 293 302
f 302 293 301
f 150 142 151
f 228 141 150
f 150 151 228
f 147 152 146
f 146 138 147
f 305 138 301
f 336 342 343
f 343 344 336
f 278 274 358
f 358 274 353
f 358 356 278
f 353 356 358
f 275 281 272
f 272 269 275
f 269 274 275
f 275 274 284
f 284 281 275
f 122 125 126
f 323 125 122
f 316 323 122
f 127 131 132
f 132 128 127
f 130 131 127
f 127 126 130
f 514 507 509
f 509 500 514
f 509 507 505
f 505 500 509
f 362 368 369
f 369 368 416
f 361 360 461
f 461 360 359
f 461 424 432
f 461 359 424
f 363 360 362
f 419 360 363
f 362 369 363
f 416 419 363
f 363 369 416
f 366 365 373
f 374 366 373
f 373 451 374
f 112 101 100
f 100 110 111
f 110 27 111
f 111 112 100
f 30 34 35
f 30 29 34
f 14 11 328
f 330 18 321
f 13 18 330
f 169 398 393
f 393 392 169
f 169 392 162
f 169 162 168
f 168 398 169
f 401 396 400
f 400 405 401
f 401 405 406
f 397 396 403
f 336 335 403
f 403 335 397
f 336 403 409
f 326 327 316
f 14 406 404
f 404 405 14
f 406 405 404
f 399 405 400
f 400 394 399
f 394 175 399
f 399 175 14
f 14 405 399
f 589 588 587
f 576 575 589
f 590 588 589
f 589 575 590
f 570 577 201
f 570 576 577
f 530 529 621
f 610 620 621
f 620 530 621
f 607 529 604
f 604 529 559
f 604 559 605
f 604 605 606
f 606 607 604
f 624 625 612
f 624 593 625
f 587 579 586
f 586 579 576
f 586 589 587
f 576 589 586
f 567 616 568
f 568 571 567
f 584 579 587
f 587 571 584
f 584 571 579
f 565 564 590
f 566 564 565
f 590 207 565
f 565 207 566
f 592 588 591
f 591 588 590
f 591 597 592
f 185 186 181
f 188 186 185
f 307 527 521
f 301 527 307
f 307 302 301
f 298 293 296
f 301 293 298
f 298 305 301
f 298 300 304
f 297 300 298
f 298 296 288
f 288 297 298
f 304 138 298
f 138 305 298
f 516 306 303
f 508 515 516
f 515 306 516
f 516 510 508
f 516 303 521
f 516 521 517
f 517 510 516
f 521 303 526
f 303 302 526
f 526 307 521
f 302 307 526
f 216 223 220
f 220 215 216
f 221 215 220
f 528 146 152
f 138 146 528
f 301 138 528
f 152 527 528
f 528 527 301
f 353 344 352
f 344 343 352
f 352 356 353
f 531 536 559
f 531 529 530
f 531 530 535
f 531 267 536
f 262 263 256
f 262 256 255
f 262 267 263
f 536 267 262
f 255 559 262
f 559 536 262
f 464 370 463
f 463 461 464
f 462 364 361
f 361 461 462
f 461 463 462
f 462 463 370
f 370 371 462
f 371 364 462
f 432 435 433
f 433 461 432
f 433 435 464
f 464 461 433
f 442 451 372
f 451 373 372
f 372 443 442
f 372 365 443
f 372 373 365
f 28 111 27
f 112 111 28
f 25 27 110
f 110 115 25
f 115 23 25
f 110 417 414
f 414 115 110
f 414 417 416
f 34 29 33
f 40 41 33
f 41 34 33
f 31 30 35
f 35 36 31
f 27 30 31
f 36 37 31
f 31 37 101
f 29 30 26
f 26 30 27
f 380 376 375
f 380 379 39
f 375 379 380
f 15 330 321
f 15 11 13
f 13 330 15
f 396 401 402
f 402 403 396
f 408 409 403
f 403 402 408
f 408 402 407
f 329 15 321
f 329 321 327
f 327 326 329
f 329 328 11
f 11 15 329
f 326 325 318
f 315 326 316
f 315 325 326
f 569 575 576
f 576 570 569
f 590 575 569
f 569 201 590
f 569 570 201
f 610 621 615
f 615 621 529
f 615 607 610
f 615 529 607
f 593 624 594
f 594 628 588
f 588 593 594
f 594 624 612
f 622 567 571
f 616 567 622
f 622 611 616
f 612 611 622
f 622 594 612
f 628 594 622
f 596 595 599
f 600 597 596
f 597 591 596
f 590 595 596
f 596 591 590
f 596 599 188
f 188 185 596
f 596 185 600
f 601 597 600
f 600 185 601
f 181 597 601
f 601 185 181
f 226 228 151
f 142 227 226
f 226 151 142
f 227 221 226
f 221 220 226
f 336 409 410
f 410 342 336
f 559 529 532
f 532 531 559
f 529 531 532
f 537 531 535
f 535 542 537
f 267 531 537
f 263 267 537
f 537 542 264
f 256 263 537
f 537 264 256
f 24 23 377
f 24 25 23
f 27 25 24
f 377 26 24
f 24 26 27
f 413 23 115
f 377 23 413
f 413 416 377
f 415 414 416
f 115 414 415
f 416 413 415
f 415 413 115
f 113 28 27
f 27 31 113
f 112 28 113
f 101 112 113
f 113 31 101
f 383 26 377
f 29 26 383
f 383 382 29
f 377 376 383
f 376 382 383
f 29 382 381
f 381 382 376
f 376 380 381
f 411 315 314
f 408 315 411
f 14 318 319
f 319 318 325
f 319 402 401
f 319 325 407
f 407 402 319
f 317 329 326
f 326 318 317
f 328 329 317
f 317 318 14
f 14 328 317
f 325 315 324
f 324 315 408
f 407 325 324
f 324 408 407
f 585 571 587
f 585 622 571
f 587 628 585
f 628 622 585
f 228 226 224
f 224 220 223
f 224 226 220
f 224 223 217
f 141 228 224
f 224 217 141
f 123 128 124
f 123 127 128
f 123 122 126
f 126 127 123
f 316 122 121
f 355 124 278
f 355 357 124
f 278 356 355
f 356 352 355
f 352 357 355
f 32 381 380
f 32 380 39
f 32 33 29
f 29 381 32
f 32 39 40
f 40 33 32
f 350 411 314
f 314 351 350
f 350 351 342
f 409 408 412
f 408 411 412
f 411 350 412
f 412 410 409
f 342 410 412
f 412 350 342
f 320 401 406
f 320 319 401
f 320 406 14
f 14 319 320
f 122 123 120
f 120 121 122
f 124 357 120
f 120 123 124
f 310 343 342
f 342 351 310
f 310 351 314
f 314 315 310
f 354 357 352
f 354 120 357
f 343 310 308
f 308 310 309
f 309 310 311
f 121 120 311
f 311 310 315
f 311 315 316
f 316 121 311
f 117 352 343
f 117 308 309
f 343 308 117
f 120 354 118
f 118 117 309
f 118 354 352
f 352 117 118
f 119 118 309
f 120 118 119
f 309 311 119
f 119 311 120

