# https://github.com/mikedh/trimesh
v -0.06679882 0.00683914 0.10592967
v 0.06658559 0.00559514 -0.10498744
v 0.06868923 0.00800070 0.04301593
v -0.07099468 0.00947234 -0.06609192
v -0.07029992 0.01001309 0.02411906
v 0.02974044 0.00972114 0.10425025
v -0.01433052 0.01022842 0.05350048
v 0.06121847 0.00898914 -0.05350887
v -0.04791199 0.00772169 -0.10478334
v -0.01222828 0.01022076 0.10178865
v 0.06912133 0.00734245 0.09339294
v -0.07451219 0.00845290 0.06610028
v 0.03813533 0.00893600 -0.07868754
v -0.07468451 0.00474074 -0.09547257
v -0.02481459 0.01023054 0.07869882
v 0.04022759 0.00785049 -0.10486941
v 0.06589196 0.00747849 -0.07868754
v 0.05911484 0.01000522 0.06610949
v 0.04233123 0.01018590 0.08288871
v -0.04370197 0.01017514 0.10178865
v 0.05071911 0.00575002 0.10498031
v -0.07204774 0.00998843 0.04582349
v -0.06889675 0.01011427 0.08499078
v -0.07099468 0.00990936 0.00522855
v 0.05072304 0.00872414 -0.09127686
v -0.06260023 0.00474074 -0.10538336
v -0.02691904 0.01009544 0.10323977
v 0.04442349 0.00902174 -0.06609821
v -0.07464895 0.00509529 0.09548091
v 0.06331769 0.00851029 0.10536889
v -0.05630644 0.01023585 0.08708054
v 0.06244655 0.01002223 0.08288871
v 0.06452744 0.00794685 -0.09127686
v 0.06121847 0.00888640 -0.06609821
v -0.07099468 0.00933885 -0.08498244
v 0.05491894 0.00813108 -0.10364982
v -0.05630644 0.01012532 0.10177086
v 0.06887117 0.00819060 0.06189993
v -0.07209424 0.01000714 0.05561014
v -0.07209971 0.01000714 0.07659040
v -0.07103571 0.00690631 -0.10343844
v 0.03603169 0.00902316 -0.07028809
v -0.06889675 0.01000884 0.01362893
v 0.04022759 0.00882830 -0.08708698
v 0.06121413 0.01010809 0.09545837
v 0.05911484 0.00876170 -0.08498219
v 0.04652713 0.00858030 -0.09967631
v -0.07425781 0.00805243 0.10313644
v 0.06229872 0.00999176 0.07486301
v -0.06889675 0.01008876 0.09339117
v 0.05702257 0.00861290 -0.09548642
v 0.04442349 0.00894309 -0.07449764
v -0.06469815 0.00908293 -0.09967276
v -0.05630644 0.00835512 -0.10368674
v 0.05701840 0.01015755 0.10178865
v -0.06469815 0.01009471 0.09968111
v -0.06889675 0.01011512 0.06190008
v 0.06880967 0.00741982 0.10120179
v 0.06300373 0.00807935 -0.09967631
v 0.04652713 0.00882547 -0.08498219
v 0.06331074 0.00857960 -0.07239287
v 0.05911484 0.01011434 0.08918338
v -0.05000992 0.01008366 0.10317782
v -0.07475016 0.00474074 -0.08709288
v -0.07099468 0.00927168 -0.09127238
v 0.05911484 0.00374367 -0.10463336
v -0.06986228 0.00156084 -0.10064521
v 0.05623797 0.00998821 0.06068033
v -0.07099468 0.00904637 -0.09758301
v -0.07099468 0.00330298 0.10177086
v 0.06469800 0.00801842 -0.08498219
v 0.04861940 0.00781364 -0.10479072
v -0.07045310 0.01001564 0.09968111
v -0.07206142 0.00999354 0.08919097
v 0.04442349 0.00494184 -0.10549888
v 0.06121847 0.00878154 -0.07868754
v 0.06909858 0.00317115 -0.10178109
v -0.07397608 0.00474074 -0.10014864
v -0.06796403 0.00365583 -0.10494886
v -0.06889675 0.01009811 0.04932020
v 0.05911484 0.00867454 -0.09127686
v 0.04442349 0.00878224 -0.08919176
v 0.04233123 0.00889420 -0.08079231
v 0.05072304 0.00860794 -0.09757153
v -0.07309260 0.00938476 0.09548091
v -0.07315277 0.00951060 0.07030047
v -0.07480213 0.00683914 -0.09127238
v 0.03393617 0.00867738 0.10539192
v 0.06255586 0.01004323 0.09969057
v 0.05911484 0.00836774 -0.10178109
v -0.06679882 0.00832451 -0.10343844
v -0.07099468 0.01007431 0.08079060
v -0.06997990 0.00998928 0.00942874
v 0.03603169 0.00898631 -0.07449764
v -0.06050503 0.00836022 -0.10364535
v 0.06121847 0.00851653 -0.09548642
v -0.07099468 0.00683914 0.10588829
v 0.06540987 0.00560437 0.10318870
v -0.06881469 0.00966449 0.10367439
v 0.06251477 0.01003356 0.08707859
v 0.06335623 0.00748345 -0.10378752
v -0.04370197 0.00863176 0.10535187
v 0.06905981 0.00845203 0.09759250
v -0.07244708 0.00304536 -0.10310740
v 0.05072304 0.00847331 -0.10178109
v 0.06331074 0.00388184 -0.10449567
v 0.04442349 0.00818280 -0.10378752
v 0.06540987 0.00933255 0.10178865
v -0.06889675 0.00380038 0.10460547
v 0.06121413 0.01004598 0.10308955
v -0.07433713 0.00809580 -0.08709288
v -0.07414020 0.00788579 -0.09441735
v -0.07442193 0.00499071 0.10177086
v 0.06717689 0.00630653 -0.10178109
v -0.04704765 0.01016869 0.10177086
v -0.07377915 0.00729997 -0.09758301
v -0.06889675 0.01012107 0.07659040
v -0.07206689 0.00999524 0.04932020
v -0.06889675 0.01010407 0.08919097
v -0.07204501 0.00998673 0.09235664
v 0.05384602 0.00579179 0.10493325
v 0.05702257 0.00669766 -0.10543987
v -0.07422773 0.00566155 0.10501928
v 0.06331074 0.00847827 -0.08079231
v 0.06331074 0.00861998 -0.06820297
v 0.06331074 0.00853212 -0.07658276
v 0.06121847 0.00869013 -0.08708698
v 0.05282667 0.00853496 -0.09967631
f 79 41 26
f 75 79 26
f 101 114 2
f 2 114 77
f 14 64 87
f 41 79 104
f 104 78 41
f 104 79 67
f 104 14 78
f 64 14 104
f 1 21 30
f 30 21 121
f 112 14 87
f 78 14 112
f 121 21 98
f 98 77 11
f 98 30 121
f 101 2 122
f 122 2 75
f 122 75 26
f 75 2 66
f 79 75 66
f 66 77 67
f 67 79 66
f 77 114 3
f 3 38 77
f 11 77 103
f 77 38 103
f 41 78 116
f 78 112 116
f 116 69 41
f 112 69 116
f 29 12 87
f 87 64 29
f 64 104 29
f 67 113 29
f 29 104 67
f 70 123 113
f 70 113 67
f 67 77 70
f 77 98 70
f 101 122 72
f 9 122 26
f 106 2 77
f 77 66 106
f 106 66 2
f 110 6 30
f 30 98 58
f 58 98 11
f 11 103 58
f 41 69 91
f 26 41 91
f 91 9 26
f 95 9 91
f 38 3 71
f 71 61 38
f 15 7 31
f 10 15 31
f 10 19 7
f 7 15 10
f 7 28 42
f 7 19 68
f 68 28 7
f 46 28 68
f 111 112 87
f 87 12 111
f 65 69 111
f 111 69 112
f 7 42 35
f 35 13 65
f 65 111 35
f 31 7 43
f 7 93 43
f 109 98 21
f 109 70 98
f 123 70 109
f 109 21 1
f 1 97 109
f 97 123 109
f 54 9 95
f 16 72 122
f 122 9 16
f 9 54 16
f 6 110 27
f 110 10 27
f 103 89 108
f 108 89 110
f 108 110 30
f 30 58 108
f 108 58 103
f 125 103 38
f 38 61 125
f 17 3 114
f 114 71 17
f 17 71 3
f 59 114 101
f 19 10 55
f 55 10 110
f 55 89 45
f 110 89 55
f 31 115 20
f 20 10 31
f 52 28 46
f 94 42 28
f 28 52 94
f 94 52 13
f 13 35 94
f 94 35 42
f 62 55 45
f 19 55 62
f 86 111 12
f 74 40 86
f 86 120 74
f 31 57 117
f 117 23 31
f 119 50 31
f 31 23 119
f 50 73 56
f 31 50 56
f 85 73 120
f 85 86 12
f 120 86 85
f 73 99 37
f 37 56 73
f 37 115 31
f 31 56 37
f 6 99 102
f 102 97 1
f 102 99 97
f 48 99 73
f 73 85 48
f 48 123 97
f 97 99 48
f 48 85 12
f 12 29 48
f 113 123 48
f 48 29 113
f 4 93 7
f 7 35 4
f 93 5 80
f 80 43 93
f 80 57 31
f 31 43 80
f 47 128 105
f 63 99 6
f 6 27 63
f 63 37 99
f 115 37 63
f 63 20 115
f 63 27 10
f 10 20 63
f 46 25 60
f 46 34 76
f 76 127 46
f 61 127 76
f 76 125 61
f 33 71 114
f 114 59 33
f 124 33 59
f 71 33 124
f 83 52 46
f 13 52 83
f 46 60 83
f 65 13 83
f 34 8 49
f 49 76 34
f 125 76 49
f 18 68 19
f 19 62 18
f 18 49 8
f 18 62 45
f 45 49 18
f 46 68 18
f 18 34 46
f 18 8 34
f 111 86 22
f 22 35 111
f 22 4 35
f 22 5 93
f 23 117 92
f 92 40 74
f 92 117 57
f 74 120 92
f 92 119 23
f 120 73 92
f 92 73 50
f 50 119 92
f 30 6 88
f 6 102 88
f 1 30 88
f 88 102 1
f 53 54 95
f 47 105 53
f 95 91 53
f 53 91 69
f 53 69 65
f 107 16 54
f 54 53 107
f 107 53 105
f 72 16 107
f 90 59 101
f 90 105 128
f 128 51 90
f 82 25 65
f 82 60 25
f 84 128 47
f 84 51 128
f 25 51 84
f 47 53 84
f 65 25 84
f 84 53 65
f 81 25 46
f 81 51 25
f 46 127 81
f 126 127 61
f 126 124 127
f 61 71 126
f 71 124 126
f 45 89 100
f 100 89 103
f 39 86 40
f 40 92 39
f 39 80 5
f 57 80 39
f 39 92 57
f 93 4 24
f 24 22 93
f 4 22 24
f 36 107 105
f 105 90 36
f 72 107 36
f 101 72 36
f 36 90 101
f 44 82 65
f 60 82 44
f 65 83 44
f 44 83 60
f 96 90 51
f 51 81 96
f 96 81 127
f 59 90 96
f 127 124 96
f 96 124 59
f 32 49 45
f 45 100 32
f 125 49 32
f 103 125 32
f 32 100 103
f 118 22 86
f 86 39 118
f 5 22 118
f 118 39 5

