# https://github.com/mikedh/trimesh
v 0.00357677 0.05335318 -0.03648784
v 0.00354455 0.05402694 -0.03649212
v 0.00322444 0.05335318 -0.03648784
v 0.00322535 0.05402694 -0.03649212
v 0.00345752 0.05449856 -0.03650496
v 0.00330063 0.05449856 -0.03650496
v 0.00440760 0.05605432 -0.03682715
v 0.00373276 0.05740489 -0.03684749
v 0.00305731 0.05740489 -0.03683464
v 0.00440760 0.05672808 -0.03689672
v 0.00446121 0.05744471 -0.03703159
v 0.00300100 0.07619040 -0.04360164
v 0.00483281 0.05724870 -0.03714291
v 0.00476264 0.05728546 -0.03712151
v 0.00477951 0.07335451 -0.04051999
v 0.00483160 0.07359339 -0.04094922
v 0.00495416 0.07360870 -0.04157754
v 0.00479065 0.07402520 -0.04157754
v 0.00333887 0.07591172 -0.04360164
v 0.00331328 0.07589640 -0.04427706
v 0.00500415 0.07360870 -0.04225081
v 0.00481986 0.07408645 -0.04225081
v 0.00476264 0.07418752 -0.04225081
v 0.00399926 0.07522265 -0.04360164
v 0.00364874 0.07555953 -0.04427706
v 0.00500325 0.07360870 -0.04292623
v 0.00481112 0.07407726 -0.04292623
v 0.00427812 0.07488577 -0.04360164
v 0.00398632 0.07520121 -0.04427706
v 0.00498819 0.07360563 -0.04360164
v 0.00499572 0.07360870 -0.04326554
v 0.00480480 0.07406195 -0.04326554
v 0.00461478 0.07438351 -0.04360164
v 0.00496380 0.07360563 -0.04427706
v 0.00479818 0.07404663 -0.04360164
v 0.01767708 0.02359715 -0.03749910
v 0.01762225 0.02310982 -0.03752425
v 0.01762578 0.02309203 -0.03800030
v 0.01758864 0.02333706 -0.03717726
v 0.01758864 0.02324945 -0.03717726
v 0.01696953 0.02110715 -0.03752425
v 0.01698191 0.02108114 -0.03802251
v 0.01728970 0.02228165 -0.03819936
v 0.01747720 0.02290312 -0.03821528
v 0.01753203 0.02346847 -0.03845080
v 0.01691116 0.02124130 -0.03717978
v 0.01497248 0.01778213 -0.03712865
v 0.01633274 0.01970405 -0.03772121
v 0.01685632 0.02136587 -0.03847259
v 0.01706151 0.02159721 -0.03822827
v 0.01633274 0.01970405 -0.03807657
v 0.01621953 0.01993128 -0.03852665
v 0.01695184 0.02181486 -0.03859202
v 0.01502554 0.01771780 -0.03752425
v 0.01560750 0.01849259 -0.03766966
v 0.01427024 0.01715108 -0.03715798
v 0.01094122 0.01307592 -0.03777359
v 0.01352731 0.01586296 -0.03785782
v 0.01560750 0.01849259 -0.03799485
v 0.01576847 0.01887998 -0.03821193
v 0.01613639 0.01951925 -0.03826054
v 0.01549783 0.01863906 -0.03844493
v 0.01564642 0.01908942 -0.03862974
v 0.01352731 0.01586296 -0.03787291
v 0.00576020 0.01028340 -0.03758543
v 0.00824723 0.01108009 -0.03780209
v 0.01095361 0.01305949 -0.03819936
v 0.01285337 0.01518674 -0.03854216
v 0.01488050 0.01788343 -0.03854341
v 0.01221658 0.01446670 -0.03859370
v 0.00035631 0.00961265 -0.03767720
v 0.00103202 0.00962907 -0.03768684
v 0.00170772 0.00965919 -0.03770738
v 0.00238343 0.00969067 -0.03773378
v 0.00305737 0.00972216 -0.03776689
v 0.00361457 0.00975638 -0.03781088
v 0.00643414 0.01036280 -0.03769774
v 0.00683745 0.01043535 -0.03782304
v 0.00824723 0.01108009 -0.03802419
v 0.01014877 0.01249004 -0.03853754
v 0.01087931 0.01311288 -0.03858993
v 0.01155679 0.01378226 -0.03859747
v 0.00035631 0.00961265 -0.03813818
v 0.00103202 0.00962907 -0.03813315
v 0.00170772 0.00965919 -0.03811178
v 0.00238343 0.00969067 -0.03807951
v 0.00305737 0.00972216 -0.03801749
v 0.00361457 0.00975638 -0.03793786
v 0.00683745 0.01043535 -0.03792739
v 0.00804912 0.01117317 -0.03847469
v 0.00892117 0.01172894 -0.03861633
v 0.00238343 0.00986452 -0.03841727
v 0.00305737 0.00989053 -0.03835525
v 0.00379676 0.00990833 -0.03817757
v 0.00562046 0.01041481 -0.03858825
v 0.00581150 0.01028888 -0.03826012
v 0.00643414 0.01036280 -0.03807113
v 0.00643414 0.01053527 -0.03840889
v 0.00759983 0.01108146 -0.03860292
v 0.00508450 0.01036553 -0.03864357
v 0.00607153 0.01047231 -0.03852581
v -0.00369699 0.07495976 -0.04015820
v -0.00302150 0.07563654 -0.04024004
v -0.00437248 0.07495976 -0.04019639
v -0.00504705 0.07428613 -0.04018821
v -0.00572254 0.07293571 -0.04015438
v -0.00626091 0.07293571 -0.04038408
v -0.00302150 0.07618427 -0.04042772
v -0.00375819 0.07569950 -0.04035952
v -0.00502588 0.07493458 -0.04040699
v -0.00437248 0.07551064 -0.04041899
v -0.00557346 0.07428613 -0.04040808
v -0.00577500 0.07365341 -0.04032024
v -0.00615646 0.07345510 -0.04047246
v -0.00669299 0.07225893 -0.04068361
v -0.00675419 0.07267129 -0.04116755
v -0.00357367 0.07607409 -0.04048938
v -0.00255215 0.07660293 -0.04060013
v -0.00543633 0.07469220 -0.04051393
v -0.00478661 0.07536268 -0.04050520
v -0.00402369 0.07596707 -0.04056903
v -0.00603498 0.07390524 -0.04060723
v -0.00625447 0.07365341 -0.04085984
v -0.00658485 0.07291052 -0.04092585
v -0.00613069 0.07406263 -0.04105734
v -0.00641322 0.07360934 -0.04157620
v -0.00677857 0.07274054 -0.04157620
v -0.00302150 0.07652109 -0.04070871
v -0.00237499 0.07685476 -0.04086693
v -0.00302150 0.07677606 -0.04104643
v -0.00523663 0.07514234 -0.04077909
v -0.00538894 0.07530288 -0.04122921
v -0.00550812 0.07493458 -0.04096241
v -0.00443322 0.07586634 -0.04083692
v -0.00469872 0.07596077 -0.04127885
v -0.00502588 0.07546657 -0.04096241
v -0.00343655 0.07668477 -0.04117028
v -0.00424870 0.07611816 -0.04101915
v -0.00589602 0.07428613 -0.04085984
v -0.00617993 0.07414448 -0.04157620
v -0.00620800 0.07419169 -0.04225111
v -0.00679468 0.07278147 -0.04225111
v -0.00622686 0.07423262 -0.04292656
v -0.00540366 0.07531862 -0.04157620
v -0.00474612 0.07601114 -0.04172952
v -0.00477419 0.07603947 -0.04225111
v -0.00388105 0.07655571 -0.04157620
v -0.00443322 0.07619056 -0.04153310
v -0.00302150 0.07693345 -0.04157620
v -0.00354330 0.07672884 -0.04157620
v -0.00679606 0.07278776 -0.04292656
v -0.00600001 0.07456943 -0.04292656
v -0.00600231 0.07457258 -0.04326646
v -0.00542897 0.07534695 -0.04225111
v -0.00511193 0.07568377 -0.04225111
v -0.00397123 0.07659349 -0.04225111
v -0.00437248 0.07632277 -0.04225111
v -0.00478063 0.07604261 -0.04292656
v -0.00511837 0.07569950 -0.04292656
v -0.00544692 0.07536268 -0.04292656
v -0.00363349 0.07676347 -0.04225111
v -0.00362797 0.07677921 -0.04292656
v -0.00396571 0.07658404 -0.04292656
v -0.00437248 0.07631648 -0.04292656
v -0.00494536 0.07586949 -0.04326646
v -0.00511331 0.07569950 -0.04326646
v -0.00639814 0.07090947 -0.06588949
v -0.00624807 0.07225946 -0.06521454
v -0.00632972 0.07158504 -0.06588949
v -0.00616972 0.07158504 -0.06644179
v -0.00620724 0.07090947 -0.06651180
v -0.00611786 0.07275016 -0.06521454
v -0.00609910 0.07270016 -0.06576136
v -0.00616531 0.07231992 -0.06594760
v -0.00605386 0.07258504 -0.06621116
v -0.00611124 0.07213505 -0.06633288
v -0.00595124 0.07158504 -0.06677902
v -0.00600090 0.07090947 -0.06684950
v -0.00600200 0.07079086 -0.06684995
v -0.00600200 0.07023389 -0.06685133
v -0.00619621 0.07023389 -0.06651409
v -0.00569303 0.07361062 -0.06521454
v -0.00565552 0.07361062 -0.06588949
v -0.00595896 0.07292806 -0.06594760
v -0.00540614 0.07398503 -0.06626974
v -0.00548007 0.07354434 -0.06652278
v -0.00538517 0.07327458 -0.06690349
v -0.00590269 0.07231992 -0.06656076
v -0.00543593 0.07293504 -0.06694147
v -0.00553083 0.07225946 -0.06699775
v -0.00561359 0.07158504 -0.06702247
v -0.00566324 0.07090947 -0.06702063
v -0.00566434 0.07079086 -0.06701926
v -0.00566434 0.07023389 -0.06701285
v -0.00560034 0.06955831 -0.06700599
v -0.00550214 0.06888390 -0.06697579
v -0.00543152 0.06835134 -0.06693506
v -0.00593910 0.06955831 -0.06676438
v -0.00536641 0.06790134 -0.06689160
v -0.00546572 0.07406178 -0.06521454
v -0.00543924 0.07403155 -0.06588949
v -0.00518434 0.07436992 -0.06588949
v -0.00479262 0.07470015 -0.06633654
v -0.00500338 0.07422573 -0.06652828
v -0.00521303 0.07372458 -0.06672000
v -0.00456972 0.07446643 -0.06678681
v -0.00476283 0.07401527 -0.06693324
v -0.00501221 0.07354434 -0.06697899
v -0.00504641 0.07293504 -0.06708058
v -0.00504641 0.07225946 -0.06712680
v -0.00504641 0.07158504 -0.06713777
v -0.00504531 0.06955831 -0.06711993
v -0.00504531 0.06888390 -0.06710437
v -0.00510269 0.06815948 -0.06701422
v -0.00488421 0.06753390 -0.06695978
v -0.00473414 0.06716413 -0.06691539
v -0.00520421 0.07439899 -0.06521454
v -0.00484779 0.07475713 -0.06588949
v -0.00447704 0.07509433 -0.06588949
v -0.00408310 0.07533736 -0.06629170
v -0.00432586 0.07492340 -0.06653925
v -0.00411952 0.07469550 -0.06694376
v -0.00435455 0.07425945 -0.06700553
v -0.00437000 0.07361062 -0.06713640
v -0.00437000 0.07293504 -0.06716111
v 0.00337620 0.06999435 -0.06758255
v 0.00337620 0.06986064 -0.06758255
v -0.00437110 0.06820715 -0.06711627
v -0.00369579 0.06685832 -0.06709156
v -0.00437110 0.06753390 -0.06707920
v -0.00434241 0.06690600 -0.06697762
v -0.00409855 0.06646763 -0.06693461
v -0.00486655 0.07478619 -0.06521454
v -0.00451786 0.07512457 -0.06521454
v -0.00413938 0.07538852 -0.06588949
v -0.00337800 0.07531177 -0.06691127
v -0.00382821 0.07514666 -0.06674150
v -0.00369579 0.07567340 -0.06588949
v -0.00328531 0.07592224 -0.06588949
v -0.00282407 0.07603619 -0.06632190
v -0.00364062 0.07543619 -0.06653605
v -0.00364062 0.07493736 -0.06698311
v -0.00369579 0.07428504 -0.06712770
v 0.00341371 0.06999435 -0.06758255
v -0.00032035 0.07496061 -0.06717759
v 0.00103027 0.07428504 -0.06725492
v 0.00341371 0.06986064 -0.06758255
v 0.00103027 0.06685832 -0.06716843
v -0.00099456 0.06618274 -0.06703436
v -0.00302049 0.06626298 -0.06700599
v -0.00369579 0.06637344 -0.06698036
v -0.00418021 0.07541759 -0.06521454
v -0.00234518 0.07612108 -0.06643172
v -0.00234518 0.07581410 -0.06676942
v -0.00166987 0.07590596 -0.06685590
v -0.00302049 0.07536758 -0.06694284
v -0.00302049 0.07496061 -0.06707279
v -0.00369579 0.07572340 -0.06521454
v -0.00333717 0.07594200 -0.06521454
v -0.00299842 0.07611991 -0.06521454
v -0.00294655 0.07609433 -0.06588949
v -0.00234518 0.07629549 -0.06588949
v -0.00234518 0.07496061 -0.06711078
v -0.00099456 0.07496061 -0.06715928
v 0.00367633 0.07022458 -0.06749561
v 0.00170558 0.07428504 -0.06724073
v 0.00238089 0.07361062 -0.06725766
v 0.00373151 0.07090947 -0.06743063
v 0.00035496 0.07496061 -0.06718033
v -0.00166987 0.07556759 -0.06701834
v -0.00099456 0.07560131 -0.06702978
v 0.00367633 0.06960482 -0.06742696
v 0.00373040 0.06888390 -0.06721923
v 0.00305620 0.06820831 -0.06726819
v 0.00237978 0.06753390 -0.06723021
v 0.00170447 0.06685832 -0.06714830
v 0.00103027 0.06623042 -0.06701560
v -0.00032035 0.06618274 -0.06702933
v -0.00099456 0.06579088 -0.06693552
v -0.00160256 0.06580018 -0.06692865
v -0.00166987 0.06580135 -0.06692775
v -0.00166987 0.06618274 -0.06701926
v 0.00414971 0.06888390 -0.06698677
v -0.00166987 0.07617921 -0.06651775
v -0.00166987 0.07638619 -0.06588949
v -0.00099456 0.07593852 -0.06687741
v -0.00234518 0.07547573 -0.06699089
v 0.00430420 0.07023505 -0.06715928
v 0.00372268 0.07079086 -0.06744161
v 0.00431082 0.07090947 -0.06715333
v 0.00430971 0.07079086 -0.06715471
v 0.00103027 0.07496061 -0.06715516
v 0.00167247 0.07495829 -0.06704076
v 0.00239965 0.07430945 -0.06707509
v 0.00305620 0.07293504 -0.06725629
v 0.00373151 0.07158504 -0.06732310
v -0.00032035 0.07557572 -0.06703711
v 0.00424240 0.06955948 -0.06709247
v 0.00475881 0.07132690 -0.06588949
v 0.00435826 0.07293504 -0.06521454
v 0.00416185 0.07344434 -0.06521454
v 0.00464847 0.07090947 -0.06660286
v 0.00474668 0.07125714 -0.06623359
v -0.00099456 0.07641177 -0.06588949
v -0.00099456 0.07618270 -0.06653971
v -0.00032035 0.07591294 -0.06685179
v -0.00032035 0.07617108 -0.06651409
v 0.00424130 0.07158504 -0.06707417
v 0.00035496 0.07550015 -0.06702384
v 0.00103027 0.07540364 -0.06697807
v 0.00218668 0.07473154 -0.06697807
v 0.00142641 0.07533736 -0.06693324
v 0.00286309 0.07410015 -0.06698723
v 0.00307606 0.07361527 -0.06707326
v 0.00373151 0.07225946 -0.06719039
v 0.00424130 0.07300016 -0.06595263
v 0.00412654 0.07337923 -0.06576914
v 0.00448075 0.07225946 -0.06588949
v 0.00396213 0.07378155 -0.06521454
v 0.00457123 0.07152342 -0.06650127
v 0.00432737 0.07225946 -0.06656488
v -0.00032035 0.07639433 -0.06588949
v 0.00035496 0.07583852 -0.06677171
v 0.00035496 0.07611642 -0.06643401
v 0.00413316 0.07225946 -0.06696343
v 0.00263689 0.07455015 -0.06683531
v 0.00187661 0.07518154 -0.06676988
v 0.00085261 0.07604084 -0.06632739
v 0.00167247 0.07546875 -0.06655298
v 0.00331330 0.07384317 -0.06680511
v 0.00347220 0.07339434 -0.06696618
v 0.00371164 0.07287109 -0.06702841
v 0.00407247 0.07260249 -0.06690487
v 0.00406475 0.07326876 -0.06621940
v 0.00414861 0.07276644 -0.06656488
v 0.00392902 0.07360713 -0.06595263
v 0.00356047 0.07416295 -0.06588949
v 0.00362447 0.07422806 -0.06521454
v 0.00035496 0.07636875 -0.06521454
v 0.00035496 0.07630944 -0.06588949
v 0.00238420 0.07496177 -0.06657723
v 0.00284765 0.07474201 -0.06638459
v 0.00308047 0.07430131 -0.06659462
v 0.00213151 0.07535596 -0.06631961
v 0.00105896 0.07608852 -0.06583137
v 0.00130282 0.07593503 -0.06601807
v 0.00346447 0.07405248 -0.06635485
v 0.00361564 0.07361527 -0.06657403
v 0.00328902 0.07450015 -0.06588949
v 0.00333537 0.07456643 -0.06521454
v 0.00103027 0.07621642 -0.06453961
v 0.00103027 0.07618038 -0.06521454
v 0.00295137 0.07483852 -0.06588949
v 0.00255744 0.07517572 -0.06588949
v 0.00221978 0.07541410 -0.06588949
v 0.00137234 0.07597572 -0.06556781
v 0.00164047 0.07577224 -0.06583137
v 0.00299771 0.07487922 -0.06521454
v 0.00144737 0.07601293 -0.06453961
v 0.00140213 0.07599084 -0.06521454
v 0.00262144 0.07521759 -0.06521454
v 0.00228378 0.07546875 -0.06521454
v 0.00173978 0.07580596 -0.06521454
v 0.00231247 0.07550131 -0.06453961
v 0.00178503 0.07583968 -0.06453961
v -0.00888377 0.01175944 -0.03803156
v -0.00893795 0.01172421 -0.03752408
v -0.00887416 0.01174831 -0.03698933
v -0.00616268 0.01040609 -0.03819959
v -0.00618890 0.01039126 -0.03767540
v -0.00416774 0.00973313 -0.03713554
v -0.00369675 0.00966083 -0.03705817
v -0.00842414 0.01165747 -0.03693548
v -0.00606831 0.01045986 -0.03854245
v -0.00475757 0.00977299 -0.03789932
v -0.00475757 0.00977299 -0.03779537
v -0.00438445 0.00970717 -0.03755169
v -0.00369675 0.00953384 -0.03752408
v -0.00323624 0.00967288 -0.03706669
v -0.00572228 0.01040424 -0.03860994
v -0.00437222 0.00988237 -0.03834580
v -0.00437222 0.00972757 -0.03800805
v -0.00369675 0.00966083 -0.03814131
v -0.00303090 0.00965990 -0.03826094
v -0.00369675 0.00982490 -0.03847906
v -0.00233446 0.00966083 -0.03826128
v -0.00255204 0.00978040 -0.03854859
v -0.00326246 0.00979709 -0.03852712
v -0.00281244 0.00978040 -0.03854859
v 0.00440763 0.02295693 -0.05509315
v 0.00509357 0.02297037 -0.05488084
v 0.00442254 0.02227075 -0.05490113
v 0.00373162 0.02228227 -0.05507910
v 0.00238209 0.02160713 -0.05502212
v 0.00545643 0.02320453 -0.05477547
v 0.00487611 0.02248764 -0.05480357
v 0.00420756 0.02184993 -0.05480981
v 0.00373162 0.02171893 -0.05488162
v 0.00310283 0.02155051 -0.05492533
v 0.00238209 0.02111721 -0.05483713
v -0.00032070 0.02051500 -0.05480279
v -0.00032070 0.02093151 -0.05494250
v 0.00532595 0.02275444 -0.05462091
v 0.00465864 0.02203803 -0.05461779
v 0.00335882 0.02128755 -0.05472629
v 0.00290898 0.02119542 -0.05480044
v 0.00117422 0.02064024 -0.05471458
v 0.00072438 0.02058938 -0.05474893
v 0.00035531 0.02056203 -0.05476844
v -0.00032070 0.02021942 -0.05440782
v 0.00035531 0.02028996 -0.05440782
v 0.00238209 0.02077940 -0.05453818
v 0.00170608 0.02070070 -0.05465604
v 0.00170608 0.02043871 -0.05431884
v 0.00098161 0.02040992 -0.05445700
v -0.01795913 0.02768507 -0.03819968
v -0.01773420 0.02768507 -0.03879659
v -0.01772913 0.02700952 -0.03879220
v -0.01795152 0.02700952 -0.03819968
v -0.01792699 0.02633398 -0.03752416
v -0.01795659 0.02836061 -0.03819968
v -0.01794983 0.02903616 -0.03819968
v -0.01772828 0.02836061 -0.03879422
v -0.01771560 0.02633398 -0.03877668
v -0.01792953 0.02633398 -0.03819968
v -0.01787034 0.02498289 -0.03819968
v -0.01785766 0.02498289 -0.03752416
v -0.01766233 0.02498289 -0.03712735
v -0.01768516 0.02565843 -0.03713241
v -0.01771306 0.02633398 -0.03714894
v -0.01762850 0.03284938 -0.03715400
v -0.01775788 0.03307881 -0.03748637
v -0.01788979 0.03173622 -0.03819968
v -0.01793629 0.02970958 -0.03819968
v -0.01769784 0.02565843 -0.03875036
v -0.01767501 0.02498289 -0.03872100
v -0.01762681 0.02430734 -0.03866465
v -0.01778578 0.02430734 -0.03819934
v -0.01784836 0.02480656 -0.03819934
v -0.01783144 0.02480869 -0.03752416
v -0.01759553 0.02430734 -0.03715704
v -0.01764542 0.02480869 -0.03713477
v -0.01693851 0.02160728 -0.03712768
v -0.01431299 0.01688058 -0.03710204
v -0.01785681 0.03241177 -0.03819968
v -0.01757439 0.02381024 -0.03859447
v -0.01751858 0.02336200 -0.03847401
v -0.01763443 0.02360418 -0.03822938
v -0.01757861 0.02318993 -0.03802388
v -0.01757861 0.02318993 -0.03776103
v -0.01775534 0.02430734 -0.03752416
v -0.01754226 0.02396532 -0.03718606
v -0.01690215 0.02119303 -0.03714928
v -0.01423519 0.01644084 -0.03711588
v -0.01358663 0.01575468 -0.03712971
v -0.01768431 0.03376286 -0.03810723
v -0.01699263 0.02228283 -0.03871560
v -0.01690807 0.02183459 -0.03860459
v -0.01695965 0.02160941 -0.03816560
v -0.01688017 0.02123127 -0.03791760
v -0.01690384 0.02118453 -0.03752416
v -0.01625698 0.01978458 -0.03772897
v -0.01556867 0.01848448 -0.03777250
v -0.01425380 0.01641748 -0.03752416
v -0.01217282 0.01380239 -0.03780658
v -0.01153272 0.01310348 -0.03778296
v -0.01627727 0.02038578 -0.03866668
v -0.01680914 0.02138422 -0.03836772
v -0.01618003 0.01993541 -0.03851686
v -0.01625698 0.01978458 -0.03806640
v -0.01556867 0.01848448 -0.03797833
v -0.01421236 0.01647696 -0.03798036
v -0.01300065 0.01493892 -0.03819934
v -0.01217282 0.01380239 -0.03792873
v -0.01153272 0.01310348 -0.03796956
v -0.01010623 0.01249379 -0.03852529
v -0.01636690 0.02019883 -0.03825468
v -0.01559742 0.01910691 -0.03864036
v -0.01545537 0.01865655 -0.03842879
v -0.01486684 0.01785142 -0.03857456
v -0.01495816 0.01771121 -0.03819934
v -0.01473070 0.01737344 -0.03819934
v -0.01437556 0.01685084 -0.03820306
v -0.01351561 0.01582903 -0.03857253
v -0.01358917 0.01573131 -0.03819934
v -0.01290087 0.01507913 -0.03864474
v -0.01273852 0.01460115 -0.03819934
v -0.01236900 0.01416778 -0.03817235
v -0.01092559 0.01302487 -0.03865352
v -0.01204599 0.01393622 -0.03837885
v -0.01226753 0.01438659 -0.03868996
v -0.01137629 0.01325643 -0.03841968
v -0.01427409 0.01705903 -0.03866465
v -0.01411174 0.01660867 -0.03843082
v -0.01157168 0.02106866 -0.04611378
v -0.01085048 0.01982617 -0.04604589
v -0.01168042 0.02162881 -0.04632486
v -0.01197415 0.02222249 -0.04632857
v -0.01223288 0.02240848 -0.04611982
v -0.01232912 0.02295674 -0.04624312
v -0.01287909 0.02430737 -0.04608315
v -0.00329724 0.01452853 -0.04595029
v -0.01008428 0.01859665 -0.04592103
v -0.01144544 0.02061773 -0.04592805
v -0.01282409 0.02393646 -0.04598600
v -0.01293533 0.02480913 -0.04617250
v -0.00369722 0.01458043 -0.04586192
v -0.00489463 0.01512112 -0.04603282
v -0.00099615 0.01399758 -0.04570897
v -0.00750071 0.01648257 -0.04602384
v -0.00941558 0.01791214 -0.04594132
v -0.00869437 0.01727413 -0.04589938
v -0.00534585 0.01521087 -0.04594093
v -0.00668201 0.01590187 -0.04592942
v -0.00795068 0.01664369 -0.04581530
v -0.00572333 0.01530495 -0.04579598
v -0.00681716 0.02633641 -0.05484378
v -0.00677336 0.02589359 -0.05479107
v -0.00604520 0.02399728 -0.05472044
v -0.00302034 0.02160812 -0.05504643
v -0.00624504 0.02498589 -0.05491162
v -0.00613691 0.02444745 -0.05482631
v -0.00549908 0.02312488 -0.05482969
v -0.00529925 0.02267471 -0.05459988
v -0.00099600 0.02021788 -0.05440869
v -0.00562911 0.02363390 -0.05490032
v -0.00039240 0.02093286 -0.05494525
v -0.00099600 0.02093286 -0.05495906
v -0.00234556 0.02101672 -0.05490017
v -0.00302034 0.02109175 -0.05488006
v -0.00350212 0.02117560 -0.05482690
v -0.00395243 0.02138598 -0.05466346
v -0.00039240 0.02021935 -0.05440869
v -0.00234556 0.02039884 -0.05432338
v -0.00168173 0.02036353 -0.05445994
v -0.00146410 0.02055478 -0.05477257
v -0.00099600 0.02051506 -0.05480296
v -0.00039240 0.02051653 -0.05480355
v 0.00610354 0.02462399 -0.05475421
v 0.00554373 0.02363390 -0.05484217
v 0.00576820 0.02436359 -0.05489239
v -0.00039240 0.02056213 -0.05482059
v -0.00234556 0.02067983 -0.05466067
v -0.00302034 0.02075486 -0.05452396
v 0.00613913 0.02498589 -0.05478975
v 0.01286337 0.02392680 -0.04598480
v 0.01304023 0.02565975 -0.04619005
v 0.01298187 0.02498422 -0.04613040
v 0.01290736 0.02430870 -0.04604284
v 0.01767633 0.02359715 -0.03749460
v 0.01788735 0.02566084 -0.03819963
v 0.01791399 0.02633611 -0.03819963
v 0.01801424 0.02903612 -0.03819963
v 0.01785300 0.02903612 -0.03781387
v 0.01761534 0.03217983 -0.03782865
v 0.01766862 0.02359715 -0.03818814
v 0.01778289 0.02430921 -0.03819963
v 0.01784599 0.02498557 -0.03819963
v 0.01770508 0.02566084 -0.03869209
v 0.01767704 0.02498557 -0.03866090
v 0.01771770 0.02633611 -0.03870687
v 0.01772821 0.02701139 -0.03872246
v 0.01773873 0.02768666 -0.03873231
v 0.01758099 0.03209325 -0.03854107
v 0.01760834 0.03216792 -0.03819963
v 0.01762306 0.02359715 -0.03830059
v 0.01767493 0.02367182 -0.03821523
v 0.01758660 0.02391963 -0.03855010
v 0.01762446 0.02430921 -0.03859688
v 0.01626067 0.03565183 -0.03784058
v -0.00679582 0.07279044 -0.04326687
v -0.00679582 0.07278904 -0.04360333
v -0.00679059 0.07276940 -0.04427817
v -0.00622525 0.07423522 -0.04326687
v -0.00622329 0.07423732 -0.04360333
v -0.00183452 0.07744808 -0.04360333
v -0.00215804 0.07736743 -0.04360333
v -0.00600368 0.07457466 -0.04360333
v -0.00063129 0.07664996 -0.06287564
v -0.00183452 0.07744528 -0.04405130
v -0.00213843 0.07736673 -0.04427817
v -0.00544488 0.07536158 -0.04326687
v -0.00544292 0.07535947 -0.04360333
v -0.00066723 0.07664996 -0.06287564
v -0.00050972 0.07665697 -0.06251034
v -0.00032084 0.07664785 -0.06224502
v -0.00210183 0.07735831 -0.04495493
v -0.00355212 0.07675656 -0.04495493
v -0.00510828 0.07569682 -0.04360333
v -0.00509325 0.07567789 -0.04427817
v -0.00205347 0.07734218 -0.04562977
v -0.00388937 0.07654686 -0.04495493
v -0.00477561 0.07603697 -0.04326687
v -0.00477039 0.07603066 -0.04360333
v -0.00475601 0.07601523 -0.04427817
v 0.00274840 0.07639833 -0.04326687
v -0.00167021 0.07744198 -0.04562977
v -0.00003047 0.07663159 -0.06183550
v 0.00255412 0.07653976 -0.04326687
v -0.00167021 0.07748689 -0.04326687
v -0.00167021 0.07747281 -0.04495493
v -0.00099456 0.07760151 -0.04495493
v -0.00031956 0.07761358 -0.04495493
v 0.00035609 0.07751974 -0.04427817
v 0.00221663 0.07675626 -0.04326687
v -0.00133006 0.07754721 -0.04326687
v -0.00099456 0.07760821 -0.04360333
v -0.00099456 0.07761090 -0.04427817
v -0.00167021 0.07748756 -0.04360333
v -0.00167021 0.07748421 -0.04427817
v -0.00183399 0.07744332 -0.04427817
v -0.00031956 0.07763905 -0.04427817
v 0.00081360 0.07737361 -0.04427817
v 0.00035609 0.07753180 -0.04360333
v 0.00084675 0.07738166 -0.04360333
v 0.00085139 0.07738166 -0.04326687
v -0.00099456 0.07760353 -0.04326687
v -0.00031956 0.07763838 -0.04360333
v 0.00035609 0.07752778 -0.04326687
v -0.00065507 0.07761827 -0.04326687
v 0.00476290 0.07414681 -0.04318604
v 0.00462037 0.07440060 -0.04326646
v -0.00213674 0.07736307 -0.04292643
v -0.00214722 0.07736558 -0.04326646
v 0.00445058 0.07465187 -0.04326646
v 0.00462596 0.07441316 -0.04292643
v 0.00288969 0.05723633 -0.03683278
v 0.00238104 0.05672877 -0.03682820
v -0.00031943 0.07631025 -0.04024677
v -0.00099507 0.07631025 -0.04028012
v -0.00167001 0.07631025 -0.04032654
v -0.00207805 0.07734799 -0.04225096
v -0.00167001 0.07746860 -0.04225096
v -0.00167001 0.07748368 -0.04292643
v 0.00428918 0.07490565 -0.04292643
v 0.00462316 0.07442572 -0.04225096
v 0.00449181 0.07225977 -0.04000025
v 0.00035691 0.07631025 -0.04021800
v -0.00031943 0.07681530 -0.04042332
v -0.00099507 0.07679269 -0.04044948
v -0.00233377 0.07635045 -0.04041613
v 0.00408936 0.07263165 -0.03988124
v 0.00103186 0.07631025 -0.04023500
v -0.00202844 0.07733040 -0.04185601
v -0.00165534 0.07738568 -0.04160884
v -0.00099507 0.07749122 -0.04157549
v -0.00099507 0.07757916 -0.04225096
v -0.00099507 0.07759675 -0.04292643
v 0.00476290 0.07407394 -0.04157549
v 0.00400342 0.07523482 -0.04326646
v 0.00428569 0.07491318 -0.04225096
v 0.00400901 0.07524235 -0.04292643
v 0.00401879 0.07524989 -0.04225096
v 0.00458194 0.07436793 -0.04157549
v 0.00424447 0.07487047 -0.04157549
v 0.00476290 0.07334024 -0.04050179
v 0.00443591 0.07359402 -0.04035466
v 0.00435207 0.07288795 -0.04009114
v 0.00035691 0.07681530 -0.04040436
v -0.00031943 0.07715452 -0.04079735
v -0.00099507 0.07712939 -0.04082416
v -0.00167001 0.07672735 -0.04049917
v -0.00210110 0.07667459 -0.04054233
v -0.00237499 0.07663187 -0.04057764
v 0.00373232 0.07428501 -0.04023369
v 0.00305598 0.07496092 -0.04022192
v 0.00238034 0.07563433 -0.04027489
v 0.00171868 0.07634040 -0.04037624
v 0.00103186 0.07678264 -0.04042790
v -0.00229115 0.07719723 -0.04160884
v -0.00186914 0.07729020 -0.04140613
v -0.00141918 0.07733794 -0.04121388
v -0.00031943 0.07749373 -0.04157549
v -0.00099507 0.07736810 -0.04116157
v -0.00031943 0.07738568 -0.04113542
v -0.00031943 0.07757162 -0.04225096
v -0.00031943 0.07761686 -0.04292643
v -0.00031943 0.07762942 -0.04326646
v 0.00476290 0.07397846 -0.04128842
v 0.00334454 0.07592078 -0.04326646
v 0.00399922 0.07520968 -0.04157549
v 0.00335153 0.07592580 -0.04292643
v 0.00366175 0.07556900 -0.04157549
v 0.00335153 0.07592580 -0.04225096
v 0.00475452 0.07396338 -0.04120473
v 0.00414735 0.07473730 -0.04090067
v 0.00476290 0.07337039 -0.04051095
v 0.00419696 0.07428501 -0.04046059
v 0.00035691 0.07715452 -0.04083593
v -0.00165534 0.07709672 -0.04095363
v -0.00237499 0.07681279 -0.04080781
v 0.00369529 0.07490314 -0.04044948
v 0.00344586 0.07535291 -0.04052141
v 0.00298891 0.07560167 -0.04045209
v 0.00238034 0.07609416 -0.04047956
v 0.00150208 0.07671228 -0.04049525
v 0.00099622 0.07712436 -0.04095232
v 0.00074818 0.07733543 -0.04121192
v -0.00233377 0.07685801 -0.04085555
v 0.00035691 0.07735804 -0.04117334
v 0.00035691 0.07743091 -0.04157549
v 0.00035691 0.07749122 -0.04225096
v 0.00035691 0.07752137 -0.04292643
v 0.00300707 0.07620220 -0.04326646
v 0.00301336 0.07620974 -0.04292643
v 0.00355485 0.07546849 -0.04090067
v 0.00389302 0.07507399 -0.04090067
v 0.00301336 0.07621225 -0.04225096
v 0.00332638 0.07590821 -0.04157549
v 0.00449740 0.07422722 -0.04094840
v 0.00467976 0.07381011 -0.04075485
v 0.00476290 0.07369201 -0.04086012
v 0.00408097 0.07463679 -0.04055148
v 0.00318315 0.07580771 -0.04090067
v 0.00271991 0.07597355 -0.04056260
v 0.00171868 0.07683289 -0.04087843
v 0.00195274 0.07658413 -0.04063845
v 0.00081526 0.07736056 -0.04157549
v 0.00215746 0.07672484 -0.04108899
v 0.00170540 0.07701381 -0.04157549
v 0.00085718 0.07737815 -0.04225096
v 0.00085648 0.07738066 -0.04292643
v 0.00257179 0.07654644 -0.04292643
v 0.00258786 0.07654896 -0.04225096
v 0.00298891 0.07619215 -0.04157549
v 0.00256829 0.07653137 -0.04157549
v 0.00284498 0.07607908 -0.04090067
v 0.00223152 0.07677761 -0.04157549
v 0.00224899 0.07678515 -0.04225096
v 0.00223431 0.07676505 -0.04292643
v 0.00948696 0.01720461 -0.04530524
v 0.01001034 0.01803934 -0.04562823
v 0.00964141 0.01759947 -0.04556954
v 0.01216352 0.02196617 -0.04593971
v 0.01224688 0.02241639 -0.04605563
v 0.01149283 0.02060230 -0.04595365
v 0.01160440 0.02105252 -0.04608904
v 0.01080162 0.01927147 -0.04591962
v 0.01092473 0.01972169 -0.04607008
v 0.01017452 0.01853338 -0.04599071
v 0.00951922 0.01785474 -0.04599711
v 0.00746867 0.01584906 -0.04598606
v 0.00624783 0.01511569 -0.04606418
v 0.00575924 0.01504395 -0.04614531
v 0.00348812 0.01449746 -0.04598719
v -0.01295456 0.02498597 -0.04620365
v -0.01270359 0.02498597 -0.04654137
v -0.01584111 0.03710115 -0.03703476
v -0.01621860 0.03684942 -0.03709566
v -0.01760319 0.03423452 -0.03777859
v -0.01768282 0.03377985 -0.03767159
v -0.01760319 0.03423452 -0.03797400
v -0.01768282 0.03377985 -0.03810233
v -0.00032018 0.01395103 -0.04579442
v 0.00035597 0.01393472 -0.04583112
v -0.00039491 0.01395583 -0.04578485
v 0.00035597 0.01373232 -0.04549342
v 0.00103029 0.01395151 -0.04580400
v 0.00103029 0.01373328 -0.04546683
v 0.00170644 0.01399468 -0.04573008
v 0.00170644 0.01377645 -0.04539238
v 0.00217482 0.01381722 -0.04532909
f 232 531 523
f 454 373 444
f 106 105 113
f 9 103 102
f 520 531 232
f 276 275 393
f 393 394 276
f 276 394 277
f 277 248 276
f 393 275 274
f 532 523 531
f 541 283 539
f 283 541 540
f 540 541 539
f 34 565 300
f 553 554 39
f 368 373 454
f 113 114 107
f 225 224 226
f 210 224 225
f 226 224 243
f 257 263 243
f 232 523 231
f 199 518 198
f 591 597 262
f 262 260 591
f 612 604 603
f 465 466 454
f 402 394 401
f 401 527 402
f 277 394 402
f 402 527 277
f 250 282 281
f 528 250 281
f 520 250 528
f 277 527 528
f 393 274 390
f 390 274 391
f 495 523 496
f 523 503 496
f 511 503 523
f 476 513 374
f 545 548 539
f 539 548 549
f 553 562 563
f 559 551 560
f 613 604 615
f 615 729 613
f 294 266 293
f 555 39 554
f 555 554 553
f 553 565 555
f 628 105 748
f 501 447 446
f 437 746 446
f 438 446 447
f 438 439 437
f 437 446 438
f 748 431 428
f 428 373 748
f 439 438 427
f 454 466 455
f 455 368 454
f 466 368 455
f 369 476 374
f 104 102 103
f 104 105 9
f 9 102 104
f 113 105 112
f 112 114 113
f 114 431 749
f 749 107 114
f 749 431 748
f 113 107 749
f 749 106 113
f 748 105 749
f 105 106 749
f 539 549 546
f 547 560 569
f 569 548 547
f 560 557 569
f 373 47 1
f 742 80 91
f 752 573 172
f 172 168 752
f 583 233 217
f 578 583 200
f 200 583 217
f 269 266 246
f 270 263 257
f 209 224 210
f 518 199 521
f 216 231 523
f 523 199 216
f 614 604 612
f 615 604 614
f 612 603 602
f 603 584 602
f 602 262 597
f 458 447 457
f 457 499 458
f 447 499 457
f 505 447 501
f 505 499 447
f 501 518 500
f 518 499 500
f 500 505 501
f 499 505 500
f 495 499 498
f 519 499 518
f 519 498 499
f 519 523 495
f 198 518 180
f 180 746 437
f 437 436 180
f 180 436 181
f 747 518 501
f 747 746 518
f 278 248 277
f 277 528 278
f 278 528 279
f 281 282 249
f 249 278 279
f 248 278 249
f 282 250 249
f 251 520 232
f 251 250 520
f 280 528 281
f 279 528 280
f 281 249 280
f 280 249 279
f 542 527 401
f 542 528 527
f 401 525 537
f 393 390 392
f 392 390 391
f 391 274 247
f 247 272 391
f 247 274 275
f 275 276 247
f 247 276 248
f 395 540 539
f 272 247 265
f 399 394 393
f 745 762 760
f 744 762 745
f 495 496 504
f 523 532 524
f 524 511 523
f 532 511 524
f 512 532 531
f 512 511 532
f 489 511 512
f 544 513 531
f 752 169 753
f 175 169 174
f 174 169 752
f 445 169 167
f 181 424 418
f 416 417 418
f 435 424 181
f 181 436 435
f 435 425 424
f 191 209 210
f 558 557 560
f 560 551 558
f 552 559 553
f 551 559 552
f 34 300 301
f 352 339 604
f 604 613 352
f 340 339 352
f 352 345 340
f 295 296 268
f 564 565 553
f 553 303 564
f 564 303 565
f 299 300 565
f 565 303 299
f 299 303 300
f 553 563 302
f 302 303 553
f 302 563 562
f 300 303 318
f 570 10 555
f 665 657 688
f 751 431 114
f 114 750 751
f 751 753 445
f 115 750 114
f 421 417 416
f 421 422 417
f 417 422 423
f 437 439 426
f 426 436 437
f 439 427 426
f 426 435 436
f 425 435 426
f 459 447 458
f 464 465 454
f 454 463 464
f 464 463 471
f 460 459 470
f 501 446 506
f 506 446 746
f 506 747 501
f 746 747 506
f 450 438 449
f 447 459 449
f 449 459 460
f 462 463 453
f 453 463 454
f 441 452 453
f 451 438 450
f 450 453 451
f 451 453 452
f 451 452 441
f 420 421 416
f 425 426 420
f 420 426 427
f 422 421 420
f 434 422 420
f 420 427 428
f 420 433 434
f 476 369 366
f 376 371 370
f 370 371 368
f 134 138 135
f 121 138 134
f 132 136 135
f 121 134 120
f 120 134 135
f 135 136 120
f 53 546 45
f 568 549 548
f 548 569 568
f 568 546 549
f 45 546 568
f 568 569 557
f 37 38 557
f 375 369 374
f 375 378 376
f 382 378 375
f 376 370 375
f 375 370 369
f 40 1 47
f 39 1 40
f 47 46 40
f 46 41 40
f 41 37 40
f 553 39 40
f 748 373 3
f 373 1 3
f 39 555 5
f 5 8 9
f 743 742 91
f 743 91 90
f 744 412 743
f 743 412 405
f 182 172 575
f 575 200 182
f 575 172 573
f 578 200 575
f 595 592 252
f 234 595 252
f 233 595 234
f 182 200 183
f 183 172 182
f 245 269 246
f 245 246 226
f 226 243 245
f 266 269 292
f 293 266 292
f 292 310 293
f 257 256 287
f 287 270 257
f 297 292 269
f 286 306 297
f 224 209 208
f 208 209 187
f 187 177 188
f 257 243 242
f 237 222 221
f 221 222 206
f 526 199 523
f 526 521 199
f 199 214 215
f 231 216 215
f 215 216 199
f 219 234 235
f 235 234 252
f 259 588 260
f 260 239 259
f 598 603 604
f 604 339 598
f 618 614 612
f 728 720 719
f 729 720 728
f 703 618 678
f 692 688 713
f 665 688 692
f 694 667 666
f 665 692 666
f 639 629 638
f 9 8 638
f 638 103 9
f 638 629 103
f 518 521 522
f 522 519 518
f 523 519 522
f 522 526 523
f 521 526 522
f 495 498 497
f 497 519 495
f 498 519 497
f 518 746 517
f 517 180 518
f 746 180 517
f 197 199 198
f 198 180 197
f 197 214 199
f 484 496 503
f 503 486 484
f 503 511 491
f 491 486 503
f 250 251 229
f 232 231 229
f 229 251 232
f 248 249 229
f 229 249 250
f 538 542 401
f 401 537 538
f 528 542 538
f 538 537 528
f 520 528 529
f 528 537 529
f 397 743 405
f 742 743 397
f 393 392 397
f 540 395 273
f 283 540 273
f 273 272 283
f 391 272 273
f 273 395 391
f 539 546 735
f 244 265 247
f 268 265 244
f 226 246 244
f 246 266 244
f 533 525 401
f 401 410 533
f 394 399 400
f 401 394 400
f 400 409 401
f 758 410 411
f 401 409 411
f 411 410 401
f 744 745 414
f 510 512 531
f 536 535 534
f 536 537 525
f 525 535 536
f 456 169 445
f 445 753 456
f 456 753 169
f 168 172 173
f 752 168 173
f 173 174 752
f 175 174 173
f 172 183 173
f 170 167 169
f 170 177 178
f 424 425 419
f 419 418 424
f 416 418 419
f 419 420 416
f 425 420 419
f 187 209 189
f 189 177 187
f 211 191 210
f 211 225 226
f 210 225 211
f 319 301 317
f 317 301 300
f 713 15 711
f 15 555 16
f 34 301 35
f 35 32 34
f 350 29 338
f 25 29 350
f 365 359 605
f 345 352 356
f 355 357 356
f 266 294 267
f 294 295 267
f 267 244 266
f 267 295 268
f 268 244 267
f 314 295 294
f 314 331 332
f 311 294 293
f 561 302 562
f 559 302 561
f 561 562 553
f 553 559 561
f 288 559 560
f 288 302 559
f 288 560 547
f 547 548 288
f 272 265 288
f 555 10 7
f 7 5 555
f 7 10 8
f 8 5 7
f 642 657 665
f 665 666 642
f 432 751 445
f 431 751 432
f 445 433 432
f 432 420 431
f 433 420 432
f 116 750 124
f 750 115 124
f 124 115 114
f 127 750 116
f 127 142 750
f 143 142 127
f 468 459 458
f 468 470 459
f 458 499 467
f 471 470 469
f 458 467 469
f 495 504 469
f 504 478 469
f 469 499 495
f 469 467 499
f 469 468 458
f 448 438 447
f 447 449 448
f 448 449 438
f 450 449 461
f 461 453 450
f 461 449 460
f 460 470 461
f 461 470 462
f 462 453 461
f 441 453 443
f 443 444 373
f 373 428 443
f 454 444 443
f 443 453 454
f 440 427 438
f 438 451 440
f 441 427 440
f 440 451 441
f 431 420 430
f 367 366 369
f 369 370 367
f 367 370 368
f 367 368 466
f 109 104 103
f 103 108 109
f 114 112 122
f 144 143 141
f 141 132 144
f 143 127 141
f 105 104 110
f 110 112 105
f 695 694 715
f 719 717 715
f 719 720 698
f 103 629 630
f 630 629 639
f 42 52 49
f 51 52 42
f 38 37 42
f 42 37 41
f 45 38 44
f 44 53 45
f 567 568 557
f 48 46 47
f 48 41 46
f 51 42 48
f 48 42 41
f 377 371 376
f 376 378 377
f 377 378 371
f 371 378 372
f 379 47 372
f 372 47 373
f 373 368 372
f 368 371 372
f 525 533 755
f 755 410 758
f 755 533 410
f 36 558 551
f 36 40 37
f 557 558 36
f 36 37 557
f 2 1 39
f 39 5 2
f 9 105 627
f 105 628 627
f 748 3 4
f 56 57 47
f 56 66 57
f 65 66 56
f 56 47 379
f 379 65 56
f 91 80 79
f 90 91 79
f 47 57 58
f 47 58 54
f 54 58 64
f 67 79 80
f 67 58 57
f 64 58 67
f 57 66 67
f 66 79 67
f 744 743 101
f 572 575 573
f 572 573 752
f 233 583 590
f 590 595 233
f 594 595 589
f 589 590 583
f 595 590 589
f 578 143 153
f 153 160 578
f 582 583 578
f 578 160 582
f 186 187 175
f 202 200 217
f 264 243 263
f 264 245 243
f 263 270 264
f 270 245 264
f 323 306 324
f 310 306 323
f 324 306 307
f 286 305 307
f 307 306 286
f 271 245 270
f 271 270 286
f 286 297 271
f 269 245 271
f 271 297 269
f 310 292 309
f 292 297 309
f 309 306 310
f 309 297 306
f 224 208 223
f 223 243 224
f 223 242 243
f 222 242 223
f 207 208 187
f 187 206 207
f 207 206 222
f 222 223 207
f 207 223 208
f 591 260 587
f 260 588 587
f 238 235 252
f 238 259 239
f 262 240 261
f 261 240 239
f 260 262 261
f 261 239 260
f 284 304 305
f 284 305 286
f 584 304 285
f 262 602 285
f 285 602 584
f 304 284 285
f 612 602 608
f 608 618 612
f 602 610 608
f 591 587 601
f 601 597 591
f 601 602 597
f 601 610 602
f 615 614 616
f 614 722 616
f 616 729 615
f 616 722 729
f 614 618 619
f 618 703 619
f 677 703 678
f 643 638 8
f 8 642 643
f 643 666 667
f 643 642 666
f 480 504 496
f 480 478 504
f 472 464 471
f 492 511 489
f 492 491 511
f 491 492 475
f 475 492 489
f 489 476 475
f 476 366 475
f 475 367 466
f 366 367 475
f 228 229 213
f 227 247 248
f 248 229 227
f 229 228 227
f 227 228 213
f 227 211 226
f 230 229 231
f 231 215 230
f 230 215 214
f 230 214 213
f 213 229 230
f 531 520 530
f 520 529 530
f 530 529 537
f 537 536 530
f 534 535 502
f 502 535 525
f 398 399 393
f 393 397 398
f 398 397 405
f 406 400 399
f 406 398 405
f 399 398 406
f 405 412 406
f 75 65 379
f 415 745 760
f 415 414 745
f 531 513 514
f 514 510 531
f 489 510 514
f 514 476 489
f 489 512 515
f 515 510 489
f 512 510 515
f 534 544 543
f 543 536 534
f 543 544 531
f 531 530 543
f 543 530 536
f 175 173 184
f 184 173 183
f 167 170 171
f 171 433 445
f 445 167 171
f 171 170 178
f 434 433 171
f 178 179 171
f 171 422 434
f 171 180 181
f 179 180 171
f 171 423 422
f 417 423 171
f 181 418 171
f 171 418 417
f 176 169 175
f 176 170 169
f 175 187 176
f 187 188 176
f 176 188 177
f 177 170 176
f 190 191 178
f 178 177 190
f 177 189 190
f 209 191 190
f 190 189 209
f 212 227 213
f 211 227 212
f 191 211 192
f 178 191 192
f 211 212 192
f 192 212 193
f 192 179 178
f 192 180 179
f 192 193 180
f 300 318 316
f 316 317 300
f 316 318 303
f 303 321 316
f 713 711 710
f 712 711 15
f 15 16 712
f 555 21 17
f 17 16 555
f 21 22 17
f 32 35 621
f 621 301 33
f 621 35 301
f 622 301 319
f 33 301 622
f 622 621 33
f 349 350 338
f 358 361 20
f 20 361 12
f 25 350 20
f 20 350 358
f 364 596 12
f 12 361 364
f 364 361 362
f 362 365 364
f 599 723 364
f 364 723 596
f 730 613 729
f 730 605 613
f 729 723 730
f 730 723 599
f 365 605 730
f 730 364 365
f 599 364 730
f 351 359 352
f 351 605 359
f 351 352 613
f 613 605 351
f 360 356 352
f 360 359 365
f 352 359 360
f 363 365 362
f 362 355 363
f 355 356 363
f 363 360 365
f 356 360 363
f 346 356 357
f 345 356 346
f 346 357 355
f 310 323 312
f 293 310 312
f 312 311 293
f 347 330 343
f 343 330 326
f 331 314 313
f 313 330 331
f 326 330 313
f 311 326 313
f 313 314 294
f 294 311 313
f 548 545 298
f 298 288 548
f 298 545 539
f 539 283 298
f 283 272 298
f 272 288 298
f 289 265 268
f 303 302 320
f 320 321 303
f 296 295 315
f 315 314 332
f 295 314 315
f 268 296 290
f 290 289 268
f 265 289 290
f 8 10 11
f 11 642 8
f 10 570 11
f 637 642 570
f 570 656 637
f 637 656 657
f 470 468 477
f 477 469 470
f 468 469 477
f 441 443 442
f 442 443 428
f 442 427 441
f 428 427 442
f 429 420 428
f 429 430 420
f 429 428 431
f 431 430 429
f 117 109 108
f 104 109 111
f 111 110 104
f 120 110 111
f 121 120 111
f 111 117 121
f 109 117 111
f 119 122 112
f 112 110 119
f 119 110 120
f 716 717 719
f 719 698 716
f 703 677 702
f 702 677 676
f 721 619 703
f 721 722 614
f 614 619 721
f 721 720 729
f 729 722 721
f 631 108 103
f 103 630 631
f 53 44 50
f 49 53 50
f 50 42 49
f 556 38 45
f 557 38 556
f 556 567 557
f 45 568 566
f 568 567 566
f 566 556 45
f 567 556 566
f 381 375 374
f 382 375 381
f 551 552 550
f 550 36 551
f 550 552 553
f 553 40 550
f 40 36 550
f 748 4 6
f 6 628 748
f 6 627 628
f 6 5 9
f 9 627 6
f 77 66 65
f 77 78 66
f 97 88 96
f 96 101 97
f 97 101 98
f 55 48 47
f 47 54 55
f 99 743 90
f 90 98 99
f 99 101 743
f 98 101 99
f 151 142 143
f 750 142 151
f 574 572 143
f 575 572 574
f 574 143 578
f 578 575 574
f 165 589 583
f 594 589 165
f 146 157 158
f 144 132 146
f 156 150 161
f 158 157 156
f 166 165 583
f 158 165 166
f 159 582 160
f 159 146 158
f 160 146 159
f 158 166 159
f 583 582 159
f 159 166 583
f 152 154 160
f 152 153 143
f 160 153 152
f 152 143 144
f 144 154 152
f 205 206 187
f 217 233 218
f 218 202 217
f 218 234 219
f 233 234 218
f 201 183 200
f 200 202 201
f 221 206 203
f 202 218 203
f 203 218 219
f 305 304 322
f 322 307 305
f 322 339 340
f 340 324 322
f 324 307 322
f 162 156 161
f 644 633 632
f 258 238 252
f 259 238 258
f 252 592 258
f 258 592 588
f 588 259 258
f 253 240 262
f 262 285 253
f 253 285 284
f 240 241 220
f 239 240 220
f 220 238 239
f 235 238 220
f 219 235 220
f 220 203 219
f 221 203 220
f 220 237 221
f 579 585 339
f 339 322 579
f 579 584 603
f 603 585 579
f 579 304 584
f 579 322 304
f 586 598 339
f 339 585 586
f 603 598 586
f 586 585 603
f 648 634 633
f 600 608 609
f 609 608 610
f 609 576 600
f 610 576 609
f 726 728 719
f 724 723 729
f 724 726 708
f 729 728 724
f 728 726 724
f 705 724 708
f 723 724 705
f 496 484 493
f 493 480 496
f 484 480 493
f 494 480 484
f 471 469 479
f 479 480 471
f 479 469 478
f 478 480 479
f 486 491 487
f 513 544 508
f 507 544 534
f 534 502 507
f 507 508 544
f 374 513 507
f 513 508 507
f 413 406 412
f 413 412 744
f 744 414 413
f 760 762 761
f 95 101 96
f 96 88 95
f 88 94 95
f 95 761 762
f 95 762 744
f 744 101 95
f 74 75 379
f 513 476 516
f 516 514 513
f 476 514 516
f 196 197 180
f 180 195 196
f 196 195 213
f 213 214 196
f 214 197 196
f 180 193 194
f 194 195 180
f 193 212 194
f 213 195 194
f 194 212 213
f 348 330 347
f 334 336 317
f 317 316 334
f 347 336 334
f 334 348 347
f 685 712 16
f 685 17 679
f 16 17 685
f 711 712 685
f 685 710 711
f 26 22 21
f 26 21 555
f 555 31 26
f 30 565 34
f 30 555 565
f 30 31 555
f 31 30 27
f 22 26 27
f 27 26 31
f 32 621 27
f 34 32 27
f 27 30 34
f 621 622 27
f 337 338 319
f 337 349 338
f 319 317 337
f 317 336 337
f 337 336 347
f 347 349 337
f 342 326 341
f 342 343 326
f 342 349 347
f 347 343 342
f 358 350 353
f 350 349 353
f 353 361 358
f 349 342 353
f 344 346 355
f 344 342 341
f 329 312 328
f 328 323 324
f 328 312 323
f 345 346 328
f 328 344 329
f 346 344 328
f 328 324 340
f 340 345 328
f 302 288 291
f 291 290 302
f 291 288 265
f 265 290 291
f 308 320 302
f 302 290 308
f 296 315 308
f 308 290 296
f 570 642 13
f 687 570 555
f 687 656 570
f 687 555 15
f 657 656 687
f 687 688 657
f 687 15 713
f 713 688 687
f 657 642 658
f 658 637 657
f 642 637 658
f 640 630 639
f 640 631 630
f 121 117 128
f 161 150 149
f 644 632 149
f 149 632 161
f 132 119 131
f 131 119 120
f 136 132 131
f 131 120 136
f 132 122 133
f 133 119 132
f 122 119 133
f 139 122 132
f 132 125 139
f 139 125 122
f 132 141 140
f 140 125 132
f 122 125 123
f 123 124 114
f 114 122 123
f 116 124 123
f 123 125 116
f 668 643 667
f 668 669 643
f 668 694 695
f 668 667 694
f 717 716 696
f 669 668 696
f 696 668 695
f 695 715 696
f 696 715 717
f 639 638 659
f 638 643 659
f 643 669 659
f 689 669 698
f 689 659 669
f 701 702 676
f 645 633 644
f 644 671 645
f 718 701 698
f 702 701 718
f 718 698 720
f 720 721 718
f 703 702 718
f 718 721 703
f 43 44 38
f 43 50 44
f 38 42 43
f 42 50 43
f 525 755 754
f 380 381 374
f 502 381 380
f 374 507 380
f 380 507 502
f 78 77 76
f 76 77 65
f 65 75 76
f 88 97 89
f 90 79 89
f 89 98 90
f 89 97 98
f 52 736 734
f 49 52 734
f 734 53 49
f 734 395 539
f 539 735 734
f 546 53 734
f 734 735 546
f 740 68 70
f 64 67 70
f 70 68 64
f 391 395 396
f 395 403 396
f 396 392 391
f 396 397 392
f 143 572 571
f 571 151 143
f 750 151 571
f 752 750 571
f 571 572 752
f 160 154 155
f 155 146 160
f 155 154 144
f 144 146 155
f 157 146 145
f 145 156 157
f 148 156 145
f 135 148 145
f 145 132 135
f 145 146 132
f 150 156 147
f 147 156 148
f 147 148 135
f 158 156 164
f 206 205 204
f 204 203 206
f 581 587 588
f 588 162 581
f 581 601 587
f 163 162 588
f 156 162 163
f 588 592 163
f 163 164 156
f 592 595 163
f 163 595 594
f 594 164 163
f 161 632 623
f 623 162 161
f 624 162 623
f 623 632 633
f 633 634 623
f 623 634 624
f 240 253 236
f 236 241 240
f 237 220 236
f 236 220 241
f 236 256 257
f 257 242 236
f 236 242 222
f 222 237 236
f 255 284 286
f 255 253 284
f 255 287 256
f 256 236 255
f 286 270 255
f 270 287 255
f 618 608 607
f 607 608 600
f 596 723 704
f 723 705 704
f 12 596 704
f 482 472 471
f 484 472 483
f 483 494 484
f 472 482 483
f 483 482 494
f 473 484 486
f 486 487 473
f 464 472 473
f 465 464 474
f 464 473 474
f 474 473 487
f 491 475 490
f 490 487 491
f 409 400 408
f 408 411 409
f 758 411 408
f 760 758 408
f 408 415 760
f 400 406 407
f 406 413 407
f 407 408 400
f 415 408 407
f 414 415 407
f 407 413 414
f 761 95 100
f 379 372 72
f 72 372 378
f 378 71 72
f 73 74 379
f 379 72 73
f 335 316 321
f 335 334 316
f 361 353 354
f 354 355 362
f 362 361 354
f 354 344 355
f 354 353 342
f 342 344 354
f 327 312 329
f 329 344 327
f 327 344 341
f 341 326 327
f 327 326 311
f 311 312 327
f 642 11 14
f 14 13 642
f 14 11 570
f 570 13 14
f 662 663 108
f 661 662 640
f 690 663 661
f 663 662 661
f 108 631 641
f 631 640 641
f 641 662 108
f 640 662 641
f 137 138 121
f 121 128 137
f 150 147 137
f 135 138 137
f 137 147 135
f 137 149 150
f 670 671 644
f 644 149 670
f 670 137 671
f 149 137 670
f 126 141 127
f 126 140 141
f 126 127 116
f 116 125 126
f 125 140 126
f 697 716 698
f 697 696 716
f 698 669 697
f 669 696 697
f 700 689 698
f 675 689 700
f 647 648 633
f 676 677 647
f 647 677 678
f 633 645 646
f 646 647 633
f 509 502 756
f 756 502 525
f 525 754 756
f 382 381 383
f 383 378 382
f 738 68 740
f 738 736 52
f 740 403 738
f 738 403 395
f 61 52 51
f 61 62 52
f 60 61 51
f 62 61 60
f 737 736 395
f 395 734 737
f 737 734 736
f 742 741 731
f 404 396 403
f 740 741 404
f 404 403 740
f 404 741 742
f 742 397 404
f 397 396 404
f 593 164 594
f 158 164 593
f 594 165 593
f 593 165 158
f 203 204 185
f 185 204 205
f 183 201 185
f 185 201 202
f 202 203 185
f 187 186 185
f 185 205 187
f 185 186 175
f 175 184 185
f 185 184 183
f 577 162 624
f 577 581 162
f 600 576 577
f 577 634 600
f 624 634 577
f 254 236 253
f 253 255 254
f 254 255 236
f 618 607 617
f 634 648 617
f 654 685 679
f 654 655 685
f 713 706 693
f 693 715 694
f 693 692 713
f 694 666 693
f 693 666 692
f 707 706 713
f 24 29 25
f 25 650 24
f 680 704 705
f 680 650 25
f 652 650 680
f 471 480 481
f 481 482 471
f 480 494 481
f 494 482 481
f 485 472 484
f 484 473 485
f 485 473 472
f 488 490 475
f 487 490 488
f 475 474 488
f 488 474 487
f 333 335 321
f 321 320 333
f 333 315 332
f 332 331 333
f 331 330 333
f 330 348 333
f 348 334 333
f 334 335 333
f 690 661 672
f 672 645 671
f 672 646 645
f 660 689 675
f 659 689 660
f 639 659 660
f 660 640 639
f 660 661 640
f 690 672 699
f 699 672 129
f 118 128 117
f 118 117 108
f 130 137 128
f 128 118 130
f 129 672 130
f 671 137 130
f 130 672 671
f 673 646 675
f 675 700 673
f 673 701 676
f 698 701 673
f 673 700 698
f 676 647 673
f 647 646 673
f 757 754 755
f 385 383 381
f 385 756 754
f 509 756 385
f 385 502 509
f 385 381 502
f 378 383 384
f 69 62 68
f 68 738 69
f 69 738 62
f 52 62 63
f 63 738 52
f 62 738 63
f 395 736 739
f 739 738 395
f 736 738 739
f 68 62 59
f 62 60 59
f 64 68 59
f 59 60 51
f 59 54 64
f 59 55 54
f 733 741 740
f 733 731 741
f 740 70 732
f 70 731 732
f 732 733 740
f 731 733 732
f 742 731 81
f 80 742 81
f 81 67 80
f 581 577 580
f 580 576 610
f 580 577 576
f 618 617 620
f 620 617 648
f 648 647 620
f 678 618 620
f 620 647 678
f 634 617 606
f 606 617 607
f 600 634 606
f 606 607 600
f 635 650 652
f 679 17 18
f 18 17 22
f 636 651 655
f 655 654 636
f 636 635 651
f 725 726 719
f 708 726 725
f 725 709 708
f 706 709 714
f 714 693 706
f 714 725 719
f 709 725 714
f 715 693 714
f 653 635 652
f 651 635 653
f 710 685 686
f 685 655 686
f 713 710 686
f 686 707 713
f 25 20 19
f 19 680 25
f 704 680 19
f 19 20 12
f 12 704 19
f 682 705 708
f 682 680 705
f 652 680 682
f 682 653 652
f 320 308 325
f 325 333 320
f 325 308 315
f 315 333 325
f 674 672 661
f 674 660 675
f 661 660 674
f 675 646 674
f 646 672 674
f 108 663 664
f 664 118 108
f 129 130 691
f 691 130 118
f 691 699 129
f 118 664 691
f 691 664 663
f 691 663 690
f 690 699 691
f 761 100 93
f 93 95 94
f 93 100 95
f 88 87 93
f 93 94 88
f 93 87 86
f 93 86 92
f 759 92 84
f 759 755 758
f 759 757 755
f 759 758 760
f 760 761 759
f 761 93 759
f 759 93 92
f 387 757 83
f 83 759 84
f 757 759 83
f 378 384 83
f 83 71 378
f 387 384 389
f 754 757 389
f 389 757 387
f 383 385 388
f 388 384 383
f 388 389 384
f 388 385 754
f 754 389 388
f 82 731 70
f 82 81 731
f 82 70 67
f 67 81 82
f 611 580 610
f 581 580 611
f 610 601 611
f 601 581 611
f 622 625 626
f 625 635 626
f 635 636 626
f 22 27 626
f 626 27 622
f 28 24 650
f 650 635 28
f 29 24 28
f 338 29 28
f 28 635 625
f 319 338 28
f 28 622 319
f 28 625 622
f 649 636 654
f 649 654 679
f 679 18 649
f 649 18 22
f 719 715 727
f 727 714 719
f 715 714 727
f 655 651 681
f 651 653 681
f 706 707 681
f 681 686 655
f 707 686 681
f 653 682 684
f 708 709 684
f 684 682 708
f 84 92 85
f 92 86 85
f 386 384 387
f 387 83 386
f 386 83 384
f 22 626 23
f 23 626 636
f 23 649 22
f 636 649 23
f 683 681 653
f 683 684 709
f 653 684 683
f 683 709 706
f 706 681 683
f 752 753 751
f 751 750 752
f 471 463 470
f 470 463 462
f 1 2 4
f 4 3 1
f 227 244 247
f 226 244 227
f 6 4 2
f 6 2 5
f 78 76 89
f 89 76 88
f 66 78 89
f 89 79 66
f 474 475 466
f 466 465 474
f 48 55 59
f 51 48 59
f 88 76 87
f 87 76 75
f 75 74 87
f 74 86 87
f 83 84 72
f 83 72 71
f 72 84 85
f 85 73 72
f 85 86 74
f 74 73 85

