# https://github.com/mikedh/trimesh
v 0.00277234 0.02531928 0.02445312
v 0.00391553 0.03042339 0.03238356
v 0.00120976 0.02010457 0.01804751
v 0.00234342 0.02531928 0.02445312
v 0.00261030 0.02910025 0.02982515
v 0.00324236 0.03057495 0.03212836
v 0.00392446 0.03560942 0.04015451
v 0.00523981 0.04474848 0.05561345
v 0.00004393 0.01208792 0.00922385
v 0.00012555 0.01327587 0.01068489
v 0.00123776 0.02399614 0.02326642
v 0.00233448 0.03060363 0.03207732
v 0.00257932 0.02910025 0.02982515
v 0.00324236 0.03460580 0.03836171
v 0.00413773 0.04478944 0.05424174
v 0.00455831 0.04502294 0.05516047
v 0.00513377 0.04718583 0.05975413
v 0.00527079 0.04738656 0.06062182
v 0.00532143 0.04632150 0.05901404
v 0.00529462 0.04492872 0.05642373
v 0.00542508 0.04401113 0.05642373
v -0.00003053 0.01359130 0.01155258
v 0.00114185 0.02419277 0.02400013
v 0.00132593 0.02644988 0.02738158
v 0.00260077 0.04334342 0.05320178
v 0.00239584 0.03452798 0.03848930
v 0.00365281 0.04478944 0.05424174
v 0.00421994 0.04614535 0.05671083
v 0.00463635 0.04762415 0.06023902
v 0.00426879 0.04740294 0.05928839
v 0.00453984 0.04802150 0.06161074
v 0.00534585 0.04749306 0.06161074
v 0.00537802 0.04669427 0.06023902
v 0.00549538 0.04530559 0.05901404
v 0.00087556 0.02325879 0.02400013
v 0.00248401 0.04643619 0.06161074
v 0.00253047 0.04625186 0.06031558
v 0.00259541 0.04594463 0.05838241
v 0.00258528 0.04467474 0.05573468
v 0.00360456 0.04614535 0.05671083
v 0.00247984 0.03698991 0.04255980
v 0.00364328 0.04740294 0.05928839
v 0.00340380 0.04762005 0.06031558
v 0.00329002 0.04777572 0.06161074
v 0.00344550 0.04763644 0.06290589
v 0.00466613 0.04767331 0.06303350
v 0.00531547 0.04743981 0.06268898
v 0.00552814 0.04660415 0.06161074
v 0.00582362 0.04401113 0.06290589
v 0.00582660 0.04401113 0.06420743
v 0.00245005 0.04530559 0.06290589
v 0.00251796 0.04623138 0.06290589
v 0.00264187 0.04708752 0.06161074
v 0.00275566 0.04690318 0.06031558
v 0.00335257 0.04640342 0.05771888
v 0.00279676 0.04688270 0.06290589
v 0.00369690 0.04739885 0.06373531
v 0.00431764 0.04739885 0.06373531
v 0.00518262 0.04724728 0.06355029
v 0.00551206 0.04541210 0.06429675
v 0.00538100 0.04504751 0.06503046
v 0.00545070 0.04401113 0.06508788
v 0.00534526 0.04320004 0.06498580
v 0.00257337 0.04454776 0.06360770
v 0.00256800 0.04530559 0.06362046
v 0.00258051 0.04599379 0.06358857
v 0.00329836 0.04647306 0.06409259
v 0.00376421 0.04608800 0.06494114
v 0.00424019 0.04608800 0.06494114
v 0.00471141 0.04666559 0.06425847
v 0.00510458 0.04591186 0.06478802
v 0.00461907 0.04541210 0.06512617
v 0.00453984 0.04401113 0.06526014
v 0.00453984 0.04321233 0.06497942
v 0.00266928 0.04368342 0.06325680
v 0.00299275 0.04407258 0.06410535
v 0.00296833 0.04530559 0.06426486
v 0.00361707 0.04530559 0.06506237
v 0.00368438 0.04401113 0.06502409
v 0.00385417 0.04332294 0.06488372
v 0.00732731 -0.03122276 -0.02658989
v 0.00735009 -0.03251709 -0.02788758
v 0.00730832 -0.02733329 -0.01621623
v 0.00734123 -0.03122276 -0.02529416
v 0.00733617 -0.02863086 -0.01621623
v 0.00735389 -0.03251709 -0.02658989
v -0.00497399 -0.03251709 -0.02399648
v -0.00512334 -0.03251709 -0.02514585
v -0.00224039 -0.05976214 -0.01491900
v -0.00261026 -0.06957177 -0.02324948
v -0.00210914 -0.06105458 -0.01491900
v 0.00716363 -0.05587008 -0.01362132
v 0.00717854 -0.05457174 -0.01362132
v -0.00222249 -0.06235291 -0.01621485
v -0.00262418 -0.07087599 -0.02451234
v -0.00250288 -0.07043733 -0.02364722
v -0.00222846 -0.06754036 -0.02010424
v -0.00218471 -0.06624497 -0.01881022
v -0.00211809 -0.06494664 -0.01751254
v -0.00200176 -0.06365125 -0.01621485
v 0.00688920 -0.06105458 -0.01491900
v 0.00705823 -0.05976214 -0.01491900
v 0.00710496 -0.05846380 -0.01491900
v 0.00651137 -0.07096137 -0.02636906
v -0.00262916 -0.07214783 -0.02584119
v -0.00168358 -0.06881514 -0.02014640
v -0.00224834 -0.06883869 -0.02140193
v -0.00169353 -0.06753153 -0.01882305
v -0.00166469 -0.06621553 -0.01752537
v -0.00158614 -0.06486126 -0.01625884
v -0.00152649 -0.06365125 -0.01528375
v -0.00135050 -0.06436960 -0.01551652
v 0.00633936 -0.06411347 -0.01572181
v 0.00658892 -0.06324791 -0.01540838
v 0.00673707 -0.06366891 -0.01617820
v 0.00697372 -0.06235291 -0.01621485
v 0.00694687 -0.06365125 -0.01751254
v 0.00702840 -0.06105458 -0.01621485
v 0.00592673 -0.07402615 -0.02919904
v 0.00651435 -0.07094665 -0.02529315
v -0.00268782 -0.07355215 -0.02819278
v -0.00255558 -0.07329602 -0.02732766
v -0.00155134 -0.07228620 -0.02434188
v -0.00158117 -0.07106441 -0.02269961
v -0.00161597 -0.07007815 -0.02150824
v -0.00145788 -0.06836765 -0.01926478
v -0.00142507 -0.06960710 -0.02060646
v -0.00145887 -0.06709286 -0.01796709
v -0.00142606 -0.06576215 -0.01672073
v -0.00064853 -0.06602417 -0.01650628
v -0.00064853 -0.06522927 -0.01585744
v -0.00064853 -0.06457863 -0.01536806
v 0.00547432 -0.06455214 -0.01539189
v 0.00478230 -0.06541768 -0.01569798
v 0.00596451 -0.06504968 -0.01614154
v 0.00645569 -0.06554428 -0.01692051
v 0.00661676 -0.06468167 -0.01658693
v 0.00672415 -0.06504674 -0.01741723
v 0.00667344 -0.06632152 -0.01874974
v 0.00652927 -0.06966893 -0.02269961
v 0.00649745 -0.07082300 -0.02455450
v 0.00631152 -0.07159434 -0.02529315
v 0.00592374 -0.07402615 -0.02918437
v -0.00164680 -0.07363164 -0.02659084
v -0.00136939 -0.07342555 -0.02586501
v -0.00104227 -0.07199179 -0.02347676
v -0.00133359 -0.07081417 -0.02201228
v -0.00064853 -0.06860906 -0.01900085
v -0.00064853 -0.06800258 -0.01835383
v -0.00064853 -0.06925675 -0.01971934
v -0.00064853 -0.06980435 -0.02036635
v -0.00064853 -0.06735489 -0.01771049
v -0.00064853 -0.06667186 -0.01706165
v 0.00011509 -0.06686322 -0.01689119
v 0.00064902 -0.06548835 -0.01564849
v 0.00559066 -0.06595351 -0.01656310
v 0.00391726 -0.06560611 -0.01555868
v 0.00445120 -0.06621259 -0.01624418
v 0.00498613 -0.06681906 -0.01693151
v 0.00557574 -0.06726068 -0.01779664
v 0.00644078 -0.06680434 -0.01827868
v 0.00659787 -0.06593879 -0.01778564
v 0.00656407 -0.06710464 -0.01914198
v 0.00649347 -0.06950700 -0.02202511
v 0.00642487 -0.07057570 -0.02368937
v 0.00558270 -0.07272781 -0.02540313
v 0.00600229 -0.07273076 -0.02659084
v 0.00555983 -0.07403792 -0.02800949
v 0.00536097 -0.07482988 -0.02918437
v -0.00143799 -0.07475039 -0.02838340
v -0.00064853 -0.07405853 -0.02659084
v -0.00064853 -0.07354626 -0.02565606
v -0.00064853 -0.07314587 -0.02500905
v -0.00062566 -0.07245106 -0.02394415
v -0.00017823 -0.07213899 -0.02326231
v -0.00062566 -0.07163850 -0.02277843
v -0.00064853 -0.07094665 -0.02182716
v -0.00064853 -0.07045205 -0.02117831
v 0.00007234 -0.06817333 -0.01817788
v 0.00022844 -0.06943340 -0.01952138
v 0.00052573 -0.06757274 -0.01748504
v 0.00098012 -0.06696922 -0.01679404
v 0.00058837 -0.06635685 -0.01636882
v 0.00138381 -0.06557961 -0.01557701
v 0.00224785 -0.06565321 -0.01552385
v 0.00324214 -0.06564733 -0.01552752
v 0.00324214 -0.06629502 -0.01608105
v 0.00412109 -0.06696922 -0.01679038
v 0.00496525 -0.06812623 -0.01823470
v 0.00550316 -0.06848835 -0.01909982
v 0.00542461 -0.06969248 -0.02049098
v 0.00580145 -0.07003105 -0.02153940
v 0.00628964 -0.06913605 -0.02115999
v 0.00556182 -0.07113507 -0.02269961
v 0.00621010 -0.07031956 -0.02269961
v 0.00521282 -0.07339611 -0.02590717
v 0.00539379 -0.07356687 -0.02659084
v 0.00543256 -0.07229209 -0.02430156
v 0.00519692 -0.07468267 -0.02852087
v -0.00064853 -0.07535097 -0.02918437
v -0.00064853 -0.07486226 -0.02815796
v -0.00064853 -0.07453841 -0.02750911
v 0.00040940 -0.07463557 -0.02732033
v 0.00064902 -0.07366402 -0.02544345
v 0.00064902 -0.07328718 -0.02479460
v 0.00064902 -0.07277786 -0.02399547
v 0.00064902 -0.07222143 -0.02314134
v 0.00064902 -0.07177393 -0.02249250
v 0.00064902 -0.07112624 -0.02157422
v 0.00064902 -0.07065518 -0.02092538
v 0.00109347 -0.06953350 -0.01940591
v 0.00093637 -0.06827049 -0.01807890
v 0.00065598 -0.06993094 -0.02001260
v 0.00194658 -0.06703104 -0.01673356
v 0.00186803 -0.06614782 -0.01598758
v 0.00324214 -0.06702809 -0.01672990
v 0.00324214 -0.06767873 -0.01739707
v 0.00410021 -0.06824400 -0.01809906
v 0.00453571 -0.06865028 -0.01872408
v 0.00453969 -0.06937157 -0.01960203
v 0.00453969 -0.06988679 -0.02024904
v 0.00531325 -0.07087893 -0.02192064
v 0.00453969 -0.07350799 -0.02571105
v 0.00453969 -0.07397609 -0.02659084
v 0.00453969 -0.07449425 -0.02761725
v 0.00499507 -0.07202417 -0.02343827
v 0.00453969 -0.07314587 -0.02506221
v 0.00453969 -0.07520965 -0.02918437
v 0.00453969 -0.07480043 -0.02826610
v 0.00064902 -0.07556883 -0.02918437
v 0.00127443 -0.07467972 -0.02723418
v 0.00076436 -0.07436176 -0.02671731
v 0.00076436 -0.07491231 -0.02780604
v 0.00194658 -0.07432350 -0.02657617
v 0.00194658 -0.07367580 -0.02542145
v 0.00194658 -0.07330485 -0.02477261
v 0.00194658 -0.07283379 -0.02399547
v 0.00194658 -0.07225970 -0.02308269
v 0.00194658 -0.07181809 -0.02243568
v 0.00194658 -0.07117040 -0.02150090
v 0.00194658 -0.07071407 -0.02085206
v 0.00194658 -0.06954821 -0.01938942
v 0.00194658 -0.06896234 -0.01874057
v 0.00194658 -0.06831465 -0.01803125
v 0.00194658 -0.07012231 -0.02010424
v 0.00194658 -0.06767873 -0.01738240
v 0.00324214 -0.06829699 -0.01804591
v 0.00328489 -0.06904184 -0.01891470
v 0.00288022 -0.06952172 -0.01941691
v 0.00374525 -0.06946873 -0.01947923
v 0.00453969 -0.07053742 -0.02108484
v 0.00453969 -0.07100553 -0.02173368
v 0.00353545 -0.07463557 -0.02732582
v 0.00455361 -0.07170622 -0.02277110
v 0.00413004 -0.07214783 -0.02325315
v 0.00455361 -0.07245401 -0.02392032
v 0.00324214 -0.07326952 -0.02483859
v 0.00324214 -0.07552173 -0.02918437
v 0.00194658 -0.07468562 -0.02722502
v 0.00194658 -0.07500946 -0.02788852
v 0.00267042 -0.07468562 -0.02722318
v 0.00324214 -0.07275431 -0.02399547
v 0.00324214 -0.07221554 -0.02315417
v 0.00324214 -0.07177099 -0.02250533
v 0.00324214 -0.07112035 -0.02156322
v 0.00324214 -0.07066696 -0.02091438
v 0.00328489 -0.06993389 -0.01998877
v 0.00324214 -0.07363752 -0.02548744
v 0.00315862 -0.07433821 -0.02671181
v 0.00315862 -0.07490642 -0.02780971
v 0.00194433 -0.05416336 -0.06072077
v 0.00524021 -0.05385875 -0.05972843
v 0.00454000 -0.05371759 -0.05987782
v 0.00650002 -0.04482440 -0.04801962
v 0.00651867 -0.04608371 -0.04936051
v 0.00664064 -0.04324562 -0.04581088
v 0.00324145 -0.05421165 -0.06068164
v 0.00064722 -0.05418194 -0.06069943
v 0.00194433 -0.05481344 -0.06134320
v 0.00064722 -0.05483202 -0.06133253
v -0.00324269 -0.05425623 -0.06065319
v -0.00453980 -0.05369158 -0.05989916
v -0.00535194 -0.05382532 -0.05976045
v -0.00621716 -0.05410392 -0.05947591
v -0.00664762 -0.05370273 -0.05861162
v -0.00660314 -0.05248800 -0.05724938
v -0.00651848 -0.04088674 -0.04161748
v -0.00674088 -0.05202365 -0.05632818
v -0.00681406 -0.04935272 -0.05253313
v -0.00656726 -0.04205689 -0.04311131
v 0.00690035 -0.03634356 -0.03702927
v 0.00426020 -0.05500662 -0.06115469
v 0.00652298 -0.04735046 -0.05067651
v 0.00651580 -0.04865434 -0.05196761
v 0.00539661 -0.05336468 -0.05891038
v 0.00586438 -0.05327181 -0.05772243
v 0.00539374 -0.05456827 -0.06000586
v 0.00534639 -0.05614334 -0.06126495
v 0.00501063 -0.05670427 -0.06212924
v 0.00414541 -0.05636994 -0.06237821
v 0.00324145 -0.05486174 -0.06129340
v 0.00661338 -0.04452351 -0.04734740
v 0.00659903 -0.04558965 -0.04852824
v 0.00705531 -0.03900706 -0.03956523
v 0.00194433 -0.05553411 -0.06199408
v 0.00064722 -0.05554526 -0.06197986
v -0.00194558 -0.05487660 -0.06128629
v -0.00324269 -0.05490260 -0.06124361
v -0.00453980 -0.05438625 -0.06055005
v -0.00574939 -0.05463514 -0.06026550
v -0.00522997 -0.05649253 -0.06228218
v -0.00614542 -0.05544496 -0.06077056
v -0.00665910 -0.05496947 -0.05990272
v -0.00682411 -0.05327181 -0.05769753
v -0.00686428 -0.05454970 -0.05903487
v -0.00659309 -0.04161483 -0.04209408
v -0.00653713 -0.04072329 -0.04086344
v -0.00708812 -0.04938244 -0.05123492
v -0.00709242 -0.05197535 -0.05512600
v 0.00733511 -0.03252105 -0.02920442
v 0.00723754 -0.03511769 -0.03437594
v 0.00324145 -0.05559355 -0.06194073
v 0.00677982 -0.04408145 -0.04616655
v 0.00683434 -0.04549307 -0.04734740
v 0.00648854 -0.05001767 -0.05319469
v 0.00579550 -0.05456827 -0.05901708
v 0.00528039 -0.05756610 -0.06239600
v 0.00461174 -0.05837220 -0.06328519
v 0.00422720 -0.05874740 -0.06374756
v 0.00456296 -0.05714633 -0.06264853
v 0.00356429 -0.05788185 -0.06351992
v 0.00324145 -0.05624364 -0.06247424
v 0.00727198 -0.03641414 -0.03567415
v 0.00707253 -0.04030352 -0.04086344
v 0.00194433 -0.05618048 -0.06251693
v 0.00064722 -0.05619534 -0.06250981
v -0.00194558 -0.05561212 -0.06193362
v -0.00324269 -0.05565670 -0.06189094
v -0.00453980 -0.05640709 -0.06234976
v -0.00453980 -0.05716490 -0.06285837
v -0.00453980 -0.05813074 -0.06342034
v -0.00538063 -0.05893314 -0.06363019
v -0.00573218 -0.05722062 -0.06252404
v -0.00609376 -0.05682686 -0.06201187
v -0.00662179 -0.05630679 -0.06114402
v -0.00684850 -0.05587216 -0.06032952
v -0.00719717 -0.05327181 -0.05642422
v -0.00726891 -0.05586844 -0.05901708
v -0.00725456 -0.05456827 -0.05772243
v -0.00684419 -0.04549307 -0.04604918
v -0.00652135 -0.04071214 -0.03991380
v -0.00611098 -0.03641414 -0.03437594
v -0.00668062 -0.04290015 -0.04215810
v -0.00659022 -0.04160369 -0.04086344
v -0.00716560 -0.05067890 -0.05253313
v -0.00692741 -0.04678952 -0.04734740
v 0.00735807 -0.03381751 -0.03048485
v 0.00736094 -0.03511769 -0.03307772
v 0.00732794 -0.03381751 -0.03178307
v 0.00706536 -0.04160369 -0.04215810
v 0.00704527 -0.04290015 -0.04345631
v 0.00701801 -0.04419661 -0.04475453
v 0.00678843 -0.04678952 -0.04864205
v 0.00663059 -0.04938244 -0.05123492
v 0.00648854 -0.05067890 -0.05321603
v 0.00618005 -0.05327181 -0.05642422
v 0.00671382 -0.04808598 -0.04993671
v 0.00604804 -0.05456827 -0.05772243
v 0.00591316 -0.05586844 -0.05901708
v 0.00559749 -0.05846136 -0.06161351
v 0.00544396 -0.05714633 -0.06166331
v 0.00535213 -0.05846136 -0.06259873
v 0.00522443 -0.06022960 -0.06361240
v 0.00509099 -0.05936405 -0.06343812
v 0.00324145 -0.05975782 -0.06444824
v 0.00461174 -0.05978010 -0.06391829
v 0.00396032 -0.06156320 -0.06489284
v 0.00317688 -0.05837220 -0.06381869
v 0.00270051 -0.05779270 -0.06356972
v 0.00317688 -0.05728377 -0.06318559
v 0.00194433 -0.05712404 -0.06316781
v 0.00727628 -0.03771060 -0.03696881
v -0.00194558 -0.05625850 -0.06245290
v 0.00064722 -0.05713890 -0.06315714
v -0.00324269 -0.05630679 -0.06242445
v -0.00324269 -0.05716490 -0.06297930
v -0.00324269 -0.05800815 -0.06346658
v -0.00324269 -0.05865453 -0.06376890
v -0.00453980 -0.05877712 -0.06370132
v -0.00582257 -0.05848736 -0.06321405
v -0.00453980 -0.05975782 -0.06406055
v -0.00453980 -0.06105427 -0.06443757
v -0.00582257 -0.05984697 -0.06373333
v -0.00624586 -0.05947550 -0.06343101
v -0.00656009 -0.05769240 -0.06235331
v -0.00677819 -0.05722062 -0.06159217
v -0.00722874 -0.05716490 -0.06031530
v -0.00729330 -0.05586844 -0.05772243
v -0.00728613 -0.05456827 -0.05642422
v -0.00729187 -0.05846136 -0.06031530
v -0.00726604 -0.05327181 -0.05512600
v -0.00722300 -0.05197535 -0.05383135
v -0.00651704 -0.04160369 -0.03996358
v -0.00595601 -0.03641414 -0.03307772
v -0.00673801 -0.04419661 -0.04345631
v -0.00707090 -0.04938244 -0.04993671
v 0.00736524 -0.03511769 -0.03178307
v 0.00735520 -0.03641414 -0.03437594
v 0.00724902 -0.03900706 -0.03826702
v 0.00721028 -0.04030352 -0.03956523
v 0.00716293 -0.04160369 -0.04086344
v 0.00696348 -0.04549307 -0.04604918
v 0.00648711 -0.05135127 -0.05321603
v 0.00688456 -0.04678952 -0.04734740
v 0.00628479 -0.05327181 -0.05512600
v 0.00519286 -0.06571261 -0.06357328
v 0.00537365 -0.06235445 -0.06290817
v 0.00556880 -0.05975782 -0.06161351
v 0.00541096 -0.06105427 -0.06290817
v 0.00525887 -0.06105427 -0.06367642
v 0.00535500 -0.05978010 -0.06296863
v 0.00471792 -0.06235445 -0.06436288
v 0.00406936 -0.06235445 -0.06495686
v 0.00194433 -0.05975782 -0.06453004
v 0.00324145 -0.06069394 -0.06477901
v 0.00194433 -0.06051563 -0.06482525
v 0.00324145 -0.06365091 -0.06530186
v 0.00324145 -0.06235445 -0.06514537
v 0.00324145 -0.06134031 -0.06494974
v 0.00194433 -0.05846136 -0.06393607
v 0.00194433 -0.05777413 -0.06358039
v 0.00064722 -0.05778898 -0.06357328
v -0.00001282 -0.05781127 -0.06355906
v -0.00194558 -0.05716490 -0.06305043
v -0.00087804 -0.05785585 -0.06353416
v -0.00194558 -0.05791529 -0.06350570
v -0.00194558 -0.05856166 -0.06382225
v -0.00064846 -0.05975782 -0.06443757
v -0.00194558 -0.05975782 -0.06434154
v -0.00324269 -0.05975782 -0.06422417
v -0.00320538 -0.06114343 -0.06467943
v -0.00361288 -0.06190496 -0.06481814
v -0.00404047 -0.06277050 -0.06489639
v -0.00449963 -0.06234331 -0.06470077
v -0.00583692 -0.06105427 -0.06401432
v -0.00650413 -0.06033732 -0.06357684
v -0.00670358 -0.05846136 -0.06255961
v -0.00712830 -0.05846136 -0.06161351
v -0.00724595 -0.05975782 -0.06161351
v -0.00719286 -0.06105427 -0.06161351
v -0.00713117 -0.05197535 -0.05253313
v -0.00711395 -0.05067890 -0.05123492
v -0.00604498 -0.03771060 -0.03437594
v -0.00683702 -0.04678952 -0.04604918
v 0.00732220 -0.03771060 -0.03567415
v 0.00727628 -0.03900706 -0.03696881
v 0.00678556 -0.04808598 -0.04864205
v 0.00483702 -0.06494737 -0.06427040
v 0.00521151 -0.06494737 -0.06361952
v 0.00524452 -0.06365091 -0.06368709
v 0.00526747 -0.06235445 -0.06371555
v 0.00482267 -0.06365091 -0.06433798
v 0.00417411 -0.06365091 -0.06503154
v 0.00064722 -0.06053421 -0.06481814
v 0.00064722 -0.05975782 -0.06450871
v 0.00194433 -0.06116572 -0.06499954
v 0.00064722 -0.06118429 -0.06499954
v 0.00194433 -0.06365091 -0.06542634
v 0.00324145 -0.06494737 -0.06535520
v 0.00194433 -0.06494737 -0.06550460
v 0.00194433 -0.06235445 -0.06525562
v 0.00064722 -0.05846136 -0.06391472
v -0.00052650 -0.05835734 -0.06380447
v -0.00064846 -0.06065679 -0.06477901
v -0.00194558 -0.06084253 -0.06472567
v -0.00274766 -0.06163378 -0.06487505
v -0.00320538 -0.06234331 -0.06495686
v -0.00324269 -0.06365091 -0.06514892
v -0.00424709 -0.06365091 -0.06495330
v -0.00489565 -0.06365091 -0.06477191
v -0.00583692 -0.06235445 -0.06420638
v -0.00678536 -0.05984697 -0.06296507
v -0.00656870 -0.06105427 -0.06364086
v -0.00695755 -0.06105427 -0.06290817
v -0.00699485 -0.06235445 -0.06290817
v -0.00695611 -0.06365091 -0.06290817
v -0.00686428 -0.06494737 -0.06290817
v 0.00418846 -0.06494737 -0.06505288
v -0.00064846 -0.06130688 -0.06497108
v 0.00064722 -0.06235445 -0.06526629
v -0.00064846 -0.06235445 -0.06521294
v 0.00064722 -0.06365091 -0.06545124
v 0.00064722 -0.06494737 -0.06553660
v 0.00194433 -0.06621039 -0.06547259
v -0.00194558 -0.06149262 -0.06491773
v -0.00194558 -0.06235445 -0.06510980
v -0.00194558 -0.06365091 -0.06530186
v -0.00324269 -0.06494737 -0.06524140
v -0.00460437 -0.06503280 -0.06498175
v -0.00508075 -0.06466132 -0.06482525
v -0.00519984 -0.06552316 -0.06486082
v -0.00583692 -0.06365091 -0.06433087
v -0.00664044 -0.06235445 -0.06372266
v -0.00666053 -0.06365091 -0.06376890
v -0.00663901 -0.06494737 -0.06376534
v -0.00064846 -0.06365091 -0.06540145
v -0.00064846 -0.06494737 -0.06547970
v -0.00194558 -0.06494737 -0.06537655
v -0.00462303 -0.06617695 -0.06498175
v -0.00571352 -0.06503280 -0.06448381
v -0.00519984 -0.06569775 -0.06486082
v -0.00571352 -0.06617695 -0.06442334
v -0.00612102 -0.06621039 -0.06407122
v 0.00006949 0.00176501 -0.00508687
v 0.00093419 0.00215662 -0.00550343
v 0.00262977 0.00197146 -0.00526668
v -0.00191453 0.00250236 0.00454194
v -0.00199386 0.00250236 0.00583956
v -0.00012485 0.00204356 -0.00422078
v 0.00121648 0.00452925 -0.00274035
v 0.00109594 0.00338882 -0.00415785
v 0.00194527 0.00216973 -0.00548245
v 0.00167467 0.00338882 -0.00415785
v 0.00154674 0.00452925 -0.00274035
v 0.00064832 -0.08106356 -0.04994055
v 0.00194570 -0.08089489 -0.04994055
v 0.00064832 -0.08106356 -0.04981924
v -0.00064906 -0.08105193 -0.04994055
v -0.00064906 -0.08098795 -0.05123805
v 0.00064832 -0.08099668 -0.05123805
v 0.00324189 -0.08047467 -0.04994055
v 0.00194570 -0.08079456 -0.05123805
v -0.00064906 -0.08105193 -0.04981924
v -0.00194526 -0.08080038 -0.04994055
v -0.00194526 -0.08072622 -0.05123805
v -0.00064906 -0.08083092 -0.05253556
v 0.00064832 -0.08083963 -0.05253556
v 0.00423477 -0.08003990 -0.04994055
v 0.00324189 -0.08036852 -0.05123805
v 0.00414473 -0.07999629 -0.05123805
v 0.00423714 -0.08004136 -0.04981924
v 0.00194570 -0.08060117 -0.05253556
v -0.00324264 -0.08023911 -0.04994055
v -0.00335638 -0.08012279 -0.05124573
v -0.00386585 -0.07985234 -0.05168335
v -0.00307558 -0.08008062 -0.05253556
v -0.00194526 -0.08054446 -0.05253556
v -0.00064906 -0.08054446 -0.05383306
v 0.00064832 -0.08054301 -0.05383306
v 0.00488406 -0.07952663 -0.04994055
v 0.00334497 -0.08011697 -0.05261694
v 0.00401795 -0.07993085 -0.05223766
v 0.00479401 -0.07942193 -0.05123805
v 0.00194570 -0.08027837 -0.05383306
v 0.00384497 -0.07984943 -0.05310216
v -0.00390851 -0.07987850 -0.05081886
v -0.00391798 -0.07988723 -0.04994055
v -0.00442864 -0.07914276 -0.05253556
v -0.00438954 -0.07900753 -0.05383306
v -0.00372486 -0.07979126 -0.05253556
v -0.00282913 -0.07996720 -0.05353363
v -0.00203886 -0.08017513 -0.05391291
v -0.00166919 -0.08000937 -0.05478507
v -0.00064906 -0.08011261 -0.05499697
v 0.00064832 -0.08010679 -0.05499544
v 0.00194570 -0.07997157 -0.05471905
v 0.00532244 -0.07887811 -0.04994055
v 0.00523003 -0.07866437 -0.05231444
v 0.00527623 -0.07877342 -0.05123805
v 0.00430942 -0.07891010 -0.05512903
v 0.00448003 -0.07910786 -0.05383306
v 0.00261157 -0.07987124 -0.05449640
v 0.00289711 -0.07996865 -0.05383306
v 0.00354521 -0.07975636 -0.05383306
v 0.00409497 -0.07872253 -0.05610561
v -0.00431253 -0.07933905 -0.05124573
v -0.00438243 -0.07921691 -0.04994055
v -0.00505541 -0.07783701 -0.05383459
v -0.00524380 -0.07741679 -0.05512903
v -0.00524025 -0.07737317 -0.05642653
v -0.00520352 -0.07729319 -0.05712212
v -0.00424144 -0.07882287 -0.05512903
v -0.00325448 -0.07968366 -0.05391291
v -0.00253411 -0.07984216 -0.05439966
v -0.00324264 -0.07931579 -0.05512903
v -0.00324264 -0.07882141 -0.05644803
v -0.00281136 -0.07864111 -0.05721271
v -0.00194526 -0.07919074 -0.05642653
v -0.00064906 -0.07979853 -0.05564496
v 0.00064832 -0.07980144 -0.05564342
v 0.00194570 -0.07925181 -0.05642653
v 0.00194570 -0.07970838 -0.05536703
v 0.00328573 -0.07888830 -0.05649256
v 0.00312341 -0.07953098 -0.05500926
v 0.00491960 -0.07791989 -0.05512903
v 0.00478335 -0.07662288 -0.05772250
v 0.00482363 -0.07532586 -0.05902001
v 0.00482719 -0.07402884 -0.06031598
v 0.00495041 -0.07143481 -0.06161348
v 0.00445041 -0.07801586 -0.05649256
v 0.00374663 -0.07851169 -0.05697010
v 0.00404402 -0.07740952 -0.05856857
v 0.00425255 -0.07765816 -0.05772250
v -0.00489428 -0.07791989 -0.05123805
v -0.00500328 -0.07791989 -0.05253556
v -0.00520826 -0.07734990 -0.05426761
v -0.00611346 -0.07273182 -0.06161348
v -0.00535991 -0.07663015 -0.05762270
v -0.00405305 -0.07866728 -0.05602884
v -0.00532792 -0.07620265 -0.05874055
v -0.00518693 -0.07467590 -0.06224611
v -0.00496063 -0.07706781 -0.05798507
v -0.00453291 -0.07757383 -0.05762270
v -0.00367628 -0.07849134 -0.05689333
v -0.00324264 -0.07823978 -0.05767490
v -0.00324264 -0.07756656 -0.05881885
v -0.00194526 -0.07836338 -0.05801118
v -0.00194526 -0.07872690 -0.05736473
v -0.00064906 -0.07938267 -0.05642653
v 0.00064832 -0.07940012 -0.05642653
v 0.00194570 -0.07876034 -0.05743076
v 0.00288171 -0.07866582 -0.05725878
v 0.00431179 -0.07663596 -0.05900772
v 0.00435207 -0.07535639 -0.06034669
v 0.00476795 -0.07273182 -0.06161348
v 0.00485918 -0.07013779 -0.06291099
v 0.00499780 -0.06884077 -0.06291099
v 0.00328573 -0.07827323 -0.05770254
v 0.00324189 -0.07759273 -0.05881578
v 0.00324189 -0.07710417 -0.05946377
v 0.00409734 -0.07621283 -0.05993364
v -0.00652104 -0.06860376 -0.06209256
v -0.00652104 -0.06860376 -0.06246262
v -0.00651156 -0.06705665 -0.06360043
v -0.00567508 -0.07272165 -0.06294937
v -0.00549143 -0.07381073 -0.06254246
v -0.00553882 -0.07415680 -0.06173325
v -0.00409571 -0.07739789 -0.05857471
v -0.00535399 -0.07228107 -0.06370331
v -0.00466798 -0.07415680 -0.06274822
v -0.00432201 -0.07485620 -0.06241502
v -0.00326515 -0.07571409 -0.06164727
v -0.00194526 -0.07581006 -0.06199736
v -0.00239549 -0.07724376 -0.05962960
v -0.00064906 -0.07842736 -0.05813095
v -0.00064906 -0.07879960 -0.05748450
v 0.00064832 -0.07881414 -0.05751521
v 0.00194570 -0.07839973 -0.05807720
v 0.00410208 -0.07494490 -0.06120043
v 0.00430468 -0.07400413 -0.06162577
v 0.00424070 -0.07273182 -0.06264381
v 0.00444212 -0.07151332 -0.06301233
v 0.00427980 -0.07013779 -0.06391675
v 0.00459378 -0.06754376 -0.06420849
v 0.00484496 -0.06621184 -0.06408872
v 0.00241489 -0.07724230 -0.05963267
v 0.00264356 -0.07599182 -0.06098393
v 0.00314237 -0.07636987 -0.06034669
v 0.00350848 -0.07580861 -0.06079813
v -0.00672838 -0.06621184 -0.06291099
v -0.00657791 -0.06621184 -0.06366185
v -0.00656962 -0.06624674 -0.06368181
v -0.00571891 -0.06621184 -0.06441425
v -0.00593218 -0.06751177 -0.06402116
v -0.00511229 -0.06656518 -0.06483497
v -0.00453883 -0.07143481 -0.06418853
v -0.00315733 -0.07132576 -0.06462462
v -0.00453883 -0.07248755 -0.06383996
v -0.00324264 -0.07506558 -0.06255168
v -0.00194526 -0.07516010 -0.06266684
v -0.00064906 -0.07503068 -0.06265302
v 0.00196821 -0.07680463 -0.06021617
v 0.00155115 -0.07731064 -0.05971713
v 0.00064832 -0.07734264 -0.05975705
v 0.00064832 -0.07786901 -0.05902001
v -0.00064906 -0.07784428 -0.05902001
v 0.00064832 -0.07844626 -0.05816166
v 0.00196821 -0.07767852 -0.05912749
v 0.00324189 -0.07445343 -0.06208949
v 0.00402388 -0.07355773 -0.06238585
v 0.00409260 -0.07113381 -0.06372020
v 0.00390302 -0.06822135 -0.06486416
v 0.00431771 -0.06872881 -0.06426684
v 0.00399426 -0.06754376 -0.06492557
v 0.00412696 -0.06624674 -0.06501617
v 0.00194570 -0.07606015 -0.06105302
v -0.00064906 -0.07432111 -0.06330100
v 0.00242674 -0.07463372 -0.06222922
v 0.00314237 -0.07535639 -0.06135705
v -0.00657080 -0.06621184 -0.06368488
v -0.00514783 -0.06621184 -0.06484726
v -0.00461229 -0.06621184 -0.06498085
v -0.00424737 -0.06732274 -0.06494400
v -0.00266800 -0.07081974 -0.06486569
v -0.00194526 -0.07273182 -0.06419467
v -0.00194526 -0.07425422 -0.06331483
v -0.00322012 -0.07394306 -0.06323805
v 0.00324189 -0.07380491 -0.06255628
v 0.00375374 -0.07199753 -0.06351291
v 0.00324189 -0.07013779 -0.06444189
v 0.00324189 -0.06916212 -0.06476127
v 0.00324189 -0.06851361 -0.06493939
v 0.00324189 -0.06754376 -0.06513287
v 0.00324189 -0.06624674 -0.06530024
v 0.00324189 -0.06621184 -0.06530178
v -0.00064906 -0.07367260 -0.06372481
v 0.00022889 -0.07354464 -0.06365725
v -0.00324264 -0.06624674 -0.06522961
v -0.00254478 -0.07081974 -0.06486569
v -0.00204597 -0.07132576 -0.06470139
v -0.00194526 -0.06624674 -0.06534938
v -0.00064906 -0.06624674 -0.06544612
v -0.00064906 -0.06754376 -0.06531099
v 0.00064832 -0.06754376 -0.06536626
v -0.00064906 -0.07273182 -0.06419007
v 0.00329047 -0.07269402 -0.06324880
v 0.00288882 -0.07223599 -0.06364343
v 0.00329047 -0.07151332 -0.06387222
v 0.00252034 -0.06945584 -0.06484726
v 0.00203101 -0.06895128 -0.06502999
v 0.00194570 -0.06754376 -0.06532634
v 0.00194570 -0.06624674 -0.06547068
v -0.00194526 -0.06621184 -0.06535091
v 0.00165542 -0.06962015 -0.06489947
v 0.00064832 -0.06884077 -0.06512826
v -0.00064906 -0.06621184 -0.06544764
v 0.00064832 -0.06624674 -0.06550446
v 0.00077010 -0.08105135 -0.04981722
v 0.00064954 -0.08105861 -0.04864260
v -0.00064837 -0.08104409 -0.04864260
v 0.00194528 -0.08092062 -0.04864260
v 0.00194528 -0.08087850 -0.04734487
v 0.00064954 -0.08099761 -0.04734487
v -0.00064837 -0.08098017 -0.04734487
v -0.00194519 -0.08078554 -0.04864260
v -0.00182463 -0.08082329 -0.04981722
v 0.00324210 -0.08050664 -0.04864260
v 0.00324210 -0.08046451 -0.04734487
v 0.00194528 -0.08077682 -0.04604714
v 0.00064954 -0.08088721 -0.04604714
v -0.00064837 -0.08085380 -0.04604714
v -0.00194519 -0.08069547 -0.04734487
v -0.00312146 -0.08029021 -0.04981722
v -0.00336149 -0.08014495 -0.04860829
v 0.00425979 -0.08004617 -0.04864260
v 0.00421960 -0.08001567 -0.04734487
v 0.00324210 -0.08035993 -0.04604714
v 0.00194528 -0.08063156 -0.04475143
v 0.00064954 -0.08072743 -0.04475143
v -0.00064837 -0.08067514 -0.04475143
v -0.00194519 -0.08054005 -0.04604714
v -0.00313883 -0.08014785 -0.04734487
v -0.00387413 -0.07985153 -0.04815217
v -0.00390998 -0.07988058 -0.04901598
v 0.00490820 -0.07958861 -0.04864260
v 0.00486802 -0.07960023 -0.04734487
v 0.00475289 -0.07957555 -0.04604714
v 0.00410448 -0.07995757 -0.04604714
v 0.00335614 -0.08015803 -0.04468685
v 0.00308896 -0.08010864 -0.04345370
v 0.00194528 -0.08043837 -0.04345370
v 0.00064954 -0.08052407 -0.04345370
v -0.00064837 -0.08043837 -0.04345370
v -0.00194519 -0.08032943 -0.04475143
v -0.00296723 -0.08006506 -0.04604714
v -0.00391758 -0.07988639 -0.04981722
v -0.00422604 -0.07933877 -0.04860829
v -0.00378724 -0.07978326 -0.04734487
v -0.00399143 -0.07870836 -0.04345370
v -0.00408484 -0.07886088 -0.04475143
v -0.00415978 -0.07900178 -0.04604714
v -0.00422929 -0.07913396 -0.04734487
v -0.00436832 -0.07922838 -0.04981722
v 0.00536111 -0.07894076 -0.04864260
v 0.00538284 -0.07895239 -0.04734487
v 0.00540021 -0.07892624 -0.04604714
v 0.00540999 -0.07887685 -0.04475143
v 0.00538501 -0.07880277 -0.04345370
v 0.00531984 -0.07870836 -0.04215597
v 0.00524816 -0.07862847 -0.04117712
v 0.00446398 -0.07958571 -0.04468685
v 0.00398175 -0.07990382 -0.04507637
v 0.00386444 -0.07985298 -0.04421256
v 0.00282938 -0.07997935 -0.04215597
v 0.00373737 -0.07979052 -0.04345370
v 0.00514823 -0.07854276 -0.04031332
v 0.00265451 -0.07989366 -0.04140922
v 0.00194528 -0.08018707 -0.04215597
v 0.00064954 -0.08027277 -0.04215597
v -0.00037141 -0.07995030 -0.04119730
v -0.00074069 -0.08009121 -0.04205708
v -0.00123596 -0.07985008 -0.04156059
v -0.00152486 -0.07997500 -0.04242440
v -0.00195171 -0.08006942 -0.04354856
v -0.00262184 -0.07988058 -0.04404505
v -0.00275543 -0.07995176 -0.04475143
v -0.00361564 -0.07965107 -0.04604714
v -0.00392192 -0.07860813 -0.04267062
v -0.00390672 -0.07731243 -0.04008324
v -0.00415435 -0.07791961 -0.04345370
v -0.00429012 -0.07791961 -0.04475143
v 0.00532636 -0.07888412 -0.04981722
v 0.00565328 -0.07791961 -0.04475143
v 0.00567717 -0.07791961 -0.04345370
v 0.00564459 -0.07791961 -0.04215597
v 0.00554467 -0.07780486 -0.03956253
v 0.00550014 -0.07765088 -0.03826682
v 0.00454001 -0.07937654 -0.04345370
v 0.00540564 -0.07748965 -0.03696908
v 0.00496359 -0.07845271 -0.03956253
v 0.00529052 -0.07736182 -0.03599226
v 0.00194528 -0.07977890 -0.04050505
v 0.00194528 -0.07995611 -0.04115291
v 0.00431518 -0.07873741 -0.03956253
v 0.00406429 -0.07863282 -0.03869065
v 0.00462255 -0.07754485 -0.03560475
v 0.00424567 -0.07739088 -0.03466022
v 0.00376561 -0.07724708 -0.03379641
v 0.00064954 -0.07999824 -0.04099346
v -0.00074069 -0.07973968 -0.04080173
v 0.00064954 -0.07982828 -0.04034359
v -0.00067987 -0.07750127 -0.03429492
v -0.00166063 -0.07740104 -0.03467435
v -0.00203317 -0.07758988 -0.03558659
v -0.00194519 -0.07808085 -0.03696908
v -0.00251540 -0.07853986 -0.03900751
v -0.00238941 -0.07976437 -0.04318124
v -0.00195171 -0.07966705 -0.04205708
v -0.00275218 -0.07866769 -0.03986930
v -0.00295745 -0.07880568 -0.04085824
v -0.00330827 -0.07892188 -0.04220441
v -0.00313014 -0.07939833 -0.04354856
v -0.00340385 -0.07950872 -0.04475143
v -0.00275000 -0.07739959 -0.03596199
v -0.00294876 -0.07643508 -0.03437565
v -0.00313123 -0.07532533 -0.03307791
v -0.00337669 -0.07532533 -0.03437565
v 0.00558702 -0.07791961 -0.04604714
v 0.00589548 -0.07662247 -0.03956253
v 0.00590526 -0.07662247 -0.03826682
v 0.00584335 -0.07662247 -0.03696908
v 0.00598454 -0.07532533 -0.03307791
v 0.00558051 -0.07645687 -0.03437565
v 0.00546429 -0.07624044 -0.03307791
v 0.00511022 -0.07723545 -0.03512643
v 0.00531875 -0.07608356 -0.03210108
v 0.00329641 -0.07749692 -0.03428684
v 0.00290106 -0.07732696 -0.03357238
v 0.00194528 -0.07769301 -0.03437565
v 0.00507438 -0.07593540 -0.03123526
v 0.00460083 -0.07624625 -0.03171358
v 0.00420983 -0.07606322 -0.03091032
v 0.00329641 -0.07709020 -0.03311424
v -0.00113386 -0.07723981 -0.03380852
v 0.00194528 -0.07737199 -0.03344725
v 0.00064954 -0.07736618 -0.03346542
v -0.00026823 -0.07731970 -0.03359459
v -0.00138910 -0.07601529 -0.03103949
v -0.00203317 -0.07710181 -0.03429492
v -0.00252518 -0.07723691 -0.03509818
v -0.00261533 -0.07599495 -0.03238364
v -0.00275109 -0.07615183 -0.03307791
v -0.00271633 -0.07485323 -0.03048448
v 0.00625064 -0.07402818 -0.03178019
v 0.00606817 -0.07532533 -0.03437565
v 0.00618439 -0.07402818 -0.03048448
v 0.00568260 -0.07543136 -0.03171358
v 0.00560875 -0.07511906 -0.03048448
v 0.00324210 -0.07659487 -0.03178019
v 0.00194528 -0.07713668 -0.03279940
v 0.00460083 -0.07575674 -0.03048044
v 0.00324210 -0.07615619 -0.03069235
v 0.00324210 -0.07588747 -0.03004248
v -0.00067987 -0.07706260 -0.03312837
v -0.00064837 -0.07652079 -0.03178019
v 0.00064954 -0.07712651 -0.03281756
v 0.00064954 -0.07671834 -0.03178019
v -0.00187134 -0.07615038 -0.03188312
v -0.00064837 -0.07610971 -0.03082959
v -0.00064837 -0.07581484 -0.03018174
v -0.00064837 -0.07535873 -0.02920087
v -0.00261098 -0.07469781 -0.02979221
v 0.00194528 -0.07673867 -0.03178019
v 0.00321495 -0.07553159 -0.02920087
v 0.00194528 -0.07622446 -0.03055107
v 0.00064954 -0.07621429 -0.03059144
v 0.00064954 -0.07592523 -0.02994358
v 0.00062999 -0.07557371 -0.02920087
v 0.00194528 -0.07563036 -0.02920087
v 0.00194528 -0.07594557 -0.02990322
v 0.00064954 -0.07557662 -0.02920087
f 85 93 407
f 22 11 10
f 10 11 514
f 523 516 522
f 522 516 272
f 43 44 31
f 514 519 9
f 9 10 514
f 9 519 22
f 22 10 9
f 23 11 22
f 22 35 23
f 26 11 25
f 11 26 12
f 2 516 1
f 1 516 523
f 288 519 514
f 514 286 288
f 273 522 272
f 277 522 273
f 271 522 277
f 272 516 275
f 291 516 2
f 36 352 51
f 517 35 22
f 517 38 35
f 8 18 19
f 102 92 50
f 50 116 102
f 101 116 50
f 50 92 93
f 93 85 50
f 64 87 89
f 89 91 64
f 25 11 24
f 11 23 24
f 35 38 39
f 39 23 35
f 25 24 39
f 39 24 23
f 41 26 25
f 13 12 5
f 524 1 523
f 11 12 4
f 4 12 13
f 639 611 636
f 642 611 641
f 22 519 289
f 519 288 289
f 514 521 515
f 515 521 523
f 523 522 515
f 522 271 515
f 370 326 369
f 568 570 595
f 626 653 654
f 652 653 626
f 292 273 272
f 274 275 516
f 302 275 274
f 325 326 294
f 516 291 276
f 276 274 516
f 302 274 276
f 2 8 321
f 321 291 2
f 89 87 404
f 51 352 404
f 404 64 51
f 44 43 53
f 36 517 518
f 38 517 37
f 37 517 36
f 37 53 38
f 36 53 37
f 20 19 34
f 8 19 20
f 34 21 20
f 20 21 8
f 33 48 34
f 34 19 33
f 33 19 18
f 99 91 94
f 94 91 89
f 102 116 117
f 138 139 117
f 117 116 138
f 48 33 32
f 32 33 18
f 32 18 31
f 83 50 85
f 100 64 91
f 100 91 99
f 100 111 75
f 75 64 100
f 68 72 69
f 69 72 71
f 27 12 26
f 27 15 12
f 26 41 27
f 27 41 25
f 7 8 2
f 7 15 8
f 6 5 12
f 15 7 6
f 6 7 2
f 1 5 6
f 2 1 6
f 17 18 8
f 3 4 520
f 11 4 3
f 3 520 521
f 514 11 3
f 3 521 514
f 598 624 625
f 652 626 625
f 596 568 595
f 654 653 683
f 635 634 639
f 607 634 635
f 639 636 635
f 635 636 607
f 633 634 607
f 601 602 575
f 637 611 610
f 637 636 611
f 610 607 637
f 607 636 637
f 650 625 624
f 681 653 652
f 640 611 639
f 640 641 611
f 287 517 22
f 314 288 286
f 278 515 271
f 281 515 278
f 271 280 278
f 278 280 281
f 449 400 397
f 485 486 449
f 448 449 397
f 366 326 325
f 415 369 413
f 413 568 415
f 370 369 418
f 414 457 413
f 599 568 598
f 598 625 599
f 599 625 626
f 838 413 803
f 803 568 838
f 838 568 413
f 552 570 571
f 570 568 571
f 332 305 322
f 279 271 277
f 279 280 271
f 279 305 306
f 306 280 279
f 306 305 336
f 309 281 308
f 308 339 309
f 272 275 293
f 293 294 272
f 8 21 359
f 359 321 8
f 359 21 34
f 34 48 359
f 302 276 304
f 304 276 291
f 291 321 304
f 89 404 453
f 87 64 88
f 88 404 87
f 64 404 88
f 799 835 836
f 54 43 38
f 38 53 54
f 54 53 43
f 58 46 57
f 86 85 407
f 86 82 85
f 90 98 99
f 99 94 90
f 90 94 89
f 165 166 142
f 253 261 270
f 186 185 187
f 195 164 194
f 195 165 164
f 166 165 195
f 142 166 167
f 167 143 142
f 143 167 868
f 864 414 104
f 139 164 140
f 140 117 139
f 138 116 115
f 115 116 101
f 101 50 115
f 50 114 115
f 50 83 49
f 48 50 49
f 49 359 48
f 92 455 408
f 407 93 408
f 93 92 408
f 103 455 92
f 103 92 102
f 58 69 70
f 70 69 71
f 59 70 71
f 59 46 58
f 58 70 59
f 42 43 31
f 38 43 42
f 25 39 40
f 40 27 25
f 12 15 14
f 14 6 12
f 15 6 14
f 8 15 16
f 16 17 8
f 31 18 29
f 18 17 29
f 532 531 526
f 526 728 525
f 539 531 532
f 539 551 552
f 552 540 539
f 539 540 531
f 785 783 786
f 728 526 731
f 597 624 598
f 597 596 624
f 598 568 597
f 568 596 597
f 603 575 602
f 631 624 623
f 624 596 623
f 623 602 631
f 623 603 602
f 596 603 623
f 654 683 684
f 487 634 660
f 660 633 487
f 634 633 660
f 639 634 664
f 581 607 610
f 610 611 581
f 607 580 579
f 798 835 799
f 798 834 835
f 479 480 443
f 509 501 499
f 499 498 509
f 499 479 498
f 509 498 708
f 631 602 630
f 657 630 656
f 616 611 642
f 642 643 616
f 564 590 565
f 536 529 535
f 548 537 536
f 535 545 546
f 724 709 720
f 651 650 680
f 651 681 652
f 680 681 651
f 652 625 651
f 625 650 651
f 699 681 680
f 700 681 699
f 668 640 639
f 641 640 668
f 639 667 668
f 667 695 668
f 668 695 696
f 696 697 668
f 352 36 317
f 36 518 317
f 317 518 517
f 517 287 317
f 22 289 290
f 290 287 22
f 632 633 607
f 487 633 632
f 285 313 315
f 315 314 285
f 285 314 286
f 285 286 514
f 282 281 309
f 282 515 281
f 419 420 370
f 370 418 419
f 422 420 462
f 391 392 342
f 471 468 492
f 513 664 634
f 505 486 485
f 512 513 505
f 450 449 486
f 450 486 487
f 400 449 450
f 487 632 450
f 450 632 607
f 398 400 450
f 485 449 484
f 449 448 484
f 272 294 295
f 296 294 326
f 326 297 296
f 296 295 294
f 296 297 272
f 272 295 296
f 371 326 370
f 371 327 326
f 370 420 421
f 374 327 373
f 373 421 420
f 420 422 373
f 298 297 326
f 326 327 298
f 272 297 298
f 332 322 300
f 300 322 292
f 300 292 272
f 413 366 365
f 365 366 325
f 413 369 368
f 368 366 413
f 368 369 326
f 326 366 368
f 416 458 459
f 416 655 458
f 416 626 654
f 654 655 416
f 568 599 416
f 416 415 568
f 369 415 416
f 552 571 553
f 553 571 568
f 568 550 553
f 553 540 552
f 553 550 540
f 301 279 277
f 292 322 301
f 301 322 305
f 305 279 301
f 277 273 301
f 273 292 301
f 386 436 387
f 386 387 341
f 435 436 386
f 281 280 307
f 307 308 281
f 307 280 306
f 315 313 346
f 447 395 446
f 357 86 407
f 82 86 357
f 837 105 799
f 799 836 837
f 837 836 105
f 835 834 862
f 105 836 121
f 863 836 835
f 835 862 863
f 863 862 882
f 863 121 836
f 882 121 863
f 44 53 45
f 31 44 45
f 45 46 31
f 45 57 46
f 52 53 36
f 52 36 51
f 51 66 52
f 68 57 67
f 67 66 68
f 57 66 67
f 51 64 65
f 65 66 51
f 799 90 454
f 68 66 78
f 78 72 68
f 76 64 75
f 75 111 76
f 112 132 80
f 80 155 74
f 132 155 80
f 79 76 80
f 111 112 80
f 80 76 111
f 154 179 181
f 181 182 154
f 214 187 185
f 180 211 179
f 99 98 109
f 154 182 183
f 183 155 154
f 184 185 74
f 74 155 184
f 184 183 182
f 155 183 184
f 131 132 112
f 112 130 131
f 131 130 154
f 154 155 131
f 131 155 132
f 129 130 112
f 129 109 128
f 142 866 141
f 141 165 142
f 117 140 141
f 164 165 141
f 141 140 164
f 258 852 253
f 253 270 258
f 258 270 261
f 871 228 852
f 253 257 268
f 268 257 261
f 237 257 262
f 217 188 216
f 216 188 187
f 187 214 216
f 216 214 246
f 186 187 157
f 187 188 157
f 251 221 250
f 252 222 251
f 251 222 221
f 219 250 220
f 250 221 220
f 194 222 198
f 198 195 194
f 166 195 198
f 191 222 192
f 192 161 191
f 194 164 192
f 192 222 194
f 191 161 190
f 162 139 138
f 156 133 134
f 134 159 156
f 168 167 166
f 168 868 167
f 169 868 168
f 143 868 119
f 119 868 866
f 142 143 119
f 119 866 142
f 842 807 841
f 846 845 811
f 846 868 169
f 817 818 787
f 813 788 787
f 787 788 761
f 414 864 839
f 457 414 839
f 803 413 839
f 413 457 839
f 865 866 842
f 865 864 866
f 842 841 865
f 789 788 813
f 847 818 848
f 821 855 856
f 134 133 63
f 63 133 113
f 63 157 134
f 186 157 63
f 63 114 50
f 50 62 63
f 74 185 63
f 63 185 186
f 61 62 50
f 50 60 61
f 71 72 61
f 61 59 71
f 60 59 61
f 81 49 84
f 84 49 83
f 84 82 81
f 85 82 84
f 84 83 85
f 320 49 81
f 359 49 320
f 81 82 320
f 82 357 320
f 412 411 117
f 412 117 104
f 104 414 412
f 455 103 456
f 47 59 60
f 47 60 50
f 47 32 31
f 47 50 48
f 48 32 47
f 31 46 47
f 46 59 47
f 55 39 38
f 55 40 39
f 38 42 55
f 42 40 55
f 28 16 15
f 17 16 28
f 530 526 525
f 532 526 530
f 530 537 532
f 525 529 530
f 529 536 530
f 530 536 537
f 532 537 542
f 542 539 532
f 551 539 542
f 554 542 549
f 549 542 537
f 549 537 548
f 548 564 549
f 549 564 565
f 786 783 808
f 783 781 808
f 747 738 746
f 570 575 600
f 575 603 600
f 595 570 600
f 600 596 595
f 600 603 596
f 682 681 700
f 653 681 682
f 682 683 653
f 682 684 683
f 531 540 538
f 540 550 538
f 746 738 745
f 778 777 805
f 608 580 607
f 607 581 608
f 608 581 580
f 770 801 604
f 604 801 799
f 769 770 753
f 769 801 770
f 769 798 799
f 666 667 639
f 639 665 666
f 511 501 509
f 512 505 511
f 510 501 511
f 511 505 510
f 509 708 692
f 692 708 693
f 692 665 509
f 693 665 692
f 713 714 694
f 694 714 709
f 693 708 694
f 694 665 693
f 694 695 667
f 667 666 694
f 694 666 665
f 713 694 712
f 631 630 659
f 670 696 687
f 687 657 671
f 671 670 687
f 643 670 671
f 642 641 669
f 669 643 642
f 669 670 643
f 696 670 669
f 669 697 696
f 641 668 669
f 669 668 697
f 677 646 645
f 656 630 629
f 629 630 602
f 674 675 643
f 554 549 566
f 566 549 565
f 555 542 554
f 551 542 555
f 552 551 555
f 555 570 552
f 555 575 570
f 544 545 535
f 535 546 547
f 547 536 535
f 547 562 548
f 548 536 547
f 561 584 562
f 562 547 561
f 561 547 546
f 560 546 545
f 560 561 546
f 558 579 580
f 772 767 753
f 605 577 772
f 709 714 721
f 716 707 717
f 717 699 716
f 688 657 687
f 687 707 688
f 719 724 720
f 700 699 718
f 718 699 717
f 717 707 718
f 687 696 706
f 696 695 706
f 706 707 687
f 709 724 710
f 710 694 709
f 695 694 710
f 348 349 315
f 348 346 397
f 315 346 348
f 397 400 348
f 348 400 398
f 319 289 288
f 288 314 319
f 319 290 289
f 313 285 284
f 514 515 284
f 284 285 514
f 309 339 311
f 341 342 311
f 420 419 461
f 461 458 462
f 462 420 461
f 437 465 438
f 473 465 437
f 387 436 437
f 437 436 473
f 374 373 376
f 376 373 377
f 463 422 462
f 475 489 495
f 446 395 394
f 393 342 392
f 446 394 393
f 393 394 342
f 474 489 475
f 474 439 438
f 426 425 466
f 490 471 492
f 490 466 471
f 389 342 341
f 391 342 389
f 440 474 475
f 439 474 440
f 391 389 440
f 664 513 663
f 663 513 512
f 639 664 663
f 663 665 639
f 512 665 663
f 446 481 483
f 483 481 503
f 503 484 483
f 501 503 502
f 502 481 501
f 503 481 502
f 501 481 500
f 500 481 480
f 480 479 500
f 500 499 501
f 479 499 500
f 443 480 444
f 444 392 443
f 504 505 485
f 485 484 504
f 504 484 503
f 510 505 504
f 504 501 510
f 504 503 501
f 487 486 661
f 486 505 661
f 661 634 487
f 606 579 605
f 605 604 606
f 607 579 606
f 606 450 607
f 398 450 606
f 606 604 398
f 327 371 372
f 372 373 327
f 372 371 370
f 370 421 372
f 421 373 372
f 332 300 331
f 364 365 325
f 364 414 413
f 413 365 364
f 627 599 626
f 626 416 627
f 627 416 599
f 417 419 418
f 417 418 369
f 369 416 417
f 335 305 332
f 335 336 305
f 379 331 378
f 339 308 338
f 434 386 385
f 339 338 385
f 340 386 341
f 341 311 340
f 340 311 339
f 339 385 340
f 340 385 386
f 396 447 448
f 395 447 396
f 396 448 397
f 397 346 396
f 482 484 448
f 448 447 482
f 482 447 446
f 446 483 482
f 482 483 484
f 333 304 321
f 321 359 333
f 333 334 304
f 382 334 333
f 409 408 455
f 409 382 408
f 303 275 302
f 303 293 275
f 325 294 324
f 324 363 325
f 294 293 324
f 834 798 829
f 763 789 790
f 231 232 203
f 204 203 232
f 204 232 231
f 105 123 124
f 124 123 147
f 145 123 122
f 122 123 105
f 105 121 122
f 122 121 882
f 146 123 145
f 147 123 146
f 173 146 145
f 174 146 173
f 859 858 860
f 886 885 890
f 56 66 57
f 57 45 56
f 56 45 53
f 53 52 56
f 56 52 66
f 105 96 95
f 95 96 90
f 799 105 95
f 95 90 799
f 89 453 403
f 403 90 89
f 403 404 352
f 403 453 404
f 72 78 73
f 73 78 79
f 73 61 72
f 62 61 73
f 73 80 74
f 79 80 73
f 74 63 73
f 73 63 62
f 66 65 77
f 77 78 66
f 77 65 64
f 79 78 77
f 64 76 77
f 77 76 79
f 182 181 212
f 179 211 212
f 212 181 179
f 246 214 212
f 212 214 182
f 215 214 185
f 182 214 215
f 185 184 215
f 215 184 182
f 218 188 217
f 217 247 218
f 218 250 219
f 218 247 248
f 210 241 211
f 210 180 178
f 266 251 250
f 252 251 266
f 128 149 152
f 152 179 154
f 152 149 179
f 127 124 147
f 97 109 98
f 98 90 97
f 90 96 97
f 107 97 96
f 109 129 110
f 111 100 110
f 110 112 111
f 110 129 112
f 110 100 99
f 99 109 110
f 120 864 104
f 104 117 120
f 117 141 120
f 866 864 120
f 120 141 866
f 231 889 260
f 260 889 261
f 869 852 872
f 872 883 869
f 261 889 884
f 884 258 261
f 884 889 890
f 890 885 884
f 269 261 253
f 253 268 269
f 269 268 261
f 262 263 238
f 238 237 262
f 206 205 238
f 205 237 238
f 261 257 236
f 257 237 236
f 236 237 205
f 205 204 236
f 188 159 158
f 158 157 188
f 158 159 134
f 134 157 158
f 189 220 221
f 189 222 191
f 221 222 189
f 219 220 189
f 191 190 189
f 189 218 219
f 189 159 188
f 188 218 189
f 197 168 166
f 197 199 169
f 169 168 197
f 262 257 255
f 255 263 262
f 255 264 263
f 265 264 255
f 252 266 255
f 255 266 265
f 164 161 193
f 193 192 164
f 161 192 193
f 163 161 164
f 163 162 161
f 163 164 139
f 139 162 163
f 137 115 114
f 138 115 137
f 137 162 138
f 113 133 135
f 133 156 135
f 160 190 161
f 160 189 190
f 160 156 159
f 159 189 160
f 867 843 842
f 842 866 867
f 866 868 867
f 809 811 786
f 809 807 842
f 842 843 809
f 844 846 811
f 811 809 844
f 844 809 843
f 843 867 844
f 868 846 844
f 844 867 868
f 817 845 850
f 845 846 850
f 850 818 817
f 850 871 852
f 228 871 850
f 850 199 228
f 169 199 850
f 850 846 169
f 786 787 784
f 784 787 761
f 803 839 804
f 805 777 804
f 804 777 776
f 804 775 803
f 776 775 804
f 840 865 841
f 840 804 839
f 840 839 864
f 864 865 840
f 840 841 805
f 805 804 840
f 761 788 762
f 788 789 762
f 789 763 762
f 819 821 790
f 790 789 819
f 813 821 819
f 819 789 813
f 869 848 853
f 853 848 818
f 853 852 869
f 853 818 852
f 812 821 813
f 847 848 812
f 812 818 847
f 813 787 812
f 812 787 818
f 870 848 869
f 869 883 870
f 855 848 870
f 870 883 876
f 876 856 870
f 870 856 855
f 359 320 358
f 358 320 357
f 358 333 359
f 407 408 358
f 358 357 407
f 408 382 358
f 382 333 358
f 118 456 103
f 411 456 118
f 117 411 118
f 102 117 118
f 118 103 102
f 30 29 17
f 17 28 30
f 30 42 31
f 31 29 30
f 758 747 746
f 732 738 739
f 738 747 739
f 747 748 739
f 541 745 737
f 531 538 737
f 737 538 541
f 737 745 738
f 737 526 531
f 737 731 526
f 806 841 807
f 805 841 806
f 806 778 805
f 780 809 786
f 807 809 780
f 786 808 780
f 780 808 781
f 777 778 756
f 746 745 756
f 776 777 756
f 803 775 774
f 569 550 568
f 569 567 550
f 569 568 803
f 803 567 569
f 764 765 751
f 764 763 793
f 525 728 527
f 768 769 753
f 798 769 768
f 768 797 798
f 753 765 768
f 765 797 768
f 799 801 800
f 800 769 799
f 801 769 800
f 509 665 691
f 691 511 509
f 691 665 512
f 512 511 691
f 498 497 508
f 508 497 507
f 507 723 508
f 508 708 498
f 508 723 708
f 478 497 498
f 478 479 443
f 498 479 478
f 496 497 478
f 507 497 506
f 506 490 492
f 726 723 507
f 711 694 708
f 708 723 711
f 711 712 694
f 631 659 649
f 680 650 649
f 649 624 631
f 649 650 624
f 630 657 658
f 658 659 630
f 657 659 658
f 643 671 672
f 672 657 656
f 677 645 676
f 676 645 643
f 676 675 677
f 643 675 676
f 643 645 617
f 617 645 646
f 554 566 572
f 572 566 594
f 592 566 565
f 574 594 575
f 575 555 574
f 574 572 594
f 647 646 677
f 563 588 564
f 548 562 563
f 563 564 548
f 562 584 563
f 615 614 638
f 611 616 638
f 638 616 615
f 582 581 609
f 609 638 614
f 543 557 556
f 545 544 556
f 556 544 543
f 556 558 545
f 751 765 752
f 752 765 753
f 753 744 752
f 543 744 754
f 754 744 753
f 753 767 754
f 534 544 535
f 543 544 534
f 535 529 534
f 545 558 559
f 582 560 559
f 559 560 545
f 559 581 582
f 580 581 559
f 559 558 580
f 577 558 576
f 576 556 557
f 558 556 576
f 605 579 578
f 579 558 578
f 578 577 605
f 578 558 577
f 767 772 773
f 773 772 577
f 773 754 767
f 577 754 773
f 753 770 771
f 771 772 753
f 770 604 771
f 771 604 605
f 605 772 771
f 720 709 725
f 725 721 720
f 709 721 725
f 720 721 702
f 702 719 720
f 682 702 703
f 703 702 721
f 680 649 679
f 679 649 659
f 701 682 700
f 700 719 701
f 701 702 682
f 719 702 701
f 707 706 715
f 715 719 700
f 724 719 715
f 700 718 715
f 715 718 707
f 715 710 724
f 715 706 695
f 695 710 715
f 287 290 318
f 290 319 318
f 349 348 399
f 399 401 349
f 399 348 398
f 398 604 399
f 799 451 399
f 399 604 799
f 310 284 283
f 283 284 515
f 515 282 283
f 283 311 310
f 283 282 309
f 309 311 283
f 343 311 342
f 313 284 312
f 312 284 310
f 310 311 312
f 459 458 460
f 458 461 460
f 460 461 419
f 419 417 460
f 460 416 459
f 460 417 416
f 438 439 388
f 388 437 438
f 439 440 388
f 388 440 389
f 388 389 341
f 341 387 388
f 387 437 388
f 428 377 427
f 427 468 428
f 468 471 428
f 377 373 423
f 427 377 423
f 423 463 427
f 423 373 422
f 422 463 423
f 462 458 488
f 488 463 462
f 443 392 442
f 489 474 464
f 464 424 426
f 465 424 464
f 438 465 464
f 464 474 438
f 496 495 491
f 491 495 489
f 490 506 491
f 491 497 496
f 491 506 497
f 445 393 392
f 392 444 445
f 446 393 445
f 445 481 446
f 480 481 445
f 445 444 480
f 662 661 505
f 662 513 634
f 634 661 662
f 329 331 300
f 374 376 329
f 329 376 377
f 414 364 367
f 367 412 414
f 363 412 367
f 325 363 367
f 367 364 325
f 433 436 435
f 473 436 433
f 435 386 433
f 433 386 434
f 430 424 465
f 430 432 431
f 431 379 430
f 430 379 378
f 378 424 430
f 434 385 384
f 384 385 383
f 384 433 434
f 432 433 384
f 384 383 336
f 332 331 380
f 380 379 332
f 331 379 380
f 306 336 337
f 336 383 337
f 337 307 306
f 383 385 337
f 337 385 338
f 308 307 337
f 337 338 308
f 410 409 455
f 455 456 410
f 410 456 411
f 361 324 360
f 360 324 334
f 360 382 361
f 360 334 382
f 334 324 323
f 323 303 302
f 293 303 323
f 323 324 293
f 302 304 323
f 304 334 323
f 830 798 831
f 830 829 798
f 791 763 790
f 860 834 826
f 834 829 826
f 826 824 860
f 826 825 824
f 230 891 231
f 202 203 171
f 203 204 171
f 145 170 171
f 171 170 202
f 145 122 144
f 144 122 882
f 144 170 145
f 882 170 144
f 858 170 861
f 861 170 882
f 861 834 860
f 861 862 834
f 882 862 861
f 790 821 822
f 790 822 820
f 820 822 854
f 876 883 877
f 877 883 885
f 885 886 877
f 891 230 887
f 231 891 887
f 887 889 231
f 890 889 887
f 887 886 890
f 879 880 858
f 886 887 879
f 879 887 880
f 211 241 245
f 245 242 211
f 244 247 217
f 244 216 246
f 217 216 244
f 246 212 244
f 244 212 211
f 211 180 213
f 213 210 211
f 180 210 213
f 175 146 174
f 174 173 175
f 175 205 206
f 175 173 205
f 267 266 250
f 130 129 153
f 154 130 153
f 153 152 154
f 153 129 128
f 128 152 153
f 126 149 128
f 151 147 178
f 151 127 147
f 178 180 151
f 105 124 125
f 124 127 125
f 231 260 259
f 259 260 261
f 852 258 873
f 873 872 852
f 258 884 873
f 873 884 885
f 885 883 873
f 883 872 873
f 263 264 239
f 239 238 263
f 239 264 265
f 136 137 114
f 136 63 113
f 114 63 136
f 113 135 136
f 161 162 136
f 162 137 136
f 136 135 156
f 136 160 161
f 156 160 136
f 852 818 851
f 851 850 852
f 818 850 851
f 817 787 816
f 787 815 816
f 816 845 817
f 816 815 845
f 814 815 787
f 783 785 760
f 760 748 747
f 760 785 786
f 786 784 760
f 760 784 761
f 761 748 760
f 750 762 763
f 750 764 751
f 763 764 750
f 849 848 855
f 849 812 848
f 849 855 821
f 821 812 849
f 747 758 759
f 783 760 759
f 759 760 747
f 761 762 749
f 749 748 761
f 762 750 749
f 807 780 779
f 779 806 807
f 778 806 779
f 541 538 755
f 755 745 541
f 755 756 745
f 755 538 550
f 755 774 775
f 755 775 776
f 776 756 755
f 550 774 755
f 550 567 802
f 802 774 550
f 802 567 803
f 803 774 802
f 798 797 833
f 732 739 733
f 673 672 656
f 643 672 673
f 673 674 643
f 656 678 673
f 678 675 673
f 675 674 673
f 686 671 657
f 657 672 686
f 686 672 671
f 644 616 643
f 643 617 644
f 644 617 616
f 615 616 587
f 616 617 587
f 587 614 615
f 586 614 587
f 587 563 586
f 588 563 587
f 564 588 589
f 590 564 589
f 589 620 590
f 628 602 601
f 628 629 602
f 565 590 591
f 591 592 565
f 554 572 573
f 572 574 573
f 573 555 554
f 573 574 555
f 613 609 581
f 638 609 613
f 611 638 613
f 584 561 583
f 582 609 583
f 583 560 582
f 561 560 583
f 585 614 586
f 585 609 614
f 586 563 585
f 585 563 584
f 584 583 585
f 585 583 609
f 766 557 543
f 543 754 766
f 766 754 577
f 577 576 766
f 766 576 557
f 742 735 734
f 751 752 742
f 742 752 744
f 744 735 742
f 734 735 730
f 730 733 734
f 743 744 543
f 743 735 744
f 543 534 743
f 534 735 743
f 470 468 427
f 722 721 714
f 680 679 698
f 698 699 680
f 698 716 699
f 698 679 688
f 707 716 698
f 698 688 707
f 689 659 657
f 689 679 659
f 657 688 689
f 688 679 689
f 316 317 287
f 287 318 316
f 799 454 406
f 347 318 319
f 347 319 314
f 347 314 315
f 315 349 347
f 395 343 390
f 390 343 342
f 390 394 395
f 342 394 390
f 344 312 311
f 344 343 395
f 311 343 344
f 313 312 345
f 395 396 345
f 345 344 395
f 312 344 345
f 345 346 313
f 345 396 346
f 429 466 425
f 429 425 377
f 377 428 429
f 471 466 429
f 429 428 471
f 654 684 685
f 685 488 458
f 685 655 654
f 458 655 685
f 476 495 496
f 475 495 476
f 496 478 477
f 477 476 496
f 442 476 477
f 477 478 443
f 443 442 477
f 489 464 467
f 467 491 489
f 490 491 467
f 466 490 467
f 426 466 467
f 467 464 426
f 690 505 513
f 513 662 690
f 690 662 505
f 299 300 272
f 272 298 299
f 299 298 327
f 328 327 374
f 374 329 328
f 328 299 327
f 329 299 328
f 377 425 375
f 375 329 377
f 375 424 378
f 378 331 375
f 331 329 375
f 375 425 426
f 426 424 375
f 472 465 473
f 472 430 465
f 432 430 472
f 473 433 472
f 472 433 432
f 381 379 431
f 431 432 381
f 432 384 381
f 336 335 381
f 381 384 336
f 381 335 332
f 332 379 381
f 411 412 362
f 362 410 411
f 362 324 361
f 409 410 362
f 362 412 363
f 363 324 362
f 361 382 362
f 382 409 362
f 793 826 828
f 828 826 829
f 202 170 201
f 201 203 202
f 231 203 233
f 233 230 231
f 203 230 233
f 172 171 204
f 172 204 205
f 205 173 172
f 172 173 145
f 145 171 172
f 860 858 878
f 878 861 860
f 858 861 878
f 823 820 854
f 860 824 823
f 823 859 860
f 858 859 823
f 823 854 858
f 825 826 792
f 820 823 792
f 792 826 793
f 824 825 792
f 792 823 824
f 793 763 792
f 763 791 792
f 792 791 790
f 790 820 792
f 200 170 858
f 200 201 170
f 875 877 886
f 886 879 875
f 854 874 875
f 858 854 875
f 875 879 858
f 243 242 247
f 247 244 243
f 211 242 243
f 243 244 211
f 178 147 177
f 147 146 177
f 177 210 178
f 177 175 210
f 242 245 249
f 249 245 241
f 248 247 249
f 247 242 249
f 249 267 250
f 241 266 249
f 266 267 249
f 250 218 249
f 249 218 248
f 106 107 96
f 106 96 105
f 105 125 106
f 127 126 106
f 106 125 127
f 127 151 150
f 150 180 179
f 150 151 180
f 234 259 261
f 234 204 231
f 231 259 234
f 240 239 265
f 265 266 240
f 240 266 241
f 224 223 253
f 253 225 224
f 226 198 222
f 226 222 252
f 810 787 786
f 810 814 787
f 815 814 810
f 845 815 810
f 786 811 810
f 811 845 810
f 783 759 782
f 782 759 758
f 782 781 783
f 782 758 781
f 757 756 778
f 778 779 757
f 781 758 757
f 757 780 781
f 757 779 780
f 757 758 746
f 746 756 757
f 795 830 831
f 829 830 795
f 734 733 740
f 740 733 739
f 740 739 748
f 748 749 740
f 588 587 618
f 618 587 617
f 618 589 588
f 618 617 646
f 590 620 621
f 621 591 590
f 620 647 621
f 592 591 622
f 591 621 622
f 622 628 601
f 629 628 622
f 612 581 611
f 611 613 612
f 612 613 581
f 741 742 734
f 734 740 741
f 741 750 751
f 751 742 741
f 741 749 750
f 741 740 749
f 736 735 534
f 736 730 735
f 733 730 729
f 728 731 729
f 729 527 728
f 729 731 732
f 732 733 729
f 469 470 427
f 494 470 469
f 427 463 469
f 463 488 469
f 492 468 493
f 468 470 493
f 493 506 492
f 507 506 493
f 318 347 355
f 452 406 401
f 452 399 451
f 401 399 452
f 452 451 799
f 799 406 452
f 441 440 475
f 475 476 441
f 391 440 441
f 441 392 391
f 441 442 392
f 441 476 442
f 330 329 300
f 300 299 330
f 330 299 329
f 880 887 881
f 858 880 881
f 881 200 858
f 888 887 230
f 201 200 888
f 888 881 887
f 200 881 888
f 888 230 203
f 203 201 888
f 876 877 857
f 877 875 857
f 857 875 874
f 857 856 876
f 854 822 857
f 857 874 854
f 821 856 857
f 857 822 821
f 146 175 176
f 176 177 146
f 175 177 176
f 107 106 108
f 109 97 108
f 97 107 108
f 128 109 108
f 108 126 128
f 108 106 126
f 148 126 127
f 127 150 148
f 149 126 148
f 179 149 148
f 148 150 179
f 235 236 204
f 204 234 235
f 261 236 235
f 235 234 261
f 239 240 208
f 208 240 241
f 228 199 229
f 199 225 229
f 229 225 253
f 253 852 229
f 852 228 229
f 198 226 196
f 166 198 196
f 196 197 166
f 223 224 196
f 199 197 196
f 196 225 199
f 196 224 225
f 227 255 257
f 223 196 227
f 227 196 226
f 227 257 253
f 253 223 227
f 252 255 254
f 254 226 252
f 255 226 254
f 831 798 832
f 832 795 831
f 798 833 832
f 833 795 832
f 827 828 829
f 829 795 827
f 793 828 827
f 794 764 793
f 794 795 764
f 793 827 794
f 794 827 795
f 796 833 797
f 796 795 833
f 796 797 765
f 765 764 796
f 764 795 796
f 619 618 646
f 589 618 619
f 646 647 619
f 619 647 620
f 620 589 619
f 648 647 677
f 648 621 647
f 677 675 648
f 648 675 678
f 648 622 621
f 629 622 648
f 648 678 656
f 656 629 648
f 592 622 593
f 594 566 593
f 566 592 593
f 593 622 601
f 601 575 593
f 575 594 593
f 528 529 525
f 528 534 529
f 704 722 494
f 704 703 721
f 721 722 704
f 704 685 684
f 684 682 704
f 682 703 704
f 727 470 494
f 727 493 470
f 494 722 727
f 727 722 714
f 712 726 727
f 727 714 713
f 713 712 727
f 727 726 507
f 507 493 727
f 402 347 349
f 402 355 347
f 349 401 402
f 401 406 402
f 406 355 402
f 405 406 454
f 405 454 90
f 351 403 352
f 351 354 403
f 352 317 351
f 317 354 351
f 353 354 317
f 406 405 353
f 403 354 353
f 90 403 353
f 353 405 90
f 241 210 209
f 209 208 241
f 210 175 209
f 175 208 209
f 238 239 207
f 239 208 207
f 206 238 207
f 207 175 206
f 207 208 175
f 256 226 255
f 255 227 256
f 256 227 226
f 730 736 533
f 533 729 730
f 533 736 534
f 534 528 533
f 527 729 533
f 494 469 705
f 705 704 494
f 705 469 488
f 488 685 705
f 685 704 705
f 350 353 317
f 317 316 350
f 350 316 318
f 356 350 318
f 353 350 356
f 318 355 356
f 356 355 406
f 406 353 356
f 520 524 523
f 523 521 520
f 4 5 1
f 13 5 4
f 524 520 4
f 1 524 4
f 57 69 58
f 68 69 57
f 27 40 28
f 15 27 28
f 30 28 40
f 30 40 42
f 737 738 732
f 732 731 737
f 723 726 711
f 711 726 712
f 533 528 525
f 525 527 533

