# https://github.com/mikedh/trimesh
v -0.00006399 0.13065244 0.04038939
v 0.02664340 0.21785195 -0.06342727
v 0.04449737 0.22973321 0.04936547
v 0.01270627 0.12889094 -0.04585104
v -0.02712449 0.20229655 0.00232419
v 0.06927060 0.16452806 0.00210953
v 0.04672744 0.22639056 -0.00891761
v -0.01565317 0.17819528 -0.04848186
v -0.00906276 0.22554479 0.04921343
v 0.04646180 0.16764264 -0.06068659
v -0.03320488 0.17185160 0.04425190
v 0.05034224 0.13393605 0.03982799
v 0.07510539 0.18900116 0.04526100
v -0.01998735 0.15388352 -0.00217420
v 0.00267285 0.22845951 -0.02055672
v 0.06436230 0.19466138 -0.03087557
v 0.01601653 0.23545918 0.01574226
v 0.01276264 0.18503175 -0.07145819
v 0.06859482 0.20596338 0.01138890
v -0.00646710 0.21431582 -0.05090372
v 0.05467339 0.15660486 -0.02886911
v 0.05355415 0.19911818 -0.06056779
v 0.07134248 0.15824600 0.04104479
v -0.02911669 0.20254688 0.04569026
v -0.02257234 0.14876876 0.02767863
v 0.04381336 0.22155605 -0.03933023
v -0.02211067 0.20092934 -0.02945639
v -0.01267558 0.22417095 0.02005516
v 0.04831397 0.22841063 0.01998446
v 0.05387339 0.14177693 0.00736180
v -0.03146071 0.17654991 0.01135034
v -0.02444649 0.17375747 -0.01986181
v 0.06421757 0.21448914 0.03666735
v 0.01494273 0.23491061 0.04534393
v 0.07481346 0.18204457 0.02006245
v 0.02434989 0.12590016 0.03573367
v 0.01328635 0.22664157 -0.04392923
v 0.07046022 0.18872060 -0.00838671
v -0.01343936 0.22115973 -0.00438376
v 0.02281740 0.23338161 -0.00870007
v -0.00712144 0.19423457 -0.06561642
v 0.02597898 0.16466895 -0.06933071
v -0.03118618 0.19598068 0.02310518
v 0.03136920 0.19640164 -0.06969214
v 0.05903602 0.18212407 -0.04789020
v 0.06575661 0.15190457 0.02129075
v 0.06405148 0.20936869 -0.00840147
v -0.00095905 0.17296938 -0.06639948
v -0.02102556 0.21610966 0.03523596
v -0.00121274 0.23106316 0.03290676
v 0.03063702 0.23625123 0.03593885
v 0.04489916 0.21505088 -0.05641297
v 0.05419796 0.21742241 -0.02493800
v -0.00827453 0.21898823 -0.03342909
v 0.05772278 0.15177302 -0.01161353
v 0.05818747 0.21976366 0.00608622
v 0.03310494 0.22947142 -0.02281481
v 0.07264073 0.19863527 0.02666598
v 0.05601210 0.20931708 -0.04056405
v 0.05338565 0.16503850 -0.04504668
v -0.02777479 0.18850728 -0.01173173
v 0.00351869 0.21286856 -0.06477689
v -0.03077881 0.16569078 0.02457738
v -0.01667282 0.16440576 -0.03170593
v -0.00280229 0.22958064 0.00580122
v -0.02721053 0.15587713 0.04233165
v 0.06441979 0.16816695 -0.02138529
v 0.03189655 0.23410846 0.01024729
v 0.07313143 0.16649916 0.02587129
v -0.01948968 0.21118050 -0.01611962
v -0.01420716 0.13843528 0.03733523
v 0.06283577 0.14446874 0.03999011
v -0.02436991 0.21070906 0.01587412
v -0.03354863 0.18198780 0.03085439
v 0.01755247 0.23008172 -0.02877370
v 0.06943022 0.20355973 0.04745865
v 0.07548899 0.17431745 0.03988344
v 0.04791533 0.18206548 -0.06635703
v -0.02128250 0.17903769 -0.03384010
v 0.07304955 0.18068329 0.00504356
v -0.02801375 0.17052279 -0.00200960
v 0.05598684 0.14056833 0.02271045
v 0.05166659 0.22659620 0.03431871
v 0.06226796 0.21681137 0.02227617
v -0.01920502 0.14778971 0.01355397
v 0.02809711 0.23326803 0.05037249
v 0.05605604 0.22164580 0.04893807
v 0.02733127 0.18299372 -0.07140361
v 0.06095522 0.17109837 -0.03488164
v 0.01759532 0.19811945 -0.07078194
v 0.00614711 0.22184846 -0.05434035
v -0.02689859 0.16169192 0.00806828
v -0.03272989 0.18964359 0.04592018
v -0.03061340 0.18740272 0.00362665
v 0.01121995 0.23345459 -0.00226229
v 0.06426100 0.15321268 0.00638142
v -0.01676347 0.21959204 0.00818076
v 0.00369111 0.23298787 0.01914481
v 0.00230870 0.23181957 0.04586074
v -0.01292608 0.19994477 -0.05553879
v 0.03692653 0.12820279 0.03529640
v 0.04238072 0.23014554 0.00250361
v 0.07006179 0.17743077 -0.01426064
v 0.06714485 0.19798010 -0.01638048
v -0.01871008 0.16034857 -0.01989344
v -0.01721887 0.19071729 -0.04795888
v 0.06149722 0.20720976 -0.02578590
v -0.02251629 0.21290564 0.04825199
v -0.01155407 0.18412265 -0.05996938
v -0.01176397 0.22488428 0.03472226
v 0.03541568 0.22279328 -0.04820252
v 0.07063331 0.19649976 0.00108251
v 0.07202622 0.16656831 0.01374089
v 0.01313418 0.12713956 0.04015078
v 0.05818290 0.19521664 -0.05018087
v -0.00929297 0.17243874 -0.05779633
v 0.00326435 0.22635465 -0.03226001
v -0.01295270 0.21044021 -0.04172141
v -0.00724300 0.22442949 -0.01386805
v 0.01479044 0.23555153 0.02733801
v 0.04495730 0.22438046 -0.02481954
v 0.06640057 0.16507832 -0.01049564
v 0.04386684 0.20655064 -0.06407382
v -0.02425260 0.18734032 -0.02647781
v -0.02923757 0.20253411 0.03230959
v 0.05570216 0.18599380 -0.05800298
v 0.05731478 0.21839777 -0.00773396
v -0.02258419 0.20961170 -0.00496525
f 71 85 4
f 4 36 114
f 42 48 18
f 4 48 42
f 101 36 4
f 85 71 25
f 116 48 4
f 8 109 116
f 116 109 48
f 108 114 86
f 86 34 99
f 86 3 51
f 51 34 86
f 76 86 114
f 88 42 18
f 51 3 29
f 4 85 14
f 14 105 4
f 85 25 14
f 11 114 108
f 8 116 64
f 64 32 8
f 105 32 64
f 4 105 64
f 64 116 4
f 108 86 9
f 9 86 99
f 22 123 52
f 102 68 51
f 51 29 102
f 53 47 107
f 8 32 79
f 4 21 55
f 55 30 4
f 126 60 10
f 4 42 10
f 10 21 4
f 10 60 21
f 114 11 1
f 1 71 4
f 4 114 1
f 108 24 93
f 93 11 108
f 74 11 93
f 68 102 57
f 57 102 121
f 12 76 114
f 12 13 76
f 12 114 36
f 36 101 12
f 12 30 82
f 12 101 4
f 4 30 12
f 84 33 19
f 19 47 84
f 84 47 56
f 126 22 115
f 115 103 126
f 16 103 115
f 115 107 16
f 115 22 107
f 78 88 44
f 44 123 78
f 123 22 78
f 42 88 78
f 78 10 42
f 78 22 126
f 126 10 78
f 126 103 45
f 77 69 35
f 35 69 113
f 35 13 77
f 121 102 7
f 7 53 121
f 7 29 56
f 7 102 29
f 16 107 104
f 107 47 104
f 52 53 59
f 59 53 107
f 59 22 52
f 107 22 59
f 105 14 92
f 92 14 25
f 25 63 92
f 74 94 31
f 31 11 74
f 31 63 11
f 82 30 96
f 30 55 96
f 71 1 66
f 66 1 11
f 66 25 71
f 66 63 25
f 11 63 66
f 5 27 94
f 124 79 32
f 90 88 18
f 44 88 90
f 48 109 41
f 18 48 41
f 41 90 18
f 62 90 41
f 62 41 100
f 100 41 109
f 77 13 23
f 23 69 77
f 113 69 23
f 33 84 83
f 83 29 3
f 56 29 83
f 83 84 56
f 13 35 58
f 76 13 58
f 19 33 58
f 58 33 76
f 21 60 89
f 89 67 21
f 89 60 126
f 126 45 89
f 89 45 103
f 103 67 89
f 122 55 21
f 21 67 122
f 122 96 55
f 122 67 103
f 127 7 56
f 53 7 127
f 56 47 127
f 47 53 127
f 113 103 80
f 80 35 113
f 81 92 63
f 63 31 81
f 81 32 105
f 105 92 81
f 120 34 51
f 51 17 120
f 99 34 120
f 68 57 40
f 95 17 40
f 51 68 40
f 40 17 51
f 15 65 95
f 95 37 15
f 26 57 121
f 26 111 57
f 52 111 26
f 26 53 52
f 121 53 26
f 91 37 2
f 37 111 2
f 2 111 52
f 2 62 91
f 52 123 2
f 2 90 62
f 2 123 44
f 44 90 2
f 94 27 61
f 27 124 61
f 61 31 94
f 61 124 32
f 32 81 61
f 61 81 31
f 106 124 27
f 27 100 106
f 106 100 109
f 79 124 106
f 106 109 8
f 8 79 106
f 13 12 72
f 72 23 13
f 72 12 82
f 82 96 72
f 87 83 3
f 33 83 87
f 76 33 87
f 3 86 87
f 86 76 87
f 112 58 35
f 19 58 112
f 112 47 19
f 112 104 47
f 113 96 6
f 96 122 6
f 6 103 113
f 6 122 103
f 95 65 98
f 98 17 95
f 98 120 17
f 99 120 98
f 91 62 20
f 20 54 91
f 62 100 20
f 75 40 57
f 57 111 75
f 75 111 37
f 75 37 95
f 95 40 75
f 117 37 91
f 117 15 37
f 91 54 117
f 65 15 119
f 119 117 54
f 15 117 119
f 43 93 24
f 24 125 43
f 74 93 43
f 43 94 74
f 43 5 94
f 43 125 5
f 46 72 96
f 23 72 46
f 46 96 113
f 113 23 46
f 35 80 38
f 38 112 35
f 38 80 103
f 104 112 38
f 38 103 16
f 16 104 38
f 50 98 65
f 50 9 99
f 99 98 50
f 27 5 128
f 128 70 27
f 118 70 54
f 54 20 118
f 27 70 118
f 118 100 27
f 118 20 100
f 54 70 39
f 39 119 54
f 70 128 39
f 65 119 39
f 5 125 73
f 73 128 5
f 9 50 110
f 49 125 24
f 49 73 125
f 49 24 108
f 108 9 49
f 9 110 49
f 97 39 128
f 128 73 97
f 73 49 97
f 28 49 110
f 28 97 49
f 28 50 65
f 28 110 50
f 65 39 28
f 39 97 28

