# https://github.com/mikedh/trimesh
v 0.00718493 -0.00088517 0.02814436
v -0.00563552 0.00658681 0.08892869
v -0.00620609 0.00716607 0.00138314
v 0.00477635 0.00886763 0.05270261
v -0.00688445 0.00778312 0.02202353
v -0.00744059 -0.00037508 0.03514946
v 0.00709854 -0.00176626 0.08770996
v 0.00090590 -0.00081815 0.01456720
v 0.00655149 0.00750676 0.00362404
v 0.00481648 0.00868609 0.08595857
v -0.00569347 -0.00174289 0.08332875
v -0.00569363 0.00834711 0.01326208
v -0.00702512 -0.00084573 0.02323155
v -0.00043816 -0.00125202 0.08917163
v -0.00533143 -0.00089192 0.01619022
v -0.00613754 0.00049987 0.08902996
v 0.00433349 0.00882718 0.00888213
v -0.00744527 -0.00037508 0.02902489
v 0.00394138 0.00400381 0.08929864
v -0.00043724 0.00720438 0.08906622
v 0.00306557 0.00653424 0.00170578
v 0.00615168 -0.00082808 0.02419389
v 0.00481774 0.00050040 0.08932337
v -0.00643602 0.00816141 0.01852284
v 0.00306524 0.00771867 0.08894881
v 0.00653292 0.00575462 0.08683352
v -0.00569368 0.00839365 0.08595673
v 0.00729617 0.00750723 0.05092524
v -0.00711765 0.00662960 0.00450713
v -0.00306566 0.00831695 0.08771013
v -0.00219021 -0.00094569 0.01518563
v -0.00615746 -0.00170998 0.08683447
v -0.00701978 0.00427890 0.08735987
v 0.00394069 0.00871903 0.00362775
v -0.00613411 -0.00081527 0.01893851
v 0.00554296 0.00750627 0.08838920
v 0.00617653 0.00284838 0.08906438
v -0.00558084 0.00829011 0.00351732
v -0.00394133 0.00630894 0.00157844
v -0.00712599 0.00663047 0.08683133
v 0.00789188 0.00098372 0.02949163
v 0.00273067 -0.00025628 0.01588464
v 0.00131296 0.00575524 0.08919825
v 0.00528796 0.00883611 0.00537777
v -0.00481643 -0.00163185 0.08858605
v 0.00481774 -0.00162096 0.08890022
v 0.00166854 -0.00168785 0.08901493
v -0.00569363 0.00561952 0.00275354
v 0.00500816 0.00623545 0.00249598
v 0.00535817 0.00551625 0.08905591
v 0.00481767 0.00818428 0.00199818
v -0.00700783 -0.00168876 0.03034333
v 0.00131296 0.00820552 0.08849860
v -0.00628578 0.00804438 0.08770803
v 0.00671572 -0.00037547 0.08871456
v 0.00615039 0.00797398 0.08508101
v -0.00481656 0.00809323 0.00187475
v 0.00394138 0.00856381 0.08771013
v 0.00624046 0.00745769 0.08683352
v -0.00616299 -0.00171585 0.08495108
v -0.00659230 -0.00037585 0.08771026
v -0.00705923 0.00687032 0.00275354
v -0.00481689 0.00806267 0.08828688
v -0.00196814 0.00709924 0.08903337
v -0.00187656 -0.00169056 0.08902524
v 0.00615769 0.00882969 0.05219506
v -0.00695873 0.00575434 0.08799956
v -0.00481643 -0.00037585 0.08933692
v 0.00394138 0.00575524 0.08919642
v 0.00614956 0.00704334 0.00229047
v 0.00534652 0.00398781 0.08921164
v 0.00589922 0.00629350 0.00362404
v -0.00098402 -0.00083431 0.01454953
v 0.00449700 0.00700996 0.00140127
v 0.00534652 0.00840210 0.08716805
v -0.00614418 -0.00169959 0.08817434
v 0.00569354 0.00853160 0.00362404
v 0.00634632 0.00487964 0.08848868
v -0.00623600 0.00524419 0.00386414
v 0.00620034 0.00641552 0.08824739
v -0.00751046 0.00050038 0.02814810
v 0.00306524 0.00487924 0.08925544
v 0.00218910 0.00663067 0.08917330
v -0.00611541 0.00171207 0.08901966
v -0.00681130 0.00766030 0.00363033
v -0.00722468 0.00662960 0.02202353
v -0.00616075 0.00796097 0.00227942
v -0.00393353 0.00758821 0.00126281
v -0.00642551 0.00815551 0.01413887
v 0.00569310 -0.00037547 0.08923270
v 0.00716114 -0.00037547 0.08770996
v 0.00394113 0.00615087 0.00222387
v 0.00131296 0.00729467 0.08908387
v 0.00624191 0.00806723 0.00275174
v 0.00709402 0.00808184 0.05180156
v -0.00608886 -0.00055695 0.08898532
v 0.00043786 0.00663067 0.08914897
v -0.00683231 0.00762963 0.08683133
v -0.00481741 0.00674603 0.00122643
v 0.00577770 0.00826715 0.08598902
v -0.00481741 0.00599552 0.00200251
v 0.00481648 0.00312781 0.08932723
v 0.00481648 0.00818210 0.08837570
v 0.00043705 -0.00169237 0.08902696
v -0.00569368 0.00750660 0.08858472
v -0.00651079 0.00663047 0.08848824
v 0.00043786 0.00769067 0.08891535
v -0.00629652 0.00607445 0.00214303
v -0.00558084 0.00637654 0.00159286
v 0.00394069 0.00772976 0.00152967
v -0.00771493 0.00050038 0.03514946
v 0.00392994 0.00747238 0.08887641
v -0.00708447 0.00658931 0.00361085
v -0.00481656 0.00825691 0.00275355
v 0.00457224 0.00635981 0.08905406
v 0.00394069 0.00860330 0.00275355
v 0.00647443 0.00575462 0.08770978
v 0.00218910 0.00777467 0.08895489
v 0.00481767 0.00874571 0.00362404
v -0.00394075 0.00808381 0.08832521
v -0.00569368 0.00833114 0.08683133
v -0.00744036 -0.00037508 0.02814810
v 0.00481774 -0.00037547 0.08929026
v 0.00306524 0.00663067 0.08915627
v 0.00218910 0.00575524 0.08921164
v -0.00711403 0.00575434 0.08683133
v 0.00569310 -0.00158990 0.08888295
v 0.00394138 0.00487924 0.08926578
f 41 7 1
f 7 52 1
f 76 6 52
f 89 85 5
f 12 38 89
f 11 52 7
f 7 76 11
f 40 86 111
f 87 38 57
f 85 89 87
f 87 89 38
f 66 44 4
f 4 44 17
f 17 38 12
f 44 38 17
f 51 88 57
f 95 28 9
f 9 28 41
f 41 1 9
f 4 17 27
f 27 17 12
f 81 122 111
f 52 6 18
f 18 122 52
f 18 6 111
f 111 122 18
f 34 38 44
f 24 89 5
f 54 27 24
f 12 89 24
f 24 27 12
f 52 11 60
f 126 40 111
f 54 24 98
f 98 24 5
f 5 86 98
f 86 40 98
f 95 9 94
f 70 9 1
f 70 94 9
f 70 74 51
f 51 94 70
f 28 59 26
f 56 28 95
f 56 59 28
f 121 27 54
f 57 38 114
f 38 34 114
f 76 45 96
f 96 45 68
f 54 98 106
f 7 55 127
f 32 11 76
f 32 60 11
f 32 76 52
f 52 60 32
f 22 1 52
f 52 8 22
f 22 70 1
f 72 70 22
f 31 8 52
f 73 8 31
f 52 15 31
f 52 122 13
f 73 31 48
f 48 31 15
f 88 51 110
f 110 74 88
f 51 74 110
f 77 66 95
f 95 94 77
f 44 66 77
f 77 94 51
f 91 55 7
f 28 26 91
f 91 7 41
f 41 28 91
f 75 59 100
f 59 56 100
f 95 66 100
f 100 56 95
f 4 27 10
f 10 66 4
f 75 100 10
f 10 100 66
f 68 84 16
f 16 96 68
f 84 106 16
f 76 96 61
f 111 6 61
f 6 76 61
f 40 126 67
f 67 98 40
f 67 106 98
f 67 16 106
f 96 16 67
f 67 61 96
f 2 84 68
f 2 106 84
f 68 45 65
f 65 45 76
f 65 76 7
f 42 8 72
f 72 22 42
f 42 22 8
f 35 15 52
f 52 13 35
f 57 88 3
f 3 87 57
f 116 51 57
f 57 114 116
f 116 114 34
f 33 67 126
f 61 67 33
f 33 126 111
f 111 61 33
f 54 106 105
f 106 2 105
f 68 65 14
f 29 81 111
f 111 86 29
f 88 74 99
f 99 3 88
f 74 70 49
f 49 92 74
f 49 70 72
f 72 8 49
f 8 92 49
f 119 77 51
f 51 116 119
f 44 77 119
f 119 34 44
f 119 116 34
f 97 2 68
f 63 30 121
f 63 120 30
f 63 121 54
f 54 105 63
f 123 47 127
f 14 47 123
f 68 14 123
f 108 48 15
f 39 99 74
f 117 26 59
f 117 91 26
f 104 14 65
f 104 47 14
f 104 65 7
f 7 47 104
f 7 127 46
f 46 47 7
f 127 47 46
f 3 108 62
f 85 87 62
f 87 3 62
f 62 29 86
f 5 85 62
f 62 86 5
f 3 99 109
f 109 108 3
f 99 39 109
f 74 92 21
f 21 39 74
f 92 39 21
f 101 92 8
f 101 39 92
f 101 8 73
f 73 48 101
f 101 109 39
f 48 108 101
f 108 109 101
f 82 125 68
f 128 125 82
f 43 97 68
f 68 125 43
f 43 125 97
f 2 97 64
f 97 20 64
f 64 105 2
f 120 63 107
f 107 63 105
f 105 64 107
f 107 64 20
f 78 37 55
f 55 91 78
f 91 117 78
f 78 50 37
f 55 37 90
f 90 127 55
f 90 123 127
f 37 50 71
f 71 90 37
f 102 90 71
f 68 102 19
f 19 102 128
f 19 82 68
f 128 82 19
f 113 35 13
f 113 62 35
f 113 13 122
f 29 62 113
f 122 81 113
f 81 29 113
f 79 108 15
f 79 62 108
f 15 35 79
f 35 62 79
f 30 120 58
f 75 10 58
f 121 30 58
f 27 121 58
f 58 10 27
f 50 78 80
f 80 117 59
f 80 78 117
f 123 90 23
f 23 90 102
f 68 123 23
f 23 102 68
f 53 58 120
f 75 58 103
f 58 53 103
f 97 125 83
f 83 125 128
f 128 124 83
f 69 124 128
f 69 71 50
f 128 102 69
f 102 71 69
f 25 124 115
f 115 69 50
f 124 69 115
f 50 80 36
f 36 115 50
f 36 80 59
f 36 59 75
f 75 103 36
f 93 20 97
f 97 83 93
f 93 124 25
f 93 83 124
f 112 103 25
f 25 115 112
f 112 36 103
f 115 36 112
f 118 93 25
f 118 107 20
f 20 93 118
f 120 107 118
f 118 53 120
f 25 103 118
f 118 103 53

