# https://github.com/mikedh/trimesh
v 0.03835505 -0.00552753 -0.00239289
v 0.03825749 -0.00704625 -0.00395333
v 0.03804736 -0.00498754 -0.00655912
v 0.03794230 -0.00317856 -0.00487748
v 0.03817494 -0.00400880 -0.00008252
v 0.03830251 -0.00645901 0.00037955
v 0.03809990 -0.00849748 -0.00105969
v 0.03781472 -0.00945597 -0.00330188
v 0.03765713 -0.00929397 -0.00574860
v 0.03765713 -0.00772124 -0.00805896
v 0.03752205 -0.00539928 -0.00977848
v 0.03747702 -0.00317181 -0.00847559
v 0.03770216 -0.00176108 -0.00315796
v 0.03721436 -0.00118059 -0.00672577
v 0.03772467 -0.00238207 0.00225814
v 0.03801734 -0.00508203 0.00351559
v 0.03812241 -0.00697201 0.00278839
v 0.03800984 -0.00836248 0.00205362
v 0.03741698 -0.01087345 0.00047045
v 0.03644890 -0.01386365 -0.00263529
v 0.02778871 -0.04072150 -0.00448358
v 0.03574348 -0.01555113 -0.00504413
v 0.02702325 -0.04255072 -0.00631672
v 0.03683914 -0.01142019 -0.00703634
v 0.03665153 -0.00850423 -0.01174040
v 0.03699673 -0.00656701 -0.01176312
v 0.03683163 -0.00427879 -0.01240699
v 0.03576599 -0.00088360 -0.01299784
v 0.03644890 -0.00031660 -0.00932398
v 0.03682413 0.00036514 -0.00401393
v 0.03703425 -0.00002636 -0.00058247
v 0.03704176 -0.00093759 0.00390949
v 0.03703425 -0.00304356 0.00738640
v 0.03773968 -0.00386030 0.00454578
v 0.03710930 -0.00543303 0.00851506
v 0.03760460 -0.00694501 0.00629560
v 0.03753705 -0.00844348 0.00551538
v 0.03740197 -0.01002296 0.00376556
v 0.03635135 -0.01343166 0.00356104
v 0.02773618 -0.04074175 0.00110675
v 0.02925208 -0.03614507 0.00062952
v 0.02748102 -0.04211873 -0.00205201
v 0.02642289 -0.04401546 0.00057650
v 0.02580001 -0.04431920 -0.00509715
v 0.02589007 -0.04371171 -0.00858164
v 0.02583003 -0.04292872 -0.01164950
v 0.03589357 -0.01144044 -0.01104350
v 0.03524068 -0.01024571 -0.01467948
v 0.03597612 -0.00783599 -0.01441436
v 0.03528570 -0.00638476 -0.01670200
v 0.03589357 -0.00471079 -0.01530821
v 0.03574348 -0.00287482 -0.01500521
v 0.03499303 -0.00127509 -0.01577785
v 0.03620876 -0.00018161 0.00665162
v 0.03564592 -0.00082960 0.00981796
v 0.03587856 -0.00261157 0.01118903
v 0.03619375 -0.00432604 0.01137840
v 0.03682413 -0.00673576 0.00967404
v 0.03680161 -0.00855823 0.00888624
v 0.03673407 -0.01042795 0.00706067
v 0.03503055 -0.01642186 0.00573505
v 0.03385985 -0.02061355 0.00446246
v 0.02667804 -0.04302322 0.00351559
v 0.02554486 -0.04457569 0.00514420
v 0.02542479 -0.04479844 0.00100070
v 0.02421656 -0.04521694 -0.00499868
v 0.02429911 -0.04484569 -0.00941488
v 0.02492949 -0.04423820 -0.01096775
v 0.02297832 -0.04312447 -0.01705045
v 0.02378881 -0.04103200 -0.01708832
v 0.03403245 -0.01098145 -0.01695197
v 0.03422757 -0.00836924 -0.01819427
v 0.03372477 -0.00692475 -0.01978501
v 0.03356717 -0.00498754 -0.02034556
v 0.03471537 -0.00370505 -0.01790642
v 0.03404746 -0.00236857 -0.01871694
v 0.03299683 -0.00053935 -0.01945171
v 0.03416753 -0.00108609 0.01391602
v 0.03440768 -0.00256432 0.01471139
v 0.03464782 -0.00427879 0.01514316
v 0.03522567 -0.00558828 0.01415841
v 0.03563841 -0.00720150 0.01302975
v 0.03611120 -0.00853123 0.01112843
v 0.03606617 -0.01128519 0.00873474
v 0.02584504 -0.04313797 0.00706825
v 0.02375128 -0.04464994 0.00987856
v 0.02395391 -0.04535868 0.00715915
v 0.02402145 -0.04556793 0.00493968
v 0.02417904 -0.04550043 0.00134157
v 0.02256557 -0.04565568 -0.00720299
v 0.02286575 -0.04599992 -0.00015827
v 0.02092959 -0.04570968 -0.01030115
v 0.02289577 -0.04478494 -0.01236912
v 0.02117724 -0.04444070 -0.01644445
v 0.02394640 -0.04386695 -0.01355839
v 0.01951124 -0.04418420 -0.01946686
v 0.02145491 -0.04271272 -0.01930779
v 0.02219785 -0.03955377 -0.01993651
v 0.02328601 -0.03476134 -0.02088338
v 0.02896691 -0.01061695 -0.02529959
v 0.03114322 -0.00877423 -0.02329222
v 0.03067794 -0.01256092 -0.02198933
v 0.03227640 -0.01165644 -0.01994408
v 0.03280922 -0.00759975 -0.02116366
v 0.03170606 -0.00610127 -0.02336040
v 0.03268164 -0.00392780 -0.02179238
v 0.03220135 -0.00232807 -0.02201963
v 0.03040778 -0.00018161 -0.02345129
v 0.03207378 -0.00114684 0.01807467
v 0.03299683 -0.00333381 0.01791560
v 0.03416003 -0.00665476 0.01635516
v 0.03282423 -0.00514278 0.01879430
v 0.03415252 -0.00895648 0.01562796
v 0.03475288 -0.01287142 0.01118145
v 0.03425759 -0.01132569 0.01387057
v 0.03052785 -0.02153154 0.01391602
v 0.02480942 -0.04203098 0.01017398
v 0.02324848 -0.04365771 0.01212075
v 0.02048683 -0.04502119 0.01425689
v 0.02270816 -0.04542618 0.01006036
v 0.02180762 -0.04632392 0.00742427
v 0.02207028 -0.04641167 0.00447003
v 0.02168755 -0.04635767 -0.00058247
v 0.01973638 -0.04658717 -0.00458205
v 0.01758258 -0.04631717 -0.01105865
v 0.01668955 -0.04566243 -0.01638385
v 0.01882833 -0.04500094 -0.01734587
v 0.01571396 -0.04507519 -0.01990621
v 0.01737996 -0.04416395 -0.02140605
v 0.01811540 -0.04270598 -0.02283772
v 0.02023167 -0.04012076 -0.02207265
v 0.02721836 -0.00961121 -0.02780690
v 0.02798382 -0.00735000 -0.02783720
v 0.03014512 -0.00664801 -0.02542836
v 0.02981492 -0.00409655 -0.02597376
v 0.02946972 -0.00188258 -0.02570864
v 0.02694070 0.00012889 -0.02756450
v 0.03037026 0.00034489 0.01959724
v 0.03031772 -0.00189608 0.02145311
v 0.03133834 -0.00419779 0.02102134
v 0.03148092 -0.00669526 0.02109709
v 0.03226890 -0.00851773 0.01930939
v 0.03211880 -0.01207493 0.01762018
v 0.02943219 -0.02047181 0.01671875
v 0.02845661 -0.01819034 0.01976389
v 0.02658048 -0.02655346 0.01750655
v 0.02196521 -0.04267222 0.01465079
v 0.01999903 -0.04395470 0.01607488
v 0.01934614 -0.04594592 0.01356757
v 0.01693720 -0.04444070 0.01862007
v 0.01627680 -0.04579743 0.01726415
v 0.01959379 -0.04656691 0.01104510
v 0.01983393 -0.04698541 0.00552295
v 0.01884334 -0.04703941 0.00909076
v 0.01927860 -0.04703266 0.00153852
v 0.01689217 -0.04693816 -0.00660457
v 0.01661450 -0.04739716 -0.00094607
v 0.01440818 -0.04697191 -0.00942246
v 0.01348513 -0.04670191 -0.01261152
v 0.01392039 -0.04595267 -0.01688380
v 0.00095261 -0.04575018 -0.02417092
v 0.00151544 -0.04515619 -0.02611768
v 0.00509509 -0.04491319 -0.02518596
v 0.00348913 -0.04404920 -0.02822353
v 0.01454326 -0.04406945 -0.02308012
v 0.01506858 -0.04284772 -0.02474661
v 0.01551885 -0.04187573 -0.02534504
v 0.01699723 -0.04023551 -0.02504204
v 0.01698973 -0.03963477 -0.02535261
v 0.01768765 -0.03848054 -0.02530716
v 0.01816043 -0.03785280 -0.02519354
v 0.02543980 -0.00892948 -0.02985972
v 0.01852065 -0.03553083 -0.02579954
v 0.02841908 -0.00583127 -0.02766298
v 0.02555237 -0.00641851 -0.03045814
v 0.02721836 -0.00448129 -0.02897345
v 0.02689567 -0.00284782 -0.02898102
v 0.02603265 -0.00130209 -0.02929917
v 0.02288827 -0.00033685 -0.03160954
v 0.02797632 0.00020314 0.02297568
v 0.02970236 -0.00338106 0.02307415
v 0.03008508 -0.00631726 0.02305143
v 0.02960480 -0.00838948 0.02329382
v 0.03082053 -0.00919947 0.02131676
v 0.02955227 -0.01158219 0.02198336
v 0.02484694 -0.02844343 0.01890035
v 0.02721086 -0.01950657 0.02075621
v 0.02357118 -0.02808569 0.02058199
v 0.01975138 -0.04140324 0.01776410
v 0.01644190 -0.04697191 0.01370392
v 0.01784524 -0.04036376 0.02001387
v 0.01534624 -0.04283422 0.02089256
v 0.01368775 -0.04458245 0.02113496
v 0.01293730 -0.04614842 0.01932454
v 0.01453576 -0.04680316 0.01610518
v 0.01500103 -0.04786289 0.00509118
v 0.01600664 -0.04767390 0.00821964
v 0.01386786 -0.04768065 0.01247677
v 0.01462581 -0.04741065 -0.00456690
v 0.01292229 -0.04782915 -0.00132482
v 0.01028070 -0.04724865 -0.01036933
v 0.01158649 -0.04755915 -0.00621825
v 0.00933514 -0.04674916 -0.01474766
v 0.00655096 -0.04652642 -0.01752767
v 0.00324898 -0.04620917 -0.02097428
v 0.00019465 -0.04651292 -0.02061068
v -0.00329494 -0.04652642 -0.02123941
v -0.00255950 -0.04565568 -0.02524656
v -0.00255950 -0.04463644 -0.02794325
v -0.00331746 -0.04392770 -0.02904920
v 0.00090758 -0.04303672 -0.02994304
v 0.00343660 -0.04317171 -0.02947340
v 0.00588306 -0.04303672 -0.02869317
v 0.01393540 -0.04184198 -0.02642826
v 0.01151144 -0.04031651 -0.02872347
v 0.01123377 -0.03829829 -0.02970822
v 0.01531622 -0.03241913 -0.02908707
v 0.02335355 -0.01096795 -0.03087476
v 0.02333854 -0.00677626 -0.03227613
v 0.02031422 -0.01299291 -0.03242764
v 0.02189767 -0.00811274 -0.03299576
v 0.02402895 -0.00483904 -0.03189738
v 0.02423908 -0.00274657 -0.03144288
v 0.02210029 -0.00192983 -0.03290485
v 0.02104216 0.00031114 -0.03272305
v 0.02408899 -0.00184883 0.02776306
v 0.02756357 -0.00212558 0.02484669
v 0.02567994 -0.00438679 0.02733886
v 0.02817894 -0.00531153 0.02509667
v 0.02718084 -0.00718800 0.02604354
v 0.02808138 -0.01307391 0.02303628
v 0.02734594 -0.00921972 0.02540724
v 0.02207028 -0.02369826 0.02391497
v 0.02038927 -0.03175763 0.02172581
v 0.02574748 -0.01126494 0.02615716
v 0.02405897 -0.01622612 0.02549814
v 0.01173658 -0.04735665 0.01619608
v 0.02240798 -0.01504488 0.02746006
v 0.01753005 -0.03564558 0.02231666
v 0.01321496 -0.04066750 0.02302870
v 0.02022417 -0.02283427 0.02577842
v 0.02082453 -0.01214918 0.02986890
v 0.01793530 -0.02611472 0.02604354
v 0.01538377 -0.03137964 0.02547542
v 0.00941018 -0.04393446 0.02355895
v 0.01150394 -0.04523043 0.02178641
v 0.00876479 -0.04659392 0.02069561
v 0.00827700 -0.04739040 0.01845342
v 0.01242699 -0.04811264 0.00985583
v 0.01143640 -0.04830164 0.00543205
v 0.00888486 -0.04803839 0.01438566
v 0.00782673 -0.04849064 0.00361406
v 0.00694870 -0.04815314 -0.00230956
v 0.00675359 -0.04780890 -0.00670304
v 0.00393189 -0.04725540 -0.01338416
v -0.00109612 -0.04723516 -0.01508853
v -0.00724231 -0.04611467 -0.02333010
v -0.00685958 -0.04688416 -0.01844424
v -0.00781265 -0.04536543 -0.02586771
v -0.00980885 -0.04467694 -0.02691305
v -0.00451818 -0.04291522 -0.02975367
v -0.00004549 -0.04229423 -0.03051874
v 0.00205577 -0.04162599 -0.03063994
v 0.00695621 -0.04111300 -0.02957944
v 0.00540278 -0.03865603 -0.03081416
v 0.00723387 -0.03445759 -0.03166256
v 0.00793179 -0.01547013 -0.03698776
v 0.01028821 -0.00973271 -0.03801795
v 0.01259959 -0.01040770 -0.03710896
v 0.01546631 -0.00909147 -0.03638176
v 0.01826549 -0.00813974 -0.03526067
v 0.01216433 -0.03557133 -0.03004152
v 0.02005157 -0.00646576 -0.03465467
v 0.02072697 -0.00543978 -0.03435167
v 0.01816793 -0.01417415 -0.03338965
v 0.02180762 -0.00401555 -0.03357903
v 0.01875329 -0.00207158 -0.03513189
v 0.01833303 0.00056763 -0.03432895
v 0.02143990 0.00025714 0.02841450
v 0.02050183 -0.00292882 0.03086879
v 0.02238546 -0.00452854 0.03002040
v 0.02359369 -0.00562202 0.02926290
v 0.02480942 -0.00758625 0.02814180
v 0.02311340 -0.01053595 0.02880083
v 0.00695621 -0.04793040 0.01646878
v 0.01407798 -0.02862568 0.02722523
v 0.01750003 -0.01989806 0.02878568
v 0.02171006 -0.00826798 0.03046732
v 0.01859569 -0.01088020 0.03163387
v 0.00667104 -0.04472419 0.02410435
v 0.01223187 -0.03138639 0.02700556
v 0.01300484 -0.02433950 0.02929320
v 0.01325999 -0.01167668 0.03380030
v 0.01128631 -0.01500439 0.03329278
v 0.00904246 -0.03314812 0.02751308
v 0.00649093 -0.04527768 0.02366500
v 0.00830702 -0.04585818 0.02225606
v 0.00499003 -0.04613492 0.02280903
v 0.00422457 -0.04690441 0.02121071
v 0.00205577 -0.04745115 0.01985479
v 0.00387186 -0.04795064 0.01730203
v 0.00609319 -0.04855139 0.01153748
v 0.00854716 -0.04859864 0.00799239
v 0.00342159 -0.04845013 0.00065225
v 0.00513261 -0.04876738 0.00889381
v 0.00213081 -0.04869988 0.00580323
v 0.00170306 -0.04784264 -0.00800594
v -0.00454819 -0.04736340 -0.01409621
v -0.00951617 -0.04673566 -0.01871694
v -0.01029664 -0.04602692 -0.02271652
v -0.00803028 -0.04742415 -0.01277817
v -0.01261553 -0.04334721 -0.02673126
v -0.00903589 -0.04265872 -0.02864015
v -0.01236789 -0.04510894 -0.02432242
v -0.01458171 -0.04394120 -0.02476177
v -0.00595904 -0.04090375 -0.03039754
v -0.00198916 -0.04118050 -0.03094294
v 0.00225088 -0.00780899 -0.03989655
v 0.00377430 -0.01017146 -0.03913905
v 0.00533524 -0.01418090 -0.03780586
v 0.00393940 -0.03592232 -0.03190496
v 0.00763161 -0.00969896 -0.03866183
v 0.00944770 -0.00662101 -0.03905573
v 0.01171406 -0.00664126 -0.03838155
v 0.01518865 -0.00623627 -0.03719229
v 0.01712481 -0.00523728 -0.03646509
v 0.01958629 -0.00428554 -0.03508645
v 0.01614172 -0.00313806 -0.03675294
v 0.01691468 -0.00041785 -0.03557124
v 0.01838556 -0.00081610 0.03108089
v 0.01624678 -0.00174083 0.03266406
v 0.01834804 -0.00421805 0.03250498
v 0.01814542 -0.00611477 0.03279284
v 0.00260360 -0.04834889 0.01493106
v 0.01575148 -0.01914882 0.02999010
v 0.01588657 -0.01146744 0.03278526
v 0.01769515 -0.00840973 0.03279284
v 0.00381182 -0.04510894 0.02443765
v 0.00509509 -0.04282747 0.02525574
v 0.01395791 -0.01709010 0.03155812
v 0.01347012 -0.00857848 0.03458810
v 0.01040828 -0.01108944 0.03488353
v 0.00048733 -0.04598643 0.02334685
v -0.00087099 -0.04665466 0.02206668
v -0.00394033 -0.04729591 0.02026384
v -0.00187659 -0.04786965 0.01809740
v 0.00089257 -0.04871338 0.01134810
v -0.00155390 -0.04851764 0.00219754
v -0.00248446 -0.04818014 -0.00338521
v -0.00277713 -0.04793040 -0.00696817
v -0.00264205 -0.04867963 0.00753789
v -0.00484087 -0.04851089 0.00293231
v -0.01236038 -0.04631717 -0.01958049
v -0.01206020 -0.04690441 -0.01545971
v -0.01394383 -0.04578393 -0.02095156
v -0.00697215 -0.04799115 -0.00501383
v -0.01109962 -0.04755240 -0.00867254
v -0.01484437 -0.04083625 -0.02709485
v -0.01113715 -0.04144374 -0.02857197
v -0.01641281 -0.04182849 -0.02548139
v -0.01618768 -0.04491994 -0.02170148
v -0.01938460 -0.04422470 -0.02025466
v -0.01959472 -0.04327297 -0.02158785
v -0.00731736 -0.03860879 -0.03072326
v -0.00756500 -0.03327636 -0.03215493
v -0.00748245 -0.01497739 -0.03716956
v -0.00540371 -0.03191963 -0.03295788
v -0.00571139 -0.01374215 -0.03785131
v -0.00424801 -0.00861223 -0.03945720
v -0.00126122 -0.01040095 -0.03919965
v -0.00036819 -0.00666826 -0.04017682
v 0.00255857 -0.00450829 -0.04035862
v 0.00600314 -0.00614852 -0.03983595
v 0.00835955 -0.00481879 -0.03958597
v 0.01211180 -0.00456904 -0.03855578
v 0.01366523 -0.00362405 -0.03791191
v 0.01330502 -0.00080935 -0.03735136
v 0.00911750 0.00069588 -0.03806341
v 0.01268214 -0.00071485 0.03365638
v 0.01481342 -0.00384680 0.03405028
v 0.01473838 -0.00707325 0.03434570
v -0.00163645 -0.04840289 0.01462049
v -0.00105860 -0.04503469 0.02445280
v 0.00176309 -0.04396821 0.02524817
v 0.00751154 -0.01250692 0.03507290
v 0.00469735 -0.01466014 0.03476233
v 0.01022817 -0.00735675 0.03580010
v 0.00816443 -0.00885523 0.03603492
v -0.00535868 -0.04571643 0.02324080
v -0.00619168 -0.04664116 0.02167278
v -0.00830045 -0.04711366 0.02008204
v -0.00616917 -0.04779540 0.01786257
v -0.00372270 -0.04856488 0.01201470
v -0.00782766 -0.04845689 0.00618955
v -0.00888580 -0.04818014 -0.00040067
v -0.01476933 -0.04641167 -0.01673230
v -0.01386879 -0.04718791 -0.01029358
v -0.01590251 -0.04673566 -0.01254334
v -0.01683307 -0.04585818 -0.01756555
v -0.01978233 -0.04508194 -0.01748222
v -0.01091201 -0.04786289 -0.00389273
v -0.01960223 -0.04034351 -0.02383004
v -0.01785368 -0.03763005 -0.02614798
v -0.01640531 -0.03559833 -0.02774630
v -0.01683307 -0.02945592 -0.02940522
v -0.01606761 -0.02639147 -0.03080659
v -0.01389880 -0.03531483 -0.02927645
v -0.01261553 -0.03810254 -0.02903405
v -0.01173751 -0.03266212 -0.03102626
v -0.00949366 -0.03618557 -0.03077629
v -0.01981235 -0.04180149 -0.02281500
v -0.02243893 -0.04416395 -0.01678533
v -0.02252898 -0.04277347 -0.01916386
v -0.00917097 -0.03002291 -0.03264731
v -0.00923851 -0.00828824 -0.03859366
v -0.00646935 -0.00733650 -0.03942690
v -0.00439060 -0.00610127 -0.03998745
v -0.00195914 -0.00418430 -0.04032075
v -0.00048826 -0.00156534 -0.04007835
v 0.00225088 -0.00189608 -0.04008592
v 0.00638587 -0.00346881 -0.03994957
v 0.01003305 -0.00354981 -0.03913148
v 0.00935014 -0.00165308 -0.03889665
v 0.00541778 -0.00145734 -0.03966172
v 0.00464482 0.00104688 -0.03879061
v 0.01028821 -0.00066085 0.03443660
v 0.01178911 -0.00359705 0.03509562
v 0.01122627 -0.00578402 0.03558042
v -0.00655940 -0.04820039 0.01488561
v -0.00180155 -0.04332022 0.02543754
v -0.00428554 -0.04425845 0.02471792
v -0.00863815 -0.04582443 0.02272570
v 0.00351164 -0.01035370 0.03628489
v 0.00028471 -0.00997571 0.03652729
v -0.00111864 -0.01355316 0.03534560
v 0.00652095 -0.00566252 0.03664092
v 0.00500504 -0.00748500 0.03676212
v -0.00944113 -0.04642517 0.02163491
v -0.01166246 -0.04697866 0.01845342
v -0.01010153 -0.04755915 0.01713538
v -0.00781265 -0.04836914 0.01149203
v -0.01186508 -0.04809915 0.00824994
v -0.01067937 -0.04820714 0.00380344
v -0.01966977 -0.04608767 -0.01198279
v -0.01510703 -0.04744440 -0.00396848
v -0.01762104 -0.04675591 -0.00905886
v -0.02086298 -0.04535193 -0.01469463
v -0.01362114 -0.04784264 0.00112947
v -0.02180855 -0.04059325 -0.02169390
v -0.02195864 -0.03441035 -0.02384519
v -0.02115566 -0.02962467 -0.02622373
v -0.01969979 -0.02700571 -0.02824625
v -0.02189110 -0.00929397 -0.03239733
v -0.02013505 -0.00774149 -0.03409413
v -0.01781615 -0.01127169 -0.03435925
v -0.01696064 -0.00834223 -0.03570759
v -0.01355360 -0.02704621 -0.03187466
v -0.01359112 -0.01034020 -0.03662416
v -0.01127223 -0.02685046 -0.03285940
v -0.02339951 -0.04467019 -0.01327054
v -0.02446514 -0.04344171 -0.01504308
v -0.02463775 -0.04192298 -0.01696713
v -0.01150487 -0.00775499 -0.03811643
v -0.00851808 -0.00512928 -0.03938903
v -0.00552378 -0.00420455 -0.03994957
v -0.00578644 0.00145862 -0.03928297
v 0.00254356 0.00061488 -0.03924510
v -0.00876572 0.00213361 -0.03816188
v 0.00711380 -0.00104559 0.03537590
v 0.00783423 -0.00337431 0.03605765
v -0.01106961 -0.04793040 0.01332517
v -0.00295724 -0.04016801 0.02635411
v -0.00574892 -0.04215248 0.02533907
v -0.00318988 -0.01043470 0.03622429
v -0.00845804 -0.04406945 0.02389982
v -0.01081445 -0.04448120 0.02272570
v -0.01243543 -0.04505494 0.02149856
v -0.01030415 -0.04605392 0.02173338
v 0.00068244 -0.00768749 0.03699694
v 0.00231843 -0.00479179 0.03699694
v -0.01486688 -0.04587843 0.01903669
v -0.01535468 -0.04657366 0.01696115
v -0.01405640 -0.04737015 0.01453716
v -0.01522710 -0.04770090 0.00459123
v -0.01595504 -0.04747815 0.00948466
v -0.02057781 -0.04635092 -0.00660457
v -0.02276162 -0.04575692 -0.00718027
v -0.02254399 -0.04541268 -0.01087685
v -0.01746344 -0.04721491 -0.00131724
v -0.02373721 -0.03310086 -0.02254988
v -0.02375222 -0.03920277 -0.01985319
v -0.02348956 -0.02710020 -0.02500416
v -0.02350457 -0.00855823 -0.03133684
v -0.02240891 -0.00667501 -0.03278366
v -0.02180855 -0.00492678 -0.03357903
v -0.02004499 -0.00467029 -0.03480617
v -0.01842402 -0.00612152 -0.03551064
v -0.01422150 -0.00664126 -0.03733621
v -0.02500547 -0.04489294 -0.00758174
v -0.02568838 -0.04408295 -0.01013450
v -0.02726432 -0.04279372 -0.00999815
v -0.02685908 -0.04170699 -0.01304329
v -0.02595104 -0.03874378 -0.01656565
v -0.01165496 -0.00516303 -0.03850276
v -0.00953869 -0.00322581 -0.03911633
v -0.00762504 0.00118862 -0.03889665
v -0.01329094 -0.00055960 -0.03751044
v -0.01626272 0.00024364 -0.03606362
v -0.01392882 0.00122912 -0.03653326
v -0.00137379 -0.00053935 0.03589857
v 0.00285125 -0.00078910 0.03587585
v 0.00106517 -0.00265882 0.03664849
v -0.00645434 -0.01132569 0.03551982
v -0.00881075 -0.01634762 0.03336853
v -0.00827793 -0.03916902 0.02571024
v -0.00282216 -0.00620252 0.03702724
v -0.00676202 -0.00832198 0.03628489
v -0.01046925 -0.04085650 0.02444522
v -0.01314085 -0.04149774 0.02306658
v -0.01413144 -0.04351596 0.02172581
v -0.01625522 -0.04408970 0.02007447
v -0.01541471 -0.04529119 0.01959724
v -0.00284467 -0.00405605 0.03690604
v -0.01828894 -0.04587168 0.01573401
v -0.02285168 -0.04583118 0.01095420
v -0.01726082 -0.04658042 0.01460534
v -0.01840151 -0.04685716 0.01143143
v -0.01849907 -0.04712716 0.00399281
v -0.02046524 -0.04669516 0.00815147
v -0.02130575 -0.04645891 -0.00120362
v -0.02398486 -0.04563543 -0.00347611
v -0.02543322 -0.02827469 -0.02248928
v -0.02697165 -0.01829834 -0.02451937
v -0.02533567 -0.03322912 -0.02037586
v -0.02689660 -0.00789674 -0.02835987
v -0.02579344 -0.00647926 -0.02990517
v -0.02401488 -0.00518328 -0.03179891
v -0.02423250 -0.00267232 -0.03170044
v -0.02009752 -0.00250357 -0.03470770
v -0.01713325 -0.00180833 -0.03623026
v -0.01570739 -0.00429905 -0.03703321
v -0.02694913 -0.04437995 -0.00449115
v -0.02770709 -0.04371171 -0.00515775
v -0.02791722 -0.04062025 -0.01077838
v -0.02858512 -0.04218623 -0.00571072
v -0.03575942 -0.00797099 -0.01367201
v -0.03357561 -0.01123119 -0.01697470
v -0.02808231 -0.03190613 -0.01629295
v -0.02697165 -0.03167664 -0.01851999
v -0.01362114 -0.00230107 -0.03776798
v -0.01939210 0.00062163 -0.03421532
v -0.02297175 0.00092538 -0.03160196
v -0.01426653 0.00099288 0.03245196
v -0.00642432 -0.00001961 0.03519410
v -0.00431555 -0.00189608 0.03629247
v -0.00923100 -0.01103544 0.03505775
v -0.01165496 -0.01268242 0.03383818
v -0.00764005 -0.00600677 0.03640610
v -0.01133226 -0.00872698 0.03511078
v -0.01314835 -0.01505839 0.03249741
v -0.01584998 -0.01310766 0.03205049
v -0.01280315 -0.03576033 0.02527089
v -0.01554229 -0.03880453 0.02271813
v -0.01819138 -0.01138644 0.03147479
v -0.01740341 -0.04000601 0.02100619
v -0.01877673 -0.04105900 0.01950634
v -0.01853659 -0.04405595 0.01818072
v -0.02051027 -0.04448795 0.01580976
v -0.00765506 -0.00353631 0.03617885
v -0.02373721 -0.04382646 0.01208287
v -0.02484787 -0.04437320 0.00934074
v -0.02390981 -0.04550043 0.00886351
v -0.02146334 -0.04644542 0.00569718
v -0.02343703 -0.04582443 0.00056892
v -0.02622120 -0.04473769 -0.00149147
v -0.02726432 -0.02207153 -0.02266350
v -0.02839000 -0.01355991 -0.02465571
v -0.02904289 -0.00759300 -0.02619343
v -0.02790971 -0.02396150 -0.02083036
v -0.02893783 -0.00533178 -0.02705698
v -0.02757951 -0.00406280 -0.02863257
v -0.02720429 -0.00201083 -0.02894315
v -0.02536568 -0.00087010 -0.03042027
v -0.02159092 -0.00076210 -0.03336693
v -0.02790221 -0.04344171 -0.00076427
v -0.02908792 -0.03773805 -0.00889978
v -0.03577443 -0.01041445 -0.01142225
v -0.02850257 -0.04238198 0.00090980
v -0.02908041 -0.04091050 -0.00133239
v -0.03792072 -0.00746475 -0.00043855
v -0.03654739 -0.01196018 -0.00434723
v -0.03723781 -0.00867973 -0.00607432
v -0.03572190 -0.01281742 -0.00867254
v -0.03058131 -0.03222338 -0.00873313
v -0.03599957 -0.00448129 -0.01466433
v -0.03498645 -0.00649951 -0.01656565
v -0.03717027 -0.00666826 -0.00941488
v -0.03375572 -0.00591227 -0.01938354
v -0.03251748 -0.01013771 -0.01965624
v -0.03010853 -0.02158554 -0.01810337
v -0.02939560 -0.01974281 -0.02036828
v -0.02607861 0.00125612 -0.02859470
v -0.01696064 -0.00024911 0.03198231
v -0.01326843 -0.00089035 0.03385333
v -0.00902088 -0.00114009 0.03522440
v -0.01414645 -0.00965171 0.03390636
v -0.01236038 -0.00515628 0.03514865
v -0.01420649 -0.00662101 0.03448962
v -0.01669798 -0.00986771 0.03277769
v -0.01953469 -0.01620587 0.02883870
v -0.01939960 -0.00944922 0.03143691
v -0.02130575 -0.01202768 0.02927805
v -0.02258151 -0.01428890 0.02744491
v -0.02118568 -0.04064050 0.01746868
v -0.02129074 -0.04295572 0.01625668
v -0.02439760 -0.01396490 0.02604354
v -0.01152738 -0.00251707 0.03498957
v -0.02556831 -0.04225373 0.01038608
v -0.02318938 -0.04102525 0.01483259
v -0.02678404 -0.04277347 0.00715915
v -0.02738439 -0.04302322 0.00451548
v -0.02632626 -0.04427870 0.00320501
v -0.02890781 -0.01486264 -0.02342100
v -0.03009352 -0.00732975 -0.02486782
v -0.02962824 -0.01470739 -0.02239080
v -0.03152688 -0.00510903 -0.02347402
v -0.02970329 -0.00280057 -0.02624646
v -0.02861513 -0.00005336 -0.02673883
v -0.02797725 -0.04221998 0.00372011
v -0.02900537 -0.03999926 0.00196272
v -0.03711774 -0.00867973 0.00501543
v -0.03747045 -0.00869998 0.00234904
v -0.03816837 -0.00561527 0.00179607
v -0.03831095 -0.00425180 0.00031138
v -0.03801077 -0.00618902 -0.00345338
v -0.03730535 -0.00447454 -0.01002088
v -0.03666746 -0.00229432 -0.01233124
v -0.03501648 -0.00147759 -0.01679290
v -0.03473130 -0.00347556 -0.01787612
v -0.03799576 -0.00430579 -0.00611977
v -0.03278764 -0.00350931 -0.02166360
v -0.03163945 -0.00813299 -0.02213325
v -0.03072390 0.00213361 -0.02221658
v -0.02949316 0.00144512 -0.02472389
v -0.02010503 -0.00140334 0.03077789
v -0.01617267 -0.00227408 0.03317158
v -0.02145584 0.00055413 0.02883113
v -0.01702068 -0.00756600 0.03314129
v -0.01596254 -0.00469054 0.03374728
v -0.01978233 -0.00748500 0.03167174
v -0.02279164 -0.00875398 0.02934622
v -0.02484787 -0.01011071 0.02720251
v -0.02524561 -0.01532838 0.02462702
v -0.02680655 -0.02193653 0.02011991
v -0.02920048 -0.01742085 0.01969572
v -0.02945564 -0.02336076 0.01654453
v -0.03060383 -0.02180153 0.01599156
v -0.02640131 -0.01073170 0.02550572
v -0.02763204 -0.04171374 0.00612895
v -0.03069388 -0.00176108 -0.02477692
v -0.03499396 -0.01499764 0.00743942
v -0.03581946 -0.01119069 0.00863626
v -0.03720028 -0.00696525 0.00698492
v -0.03738790 -0.00438004 0.00741669
v -0.03799576 -0.00338781 0.00368224
v -0.03811583 -0.00192308 0.00000080
v -0.03828093 -0.00369830 -0.00273376
v -0.03733537 -0.00171383 -0.00902098
v -0.03648736 0.00031114 -0.01042235
v -0.03566186 -0.00000611 -0.01387654
v -0.03428854 0.00027739 -0.01722467
v -0.03232986 -0.00045160 -0.02165603
v -0.03281015 -0.00189608 -0.02149696
v -0.03795824 -0.00232132 -0.00524865
v -0.03226983 0.00087138 -0.02080006
v -0.03690761 0.00116837 -0.00513503
v -0.02524561 0.00000739 0.02627079
v -0.01960223 -0.00361730 0.03176264
v -0.02330945 -0.00160583 0.02874780
v -0.02211623 -0.00379955 0.03021735
v -0.01894183 -0.00540603 0.03231561
v -0.02225882 -0.00633077 0.03019462
v -0.02510303 -0.00678976 0.02788426
v -0.02748946 -0.00747825 0.02552087
v -0.02851007 -0.00909822 0.02389225
v -0.03080645 -0.01860208 0.01731718
v -0.03422850 -0.00765374 0.01566583
v -0.03506150 -0.01045495 0.01187078
v -0.03348555 -0.01602362 0.01184805
v -0.03617967 -0.00674926 0.01121933
v -0.03641231 -0.00438679 0.01104510
v -0.03638980 -0.00176108 0.00990128
v -0.03718527 -0.00178133 0.00690160
v -0.03759052 -0.00078910 0.00287929
v -0.03748545 0.00026389 -0.00062792
v -0.03745544 -0.00022211 -0.00561982
v -0.03209722 0.00002089 0.01793075
v -0.02947065 0.00007489 0.02168793
v -0.02730935 0.00060813 0.02377105
v -0.02648385 -0.00157883 0.02598294
v -0.02844253 -0.00118734 0.02374832
v -0.02469778 -0.00371855 0.02821756
v -0.02694163 -0.00491329 0.02631624
v -0.02940311 -0.00616877 0.02358925
v -0.03037869 -0.00790349 0.02196821
v -0.03216476 -0.00839623 0.01912002
v -0.03507651 -0.00612152 0.01440081
v -0.03204469 -0.00573002 0.02006689
v -0.03529414 -0.00157209 0.01283280
v -0.03458872 -0.00323256 0.01527951
v -0.03545924 0.00107388 0.00926499
v -0.03672000 -0.00035710 0.00701522
v -0.03677253 0.00100638 0.00377314
v -0.03389080 0.00000064 0.01463564
v -0.03153438 -0.00180158 0.02005174
v -0.02886278 -0.00356331 0.02412707
v -0.03037119 -0.00318531 0.02217273
v -0.03323040 -0.00427879 0.01808225
v -0.00450630 0.06267855 -0.01107696
v -0.00694502 0.06537503 -0.00673071
v -0.00292972 0.06606650 -0.01049417
v 0.00708793 0.06534798 -0.00953743
v -0.00804417 0.06355346 -0.00649082
v -0.00888226 0.06312541 -0.00243385
v -0.00799951 0.06429079 -0.00219537
v -0.00470209 0.06692848 -0.00200205
v -0.00292800 0.06805741 -0.00050485
v -0.00127586 0.06870066 -0.00425279
v -0.00307914 0.06725893 -0.00921993
v 0.00167637 0.06910402 -0.00729093
v 0.00620689 0.06713898 -0.00904072
v 0.00736958 0.06625583 -0.00873168
v 0.00866279 0.06453186 -0.00838878
v -0.00824854 0.06313130 -0.00139245
v -0.00739842 0.06425669 -0.00122735
v -0.00370084 0.06739064 -0.00021134
v -0.00067992 0.06755174 0.00153422
v -0.00007024 0.06830318 -0.00027625
v 0.00166091 0.07011299 -0.00504301
v 0.00223624 0.06975668 -0.00610559
v 0.00385576 0.07009065 -0.00562581
v 0.00593039 0.06897348 -0.00661500
v 0.00365998 0.06565021 0.00243451
v 0.00030416 0.06601946 0.00302295
v 0.00215037 0.06693201 0.00194909
v 0.00168324 0.06577839 0.00310903
v -0.00752523 0.05288840 0.00710935
v -0.00441944 0.05266998 0.00906257
v -0.00186348 0.05327337 0.00934231
f 739 741 740
f 721 720 729
f 739 740 729
f 719 720 721
f 635 590 634
f 721 467 466
f 466 505 506
f 721 508 551
f 721 466 468
f 468 466 506
f 507 468 506
f 508 468 507
f 178 732 137
f 721 729 730
f 730 740 741
f 730 729 740
f 731 467 721
f 721 730 731
f 731 730 741
f 748 737 747
f 720 719 602
f 602 719 721
f 748 747 603
f 603 747 645
f 227 743 226
f 180 743 227
f 180 138 743
f 738 741 739
f 744 737 748
f 115 143 116
f 662 631 661
f 663 631 662
f 688 662 689
f 686 705 706
f 697 734 724
f 420 466 467
f 419 466 420
f 372 419 420
f 420 421 372
f 721 551 552
f 583 602 552
f 552 602 721
f 509 508 721
f 721 468 509
f 509 468 508
f 108 137 733
f 733 137 732
f 733 77 108
f 53 77 733
f 378 731 377
f 742 731 741
f 732 731 742
f 742 733 732
f 741 743 742
f 743 78 742
f 742 78 55
f 55 733 742
f 720 724 725
f 725 734 735
f 724 734 725
f 723 724 720
f 647 747 677
f 645 747 647
f 636 597 640
f 640 597 635
f 636 640 668
f 668 640 674
f 178 137 136
f 136 137 108
f 553 604 748
f 748 603 553
f 553 603 604
f 604 603 646
f 646 603 645
f 743 331 330
f 379 331 743
f 743 138 109
f 109 78 743
f 737 744 745
f 745 743 741
f 741 738 745
f 745 738 737
f 749 744 748
f 749 554 510
f 510 744 749
f 491 449 462
f 462 449 413
f 588 589 545
f 593 594 545
f 545 589 590
f 590 591 545
f 659 689 662
f 659 662 661
f 17 16 36
f 118 143 144
f 118 116 143
f 71 46 70
f 595 639 596
f 596 546 595
f 595 597 636
f 595 546 597
f 695 724 676
f 707 691 690
f 663 662 690
f 690 662 688
f 707 718 710
f 710 691 707
f 663 690 664
f 664 690 691
f 664 691 692
f 633 631 663
f 634 590 633
f 663 664 633
f 686 706 687
f 707 690 687
f 687 690 688
f 708 706 705
f 708 687 706
f 708 718 707
f 707 687 708
f 678 646 645
f 715 710 718
f 697 710 715
f 417 464 465
f 505 466 465
f 465 464 505
f 506 505 550
f 550 507 506
f 454 496 497
f 1 4 5
f 5 4 13
f 329 328 377
f 277 328 329
f 225 179 224
f 224 277 225
f 53 733 28
f 28 733 29
f 28 52 53
f 28 29 12
f 14 733 30
f 29 733 14
f 30 13 14
f 13 4 14
f 12 29 14
f 14 4 12
f 467 731 425
f 731 378 425
f 737 738 727
f 727 738 739
f 676 724 669
f 724 723 669
f 472 430 474
f 472 473 430
f 474 517 513
f 513 517 556
f 513 472 474
f 473 472 513
f 279 226 743
f 743 330 279
f 227 226 228
f 226 281 228
f 280 281 226
f 226 279 280
f 280 279 330
f 280 330 331
f 139 109 138
f 138 180 139
f 109 139 110
f 743 745 746
f 746 745 744
f 746 379 743
f 426 379 746
f 746 744 510
f 510 511 746
f 512 511 510
f 480 470 512
f 512 470 511
f 635 597 592
f 590 635 592
f 592 591 590
f 592 597 593
f 593 545 592
f 592 545 591
f 450 402 449
f 411 413 449
f 411 402 360
f 449 402 411
f 544 546 502
f 462 502 503
f 503 491 462
f 547 546 596
f 502 546 547
f 585 545 543
f 588 545 585
f 689 659 657
f 688 689 657
f 659 618 657
f 686 687 657
f 657 687 688
f 630 659 661
f 661 631 630
f 630 631 588
f 522 524 481
f 362 315 361
f 16 17 6
f 1 5 6
f 6 5 16
f 6 2 1
f 18 38 19
f 18 6 17
f 19 38 39
f 116 118 117
f 303 252 250
f 303 305 252
f 351 352 306
f 306 305 351
f 304 252 306
f 252 305 306
f 250 252 200
f 250 200 196
f 196 200 157
f 130 131 97
f 492 450 490
f 490 450 449
f 449 491 490
f 491 532 490
f 492 490 533
f 533 490 532
f 534 532 491
f 491 503 534
f 636 668 637
f 637 595 636
f 668 669 637
f 694 695 666
f 724 695 713
f 713 695 694
f 713 712 724
f 694 712 713
f 711 712 692
f 724 712 711
f 692 691 709
f 691 710 709
f 709 711 692
f 692 712 693
f 693 664 692
f 693 712 694
f 632 633 590
f 631 633 632
f 588 631 632
f 590 589 632
f 632 589 588
f 677 700 679
f 679 647 677
f 645 647 679
f 718 708 717
f 717 715 718
f 734 697 698
f 697 715 698
f 735 734 698
f 418 466 419
f 418 465 466
f 418 419 372
f 417 465 418
f 372 371 418
f 418 371 417
f 421 422 374
f 318 371 372
f 583 552 584
f 584 552 551
f 496 454 495
f 508 507 540
f 507 550 540
f 540 551 508
f 540 584 551
f 451 450 492
f 402 450 451
f 48 46 71
f 46 47 24
f 71 70 103
f 327 328 277
f 722 731 732
f 377 731 722
f 722 329 377
f 722 179 225
f 722 732 178
f 178 179 722
f 225 277 278
f 277 329 278
f 278 722 225
f 329 722 278
f 223 179 178
f 223 224 179
f 34 16 15
f 16 5 15
f 15 5 13
f 34 15 33
f 33 15 32
f 31 13 30
f 30 733 31
f 733 32 31
f 31 15 13
f 32 15 31
f 424 425 378
f 421 420 424
f 424 420 467
f 467 425 424
f 737 727 736
f 736 747 737
f 735 747 736
f 736 725 735
f 720 725 726
f 726 727 720
f 725 736 726
f 726 736 727
f 739 729 728
f 728 727 739
f 728 729 720
f 720 727 728
f 676 669 696
f 696 669 668
f 696 668 674
f 696 695 676
f 674 666 696
f 696 666 695
f 128 165 129
f 256 206 255
f 257 259 208
f 256 258 207
f 207 206 256
f 207 258 257
f 257 208 207
f 273 219 221
f 219 218 221
f 231 235 188
f 231 232 235
f 231 185 183
f 183 232 231
f 385 433 386
f 386 339 385
f 301 248 300
f 345 300 344
f 430 473 431
f 431 383 430
f 430 383 384
f 433 434 384
f 384 386 433
f 339 386 384
f 474 430 435
f 435 434 474
f 430 384 435
f 435 384 434
f 479 433 437
f 479 434 433
f 479 437 480
f 474 434 479
f 748 604 605
f 605 749 748
f 554 749 605
f 566 567 521
f 521 567 522
f 113 143 115
f 113 142 143
f 111 142 113
f 183 185 184
f 184 185 143
f 143 142 184
f 60 59 84
f 61 39 60
f 60 39 38
f 55 78 56
f 56 33 55
f 57 33 56
f 426 746 469
f 469 746 511
f 469 470 426
f 511 470 469
f 555 512 510
f 510 554 555
f 554 605 555
f 555 605 569
f 312 315 360
f 260 315 312
f 260 259 310
f 310 259 257
f 371 318 370
f 412 413 362
f 529 525 573
f 363 315 362
f 362 413 363
f 413 411 363
f 360 315 363
f 363 411 360
f 586 545 594
f 586 544 545
f 597 546 587
f 546 544 587
f 593 597 587
f 587 594 593
f 587 586 594
f 544 586 587
f 549 601 579
f 600 601 549
f 579 534 549
f 549 534 503
f 548 503 502
f 502 547 548
f 548 547 600
f 600 549 548
f 548 549 503
f 622 585 575
f 571 525 570
f 570 618 571
f 656 655 686
f 686 657 656
f 460 412 447
f 2 6 7
f 6 18 7
f 7 18 19
f 62 39 61
f 193 151 150
f 247 248 194
f 194 246 247
f 194 151 193
f 193 246 194
f 145 118 144
f 144 143 145
f 143 185 145
f 147 145 186
f 188 189 147
f 147 186 188
f 256 255 307
f 307 255 254
f 304 349 350
f 350 307 304
f 356 349 352
f 352 395 356
f 356 350 349
f 394 352 351
f 394 395 352
f 394 443 395
f 448 443 484
f 304 306 348
f 348 306 352
f 348 349 304
f 352 349 348
f 253 200 252
f 253 252 304
f 304 307 253
f 253 307 254
f 157 200 199
f 190 154 152
f 99 131 100
f 100 70 99
f 122 89 88
f 642 624 625
f 579 601 625
f 625 601 642
f 642 601 599
f 600 547 599
f 599 601 600
f 626 624 642
f 580 624 626
f 580 626 627
f 627 626 641
f 576 534 579
f 532 534 576
f 634 666 667
f 667 666 674
f 674 640 667
f 667 635 634
f 667 640 635
f 714 710 697
f 714 709 710
f 714 697 724
f 711 709 714
f 724 711 714
f 664 693 665
f 665 666 634
f 694 666 665
f 665 693 694
f 634 633 665
f 665 633 664
f 569 607 558
f 677 747 699
f 699 747 735
f 735 698 699
f 715 717 701
f 701 698 715
f 701 717 716
f 716 700 701
f 701 699 698
f 701 700 677
f 677 699 701
f 459 458 463
f 463 464 415
f 373 374 323
f 373 318 372
f 372 421 373
f 421 374 373
f 496 495 539
f 539 540 496
f 584 540 539
f 454 404 403
f 402 451 403
f 409 458 459
f 359 408 409
f 358 408 359
f 358 312 360
f 359 312 358
f 358 403 404
f 407 408 358
f 360 402 358
f 402 403 358
f 358 406 407
f 407 406 456
f 456 454 497
f 12 4 3
f 3 11 12
f 3 4 1
f 1 2 3
f 71 103 72
f 72 48 71
f 49 48 72
f 102 103 70
f 75 52 51
f 106 74 105
f 106 75 74
f 100 133 134
f 100 131 132
f 132 133 100
f 375 374 422
f 323 374 375
f 270 325 271
f 273 221 271
f 271 216 270
f 271 221 220
f 220 275 271
f 274 219 273
f 224 223 276
f 277 224 276
f 276 327 277
f 276 274 327
f 55 33 54
f 54 33 32
f 54 733 55
f 54 32 733
f 35 33 57
f 34 33 35
f 36 16 35
f 35 16 34
f 423 424 378
f 377 422 423
f 423 378 377
f 423 422 421
f 421 424 423
f 309 354 353
f 353 310 309
f 257 258 309
f 309 310 257
f 163 128 162
f 164 163 162
f 164 165 128
f 128 163 164
f 128 127 126
f 128 129 96
f 96 127 128
f 130 97 96
f 96 129 130
f 254 255 201
f 161 205 206
f 206 207 161
f 161 207 208
f 161 208 162
f 162 128 161
f 388 387 437
f 388 433 385
f 437 433 388
f 437 387 436
f 480 437 436
f 436 470 480
f 292 286 336
f 293 336 341
f 337 336 289
f 341 336 337
f 289 288 337
f 337 288 333
f 331 379 380
f 188 235 236
f 346 300 345
f 301 300 346
f 346 334 301
f 382 334 346
f 393 382 429
f 393 394 351
f 527 525 529
f 529 485 527
f 298 247 297
f 247 246 297
f 198 154 190
f 198 197 154
f 299 248 247
f 299 300 248
f 299 247 298
f 298 344 299
f 299 344 300
f 345 344 390
f 438 391 390
f 390 391 345
f 343 344 298
f 343 390 344
f 475 431 473
f 473 515 475
f 516 517 474
f 474 479 516
f 516 558 517
f 516 479 480
f 617 607 569
f 569 605 617
f 617 605 604
f 604 646 617
f 514 515 473
f 514 513 556
f 473 513 514
f 556 557 514
f 514 557 515
f 229 182 181
f 227 228 181
f 181 228 229
f 181 180 227
f 181 139 180
f 36 59 37
f 59 60 37
f 37 60 38
f 38 18 37
f 37 17 36
f 37 18 17
f 57 56 80
f 80 81 57
f 110 112 80
f 111 81 80
f 80 112 111
f 260 310 314
f 314 315 260
f 314 361 315
f 313 261 260
f 313 312 359
f 260 312 313
f 410 409 459
f 359 409 410
f 462 413 461
f 413 412 461
f 461 502 462
f 461 412 460
f 572 573 525
f 572 622 575
f 525 571 572
f 620 618 659
f 620 571 618
f 615 567 566
f 655 656 615
f 615 656 657
f 362 361 400
f 400 412 362
f 400 447 412
f 353 354 396
f 195 194 248
f 190 151 195
f 151 194 195
f 187 145 185
f 186 145 187
f 185 231 187
f 188 186 187
f 187 231 188
f 118 147 148
f 189 150 148
f 148 147 189
f 118 145 146
f 146 147 118
f 145 147 146
f 308 258 256
f 256 307 308
f 307 350 308
f 442 485 484
f 484 443 442
f 443 394 442
f 395 443 401
f 443 448 401
f 357 356 401
f 401 356 395
f 153 197 196
f 154 197 153
f 202 253 254
f 200 253 202
f 254 201 202
f 202 199 200
f 149 151 190
f 190 152 149
f 149 152 120
f 121 152 154
f 121 153 122
f 154 153 121
f 122 88 121
f 120 152 121
f 98 97 131
f 131 99 98
f 70 97 98
f 98 99 70
f 642 599 598
f 598 626 642
f 598 547 596
f 598 599 547
f 641 626 598
f 596 639 598
f 639 641 598
f 582 627 628
f 628 602 583
f 583 582 628
f 720 602 628
f 639 595 638
f 595 637 638
f 578 624 580
f 578 533 532
f 623 625 624
f 624 578 623
f 579 625 623
f 623 576 579
f 464 463 504
f 505 464 504
f 504 550 505
f 538 582 583
f 495 537 538
f 538 539 495
f 583 584 538
f 584 539 538
f 580 627 581
f 581 627 582
f 582 538 581
f 581 538 537
f 535 578 580
f 492 533 535
f 533 578 535
f 492 535 536
f 536 535 580
f 580 581 536
f 536 581 537
f 454 403 453
f 454 406 405
f 406 358 405
f 405 404 454
f 405 358 404
f 407 456 457
f 457 408 407
f 457 409 408
f 458 409 457
f 457 456 458
f 498 463 458
f 458 456 498
f 498 456 497
f 498 504 463
f 455 406 454
f 454 456 455
f 455 456 406
f 27 26 51
f 11 26 27
f 51 52 27
f 12 11 27
f 27 28 12
f 52 28 27
f 49 26 25
f 25 48 49
f 25 24 47
f 25 47 46
f 46 48 25
f 104 72 103
f 50 75 51
f 74 75 50
f 49 72 50
f 51 26 50
f 50 26 49
f 53 52 76
f 52 75 76
f 76 77 53
f 75 106 76
f 107 136 108
f 108 77 107
f 77 76 107
f 107 76 106
f 172 218 219
f 219 175 172
f 133 132 172
f 172 175 133
f 270 216 269
f 171 131 130
f 171 132 131
f 272 275 220
f 272 271 275
f 216 271 272
f 325 375 326
f 328 327 326
f 326 274 273
f 327 274 326
f 273 271 326
f 326 271 325
f 323 375 324
f 324 375 325
f 324 325 270
f 270 269 324
f 83 113 115
f 115 114 83
f 84 59 83
f 83 114 84
f 57 81 58
f 58 35 57
f 58 83 59
f 58 59 36
f 36 35 58
f 260 261 210
f 210 261 262
f 128 126 160
f 160 161 128
f 205 161 160
f 160 126 159
f 92 126 127
f 203 255 206
f 203 201 255
f 159 201 203
f 203 160 159
f 341 387 342
f 387 388 342
f 342 293 341
f 342 388 385
f 385 339 342
f 470 436 428
f 428 436 387
f 289 336 335
f 335 336 286
f 292 336 340
f 340 293 292
f 336 293 340
f 235 232 284
f 284 236 235
f 238 236 284
f 230 232 183
f 183 182 230
f 230 182 229
f 332 280 331
f 331 380 332
f 332 380 333
f 281 280 332
f 332 333 281
f 193 150 192
f 192 240 193
f 191 189 188
f 188 234 191
f 191 150 189
f 191 192 150
f 233 236 238
f 238 191 233
f 233 191 234
f 188 236 233
f 233 234 188
f 347 334 382
f 382 393 347
f 351 305 347
f 347 393 351
f 305 303 302
f 302 347 305
f 334 347 302
f 345 391 392
f 392 346 345
f 429 382 392
f 382 346 392
f 483 527 485
f 290 295 339
f 197 198 249
f 249 303 250
f 249 302 303
f 250 196 249
f 196 197 249
f 390 343 389
f 389 343 383
f 477 521 522
f 519 475 518
f 518 475 515
f 515 557 518
f 480 512 523
f 523 516 480
f 512 555 523
f 523 555 569
f 569 558 523
f 558 516 523
f 685 705 686
f 686 655 685
f 519 561 564
f 564 563 519
f 559 557 556
f 556 517 559
f 517 558 559
f 559 558 607
f 607 608 559
f 649 608 607
f 649 617 646
f 607 617 649
f 646 678 649
f 678 681 649
f 566 613 616
f 616 613 652
f 652 613 651
f 519 563 520
f 521 477 520
f 611 651 612
f 612 651 613
f 566 521 565
f 521 520 565
f 565 520 563
f 565 613 566
f 565 612 613
f 141 142 111
f 111 112 141
f 141 184 142
f 183 184 141
f 141 182 183
f 79 56 78
f 79 80 56
f 110 80 79
f 78 109 79
f 109 110 79
f 361 314 355
f 355 314 310
f 355 310 353
f 355 400 361
f 353 396 355
f 459 463 414
f 414 410 459
f 414 463 415
f 316 313 359
f 261 313 316
f 416 464 417
f 415 464 416
f 500 461 460
f 629 630 588
f 659 630 629
f 571 620 621
f 622 572 621
f 621 572 571
f 588 585 621
f 585 622 621
f 621 629 588
f 621 620 659
f 659 629 621
f 567 615 568
f 568 525 524
f 570 525 568
f 568 615 570
f 568 524 522
f 522 567 568
f 619 657 618
f 619 615 657
f 619 618 570
f 570 615 619
f 574 572 575
f 575 531 574
f 573 572 574
f 542 531 575
f 542 585 543
f 575 585 542
f 543 500 542
f 529 573 530
f 573 574 530
f 530 574 531
f 237 195 248
f 237 198 190
f 190 195 237
f 350 356 311
f 311 308 350
f 311 356 357
f 258 308 311
f 311 309 258
f 357 354 311
f 354 309 311
f 394 393 441
f 441 442 394
f 441 393 429
f 119 149 120
f 120 86 119
f 151 149 119
f 119 86 118
f 118 148 119
f 119 150 151
f 119 148 150
f 120 121 87
f 87 121 88
f 88 64 87
f 87 86 120
f 87 64 86
f 86 64 85
f 85 117 118
f 118 86 85
f 85 114 115
f 84 114 85
f 115 116 85
f 116 117 85
f 85 60 84
f 89 66 65
f 65 88 89
f 65 64 88
f 720 628 644
f 671 638 670
f 670 637 669
f 670 638 637
f 670 669 723
f 723 671 670
f 576 623 577
f 577 623 578
f 532 576 577
f 577 578 532
f 318 373 319
f 319 263 318
f 452 403 451
f 451 453 452
f 452 453 403
f 493 536 537
f 493 453 451
f 493 451 492
f 492 536 493
f 550 504 541
f 504 498 541
f 541 498 497
f 541 540 550
f 497 496 541
f 496 540 541
f 24 25 10
f 10 25 26
f 10 26 11
f 10 3 2
f 11 3 10
f 8 7 19
f 19 20 8
f 2 7 8
f 103 102 101
f 101 104 103
f 100 134 101
f 101 134 105
f 105 104 101
f 101 70 100
f 101 102 70
f 74 50 73
f 105 74 73
f 73 104 105
f 72 104 73
f 73 50 72
f 268 269 216
f 323 324 268
f 268 324 269
f 216 272 217
f 217 272 220
f 328 326 376
f 376 326 375
f 377 328 376
f 376 422 377
f 376 375 422
f 133 175 174
f 175 176 174
f 174 134 133
f 178 136 177
f 177 223 178
f 177 176 223
f 222 176 175
f 222 175 219
f 222 276 223
f 223 176 222
f 219 274 222
f 274 276 222
f 82 58 81
f 83 58 82
f 82 81 111
f 111 113 82
f 113 83 82
f 264 263 216
f 264 212 263
f 209 259 260
f 260 210 209
f 209 208 259
f 162 208 209
f 209 164 162
f 209 210 164
f 211 212 164
f 164 210 211
f 211 210 262
f 262 263 211
f 263 212 211
f 157 199 156
f 46 45 68
f 206 205 204
f 204 203 206
f 205 160 204
f 160 203 204
f 470 428 427
f 427 428 380
f 426 470 427
f 427 379 426
f 427 380 379
f 381 387 341
f 381 428 387
f 341 337 381
f 381 337 333
f 333 380 381
f 380 428 381
f 289 335 287
f 287 335 286
f 293 342 294
f 294 342 339
f 339 295 294
f 238 284 242
f 243 192 242
f 289 287 242
f 242 287 243
f 242 288 289
f 242 284 288
f 288 284 283
f 283 284 232
f 232 230 283
f 239 191 238
f 192 191 239
f 198 237 251
f 251 249 198
f 302 249 251
f 429 392 440
f 440 392 391
f 485 442 471
f 471 483 485
f 442 441 471
f 471 441 429
f 429 440 471
f 471 440 483
f 525 527 526
f 527 483 526
f 296 297 246
f 246 290 296
f 298 297 296
f 245 246 193
f 245 290 246
f 193 240 245
f 245 240 286
f 295 290 245
f 292 293 245
f 293 294 245
f 245 294 295
f 438 390 432
f 390 389 432
f 431 475 432
f 383 431 432
f 432 389 383
f 562 561 519
f 519 518 562
f 562 518 561
f 560 518 557
f 561 518 560
f 609 564 561
f 611 564 609
f 681 682 650
f 650 651 611
f 682 651 650
f 702 679 700
f 680 681 678
f 680 682 681
f 680 702 682
f 679 702 680
f 680 678 645
f 645 679 680
f 614 615 566
f 566 616 614
f 655 615 614
f 683 651 682
f 682 702 683
f 652 651 683
f 610 564 611
f 611 612 610
f 563 564 610
f 610 565 563
f 612 565 610
f 140 141 112
f 140 112 110
f 140 181 182
f 182 141 140
f 140 110 139
f 139 181 140
f 400 355 399
f 399 355 396
f 447 400 399
f 262 261 317
f 261 316 317
f 317 370 318
f 317 263 262
f 318 263 317
f 365 414 415
f 502 461 501
f 461 500 501
f 501 500 543
f 543 545 501
f 501 544 502
f 545 544 501
f 397 354 357
f 357 401 397
f 447 399 444
f 444 399 396
f 531 542 499
f 499 500 460
f 499 542 500
f 529 530 528
f 484 485 528
f 528 485 529
f 489 528 530
f 489 448 484
f 484 528 489
f 19 39 40
f 40 41 19
f 720 644 643
f 672 638 671
f 322 373 323
f 322 319 373
f 323 268 322
f 216 263 265
f 265 266 216
f 263 266 265
f 494 537 495
f 494 493 537
f 453 493 494
f 494 495 454
f 454 453 494
f 9 8 22
f 24 10 9
f 9 10 2
f 2 8 9
f 168 169 130
f 170 169 216
f 216 217 170
f 170 171 130
f 130 169 170
f 105 134 135
f 134 174 135
f 135 106 105
f 136 107 135
f 135 107 106
f 135 174 176
f 135 177 136
f 176 177 135
f 158 156 199
f 199 202 158
f 158 201 159
f 158 202 201
f 126 92 125
f 159 126 125
f 125 158 159
f 156 158 125
f 155 196 157
f 155 153 196
f 122 153 155
f 155 123 122
f 91 66 89
f 91 89 122
f 122 123 91
f 91 90 66
f 123 90 91
f 44 65 66
f 44 68 45
f 93 92 127
f 69 96 97
f 46 68 69
f 69 70 46
f 69 97 70
f 243 287 244
f 244 192 243
f 240 192 244
f 286 240 244
f 244 287 286
f 238 242 241
f 241 242 192
f 241 239 238
f 192 239 241
f 288 283 282
f 281 333 282
f 333 288 282
f 282 228 281
f 282 283 230
f 229 228 282
f 282 230 229
f 285 237 248
f 285 251 237
f 285 248 301
f 301 334 285
f 334 302 285
f 302 251 285
f 439 391 438
f 439 440 391
f 483 440 439
f 338 343 298
f 298 296 338
f 383 343 338
f 338 384 383
f 338 296 290
f 339 384 338
f 338 290 339
f 291 286 292
f 292 245 291
f 291 245 286
f 438 432 478
f 478 432 477
f 478 477 522
f 522 481 478
f 478 481 438
f 476 520 477
f 477 432 476
f 476 432 475
f 476 475 519
f 519 520 476
f 561 560 606
f 606 609 561
f 606 560 557
f 557 559 606
f 606 559 608
f 648 606 608
f 609 606 648
f 681 650 648
f 611 609 648
f 648 650 611
f 648 649 681
f 608 649 648
f 658 616 652
f 658 685 655
f 705 685 704
f 704 708 705
f 716 717 704
f 704 717 708
f 703 683 702
f 703 700 716
f 703 702 700
f 716 704 703
f 370 317 369
f 369 317 368
f 417 371 369
f 371 370 369
f 369 416 417
f 368 416 369
f 368 317 367
f 367 317 316
f 366 365 415
f 415 416 366
f 366 416 368
f 368 367 366
f 316 365 366
f 366 367 316
f 410 414 364
f 414 365 364
f 364 365 316
f 359 410 364
f 364 316 359
f 398 397 446
f 398 444 396
f 446 444 398
f 398 396 354
f 354 397 398
f 445 401 448
f 445 397 401
f 448 489 445
f 446 397 445
f 445 489 446
f 486 444 446
f 446 489 486
f 486 489 530
f 447 444 488
f 460 447 488
f 488 499 460
f 63 85 64
f 61 60 63
f 60 85 63
f 63 62 61
f 39 62 63
f 63 40 39
f 638 672 673
f 673 641 639
f 639 638 673
f 675 671 723
f 675 672 671
f 675 723 720
f 720 643 675
f 675 643 644
f 644 672 675
f 263 319 320
f 319 322 320
f 263 320 267
f 267 320 322
f 216 266 267
f 267 268 216
f 267 322 268
f 173 217 220
f 173 170 217
f 171 170 173
f 220 221 173
f 173 221 218
f 218 172 173
f 173 172 132
f 132 171 173
f 212 264 215
f 215 264 216
f 216 169 215
f 169 214 215
f 165 164 166
f 166 129 165
f 130 129 166
f 167 168 130
f 130 166 167
f 167 166 214
f 169 168 167
f 167 214 169
f 124 90 123
f 123 155 124
f 92 90 124
f 157 156 124
f 124 155 157
f 124 125 92
f 156 125 124
f 22 8 21
f 21 8 20
f 127 96 94
f 94 93 127
f 68 93 94
f 96 69 94
f 67 93 68
f 66 90 67
f 67 90 92
f 92 93 67
f 67 44 66
f 68 44 67
f 482 526 483
f 483 439 482
f 482 481 524
f 438 481 482
f 482 439 438
f 524 525 482
f 525 526 482
f 655 614 654
f 654 658 655
f 653 614 616
f 616 658 653
f 653 654 614
f 658 654 653
f 685 658 684
f 684 704 685
f 652 683 684
f 684 658 652
f 683 703 684
f 684 703 704
f 444 486 487
f 487 488 444
f 487 530 531
f 487 486 530
f 531 499 487
f 499 488 487
f 660 673 672
f 660 628 627
f 660 627 641
f 641 673 660
f 660 644 628
f 660 672 644
f 321 266 263
f 263 267 321
f 321 267 266
f 212 215 213
f 213 215 214
f 214 166 213
f 164 212 213
f 213 166 164
f 40 63 42
f 41 40 42
f 19 41 42
f 42 20 19
f 42 21 20
f 95 69 68
f 68 94 95
f 95 94 69
f 65 44 43
f 64 65 43
f 43 63 64
f 43 42 63
f 23 44 45
f 21 42 23
f 23 43 44
f 42 43 23
f 23 45 46
f 46 24 23
f 22 21 23
f 24 9 23
f 23 9 22

