# https://github.com/mikedh/trimesh
v 0.02753941 -0.00335566 0.05221245
v -0.02569286 -0.00418218 -0.05477831
v -0.02434795 0.01433112 0.01203588
v 0.02377042 0.01604931 -0.02545492
v -0.02189675 -0.00645410 0.05653831
v 0.00949163 -0.02118901 0.00870067
v 0.01845587 0.01827645 0.01582238
v 0.00979532 -0.01908810 -0.04089813
v -0.02190759 -0.01525677 -0.01368814
v -0.02204859 0.01626510 -0.02832782
v -0.00857241 0.01778379 0.03934494
v -0.02125141 -0.01601815 0.01967493
v 0.00300571 -0.01883973 0.04123819
v 0.01352635 0.01545894 -0.05338039
v 0.02545698 -0.01335536 0.02740204
v 0.00399812 -0.02136409 -0.01682521
v 0.01874329 0.01762093 0.04318647
v -0.01404423 -0.01883566 -0.03845452
v 0.02725199 -0.00197540 -0.04986906
v -0.01871886 0.01630989 -0.05167426
v 0.02670427 -0.01103866 0.00041219
v -0.02637615 0.01182305 0.04773248
v -0.01773730 -0.01716226 0.03971918
v -0.01047589 -0.02129487 0.00329610
v 0.02260447 0.01668040 -0.00393569
v -0.00159842 -0.01072515 -0.05488838
v -0.02540544 0.01401354 -0.01057308
v 0.02693746 -0.00775292 -0.03282980
v -0.00526438 -0.02154323 0.02459518
v -0.00164723 0.00795101 -0.05472327
v 0.01044066 0.01985213 -0.03477808
v -0.02269935 0.01484414 0.03140869
v 0.01185607 -0.02067600 0.02526662
v 0.01875413 -0.01387245 0.04517879
v 0.01884090 -0.01800506 -0.01854235
v 0.01593417 -0.01168196 -0.05309420
v 0.02319558 0.01656233 -0.04082108
v 0.02269124 -0.01707268 0.01300452
v 0.02245805 0.01633025 0.02979062
v -0.01203772 -0.02080221 -0.02167942
v 0.02334200 0.01164390 0.05433685
v 0.00465973 0.01852481 0.03975220
v -0.01799218 -0.01390095 -0.05032036
v -0.00878391 -0.01563950 0.04878918
v -0.01442384 0.01847188 -0.03839948
v 0.00228445 -0.02131930 -0.02896624
v 0.02433441 0.00972214 -0.05299513
v -0.02672323 0.01233607 -0.04331973
v -0.00302467 -0.01872166 -0.04576335
v 0.02451880 -0.01188147 -0.04383707
v 0.02634635 0.00477521 0.04367080
v 0.02733876 -0.00193876 0.02488137
v -0.02784037 -0.00408446 -0.04348484
v 0.01851552 -0.01897002 -0.00051242
v -0.01766138 0.01223835 0.05479916
v -0.01194553 -0.02097729 0.01565727
v -0.02419068 0.00694942 -0.05400780
v -0.01478718 -0.02039506 -0.00696269
v -0.02615381 0.01306487 0.00035715
v 0.01647647 -0.01810685 0.03468886
v 0.01765326 -0.01776077 -0.03366635
v -0.00860495 -0.02033806 0.03474389
v 0.02577151 -0.01081065 0.03768284
v 0.01951336 0.01831716 -0.01352303
v -0.01733057 0.01729927 0.00559662
v -0.02060065 -0.01570464 -0.03181712
v -0.01960281 -0.01807835 0.00232745
v 0.00649813 -0.01479262 -0.05167426
v 0.00545691 -0.02154731 0.01823297
v 0.01956759 -0.00271235 -0.05547177
v 0.01113481 -0.02049278 -0.02353965
v -0.01959739 -0.01373402 0.04833788
v -0.02167441 0.01565030 0.02097379
v -0.01592601 -0.01921024 0.02673059
v 0.00862938 -0.01486998 0.04730320
v 0.01470857 0.01464870 0.05464505
v -0.02049761 -0.01683653 -0.02242792
v -0.02393580 0.00591117 0.05511837
v 0.02668258 -0.01145395 0.01854118
v 0.01986585 -0.00383203 0.05649428
v -0.00551926 -0.02102615 -0.03288483
v -0.02678830 0.01213656 -0.01896062
v -0.02718961 0.00955113 -0.03017704
v 0.01967605 -0.01861987 0.02219559
v 0.02530513 0.01105760 0.03783694
v -0.00972209 -0.01328208 -0.05372161
v 0.01231160 0.01920883 0.03605376
v 0.02698084 -0.01003706 0.01039579
v 0.00489834 -0.02109129 0.02968054
v -0.01542168 0.01738478 0.03429259
v -0.02746076 -0.00684904 0.05063841
v 0.02491467 0.01286944 0.04662075
v 0.01984416 0.01821537 -0.04938474
v 0.00961636 -0.02039506 -0.03178411
v -0.01847483 -0.01875423 0.01206890
v -0.01156049 -0.02104650 -0.01387526
v 0.01945370 0.01833752 -0.03444786
v -0.01195095 -0.01779334 -0.04565328
v -0.02499871 0.01455913 -0.03540550
v 0.01351551 -0.02065971 0.01795779
v -0.00340428 -0.02158802 -0.01668212
v 0.01394393 -0.01612401 -0.04754653
v 0.02492552 -0.00985384 0.04534390
v -0.02594231 0.01339467 -0.05125598
v 0.01798949 -0.01949118 0.00816131
v 0.02045696 -0.01565578 -0.03966532
v 0.00976821 -0.01937717 0.03592167
v -0.00562230 -0.01943825 0.04088596
v -0.00196719 -0.01541964 0.04859105
v 0.02087453 0.01748657 0.00951521
v 0.00467058 -0.02054571 -0.03642918
v -0.02171237 0.01647275 -0.04154756
v -0.02660392 0.01160319 0.04112811
v -0.00148454 -0.02155138 -0.02300030
v -0.01043251 -0.02078186 -0.02852595
v -0.02312777 -0.01342865 0.03954307
v 0.01904698 0.01838231 0.00113867
v 0.02029969 0.01724635 0.03697837
v 0.02255024 -0.01105494 -0.04986906
v 0.00088532 -0.02165724 0.02323028
v -0.02117549 -0.01599372 0.02801844
v -0.00058432 -0.02173460 0.01660390
v -0.01567656 -0.01020806 -0.05480032
v -0.02050846 -0.01723554 -0.00378159
v -0.01763969 -0.01934460 -0.01561441
v 0.01951336 0.01715270 0.05168410
v -0.00115373 -0.02118087 0.03079228
v -0.02490652 0.01360231 0.02576195
f 70 14 47
f 30 14 70
f 30 57 14
f 2 30 70
f 57 30 2
f 53 104 2
f 104 57 2
f 2 66 53
f 2 43 66
f 70 36 26
f 68 49 86
f 86 26 68
f 68 26 36
f 126 11 55
f 72 5 91
f 91 83 53
f 101 81 114
f 70 47 19
f 19 47 37
f 1 92 41
f 41 92 126
f 126 92 39
f 93 45 31
f 93 47 14
f 37 47 93
f 113 82 83
f 113 91 22
f 83 91 113
f 83 82 48
f 48 104 53
f 53 83 48
f 65 10 73
f 65 45 112
f 112 10 65
f 126 17 87
f 17 7 87
f 31 45 87
f 45 11 87
f 87 117 31
f 87 7 117
f 21 79 38
f 1 41 80
f 80 34 1
f 75 34 80
f 80 55 5
f 123 26 86
f 86 43 123
f 43 2 123
f 123 2 70
f 70 26 123
f 49 81 98
f 86 49 98
f 98 43 86
f 78 55 22
f 5 55 78
f 22 91 78
f 78 91 5
f 72 91 116
f 119 36 70
f 70 19 119
f 51 92 1
f 92 51 85
f 85 51 19
f 4 39 92
f 92 85 4
f 4 19 37
f 4 85 19
f 126 39 118
f 118 17 126
f 117 7 118
f 118 7 17
f 117 118 110
f 110 118 39
f 97 93 31
f 45 93 20
f 104 112 20
f 20 112 45
f 20 93 14
f 14 57 20
f 20 57 104
f 104 48 59
f 59 48 82
f 82 113 59
f 59 113 22
f 22 27 59
f 65 73 90
f 90 45 65
f 90 11 45
f 73 32 90
f 90 32 22
f 22 55 90
f 90 55 11
f 10 27 3
f 3 73 10
f 3 32 73
f 99 27 10
f 10 112 99
f 99 112 104
f 104 59 99
f 99 59 27
f 42 11 126
f 126 87 42
f 42 87 11
f 1 79 88
f 88 79 21
f 88 19 1
f 105 38 84
f 84 38 15
f 15 38 79
f 55 80 76
f 76 80 41
f 126 55 76
f 76 41 126
f 72 116 23
f 44 5 72
f 44 80 5
f 66 125 77
f 53 66 77
f 18 98 81
f 18 125 66
f 66 43 18
f 43 98 18
f 36 119 102
f 102 68 36
f 106 8 102
f 102 119 106
f 49 68 102
f 102 8 49
f 50 119 19
f 106 119 50
f 50 38 106
f 21 38 50
f 1 19 52
f 52 51 1
f 19 51 52
f 25 110 39
f 25 4 37
f 39 4 25
f 117 110 64
f 93 97 64
f 37 93 64
f 31 117 64
f 64 97 31
f 64 25 37
f 110 25 64
f 22 32 128
f 32 3 128
f 128 27 22
f 128 3 27
f 106 38 35
f 84 15 103
f 1 34 103
f 8 94 111
f 111 81 49
f 49 8 111
f 34 107 60
f 84 103 60
f 60 103 34
f 121 23 116
f 72 23 108
f 108 44 72
f 75 80 109
f 80 44 109
f 44 108 109
f 16 69 114
f 71 105 100
f 100 105 84
f 67 125 95
f 95 121 67
f 95 125 58
f 115 18 81
f 81 101 115
f 101 96 115
f 21 50 28
f 28 50 19
f 28 88 21
f 19 88 28
f 38 105 54
f 54 35 38
f 54 105 71
f 106 35 61
f 61 8 106
f 61 94 8
f 71 94 61
f 61 54 71
f 35 54 61
f 1 103 63
f 63 103 15
f 63 79 1
f 63 15 79
f 46 111 94
f 46 16 114
f 114 81 46
f 81 111 46
f 46 94 71
f 71 16 46
f 13 34 75
f 13 107 34
f 75 109 13
f 13 109 108
f 6 16 71
f 71 100 6
f 69 16 6
f 6 100 69
f 107 13 89
f 89 108 127
f 89 13 108
f 124 67 121
f 124 77 125
f 125 67 124
f 24 96 101
f 101 29 24
f 24 58 96
f 122 29 101
f 122 101 114
f 114 69 122
f 62 108 23
f 127 108 62
f 62 29 127
f 40 115 96
f 40 58 125
f 96 58 40
f 125 18 40
f 18 115 40
f 69 100 33
f 33 89 69
f 107 89 33
f 33 60 107
f 84 60 33
f 33 100 84
f 12 121 116
f 116 124 12
f 12 124 121
f 9 116 91
f 9 124 116
f 77 124 9
f 9 91 53
f 53 77 9
f 95 58 56
f 58 24 56
f 56 24 29
f 29 62 56
f 120 122 69
f 29 122 120
f 69 89 120
f 127 29 120
f 120 89 127
f 95 56 74
f 74 121 95
f 23 121 74
f 74 62 23
f 74 56 62

