# https://github.com/mikedh/trimesh
v -0.22074725 -0.11047134 -0.11358805
v -0.22090995 -0.11070926 0.11152145
v -0.22103381 -0.10821107 -0.11800248
v -0.22073837 -0.11044756 -0.11800248
v -0.22071731 -0.11042376 -0.12052881
v -0.21849044 -0.11163716 0.11593590
v -0.22082739 -0.11059031 0.11593590
v -0.22106051 -0.10821107 0.11593590
v -0.22132197 -0.10378569 -0.12239032
v -0.22093828 -0.10840140 -0.12217758
v -0.22051978 -0.11001928 -0.12348063
v -0.21791732 -0.11120890 -0.12680475
v -0.21849044 -0.11089960 0.11910045
v -0.22071731 -0.11042376 0.11819629
v -0.22094557 -0.10809210 0.11995143
v -0.22127987 -0.10378569 0.12032373
v -0.22209746 -0.07730480 -0.08268701
v -0.22214440 -0.07290321 -0.08710144
v -0.22137217 -0.09938411 -0.12239032
v -0.22124347 -0.09938411 -0.12680475
v -0.22102329 -0.10369052 -0.12677816
v -0.22087353 -0.10706903 -0.12528895
v -0.22022352 -0.10369052 -0.13127238
v -0.22005515 -0.10840140 -0.12677816
v -0.21874461 -0.10821107 -0.13121918
v -0.21695890 -0.11085202 -0.13121918
v -0.21849044 -0.10935310 0.12130768
v -0.22090429 -0.10654560 0.12311599
v -0.22100306 -0.10378569 0.12391378
v -0.22098280 -0.09955065 0.12505728
v -0.22104433 -0.09495872 0.12473816
v -0.22112529 -0.08173018 0.12473816
v -0.22113176 -0.07730480 0.12473816
v -0.22208370 -0.06407624 0.09827816
v -0.22217841 -0.06847783 0.09386373
v -0.22210556 -0.07290321 0.08944929
v -0.22202137 -0.07730480 0.08503486
v -0.22191373 -0.08173018 0.08062042
v -0.22294094 0.08158058 -0.08710144
v -0.22209989 -0.06407624 -0.09593031
v -0.22206023 -0.05965086 -0.10034475
v -0.22200841 -0.05082390 -0.10475918
v -0.22248439 0.06832824 -0.10475918
v -0.22070679 0.02780985 -0.12906516
v -0.22089054 -0.09938411 -0.13007569
v -0.22083062 -0.10214402 -0.12980975
v -0.22028504 -0.09938411 -0.13228290
v -0.21812697 -0.10378569 -0.13419759
v -0.21720660 -0.10821107 -0.13371892
v -0.21630000 -0.11042376 -0.13345300
v -0.22078043 -0.09821828 0.12705176
v -0.22089295 -0.08173018 0.12721130
v -0.22091401 -0.07730480 0.12726448
v -0.22070597 0.02859500 0.13138640
v -0.22070679 0.03302037 0.13138640
v -0.22070192 0.03742196 0.13138640
v -0.22192019 -0.02434300 0.10269259
v -0.22210880 -0.01991762 0.09386373
v -0.22220188 -0.01991762 0.08944929
v -0.22292717 0.08598217 -0.08710144
v -0.22282922 0.08158058 -0.09151588
v -0.22245929 0.07275361 -0.10475918
v -0.22069626 0.03076010 -0.12898538
v -0.21825811 0.11688844 -0.13092667
v -0.21807922 -0.09938411 -0.13438375
v -0.21629755 0.07049334 0.13580084
v -0.22070111 0.02535923 0.13138640
v -0.21715480 0.10363609 0.13627952
v -0.22069706 0.03975361 0.13135982
v -0.22170486 0.06392665 0.10269259
v -0.22175100 0.07715520 0.09827816
v -0.22178499 0.08158058 0.09386373
v -0.22180767 0.08598217 0.08944929
v -0.22275151 0.09040754 -0.08268701
v -0.22266330 0.09040754 -0.08710144
v -0.21967550 0.12129002 -0.12680475
v -0.21990459 0.11688844 -0.12680475
v -0.22243664 0.08158058 -0.10034475
v -0.22182548 0.09040754 0.08062042
v -0.22181496 0.09923451 0.03647609
v -0.22069706 0.07503767 -0.12462413
v -0.22051251 0.07275361 -0.12693772
v -0.21806140 0.12129002 -0.13076711
v -0.21710138 0.09923451 0.13625292
v -0.21691924 0.12129002 0.13619973
v -0.21862562 0.11246306 0.13356704
v -0.21946180 0.11246306 0.12915260
v -0.22161582 0.07275361 0.10269259
v -0.22168057 0.06832824 0.10269259
v -0.22166276 0.08158058 0.09827816
v -0.22173806 0.08598217 0.09386373
v -0.22176638 0.09040754 0.08503486
v -0.22249976 0.09480912 -0.07827258
v -0.22242773 0.09480912 -0.08268701
v -0.22071569 0.11091655 -0.11212543
v -0.22183438 0.09923451 0.03206166
v -0.21813184 0.12571540 -0.11358805
v -0.21812536 0.12571540 -0.11800248
v -0.21810107 0.12571540 -0.12239032
v -0.21763644 0.12614366 -0.12723024
v -0.21733451 0.12495405 -0.13007569
v -0.22217518 0.09923451 -0.07385815
v -0.22218813 0.09923451 -0.06944371
v -0.21913640 0.12129002 0.12473816
v -0.21817474 0.12571540 0.12032373
v -0.22167654 0.09480912 0.08062042
v -0.22171700 0.09480912 0.07620599
v -0.22149117 0.09923451 0.07620599
v -0.21669097 0.12395477 0.13606676
v -0.21821763 0.12129002 0.13356704
v -0.21843782 0.11688844 0.13356704
v -0.21924891 0.11688844 0.12915260
v -0.22165710 0.09040754 0.08944929
v -0.22216868 0.09923451 -0.06061485
v -0.21665373 0.12828498 -0.11358805
v -0.21663430 0.12826118 -0.11800248
v -0.21656550 0.12821360 -0.12239032
v -0.21627165 0.12790430 -0.12895879
v -0.21644004 0.12807085 -0.12603356
v -0.21899554 0.12129002 0.12915260
v -0.21810998 0.12571540 0.12473816
v -0.21666263 0.12823738 0.12473816
v -0.21669258 0.12826118 0.12032373
v -0.21665454 0.12828498 -0.10917361
v -0.21722360 0.12464475 0.13356704
v -0.21651532 0.12809463 0.12753043
v -0.21467133 0.12930804 -0.10034475
v -0.21748830 0.12590574 0.12904622
v -0.21467133 0.12909392 0.12136086
v 0.20524566 0.13084547 -0.12683080
v 0.20965779 0.13027543 -0.12683080
v 0.20524566 0.13026446 -0.13124293
v 0.19640917 0.13084547 -0.12683080
v 0.21306491 0.12888315 -0.12241661
v 0.21294236 0.12881738 -0.12683080
v 0.21251340 0.12847753 -0.12985484
v 0.20957199 0.12919010 -0.13129458
v 0.20805225 0.12841175 -0.13368861
v 0.20524566 0.12865293 -0.13381255
v 0.20083353 0.12864196 -0.13381460
v 0.21527097 0.12643845 -0.12241661
v 0.21516067 0.12641652 -0.12683080
v 0.21632499 0.12357716 -0.13350271
v 0.21661912 0.12420204 -0.12683080
v 0.21648431 0.12389509 -0.13124293
v 0.21675394 0.12130787 -0.13124293
v 0.21681523 0.11688989 -0.13124293
v 0.21634950 0.12130787 -0.13352130
v 0.21710937 0.12130787 -0.12683080
v 0.21732996 0.11688989 -0.12683080
v 0.21745253 0.11247189 -0.12683080
v 0.21751381 0.10806486 -0.12683080
v 0.21686424 0.10806486 -0.13124293
v 0.21756282 0.09482184 -0.12683080
v 0.21757509 0.09040385 -0.12683080
v 0.20858271 -0.10615829 -0.13353989
v 0.12063940 -0.11048608 -0.13350491
v 0.21256353 -0.10294468 -0.13372433
v 0.21152267 -0.10588659 -0.13339996
v 0.20989749 -0.10786526 -0.13225192
v 0.20524101 -0.10844980 -0.13212155
v 0.19640286 -0.10840040 -0.13245547
v 0.19640286 -0.11120510 -0.13024843
v 0.14786604 -0.11187472 -0.13098942
v 0.15226685 -0.11404000 -0.12738630
v 0.21404263 -0.10417140 -0.13247135
v 0.21663566 -0.10680869 -0.12943749
v 0.21413395 -0.10825495 -0.13039154
v 0.21270961 -0.11083461 -0.12947248
v 0.20966008 -0.11108436 -0.12978096
v 0.21694608 -0.10380366 -0.13005763
v 0.21789564 -0.10380366 -0.12682977
v 0.21709219 -0.10825495 -0.12688702
v 0.21667218 -0.11081541 -0.12545595
v 0.21564957 -0.10975061 -0.12839758
v 0.21413395 -0.11141093 -0.12688702
v 0.20966008 -0.11225619 -0.12682977
v 0.21795042 -0.10821653 -0.12241573
v 0.21822435 -0.10380366 -0.12241573
v 0.21698260 -0.11122432 -0.12241573
v 0.21406090 -0.11270076 -0.12241573
v 0.21815129 -0.10821653 -0.11800486
v 0.21714696 -0.11158657 -0.11800486
v 0.21840695 -0.10821653 -0.10476273
v 0.21824260 -0.10821653 -0.11359081
v 0.21721999 -0.11178417 -0.11359081
v 0.21725650 -0.11184453 -0.10917677
v 0.21731129 -0.11184180 -0.10361469
v -0.02871057 0.13035838 0.13357970
v -0.04193659 0.13035977 0.13357970
v -0.05960346 0.13035838 0.13357970
v -0.20081779 0.13047640 0.12917373
v -0.11694840 0.13198017 0.02322647
v -0.20523451 0.12886849 0.13655947
v -0.10813911 0.13033061 0.13357970
v -0.11253168 0.13032643 0.13357970
v -0.20081779 0.13014315 0.13357970
v -0.11253168 0.13197045 0.02322647
v -0.20523451 0.13049585 0.12033630
v -0.20965123 0.13047224 0.11593032
v -0.20523451 0.13040559 0.12474228
v -0.20523451 0.12989600 0.13357970
v -0.12136512 0.13197601 0.01882049
v -0.11694840 0.13198155 0.01882049
v -0.20873410 0.12850332 0.13630480
v -0.21406795 0.12955859 0.11593032
v -0.20965123 0.13029589 0.12033630
v -0.13019857 0.13188158 0.01441451
v -0.19198436 0.13089989 0.06295669
v -0.20965123 0.13059305 0.05855072
v -0.21406795 0.12934892 0.12033630
v -0.21467133 0.12926701 0.11692358
v -0.21406795 0.12957804 0.06736267
v -0.20965123 0.13053055 -0.10034472
v -0.20965123 0.13053334 -0.09591326
v -0.21406795 0.12961413 -0.10034472
v -0.21414036 0.12940308 -0.12293491
v -0.21467133 0.12916842 -0.12240008
v -0.20965123 0.13051528 -0.10475069
v -0.21406795 0.12957941 -0.11358812
v -0.21406795 0.12960441 -0.10475069
v -0.21467133 0.12928228 -0.11358812
v -0.20912026 0.13045418 -0.12293491
v -0.21411622 0.12941419 -0.12293491
v -0.21406795 0.12946695 -0.12240008
v -0.21467133 0.12919202 -0.12138136
v -0.20965123 0.13048057 -0.11358812
v -0.20965123 0.13043752 -0.12240008
v -0.21406795 0.12954332 -0.11799410
v -0.21467133 0.12925035 -0.11799410
v -0.20965123 0.13043058 -0.12293491
v -0.20083447 -0.12545329 -0.05620562
v -0.20083447 -0.12539306 0.00560034
v -0.19642234 -0.12619837 0.04529906
v -0.20351234 -0.12411533 0.00560034
v -0.20083447 -0.12537088 0.01000727
v -0.19642234 -0.12597325 0.04972413
v -0.20034063 -0.12493651 0.04529906
v -0.20083447 -0.12520282 0.02324623
v -0.20083447 -0.12527892 0.01883929
v -0.20083447 -0.12532964 0.01443235
v -0.20348683 -0.12410265 0.01000727
v -0.19996271 -0.12468286 0.04972413
v -0.19965436 -0.11507935 0.12291922
v -0.21407548 -0.11268879 0.11591889
v -0.20322949 -0.12386170 0.02767130
v -0.20331991 -0.12395681 0.02324623
v -0.20338482 -0.12402023 0.01883929
v -0.20343815 -0.12406144 0.01443235
v -0.19642234 -0.11530130 0.12340888
v -0.21293709 -0.11089427 0.12295548
v -0.21427487 -0.11156642 0.12061600
v -0.21466900 -0.11150618 0.12047092
v -0.19200790 -0.11540908 0.12369904
v 0.13904269 0.09481737 0.16380301
v 0.13904269 0.11688602 0.16383728
v 0.14345832 0.11688602 0.16401787
v 0.14787395 0.12130392 0.16385311
v 0.14345832 0.12130392 0.16363956
v 0.14787395 0.11688602 0.16411145
v 0.15228130 0.12130392 0.16386628
v 0.15228130 0.12465112 0.16289748
v 0.14787395 0.12461994 0.16288826
v 0.14345832 0.12433928 0.16274062
v 0.21574357 0.12135588 0.15065633
v 0.21700519 0.10806065 0.15124814
v 0.15228130 0.11688602 0.16412067
v 0.15669692 0.12130392 0.16385573
v 0.17435116 0.12472389 0.16288826
v 0.16994384 0.12472389 0.16289221
v 0.16111256 0.12470309 0.16290011
v 0.15669692 0.12468231 0.16290143
v 0.16552819 0.11688602 0.16409299
v 0.15742733 0.12505652 0.16261540
v 0.15306151 0.12505652 0.16258641
v 0.14871226 0.12505652 0.16254818
v 0.14787395 0.12505652 0.16253763
v 0.21356897 0.12505652 0.15148935
v 0.21504638 0.12130392 0.15566245
v 0.21570209 0.12113760 0.15150648
v 0.21693879 0.11247854 0.15124814
v 0.21654038 0.10811262 0.15600383
v 0.20524400 0.05069045 0.16388737
v 0.20082837 0.10806065 0.16402972
v 0.20524400 0.05510834 0.16390187
v 0.16111256 0.12130392 0.16383860
v 0.18317413 0.12471350 0.16286585
v 0.17875850 0.12471350 0.16288033
v 0.16994384 0.11688602 0.16408113
v 0.17435116 0.11688602 0.16406663
v 0.18317413 0.11688602 0.16403368
v 0.17943080 0.12505652 0.16262463
v 0.17501517 0.12505652 0.16263387
v 0.17060784 0.12505652 0.16263649
v 0.16180147 0.12505652 0.16263121
v 0.19641273 0.11247854 0.16402972
v 0.21312906 0.12473428 0.15566245
v 0.21254806 0.12405860 0.15858729
v 0.21320376 0.12114799 0.16006489
v 0.21429108 0.11688602 0.16007411
v 0.21595939 0.11717709 0.15571386
v 0.21610878 0.11882990 0.15315016
v 0.21693879 0.11307105 0.15065633
v 0.21654868 0.11247854 0.15505086
v 0.21655700 0.11717709 0.15150648
v 0.21640760 0.11588810 0.15427713
v 0.21631628 0.10666771 0.15796648
v 0.21631628 0.10483819 0.15796648
v 0.21489698 0.09040987 0.16012289
v 0.20965964 0.05510834 0.16346952
v 0.20965964 0.05951583 0.16348799
v 0.20524400 0.10364275 0.16396908
v 0.20524400 0.10806065 0.16395591
v 0.20082837 0.11247854 0.16399810
v 0.20524400 0.05951583 0.16391109
v 0.16552819 0.12130392 0.16382015
v 0.18758976 0.11688602 0.16401653
v 0.18317413 0.12505652 0.16260618
v 0.16994384 0.12130392 0.16380037
v 0.17435116 0.12130392 0.16378061
v 0.17875850 0.12130392 0.16375951
v 0.19200540 0.12468231 0.16282630
v 0.19641273 0.11688602 0.16397305
v 0.19200540 0.11688602 0.16399544
v 0.21644908 0.11872595 0.15065633
v 0.21266426 0.12505652 0.15571517
v 0.20796642 0.12396504 0.16254422
v 0.21090464 0.12250974 0.16152930
v 0.21215796 0.11956795 0.16250336
v 0.20952684 0.12498376 0.16006489
v 0.21612538 0.11247854 0.15725735
v 0.21235715 0.11688602 0.16263121
v 0.21503808 0.10811262 0.15969318
v 0.21622498 0.10960951 0.15770155
v 0.21513768 0.10347643 0.15969318
v 0.21490528 0.09481737 0.16012816
v 0.21268916 0.09040987 0.16271164
v 0.21266426 0.08157410 0.16270240
v 0.21263105 0.07274871 0.16269186
v 0.21261445 0.06835161 0.16268528
v 0.20965964 0.06393372 0.16349590
v 0.20965964 0.10364275 0.16351303
v 0.20965964 0.10806065 0.16346952
v 0.20965964 0.11688602 0.16324414
v 0.20524400 0.11247854 0.16381355
v 0.20082837 0.11688602 0.16389397
v 0.18317413 0.12130392 0.16373183
v 0.19641273 0.12464073 0.16280653
v 0.20082837 0.12130392 0.16356179
v 0.19641273 0.12130392 0.16361453
v 0.19200540 0.12130392 0.16366065
v 0.18758976 0.12130392 0.16369888
v 0.20529380 0.12505652 0.16185750
v 0.20524400 0.12433928 0.16272745
v 0.20524400 0.12130392 0.16339308
v 0.20952684 0.12114799 0.16280390
v 0.21244845 0.11247854 0.16266023
v 0.21266426 0.10364275 0.16270371
v 0.21270576 0.09923526 0.16271558
v 0.21269746 0.09481737 0.16271558
v 0.20524400 0.11688602 0.16366461
v 0.20082837 0.12453678 0.16278939
v 0.05517478 0.05068252 -0.16508654
v 0.05505614 0.05476877 -0.16469674
v 0.05350795 0.05774988 -0.16451652
v 0.05517478 0.02861677 -0.16554622
v 0.05517478 0.03303270 -0.16548739
v 0.05517478 0.03744400 -0.16542119
v 0.05517478 0.04185994 -0.16534765
v 0.05517478 0.04627123 -0.16525939
v 0.05076155 0.05068252 -0.16560507
v 0.05076155 0.05509846 -0.16529249
v 0.05076155 0.05838603 -0.16469304
v 0.04391035 0.06168754 -0.16431795
v 0.03752185 0.06188256 -0.16442460
v 0.05076155 0.03303270 -0.16593972
v 0.05076155 0.03744400 -0.16589560
v 0.05076155 0.04185994 -0.16582572
v 0.05076155 0.04627123 -0.16572644
v 0.04634831 0.04627123 -0.16593972
v 0.04634831 0.05068252 -0.16576688
v 0.04634831 0.05509846 -0.16550946
v 0.04634831 0.05913363 -0.16484383
v 0.04223760 0.05993231 -0.16483647
v 0.04096820 0.06180827 -0.16439149
v 0.03310862 0.06193364 -0.16445033
v 0.03752185 0.05950975 -0.16504976
v 0.03310862 0.05950975 -0.16510125
v 0.04193508 0.04185994 -0.16609785
v 0.04634831 0.03744400 -0.16609418
v 0.05076155 0.02420547 -0.16600224
v 0.04634831 0.04185994 -0.16605373
v 0.04193508 0.04627123 -0.16603166
v 0.03752185 0.05068252 -0.16598754
v 0.04193508 0.05068252 -0.16588823
v 0.04193508 0.05509846 -0.16565287
v 0.03189261 0.06019234 -0.16492841
v 0.03752185 0.05509846 -0.16575584
v 0.03310862 0.05509846 -0.16581836
v 0.03310862 0.04627123 -0.16608314
v 0.03752185 0.04627123 -0.16607580
v 0.03310862 0.05068252 -0.16603534
v 0.03189261 0.05068252 -0.16603900
v -0.19198436 -0.11100908 -0.13395622
v -0.21406795 -0.10380288 -0.13534865
v -0.14344871 -0.12428699 -0.10767432
v -0.21467133 -0.10380288 -0.13518141
v 0.13904071 -0.07731002 0.16348019
v 0.15228574 -0.08172675 0.16387494
v 0.14786814 -0.08172675 0.16358644
v 0.15228574 -0.08481032 0.16315863
v 0.15669557 -0.08494262 0.16319311
v 0.15669557 -0.08172675 0.16391839
v 0.14786814 -0.08448467 0.16288523
v 0.16111317 -0.08504439 0.16316901
v 0.16552299 -0.08510545 0.16312936
v 0.16111317 -0.08172675 0.16388911
v 0.19506960 -0.08402670 0.16238847
v 0.16994059 -0.08489174 0.16304152
v 0.20083269 -0.08125862 0.16299289
v 0.16994059 -0.08172675 0.16372620
v 0.16552299 -0.08172675 0.16383198
v 0.20083269 -0.07731002 0.16361570
v 0.20524251 -0.07731002 0.16342306
v 0.21200892 -0.07973210 0.16237763
v 0.20966013 -0.08019005 0.16260003
v 0.20524251 -0.08079048 0.16288523
v 0.21216446 -0.07290345 0.16243288
v 0.20966013 -0.07731002 0.16289560
v 0.21381329 -0.07731002 0.16007568
v 0.21427993 -0.07290345 0.16007568
v 0.21211781 -0.07731002 0.16242768
v 0.21435772 -0.06848672 0.16007568
v 0.21518213 -0.06659383 0.15909493
v 0.12137840 0.13031803 0.13358657
v 0.21654530 0.12505652 0.11591140
v 0.21535876 0.12680884 0.11591140
v 0.21528740 0.12642890 -0.11865719
v 0.21318199 0.12894699 0.03647363
v 0.21318199 0.12894402 0.04531229
v 0.21318199 0.12894225 0.04971785
v 0.21315522 0.12888071 0.10710029
v 0.21316414 0.12884757 0.11150584
v 0.21531416 0.12681535 0.12034450
v 0.21311954 0.12896711 -0.10475215
v 0.21311954 0.12897244 -0.10034658
v 0.21308386 0.12891562 -0.11799636
v 0.21311061 0.12895350 -0.10915771
v 0.21311061 0.12898190 -0.06501950
v 0.21317306 0.12895113 0.03206807
v 0.20965810 0.13029037 -0.05177527
v 0.20965810 0.13023593 0.01885138
v 0.20965810 0.13022704 0.02763497
v 0.20965810 0.13022171 0.03206807
v 0.20965810 0.13020574 0.04531229
v 0.20965810 0.13011578 0.10266719
v 0.20965810 0.13010690 0.10710029
v 0.20965810 0.13007849 0.11150584
v 0.20965810 0.13019982 0.04971785
v 0.20965810 0.13000807 0.11591140
v 0.21315522 0.12877241 0.11591140
v 0.21304817 0.12856588 0.12475006
v 0.21525171 0.12671591 0.12475006
v 0.21309277 0.12893692 -0.11356326
v 0.21314630 0.12896296 0.01885138
v 0.20524208 0.13042471 0.12475006
v 0.20965810 0.12991811 0.12034450
v 0.20965810 0.12982047 0.12475006
v 0.21285190 0.12852623 0.12915562
v 0.21203116 0.12804569 0.14160134
v 0.21184380 0.12792140 0.14454757
v 0.21347639 0.12527312 0.15123850
v 0.18758696 0.13109580 0.01001273
v 0.18758696 0.13106799 0.01885138
v 0.18758696 0.13104372 0.02322941
v 0.19641899 0.13030396 0.12915562
v 0.20082608 0.13028622 0.12915562
v 0.20524208 0.13025367 0.12915562
v 0.20965810 0.12967904 0.12915562
v 0.18758696 0.13108809 0.01441829
v 0.20881058 0.12841141 0.15123850
v 0.20822178 0.12824157 0.15481801
v 0.21101412 0.12747993 0.15123850
v 0.21334256 0.12505652 0.15300073
v 0.18317096 0.13109994 -0.07826371
v 0.14345363 0.12902275 0.15564406
v 0.14786963 0.12903634 0.15564406
v 0.15228565 0.12904818 0.15564406
v 0.15670165 0.12905824 0.15564406
v 0.16110875 0.12906772 0.15564406
v 0.16552475 0.12907127 0.15564406
v 0.18317096 0.12930562 0.15123850
v 0.18758696 0.12951690 0.14683294
v 0.19200298 0.12949854 0.14683294
v 0.19641899 0.12944824 0.14683294
v 0.20082608 0.12938906 0.14683294
v 0.20524208 0.12899137 0.15123850
v 0.20542943 0.12834336 0.15602955
v 0.20702633 0.12789951 0.15776424
v 0.20967594 0.12712249 0.15602955
v 0.17876387 0.13108929 -0.08266927
v 0.14345363 0.12842561 0.15875550
v 0.14786963 0.12843035 0.15886563
v 0.15228565 0.12843035 0.15889317
v 0.15670165 0.12842858 0.15892071
v 0.16110875 0.12842621 0.15894823
v 0.16994077 0.12842266 0.15897577
v 0.17876387 0.12841852 0.15897577
v 0.16994077 0.12906712 0.15564406
v 0.18758696 0.12927189 0.15123850
v 0.17434786 0.12906061 0.15564406
v 0.17876387 0.12905292 0.15564406
v 0.18317096 0.12904049 0.15564406
v 0.20082608 0.12909138 0.15123850
v 0.18758696 0.12894520 0.15564406
v 0.18758696 0.12835282 0.15892071
v 0.19200298 0.12824690 0.15875550
v 0.19641899 0.12814155 0.15853521
v 0.20082608 0.12804273 0.15823233
v 0.20408233 0.12797408 0.15798451
v 0.20082608 0.12675261 0.16043511
v 0.20542943 0.12680884 0.15971920
v 0.14786963 0.12683487 0.16106841
v 0.15228565 0.12686861 0.16109595
v 0.15670165 0.12689760 0.16112348
v 0.16110875 0.12691772 0.16115101
v 0.16552475 0.12692837 0.16117854
v 0.16994077 0.12693134 0.16117854
v 0.17434786 0.12693194 0.16117854
v 0.18317096 0.12841141 0.15897577
v 0.17876387 0.12692957 0.16117854
v 0.18758696 0.12690943 0.16112348
v 0.19200298 0.12689760 0.16095828
v 0.19641899 0.12685204 0.16073799
v 0.16619386 0.12505652 0.16263789
v 0.18317096 0.12692128 0.16117854
v 0.21685170 0.12459914 0.11591128
v 0.22259544 0.07274871 -0.08267317
v 0.21589866 0.12234343 0.14680748
v 0.21637091 0.12505652 0.12474253
v 0.21777052 0.12130392 0.12034009
v 0.21653332 0.12505652 0.12034009
v 0.21684314 0.12459914 0.12034009
v 0.22241808 0.05069045 -0.08710197
v 0.22258262 0.07716660 -0.08267317
v 0.22261254 0.08157410 -0.07827073
v 0.22296298 0.03744717 -0.02530960
v 0.22281554 0.07274871 0.08944391
v 0.22281554 0.07716660 0.08944391
v 0.22290528 0.07274871 0.08501510
v 0.21615297 0.12009810 0.15065631
v 0.21638800 0.11954717 0.15018180
v 0.21653545 0.12013967 0.14680748
v 0.21767223 0.12130392 0.12474253
v 0.21673845 0.12450559 0.12474253
v 0.21650553 0.12505652 0.12128912
v 0.22206552 0.09040987 -0.06060823
v 0.22203562 0.09040987 -0.06943948
v 0.22200140 0.09040987 -0.07384192
v 0.22257835 0.08599199 -0.07384192
v 0.22248860 0.08599199 -0.07827073
v 0.22249073 0.08157410 -0.08267317
v 0.21817438 0.11688602 0.12474253
v 0.22258049 0.08599199 0.08061265
v 0.22263177 0.08599199 0.07621022
v 0.22212961 0.09040987 0.06295016
v 0.22214885 0.09040987 0.05854772
v 0.22211680 0.09040987 -0.03411449
v 0.22211467 0.09040987 -0.03854329
v 0.22209756 0.09040987 -0.04737454
v 0.22207621 0.09040987 -0.05620579
v 0.22240312 0.05510834 -0.08710197
v 0.22237962 0.05951583 -0.08710197
v 0.22234759 0.06393372 -0.08710197
v 0.22229844 0.06835161 -0.08710197
v 0.22288606 0.07716660 0.08501510
v 0.21801625 0.11688602 0.12917134
v 0.22276427 0.08157410 0.08501510
v 0.21634527 0.11944322 0.15065631
v 0.21692006 0.11688602 0.14680748
v 0.21662946 0.11712512 0.15065631
v 0.22268519 0.08599199 0.05854772
v 0.22267450 0.08599199 0.06295016
v 0.22269350 -0.05524436 -0.08707961
v 0.22283678 -0.06407548 -0.08268227
v 0.22303291 -0.06847875 -0.07825920
v 0.22283678 -0.07289431 -0.07386184
v 0.22268327 -0.05082879 -0.08707961
v 0.22293399 -0.05965992 -0.08268227
v 0.22302267 -0.06407548 -0.07825920
v 0.22306874 -0.06847875 -0.07386184
v 0.22301757 -0.06847875 0.05412423
v 0.22279584 -0.07289431 0.03206033
v 0.22297493 -0.05965992 0.07618814
v 0.22301415 -0.06847875 0.05854730
v 0.22278902 -0.07289431 0.03648339
v 0.22272080 -0.07289431 0.07179078
v 0.21424735 -0.07733447 0.15909493
v 0.21619345 -0.07289431 0.15732056
v 0.21570052 -0.07738367 0.15575191
v 0.21653798 -0.05082879 0.15564905
v 0.22279242 -0.00669776 0.08943162
v 0.22293569 -0.05965992 0.08503427
v 0.22295788 -0.05965992 0.08061120
v 0.22298686 -0.06407548 0.07179078
v 0.22300053 -0.06847875 0.06294465
v 0.22298174 -0.06847875 0.06736772
v 0.22295445 -0.06847875 0.07179078
v 0.22291695 -0.06847875 0.07618814
v 0.22287259 -0.06847875 0.08061120
v 0.22264917 -0.07289431 0.07618814
v 0.21466522 -0.07573552 0.15909493
v 0.21646805 -0.07289431 0.15510902
v 0.21625826 -0.06847875 0.15768059
v 0.21509674 -0.07108627 0.15909493
v 0.21496540 -0.07289431 0.15909493
v 0.21629919 -0.05082879 0.15788630
v 0.21630089 -0.04641323 0.15788630
v 0.21653627 -0.05524436 0.15564905
v 0.22278902 -0.01111333 0.08943162
v 0.22289647 -0.06407548 0.08503427
v 0.22293741 -0.06407548 0.08061120
v 0.22296469 -0.06407548 0.07618814
v 0.22278389 -0.01552889 0.08943162
v 0.22277537 -0.01994445 0.08943162
v 0.22272420 -0.04200997 0.08943162
v 0.22271396 -0.04641323 0.08943162
v 0.22270203 -0.05082879 0.08943162
v 0.22268839 -0.05524436 0.08943162
v 0.22273615 -0.06847875 0.08503427
v 0.21686204 -0.07289431 0.15122598
v 0.22264917 -0.05965992 0.08943162
v 0.21649021 -0.06847875 0.15546905
v 0.21651068 -0.06407548 0.15557191
v 0.21647999 -0.05974602 0.15608622
v 0.21627019 -0.06407548 0.15778343
v 0.21629237 -0.05524436 0.15788630
v 0.21628554 -0.05833156 0.15786059
v 0.21627873 -0.06128347 0.15783487
v 0.21526559 -0.05321492 0.15909493
v 0.21525706 -0.05524436 0.15909493
v 0.10814152 -0.12825336 -0.10282502
v 0.11698304 -0.12827013 -0.10284218
v 0.12578802 -0.12950560 -0.10033586
v 0.13020878 -0.13055876 -0.09592403
v 0.15227602 -0.13129765 -0.09151221
v 0.12138553 -0.12827733 -0.10284218
v 0.12578802 -0.12827013 -0.10282502
v 0.13020878 -0.12945044 -0.10033586
v 0.14785527 -0.13045560 -0.09592403
v 0.14345278 -0.13050598 -0.09592403
v 0.13461126 -0.13055156 -0.09592403
v 0.15227602 -0.13037165 -0.09592403
v 0.15667851 -0.13027570 -0.09592403
v 0.15667851 -0.13105775 -0.09151221
v 0.13020878 -0.12820777 -0.10272202
v 0.15667851 -0.12896106 -0.10000969
v 0.15667851 -0.12776636 -0.10222419
v 0.16109927 -0.12874754 -0.09963202
v 0.16109927 -0.12992783 -0.09592403
v 0.16552003 -0.13014615 -0.09151221
v 0.16552003 -0.13017492 -0.08710038
v 0.21847777 -0.10821706 -0.10033586
v 0.16552003 -0.12837809 -0.09882519
v 0.16822362 -0.12815499 -0.09831019
v 0.16552003 -0.12926331 -0.09592403
v 0.16992252 -0.12944564 -0.09151221
v 0.18102922 -0.12808542 -0.08495454
v 0.16992252 -0.12964475 -0.08710038
v 0.21849604 -0.10821706 -0.09592403
v 0.21738172 -0.11180833 -0.09151221
v 0.20877768 -0.12064857 -0.07827672
v 0.20861326 -0.12055022 -0.08268856
v 0.20523377 -0.12213834 -0.08710038
v 0.18585186 -0.12374806 -0.10275635
v 0.16977637 -0.12849084 -0.09594120
v 0.17726608 -0.12823896 -0.08993287
v 0.17275399 -0.12823175 -0.09446487
v 0.19051008 -0.12378164 -0.09873936
v 0.18102922 -0.12808542 -0.08486871
v 0.19979003 -0.12388960 -0.08710038
v 0.20050246 -0.12397357 -0.08268856
v 0.20523377 -0.12257496 -0.08268856
v 0.20198213 -0.12338822 -0.08710038
v 0.19474816 -0.12374806 -0.09432753
v 0.20271283 -0.12348177 -0.08268856
v -0.16109675 -0.12623455 0.09827735
v -0.15668979 -0.12618797 0.10268678
v -0.15226103 -0.12621549 0.10268678
v -0.14344715 -0.12542795 0.10709621
v -0.14785409 -0.12537079 0.10709621
v -0.15668979 -0.12486695 0.10642923
v -0.14785409 -0.12412597 0.10980115
v -0.14344715 -0.12419796 0.10991231
v -0.20329311 -0.12389684 -0.07739441
v -0.20341365 -0.12401298 -0.07386680
v -0.19058892 -0.12836301 -0.09446501
v -0.19203544 -0.12875181 -0.09115565
v -0.19425762 -0.12810296 -0.08944542
v -0.19656366 -0.12700978 -0.08710425
v -0.19671565 -0.12721933 -0.08268781
v -0.20082983 -0.12540659 -0.07386680
v -0.18759631 -0.12863819 -0.09527449
v -0.18759631 -0.12993337 -0.09151674
v -0.18759631 -0.13077915 -0.08710425
v -0.19200400 -0.12949660 -0.08710425
v -0.19200400 -0.12956981 -0.08268781
v -0.17435229 -0.12727235 -0.10047267
v -0.18318337 -0.12701483 -0.10034568
v -0.18318337 -0.12880483 -0.09582209
v -0.18318337 -0.13010000 -0.09151674
v -0.18759631 -0.13073875 -0.08268781
v -0.17435229 -0.12812065 -0.09826642
v -0.17791092 -0.12810044 -0.09820293
v -0.17913732 -0.12741625 -0.09994094
v -0.18085638 -0.12806509 -0.09813150
v -0.17913732 -0.12866850 -0.09636968
v 0.21807189 -0.09055004 -0.12682830
v 0.21806282 -0.09937855 -0.12682830
v 0.21807915 -0.09497009 -0.12682830
v 0.21744068 -0.09055004 -0.13124274
v 0.21805313 -0.09965698 -0.12682830
v 0.21743888 -0.09497009 -0.13124274
v 0.21660009 -0.09497009 -0.13372850
v 0.21659343 -0.08614158 -0.13373153
v 0.21658920 -0.08172153 -0.13373153
v 0.21658435 -0.07731307 -0.13372850
v 0.21657769 -0.07290462 -0.13372850
v 0.21405950 -0.09927414 -0.13391623
v 0.21390639 -0.09965698 -0.13389806
v 0.21714233 -0.09965698 -0.13099749
v 0.21707335 -0.09927414 -0.13137597
v 0.21649478 -0.09773117 -0.13363464
v 0.21407644 -0.09497009 -0.13424322
v 0.21407644 -0.09055004 -0.13431589
v 0.21407644 -0.08614158 -0.13436130
v 0.21407644 -0.08172153 -0.13437341
v 0.21407644 -0.07731307 -0.13437946
v 0.21407644 -0.07290462 -0.13438250
v 0.21407644 -0.06848456 -0.13437341
v 0.21706365 -0.09965698 -0.13126697
v 0.03310592 -0.04200697 -0.16570491
v 0.03752216 -0.04200697 -0.16570491
v 0.03310592 -0.03759041 -0.16615488
v 0.03752216 -0.03759041 -0.16614024
v 0.04634889 -0.03759041 -0.16605976
v 0.04193265 -0.04200697 -0.16564639
v 0.03752216 -0.02434675 -0.16630486
v 0.03310592 -0.03317385 -0.16628291
v 0.05076513 -0.03317385 -0.16616951
v 0.05076513 -0.03759041 -0.16594270
v 0.04634889 -0.04200697 -0.16550371
v 0.04193265 -0.02434675 -0.16629755
v 0.03752216 -0.02876331 -0.16629024
v 0.05076513 -0.02876331 -0.16619878
v 0.05517562 -0.03317385 -0.16569029
v 0.05517562 -0.03759041 -0.16537568
v 0.05112740 -0.04241670 -0.16500254
v 0.04634889 -0.01993621 -0.16624267
v 0.04634889 -0.02434675 -0.16625366
v 0.05076513 -0.02434675 -0.16619146
v 0.05517562 -0.00228201 -0.16581465
v 0.05517562 -0.00669858 -0.16581832
v 0.05517562 -0.01111514 -0.16580735
v 0.05517562 -0.01551965 -0.16578905
v 0.05517562 -0.01993621 -0.16576710
v 0.05517562 -0.02876331 -0.16571955
v 0.05076513 0.01537219 -0.16605611
v 0.05076513 -0.00669858 -0.16614391
v 0.05076513 0.01886085 -0.16603781
v 0.05517562 0.00654509 -0.16576345
v 0.05169093 0.01886085 -0.16596465
v 0.05517562 0.01095562 -0.16573784
v 0.05517562 0.01886085 -0.16566832
v 0.05517562 0.01537219 -0.16570491
v 0.08166067 -0.12554632 0.10710620
v 0.10813458 -0.12621625 0.10269350
v 0.08607128 -0.12545599 0.10710620
v 0.08166067 -0.12423281 0.10997137
v 0.10372397 -0.12506081 0.10710620
v 0.10813458 -0.12495732 0.10710620
v 0.04634889 -0.04496324 -0.16466919
v 0.04990258 -0.04454504 -0.16450304
v 0.04193265 -0.04538700 -0.16478838
v 0.04634889 -0.04269943 -0.16530854
v 0.04731494 -0.04269943 -0.16523267
v 0.05097214 -0.04269943 -0.16493648
v 0.03310592 -0.04553755 -0.16485341
v 0.03752216 -0.04555986 -0.16483895
v 0.04193265 -0.04269943 -0.16547108
v 0.15228170 -0.13002796 0.08504413
v 0.15670259 -0.12952754 0.08062881
v 0.14786883 -0.12533075 0.10269900
v 0.15711905 -0.12929325 0.08546067
v 0.17875899 -0.12555595 0.09386836
v 0.17435412 -0.12554684 0.09828368
v 0.16994123 -0.12590396 0.09828368
v 0.16552834 -0.12617010 0.09828368
v 0.16111547 -0.12633388 0.09828368
v 0.19168529 -0.12389541 0.08945304
v 0.16111547 -0.12503503 0.10258365
v 0.19200563 -0.11295646 0.13358699
v 0.19094847 -0.12381353 0.09266360
v 0.17875899 -0.12496451 0.09828368
v 0.18317187 -0.12487353 0.09386836
v 0.21407004 -0.11245602 0.12917168
v 0.20524429 -0.11234684 0.13358699
v 0.16552834 -0.12490083 0.10242985
v 0.20524429 -0.12127270 0.08504413
v 0.19389573 -0.12344048 0.08945304
v 0.14786883 -0.11165988 0.13720767
v 0.15228170 -0.11167353 0.13722691
v 0.17875899 -0.11169855 0.13697058
v 0.19641851 -0.11281998 0.13358699
v 0.19200563 -0.11168036 0.13674629
v 0.18647952 -0.12387268 0.09701484
v 0.20083140 -0.12195738 0.08945304
v 0.20083140 -0.12129091 0.09386836
v 0.21407004 -0.11341595 0.12476276
v 0.21699329 -0.11138465 0.12917168
v 0.21652076 -0.11072271 0.13180548
v 0.21191566 -0.11044975 0.13581708
v 0.20965716 -0.11086148 0.13610546
v 0.20524429 -0.11124134 0.13631693
v 0.20083140 -0.11263117 0.13358699
v 0.20843981 -0.11995795 0.08062881
v 0.20819955 -0.11983966 0.08504413
v 0.21735369 -0.11190100 0.12476276
v 0.20524429 -0.12075409 0.08945304
v 0.18758474 -0.11169855 0.13684882
v 0.21849895 -0.10821829 0.10269900
v 0.21739373 -0.11190783 0.11593214
v 0.21516727 -0.11406423 0.09386836
v 0.21838683 -0.10821829 0.12476276
v 0.21785824 -0.10821829 0.12917168
v 0.21064225 -0.11809269 0.08062881
v 0.21737771 -0.11190328 0.12034745
v 0.21843487 -0.10821829 0.12034745
v 0.21848293 -0.10821829 0.11151681
v -0.15040420 0.04186427 -0.16449326
v -0.15046751 0.03744552 -0.16451773
v -0.15029424 0.04627636 -0.16444737
v -0.14786837 0.04186427 -0.16507143
v -0.14786837 0.03744552 -0.16514178
v -0.14786837 0.03303343 -0.16516931
v -0.15060081 0.02420259 -0.16455749
v -0.15018095 0.04929762 -0.16439538
v -0.14786837 0.04627636 -0.16496436
v -0.14723191 0.03744552 -0.16521519
v -0.14990769 0.05223901 -0.16422406
v -0.14820825 0.05073504 -0.16474105
v -0.14723191 0.05364316 -0.16464315
v -0.14664324 -0.04073872 -0.16464253
v -0.15036370 -0.03318886 -0.16446640
v -0.15019575 -0.03574011 -0.16439667
v -0.14801605 -0.03735629 -0.16478562
v -0.15079817 -0.01552633 -0.16466087
v -0.15075801 -0.01994774 -0.16464253
v -0.15065579 -0.02435760 -0.16459483
v -0.15053530 -0.02876746 -0.16453978
v -0.14787000 -0.03318886 -0.16506450
v -0.15280992 0.02394306 -0.16354172
v -0.14787000 -0.01111648 -0.16524796
v -0.14787000 -0.01552633 -0.16524796
v -0.14787000 0.02394306 -0.16518559
v -0.14787000 -0.01994774 -0.16521493
v -0.14787000 -0.02876746 -0.16514155
v -0.14346313 -0.02435760 -0.16571397
v -0.04636178 -0.04532330 -0.16474095
v -0.06840140 -0.04200106 -0.16550602
v -0.04636178 0.01978647 -0.16614930
v -0.06840140 -0.03758658 -0.16601132
v -0.05077314 -0.04530813 -0.16473505
v -0.05518450 -0.04528538 -0.16472769
v -0.05957869 -0.04525504 -0.16472031
v -0.07282993 -0.04200106 -0.16549031
v -0.07282993 -0.03758658 -0.16599658
v -0.05077314 0.01537199 -0.16615324
v -0.05077314 0.01978647 -0.16614440
v -0.05077314 0.02393547 -0.16613163
v -0.14346313 -0.02876521 -0.16570932
v -0.13903461 -0.02435074 -0.16595043
v -0.14081976 -0.04415521 -0.16429849
v 0.02868279 -0.03758658 -0.16615863
v 0.03189261 -0.03758658 -0.16615619
v -0.12137203 -0.03317210 -0.16597940
v -0.09488672 -0.03317210 -0.16604766
v -0.09047535 -0.03317210 -0.16605847
v 0.02868279 -0.03317210 -0.16629761
v -0.07282993 -0.04514885 -0.16469871
v -0.07724128 -0.04511092 -0.16469036
v -0.10372659 -0.04492129 -0.16462603
v -0.10813796 -0.04488337 -0.16461621
v -0.12578338 -0.04200106 -0.16520745
v -0.12578338 -0.03758658 -0.16578789
v -0.05957869 0.00654303 -0.16615766
v -0.05518450 0.01537199 -0.16614588
v -0.05518450 0.01978647 -0.16613261
v -0.10813796 -0.01993626 -0.16610904
v 0.03189261 -0.03317210 -0.16628878
v -0.14344597 -0.02876521 -0.16571030
v -0.14344597 -0.03317210 -0.16564155
v -0.14346313 -0.03317210 -0.16564007
v -0.13903461 -0.02876521 -0.16589642
v -0.13462327 -0.02435074 -0.16598383
v -0.12137203 -0.02876521 -0.16605209
v -0.12578338 -0.02876521 -0.16601722
v -0.13462327 -0.02876521 -0.16594552
v -0.14344597 -0.04156872 -0.16486713
v -0.13922344 -0.04241066 -0.16486174
v -0.13786742 -0.04428415 -0.16438885
v 0.03189261 -0.03638057 -0.16619448
v -0.13019474 -0.03758658 -0.16575842
v -0.12578338 -0.03317210 -0.16594306
v -0.11696067 -0.02876521 -0.16608056
v -0.11254931 -0.02876521 -0.16609825
v -0.10813796 -0.02435074 -0.16612132
v -0.11696067 -0.04478476 -0.16458723
v -0.12137203 -0.04473167 -0.16457251
v -0.13019474 -0.04200106 -0.16514508
v -0.13462327 -0.03758658 -0.16570343
v -0.05957869 0.01095751 -0.16614735
v -0.10372659 -0.01993626 -0.16612083
v -0.13903461 -0.03317210 -0.16576874
v -0.13903461 -0.03758658 -0.16563714
v -0.14344597 -0.03758658 -0.16548833
v -0.14346313 -0.03758658 -0.16548686
v -0.13019474 -0.03317210 -0.16588758
v -0.13462327 -0.03317210 -0.16583110
v -0.13462327 -0.04200106 -0.16507094
v -0.12578338 -0.04462548 -0.16453469
v -0.04636040 0.06214621 -0.16455057
v -0.05517986 0.06214020 -0.16455306
v -0.06399933 0.06214020 -0.16454808
v -0.07281879 0.06212816 -0.16454063
v -0.09931224 0.06208003 -0.16451822
v -0.10371320 0.06206198 -0.16450828
v -0.10813170 0.06201987 -0.16448587
v -0.13243344 0.06171906 -0.16434905
v -0.04194190 0.06214020 -0.16454808
v -0.04194190 0.05951110 -0.16526216
v -0.04636040 0.05951110 -0.16526216
v -0.06399933 0.05951110 -0.16524723
v -0.05517986 0.05951110 -0.16525720
v -0.09489375 0.05951110 -0.16519001
v -0.09931224 0.05951110 -0.16518006
v -0.07281879 0.05951110 -0.16523480
v -0.07723729 0.05951110 -0.16522734
v 0.02426543 0.06203190 -0.16449335
v 0.01984694 0.06205597 -0.16450080
v -0.10371320 0.05951110 -0.16516264
v -0.10813170 0.05951110 -0.16513279
v -0.11255021 0.05951110 -0.16509548
v -0.13418682 0.05984800 -0.16474713
v -0.13902612 0.05898768 -0.16475958
v -0.13537911 0.06154459 -0.16418980
v -0.12578817 0.05951110 -0.16497354
v -0.13020666 0.05951110 -0.16492379
v 0.01984694 0.05951110 -0.16516763
v 0.02426543 0.05509517 -0.16584936
v 0.01984694 0.05509517 -0.16585433
v -0.03752340 0.05509517 -0.16584936
v -0.04636040 0.05509517 -0.16584438
v -0.00662898 0.05509517 -0.16585433
v -0.07281879 0.05509517 -0.16582449
v -0.06399933 0.05509517 -0.16583443
v -0.07723729 0.05509517 -0.16581453
v -0.08165578 0.05509517 -0.16580208
v -0.08605675 0.05509517 -0.16578965
v -0.09047525 0.05509517 -0.16577223
v 0.03189261 0.06194767 -0.16445602
v 0.02426543 0.05951110 -0.16515519
v -0.09931224 0.05509517 -0.16573241
v -0.10371320 0.05509517 -0.16571252
v -0.11255021 0.05509517 -0.16566774
v -0.11696870 0.05509517 -0.16564035
v -0.12578817 0.05509517 -0.16558562
v -0.13902612 0.05509517 -0.16536169
v -0.14344461 0.05509517 -0.16507307
v -0.14344461 0.05816346 -0.16456302
v -0.14344461 0.06036540 -0.16382156
v -0.13902612 0.06119565 -0.16398826
v -0.13020666 0.05509517 -0.16553834
v -0.13460761 0.05509517 -0.16546123
v -0.14344461 0.03303360 -0.16565529
v 0.02868394 0.05509517 -0.16583940
v 0.02868394 0.05069128 -0.16604592
v 0.02426543 0.05069128 -0.16604841
v 0.01984694 0.05069128 -0.16604343
v -0.05958083 0.05069128 -0.16594888
v -0.06399933 0.05069128 -0.16594142
v -0.06840029 0.05069128 -0.16593395
v -0.07281879 0.05069128 -0.16592400
v -0.07723729 0.05069128 -0.16591157
v -0.08605675 0.05069128 -0.16588420
v -0.09047525 0.05069128 -0.16586678
v 0.03189261 0.05509517 -0.16582449
v -0.09489375 0.05069128 -0.16584687
v -0.10371320 0.05069128 -0.16580456
v -0.10813170 0.05069128 -0.16577969
v -0.13460761 0.05069128 -0.16561797
v -0.13902612 0.05069128 -0.16558313
v -0.14344461 0.05069128 -0.16540897
v -0.14723191 0.05072737 -0.16487901
v -0.14674096 0.05509517 -0.16459288
v -0.14579414 0.05749565 -0.16439134
v -0.04636040 0.02394305 -0.16613549
v -0.14723191 0.03303360 -0.16523978
v -0.14344461 0.03744952 -0.16563539
v -0.13902612 0.03744952 -0.16570006
v 0.03189261 0.05190054 -0.16598123
v 0.03189261 0.04748462 -0.16607329
v 0.03189261 0.04627535 -0.16608323
v -0.05517986 0.04185943 -0.16602352
v -0.05517986 0.04627535 -0.16599615
v -0.05958083 0.04627535 -0.16598621
v -0.08165578 0.03744952 -0.16597377
v -0.08165578 0.04627535 -0.16592400
v -0.05517986 0.03744952 -0.16604841
v -0.08605675 0.04185943 -0.16593644
v -0.09931224 0.04185943 -0.16589415
v -0.09931224 0.04627535 -0.16586678
v -0.10813170 0.04627535 -0.16583692
v -0.11696870 0.04627535 -0.16579463
v -0.12136966 0.04627535 -0.16577223
v -0.13020666 0.04627535 -0.16572247
v -0.13460761 0.04627535 -0.16568764
v -0.13902612 0.04627535 -0.16563290
v -0.14344461 0.04185943 -0.16557318
v -0.05076136 0.02420777 -0.16613051
v -0.05076136 0.02861767 -0.16610812
v -0.13902612 0.04185943 -0.16567519
v -0.13460761 0.04185943 -0.16573490
v -0.06399933 0.03303360 -0.16604841
v -0.06840029 0.03303360 -0.16603597
v -0.07723729 0.03303360 -0.16600859
v -0.08165578 0.03303360 -0.16599366
v -0.09931224 0.03744952 -0.16591406
v -0.05517986 0.03303360 -0.16607329
v -0.11696870 0.04185943 -0.16583443
v -0.12136966 0.04185943 -0.16581950
v -0.12578817 0.04185943 -0.16579960
v -0.13020666 0.04185943 -0.16577472
v -0.05517986 0.02394305 -0.16611807
v -0.06840029 0.02861767 -0.16605587
v -0.07281879 0.02861767 -0.16604094
v 0.02868279 -0.05456157 -0.16078903
v 0.02427143 -0.05465536 -0.16080824
v 0.01986007 -0.05470501 -0.16080824
v -0.03311055 -0.05452295 -0.16073781
v -0.01103659 -0.05471605 -0.16077302
v -0.00662523 -0.05473811 -0.16078582
v -0.00221388 -0.05475466 -0.16079542
v 0.00219748 -0.05477121 -0.16079862
v 0.00660883 -0.05476570 -0.16080183
v 0.01102019 -0.05474915 -0.16080502
v 0.01544872 -0.05472708 -0.16080824
v -0.21407060 0.12130452 -0.13248512
v -0.19458340 0.12795706 -0.13346756
v -0.21467133 0.12130452 -0.13223167
v -0.21467133 0.12197395 -0.13204862
v -0.21467133 0.12608473 -0.13078348
v -0.21450628 0.12614748 -0.13082464
v -0.20966090 0.12571862 -0.13205944
v -0.20966090 0.12911813 -0.13024841
v -0.20524459 0.12929593 -0.13071308
v -0.20082828 0.12945284 -0.13105753
v -0.19620074 0.12920180 -0.13163485
v -0.21467133 0.12913904 -0.12293599
v -0.21467133 0.12631485 -0.13065568
v -0.21332464 0.12866834 -0.12972523
v -0.20966090 0.13037331 -0.12683104
v -0.20524459 0.13057207 -0.12683104
v -0.20082828 0.13074987 -0.12683104
v -0.19641858 0.13079171 -0.12683104
v -0.21450628 0.12897168 -0.12723613
f 39 35 59
f 18 35 39
f 17 35 18
f 142 141 144
f 546 561 560
f 85 256 109
f 257 256 255
f 17 38 37
f 104 121 105
f 104 80 108
f 5 696 4
f 4 696 1
f 4 3 5
f 4 1 3
f 9 19 20
f 17 18 9
f 18 19 9
f 165 170 658
f 157 164 165
f 672 671 832
f 590 546 591
f 298 299 279
f 591 546 547
f 560 561 149
f 144 541 149
f 568 541 567
f 567 582 568
f 90 87 91
f 74 75 60
f 39 59 60
f 59 73 60
f 60 80 74
f 72 73 59
f 91 73 72
f 91 87 113
f 36 35 17
f 17 37 36
f 42 19 41
f 39 42 41
f 39 60 61
f 79 60 73
f 80 60 79
f 121 104 120
f 96 104 114
f 80 104 96
f 114 93 96
f 74 80 96
f 96 93 74
f 114 104 103
f 103 93 114
f 102 93 103
f 466 193 192
f 2 238 7
f 3 1 2
f 2 9 3
f 251 51 28
f 707 233 232
f 157 165 404
f 404 165 647
f 501 485 130
f 170 165 163
f 163 165 164
f 163 164 157
f 157 161 163
f 163 161 170
f 647 165 648
f 657 654 649
f 649 648 657
f 658 170 657
f 655 791 646
f 646 654 655
f 670 832 671
f 822 806 821
f 342 313 312
f 297 326 298
f 298 279 297
f 483 326 297
f 144 141 438
f 537 541 144
f 537 543 541
f 144 438 537
f 539 297 279
f 589 588 538
f 538 590 589
f 545 546 538
f 546 590 538
f 584 588 589
f 589 585 584
f 584 585 719
f 559 558 560
f 560 149 559
f 559 149 558
f 545 574 575
f 575 574 152
f 588 584 718
f 726 739 728
f 719 585 722
f 307 336 308
f 548 549 266
f 281 266 549
f 307 304 334
f 304 331 334
f 300 331 301
f 301 279 300
f 300 279 299
f 300 334 331
f 307 334 300
f 332 333 300
f 300 333 307
f 566 567 541
f 560 570 569
f 569 582 560
f 568 582 569
f 569 541 568
f 569 570 541
f 560 558 557
f 558 149 557
f 557 149 541
f 261 260 267
f 355 349 346
f 355 344 356
f 255 256 68
f 256 85 68
f 67 51 66
f 66 84 67
f 84 68 67
f 87 90 88
f 35 36 16
f 16 36 37
f 16 37 38
f 16 38 17
f 17 9 16
f 112 113 87
f 112 120 104
f 40 19 18
f 40 41 19
f 40 18 39
f 39 41 40
f 108 80 107
f 80 79 107
f 473 130 485
f 480 466 473
f 466 130 473
f 197 490 196
f 490 195 196
f 192 197 196
f 196 195 192
f 474 466 480
f 435 466 192
f 695 696 5
f 706 699 26
f 12 699 5
f 26 699 12
f 702 232 696
f 707 232 702
f 702 706 707
f 235 232 233
f 696 232 235
f 1 696 235
f 242 2 235
f 235 2 1
f 21 9 20
f 20 19 43
f 43 19 42
f 43 42 39
f 39 61 43
f 647 648 644
f 644 648 649
f 157 156 162
f 162 161 157
f 156 161 162
f 170 161 160
f 160 161 156
f 782 156 784
f 708 404 406
f 406 644 708
f 157 1048 1047
f 1059 1067 1068
f 501 130 204
f 204 485 501
f 132 1067 1075
f 132 1068 1067
f 131 132 130
f 169 177 170
f 170 160 169
f 180 673 674
f 589 590 586
f 586 585 589
f 586 590 591
f 586 179 172
f 172 722 586
f 586 722 585
f 658 657 656
f 656 657 648
f 656 165 658
f 656 648 165
f 654 657 659
f 170 177 659
f 659 657 170
f 676 667 666
f 666 665 676
f 685 684 681
f 660 655 654
f 654 659 660
f 660 665 666
f 683 673 672
f 674 673 683
f 672 826 683
f 683 826 809
f 683 684 674
f 663 670 671
f 267 260 413
f 820 821 806
f 314 313 346
f 332 344 343
f 344 313 343
f 313 342 343
f 335 336 307
f 307 333 335
f 555 540 539
f 554 555 539
f 541 543 554
f 543 555 554
f 539 540 472
f 525 276 526
f 562 546 545
f 561 546 562
f 562 149 561
f 562 150 149
f 545 575 151
f 151 575 152
f 151 562 545
f 150 562 151
f 152 574 573
f 573 572 152
f 573 574 545
f 545 572 573
f 721 718 720
f 720 584 719
f 720 718 584
f 152 572 154
f 727 721 726
f 726 728 727
f 727 728 721
f 726 721 725
f 721 724 725
f 725 739 726
f 725 724 739
f 723 724 721
f 723 731 732
f 733 724 723
f 723 732 733
f 172 731 723
f 723 722 172
f 719 722 723
f 723 720 719
f 721 720 723
f 564 578 565
f 565 541 564
f 565 566 541
f 567 566 565
f 560 582 576
f 582 578 576
f 576 578 549
f 576 546 560
f 576 547 546
f 307 308 282
f 282 304 307
f 282 281 304
f 266 281 282
f 301 331 306
f 306 331 304
f 304 281 306
f 306 281 305
f 332 300 329
f 329 300 299
f 298 328 329
f 329 299 298
f 356 344 329
f 329 344 332
f 571 570 560
f 560 557 571
f 541 570 571
f 571 557 541
f 272 261 271
f 271 295 272
f 535 295 271
f 269 261 268
f 256 257 258
f 258 259 256
f 258 257 260
f 260 261 258
f 344 355 361
f 361 355 346
f 327 355 356
f 356 329 327
f 327 329 328
f 327 328 298
f 86 68 85
f 526 276 275
f 263 275 276
f 264 259 263
f 259 258 263
f 89 88 71
f 71 88 90
f 71 72 59
f 71 90 91
f 91 72 71
f 58 57 70
f 89 71 70
f 59 58 70
f 70 71 59
f 28 51 29
f 29 16 28
f 33 57 34
f 34 16 33
f 35 16 34
f 34 57 58
f 34 59 35
f 34 58 59
f 8 2 7
f 9 2 8
f 8 16 9
f 108 107 106
f 106 104 108
f 106 107 79
f 106 112 104
f 113 112 106
f 121 120 128
f 120 125 128
f 466 474 475
f 699 706 700
f 5 699 700
f 700 695 5
f 712 707 705
f 707 706 705
f 646 791 705
f 705 791 712
f 705 645 646
f 698 26 697
f 698 706 26
f 697 704 698
f 704 705 698
f 698 705 706
f 2 248 247
f 236 233 707
f 242 235 236
f 236 235 233
f 238 247 239
f 248 240 239
f 239 247 248
f 242 240 249
f 249 240 248
f 249 2 242
f 249 248 2
f 27 251 28
f 28 14 27
f 7 238 6
f 6 14 7
f 701 702 696
f 706 702 701
f 696 695 701
f 695 700 701
f 701 700 706
f 9 21 22
f 156 782 159
f 159 782 783
f 159 160 156
f 159 169 160
f 733 166 159
f 159 158 733
f 734 724 733
f 644 406 642
f 642 406 404
f 789 1047 1048
f 157 1047 789
f 789 156 157
f 784 156 789
f 404 911 931
f 50 911 404
f 697 26 50
f 50 704 697
f 1075 204 133
f 133 204 130
f 133 132 1075
f 130 132 133
f 198 473 485
f 485 204 198
f 198 204 193
f 480 473 198
f 198 474 480
f 198 475 474
f 193 466 198
f 466 475 198
f 451 131 130
f 177 169 176
f 176 169 174
f 672 673 186
f 646 645 652
f 652 651 646
f 645 644 652
f 644 651 652
f 649 654 653
f 653 654 646
f 650 644 649
f 650 651 644
f 649 653 650
f 646 651 650
f 650 653 646
f 678 679 667
f 667 676 678
f 678 676 679
f 679 676 675
f 675 676 665
f 675 665 177
f 177 176 675
f 791 655 662
f 662 669 791
f 677 685 681
f 667 679 677
f 679 685 677
f 665 660 664
f 664 660 659
f 177 665 664
f 664 659 177
f 833 837 828
f 672 832 833
f 832 837 833
f 828 809 827
f 827 826 828
f 809 826 827
f 684 683 686
f 686 683 809
f 681 684 686
f 670 663 587
f 591 593 587
f 182 586 587
f 587 586 591
f 776 812 779
f 797 807 808
f 839 837 832
f 631 632 629
f 260 257 409
f 409 413 260
f 431 433 432
f 417 423 285
f 285 413 417
f 312 313 284
f 313 314 284
f 284 314 296
f 267 413 284
f 336 359 360
f 342 359 358
f 358 343 342
f 358 333 332
f 358 335 333
f 358 359 336
f 336 335 358
f 436 537 438
f 438 437 436
f 543 537 436
f 436 437 543
f 463 472 540
f 549 578 577
f 577 578 564
f 580 303 577
f 577 281 549
f 577 303 281
f 297 539 484
f 483 297 484
f 484 472 483
f 197 502 486
f 503 486 502
f 503 525 526
f 503 502 523
f 523 502 194
f 194 502 197
f 264 263 194
f 194 259 264
f 256 259 194
f 109 256 194
f 194 205 109
f 762 739 763
f 762 740 739
f 149 150 146
f 150 151 146
f 146 151 152
f 144 149 145
f 145 142 144
f 145 143 142
f 149 146 145
f 145 146 143
f 136 143 138
f 155 718 721
f 721 154 155
f 724 736 737
f 732 731 741
f 733 732 741
f 741 171 733
f 172 171 741
f 741 731 172
f 583 578 582
f 583 565 578
f 582 567 583
f 567 565 583
f 592 593 591
f 592 595 593
f 434 433 431
f 302 279 301
f 302 579 279
f 301 306 302
f 306 579 302
f 325 306 305
f 325 579 306
f 553 554 539
f 553 577 554
f 580 577 553
f 305 281 581
f 281 303 581
f 581 325 305
f 581 303 580
f 580 325 581
f 270 261 269
f 270 271 261
f 535 271 270
f 291 317 286
f 286 268 291
f 296 317 291
f 345 313 344
f 344 361 345
f 346 313 345
f 345 361 346
f 330 327 298
f 330 499 327
f 298 499 330
f 349 355 354
f 355 327 354
f 324 317 296
f 51 67 52
f 67 53 52
f 68 86 69
f 69 86 87
f 87 88 69
f 69 88 89
f 89 70 69
f 110 85 109
f 109 125 110
f 110 125 120
f 120 112 110
f 272 295 274
f 262 263 258
f 262 261 272
f 262 258 261
f 275 263 262
f 272 274 262
f 262 274 275
f 277 276 523
f 277 263 276
f 523 194 277
f 277 194 263
f 15 8 7
f 15 14 28
f 7 14 15
f 28 16 15
f 16 8 15
f 209 210 200
f 200 208 209
f 92 106 79
f 92 73 91
f 92 79 73
f 91 113 92
f 113 106 92
f 534 354 521
f 497 498 482
f 482 498 499
f 456 130 466
f 468 469 461
f 513 495 510
f 189 435 192
f 238 2 246
f 246 247 238
f 2 247 246
f 707 240 241
f 241 236 707
f 241 240 242
f 242 236 241
f 234 237 238
f 238 239 234
f 234 707 712
f 234 240 707
f 234 239 240
f 712 687 234
f 234 687 237
f 238 237 243
f 243 6 238
f 237 6 243
f 237 687 244
f 9 22 10
f 5 3 10
f 3 9 10
f 5 10 11
f 11 10 22
f 11 12 5
f 26 12 11
f 62 43 61
f 62 61 60
f 60 78 62
f 709 50 715
f 715 404 708
f 715 50 404
f 704 710 711
f 711 644 645
f 711 705 704
f 645 705 711
f 708 644 713
f 169 159 168
f 735 736 724
f 724 734 735
f 647 644 643
f 644 642 643
f 643 404 647
f 643 642 404
f 788 1055 1054
f 1054 1055 404
f 1049 789 1048
f 1049 1048 157
f 1056 1055 788
f 788 789 1056
f 404 1055 1056
f 1052 404 1051
f 404 1050 1051
f 404 918 893
f 893 1050 404
f 918 894 893
f 919 918 404
f 404 931 919
f 919 894 918
f 709 710 703
f 703 50 709
f 703 710 704
f 704 50 703
f 49 50 25
f 25 11 24
f 25 50 26
f 26 11 25
f 65 47 64
f 1067 1072 1073
f 1066 1072 1067
f 1065 1072 1066
f 1066 1067 1059
f 1059 1065 1066
f 1071 1072 1065
f 1074 208 1075
f 209 208 1074
f 1074 210 209
f 1075 1067 1074
f 1067 1073 1074
f 203 204 1075
f 1075 208 203
f 193 204 203
f 208 200 203
f 192 193 203
f 452 451 130
f 452 441 451
f 131 451 446
f 141 142 134
f 134 447 141
f 131 447 134
f 181 685 679
f 679 675 181
f 181 675 176
f 684 685 181
f 181 176 174
f 674 684 181
f 181 180 674
f 174 180 181
f 178 173 172
f 178 180 174
f 174 173 178
f 172 179 178
f 178 586 182
f 179 586 178
f 673 180 183
f 183 186 673
f 180 178 183
f 182 186 183
f 183 178 182
f 188 671 672
f 188 663 671
f 663 186 184
f 184 587 663
f 661 662 655
f 669 662 661
f 655 660 661
f 666 667 661
f 661 660 666
f 809 800 680
f 828 826 836
f 836 833 828
f 836 826 672
f 672 833 836
f 776 779 694
f 694 812 811
f 694 779 812
f 823 806 822
f 823 807 806
f 777 776 791
f 796 797 791
f 791 795 796
f 796 795 804
f 807 797 796
f 796 804 806
f 806 807 796
f 832 670 831
f 831 839 832
f 670 587 831
f 831 587 593
f 828 837 838
f 837 839 838
f 594 604 605
f 622 608 623
f 550 576 549
f 550 604 594
f 594 605 550
f 550 605 595
f 595 592 550
f 547 576 550
f 591 547 550
f 550 592 591
f 621 630 610
f 408 257 255
f 408 409 257
f 255 68 408
f 408 68 84
f 408 84 66
f 66 51 408
f 613 614 599
f 311 340 339
f 311 339 338
f 428 432 433
f 338 339 428
f 428 433 338
f 339 340 428
f 428 311 432
f 340 311 428
f 811 812 415
f 332 343 357
f 357 358 332
f 343 358 357
f 527 274 295
f 527 295 535
f 526 275 527
f 275 274 527
f 527 503 526
f 543 437 542
f 444 542 437
f 461 469 462
f 469 463 462
f 462 444 461
f 463 444 462
f 563 577 564
f 554 577 563
f 564 541 563
f 541 554 563
f 539 472 278
f 278 484 539
f 472 484 278
f 490 503 504
f 503 527 504
f 524 503 523
f 525 503 524
f 523 276 524
f 276 525 524
f 1059 1068 140
f 769 390 768
f 768 762 769
f 147 146 152
f 143 146 147
f 363 143 370
f 138 143 365
f 143 372 365
f 364 143 363
f 363 372 364
f 364 372 143
f 142 143 135
f 143 136 135
f 135 134 142
f 135 136 131
f 131 134 135
f 132 131 137
f 131 136 137
f 138 132 137
f 137 136 138
f 544 154 572
f 544 155 154
f 718 155 544
f 588 718 544
f 544 538 588
f 545 538 544
f 544 572 545
f 739 724 738
f 724 737 738
f 763 739 738
f 738 737 763
f 631 629 634
f 628 619 629
f 617 308 336
f 551 280 279
f 579 325 552
f 552 553 539
f 552 325 580
f 580 553 552
f 539 551 552
f 279 579 552
f 552 551 279
f 293 270 269
f 293 536 531
f 349 354 362
f 521 354 353
f 353 354 327
f 286 317 316
f 317 319 316
f 320 319 317
f 317 324 320
f 320 324 321
f 351 352 323
f 323 352 347
f 346 349 323
f 347 321 323
f 321 324 323
f 323 314 346
f 296 314 323
f 323 324 296
f 68 69 56
f 56 57 33
f 56 70 57
f 56 69 70
f 111 86 85
f 85 110 111
f 87 86 111
f 111 112 87
f 111 110 112
f 33 16 32
f 16 31 32
f 32 53 33
f 32 52 53
f 32 31 52
f 16 29 30
f 30 31 16
f 30 29 51
f 51 52 30
f 52 31 30
f 202 197 192
f 202 194 197
f 205 194 202
f 123 127 124
f 123 124 105
f 206 200 210
f 497 478 496
f 496 478 495
f 496 514 497
f 496 495 513
f 513 514 496
f 466 435 476
f 515 498 497
f 515 514 513
f 497 514 515
f 513 516 515
f 515 516 498
f 533 516 532
f 534 516 533
f 532 362 533
f 354 534 533
f 533 362 354
f 471 482 483
f 483 472 471
f 472 463 471
f 500 499 298
f 500 482 499
f 298 326 500
f 500 326 483
f 483 482 500
f 466 458 457
f 457 456 466
f 130 456 459
f 460 458 466
f 192 195 191
f 435 189 491
f 491 195 490
f 491 191 195
f 245 6 237
f 237 244 245
f 245 244 6
f 14 6 13
f 6 244 13
f 244 253 13
f 13 253 251
f 251 27 13
f 13 27 14
f 46 21 20
f 20 45 46
f 46 22 21
f 46 45 47
f 716 710 709
f 709 715 716
f 717 713 644
f 710 713 717
f 644 711 717
f 717 711 710
f 167 171 172
f 172 173 167
f 733 171 167
f 167 173 174
f 167 166 733
f 167 159 166
f 167 168 159
f 158 159 757
f 159 751 757
f 733 729 757
f 757 734 733
f 749 750 745
f 750 753 755
f 755 762 763
f 789 1049 1057
f 1057 1056 789
f 404 1056 1057
f 157 404 1057
f 1057 1049 157
f 886 916 887
f 887 872 886
f 888 872 887
f 887 916 888
f 870 872 742
f 870 742 788
f 788 869 870
f 920 919 931
f 894 919 920
f 1050 893 892
f 44 64 47
f 47 45 44
f 44 45 20
f 20 43 44
f 43 62 44
f 74 93 94
f 1072 1071 1076
f 1076 1071 118
f 118 119 1076
f 210 1074 215
f 215 1074 214
f 1064 1065 1059
f 199 200 192
f 192 203 199
f 199 203 200
f 453 130 454
f 453 452 130
f 454 441 453
f 441 452 453
f 141 447 448
f 449 451 465
f 449 446 451
f 437 446 439
f 446 449 439
f 672 186 187
f 187 188 672
f 187 186 663
f 663 188 187
f 185 186 182
f 185 184 186
f 182 587 185
f 587 184 185
f 792 680 800
f 791 669 792
f 669 680 792
f 682 686 809
f 809 680 682
f 681 686 682
f 669 661 668
f 668 680 669
f 668 661 667
f 667 677 668
f 668 677 681
f 681 682 668
f 668 682 680
f 829 817 809
f 806 804 819
f 804 816 819
f 817 829 819
f 828 820 819
f 819 820 806
f 819 809 828
f 819 829 809
f 810 800 809
f 809 817 810
f 800 810 803
f 803 816 804
f 803 810 817
f 803 819 816
f 254 694 811
f 776 694 690
f 791 776 690
f 813 812 776
f 807 823 824
f 823 418 824
f 824 418 815
f 776 777 778
f 798 797 808
f 808 801 798
f 791 797 798
f 828 838 834
f 834 820 828
f 630 621 834
f 610 630 834
f 834 621 632
f 834 632 631
f 631 613 834
f 597 838 839
f 597 834 838
f 595 605 606
f 606 597 595
f 619 620 602
f 548 266 602
f 625 619 626
f 410 408 51
f 409 408 410
f 615 434 431
f 615 599 614
f 600 598 821
f 821 599 600
f 600 599 598
f 598 599 612
f 424 311 283
f 283 311 285
f 283 423 424
f 283 285 423
f 285 311 315
f 312 284 315
f 413 285 315
f 315 284 413
f 337 311 338
f 337 309 336
f 336 360 337
f 426 418 823
f 422 423 417
f 422 421 423
f 530 516 513
f 531 536 530
f 532 516 530
f 530 536 532
f 513 512 530
f 530 512 511
f 543 542 556
f 556 463 540
f 556 444 463
f 542 444 556
f 556 555 543
f 540 555 556
f 489 503 490
f 489 488 503
f 489 490 197
f 197 488 489
f 486 503 487
f 503 488 487
f 197 486 487
f 487 488 197
f 1059 140 935
f 1068 132 139
f 139 140 1068
f 139 132 138
f 153 154 721
f 152 154 153
f 153 147 152
f 775 774 143
f 143 774 366
f 143 368 369
f 369 370 143
f 370 369 378
f 378 369 368
f 374 139 138
f 631 634 633
f 633 634 614
f 633 613 631
f 633 614 613
f 614 634 635
f 629 619 635
f 635 634 629
f 626 619 627
f 619 628 627
f 603 628 629
f 603 627 628
f 626 627 603
f 603 625 626
f 603 602 620
f 548 602 603
f 603 549 548
f 603 550 549
f 604 550 603
f 603 621 622
f 603 622 623
f 623 605 603
f 603 605 604
f 618 282 308
f 308 617 618
f 265 551 539
f 280 551 265
f 265 539 279
f 279 280 265
f 535 270 294
f 270 293 294
f 294 293 531
f 294 529 535
f 531 529 294
f 290 291 268
f 268 289 290
f 296 291 290
f 290 289 296
f 273 268 261
f 273 289 268
f 273 261 267
f 267 284 273
f 273 284 296
f 296 289 273
f 349 362 350
f 350 362 351
f 350 323 349
f 351 323 350
f 348 352 351
f 351 362 348
f 347 352 348
f 532 536 348
f 348 362 532
f 327 499 522
f 522 353 327
f 522 499 521
f 521 353 522
f 68 56 55
f 55 56 33
f 105 124 115
f 124 127 115
f 116 115 230
f 95 94 93
f 95 75 74
f 74 94 95
f 1069 119 117
f 1069 1076 119
f 200 206 207
f 210 215 216
f 216 215 214
f 127 123 216
f 216 115 127
f 477 478 466
f 466 476 477
f 493 476 435
f 493 477 476
f 499 498 520
f 521 499 520
f 498 516 517
f 517 518 498
f 517 516 534
f 534 518 517
f 470 463 469
f 470 471 463
f 471 470 479
f 479 478 497
f 469 468 479
f 479 470 469
f 466 478 479
f 479 468 466
f 461 444 443
f 443 444 437
f 443 460 461
f 458 460 443
f 454 130 455
f 130 459 455
f 455 441 454
f 442 459 456
f 441 455 442
f 442 455 459
f 437 441 442
f 442 443 437
f 456 457 442
f 442 457 458
f 458 443 442
f 467 468 461
f 461 460 467
f 466 468 467
f 467 460 466
f 190 189 192
f 192 191 190
f 190 491 189
f 191 491 190
f 506 491 505
f 505 527 506
f 505 504 527
f 490 504 505
f 505 491 490
f 252 244 251
f 251 253 252
f 252 253 244
f 23 46 47
f 49 25 23
f 23 25 24
f 22 46 23
f 24 11 23
f 23 11 22
f 714 716 715
f 714 715 708
f 708 713 714
f 714 713 710
f 710 716 714
f 174 169 175
f 175 167 174
f 169 168 175
f 168 167 175
f 783 782 786
f 751 752 747
f 158 757 730
f 730 757 729
f 733 158 730
f 730 729 733
f 734 757 756
f 756 735 734
f 736 735 756
f 756 767 736
f 756 751 750
f 756 757 751
f 742 872 884
f 769 762 761
f 762 755 761
f 761 390 769
f 390 753 389
f 889 888 916
f 889 916 917
f 872 888 889
f 889 884 872
f 912 884 889
f 736 765 764
f 763 737 764
f 764 737 736
f 764 755 763
f 764 765 755
f 736 767 766
f 766 765 736
f 767 755 766
f 755 765 766
f 788 1054 1053
f 1053 869 788
f 1053 404 1052
f 1053 1054 404
f 895 886 877
f 877 886 872
f 872 870 877
f 911 50 883
f 50 909 883
f 65 854 48
f 48 47 65
f 49 23 48
f 48 23 47
f 861 854 860
f 860 854 65
f 853 50 49
f 853 909 50
f 874 870 873
f 873 870 869
f 869 1053 873
f 1052 874 873
f 873 1053 1052
f 911 883 910
f 910 883 909
f 930 910 909
f 930 920 931
f 930 931 911
f 911 910 930
f 890 1051 1050
f 1050 892 890
f 876 892 893
f 876 893 894
f 876 894 895
f 895 877 876
f 876 877 870
f 81 62 77
f 77 62 78
f 77 78 60
f 224 225 1072
f 1072 1076 224
f 227 228 220
f 1074 228 227
f 231 1073 1072
f 1063 1071 1065
f 1065 1064 1063
f 464 447 131
f 131 448 464
f 464 448 447
f 131 446 445
f 445 448 131
f 141 448 445
f 445 438 141
f 445 437 438
f 445 446 437
f 440 441 437
f 437 439 440
f 451 441 440
f 440 439 451
f 450 449 465
f 450 439 449
f 465 451 450
f 451 439 450
f 791 792 794
f 794 792 800
f 800 803 794
f 794 795 791
f 794 803 795
f 804 795 805
f 805 803 804
f 795 803 805
f 817 819 818
f 818 803 817
f 819 803 818
f 791 690 689
f 691 690 694
f 776 815 830
f 830 813 776
f 807 824 825
f 825 824 815
f 808 807 825
f 799 801 793
f 799 798 801
f 799 778 777
f 799 777 791
f 791 798 799
f 820 834 835
f 821 820 835
f 613 599 835
f 835 834 613
f 835 599 821
f 596 597 839
f 596 831 593
f 839 831 596
f 593 595 596
f 595 597 596
f 610 597 609
f 609 597 608
f 609 621 610
f 608 622 609
f 622 621 609
f 610 834 611
f 611 597 610
f 834 597 611
f 607 605 623
f 607 606 605
f 623 608 607
f 608 597 607
f 597 606 607
f 601 602 266
f 619 602 601
f 266 282 601
f 282 618 601
f 601 617 619
f 601 618 617
f 409 410 411
f 616 615 431
f 599 615 616
f 598 612 430
f 821 598 430
f 432 311 310
f 310 429 432
f 310 311 424
f 424 429 310
f 312 315 341
f 341 315 311
f 341 342 312
f 341 359 342
f 341 360 359
f 341 337 360
f 311 337 341
f 423 421 420
f 419 418 420
f 528 527 535
f 535 529 528
f 511 509 508
f 508 530 511
f 509 491 508
f 508 529 531
f 531 530 508
f 934 935 140
f 140 139 934
f 770 768 390
f 390 391 770
f 773 771 770
f 770 771 762
f 762 768 770
f 1015 993 992
f 879 896 897
f 1007 1013 871
f 143 147 148
f 147 153 148
f 148 153 721
f 721 728 148
f 148 728 739
f 739 740 148
f 740 762 148
f 762 771 148
f 148 771 773
f 773 775 148
f 148 775 143
f 367 368 143
f 143 366 367
f 773 391 376
f 376 775 773
f 376 391 390
f 373 365 372
f 138 365 373
f 433 434 639
f 619 617 637
f 637 635 619
f 637 641 433
f 309 337 637
f 336 309 637
f 637 617 336
f 624 603 620
f 625 603 624
f 624 620 619
f 619 625 624
f 322 321 347
f 347 348 322
f 322 348 536
f 54 67 68
f 68 55 54
f 54 55 33
f 33 53 54
f 54 53 67
f 229 230 220
f 220 228 229
f 228 231 229
f 1072 225 229
f 229 231 1072
f 220 230 222
f 222 230 115
f 115 216 222
f 117 116 226
f 116 230 226
f 226 229 225
f 230 229 226
f 218 1069 117
f 117 226 218
f 218 226 225
f 201 202 192
f 201 207 202
f 192 200 201
f 200 207 201
f 202 207 126
f 205 202 126
f 121 128 126
f 126 128 125
f 109 205 126
f 126 125 109
f 213 206 210
f 210 216 213
f 213 216 123
f 221 214 220
f 221 216 214
f 220 222 221
f 221 222 216
f 492 493 435
f 435 491 492
f 492 491 509
f 513 510 492
f 492 509 511
f 492 512 513
f 511 512 492
f 478 477 494
f 477 493 494
f 495 478 494
f 494 510 495
f 494 492 510
f 493 492 494
f 498 518 519
f 519 520 498
f 521 520 519
f 519 534 521
f 519 518 534
f 482 471 481
f 471 479 481
f 497 482 481
f 481 479 497
f 785 786 782
f 752 786 785
f 785 782 784
f 784 752 785
f 758 751 159
f 758 752 751
f 790 752 784
f 790 747 752
f 784 789 790
f 789 747 790
f 742 884 743
f 788 742 743
f 743 747 789
f 743 789 788
f 751 747 746
f 750 751 746
f 746 745 750
f 746 743 745
f 747 743 746
f 760 755 753
f 760 761 755
f 748 389 753
f 1013 389 748
f 871 1013 748
f 753 889 748
f 917 896 748
f 748 889 917
f 370 378 379
f 988 1014 1015
f 1013 1014 988
f 400 389 1013
f 1013 988 400
f 400 988 1012
f 754 750 749
f 754 753 750
f 912 889 900
f 749 745 900
f 745 912 900
f 900 754 749
f 900 889 753
f 753 754 900
f 861 860 859
f 65 858 859
f 859 860 65
f 856 853 48
f 49 48 407
f 48 853 407
f 875 874 1052
f 1052 1051 875
f 1051 890 875
f 890 876 875
f 875 870 874
f 875 876 870
f 891 890 892
f 892 876 891
f 891 876 890
f 81 77 82
f 64 44 63
f 63 77 64
f 63 82 77
f 81 82 63
f 63 62 81
f 63 44 62
f 64 77 76
f 76 104 105
f 76 103 104
f 76 77 60
f 102 103 76
f 76 60 75
f 75 95 76
f 76 93 102
f 76 95 93
f 1076 1069 217
f 217 224 1076
f 1069 218 217
f 225 224 217
f 217 218 225
f 220 214 219
f 219 227 220
f 214 1074 219
f 1074 227 219
f 1073 231 223
f 223 231 228
f 223 1074 1073
f 223 228 1074
f 118 1071 1070
f 1071 1063 1070
f 1058 1063 1064
f 712 791 688
f 791 689 688
f 688 687 712
f 688 244 687
f 688 689 690
f 690 691 688
f 694 254 693
f 693 691 694
f 254 691 693
f 250 691 254
f 244 688 250
f 51 251 250
f 251 244 250
f 250 411 51
f 254 411 250
f 813 830 416
f 416 415 812
f 812 813 416
f 416 830 815
f 416 418 419
f 815 418 416
f 421 422 416
f 416 422 417
f 419 420 416
f 416 420 421
f 417 413 416
f 413 415 416
f 793 801 781
f 781 799 793
f 811 415 412
f 412 254 811
f 412 411 254
f 412 415 413
f 413 409 412
f 409 411 412
f 414 410 51
f 51 411 414
f 414 411 410
f 425 612 599
f 599 616 425
f 425 616 431
f 425 430 612
f 431 432 425
f 821 430 425
f 432 429 425
f 822 821 425
f 425 429 424
f 424 426 425
f 425 823 822
f 425 426 823
f 427 426 424
f 424 423 427
f 423 420 427
f 418 426 427
f 427 420 418
f 507 491 506
f 507 508 491
f 506 527 507
f 527 528 507
f 507 528 529
f 529 508 507
f 922 896 917
f 897 896 922
f 938 939 1059
f 1059 937 938
f 1059 935 936
f 936 937 1059
f 139 940 932
f 772 391 773
f 773 770 772
f 772 770 391
f 990 1015 991
f 1015 992 991
f 878 879 871
f 896 879 878
f 871 748 878
f 878 748 896
f 1030 1039 1031
f 1031 1014 1013
f 1013 1007 1031
f 1031 1007 1030
f 1016 993 1015
f 1015 1014 1016
f 898 879 897
f 897 922 898
f 898 922 899
f 377 367 366
f 377 378 368
f 368 367 377
f 377 366 774
f 774 775 377
f 775 376 377
f 950 139 949
f 950 940 139
f 383 373 372
f 383 374 138
f 138 373 383
f 387 388 375
f 614 635 636
f 635 639 636
f 636 615 614
f 434 615 636
f 636 639 434
f 638 639 635
f 635 637 638
f 433 639 638
f 638 637 433
f 641 637 640
f 433 641 640
f 640 637 337
f 640 337 338
f 338 433 640
f 287 320 321
f 321 322 287
f 319 320 287
f 287 316 319
f 286 316 287
f 287 268 286
f 211 207 206
f 211 126 207
f 121 126 122
f 105 121 122
f 122 123 105
f 212 213 123
f 206 213 212
f 123 122 212
f 212 122 206
f 787 786 752
f 752 758 787
f 783 786 787
f 787 159 783
f 787 758 159
f 745 743 744
f 744 912 745
f 390 761 759
f 761 760 759
f 759 753 390
f 759 760 753
f 989 1015 990
f 989 988 1015
f 894 920 921
f 916 886 915
f 886 906 915
f 917 916 915
f 907 906 886
f 882 906 907
f 855 854 861
f 861 856 855
f 855 48 854
f 855 856 48
f 405 853 49
f 49 407 405
f 405 407 853
f 99 116 117
f 99 115 116
f 857 864 858
f 857 858 65
f 692 688 691
f 691 250 692
f 692 250 688
f 802 781 801
f 802 815 776
f 776 778 802
f 778 799 780
f 799 781 780
f 780 802 778
f 781 802 780
f 917 899 923
f 923 922 917
f 899 922 923
f 933 934 139
f 139 932 933
f 1034 1039 1030
f 1030 1035 1034
f 1017 1039 1034
f 1034 1035 1017
f 1017 1035 1036
f 1019 1031 1039
f 1014 1031 1019
f 1019 1039 1017
f 382 383 372
f 1012 988 987
f 374 383 384
f 949 388 972
f 972 950 949
f 959 950 972
f 986 987 960
f 960 959 986
f 959 972 986
f 387 398 399
f 399 388 387
f 399 972 388
f 399 986 972
f 386 375 388
f 139 375 386
f 269 268 288
f 288 287 269
f 268 287 288
f 292 293 269
f 269 287 292
f 536 293 292
f 126 211 129
f 129 122 126
f 129 211 206
f 206 122 129
f 885 743 884
f 885 744 743
f 885 884 912
f 912 744 885
f 867 859 858
f 861 859 867
f 917 915 905
f 905 899 917
f 905 906 882
f 905 915 906
f 882 1043 905
f 908 904 882
f 882 907 908
f 908 914 904
f 908 907 886
f 886 914 908
f 1006 1058 1064
f 1064 980 1006
f 980 979 1006
f 117 119 100
f 100 99 117
f 100 119 118
f 76 99 100
f 105 115 97
f 97 76 105
f 64 76 83
f 814 802 801
f 814 801 808
f 808 825 814
f 814 825 815
f 815 802 814
f 941 932 940
f 940 950 941
f 941 933 932
f 942 933 941
f 941 950 959
f 941 959 960
f 988 989 966
f 1044 1035 1030
f 1044 1036 1035
f 1044 898 899
f 1046 899 1037
f 1037 1036 1046
f 1017 1036 1037
f 383 382 396
f 387 384 396
f 396 384 383
f 396 398 387
f 390 389 392
f 378 377 392
f 392 379 378
f 392 380 379
f 392 376 390
f 392 377 376
f 987 986 403
f 379 380 371
f 371 382 372
f 371 372 363
f 363 370 371
f 370 379 371
f 387 375 385
f 385 384 387
f 374 384 385
f 139 374 385
f 385 375 139
f 397 388 949
f 949 386 397
f 397 386 388
f 949 139 971
f 971 386 949
f 139 386 971
f 536 292 318
f 318 292 287
f 318 322 536
f 318 287 322
f 929 921 904
f 921 914 913
f 895 894 913
f 894 921 913
f 913 886 895
f 913 914 886
f 920 930 925
f 925 921 920
f 925 930 909
f 909 926 925
f 909 853 927
f 927 926 909
f 853 856 927
f 927 856 861
f 858 864 866
f 866 867 858
f 1002 1029 1003
f 899 905 1042
f 1042 905 1043
f 994 1018 995
f 993 1016 994
f 994 1019 1017
f 1017 1018 994
f 994 1016 1014
f 1014 1019 994
f 1026 1042 1043
f 1020 1018 1017
f 995 1018 1020
f 1059 982 981
f 981 1064 1059
f 981 980 1064
f 1059 939 956
f 956 982 1059
f 115 99 98
f 98 97 115
f 98 99 76
f 76 97 98
f 65 841 862
f 64 83 847
f 1061 83 101
f 118 1070 101
f 101 83 76
f 101 100 118
f 76 100 101
f 1060 1061 1058
f 1060 83 1061
f 1058 847 1060
f 1060 847 83
f 1001 1026 1002
f 1000 1026 1001
f 977 1001 1002
f 880 1044 1030
f 898 1044 880
f 879 898 880
f 871 879 880
f 880 1007 871
f 1030 1007 880
f 1046 1036 1045
f 1036 1044 1045
f 1045 899 1046
f 1045 1044 899
f 398 396 395
f 394 395 380
f 398 395 394
f 394 399 398
f 928 914 921
f 921 929 928
f 904 914 928
f 928 929 904
f 882 904 901
f 901 868 882
f 904 921 924
f 921 925 924
f 902 925 926
f 902 924 925
f 904 924 902
f 902 901 904
f 863 868 864
f 864 857 863
f 846 862 841
f 846 857 65
f 65 862 846
f 851 979 1004
f 979 1003 1004
f 1033 1043 882
f 1009 1029 1002
f 1009 849 1029
f 1041 1037 899
f 899 1042 1041
f 1041 1042 1023
f 1042 1026 1025
f 1025 1026 1000
f 1000 999 1025
f 1005 1006 979
f 1058 1006 1005
f 1061 101 1062
f 1063 1058 1062
f 1058 1061 1062
f 1062 1070 1063
f 1062 101 1070
f 988 966 963
f 963 962 988
f 960 987 961
f 961 987 988
f 961 941 960
f 1002 1003 978
f 978 1003 979
f 1000 1001 975
f 975 999 1000
f 939 938 953
f 381 395 396
f 381 396 382
f 382 371 381
f 381 371 380
f 380 395 381
f 401 392 389
f 389 400 401
f 401 400 1012
f 1012 987 401
f 987 403 401
f 986 399 997
f 997 1011 986
f 903 927 861
f 861 867 903
f 857 846 845
f 845 846 841
f 845 1009 1008
f 849 1009 845
f 1002 1026 1027
f 1027 1026 1043
f 1043 1033 1027
f 1028 1009 1002
f 1032 1009 1028
f 1028 1033 1032
f 1002 1027 1028
f 1028 1027 1033
f 882 868 985
f 868 863 985
f 985 863 1008
f 1008 1009 985
f 1032 1033 1010
f 1010 1009 1032
f 1010 985 1009
f 1010 1033 882
f 882 985 1010
f 1017 1037 1038
f 1037 1041 1038
f 1022 1023 995
f 1023 1042 1024
f 1042 1025 1024
f 1024 1025 999
f 1024 998 1023
f 1024 999 998
f 852 979 851
f 852 1005 979
f 850 847 1058
f 1058 1005 850
f 1005 852 850
f 851 847 850
f 850 852 851
f 988 962 964
f 964 961 988
f 964 962 942
f 983 977 1002
f 1001 977 976
f 976 975 1001
f 998 999 974
f 999 975 974
f 392 401 393
f 380 392 393
f 393 394 380
f 402 401 403
f 394 393 402
f 402 393 401
f 402 403 986
f 986 1011 402
f 399 394 402
f 402 997 399
f 1011 997 402
f 902 903 881
f 901 902 881
f 881 903 867
f 867 866 881
f 881 866 864
f 864 868 881
f 868 901 881
f 1008 863 865
f 865 845 1008
f 865 863 857
f 857 845 865
f 65 64 840
f 840 841 65
f 1029 849 843
f 843 1003 1029
f 1017 1038 1021
f 1021 1020 1017
f 995 1020 1021
f 1021 1022 995
f 1002 978 984
f 984 983 1002
f 957 953 977
f 977 983 957
f 939 953 957
f 951 974 975
f 975 976 951
f 951 976 977
f 943 936 935
f 935 934 943
f 849 845 844
f 844 843 849
f 840 843 844
f 844 845 841
f 841 840 844
f 842 843 840
f 64 847 842
f 842 840 64
f 1003 843 848
f 848 1004 1003
f 851 1004 848
f 848 847 851
f 848 842 847
f 843 842 848
f 1040 1038 1041
f 1040 1021 1038
f 1022 1021 1040
f 1040 1041 1023
f 1023 1022 1040
f 983 984 958
f 958 957 983
f 958 984 978
f 939 957 958
f 998 970 996
f 995 1023 996
f 1023 998 996
f 998 974 973
f 973 970 998
f 974 951 973
f 973 951 970
f 969 994 995
f 977 953 952
f 952 951 977
f 952 953 938
f 952 938 937
f 937 951 952
f 947 948 936
f 936 943 947
f 944 963 966
f 944 943 934
f 942 962 944
f 962 963 944
f 934 933 944
f 944 933 942
f 955 958 978
f 955 979 980
f 955 978 979
f 955 956 939
f 982 956 955
f 980 981 955
f 955 981 982
f 993 994 967
f 946 969 970
f 970 951 946
f 937 936 946
f 946 951 937
f 939 958 954
f 954 955 939
f 958 955 954
f 994 969 968
f 968 967 994
f 969 946 968
f 968 946 967
f 965 991 992
f 990 991 965
f 965 989 990
f 965 966 989
f 965 947 943
f 948 947 965
f 965 944 966
f 943 944 965
f 945 965 967
f 967 946 945
f 948 965 945
f 936 948 945
f 945 946 936
f 632 621 603
f 603 629 632
f 756 755 767
f 750 755 756
f 903 902 926
f 926 927 903
f 941 961 964
f 942 941 964
f 969 996 970
f 995 996 969
f 993 967 965
f 965 992 993

