# https://github.com/mikedh/trimesh
v 0.14017090 -0.01515011 -0.02198664
v -0.17343062 0.00834957 -0.22589897
v -0.09702706 -0.00437574 0.00610338
v 0.05167106 0.00415065 -0.22952314
v 0.16953753 -0.00236002 -0.15652169
v -0.17404293 0.00850115 -0.09633267
v 0.01273766 0.00709441 -0.00783254
v -0.05807880 0.00930018 -0.23034199
v -0.17675988 -0.00627990 -0.01490868
v 0.13663074 0.00338733 -0.22730573
v 0.16832976 -0.00665370 -0.08570886
v -0.16072161 -0.00390539 -0.16004461
v -0.04038625 -0.00083808 0.00636790
v -0.12533244 0.00822762 -0.03967697
v -0.00143122 0.01082971 -0.22022156
v -0.11116991 0.00230724 -0.22375655
v 0.12599842 0.00945087 -0.11403111
v -0.12886694 0.00994202 -0.11756998
v 0.17751674 0.00821047 -0.20606764
v 0.17875929 -0.00083624 -0.03968147
v 0.16848499 0.00545608 0.00235700
v 0.05522868 0.00710606 -0.00783254
v -0.13793202 -0.00617711 -0.19380575
v -0.16271238 -0.00972176 -0.05281501
v 0.09768511 0.01032270 -0.22376364
v 0.11892540 -0.00083624 0.00651582
v 0.16163753 -0.00639926 -0.12095689
v -0.14656147 0.00644083 -0.00074780
v 0.14201622 -0.00617101 -0.19375674
v 0.12599397 0.00819673 -0.03968147
v -0.13948514 -0.01541028 -0.02198911
v -0.14302458 0.00253366 -0.22375655
v -0.17214628 0.00127991 -0.18835624
v -0.17135477 0.00964823 -0.13527013
v -0.12178813 0.00936754 -0.08925836
v -0.02976353 0.01085520 -0.22375655
v 0.02690188 0.01074552 -0.22022156
v 0.16494404 0.00665203 -0.22978231
v -0.16273773 -0.00620331 -0.11667851
v 0.16738985 -0.00987621 -0.01844590
v 0.17382126 0.00802661 -0.06545553
v -0.12533244 -0.00437574 0.00572423
v -0.17231275 -0.00570985 -0.07507914
v 0.17381422 0.00092712 -0.18317370
v 0.16848816 0.00867258 -0.10341927
v -0.08994839 0.00928334 -0.23035637
v 0.15078372 -0.01003935 -0.00219915
v 0.07291593 0.01034702 -0.22730573
v -0.16648342 -0.00574578 0.00477194
v -0.01912065 -0.00658556 0.00534147
v -0.17488188 0.00664681 -0.03260535
v -0.16780554 0.00821565 -0.06091827
v 0.11538588 0.00205152 -0.22376364
v -0.17477471 0.00899142 -0.15652183
v 0.16338766 -0.00972473 -0.04590645
v 0.01273766 -0.00648535 0.00506774
v -0.16781536 0.00162984 -0.20960791
v -0.07932869 -0.00667271 0.00534507
v 0.16848816 -0.00375757 -0.13881129
v 0.15078372 0.00551900 0.00571231
v -0.16655853 -0.00982714 -0.03614997
v -0.15718220 0.00919726 -0.23029885
v -0.12886694 0.01074480 -0.22730808
v -0.03684057 0.00706357 -0.00782824
v 0.16848499 -0.00749212 -0.06799850
v -0.16694918 -0.00641476 -0.09633267
v -0.17347543 0.00072975 -0.17065607
v 0.16824605 0.00803593 -0.05002994
v -0.17411564 0.00526001 -0.00429243
v 0.15078740 0.00988492 -0.22376364
v -0.16957760 -0.00260111 -0.14411303
v 0.17447834 -0.00676967 -0.00429181
v 0.17201246 0.00920765 -0.17066123
v 0.16688439 -0.00619159 -0.10245456
v -0.04392117 0.01074293 -0.22730808
v 0.16494404 0.00975957 -0.21313740
v -0.07223643 0.00624252 -0.23058642
v -0.16427487 -0.01080198 -0.02198911
v 0.16436985 -0.00290632 -0.17066123
v 0.16848816 0.00852104 -0.08925094
v -0.15364280 0.01079907 -0.21668223
v -0.01558787 0.01084094 -0.22022156
v 0.17409141 -0.00278471 -0.11403111
v -0.16072920 0.00641687 -0.00074780
v 0.16880494 0.00047437 -0.19924265
v 0.17581397 0.00624417 -0.22022156
v 0.05875928 0.01058837 -0.22022156
v -0.17318416 -0.00618170 -0.05984254
v 0.17382126 -0.00616141 -0.05239632
v 0.16675268 -0.00969676 -0.03111660
v -0.17666975 -0.00615535 -0.02758820
v -0.16781536 0.00927211 -0.10695852
v 0.17473717 0.00555163 -0.00783254
v -0.10409109 0.00932076 -0.23032761
v -0.16263318 -0.00263854 -0.17287040
v 0.15785228 -0.00353961 0.00511189
v -0.16427594 -0.00007864 -0.19898207
v 0.16356686 -0.00972939 -0.00245522
v -0.16427594 0.00243261 -0.22021939
v -0.13240634 0.01080655 -0.21668223
v 0.10829765 0.01007949 -0.22730573
v -0.17489417 0.00941994 -0.21314508
v -0.16427594 -0.00769845 -0.08570682
v -0.17422082 -0.00702240 -0.00429243
v 0.17177488 -0.00329921 -0.12465736
v -0.16427487 -0.01134089 -0.00429243
v 0.08705278 0.01040502 -0.22376364
v 0.00920112 0.01080726 -0.22022156
v 0.16848816 0.00877361 -0.11403111
v 0.16494404 0.00209455 -0.22022156
v -0.16427594 0.01072047 -0.21314508
v -0.17685004 0.00477619 -0.02262396
v 0.17491639 -0.00686522 -0.02552737
v -0.10056662 0.00226607 -0.22375655
v -0.13948517 0.00930766 -0.23029885
v -0.04746057 0.00219683 -0.22375655
v -0.15364280 0.00269833 -0.22375655
v 0.17202923 0.00827597 -0.07507996
v 0.04460263 0.01045366 -0.22730573
v 0.16848816 0.00961177 -0.20252556
v -0.13240634 0.00243635 -0.22375655
v 0.16706260 0.00084667 -0.20876020
v -0.17369497 -0.00647870 -0.05030202
v 0.17202923 -0.00759466 -0.03968147
v -0.15381810 0.00291514 0.00477194
v 0.10475354 0.00202907 -0.22376364
v 0.17428941 0.00824415 -0.09633511
v -0.16427594 0.01077661 -0.22375655
f 23 29 31
f 19 93 20
f 117 62 77
f 117 23 99
f 31 29 1
f 29 27 1
f 1 27 55
f 31 1 106
f 60 84 125
f 125 69 49
f 84 69 125
f 2 117 99
f 62 117 2
f 86 19 20
f 98 1 40
f 47 1 98
f 47 106 1
f 98 96 47
f 9 69 112
f 72 96 98
f 20 93 72
f 72 113 20
f 98 40 72
f 72 40 113
f 99 23 57
f 23 97 57
f 57 2 99
f 103 23 31
f 81 111 18
f 51 69 84
f 112 69 51
f 83 113 89
f 20 113 83
f 128 111 81
f 128 63 62
f 62 2 128
f 128 2 102
f 81 18 100
f 30 68 17
f 17 18 30
f 93 19 41
f 41 68 93
f 114 116 23
f 23 16 114
f 32 117 77
f 23 117 32
f 74 27 59
f 55 27 74
f 113 40 124
f 89 113 124
f 49 106 58
f 106 47 58
f 58 47 50
f 26 96 60
f 26 50 96
f 96 50 56
f 56 47 96
f 50 47 56
f 104 106 49
f 104 9 106
f 49 69 104
f 69 9 104
f 112 102 91
f 91 9 112
f 106 9 91
f 21 72 93
f 96 72 21
f 60 96 21
f 93 68 21
f 21 30 60
f 68 30 21
f 61 91 123
f 106 91 61
f 23 116 126
f 29 23 126
f 126 53 29
f 79 27 29
f 59 27 79
f 59 79 5
f 5 79 85
f 28 84 60
f 18 92 14
f 127 41 19
f 121 16 23
f 23 32 121
f 11 74 59
f 65 74 11
f 11 124 65
f 65 124 90
f 90 124 40
f 55 74 90
f 90 74 65
f 90 1 55
f 90 40 1
f 105 83 89
f 89 124 105
f 59 5 105
f 105 11 59
f 124 11 105
f 3 58 50
f 50 26 3
f 49 58 3
f 31 106 78
f 78 61 31
f 106 61 78
f 24 103 31
f 31 61 24
f 24 61 103
f 95 97 23
f 95 57 97
f 102 2 67
f 67 91 102
f 71 43 67
f 123 91 67
f 34 18 111
f 34 92 18
f 34 128 102
f 111 128 34
f 52 51 84
f 84 14 52
f 52 14 92
f 92 34 52
f 86 85 122
f 122 110 86
f 29 110 122
f 122 79 29
f 85 79 122
f 44 86 20
f 20 83 44
f 44 85 86
f 44 5 85
f 83 105 44
f 44 105 5
f 29 53 10
f 10 110 29
f 53 126 10
f 15 18 17
f 17 108 15
f 35 30 18
f 18 14 35
f 35 14 30
f 30 14 22
f 60 30 22
f 22 28 60
f 68 41 118
f 17 120 76
f 19 86 76
f 76 120 19
f 42 125 49
f 49 3 42
f 42 3 125
f 13 26 60
f 13 3 26
f 60 125 13
f 125 3 13
f 61 43 66
f 66 43 71
f 103 61 66
f 71 95 66
f 12 95 23
f 2 57 33
f 33 67 2
f 71 67 33
f 57 95 33
f 33 95 71
f 123 67 88
f 88 67 43
f 88 61 123
f 88 43 61
f 51 52 6
f 6 52 34
f 62 63 115
f 16 121 4
f 4 114 16
f 4 32 77
f 4 121 32
f 116 114 4
f 4 126 116
f 4 10 126
f 107 87 17
f 25 101 107
f 17 76 107
f 107 76 25
f 82 100 18
f 18 15 82
f 64 14 84
f 84 28 64
f 17 68 80
f 68 118 80
f 73 127 19
f 19 120 73
f 41 127 73
f 73 118 41
f 70 101 25
f 25 76 70
f 39 66 95
f 95 12 39
f 103 66 39
f 23 103 39
f 39 12 23
f 54 34 102
f 54 6 34
f 54 102 112
f 112 51 54
f 51 6 54
f 62 115 46
f 77 62 46
f 46 8 77
f 94 115 63
f 63 75 94
f 94 75 8
f 8 46 94
f 94 46 115
f 87 107 37
f 37 108 17
f 17 87 37
f 81 100 36
f 100 82 36
f 36 128 81
f 63 128 36
f 36 75 63
f 36 82 15
f 36 15 108
f 108 37 36
f 36 37 107
f 7 22 14
f 14 64 7
f 28 22 7
f 7 64 28
f 17 80 45
f 45 80 118
f 118 73 45
f 38 76 86
f 38 70 76
f 86 110 38
f 110 10 38
f 101 70 38
f 10 4 38
f 38 8 101
f 77 8 38
f 38 4 77
f 48 36 107
f 48 107 101
f 101 8 48
f 109 73 120
f 109 45 73
f 109 120 17
f 17 45 109
f 75 36 119
f 36 48 119
f 8 75 119
f 119 48 8

