# https://github.com/mikedh/trimesh
v -0.00100271 0.05398057 0.06276830
v -0.00434179 0.05351663 0.06128136
v -0.00638115 0.05356934 0.06414212
v -0.00100271 0.05395948 0.06550697
v 0.00406929 0.05385404 0.06479809
v 0.00633056 0.05371696 0.06212941
v 0.00216729 0.05373805 0.06121380
v -0.00892772 0.05278908 0.06119997
v -0.01111503 0.05274691 0.06323709
v -0.00331682 0.05370642 0.06631678
v -0.01000553 0.05298942 0.06592450
v 0.00186086 0.05365370 0.06649827
v 0.00584450 0.05353772 0.06627283
v 0.00838050 0.05341118 0.06533443
v 0.01056780 0.05313704 0.06203988
v 0.00843333 0.05318976 0.06115765
v -0.01320723 0.05218806 0.06165574
v -0.01398917 0.05206154 0.06598960
v -0.00828316 0.05309486 0.06640468
v -0.00775482 0.05257820 0.06673104
v -0.01444353 0.05170304 0.06643235
v 0.00728156 0.05288398 0.06661221
v 0.00048719 0.05313704 0.06670336
v 0.01190977 0.05263092 0.06610192
v 0.01206827 0.05268364 0.06467113
v 0.01286077 0.05257820 0.06207244
v 0.01398084 0.05195609 0.06109416
v -0.01802564 0.05065917 0.06157110
v -0.02160774 0.04924626 0.06144006
v -0.01775090 0.05079624 0.06404770
v -0.01989594 0.04997380 0.06605715
v -0.01460203 0.05124964 0.06670581
v -0.03982470 0.03088894 0.06690358
v -0.02120621 0.04920408 0.06647467
v 0.02844663 0.04574561 0.06641607
v 0.01227960 0.05173467 0.06651862
v 0.01643231 0.05118638 0.06634038
v 0.02568872 0.04531330 0.06644374
v 0.01675988 0.05141835 0.06557941
v 0.01666478 0.05146052 0.06325011
v 0.01745728 0.05109148 0.06135135
v -0.02624651 0.04688437 0.06145145
v -0.02226288 0.04898265 0.06238252
v -0.02440791 0.04793879 0.06454498
v -0.02470378 0.04766464 0.06639247
v -0.02308708 0.04737994 0.06670174
v -0.03922240 0.03401000 0.06677336
v -0.04105043 0.03157431 0.06678963
v -0.05063442 0.01267924 0.06613040
v -0.05247302 0.00426504 0.06601809
v -0.05038081 -0.01275318 0.06568602
v -0.04593224 -0.02552211 0.06541663
v -0.03952883 -0.03341965 0.06522293
v -0.02801115 -0.04428010 0.06491774
v 0.02064841 -0.01279535 0.06544838
v 0.01917965 -0.00961103 0.06553221
v 0.02879533 0.04608302 0.06627364
v 0.02561476 0.04779117 0.06626876
v 0.04505745 -0.00173457 0.06534176
v 0.04916789 0.01852069 0.06563475
v 0.04282788 0.02993997 0.06592124
v 0.03768190 0.03744739 0.06609296
v 0.03657240 0.03932424 0.06600669
v 0.02173678 0.04935170 0.06613854
v 0.02373389 0.04874014 0.06516108
v 0.02184245 0.04948877 0.06277074
v 0.02308932 0.04871905 0.06121055
v -0.03124456 0.04345753 0.06129682
v -0.02849722 0.04556636 0.06577799
v -0.02941652 0.04459630 0.06648850
v -0.02824362 0.04375277 0.06667814
v -0.03403416 0.03964056 0.06664395
v -0.03476326 0.04022049 0.06647630
v -0.03891597 0.03579196 0.06651781
v -0.04339624 0.03023521 0.06640956
v -0.04810898 0.02198970 0.06619225
v -0.04725308 0.02196861 0.06631434
v -0.05197638 0.01022246 0.06595867
v -0.05298022 0.00627896 0.06576660
v -0.05350855 -0.00225123 0.06575765
v -0.05291682 0.00038480 0.06588706
v -0.05214545 -0.00526685 0.06578044
v -0.05016948 -0.01613784 0.06558755
v -0.04879581 -0.02114630 0.06527095
v -0.04646058 -0.02612312 0.06510818
v -0.04446347 -0.02937071 0.06509922
v -0.04075457 -0.03377815 0.06517817
v -0.03094869 -0.04361582 0.06476066
v -0.02542231 -0.04678960 0.06473136
v -0.02009671 -0.04904604 0.06468090
v -0.01608137 -0.04948889 0.06471182
v -0.03474213 -0.04017843 0.06497552
v 0.03425830 -0.04019952 0.06462555
v 0.04578655 -0.02590169 0.06479972
v 0.05097479 -0.01527322 0.06496331
v 0.03211327 0.04346808 0.06574870
v 0.02979916 0.04537657 0.06556476
v 0.02938706 0.04543983 0.06251600
v 0.02615366 0.04766464 0.06551512
v 0.03682600 0.03967219 0.06545977
v 0.05212656 0.00596264 0.06534420
v 0.05225336 0.01043335 0.06535478
v 0.05016115 0.01883701 0.06544187
v 0.04739268 0.02467845 0.06568359
v 0.04328225 0.03126853 0.06589764
v 0.04004884 0.03617154 0.06565754
v 0.02511812 0.04804423 0.06336324
v 0.02650236 0.04711634 0.06121787
v 0.02868966 0.04540820 0.06089151
v -0.03478440 0.04064225 0.06128461
v -0.03270276 0.04237149 0.06376448
v -0.03670753 0.03856506 0.06095336
v -0.03293522 0.04220278 0.06600832
v -0.03615806 0.03931370 0.06607099
v -0.04092364 0.03423143 0.06599611
v -0.04440007 0.02967637 0.06577067
v -0.04647114 0.02596484 0.06607180
v -0.04884864 0.02140978 0.06579021
v -0.05041251 0.01686526 0.06587648
v -0.05155372 0.01332244 0.06568196
v -0.05395235 -0.00108083 0.06519933
v -0.05274775 0.00875683 0.06537676
v -0.05339232 -0.00518250 0.06543373
v -0.05206092 -0.00982191 0.06561603
v -0.05045478 -0.01696028 0.06530595
v -0.04790821 -0.02387722 0.06458649
v -0.04982078 -0.01956468 0.06472159
v -0.04428384 -0.03021424 0.06467845
v -0.04220220 -0.03295571 0.06481600
v -0.03909560 -0.03659343 0.06479321
v -0.03085359 -0.04407976 0.06431547
v -0.02756735 -0.04615695 0.06437000
v -0.03431946 -0.04127502 0.06461579
v -0.02162888 -0.04914094 0.06427396
v -0.01802564 -0.05037460 0.06437081
v -0.01135806 -0.05196676 0.06449289
v -0.00826202 -0.05152391 0.06459707
v 0.02987313 -0.04266685 0.06457835
v 0.02368105 -0.04659981 0.06448556
v 0.02937650 -0.04426955 0.06443755
v 0.03512477 -0.04058966 0.06424059
v 0.03915067 -0.03619276 0.06457021
v 0.04431778 -0.02937071 0.06473462
v 0.00023359 -0.05215656 0.06451324
v 0.04944262 -0.02010243 0.06483553
v 0.05167219 -0.01627491 0.06451242
v 0.05265489 -0.01260556 0.06458730
v 0.05339456 -0.00296823 0.06496006
v 0.05232732 -0.00544610 0.06508213
v 0.03469153 0.04148578 0.06339417
v 0.03099320 0.04441705 0.06471264
v 0.03107773 0.04420616 0.06184211
v 0.03605463 0.04031539 0.06152877
v 0.03927747 0.03724705 0.06373599
v 0.05318323 0.00097527 0.06515864
v 0.05180956 0.01427141 0.06517085
v 0.05317266 0.00868302 0.06488681
v 0.04951659 0.02149413 0.06500482
v 0.04677982 0.02686109 0.06535967
v 0.04366265 0.03148996 0.06563150
v 0.04273278 0.03315593 0.06409654
v 0.03233517 0.04275108 0.06077676
v -0.03926467 0.03624536 0.06123822
v -0.03697170 0.03864941 0.06353822
v -0.04332227 0.03099438 0.06095906
v -0.04073343 0.03464265 0.06310524
v -0.04291017 0.03188009 0.06438871
v -0.04575261 0.02757809 0.06381168
v -0.04347020 0.03108928 0.06152877
v -0.04766518 0.02410907 0.06268610
v -0.04945095 0.02014448 0.06492262
v -0.05110992 0.01543126 0.06474682
v -0.05365648 -0.00350598 0.06488192
v -0.05311759 0.00488714 0.06125613
v -0.05321268 0.00090146 0.06044551
v -0.05311759 -0.00424407 0.06062863
v -0.05265265 -0.00878859 0.06042191
v -0.05228282 0.01058096 0.06152145
v -0.05175448 0.01298502 0.06331684
v -0.05272662 -0.00912600 0.06464346
v -0.05231452 -0.01043347 0.06526933
v -0.05124728 -0.01539975 0.06462555
v -0.04613301 -0.02725134 0.06334127
v -0.04917621 -0.02101977 0.06102010
v -0.04844711 -0.02264356 0.06240613
v -0.05060272 -0.01726606 0.06225068
v -0.04364984 -0.03111049 0.06334777
v -0.04125120 -0.03428427 0.06336568
v -0.03821857 -0.03773220 0.06352357
v -0.03461533 -0.04111686 0.06375471
v -0.03213216 -0.04291990 0.06210255
v -0.03047319 -0.04402704 0.05991324
v -0.02856062 -0.04545050 0.06265761
v -0.02450301 -0.04789673 0.06389551
v -0.02615141 -0.04664198 0.05954374
v -0.02074127 -0.04961542 0.06341777
v -0.01679990 -0.05108105 0.06376204
v -0.01368273 -0.05181914 0.06419908
v -0.00834656 -0.05307389 0.06377750
v -0.00567319 -0.05300009 0.06436593
v -0.00041098 -0.05306335 0.06436919
v 0.02040538 -0.04900386 0.06438871
v 0.01104330 -0.05041678 0.06446034
v 0.02227568 -0.04869808 0.06405015
v 0.02648122 -0.04663144 0.06388086
v 0.03129963 -0.04353146 0.06410793
v 0.03541007 -0.04044204 0.06203744
v 0.03769247 -0.03834376 0.06210499
v 0.03892877 -0.03701520 0.06415025
v 0.03195477 -0.04315188 0.06189827
v 0.04256371 -0.03257613 0.06442615
v 0.04587108 -0.02791562 0.06444243
v 0.04764629 -0.02472075 0.06453522
v 0.01260717 -0.05146065 0.06433826
v 0.04990755 -0.02037657 0.06448068
v 0.05075289 -0.01899530 0.06392399
v 0.05138689 -0.01708681 0.06366193
v 0.05242243 -0.01337528 0.06340068
v 0.05300359 -0.01022259 0.06194385
v 0.05364816 -0.00591004 0.06324441
v 0.05311983 -0.00872532 0.06455963
v 0.05380666 -0.00284170 0.06455556
v 0.05375383 0.00330552 0.06470369
v 0.03937257 0.03701508 0.06106080
v 0.03627654 0.03966165 0.06071571
v 0.04207765 0.03401000 0.06127240
v 0.05220052 0.01388127 0.06398097
v 0.05105932 0.01767716 0.06404119
v 0.05380666 0.00452864 0.06302955
v 0.05339456 0.00821908 0.06162969
v 0.04949545 0.02175773 0.06282283
v 0.04783649 0.02521620 0.06342184
v 0.04534275 0.02947603 0.06430489
v 0.04386341 0.03167975 0.06120648
v -0.05001098 0.01766661 0.06052771
v -0.04792934 0.02299140 0.06070839
v -0.04613301 0.02651313 0.06083617
v -0.04969398 0.01951184 0.06205616
v -0.05076122 0.01647513 0.06098429
v -0.05208205 0.01081294 0.06064816
v -0.05206092 -0.01203618 0.06222382
v -0.05150088 -0.01382868 0.06032587
v -0.04836258 -0.02262247 0.06016391
v -0.04594281 -0.02718808 0.06002067
v -0.04332227 -0.03130028 0.06005811
v -0.04984191 -0.01841537 0.05993277
v -0.04112440 -0.03426318 0.06083129
v -0.03829253 -0.03741588 0.06091756
v -0.03660186 -0.03893423 0.05974070
v -0.03515423 -0.04038932 0.06109579
v -0.03269219 -0.04221345 0.05950549
v -0.02695448 -0.04583008 0.05916773
v -0.02232628 -0.04864536 0.05969431
v -0.02020237 -0.04905659 0.05899926
v -0.01934647 -0.04995283 0.06040889
v -0.01615533 -0.05089126 0.05936469
v -0.01452807 -0.05154499 0.06088907
v -0.01140033 -0.05244125 0.06255588
v -0.00437349 -0.05345348 0.06182502
v -0.00368665 -0.05349566 0.06397201
v -0.00769142 -0.05295791 0.05976186
v 0.00521049 -0.05333750 0.06384668
v 0.00859183 -0.05250451 0.06421943
v 0.01660138 -0.05080691 0.06416979
v 0.01797505 -0.05062766 0.06370100
v 0.01991932 -0.04992120 0.06310117
v 0.02305762 -0.04850829 0.06135054
v 0.02726316 -0.04624130 0.06156865
v 0.03624484 -0.03940871 0.05929225
v 0.03342353 -0.04193930 0.05950060
v 0.04055604 -0.03525433 0.06139937
v 0.04255315 -0.03296626 0.06391341
v 0.02931309 -0.04477567 0.05930690
v 0.04747722 -0.02545884 0.06403305
v 0.04513142 -0.02930744 0.06205047
v 0.01420274 -0.05167152 0.06400945
v 0.05071062 -0.01809904 0.06010775
v 0.04901995 -0.02213744 0.05970082
v 0.05216882 -0.01345963 0.06095255
v 0.05235903 -0.01208890 0.05974639
v 0.05325719 -0.00819812 0.05999056
v 0.05384893 -0.00376958 0.06017449
v 0.05399686 -0.00097539 0.06264784
v 0.04205651 0.03373585 0.06074502
v 0.05254923 0.01253163 0.06060015
v 0.05035136 0.01963837 0.06070106
v 0.05384893 0.00392762 0.06026076
v 0.05311983 0.00868302 0.06004427
v 0.04795272 0.02464682 0.06057898
v 0.04599788 0.02844271 0.06158737
v 0.04564919 0.02849543 0.06049353
v -0.04427327 -0.02926527 0.05954862
v -0.04002547 -0.03533868 0.05973744
v -0.01284796 -0.05178751 0.05917587
v -0.00018908 -0.05373817 0.06349183
v -0.00052721 -0.05351675 0.05989126
v -0.00789219 -0.05268376 0.05900577
v -0.00290472 -0.05311607 0.05894392
v 0.00433346 -0.05346403 0.06119753
v 0.00988097 -0.05277866 0.06356996
v 0.01807014 -0.05050113 0.06028925
v 0.01442464 -0.05179806 0.06346904
v 0.02508642 -0.04739061 0.05956083
v 0.02231795 -0.04858210 0.05910262
v 0.04071454 -0.03444243 0.05905705
v 0.04294411 -0.03231252 0.06050818
v 0.04711795 -0.02598605 0.06178107
v 0.04627262 -0.02725134 0.05960315
v 0.05038306 -0.01835210 0.05950304
v 0.04803725 -0.02339219 0.05921493
v 0.05365873 -0.00304204 0.05970407
v 0.05377496 0.00085928 0.05982453
v 0.05127066 0.01629588 0.06020460
v 0.04926299 0.02115672 0.06011345
v 0.00139592 -0.05310553 0.05879579
v 0.00467159 -0.05327423 0.05920517
v 0.00905677 -0.05287356 0.06051143
v 0.01174070 -0.05244125 0.06271133
v 0.01305097 -0.05203003 0.06031366
v 0.01558698 -0.05104942 0.05903344
v 0.04374718 -0.03089961 0.05926539
v 0.01035647 -0.05234635 0.05901879
v -0.04547806 0.00153742 0.04829466
v -0.04527974 -0.00448932 0.04813247
v -0.04494919 0.00689030 0.04826723
v -0.04498697 0.00020869 0.04778185
v -0.04478864 0.00540972 0.04785460
v -0.04443920 -0.00944358 0.04790827
v -0.04404254 0.01034500 0.04802991
v -0.04393866 0.00123371 0.04765544
v -0.04397643 -0.00681460 0.04757434
v -0.04271091 0.01181609 0.04781763
v -0.04247480 -0.01496730 0.04764470
v -0.04241814 0.01566941 0.04805853
v 0.02573141 -0.03626494 0.04640561
v 0.00738128 -0.04316485 0.04646046
v -0.03575051 -0.02423045 0.04720345
v -0.04083151 -0.01622010 0.04741096
v -0.04015152 -0.01962735 0.04742169
v -0.01650318 0.00543819 0.04748728
v -0.03869711 0.02228458 0.04800844
v -0.04117150 -0.01891553 0.04794404
v -0.04099206 0.01968407 0.04829824
v 0.03129406 -0.03159541 0.04646285
v 0.02829080 -0.03522094 0.04662146
v 0.02431478 -0.03783095 0.04651294
v 0.01652329 -0.04145648 0.04643184
v 0.04203215 0.01644767 0.04730601
v 0.00753238 -0.04432274 0.04657376
v 0.00115753 -0.04476881 0.04658330
v -0.00464123 -0.04391463 0.04661073
v -0.03173672 -0.03052293 0.04710923
v -0.03550496 -0.02673605 0.04723088
v -0.03732770 -0.02519852 0.04750636
v -0.03960375 -0.02183873 0.04776157
v 0.03577062 0.02695412 0.04757434
v -0.03892377 0.02351840 0.04831851
v -0.03634550 0.02726732 0.04838530
v -0.03242614 0.03150028 0.04821238
v -0.02706182 0.03566679 0.04823742
v 0.01260393 0.04337342 0.04811935
v 0.02317202 0.03914047 0.04794404
v 0.04144660 -0.01634349 0.04671926
v 0.03867000 -0.02299663 0.04664055
v 0.03488287 -0.02839696 0.04658926
v 0.04412876 0.00718452 0.04713308
v 0.03119017 -0.03273432 0.04676577
v 0.02488143 -0.03785942 0.04686714
v 0.01881824 -0.04112430 0.04673834
v 0.01336892 -0.04298452 0.04655826
v 0.03901000 0.02366077 0.04753737
v 0.04185271 0.01913360 0.04771506
v 0.04401543 0.01313533 0.04757673
v 0.04494097 0.00806718 0.04726665
v 0.01189562 -0.04374379 0.04697089
v 0.00644630 -0.04483525 0.04691365
v -0.00772949 -0.04427528 0.04684686
v 0.00174307 -0.04512947 0.04690053
v -0.00274294 -0.04506303 0.04685283
v -0.01229105 -0.04196899 0.04676696
v -0.02396412 -0.03567651 0.04696135
v -0.03453221 -0.02890947 0.04747297
v -0.02287803 -0.03821058 0.04698163
v -0.02794958 -0.03484130 0.04715097
v -0.03019731 -0.03331326 0.04737995
v 0.02858357 0.03416722 0.04779855
v 0.02990576 0.03488854 0.04793450
v 0.03279569 0.03217413 0.04786891
v -0.03333279 0.03124402 0.04855942
v -0.03157616 0.03285748 0.04841869
v -0.02820457 0.03578068 0.04837576
v -0.02143306 0.03998516 0.04832328
v -0.00851336 0.04409473 0.04832925
v 0.00190362 0.04528110 0.04828870
v 0.00760794 0.04534753 0.04831970
v 0.01223561 0.04461673 0.04837814
v 0.01759993 0.04221553 0.04811100
v 0.02157595 0.04068749 0.04817660
v 0.02553308 0.03824832 0.04807284
v 0.04455376 -0.00420459 0.04696493
v 0.04353378 -0.01336334 0.04704722
v 0.04173937 -0.01818473 0.04704006
v 0.04012441 -0.02156350 0.04704245
v 0.03704559 -0.02620456 0.04685640
v 0.03491120 -0.02911827 0.04700905
v 0.04559262 0.00228720 0.04717959
v 0.01578664 -0.04258590 0.04723684
v 0.03491120 0.03002918 0.04788680
v 0.03764058 0.02684023 0.04805853
v 0.03945387 0.02394550 0.04793331
v 0.04341101 0.01581177 0.04800129
v 0.04540374 0.00810514 0.04783909
v 0.04585706 0.00372982 0.04756838
v -0.01304659 -0.04315535 0.04701144
v -0.01899645 -0.04063077 0.04697924
v -0.02324635 -0.03869462 0.04736206
v -0.02641962 -0.03680592 0.04774249
v 0.03200238 0.03353133 0.04846520
v 0.02893300 0.03609388 0.04834594
v -0.02741126 0.03679621 0.04872399
v -0.02316136 0.03966247 0.04854153
v -0.01795759 0.04213960 0.04852602
v -0.01177162 0.04408524 0.04844373
v -0.00649229 0.04549939 0.04847116
v -0.00198740 0.04597394 0.04852006
v 0.00289527 0.04615426 0.04858327
v 0.00796682 0.04586954 0.04890169
v 0.01668384 0.04320259 0.04852245
v 0.01996099 0.04169353 0.04843539
v 0.02247315 0.04055462 0.04864648
v 0.04552651 -0.00332194 0.04714262
v 0.04506375 -0.00874125 0.04721895
v 0.04600817 -0.00047466 0.04758269
v -0.01791981 -0.04156088 0.04730839
v -0.02364301 0.03962450 0.04885637
v -0.02002587 0.04164607 0.04893389
v -0.01559653 0.04329750 0.04870730
v -0.00863613 0.04548041 0.04912947
v -0.00444290 0.04620172 0.04921295
v 0.04564929 -0.00540994 0.04731674
f 341 356 340
f 403 402 278
f 33 51 52
f 122 174 121
f 23 38 35
f 23 33 38
f 403 278 310
f 181 124 123
f 141 142 93
f 201 214 144
f 164 110 163
f 341 334 343
f 343 357 341
f 80 123 124
f 121 123 80
f 52 51 83
f 51 80 83
f 83 80 124
f 169 163 165
f 38 33 56
f 35 38 56
f 22 23 35
f 13 4 12
f 12 4 10
f 12 22 13
f 23 22 12
f 32 33 20
f 33 23 20
f 20 12 10
f 23 12 20
f 285 286 228
f 362 356 341
f 341 361 362
f 9 8 17
f 345 365 367
f 433 312 311
f 312 282 311
f 282 281 311
f 325 240 329
f 239 334 329
f 329 240 239
f 174 122 178
f 178 240 174
f 239 240 178
f 416 434 195
f 218 219 147
f 157 155 223
f 208 141 207
f 93 142 143
f 216 274 278
f 203 144 214
f 93 91 137
f 137 144 93
f 201 144 137
f 112 163 110
f 237 169 165
f 165 357 237
f 357 343 237
f 235 334 239
f 235 343 334
f 82 51 81
f 81 80 82
f 82 80 51
f 336 330 335
f 238 171 170
f 239 178 179
f 179 178 122
f 166 169 167
f 163 169 166
f 164 163 166
f 76 77 48
f 53 33 52
f 53 54 33
f 59 60 35
f 35 56 59
f 95 101 59
f 59 101 60
f 49 77 76
f 76 78 49
f 33 48 49
f 49 48 77
f 50 80 81
f 50 49 78
f 33 49 50
f 81 51 50
f 51 33 50
f 79 122 121
f 121 80 79
f 80 50 79
f 79 50 78
f 119 78 76
f 18 30 31
f 18 11 9
f 9 17 18
f 9 11 3
f 3 11 10
f 3 4 1
f 10 4 3
f 13 22 24
f 11 18 21
f 21 18 31
f 10 11 19
f 19 20 10
f 11 21 19
f 32 20 19
f 19 21 32
f 283 282 287
f 287 282 312
f 286 372 314
f 348 340 356
f 335 340 348
f 411 372 286
f 356 362 386
f 360 361 341
f 361 360 393
f 393 360 392
f 42 43 29
f 31 30 29
f 29 43 31
f 110 111 68
f 111 69 68
f 68 69 42
f 2 7 425
f 1 7 2
f 2 3 1
f 2 8 9
f 9 3 2
f 16 7 6
f 6 7 1
f 438 17 8
f 409 284 291
f 226 284 224
f 270 345 269
f 269 345 367
f 208 207 269
f 269 207 270
f 406 400 366
f 366 400 363
f 277 216 278
f 332 329 334
f 332 334 341
f 341 340 332
f 332 340 335
f 335 330 332
f 325 323 175
f 121 174 175
f 175 240 325
f 174 240 175
f 173 123 121
f 121 177 173
f 181 123 180
f 123 173 180
f 180 173 177
f 407 369 320
f 379 377 350
f 350 377 351
f 351 336 350
f 350 336 349
f 375 349 370
f 369 407 370
f 320 375 370
f 370 407 320
f 384 416 417
f 417 416 251
f 252 416 195
f 251 416 252
f 434 416 415
f 297 377 379
f 297 294 377
f 377 294 414
f 434 415 414
f 414 415 377
f 149 101 95
f 155 101 149
f 283 223 222
f 102 101 155
f 155 157 102
f 103 60 102
f 60 101 102
f 285 228 227
f 286 314 289
f 289 314 372
f 158 232 159
f 35 60 61
f 60 105 61
f 35 61 62
f 62 61 105
f 103 158 104
f 104 158 159
f 104 60 103
f 104 105 60
f 320 369 304
f 369 368 304
f 202 203 214
f 95 143 145
f 55 91 93
f 55 54 91
f 95 59 55
f 55 59 56
f 33 54 55
f 55 56 33
f 218 147 146
f 146 147 95
f 95 145 146
f 209 141 208
f 142 141 209
f 113 69 111
f 113 110 164
f 113 111 110
f 236 237 343
f 343 235 236
f 236 235 239
f 239 238 236
f 170 237 236
f 236 238 170
f 248 249 189
f 189 249 190
f 192 190 251
f 192 252 195
f 251 252 192
f 330 331 326
f 251 190 250
f 250 249 251
f 190 249 250
f 354 353 382
f 382 353 352
f 170 171 118
f 118 117 170
f 76 117 118
f 118 119 76
f 171 119 118
f 170 117 168
f 168 237 170
f 169 237 168
f 115 166 167
f 164 166 115
f 75 48 74
f 74 115 75
f 75 117 76
f 76 48 75
f 91 54 90
f 78 119 120
f 122 79 120
f 120 79 78
f 42 69 44
f 44 43 42
f 31 43 44
f 229 223 283
f 283 287 229
f 229 157 223
f 371 348 356
f 372 348 371
f 313 286 285
f 313 411 286
f 285 288 412
f 225 419 162
f 359 360 341
f 361 393 394
f 42 29 436
f 13 24 14
f 5 4 13
f 13 14 5
f 5 14 6
f 1 4 5
f 5 6 1
f 439 2 425
f 423 393 392
f 224 284 408
f 284 409 408
f 409 371 408
f 154 226 224
f 154 100 106
f 161 154 106
f 226 154 161
f 97 100 150
f 96 100 97
f 57 100 96
f 96 97 57
f 57 58 35
f 99 58 57
f 37 24 22
f 35 58 37
f 58 64 37
f 39 24 37
f 37 64 39
f 27 427 16
f 367 365 405
f 405 269 367
f 403 310 308
f 308 321 403
f 308 310 278
f 208 269 271
f 271 209 208
f 272 209 271
f 431 432 400
f 400 406 431
f 431 406 433
f 366 348 374
f 374 406 366
f 364 402 403
f 364 363 402
f 400 432 401
f 401 363 400
f 402 363 401
f 366 363 344
f 335 348 344
f 344 348 366
f 363 364 344
f 344 364 365
f 344 345 335
f 365 345 344
f 279 219 218
f 280 432 281
f 280 279 277
f 281 219 280
f 219 279 280
f 176 177 121
f 121 175 176
f 354 382 245
f 346 368 369
f 335 345 346
f 345 368 346
f 349 336 347
f 347 370 349
f 347 336 335
f 335 346 347
f 369 370 347
f 347 346 369
f 320 304 301
f 320 301 319
f 299 316 317
f 317 319 318
f 376 350 349
f 376 349 375
f 315 316 296
f 296 316 299
f 147 222 148
f 155 149 148
f 223 155 148
f 148 222 223
f 95 147 148
f 148 149 95
f 220 282 283
f 283 222 220
f 220 147 219
f 220 281 282
f 220 219 281
f 103 102 156
f 156 102 157
f 157 227 156
f 156 227 228
f 156 158 103
f 228 158 156
f 232 158 231
f 286 289 231
f 231 289 232
f 231 228 286
f 231 158 228
f 203 202 139
f 144 203 139
f 140 202 204
f 93 139 140
f 140 139 202
f 140 141 93
f 140 206 141
f 93 143 94
f 94 55 93
f 94 143 95
f 95 55 94
f 216 277 217
f 217 146 216
f 277 279 217
f 218 146 217
f 217 279 218
f 213 145 143
f 143 212 213
f 213 212 274
f 272 212 211
f 142 209 211
f 211 209 272
f 211 143 142
f 211 212 143
f 54 53 87
f 87 92 54
f 87 53 52
f 52 86 87
f 130 92 87
f 87 129 130
f 86 129 87
f 384 352 383
f 383 416 384
f 383 415 416
f 352 353 337
f 337 331 330
f 338 331 337
f 330 336 337
f 337 336 351
f 351 352 337
f 323 326 324
f 177 176 324
f 324 175 323
f 324 176 175
f 327 332 330
f 330 326 327
f 329 332 327
f 325 329 327
f 327 323 325
f 327 326 323
f 385 352 384
f 385 382 352
f 384 417 385
f 249 382 385
f 251 249 385
f 385 417 251
f 116 168 117
f 116 115 167
f 167 169 116
f 169 168 116
f 117 75 116
f 116 75 115
f 114 113 164
f 164 115 114
f 114 115 74
f 74 48 47
f 47 48 33
f 69 113 70
f 89 90 54
f 134 90 89
f 195 434 253
f 294 297 261
f 260 262 201
f 172 179 122
f 122 120 172
f 239 179 172
f 172 238 239
f 171 238 172
f 172 119 171
f 172 120 119
f 31 44 45
f 45 44 69
f 69 70 45
f 157 229 230
f 285 227 230
f 230 227 157
f 230 229 287
f 230 288 285
f 230 287 288
f 372 371 410
f 410 371 409
f 410 289 372
f 410 409 291
f 291 289 410
f 411 313 373
f 412 374 373
f 373 313 285
f 285 412 373
f 372 411 373
f 373 348 372
f 373 374 348
f 288 287 413
f 413 412 288
f 413 287 312
f 406 374 413
f 413 374 412
f 413 312 433
f 433 406 413
f 224 225 153
f 150 100 153
f 153 152 150
f 153 154 224
f 100 154 153
f 162 152 153
f 153 225 162
f 109 152 162
f 162 419 109
f 419 399 109
f 341 357 358
f 358 359 341
f 358 357 165
f 110 68 420
f 425 394 424
f 424 394 393
f 393 423 424
f 424 439 425
f 424 438 8
f 8 2 424
f 2 439 424
f 361 394 395
f 17 438 437
f 438 424 437
f 437 424 423
f 437 436 29
f 418 225 224
f 224 408 418
f 419 225 418
f 160 161 106
f 106 105 160
f 160 104 159
f 105 104 160
f 290 289 291
f 232 289 290
f 150 152 151
f 151 97 150
f 152 97 151
f 106 100 63
f 100 57 63
f 63 105 106
f 63 62 105
f 35 62 63
f 63 57 35
f 36 22 35
f 35 37 36
f 36 37 22
f 65 66 39
f 65 58 99
f 39 64 65
f 65 64 58
f 41 27 26
f 397 362 361
f 396 27 41
f 41 428 396
f 427 27 396
f 396 395 427
f 428 397 396
f 361 395 396
f 396 397 361
f 305 405 321
f 269 405 305
f 305 271 269
f 403 321 404
f 321 405 404
f 404 364 403
f 404 405 365
f 365 364 404
f 275 212 272
f 274 212 275
f 432 431 440
f 440 311 281
f 281 432 440
f 433 311 440
f 440 431 433
f 309 280 277
f 309 277 278
f 309 401 432
f 432 280 309
f 309 278 402
f 402 401 309
f 181 180 182
f 52 83 84
f 130 129 188
f 188 189 130
f 293 245 382
f 293 382 249
f 293 249 248
f 354 244 355
f 354 245 292
f 292 244 354
f 245 244 292
f 183 244 245
f 184 246 243
f 244 183 243
f 243 355 244
f 267 301 304
f 264 202 214
f 214 276 264
f 204 202 264
f 318 319 302
f 302 319 301
f 263 276 214
f 263 214 201
f 201 262 263
f 320 319 322
f 322 317 316
f 319 317 322
f 316 376 322
f 322 375 320
f 322 376 375
f 300 317 318
f 318 302 300
f 300 262 299
f 299 317 300
f 300 302 276
f 276 263 300
f 300 263 262
f 350 376 378
f 378 315 379
f 379 350 378
f 378 316 315
f 378 376 316
f 315 296 298
f 379 315 298
f 298 297 379
f 298 261 297
f 296 261 298
f 221 222 147
f 147 220 221
f 221 220 222
f 93 144 138
f 138 139 93
f 144 139 138
f 205 268 206
f 205 140 204
f 206 140 205
f 204 267 205
f 205 267 268
f 273 345 270
f 273 368 345
f 215 146 145
f 145 213 215
f 216 146 215
f 274 216 215
f 215 213 274
f 190 192 191
f 191 131 190
f 192 131 191
f 190 131 133
f 130 189 133
f 133 189 190
f 133 92 130
f 195 253 194
f 193 192 195
f 193 131 192
f 381 352 351
f 381 383 352
f 328 326 331
f 328 324 326
f 328 331 333
f 177 324 328
f 333 246 328
f 113 114 73
f 73 70 113
f 73 114 74
f 74 47 73
f 72 47 71
f 71 70 72
f 72 73 47
f 70 73 72
f 254 253 434
f 294 261 258
f 258 261 199
f 199 198 258
f 259 261 296
f 199 261 259
f 259 260 199
f 295 296 299
f 299 262 295
f 262 260 295
f 295 259 296
f 260 259 295
f 197 258 198
f 135 90 134
f 134 197 135
f 135 197 198
f 136 137 91
f 91 90 136
f 90 135 136
f 136 135 198
f 136 198 199
f 46 45 70
f 46 70 71
f 46 33 32
f 46 47 33
f 71 47 46
f 34 21 31
f 31 45 34
f 32 21 34
f 34 46 32
f 45 46 34
f 108 109 399
f 152 109 108
f 165 163 389
f 389 358 165
f 359 358 389
f 163 112 389
f 360 359 391
f 392 360 391
f 435 68 42
f 435 420 68
f 42 436 435
f 426 394 425
f 426 395 394
f 427 395 426
f 425 7 426
f 426 7 16
f 16 427 426
f 17 437 28
f 28 437 29
f 28 29 30
f 30 18 28
f 28 18 17
f 436 437 422
f 422 423 392
f 422 437 423
f 419 418 387
f 387 399 419
f 387 386 362
f 362 399 387
f 356 386 387
f 233 160 159
f 161 160 233
f 159 232 233
f 232 290 233
f 25 24 39
f 39 26 25
f 25 14 24
f 40 26 39
f 41 26 40
f 39 66 40
f 40 66 41
f 398 399 362
f 362 397 398
f 398 397 428
f 306 305 321
f 271 305 306
f 272 271 306
f 306 275 272
f 321 308 306
f 308 275 306
f 274 275 307
f 307 275 308
f 278 274 307
f 307 308 278
f 177 328 242
f 242 328 246
f 242 246 184
f 125 84 83
f 127 84 125
f 125 124 181
f 125 83 124
f 181 182 125
f 125 182 127
f 126 84 127
f 126 127 184
f 247 188 245
f 245 293 247
f 247 293 248
f 248 189 247
f 189 188 247
f 354 355 339
f 339 353 354
f 333 331 339
f 339 331 338
f 338 337 339
f 339 337 353
f 187 183 245
f 245 188 187
f 355 243 342
f 333 339 342
f 342 339 355
f 342 246 333
f 342 243 246
f 303 267 304
f 268 267 303
f 303 273 268
f 303 304 368
f 368 273 303
f 265 264 276
f 276 302 265
f 204 264 265
f 265 302 301
f 206 268 210
f 268 273 210
f 210 273 270
f 270 207 210
f 210 207 141
f 141 206 210
f 88 133 131
f 92 133 88
f 54 92 88
f 88 89 54
f 131 193 132
f 195 194 132
f 132 193 195
f 132 88 131
f 89 88 132
f 134 89 132
f 132 194 134
f 380 381 351
f 383 381 380
f 415 383 380
f 351 377 380
f 377 415 380
f 196 197 134
f 255 197 196
f 134 194 196
f 196 253 255
f 196 194 253
f 256 197 255
f 255 253 256
f 253 254 256
f 256 414 294
f 434 414 256
f 256 254 434
f 294 258 257
f 258 197 257
f 257 256 294
f 197 256 257
f 201 137 200
f 137 136 200
f 200 260 201
f 199 260 200
f 200 136 199
f 41 66 67
f 67 428 41
f 99 108 107
f 107 65 99
f 66 65 107
f 107 67 66
f 108 67 107
f 99 57 98
f 98 108 99
f 98 57 97
f 98 97 152
f 152 108 98
f 359 389 390
f 390 391 359
f 390 112 110
f 390 389 112
f 110 420 390
f 420 391 390
f 421 435 436
f 436 422 421
f 421 422 392
f 392 391 421
f 421 391 420
f 420 435 421
f 388 418 408
f 388 387 418
f 356 387 388
f 388 371 356
f 388 408 371
f 234 233 290
f 234 290 291
f 226 161 234
f 161 233 234
f 291 284 234
f 284 226 234
f 14 25 15
f 15 25 26
f 6 14 15
f 16 6 15
f 15 27 16
f 15 26 27
f 430 108 399
f 399 398 430
f 241 182 180
f 241 242 182
f 241 180 177
f 177 242 241
f 186 242 184
f 182 242 186
f 184 127 186
f 127 182 186
f 128 126 183
f 183 187 128
f 128 129 86
f 128 188 129
f 128 187 188
f 185 243 183
f 183 126 185
f 184 243 185
f 185 126 184
f 266 267 204
f 204 265 266
f 301 267 266
f 266 265 301
f 429 67 108
f 108 430 429
f 429 430 398
f 429 398 428
f 428 67 429
f 85 128 86
f 126 128 85
f 84 126 85
f 85 86 52
f 52 84 85

