# https://github.com/mikedh/trimesh
v -0.00062612 -0.00166177 -0.05902020
v 0.00061947 -0.00182704 -0.05804866
v -0.00638016 -0.00126291 -0.05869434
v -0.05617357 0.00249575 -0.05867020
v -0.05804500 0.00384731 -0.05874865
v -0.05929667 0.00334562 -0.05679952
v -0.06000150 0.00366368 -0.05757193
v -0.05926022 0.00349620 -0.05801245
v -0.05881667 0.00363870 -0.05873658
v -0.05881667 0.00383777 -0.05873658
v -0.05994681 0.00501230 -0.05627452
v -0.05986783 0.00501230 -0.05627452
v -0.05804500 0.00417051 -0.05804866
v -0.06025062 0.00360124 -0.05305210
v -0.06000150 0.00396778 -0.05757193
v -0.06001973 0.00437839 -0.05673314
v -0.06025062 0.00427923 -0.05305210
v -0.06014733 0.00528555 -0.05055382
v -0.05929667 0.00552208 -0.05055382
v -0.05929667 0.00554117 -0.04931072
v 0.02309412 0.00267731 0.06045167
v 0.02059845 0.00218966 0.06096124
v 0.01685682 0.00159630 0.06144655
v 0.00187523 0.00017613 0.06256276
v 0.00811630 0.00010415 0.06244144
v 0.00880892 0.00008211 0.06242930
v 0.00880892 -0.00001776 0.06242930
v 0.02184440 0.00264554 0.06042740
v 0.01560710 0.00156971 0.06147081
v 0.00187523 -0.00017988 0.06256276
v 0.01935249 0.00256902 0.06022115
v 0.02059845 0.00260922 0.06033034
v 0.01853942 0.00253076 0.06007555
v -0.06007199 -0.00511804 0.05180736
v -0.06043152 -0.00408356 0.04431461
v -0.06004761 0.00015419 0.01664905
v -0.06016339 -0.00537922 0.05680057
v -0.06023652 -0.00537033 0.05804741
v -0.06026698 -0.00529786 0.05929424
v -0.06030964 -0.00436936 0.05680057
v -0.06043152 -0.00339368 0.04431461
v -0.06033402 -0.00238928 0.04056823
v -0.05901167 0.00134525 0.00686848
v -0.05974902 -0.00271200 0.05305419
v -0.05964542 -0.00270926 0.05430103
v -0.05912136 -0.00230450 0.05305419
v -0.05960886 -0.00537922 0.05680057
v -0.05938339 -0.00535461 0.06064105
v -0.06018777 -0.00524590 0.06029405
v -0.06026698 -0.00443431 0.05929424
v -0.06006589 -0.00355845 0.05680057
v -0.05885323 0.00130491 0.00811531
v -0.05767713 0.00128645 0.01061486
v -0.06001714 -0.00364666 0.05783568
v -0.05991964 -0.00374716 0.05866494
v -0.05901776 -0.00237629 0.05430103
v -0.05873135 0.00127004 0.00896810
v -0.05679962 -0.00515906 0.06146443
v -0.05804885 -0.00523769 0.06139385
v -0.05902995 -0.00520487 0.06132328
v -0.00936565 -0.00146898 0.06257012
v -0.05586118 -0.00510026 0.06141738
v -0.06018777 -0.00466199 0.06029405
v -0.04747005 -0.00122215 0.05621832
v -0.04532504 -0.00117087 0.05770629
v -0.01061487 0.00027795 0.06179378
v -0.05941995 -0.00386476 0.05934717
v -0.05770151 -0.00364119 0.06023524
v -0.05809151 -0.00347094 0.05934717
v -0.05941995 -0.00346889 0.05817091
v -0.05881057 -0.00245560 0.05510676
v -0.00936565 0.00011112 0.06252895
v -0.04841458 -0.00385724 0.06249954
v -0.04900568 -0.00385724 0.06249954
v -0.05142491 -0.00387912 0.06247013
v -0.02366775 -0.00251030 0.06243484
v -0.02684261 -0.00267371 0.06257600
v -0.05902995 -0.00480421 0.06132328
v -0.01061487 -0.00152641 0.06262893
v -0.05938339 -0.00449926 0.06064105
v -0.03876813 -0.00123788 0.05993529
v -0.05555040 -0.00327607 0.06054107
v -0.04681192 -0.00217869 0.06054107
v -0.01061487 0.00008103 0.06249365
v -0.05723838 -0.00384083 0.06106450
v -0.05681181 -0.00353726 0.06060576
v -0.05679962 -0.00316189 0.05929424
v -0.02310102 -0.00112301 0.06254071
v -0.01061487 -0.00062458 0.06271126
v -0.04900568 -0.00363503 0.06249954
v -0.05142491 -0.00368631 0.06247013
v -0.05640962 -0.00369862 0.06123506
v -0.04681192 -0.00243714 0.06128211
v -0.05555040 -0.00360905 0.06134680
v -0.02621495 -0.00125019 0.06241720
v -0.02538619 -0.00120506 0.06246424
v 0.06120614 -0.00242797 -0.03843549
v 0.06120614 -0.00257467 -0.03843549
v 0.06120614 -0.00242797 -0.03882903
v 0.06003014 -0.00522257 -0.03931923
v 0.06003424 -0.00527758 -0.04056890
v 0.06022477 -0.00543008 -0.05680078
v 0.06120614 -0.00257467 -0.03882903
v 0.06048292 -0.00312095 -0.06054287
v 0.06011824 -0.00232615 -0.06054287
v 0.05956916 -0.00543008 -0.05680078
v 0.05998302 -0.00501892 -0.05998363
v 0.06018789 -0.00525442 -0.05804354
v 0.06053004 -0.00436889 -0.05804354
v 0.06042350 -0.00436889 -0.05929321
v 0.06025141 -0.00436021 -0.06045312
v 0.06015716 -0.00393795 -0.06134376
v 0.06019199 -0.00312095 -0.06139209
v 0.06004448 -0.00239902 -0.06129543
v 0.05929667 -0.00206363 -0.06054287
v 0.05929667 -0.00194250 -0.05929321
v 0.05989082 -0.00501892 -0.05998363
v 0.05761667 -0.00384675 -0.06251058
v 0.05761667 -0.00349012 -0.06251058
v 0.05929667 -0.00233580 -0.06143352
v 0.05804896 -0.00192320 -0.06054287
v 0.05804896 -0.00176974 -0.05929321
v 0.05726632 -0.00384675 -0.06251058
v 0.05056064 -0.00287918 -0.06268319
v 0.05056064 -0.00223784 -0.06268319
v 0.05305606 -0.00233869 -0.06257962
v 0.05408455 -0.00239419 -0.06251749
v 0.05804896 -0.00228416 -0.06157161
v 0.05305606 -0.00194974 -0.06179254
v 0.05680125 -0.00185226 -0.06054287
v 0.05430378 -0.00153665 -0.05929321
v 0.04556774 -0.00272041 -0.06259344
v 0.04556774 -0.00225424 -0.06259344
v 0.05430378 -0.00171569 -0.06054287
v 0.06019829 0.00271319 -0.00187154
v 0.06009580 0.00516323 0.02808810
v 0.05996966 0.00380242 0.04648786
v 0.05996966 0.00364146 0.04648786
v 0.05883832 0.00243108 0.05804774
v 0.05929756 0.00535111 0.02309483
v 0.05999922 0.00507017 0.02229988
v 0.06004455 0.00512050 0.02309483
v 0.05929756 0.00542017 0.02808810
v 0.05929756 0.00544124 0.03183099
v 0.05999134 0.00506080 0.03892756
v 0.05873386 0.00378896 0.05875160
v 0.05894870 0.00312055 0.05804774
v 0.05873781 0.00246561 0.05871848
v 0.05430314 0.00230875 0.06005167
v 0.05804994 0.00547344 0.03058060
v 0.05804994 0.00547929 0.03183099
v 0.05804994 0.00539384 0.03557387
v 0.05804994 0.00535579 0.03682426
v 0.05934880 0.00518547 0.03807465
v 0.05930742 0.00512753 0.03933331
v 0.05680035 0.00432216 0.05804774
v 0.05804994 0.00409214 0.05804774
v 0.05804994 0.00389841 0.05900002
v 0.05876737 0.00312055 0.05876816
v 0.05529059 0.00238484 0.06001855
v 0.05055831 0.00439649 0.05305447
v 0.05555273 0.00437894 0.05679735
v 0.05555273 0.00431572 0.05804774
v 0.05680035 0.00399791 0.05924844
v 0.05529059 0.00270324 0.06001855
v 0.04806307 0.00291629 0.06026697
v 0.05055831 0.00433621 0.05430485
v 0.05180790 0.00390134 0.05919048
v 0.05180790 0.00359932 0.05981153
v 0.05430314 0.00279630 0.06005167
f 150 140 20
f 20 140 19
f 35 14 7
f 34 2 106
f 35 7 34
f 53 64 20
f 53 56 64
f 104 105 99
f 99 105 135
f 99 136 97
f 149 27 61
f 62 100 148
f 148 149 62
f 143 150 144
f 140 150 143
f 144 136 143
f 88 91 89
f 138 100 98
f 131 19 140
f 19 131 12
f 35 40 41
f 140 141 116
f 141 105 116
f 106 2 1
f 3 34 4
f 2 34 3
f 4 1 3
f 3 1 2
f 47 102 48
f 6 7 4
f 4 34 6
f 6 34 7
f 57 53 20
f 56 53 57
f 142 99 135
f 135 105 142
f 142 105 141
f 136 99 142
f 142 141 140
f 140 143 142
f 142 143 136
f 98 100 101
f 101 102 98
f 101 100 48
f 48 102 101
f 48 100 59
f 58 149 61
f 58 62 149
f 100 62 58
f 58 59 100
f 144 150 151
f 151 150 20
f 161 153 20
f 65 81 66
f 20 64 65
f 89 73 77
f 73 58 77
f 89 91 90
f 144 153 154
f 153 155 154
f 137 146 147
f 147 138 137
f 145 146 137
f 145 154 155
f 145 137 97
f 97 136 145
f 145 136 144
f 144 154 145
f 148 100 139
f 100 138 139
f 139 147 148
f 138 147 139
f 130 131 121
f 140 116 122
f 121 131 122
f 122 131 140
f 115 116 105
f 121 122 115
f 115 122 116
f 4 9 132
f 4 7 8
f 8 9 4
f 7 9 8
f 13 125 5
f 5 12 13
f 39 38 48
f 39 40 35
f 35 38 39
f 56 45 55
f 98 102 103
f 102 109 103
f 104 99 103
f 103 109 104
f 104 109 110
f 59 58 75
f 152 153 144
f 144 151 152
f 20 153 152
f 152 151 20
f 153 161 162
f 163 162 167
f 167 162 161
f 167 161 20
f 72 88 89
f 31 65 66
f 31 167 20
f 163 167 31
f 91 88 96
f 89 77 79
f 79 77 61
f 61 27 79
f 76 58 61
f 61 77 76
f 76 77 58
f 148 147 159
f 159 147 146
f 146 158 159
f 157 158 146
f 146 145 157
f 13 12 129
f 129 125 13
f 129 130 121
f 20 19 18
f 18 42 36
f 18 17 41
f 41 42 18
f 18 43 20
f 36 43 18
f 123 1 4
f 4 132 123
f 123 132 124
f 12 5 11
f 17 18 11
f 19 12 11
f 11 18 19
f 133 5 125
f 121 115 120
f 120 129 121
f 37 34 106
f 35 34 37
f 37 38 35
f 37 47 48
f 48 38 37
f 56 57 46
f 46 43 36
f 46 45 56
f 36 45 46
f 56 55 71
f 64 56 71
f 71 65 64
f 87 82 71
f 71 82 65
f 102 107 108
f 108 109 102
f 108 110 109
f 74 73 89
f 89 90 74
f 74 58 73
f 74 75 58
f 89 79 30
f 30 79 27
f 24 72 89
f 89 30 24
f 165 159 158
f 20 65 33
f 33 31 20
f 65 31 33
f 84 31 66
f 66 81 84
f 81 93 84
f 88 72 84
f 84 96 88
f 95 93 91
f 91 96 95
f 95 84 93
f 96 84 95
f 91 92 78
f 65 82 83
f 83 82 93
f 81 65 83
f 83 93 81
f 93 82 94
f 94 82 92
f 91 93 94
f 94 92 91
f 158 157 156
f 156 155 153
f 156 145 155
f 156 157 145
f 156 162 163
f 153 162 156
f 134 129 12
f 130 129 134
f 134 12 131
f 131 130 134
f 1 123 117
f 106 1 117
f 112 113 104
f 10 11 5
f 5 133 10
f 15 11 10
f 16 15 17
f 17 11 16
f 16 11 15
f 120 119 127
f 52 46 57
f 43 46 52
f 52 57 20
f 20 43 52
f 44 51 45
f 42 51 44
f 44 45 36
f 36 42 44
f 54 55 45
f 45 51 54
f 22 72 29
f 72 24 29
f 29 169 22
f 26 165 170
f 27 149 160
f 160 149 148
f 148 159 160
f 159 165 160
f 164 165 158
f 158 156 164
f 170 165 164
f 164 169 170
f 164 156 163
f 55 68 69
f 87 71 69
f 92 82 86
f 86 82 87
f 87 69 86
f 86 69 68
f 59 75 60
f 48 59 60
f 85 78 92
f 92 86 85
f 85 86 68
f 55 54 50
f 40 39 50
f 50 54 51
f 50 51 42
f 50 41 40
f 50 42 41
f 104 110 111
f 111 112 104
f 107 112 111
f 111 108 107
f 110 108 111
f 118 123 124
f 118 112 107
f 113 112 118
f 118 119 113
f 113 119 114
f 114 119 120
f 114 105 104
f 104 113 114
f 114 115 105
f 114 120 115
f 125 129 126
f 129 127 126
f 126 119 125
f 126 127 119
f 129 120 128
f 128 127 129
f 120 127 128
f 24 169 23
f 23 29 24
f 169 29 23
f 24 26 25
f 169 164 21
f 22 169 21
f 21 72 22
f 70 71 55
f 55 69 70
f 70 69 71
f 55 50 63
f 166 169 24
f 24 25 166
f 170 169 166
f 166 26 170
f 166 25 26
f 28 84 72
f 72 21 28
f 168 164 163
f 168 21 164
f 163 28 168
f 168 28 21
f 55 63 67
f 67 68 55
f 67 85 68
f 78 85 80
f 80 63 78
f 85 67 80
f 80 67 63
f 49 39 48
f 48 60 49
f 163 31 32
f 32 28 163
f 31 84 32
f 84 28 32
f 97 137 138
f 138 98 97
f 35 41 17
f 17 14 35
f 14 17 15
f 15 7 14
f 97 98 103
f 103 99 97
f 124 132 133
f 133 125 124
f 102 47 37
f 106 102 37
f 91 75 74
f 74 90 91
f 117 102 106
f 117 107 102
f 10 133 132
f 10 132 9
f 7 15 10
f 10 9 7
f 26 24 30
f 26 30 27
f 160 26 27
f 165 26 160
f 60 75 91
f 91 78 60
f 124 125 118
f 125 119 118
f 107 117 118
f 118 117 123
f 49 63 50
f 49 50 39
f 49 60 78
f 78 63 49

