# https://github.com/mikedh/trimesh
v -0.20873915 -0.11284964 0.12745196
v 0.13297692 0.12914376 0.15502687
v -0.14765120 0.12914272 0.15857224
v 0.03874901 -0.10373218 0.16338323
v -0.21948317 0.01715380 0.12965918
v 0.01388254 0.09180712 0.16466498
v 0.13657798 -0.03030098 0.16192892
v 0.12764268 -0.11311925 0.12607908
v -0.06432649 0.12949780 0.13609730
v 0.09208591 0.03847870 0.16421595
v -0.03943055 -0.11245359 0.15684982
v -0.18164299 -0.03972398 0.16499496
v -0.21960633 0.11313491 0.13902172
v 0.08852655 -0.06817815 0.16448228
v 0.04585857 0.12940772 0.13622540
v -0.22036906 -0.05751008 0.12835629
v 0.07788267 0.09180712 0.16428049
v -0.02523625 0.11314259 0.16355421
v -0.21271899 -0.08949305 0.16329786
v 0.09208521 -0.11057520 0.16034837
v -0.16740552 0.09180712 0.16487406
v -0.16169001 -0.07708679 0.16569215
v 0.13708448 -0.09662290 0.16262169
v -0.18873772 0.12481147 0.16184570
v 0.08498053 0.12944648 0.13638751
v -0.21545719 -0.00416344 0.16214404
v -0.21885704 -0.02001746 0.12651560
v -0.17807789 -0.11371714 0.12557390
v -0.17098890 0.13011162 0.13902040
v -0.19585663 -0.11264240 0.15862548
v 0.04944198 0.09180712 0.16447046
v 0.09208591 0.06691229 0.16414323
v -0.03590803 0.12950408 0.13614696
v -0.21008369 0.10602393 0.16283429
v -0.19940735 0.12963083 0.13629338
v -0.22078516 -0.08992513 0.12835629
v -0.21544535 0.09003945 0.13368900
v 0.12764268 -0.11267386 0.14924195
v 0.12054595 0.12950723 0.13662544
v -0.21007699 0.12825970 0.15679432
v 0.11341299 -0.10711618 0.16262923
v -0.21558845 -0.10922669 0.15571128
v -0.21901180 0.03365055 0.13011366
v 0.12054595 0.12258771 0.16227710
v -0.21386859 0.12843190 0.13902172
v -0.19230758 -0.11406328 0.12835616
v -0.15676272 0.12965702 0.13632737
v -0.21855463 0.11669134 0.15679617
v 0.13728538 -0.10828774 0.13546638
v -0.19584623 0.10602393 0.16394870
v -0.22059752 -0.10373212 0.13190931
v 0.13332663 0.11668137 0.16237888
v 0.12764268 -0.10699756 0.16258399
v -0.20476274 -0.10373212 0.16378422
v -0.19940735 0.12966225 0.14968528
v -0.16031927 0.12736413 0.16004425
v 0.08852655 0.08468843 0.16417778
v -0.20296496 0.12026129 0.16278338
v -0.21899030 -0.09550761 0.15508997
v 0.13718493 -0.11009350 0.15679327
v 0.13307855 0.12922546 0.14350702
v -0.19230758 -0.10373218 0.16387710
v -0.22017956 0.00648447 0.13191269
v -0.20553724 -0.11265993 0.15585558
v 0.08140782 -0.07527626 0.16455136
v -0.21365221 -0.10017858 0.16315490
v -0.21598224 0.12613949 0.14968336
v -0.21720831 -0.11017291 0.12551188
v -0.21200767 0.12026130 0.16216990
v -0.19585082 0.12914062 0.15856440
v -0.21904969 0.12217599 0.14162369
v -0.20652044 0.12980366 0.14257623
v -0.21984400 -0.08238376 0.12534527
v -0.21698815 0.10957846 0.16007231
v -0.21918392 0.11313491 0.14968336
v 0.13121559 0.12418822 0.16149797
v 0.12054458 -0.10373218 0.16317965
v 0.12765905 0.13096215 0.14968528
v -0.17806812 0.12966539 0.13632999
v 0.12764268 -0.11184844 0.15679327
v -0.21142629 -0.10882645 0.16199246
v -0.20296390 0.12726253 0.16002072
v 0.13477425 -0.11315556 0.12839009
v 0.13474077 -0.10373218 0.16294968
v -0.21641335 0.12397563 0.15673178
v -0.20295472 -0.11391804 0.13191126
v -0.20654315 -0.09662272 0.16392051
v -0.21901546 -0.10208721 0.15199147
v -0.20933181 0.12931031 0.14968528
v -0.19585082 0.12302659 0.16239999
v -0.18520948 -0.11370504 0.12553620
v -0.21008369 0.11314259 0.16277702
v 0.12765905 0.12950408 0.13677709
v -0.16387580 0.13011685 0.13902040
v -0.22068411 -0.09662272 0.13190931
v -0.21992378 -0.10373212 0.12527539
v -0.21745479 -0.08594020 0.16034879
v -0.19940569 -0.10728804 0.16328144
v 0.12410251 0.12717663 0.15992136
v 0.09771012 -0.10906959 0.16213159
v -0.19230758 -0.10966022 0.16249351
v -0.20652044 0.12952922 0.13659929
v -0.21478528 0.10246558 0.16188271
v -0.21892574 -0.09167182 0.12298658
v 0.12764268 -0.11382364 0.13191126
v -0.20476273 -0.10953193 0.16242188
v -0.21732056 0.12367570 0.13635157
v -0.03414046 -0.11262061 0.15501383
v 0.13320062 -0.11264966 0.14858975
v -0.21746017 -0.09662272 0.16034901
v 0.12765905 0.12965491 0.15640475
v -0.21899049 0.11849100 0.15163769
v -0.21663845 -0.10397041 0.16066968
v 0.12765905 0.12026130 0.16250719
v -0.21193995 0.12918462 0.14499472
v -0.21009925 -0.11190110 0.15323809
v 0.13119173 -0.11045175 0.16015233
v -0.21009925 -0.10373212 0.16350363
v -0.19940560 0.10246457 0.16387416
v -0.20296390 0.12949675 0.15324111
v -0.21945947 0.11669134 0.14257812
v -0.20652433 0.11668137 0.16290700
v -0.21855265 -0.10017858 0.15679355
v -0.21667311 0.12024779 0.15976931
v -0.20652044 0.12456322 0.16174634
v -0.22064003 -0.10728797 0.12835385
v -0.21637070 0.12650371 0.14257812
v -0.20174938 -0.11263513 0.15861040
f 61 93 78
f 49 61 7
f 83 8 93
f 83 61 49
f 93 61 83
f 52 7 61
f 28 91 8
f 55 120 78
f 72 120 55
f 89 120 72
f 72 115 89
f 40 120 89
f 89 115 40
f 13 63 36
f 2 61 78
f 2 52 61
f 7 52 23
f 49 7 23
f 22 77 65
f 65 6 22
f 22 6 21
f 18 21 6
f 50 21 18
f 22 21 12
f 8 83 105
f 105 28 8
f 107 35 37
f 73 96 36
f 93 8 39
f 39 47 94
f 78 93 39
f 39 94 78
f 29 35 72
f 72 55 29
f 29 55 78
f 78 94 29
f 72 35 102
f 102 115 72
f 102 45 115
f 102 35 107
f 107 45 102
f 127 45 107
f 115 45 127
f 123 48 59
f 59 88 123
f 95 13 36
f 88 59 51
f 59 95 51
f 8 91 104
f 96 73 104
f 104 39 8
f 27 39 104
f 1 86 116
f 13 95 121
f 63 13 5
f 27 104 5
f 5 104 73
f 10 57 14
f 14 57 17
f 17 65 14
f 14 65 84
f 84 65 77
f 84 10 14
f 84 77 53
f 84 23 52
f 53 117 84
f 38 80 11
f 117 80 109
f 109 80 38
f 38 105 109
f 109 105 83
f 78 120 70
f 70 120 40
f 40 82 70
f 34 103 19
f 48 97 74
f 26 74 97
f 103 74 26
f 94 47 79
f 35 29 79
f 79 29 94
f 15 27 9
f 27 37 9
f 9 37 35
f 35 79 9
f 9 79 47
f 25 27 15
f 25 39 27
f 71 127 107
f 71 121 112
f 107 13 71
f 13 121 71
f 127 71 67
f 40 115 67
f 115 127 67
f 75 95 59
f 75 48 112
f 75 59 48
f 112 121 75
f 75 121 95
f 91 1 68
f 68 104 91
f 96 104 68
f 68 116 42
f 1 116 68
f 46 1 91
f 46 86 1
f 91 28 46
f 28 105 46
f 105 86 46
f 64 86 128
f 64 116 86
f 43 13 107
f 43 5 13
f 27 5 43
f 107 37 43
f 43 37 27
f 36 63 16
f 63 5 16
f 16 73 36
f 16 5 73
f 30 101 128
f 30 11 80
f 128 86 30
f 30 86 105
f 81 64 128
f 42 116 81
f 116 64 81
f 101 30 20
f 20 80 117
f 20 30 80
f 53 77 41
f 87 34 19
f 22 12 87
f 54 118 98
f 98 62 54
f 54 87 118
f 54 62 22
f 22 87 54
f 52 57 32
f 57 10 32
f 32 84 52
f 10 84 32
f 60 84 117
f 117 109 60
f 49 23 60
f 23 84 60
f 60 83 49
f 60 109 83
f 52 2 76
f 111 2 78
f 78 70 111
f 111 76 2
f 99 76 111
f 56 70 82
f 6 65 31
f 65 17 31
f 39 25 33
f 47 39 33
f 33 9 47
f 15 9 33
f 33 25 15
f 96 68 126
f 36 96 126
f 126 68 42
f 126 95 36
f 126 51 95
f 42 88 126
f 88 51 126
f 38 11 108
f 11 30 108
f 108 105 38
f 108 30 105
f 106 101 98
f 98 118 106
f 118 81 106
f 128 101 106
f 106 81 128
f 42 81 113
f 123 88 113
f 113 88 42
f 101 20 100
f 98 101 100
f 100 41 98
f 100 20 117
f 100 117 53
f 53 41 100
f 4 62 98
f 98 41 4
f 4 41 77
f 4 77 22
f 22 62 4
f 119 87 12
f 119 21 50
f 119 12 21
f 34 87 119
f 50 122 119
f 52 76 114
f 114 76 44
f 114 57 52
f 114 17 57
f 114 31 17
f 6 31 114
f 114 18 6
f 114 44 18
f 24 90 44
f 44 76 24
f 24 76 99
f 99 56 24
f 24 56 82
f 3 56 99
f 70 56 3
f 99 111 3
f 3 111 70
f 125 24 82
f 90 24 125
f 125 82 40
f 123 113 110
f 110 48 123
f 110 97 48
f 110 26 97
f 124 74 103
f 103 69 124
f 48 74 124
f 124 125 40
f 124 69 125
f 103 34 92
f 92 69 103
f 122 69 92
f 34 119 92
f 92 119 122
f 90 125 58
f 125 69 58
f 58 69 122
f 58 122 50
f 50 18 58
f 18 44 58
f 44 90 58
f 66 110 113
f 26 110 66
f 66 87 19
f 118 87 66
f 66 81 118
f 66 113 81
f 19 103 66
f 103 26 66
f 112 48 85
f 48 124 85
f 85 71 112
f 85 67 71
f 40 67 85
f 85 124 40

