# https://github.com/mikedh/trimesh
v 0.07477224 -0.07047090 -0.09917698
v 0.07477224 -0.07033717 -0.09740020
v 0.07477224 -0.07032689 -0.10093096
v 0.07670555 -0.07028574 -0.09917698
v 0.07660477 -0.07026517 -0.09752549
v 0.07653346 -0.07024458 -0.10081707
v 0.07477224 -0.06908216 -0.10245716
v 0.07782181 -0.06756998 -0.10412005
v 0.07823111 -0.06983311 -0.09917698
v 0.07995977 -0.06788888 -0.09672822
v 0.07973032 -0.06738481 -0.10398336
v 0.08030861 -0.06793002 -0.10222938
v 0.07637531 -0.06410328 -0.10683075
v 0.08048069 -0.06831063 -0.09917698
v 0.08203571 -0.06548173 -0.09929087
v 0.08186982 -0.06548173 -0.10209270
v 0.07756445 -0.06265281 -0.10751413
v 0.07840940 -0.06372266 -0.10663713
v 0.07972411 -0.06168584 -0.10724077
v 0.08029930 -0.06561546 -0.10456423
v 0.07502805 -0.06273511 -0.10763942
v 0.08243881 -0.06438102 -0.10097653
v 0.08243881 -0.06438102 -0.10038427
v 0.07477224 -0.05950501 -0.10884670
v -0.07171863 -0.07146962 -0.09613055
v -0.07171863 -0.07194151 -0.09918518
v -0.07171863 -0.07080898 -0.10135033
v -0.07485220 -0.07098725 -0.09587307
v -0.07477115 -0.07166886 -0.09918518
v -0.07477115 -0.07074606 -0.10129182
v -0.07477115 -0.06440177 -0.10726063
v -0.07592463 -0.07011687 -0.09467930
v -0.07709971 -0.07070411 -0.09671573
v -0.07749141 -0.07081947 -0.09918518
v -0.07708891 -0.07051536 -0.10105775
v -0.07685930 -0.06434934 -0.10719042
v -0.07477115 -0.06255616 -0.10862995
v -0.07981998 -0.06793570 -0.09689128
v -0.07901768 -0.06990714 -0.09918518
v -0.07983618 -0.06799861 -0.10140885
v -0.07789931 -0.06868023 -0.10225151
v -0.07889342 -0.06372015 -0.10640628
v -0.07785339 -0.06265054 -0.10791604
v -0.07477115 -0.06032255 -0.10970668
v -0.07171863 -0.06055325 -0.10975350
v -0.08006850 -0.06837613 -0.09918518
v -0.07967681 -0.06168579 -0.10740108
v -0.05340073 -0.07101901 -0.10142455
v 0.02593451 -0.07061794 -0.10120257
v -0.05316299 -0.07262331 -0.09890098
v -0.05183162 -0.07325658 -0.09768593
v -0.05198615 -0.07325658 -0.09768593
v -0.05183162 -0.07325658 -0.09763920
v -0.05198615 -0.07325658 -0.09763920
v 0.10991125 0.07026444 -0.13883869
v 0.10991125 0.06992141 -0.13883869
v 0.10988973 0.07023353 -0.14106442
v 0.10825397 0.07151732 -0.14494440
v 0.10834005 0.07155412 -0.13883869
v 0.10719933 0.07075470 0.02899291
v 0.10711323 0.07063398 0.04727994
v 0.10788807 0.06824012 0.14494109
v 0.10907184 0.06561659 0.13579758
v 0.10988973 0.07006275 -0.14106442
v 0.10930859 0.06561659 0.03203072
v 0.10881357 0.06866707 -0.14801228
v 0.10767283 0.07133771 -0.15105011
v 0.10810330 0.07153498 -0.14801228
v 0.10564964 0.07306170 -0.14801228
v 0.10407844 0.07334289 -0.03507184
v 0.10528376 0.07206499 0.03203072
v 0.10528376 0.07178085 0.04727994
v 0.10528376 0.06967408 0.14494109
v 0.10528376 0.06943852 0.14800897
v 0.10756522 0.06801929 0.14800897
v 0.10872747 0.06561659 0.14494109
v 0.10894270 0.06561659 0.14190328
v 0.10924403 0.06866707 -0.14494440
v 0.10771589 0.06860965 -0.15102002
v 0.10717781 0.06958869 -0.15288483
v 0.10717781 0.07084156 -0.15288483
v 0.10519766 0.07275841 -0.15092979
v 0.10414302 0.07331198 -0.14981693
v 0.10407844 0.07334289 -0.03813973
v 0.10222745 0.07338558 -0.03813973
v 0.10403540 0.07333554 -0.03203403
v 0.10222745 0.07267597 0.03506853
v 0.10397083 0.07331198 -0.02896614
v 0.10222745 0.07261561 0.03813642
v 0.10222745 0.07242274 0.04727994
v 0.10222745 0.07115956 0.10223125
v 0.10222745 0.07000533 0.14800897
v 0.10222745 0.07235502 0.05034783
v 0.10222745 0.06855518 0.15068586
v 0.10528376 0.06816651 0.15029486
v 0.10709171 0.06758203 0.14987378
v 0.10801720 0.06561659 0.14800897
v 0.10765131 0.06334199 0.14494109
v 0.10726389 0.06363349 0.14800897
v 0.10528376 0.06916027 -0.15312544
v 0.10528376 0.07121404 -0.15312544
v 0.10222745 0.07279816 -0.15129071
v -0.02592197 0.07331492 -0.14966655
v -0.00151460 0.07332376 -0.14966655
v 0.00152017 0.07338853 -0.14801228
v 0.10222745 0.07337381 -0.03507184
v -0.02592197 0.07331492 -0.14894468
v 0.10222745 0.07335762 -0.03203403
v 0.10222745 0.07272014 0.03203072
v -0.10527819 0.07029683 0.05338564
v 0.09917115 0.07001416 0.14800897
v 0.09917115 0.06856990 0.15080617
v 0.09611485 0.06647933 0.15234011
v 0.09942943 0.06565192 0.15237018
v 0.10222745 0.06561659 0.15188895
v 0.10528376 0.06561659 0.15086631
v 0.10713475 0.06561659 0.14990385
v 0.10694104 0.06392499 0.14969331
v 0.09359662 0.06657502 -0.15282467
v 0.09611485 0.06668986 -0.15276451
v 0.10222745 0.06889527 -0.15327582
v 0.10222745 0.07127292 -0.15327582
v -0.05035086 0.07267597 -0.15105011
v 0.09917115 0.07126556 -0.15333597
v -0.05644194 0.07131415 -0.15327582
v -0.05340715 0.07264946 -0.15105011
v -0.03106603 0.07325897 -0.14957631
v -0.03106603 0.07325897 -0.14939585
v -0.10527819 0.07050148 0.03813642
v -0.10527819 0.07033953 0.05034783
v -0.10691395 0.07024825 0.05338564
v -0.10684937 0.07021733 0.05528051
v -0.01066199 0.06866413 0.14494109
v -0.01371829 0.06851248 0.14800897
v -0.02288719 0.06770422 0.15032493
v -0.01983089 0.06772631 0.15035501
v -0.10527819 0.06940319 0.08391415
v 0.09611485 0.06853604 0.15080617
v -0.01983089 0.06602882 0.15188895
v 0.08696746 0.06657649 0.15231003
v 0.09002377 0.06657208 0.15231003
v 0.09308008 0.06652644 0.15234011
v 0.09002377 0.06504684 0.15300183
v 0.09308008 0.06500120 0.15294167
v 0.09611485 0.06495409 0.15288152
v 0.09859002 0.06465817 0.15276121
v 0.09859002 0.06381457 0.15276121
v 0.10528376 0.06358491 0.15011439
v 0.10222745 0.06325071 0.15071593
v -0.06561084 0.06621874 -0.15318559
v 0.09611485 0.06866707 -0.15345629
v -0.06561084 0.06866707 -0.15390745
v -0.06866714 0.07113012 -0.15327582
v -0.06561084 0.07233883 -0.15105011
v -0.10527819 0.07051767 0.03506853
v -0.10693547 0.07025708 0.05034783
v -0.10988417 0.06719042 0.08887691
v -0.10859277 0.06798837 0.08992962
v -0.10527819 0.06928835 0.08695196
v -0.10811925 0.06808112 0.09305766
v -0.10796859 0.06799867 0.09612556
v -0.01371829 0.06862143 0.14494109
v -0.01677459 0.06845801 0.14800897
v -0.06731118 0.06714477 0.14954291
v -0.08390561 0.06400450 0.15252057
v -0.02288719 0.06600968 0.15185888
v -0.05340715 0.06429894 0.15276121
v -0.04423825 0.06435341 0.15279126
v 0.02898384 0.06470675 0.15297174
v 0.06559488 0.06486133 0.15303190
v 0.07476379 0.06491875 0.15303190
v 0.07782009 0.06493642 0.15303190
v 0.08696746 0.06505273 0.15300183
v 0.09002377 0.06358491 0.15300183
v 0.08085486 0.06495261 0.15303190
v 0.09308008 0.06364527 0.15294167
v 0.09611485 0.06367324 0.15288152
v 0.09611485 0.06263384 0.15104678
v 0.09942943 0.06314324 0.15134756
v -0.09169702 0.06712858 -0.15258405
v -0.09169702 0.06731997 -0.15258405
v -0.08909270 0.07027622 -0.15264420
v -0.08696190 0.07036014 -0.15273444
v -0.06866714 0.07224607 -0.15105011
v -0.10222188 0.07078562 -0.01067911
v -0.10695699 0.07028653 0.03506853
v -0.10463250 0.07057803 -0.01371693
v -0.10988417 0.06719042 0.08749335
v -0.10997026 0.06591251 0.08668127
v -0.10986264 0.06409577 0.13435386
v -0.10801163 0.06516609 0.14190328
v -0.10783946 0.06510425 0.14494109
v -0.10527819 0.06914702 0.09001985
v -0.07781453 0.06716980 0.14677581
v -0.10527819 0.06632768 0.14494109
v -0.07475822 0.06720808 0.14722696
v -0.01983089 0.06838882 0.14800897
v -0.06935588 0.06711975 0.14936246
v -0.10222188 0.06617752 0.14800897
v -0.10222188 0.06495556 0.15056555
v -0.09916557 0.06504536 0.15068586
v -0.08390561 0.06533098 0.15098663
v -0.09916557 0.06353338 0.15221980
v -0.09613080 0.06211856 0.15315221
v -0.08696190 0.06235412 0.15333267
v -0.08390561 0.06247926 0.15336275
v 0.08085486 0.06348480 0.15303190
v -0.08390561 0.06022232 0.15336275
v -0.06866714 0.06035040 0.15330260
v -0.06866714 0.06256465 0.15333267
v -0.09916557 0.06561659 -0.15080948
v -0.09916557 0.06866707 -0.15168172
v -0.10527819 0.06637185 -0.15002747
v -0.09613080 0.06866707 -0.15204264
v -0.10222188 0.07043375 -0.15014778
v -0.09916557 0.07054270 -0.15056886
v -0.09916557 0.07085334 -0.14801228
v -0.09613080 0.07102560 -0.14801228
v -0.09307449 0.07117281 -0.14801228
v -0.10222188 0.07065900 -0.14801228
v -0.10450334 0.07037192 -0.14801228
v -0.10611760 0.07006569 -0.14190659
v -0.10801163 0.06851837 -0.13883869
v -0.10889410 0.06561659 -0.13580088
v -0.10994872 0.06381311 0.08695196
v -0.10994872 0.06385727 0.09001985
v -0.10986264 0.06405308 0.13435386
v -0.10915237 0.06256465 0.14190328
v -0.10882952 0.06256465 0.14494109
v -0.10736594 0.06467731 0.14800897
v -0.10527819 0.06567548 0.14800897
v -0.10222188 0.06656766 0.14494109
v -0.07942877 0.06714477 0.14650512
v -0.07475822 0.06704172 0.14876091
v -0.07170192 0.06708736 0.14909177
v -0.09916557 0.06629677 0.14800897
v -0.10527819 0.06458603 0.15008432
v -0.10222188 0.06325366 0.15209949
v -0.09916557 0.06200814 0.15303190
v -0.09613080 0.06032685 0.15315221
v -0.08696190 0.06024735 0.15333267
v -0.10222188 0.06866707 -0.15095986
v -0.10700005 0.06680763 -0.14972669
v -0.10420203 0.07031303 -0.14972669
v -0.10613912 0.07000386 -0.14494440
v -0.10794707 0.06853899 -0.14190659
v -0.10878649 0.06561659 -0.13883869
v -0.10966893 0.06284732 0.13555695
v -0.10943218 0.06256465 0.13883539
v -0.10779640 0.06008393 0.14494109
v -0.10734442 0.06046082 0.14800897
v -0.10695699 0.06088335 0.14969331
v -0.10790402 0.06256465 0.14800897
v -0.10693547 0.06422533 0.14963315
v -0.10396526 0.06136477 0.15273111
v -0.10222188 0.06172842 0.15288152
v -0.09916557 0.06042549 0.15303190
v -0.09916557 0.05932278 0.15104678
v -0.10700005 0.06767625 -0.14972669
v -0.10523513 0.06868327 -0.15005754
v -0.10734442 0.06572112 -0.14783183
v -0.10814077 0.06561659 -0.14494440
v -0.10857123 0.06561659 -0.14190659
v -0.10603150 0.06971088 -0.14801228
v -0.10777488 0.06847862 -0.14494440
v -0.10510600 0.06043432 0.15086631
v -0.10396526 0.06083771 0.15273111
v -0.10700005 0.06256465 0.14975347
v -0.10222188 0.06061246 0.15288152
v -0.10222188 0.05958043 0.15104678
v -0.10736594 0.06818417 -0.14801228
f 180 45 44
f 262 40 46
f 261 40 262
f 262 243 261
f 261 243 40
f 40 243 47
f 44 243 213
f 224 225 189
f 224 46 225
f 107 85 105
f 85 83 105
f 128 129 107
f 125 124 152
f 10 14 118
f 118 5 10
f 2 5 178
f 178 53 2
f 111 110 137
f 57 68 58
f 58 59 55
f 55 57 58
f 69 59 58
f 58 68 69
f 225 46 248
f 164 199 200
f 137 110 132
f 11 6 8
f 14 16 15
f 45 180 150
f 150 180 152
f 13 11 8
f 31 13 8
f 184 182 216
f 152 180 181
f 181 182 152
f 40 47 42
f 211 180 44
f 44 213 211
f 211 213 180
f 223 224 188
f 189 157 188
f 188 224 189
f 263 265 262
f 262 46 263
f 246 224 223
f 223 222 246
f 262 265 271
f 264 271 265
f 70 59 69
f 85 86 70
f 90 110 93
f 107 129 109
f 129 130 109
f 109 130 110
f 62 63 55
f 62 77 63
f 82 83 69
f 153 125 152
f 66 16 79
f 14 10 9
f 9 10 5
f 1 53 51
f 1 2 53
f 5 2 1
f 118 14 99
f 14 15 99
f 99 15 98
f 189 225 226
f 225 248 226
f 178 174 209
f 209 174 208
f 209 53 178
f 208 53 209
f 208 174 207
f 177 174 178
f 190 191 157
f 190 157 189
f 199 232 195
f 236 232 199
f 236 234 232
f 234 236 198
f 198 199 164
f 198 236 199
f 194 234 196
f 232 234 194
f 160 132 158
f 110 130 131
f 131 132 110
f 131 130 129
f 157 158 131
f 131 158 132
f 80 81 66
f 66 79 80
f 80 79 16
f 22 15 16
f 22 16 66
f 66 78 22
f 54 53 208
f 119 24 45
f 45 150 119
f 45 24 21
f 13 31 37
f 45 21 37
f 37 21 13
f 44 45 37
f 8 6 3
f 3 1 51
f 6 1 3
f 184 216 215
f 244 220 215
f 215 216 182
f 221 220 244
f 184 218 219
f 219 185 184
f 218 185 219
f 129 128 155
f 155 131 129
f 217 185 218
f 220 185 217
f 217 215 220
f 217 218 184
f 184 215 217
f 41 35 40
f 40 42 41
f 41 42 35
f 35 42 36
f 36 37 31
f 224 246 247
f 46 224 247
f 247 263 46
f 265 263 247
f 247 246 265
f 259 264 244
f 271 264 259
f 259 243 262
f 262 271 259
f 245 264 265
f 265 246 245
f 245 246 222
f 222 221 245
f 244 264 245
f 245 221 244
f 69 83 84
f 84 70 69
f 84 83 85
f 85 70 84
f 107 109 108
f 87 109 110
f 73 90 93
f 77 62 76
f 76 99 98
f 76 15 77
f 98 15 76
f 55 59 60
f 101 82 81
f 69 68 67
f 67 82 69
f 81 82 67
f 66 81 67
f 67 57 66
f 67 68 57
f 183 182 184
f 184 153 183
f 152 182 183
f 183 153 152
f 125 153 126
f 126 123 125
f 123 126 103
f 107 105 103
f 83 82 102
f 102 103 83
f 123 103 102
f 125 123 102
f 124 125 102
f 82 101 102
f 4 9 5
f 6 9 4
f 5 1 4
f 4 1 6
f 6 11 12
f 12 9 6
f 14 9 12
f 12 16 14
f 12 11 16
f 133 111 137
f 133 134 111
f 39 34 33
f 39 46 40
f 40 35 39
f 35 34 39
f 174 177 176
f 168 206 169
f 167 206 168
f 169 206 170
f 208 207 210
f 210 206 208
f 164 200 201
f 201 202 164
f 200 203 201
f 227 226 248
f 189 226 227
f 227 190 189
f 252 253 229
f 191 190 192
f 190 229 192
f 157 191 192
f 192 158 157
f 193 195 232
f 196 234 235
f 235 198 196
f 234 198 235
f 163 194 196
f 164 134 163
f 163 198 164
f 186 222 223
f 223 188 186
f 186 221 222
f 186 188 157
f 55 63 56
f 63 65 56
f 65 22 56
f 64 22 78
f 66 57 64
f 64 78 66
f 64 56 22
f 77 15 23
f 15 22 23
f 63 77 23
f 23 65 63
f 23 22 65
f 267 33 32
f 33 34 29
f 29 34 35
f 151 150 152
f 151 119 150
f 152 124 151
f 17 21 24
f 17 121 100
f 24 121 17
f 100 80 17
f 80 19 17
f 13 21 17
f 11 13 17
f 7 49 8
f 8 3 7
f 7 3 49
f 51 52 50
f 50 3 51
f 49 3 50
f 49 50 48
f 48 31 8
f 8 49 48
f 187 185 220
f 187 155 185
f 220 221 187
f 221 186 187
f 187 186 155
f 43 42 47
f 43 36 42
f 44 37 43
f 37 36 43
f 43 243 44
f 43 47 243
f 212 215 182
f 212 181 180
f 180 213 212
f 212 213 243
f 106 86 85
f 106 108 86
f 106 85 107
f 107 108 106
f 110 90 89
f 89 87 110
f 91 73 93
f 93 110 91
f 110 111 91
f 109 87 88
f 86 108 88
f 88 108 109
f 118 99 97
f 99 76 97
f 62 73 74
f 61 62 55
f 55 60 61
f 184 185 154
f 154 153 184
f 154 126 153
f 154 155 128
f 185 155 154
f 127 103 126
f 127 154 128
f 126 154 127
f 104 105 83
f 83 103 104
f 104 103 105
f 241 54 208
f 137 134 162
f 162 133 137
f 134 133 162
f 178 5 179
f 5 149 179
f 148 5 118
f 148 149 5
f 167 168 140
f 140 168 169
f 169 170 140
f 206 210 175
f 175 210 207
f 238 203 200
f 200 237 238
f 165 206 167
f 203 204 165
f 202 201 165
f 165 201 203
f 164 202 165
f 268 252 267
f 254 253 268
f 268 253 252
f 266 33 267
f 267 252 266
f 266 252 33
f 46 39 38
f 190 227 228
f 228 229 190
f 250 228 46
f 229 228 250
f 195 192 231
f 254 237 231
f 199 195 231
f 231 200 199
f 231 237 200
f 161 192 195
f 195 193 161
f 160 158 161
f 158 192 161
f 161 132 160
f 232 194 233
f 233 193 232
f 194 193 233
f 196 198 197
f 197 163 196
f 198 163 197
f 159 193 194
f 194 163 159
f 137 132 159
f 159 134 137
f 159 163 134
f 132 161 159
f 159 161 193
f 131 155 156
f 155 186 156
f 157 131 156
f 156 186 157
f 11 19 20
f 20 19 80
f 16 11 20
f 20 80 16
f 25 54 258
f 52 54 26
f 26 50 52
f 54 25 26
f 26 25 29
f 24 119 120
f 120 121 24
f 119 151 120
f 120 151 121
f 124 102 122
f 122 102 101
f 122 151 124
f 121 151 122
f 18 19 11
f 11 17 18
f 18 17 19
f 182 181 214
f 214 212 182
f 181 212 214
f 244 215 242
f 215 212 242
f 243 259 242
f 242 212 243
f 87 89 72
f 90 73 72
f 72 89 90
f 72 73 62
f 62 61 72
f 94 74 92
f 92 74 73
f 92 91 111
f 73 91 92
f 62 74 75
f 75 74 96
f 75 76 62
f 75 97 76
f 96 97 75
f 96 74 95
f 95 74 94
f 239 204 203
f 239 238 256
f 203 238 239
f 206 165 205
f 205 165 204
f 240 257 258
f 54 241 240
f 258 54 240
f 167 140 139
f 138 136 139
f 143 144 113
f 114 94 113
f 171 170 206
f 171 140 170
f 173 175 143
f 255 237 254
f 255 238 237
f 255 268 267
f 254 268 255
f 256 238 255
f 117 116 118
f 96 116 117
f 118 97 117
f 117 97 96
f 249 227 248
f 249 228 227
f 249 248 46
f 46 228 249
f 252 229 251
f 229 250 251
f 251 39 33
f 33 252 251
f 251 38 39
f 46 38 251
f 251 250 46
f 254 231 230
f 230 231 192
f 230 192 229
f 230 253 254
f 230 229 253
f 270 269 267
f 270 25 258
f 257 269 270
f 258 257 270
f 27 48 50
f 50 26 27
f 31 48 27
f 260 259 244
f 244 242 260
f 260 242 259
f 71 88 87
f 87 72 71
f 86 88 71
f 71 70 86
f 71 72 61
f 71 61 60
f 59 70 71
f 71 60 59
f 114 146 115
f 115 94 114
f 115 95 94
f 115 116 96
f 96 95 115
f 118 116 147
f 147 148 118
f 116 115 147
f 147 115 146
f 149 148 147
f 147 179 149
f 147 177 178
f 178 179 147
f 166 165 167
f 167 139 166
f 166 139 136
f 143 113 142
f 142 173 143
f 140 173 142
f 145 113 144
f 145 146 114
f 114 113 145
f 206 175 172
f 172 171 206
f 140 171 172
f 172 173 140
f 175 173 172
f 267 32 28
f 28 270 267
f 25 270 28
f 28 32 33
f 33 29 28
f 29 25 28
f 30 27 26
f 30 29 35
f 30 26 29
f 35 36 30
f 30 36 31
f 31 27 30
f 135 166 136
f 165 166 135
f 164 165 135
f 135 134 164
f 111 134 135
f 135 136 111
f 140 142 141
f 112 142 113
f 112 113 94
f 112 141 142
f 94 92 112
f 140 141 112
f 112 92 111
f 138 139 112
f 112 139 140
f 111 136 112
f 112 136 138
f 51 53 54
f 54 52 51
f 81 80 101
f 101 80 100
f 55 56 64
f 64 57 55
f 107 103 127
f 127 128 107
f 174 176 144
f 144 143 174
f 174 143 175
f 175 207 174
f 122 101 100
f 100 121 122
f 239 269 257
f 256 269 239
f 205 241 208
f 208 206 205
f 240 239 257
f 204 239 240
f 241 205 240
f 240 205 204
f 255 269 256
f 267 269 255
f 145 144 176
f 145 176 177
f 177 147 145
f 145 147 146

