# https://github.com/mikedh/trimesh
v 0.03031045 -0.00758874 -0.04853722
v -0.02630984 -0.00408357 0.05457636
v -0.02896635 0.01609093 -0.01462631
v 0.03093867 0.00877741 0.01812778
v -0.01958895 -0.01746490 -0.05141215
v 0.01696033 -0.01216528 0.05424824
v -0.02163233 -0.01755961 0.01093642
v 0.01345057 0.02013792 -0.01930550
v 0.02366610 -0.01874789 -0.00994712
v -0.00124627 0.01757919 0.03165195
v 0.00058095 0.01046391 -0.05020270
v 0.00877464 -0.01688667 0.02163553
v -0.02595392 -0.01880152 -0.02047530
v -0.02810029 0.01289988 0.01647386
v -0.02815858 0.00946557 -0.04342184
v 0.00642967 -0.02105810 -0.04511375
v 0.03041119 -0.01168672 0.03280325
v -0.00993825 0.01913546 -0.02982046
v -0.00642781 0.02061647 -0.00526793
v 0.02280975 0.01379722 -0.04029577
v -0.00292202 0.00018343 0.05854717
v -0.03042934 -0.01172345 0.03216081
v 0.03032867 0.01360332 -0.00409813
v 0.02397491 0.00637743 0.04501887
v 0.02397585 -0.02006801 -0.03216005
v 0.02829641 -0.01537597 0.01227825
v 0.01111230 -0.00524965 -0.05829215
v -0.01111037 -0.01607735 0.03449391
v -0.01539221 0.00124782 -0.05617065
v 0.00000499 -0.01518552 0.04842225
v 0.03001892 0.01345481 -0.02398469
v -0.03011880 0.00404206 0.03925365
v 0.00642967 0.01824850 -0.03449965
v -0.00408953 -0.01212253 -0.05636232
v -0.02280181 0.01821550 0.00057445
v -0.02801889 -0.01866951 -0.03683925
v -0.03025999 -0.00524965 -0.04970703
v 0.03112740 -0.00759032 0.04852663
v -0.01578788 -0.01487726 0.04969849
v -0.02824968 -0.01651606 -0.00526793
v 0.01228314 0.00252389 0.05627516
v 0.02163757 0.00456050 -0.05253569
v -0.02630011 0.01620644 -0.02984029
v -0.01344263 0.01314128 -0.04488243
v 0.02163757 -0.02006388 -0.04744013
v 0.01425834 0.01991928 -0.00436910
v -0.01461850 0.00578148 0.05128835
v -0.03187286 0.00059179 0.02397524
v 0.02280622 0.01684521 0.00877051
v 0.01228314 -0.01570454 0.04034024
v -0.01578091 0.02000179 -0.01696590
v -0.00759391 -0.02105397 -0.04595970
v -0.00175125 0.02087637 -0.01930550
v -0.02839385 -0.01311998 0.04501751
v 0.03188476 0.00059176 0.02865103
v -0.02163233 -0.01673455 0.02397524
v -0.00175125 0.00059188 -0.05804761
v 0.02163752 -0.01665811 0.02514328
v 0.03028615 0.00409845 -0.04385804
v 0.01194436 0.01290614 -0.04566230
v 0.00526474 -0.00876013 0.05785627
v -0.01461850 -0.00525152 0.05757888
v 0.02370862 0.01883843 -0.01345651
v 0.01929322 0.01799273 -0.02982046
v -0.00292066 -0.01681484 0.02280220
v -0.03065011 -0.01215919 0.01812771
v 0.02111526 -0.01054664 -0.05498103
v -0.01811918 -0.02019590 -0.03099026
v 0.02397491 -0.01542955 0.04151113
v 0.02332886 -0.00005823 0.05493700
v -0.00291736 0.01626419 -0.04065927
v 0.00992190 0.00517105 -0.05458448
v 0.01111230 -0.01548884 -0.05398306
v 0.00409140 0.02093825 -0.00877732
v 0.03158230 -0.00936530 0.02209798
v 0.02805720 -0.01635517 -0.00013271
v -0.02163571 -0.00757224 -0.05597899
v 0.03177587 -0.00057251 0.04034024
v -0.02940971 -0.01573636 -0.04732777
v -0.03054545 0.01236984 0.00518095
v 0.02808757 -0.01755153 -0.01958969
v -0.00525999 -0.01024110 0.05714215
v 0.02964844 -0.01694510 -0.04151844
v -0.02046353 0.00777417 -0.04988547
v 0.03083276 0.01111572 0.00642344
v -0.01776085 0.01641683 -0.03636340
v -0.02630984 0.00420993 0.04852701
v -0.00876608 0.00793918 -0.05237707
v -0.03033287 0.01352494 -0.00526793
v -0.01609673 0.01985740 -0.00643772
v -0.03176369 -0.00408357 0.04618898
v 0.03003714 0.01111572 -0.03332985
v -0.01929136 -0.02077345 -0.04034864
v -0.01227653 -0.00758874 -0.05764447
v -0.02163233 -0.01577019 0.03916997
v -0.00057908 0.01978727 -0.02865066
v 0.00058095 -0.01898716 -0.05182852
v 0.00877464 -0.01482598 0.05086840
v 0.02363858 0.01413094 0.01898873
v 0.01461667 0.01644984 -0.03761251
v 0.00877464 -0.01622240 0.03215877
v -0.02359747 0.01645373 0.00972557
v -0.02046353 -0.01880977 -0.00877732
v 0.02310127 0.01866516 -0.00409813
v 0.02626554 -0.00287756 -0.05471667
v -0.03015067 0.00994824 -0.03449965
v -0.02799460 0.00343839 -0.05022914
v 0.00760185 0.01993165 -0.02603349
v -0.01116509 -0.01705236 -0.05299832
v -0.01811918 0.01895394 -0.02515449
v 0.02506375 -0.01312599 0.05087824
v 0.00292530 -0.00775376 -0.05833180
v -0.02397108 -0.01245207 0.05223833
v -0.02808574 0.01054970 0.02462005
v -0.03191896 -0.00174410 0.03332736
v -0.03003528 0.01345481 -0.02281489
v 0.02208093 0.01869404 -0.02196894
v 0.02934896 0.00132390 0.04931869
v -0.00642968 0.00593654 0.05277318
v 0.02280622 -0.01609383 0.03332966
v -0.00759391 0.02083511 -0.01345651
v -0.03180008 -0.00759098 0.02514180
v -0.02704107 -0.01878914 -0.02865066
v 0.02046641 -0.01740096 0.01344914
v 0.01639413 -0.00470105 0.05730337
v 0.00058672 0.01925527 0.02397143
v 0.02825762 -0.01548059 -0.04931048
v 0.00526474 -0.00057798 0.05867277
f 10 102 87
f 74 126 46
f 46 126 104
f 35 102 10
f 10 126 35
f 126 90 35
f 115 80 48
f 102 35 14
f 91 80 115
f 2 87 91
f 17 75 38
f 111 38 70
f 111 17 38
f 77 5 79
f 82 39 98
f 113 39 82
f 19 126 74
f 19 90 126
f 99 126 10
f 10 24 99
f 118 99 24
f 70 38 118
f 118 24 70
f 45 25 16
f 45 73 127
f 81 25 83
f 83 45 127
f 25 45 83
f 83 17 81
f 75 17 83
f 98 39 30
f 30 39 95
f 127 73 67
f 27 105 67
f 67 105 127
f 1 105 59
f 127 105 1
f 1 83 127
f 75 83 1
f 1 59 55
f 55 75 1
f 47 87 2
f 2 21 47
f 10 87 47
f 128 21 61
f 32 91 87
f 32 14 80
f 80 91 32
f 98 111 6
f 6 82 98
f 61 82 6
f 81 17 26
f 80 14 3
f 3 14 35
f 71 18 96
f 43 3 110
f 59 20 92
f 92 20 31
f 104 23 63
f 23 31 63
f 63 46 104
f 16 68 93
f 36 79 93
f 93 79 5
f 107 77 37
f 77 79 37
f 48 106 37
f 15 106 43
f 107 37 15
f 15 37 106
f 84 44 88
f 107 15 84
f 84 15 44
f 86 18 71
f 71 44 86
f 43 110 86
f 86 110 18
f 86 15 43
f 44 15 86
f 72 105 27
f 27 57 72
f 72 57 88
f 29 77 107
f 107 84 29
f 88 57 29
f 29 84 88
f 61 21 62
f 62 82 61
f 62 21 2
f 2 113 62
f 113 82 62
f 104 126 49
f 126 99 49
f 49 23 104
f 78 118 38
f 78 75 55
f 38 75 78
f 99 118 4
f 23 49 4
f 4 49 99
f 118 78 4
f 4 78 55
f 52 45 16
f 16 93 52
f 52 93 5
f 28 30 95
f 94 5 77
f 77 29 94
f 94 29 57
f 73 34 112
f 27 67 112
f 112 67 73
f 34 94 112
f 112 57 27
f 112 94 57
f 97 34 73
f 73 45 97
f 97 52 5
f 45 52 97
f 10 47 119
f 119 47 21
f 70 128 125
f 125 128 61
f 61 6 125
f 125 111 70
f 125 6 111
f 114 32 87
f 14 32 114
f 114 87 102
f 102 14 114
f 36 93 123
f 123 93 13
f 66 79 36
f 36 22 66
f 54 13 95
f 54 123 13
f 95 39 54
f 54 39 113
f 91 22 54
f 54 113 2
f 2 91 54
f 50 28 101
f 30 28 50
f 9 58 124
f 16 25 124
f 124 25 9
f 124 68 16
f 58 50 124
f 101 12 124
f 124 50 101
f 81 26 76
f 76 25 81
f 17 111 69
f 69 26 17
f 69 111 98
f 69 76 26
f 98 30 69
f 30 50 69
f 9 25 69
f 25 76 69
f 80 3 89
f 89 48 80
f 89 106 48
f 43 106 116
f 116 3 43
f 106 89 116
f 116 89 3
f 108 96 53
f 53 96 18
f 51 3 35
f 51 110 3
f 51 35 90
f 18 110 51
f 51 53 18
f 71 96 33
f 33 100 71
f 33 96 108
f 31 20 117
f 117 63 31
f 13 93 7
f 105 72 42
f 59 105 42
f 42 20 59
f 71 100 60
f 60 100 20
f 20 42 60
f 60 42 72
f 85 4 55
f 23 4 85
f 85 31 23
f 85 92 31
f 55 59 85
f 59 92 85
f 65 12 101
f 101 28 65
f 109 97 5
f 34 97 109
f 5 94 109
f 109 94 34
f 41 128 70
f 70 24 41
f 21 128 41
f 41 119 21
f 41 24 10
f 10 119 41
f 122 22 91
f 122 66 22
f 122 91 115
f 79 66 122
f 122 37 79
f 115 48 122
f 48 37 122
f 36 123 40
f 123 54 40
f 40 22 36
f 40 54 22
f 120 58 9
f 9 69 120
f 120 50 58
f 120 69 50
f 121 19 74
f 74 53 121
f 53 51 121
f 90 19 121
f 121 51 90
f 64 33 108
f 100 33 64
f 20 100 64
f 64 117 20
f 8 53 74
f 108 53 8
f 63 117 8
f 8 64 108
f 117 64 8
f 74 46 8
f 46 63 8
f 95 13 56
f 13 7 56
f 56 28 95
f 103 93 68
f 103 7 93
f 68 124 103
f 103 65 28
f 103 124 12
f 12 65 103
f 28 56 103
f 103 56 7
f 71 60 11
f 11 44 71
f 88 44 11
f 11 72 88
f 11 60 72

