# https://github.com/mikedh/trimesh
v 0.05915944 -0.01818602 0.04958259
v -0.05744857 0.02931810 -0.09992012
v -0.05637453 0.02820175 0.10262541
v 0.05665336 -0.02893382 -0.08356036
v -0.05814150 -0.01310308 0.00248509
v 0.02166056 0.02880743 0.10104808
v -0.01284719 -0.02930792 -0.10014256
v 0.02460550 0.02857585 -0.10208389
v 0.05691897 -0.02950388 -0.01858644
v -0.05713675 -0.02901696 0.07364701
v -0.05830318 -0.01813258 -0.06445038
v 0.01826522 -0.02931980 0.09967297
v -0.05784123 0.02472801 0.04978481
v 0.05693053 0.03077291 -0.06079017
v 0.05825863 0.02823738 0.03378906
v 0.05777359 -0.00439201 0.09995609
v -0.05751786 0.02934185 0.01045264
v 0.05665336 0.00360649 -0.10228612
v -0.05384535 -0.02739588 -0.10042567
v -0.05523120 -0.00787763 0.10290853
v -0.05794517 -0.01448664 0.04153416
v 0.05706911 0.02933591 0.09801476
v -0.04108395 -0.02956326 -0.01984021
v -0.00768489 0.02965657 -0.10040545
v 0.05576410 -0.02961076 -0.05179128
v 0.04592454 -0.02965233 0.08468833
v 0.05780823 -0.02899321 0.01073575
v 0.05844342 0.02844521 0.06250457
v -0.04801322 0.00037621 -0.10054701
v -0.05697507 0.02919934 0.07575012
v 0.05087897 0.02933591 -0.10169967
v -0.04201940 -0.02921291 0.10153342
v -0.05782968 0.00144506 0.06017903
v 0.01052754 -0.02748495 -0.10220522
v -0.05795671 -0.02730087 -0.04323730
v 0.04431926 -0.02892789 -0.10271078
v -0.05746012 0.00436062 0.08559833
v 0.05806230 -0.02448625 0.09936965
v -0.05785277 -0.02821533 -0.01094245
v -0.05749477 -0.02916541 0.05340459
v -0.05703282 0.02939529 0.02923906
v -0.05779504 -0.02861317 -0.07959681
v -0.05802601 0.01086275 0.03821772
v -0.05711365 -0.02260984 0.09035055
v 0.05714995 -0.02957513 0.07083612
v -0.05758715 -0.00832298 0.07429412
v -0.05639763 0.01123090 0.10290853
v 0.05855890 0.01248383 0.09781254
v 0.04072759 -0.02889820 0.10021898
v 0.05672264 -0.01905891 -0.10171989
v 0.04442320 0.03057102 0.08877321
v -0.05836093 -0.01114947 -0.09921234
v -0.05717140 0.01937192 0.08897544
v -0.05096970 0.01576161 -0.10040545
v -0.05784123 -0.02735431 0.03453728
v -0.03985978 -0.02846472 -0.10083012
v -0.05830318 0.02866492 -0.08612858
v -0.05809530 -0.01228363 0.01617552
v 0.05619140 -0.02965826 -0.03830308
v -0.05577400 -0.02901102 0.10191765
v -0.05769110 0.02769702 0.06254502
v 0.05681504 -0.02968202 0.05536614
v 0.02763128 0.03086792 0.08972365
v -0.05776038 0.01391489 0.06365724
v 0.05698827 0.02626596 -0.09090102
v 0.05747332 -0.02927823 -0.00188290
v 0.05821244 -0.02861911 0.08563878
v -0.05795671 0.00263860 0.04802549
v -0.05791052 -0.02765122 -0.02305554
v 0.05531370 -0.02952763 -0.07160904
v -0.04435226 0.02880149 0.10266586
v 0.04550878 0.02849865 0.10042120
v -0.05828008 -0.01588801 -0.04564374
v 0.03502249 -0.02979484 0.08844966
v 0.03248176 0.02830864 0.10086609
v -0.05814150 -0.01985460 -0.09302435
v 0.05604127 -0.02918322 -0.09852479
v -0.05789897 0.01314888 0.05312148
v -0.05732154 -0.01224800 0.08895521
v -0.05672099 -0.01816821 0.10203898
v -0.05752941 -0.01908266 0.07496145
v 0.05672264 0.02131365 -0.10076945
v -0.05689423 -0.02924854 -0.08999102
v -0.05772574 0.00247233 -0.10012233
v 0.05671110 0.03064228 -0.07071926
v -0.05823388 -0.01915392 -0.08172014
v -0.05800291 -0.00481955 0.04129149
v -0.05653622 0.02916371 0.09326254
v 0.05189526 0.02185401 0.10021898
v 0.05684969 -0.02969389 0.04630660
v -0.05796827 -0.02729493 -0.07067882
v 0.05687278 -0.01322184 0.10007742
v -0.05629369 0.00242483 0.10294897
v -0.05758715 0.02919340 0.02056374
v -0.05720605 -0.02728306 0.08323233
v 0.03303610 0.02925872 -0.10198278
v -0.04991877 -0.02005649 -0.10052678
v -0.05852260 0.02115333 -0.09975833
v 0.05628379 0.01333890 -0.10277145
v -0.04917964 -0.02952763 -0.02050754
v 0.04877709 -0.02790655 0.10032009
v 0.00265127 -0.02907634 -0.10165922
v 0.05693053 -0.02428436 -0.09009212
v -0.05673255 0.02071985 0.10118964
v 0.05606437 -0.02955732 -0.05929372
v 0.05726544 -0.02912978 0.09358609
v 0.05795836 -0.02921885 0.07839923
v -0.05657086 -0.02905259 0.09360632
v 0.04374182 0.02890244 -0.10244789
v -0.05799136 0.01779241 0.03977483
v -0.05006890 -0.00091234 0.10290853
v -0.05155870 0.01646823 0.10305009
v 0.05649167 -0.02959888 -0.03154887
v 0.05844342 0.00593420 0.09928875
v -0.05821079 0.02913996 -0.09280190
v -0.05613201 -0.01762785 -0.10030434
v -0.05095816 -0.01562674 0.10272653
v -0.05803756 -0.02426061 -0.08546124
v -0.04827884 -0.02914166 0.10197831
v -0.05823388 -0.02085219 -0.07009237
v -0.05736773 -0.02123816 0.08074500
v 0.05816625 0.01833277 0.09971342
v -0.05687113 0.02338602 0.09581054
v -0.05580864 0.01222255 -0.10024367
v 0.05567171 -0.02547790 -0.10313544
v 0.05663026 0.02795829 -0.10171989
v -0.05799136 -0.02690303 -0.06487504
v -0.05789897 0.01810119 0.05022970
f 63 88 71
f 63 71 22
f 112 71 3
f 3 71 88
f 75 71 112
f 41 88 63
f 63 2 41
f 98 2 84
f 84 52 98
f 1 28 48
f 52 84 116
f 50 103 77
f 77 125 50
f 122 28 22
f 122 48 28
f 6 22 71
f 71 75 6
f 63 22 51
f 22 28 14
f 14 51 22
f 63 51 14
f 14 2 63
f 65 82 126
f 126 14 65
f 1 103 65
f 103 50 65
f 65 50 82
f 101 111 117
f 112 111 101
f 101 75 112
f 92 75 101
f 109 31 126
f 124 116 84
f 124 84 2
f 2 54 124
f 126 82 18
f 82 50 18
f 18 50 125
f 36 125 77
f 97 56 19
f 19 56 83
f 116 124 19
f 19 124 54
f 83 52 19
f 52 116 19
f 29 56 97
f 97 19 29
f 29 19 54
f 89 16 122
f 89 75 92
f 92 16 89
f 22 6 72
f 72 6 75
f 75 89 72
f 72 122 22
f 72 89 122
f 126 31 85
f 85 14 126
f 31 24 85
f 85 24 2
f 2 14 85
f 115 2 98
f 98 57 115
f 98 110 13
f 13 57 98
f 15 28 1
f 1 65 15
f 15 14 28
f 15 65 14
f 119 117 60
f 119 101 117
f 92 101 38
f 38 101 106
f 38 16 92
f 106 67 38
f 1 48 38
f 38 67 1
f 117 111 20
f 60 117 20
f 20 111 112
f 112 93 20
f 60 20 80
f 80 20 93
f 107 67 106
f 81 55 95
f 8 109 125
f 8 54 2
f 2 109 8
f 99 109 126
f 125 109 99
f 126 18 99
f 99 18 125
f 2 24 96
f 96 109 2
f 96 24 31
f 31 109 96
f 125 36 34
f 34 36 56
f 56 29 34
f 34 29 54
f 34 8 125
f 54 8 34
f 83 56 7
f 7 36 77
f 17 41 2
f 2 115 17
f 106 101 49
f 101 119 49
f 74 59 90
f 122 16 114
f 16 38 114
f 48 122 114
f 114 38 48
f 60 80 108
f 95 10 108
f 108 119 60
f 95 108 44
f 44 108 80
f 47 80 93
f 112 3 47
f 47 93 112
f 53 37 104
f 104 47 3
f 80 47 104
f 45 107 106
f 90 107 45
f 66 107 90
f 37 64 33
f 33 64 78
f 95 55 40
f 40 10 95
f 55 39 40
f 40 108 10
f 56 36 102
f 102 7 56
f 36 7 102
f 70 7 77
f 57 13 61
f 61 3 88
f 61 37 53
f 61 64 37
f 78 64 61
f 12 49 119
f 106 49 12
f 12 74 106
f 37 81 79
f 79 44 80
f 79 104 37
f 80 104 79
f 106 74 26
f 26 45 106
f 74 45 26
f 62 74 90
f 90 45 62
f 62 45 74
f 9 66 90
f 67 107 27
f 107 66 27
f 1 67 27
f 98 52 11
f 11 73 98
f 55 73 11
f 5 58 98
f 98 73 5
f 55 58 5
f 5 73 55
f 46 81 37
f 37 33 46
f 46 33 81
f 43 78 110
f 43 110 98
f 98 58 43
f 55 81 21
f 81 33 21
f 21 58 55
f 76 52 83
f 83 118 76
f 42 118 83
f 91 118 42
f 42 39 91
f 83 40 42
f 42 40 39
f 119 108 100
f 108 40 100
f 100 40 83
f 105 70 77
f 77 9 105
f 7 70 25
f 25 105 59
f 70 105 25
f 30 61 88
f 88 41 30
f 41 17 30
f 123 104 3
f 3 61 123
f 53 104 123
f 123 61 53
f 128 61 13
f 78 61 128
f 128 13 110
f 110 78 128
f 32 12 119
f 74 12 32
f 119 100 32
f 32 100 74
f 121 81 95
f 121 79 81
f 95 44 121
f 44 79 121
f 90 59 113
f 113 9 90
f 59 105 113
f 113 105 9
f 4 27 66
f 4 9 77
f 66 9 4
f 77 103 4
f 4 103 1
f 1 27 4
f 86 76 118
f 52 76 86
f 55 11 120
f 120 118 91
f 120 86 118
f 120 11 52
f 52 86 120
f 87 21 33
f 87 43 58
f 58 21 87
f 59 74 23
f 74 100 23
f 23 25 59
f 7 25 23
f 83 7 23
f 23 100 83
f 94 30 17
f 61 30 94
f 94 17 115
f 94 115 57
f 57 61 94
f 55 120 35
f 91 39 35
f 68 33 78
f 68 87 33
f 78 43 68
f 43 87 68
f 127 120 91
f 91 35 127
f 127 35 120
f 69 39 55
f 55 35 69
f 69 35 39

