# https://github.com/mikedh/trimesh
v -0.03897369 0.06842469 -0.18620466
v -0.03897369 0.06721693 -0.18373491
v -0.05010682 0.06744135 -0.18373491
v -0.05010682 0.06867310 -0.18596436
v -0.03897369 0.07001790 -0.18620466
v 0.09464981 0.07122053 -0.18238658
v 0.09464981 0.06883413 -0.18230645
v 0.07051506 0.06565113 -0.17816798
v 0.06864656 0.06562885 -0.17819467
v -0.12064259 0.06824139 -0.17264111
v 0.06677806 0.06562200 -0.17819467
v 0.06631093 0.06519543 -0.17631234
v 0.06581786 0.06492818 -0.17260104
v -0.10948351 0.06841441 -0.17935611
v -0.09835038 0.06867652 -0.18248001
v -0.05010682 0.06979863 -0.18596436
v -0.10206142 0.06879815 -0.18231982
v -0.09835038 0.07122053 -0.18305406
v -0.09463934 0.07864183 -0.18253341
v -0.09746803 0.08057254 -0.18194601
v -0.09463934 0.08059995 -0.18197271
v -0.07979516 0.08053143 -0.18190597
v -0.07709622 0.08051429 -0.18189262
v 0.05751343 0.07911637 -0.18130521
v 0.09093877 0.07864183 -0.18121177
v 0.09464981 0.07864183 -0.18117172
v 0.09093877 0.07633595 -0.18183921
v 0.09464981 0.07611496 -0.18179917
v 0.09836086 0.07122053 -0.18222637
v 0.10435562 0.06994767 -0.18199942
v 0.10435562 0.06918018 -0.18199942
v 0.10207190 0.06909624 -0.18207952
v 0.06872442 0.06528623 -0.17667277
v 0.10949398 0.06874505 -0.17911583
v -0.12059069 0.06815573 -0.16886307
v -0.12417196 0.06822768 -0.16505833
v -0.12432768 0.06836473 -0.16874291
v -0.12308202 0.06876046 -0.17143960
v -0.11944883 0.06877760 -0.17499068
v -0.11664608 0.06854804 -0.17625894
v 0.06758256 0.06492818 -0.17260104
v -0.13141239 0.06818999 -0.09466401
v -0.13097122 0.06817800 -0.13547483
v -0.13094527 0.06821740 -0.15031996
v -0.11319455 0.06877417 -0.17870198
v -0.10476036 0.06899174 -0.18210621
v -0.09835038 0.07492947 -0.18297397
v -0.09855799 0.07897419 -0.18233316
v -0.10206142 0.07122053 -0.18273365
v -0.09463934 0.08143254 -0.18002361
v -0.09993341 0.08043206 -0.18183921
v -0.10206142 0.08134002 -0.17976998
v -0.09855799 0.08121839 -0.18037072
v 0.09464981 0.08132461 -0.17938283
v 0.04638030 0.07929111 -0.18131857
v 0.09836086 0.08131604 -0.17932943
v 0.09836086 0.07864183 -0.18099818
v 0.09836086 0.07549652 -0.18169238
v 0.10170858 0.07119997 -0.18203945
v 0.10025530 0.07313410 -0.18187925
v 0.10207190 0.07864183 -0.18062437
v 0.10578294 0.07864183 -0.18002361
v 0.10949398 0.07492947 -0.17970324
v 0.11336073 0.07106635 -0.17875537
v 0.11515138 0.06972496 -0.17823473
v 0.11515138 0.06927269 -0.17823473
v 0.11320502 0.06898146 -0.17860854
v 0.12301464 0.06896262 -0.17125271
v -0.12697472 0.06849150 -0.16516513
v -0.12642974 0.06903114 -0.16740791
v -0.12328962 0.07122053 -0.17166655
v -0.12149898 0.07122053 -0.17352219
v -0.11965644 0.07122053 -0.17517759
v -0.11521876 0.06921788 -0.17826143
v 0.12695923 0.06886496 -0.16516513
v 0.13074814 0.06878274 -0.12062968
v 0.13095574 0.06868508 -0.05382651
v -0.13278781 0.07122053 -0.09095272
v -0.13159406 0.06819684 -0.09095272
v -0.13099717 0.06822596 -0.14660868
v -0.13193142 0.07122053 -0.14660868
v -0.13185357 0.07122053 -0.15031996
v -0.13076362 0.06839043 -0.15403126
v -0.10514963 0.07122053 -0.18219967
v -0.10206142 0.07492947 -0.18260016
v -0.10206142 0.07800969 -0.18218631
v -0.10577247 0.08213492 -0.17631234
v -0.10206142 0.08218803 -0.17631234
v 0.09836086 0.08219145 -0.17631234
v -0.10206142 0.07986502 -0.18162562
v -0.10948351 0.08095971 -0.17872867
v -0.10577247 0.08126122 -0.17931607
v 0.10207190 0.08215205 -0.17631234
v 0.10207190 0.08126293 -0.17916922
v 0.10578294 0.08109333 -0.17886217
v 0.10861164 0.08080895 -0.17848837
v 0.10970160 0.07882514 -0.17890222
v 0.11182960 0.07770989 -0.17839493
v 0.11234863 0.07492947 -0.17863522
v 0.11421712 0.07492947 -0.17762063
v 0.11696797 0.07828893 -0.17521763
v 0.11878456 0.07681735 -0.17445670
v 0.11896623 0.07492947 -0.17461689
v 0.11919978 0.07122053 -0.17477709
v 0.12106828 0.07122053 -0.17324185
v 0.12314440 0.07122053 -0.17138621
v 0.12646617 0.06908768 -0.16742127
v -0.13032244 0.06882385 -0.15774255
v -0.12998508 0.06921445 -0.15985185
v -0.12515812 0.07122053 -0.16931695
v -0.12764946 0.07122053 -0.16516513
v -0.12648164 0.07122053 -0.16746131
v -0.12303011 0.07492947 -0.17134616
v -0.12118757 0.07492947 -0.17320180
v -0.11934502 0.07492947 -0.17493729
v -0.11511495 0.07333796 -0.17819467
v -0.11708725 0.07122053 -0.17703323
v -0.11521876 0.07122053 -0.17826143
v -0.11319455 0.07122053 -0.17922261
v 0.12996960 0.06928811 -0.15987854
v 0.13028102 0.06908596 -0.15774255
v 0.13051458 0.06902429 -0.14660868
v 0.13160454 0.07122053 -0.14660868
v 0.13186404 0.07122053 -0.12062968
v 0.13191594 0.07122053 -0.11322045
v 0.13201976 0.07122053 -0.05382651
v -0.13224284 0.07492947 -0.09466401
v -0.13167192 0.07492947 -0.14660868
v -0.13156810 0.07492947 -0.15031996
v -0.13151620 0.07122053 -0.15403126
v -0.10478631 0.07492947 -0.18210621
v -0.10948351 0.07492947 -0.18039744
v -0.10431919 0.07724563 -0.18197271
v -0.10948351 0.08184883 -0.17631234
v -0.11319455 0.08218460 -0.17260104
v -0.10948351 0.08224456 -0.17260104
v 0.10949398 0.08231651 -0.17260104
v -0.10564271 0.07854590 -0.18111832
v -0.11166342 0.08064963 -0.17831483
v -0.11301289 0.08122353 -0.17633903
v 0.10578294 0.08200301 -0.17631234
v 0.11320502 0.08216918 -0.17260104
v 0.10970160 0.08141027 -0.17659269
v 0.11320502 0.08123210 -0.17561814
v 0.11577421 0.08088262 -0.17491059
v 0.11107702 0.08018537 -0.17803447
v 0.11310123 0.07882514 -0.17736697
v 0.11823958 0.07929111 -0.17402950
v 0.12047140 0.07827694 -0.17246754
v 0.12262537 0.07726447 -0.17089225
v 0.12083473 0.07492947 -0.17297485
v 0.12283298 0.07492947 -0.17111921
v 0.12501289 0.07122053 -0.16926357
v 0.12644021 0.07122053 -0.16740791
v 0.12760803 0.07122053 -0.16516513
v 0.12921701 0.07122053 -0.16192108
v -0.13068576 0.07122053 -0.15774255
v -0.13001104 0.07122053 -0.15991859
v -0.12923248 0.07122053 -0.16177423
v -0.12632594 0.07400437 -0.16723436
v -0.12508027 0.07511792 -0.16863611
v -0.12713043 0.07511792 -0.16549887
v -0.12995912 0.07367031 -0.15978509
v -0.12918058 0.07491577 -0.16120020
v -0.12271870 0.07761909 -0.17101240
v -0.12609237 0.07647986 -0.16695401
v -0.11903361 0.07752830 -0.17467029
v -0.11656823 0.07471704 -0.17692643
v -0.11482949 0.07581174 -0.17794102
v -0.11342812 0.07471704 -0.17888887
v 0.13007340 0.07122053 -0.16006544
v 0.13080004 0.07122053 -0.15774255
v 0.13126718 0.07122053 -0.15403126
v 0.13209762 0.07492947 -0.15031996
v 0.13217546 0.07492947 -0.14660868
v 0.13222738 0.07492947 -0.14289740
v 0.13225332 0.07492947 -0.13918611
v 0.13227928 0.07492947 -0.13176355
v 0.13233116 0.07492947 -0.11322045
v -0.13125670 0.07864183 -0.09466401
v -0.13099717 0.07864183 -0.14660868
v -0.13117884 0.07492947 -0.15403126
v -0.13086742 0.07864183 -0.15031996
v -0.13032244 0.07491577 -0.15795615
v -0.10948351 0.07864183 -0.17979667
v -0.11713916 0.08145652 -0.17282799
v -0.11690559 0.08224113 -0.16888976
v 0.12433816 0.08242958 -0.15403126
v 0.12062711 0.08239703 -0.16145383
v 0.11320502 0.08235078 -0.16888976
v 0.11691607 0.08230624 -0.16888976
v -0.11233816 0.07864183 -0.17867528
v -0.11418070 0.07864183 -0.17756723
v -0.11851458 0.08000378 -0.17422974
v -0.11602324 0.08095971 -0.17512418
v 0.11696797 0.08141883 -0.17272119
v 0.11969286 0.08101624 -0.17155975
v 0.12215824 0.07973824 -0.17039831
v 0.12366342 0.07855789 -0.16904995
v 0.12568763 0.07864183 -0.16640666
v 0.12602499 0.07611839 -0.16690062
v 0.12490909 0.07490034 -0.16856937
v 0.12625855 0.07364633 -0.16712756
v 0.12711495 0.07490034 -0.16545883
v 0.12916510 0.07492947 -0.16173418
v -0.12687090 0.07864183 -0.16453767
v -0.12975152 0.07614237 -0.15933119
v -0.12230347 0.08009458 -0.17053181
v -0.12066854 0.07881144 -0.17261440
v -0.12572905 0.07864183 -0.16639331
v -0.12375675 0.07877032 -0.16913007
v -0.11713916 0.07871722 -0.17559144
v 0.13002150 0.07492947 -0.15987854
v 0.13074814 0.07492947 -0.15774255
v 0.13170834 0.07492947 -0.15403126
v 0.13196784 0.07864183 -0.14660868
v 0.13176024 0.07864183 -0.15031996
v 0.13212356 0.07864183 -0.13918611
v 0.13212356 0.07864183 -0.12805225
v -0.13019268 0.08076955 -0.14660868
v -0.13011482 0.08071131 -0.15031996
v -0.13040030 0.07884399 -0.15408467
v -0.13014078 0.07774244 -0.15684810
v -0.13001104 0.08060680 -0.15286981
v -0.11981215 0.08102481 -0.17174666
v -0.12087616 0.08146337 -0.16913007
v -0.12061664 0.08218974 -0.16516513
v -0.12061664 0.08222743 -0.16145383
v 0.12804919 0.08221201 -0.14289740
v 0.12804919 0.08220345 -0.14660868
v 0.12433816 0.08240046 -0.15774255
v 0.12062711 0.08229253 -0.16516513
v 0.12080877 0.08148393 -0.16904995
v 0.12319629 0.08098540 -0.16792856
v 0.12651807 0.08079525 -0.16385682
v 0.12693329 0.07864183 -0.16455102
v 0.12991770 0.07685846 -0.15963824
v -0.12642974 0.08072329 -0.16379008
v -0.12822038 0.07864183 -0.16145383
v -0.12941414 0.07884399 -0.15795615
v -0.12321176 0.08096999 -0.16806206
v 0.13025506 0.07831462 -0.15762240
v 0.13116336 0.07864183 -0.15403126
v 0.13064434 0.08115501 -0.15031996
v 0.13077410 0.08123552 -0.14660868
v 0.13030697 0.08089975 -0.15403126
v 0.13082600 0.08125437 -0.14289740
v 0.13085195 0.08125780 -0.13918611
v 0.13085195 0.08122867 -0.12805225
v -0.12803872 0.08156787 -0.14660868
v -0.12803872 0.08153532 -0.15031996
v -0.12832418 0.08123210 -0.15408467
v -0.12975152 0.08021621 -0.15533955
v -0.12754565 0.08128863 -0.15774255
v -0.12692282 0.08103680 -0.16145383
v -0.12440553 0.08127321 -0.16508503
v -0.12432768 0.08192078 -0.16145383
v -0.12432768 0.08214349 -0.15774255
v 0.12804919 0.08213320 -0.15031996
v 0.12804919 0.08188652 -0.15403126
v 0.12433816 0.08213150 -0.16145383
v 0.12439006 0.08135030 -0.16512507
v 0.12711495 0.08117042 -0.16145383
v 0.13002150 0.08064278 -0.15631410
v 0.12955438 0.07933223 -0.15878384
v 0.12882774 0.07831462 -0.16110674
v 0.12820490 0.08134002 -0.15762240
v 0.13073434 0.06849650 0.11691466
v 0.13187486 0.07121908 0.06494960
v 0.13178955 0.07121908 0.08349576
v 0.13155366 0.07121908 0.11691466
v 0.13124877 0.07121908 0.14661539
v 0.13063021 0.06870214 0.13176504
v 0.13043699 0.06893519 0.15031119
v 0.12678330 0.06902292 0.16825257
v 0.13087863 0.06852118 0.06494960
v 0.13208817 0.07121908 0.00187477
v 0.12271179 0.06923130 0.17474821
v 0.13188742 0.07493144 0.05383983
v 0.13157499 0.07493144 0.10947829
v 0.13135040 0.07493144 0.14289719
v 0.13127762 0.07493144 0.15031119
v 0.13120611 0.07121908 0.15031119
v 0.13100912 0.07121908 0.15402938
v 0.13028641 0.06908599 0.15402938
v 0.13010323 0.06921759 0.15774757
v 0.12997274 0.06931493 0.16034582
v 0.12705053 0.07086951 0.16923811
v 0.13097022 0.06863908 -0.04267631
v 0.13105428 0.06867472 0.00187477
v 0.13203421 0.07121908 -0.04267631
v 0.12301794 0.07121908 0.17508419
v 0.12135546 0.07121908 0.17694329
v 0.12630399 0.07187162 0.17089562
v 0.11949975 0.07121908 0.17880237
v 0.13148591 0.07864242 0.02042092
v 0.13146709 0.07864242 0.02413911
v 0.13092881 0.07864242 0.12432865
v 0.13090499 0.07864242 0.12804684
v 0.13080962 0.07864242 0.14289719
v 0.13078454 0.07864242 0.14661539
v 0.13072932 0.07864242 0.15031119
v 0.13116094 0.07493144 0.15402938
v 0.13064526 0.07121908 0.15774757
v 0.13016346 0.07121908 0.16101779
v 0.12704176 0.07495337 0.16914852
v 0.12630399 0.07373054 0.17089562
v 0.12872055 0.07493144 0.16516155
v 0.12304553 0.07493144 0.17508419
v 0.12126511 0.07493144 0.17694329
v 0.11940941 0.07493144 0.17871279
v 0.13050723 0.08108259 0.00557055
v 0.13017724 0.08080156 0.14661539
v 0.13013585 0.08075632 0.15031119
v 0.13004676 0.08065625 0.15402938
v 0.13057123 0.07864242 0.15402938
v 0.13077448 0.07493144 0.15774757
v 0.13020486 0.07493144 0.16081619
v 0.12960385 0.07493144 0.16267528
v 0.12680086 0.07864242 0.16816297
v 0.12601668 0.07620499 0.17055964
v 0.12505056 0.07495337 0.17230675
v 0.12803172 0.07864242 0.16516155
v 0.12274943 0.07767732 0.17474821
v 0.12805933 0.08178997 0.14661539
v 0.12805933 0.08174062 0.15031119
v 0.12805933 0.08164740 0.15402938
v 0.12832031 0.08133209 0.15759078
v 0.12996396 0.08056028 0.15624684
v 0.13019733 0.07863968 0.15759078
v 0.13002795 0.07740176 0.16007704
v 0.12643574 0.08074535 0.16746862
v 0.12569924 0.07864242 0.17002207
v 0.12372810 0.07880555 0.17286670
v 0.12930524 0.07863968 0.16137615
v 0.12973183 0.07987621 0.15871072
v 0.12805933 0.08199560 0.00928875
v 0.12235169 0.08015176 0.17427783
v 0.12072057 0.07893579 0.17638332
v 0.12063652 0.08250146 0.16516155
v 0.11927265 0.08245210 0.17024605
v 0.12434791 0.08248089 0.15774757
v 0.12434791 0.08243291 0.16146576
v 0.12753110 0.08142668 0.16146576
v 0.12691504 0.08111960 0.16516155
v 0.12442821 0.08139104 0.16876775
v 0.12324378 0.08105654 0.17181398
v 0.11987616 0.08111823 0.17555456
v 0.12063652 0.08243839 0.16887973
v 0.12092258 0.08161449 0.17286670
v 0.12434791 0.08214092 0.16516155
v -0.10948505 0.08250114 0.17631403
v -0.11690474 0.08249781 0.17260203
v -0.11319490 0.08245783 0.17631403
v -0.10206536 0.08246782 0.18002449
v 0.11691184 0.08247449 0.17260203
v -0.12061459 0.08206965 0.17260203
v -0.11690474 0.08196969 0.17631403
v -0.10948505 0.08213629 0.18002449
v -0.10577521 0.08241451 0.18002449
v -0.09835552 0.08148656 0.18361409
v -0.09464567 0.08148156 0.18369311
v 0.08720899 0.08174645 0.18373649
v 0.10207245 0.08238452 0.18002449
v 0.10949214 0.08244450 0.17631403
v 0.11320199 0.08240118 0.17631403
v 0.11720092 0.08160651 0.17660995
v 0.11927264 0.08161151 0.17453550
v 0.11927264 0.08196969 0.17276315
v 0.11799588 0.08246449 0.17151602
v -0.12027734 0.08099176 0.17603518
v -0.12340902 0.08107007 0.17260203
v -0.11690474 0.08096844 0.17882536
v -0.11314672 0.08141492 0.18015307
v -0.10948505 0.08111338 0.18256061
v -0.10577521 0.08140159 0.18306720
v -0.10206536 0.08147656 0.18341424
v -0.09221260 0.08047364 0.18558319
v -0.08973134 0.08050530 0.18559869
v -0.09095992 0.08128164 0.18410210
v -0.00927107 0.08067023 0.18575205
v 0.07607946 0.08082183 0.18591009
v 0.08720899 0.08084515 0.18592247
v 0.09462868 0.08174312 0.18373649
v 0.10578230 0.08235453 0.18002449
v 0.10949214 0.08209297 0.18002449
v 0.11927264 0.08122833 0.17580588
v 0.11312972 0.08137660 0.18011744
v 0.11614096 0.08104841 0.17894311
v -0.12261406 0.08062524 0.17461140
v -0.11880785 0.08053862 0.17821187
v -0.11189405 0.08075686 0.18212837
v -0.10206536 0.07945406 0.18527023
v -0.09835552 0.08015211 0.18547009
v -0.09464567 0.08038201 0.18554911
v -0.09464567 0.07852611 0.18594570
v -0.09095992 0.07899758 0.18588683
v -0.08722599 0.08051196 0.18560334
v -0.08722599 0.07864273 0.18597671
v -0.01669076 0.07864273 0.18634386
v -0.00556122 0.07864273 0.18639654
v 0.07978930 0.07864273 0.18673427
v 0.08349914 0.07864273 0.18673739
v 0.08720899 0.07864273 0.18673117
v 0.09462868 0.08081517 0.18589303
v 0.09836262 0.08170146 0.18373649
v 0.10578230 0.08138493 0.18328255
v 0.10949214 0.08110838 0.18262722
v 0.11927264 0.08066856 0.17677261
v 0.11185295 0.08075353 0.18213920
v 0.11862221 0.08019376 0.17804454
v -0.12555303 0.07949238 0.17151602
v -0.12299950 0.07864273 0.17500181
v -0.12102411 0.07864273 0.17685626
v -0.12504713 0.07882099 0.17244247
v -0.11916920 0.07864273 0.17848453
v -0.11690474 0.07864273 0.17996407
v -0.11447167 0.07864273 0.18150556
v -0.11261675 0.07864273 0.18248005
v -0.10948505 0.07864273 0.18361564
v -0.10551022 0.07837784 0.18482715
v -0.10408892 0.07696342 0.18562967
v -0.10206536 0.07759816 0.18575980
v -0.09835552 0.07829621 0.18590543
v -0.09464567 0.07492926 0.18639809
v -0.02411045 0.07492926 0.18682569
v 0.07978930 0.07492926 0.18734314
v 0.09462868 0.07492926 0.18727806
v 0.09462868 0.07864273 0.18667230
v 0.09836262 0.08076019 0.18583725
v 0.10216881 0.08133496 0.18404479
v 0.10101251 0.08063524 0.18571644
v 0.10349376 0.08024207 0.18548714
v 0.11927264 0.07980891 0.17754105
v 0.11257566 0.07864273 0.18253271
v 0.11443058 0.07864273 0.18145443
v 0.10949214 0.07864273 0.18382944
v 0.11720092 0.07883099 0.17947760
v 0.11907993 0.07771978 0.17844270
v 0.11927264 0.07785638 0.17821187
v -0.12601073 0.07805131 0.17151602
v -0.12148182 0.07492926 0.17727147
v -0.12523985 0.07492926 0.17326356
v -0.12338492 0.07492926 0.17541547
v -0.11663976 0.07507920 0.18088432
v -0.11497755 0.07641532 0.18178599
v -0.11962690 0.07492926 0.17885016
v -0.11353216 0.07507920 0.18268299
v -0.10948505 0.07492926 0.18412535
v -0.10454662 0.07492926 0.18573502
v -0.10206536 0.07492926 0.18606655
v -0.09835552 0.07492926 0.18632528
v -0.09835552 0.07121912 0.18636711
v -0.08351614 0.07121912 0.18661499
v 0.00554422 0.07121912 0.18697906
v 0.05382038 0.07121912 0.18710919
v 0.06494992 0.07121912 0.18707977
v 0.09836262 0.07121912 0.18686442
v 0.09836262 0.07492926 0.18714018
v 0.09836262 0.07864273 0.18653752
v 0.10216881 0.07885931 0.18605725
v 0.10472234 0.07776809 0.18582022
v 0.10587867 0.07885931 0.18508278
v 0.10915489 0.07468436 0.18478377
v 0.11351516 0.07506754 0.18276511
v 0.11498465 0.07639533 0.18177824
v 0.10720361 0.07575892 0.18534614
v 0.11927264 0.07611544 0.17860073
v -0.12658888 0.07492926 0.17151602
v -0.12165046 0.07121912 0.17734119
v -0.11979553 0.07121912 0.17902522
v -0.12675750 0.07244195 0.17151602
v -0.12682977 0.07121912 0.17151602
v -0.12528802 0.07121912 0.17342624
v -0.12343311 0.07121912 0.17548518
v -0.11731427 0.07121912 0.18087967
v -0.11521845 0.07394134 0.18197189
v -0.11545935 0.07121912 0.18212216
v -0.11319490 0.07121912 0.18308890
v -0.10510069 0.07121912 0.18586980
v -0.10206536 0.07121912 0.18624628
v -0.10206536 0.06888842 0.18593952
v -0.08351614 0.06863852 0.18614401
v 0.00530332 0.06719245 0.18628189
v 0.00790503 0.06548149 0.18583725
v 0.09836262 0.06904169 0.18601853
v 0.10207245 0.06910833 0.18591629
v 0.10785404 0.06929991 0.18565135
v 0.10207245 0.07121912 0.18654372
v 0.10207245 0.07492926 0.18670794
v 0.10587867 0.07468436 0.18593487
v 0.10770950 0.07328494 0.18561882
v 0.11320199 0.07121912 0.18325622
v 0.11549053 0.07121912 0.18215470
v 0.11520146 0.07392301 0.18198274
v 0.11662275 0.07506754 0.18077277
v 0.11927264 0.07493759 0.17881916
v 0.00638737 0.06548149 0.18583725
v -0.12432444 0.06878013 0.17257260
v -0.12307177 0.06889342 0.17512266
v -0.12625162 0.06891341 0.17151602
v 0.00638737 0.06548149 0.18532601
v -0.11948236 0.06889175 0.17878044
v -0.11543526 0.06910499 0.18211287
v -0.12675750 0.07074099 0.17151602
v -0.12649253 0.06915664 0.17151602
v -0.10478752 0.06909666 0.18581092
v -0.09835552 0.06874014 0.18594725
v -0.10948505 0.06869017 0.18306257
v 0.11320199 0.06890508 0.18260863
v 0.10785404 0.07121912 0.18565601
v 0.11546644 0.06910166 0.18214385
v 0.10970896 0.07121912 0.18483801
v 0.11734546 0.07121912 0.18066278
v 0.11927264 0.07468436 0.17884706
v -0.09464567 0.06862020 0.18591629
v -0.11319490 0.06886676 0.18249863
v 0.11920037 0.06915498 0.17856355
v 0.11927264 0.06921495 0.17851551
v 0.11927264 0.06960812 0.17861778
v 0.11927264 0.07121912 0.17900509
v -0.13134116 0.06848857 0.13919069
v -0.13249946 0.07121969 0.13919069
v -0.13212980 0.07864220 0.14289552
v -0.13116865 0.06839187 0.15403174
v -0.13126722 0.06841121 0.15032688
v -0.13240089 0.07493163 0.11319176
v -0.13242553 0.07121969 0.15032688
v -0.13235159 0.07493163 0.15032688
v -0.13212980 0.07864220 0.14660038
v -0.13082361 0.08123517 0.15032688
v -0.13082361 0.08123241 0.14660038
v -0.13104542 0.06840154 0.15773658
v -0.13230230 0.07121969 0.15403174
v -0.13227765 0.07493163 0.15403174
v -0.13210516 0.07864220 0.15032688
v -0.13074967 0.08121169 0.15403174
v -0.12803875 0.08214416 0.15403174
v -0.12803875 0.08214001 0.15032688
v -0.13072503 0.06860323 0.16146310
v -0.13212980 0.07121969 0.15773658
v -0.12517993 0.06877315 0.17151602
v -0.12729940 0.06875657 0.16887279
v 0.11927264 0.08220909 0.17151602
v -0.13205586 0.07493163 0.15773658
v -0.13198192 0.07864220 0.15403174
v -0.13052788 0.08108597 0.15773658
v -0.12803875 0.08204193 0.15773658
v -0.12434202 0.08234171 0.16516794
v -0.12434202 0.08241769 0.16146310
v -0.13033071 0.06894859 0.16438797
v -0.13153833 0.07121969 0.16146310
v -0.12660933 0.06893754 0.17129935
v 0.11799110 0.08246466 0.17151602
v -0.12062064 0.08247294 0.16887279
v -0.13139045 0.07493163 0.16146310
v -0.13161224 0.07864220 0.15773658
v -0.13020749 0.08082073 0.16076979
v -0.12840842 0.08146726 0.16178808
v -0.12757048 0.08135398 0.16516794
v -0.12463775 0.08157777 0.16915445
v -0.12062064 0.08218837 0.17151602
v -0.13047859 0.07121969 0.16479963
v -0.12956673 0.07121969 0.16664121
v -0.13038000 0.07493163 0.16449630
v -0.13018285 0.07794595 0.16397633
v -0.13065109 0.07896683 0.16178808
v -0.12986247 0.08042011 0.16323969
v -0.12680650 0.08099204 0.16809282
v -0.12379982 0.08122964 0.17151602
v -0.12803875 0.07493163 0.16887279
v -0.12941885 0.07493163 0.16633789
v -0.12643683 0.07770281 0.17108269
v -0.12722546 0.07882179 0.16915445
v -0.12929563 0.07896683 0.16518961
v -0.12606715 0.08017837 0.17056271
f 87 136 88
f 13 10 2
f 13 498 502
f 502 43 13
f 498 43 502
f 35 10 13
f 258 538 550
f 76 289 41
f 352 354 355
f 13 43 44
f 44 35 13
f 42 43 498
f 454 455 427
f 125 176 177
f 123 76 122
f 179 279 277
f 279 269 277
f 77 76 125
f 125 289 77
f 77 289 76
f 75 41 68
f 76 41 75
f 31 34 8
f 427 455 456
f 275 510 485
f 485 486 458
f 518 510 275
f 550 538 549
f 538 548 549
f 354 352 353
f 279 298 280
f 1 2 3
f 3 2 10
f 10 35 36
f 35 44 36
f 498 533 525
f 78 44 80
f 538 258 539
f 258 250 539
f 251 250 258
f 258 254 251
f 221 220 251
f 251 220 250
f 187 353 136
f 257 254 258
f 363 383 384
f 384 364 363
f 363 364 355
f 455 454 484
f 484 456 455
f 498 485 484
f 179 125 178
f 125 177 178
f 124 176 125
f 124 123 176
f 125 76 124
f 76 123 124
f 126 125 179
f 290 289 126
f 126 289 125
f 9 2 1
f 1 8 9
f 7 8 1
f 1 6 7
f 141 93 142
f 141 142 143
f 218 177 176
f 218 178 177
f 179 178 218
f 488 458 487
f 458 486 487
f 486 485 487
f 487 510 488
f 487 485 510
f 457 485 458
f 427 456 457
f 456 484 457
f 457 484 485
f 278 518 275
f 510 518 512
f 488 510 512
f 559 547 558
f 548 547 559
f 337 229 342
f 342 325 337
f 312 325 313
f 313 314 301
f 268 274 275
f 275 485 268
f 268 485 41
f 268 277 269
f 18 16 4
f 1 3 4
f 4 3 15
f 88 89 50
f 87 88 50
f 54 50 89
f 21 50 54
f 39 72 73
f 14 3 10
f 15 3 14
f 14 45 46
f 79 42 498
f 498 525 79
f 78 80 79
f 79 80 44
f 79 44 43
f 43 42 79
f 534 525 533
f 81 44 78
f 540 551 552
f 532 539 250
f 250 220 532
f 532 531 538
f 538 539 532
f 127 180 181
f 180 220 181
f 181 220 221
f 254 224 252
f 252 251 254
f 252 224 221
f 221 251 252
f 228 258 550
f 353 187 228
f 208 238 241
f 227 187 226
f 226 257 227
f 227 257 258
f 258 228 227
f 227 228 187
f 254 257 255
f 255 224 254
f 255 253 224
f 238 253 255
f 509 533 498
f 454 482 483
f 483 484 454
f 498 484 483
f 426 454 427
f 426 425 454
f 427 400 426
f 458 459 428
f 427 457 428
f 428 457 458
f 489 458 488
f 489 459 458
f 488 490 489
f 489 490 459
f 179 277 291
f 291 126 179
f 291 277 290
f 290 126 291
f 13 2 12
f 12 41 13
f 31 8 32
f 8 7 32
f 32 6 31
f 32 7 6
f 137 88 136
f 137 89 88
f 137 93 89
f 137 142 93
f 144 143 142
f 144 196 145
f 142 196 144
f 219 279 179
f 179 218 219
f 219 312 313
f 342 340 343
f 343 325 342
f 518 278 519
f 520 512 519
f 519 512 518
f 355 354 360
f 354 359 360
f 362 363 355
f 383 363 362
f 376 359 375
f 376 375 394
f 394 377 376
f 376 360 359
f 377 360 376
f 394 375 393
f 354 353 357
f 312 219 249
f 313 301 300
f 302 301 314
f 316 303 302
f 276 41 289
f 276 268 41
f 276 289 290
f 290 277 276
f 277 268 276
f 283 274 273
f 274 268 273
f 283 303 284
f 284 274 283
f 280 300 281
f 281 300 301
f 47 16 18
f 18 49 47
f 47 49 85
f 48 16 47
f 19 16 48
f 18 4 17
f 46 49 17
f 17 49 18
f 17 4 15
f 17 14 46
f 15 14 17
f 226 187 186
f 92 134 87
f 89 93 56
f 56 54 89
f 16 19 5
f 5 6 1
f 10 39 40
f 40 39 45
f 40 14 10
f 45 14 40
f 38 39 10
f 72 39 38
f 108 69 83
f 83 69 44
f 83 130 108
f 37 36 44
f 44 69 37
f 10 36 37
f 37 38 10
f 37 69 70
f 70 38 37
f 525 534 528
f 44 81 82
f 82 83 44
f 130 83 82
f 109 69 108
f 70 69 109
f 109 157 158
f 108 130 109
f 130 157 109
f 207 206 164
f 541 540 552
f 541 534 533
f 533 540 541
f 507 504 517
f 517 509 507
f 507 509 482
f 563 564 565
f 563 556 552
f 565 556 563
f 552 551 563
f 551 564 563
f 128 81 78
f 78 127 128
f 127 181 128
f 128 82 81
f 221 224 183
f 183 181 221
f 555 228 550
f 353 228 555
f 550 549 555
f 239 206 207
f 239 238 206
f 256 255 257
f 256 257 226
f 226 241 256
f 256 241 238
f 238 255 256
f 427 402 401
f 401 400 427
f 425 426 399
f 399 426 400
f 382 402 383
f 382 381 402
f 383 362 382
f 382 362 381
f 379 401 402
f 400 401 379
f 379 399 400
f 516 509 498
f 395 377 394
f 378 377 395
f 394 393 423
f 423 393 422
f 451 423 422
f 452 423 451
f 480 507 481
f 481 507 482
f 481 451 480
f 452 451 481
f 454 425 453
f 425 452 453
f 452 481 453
f 453 482 454
f 453 481 482
f 460 428 459
f 459 490 460
f 462 490 491
f 176 123 175
f 123 174 175
f 175 218 176
f 175 174 218
f 121 123 122
f 75 120 121
f 122 76 121
f 76 75 121
f 215 217 174
f 2 9 11
f 11 12 2
f 9 12 11
f 33 9 8
f 33 12 9
f 41 12 33
f 68 41 33
f 33 8 34
f 145 196 197
f 234 198 197
f 136 189 190
f 190 137 136
f 67 66 68
f 68 33 67
f 67 33 34
f 67 34 31
f 31 66 67
f 296 219 313
f 279 219 296
f 231 230 259
f 231 261 232
f 326 327 314
f 313 325 326
f 326 314 313
f 325 343 326
f 326 343 327
f 305 308 288
f 275 287 288
f 288 287 305
f 288 278 275
f 520 519 293
f 293 519 278
f 310 293 309
f 488 512 493
f 435 464 465
f 361 362 355
f 355 360 361
f 361 360 377
f 361 377 378
f 378 379 361
f 361 379 362
f 422 393 421
f 414 416 391
f 358 359 354
f 354 357 358
f 248 230 229
f 247 230 248
f 229 337 248
f 248 218 247
f 248 337 325
f 248 219 218
f 248 249 219
f 325 312 248
f 312 249 248
f 299 280 298
f 299 300 280
f 299 298 313
f 313 300 299
f 270 268 269
f 270 271 268
f 270 269 279
f 279 280 270
f 280 281 270
f 270 281 271
f 268 271 272
f 283 273 272
f 272 273 268
f 304 284 303
f 305 287 304
f 287 284 304
f 274 284 285
f 301 302 282
f 282 281 301
f 282 302 303
f 282 303 283
f 283 272 282
f 271 281 282
f 282 272 271
f 85 49 84
f 84 131 85
f 84 49 46
f 85 131 133
f 134 186 135
f 135 186 187
f 87 134 135
f 135 136 87
f 135 187 136
f 225 186 195
f 208 241 225
f 225 241 226
f 226 186 225
f 87 50 52
f 52 92 87
f 134 92 91
f 94 93 141
f 94 56 93
f 210 238 208
f 206 238 210
f 113 114 72
f 523 527 78
f 78 79 523
f 158 157 163
f 207 164 163
f 130 182 184
f 184 157 130
f 184 163 157
f 207 163 184
f 206 210 166
f 166 113 161
f 553 564 551
f 470 500 503
f 517 504 503
f 503 509 517
f 566 556 565
f 566 567 556
f 535 528 534
f 534 541 535
f 537 546 547
f 537 547 548
f 537 548 538
f 538 531 537
f 182 183 222
f 224 253 222
f 222 183 224
f 129 183 182
f 82 128 129
f 129 128 181
f 181 183 129
f 129 182 130
f 130 82 129
f 562 357 353
f 353 555 562
f 549 357 562
f 562 555 549
f 240 253 238
f 238 239 240
f 240 239 207
f 402 381 398
f 398 379 402
f 397 379 378
f 399 379 397
f 508 483 482
f 482 509 508
f 509 516 508
f 498 483 508
f 508 516 498
f 480 451 450
f 450 451 422
f 450 449 480
f 422 449 450
f 385 364 384
f 384 406 385
f 407 406 431
f 407 385 406
f 386 385 407
f 356 352 355
f 356 340 352
f 431 406 430
f 428 460 429
f 460 430 429
f 461 460 490
f 490 462 461
f 461 462 433
f 101 102 65
f 247 218 245
f 245 230 247
f 259 230 245
f 218 174 216
f 174 217 216
f 216 245 218
f 173 174 123
f 123 121 173
f 173 215 174
f 107 120 75
f 107 75 68
f 233 197 196
f 234 197 233
f 232 261 233
f 137 190 191
f 142 137 191
f 191 190 189
f 232 233 191
f 191 231 232
f 189 231 191
f 191 196 142
f 191 233 196
f 30 59 60
f 30 29 59
f 31 6 30
f 6 29 30
f 99 98 65
f 99 63 98
f 313 298 297
f 297 296 313
f 297 298 279
f 279 296 297
f 229 230 188
f 230 231 188
f 342 229 188
f 188 340 342
f 352 340 188
f 188 353 352
f 188 231 189
f 136 353 188
f 188 189 136
f 235 198 234
f 305 304 317
f 317 304 303
f 317 303 316
f 305 317 318
f 318 317 331
f 292 293 278
f 309 293 292
f 494 493 512
f 465 493 494
f 465 464 492
f 492 493 465
f 491 490 492
f 492 462 491
f 433 462 463
f 464 435 437
f 437 463 462
f 433 463 437
f 422 421 420
f 420 449 422
f 572 571 573
f 572 566 565
f 573 566 572
f 565 564 572
f 564 571 572
f 414 391 390
f 419 420 392
f 392 420 421
f 392 393 375
f 392 421 393
f 419 392 418
f 418 392 391
f 286 284 287
f 286 285 284
f 274 285 286
f 275 274 286
f 286 287 275
f 46 45 74
f 74 84 46
f 119 84 74
f 45 39 74
f 74 39 73
f 85 133 86
f 48 47 86
f 86 47 85
f 86 133 90
f 53 52 50
f 92 52 51
f 90 91 51
f 51 91 92
f 48 86 51
f 51 86 90
f 134 91 140
f 140 186 134
f 195 186 140
f 141 143 95
f 95 94 141
f 21 54 22
f 54 23 22
f 22 5 21
f 22 23 5
f 54 56 26
f 5 25 26
f 5 23 24
f 24 25 5
f 24 26 25
f 54 26 24
f 161 113 110
f 525 528 526
f 528 523 526
f 526 79 525
f 111 163 164
f 70 109 111
f 211 210 208
f 208 166 211
f 211 166 210
f 165 166 208
f 113 166 165
f 208 209 165
f 165 209 167
f 165 167 114
f 114 113 165
f 473 472 564
f 564 553 473
f 472 473 443
f 543 540 533
f 551 540 543
f 543 553 551
f 506 553 500
f 471 503 504
f 470 503 471
f 442 444 470
f 470 471 442
f 442 471 447
f 442 416 414
f 442 447 416
f 480 449 479
f 479 507 480
f 504 507 479
f 560 559 558
f 560 549 548
f 548 559 560
f 574 566 573
f 567 566 568
f 568 560 558
f 569 560 568
f 529 523 528
f 528 535 529
f 527 523 529
f 545 535 541
f 552 556 545
f 545 541 552
f 546 535 545
f 536 537 531
f 546 537 536
f 536 535 546
f 536 529 535
f 223 184 182
f 182 222 223
f 207 184 223
f 223 222 253
f 223 240 207
f 253 240 223
f 362 379 380
f 379 398 380
f 381 362 380
f 380 398 381
f 424 395 394
f 424 452 425
f 394 423 424
f 424 423 452
f 388 386 408
f 386 407 408
f 366 385 386
f 351 343 349
f 349 343 340
f 324 310 309
f 306 288 308
f 432 430 460
f 432 461 433
f 460 461 432
f 433 408 432
f 432 408 407
f 432 407 431
f 431 430 432
f 427 428 404
f 428 429 404
f 405 429 430
f 384 383 405
f 383 404 405
f 405 404 429
f 405 406 384
f 405 430 406
f 198 235 200
f 200 235 236
f 237 242 214
f 265 242 237
f 145 101 147
f 147 101 98
f 148 101 145
f 145 197 148
f 148 197 198
f 102 101 148
f 65 98 100
f 100 101 65
f 98 101 100
f 65 102 103
f 103 104 65
f 260 267 261
f 260 231 259
f 261 231 260
f 244 216 217
f 245 216 244
f 259 245 244
f 244 260 259
f 215 173 172
f 120 171 172
f 172 121 120
f 172 173 121
f 214 215 172
f 172 171 214
f 156 107 155
f 156 171 120
f 120 107 156
f 64 99 65
f 63 99 64
f 65 30 64
f 64 30 63
f 262 235 234
f 234 233 262
f 262 233 261
f 261 267 263
f 263 262 261
f 235 262 263
f 319 318 331
f 319 308 305
f 305 318 319
f 331 317 330
f 330 317 316
f 316 329 330
f 331 330 336
f 336 330 329
f 314 327 315
f 315 302 314
f 327 328 315
f 315 328 329
f 316 302 315
f 315 329 316
f 288 306 307
f 293 310 295
f 295 512 520
f 520 293 295
f 511 490 488
f 511 492 490
f 467 437 462
f 464 437 467
f 462 492 467
f 467 492 464
f 413 443 444
f 414 390 413
f 413 442 414
f 444 442 413
f 569 390 372
f 371 358 357
f 357 372 371
f 371 372 390
f 371 390 391
f 391 392 373
f 373 371 391
f 358 371 373
f 417 391 416
f 417 418 391
f 476 471 504
f 447 471 476
f 132 133 131
f 119 170 132
f 131 84 132
f 132 84 119
f 116 170 119
f 52 53 20
f 20 51 52
f 20 50 21
f 20 53 50
f 48 51 20
f 20 19 48
f 21 5 20
f 20 5 19
f 143 144 96
f 96 95 143
f 96 144 145
f 58 30 60
f 60 59 58
f 59 29 58
f 55 23 54
f 54 24 55
f 55 24 23
f 71 113 72
f 71 110 113
f 72 38 71
f 71 38 70
f 70 110 71
f 522 523 79
f 79 526 522
f 522 526 523
f 162 111 164
f 162 164 206
f 206 166 162
f 158 163 159
f 163 111 159
f 159 109 158
f 159 111 109
f 505 473 553
f 553 506 505
f 473 505 474
f 444 443 474
f 474 443 473
f 474 505 506
f 469 443 573
f 472 443 469
f 573 571 469
f 469 571 564
f 564 472 469
f 500 553 501
f 501 543 500
f 553 543 501
f 499 503 500
f 533 509 499
f 509 503 499
f 448 479 449
f 448 420 419
f 449 420 448
f 561 560 569
f 561 357 549
f 549 560 561
f 576 390 569
f 569 568 576
f 576 574 573
f 566 574 575
f 575 568 566
f 574 576 575
f 575 576 568
f 546 545 557
f 556 567 557
f 557 545 556
f 557 568 558
f 567 568 557
f 558 547 557
f 547 546 557
f 527 529 530
f 529 536 530
f 78 527 530
f 530 536 531
f 378 395 396
f 395 424 396
f 396 397 378
f 399 397 396
f 425 399 396
f 396 424 425
f 435 436 410
f 410 436 411
f 410 437 435
f 388 408 410
f 433 437 410
f 410 408 433
f 440 434 411
f 339 434 440
f 440 324 339
f 466 435 465
f 466 436 435
f 411 434 338
f 338 434 339
f 338 409 411
f 339 324 338
f 338 324 334
f 347 348 338
f 348 409 338
f 365 366 356
f 355 364 365
f 365 356 355
f 364 385 365
f 385 366 365
f 350 348 347
f 351 349 350
f 403 402 427
f 427 404 403
f 383 402 403
f 403 404 383
f 150 198 199
f 199 200 150
f 198 200 199
f 150 200 201
f 201 203 153
f 201 200 236
f 265 237 266
f 266 237 236
f 266 235 265
f 236 235 266
f 203 201 204
f 204 201 236
f 149 148 198
f 102 148 149
f 149 198 150
f 150 102 149
f 151 102 150
f 151 103 102
f 217 215 243
f 243 215 214
f 214 242 243
f 264 263 267
f 265 235 264
f 235 263 264
f 264 242 265
f 264 243 242
f 171 156 213
f 214 171 213
f 213 237 214
f 329 328 344
f 344 343 351
f 327 343 344
f 344 328 327
f 347 338 332
f 288 307 294
f 278 288 294
f 294 292 278
f 309 292 294
f 294 307 309
f 322 324 309
f 309 307 322
f 334 324 321
f 321 307 306
f 324 322 321
f 321 322 307
f 514 494 512
f 493 492 513
f 492 511 513
f 488 493 513
f 513 511 488
f 374 373 392
f 375 359 374
f 374 392 375
f 359 358 374
f 358 373 374
f 416 447 445
f 447 476 445
f 139 91 90
f 195 140 139
f 139 140 91
f 119 74 118
f 118 116 119
f 115 116 73
f 114 167 115
f 73 72 115
f 72 114 115
f 193 139 192
f 169 192 170
f 170 116 169
f 169 193 192
f 145 147 146
f 146 96 145
f 146 147 98
f 30 58 61
f 94 95 61
f 6 5 28
f 28 29 6
f 28 58 29
f 111 162 112
f 112 110 70
f 70 111 112
f 470 444 475
f 444 474 475
f 475 500 470
f 475 506 500
f 475 474 506
f 500 543 542
f 542 499 500
f 542 543 533
f 533 499 542
f 419 418 446
f 446 448 419
f 418 417 446
f 446 417 416
f 416 445 446
f 569 372 570
f 570 561 569
f 570 372 357
f 357 561 570
f 441 576 573
f 573 443 441
f 443 413 441
f 415 413 390
f 415 441 413
f 524 127 78
f 78 530 524
f 524 180 127
f 524 220 180
f 524 532 220
f 531 532 524
f 524 530 531
f 389 409 348
f 388 410 389
f 389 410 411
f 411 409 389
f 496 494 497
f 497 466 496
f 439 440 411
f 310 324 439
f 324 440 439
f 369 350 349
f 340 356 554
f 370 554 356
f 153 150 202
f 202 201 153
f 150 201 202
f 203 204 154
f 155 107 154
f 154 107 153
f 153 203 154
f 106 107 68
f 153 107 106
f 246 264 267
f 267 260 246
f 260 244 246
f 246 244 217
f 217 243 246
f 243 264 246
f 205 156 155
f 205 213 156
f 155 154 205
f 205 154 204
f 237 213 205
f 236 237 205
f 205 204 236
f 331 336 335
f 331 335 323
f 336 332 323
f 323 335 336
f 308 319 323
f 323 319 331
f 347 332 346
f 351 350 346
f 346 350 347
f 345 336 329
f 345 332 336
f 329 344 345
f 345 344 351
f 351 346 345
f 345 346 332
f 320 321 306
f 320 323 332
f 320 306 308
f 308 323 320
f 497 494 515
f 494 514 515
f 192 139 185
f 133 132 185
f 185 132 170
f 170 192 185
f 73 116 117
f 116 118 117
f 117 74 73
f 117 118 74
f 195 139 194
f 139 193 194
f 167 209 194
f 194 209 208
f 208 225 194
f 194 225 195
f 116 115 168
f 168 169 116
f 168 115 167
f 167 169 168
f 98 63 97
f 97 146 98
f 96 146 97
f 57 61 58
f 57 28 26
f 58 28 57
f 94 61 57
f 56 94 57
f 57 26 56
f 5 26 27
f 27 28 5
f 26 28 27
f 160 162 166
f 160 112 162
f 110 112 160
f 160 166 161
f 161 110 160
f 478 476 504
f 504 479 478
f 479 448 478
f 576 441 412
f 441 415 412
f 390 576 412
f 412 415 390
f 348 350 387
f 387 389 348
f 494 496 495
f 495 496 466
f 465 494 495
f 495 466 465
f 468 466 497
f 468 439 466
f 310 439 468
f 438 439 411
f 466 439 438
f 411 436 438
f 436 466 438
f 341 370 356
f 341 349 340
f 554 370 341
f 340 554 341
f 356 366 367
f 389 387 367
f 388 389 367
f 367 386 388
f 367 366 386
f 152 151 150
f 152 106 151
f 152 150 153
f 153 106 152
f 103 151 105
f 151 106 105
f 104 103 105
f 105 66 65
f 65 104 105
f 68 66 105
f 105 106 68
f 334 321 333
f 321 320 333
f 333 338 334
f 333 332 338
f 333 320 332
f 295 515 521
f 521 515 514
f 512 295 521
f 521 514 512
f 311 295 310
f 311 515 295
f 497 515 311
f 310 468 311
f 311 468 497
f 133 185 138
f 138 185 139
f 90 133 138
f 138 139 90
f 167 194 212
f 212 194 193
f 212 169 167
f 193 169 212
f 96 97 62
f 95 96 62
f 62 61 95
f 30 61 62
f 63 30 62
f 62 97 63
f 448 446 477
f 477 478 448
f 477 446 445
f 477 445 476
f 476 478 477
f 544 369 349
f 349 341 544
f 356 369 544
f 544 341 356
f 350 369 368
f 368 387 350
f 368 367 387
f 368 369 356
f 356 367 368
f 13 41 485
f 485 498 13
f 5 4 16
f 1 4 5
f 65 66 30
f 30 66 31

