# https://github.com/mikedh/trimesh
v 0.05027356 -0.00469077 -0.06760915
v -0.03331031 -0.00603231 0.06018648
v -0.05304934 0.00201079 -0.04491260
v 0.05369088 -0.00814102 0.02036486
v -0.00736832 -0.00952403 0.00335506
v 0.02077041 0.00823472 0.06329033
v -0.04565293 0.00682131 0.01944031
v -0.01273079 0.00790088 -0.06158957
v 0.04356544 -0.00928657 -0.02747580
v -0.00200418 -0.00945944 0.04457293
v 0.01675229 -0.00690606 -0.06582657
v -0.04088141 -0.00912509 -0.00871124
v 0.04581327 -0.00737353 0.05120515
v 0.04759110 0.00902881 -0.00200355
v -0.00870680 0.00842849 0.06602623
v -0.03283721 -0.00819846 -0.05965811
v 0.04624593 0.00825555 -0.04625240
v 0.01675497 -0.00971401 0.00469471
v -0.01273246 -0.00941955 -0.01943789
v 0.03284165 0.00839296 -0.06349050
v 0.00602670 -0.00603231 0.06746022
v -0.04758403 -0.00874894 -0.02747580
v 0.05103436 -0.00943284 -0.00737159
v -0.05245735 -0.00693948 -0.06190257
v -0.04732859 -0.00840319 0.00872310
v 0.02889325 -0.00825311 0.06109216
v -0.03149467 0.00967794 -0.05697468
v -0.01547072 -0.00812013 0.06376203
v -0.03672292 0.00840569 0.05027117
v 0.05026806 0.00852728 0.01542136
v 0.04819392 0.00661614 0.04088417
v 0.05027356 -0.00869054 -0.04357279
v 0.03785391 0.00695809 0.05651659
v -0.02479921 0.00841329 0.06204502
v -0.04758403 0.00854151 -0.05831449
v -0.04568359 -0.00813152 0.02452533
v -0.04239358 -0.00603231 0.04759187
v 0.04968566 -0.00943854 0.03686522
v 0.00602670 0.00906300 0.06501678
v 0.01809483 0.00821655 -0.06319658
v 0.04624593 0.00715998 -0.06099792
v 0.01809345 -0.00334988 0.06596019
v 0.05099240 -0.00805919 -0.05524171
v -0.05230936 -0.00805919 -0.04893202
v 0.05244436 -0.00949364 0.00335506
v -0.00469136 -0.00603231 0.06749796
v 0.04562936 0.00297434 0.05100704
v 0.03875304 -0.00334988 0.05757322
v -0.01674790 0.00200928 0.06660172
v -0.03354531 0.00410279 0.05900721
v 0.02882173 0.00200928 0.06259219
v 0.02479697 -0.00066872 -0.06629226
v -0.02441095 -0.00469110 0.06444129
v -0.04438598 0.00565487 0.02881788
v -0.02211802 0.00838739 -0.06060475
v 0.05008414 -0.00201057 0.04356348
v -0.00066570 0.00335049 0.06755456
v 0.05353763 -0.00063516 0.01542136
v -0.03927727 -0.00066935 0.05418635
v 0.01270888 0.00348347 0.06696022
v -0.05314449 0.00469215 -0.05295525
v -0.04490706 -0.00898071 -0.01943789
v -0.01540942 0.00965382 0.06099782
v -0.04892657 0.00067010 -0.06225375
v 0.05160654 -0.00956963 0.01140240
v 0.05198609 0.00221876 -0.06367753
v -0.04088189 0.00956467 -0.05429506
v -0.04693011 -0.00805933 0.01626100
v -0.04631707 0.00066996 0.02345927
v -0.05395847 -0.00335009 -0.05563487
v -0.03016335 0.00966902 0.05562978
v 0.03954379 0.00603284 -0.06517002
v 0.02747303 0.00855197 0.05965817
v 0.02345443 -0.00852713 -0.06367753
v -0.03953935 -0.00823003 -0.05697468
v 0.01272931 -0.00803464 0.06562056
v -0.03686597 -0.00775348 0.05429013
v -0.02766009 0.00200928 0.06278088
v 0.02613951 0.00603284 -0.06503261
v 0.00067278 -0.00828920 0.06367712
v 0.02211911 -0.00836139 0.06233747
v 0.00602670 0.00200928 0.06770551
v -0.04758403 0.00915429 -0.05161163
v 0.04156283 0.00804474 0.05095043
v 0.04976740 -0.00843168 0.04356348
v 0.01067385 -0.00804434 -0.06435316
v 0.03283717 -0.00334988 0.06083744
v 0.03552434 -0.00859886 0.05696943
v -0.04112662 0.00200928 0.04893152
v 0.03427782 0.00335049 0.05999780
v 0.02385607 -0.00201057 0.06426205
v 0.01879845 0.00273687 0.06569603
v 0.00067278 -0.00334988 0.06769608
v -0.04827881 -0.00253110 0.00825139
v 0.04327935 -0.00201057 0.05398823
v 0.05229111 0.00405529 0.01881766
v -0.01939421 0.00743493 0.06468658
v -0.05364133 -0.00242164 -0.04934045
v -0.05230936 0.00408866 -0.05902446
v -0.01004528 -0.00808403 0.06578095
v 0.04607892 0.00713097 0.04624278
v -0.03729510 0.00469171 0.05462033
v 0.04158326 -0.00807263 0.05498826
v -0.02211203 0.00066996 0.06515829
v 0.01005235 -0.00201057 0.06746966
v -0.00334266 0.00946195 0.06458280
v -0.04585728 -0.00334988 0.02747822
v 0.04624593 -0.00763211 -0.06501734
v -0.04223011 0.00870395 0.02345927
v -0.01139398 0.00335049 0.06714890
v 0.01943737 -0.00200941 -0.06627698
v 0.05385720 -0.00603146 -0.06367753
v 0.04165478 0.00303323 0.05504486
v -0.00602984 0.00335049 0.06735645
v -0.01674790 -0.00334988 0.06651681
v -0.02870226 -0.00703158 0.06235634
v 0.04813262 -0.00334988 0.04806358
v 0.04848001 0.00198078 0.04627109
v 0.01111496 0.00812833 0.06577151
v -0.01442855 0.00794596 0.06563000
v 0.05399741 -0.00737353 0.01542136
v -0.03066400 -0.00201057 0.06157330
v -0.02972400 0.00698279 0.06046951
v 0.02479607 0.00469171 0.06380920
v -0.04356859 -0.00910039 0.01274205
v -0.03820445 -0.00829490 0.04624278
v -0.03464879 -0.00066935 0.05882796
v 0.04088633 0.00821098 -0.06099792
f 14 73 30
f 24 44 70
f 75 44 24
f 30 73 84
f 99 24 70
f 64 24 99
f 67 71 27
f 83 71 67
f 96 66 30
f 58 66 96
f 121 58 4
f 27 14 20
f 20 14 128
f 17 14 30
f 30 66 17
f 128 14 17
f 111 24 64
f 33 73 6
f 47 84 33
f 33 84 73
f 47 118 101
f 101 84 47
f 30 84 101
f 61 99 70
f 27 71 63
f 63 14 27
f 117 118 47
f 47 13 117
f 1 79 72
f 79 20 72
f 72 66 1
f 128 17 41
f 41 17 66
f 66 72 41
f 41 20 128
f 41 72 20
f 64 79 52
f 52 111 64
f 52 79 1
f 1 111 52
f 8 79 64
f 64 55 8
f 64 99 35
f 35 55 64
f 27 55 35
f 35 67 27
f 83 67 35
f 35 61 83
f 99 61 35
f 91 92 42
f 124 92 91
f 124 33 6
f 6 119 124
f 95 13 47
f 11 111 1
f 24 111 11
f 1 108 11
f 75 24 16
f 16 74 75
f 22 44 75
f 22 125 44
f 44 125 25
f 31 101 118
f 31 96 30
f 30 101 31
f 60 119 82
f 60 42 92
f 92 124 60
f 60 124 119
f 100 21 46
f 120 110 15
f 49 110 120
f 73 14 106
f 14 63 106
f 4 65 45
f 26 81 88
f 85 117 13
f 40 8 55
f 27 20 40
f 40 55 27
f 40 20 79
f 79 8 40
f 26 42 76
f 76 42 21
f 76 81 26
f 76 21 100
f 13 95 103
f 26 88 103
f 103 85 13
f 26 103 87
f 87 42 26
f 91 42 87
f 112 108 1
f 1 66 112
f 112 58 121
f 112 66 58
f 121 4 112
f 4 45 112
f 32 74 43
f 74 108 43
f 108 112 43
f 43 45 32
f 43 112 45
f 24 11 86
f 86 16 24
f 74 16 86
f 86 108 74
f 86 11 108
f 75 74 19
f 98 61 70
f 125 126 36
f 36 25 125
f 36 126 77
f 21 42 105
f 42 60 105
f 105 60 82
f 82 119 57
f 57 119 15
f 115 110 49
f 115 46 110
f 100 46 115
f 28 116 77
f 100 116 28
f 77 126 28
f 15 119 39
f 39 106 15
f 39 119 6
f 6 73 39
f 73 106 39
f 9 74 32
f 9 19 74
f 10 126 125
f 10 28 126
f 10 88 81
f 100 28 10
f 118 117 56
f 117 85 56
f 56 85 4
f 56 4 58
f 58 96 56
f 56 31 118
f 96 31 56
f 88 10 38
f 38 65 4
f 4 85 38
f 38 103 88
f 85 103 38
f 33 124 90
f 48 103 95
f 48 87 103
f 48 90 87
f 51 124 91
f 91 87 51
f 51 90 124
f 87 90 51
f 125 22 62
f 62 22 75
f 75 19 62
f 83 61 7
f 25 36 68
f 44 25 68
f 70 44 68
f 68 98 70
f 15 110 114
f 114 57 15
f 77 116 2
f 34 63 71
f 34 120 15
f 15 106 34
f 34 106 63
f 32 45 23
f 23 9 32
f 23 45 65
f 18 23 65
f 65 38 18
f 18 38 10
f 19 9 18
f 9 23 18
f 100 10 80
f 80 10 81
f 80 76 100
f 81 76 80
f 33 90 113
f 47 33 113
f 113 95 47
f 113 48 95
f 90 48 113
f 125 62 12
f 12 62 19
f 109 71 83
f 83 7 109
f 98 68 94
f 57 114 93
f 82 57 93
f 110 46 93
f 93 114 110
f 93 46 21
f 93 105 82
f 21 105 93
f 59 2 127
f 49 120 97
f 120 34 97
f 5 10 125
f 5 18 10
f 19 18 5
f 125 12 5
f 5 12 19
f 71 109 29
f 29 109 7
f 61 98 3
f 98 94 3
f 3 7 61
f 107 68 36
f 107 94 68
f 89 59 102
f 102 29 89
f 7 3 69
f 69 3 94
f 94 107 69
f 54 29 7
f 54 89 29
f 7 69 54
f 54 69 89
f 59 89 37
f 37 107 36
f 37 69 107
f 89 69 37
f 37 36 77
f 77 2 37
f 2 59 37
f 123 97 34
f 123 78 97
f 123 34 71
f 71 29 123
f 123 29 102
f 127 2 122
f 122 2 116
f 49 97 104
f 97 78 104
f 104 115 49
f 78 123 50
f 127 122 50
f 50 122 78
f 50 123 102
f 50 59 127
f 102 59 50
f 115 104 53
f 53 116 100
f 100 115 53
f 53 122 116
f 78 122 53
f 53 104 78

