# https://github.com/mikedh/trimesh
v -0.00084734 -0.00408456 -0.06918006
v 0.00090700 0.00014617 0.10033306
v -0.00021499 -0.00361779 0.01836852
v 0.00279751 -0.00121824 0.05966319
v 0.00183720 -0.00269876 -0.01948980
v -0.00094226 -0.00187676 -0.09913090
v 0.00305411 0.00057016 -0.04639479
v 0.00163623 0.00283754 0.07959787
v 0.00283875 0.00131577 0.00005439
v 0.00270783 -0.00146347 0.03689743
v 0.00229150 0.00209346 -0.08390167
v -0.00320982 0.00146015 -0.05684048
v 0.00309993 0.00035167 -0.03493381
v -0.00120803 -0.00324422 0.08986784
v -0.00059401 -0.00353299 0.04718693
v 0.00304167 0.00047466 0.06989411
v 0.00307113 0.00045174 0.02701795
v 0.00312546 -0.00027400 -0.00912220
v 0.00301222 -0.00087141 -0.07595512
v -0.00101623 0.00314312 -0.09253156
v 0.00264171 -0.00174842 -0.06125306
v 0.00004816 -0.00341917 -0.08839233
v 0.00311434 0.00008811 -0.05361891
v 0.00112957 0.00310111 0.08777870
v -0.00242822 0.00207589 0.09429993
v -0.00299969 -0.00060556 0.07565388
v -0.00301933 0.00230431 -0.04815200
v 0.00265022 0.00170920 -0.01540915
v 0.00305411 -0.00048638 0.04271578
v -0.00302849 0.00012554 0.08164795
v 0.00194586 -0.00234277 -0.09370305
v 0.00288784 -0.00083321 0.09521760
v 0.00166045 -0.00281488 -0.08140251
v 0.00301287 -0.00065521 0.04966656
v 0.00163100 -0.00252764 0.07514624
v 0.00095413 0.00212326 -0.09698319
v -0.00356200 -0.00002419 -0.06921911
v -0.00214936 -0.00184391 0.09701386
v 0.00281060 -0.00143978 -0.07017582
v -0.00127022 0.00352128 -0.05223266
v 0.00310779 0.00022714 -0.00439723
v -0.00254408 -0.00149784 -0.09385924
v 0.00288391 -0.00094093 0.08838397
v 0.00055155 0.00325924 0.09707244
v 0.00128471 0.00302471 -0.08913427
v -0.00301671 0.00052508 0.07172942
v 0.00121990 -0.00279197 0.06897645
v 0.00299847 -0.00056659 0.07875831
v -0.00263704 0.00135244 -0.09764703
v 0.00289111 0.00110492 -0.09182867
v 0.00212653 0.00229209 -0.07755615
v -0.00018226 -0.00387753 -0.06033539
v 0.00302269 0.00058314 0.07383809
v -0.00238894 0.00151210 0.09834154
v -0.00094684 -0.00308227 0.09346038
v 0.00099210 0.00353885 -0.04944063
v 0.00308553 -0.00019608 0.05628541
v 0.00264826 0.00172142 0.03537450
v -0.00194577 -0.00309143 -0.07232354
v 0.00246955 -0.00163077 0.09187888
v -0.00292114 -0.00080800 0.08811062
v 0.00270193 -0.00159868 -0.08960287
v 0.00224895 -0.00116400 -0.09686603
v -0.00057634 0.00315000 0.08494762
v 0.00160350 -0.00219914 0.09816583
v -0.00055866 -0.00289663 -0.09598743
v 0.00294610 -0.00100357 -0.08423358
v 0.00311303 0.00012707 -0.03809680
v 0.00298996 -0.00099822 -0.01214853
v 0.00281649 0.00136389 0.06112754
v 0.00238641 0.00209193 0.02928281
v 0.00116688 -0.00273009 0.08701724
v 0.00247937 0.00200255 0.07704014
v 0.00192950 -0.00230381 0.07161228
v 0.00027793 -0.00294934 0.09592048
v -0.00212252 0.00262440 -0.09495262
v 0.00262011 0.00172524 0.09437803
v 0.00278703 -0.00145506 -0.01728351
v -0.00296892 0.00040438 0.09226937
v 0.00287279 0.00072982 0.09863441
v -0.00004021 0.00371990 -0.04700005
v -0.00317120 -0.00108073 -0.05615712
v 0.00307179 -0.00060861 -0.08136345
v 0.00265087 -0.00166591 -0.00275716
v -0.00117137 -0.00150319 0.09933730
v 0.00302138 0.00065419 -0.06058922
v -0.00285044 -0.00081717 -0.09639744
v 0.00025109 0.00323862 -0.09465975
v 0.00301876 0.00074434 -0.00679877
v 0.00276019 0.00126993 -0.09426926
v 0.00217956 -0.00239853 -0.05896867
v 0.00042718 0.00340745 -0.08692799
v 0.00269408 0.00150599 -0.08618605
v 0.00297818 0.00079017 0.08682199
v 0.00303971 -0.00075911 0.00095252
v -0.00296565 0.00017672 0.09638907
v 0.00095021 0.00083830 -0.09874041
v 0.00103138 0.00207513 0.09941540
v 0.00112891 -0.00268807 0.09062929
v 0.00290290 0.00090629 0.09636955
v -0.00312276 0.00031500 -0.09301968
v 0.00069491 0.00327910 -0.09136008
v 0.00301156 -0.00075682 -0.09296111
v 0.00286166 -0.00129158 -0.00572491
v -0.00083032 0.00191088 -0.09838896
v 0.00138487 -0.00138020 -0.09866231
v 0.00294479 -0.00108990 -0.05201789
v -0.00136056 0.00284442 0.09291369
v 0.00249180 -0.00196156 -0.06839908
v -0.00188424 0.00336467 -0.04711720
v -0.00138870 0.00072371 0.09966922
v -0.00013120 -0.00271022 0.09785343
v 0.00279031 0.00142577 -0.00851694
v 0.00203423 -0.00111205 0.09951302
v -0.00260954 -0.00217012 0.09002403
v -0.00341995 -0.00045888 -0.06752047
v -0.00303242 0.00124625 -0.09553836
v 0.00113153 0.00303693 -0.09321493
v -0.00245113 0.00229056 -0.09284396
v 0.00074793 -0.00340465 -0.08684989
v 0.00099406 -0.00286454 -0.09659269
v 0.00173704 -0.00232214 0.09635002
v 0.00268819 -0.00129311 0.09740435
v 0.00143462 -0.00294628 -0.08903665
v 0.00221098 0.00233945 0.08100364
v 0.00294414 0.00093379 0.07813352
v 0.00302007 0.00067100 0.05970224
v 0.00245384 -0.00196385 -0.08249589
f 1 115 59
f 82 59 115
f 37 115 61
f 115 96 61
f 14 115 1
f 1 15 14
f 116 115 37
f 116 82 115
f 59 82 116
f 37 61 26
f 26 61 96
f 95 83 18
f 95 69 83
f 38 96 115
f 38 85 96
f 112 85 38
f 115 14 38
f 37 26 30
f 30 26 96
f 18 83 23
f 50 103 90
f 83 103 50
f 50 23 83
f 86 23 50
f 83 69 19
f 19 103 83
f 60 5 91
f 93 50 90
f 54 25 96
f 96 85 54
f 96 25 79
f 25 27 79
f 79 30 96
f 37 30 79
f 37 27 12
f 74 5 60
f 60 122 74
f 5 74 35
f 35 74 122
f 72 35 122
f 75 65 112
f 75 122 65
f 75 14 15
f 112 38 55
f 55 38 14
f 55 75 112
f 14 75 55
f 18 23 68
f 90 103 63
f 62 103 67
f 103 19 67
f 67 39 62
f 19 39 67
f 69 95 34
f 34 43 69
f 69 43 104
f 104 39 69
f 78 39 104
f 50 93 28
f 125 77 73
f 73 77 58
f 58 28 73
f 80 98 2
f 2 98 111
f 98 54 111
f 111 85 2
f 111 54 85
f 46 27 37
f 37 79 46
f 46 79 27
f 24 77 125
f 110 27 25
f 3 15 1
f 1 52 3
f 3 75 15
f 72 75 3
f 35 72 47
f 47 52 5
f 5 35 47
f 47 3 52
f 72 3 47
f 99 72 122
f 122 75 99
f 99 75 72
f 13 68 23
f 126 77 94
f 58 77 70
f 77 126 70
f 1 59 66
f 66 22 1
f 107 19 69
f 69 39 107
f 107 39 19
f 21 39 78
f 62 39 21
f 29 95 18
f 29 34 95
f 4 104 43
f 10 104 4
f 113 28 58
f 58 70 113
f 113 70 9
f 113 9 50
f 50 28 113
f 94 77 100
f 77 80 100
f 100 32 94
f 80 32 100
f 117 12 27
f 27 119 117
f 37 12 117
f 117 101 37
f 8 24 125
f 76 110 20
f 76 119 27
f 27 110 76
f 76 117 119
f 7 23 86
f 7 13 23
f 86 50 7
f 18 68 41
f 68 13 41
f 41 13 17
f 6 66 87
f 101 117 87
f 87 116 37
f 37 101 87
f 106 6 97
f 6 105 97
f 90 63 97
f 97 63 106
f 88 76 20
f 105 76 88
f 84 21 78
f 78 104 84
f 84 104 10
f 91 21 84
f 84 10 60
f 60 91 84
f 91 128 109
f 109 21 91
f 109 128 62
f 62 21 109
f 57 29 18
f 18 41 57
f 33 128 91
f 33 91 5
f 62 128 31
f 128 33 31
f 31 33 124
f 31 103 62
f 31 63 103
f 22 66 121
f 121 31 124
f 121 6 106
f 121 66 6
f 106 63 121
f 63 31 121
f 43 32 123
f 123 4 43
f 123 122 60
f 60 10 123
f 10 4 123
f 65 122 123
f 123 32 80
f 71 51 125
f 125 73 71
f 71 73 28
f 25 54 108
f 108 110 25
f 108 64 110
f 49 76 105
f 117 76 49
f 49 87 117
f 49 105 6
f 6 87 49
f 56 8 125
f 24 8 56
f 125 51 56
f 56 51 45
f 20 110 40
f 110 64 40
f 64 81 40
f 44 81 64
f 64 108 44
f 24 56 44
f 44 56 81
f 77 24 44
f 44 54 98
f 44 108 54
f 98 80 44
f 44 80 77
f 9 70 89
f 89 70 126
f 50 9 89
f 89 7 50
f 17 13 89
f 13 7 89
f 42 66 59
f 42 87 66
f 59 116 42
f 116 87 42
f 118 45 90
f 36 97 105
f 105 88 36
f 90 97 36
f 36 118 90
f 88 118 36
f 16 41 17
f 16 57 41
f 34 29 48
f 29 57 48
f 43 34 48
f 48 32 43
f 94 32 48
f 48 16 94
f 57 16 48
f 124 33 120
f 120 52 1
f 5 52 120
f 120 33 5
f 1 22 120
f 22 121 120
f 120 121 124
f 65 123 114
f 114 123 80
f 114 80 2
f 2 85 114
f 112 65 114
f 114 85 112
f 11 71 28
f 51 71 11
f 11 28 93
f 45 51 11
f 11 93 90
f 90 45 11
f 81 56 92
f 92 88 20
f 20 40 92
f 92 40 81
f 127 126 94
f 127 89 126
f 17 89 127
f 127 16 17
f 102 56 45
f 102 92 56
f 45 118 102
f 102 118 88
f 88 92 102
f 94 16 53
f 53 127 94
f 16 127 53

