# https://github.com/mikedh/trimesh
v -0.00734775 -0.03393411 -0.09551825
v 0.00104886 0.02367094 0.10529965
v -0.00671727 0.03476495 -0.00523787
v 0.00846252 -0.03779845 0.07973981
v 0.00647545 -0.02414148 -0.03213735
v -0.00635061 0.03386023 0.05094421
v 0.00204003 -0.00648903 0.09872376
v -0.00207841 0.02946267 0.02280098
v -0.00183476 0.03380831 0.07872211
v -0.00149428 -0.01388829 -0.09971658
v -0.00983172 -0.01154715 -0.03254339
v -0.01149570 0.02413814 -0.02204291
v 0.00734598 -0.02490982 0.09440507
v 0.00644943 0.00944006 0.10108534
v -0.00843230 0.03782025 0.01155413
v 0.00029661 0.02991503 0.06403074
v -0.00823596 0.03029323 0.03668341
v -0.00758038 -0.02624053 -0.03044423
v -0.01085983 -0.02414148 -0.10519432
v 0.00426539 -0.01007988 -0.03254339
v -0.00212809 0.03152426 0.09253930
v -0.01055184 0.03578091 -0.01704576
v 0.00089776 -0.02624053 -0.10181575
v -0.01259898 -0.01472673 -0.09439206
v -0.01023486 0.02833547 0.00525224
v -0.00644050 0.03786474 0.02834612
v -0.00418849 0.02731209 -0.01268793
v -0.00424053 0.02482781 0.08429335
v 0.01264483 -0.03325258 0.08829890
v 0.00505375 -0.01579583 0.09674056
v -0.00322571 0.02203947 0.09341348
v -0.00174723 0.03211010 0.04303749
v -0.00307904 0.03043414 0.01365476
v -0.00517729 0.02833547 0.07242022
v -0.00869961 0.03463888 0.01995665
v 0.00104785 -0.03216866 -0.09551825
v -0.00382893 0.03592923 0.05982948
v 0.00010736 0.02961840 0.05562823
v -0.00827854 0.03784991 0.00315161
v -0.00314901 -0.01994337 -0.10555440
v 0.00415247 0.02284038 0.09761474
v 0.00314711 0.00140878 0.10092877
v -0.00943023 -0.01604344 -0.10197663
v 0.00202583 0.02691906 0.07662148
v -0.00209497 0.03149459 0.03146445
v -0.01088775 0.02833547 -0.00733850
v -0.00608330 0.02989278 -0.01994228
v 0.00504902 -0.03043458 0.08921221
v 0.00260066 0.02612557 0.08921221
v 0.00046693 0.02995953 0.09971537
v -0.00393301 0.02998177 0.00105098
v -0.00631749 0.02715636 0.06118642
v -0.00895036 0.03043414 0.02624549
v -0.00734775 -0.03105861 -0.10242098
v 0.00104886 0.01364481 0.10395578
v 0.01060808 -0.01816888 0.09341348
v -0.00186078 0.03392697 0.07031959
v -0.01117635 0.02833547 -0.01574102
v 0.00839628 -0.00419014 0.09867158
v -0.00659426 0.03628518 0.04093686
v -0.00895557 -0.01784726 -0.03044423
v -0.00981616 0.03043414 0.01155413
v -0.00754285 0.03043414 0.04512507
v 0.00529977 0.01784214 0.10181600
v -0.00258464 0.02203947 0.09971537
v -0.00722114 0.03463888 -0.01153976
v -0.00358291 0.03043414 0.00735287
v 0.00205658 0.02718602 0.08292337
v 0.00734834 -0.03609282 0.08730730
v -0.00418139 0.03571417 0.03540476
v -0.01052109 0.02964065 -0.00149326
v -0.00524838 -0.02621691 -0.10528626
v 0.01188548 -0.02833591 0.09131285
v -0.00105152 -0.03157526 -0.10089640
v 0.01267085 -0.03520293 0.08292337
v -0.00351904 0.03043414 0.08292337
v -0.00005349 0.00596206 0.10087659
v 0.00362259 -0.01994125 0.09341348
v -0.00452440 0.03508383 0.02414486
v -0.00418613 0.02941076 -0.00429846
v -0.00948498 0.03463888 0.00735287
v -0.00159111 0.03236965 0.04932633
v -0.00840865 0.03155392 0.03166016
v -0.00035865 0.01842057 0.10507785
v -0.00586804 0.03647799 0.01575539
v -0.00583729 0.02833547 0.06611833
v -0.00393774 0.03605529 0.04512507
v 0.00038413 0.03007076 0.07242022
v -0.01233633 -0.01994337 -0.10181575
v -0.00666287 0.03239190 -0.01578016
v -0.00374850 0.03271820 0.01784297
v -0.00947551 0.03043414 0.01785602
v -0.00192465 0.03180605 0.03674865
v -0.00148466 0.02623680 0.10181600
v -0.01087829 0.03043414 -0.01153976
v -0.00105152 -0.02414148 -0.10560036
v -0.00260357 0.03443124 0.05368416
v -0.00049806 -0.01784726 -0.10181575
v -0.01097240 -0.02833958 -0.10181575
v -0.01261399 -0.01691140 -0.09839886
v -0.00194594 0.03385281 0.06403074
v -0.00643577 0.03007818 0.05772885
v -0.00485321 0.02623680 -0.02204291
v -0.00524838 -0.01630323 -0.10328669
v -0.00035155 0.03087167 0.05982948
v -0.00551794 0.03254022 0.06193011
v 0.00430623 0.02050441 0.10506480
v 0.00354925 0.02413814 0.10181600
v -0.00603363 0.03413461 -0.00104966
v 0.00785930 -0.03134672 0.09229140
v -0.00678351 0.03043414 0.05352759
v -0.00205476 0.02924761 0.09640132
v 0.01144785 -0.02413858 0.09131285
v -0.01129226 0.02833547 -0.01994228
v -0.00788823 0.03043414 0.04093686
v -0.00181820 0.03389730 0.07452085
v -0.00922004 0.03043414 0.02204423
v 0.00592901 -0.03686406 0.08291033
v -0.00635298 0.03782025 0.03254739
v -0.00849381 0.03415686 0.02414486
v -0.00628911 0.03779059 0.02084387
v -0.00944712 -0.01969243 -0.10464272
v 0.00043145 0.03018200 0.08082274
v 0.01058679 -0.02203992 0.09456164
v -0.00718092 0.03043414 0.04932633
v -0.00013392 0.01008524 0.10299027
v 0.00207551 0.02724535 0.09761474
v -0.00625126 0.03577350 0.00578718
f 24 22 100
f 20 41 64
f 4 36 75
f 1 36 4
f 4 118 1
f 1 118 18
f 19 89 122
f 72 19 96
f 72 54 19
f 74 36 1
f 1 54 74
f 96 23 74
f 74 23 36
f 74 72 96
f 54 72 74
f 20 23 98
f 98 23 96
f 5 23 20
f 75 36 5
f 36 23 5
f 1 18 99
f 99 89 19
f 99 54 1
f 19 54 99
f 100 89 61
f 89 99 61
f 61 99 18
f 61 18 77
f 43 89 100
f 43 122 89
f 104 122 43
f 100 22 43
f 22 104 43
f 119 121 26
f 26 15 119
f 90 47 22
f 20 98 27
f 27 98 103
f 103 47 27
f 47 90 27
f 48 18 118
f 20 64 56
f 56 5 20
f 113 5 56
f 73 56 59
f 113 56 73
f 59 56 14
f 14 56 64
f 124 73 59
f 110 73 124
f 94 65 84
f 10 47 103
f 103 98 10
f 22 47 10
f 10 104 22
f 40 98 96
f 40 122 104
f 104 10 40
f 40 10 98
f 96 19 40
f 19 122 40
f 75 5 29
f 29 5 113
f 113 73 29
f 29 73 110
f 11 24 100
f 100 61 11
f 81 15 22
f 22 62 81
f 22 24 114
f 17 11 52
f 121 119 87
f 87 119 37
f 44 41 20
f 120 6 60
f 60 119 15
f 37 119 60
f 60 21 37
f 6 21 60
f 31 61 77
f 77 65 31
f 31 11 61
f 37 21 9
f 9 21 50
f 22 15 39
f 26 121 39
f 39 15 26
f 128 39 121
f 33 27 51
f 69 48 118
f 110 48 69
f 69 29 110
f 118 4 69
f 69 4 75
f 75 29 69
f 77 18 78
f 18 48 78
f 78 7 77
f 78 48 110
f 110 7 78
f 110 124 13
f 107 14 64
f 59 14 107
f 107 124 59
f 42 13 107
f 107 13 124
f 126 65 77
f 126 84 65
f 77 7 126
f 15 81 35
f 120 60 35
f 35 60 15
f 22 114 95
f 24 11 12
f 12 114 24
f 115 6 120
f 115 17 52
f 11 17 25
f 25 12 11
f 85 128 121
f 41 44 68
f 128 85 91
f 38 44 20
f 52 11 28
f 11 31 28
f 28 31 65
f 80 27 90
f 80 51 27
f 39 128 66
f 66 80 90
f 51 80 66
f 66 90 22
f 22 39 66
f 50 107 108
f 108 64 41
f 108 107 64
f 2 50 94
f 2 107 50
f 94 84 2
f 84 107 2
f 42 107 55
f 55 107 84
f 84 126 55
f 92 81 62
f 62 25 92
f 106 21 6
f 6 102 106
f 71 62 22
f 22 95 71
f 116 9 50
f 116 87 37
f 37 9 116
f 8 38 20
f 20 27 8
f 8 27 33
f 112 28 65
f 112 65 94
f 94 50 112
f 50 21 112
f 34 106 102
f 28 112 34
f 128 91 109
f 51 66 109
f 41 68 49
f 49 108 41
f 30 55 126
f 30 126 7
f 30 13 42
f 42 55 30
f 30 7 110
f 110 13 30
f 117 35 81
f 81 92 117
f 117 92 25
f 111 102 6
f 6 125 111
f 111 125 102
f 6 115 63
f 63 125 6
f 63 115 52
f 58 95 114
f 114 12 58
f 127 49 68
f 50 108 127
f 108 49 127
f 97 87 101
f 97 82 87
f 121 87 70
f 87 82 70
f 57 88 101
f 101 87 57
f 87 116 57
f 38 82 105
f 105 97 101
f 82 97 105
f 21 106 76
f 106 34 76
f 76 112 21
f 76 34 112
f 86 34 102
f 102 125 86
f 52 28 86
f 28 34 86
f 86 63 52
f 125 63 86
f 3 66 128
f 128 109 3
f 3 109 66
f 51 109 67
f 67 109 91
f 33 51 67
f 35 117 53
f 53 25 17
f 53 117 25
f 46 25 62
f 62 71 46
f 12 25 46
f 46 58 12
f 46 71 95
f 95 58 46
f 123 57 116
f 88 57 123
f 123 116 50
f 50 127 123
f 68 88 123
f 123 127 68
f 79 85 121
f 121 70 79
f 44 38 16
f 38 105 16
f 16 68 44
f 16 88 68
f 101 88 16
f 16 105 101
f 120 35 83
f 35 53 83
f 83 53 17
f 83 115 120
f 17 115 83
f 45 91 85
f 85 79 45
f 33 67 45
f 45 67 91
f 45 8 33
f 38 8 45
f 32 70 82
f 32 82 38
f 93 79 70
f 93 45 79
f 70 32 93
f 38 45 93
f 93 32 38

