# https://github.com/mikedh/trimesh
v -0.01373408 0.00462648 0.07665448
v 0.03961386 0.01792467 0.05041895
v 0.00955517 -0.02541903 0.03837493
v -0.00741617 0.03794993 0.03577923
v -0.03009131 -0.00616866 0.03750336
v -0.03664127 0.02562745 0.05465435
v -0.01849011 -0.03158652 0.05699423
v 0.03547018 -0.01436719 0.05475508
v 0.01922179 0.04335147 0.05373247
v 0.01338719 0.00961178 0.07668763
v 0.02310931 0.02772139 0.03559279
v 0.02980293 0.00060502 0.03666923
v -0.03966864 0.00314170 0.05690147
v -0.02102698 0.04235814 0.05340621
v -0.02518359 0.02348209 0.03582022
v -0.01463575 -0.02185551 0.03769030
v 0.01998516 -0.02936562 0.05708956
v -0.03500632 -0.01773587 0.05562987
v -0.00061562 0.04873657 0.05195022
v 0.00108494 -0.03629547 0.05369606
v -0.00315382 0.02125001 0.07655392
v 0.00192312 -0.00616916 0.07719987
v 0.00955158 0.03848772 0.03658085
v 0.02358198 -0.01513071 0.03765989
v 0.03204710 0.03243276 0.05382715
v 0.04070624 0.00141196 0.05074935
v -0.03244004 0.00908045 0.03761074
v 0.03105899 0.01501130 0.03698124
v 0.00023175 0.00738537 0.07935206
v -0.00347958 -0.02775625 0.03940068
v -0.04105860 0.01411848 0.05161787
v -0.03042386 0.03531202 0.05074620
v -0.01838265 0.03340628 0.03663925
v -0.02492822 -0.01692937 0.03920813
v 0.02857089 -0.02349729 0.05215489
v -0.04007684 -0.00765266 0.05356980
v -0.02739454 -0.02614701 0.05288440
v -0.01124941 0.04679788 0.04953732
v 0.00763821 0.01905870 0.07678819
v 0.00989129 0.04758868 0.05065077
v -0.01135656 0.01483992 0.07680740
v -0.00909343 -0.03574342 0.05590815
v 0.01107232 -0.03464450 0.05506042
v 0.01011739 -0.00023887 0.07759724
v -0.00768580 -0.00312356 0.07745675
v 0.02624192 0.03844450 0.04943307
v 0.03957688 0.00993486 0.05543284
v 0.03537173 0.02387118 0.05546099
v 0.01754457 0.03487248 0.03691040
v 0.01753321 -0.02180024 0.03861553
v 0.03885623 -0.00617161 0.05472931
v 0.02823911 -0.00786888 0.03745377
v 0.00107978 0.03874903 0.03548154
v -0.03000329 0.01670324 0.03671846
v -0.03196535 0.00145412 0.03725821
v 0.02649983 0.02094385 0.03553535
v -0.00696859 0.00611271 0.07920931
v -0.00110102 0.00017364 0.07921006
v 0.00192594 0.01500961 0.07881796
v 0.03122229 0.00738613 0.03678784
v -0.04181429 0.00739001 0.05194957
v -0.00485084 0.01500961 0.07875732
v -0.04105645 -0.00109317 0.05180376
v 0.00322786 -0.02778310 0.03937801
v -0.00994352 -0.02628770 0.03911255
v 0.03119285 -0.01937090 0.05636680
v 0.00785563 0.01247014 0.07870799
v 0.03540649 0.02816799 0.05038176
v -0.03924434 0.02094776 0.05115647
v -0.03258035 0.03090590 0.05476169
v -0.01501813 0.04404351 0.05449172
v -0.00654782 0.04755391 0.05370199
v 0.02344530 -0.02771706 0.05215914
v -0.02535839 0.03809812 0.05450662
v -0.02321794 0.02916131 0.03669490
v -0.03108437 -0.02223141 0.05653815
v -0.02370470 -0.02843288 0.05707668
v -0.02687709 -0.01125700 0.03748547
v -0.02052665 -0.02100040 0.03938088
v -0.01310659 0.03672059 0.03668753
v 0.01684484 -0.03204951 0.05289342
v 0.02570354 -0.02485297 0.05701999
v 0.00446724 -0.00108439 0.07879575
v 0.00785281 0.00484298 0.07876071
v 0.04074362 0.00823412 0.05014723
v 0.02756215 0.03639570 0.05450781
v -0.03932322 0.01755589 0.05560832
v -0.00315848 -0.03515501 0.05702901
v 0.01508908 0.04594881 0.05113350
v 0.02329117 0.03981785 0.05450781
v 0.03794846 0.02309473 0.05038303
v -0.03759161 -0.01296095 0.05564919
v -0.03891627 -0.00363123 0.05700711
v 0.00277022 0.02127927 0.07659534
v -0.03493743 0.02900307 0.05039080
v -0.01502038 -0.03379619 0.05364839
v -0.00787781 0.01885976 0.07669968
v 0.00603698 -0.03544458 0.05638226
v 0.01332507 0.00382485 0.07663038
v 0.00450794 0.04857159 0.05076570
v 0.03764085 -0.01032911 0.05174392
v -0.01799926 0.04424731 0.04954392
v 0.02188659 0.04172665 0.04952197
v -0.01051793 0.00992775 0.07841307
v 0.04052635 0.00483910 0.05470097
v 0.03941016 -0.00109593 0.05529876
v -0.02144358 -0.03035893 0.05290243
v -0.00315665 -0.00548163 0.07734564
v 0.03017358 0.03475828 0.04972009
v -0.00952400 0.00184711 0.07836673
v -0.04090242 0.01077864 0.05552227
v 0.01294029 0.03450048 0.03505143
v 0.03909959 0.01586275 0.05490572
v -0.00400092 0.00992775 0.07928389
v 0.04050268 0.01302816 0.05036781
v -0.02494701 0.04015321 0.05020295
v 0.01089954 0.01555085 0.07672755
v -0.02906873 0.02127762 0.03759520
v 0.03290595 -0.01853204 0.05202685
v 0.01293873 -0.02227138 0.03750468
v 0.00653134 -0.00570398 0.07663866
v 0.01505394 -0.03200294 0.05717717
v 0.01972315 0.03110719 0.03548580
v 0.01971757 -0.01803443 0.03740776
v 0.01124764 0.04573336 0.05450141
v -0.01078297 0.04615641 0.05397928
v 0.00531740 0.03765897 0.03506396
v 0.00339990 0.00314903 0.07922512
f 63 36 61
f 76 110 18
f 76 18 37
f 16 112 56
f 66 44 82
f 121 82 44
f 45 110 76
f 45 7 108
f 108 58 45
f 45 58 110
f 93 36 92
f 36 18 92
f 92 18 110
f 96 7 107
f 42 96 20
f 42 7 96
f 20 98 42
f 108 7 42
f 28 91 2
f 68 91 28
f 16 56 120
f 96 107 65
f 26 51 101
f 85 105 26
f 105 51 26
f 52 26 101
f 70 97 74
f 39 125 94
f 41 97 70
f 61 36 111
f 19 125 100
f 15 112 16
f 15 127 112
f 119 52 101
f 20 64 81
f 50 73 81
f 99 84 44
f 10 84 99
f 99 44 66
f 105 10 99
f 22 58 108
f 22 98 122
f 122 121 22
f 17 121 122
f 82 121 17
f 122 81 17
f 73 82 17
f 17 81 73
f 77 45 76
f 7 45 77
f 76 37 77
f 37 107 77
f 77 107 7
f 97 41 62
f 93 92 1
f 1 92 110
f 115 105 85
f 85 28 115
f 28 2 115
f 28 56 11
f 11 68 28
f 11 56 112
f 3 120 50
f 50 81 3
f 3 81 64
f 16 120 3
f 46 49 103
f 60 56 28
f 60 28 85
f 85 26 60
f 56 60 12
f 26 52 12
f 12 60 26
f 97 71 14
f 14 74 97
f 71 126 14
f 72 125 19
f 94 125 72
f 113 48 10
f 105 115 113
f 113 115 2
f 113 2 91
f 91 48 113
f 91 68 25
f 25 48 91
f 25 46 86
f 125 39 9
f 9 89 125
f 103 89 9
f 86 46 9
f 9 46 103
f 6 41 70
f 87 41 6
f 6 69 87
f 87 69 31
f 31 111 87
f 61 111 31
f 104 41 87
f 87 111 104
f 111 1 104
f 104 1 110
f 104 62 41
f 53 127 4
f 127 15 4
f 55 63 61
f 66 119 8
f 8 119 101
f 101 51 8
f 8 99 66
f 51 99 8
f 66 82 35
f 35 119 66
f 35 82 73
f 35 73 50
f 52 119 24
f 24 35 50
f 119 35 24
f 122 98 43
f 43 81 122
f 43 98 20
f 20 81 43
f 29 58 128
f 67 84 10
f 29 128 67
f 67 128 84
f 106 51 105
f 105 99 106
f 106 99 51
f 88 42 98
f 98 22 88
f 108 42 88
f 88 22 108
f 58 22 83
f 83 128 58
f 83 121 44
f 83 22 121
f 44 84 83
f 84 128 83
f 93 1 13
f 13 1 111
f 13 36 93
f 13 111 36
f 112 49 123
f 123 11 112
f 49 11 123
f 30 3 64
f 30 64 20
f 30 65 16
f 16 3 30
f 20 96 30
f 96 65 30
f 109 11 49
f 49 46 109
f 68 11 109
f 109 25 68
f 46 25 109
f 70 74 32
f 74 14 32
f 32 6 70
f 126 72 38
f 38 72 19
f 53 4 38
f 19 100 38
f 38 100 53
f 94 72 21
f 97 62 21
f 21 72 126
f 21 71 97
f 21 126 71
f 47 10 105
f 105 113 47
f 47 113 10
f 48 25 117
f 10 48 117
f 86 39 117
f 117 25 86
f 117 67 10
f 39 67 117
f 40 100 125
f 125 89 40
f 90 39 86
f 86 9 90
f 90 9 39
f 114 62 57
f 62 104 57
f 57 104 110
f 110 58 57
f 57 58 29
f 29 114 57
f 78 15 16
f 78 55 15
f 15 55 54
f 124 12 52
f 52 24 124
f 124 120 56
f 56 12 124
f 50 120 124
f 124 24 50
f 94 21 59
f 59 21 62
f 59 39 94
f 59 67 39
f 59 62 114
f 59 114 29
f 29 67 59
f 69 6 95
f 6 32 95
f 75 95 32
f 102 14 126
f 126 38 102
f 23 40 89
f 103 49 23
f 23 89 103
f 112 127 23
f 23 49 112
f 23 127 53
f 53 100 23
f 100 40 23
f 79 78 16
f 79 107 37
f 16 65 79
f 79 65 107
f 55 78 5
f 36 63 5
f 63 55 5
f 27 54 55
f 61 31 27
f 27 55 61
f 27 31 69
f 69 54 27
f 95 75 118
f 118 54 69
f 69 95 118
f 15 54 118
f 118 75 15
f 116 32 14
f 14 102 116
f 116 75 32
f 80 38 4
f 80 102 38
f 34 79 37
f 78 79 34
f 34 37 18
f 34 18 36
f 36 5 34
f 34 5 78
f 33 116 102
f 102 80 33
f 75 116 33
f 33 80 4
f 33 4 15
f 15 75 33

